# vtk DataFile Version 2.0
00000012.nii_R_ICA_MCA_radius_pt3d_curvature_torsion
ASCII
DATASET POLYDATA
POINTS 115 float
73.7454 76.6955 36.8215
74.268 76.6858 36.5161
74.7837 76.6363 36.1889
75.2907 76.5462 35.847
75.7869 76.4151 35.4977
76.2698 76.2426 35.1476
76.7366 76.0287 34.803
77.1841 75.7736 34.469
77.6088 75.4777 34.1499
78.0068 75.1418 33.8486
78.3742 74.7671 33.5667
78.6003 74.4966 33.3898
78.9085 74.0613 33.1399
79.1769 73.593 32.9067
79.4031 73.0949 32.6868
79.5857 72.5708 32.4758
79.7244 72.0252 32.2686
79.8198 71.4632 32.0598
79.8741 70.8902 31.8438
79.8901 70.3125 31.6155
79.872 69.7366 31.37
79.8249 69.1694 31.1029
79.7546 68.6185 30.8109
79.6678 68.0916 30.4915
79.5719 67.5965 30.1436
79.4743 67.1412 29.7677
79.3828 66.7335 29.3656
79.3047 66.3805 28.9408
79.2465 66.0891 28.4978
79.2137 65.8649 28.0422
79.2105 65.7126 27.5804
79.2394 65.6356 27.1193
79.2768 65.6271 26.8156
79.3595 65.6792 26.3709
79.4717 65.8083 25.9448
79.6092 66.0125 25.5433
79.7662 66.2879 25.1712
79.9358 66.6295 24.8321
80.1096 67.0307 24.5283
80.279 67.4836 24.2605
80.4347 67.9793 24.0277
80.5681 68.5083 23.8276
80.6713 69.0609 23.6568
80.7375 69.6273 23.5106
80.7612 70.198 23.3836
80.7382 70.7637 23.2697
80.6661 71.3158 23.1624
80.5441 71.8464 23.0551
80.3734 72.3488 22.941
80.1573 72.8174 22.8137
79.9008 73.2482 22.6671
79.6104 73.6385 22.4958
79.2935 73.9871 22.2955
79.0714 74.1963 22.144
78.7279 74.4765 21.888
78.3788 74.7183 21.5958
78.0313 74.9247 21.2667
77.6915 75.0998 20.9008
77.3646 75.248 20.499
77.054 75.3742 20.0631
76.7618 75.4833 19.5958
76.4885 75.5802 19.1003
76.2329 75.669 18.5806
75.9922 75.7536 18.041
75.7626 75.8369 17.4865
75.5393 75.9215 16.9221
75.3173 76.009 16.3532
75.0912 76.1009 15.7851
74.8555 76.1979 15.2231
74.6051 76.3003 14.6726
74.3352 76.4085 14.1386
74.0416 76.5222 13.6262
73.721 76.6418 13.1398
73.3709 76.7673 12.6834
73.1204 76.8545 12.3975
72.7187 76.991 11.9982
72.2864 77.1353 11.636
71.8251 77.2884 11.312
71.3369 77.4517 11.026
70.825 77.6266 10.7775
70.2926 77.8148 10.5648
69.7434 78.0178 10.3855
69.1813 78.2371 10.2367
68.6102 78.4739 10.1145
68.034 78.7296 10.0147
67.4563 79.0049 9.93244
66.8807 79.3006 9.86284
66.3105 79.617 9.80078
65.7486 79.9541 9.74112
65.1977 80.3116 9.67886
64.6602 80.6887 9.60912
64.1383 81.0841 9.52734
63.6341 81.4962 9.42926
63.1493 81.923 9.31105
62.6855 82.3619 9.16934
62.3888 82.6599 9.0604
61.9636 83.1123 8.87357
61.5634 83.5683 8.6571
61.1898 84.024 8.40981
60.8441 84.4756 8.13119
60.5279 84.9191 7.82137
60.2428 85.3505 7.48104
59.9903 85.766 7.11142
59.7724 86.1623 6.7142
59.5907 86.5363 6.2914
59.4471 86.8852 5.8453
59.3435 87.2069 5.37829
59.2817 87.4995 4.89277
59.2633 87.7616 4.39108
59.2901 87.9921 3.87545
59.3635 88.1903 3.3479
59.4847 88.3557 2.81027
59.6552 88.4878 2.26421
59.8758 88.5864 1.71117
60.1476 88.6512 1.15243
LINES 1 116
115 0 1 2 3 4 5 6 7 8 9 10 11 12 13 14 15 16 17 18 19 20 21 22 23 24 25 26 27 28 29 30 31 32 33 34 35 36 37 38 39 40 41 42 43 44 45 46 47 48 49 50 51 52 53 54 55 56 57 58 59 60 61 62 63 64 65 66 67 68 69 70 71 72 73 74 75 76 77 78 79 80 81 82 83 84 85 86 87 88 89 90 91 92 93 94 95 96 97 98 99 100 101 102 103 104 105 106 107 108 109 110 111 112 113 114

POINT_DATA 115
SCALARS radius float
LOOKUP_TABLE default
1.886
1.80776
1.72462
1.82696
1.86091
1.98296
2.10231
1.98333
2.01301
2.01959
2.05078
2.18786
2.28143
2.07702
2.27527
2.15135
1.97692
1.98674
1.93841
2.00854
2.01571
2.00758
2.06219
2.28735
2.15188
2.18779
2.24412
2.22469
2.38649
2.48778
2.60453
2.37049
2.55401
2.5021
2.50478
2.44381
2.52334
2.46544
2.49733
2.48993
2.43487
2.6762
2.69521
2.53712
2.47312
2.5373
2.90804
2.80666
2.5231
2.47675
2.49103
2.49229
2.40955
2.35354
2.33365
2.56296
2.67164
2.5326
2.66093
2.47065
2.53338
2.43855
2.58369
2.43376
2.35953
2.25595
2.23084
2.24164
2.2384
2.04067
2.07504
2.20021
2.0218
2.07004
2.02847
2.05285
2.16931
2.12704
2.25
2.11668
2.16086
2.06976
2.14281
2.09851
2.13696
2.08174
2.18205
2.15768
2.22145
2.18027
2.29275
2.21476
2.26351
2.26028
2.29418
2.34468
2.4282
2.41999
2.35018
2.39951
2.31651
2.3224
2.22204
2.2981
2.21715
2.2469
2.15038
2.35103
2.23516
2.15701
2.26735
2.022
1.99289
1.69274
1.64071
SCALARS curvature float
LOOKUP_TABLE default
0.134671
0.123846
0.115989
0.112137
0.112478
0.116423
0.12306
0.131378
0.140208
0.148271
0.15431
0.156699
0.157377
0.154315
0.147601
0.138105
0.127162
0.116069
0.106064
0.0984611
0.0945721
0.0955882
0.102232
0.114611
0.132703
0.156955
0.187854
0.225463
0.268997
0.315916
0.360623
0.394622
0.407207
0.407145
0.384899
0.346651
0.301122
0.25547
0.214292
0.18074
0.156266
0.141013
0.134474
0.135901
0.144075
0.157228
0.173031
0.188812
0.202059
0.211717
0.217186
0.217991
0.214463
0.210182
0.201541
0.190742
0.17813
0.163876
0.147984
0.130621
0.112075
0.0925066
0.07216
0.0516573
0.031809
0.0149194
0.0158036
0.0325778
0.0513905
0.0704164
0.0889942
0.106377
0.121648
0.133772
0.139557
0.144105
0.143701
0.139017
0.13103
0.120766
0.109124
0.0969004
0.0848153
0.0736798
0.0642827
0.0573135
0.0532331
0.0521519
0.0537071
0.0572084
0.0619579
0.0673814
0.0730703
0.0787861
0.0843898
0.08803
0.0933892
0.098754
0.104272
0.110105
0.116438
0.123393
0.130995
0.139194
0.147832
0.156564
0.164867
0.172114
0.177599
0.180632
0.18073
0.177731
0.171829
0.163522
0.153511
SCALARS torsion float
LOOKUP_TABLE default
-0.149936
-0.175201
-0.186723
-0.176739
-0.147657
-0.108841
-0.0661256
-0.0239402
0.0137806
0.0488922
0.083826
0.104903
0.13301
0.159059
0.185517
0.213039
0.241759
0.271791
0.305164
0.337252
0.357204
0.350513
0.314965
0.266317
0.219188
0.177146
0.14119
0.110415
0.0836765
0.0580512
0.0304809
0.00165041
-0.0172735
-0.0456031
-0.074028
-0.100913
-0.1281
-0.160113
-0.198714
-0.241048
-0.281673
-0.311766
-0.326615
-0.320818
-0.299436
-0.273412
-0.252882
-0.24367
-0.245485
-0.251867
-0.258759
-0.264833
-0.270638
-0.272255
-0.268639
-0.258634
-0.244266
-0.22603
-0.205839
-0.186199
-0.166376
-0.145921
-0.140477
-0.168853
-0.307384
-1.15823
-1.03426
-0.27213
-0.124693
-0.0702326
-0.0394182
-0.0162098
0.00190237
0.0181372
0.0293461
0.0471496
0.063639
0.079635
0.0959112
0.114018
0.135678
0.163108
0.199058
0.244519
0.296207
0.343517
0.370935
0.364068
0.327075
0.27868
0.232828
0.195104
0.165703
0.142766
0.124592
0.114392
0.100606
0.0875137
0.0742857
0.0606813
0.0464888
0.0313205
0.0157745
0.00228472
-0.0092647
-0.01902
-0.0262555
-0.0307785
-0.0326223
-0.0322941
-0.0303033
-0.0267826
-0.0224331
-0.0188605
-0.0160941
