# vtk DataFile Version 2.0
vtk output
ASCII
DATASET POLYDATA
POINTS 300 float
12.8384 22.8667 -7.4748
12.5689 22.6378 -7.47796
12.2993 22.4089 -7.48113
12.0298 22.1799 -7.4843
11.7602 21.951 -7.48746
11.4906 21.7221 -7.49063
11.2211 21.4932 -7.49379
10.9515 21.2643 -7.49696
10.682 21.0354 -7.50012
10.4124 20.8065 -7.50329
10.1428 20.5775 -7.50646
9.87328 20.3486 -7.50962
9.60372 20.1197 -7.51279
9.33416 19.8908 -7.51595
9.0646 19.6619 -7.51912
8.79504 19.433 -7.52228
8.52548 19.204 -7.52545
8.25592 18.9751 -7.52861
7.98636 18.7462 -7.53178
7.71681 18.5173 -7.53495
7.44725 18.2884 -7.53811
7.17769 18.0595 -7.54128
6.90813 17.8305 -7.54444
6.63857 17.6016 -7.54761
6.36901 17.3727 -7.55077
6.09945 17.1438 -7.55394
5.82989 16.9149 -7.55711
5.56033 16.686 -7.56027
5.29077 16.457 -7.56344
5.02121 16.2281 -7.5666
4.75165 15.9992 -7.56977
4.48209 15.7703 -7.57293
4.21254 15.5414 -7.5761
3.94298 15.3125 -7.57927
3.67342 15.0835 -7.58243
3.40386 14.8546 -7.5856
3.13356 14.6273 -7.57601
2.86213 14.4025 -7.54698
2.58943 14.1814 -7.50539
2.31594 13.9627 -7.45588
2.03992 13.7494 -7.39807
1.76302 13.5379 -7.33735
1.48198 13.3328 -7.27397
1.19992 13.1293 -7.20994
0.912091 12.933 -7.14946
0.623129 12.738 -7.08967
0.327 12.5511 -7.04054
0.0298156 12.3654 -6.99299
-0.275365 12.1889 -6.96548
-0.581551 12.0138 -6.9416
-0.894004 11.8482 -6.94694
-1.207 11.6857 -6.9646
-1.5213 11.5307 -7.01221
-1.83143 11.3817 -7.08987
-2.13871 11.2368 -7.18814
-2.42814 11.0994 -7.33752
-2.70609 10.9632 -7.50658
-2.96641 10.8288 -7.70465
-3.19948 10.6905 -7.93103
-3.41856 10.5484 -8.16889
-3.61051 10.3958 -8.42375
-3.7827 10.2309 -8.68421
-3.94163 10.0577 -8.94844
-4.07063 9.86095 -9.21237
-4.18982 9.65637 -9.4745
-4.28751 9.4346 -9.73208
-4.36908 9.20199 -9.98509
-4.43841 8.96116 -10.2346
-4.4867 8.71073 -10.4793
-4.52986 8.45795 -10.7229
-4.55017 8.20029 -10.9643
-4.56809 7.94253 -11.2057
-4.56785 7.68474 -11.4478
-4.56491 7.42726 -11.6901
-4.54797 7.17135 -11.9337
-4.52825 6.91549 -12.177
-4.49768 6.65984 -12.4194
-4.46415 6.40295 -12.6601
-4.4223 6.14256 -12.8957
-4.37645 5.87713 -13.1246
-4.32457 5.60413 -13.3433
-4.26581 5.31592 -13.5387
-4.20202 5.01576 -13.7125
-4.12898 4.69091 -13.8317
-4.04734 4.34972 -13.8551
-3.96273 4.02516 -13.761
-3.88137 3.75165 -13.5609
-3.80457 3.5343 -13.2965
-3.73068 3.36095 -12.9981
-3.65751 3.2365 -12.6752
-3.58209 3.14315 -12.3434
-3.50506 3.06963 -12.0063
-3.42268 3.03743 -11.6639
-3.33794 3.0255 -11.3215
-3.25034 3.038 -10.9791
-3.16156 3.08698 -10.6407
-3.07351 3.15162 -10.3047
-2.9893 3.24786 -9.975
-2.91183 3.3619 -9.64976
-2.83943 3.4893 -9.32789
-2.78354 3.63576 -9.01096
-2.73444 3.78648 -8.695
-2.7026 3.94557 -8.38075
-2.68392 4.10626 -8.06652
-2.67748 4.26842 -7.7523
-2.69133 4.42891 -7.43766
-2.71135 4.5889 -7.12289
-2.7567 4.74379 -6.80822
-2.80649 4.8974 -6.49371
-2.87586 5.0451 -6.17995
-2.95198 5.18975 -5.86651
-3.04157 5.32832 -5.5537
-3.13918 5.46053 -5.24072
-3.24506 5.5862 -4.92755
-3.35909 5.69887 -4.6125
-3.47719 5.80507 -4.29651
-3.60248 5.88509 -3.97577
-3.72932 5.95438 -3.65341
-3.85914 5.98784 -3.32615
-3.98774 5.99036 -2.99798
-4.11527 5.96592 -2.66902
-4.23319 5.87531 -2.34837
-4.34305 5.75284 -2.03743
-4.44301 5.59236 -1.73855
-4.52283 5.38187 -1.4666
-4.5936 5.15414 -1.20665
-4.6474 4.89766 -0.969165
-4.68867 4.62636 -0.74708
-4.72073 4.34418 -0.536317
-4.73825 4.04984 -0.341489
-4.75167 3.75207 -0.151158
-4.75124 3.44595 0.0258251
-4.74944 3.139 0.201481
-4.73577 2.8265 0.36649
-4.72145 2.5137 0.53086
-4.69873 2.19719 0.686997
-4.67503 1.88012 0.841797
-4.6458 1.55987 0.988963
-4.61538 1.2385 1.13333
-4.58162 0.91398 1.26979
-4.54665 0.587432 1.40082
-4.50991 0.257968 1.52402
-4.47207 -0.0745766 1.638
-4.43347 -0.409241 1.74563
-4.39387 -0.747734 1.83986
-4.35402 -1.08724 1.93053
-4.31298 -1.43052 2.00499
-4.27155 -1.77436 2.07638
-4.22868 -2.12024 2.13641
-4.18459 -2.46666 2.19202
-4.13861 -2.81392 2.24073
-4.09003 -3.16134 2.28541
-4.03917 -3.50889 2.32655
-3.98401 -3.85603 2.36549
-3.92636 -4.20292 2.40315
-3.86278 -4.54868 2.4414
-3.79657 -4.89395 2.47993
-3.7233 -5.23726 2.52254
-3.64741 -5.57985 2.56668
-3.56393 -5.91942 2.61917
-3.47804 -6.25803 2.67431
-3.38468 -6.59191 2.74373
-3.28966 -6.92474 2.81635
-3.18811 -7.24946 2.91266
-3.08561 -7.57148 3.01602
-2.98036 -7.88219 3.14815
-2.87597 -8.18181 3.30246
-2.77239 -8.47081 3.47804
-2.67538 -8.72657 3.70218
-2.58322 -8.95532 3.95373
-2.4948 -9.15248 4.23246
-2.40774 -9.31503 4.53424
-2.30874 -9.43605 4.85146
-2.18881 -9.53604 5.16823
-2.04273 -9.62041 5.47811
-1.86791 -9.69367 5.77631
-1.64831 -9.75722 6.04615
-1.40089 -9.81532 6.29053
-1.13455 -9.86917 6.51621
-0.84134 -9.91443 6.70871
-0.537795 -9.95297 6.88487
-0.223979 -9.98482 7.04481
0.0992011 -10.0036 7.1865
0.425558 -10.0179 7.322
0.757894 -10.0126 7.44253
1.09089 -10.0051 7.56143
1.42576 -9.97219 7.67029
1.76045 -9.93715 7.77877
2.09302 -9.87642 7.88263
2.42471 -9.81157 7.98632
2.7514 -9.72335 8.08909
3.0762 -9.62943 8.19227
3.39478 -9.51693 8.29678
3.71054 -9.39834 8.40266
4.02065 -9.26755 8.51129
4.32761 -9.13204 8.62282
4.63067 -8.99068 8.73793
4.93116 -8.84826 8.85823
5.22977 -8.70507 8.98233
5.52706 -8.56698 9.11494
5.82387 -8.43079 9.25072
6.12047 -8.30836 9.39928
6.41703 -8.18961 9.55081
6.71336 -8.0903 9.71635
7.00915 -7.99887 9.88676
7.30377 -7.92463 10.0678
7.59647 -7.86321 10.256
7.88741 -7.81357 10.4508
8.17481 -7.77828 10.6536
8.46076 -7.74885 10.8596
8.74203 -7.73113 11.0732
9.02253 -7.71521 11.288
9.2978 -7.70537 11.5098
9.57215 -7.69554 11.7327
9.84163 -7.68578 11.9616
10.1085 -7.67469 12.1932
10.3701 -7.66083 12.4309
10.6249 -7.64416 12.6754
10.8741 -7.62515 12.9256
11.1067 -7.60383 13.191
11.3289 -7.58298 13.4648
11.5295 -7.56463 13.7555
11.7017 -7.55608 14.0637
11.8514 -7.55849 14.3832
11.9742 -7.57666 14.7144
12.0666 -7.62538 15.0521
12.1481 -7.6972 15.388
12.223 -7.792 15.7201
12.3016 -7.92417 16.0385
12.3965 -8.08534 16.3374
12.5054 -8.26678 16.6196
12.6474 -8.48055 16.863
12.8128 -8.70765 17.0742
12.9986 -8.94633 17.2575
13.2124 -9.19101 17.393
13.4364 -9.43791 17.511
13.6777 -9.68147 17.5917
13.9294 -9.92301 17.6498
14.1811 -10.1645 17.7079
14.4328 -10.4061 17.766
14.6845 -10.6476 17.8241
14.9362 -10.8892 17.8822
15.1879 -11.1307 17.9402
15.4397 -11.3722 17.9983
15.6914 -11.6138 18.0564
15.9431 -11.8553 18.1145
16.1948 -12.0969 18.1726
16.4465 -12.3384 18.2307
16.6982 -12.5799 18.2888
16.9499 -12.8215 18.3469
17.2017 -13.063 18.405
17.4534 -13.3045 18.463
17.7051 -13.5461 18.5211
17.9568 -13.7876 18.5792
18.2085 -14.0292 18.6373
18.4602 -14.2707 18.6954
18.7119 -14.5122 18.7535
18.9637 -14.7538 18.8116
19.2154 -14.9953 18.8697
19.4671 -15.2368 18.9278
19.7188 -15.4784 18.9858
19.9705 -15.7199 19.0439
20.2222 -15.9615 19.102
20.4739 -16.203 19.1601
20.7256 -16.4445 19.2182
20.9774 -16.6861 19.2763
21.2291 -16.9276 19.3344
21.4808 -17.1692 19.3925
21.7325 -17.4107 19.4506
21.9842 -17.6522 19.5086
22.2359 -17.8938 19.5667
22.4876 -18.1353 19.6248
22.7394 -18.3768 19.6829
22.9911 -18.6184 19.741
23.2428 -18.8599 19.7991
23.4945 -19.1015 19.8572
23.7462 -19.343 19.9153
23.9979 -19.5845 19.9734
24.2496 -19.8261 20.0315
24.5014 -20.0676 20.0895
24.7531 -20.3092 20.1476
25.0048 -20.5507 20.2057
25.2565 -20.7922 20.2638
25.5082 -21.0338 20.3219
25.7599 -21.2753 20.38
26.0116 -21.5168 20.4381
26.2633 -21.7584 20.4962
26.5151 -21.9999 20.5543
26.7668 -22.2415 20.6123
27.0185 -22.483 20.6704
27.2702 -22.7245 20.7285
27.5219 -22.9661 20.7866
27.7736 -23.2076 20.8447
28.0253 -23.4492 20.9028
28.2771 -23.6907 20.9609
28.5288 -23.9322 21.019
28.7805 -24.1738 21.0771
29.0322 -24.4153 21.1351
29.2839 -24.6568 21.1932
29.5356 -24.8984 21.2513
LINES 1 301
300 0 1 2 3 4 5 6 7 8 9 10 11 12 13 14 15 16 17 18 19 20 21 22 23 24 25 26 27 28 29 30 31 32 33 34 35 36 37 38 39 40 41 42 43 44 45 46 47 48 49 50 51 52 53 54 55 56 57 58 59 60 61 62 63 64 65 66 67 68 69 70 71 72 73 74 75 76 77 78 79 80 81 82 83 84 85 86 87 88 89 90 91 92 93 94 95 96 97 98 99 100 101 102 103 104 105 106 107 108 109 110 111 112 113 114 115 116 117 118 119 120 121 122 123 124 125 126 127 128 129 130 131 132 133 134 135 136 137 138 139 140 141 142 143 144 145 146 147 148 149 150 151 152 153 154 155 156 157 158 159 160 161 162 163 164 165 166 167 168 169 170 171 172 173 174 175 176 177 178 179 180 181 182 183 184 185 186 187 188 189 190 191 192 193 194 195 196 197 198 199 200 201 202 203 204 205 206 207 208 209 210 211 212 213 214 215 216 217 218 219 220 221 222 223 224 225 226 227 228 229 230 231 232 233 234 235 236 237 238 239 240 241 242 243 244 245 246 247 248 249 250 251 252 253 254 255 256 257 258 259 260 261 262 263 264 265 266 267 268 269 270 271 272 273 274 275 276 277 278 279 280 281 282 283 284 285 286 287 288 289 290 291 292 293 294 295 296 297 298 299

POINT_DATA 300
SCALARS label int
LOOKUP_TABLE default
0
0
0
0
0
0
0
0
0
0
0
0
0
0
0
0
0
0
0
0
0
0
0
0
0
0
0
0
0
0
0
0
0
0
0
0
0
0
0
0
0
0
0
0
0
0
0
0
0
0
0
0
0
0
0
0
0
0
0
0
0
0
0
0
0
0
0
0
0
0
0
0
0
0
0
0
0
0
0
0
0
0
0
0
0
0
0
0
0
0
0
0
0
0
0
0
0
0
0
0
0
0
0
0
0
0
0
0
0
0
0
0
0
0
0
0
0
0
0
0
0
0
0
0
0
0
0
0
0
0
0
0
0
0
0
0
0
0
0
0
0
0
0
0
0
0
0
0
0
0
0
0
0
0
0
0
0
0
0
0
0
0
0
0
0
0
0
0
0
0
0
0
0
0
0
0
0
0
0
0
0
0
0
0
0
0
0
0
0
0
0
0
0
0
0
0
0
0
0
0
0
0
0
0
0
0
0
0
0
0
0
0
0
0
0
0
0
0
0
0
0
0
0
0
0
0
0
0
0
0
0
0
0
0
0
0
0
0
0
0
0
0
0
0
0
0
0
0
0
0
0
0
0
0
0
0
0
0
0
0
0
0
0
0
0
0
0
0
0
0
0
0
0
0
0
0
0
0
0
0
0
0
0
0
0
0
0
0
0
0
0
0
0
0
0
0
0
0
0
0

SCALARS attribute int
LOOKUP_TABLE default
0
0
0
0
0
0
0
0
0
0
0
0
0
0
0
0
0
0
0
0
0
0
0
0
0
0
0
0
0
0
0
0
0
0
0
0
0
0
0
0
0
0
0
0
0
0
0
0
0
0
0
0
0
0
0
0
0
0
0
0
0
0
0
0
0
0
0
0
0
0
0
0
0
0
0
0
0
0
0
0
0
0
0
0
0
0
0
0
0
0
0
0
0
0
0
0
0
0
0
0
0
0
0
0
0
0
0
0
0
0
0
0
0
0
0
0
0
0
0
0
0
0
0
0
0
0
0
0
0
0
0
0
0
0
0
0
0
0
0
0
0
0
0
0
0
0
0
0
0
0
0
0
0
0
0
0
0
0
0
0
0
0
0
0
0
0
0
0
0
0
0
0
0
0
0
0
0
0
0
0
0
0
0
0
0
0
0
0
0
0
0
0
0
0
0
0
0
0
0
0
0
0
0
0
0
0
0
0
0
0
0
0
0
0
0
0
0
0
0
0
0
0
0
0
0
0
0
0
0
0
0
0
0
0
0
0
0
0
0
0
0
0
0
0
0
0
0
0
0
0
0
0
0
0
0
0
0
0
0
0
0
0
0
0
0
0
0
0
0
0
0
0
0
0
0
0
0
0
0
0
0
0
0
0
0
0
0
0
0
0
0
0
0
0
0
0
0
0
0
0

SCALARS radius float
LOOKUP_TABLE default
1.5
1.5
1.5
1.5
1.5
1.5
1.5
1.5
1.5
1.5
1.5
1.5
1.5
1.5
1.5
1.5
1.5
1.5
1.5
1.5
1.5
1.5
1.5
1.5
1.5
1.5
1.5
1.5
1.5
1.5
1.5
1.5
1.5
1.5
1.5
1.5
1.5
1.5
1.5
1.5
1.5
1.5
1.5
1.5
1.5
1.5
1.5
1.5
1.5
1.5
1.5
1.5
1.5
1.5
1.5
1.5
1.5
1.5
1.5
1.5
1.5
1.5
1.5
1.5
1.5
1.5
1.5
1.5
1.5
1.5
1.5
1.5
1.5
1.5
1.5
1.5
1.5
1.5
1.5
1.5
1.5
1.5
1.5
1.5
1.5
1.5
1.5
1.5
1.5
1.5
1.5
1.5
1.5
1.5
1.5
1.5
1.5
1.5
1.5
1.5
1.5
1.5
1.5
1.5
1.5
1.5
1.5
1.5
1.5
1.5
1.5
1.5
1.5
1.5
1.5
1.5
1.5
1.5
1.5
1.5
1.5
1.5
1.5
1.5
1.5
1.5
1.5
1.5
1.5
1.5
1.5
1.5
1.5
1.5
1.5
1.5
1.5
1.5
1.5
1.5
1.5
1.5
1.5
1.5
1.5
1.5
1.5
1.5
1.5
1.5
1.5
1.5
1.5
1.5
1.5
1.5
1.5
1.5
1.5
1.5
1.5
1.5
1.5
1.5
1.5
1.5
1.5
1.5
1.5
1.5
1.5
1.5
1.5
1.5
1.5
1.5
1.5
1.5
1.5
1.5
1.5
1.5
1.5
1.5
1.5
1.5
1.5
1.5
1.5
1.5
1.5
1.5
1.5
1.5
1.5
1.5
1.5
1.5
1.5
1.5
1.5
1.5
1.5
1.5
1.5
1.5
1.5
1.5
1.5
1.5
1.5
1.5
1.5
1.5
1.5
1.5
1.5
1.5
1.5
1.5
1.5
1.5
1.5
1.5
1.5
1.5
1.5
1.5
1.5
1.5
1.5
1.5
1.5
1.5
1.5
1.5
1.5
1.5
1.5
1.5
1.5
1.5
1.5
1.5
1.5
1.5
1.5
1.5
1.5
1.5
1.5
1.5
1.5
1.5
1.5
1.5
1.5
1.5
1.5
1.5
1.5
1.5
1.5
1.5
1.5
1.5
1.5
1.5
1.5
1.5
1.5
1.5
1.5
1.5
1.5
1.5
1.5
1.5
1.5
1.5
1.5
1.5
1.5
1.5
1.5
1.5
1.5
1.5
1.5
1.5
1.5
1.5
1.5
1.5
1.5
1.5
1.5
1.5
1.5
1.5

SCALARS curvature float
LOOKUP_TABLE default
0.0195078
0.0190589
0.0186009
0.0181283
0.0171195
0.016573
0.0159917
0.0153719
0.0140059
0.0132578
0.0124701
0.0116517
0.0100003
0.00923875
0.00860114
0.00806677
0.00834936
0.00905253
0.0101421
0.0132043
0.015045
0.0170167
0.0190728
0.0232857
0.0253689
0.0273865
0.0310919
0.0327148
0.0341417
0.0353453
0.0370041
0.0374366
0.0376043
0.0375248
0.0368054
0.0363125
0.035881
0.0356743
0.0366998
0.0383174
0.0408743
0.049007
0.0545416
0.0609705
0.0682088
0.0847659
0.0939021
0.103471
0.113352
0.133489
0.143414
0.152977
0.170138
0.177299
0.18323
0.187749
0.192148
0.191958
0.190227
0.18709
0.177336
0.17115
0.164424
0.150353
0.143471
0.136995
0.131147
0.122186
0.119509
0.118327
0.118842
0.125677
0.132301
0.141233
0.1526
0.183268
0.202974
0.225945
0.282958
0.317619
0.356664
0.400077
0.497721
0.549035
0.598628
0.642829
0.698329
0.702915
0.690509
0.622922
0.575419
0.524322
0.472923
0.37746
0.335459
0.297665
0.263929
0.207384
0.183828
0.162926
0.12788
0.113279
0.100435
0.0893095
0.0725681
0.0673649
0.0646378
0.06458
0.07223
0.0793949
0.0883416
0.0987792
0.123263
0.136982
0.151468
0.181918
0.197367
0.212509
0.226917
0.251723
0.261191
0.268146
0.272325
0.271997
0.267678
0.260964
0.242019
0.230672
0.218641
0.206295
0.181801
0.170065
0.158852
0.148239
0.128937
0.120232
0.112121
0.10456
0.0908328
0.0845338
0.078522
0.0670842
0.0615329
0.0560196
0.0505023
0.0393503
0.0337112
0.0281012
0.0226892
0.0146144
0.0143703
0.0175785
0.0297755
0.0371901
0.0450652
0.0532757
0.0704086
0.0792087
0.0880922
0.0970063
0.1147
0.123356
0.131798
0.147827
0.155299
0.162339
0.168918
0.180583
0.185619
0.190124
0.194103
0.200444
0.202776
0.204517
0.205622
0.205724
0.204644
0.20275
0.196388
0.191914
0.186595
0.180461
0.16601
0.157849
0.149174
0.140082
0.121022
0.111217
0.101331
0.0815913
0.0718554
0.0622898
0.0529711
0.0356049
0.0281338
0.0223938
0.0197562
0.0259343
0.032382
0.0395945
0.0546348
0.062079
0.0693249
0.0762913
0.0891328
0.094892
0.100138
0.10483
0.112415
0.115265
0.11748
0.119071
0.120493
0.120421
0.119913
0.117937
0.116668
0.11536
0.114135
0.112458
0.112269
0.112662
0.113725
0.118038
0.121263
0.125104
0.134133
0.138972
0.143746
0.148247
0.155577
0.157991
0.159368
0.159613
0.156477
0.153118
0.148662
0.143216
0.129884
0.122321
0.114366
0.0978411
0.0895243
0.0813141
0.0732951
0.0580747
0.0509741
0.0442693
0.037986
0.0268056
0.0219986
0.0177956
0.0117064
0.0101868
0.00979357
0.0102867
0.0124093
0.0135068
0.0144553
0.0152003
0.0160002
0.0160583
0.0159044
0.0150332
0.014359
0.0135581
0.0126559
0.0106393
0.00957241
0.00849853
0.00743769
0.00544109
0.00455552
0.00378281
0.0031609
0.0025363
0.00255121
0.00271987
0.00324862
0.00351976
0.00376583
0.00397737
0.00428455
0.00438262
0.00444792
0.0044844
0.00448702
0.00446167
0.00442417
0.00432484
0.0042688
0.00421208
0.00415599
0.00404994
0.00400196
0.00395763
0.00391676
0.00384495
0.00381345
0.00378428

SCALARS torsion float
LOOKUP_TABLE default
0.0467351
0.0498569
0.0539334
0.0591518
0.0739555
0.0841124
0.0967405
0.112544
0.156671
0.187736
0.227826
0.2795
0.431476
0.538545
0.660942
0.847368
0.842136
0.763797
0.649501
0.441826
0.367758
0.311428
0.269657
0.217003
0.201068
0.190425
0.181684
0.181849
0.185067
0.191655
0.214281
0.231209
0.253209
0.280493
0.352206
0.397875
0.447703
0.496588
0.56575
0.571024
0.552031
0.468145
0.419116
0.372449
0.331372
0.268621
0.24542
0.226925
0.212605
0.192458
0.185578
0.180611
0.174395
0.172645
0.171811
0.171615
0.172305
0.173367
0.174887
0.176758
0.18208
0.1858
0.190251
0.201455
0.208169
0.215351
0.222552
0.234204
0.236642
0.235398
0.229767
0.205636
0.188776
0.170428
0.151991
0.11849
0.104116
0.0915625
0.0715478
0.0634535
0.0564708
0.050542
0.0407777
0.0367685
0.0334676
0.0307872
0.0272573
0.0265712
0.0266497
0.0290288
0.0311361
0.0338544
0.037256
0.0455838
0.0506601
0.0567114
0.0638048
0.0819839
0.0942201
0.109353
0.15182
0.182058
0.220554
0.268725
0.392079
0.455304
0.501295
0.515555
0.450729
0.396934
0.344709
0.299272
0.231633
0.207419
0.187977
0.159609
0.149009
0.139924
0.132014
0.118348
0.111873
0.105506
0.0992207
0.0861538
0.0794
0.0727205
0.0591483
0.0523065
0.0456259
0.0389858
0.0255487
0.019001
0.0125015
0.00594121
-0.00667865
-0.0125329
-0.0180717
-0.0231322
-0.0310458
-0.0335862
-0.0349512
-0.0330475
-0.0287374
-0.0213386
-0.00976468
0.0373209
0.0845112
0.164793
0.310361
0.951227
1.03964
0.706489
0.222201
0.122156
0.0624093
0.023864
-0.0221738
-0.0374666
-0.0503422
-0.061556
-0.0811
-0.0905235
-0.0997581
-0.117514
-0.126536
-0.13535
-0.143524
-0.158318
-0.1646
-0.169487
-0.172929
-0.175248
-0.173777
-0.170516
-0.165539
-0.151251
-0.142146
-0.131808
-0.109543
-0.0980121
-0.0860978
-0.0742224
-0.0514578
-0.0400821
-0.0287446
-0.0175415
0.00610857
0.0194513
0.0345188
0.0748923
0.104666
0.146426
0.208512
0.471091
0.754122
1.1841
1.50787
0.853173
0.538551
0.353536
0.178366
0.135471
0.106584
0.0867892
0.0640539
0.0579679
0.0544884
0.0533244
0.0567517
0.0610673
0.0670725
0.0748288
0.095815
0.108784
0.123569
0.158935
0.178872
0.200176
0.222694
0.266477
0.285467
0.301422
0.312995
0.319789
0.31564
0.307251
0.281024
0.26536
0.249263
0.233263
0.202639
0.188695
0.176025
0.164406
0.14401
0.135606
0.128203
0.121604
0.111575
0.108136
0.105531
0.103876
0.105116
0.107737
0.112153
0.128902
0.142511
0.161433
0.188343
0.282445
0.364449
0.486909
0.870516
1.01661
0.978737
0.793215
0.439396
0.334953
0.264766
0.216809
0.161331
0.145828
0.135142
0.125194
0.124983
0.127348
0.132613
0.154794
0.173077
0.198461
0.234501
0.357721
0.460195
0.603212
0.781489
0.992475
0.891926
0.716218
0.421385
0.331122
0.267837
0.222758
0.1671
0.149789
0.136454
0.126082
0.111587
0.106015
0.101124
0.0929163
0.0889841
0.0850878
0.0813814
0.0741746
0.0707069
0.0675732
0.0648034
0.0605135
0.059182
0.0584741

