# vtk DataFile Version 2.0
00000900.nii_R_ICA_MCA_radius_pt3d_curvature_torsion
ASCII
DATASET POLYDATA
POINTS 150 float
83.5154 84.8781 38.7004
84.0238 84.9886 38.5709
84.5317 85.0829 38.3924
85.0361 85.1583 38.1676
85.534 85.2121 37.8996
86.0218 85.2418 37.5921
86.4957 85.2453 37.2487
86.9518 85.221 36.8735
87.3859 85.1675 36.4706
87.923 85.0497 35.8974
88.2891 84.9261 35.4461
88.6189 84.7728 34.9809
88.9085 84.5907 34.5059
89.1543 84.3809 34.0248
89.353 84.1452 33.5411
89.5021 83.8855 33.0579
89.5993 83.6041 32.578
89.6432 83.3034 32.1036
89.6328 82.9862 31.6366
89.5677 82.6553 31.1786
89.4484 82.3139 30.7304
89.2758 81.9653 30.2924
89.052 81.6132 29.8645
88.7793 81.2615 29.4463
88.4612 80.9143 29.0367
88.1013 80.5763 28.6345
87.7045 80.252 28.2383
87.1266 79.8495 27.7165
86.6642 79.5767 27.3279
86.184 79.3344 26.9403
85.693 79.1275 26.5527
85.1985 78.9604 26.1646
84.708 78.8373 25.7766
84.2291 78.7613 25.3894
83.7692 78.7348 25.0049
83.3357 78.7593 24.6255
82.9355 78.8353 24.2543
82.5751 78.9623 23.8953
82.2607 79.1388 23.5525
81.9975 79.3623 23.2307
81.7899 79.6292 22.9349
81.6412 79.9349 22.67
81.5534 80.2742 22.441
81.5276 80.6411 22.2526
81.5893 81.163 22.0718
81.7056 81.571 21.9934
81.8788 81.987 21.9667
82.1047 82.406 21.993
82.3781 82.8236 22.0726
82.6926 83.2362 22.2045
83.0415 83.6416 22.3865
83.417 84.0381 22.6154
83.8114 84.4254 22.8868
84.2164 84.8039 23.195
84.6239 85.175 23.5334
85.0259 85.541 23.8943
85.415 85.9043 24.2693
85.7843 86.2679 24.6492
86.1278 86.6348 25.0247
86.4405 87.0075 25.3862
86.719 87.3881 25.7245
86.9609 87.7781 26.0309
87.2248 88.3136 26.3761
87.3791 88.7265 26.5786
87.4975 89.1476 26.7266
87.5822 89.575 26.8158
87.6361 90.0062 26.8434
87.6626 90.4379 26.808
87.6653 90.8668 26.7095
87.6481 91.2893 26.5487
87.6146 91.7017 26.3277
87.5685 92.1005 26.0492
87.5128 92.4827 25.7168
87.4505 92.8454 25.3351
87.3837 93.1866 24.9093
87.3139 93.5046 24.4448
87.2423 93.7986 23.9473
87.1691 94.0683 23.4224
87.094 94.3141 22.8754
87.0164 94.5369 22.3115
86.9068 94.8002 21.5411
86.818 94.9744 20.955
86.7213 95.1306 20.3658
86.6146 95.2707 19.777
86.4957 95.3966 19.1916
86.362 95.5104 18.6122
86.2112 95.6143 18.0413
86.0408 95.7103 17.4812
85.8488 95.8005 16.9339
85.6331 95.887 16.4013
85.3923 95.972 15.8852
85.1253 96.0574 15.3873
84.8316 96.1452 14.9093
84.5109 96.2374 14.4529
84.1636 96.3357 14.0198
83.7905 96.442 13.6116
83.393 96.5577 13.2297
82.8278 96.7289 12.7638
82.3802 96.8715 12.4485
81.9149 97.0272 12.1634
81.4344 97.1966 11.9093
80.9411 97.3799 11.6864
80.4377 97.5773 11.495
79.9267 97.7885 11.3347
79.4103 98.0134 11.2047
78.8908 98.2514 11.1041
78.3702 98.5021 11.0315
77.8501 98.7652 10.9852
77.332 99.0403 10.9632
76.8173 99.3272 10.9633
76.307 99.6256 10.9831
75.802 99.9356 11.0198
75.3031 100.257 11.0707
74.8107 100.59 11.1327
74.3256 100.935 11.2027
73.6907 101.413 11.3028
73.224 101.786 11.3786
72.766 102.17 11.4513
72.3173 102.565 11.5174
71.8783 102.971 11.5737
71.4497 103.387 11.6167
71.0324 103.813 11.6434
70.627 104.247 11.6508
70.2346 104.687 11.636
69.8561 105.134 11.5966
69.4925 105.584 11.5304
69.145 106.037 11.4356
68.8146 106.49 11.3107
68.5024 106.942 11.1549
68.2095 107.391 10.9675
67.9367 107.836 10.7483
67.6849 108.275 10.4974
67.4549 108.706 10.2153
67.1829 109.266 9.79197
67.0055 109.674 9.44054
66.8511 110.07 9.06162
66.7196 110.454 8.6569
66.6109 110.824 8.22826
66.5247 111.18 7.7777
66.4604 111.521 7.30727
66.4177 111.847 6.81905
66.3961 112.156 6.31504
66.3949 112.449 5.79718
66.4137 112.725 5.26728
66.4519 112.983 4.72701
66.5092 113.224 4.1779
66.5851 113.445 3.62133
66.6793 113.648 3.05851
66.7913 113.832 2.49051
66.921 113.997 1.91828
LINES 1 151
150 0 1 2 3 4 5 6 7 8 9 10 11 12 13 14 15 16 17 18 19 20 21 22 23 24 25 26 27 28 29 30 31 32 33 34 35 36 37 38 39 40 41 42 43 44 45 46 47 48 49 50 51 52 53 54 55 56 57 58 59 60 61 62 63 64 65 66 67 68 69 70 71 72 73 74 75 76 77 78 79 80 81 82 83 84 85 86 87 88 89 90 91 92 93 94 95 96 97 98 99 100 101 102 103 104 105 106 107 108 109 110 111 112 113 114 115 116 117 118 119 120 121 122 123 124 125 126 127 128 129 130 131 132 133 134 135 136 137 138 139 140 141 142 143 144 145 146 147 148 149

POINT_DATA 150
SCALARS radius float
LOOKUP_TABLE default
2.09207
1.96962
1.99581
2.02759
2.19805
2.10843
2.10603
2.10043
2.1357
2.05818
2.09315
2.03404
2.04513
1.97669
1.97692
1.94621
2.00727
2.00623
2.08238
2.07687
2.02765
2.04746
2.04118
2.03187
2.11943
2.22103
2.20374
2.21104
2.18024
2.20943
2.23544
2.34856
2.30955
2.28459
2.32832
2.41238
2.49786
2.37932
2.34334
2.41065
2.53816
2.44907
2.71753
2.957
2.65309
2.6134
2.55958
2.59841
2.6417
2.65162
2.59547
2.77699
2.66841
2.63728
2.69682
2.77262
2.69362
2.85721
2.8649
2.81203
3.08531
3.07561
3.13225
3.31525
2.98846
3.16477
2.96324
3.12118
2.99698
2.92786
2.90883
2.87447
2.87454
2.93704
2.96742
2.7898
2.9195
2.77578
2.81583
2.73805
2.67107
2.66178
2.73072
2.64105
2.71017
2.693
2.72195
2.79778
2.67676
2.67018
2.66618
2.65559
2.67192
2.66873
2.6484
2.55329
2.60559
2.53822
2.66178
2.6367
2.52913
2.52053
2.61646
2.44837
2.46314
2.45673
2.43348
2.44688
2.51843
2.50129
2.54716
2.4623
2.55653
2.50653
2.51588
2.47967
2.46916
2.50417
2.55913
2.67709
2.63488
2.62883
2.58262
2.51839
2.41706
2.35889
2.55351
2.4717
2.54339
2.49533
2.51911
2.46687
2.47746
2.50391
2.53857
2.53857
2.52957
2.4847
2.45298
2.43696
2.42578
2.43561
2.5303
2.45929
2.49572
2.52554
2.579
2.50419
2.46461
2.55869
SCALARS curvature float
LOOKUP_TABLE default
0.186686
0.176112
0.164632
0.153794
0.144544
0.13737
0.132555
0.130225
0.130355
0.134078
0.1392
0.145936
0.153733
0.161808
0.169322
0.175458
0.179412
0.180437
0.177955
0.171778
0.162195
0.150039
0.136375
0.122288
0.108815
0.0969191
0.0875366
0.0805108
0.0802315
0.0845376
0.0933099
0.106161
0.122661
0.14259
0.166293
0.19441
0.22766
0.266303
0.309535
0.354954
0.398635
0.435484
0.4592
0.46415
0.438153
0.398317
0.348537
0.296295
0.246731
0.202226
0.163344
0.129727
0.100683
0.0758874
0.0562799
0.0454527
0.0488403
0.0654299
0.0899985
0.119856
0.154464
0.193754
0.251501
0.295025
0.332892
0.358175
0.365687
0.355179
0.330827
0.298676
0.263796
0.229543
0.197672
0.169203
0.144546
0.123528
0.105665
0.0904892
0.0777337
0.0672831
0.0568971
0.052021
0.0499435
0.0507007
0.0540509
0.0595314
0.0665163
0.0743281
0.0823291
0.0900144
0.0970738
0.103287
0.108515
0.112654
0.115626
0.117408
0.11812
0.117723
0.116609
0.114877
0.112516
0.109463
0.1057
0.101329
0.0964433
0.0911057
0.0853688
0.0793126
0.0730485
0.0666955
0.0604044
0.0543906
0.0489334
0.0443825
0.0411696
0.0396997
0.0409762
0.04413
0.0487865
0.0545695
0.0611642
0.0683243
0.0758073
0.0833542
0.0907047
0.0976454
0.104026
0.109671
0.114398
0.118078
0.12061
0.12191
0.12191
0.119842
0.116797
0.112723
0.107969
0.102879
0.0977584
0.0928662
0.0884141
0.0845475
0.0812952
0.0786386
0.0765335
0.0748948
0.0736213
0.0726165
0.0717872
0.0710547
SCALARS torsion float
LOOKUP_TABLE default
-0.0867716
-0.0934996
-0.0951273
-0.0908518
-0.083545
-0.0738707
-0.0615538
-0.0474876
-0.0329239
-0.0136573
-0.000758132
0.00974501
0.0181734
0.0250355
0.0309424
0.0361466
0.0409051
0.0465878
0.0538921
0.0633548
0.0751164
0.0894053
0.107391
0.130249
0.158189
0.191318
0.226407
0.254551
0.248012
0.218427
0.177422
0.136918
0.102582
0.0766249
0.0580556
0.0441623
0.0329303
0.0225545
0.0120913
0.000809264
-0.0103097
-0.0208206
-0.0302582
-0.0384827
-0.0477944
-0.0539623
-0.059523
-0.0647203
-0.0711136
-0.0805347
-0.0951847
-0.120234
-0.166927
-0.258208
-0.436117
-0.663326
-0.609891
-0.38456
-0.245913
-0.179809
-0.14877
-0.134529
-0.128993
-0.129681
-0.130911
-0.130334
-0.128397
-0.123912
-0.115952
-0.104513
-0.0904359
-0.0743661
-0.0570957
-0.0402691
-0.0221244
-0.000508408
0.0245082
0.0544877
0.0918002
0.138813
0.216381
0.274267
0.312328
0.31753
0.292608
0.252136
0.209742
0.173624
0.145991
0.126649
0.113619
0.105222
0.0992323
0.0940569
0.089494
0.0853598
0.0811229
0.0746101
0.0689676
0.0633719
0.0578651
0.0526079
0.0494465
0.048897
0.051092
0.0563493
0.0652692
0.0788404
0.0979622
0.122674
0.154721
0.195918
0.246416
0.303045
0.355097
0.383581
0.359572
0.309132
0.252351
0.201368
0.159932
0.127316
0.101283
0.0804445
0.0635627
0.0503375
0.0397827
0.0310098
0.0237737
0.01793
0.0131085
0.0090995
0.00585706
0.00254782
0.000768385
-0.00031307
-0.000671326
-0.000282615
0.000401645
0.0012484
0.00227073
0.00328137
0.00405968
0.00455782
0.00476335
0.00474793
0.00451584
0.00408822
0.00369426
0.00341308
