# vtk DataFile Version 2.0
00000188.nii_L_ICA_MCA_radius_pt3d_curvature_torsion
ASCII
DATASET POLYDATA
POINTS 108 float
111.81 85.4796 31.4401
111.356 85.5815 31.0077
110.907 85.6418 30.5614
110.462 85.6575 30.1049
110.024 85.6264 29.6416
109.595 85.5469 29.1744
109.177 85.4183 28.7058
108.773 85.2405 28.2378
108.389 85.0146 27.7716
108.028 84.7425 27.3081
107.696 84.4275 26.8472
107.397 84.0736 26.3884
107.136 83.6861 25.9309
106.919 83.2712 25.4734
106.75 82.836 25.0143
106.632 82.3884 24.5523
106.583 82.0871 24.242
106.555 81.6376 23.7725
106.583 81.1986 23.2976
106.666 80.779 22.8175
106.803 80.3875 22.3328
106.99 80.0325 21.8452
107.224 79.7217 21.3571
107.499 79.4623 20.8717
107.811 79.2604 20.3933
108.151 79.1211 19.9265
108.514 79.0481 19.477
108.892 79.0438 19.0507
109.276 79.1092 18.6537
109.659 79.2436 18.2922
110.034 79.4451 17.9716
110.394 79.7104 17.6967
110.733 80.0351 17.4707
111.045 80.4136 17.2957
111.326 80.8399 17.1721
111.572 81.3073 17.0988
111.781 81.8092 17.0729
111.949 82.3387 17.0904
112.076 82.8893 17.1454
112.137 83.265 17.1994
112.194 83.837 17.3006
112.21 84.4144 17.4176
112.186 84.9924 17.5404
112.126 85.5668 17.6585
112.032 86.1343 17.7612
111.908 86.6921 17.8385
111.76 87.2379 17.8816
111.592 87.77 17.8824
111.409 88.2871 17.8342
111.216 88.7881 17.7319
111.02 89.2725 17.5715
110.826 89.7396 17.3511
110.638 90.1896 17.0705
110.462 90.6224 16.7317
110.304 91.0386 16.338
110.166 91.4387 15.8943
110.054 91.8235 15.4067
109.97 92.1938 14.8821
109.918 92.5506 14.3281
109.9 92.8949 13.7523
109.918 93.2276 13.1629
109.972 93.5499 12.5677
110.03 93.7595 12.1714
110.148 94.0668 11.5832
110.304 94.3667 11.0086
110.497 94.6604 10.4539
110.726 94.9489 9.92491
110.99 95.2334 9.42664
111.287 95.5151 8.96329
111.615 95.7948 8.5382
111.972 96.0735 8.15382
112.355 96.3519 7.81167
112.763 96.6307 7.51239
113.192 96.9104 7.25574
113.642 97.1912 7.04066
114.111 97.4736 6.8654
114.597 97.7578 6.72757
115.098 98.0438 6.62422
115.614 98.3319 6.55189
116.144 98.6223 6.50672
116.688 98.9152 6.48452
117.243 99.2111 6.4809
117.809 99.5103 6.49132
118.385 99.8135 6.51122
118.969 100.122 6.53607
119.362 100.33 6.55316
119.955 100.648 6.57633
120.549 100.973 6.59274
121.141 101.305 6.59827
121.728 101.647 6.589
122.304 101.999 6.56122
122.866 102.361 6.51153
123.407 102.734 6.43684
123.921 103.117 6.33446
124.404 103.512 6.20207
124.847 103.916 6.03787
125.246 104.331 5.84048
125.593 104.754 5.60905
125.882 105.184 5.34314
126.108 105.62 5.04273
126.264 106.059 4.70814
126.345 106.501 4.33996
126.347 106.944 3.93889
126.265 107.385 3.50574
126.095 107.823 3.04129
125.833 108.256 2.54634
125.476 108.683 2.02164
125.02 109.103 1.46791
LINES 1 109
108 0 1 2 3 4 5 6 7 8 9 10 11 12 13 14 15 16 17 18 19 20 21 22 23 24 25 26 27 28 29 30 31 32 33 34 35 36 37 38 39 40 41 42 43 44 45 46 47 48 49 50 51 52 53 54 55 56 57 58 59 60 61 62 63 64 65 66 67 68 69 70 71 72 73 74 75 76 77 78 79 80 81 82 83 84 85 86 87 88 89 90 91 92 93 94 95 96 97 98 99 100 101 102 103 104 105 106 107

POINT_DATA 108
SCALARS radius float
LOOKUP_TABLE default
1.64259
1.6631
1.72526
1.777
1.80458
1.74399
1.74399
1.79521
1.81597
1.65446
1.54905
1.61553
1.67457
1.70723
1.79439
1.79623
1.81384
2.08901
2.04489
2.02931
2.0083
2.01595
1.92058
1.8341
1.832
1.80586
1.77911
1.89872
2.01392
2.01521
2.03471
2.37971
2.34249
2.42972
2.3944
2.48433
2.43958
2.41455
2.61247
2.34387
2.5254
2.52057
2.48615
2.44167
2.48421
2.55888
2.51928
2.62202
2.50779
2.62501
2.73347
2.39356
2.37182
2.2765
2.21709
2.22047
1.99866
1.98816
2.09476
2.11242
2.14476
2.07441
2.10931
2.20174
2.10781
2.15741
2.21294
2.15505
2.19508
2.18723
2.21146
2.11025
2.20862
2.10386
2.13758
2.21244
2.17267
2.25156
2.19468
2.08842
2.20509
2.18953
2.18201
2.20619
2.14897
2.022
2.01444
2.0804
2.13034
2.23496
2.24457
2.18794
2.04289
2.01036
1.97369
1.93388
1.83357
1.7392
1.75105
1.82742
1.94412
2.03894
2.18611
2.23683
2.37294
2.42883
2.33059
2.51255
SCALARS curvature float
LOOKUP_TABLE default
0.105694
0.109271
0.113337
0.117342
0.120793
0.123314
0.124685
0.124887
0.124123
0.122753
0.121242
0.120159
0.120011
0.121055
0.123334
0.126888
0.129895
0.135127
0.141029
0.147619
0.154963
0.163185
0.172453
0.182893
0.194624
0.207931
0.222978
0.239501
0.256735
0.273149
0.286169
0.292763
0.291197
0.281198
0.263783
0.241006
0.21538
0.189215
0.164317
0.149099
0.129269
0.114444
0.107014
0.108768
0.118978
0.13497
0.154074
0.173737
0.191236
0.203515
0.208001
0.203546
0.191476
0.174568
0.155576
0.136746
0.119728
0.105585
0.0949307
0.087977
0.0846858
0.0847485
0.086421
0.0909939
0.097556
0.105541
0.114367
0.123377
0.131805
0.138907
0.143979
0.146341
0.145494
0.141294
0.133956
0.12398
0.11199
0.0986953
0.0847993
0.0709223
0.057567
0.0451282
0.0339522
0.0246045
0.0185916
0.0177633
0.0217649
0.0296538
0.0394731
0.0506173
0.0630127
0.0768024
0.092227
0.109513
0.128791
0.149996
0.172709
0.195875
0.217579
0.235284
0.246426
0.248998
0.242395
0.227774
0.207648
0.18491
0.162052
0.140735
SCALARS torsion float
LOOKUP_TABLE default
0.132849
0.105131
0.0746739
0.0427911
0.0114043
-0.0186916
-0.0490012
-0.0798919
-0.108872
-0.136779
-0.163839
-0.185131
-0.198572
-0.204464
-0.203496
-0.196118
-0.188535
-0.174987
-0.161245
-0.147576
-0.133814
-0.119946
-0.105888
-0.0914874
-0.0770415
-0.0634983
-0.050373
-0.0375227
-0.0277861
-0.0218658
-0.0197183
-0.0211936
-0.0261653
-0.0350238
-0.0481746
-0.0656642
-0.0894983
-0.122949
-0.167798
-0.206573
-0.282907
-0.377251
-0.448743
-0.451448
-0.391996
-0.322259
-0.264204
-0.219747
-0.186386
-0.162287
-0.145998
-0.136789
-0.132839
-0.132694
-0.135861
-0.143488
-0.155001
-0.168157
-0.17989
-0.186635
-0.184752
-0.174165
-0.164174
-0.147219
-0.130334
-0.114994
-0.101532
-0.0897971
-0.0794507
-0.0700331
-0.0605686
-0.0503027
-0.0405052
-0.031247
-0.0220636
-0.0134801
-0.00632705
-0.000652173
0.00301643
0.00269354
-0.00391161
-0.0213075
-0.0557544
-0.121745
-0.209028
-0.207517
-0.10194
-0.0272748
0.00467353
0.0176524
0.0229695
0.0251291
0.0258993
0.0260656
0.0260358
0.0258345
0.02507
0.0237742
0.0219637
0.0198124
0.0172504
0.0142822
0.0113242
0.0087479
0.00660165
0.00491748
0.00371009
0.00286324
