# vtk DataFile Version 2.0
00000843.nii_L_ICA_MCA_radius_pt3d_curvature_torsion
ASCII
DATASET POLYDATA
POINTS 139 float
110.767 86.9445 31.4662
110.351 87.1853 31.038
109.94 87.4025 30.6008
109.534 87.5903 30.156
109.136 87.7435 29.7046
108.75 87.8576 29.2476
108.379 87.929 28.7857
108.028 87.9551 28.3199
107.702 87.9342 27.8511
107.405 87.8658 27.38
107.143 87.7505 26.9076
106.856 87.5267 26.2768
106.692 87.3101 25.8041
106.576 87.0563 25.3324
106.511 86.7703 24.8622
106.5 86.4581 24.394
106.542 86.126 23.9279
106.639 85.7814 23.4641
106.79 85.4318 23.0026
106.992 85.0853 22.5432
107.242 84.7502 22.0857
107.534 84.4349 21.6302
107.864 84.1474 21.1765
108.224 83.8955 20.7251
108.606 83.6861 20.2766
109.002 83.5256 19.8321
109.402 83.4193 19.3933
109.797 83.3712 18.9626
110.178 83.3839 18.5426
110.535 83.4585 18.1372
110.859 83.5944 17.7504
111.143 83.7895 17.3869
111.379 84.0403 17.0517
111.61 84.4531 16.6577
111.716 84.814 16.4085
111.762 85.2113 16.2044
111.748 85.638 16.0499
111.676 86.0866 15.9492
111.55 86.5497 15.9055
111.375 87.0205 15.9217
111.156 87.4924 15.9996
110.903 87.9601 16.1397
110.623 88.4193 16.3409
110.329 88.8672 16.6003
110.031 89.3021 16.9133
109.741 89.7234 17.274
109.47 90.1314 17.675
109.228 90.5274 18.1074
109.025 90.9128 18.5617
108.868 91.2894 19.0275
108.763 91.659 19.494
108.714 92.023 19.9502
108.723 92.3826 20.3854
108.791 92.7381 20.7891
108.971 93.2055 21.2616
109.169 93.55 21.5553
109.413 93.8872 21.7887
109.698 94.2149 21.9558
110.015 94.5303 22.0524
110.355 94.8305 22.0759
110.707 95.1122 22.0254
111.063 95.3727 21.9017
111.411 95.6096 21.7069
111.743 95.821 21.4447
112.051 96.006 21.1197
112.328 96.1645 20.7375
112.569 96.2975 20.3043
112.772 96.4068 19.8266
112.934 96.4953 19.3111
113.056 96.5663 18.7641
113.141 96.6237 18.1917
113.19 96.6718 17.5995
113.209 96.7146 16.9928
113.203 96.7565 16.3763
113.176 96.8014 15.7542
113.12 96.8724 14.9223
113.07 96.9383 14.3008
113.022 97.0181 13.6844
112.981 97.1141 13.0755
112.953 97.2279 12.4761
112.943 97.3607 11.8883
112.958 97.513 11.3139
113 97.6846 10.7548
113.074 97.875 10.2129
113.184 98.0828 9.69024
113.33 98.3065 9.18907
113.514 98.5439 8.71174
113.738 98.7925 8.26073
114.001 99.0495 7.83857
114.302 99.3118 7.44783
114.639 99.5763 7.09097
115.01 99.8399 6.77025
115.413 100.1 6.48766
115.845 100.353 6.24477
116.301 100.599 6.04259
116.777 100.834 5.8815
117.271 101.059 5.76129
117.949 101.343 5.66319
118.467 101.545 5.63449
118.99 101.737 5.64222
119.514 101.923 5.68411
120.036 102.104 5.75755
120.555 102.283 5.85959
121.066 102.463 5.98707
121.57 102.647 6.13664
122.066 102.839 6.30481
122.551 103.042 6.48797
123.027 103.258 6.68243
123.493 103.491 6.88437
123.95 103.744 7.08992
124.398 104.017 7.29509
124.838 104.312 7.49582
125.27 104.629 7.68799
125.696 104.969 7.86746
126.117 105.331 8.03018
126.532 105.714 8.17221
126.943 106.115 8.2898
127.35 106.533 8.3795
127.885 107.111 8.45042
128.281 107.557 8.46371
128.671 108.009 8.44046
129.055 108.466 8.37909
129.431 108.924 8.27859
129.797 109.38 8.13848
130.152 109.832 7.95886
130.493 110.278 7.74037
130.818 110.715 7.48419
131.126 111.142 7.19194
131.413 111.557 6.86564
131.678 111.958 6.50763
131.92 112.344 6.12045
132.135 112.713 5.70677
132.323 113.065 5.26934
132.482 113.398 4.81089
132.612 113.71 4.33416
132.71 114.002 3.84182
132.775 114.271 3.3365
132.808 114.516 2.82074
132.806 114.738 2.29705
LINES 1 140
139 0 1 2 3 4 5 6 7 8 9 10 11 12 13 14 15 16 17 18 19 20 21 22 23 24 25 26 27 28 29 30 31 32 33 34 35 36 37 38 39 40 41 42 43 44 45 46 47 48 49 50 51 52 53 54 55 56 57 58 59 60 61 62 63 64 65 66 67 68 69 70 71 72 73 74 75 76 77 78 79 80 81 82 83 84 85 86 87 88 89 90 91 92 93 94 95 96 97 98 99 100 101 102 103 104 105 106 107 108 109 110 111 112 113 114 115 116 117 118 119 120 121 122 123 124 125 126 127 128 129 130 131 132 133 134 135 136 137 138

POINT_DATA 139
SCALARS radius float
LOOKUP_TABLE default
1.6516
1.54713
1.61427
1.61895
1.56625
1.56752
1.50584
1.51851
1.62323
1.69176
1.73555
1.73366
1.70351
1.65379
1.62263
1.7329
1.67345
1.6956
1.67047
1.86731
2.07031
2.22929
2.23281
2.20779
2.21881
2.15609
2.20232
2.1562
2.16421
2.28937
2.3774
2.6676
2.53202
2.54549
2.64886
2.87043
2.74051
2.8382
2.70841
2.92699
2.9885
3.14543
3.04713
3.0986
3.04146
3.04738
3.09387
2.89056
3.03518
2.9711
3.00895
2.95048
2.99133
2.99125
2.98183
3.17012
3.09747
3.05283
2.91998
2.95301
2.91492
2.84968
2.80239
2.53839
2.48372
2.68666
2.51928
2.92312
2.64103
2.65801
2.53712
2.69037
2.68718
2.56085
2.48862
2.48433
2.55303
2.56303
2.56218
2.62612
2.71703
2.80666
2.77121
2.66671
2.7309
2.67555
2.6447
2.62216
2.50025
2.457
2.6721
2.45886
2.49976
2.46648
2.49709
2.48699
2.39961
2.47657
2.34722
2.51928
2.4623
2.47827
2.43128
2.37336
2.25448
2.59163
2.37806
2.48103
2.45561
2.46618
2.41746
2.41271
2.40773
2.44966
2.43598
2.38363
2.35825
2.30369
2.14901
2.02552
1.94926
1.98197
2.02931
2.04058
2.13331
2.37075
2.42279
2.35915
2.33269
2.36686
2.40066
2.34335
2.36433
2.40697
2.2942
2.35374
2.42405
2.33015
2.38699
SCALARS curvature float
LOOKUP_TABLE default
0.0490378
0.0619561
0.0765897
0.0923142
0.108792
0.125706
0.142757
0.159486
0.175119
0.188629
0.198857
0.205505
0.204589
0.199155
0.190254
0.179081
0.166585
0.153614
0.141023
0.130036
0.121885
0.117489
0.117481
0.122252
0.13196
0.146668
0.16635
0.190778
0.219543
0.252418
0.288829
0.326981
0.363504
0.400992
0.413353
0.40865
0.388707
0.35833
0.322718
0.285166
0.247664
0.211575
0.178936
0.151611
0.130679
0.11699
0.111386
0.113951
0.123807
0.140031
0.161804
0.188339
0.218776
0.251877
0.296671
0.32744
0.352595
0.369397
0.376759
0.375745
0.367942
0.354702
0.337157
0.315892
0.291062
0.263384
0.234014
0.203879
0.173852
0.14505
0.118378
0.0943449
0.0729844
0.0545029
0.0399837
0.0322572
0.0381282
0.0500254
0.0642312
0.0790841
0.0937074
0.107512
0.120101
0.131147
0.140422
0.147777
0.153188
0.15679
0.158936
0.160018
0.160311
0.159928
0.158758
0.156465
0.152654
0.14734
0.140733
0.130344
0.121638
0.112372
0.102789
0.0932825
0.0843871
0.0767019
0.0708012
0.0671201
0.0657953
0.066532
0.0687514
0.0717957
0.0751078
0.0784324
0.0816891
0.084848
0.087974
0.0911762
0.0944766
0.0978308
0.102308
0.105537
0.108483
0.110991
0.112937
0.114235
0.114915
0.11508
0.114832
0.114335
0.113846
0.1136
0.113772
0.114477
0.115798
0.117782
0.12042
0.123678
0.127507
0.131813
0.136439
SCALARS torsion float
LOOKUP_TABLE default
0.231442
0.102988
0.030306
-0.0114629
-0.0388258
-0.0590862
-0.0740744
-0.0860641
-0.0963956
-0.10579
-0.114689
-0.126683
-0.136196
-0.145868
-0.155594
-0.165373
-0.176376
-0.190725
-0.209541
-0.228496
-0.243431
-0.24961
-0.244092
-0.227135
-0.202959
-0.175571
-0.148003
-0.122733
-0.100788
-0.0825415
-0.0657748
-0.0486945
-0.0304302
-0.00263694
0.0211775
0.0440471
0.0644115
0.0819627
0.0975122
0.113786
0.134969
0.164902
0.200336
0.24234
0.288998
0.331192
0.349261
0.332265
0.293998
0.251756
0.214108
0.184311
0.163411
0.14905
0.136765
0.131163
0.126804
0.122754
0.119508
0.116064
0.111687
0.106634
0.101366
0.0965132
0.0928835
0.0902361
0.0888642
0.0896449
0.0949693
0.106409
0.126164
0.160687
0.225911
0.355304
0.604764
0.882214
0.632407
0.378723
0.242972
0.171971
0.131954
0.108383
0.0935492
0.0834204
0.0759101
0.0698845
0.0646157
0.059514
0.0537751
0.0469389
0.0387052
0.0289386
0.0174173
0.00371558
-0.011175
-0.0263615
-0.0426727
-0.06812
-0.0923081
-0.12325
-0.163005
-0.21088
-0.266608
-0.32613
-0.380029
-0.414168
-0.417897
-0.395545
-0.360759
-0.325418
-0.295468
-0.268913
-0.244883
-0.222786
-0.200521
-0.177177
-0.152965
-0.128899
-0.0977549
-0.0747793
-0.0533164
-0.0341584
-0.0164259
-0.000141837
0.012739
0.0226574
0.030017
0.0352123
0.03816
0.038561
0.0375098
0.0362225
0.0345656
0.0326107
0.0308691
0.0293613
0.0280463
0.0267624
0.0254787
