# vtk DataFile Version 2.0
00000669.nii_R_ICA_MCA_radius_pt3d_curvature_torsion
ASCII
DATASET POLYDATA
POINTS 139 float
79.5981 82.9906 37.1577
80.0586 83.3634 36.9703
80.5319 83.7078 36.7617
81.0182 84.0201 36.535
81.5169 84.2965 36.2935
82.0268 84.5336 36.04
82.5463 84.7283 35.7769
83.0724 84.8776 35.5059
83.602 84.9793 35.2283
84.1307 85.0317 34.9444
84.6536 85.0339 34.6542
85.1653 84.9858 34.3566
85.6595 84.8883 34.0502
86.1299 84.7431 33.7333
86.5695 84.5527 33.4039
86.9715 84.3205 33.0597
87.3291 84.0507 32.699
87.6362 83.7486 32.32
87.8874 83.42 31.9215
88.0783 83.0714 31.5028
88.2057 82.7093 31.0636
88.2682 82.3406 30.6044
88.2656 81.9719 30.126
88.1996 81.6101 29.6298
88.0731 81.2618 29.1176
87.8907 80.934 28.5916
87.6587 80.6333 28.0546
87.3847 80.366 27.5095
87.0777 80.1381 26.9601
86.748 79.9549 26.4104
86.4064 79.821 25.8649
86.0643 79.7398 25.3286
85.7328 79.7137 24.8069
85.4227 79.7441 24.3052
85.1439 79.8309 23.8296
84.905 79.973 23.3858
84.7132 80.1683 22.9797
84.5739 80.4134 22.6169
84.4907 80.7044 22.3026
84.4657 81.0366 22.0414
84.4988 81.4047 21.8376
84.5886 81.8036 21.6942
84.7318 82.2276 21.6137
84.9238 82.6719 21.5968
85.1583 83.1317 21.6431
85.4276 83.603 21.7503
85.7232 84.0825 21.9145
86.0359 84.5678 22.1303
86.3562 85.0572 22.3906
86.6748 85.5499 22.6868
86.9828 86.0456 23.0093
87.2721 86.5444 23.3475
87.5356 87.0467 23.6901
87.7676 87.5529 24.0259
87.9636 88.0631 24.3442
88.1206 88.577 24.6347
88.2372 89.0939 24.8884
88.313 89.6124 25.0972
88.3491 90.1307 25.2547
88.3474 90.6466 25.3556
88.3107 91.1572 25.396
88.2427 91.6595 25.3733
88.1475 92.1501 25.2863
88.0297 92.6257 25.1351
87.8941 93.0829 24.9211
87.7458 93.5186 24.6473
87.5896 93.9303 24.3174
87.4298 94.3158 23.9362
87.2703 94.674 23.5093
87.1144 95.0042 23.0425
86.9645 95.3069 22.5417
86.8226 95.5829 22.013
86.6899 95.8339 21.462
86.5667 96.0621 20.894
86.4531 96.2701 20.3137
86.3485 96.4608 19.7253
86.2518 96.6373 19.1325
86.1618 96.8028 18.5381
86.0768 96.9606 17.9449
85.9949 97.1136 17.3547
85.914 97.2648 16.7693
85.8317 97.4169 16.1898
85.7455 97.5724 15.6172
85.6526 97.7336 15.0522
85.5501 97.9024 14.4957
85.4353 98.0803 13.9481
85.3051 98.2686 13.4103
85.1567 98.4681 12.8833
84.9874 98.6794 12.3683
84.7949 98.9026 11.8668
84.5769 99.1375 11.3806
84.3321 99.3834 10.9121
84.0591 99.6395 10.4637
83.7576 99.9046 10.0381
83.4275 100.177 9.63842
83.0695 100.456 9.26742
82.6848 100.739 8.9279
82.2754 101.025 8.62234
81.8435 101.312 8.35276
81.392 101.6 8.12066
80.9237 101.885 7.92686
80.4417 102.169 7.77148
79.949 102.45 7.65391
79.4485 102.728 7.57292
78.9428 103.004 7.52665
78.4345 103.277 7.51269
77.9256 103.548 7.52808
77.4179 103.819 7.56931
76.9129 104.091 7.63243
76.4115 104.366 7.71312
75.9145 104.647 7.8069
75.4224 104.936 7.90918
74.9358 105.236 8.01538
74.455 105.549 8.12103
73.9805 105.878 8.22179
73.5132 106.223 8.31353
73.0538 106.588 8.39237
72.6037 106.972 8.45467
72.1646 107.376 8.49709
71.7382 107.799 8.51657
71.3266 108.241 8.51037
70.9323 108.7 8.476
70.5576 109.174 8.41129
70.205 109.661 8.31432
69.8771 110.157 8.18344
69.5763 110.659 8.01726
69.3048 111.163 7.81463
69.0646 111.667 7.57469
68.8576 112.167 7.2968
68.6852 112.66 6.98057
68.5488 113.142 6.62583
68.4493 113.61 6.23258
68.3876 114.062 5.80101
68.3641 114.495 5.33139
68.3795 114.908 4.82405
68.434 115.299 4.27934
68.5278 115.667 3.6976
68.6612 116.01 3.07914
68.8343 116.328 2.42424
LINES 1 140
139 0 1 2 3 4 5 6 7 8 9 10 11 12 13 14 15 16 17 18 19 20 21 22 23 24 25 26 27 28 29 30 31 32 33 34 35 36 37 38 39 40 41 42 43 44 45 46 47 48 49 50 51 52 53 54 55 56 57 58 59 60 61 62 63 64 65 66 67 68 69 70 71 72 73 74 75 76 77 78 79 80 81 82 83 84 85 86 87 88 89 90 91 92 93 94 95 96 97 98 99 100 101 102 103 104 105 106 107 108 109 110 111 112 113 114 115 116 117 118 119 120 121 122 123 124 125 126 127 128 129 130 131 132 133 134 135 136 137 138

POINT_DATA 139
SCALARS radius float
LOOKUP_TABLE default
2.3072
2.26249
2.35401
2.30566
2.42485
2.35742
2.45303
2.50507
2.5535
2.54026
2.64894
2.47212
2.3429
2.20225
2.20594
2.10998
2.09315
1.99676
1.99668
2.12889
1.86386
1.95081
1.91008
2.10806
2.1382
2.31348
2.31018
2.35078
2.25984
2.17935
2.11814
2.20014
2.44272
2.5014
2.55672
2.43296
2.50653
2.50306
2.86458
2.71132
2.65306
2.77041
2.77352
2.7567
2.80478
3.03121
2.75318
2.88315
2.83645
2.89234
2.90582
2.90582
3.01808
2.99552
2.98989
3.16793
2.92735
2.92649
2.86092
2.75005
3.13007
2.79446
2.98031
2.71841
2.66557
2.65236
2.61168
2.63189
2.62284
2.66214
2.61166
2.88085
2.74519
2.79375
2.71541
2.74798
2.77121
2.74471
2.75514
2.7571
2.69181
2.60562
2.62926
2.9215
2.50154
2.54532
2.50779
2.58154
2.77844
2.57821
2.61242
2.64418
2.63841
2.60005
2.69513
2.65275
2.66931
2.79819
2.74597
2.75361
2.74064
2.66044
2.68174
2.64803
2.63037
2.62377
2.656
2.60574
2.57359
2.50037
2.49429
2.64401
2.40321
2.40066
2.31661
2.30611
2.36634
2.3077
2.31825
2.25373
2.22325
2.25733
2.30518
2.20154
2.24634
2.21907
2.29029
2.41787
2.30834
2.33355
2.34188
2.3638
2.44002
2.47947
2.49786
2.51256
2.53715
2.57606
2.5662
SCALARS curvature float
LOOKUP_TABLE default
0.0955509
0.0976831
0.101211
0.105938
0.111551
0.117691
0.124022
0.13025
0.136122
0.141522
0.146564
0.151748
0.157663
0.164778
0.173082
0.181961
0.19038
0.197265
0.201618
0.202279
0.198343
0.189942
0.178052
0.164087
0.149516
0.135666
0.123801
0.115441
0.112288
0.115723
0.126679
0.14584
0.173685
0.210671
0.257339
0.313439
0.37593
0.437091
0.484249
0.503206
0.486778
0.440106
0.376695
0.309778
0.248007
0.194954
0.150798
0.114604
0.0857811
0.0649613
0.0551496
0.0595721
0.0755084
0.0979173
0.124161
0.153033
0.183174
0.212706
0.239371
0.260439
0.273305
0.276201
0.268996
0.253324
0.232258
0.208896
0.185342
0.162805
0.142016
0.123241
0.106398
0.0912528
0.0775727
0.0651232
0.0536345
0.0429383
0.0330526
0.0241727
0.0169845
0.0137641
0.0168105
0.0239185
0.0326332
0.0420021
0.0515952
0.0611219
0.0703543
0.0790754
0.0870623
0.0941739
0.100388
0.105785
0.110462
0.114515
0.117992
0.120835
0.122884
0.124029
0.124239
0.123334
0.121043
0.117287
0.112101
0.105554
0.0976663
0.0884308
0.0778979
0.0664046
0.0548301
0.0446301
0.0380498
0.0373342
0.0424034
0.0508107
0.0602668
0.0694565
0.0777245
0.0848832
0.091061
0.0964767
0.101402
0.106147
0.110961
0.115993
0.121275
0.126693
0.131987
0.13682
0.140854
0.143712
0.145035
0.144624
0.142401
0.138411
0.132856
0.126081
0.118501
0.110503
0.102397
SCALARS torsion float
LOOKUP_TABLE default
-0.183138
-0.168358
-0.142489
-0.109562
-0.0744408
-0.0385695
-0.00230012
0.0315267
0.0634289
0.0950671
0.124294
0.14782
0.164948
0.174557
0.176059
0.171855
0.164641
0.1545
0.141909
0.128136
0.117688
0.113744
0.116103
0.124368
0.136961
0.154975
0.17895
0.201844
0.214348
0.209704
0.18915
0.160075
0.130134
0.103611
0.0822571
0.0633946
0.0442719
0.0250169
0.00497404
-0.015674
-0.0349367
-0.0512628
-0.0655163
-0.0795599
-0.0942188
-0.11378
-0.145225
-0.199762
-0.298444
-0.464748
-0.618083
-0.540526
-0.362574
-0.244584
-0.181564
-0.147025
-0.127296
-0.117546
-0.113384
-0.111615
-0.110125
-0.107877
-0.104673
-0.100752
-0.0957228
-0.0891546
-0.0809027
-0.073805
-0.0681964
-0.0633289
-0.0592816
-0.0563779
-0.05407
-0.0519275
-0.0506819
-0.0503254
-0.0501303
-0.044308
-0.0204899
0.01606
-0.00701401
-0.039865
-0.0571352
-0.0655739
-0.0678803
-0.0671665
-0.0647878
-0.0605505
-0.0550697
-0.0488339
-0.0421374
-0.0350678
-0.0275403
-0.0196896
-0.0121014
-0.00455848
0.00316633
0.0101018
0.0162676
0.0220855
0.028168
0.0350897
0.0433486
0.0541183
0.0705212
0.0963684
0.138825
0.208117
0.322791
0.500634
0.688716
0.697901
0.514839
0.333204
0.217247
0.14885
0.107958
0.083115
0.067601
0.0577872
0.0514939
0.0473558
0.0446806
0.0428537
0.0410377
0.0391961
0.037351
0.035053
0.0321741
0.0287489
0.024964
0.0209343
0.0166409
0.0123964
0.00907468
0.00661259
0.0048781
0.00366206
0.00285624
