# vtk DataFile Version 2.0
00000557.nii_L_ICA_MCA_radius_pt3d_curvature_torsion
ASCII
DATASET POLYDATA
POINTS 146 float
108.466 73.8378 34.5705
107.987 73.9313 34.235
107.508 74.0096 33.8871
107.027 74.0705 33.5306
106.546 74.1115 33.169
106.062 74.1303 32.8057
105.577 74.1245 32.4438
105.09 74.0917 32.086
104.604 74.0297 31.7347
104.119 73.9366 31.3919
103.638 73.8106 31.0594
103.163 73.6502 30.7385
102.696 73.4542 30.4304
102.242 73.2221 30.1358
101.802 72.9536 29.8553
101.382 72.649 29.5891
100.984 72.3092 29.3375
100.613 71.9355 29.1003
100.272 71.53 28.8773
99.9654 71.0951 28.6679
99.6963 70.6338 28.4715
99.4678 70.1494 28.2872
99.2828 69.6455 28.1138
99.1434 69.126 27.9501
99.0517 68.5951 27.7944
99.009 68.0568 27.645
99.0162 67.5154 27.5001
99.0734 66.9754 27.3573
99.1803 66.4411 27.2145
99.3978 65.7451 27.0196
99.6145 65.2411 26.8666
99.8739 64.7571 26.7048
100.172 64.2973 26.5315
100.504 63.8657 26.344
100.864 63.4659 26.1399
101.247 63.1015 25.9171
101.646 62.7757 25.6736
102.053 62.4916 25.4083
102.462 62.2515 25.1203
102.866 62.0577 24.8095
103.255 61.912 24.4767
103.625 61.8153 24.1234
103.968 61.7684 23.7518
104.277 61.7713 23.365
104.549 61.8237 22.9667
104.778 61.9247 22.5613
104.96 62.073 22.1535
105.094 62.2669 21.7483
105.177 62.5042 21.3512
105.21 62.7824 20.9676
105.193 63.0988 20.603
105.129 63.4503 20.2627
105.019 63.8339 19.9514
104.869 64.2462 19.6734
104.682 64.684 19.4322
104.466 65.1442 19.2303
104.226 65.6236 19.0692
103.97 66.1193 18.9494
103.704 66.6283 18.8702
103.436 67.1481 18.8301
103.172 67.676 18.8262
102.92 68.2097 18.855
102.686 68.7469 18.9123
102.475 69.2852 18.9929
102.293 69.8228 19.0912
102.143 70.3573 19.2007
102.03 70.8868 19.3149
101.954 71.4092 19.4268
101.918 71.9225 19.5295
101.921 72.4246 19.6165
101.961 72.9133 19.6813
102.036 73.3867 19.718
102.144 73.8427 19.7212
102.281 74.2795 19.6861
102.443 74.6951 19.6088
102.625 75.0881 19.4863
102.822 75.457 19.3166
103.028 75.8009 19.0987
103.24 76.1191 18.8326
103.45 76.4113 18.519
103.657 76.6777 18.1599
103.854 76.9188 17.7576
104.039 77.1357 17.3154
104.21 77.3297 16.837
104.365 77.5024 16.3266
104.502 77.6557 15.7884
104.623 77.7917 15.2271
104.728 77.9125 14.6472
104.846 78.0537 13.8528
104.92 78.1475 13.2466
104.986 78.2334 12.6362
105.047 78.3134 12.0252
105.106 78.3894 11.4173
105.168 78.4633 10.8156
105.235 78.5369 10.2231
105.313 78.6119 9.64233
105.405 78.6898 9.07577
105.516 78.7721 8.52541
105.648 78.8599 7.99301
105.805 78.9543 7.48006
105.989 79.0561 6.98782
106.203 79.1661 6.51737
106.447 79.2847 6.06966
106.722 79.4121 5.64554
107.029 79.5486 5.24581
107.367 79.6942 4.87123
107.735 79.8489 4.52258
108.131 80.0124 4.20055
108.555 80.1846 3.90584
109.004 80.3651 3.63904
109.474 80.5536 3.40069
109.964 80.7496 3.19119
110.47 80.9527 3.01085
110.99 81.1624 2.85977
111.521 81.3782 2.7379
112.06 81.5995 2.64496
112.604 81.8257 2.58045
113.151 82.0562 2.5436
113.7 82.2904 2.53334
114.247 82.5276 2.54833
114.791 82.7672 2.58691
115.331 83.0084 2.64716
115.866 83.2507 2.72683
116.395 83.4934 2.82342
116.918 83.7359 2.93412
117.434 83.9775 3.05583
117.943 84.2179 3.18523
118.446 84.4565 3.31874
118.941 84.693 3.45262
119.431 84.9271 3.58293
119.914 85.1586 3.70567
120.392 85.3875 3.81676
120.865 85.6139 3.91211
121.333 85.8379 3.98765
121.797 86.0599 4.03933
122.256 86.2802 4.06317
122.711 86.4993 4.05529
123.162 86.7178 4.01194
123.609 86.9363 3.92954
124.053 87.1556 3.80469
124.493 87.3765 3.63411
124.929 87.5997 3.41469
125.362 87.8261 3.14347
125.792 88.0563 2.81756
126.218 88.2912 2.43423
126.641 88.5315 1.99078
LINES 1 147
146 0 1 2 3 4 5 6 7 8 9 10 11 12 13 14 15 16 17 18 19 20 21 22 23 24 25 26 27 28 29 30 31 32 33 34 35 36 37 38 39 40 41 42 43 44 45 46 47 48 49 50 51 52 53 54 55 56 57 58 59 60 61 62 63 64 65 66 67 68 69 70 71 72 73 74 75 76 77 78 79 80 81 82 83 84 85 86 87 88 89 90 91 92 93 94 95 96 97 98 99 100 101 102 103 104 105 106 107 108 109 110 111 112 113 114 115 116 117 118 119 120 121 122 123 124 125 126 127 128 129 130 131 132 133 134 135 136 137 138 139 140 141 142 143 144 145

POINT_DATA 146
SCALARS radius float
LOOKUP_TABLE default
2.18409
2.20559
2.22882
2.35483
2.42489
2.5507
2.54026
2.53891
2.67696
2.58181
2.51256
2.74581
2.58429
2.66436
2.61355
2.60465
2.59367
2.64226
2.5444
2.57914
2.51305
2.57338
2.41964
2.51458
2.44784
2.41407
2.35514
2.26245
2.2077
2.17117
2.63521
2.20199
2.35292
2.38243
2.34825
2.45757
2.31329
2.43949
2.28879
2.30804
2.23016
2.3082
2.42416
2.51266
2.67256
2.49105
2.87403
2.59079
2.74064
2.70074
2.77891
2.85922
2.89001
2.98043
3.03481
2.9927
3.10939
3.0702
3.16123
3.14162
3.18705
3.33291
3.24794
3.36972
3.35241
3.24442
3.53689
3.49693
3.34753
3.32934
3.4342
3.2842
3.49693
2.89126
3.26285
3.00727
2.87106
2.91134
2.73711
2.70757
2.62493
2.60776
2.58222
2.69037
2.59141
2.52659
2.53246
2.50885
2.44737
2.47872
2.48433
2.50565
2.47405
2.47872
2.48433
2.48433
2.48433
2.52241
2.50591
2.80819
2.59197
2.59695
2.63414
2.53258
2.88194
2.60574
2.56801
2.62658
2.5385
2.60023
2.67712
2.69973
2.6568
2.7403
2.77121
2.74064
2.88194
2.65169
2.68398
2.70317
2.69501
2.69014
2.676
2.68538
2.78621
2.95048
2.80138
2.81632
2.82886
2.9732
2.9408
3.00897
3.02933
3.03751
3.03633
3.14813
2.94507
2.94348
2.90748
3.06251
2.67841
2.54876
2.55444
2.48891
2.44421
2.32707
SCALARS curvature float
LOOKUP_TABLE default
0.0595509
0.0552074
0.0542307
0.0564898
0.0612094
0.0674566
0.0745136
0.0818996
0.0892962
0.0964887
0.103336
0.109761
0.11574
0.121272
0.126378
0.1311
0.135464
0.139459
0.14313
0.146583
0.149839
0.152825
0.155446
0.157586
0.159105
0.159809
0.159514
0.158122
0.155666
0.151049
0.146985
0.143006
0.13988
0.138336
0.139017
0.142437
0.148933
0.158673
0.171646
0.18752
0.205586
0.225018
0.245056
0.264617
0.282201
0.295913
0.303846
0.304651
0.298311
0.285935
0.26912
0.249515
0.228503
0.20709
0.186043
0.166242
0.148297
0.132489
0.119062
0.108377
0.100842
0.0968171
0.0965022
0.0999128
0.106912
0.117257
0.130405
0.145583
0.162459
0.181019
0.201028
0.221635
0.241114
0.257246
0.26788
0.271849
0.268756
0.258935
0.243559
0.22429
0.202729
0.180294
0.158147
0.136961
0.117011
0.0984223
0.0812206
0.0653474
0.0459476
0.0325872
0.0207408
0.0137485
0.0185238
0.0303803
0.0444506
0.0595829
0.075306
0.0911482
0.106516
0.120618
0.132532
0.141599
0.147495
0.150174
0.149818
0.146759
0.141514
0.134728
0.127136
0.119365
0.111878
0.104951
0.0987157
0.0931938
0.0883096
0.0839101
0.0797979
0.0757549
0.0716031
0.067195
0.0624028
0.0571243
0.0512898
0.0448703
0.0379537
0.0308982
0.0246404
0.0214185
0.024096
0.032418
0.0441977
0.0581109
0.0735525
0.0901188
0.107336
0.124519
0.140743
0.154907
0.165961
0.17303
0.175613
0.173741
0.167965
0.159185
0.148438
0.136704
SCALARS torsion float
LOOKUP_TABLE default
0.306183
0.342076
0.32801
0.267827
0.19134
0.125023
0.0734026
0.0339785
0.00466629
-0.0175698
-0.0352728
-0.0492268
-0.0597899
-0.0678638
-0.0741057
-0.079069
-0.0830776
-0.086466
-0.0896567
-0.092608
-0.0952716
-0.0979342
-0.100845
-0.104034
-0.107573
-0.111667
-0.116774
-0.123359
-0.131005
-0.143381
-0.154954
-0.166647
-0.176766
-0.183879
-0.186065
-0.182047
-0.172327
-0.157996
-0.139612
-0.118962
-0.0974983
-0.0783082
-0.0611186
-0.0448754
-0.0286831
-0.011914
0.00579155
0.0240704
0.0409276
0.0564326
0.0709164
0.0845556
0.0982387
0.113503
0.130572
0.148803
0.168932
0.192307
0.220942
0.253311
0.285105
0.310482
0.324357
0.325795
0.31553
0.296539
0.276011
0.260063
0.250288
0.243042
0.235497
0.227427
0.219464
0.212032
0.204253
0.193918
0.180397
0.164567
0.148614
0.132875
0.117708
0.103853
0.0907548
0.0773458
0.0646608
0.0536875
0.0426554
0.028923
-0.00273321
-0.0616201
-0.241624
-0.663596
-0.394693
-0.149038
-0.0674252
-0.0346308
-0.0189006
-0.0106541
-0.00636878
-0.00446213
-0.0041566
-0.0048811
-0.00650348
-0.008954
-0.0118418
-0.0151172
-0.0188881
-0.0226944
-0.0260018
-0.0287881
-0.0309432
-0.0322651
-0.0326144
-0.0318756
-0.0302795
-0.0278952
-0.0246908
-0.0212371
-0.0181392
-0.01538
-0.0130045
-0.0112739
-0.0103753
-0.010817
-0.0152479
-0.0283675
-0.0579801
-0.094853
-0.0839233
-0.0444947
-0.0168447
-0.00180687
0.00672079
0.0120159
0.0157662
0.0186789
0.0210442
0.0221437
0.0214857
0.0194833
0.016721
0.0140454
0.0115476
0.00928726
0.00742211
0.00593043
