# vtk DataFile Version 2.0
00000683.nii_L_ICA_MCA_radius_pt3d_curvature_torsion
ASCII
DATASET POLYDATA
POINTS 133 float
111.518 86.6093 35.7523
111.166 86.4192 35.3806
110.835 86.1996 35.0026
110.526 85.9498 34.622
110.238 85.6692 34.242
109.972 85.3573 33.866
109.726 85.0139 33.497
109.43 84.5079 33.0205
109.233 84.0935 32.6773
109.057 83.6507 32.3478
108.904 83.1817 32.0325
108.775 82.6892 31.7314
108.671 82.1765 31.444
108.594 81.6471 31.1692
108.544 81.1053 30.9057
108.524 80.5556 30.6517
108.535 80.0029 30.4054
108.578 79.4527 30.1649
108.654 78.9105 29.9282
108.764 78.3825 29.6936
108.907 77.8747 29.4593
109.083 77.3935 29.224
109.291 76.9453 28.9865
109.53 76.5363 28.7461
109.796 76.1725 28.5027
110.086 75.8593 28.2564
110.398 75.6018 28.008
110.727 75.4043 27.7591
111.068 75.2701 27.5114
111.417 75.2019 27.2674
111.77 75.201 27.0299
112.121 75.2679 26.8018
112.467 75.402 26.5866
112.802 75.6015 26.3875
113.124 75.8639 26.2076
113.428 76.1854 26.0498
113.712 76.5616 25.9164
113.974 76.9875 25.8092
114.211 77.4577 25.7293
114.421 77.9668 25.6771
114.605 78.5092 25.6524
114.761 79.0793 25.6541
114.888 79.6716 25.6807
114.987 80.2806 25.7299
115.057 80.901 25.7989
115.099 81.5279 25.8842
115.112 82.1565 25.9815
115.098 82.7824 26.0864
115.057 83.4012 26.1937
114.961 84.2084 26.3313
114.861 84.7957 26.423
114.738 85.3635 26.4989
114.593 85.9089 26.5534
114.43 86.429 26.5816
114.251 86.9214 26.5789
114.058 87.3839 26.5409
113.855 87.8145 26.4642
113.644 88.2118 26.3459
113.43 88.5747 26.1839
113.216 88.9026 25.977
113.006 89.1956 25.7247
112.805 89.4544 25.4278
112.615 89.6807 25.0878
112.442 89.8767 24.7072
112.288 90.0451 24.2891
112.154 90.1893 23.8368
112.044 90.3129 23.3543
111.958 90.4199 22.8455
111.898 90.5141 22.3145
111.862 90.5994 21.7652
111.852 90.6796 21.2014
111.867 90.7583 20.6268
111.906 90.8387 20.0448
111.969 90.9237 19.4587
112.054 91.0158 18.8715
112.161 91.1172 18.286
112.289 91.2293 17.7045
112.437 91.3532 17.1293
112.605 91.4893 16.5624
112.792 91.6376 16.0057
112.998 91.7977 15.4607
113.223 91.9688 14.9291
113.467 92.1497 14.4124
113.729 92.3389 13.9122
114.011 92.5349 13.4299
114.313 92.7359 12.9673
114.634 92.9401 12.526
114.975 93.146 12.1076
115.335 93.3518 11.7141
115.715 93.556 11.3471
116.113 93.7575 11.0085
116.673 94.0203 10.6036
117.113 94.2123 10.3367
117.57 94.3999 10.1023
118.041 94.5833 9.90096
118.525 94.763 9.73302
119.022 94.9398 9.59833
119.529 95.1148 9.49637
120.045 95.2891 9.42618
120.568 95.4642 9.38639
121.098 95.6416 9.37515
121.631 95.8231 9.39023
122.168 96.0102 9.42896
122.707 96.2045 9.48829
123.246 96.4076 9.5649
123.785 96.6211 9.65516
124.321 96.8462 9.75525
124.855 97.0842 9.86112
125.385 97.336 9.96856
125.91 97.6022 10.0733
126.429 97.8835 10.171
126.941 98.1799 10.2576
127.444 98.4913 10.3291
127.937 98.8173 10.3819
128.42 99.1572 10.4124
128.889 99.5101 10.4178
129.345 99.8748 10.3952
129.784 100.25 10.3424
130.206 100.634 10.2573
130.608 101.026 10.1386
130.988 101.423 9.98491
131.345 101.823 9.7955
131.676 102.227 9.56992
131.98 102.631 9.30801
132.254 103.034 9.00984
132.497 103.435 8.67564
132.707 103.833 8.30575
132.883 104.228 7.90058
133.023 104.617 7.4605
133.128 105.002 6.9859
133.195 105.38 6.47709
133.224 105.753 5.93435
133.215 106.119 5.35792
LINES 1 134
133 0 1 2 3 4 5 6 7 8 9 10 11 12 13 14 15 16 17 18 19 20 21 22 23 24 25 26 27 28 29 30 31 32 33 34 35 36 37 38 39 40 41 42 43 44 45 46 47 48 49 50 51 52 53 54 55 56 57 58 59 60 61 62 63 64 65 66 67 68 69 70 71 72 73 74 75 76 77 78 79 80 81 82 83 84 85 86 87 88 89 90 91 92 93 94 95 96 97 98 99 100 101 102 103 104 105 106 107 108 109 110 111 112 113 114 115 116 117 118 119 120 121 122 123 124 125 126 127 128 129 130 131 132

POINT_DATA 133
SCALARS radius float
LOOKUP_TABLE default
1.59706
1.54358
1.69112
1.74507
1.86297
1.89123
1.90066
1.88373
1.97418
2.1586
1.93091
1.98674
1.98959
1.89625
1.99622
1.86231
1.85167
1.85135
1.85229
1.88358
1.82712
1.81203
1.73398
1.79572
1.79984
1.89082
2.03245
1.95126
1.82533
1.74099
1.90864
2.05128
2.20637
2.08515
2.28501
2.31527
2.46833
2.33342
2.31934
2.29706
2.28471
2.25
2.26735
2.28471
2.3777
2.4598
2.41506
2.32501
2.34302
2.43936
2.71351
2.51145
2.6855
2.56044
2.70282
2.61685
2.76639
2.9533
2.67439
2.78902
2.71443
2.82183
2.64234
2.83285
2.62554
3.19151
2.53857
2.59532
2.37917
2.49216
2.49786
2.50419
2.3944
2.32928
2.32928
2.36747
2.44371
2.35175
2.39877
2.47566
2.50812
2.58346
2.48485
2.50254
2.60996
2.46679
2.58858
2.54856
2.5481
2.50979
2.51611
2.50016
2.51305
2.57464
2.47047
2.74054
2.45408
2.46129
2.5
2.42972
2.38461
2.46648
2.49938
2.53682
2.46908
2.48862
2.468
2.43472
2.53715
2.55281
2.5274
2.64799
2.58328
2.66927
2.66873
2.73518
2.69887
2.67305
2.60806
2.60604
2.61805
2.65303
2.63836
2.63777
2.52342
2.48728
2.49396
2.58292
2.42723
2.38927
2.34915
2.13393
2.28142
SCALARS curvature float
LOOKUP_TABLE default
0.124906
0.124023
0.123474
0.123238
0.123111
0.122762
0.121791
0.118869
0.11517
0.110359
0.104852
0.0991849
0.0939637
0.0898259
0.0874045
0.0872522
0.0897689
0.0952084
0.103721
0.115389
0.130257
0.148411
0.169995
0.195063
0.223425
0.254586
0.28749
0.320021
0.348945
0.370511
0.38119
0.378881
0.36404
0.339319
0.308311
0.274753
0.241855
0.21148
0.184339
0.16046
0.139704
0.1219
0.106818
0.0942242
0.0840068
0.0762635
0.0713925
0.0700228
0.0727887
0.0833022
0.0960424
0.112563
0.132695
0.156282
0.182935
0.211631
0.240427
0.266403
0.285993
0.295745
0.293415
0.27918
0.256233
0.228626
0.199759
0.172056
0.147048
0.1255
0.107597
0.0932175
0.0821852
0.0742677
0.0691237
0.0662872
0.0651826
0.065206
0.0658674
0.0668306
0.0679071
0.0690603
0.0703798
0.072034
0.0741908
0.0770019
0.080581
0.0849422
0.0900183
0.0956998
0.101771
0.107832
0.113383
0.119145
0.121883
0.123053
0.122517
0.120194
0.116091
0.110319
0.103124
0.0948289
0.0857626
0.0762977
0.0668925
0.0580431
0.0503113
0.044361
0.0409663
0.0407484
0.0437473
0.0492752
0.0563815
0.0643192
0.0726564
0.0811119
0.0894909
0.097684
0.105604
0.113161
0.120259
0.126763
0.132497
0.1373
0.141066
0.143668
0.144957
0.144778
0.143022
0.139665
0.134823
0.128752
0.121788
0.114277
0.106534
SCALARS torsion float
LOOKUP_TABLE default
0.134659
0.144235
0.144869
0.136275
0.11968
0.0964598
0.0677488
0.0216819
-0.0146416
-0.0486847
-0.0823216
-0.116193
-0.148399
-0.177034
-0.198666
-0.20961
-0.208262
-0.196326
-0.177633
-0.156443
-0.136202
-0.118343
-0.1023
-0.0878728
-0.0746373
-0.0622096
-0.0496577
-0.0360731
-0.0221627
-0.00889745
0.00382942
0.0152112
0.0228975
0.0269398
0.0278303
0.0261623
0.0220686
0.0153909
0.0068482
-0.0030652
-0.0152713
-0.030961
-0.0515942
-0.0794166
-0.116723
-0.160802
-0.206014
-0.241547
-0.254329
-0.235194
-0.208893
-0.18384
-0.163575
-0.148311
-0.137759
-0.132551
-0.13225
-0.136263
-0.141057
-0.145393
-0.149736
-0.154129
-0.157382
-0.1593
-0.161152
-0.166576
-0.175166
-0.185667
-0.198763
-0.212833
-0.223595
-0.225616
-0.214369
-0.188538
-0.151993
-0.112816
-0.0739264
-0.0362956
-0.00308859
0.025487
0.0499593
0.0690194
0.0811539
0.0861965
0.0846486
0.0782697
0.068133
0.0551709
0.0402944
0.0240706
0.00648977
-0.0153053
-0.0288517
-0.0407174
-0.0518493
-0.0632377
-0.0755569
-0.0893659
-0.104493
-0.122011
-0.143759
-0.173152
-0.213629
-0.268626
-0.339991
-0.420245
-0.480094
-0.478802
-0.410159
-0.318474
-0.238648
-0.180195
-0.138623
-0.108383
-0.0859586
-0.0688546
-0.055067
-0.043365
-0.0330156
-0.023448
-0.0143632
-0.0065916
-0.000163762
0.00511798
0.00888936
0.010823
0.0111013
0.0101543
0.00886852
0.00734789
0.00568002
0.00435439
0.0034528
