# vtk DataFile Version 2.0
00000950.nii_R_ICA_MCA_radius_pt3d_curvature_torsion
ASCII
DATASET POLYDATA
POINTS 134 float
71.6428 66.8022 32.0864
71.8931 67.2983 31.9151
72.1578 67.7767 31.7385
72.4394 68.2346 31.5564
72.74 68.6694 31.3684
73.1727 69.2084 31.1069
73.5224 69.5787 30.9014
73.8937 69.9171 30.6867
74.2863 70.2211 30.4616
74.6991 70.4886 30.225
75.1302 70.7174 29.9759
75.5773 70.9058 29.7135
76.0375 71.0523 29.4372
76.5074 71.1558 29.1468
76.9832 71.2155 28.8425
77.4609 71.231 28.5246
77.936 71.2023 28.194
78.4043 71.1295 27.8517
78.8613 71.0132 27.4992
79.3026 70.8542 27.1381
79.7237 70.6536 26.7707
80.1204 70.4128 26.3994
80.4886 70.1333 26.0268
80.8245 69.8171 25.6556
81.1247 69.4663 25.2886
81.3864 69.0834 24.9285
81.607 68.671 24.5774
81.7846 68.2321 24.2375
81.9176 67.77 23.9103
82.0051 67.2882 23.5966
82.0466 66.7906 23.2966
82.0421 66.2813 23.01
81.9922 65.765 22.7357
81.8979 65.2463 22.472
81.7606 64.7303 22.217
81.5824 64.2224 21.968
81.3658 63.7283 21.7224
81.0228 63.101 21.3951
80.7298 62.6619 21.146
80.4111 62.2564 20.8909
80.0712 61.89 20.6278
79.715 61.5682 20.3553
79.3477 61.2957 20.0731
78.9745 61.0769 19.7813
78.6006 60.9155 19.4814
78.2311 60.8142 19.1752
77.8709 60.7751 18.8657
77.5245 60.7993 18.5563
77.196 60.8869 18.2509
76.8891 61.0373 17.9538
76.607 61.2488 17.6694
76.3522 61.519 17.4019
76.1268 61.8446 17.1552
75.9324 62.2217 16.933
75.7697 62.6457 16.738
75.6392 63.1114 16.5723
75.5408 63.6136 16.4371
75.4743 64.1465 16.3326
75.4389 64.7048 16.2583
75.434 65.2828 16.2126
75.4585 65.8752 16.1934
75.5115 66.4768 16.1976
75.5917 67.0826 16.2215
75.6981 67.6879 16.2606
75.8294 68.2882 16.3099
75.9841 68.8792 16.3641
76.1608 69.4573 16.4171
76.3579 70.0188 16.463
76.5736 70.5608 16.4954
76.806 71.0806 16.5083
77.1379 71.7355 16.4855
77.4004 72.1961 16.4316
77.6715 72.6293 16.3412
77.9483 73.0346 16.2109
78.2279 73.412 16.0379
78.5069 73.7619 15.8206
78.7821 74.0853 15.5586
79.0502 74.3837 15.2522
79.3079 74.6587 14.9029
79.5521 74.9125 14.513
79.7801 75.1473 14.0854
79.9892 75.3655 13.6236
80.1773 75.5693 13.1315
80.3424 75.7612 12.6132
80.4828 75.9432 12.0727
80.5969 76.1175 11.5143
80.6836 76.286 10.9421
80.7416 76.4507 10.3602
80.7699 76.6131 9.77264
80.7676 76.7749 9.18327
80.7339 76.9377 8.59584
80.6681 77.1028 8.01397
80.5698 77.2715 7.44112
80.4386 77.4453 6.88057
80.2745 77.6252 6.33546
80.0779 77.8126 5.80875
79.8493 78.0084 5.30323
79.5896 78.2136 4.82151
79.3 78.4293 4.36602
78.9821 78.6563 3.93902
78.6379 78.8952 3.54253
78.2694 79.1465 3.17832
77.7443 79.5014 2.74534
77.3283 79.7825 2.46134
76.896 80.0761 2.21287
76.4498 80.3816 2.00002
75.9918 80.6983 1.82246
75.5241 81.0253 1.67942
75.0487 81.3614 1.5697
74.5672 81.7052 1.49162
74.0811 82.0552 1.44311
73.5916 82.4099 1.42171
73.0998 82.7676 1.42464
72.6063 83.1268 1.44889
72.1117 83.4859 1.49121
71.6163 83.8436 1.54824
71.1205 84.1984 1.61652
70.6244 84.5494 1.69257
70.1279 84.8954 1.77292
69.631 85.2358 1.8542
69.1335 85.5699 1.93315
68.6352 85.8974 2.00673
68.136 86.2177 2.07214
67.6355 86.5308 2.12685
67.1336 86.8365 2.16863
66.6299 87.1347 2.19554
66.1242 87.4252 2.20592
65.6164 87.7081 2.19839
65.1062 87.9831 2.17183
64.5935 88.2504 2.12536
64.0781 88.5097 2.05828
63.56 88.761 1.97006
63.039 89.0043 1.86029
62.5152 89.2395 1.72861
LINES 1 135
134 0 1 2 3 4 5 6 7 8 9 10 11 12 13 14 15 16 17 18 19 20 21 22 23 24 25 26 27 28 29 30 31 32 33 34 35 36 37 38 39 40 41 42 43 44 45 46 47 48 49 50 51 52 53 54 55 56 57 58 59 60 61 62 63 64 65 66 67 68 69 70 71 72 73 74 75 76 77 78 79 80 81 82 83 84 85 86 87 88 89 90 91 92 93 94 95 96 97 98 99 100 101 102 103 104 105 106 107 108 109 110 111 112 113 114 115 116 117 118 119 120 121 122 123 124 125 126 127 128 129 130 131 132 133

POINT_DATA 134
SCALARS radius float
LOOKUP_TABLE default
2.33939
2.40943
2.41629
2.3825
2.34752
2.45918
2.47
2.52882
2.52441
2.40226
2.5741
2.28661
2.46737
2.38233
2.51355
2.59003
2.6449
2.40128
2.51783
2.02683
1.86522
1.84063
1.85019
1.90499
1.99433
2.02658
2.00884
1.94338
2.08402
2.02579
2.11121
2.28471
2.23965
2.45592
2.5486
2.65472
2.65802
2.67823
2.44319
2.40489
2.39227
2.4566
2.41606
2.45757
2.47831
2.58458
2.74307
2.70233
2.69747
3.49058
3.00958
2.99364
2.89299
3.04984
3.16969
3.23227
3.14805
3.10433
3.00834
2.92717
2.92717
2.89142
3.02716
2.98945
3
3.11941
3.02142
3.16186
3.11569
3.3457
3.37997
3.07825
3.14906
3.14162
3.09648
3.16481
3.00758
3.0052
3.05616
2.81766
3.26491
2.84925
2.81714
2.83926
2.71238
2.81935
2.62993
2.65864
2.6267
2.54647
2.50483
2.58013
2.65974
2.5362
2.55244
2.5538
2.50506
2.49962
2.48376
2.51524
2.46942
2.50452
2.43499
2.36113
2.29275
2.44737
2.36359
2.34965
2.36009
2.3638
2.35515
2.3638
2.39385
2.40314
2.46899
2.45817
2.47487
2.52456
2.61121
2.58859
2.56709
2.80391
2.59261
2.55585
2.58346
2.69924
2.66664
2.44275
2.39554
2.4464
2.51558
2.55357
2.67692
2.44558
SCALARS curvature float
LOOKUP_TABLE default
0.0573654
0.070101
0.083101
0.0959263
0.108198
0.123035
0.132518
0.140194
0.145801
0.149229
0.150586
0.150125
0.148171
0.145208
0.141859
0.138644
0.135923
0.13391
0.132784
0.132718
0.133823
0.136036
0.139107
0.142666
0.146315
0.149594
0.151998
0.153027
0.152262
0.149458
0.14479
0.138807
0.132246
0.125855
0.120311
0.1164
0.115089
0.11912
0.127068
0.139091
0.154802
0.173759
0.195478
0.219413
0.244674
0.269757
0.292711
0.311459
0.323861
0.328195
0.32368
0.310657
0.290509
0.265683
0.238821
0.211913
0.18623
0.162537
0.14121
0.122344
0.105852
0.0917349
0.0802398
0.0719608
0.067806
0.0687003
0.075044
0.0864048
0.101834
0.120256
0.14755
0.168209
0.186914
0.20153
0.210026
0.211062
0.204866
0.192951
0.177305
0.159973
0.142765
0.126956
0.113276
0.101994
0.0932247
0.0870034
0.083219
0.0816762
0.0821486
0.0843318
0.0878347
0.0922785
0.097311
0.102606
0.107863
0.11281
0.117244
0.121014
0.124002
0.12613
0.127309
0.127416
0.125707
0.123056
0.119285
0.114437
0.108537
0.101634
0.0938098
0.0852678
0.0762625
0.0670068
0.0576684
0.048398
0.039365
0.0308053
0.0231601
0.0174393
0.0155303
0.0182941
0.0238318
0.0302837
0.0367764
0.0429512
0.0486152
0.0536374
0.0579303
0.0614371
0.0641308
0.066056
0.0673105
0.0680092
0.0682513
0.0681024
SCALARS torsion float
LOOKUP_TABLE default
-0.126053
-0.0613152
-0.019291
0.00922514
0.0287833
0.0470921
0.0569117
0.0640884
0.0693774
0.0730231
0.0744826
0.0739981
0.0719031
0.0691036
0.0654811
0.0606852
0.0547439
0.0478322
0.0399242
0.0315024
0.0241281
0.0179498
0.013106
0.0111453
0.0123951
0.0167773
0.0241832
0.0347433
0.0491013
0.0673658
0.0874822
0.109863
0.134725
0.161148
0.188559
0.215469
0.233671
0.228849
0.204498
0.17203
0.139362
0.108785
0.0811514
0.0574341
0.0361465
0.0160894
-0.00120746
-0.0156081
-0.0273074
-0.0356909
-0.0401529
-0.0408801
-0.0383161
-0.0328188
-0.0242944
-0.012539
0.000788091
0.0160824
0.0349616
0.0590055
0.0906061
0.133807
0.191678
0.259763
0.321656
0.350318
0.331541
0.285405
0.237226
0.198725
0.164174
0.148167
0.138191
0.132327
0.129688
0.129771
0.131022
0.132655
0.134495
0.137935
0.142523
0.146716
0.150812
0.155571
0.15906
0.15918
0.155259
0.147086
0.135398
0.122017
0.10904
0.0978421
0.0888481
0.0820639
0.0775138
0.0748686
0.073158
0.0721906
0.071734
0.0699085
0.0661565
0.0604982
0.0513886
0.0438743
0.0354105
0.0263786
0.0171794
0.0073411
-0.00348519
-0.0149238
-0.0279119
-0.0439335
-0.0648982
-0.0947676
-0.141701
-0.225409
-0.388522
-0.669339
-0.829122
-0.589462
-0.340692
-0.203572
-0.131127
-0.0890127
-0.0614753
-0.0426032
-0.0296724
-0.0203821
-0.0136186
-0.00910335
-0.00635692
-0.00501884
-0.00417855
-0.00355502
