# vtk DataFile Version 2.0
00000156.nii_L_ICA_MCA_radius_pt3d_curvature_torsion
ASCII
DATASET POLYDATA
POINTS 125 float
111.159 83.378 29.7213
110.671 83.2636 29.6368
110.188 83.1246 29.5587
109.709 82.9606 29.4893
109.233 82.7713 29.4303
108.761 82.5566 29.3828
108.139 82.2305 29.3379
107.68 81.9558 29.3169
107.231 81.6553 29.305
106.793 81.3291 29.2997
106.369 80.9776 29.2977
105.964 80.6013 29.295
105.581 80.2014 29.2871
105.224 79.7791 29.2693
104.897 79.3365 29.2369
104.603 78.8758 29.1854
104.346 78.3997 29.1106
104.129 77.9115 29.0091
103.954 77.4145 28.8783
103.824 76.9123 28.7161
103.741 76.4086 28.5217
103.707 75.9075 28.2948
103.723 75.4129 28.0364
103.789 74.929 27.7481
103.906 74.4599 27.4325
104.073 74.0099 27.0929
104.289 73.583 26.7337
104.552 73.1832 26.3592
104.86 72.8142 25.9742
105.208 72.4796 25.5836
105.73 72.0924 25.062
106.157 71.8502 24.676
106.609 71.6521 24.2988
107.079 71.5005 23.934
107.56 71.397 23.5847
108.045 71.3427 23.2534
108.525 71.3381 22.9422
108.993 71.3834 22.653
109.441 71.4778 22.3873
109.86 71.6201 22.1467
110.243 71.8085 21.9326
110.583 72.0405 21.7464
110.874 72.3132 21.5894
111.11 72.6231 21.4628
111.287 72.9668 21.3675
111.402 73.3407 21.3042
111.455 73.7413 21.2731
111.446 74.1653 21.2741
111.378 74.6098 21.3063
111.255 75.0723 21.3681
111.081 75.5507 21.4572
110.864 76.0434 21.5704
110.613 76.5492 21.704
110.336 77.0672 21.8533
109.945 77.7756 22.068
109.648 78.3192 22.2337
109.358 78.8723 22.3973
109.085 79.4336 22.5532
108.836 80.0011 22.6961
108.618 80.5725 22.821
108.437 81.1445 22.9233
108.296 81.7135 22.9989
108.199 82.2751 23.0441
108.145 82.8245 23.0555
108.137 83.3563 23.0305
108.171 83.8653 22.9667
108.246 84.3457 22.8624
108.359 84.7921 22.7162
108.505 85.199 22.5273
108.678 85.5616 22.2956
108.872 85.8759 22.0216
109.079 86.1392 21.7063
109.293 86.3499 21.3514
109.507 86.5081 20.9591
109.713 86.6152 20.532
109.905 86.6742 20.0726
110.08 86.6893 19.5838
110.232 86.6653 19.0687
110.396 86.5828 18.3457
110.487 86.4911 17.7802
110.55 86.3811 17.1979
110.588 86.2591 16.6016
110.603 86.1314 15.9941
110.599 86.0037 15.3783
110.579 85.8807 14.757
110.55 85.7666 14.1332
110.516 85.6648 13.51
110.485 85.578 12.8904
110.461 85.508 12.2778
110.45 85.4564 11.6754
110.459 85.424 11.0868
110.492 85.4111 10.5154
110.554 85.4178 9.96481
110.649 85.4439 9.43846
110.779 85.4891 8.93966
110.948 85.5529 8.47144
111.155 85.6348 8.03651
111.401 85.7343 7.63717
111.685 85.851 7.27521
112.004 85.9845 6.95188
112.356 86.1345 6.66777
112.737 86.3006 6.42278
113.284 86.5463 6.15557
113.718 86.748 5.9978
114.168 86.9641 5.87421
114.63 87.1938 5.78215
115.1 87.4363 5.71861
115.576 87.6907 5.68033
116.055 87.9561 5.66383
116.535 88.2317 5.66555
117.014 88.5166 5.68186
117.491 88.8097 5.70913
117.965 89.1102 5.74385
118.437 89.4174 5.78263
118.906 89.7305 5.82229
119.373 90.049 5.85988
119.837 90.3723 5.89276
120.3 90.7 5.91856
120.761 91.0319 5.93524
121.221 91.3677 5.94101
121.681 91.7073 5.93437
122.14 92.0505 5.91401
122.599 92.3973 5.87889
123.058 92.7475 5.8281
123.517 93.1011 5.76094
LINES 1 126
125 0 1 2 3 4 5 6 7 8 9 10 11 12 13 14 15 16 17 18 19 20 21 22 23 24 25 26 27 28 29 30 31 32 33 34 35 36 37 38 39 40 41 42 43 44 45 46 47 48 49 50 51 52 53 54 55 56 57 58 59 60 61 62 63 64 65 66 67 68 69 70 71 72 73 74 75 76 77 78 79 80 81 82 83 84 85 86 87 88 89 90 91 92 93 94 95 96 97 98 99 100 101 102 103 104 105 106 107 108 109 110 111 112 113 114 115 116 117 118 119 120 121 122 123 124

POINT_DATA 125
SCALARS radius float
LOOKUP_TABLE default
1.64268
1.56271
1.61839
1.55469
1.51865
1.6594
1.64426
1.78218
1.8079
1.63682
1.71306
1.77412
1.84369
1.8618
1.79575
1.81854
1.85332
1.79582
1.92471
1.87987
2
1.86521
1.95033
2.04438
2.01946
1.90322
1.87439
2.00384
2.15736
2.20699
2.16727
2.01248
1.97698
2.15466
2.13955
2.24191
2.13346
2.20318
2.01163
2.09472
2.02818
2.04237
2.13548
2.30699
2.43529
2.53719
2.59339
2.22349
2.47484
2.45717
2.52621
2.51971
2.51067
2.48887
2.52022
2.53466
2.42338
2.63274
2.54883
2.62284
2.66093
2.66093
2.55037
2.56218
2.61113
2.53857
2.57583
2.54929
2.40562
2.63877
2.50346
2.25491
2.33705
2.20607
2.13591
2.12415
2.13439
2.05576
2.04438
2.07886
2.03085
2.03085
2.14678
2.14747
2.01233
2.03085
2.022
2.03085
2.12836
2.12942
2.19757
2.28457
2.38699
2.27056
2.26483
2.25
2.44904
2.31727
2.16253
2.22675
2.4189
2.18188
2.12596
2.04244
2.15984
2.01543
2.14043
1.92826
2.02158
1.96416
1.97996
2.11038
2.08285
2.22976
2.1843
2.25853
2.15566
2.18995
2.15846
2.12544
2.08113
2.03965
2.03893
2.05081
1.88554
SCALARS curvature float
LOOKUP_TABLE default
0.0969443
0.100156
0.10285
0.104667
0.105215
0.104391
0.101737
0.0994796
0.0979913
0.0982119
0.101008
0.106964
0.116029
0.127522
0.140447
0.153903
0.166852
0.178112
0.186758
0.192246
0.194354
0.193128
0.1888
0.181904
0.173275
0.164054
0.155169
0.147224
0.140613
0.135662
0.132133
0.132092
0.13448
0.139482
0.147514
0.159391
0.176123
0.198851
0.228645
0.266326
0.312032
0.364169
0.417421
0.461275
0.482232
0.471144
0.42955
0.368604
0.301555
0.237572
0.180695
0.132098
0.0914282
0.0579276
0.027685
0.0298129
0.0480357
0.0693178
0.0911603
0.11318
0.135306
0.157794
0.180838
0.204438
0.228263
0.251668
0.273802
0.293504
0.308919
0.317718
0.318012
0.309746
0.293713
0.271081
0.244
0.215166
0.186763
0.160104
0.128062
0.106568
0.0870432
0.0695669
0.0543215
0.0417947
0.0335672
0.0324445
0.0391657
0.0513016
0.0668696
0.0851088
0.105755
0.128481
0.152665
0.177249
0.200848
0.221583
0.237244
0.245879
0.246348
0.23865
0.224173
0.205292
0.177055
0.155616
0.135073
0.115999
0.0986376
0.0829415
0.0687664
0.0559486
0.0443927
0.0342266
0.0259586
0.0206569
0.019534
0.0221699
0.0266164
0.031435
0.0359787
0.0399788
0.0433323
0.0460153
0.0480451
0.0494903
0.0504752
SCALARS torsion float
LOOKUP_TABLE default
0.194446
0.179846
0.143288
0.0893804
0.0260386
-0.0324483
-0.106273
-0.158962
-0.20283
-0.234161
-0.248738
-0.239488
-0.212778
-0.179544
-0.14728
-0.118042
-0.0916055
-0.0680039
-0.0483589
-0.0311999
-0.0155607
-0.00225126
0.00895806
0.0187427
0.0258889
0.0289325
0.0279061
0.0230419
0.0154354
0.00480088
-0.0139559
-0.0289136
-0.044206
-0.0597072
-0.0720042
-0.0797672
-0.0828966
-0.0820449
-0.0781793
-0.0717599
-0.0632139
-0.0532752
-0.0412194
-0.0265747
-0.012911
-0.00190116
0.00598711
0.0111543
0.0145762
0.0173022
0.0206109
0.0261095
0.0374681
0.0675713
0.229073
0.193832
0.0863233
0.0551868
0.0465385
0.0464036
0.0503391
0.0563912
0.0642252
0.0738735
0.0859778
0.100628
0.117545
0.133912
0.149005
0.163511
0.175486
0.181412
0.181354
0.177978
0.175919
0.175326
0.176134
0.17829
0.184914
0.19591
0.219896
0.264561
0.342804
0.485284
0.686701
0.724147
0.522256
0.338296
0.229902
0.167473
0.127598
0.0992277
0.0765776
0.0576778
0.0410823
0.0244631
0.00716328
-0.00875109
-0.0237971
-0.0384823
-0.0509905
-0.0606623
-0.0690396
-0.0748901
-0.0818407
-0.0898878
-0.100168
-0.114891
-0.136289
-0.169972
-0.23134
-0.34452
-0.541496
-0.781595
-0.79688
-0.552594
-0.334744
-0.206674
-0.133168
-0.0887643
-0.0609403
-0.0427432
-0.0305118
-0.0225439
-0.0176324
