# vtk DataFile Version 5.1
vtk output
ASCII
DATASET POLYDATA
POINTS 233 double
113.83729652 81.130566941 34.100547697 113.56749397 81.209023424 33.995575535 113.29191304 81.270296545 33.894228396 
113.01202419 81.314607341 33.795884746 112.7291864 81.342234046 33.699894735 112.44465611 81.353481892 33.605597294 
112.15960161 81.348661931 33.512335029 111.87511972 81.328077987 33.419467556 111.59225234 81.292020346 33.326383764 
111.3120015 81.240764555 33.232513567 111.03534197 81.174573362 33.137339097 110.76324225 81.093671652 33.040401479 
110.49666327 80.998292906 32.941315842 110.23653493 80.888727362 32.839794309 109.98379799 80.765224348 32.735641756 
109.73939289 80.628035601 32.628772312 109.50426057 80.477416581 32.519220272 109.27934248 80.31362812 32.407150174 
109.06558014 80.136939339 32.292864988 108.86392249 79.94762535 32.17681054 108.675343 79.745963501 32.059579259 
108.50072624 79.532342612 31.941911567 108.34098849 79.307159722 31.824672731 108.19702441 79.070889217 31.708841032 
108.06969216 78.824108911 31.595481171 107.95979257 78.567526844 31.485706491 107.8680417 78.302004102 31.380631261 
107.79503889 78.028568518 31.281313487 107.74123256 77.748414352 31.188691837 107.70688918 77.462883814 31.103522843 
107.69207093 77.173430333 31.026324404 107.69666536 76.881564561 30.957350891 107.72029007 76.588806106 30.896525597 
107.76239649 76.296607859 30.84347543 107.82231035 76.006313186 30.797554808 107.89925929 75.719125842 30.757878311 
107.99241271 75.436095805 30.723368022 108.10091466 75.158120605 30.692805888 108.22390667 74.88595816 30.664884674 
108.36054049 74.62024612 30.638256448 108.50998191 74.361523238 30.611576133 108.6714088 74.110249518 30.583540071 
108.84400632 73.866823085 30.552919781 109.02696271 73.631593448 30.518589475 109.21948166 73.404885521 30.479539302 
109.42075811 73.186986984 30.434899653 109.62998217 72.978146223 30.383959358 109.84637789 72.778612956 30.326141537 
110.069198 72.588636966 30.260999894 110.29773095 72.40848165 30.188200792 110.53130463 72.238439744 30.107501709 
110.76929748 72.078885927 30.018701174 111.011112 71.930266607 29.921641993 111.25613778 71.793004058 29.816275862 
111.50379393 71.667677483 29.702524307 111.75348684 71.555011937 29.58029786 112.00457682 71.455912495 29.449492167 
112.25633898 71.371208355 29.31015712 112.50797133 71.301973651 29.16231175 112.75854657 71.249416046 29.00604687 
113.00695803 71.21500011 28.84151018 113.25194903 71.200015093 28.669135787 113.49205245 71.205943999 28.489507597 
113.72558185 71.234291555 28.303485154 113.95063111 71.286507251 28.112271186 114.165091 71.36389352 27.917470374 
114.36668966 71.467492404 27.721133114 114.55293991 71.598140034 27.525796299 114.72148969 71.755870742 27.334446908 
114.87012863 71.940063529 27.150395575 114.99669312 72.149581687 26.977267014 115.09969657 72.382152664 26.818564701 
115.17826285 72.634737284 26.677442261 115.23196465 72.903837582 26.556643139 115.2615818 73.185296343 26.457640373 
115.26816519 73.475172076 26.381222055 115.25335346 73.76974753 26.327103195 115.21921002 74.065840742 26.293982834 
115.16775037 74.360974561 26.280046174 115.10092732 74.653350547 26.283040315 115.02052089 74.941793766 26.300471023 
114.92807901 75.225650852 26.329755345 114.82478838 75.504617062 26.368393348 114.71182339 75.778790474 26.413730819 
114.59005136 76.048434609 26.463277254 114.46009168 76.313900356 26.514578866 114.32258246 76.575681445 26.565132796 
114.17808127 76.834279452 26.612460033 114.02706814 77.090136492 26.653983193 113.87012427 77.343639598 26.687049888 
113.70798472 77.595058329 26.709027252 113.54153352 77.844466784 26.717216842 113.37190681 78.091711332 26.708987693 
113.2005269 78.336373699 26.68191869 113.02909337 78.577763012 26.633977062 112.85951825 78.814949387 26.563700001 
112.69382075 79.046825404 26.470279318 112.53397651 79.272219455 26.353682654 112.38166233 79.490103324 26.214852628 
112.23820965 79.699605277 26.05522652 112.10451006 79.900106014 25.876675972 111.9810057 80.091261916 25.681305379 
111.86775179 80.272970034 25.471245286 111.76440495 80.445409041 25.248627644 111.67041557 80.60889199 25.015349648 
111.58509416 80.763830401 24.773073506 111.50762272 80.910750475 24.523275559 111.43714151 81.050234499 24.26721805 
111.37280151 81.182888604 24.005962588 111.31378888 81.309335047 23.740402591 111.25934779 81.43020417 23.471289189 
111.208813 81.546109347 23.199243595 111.16157844 81.657704532 22.924811724 111.11713687 81.765648875 22.648458511 
111.07510247 81.870586382 22.370573727 111.03520394 81.973163615 22.091494544 110.99729067 82.074028072 21.811515239 
110.96133914 82.173823771 21.530894648 110.92744919 82.273189276 21.249865152 110.89583267 82.372743347 20.968637732 
110.86681666 82.473072004 20.687405702 110.84082334 82.574717973 20.406351815 110.81835129 82.678165397 20.125652707 
110.79995374 82.783824141 19.845482169 110.78621499 82.892014889 19.566012783 110.77772718 83.002956974 19.287415809 
110.77506912 83.116759992 19.009859304 110.7787894 83.233420905 18.733505227 110.78939486 83.352826594 18.458506274 
110.80734541 83.474761567 18.18500353 110.83305502 83.598919585 17.913125866 110.86689805 83.724917591 17.642991809 
110.90921971 83.852310426 17.374714278 110.96034813 83.980604351 17.108407872 111.02060676 84.109268755 16.844198488 
111.09032433 84.237745538 16.582234543 111.16987739 84.365451854 16.322708689 111.25959011 84.491796297 16.065845317 
111.35981747 84.61618259 15.811933361 111.47091559 84.738017412 15.561332371 111.59321725 84.856723416 15.314477831 
111.72700658 84.971756464 15.071882628 111.87248927 85.082628242 14.834131439 112.02976256 85.188933056 14.601866983 
112.19878926 85.290376874 14.375767889 112.37938102 85.386804978 14.156520114 112.57119463 85.478223847 13.94478543 
112.77374246 85.564813939 13.741171855 112.98641608 85.646930078 13.546211152 113.20851812 85.725090138 13.360346692 
113.43929759 85.799952346 13.183933484 113.6779822 85.872285943 13.017248488 113.92380433 85.942937298 12.860508522 
114.1760196 86.012795786 12.71389405 114.43392794 86.082764023 12.577597959 114.69682377 86.153721304 12.451743088 
114.96405045 86.226492802 12.336493773 115.23497321 86.301825664 12.232025917 115.50897276 86.380365089 12.13852172 
115.78544142 86.462632473 12.056156864 116.0637828 86.549008168 11.98508055 116.34341684 86.639718733 11.925390799 
116.62378943 86.734832278 11.877107333 116.90438667 86.834261636 11.840145558 117.184751 86.937777869 11.814295239 
117.46449731 87.045031963 11.79920657 117.74332588 87.155584363 11.794386508 118.02103002 87.268938282 11.799204448 
118.29749697 87.384574317 11.812907388 118.57270183 87.501983202 11.834641047 118.84669452 87.62069539 11.863479581 
119.11958233 87.740304555 11.898453544 119.39151588 87.860482679 11.938546903 119.66266084 87.980999046 11.982762491 
119.93318095 88.101724783 12.030128064 120.20322009 88.222636733 12.079714923 120.47288746 88.343817202 12.130653184 
120.74224561 88.465450996 12.182144563 121.01130268 88.587818225 12.233471461 121.28000767 88.711284269 12.284003659 
121.54824945 88.836285999 12.333201404 121.81585793 88.963317221 12.380614272 122.08260779 89.092911398 12.425876748 
122.34823172 89.225603242 12.468715557 122.61242482 89.361923061 12.508924413 122.87485838 89.502368085 12.546355927 
123.1351937 89.647380577 12.580905282 123.39309747 89.797328003 12.612491363 123.64825767 89.952487009 12.641036054 
123.90039951 90.113031446 12.666442689 124.1492998 90.279025671 12.688575665 124.3947991 90.450422525 12.707241789 
124.63680981 90.627066236 12.722175823 124.87531999 90.808698715 12.733030001 125.11039164 90.994968645 12.739369542 
125.34215393 91.185441609 12.740673311 125.57079128 91.379610552 12.736340527 125.79652081 91.576911796 12.725685723 
126.01959168 91.776714331 12.707998487 126.24024617 91.978349859 12.682535223 126.45869896 92.181119826 12.648544674 
126.67511636 92.384306488 12.605299272 126.8895954 92.587188761 12.552122637 127.10214597 92.789061693 12.488415835 
127.31267765 92.989258315 12.413679236 127.52099153 93.187172802 12.327528 127.726778 93.382281847 12.229699143 
127.92961933 93.57416185 12.12004943 128.12899584 93.762499474 11.998545136 128.32429393 93.947093882 11.865245187 
128.51481415 94.127850184 11.720280882 128.69976832 94.304758228 11.563817214 128.87829903 94.477882963 11.396069533 
129.04949559 94.647340034 11.21729711 129.21237141 94.813252362 11.027753388 129.36587849 94.975727999 10.827708316 
129.50891443 95.134832989 10.617457439 129.64033453 95.290567602 10.397337679 129.75897004 95.442847689 10.167747723 
129.86365331 95.591493249 9.9291709487 129.95324993 95.736224851 9.682197354 130.02669558 95.876669694 9.4275415018 
130.08303592 96.012376024 9.1660529516 130.12146525 96.142835627 8.8987168578 130.14136095 96.267511407 8.626643349 
130.14230972 96.385867605 8.351045926 130.12412474 96.497399497 8.0732105926 130.08685249 96.601659978 7.7944580501 
130.03076949 96.698281722 7.5161020864 129.95636964 96.7869936 7.2394070178 129.86423137 96.867576977 6.9655734965 
129.75514728 96.939934892 6.6956969986 129.63023166 97.004174061 6.4306670619 
VERTICES 234 233
OFFSETS vtktypeint64
0 1 2 3 4 5 6 7 8 
9 10 11 12 13 14 15 16 17 
18 19 20 21 22 23 24 25 26 
27 28 29 30 31 32 33 34 35 
36 37 38 39 40 41 42 43 44 
45 46 47 48 49 50 51 52 53 
54 55 56 57 58 59 60 61 62 
63 64 65 66 67 68 69 70 71 
72 73 74 75 76 77 78 79 80 
81 82 83 84 85 86 87 88 89 
90 91 92 93 94 95 96 97 98 
99 100 101 102 103 104 105 106 107 
108 109 110 111 112 113 114 115 116 
117 118 119 120 121 122 123 124 125 
126 127 128 129 130 131 132 133 134 
135 136 137 138 139 140 141 142 143 
144 145 146 147 148 149 150 151 152 
153 154 155 156 157 158 159 160 161 
162 163 164 165 166 167 168 169 170 
171 172 173 174 175 176 177 178 179 
180 181 182 183 184 185 186 187 188 
189 190 191 192 193 194 195 196 197 
198 199 200 201 202 203 204 205 206 
207 208 209 210 211 212 213 214 215 
216 217 218 219 220 221 222 223 224 
225 226 227 228 229 230 231 232 233 

CONNECTIVITY vtktypeint64
0 1 2 3 4 5 6 7 8 
9 10 11 12 13 14 15 16 17 
18 19 20 21 22 23 24 25 26 
27 28 29 30 31 32 33 34 35 
36 37 38 39 40 41 42 43 44 
45 46 47 48 49 50 51 52 53 
54 55 56 57 58 59 60 61 62 
63 64 65 66 67 68 69 70 71 
72 73 74 75 76 77 78 79 80 
81 82 83 84 85 86 87 88 89 
90 91 92 93 94 95 96 97 98 
99 100 101 102 103 104 105 106 107 
108 109 110 111 112 113 114 115 116 
117 118 119 120 121 122 123 124 125 
126 127 128 129 130 131 132 133 134 
135 136 137 138 139 140 141 142 143 
144 145 146 147 148 149 150 151 152 
153 154 155 156 157 158 159 160 161 
162 163 164 165 166 167 168 169 170 
171 172 173 174 175 176 177 178 179 
180 181 182 183 184 185 186 187 188 
189 190 191 192 193 194 195 196 197 
198 199 200 201 202 203 204 205 206 
207 208 209 210 211 212 213 214 215 
216 217 218 219 220 221 222 223 224 
225 226 227 228 229 230 231 232 
LINES 2 233
OFFSETS vtktypeint64
0 233 
CONNECTIVITY vtktypeint64
0 1 2 3 4 5 6 7 8 
9 10 11 12 13 14 15 16 17 
18 19 20 21 22 23 24 25 26 
27 28 29 30 31 32 33 34 35 
36 37 38 39 40 41 42 43 44 
45 46 47 48 49 50 51 52 53 
54 55 56 57 58 59 60 61 62 
63 64 65 66 67 68 69 70 71 
72 73 74 75 76 77 78 79 80 
81 82 83 84 85 86 87 88 89 
90 91 92 93 94 95 96 97 98 
99 100 101 102 103 104 105 106 107 
108 109 110 111 112 113 114 115 116 
117 118 119 120 121 122 123 124 125 
126 127 128 129 130 131 132 133 134 
135 136 137 138 139 140 141 142 143 
144 145 146 147 148 149 150 151 152 
153 154 155 156 157 158 159 160 161 
162 163 164 165 166 167 168 169 170 
171 172 173 174 175 176 177 178 179 
180 181 182 183 184 185 186 187 188 
189 190 191 192 193 194 195 196 197 
198 199 200 201 202 203 204 205 206 
207 208 209 210 211 212 213 214 215 
216 217 218 219 220 221 222 223 224 
225 226 227 228 229 230 231 232 
POINT_DATA 233
SCALARS Curvature double
LOOKUP_TABLE default
0.2142786933 0.20565589276 0.1976273846 0.19046370468 0.18435936823 0.17943363195 0.17573481259 0.17324613123 0.17189452261 
0.1715694342 0.17213644264 0.17345770302 0.17540152272 0.17785118024 0.18071658363 0.18393312317 0.18746249105 0.19129457643 
0.19543857138 0.19991782721 0.20474630548 0.20991152169 0.21534654752 0.22090779228 0.22635872132 0.23136526278 0.2355274636 
0.23839888431 0.23956908348 0.23870366867 0.2356481967 0.2304161819 0.22325533204 0.21456897159 0.20491350919 0.19489602986 
0.18513985359 0.17619495365 0.16849748706 0.16231098929 0.15771204234 0.15459512968 0.15272462205 0.15179260868 0.15150245646 
0.15160328685 0.15193811571 0.15244586062 0.15315557751 0.15418174745 0.1556833497 0.15787984502 0.1609874018 0.16523783573 
0.17081666744 0.17790493441 0.1866139335 0.19699107452 0.2090375546 0.22269948908 0.23787665484 0.25437873204 0.27200782549 
0.29049986189 0.30952960869 0.32866070296 0.34735155461 0.36487195019 0.38038463522 0.39288783464 0.40116680247 0.40398014621 
0.40046418186 0.39013730178 0.37330147301 0.35073871189 0.32378928915 0.29395329921 0.26265940392 0.23110336103 0.20028636429 
0.17103395754 0.14425503232 0.12112021143 0.10347807607 0.09398987979 0.094720124774 0.10522589977 0.1229602383 0.14504680252 
0.16930707387 0.19405837202 0.21781584763 0.23909160904 0.25647221408 0.26873146607 0.27504162714 0.27512532144 0.2694005233 
0.2587262098 0.24426057228 0.22720224522 0.20866259247 0.18954370771 0.17053515424 0.15212271887 0.13464180135 0.11830484371 
0.10322588585 0.089464223268 0.077015233245 0.065861748491 0.055939263897 0.047206021081 0.039680385597 0.033535746246 0.02919099497 
0.027306610824 0.028365099307 0.032135706457 0.037851504894 0.044711003573 0.052089869789 0.059515512504 0.066635332553 0.073185305739 
0.07900364086 0.08402267491 0.088274992482 0.091881932372 0.095037275466 0.097987638599 0.10099117366 0.10429653159 0.10810230279 
0.11254012392 0.11765614622 0.12339459868 0.12960933655 0.13605851358 0.14243122559 0.1483517861 0.15342898142 0.15728618814 
0.15961605649 0.16023452183 0.15910386448 0.15637677554 0.15235884657 0.14751533808 0.14238105394 0.13752679067 0.13346236659 
0.13057603904 0.12907268246 0.12892235957 0.12990070323 0.13161929695 0.13360549829 0.13535882708 0.13640639657 0.13634540561 
0.13485815855 0.13174929181 0.12692736769 0.1204387904 0.11241322397 0.10308124952 0.092709842231 0.081616267182 0.070106745325 
0.058479733521 0.046998315659 0.035887201056 0.025370972931 0.015795142455 0.0085809688826 0.0090799186195 0.015755320261 0.023419931744 
0.031064432898 0.038500217682 0.045647226562 0.052433191481 0.058754773698 0.064498228551 0.069532858479 0.073744675441 0.077041674007 
0.079388764341 0.08082111068 0.081472296725 0.081584162736 0.081508709866 0.081685033513 0.082579354418 0.084596572738 0.087984609873 
0.092755365086 0.098703346436 0.10545563794 0.11256586929 0.11957701863 0.1260893612 0.13179461352 0.13650771801 0.14018349088 
0.14291215233 0.1449149504 0.14651106924 0.14808672556 0.15003538415 0.15270934056 0.15636352289 0.16112326878 0.16697615733 
0.17377349439 0.18126637711 0.18913440517 0.19702490465 0.20459085441 0.21150810857 0.21751289712 0.22240057916 0.22605307103 
0.22841151312 0.22948021476 0.22930344015 0.2279560592 0.22553293466 0.22212875932 0.21786162499 0.21286452436 
