# vtk DataFile Version 5.1
vtk output
ASCII
DATASET POLYDATA
POINTS 248 double
86.562292128 81.545866906 34.41244742 86.85655066 81.571508081 34.36006523 87.150550449 81.587673159 34.302682063 
87.443788347 81.594729121 34.23981483 87.735788815 81.593238418 34.171085264 88.026094955 81.58371698 34.096101379 
88.314206122 81.566518328 34.014327132 88.599692242 81.542239786 33.925454466 88.882079265 81.511314024 33.829061591 
89.160847969 81.474118151 33.724685337 89.435556839 81.431145249 33.612090967 89.705692829 81.382740175 33.490959829 
89.970715658 81.329191596 33.361021361 90.230184231 81.270814491 33.222255367 90.483584544 81.207770108 33.074601059 
90.730403277 81.140134806 32.918097025 90.97026886 81.06796821 32.753040805 91.202737125 80.991159832 32.579701297 
91.427400055 80.909504757 32.398466004 91.644011107 80.822786364 32.209927902 91.852212619 80.730622926 32.014619068 
92.051732343 80.632610579 31.813193191 92.242398069 80.528371035 31.606389785 92.423852895 80.417379817 31.394866697 
92.59591738 80.299260511 31.179396394 92.758362783 80.173660411 30.960713511 92.910730843 80.040132387 30.739490422 
93.052855148 79.898572351 30.516453709 93.184301019 79.748800507 30.292234326 93.304590097 79.590764209 30.067428118 
93.413384595 79.424678395 29.842569746 93.510052551 79.250725335 29.618120342 93.594081134 79.069348062 29.394464723 
93.664959218 78.881139562 29.171902144 93.721881909 78.686710595 28.950685013 93.764308514 78.48694385 28.730978434 
93.791617183 78.282795017 28.512907143 93.80294627 78.075290514 28.29659639 93.797790963 77.86564579 28.0821283 
93.775627804 77.655133768 27.869603395 93.735817224 77.445119062 27.659171375 93.678111598 77.237037428 27.450983876 
93.602468712 77.032326772 27.245214613 93.508814731 76.832481062 27.042088545 93.397537814 76.63891202 26.841797732 
93.269336652 76.452891488 26.644490148 93.124724538 76.2757954 26.450339282 92.964950241 76.108576302 26.259341836 
92.79093002 75.952350174 26.071506733 92.603974227 75.807907977 25.886692453 92.405187858 75.676190092 25.70473694 
92.195937395 75.557826509 25.525353011 91.977275156 75.453869916 25.34828178 91.750580929 75.364905577 25.173157071 
91.516937443 75.292172337 24.999684506 91.277679872 75.236562924 24.82754182 91.034088718 75.199525583 24.656493684 
90.787653498 75.182406735 24.486379965 90.540042292 75.18711984 24.317201998 90.293244775 75.215314098 24.149149459 
90.049634604 75.269085129 23.982710608 89.812141465 75.350618471 23.818768044 89.584144075 75.461458458 23.658631166 
89.369526263 75.602758052 23.504124087 89.172509849 75.774774542 23.357567889 88.996983193 75.976120597 23.221479247 
88.846206881 76.204100709 23.098358648 88.722339039 76.454835649 22.990349365 88.626341725 76.723802699 22.899071537 
88.557564617 77.006146817 22.825223696 88.514438489 77.297487635 22.768862807 88.494806525 77.594134412 22.729540062 
88.496206961 77.893150764 22.706441568 88.516292013 78.192304929 22.698691657 88.552502117 78.489980922 22.70506792 
88.60255181 78.785096553 22.72439185 88.664599661 79.076891197 22.755756567 88.736538317 79.365052996 22.79782704 
88.816845705 79.649378717 22.849752247 88.903802117 79.930021626 22.910316023 88.996067568 80.207165469 22.978661646 
89.092212908 80.481249478 23.053687716 89.190972684 80.752771109 23.134429875 89.291123302 81.022325027 23.219920766 
89.391470511 81.290609858 23.309098633 89.490848132 81.55833772 23.400996747 89.588147211 81.826264572 23.494523933 
89.682228915 82.095139702 23.588616376 89.772037009 82.36566144 23.682157839 89.856480272 82.638485718 23.773984379 
89.934606923 82.91412857 23.862930209 90.005375016 83.193045736 23.947717128 90.068036385 83.475448371 24.027162339 
90.121733767 83.761471366 24.099925285 90.165899041 84.051004189 24.164763265 90.200134833 84.343760905 24.220469783 
90.224087705 84.63932482 24.265729414 90.237730612 84.937079979 24.299388288 90.241247656 85.236282446 24.320378954 
90.234963431 85.536087393 24.327642493 90.219294393 85.835537304 24.320024143 90.195038317 86.133601629 24.296790655 
90.163032633 86.42919305 24.257162452 90.12424966 86.72117703 24.200499499 90.079747036 87.008356873 24.126225978 
90.030731395 87.289579224 24.034146312 89.978449856 87.563751806 23.924319324 89.924153486 87.829870261 23.797041597 
89.86907076 88.087091042 23.652912875 89.814372606 88.334707684 23.492706366 89.76111564 88.57239977 23.317666053 
89.71019566 88.800101738 23.129159972 89.662339314 89.018004948 22.928640112 89.618150778 89.226428589 22.717475222 
89.577970506 89.426129726 22.497268956 89.542010909 89.617906166 22.269413542 89.510427624 89.802530779 22.035088762 
89.483110323 89.981062228 21.795560456 89.459975185 90.154367687 21.551787293 89.440801321 90.323358026 21.30466147 
89.425299777 90.488863756 21.054931261 89.41317312 90.651578225 20.803186814 89.404000514 90.812135344 20.549935666 
89.397427716 90.970957752 20.295511835 89.392964831 91.128392602 20.04018103 89.390178059 91.284581651 19.784062179 
89.388568389 91.439547601 19.527191224 89.387637199 91.593163378 19.26950719 89.38686638 91.745157278 19.01086287 
89.385724728 91.895187555 18.75107639 89.383658795 92.042777835 18.489902297 89.380108401 92.187426215 18.227104354 
89.374511667 92.328610206 17.962465462 89.366238329 92.465723167 17.695765488 89.354708295 92.598290375 17.426898764 
89.339307707 92.72586202 17.155819296 89.319316107 92.847971697 16.882534575 89.294139961 92.964434431 16.607222977 
89.263088759 93.075087615 16.330121505 89.225389645 93.179852357 16.051561149 89.180424959 93.278926231 15.77200004 
89.127415129 93.372504615 15.491956219 89.065621003 93.460941028 15.212043934 88.994408536 93.54472748 14.932941027 
88.912907714 93.624321219 14.655431918 88.820554698 93.700357703 14.380338643 88.716675491 93.773443662 14.108578359 
88.600542657 93.844197062 13.841200038 88.471782861 93.913283384 13.579227383 88.329874148 93.981308588 13.323855303 
88.174481218 94.048860556 13.076332988 88.005580453 94.116473388 12.837845903 87.823166665 94.184612122 12.609686149 
87.627415389 94.253675563 12.393158859 87.418929086 94.32396043 12.189287688 87.198379317 94.395684971 11.999066449 
86.966524462 94.469002177 11.823455328 86.724445739 94.543966894 11.662992099 86.47328077 94.620573239 11.518012997 
86.214150112 94.698778166 11.388747811 85.948193128 94.778503563 11.275231188 85.676607318 94.859628045 11.177065143 
85.400426756 94.942046043 11.093931032 85.120620414 95.025655326 11.025380882 84.838108488 95.110350294 10.970636156 
84.553645842 95.196075268 10.929191022 84.267937733 95.282782503 10.900219641 83.981576197 95.370465655 10.882972522 
83.695072844 95.459165944 10.876800523 83.408861993 95.548936852 10.880791442 83.123321112 95.639903934 10.894359265 
82.838750239 95.732191358 10.916627283 82.55540927 95.825975479 10.946909489 82.273512415 95.921455371 10.984499458 
81.993206659 96.018815638 11.028609876 81.714640305 96.118293102 11.078627475 81.437874203 96.220055814 11.133781551 
81.162949499 96.32427029 11.193392392 80.889892022 96.431103207 11.256830763 80.618637604 96.540606257 11.323377504 
80.349116785 96.652828773 11.39239463 80.081228365 96.767783764 11.463247373 79.814804078 96.885381679 11.535274968 
79.549674255 97.005540868 11.607851014 79.285642866 97.128148681 11.680336585 79.022483814 97.253034846 11.752101291 
78.759985361 97.380070817 11.822498628 78.497931367 97.509108484 11.890881008 78.23612599 97.640010123 11.956620339 
77.974407423 97.772716931 12.018997296 77.712654049 97.907149034 12.077403087 77.45080103 98.043325889 12.131128468 
77.188850786 98.1813102 12.179493638 76.926883597 98.321216814 12.221867199 76.6650701 98.463276161 12.257477423 
76.403671315 98.607718832 12.285782589 76.143064635 98.754917025 12.306032138 75.883727138 98.905251132 12.317664398 
75.626247506 99.059162999 12.32012144 75.37138001 99.217204322 12.312741151 75.119926804 99.379839813 12.295199397 
74.872844417 99.547607552 12.267091862 74.631239114 99.721064512 12.228062958 74.39617525 99.90059686 12.178122162 
74.168804883 100.08656931 12.11731974 73.950319686 100.27927155 12.045838513 73.741804331 100.47882373 11.964118709 
73.544148335 100.68516252 11.872833093 73.35810656 100.89811667 11.772751194 73.184250492 101.1174009 11.664733546 
73.022944202 101.34262669 11.549695739 72.874133794 101.5732393 11.428641955 72.737630933 101.80867041 11.302457403 
72.613184732 102.04835395 11.171879505 72.500157737 102.29161748 11.037586585 72.39785284 102.53780772 10.900060596 
72.305722418 102.78631642 10.759538623 72.222830122 103.03645418 10.616179088 72.148511707 103.28758715 10.469883572 
72.082013755 103.53905176 10.320425897 72.02261403 103.79018264 10.167456266 71.969756796 104.04028052 10.01044666 
71.922783419 104.28865767 9.8489008367 71.881305246 104.53454017 9.68212039 71.844847463 104.77719676 9.5095460251 
71.813114392 105.01584279 9.3305662166 71.785923794 105.2496476 9.144589384 71.76310048 105.47790006 8.9512763339 
71.74463366 105.69985877 8.7503213871 71.730615112 105.91482842 8.5415629573 71.721143333 106.12235134 8.3251558815 
71.716433796 106.32204152 8.101348923 71.716814064 106.51359052 7.8704873095 71.722581302 106.69698409 7.6331658832 
71.734082832 106.87233231 7.3900420794 71.751736159 107.03981734 7.141794752 71.775989551 107.19972825 6.8891484402 
71.807202557 107.35254228 6.6328991075 71.84583699 107.4986856 6.3737843574 71.892383612 107.6386139 6.1125480743 
71.947182533 107.77290269 5.8499562195 72.010762947 107.90199252 5.5867370409 72.083502945 108.02640735 5.3236397969 
72.165784393 108.14663212 5.061407023 72.258102907 108.26308387 4.8008196857 72.360651205 108.37625276 4.5426225617 
72.473970263 108.48648564 4.2876799199 72.598072901 108.59423203 4.0367282668 
VERTICES 249 248
OFFSETS vtktypeint64
0 1 2 3 4 5 6 7 8 
9 10 11 12 13 14 15 16 17 
18 19 20 21 22 23 24 25 26 
27 28 29 30 31 32 33 34 35 
36 37 38 39 40 41 42 43 44 
45 46 47 48 49 50 51 52 53 
54 55 56 57 58 59 60 61 62 
63 64 65 66 67 68 69 70 71 
72 73 74 75 76 77 78 79 80 
81 82 83 84 85 86 87 88 89 
90 91 92 93 94 95 96 97 98 
99 100 101 102 103 104 105 106 107 
108 109 110 111 112 113 114 115 116 
117 118 119 120 121 122 123 124 125 
126 127 128 129 130 131 132 133 134 
135 136 137 138 139 140 141 142 143 
144 145 146 147 148 149 150 151 152 
153 154 155 156 157 158 159 160 161 
162 163 164 165 166 167 168 169 170 
171 172 173 174 175 176 177 178 179 
180 181 182 183 184 185 186 187 188 
189 190 191 192 193 194 195 196 197 
198 199 200 201 202 203 204 205 206 
207 208 209 210 211 212 213 214 215 
216 217 218 219 220 221 222 223 224 
225 226 227 228 229 230 231 232 233 
234 235 236 237 238 239 240 241 242 
243 244 245 246 247 248 
CONNECTIVITY vtktypeint64
0 1 2 3 4 5 6 7 8 
9 10 11 12 13 14 15 16 17 
18 19 20 21 22 23 24 25 26 
27 28 29 30 31 32 33 34 35 
36 37 38 39 40 41 42 43 44 
45 46 47 48 49 50 51 52 53 
54 55 56 57 58 59 60 61 62 
63 64 65 66 67 68 69 70 71 
72 73 74 75 76 77 78 79 80 
81 82 83 84 85 86 87 88 89 
90 91 92 93 94 95 96 97 98 
99 100 101 102 103 104 105 106 107 
108 109 110 111 112 113 114 115 116 
117 118 119 120 121 122 123 124 125 
126 127 128 129 130 131 132 133 134 
135 136 137 138 139 140 141 142 143 
144 145 146 147 148 149 150 151 152 
153 154 155 156 157 158 159 160 161 
162 163 164 165 166 167 168 169 170 
171 172 173 174 175 176 177 178 179 
180 181 182 183 184 185 186 187 188 
189 190 191 192 193 194 195 196 197 
198 199 200 201 202 203 204 205 206 
207 208 209 210 211 212 213 214 215 
216 217 218 219 220 221 222 223 224 
225 226 227 228 229 230 231 232 233 
234 235 236 237 238 239 240 241 242 
243 244 245 246 247 
LINES 2 248
OFFSETS vtktypeint64
0 248 
CONNECTIVITY vtktypeint64
0 1 2 3 4 5 6 7 8 
9 10 11 12 13 14 15 16 17 
18 19 20 21 22 23 24 25 26 
27 28 29 30 31 32 33 34 35 
36 37 38 39 40 41 42 43 44 
45 46 47 48 49 50 51 52 53 
54 55 56 57 58 59 60 61 62 
63 64 65 66 67 68 69 70 71 
72 73 74 75 76 77 78 79 80 
81 82 83 84 85 86 87 88 89 
90 91 92 93 94 95 96 97 98 
99 100 101 102 103 104 105 106 107 
108 109 110 111 112 113 114 115 116 
117 118 119 120 121 122 123 124 125 
126 127 128 129 130 131 132 133 134 
135 136 137 138 139 140 141 142 143 
144 145 146 147 148 149 150 151 152 
153 154 155 156 157 158 159 160 161 
162 163 164 165 166 167 168 169 170 
171 172 173 174 175 176 177 178 179 
180 181 182 183 184 185 186 187 188 
189 190 191 192 193 194 195 196 197 
198 199 200 201 202 203 204 205 206 
207 208 209 210 211 212 213 214 215 
216 217 218 219 220 221 222 223 224 
225 226 227 228 229 230 231 232 233 
234 235 236 237 238 239 240 241 242 
243 244 245 246 247 
POINT_DATA 248
SCALARS Curvature double
LOOKUP_TABLE default
0.12262794067 0.11987337083 0.11770790935 0.11619692222 0.11537635863 0.11526159198 0.11585307497 0.11709000663 0.11888334779 
0.12110061588 0.12356182522 0.12606667508 0.12841760081 0.13045849263 0.13206900316 0.13317734354 0.13379860671 0.13404028734 
0.13407799677 0.13413513214 0.13443607795 0.1351778056 0.13648217844 0.13839729804 0.14086801546 0.14378126417 0.14699840667 
0.15035608497 0.15371001859 0.1569576736 0.16007496264 0.16310015745 0.16614147193 0.16934380197 0.17286799022 0.17684216075 
0.18131240689 0.18623420288 0.19144717477 0.19670144626 0.20164917171 0.20588793734 0.20904911942 0.21082565691 0.21105720331 
0.20976978453 0.20712961775 0.20354615311 0.19951900675 0.19565910798 0.19263717083 0.1911533265 0.19194394245 0.19557240983 
0.20257763389 0.21329404417 0.22796676151 0.24661473522 0.2691208408 0.29500382792 0.32345599446 0.35303975186 0.3815831015 
0.40616800543 0.42367763557 0.43162864189 0.42865522438 0.41502770631 0.39284521554 0.36513115546 0.33476789758 0.30392869807 
0.27401611206 0.24576847456 0.21942201077 0.19492798689 0.17212590923 0.15076779806 0.13063727559 0.111461329 0.093083485273 
0.075506537886 0.059039334668 0.044646043774 0.034768708634 0.03371040313 0.041920117587 0.055294159455 0.070635981566 0.086497846432 
0.10217864161 0.11723926301 0.13134006829 0.14419967259 0.15567625076 0.16573774897 0.17444034882 0.18194098097 0.18846126967 
0.19422874369 0.19942490133 0.20413811211 0.20834700703 0.2119367281 0.21461745679 0.21594085964 0.2154256177 0.21270542562 
0.20750696 0.19975626213 0.18957177166 0.17731672743 0.16344395725 0.14850056335 0.13304814546 0.11758956569 0.10258934047 
0.088402473035 0.075317723837 0.063533480631 0.053172207874 0.044282962023 0.036753621924 0.030507171815 0.025465445398 0.021931523297 
0.02060614701 0.022238840541 0.026767839489 0.033351567487 0.041203162459 0.049709783595 0.058409777186 0.066916393835 0.074924899667 
0.082234965588 0.08872113398 0.094412681965 0.099422525164 0.10397009457 0.10834933166 0.11289600459 0.11792832043 0.12367776759 
0.1302933303 0.13778902764 0.14606994771 0.15493794188 0.1640983823 0.1731926236 0.18182746504 0.18959063922 0.19609340975 
0.20096721375 0.20400660139 0.20509657125 0.20420376238 0.20141596309 0.19691260255 0.19093231787 0.18376134586 0.17573125123 
0.16712725777 0.15820651602 0.1491779192 0.14019833058 0.13138279869 0.12280694428 0.11453050822 0.10657784936 0.098972822215 
0.091720263729 0.084827193351 0.078292531363 0.072099902909 0.066234760027 0.060656581507 0.055325458994 0.050206013676 0.045281970914 
0.040603781885 0.036313134122 0.03267620675 0.030101207115 0.029077858844 0.029928602219 0.032669476346 0.036982589808 0.042448875 
0.048726595497 0.055559116181 0.062791364174 0.070342857918 0.078173610873 0.086289142028 0.094702192864 0.10343372454 0.11246551985 
0.12173712532 0.13114326775 0.14050011455 0.14955794914 0.1579933312 0.16544343262 0.17154177672 0.17591296069 0.17829153905 
0.17850510455 0.17656058716 0.17256061745 0.16668103384 0.15916717011 0.15036343605 0.1406581602 0.13046128698 0.1201884047 
0.11029635325 0.10129311829 0.093776614894 0.088361151175 0.085573602747 0.085695905219 0.08855115511 0.093668661068 0.10026953616 
0.10754181306 0.1146950226 0.12108459165 0.12621596029 0.12975089767 0.13157694757 0.13173455386 0.13044058233 0.12804803154 
0.12499119884 0.12170671194 0.11859637117 0.11600506215 0.11420974531 0.11340080419 0.11364068346 0.11493226951 0.1171961873 
0.12031501591 0.12415365633 0.12854583227 0.13333532209 0.13834404562 
