# vtk DataFile Version 5.1
vtk output
ASCII
DATASET POLYDATA
POINTS 224 double
79.097399543 76.09558427 32.828979556 79.21916253 76.121895077 32.556111835 79.352054462 76.136680704 32.287597881 
79.494438988 76.139968983 32.023596043 79.6446197 76.131942484 31.764049418 79.800964771 76.112808679 31.508754878 
79.961898345 76.082809645 31.257383476 80.125913571 76.042202984 31.009514661 80.291576962 75.991250077 30.764668424 
80.457527291 75.930210843 30.522333918 80.622463997 75.859309431 30.281999482 80.785155771 75.778833636 30.043155096 
80.944437364 75.68905874 29.805329425 81.09920265 75.59026377 29.568099669 81.24840681 75.48274516 29.331101767 
81.391070458 75.366820148 29.094040411 81.526286565 75.242828071 28.856697236 81.653230134 75.111129686 28.618937027 
81.771117527 74.972066706 28.380709077 81.879365523 74.826071205 28.142056114 81.977473266 74.673547851 27.903103365 
82.065066865 74.514900401 27.664052996 82.141908923 74.350527688 27.425172422 82.207900437 74.180817602 27.186779103 
82.263033743 74.006123957 26.949227371 82.307496819 73.826814049 26.712880959 82.341580032 73.643227322 26.478097504 
82.365643592 73.4556691 26.245218668 82.380116307 73.264416538 26.014559738 82.385474354 73.069714874 25.786406219 
82.382221204 72.871772483 25.561016259 82.370870047 72.67075544 25.338627895 82.351919112 72.466777185 25.11947566 
82.325860183 72.259900435 24.903797011 82.293176714 72.050136749 24.691840679 82.25430751 71.837433459 24.483895809 
82.20965773 71.621682778 24.280296749 82.159595321 71.402730277 24.081430103 82.104447589 71.180389288 23.887736153 
82.044497549 70.954461233 23.699703335 81.979979745 70.72476156 23.517854265 81.911052992 70.491127668 23.342761865 
81.837858353 70.253507663 23.174918224 81.760465679 70.01194493 23.01476398 81.678877197 69.766601621 22.862641136 
81.593033651 69.517773779 22.718740601 81.502782848 69.265870979 22.583123976 81.407982807 69.011469455 22.455510766 
81.308417697 68.755219155 22.335445989 81.203834135 68.497839883 22.222255421 81.093954931 68.240097422 22.115062721 
80.97848477 67.982784415 22.0128262 80.857125205 67.726710481 21.914368309 80.729617484 67.472685115 21.818406188 
80.595704789 67.221531975 21.723617745 80.455161156 66.974097435 21.628653978 80.307801764 66.731265071 21.532161319 
80.153494235 66.49397298 21.432797865 79.992171648 66.263232642 21.329245076 79.823848247 66.040148105 21.220217025 
79.648638493 65.825934515 21.104469614 79.466780117 65.621934453 20.980812637 79.278661375 65.429630336 20.848127118 
79.084851823 65.250650133 20.705390926 78.886135362 65.086762643 20.551714502 78.683541978 64.939857943 20.386388306 
78.47837351 64.811907214 20.208941538 78.272221231 64.705063624 20.01912097 78.066976215 64.621182083 19.817190921 
77.864740645 64.561928702 19.603833572 77.6678182 64.528893145 19.380098877 77.478515595 64.522967525 19.147608242 
77.298969164 64.544380063 18.908385133 77.131252092 64.593229803 18.664646147 76.976793441 64.668404013 18.418850523 
76.836704276 64.768621185 18.173366614 76.711811072 64.89246272 17.93046498 76.602292219 65.037896926 17.692151454 
76.508134066 65.203013526 17.460173025 76.42911623 65.385933214 17.236018993 76.364880388 65.584848568 17.020937936 
76.315001599 65.798057407 16.81597031 76.279044199 66.02397348 16.621985907 76.256602073 66.26112072 16.439719586 
76.247323783 66.508117924 16.269803021 76.250924693 66.763657425 16.112789182 76.267185257 67.02648196 15.969169092 
76.29593789 67.29536257 15.839379208 76.33706451 67.569088357 15.723827627 76.390406989 67.846435214 15.622821016 
76.455748689 68.126185466 15.536572024 76.532775143 68.407147148 15.465183994 76.621019543 68.688185308 15.408612017 
76.719825202 68.968270557 15.366636618 76.828324099 69.24653579 15.338847486 76.945464882 69.522320308 15.324695196 
77.069945643 69.795239968 15.323376388 77.200298142 70.065207223 15.333929066 77.334956376 70.332411093 15.355331373 
77.472268084 70.597298923 15.386505007 77.610524409 70.860531954 15.426352197 77.747974666 71.122928923 15.473795813 
77.882837631 71.385408663 15.527761638 78.013335737 71.648913713 15.587180463 78.137688857 71.914347232 15.65101694 
78.254137209 72.182513965 15.718232328 78.360974281 72.454064568 15.787766221 78.456592803 72.729449902 15.858520108 
78.539541599 73.008890162 15.92934595 78.608538532 73.292375548 15.999035526 78.662638541 73.579642699 16.066334387 
78.701211121 73.87022795 16.12996015 78.723916566 74.163518419 16.188605437 78.73071013 74.458792503 16.240950417 
78.721799642 74.755260325 16.285666587 78.697590363 75.052089278 16.321412931 78.6586276 75.348410834 16.34682441 
78.605545115 75.643307659 16.360497022 78.539026846 75.935782982 16.360973594 78.459787061 76.224716024 16.346737175 
78.368569763 76.508808625 16.316219168 78.266167271 76.78653027 16.267830159 78.153389761 77.056000705 16.199877687 
78.031305686 77.315123095 16.111040181 77.901109846 77.561488688 16.000197188 77.764191315 77.792416071 15.866580795 
77.622181488 78.005091416 15.709980931 77.476972457 78.197160387 15.531257245 77.330511445 78.366227302 15.331549055 
77.184773456 78.511072134 15.113146234 77.041590782 78.63087625 14.878473678 76.902563252 78.725737108 14.630270105 
76.768965176 78.796572479 14.371282693 76.641824224 78.844598536 14.103926366 76.521921807 78.871391231 13.830313919 
76.409764622 78.878895358 13.552234638 76.305746195 78.868993448 13.271074035 76.210150645 78.843571417 12.987896747 
76.123187395 78.804473919 12.703489953 76.045015259 78.753483952 12.418408958 75.975756325 78.692319035 12.133019636 
75.915501331 78.622637044 11.847535453 75.864308509 78.546047943 11.562048415 75.82219734 78.464127203 11.276554737 
75.789139258 78.37842898 10.99097614 75.765046311 78.290496919 10.70517826 75.749759502 78.201871511 10.418987351 
75.743037563 78.114092951 10.132206533 75.744546913 78.028698642 9.8446324776 75.753853363 77.947214469 9.5560730021 
75.770415881 77.871138497 9.2663656275 75.79358308 77.801916245 8.9753962522 75.8226175 77.740953533 8.6831099805 
75.856630528 77.689482348 8.389540244 75.894629227 77.64851964 8.0948093548 75.935554191 77.618874289 7.7991169034 
75.978283824 77.601139402 7.5027265775 76.021634212 77.595505878 7.2059500099 76.064418272 77.601809214 6.9091044091 
76.105466566 77.619621769 6.6124797222 76.143639823 77.648246617 6.3163155997 76.177838217 77.686777128 6.0207873974 
76.206997006 77.734165877 5.7260062548 76.230116582 77.789243303 5.4320264107 76.246205367 77.850852509 5.138875055 
76.254274294 77.917863431 4.8465799693 76.253315816 77.989209967 4.555203769 76.242267401 78.063920197 4.2648825321 
76.220036823 78.141123903 3.9758608369 76.185466057 78.220081974 3.6885350798 76.137325395 78.300198273 3.4034974832 
76.074330334 78.381032003 3.1215813121 75.995104061 78.462312405 2.8439281629 75.898381786 78.543950829 2.5719941962 
75.783014911 78.626054915 2.3075885484 75.648098314 78.708930544 2.0528646935 75.492938356 78.793086301 1.8103945326 
75.317671755 78.879178115 1.5827716614 75.123008422 78.96798078 1.3726332496 74.910489138 79.060298532 1.1822380551 
74.682343396 79.15689867 1.0132520757 74.441379123 79.258404928 0.86636210235 74.190518963 79.365324337 0.74150950978 
73.932692574 79.477939854 0.63757712372 73.670466139 79.596389785 0.55287457329 73.405951729 79.720732372 0.48544989405 
73.140823677 79.850823464 0.43287774243 72.876286455 79.986492255 0.3928832822 72.613170783 80.127499026 0.36327058056 
72.351999489 80.273546303 0.34199742491 72.093050887 80.42428515 0.3272166468 71.836413803 80.579319423 0.31729565633 
71.582031742 80.738208202 0.31082332219 71.329737687 80.900468836 0.3066100631 71.079280957 81.065580855 0.30368563223 
70.830348898 81.232992306 0.30129470419 70.582585058 81.402128458 0.29889169751 70.335605733 81.572403198 0.29613220048 
70.08901578 81.743232539 0.29286153448 69.842424221 81.914049435 0.28909786728 69.595457877 82.084316397 0.28501074304 
69.347778291 82.253543165 0.28089717286 69.099097174 82.421302696 0.27714758683 68.84918542 82.587239122 0.27421243096 
68.597881841 82.751077389 0.27256893698 68.345097684 82.912629628 0.27268919994 68.090817203 83.071798977 0.27501272541 
67.83508719 83.228568271 0.27994053688 67.578032845 83.383035893 0.28777951618 67.319828964 83.535379745 0.29876650616 
67.060694023 83.685856598 0.31306559719 66.800882507 83.834797134 0.33077077187 66.54067679 83.982597087 0.35191500264 
66.280381253 84.129707044 0.37648976324 66.0203189 84.276627126 0.40443815489 65.760824742 84.423890417 0.43566813094 
65.502246749 84.572053524 0.4700776659 65.244946376 84.721689205 0.50755300049 64.989299875 84.873378128 0.54797324489 
64.735700173 85.027701237 0.59121313592 64.484559131 85.185232963 0.63714393583 64.236309728 85.346534749 0.68563312118 
63.991408045 85.512148904 0.73654312082 63.750334514 85.682592164 0.78972960094 
VERTICES 225 224
OFFSETS vtktypeint64
0 1 2 3 4 5 6 7 8 
9 10 11 12 13 14 15 16 17 
18 19 20 21 22 23 24 25 26 
27 28 29 30 31 32 33 34 35 
36 37 38 39 40 41 42 43 44 
45 46 47 48 49 50 51 52 53 
54 55 56 57 58 59 60 61 62 
63 64 65 66 67 68 69 70 71 
72 73 74 75 76 77 78 79 80 
81 82 83 84 85 86 87 88 89 
90 91 92 93 94 95 96 97 98 
99 100 101 102 103 104 105 106 107 
108 109 110 111 112 113 114 115 116 
117 118 119 120 121 122 123 124 125 
126 127 128 129 130 131 132 133 134 
135 136 137 138 139 140 141 142 143 
144 145 146 147 148 149 150 151 152 
153 154 155 156 157 158 159 160 161 
162 163 164 165 166 167 168 169 170 
171 172 173 174 175 176 177 178 179 
180 181 182 183 184 185 186 187 188 
189 190 191 192 193 194 195 196 197 
198 199 200 201 202 203 204 205 206 
207 208 209 210 211 212 213 214 215 
216 217 218 219 220 221 222 223 224 

CONNECTIVITY vtktypeint64
0 1 2 3 4 5 6 7 8 
9 10 11 12 13 14 15 16 17 
18 19 20 21 22 23 24 25 26 
27 28 29 30 31 32 33 34 35 
36 37 38 39 40 41 42 43 44 
45 46 47 48 49 50 51 52 53 
54 55 56 57 58 59 60 61 62 
63 64 65 66 67 68 69 70 71 
72 73 74 75 76 77 78 79 80 
81 82 83 84 85 86 87 88 89 
90 91 92 93 94 95 96 97 98 
99 100 101 102 103 104 105 106 107 
108 109 110 111 112 113 114 115 116 
117 118 119 120 121 122 123 124 125 
126 127 128 129 130 131 132 133 134 
135 136 137 138 139 140 141 142 143 
144 145 146 147 148 149 150 151 152 
153 154 155 156 157 158 159 160 161 
162 163 164 165 166 167 168 169 170 
171 172 173 174 175 176 177 178 179 
180 181 182 183 184 185 186 187 188 
189 190 191 192 193 194 195 196 197 
198 199 200 201 202 203 204 205 206 
207 208 209 210 211 212 213 214 215 
216 217 218 219 220 221 222 223 
LINES 2 224
OFFSETS vtktypeint64
0 224 
CONNECTIVITY vtktypeint64
0 1 2 3 4 5 6 7 8 
9 10 11 12 13 14 15 16 17 
18 19 20 21 22 23 24 25 26 
27 28 29 30 31 32 33 34 35 
36 37 38 39 40 41 42 43 44 
45 46 47 48 49 50 51 52 53 
54 55 56 57 58 59 60 61 62 
63 64 65 66 67 68 69 70 71 
72 73 74 75 76 77 78 79 80 
81 82 83 84 85 86 87 88 89 
90 91 92 93 94 95 96 97 98 
99 100 101 102 103 104 105 106 107 
108 109 110 111 112 113 114 115 116 
117 118 119 120 121 122 123 124 125 
126 127 128 129 130 131 132 133 134 
135 136 137 138 139 140 141 142 143 
144 145 146 147 148 149 150 151 152 
153 154 155 156 157 158 159 160 161 
162 163 164 165 166 167 168 169 170 
171 172 173 174 175 176 177 178 179 
180 181 182 183 184 185 186 187 188 
189 190 191 192 193 194 195 196 197 
198 199 200 201 202 203 204 205 206 
207 208 209 210 211 212 213 214 215 
216 217 218 219 220 221 222 223 
POINT_DATA 224
SCALARS Curvature double
LOOKUP_TABLE default
0.19667296926 0.18512243553 0.17295950068 0.16075013285 0.14902489875 0.13826699718 0.12890065126 0.12127368525 0.11562488945 
0.1120520387 0.11049233075 0.11072056973 0.11239800096 0.11514232787 0.11855969801 0.12228608166 0.12598978146 0.12938367794 
0.13221607289 0.13428821978 0.13544786416 0.13560067045 0.13470848748 0.13279601671 0.12993540854 0.12625724273 0.12192182132 
0.11711725849 0.11204439085 0.10691909984 0.10195894276 0.097386910089 0.093426546814 0.0903000198 0.08821161959 0.087328838458 
0.087746050153 0.089445082864 0.092271427279 0.095926653757 0.099992723982 0.1039629117 0.10731168626 0.10954780178 0.11028997947 
0.10929922769 0.10652352203 0.10215101558 0.096624431356 0.09061171445 0.085009770204 0.080854377782 0.079173229205 0.080675427837 
0.08555249048 0.09349792772 0.10396168079 0.11639841685 0.13038234019 0.14562290777 0.1619251828 0.17915130051 0.19717157794 
0.2158250749 0.23488105934 0.25399124799 0.27266376285 0.29023366425 0.30592306348 0.318873236 0.32823737492 0.33340216099 
0.33413127681 0.330541767 0.32324728789 0.31312458052 0.30115667392 0.28834310629 0.27551458045 0.26334608763 0.25231843485 
0.24274138248 0.23477036898 0.22844692578 0.2237026168 0.2203582055 0.21813773095 0.21664888045 0.21541039345 0.21385054091 
0.21136162321 0.20732398683 0.20118817973 0.1925574043 0.18124983847 0.167363999 0.15129731356 0.13377399219 0.1158349813 
0.098993905241 0.085413942527 0.07787182083 0.078503583939 0.086869793256 0.10040628011 0.11637646341 0.13276934081 0.14821916982 
0.16183067449 0.17305421833 0.18169511687 0.18788003038 0.19206431327 0.1949512495 0.19740225964 0.20034040005 0.20465696313 
0.21109972932 0.22016370289 0.23204627978 0.24661386009 0.2633898396 0.28156490177 0.29994677934 0.31708661574 0.33130773083 
0.34100338869 0.34495432033 0.34250961978 0.33391181937 0.3200478677 0.3022632364 0.28205195797 0.2607339444 0.23938386689 
0.21875555369 0.19934152224 0.18142412269 0.16515336278 0.15058883858 0.13775360062 0.12664741151 0.11727768688 0.10967301313 
0.10388819723 0.10000241135 0.09808771215 0.09816316802 0.10014574885 0.10381221175 0.10879913904 0.11460930436 0.12065911383 
0.12630886664 0.13094626804 0.13404663244 0.13522521671 0.13433680633 0.13149141357 0.12709336107 0.12176509096 0.1163404349 
0.11176733061 0.10903399365 0.10896712499 0.11209036812 0.11853539833 0.12810082966 0.14040782299 0.15502221047 0.17155325721 
0.18961475005 0.20879802318 0.22855177743 0.24812351088 0.26647902573 0.28224318966 0.29383820408 0.29974736146 0.2988933423 
0.29094670464 0.27644383369 0.25669326832 0.2333858396 0.20826812926 0.18278062313 0.1580475606 0.13479710086 0.11349075271 
0.094369875045 0.077541684776 0.063009668224 0.050699412893 0.040468082526 0.032112059485 0.025408538778 0.020212070237 0.016619096388 
0.015077494731 0.015966324077 0.018927302525 0.023108176516 0.027770128968 0.032379284098 0.036542557428 0.039969927043 0.042465288795 
0.043925455925 0.044355514859 0.04386228352 0.042647550404 0.041008484846 0.039328489679 0.038055841311 0.037647509274 0.038453595256 
0.040629734885 0.044107726597 0.048675536298 0.054076967675 0.060076987778 0.066488028405 0.07316266029 0.079984891375 
