# vtk DataFile Version 5.1
vtk output
ASCII
DATASET POLYDATA
POINTS 266 double
112.30460794 83.920434536 37.820694444 112.18816112 84.01154288 37.559768427 112.05142579 84.088276919 37.304115331 
111.89644497 84.150034157 37.054881726 111.72518659 84.196212935 36.813026393 111.54031633 84.227084198 36.578870237 
111.3440552 84.242753771 36.352592295 111.13848269 84.24336737 36.134166756 110.92570939 84.229476836 35.923199198 
110.70751609 84.201425199 35.719283264 110.48550735 84.159417966 35.521983074 110.26121167 84.103798473 35.330727437 
110.03602552 84.03484372 35.144937819 109.8112567 83.952711837 34.964063512 109.58817066 83.857506901 34.78756476 
109.36803282 83.749241723 34.614933204 109.15213679 83.627893591 34.445681435 108.94176373 83.493544669 34.27932622 
108.73826739 83.346195374 34.115447873 108.5430663 83.185873251 33.953673679 108.35772648 83.012574185 33.793697182 
108.18386361 82.826446979 33.635265002 108.02303246 82.627880547 33.478187166 107.87699466 82.417256221 33.322377402 
107.74760255 82.195128938 33.167846677 107.63625547 81.962534889 33.014674589 107.54485137 81.72041355 32.863085498 
107.47432659 81.470307901 32.713326354 107.426054 81.213698183 32.56576738 107.40033415 80.952439425 32.420732864 
107.39783582 80.688333884 32.278624423 107.41797826 80.423293762 32.139689419 107.46070424 80.159134002 32.004222426 
107.52467249 79.897495263 31.872262963 107.60919659 79.639938928 31.743873567 107.71260799 79.387667444 31.61884766 
107.83373871 79.141822487 31.496956148 107.97104789 78.903246948 31.377789198 108.12299698 78.672577707 31.260827094 
108.2883978 78.450500057 31.145484415 108.46565505 78.237286681 31.031024693 108.65345694 78.033236434 30.916667269 
108.85063164 77.838668681 30.801553729 109.05592117 77.653718376 30.6847812 109.26813133 77.478474123 30.565437258 
109.48615724 77.313056196 30.442599224 109.70895179 77.157642181 30.315331628 109.93545555 77.012341699 30.182775664 
110.16463604 76.877221978 30.0441931 110.39552101 76.752423822 29.898924134 110.62717436 76.638104939 29.746433697 
110.85870084 76.53448601 29.586296795 111.08925406 76.441783882 29.418262179 111.31806843 76.360166432 29.242293146 
111.54444894 76.289902016 29.058455686 111.7677712 76.231310462 28.866948602 111.98747006 76.184777298 28.668083032 
112.20302197 76.150770264 28.462264395 112.41390429 76.129910487 28.249959546 112.6195946 76.122920842 28.031739204 
112.81956634 76.130582967 27.808296949 113.01319347 76.153894265 27.580403583 113.1997269 76.194012806 27.34896589 
113.37811335 76.252534599 27.115052562 113.54723815 76.330789222 26.88004965 113.70557295 76.430446919 26.645652733 
113.85122049 76.553179003 26.414012783 113.98191882 76.700410715 26.187832226 114.0952461 76.872852326 25.970298122 
114.18857532 77.070503095 25.765084957 114.25952331 77.292108603 25.576038936 114.30633294 77.535053177 25.406729802 
114.3281932 77.795558357 25.259953964 114.32527633 78.069200599 25.137463024 114.29880283 78.351409052 25.039696963 
114.25066652 78.638056112 24.966026458 114.18307001 78.925747068 24.915113712 114.09797798 79.21180498 24.885605428 
113.99770842 79.494281494 24.875457822 113.88391479 79.771677107 24.883276193 113.75847079 80.043068861 24.907236733 
113.62281615 80.307767994 24.946008569 113.4781759 80.565246516 24.99853908 113.32586292 80.815333698 25.063611102 
113.16696653 81.057910963 25.140343317 113.00251293 81.29297968 25.227978659 112.83348988 81.520650932 25.325865714 
112.66086569 81.74114206 25.433438857 112.48559381 81.954743193 25.550244757 112.3086554 82.161906361 25.675809686 
112.13102957 82.363197498 25.809683392 111.9536913 82.559270649 25.9514535 111.77761567 82.750884424 26.100701659 
111.6037775 82.938890697 26.25699792 111.43317803 83.124218748 26.419922368 111.26672149 83.30792071 26.588862509 
111.10529843 83.491051477 26.763220451 110.94979717 83.674692571 26.942357469 110.80104374 83.859930869 27.125532736 
110.65970623 84.047779561 27.311891384 110.5264799 84.239210403 27.500563387 110.4020331 84.435139657 27.69060418 
110.28676466 84.636269737 27.880995991 110.18114683 84.843256947 28.07070466 110.08564967 85.056679908 28.258634353 
110.00045197 85.276842721 28.443713713 109.92583579 85.504024833 28.624834502 109.86217879 85.738480048 28.800791681 
109.80951763 85.980143598 28.970512972 109.76803031 86.228952677 29.132845486 109.73803097 86.484827477 29.28648601 
109.7195601 86.747413842 29.430296111 109.71271963 87.016292964 29.563072418 109.71773329 87.290987436 29.68343983 
109.73468029 87.57081133 29.790109918 109.76350297 87.854896177 29.881921995 109.80426792 88.142275451 29.957512171 
109.85686909 88.431771968 30.015685127 109.92096345 88.722043146 30.055579865 109.99633163 89.01161791 30.076112644 
110.08245553 89.298907383 30.076690415 110.17866996 89.582297454 30.057045601 110.28441635 89.860047665 30.016729092 
110.39881437 90.130574048 29.956068097 110.52100949 90.392356813 29.875499154 110.65024107 90.643799363 29.775347486 
110.78560115 90.883614315 29.656520375 110.92625665 91.11058903 29.519944402 111.07145751 91.32348616 29.366488657 
111.22049519 91.521072268 29.197064729 111.37264549 91.702422538 29.012898036 111.52726846 91.866475857 28.815074095 
111.68375642 92.012009173 28.604627055 111.84148075 92.137943244 28.382777002 111.99979848 92.243328405 28.150869658 
112.15804037 92.326998165 27.910224071 112.31546255 92.387726055 27.662274007 112.47127274 92.424925002 27.408728067 
112.62456114 92.437624626 27.15126708 112.77436479 92.425471763 26.891739911 112.9196829 92.388523888 26.632006628 
113.05938648 92.326791991 26.373903963 113.19253455 92.241478636 26.119069727 113.31797963 92.133324193 25.86903665 
113.43492357 92.004265719 25.624862382 113.54247881 91.855989523 25.387366446 113.63988802 91.690465778 25.156984029 
113.72663799 91.509946189 24.933703068 113.80209856 91.316391955 24.717335809 113.8657922 91.111864901 24.507366188 
113.91739755 90.89842471 24.303018317 113.95654307 90.677960944 24.103407255 113.98278141 90.452276327 23.907546963 
113.99589218 90.223215464 23.71430432 113.9957052 89.992562627 23.522516315 113.98207545 89.762076282 23.331011588 
113.95486021 89.53355372 23.138605173 113.91417489 89.308815573 22.944133635 113.86040094 89.089644108 22.746517725 
113.79403125 88.877837038 22.544745202 113.7156445 88.675316401 22.337819295 113.62643769 88.483652174 22.125024802 
113.52761887 88.30449116 21.905685395 113.42060014 88.139484805 21.679208823 113.30721446 87.989725181 21.445359318 
113.18927893 87.856548768 21.203856472 113.06885445 87.74075816 20.95474407 112.94803743 87.643025126 20.698195758 
112.8289793 87.564031846 20.434473644 112.71374893 87.503774007 20.16418775 112.60451751 87.462753102 19.887876514 
112.50310823 87.440492505 19.606485791 112.41143364 87.436963431 19.320929443 112.33103182 87.451559963 19.032345429 
112.26327875 87.483639436 18.74193383 112.20941335 87.532525949 18.450957331 112.17010964 87.597060499 18.160697916 
112.14624245 87.676462845 17.872450037 112.13794409 87.769393362 17.587394985 112.14530873 87.874672514 17.306633725 
112.16846786 87.991257868 17.03124605 112.20690784 88.117769683 16.762016906 112.2602566 88.253056771 16.499677591 
112.32820611 88.396078687 16.244921424 112.4101424 88.545709193 15.998201099 112.5054854 88.700926883 15.759890081 
112.61371349 88.860804325 15.530318112 112.73439373 89.024496358 15.309817416 112.86704335 89.191189693 15.098637107 
113.0111411 89.360120451 14.896949609 113.16627018 89.530601467 14.704981834 113.33203736 89.7019953 14.522972199 
113.50817925 89.873709171 14.351301863 113.69416063 90.04519163 14.190100183 113.889559 90.215952071 14.039627664 
114.09396345 90.385544222 13.90020103 114.30690391 90.553572962 13.772118479 114.52772378 90.719737212 13.655454743 
114.75584256 90.883781623 13.550408409 114.99063131 91.045519248 13.457138617 115.23128275 91.204896725 13.375465771 
115.47710547 91.361886937 13.305385343 115.72732781 91.516566083 13.246647364 115.98117271 91.669090255 13.198816853 
116.23798221 91.819612644 13.161643314 116.49705098 91.968388098 13.134437224 116.75779426 92.115655121 13.116608395 
117.01970766 92.261646322 13.107569532 117.28234295 92.406615954 13.106445926 117.5453619 92.550769311 13.112510653 
117.80850343 92.694289851 13.124970547 118.07158637 92.837336454 13.142933487 118.33450085 92.980023989 13.165618624 
118.59719793 93.122435908 13.192226832 118.85968217 93.264625317 13.221950616 119.12199117 93.406614302 13.254086824 
119.38418695 93.548404295 13.287980601 119.64634514 93.689984641 13.323023653 119.90854263 93.831330884 13.35871247 
120.17085454 93.972408763 13.394621833 120.43334393 94.113185295 13.430416685 120.69606445 94.253618894 13.465861014 
120.95906339 94.393657455 13.500799683 121.2223727 94.53325171 13.535173915 121.4860252 94.672334362 13.568986821 
121.75005724 94.81081693 13.602297434 122.01449835 94.948608593 13.635225817 122.27939194 95.085584647 13.667919227 
122.54479162 95.221591727 13.700552963 122.81074727 95.3564776 13.733313131 123.07732564 95.49005151 13.766385106 
123.34459487 95.622114176 13.799945632 123.61261165 95.7524873 13.834143183 123.88144313 95.880964518 13.869111396 
124.15114088 96.007371351 13.904942708 124.42173785 96.131576892 13.941680368 124.69327004 96.253443675 13.979338276 
124.96575013 96.372896938 14.017871993 125.23917102 96.489922624 14.05718287 125.51352677 96.604518679 14.097133656 
125.78880101 96.716731052 14.137530748 126.06495438 96.826692169 14.178118461 126.34195162 96.934554521 14.218588514 
126.61976222 97.040494707 14.258558226 126.89833591 97.14477012 14.297583188 127.17762452 97.247658704 14.335151178 
127.45757717 97.34946346 14.370671907 127.73814115 97.450510367 14.403420707 128.01923031 97.551174634 14.432646436 
128.30074022 97.651842987 14.457463595 128.58252579 97.752930256 14.476831534 128.86437562 97.854880441 14.489564309 
129.14599188 97.958135049 14.494462663 129.42695568 98.063162797 14.490071112 129.7066819 98.170435027 14.474800783 
129.9844197 98.28035569 14.447182462 130.25909697 98.39337481 14.405259462 130.52949609 98.509737539 14.347668172 
130.79397535 98.629681397 14.27263163 131.05082 98.753177787 14.179143861 131.29802028 98.880076162 14.06625377 
131.53367215 99.009982824 13.933800301 131.75611846 99.142331096 13.782297399 131.96387838 99.276470993 13.612599535 
132.15607451 99.411687914 13.426224967 132.33243705 99.547304858 13.225057613 
VERTICES 267 266
OFFSETS vtktypeint64
0 1 2 3 4 5 6 7 8 
9 10 11 12 13 14 15 16 17 
18 19 20 21 22 23 24 25 26 
27 28 29 30 31 32 33 34 35 
36 37 38 39 40 41 42 43 44 
45 46 47 48 49 50 51 52 53 
54 55 56 57 58 59 60 61 62 
63 64 65 66 67 68 69 70 71 
72 73 74 75 76 77 78 79 80 
81 82 83 84 85 86 87 88 89 
90 91 92 93 94 95 96 97 98 
99 100 101 102 103 104 105 106 107 
108 109 110 111 112 113 114 115 116 
117 118 119 120 121 122 123 124 125 
126 127 128 129 130 131 132 133 134 
135 136 137 138 139 140 141 142 143 
144 145 146 147 148 149 150 151 152 
153 154 155 156 157 158 159 160 161 
162 163 164 165 166 167 168 169 170 
171 172 173 174 175 176 177 178 179 
180 181 182 183 184 185 186 187 188 
189 190 191 192 193 194 195 196 197 
198 199 200 201 202 203 204 205 206 
207 208 209 210 211 212 213 214 215 
216 217 218 219 220 221 222 223 224 
225 226 227 228 229 230 231 232 233 
234 235 236 237 238 239 240 241 242 
243 244 245 246 247 248 249 250 251 
252 253 254 255 256 257 258 259 260 
261 262 263 264 265 266 
CONNECTIVITY vtktypeint64
0 1 2 3 4 5 6 7 8 
9 10 11 12 13 14 15 16 17 
18 19 20 21 22 23 24 25 26 
27 28 29 30 31 32 33 34 35 
36 37 38 39 40 41 42 43 44 
45 46 47 48 49 50 51 52 53 
54 55 56 57 58 59 60 61 62 
63 64 65 66 67 68 69 70 71 
72 73 74 75 76 77 78 79 80 
81 82 83 84 85 86 87 88 89 
90 91 92 93 94 95 96 97 98 
99 100 101 102 103 104 105 106 107 
108 109 110 111 112 113 114 115 116 
117 118 119 120 121 122 123 124 125 
126 127 128 129 130 131 132 133 134 
135 136 137 138 139 140 141 142 143 
144 145 146 147 148 149 150 151 152 
153 154 155 156 157 158 159 160 161 
162 163 164 165 166 167 168 169 170 
171 172 173 174 175 176 177 178 179 
180 181 182 183 184 185 186 187 188 
189 190 191 192 193 194 195 196 197 
198 199 200 201 202 203 204 205 206 
207 208 209 210 211 212 213 214 215 
216 217 218 219 220 221 222 223 224 
225 226 227 228 229 230 231 232 233 
234 235 236 237 238 239 240 241 242 
243 244 245 246 247 248 249 250 251 
252 253 254 255 256 257 258 259 260 
261 262 263 264 265 
LINES 2 266
OFFSETS vtktypeint64
0 266 
CONNECTIVITY vtktypeint64
0 1 2 3 4 5 6 7 8 
9 10 11 12 13 14 15 16 17 
18 19 20 21 22 23 24 25 26 
27 28 29 30 31 32 33 34 35 
36 37 38 39 40 41 42 43 44 
45 46 47 48 49 50 51 52 53 
54 55 56 57 58 59 60 61 62 
63 64 65 66 67 68 69 70 71 
72 73 74 75 76 77 78 79 80 
81 82 83 84 85 86 87 88 89 
90 91 92 93 94 95 96 97 98 
99 100 101 102 103 104 105 106 107 
108 109 110 111 112 113 114 115 116 
117 118 119 120 121 122 123 124 125 
126 127 128 129 130 131 132 133 134 
135 136 137 138 139 140 141 142 143 
144 145 146 147 148 149 150 151 152 
153 154 155 156 157 158 159 160 161 
162 163 164 165 166 167 168 169 170 
171 172 173 174 175 176 177 178 179 
180 181 182 183 184 185 186 187 188 
189 190 191 192 193 194 195 196 197 
198 199 200 201 202 203 204 205 206 
207 208 209 210 211 212 213 214 215 
216 217 218 219 220 221 222 223 224 
225 226 227 228 229 230 231 232 233 
234 235 236 237 238 239 240 241 242 
243 244 245 246 247 248 249 250 251 
252 253 254 255 256 257 258 259 260 
261 262 263 264 265 
POINT_DATA 266
SCALARS Curvature double
LOOKUP_TABLE default
0.29429530683 0.28606888561 0.2745147855 0.26059489705 0.24532822178 0.22970792962 0.21452425604 0.2004023795 0.18776621923 
0.17691839646 0.16808439423 0.16138103532 0.15687458615 0.15460080097 0.15454758672 0.15664583721 0.16075980067 0.16669576489 
0.17422225489 0.1830662263 0.19297174615 0.20365776157 0.2147477326 0.22574544555 0.23607664126 0.24517538357 0.25242088121 
0.25746096979 0.2600347283 0.26000659836 0.25721975679 0.25183681115 0.24416582646 0.23469532383 0.22395057656 0.21248317719 
0.20068069484 0.18885893239 0.17734697343 0.16650996138 0.15667290762 0.14816353729 0.14130870552 0.13633388457 0.13335554687 
0.13235142185 0.13313318349 0.13533764177 0.13851757755 0.14224078936 0.14611164971 0.14982119703 0.15320034792 0.15625067144 
0.15914380803 0.16221616852 0.16589831498 0.17066031839 0.17703025828 0.18556869705 0.1967531951 0.21101073991 0.22865561438 
0.24988950871 0.27456678488 0.30219988282 0.3317368803 0.36125265787 0.38802659705 0.40910977415 0.42156140376 0.42328023456 
0.41390234152 0.3951684853 0.3700182636 0.34180749401 0.31320414975 0.28587190701 0.26064314067 0.23797912492 0.21794254012 
0.20039191927 0.18511105763 0.17178317296 0.16004876194 0.14954375795 0.13993558982 0.13095110795 0.12239673973 0.11420445978 
0.10643928828 0.099273317562 0.092997353456 0.08803793827 0.084910941182 0.084004493487 0.08552765754 0.089379611899 0.095136376479 
0.10220058752 0.11000381082 0.11806799891 0.12605484867 0.13381084886 0.14129293418 0.14852357171 0.15557692002 0.16256622808 
0.16961911196 0.17687239224 0.18444905511 0.1924107056 0.20073458807 0.20933369306 0.2180259241 0.22653676523 0.23456962687 
0.24186415108 0.2481616673 0.25320368474 0.25679909347 0.25885887597 0.25936580485 0.25851750811 0.25670076061 0.25432716698 
0.25181574206 0.24955247272 0.24788693016 0.24710767636 0.24742969533 0.24901460748 0.25191020538 0.25599812126 0.26101792468 
0.26656439786 0.27205517794 0.27685016017 0.28033430959 0.28191052839 0.28107967326 0.27743939135 0.27089842722 0.26149051609 
0.24968372069 0.23614654729 0.22163192091 0.20689576736 0.19266190875 0.17961126293 0.1683441031 0.15942539371 0.15333198408 
0.1502711062 0.15017747045 0.1527283584 0.15737679778 0.16340238357 0.17018687977 0.17727568263 0.18429974441 0.19103897874 
0.19735228341 0.20316709635 0.20846765359 0.21337528669 0.21806309061 0.22262084254 0.22705757273 0.23128184292 0.23506927849 
0.23814884212 0.2403276235 0.24145832172 0.24141271341 0.24010566319 0.23751418433 0.23361037847 0.22848726643 0.2223953132 
0.21562052179 0.20846565988 0.20120690261 0.19410150796 0.18737146458 0.18120149118 0.17576502766 0.17120169054 0.16755309511 
0.16479190451 0.16283672347 0.16153322528 0.16068673448 0.16004741094 0.15937059849 0.1584209636 0.15698190374 0.15487343581 
0.15193361726 0.14804653968 0.14322111881 0.13749763135 0.13096768302 0.12374711169 0.1159313238 0.1076171256 0.098887364246 
0.08985141697 0.0806160908 0.071276187526 0.061926754925 0.05267842982 0.043659906149 0.035014225421 0.026906183224 0.019517722215 
0.013015965265 0.0076706177393 0.0043731918358 0.0046904548542 0.0065684354602 0.0081522222895 0.0091255670124 0.0096020559794 0.0098197556067 
0.010098389464 0.010780601456 0.012096571548 0.014053580441 0.016486601704 0.019179967781 0.021932098955 0.024560712525 0.026900578686 
0.028814149907 0.030193622787 0.030958857541 0.031098705047 0.030628458093 0.029567255939 0.027986369523 0.026093827655 0.024289270691 
0.023257237424 0.023883152386 0.026859600145 0.032362154097 0.040233987376 0.050168201844 0.061950569831 0.075464348382 0.090609052351 
0.10728068176 0.12541200073 0.14487439467 0.16537091116 0.18642090554 0.20731192955 0.22712249811 0.24477573483 0.25913334606 
0.26925781565 0.27463088747 0.27518992238 0.27142291412 0.26418389289 
