# vtk DataFile Version 5.1
vtk output
ASCII
DATASET POLYDATA
POINTS 285 double
81.518265422 85.500456057 37.633414237 81.800937853 85.459136004 37.541959809 82.080018817 85.401965289 37.448042402 
82.354574513 85.328768015 37.351929687 82.623716168 85.239665361 37.25394608 82.88665791 85.135067851 37.154452735 
83.142764844 85.015644912 37.053825094 83.391585575 84.882277259 36.95243082 83.63286651 84.735999797 36.850610163 
83.866549158 84.577943127 36.748660851 84.092753715 84.409279879 36.646828271 84.31175344 84.231180016 36.545300557 
84.523943502 84.044776304 36.444207085 84.729806874 83.85113916 36.343618653 84.929867636 83.651246797 36.243550939 
85.124699867 83.446017329 36.143965545 85.314884903 83.236283461 36.044777581 85.500970001 83.022774936 35.945862901 
85.68346233 82.80613496 35.847060313 85.862811619 82.586922195 35.748174855 86.039399985 82.365615915 35.648982432 
86.21353596 82.142621915 35.549234745 86.385448211 81.918276334 35.448663336 86.555277801 81.692846979 35.346982905 
86.723072041 81.466534704 35.243894635 86.888785356 81.239478611 35.139090735 87.052283829 81.011762908 35.032259741 
87.213348948 80.783422427 34.923092596 87.371680085 80.554446641 34.811289899 87.526897581 80.324784059 34.696569626 
87.67854984 80.094349596 34.578674794 87.826123055 79.863033544 34.45738131 87.969051242 79.630710058 34.332506332 
88.106726454 79.39724479 34.203917059 88.23850994 79.162502429 34.071538691 88.363744259 78.926355234 33.935358966 
88.481766584 78.688691803 33.795430352 88.591922678 78.449425086 33.651870452 88.69358101 78.208499374 33.504860166 
88.786146364 77.965895856 33.35463953 88.869070394 77.721636584 33.201500155 88.941860279 77.475787101 33.045775541 
89.004038117 77.22845153 32.887822702 89.055271135 76.9797893 32.728036945 89.095279487 76.729997538 32.566817209 
89.123836801 76.479308222 32.404560859 89.140779124 76.227985138 32.24165898 89.145998661 75.976318454 32.078491096 
89.139436051 75.724619293 31.915422064 89.121071979 75.473215131 31.752800416 89.09091823 75.222446083 31.590958317 
89.049009217 74.972662532 31.430212451 88.995394749 74.724224555 31.270864718 88.930134302 74.477502799 31.113202708 
88.853293823 74.23288078 30.957498901 88.764945754 73.990758524 30.804007264 88.665171144 73.751556298 30.652958508 
88.554050054 73.515722981 30.504556744 88.431715206 73.283723816 30.358959245 88.298313822 73.056054201 30.216276184 
88.154028453 72.833236996 30.076555199 87.999087012 72.615819935 29.939768087 87.833767689 72.404371386 29.805801949 
87.658397969 72.19947793 29.674454058 87.473344565 72.001750997 29.545429184 87.279061517 71.811786683 29.418325119 
87.076039036 71.63020001 29.292644931 86.864813929 71.457617345 29.167801085 86.645965147 71.294681871 29.043128083 
86.420113252 71.142061742 28.917895227 86.187924335 71.00045971 28.791319768 85.950118184 70.870625098 28.66257955 
85.707479137 70.753367465 28.530829418 85.460870975 70.649569287 28.395221923 85.211257076 70.56019387 28.25493185 
84.959723828 70.486284806 28.109187226 84.707504607 70.428957658 27.957305818 84.456003337 70.389386274 27.798733291 
84.206814887 70.368779012 27.633085501 83.96173506 70.368335779 27.460199555 83.722751009 70.389181896 27.280191001 
83.49213953 70.432580505 27.093429687 83.27211466 70.499063358 26.900804102 83.064966575 70.589021084 26.703500971 
82.873141744 70.702764612 26.503018458 82.698716301 70.839797888 26.3012248 82.54335494 70.999058451 26.10016867 
82.408892562 71.179612243 25.902065111 82.295950655 71.379342154 25.708997063 82.20517841 71.596330213 25.522973121 
82.136841565 71.828455274 25.345828939 82.090332005 72.07321169 25.178898153 82.065019439 72.328336615 25.023290654 
82.060199921 72.591710841 24.879901698 82.074653103 72.861220668 24.749103883 82.107160753 73.135002717 24.631024639 
82.156513301 73.411418448 24.525577062 82.221509423 73.689039898 24.432481336 82.300995061 73.96664195 24.35131372 
82.393882658 74.243185796 24.281542326 82.499159906 74.517800333 24.222555823 82.615895739 74.789763816 24.173695519 
82.743243442 75.058484625 24.134287081 82.880436086 75.323483123 24.103664628 83.026773679 75.584377852 24.081186194 
83.181607645 75.84087605 24.066244079 83.344332729 76.092763074 24.058276532 83.514390868 76.339884674 24.056787951 
83.691174331 76.582204823 24.061281944 83.874117783 76.819738861 24.071363088 84.062644319 77.05258091 24.086708431 
84.256157192 77.280905811 24.107067655 84.454036626 77.504968128 24.132259422 84.655637357 77.725100264 24.162169011 
84.860284438 77.941711007 24.196747141 85.067269272 78.155282438 24.23600758 85.275849538 78.366362152 24.280017856 
85.485252224 78.575551242 24.328884579 85.694676365 78.783490974 24.382737682 85.903294434 78.990849888 24.441713825 
86.110253636 79.198310758 24.505939421 86.314678315 79.40655705 24.575513516 86.515673623 79.616259579 24.650490729 
86.712330384 79.828064437 24.730864134 86.903731217 80.042582918 24.816548182 87.088957072 80.260383681 24.907364168 
87.267090868 80.481987185 25.00303372 87.4372074 80.707867787 25.10318154 87.598428616 80.938422115 25.207307664 
87.749882031 81.173990634 25.314814224 87.89072359 81.414845227 25.424993509 88.020141577 81.661185177 25.537032428 
88.137359572 81.91313206 25.650019485 88.241642469 82.170722846 25.762951286 88.332306903 82.433901549 25.874739151 
88.408732734 82.702511509 25.9842168 88.470372183 82.976288634 26.090151354 88.516759378 83.254854907 26.191257007 
88.547523123 83.537712505 26.286211076 88.562402573 83.824239921 26.373673167 88.561262384 84.113691968 26.452306503 
88.544102244 84.405204324 26.520799628 88.511063132 84.697801379 26.577888895 88.462431744 84.990407243 26.622381705 
88.398642329 85.281860094 26.65317974 88.320274913 85.570929716 26.66930035 88.228039397 85.856333735 26.669881945 
88.122732114 86.136734889 26.654144788 88.005383654 86.410834123 26.621612083 87.877061799 86.677327627 26.571892222 
87.73892448 86.934945023 26.504755859 87.592206977 87.182469762 26.420134873 87.438209215 87.418759472 26.31811941 
87.278282835 87.642765386 26.198951359 87.113818234 87.853550756 26.063015205 86.946231377 88.050309237 25.910828507 
86.776949523 88.232369241 25.743017739 86.607404597 88.39917624 25.560279233 86.439006033 88.550497006 25.363538876 
86.273114534 88.686209154 25.153716912 86.111032256 88.806379648 24.93178819 85.953984266 88.91126531 24.698763627 
85.803101104 89.001309085 24.455671186 85.65940376 89.077127044 24.203535126 85.523792256 89.139489105 23.94335658 
85.397036656 89.189298651 23.67609836 85.279769347 89.227572843 23.402673961 85.172480191 89.255422693 23.12393885 
85.075517663 89.274030209 22.840682594 84.989093735 89.284624808 22.553623743 84.913288138 89.288463071 22.263408721 
84.848050531 89.286812577 21.970613589 84.793203786 89.280938051 21.675746677 84.748453173 89.27208929 21.379251148 
84.713397953 89.261490231 21.081508832 84.687539898 89.250329458 20.782845964 84.670287796 89.239752114 20.48354001 
84.660962376 89.230853584 20.183826618 84.658806608 89.224676965 19.883906658 84.662997985 89.222211939 19.583954232 
84.6726582 89.224391538 19.284125688 84.686859681 89.232086054 18.984568901 84.704632014 89.246097496 18.685432275 
84.724970808 89.267158868 18.386873736 84.746848055 89.295934637 18.089069835 84.769222577 89.333016286 17.792224127 
84.79105075 89.378912031 17.496573545 84.811297592 89.434037033 17.20239246 84.82894615 89.498710519 16.909995246 
84.843007227 89.573155523 16.619737429 84.852532747 89.657494112 16.332013765 84.856632873 89.751738264 16.047251762 
84.854473272 89.855810012 15.765912005 84.845310896 89.969498206 15.48846348 84.828518229 90.092457804 15.215362075 
84.803546283 90.224279057 14.947063533 84.769954186 90.364466789 14.683998846 84.727414504 90.51245296 14.426560605 
84.675706512 90.667616582 14.175095297 84.614705733 90.82930496 13.92990021 84.54437796 90.996853237 13.691222044 
84.464776365 91.169602431 13.459256549 84.376034025 91.346916215 13.234151242 84.278337683 91.528200172 13.016022251 
84.171932267 91.71290475 12.804950476 84.05713149 91.900531907 12.600974277 83.934268225 92.09066107 12.40413594 
83.80371144 92.282943457 12.21447144 83.665858292 92.477099521 12.032014404 83.521127007 92.672914561 11.856799141 
83.369953102 92.870233892 11.688861616 83.212787569 93.06895766 11.528238634 83.050093577 93.269033135 11.374965228 
82.882340251 93.470443532 11.229070385 82.709995733 93.673196304 11.090572531 82.533520502 93.877311983 10.959474909 
82.353360722 94.082813583 10.835760846 82.16994174 94.289717664 10.719390245 81.983661857 94.498027471 10.610298162 
81.794885792 94.707726862 10.508394626 81.603937944 94.918775001 10.413565902 81.411095957 95.131101817 10.325676806 
81.216587061 95.344606512 10.244574718 81.020587913 95.559159532 10.170095525 80.823225621 95.774605097 10.102070312 
80.624579881 95.990763973 10.040332487 80.424686145 96.207436212 9.9847249116 80.223541425 96.424405118 9.9351059349 
80.021112876 96.641442769 9.8913540394 79.817347092 96.858315584 9.8533714748 79.612179844 97.074789846 9.8210860708 
79.405545951 97.290637326 9.7944516765 79.197388863 97.505640798 9.7734458062 78.987669726 97.719599732 9.7580643191 
78.776374754 97.932335688 9.7483180825 78.563522974 98.143698967 9.7442221858 78.349177408 98.35358135 9.7457657951 
78.133441409 98.561916958 9.7529247619 77.91646196 98.768690538 9.7656390197 77.698428548 98.97394355 9.7837996818 
77.47956988 99.177779179 9.8072370976 77.260149351 99.380366437 9.8357102766 77.040459068 99.581941927 9.8688997507 
76.820813264 99.782809077 9.9064034799 76.601542109 99.983334912 9.9477355448 76.382985845 100.18394313 9.9923293266 
76.165490439 100.38510481 10.039542013 75.94940461 100.58732653 10.088660993 75.73507811 100.79113606 10.138911463 
75.52286127 100.99706656 10.189464812 75.3131051 101.20563883 10.239449586 75.106161128 101.41734256 10.287963427 
74.902380237 101.63261717 10.334085875 74.702109686 101.85183288 10.376892721 74.505689097 102.07527429 10.415471253 
74.313467621 102.30314985 10.448907585 74.125738422 102.53552047 10.476378508 73.942785461 102.77235453 10.497103906 
73.764857644 103.01350993 10.510381285 73.59216146 103.2587412 10.515597298 73.424858509 103.50771353 10.512231381 
73.263064991 103.76001903 10.499855835 73.106851886 104.01519295 10.478133353 72.956246733 104.27272958 10.446811397 
72.811238947 104.53209746 10.405710919 72.671788748 104.7927523 10.354710261 72.537836814 105.05414622 10.293729534 
72.409312286 105.31573279 10.222718157 72.286139965 105.5769691 10.141644332 72.168246962 105.83731529 10.050485643 
72.055568477 106.09623192 9.9492213 71.948052479 106.3531759 9.8378271961 71.845662571 106.60759594 9.7162746124 
71.748379739 106.85892767 9.5845311478 71.656203 107.10658871 9.4425630217 71.569148884 107.34997388 9.2903387515 
71.487250284 107.58845105 9.127834363 71.410554812 107.82135822 8.9550400791 71.339122619 108.04800176 8.7719682284 
71.273023706 108.26765634 8.5786620302 71.212334651 108.47956654 8.3752051123 71.157134725 108.68295105 8.1617318173 
71.107501499 108.87701003 7.9384380103 71.063505813 109.06093588 7.705591585 71.025206125 109.23392756 7.4635417997 

VERTICES 286 285
OFFSETS vtktypeint64
0 1 2 3 4 5 6 7 8 
9 10 11 12 13 14 15 16 17 
18 19 20 21 22 23 24 25 26 
27 28 29 30 31 32 33 34 35 
36 37 38 39 40 41 42 43 44 
45 46 47 48 49 50 51 52 53 
54 55 56 57 58 59 60 61 62 
63 64 65 66 67 68 69 70 71 
72 73 74 75 76 77 78 79 80 
81 82 83 84 85 86 87 88 89 
90 91 92 93 94 95 96 97 98 
99 100 101 102 103 104 105 106 107 
108 109 110 111 112 113 114 115 116 
117 118 119 120 121 122 123 124 125 
126 127 128 129 130 131 132 133 134 
135 136 137 138 139 140 141 142 143 
144 145 146 147 148 149 150 151 152 
153 154 155 156 157 158 159 160 161 
162 163 164 165 166 167 168 169 170 
171 172 173 174 175 176 177 178 179 
180 181 182 183 184 185 186 187 188 
189 190 191 192 193 194 195 196 197 
198 199 200 201 202 203 204 205 206 
207 208 209 210 211 212 213 214 215 
216 217 218 219 220 221 222 223 224 
225 226 227 228 229 230 231 232 233 
234 235 236 237 238 239 240 241 242 
243 244 245 246 247 248 249 250 251 
252 253 254 255 256 257 258 259 260 
261 262 263 264 265 266 267 268 269 
270 271 272 273 274 275 276 277 278 
279 280 281 282 283 284 285 
CONNECTIVITY vtktypeint64
0 1 2 3 4 5 6 7 8 
9 10 11 12 13 14 15 16 17 
18 19 20 21 22 23 24 25 26 
27 28 29 30 31 32 33 34 35 
36 37 38 39 40 41 42 43 44 
45 46 47 48 49 50 51 52 53 
54 55 56 57 58 59 60 61 62 
63 64 65 66 67 68 69 70 71 
72 73 74 75 76 77 78 79 80 
81 82 83 84 85 86 87 88 89 
90 91 92 93 94 95 96 97 98 
99 100 101 102 103 104 105 106 107 
108 109 110 111 112 113 114 115 116 
117 118 119 120 121 122 123 124 125 
126 127 128 129 130 131 132 133 134 
135 136 137 138 139 140 141 142 143 
144 145 146 147 148 149 150 151 152 
153 154 155 156 157 158 159 160 161 
162 163 164 165 166 167 168 169 170 
171 172 173 174 175 176 177 178 179 
180 181 182 183 184 185 186 187 188 
189 190 191 192 193 194 195 196 197 
198 199 200 201 202 203 204 205 206 
207 208 209 210 211 212 213 214 215 
216 217 218 219 220 221 222 223 224 
225 226 227 228 229 230 231 232 233 
234 235 236 237 238 239 240 241 242 
243 244 245 246 247 248 249 250 251 
252 253 254 255 256 257 258 259 260 
261 262 263 264 265 266 267 268 269 
270 271 272 273 274 275 276 277 278 
279 280 281 282 283 284 
LINES 2 285
OFFSETS vtktypeint64
0 285 
CONNECTIVITY vtktypeint64
0 1 2 3 4 5 6 7 8 
9 10 11 12 13 14 15 16 17 
18 19 20 21 22 23 24 25 26 
27 28 29 30 31 32 33 34 35 
36 37 38 39 40 41 42 43 44 
45 46 47 48 49 50 51 52 53 
54 55 56 57 58 59 60 61 62 
63 64 65 66 67 68 69 70 71 
72 73 74 75 76 77 78 79 80 
81 82 83 84 85 86 87 88 89 
90 91 92 93 94 95 96 97 98 
99 100 101 102 103 104 105 106 107 
108 109 110 111 112 113 114 115 116 
117 118 119 120 121 122 123 124 125 
126 127 128 129 130 131 132 133 134 
135 136 137 138 139 140 141 142 143 
144 145 146 147 148 149 150 151 152 
153 154 155 156 157 158 159 160 161 
162 163 164 165 166 167 168 169 170 
171 172 173 174 175 176 177 178 179 
180 181 182 183 184 185 186 187 188 
189 190 191 192 193 194 195 196 197 
198 199 200 201 202 203 204 205 206 
207 208 209 210 211 212 213 214 215 
216 217 218 219 220 221 222 223 224 
225 226 227 228 229 230 231 232 233 
234 235 236 237 238 239 240 241 242 
243 244 245 246 247 248 249 250 251 
252 253 254 255 256 257 258 259 260 
261 262 263 264 265 266 267 268 269 
270 271 272 273 274 275 276 277 278 
279 280 281 282 283 284 
POINT_DATA 285
SCALARS Curvature double
LOOKUP_TABLE default
0.19887256914 0.20001892164 0.19934681904 0.19669677162 0.19202280538 0.18540330836 0.17703154338 0.16719069121 0.15621097875 
0.14443630029 0.13219152584 0.11977163452 0.1074555251 0.095469542946 0.083989115498 0.07314765389 0.063080331236 0.053967925241 
0.04599755165 0.039316873374 0.034091751503 0.030543745224 0.028881824791 0.029132154734 0.031012966406 0.034133775227 0.038174779617 
0.042922764196 0.04824393858 0.054019069446 0.060134339576 0.066483757513 0.072964242504 0.079469523511 0.08590597896 0.092174020842 
0.098171185007 0.10379966517 0.1089644098 0.1136143259 0.11771092053 0.12122743302 0.1241515132 0.1264894598 0.12828529377 
0.12959610271 0.13049507494 0.13106800442 0.13140461238 0.13160214161 0.13175321333 0.13193756496 0.13222164619 0.13264663261 
0.13321451924 0.13391132632 0.13468393209 0.13546374722 0.1361708547 0.13670710116 0.13700535774 0.13703964435 0.13683299325 
0.13645499076 0.13602158014 0.13572661634 0.13586290034 0.13676034887 0.13873620607 0.14206653458 0.14699194767 0.15370598376 
0.16230126153 0.17274789816 0.18488360447 0.19847591752 0.21330142322 0.22910644521 0.2455077307 0.26193142772 0.27770262367 
0.29229593519 0.30528680449 0.31611521223 0.32405258059 0.32860411025 0.32986553023 0.32802368061 0.32325314595 0.31562136778 
0.30553554652 0.29375349075 0.28085413201 0.26713652835 0.25281268265 0.23829067669 0.22402738614 0.21031448769 0.197245889 
0.18483968134 0.17318719845 0.16241324132 0.15257084217 0.1435909921 0.13534289196 0.12767999634 0.12049077613 0.11366596447 
0.10704306464 0.10046641187 0.093830694269 0.087124999779 0.080427866082 0.073895649154 0.067827462519 0.06268109808 0.059027176809 
0.057420769822 0.058194419823 0.061322850021 0.06644041098 0.073009417306 0.080489927818 0.088425500387 0.096486589046 0.10450778885 
0.11241981538 0.12017929943 0.12774598874 0.13512427818 0.14239104711 0.14963285678 0.15689046049 0.16414399835 0.17136547211 
0.17855786553 0.18570557217 0.19274496532 0.19956818114 0.20605883349 0.21216377009 0.21783682086 0.22302232536 0.22766211344 
0.2317024582 0.23515360247 0.23802985227 0.24034670394 0.24212285183 0.24335731913 0.24405987829 0.24421679438 0.24382522235 
0.24288163353 0.24135186586 0.23918161037 0.23629695382 0.23267830717 0.22834382767 0.22329682554 0.21753007059 0.21104244142 
0.20391956385 0.19628333101 0.18823179567 0.17982541939 0.17111673099 0.1622236704 0.15328489836 0.14439559746 0.13559698025 
0.12692759889 0.11850291791 0.11048306773 0.10301479894 0.096218896869 0.090242368584 0.085342980672 0.081821029753 0.079904728052 
0.079671406409 0.081064940491 0.083980277525 0.088239540095 0.093552170832 0.099539179349 0.105842459 0.11223655422 0.11856203675 
0.12461911004 0.13014748293 0.13493027251 0.13891358976 0.14210306172 0.14444285853 0.14581428591 0.14616587335 0.14562280163 
0.14434690348 0.14243685261 0.13994146527 0.13694361829 0.13361443177 0.13012041054 0.12655589933 0.12296819913 0.11939858262 
0.11590071372 0.11252896872 0.1093028883 0.10622429951 0.10329493767 0.10051821631 0.097891561895 0.095395632197 0.092992340239 
0.090639921149 0.08830796925 0.085967757736 0.083601034748 0.081195978601 0.078759578904 0.076329097572 0.073961427901 0.071731764989 
0.069728693205 0.068034738039 0.066713215425 0.065810110804 0.065331484374 0.06525162011 0.065494987569 0.065940037319 0.066446528788 
0.066843401344 0.066955835819 0.066618115918 0.065677466219 0.064002575766 0.061495023037 0.058087704718 0.053788756058 0.048692722862 
0.043012508584 0.037204280813 0.032068115279 0.028926804275 0.02926728688 0.033535516495 0.040787311177 0.049768577673 0.059559480363 
0.069542013043 0.079291084472 0.088523815157 0.09699901103 0.10452420883 0.11093609627 0.11615914689 0.12024751252 0.12328423397 
0.12536079172 0.12658727497 0.12713640348 0.12724189865 0.12712294388 0.12694305908 0.12684318276 0.12695297722 0.12738411247 
0.12821857943 0.12948975703 0.13120933475 0.13337510669 0.13597169422 0.13897154929 0.14233606777 0.14601798503 0.14996443947 
0.15411668911 0.15840452894 0.16274315359 0.16703569892 0.17117392231 0.17504094048 
