# vtk DataFile Version 5.1
vtk output
ASCII
DATASET POLYDATA
POINTS 225 double
105.11057812 73.568076672 27.773351022 104.81575706 73.539223294 27.726313742 104.52402287 73.490275692 27.676739451 
104.2368115 73.421298215 27.624644397 103.95548872 73.332737584 27.570072805 103.6812748 73.225380169 27.513085463 
103.4152386 73.100196309 27.453733854 103.15814674 72.958517066 27.392079886 102.91054203 72.801741988 27.328156244 
102.67276105 72.631289931 27.261958118 102.44495479 72.448563867 27.193438581 102.22715411 72.254882175 27.122497118 
102.01925122 72.051516129 27.048992356 101.82103588 71.839659568 26.972748327 101.6322973 71.620361919 26.893544148 
101.45282096 71.394564183 26.811131679 101.28241481 71.163101814 26.725247708 101.12093137 70.926709859 26.635627444 
100.96828569 70.686029573 26.542018513 100.82446966 70.441615944 26.444194475 100.68956186 70.193946812 26.341966278 
100.56373368 69.943433198 26.235191334 100.44726282 69.690429706 26.123772378 100.34051184 69.43525551 26.007668616 
100.2439123 69.178212653 25.886895176 100.15798231 68.919600735 25.761501852 100.08329888 68.659742983 25.631568639 
100.02047914 68.399009394 25.497193599 99.970157381 68.137838859 25.358480405 99.932958676 67.876758315 25.215526744 
99.909469604 67.616396553 25.068415404 99.900239175 67.357496361 24.917199002 99.905711195 67.100914489 24.761908453 
99.926118303 66.847590648 24.602572222 99.961593022 66.598549667 24.439182259 100.01209988 66.354872904 24.271712229 
100.07742867 66.117671964 24.100121327 100.15719638 65.888062974 23.924357095 100.25091141 65.667184333 23.744339413 
100.3578223 65.456070468 23.560012606 100.47710218 65.255737054 23.371297169 100.60783009 65.067164851 23.178100577 
100.74900196 64.891302566 22.980321208 100.89954678 64.729080583 22.777852867 101.05833764 64.581427545 22.570593623 
101.22419652 64.449285825 22.358460028 101.39589334 64.333622409 22.141406938 101.57213989 64.235431098 21.919452408 
101.75158134 64.15572275 21.69270649 101.93278749 64.095501044 21.461400877 102.11424618 64.055747756 21.225911756 
102.29435501 64.037377758 20.986782666 102.47145179 64.041030375 20.744752918 102.64382817 64.067187181 20.500716795 
102.80975938 64.116058613 20.255711659 102.96753906 64.187551496 20.01087955 103.11551273 64.281259424 19.767420774 
103.25204483 64.396573334 19.526565136 103.37568527 64.53243866 19.28949611 103.48509018 64.68760717 19.057332017 
103.57900909 64.860679219 18.831119185 103.65630459 65.050105744 18.611822398 103.71595378 65.254219178 18.40032814 
103.7569953 65.47129134 18.197481996 103.77866674 65.699461119 18.004041685 103.78041106 65.936793887 17.820687456 
103.76180939 66.18134808 17.648074224 103.7226608 66.43116759 17.486809543 103.66301114 66.6843167 17.337451039 
103.58317414 66.938923626 17.200502447 103.48365081 67.193220891 17.076473338 103.36540218 67.445609644 16.965691559 
103.22955446 67.694711243 16.868478215 103.07743971 67.939393989 16.785109843 102.91056325 68.178795669 16.715822672 
102.73055953 68.412330643 16.660824668 102.53915169 68.639683114 16.620307246 102.33811831 68.860788913 16.594453446 
102.12927024 69.075810564 16.58344083 101.91443716 69.285109269 16.587436528 101.69546254 69.489217687 16.606584864 
101.4742043 69.688815495 16.640986696 101.25253835 69.88470903 16.690672632 101.03236238 70.077815059 16.75557074 
100.8155975 70.269147553 16.835471185 100.60418648 70.459806197 16.929989121 100.40008792 70.650964587 17.03852811 
100.20526599 70.843856026 17.160245263 100.02172037 71.039769141 17.294054931 99.851362259 71.239992894 17.438489427 
99.696062378 71.445796208 17.591772776 99.557601396 71.65837828 17.75177887 99.43761842 71.878806554 17.916021888 
99.337549678 72.107944025 18.081669854 99.258703902 72.346435162 18.245551867 99.201796122 72.594455957 18.404271675 
99.16714368 72.851775442 18.55435486 99.154618713 73.117729777 18.692371236 99.163719249 73.39125519 18.814991995 
99.193219252 73.670812694 18.919434605 99.241563942 73.9546089 19.00340806 99.306968221 74.240688063 19.065140257 
99.387497268 74.527015556 19.103399652 99.481185265 74.811551019 19.117428631 99.586127894 75.092284991 19.106838832 
99.700540396 75.367236472 19.071496169 99.822778903 75.634416813 19.011413963 99.951330551 75.891767192 18.926670974 
100.08477586 76.137078335 18.817361574 100.22173292 76.367877876 18.683555864 100.36077054 76.581309325 18.525328125 
100.50030767 76.774225088 18.34306566 100.6385465 76.943068823 18.137453413 100.77334241 77.083733884 17.909586104 
100.90225751 77.192458685 17.661740413 101.02255883 77.265687913 17.397125763 101.13169695 77.301643778 17.120268919 
101.22744588 77.299999587 16.8362002 101.30846914 77.262801619 16.549963236 101.37447878 77.193961369 16.26569466 
101.42580974 77.097928517 15.98628231 101.46363474 76.979876654 15.713188276 101.48931325 76.844481665 15.446780456 
101.50429305 76.695919008 15.186622282 101.51002038 76.53785921 14.931728308 101.50787573 76.373502991 14.680780079 
101.49915785 76.205671791 14.432278786 101.48509814 76.036913425 14.184648219 101.46689143 75.86960023 13.936308036 
101.4457332 75.706006089 13.685736942 101.42285521 75.548351838 13.431541092 101.39955303 75.39881311 13.172533237 
101.37719827 75.259483141 12.907820882 101.35723023 75.132295948 12.636887322 101.34112455 75.018917147 12.359647616 
101.33034326 74.92063006 12.076457435 101.32630614 74.838305721 11.788051487 101.33029317 74.772249508 11.495492666 
101.34338206 74.722215885 11.200036231 101.36650608 74.687630233 10.902985476 101.40043936 74.667647261 10.605628537 
101.44582193 74.661275793 10.30919302 101.50323069 74.667524524 10.014845842 101.57302925 74.685313753 9.7236649081 
101.65555504 74.713714409 9.4366855311 101.75105521 74.751897884 9.1549131491 101.85967414 74.799139387 8.8793340029 
101.98143452 74.854807706 8.6109142966 102.11621641 74.918347155 8.350586284 102.26373925 74.989255323 8.0992217628 
102.42358784 75.067080782 7.8576279884 102.59512815 75.151355731 7.6264400123 102.77756641 75.241607178 7.4061044113 
102.97001783 75.337370096 7.1968912901 103.17152412 75.438175168 6.9988665471 103.38109927 75.543555146 6.81190135 
103.59777334 75.653054481 6.6356984692 103.82062947 75.76623934 6.4698310767 104.04883558 75.882709643 6.3137978563 
104.28165155 76.002100145 6.1670537384 104.51842708 76.124078285 6.02902849 104.7586237 76.248360353 5.8992102903 
105.00179502 76.374702128 5.7771470048 105.24757609 76.50289515 5.662461429 105.49567116 76.632760924 5.5548568961 
105.74584116 76.764144151 5.4541158431 105.99789183 76.896905165 5.360091597 106.25166289 77.030912539 5.2726957285 
106.50701873 77.166036486 5.1918821016 106.76384057 77.302143673 5.1176293169 107.02202052 77.439094481 5.0499249881 
107.2814606 77.576743932 4.9887708791 107.54205501 77.714936207 4.9340921254 107.80370312 77.853517557 4.8858029464 
108.06630268 77.992338727 4.843771137 108.32974933 78.131261545 4.807811698 108.59393695 78.270165557 4.7776840851 
108.85875868 78.408953849 4.7530924028 109.12410851 78.547557166 4.7336887828 109.38988468 78.685934948 4.7190985991 
109.65598678 78.824077982 4.7088661242 109.92232419 78.962002108 4.7025308324 110.18881625 79.099743108 4.6996162366 
110.45539457 79.237348848 4.6996419621 110.72200546 79.37486962 4.7021369568 110.98861194 79.512348008 4.7066525924 
111.25519558 79.649808911 4.7127753847 111.52175762 79.787251165 4.7201381509 111.78831932 79.924641234 4.7284311791 
112.05492113 80.061911091 4.7373997949 112.32161982 80.198959994 4.746853951 112.58848484 80.335659802 4.756661809 
112.85559299 80.471864125 4.7667403207 113.12302228 80.60741997 4.7770420536 113.39084516 80.742181462 4.7875379083 
113.6591219 80.876024143 4.7981974304 113.92789451 81.008859287 4.8089675031 114.19718195 81.1406465 4.819751289 
114.46697699 81.271403561 4.8303871669 114.73723972 81.401222544 4.8406334063 115.00790044 81.530265192 4.8501540256 
115.27885676 81.658766763 4.8585098787 115.5499717 81.787032831 4.8651539184 115.82107063 81.915432182 4.8694313395 
116.09193644 82.044386426 4.8705834795 116.36230263 82.174356368 4.8677554392 116.63184456 82.305825598 4.8600067156 
116.90016913 82.439281585 4.846324384 117.16680395 82.575194473 4.8256393846 117.43117509 82.714007603 4.7968087712 
117.69262 82.856083946 4.7587211351 117.95037431 83.001697859 4.7102843912 118.20356645 83.15101917 4.6504449394 
118.45122759 83.304091997 4.5782362831 118.69227796 83.460835901 4.492766566 118.92558975 83.621014133 4.3933463069 
119.15005957 83.784234377 4.2795696904 119.36457139 83.949996827 4.1512019863 119.56807203 84.117699262 4.0082561052 
119.7596196 84.286665393 3.8509971333 119.93843015 84.45617849 3.6799325365 120.10391815 84.625517652 3.4957876188 
120.25572582 84.793994108 3.2994674042 120.39373771 84.960984168 3.092008204 120.51807821 85.125955855 2.8745231558 

VERTICES 226 225
OFFSETS vtktypeint64
0 1 2 3 4 5 6 7 8 
9 10 11 12 13 14 15 16 17 
18 19 20 21 22 23 24 25 26 
27 28 29 30 31 32 33 34 35 
36 37 38 39 40 41 42 43 44 
45 46 47 48 49 50 51 52 53 
54 55 56 57 58 59 60 61 62 
63 64 65 66 67 68 69 70 71 
72 73 74 75 76 77 78 79 80 
81 82 83 84 85 86 87 88 89 
90 91 92 93 94 95 96 97 98 
99 100 101 102 103 104 105 106 107 
108 109 110 111 112 113 114 115 116 
117 118 119 120 121 122 123 124 125 
126 127 128 129 130 131 132 133 134 
135 136 137 138 139 140 141 142 143 
144 145 146 147 148 149 150 151 152 
153 154 155 156 157 158 159 160 161 
162 163 164 165 166 167 168 169 170 
171 172 173 174 175 176 177 178 179 
180 181 182 183 184 185 186 187 188 
189 190 191 192 193 194 195 196 197 
198 199 200 201 202 203 204 205 206 
207 208 209 210 211 212 213 214 215 
216 217 218 219 220 221 222 223 224 
225 
CONNECTIVITY vtktypeint64
0 1 2 3 4 5 6 7 8 
9 10 11 12 13 14 15 16 17 
18 19 20 21 22 23 24 25 26 
27 28 29 30 31 32 33 34 35 
36 37 38 39 40 41 42 43 44 
45 46 47 48 49 50 51 52 53 
54 55 56 57 58 59 60 61 62 
63 64 65 66 67 68 69 70 71 
72 73 74 75 76 77 78 79 80 
81 82 83 84 85 86 87 88 89 
90 91 92 93 94 95 96 97 98 
99 100 101 102 103 104 105 106 107 
108 109 110 111 112 113 114 115 116 
117 118 119 120 121 122 123 124 125 
126 127 128 129 130 131 132 133 134 
135 136 137 138 139 140 141 142 143 
144 145 146 147 148 149 150 151 152 
153 154 155 156 157 158 159 160 161 
162 163 164 165 166 167 168 169 170 
171 172 173 174 175 176 177 178 179 
180 181 182 183 184 185 186 187 188 
189 190 191 192 193 194 195 196 197 
198 199 200 201 202 203 204 205 206 
207 208 209 210 211 212 213 214 215 
216 217 218 219 220 221 222 223 224 

LINES 2 225
OFFSETS vtktypeint64
0 225 
CONNECTIVITY vtktypeint64
0 1 2 3 4 5 6 7 8 
9 10 11 12 13 14 15 16 17 
18 19 20 21 22 23 24 25 26 
27 28 29 30 31 32 33 34 35 
36 37 38 39 40 41 42 43 44 
45 46 47 48 49 50 51 52 53 
54 55 56 57 58 59 60 61 62 
63 64 65 66 67 68 69 70 71 
72 73 74 75 76 77 78 79 80 
81 82 83 84 85 86 87 88 89 
90 91 92 93 94 95 96 97 98 
99 100 101 102 103 104 105 106 107 
108 109 110 111 112 113 114 115 116 
117 118 119 120 121 122 123 124 125 
126 127 128 129 130 131 132 133 134 
135 136 137 138 139 140 141 142 143 
144 145 146 147 148 149 150 151 152 
153 154 155 156 157 158 159 160 161 
162 163 164 165 166 167 168 169 170 
171 172 173 174 175 176 177 178 179 
180 181 182 183 184 185 186 187 188 
189 190 191 192 193 194 195 196 197 
198 199 200 201 202 203 204 205 206 
207 208 209 210 211 212 213 214 215 
216 217 218 219 220 221 222 223 224 

POINT_DATA 225
SCALARS Curvature double
LOOKUP_TABLE default
0.23744302835 0.23841136078 0.23707834885 0.23341656484 0.22756431885 0.21980587262 0.21052092712 0.20016103071 0.18917715392 
0.17799840478 0.16700941821 0.15655385959 0.14692440715 0.13836422992 0.13106763858 0.12517397566 0.12075987692 0.117828584 
0.11632415288 0.11613392104 0.11712964752 0.11917378132 0.12215262743 0.12595986347 0.13050113085 0.13566999739 0.14134380154 
0.1473658352 0.15355682996 0.15971339698 0.1656304338 0.17110714059 0.17596936828 0.18008689094 0.18338028437 0.18583404277 
0.18749354864 0.18847115614 0.1889441894 0.18916027217 0.18940829693 0.19000927862 0.19128926289 0.19355128888 0.19702675191 
0.20184673826 0.2080085512 0.21536662706 0.22363555867 0.23240806829 0.2412211479 0.24958382338 0.25703320334 0.26317440182 
0.26779319702 0.2708456115 0.27246792929 0.27291525761 0.27253434254 0.27168100925 0.2706930561 0.26982075586 0.26920409666 
0.26884824653 0.26864243374 0.26836372321 0.26774036724 0.26646137794 0.26424733768 0.26086202038 0.256169302 0.25014800627 
0.24290398566 0.23464756679 0.22568897044 0.21640166483 0.20719476709 0.19847710475 0.19061796837 0.18393434631 0.17865562714 
0.17493509299 0.17284106621 0.17239093645 0.17357241043 0.17638213239 0.18084773162 0.18702292244 0.19497492441 0.20472350009 
0.21619754261 0.229192609 0.24331854562 0.25800251251 0.27248139849 0.28590036486 0.29738853437 0.30624087781 0.31197408022 
0.31454176208 0.31425443925 0.31181927689 0.30816275361 0.30439667133 0.30163314017 0.30095830012 0.3033316127 0.30958647226 
0.32031652079 0.33580995296 0.35588004997 0.37965615368 0.40530057237 0.42976409235 0.44875458915 0.45740161499 0.45192153671 
0.43098274039 0.39667291742 0.35327812966 0.30542996447 0.25683687099 0.20985528603 0.16575029611 0.12530498993 0.089554282653 
0.061565040698 0.049869544114 0.060616056569 0.083505676316 0.10939144363 0.1346267862 0.15748748045 0.17675206974 0.19159874615 
0.20158216785 0.20683883177 0.20801971178 0.20620714795 0.20262143295 0.19843972895 0.19461057058 0.19175883238 0.19014764531 
0.18971732456 0.19016641417 0.19102614337 0.19175614271 0.19180720322 0.19069968848 0.18805631846 0.1836747677 0.17752742388 
0.16976238426 0.1606657285 0.15064069053 0.1401488901 0.1296507103 0.11958005706 0.11028618049 0.10204734686 0.09501815402 
0.089277499462 0.084785911337 0.081443678621 0.079074834814 0.077475647195 0.076420202732 0.075685387992 0.075067449838 0.074380508473 
0.073469140634 0.072200701334 0.07047814294 0.068226768251 0.065410480451 0.062016220605 0.058068771766 0.053615591698 0.048739242358 
0.043545967974 0.038169398831 0.032753907249 0.027457349379 0.022430937707 0.01781526259 0.013726908779 0.010270635956 0.0075926128866 
0.0059787344327 0.005783292207 0.0068258029775 0.0084747062569 0.010229696485 0.011776992245 0.012886269391 0.013408179664 0.013323611597 
0.012903297819 0.012943387923 0.014748040897 0.01921915725 0.02625248692 0.035372612684 0.046157432984 0.058274425025 0.071435923252 
0.085366602643 0.099797777051 0.1144450374 0.12903106854 0.14326052786 0.15685491092 0.1695253727 0.18101630311 0.19108679005 
0.19955636514 0.20627668205 0.21115701281 0.21416420231 0.21532388332 0.21473122545 0.21253591733 0.2089463632 0.20420155135 

