# vtk DataFile Version 5.1
vtk output
ASCII
DATASET POLYDATA
POINTS 225 double
107.63377431 70.548706778 35.843968631 107.54339299 70.628054739 35.569163339 107.44068828 70.709970153 35.299484896 
107.32620789 70.79338897 35.035056834 107.20042137 70.877287675 34.775969103 107.06383406 70.960673329 34.522239346 
106.91687378 71.042580271 34.273880305 106.75993804 71.12205192 34.030890935 106.59340957 71.19812882 33.793258967 
106.41767068 71.269837875 33.56096206 106.23311964 71.336183543 33.3339664 106.04018807 71.396141101 33.112223615 
105.83935891 71.448652941 32.895666832 105.63118434 71.492627656 32.684206634 105.41630311 71.526943041 32.477728237 
105.19545678 71.550453009 32.276090397 104.96950381 71.562000063 32.079127778 104.73943144 71.560434066 31.886656149 
104.50636329 71.544639358 31.698481344 104.27155878 71.513471559 31.514434479 104.03643096 71.46607792 31.334314245 
103.80248725 71.401698723 31.157969617 103.5713106 71.319794552 30.985287512 103.34451053 71.220092714 30.816198231 
103.12372451 71.10247237 30.65070537 102.91038772 70.967424344 30.488790304 102.70580853 70.815584291 30.330489669 
102.51108605 70.647836104 30.175852396 102.32710026 70.465233919 30.024930901 102.15451319 70.268942138 29.877769127 
101.99367577 70.060282075 29.734358082 101.84481543 69.840494395 29.594679769 101.70802673 69.610771957 29.458685934 
101.58331761 69.372233597 29.326297421 101.47065199 69.125912352 29.197404062 101.36998362 68.872755956 29.07186426 
101.28128094 68.613635765 28.949503488 101.20454132 68.349361104 28.830111765 101.13979661 68.080696035 28.713439932 
101.08711073 67.808376298 28.599195469 101.04657144 67.53312483 28.487038141 101.01827836 67.25566445 28.376576795 
101.00232898 66.97672731 28.267367877 100.99882747 66.69706067 28.15891761 101.00784648 66.41743447 28.050683197 
101.02936858 66.138633515 27.942087505 101.06336333 65.861453509 27.832537031 101.10975194 65.586696803 27.721441021 
101.16840698 65.315164231 27.608236421 101.23920915 65.047667019 27.49240104 101.32192347 64.784973704 27.373508749 
101.41625463 64.52779921 27.251250686 101.52191674 64.276822321 27.125432694 101.63860129 64.032662743 26.995990181 
101.76602119 63.795903238 26.86297141 101.90381727 63.567020859 26.726553824 102.05162179 63.346426483 26.586996133 
102.2090879 63.134505559 26.444594172 102.37586324 62.931619488 26.299653973 102.55158756 62.738129029 26.152457235 
102.73588991 62.554420023 26.003232281 102.92838465 62.380930104 25.852131784 103.12866679 62.218175952 25.699218953 
103.3363057 62.066780501 25.544462625 103.55085758 61.927546642 25.387731875 103.7717896 61.801380418 25.228823298 
103.99849963 61.689374514 25.067470017 104.23029556 61.592869546 24.90336271 104.46633847 61.513464507 24.736187725 
104.70558234 61.453039109 24.565677096 104.94669659 61.413757114 24.391676616 105.18797285 61.398069217 24.214232259 
105.42718796 61.408802509 24.033693861 105.66159421 61.448337077 23.850915655 105.88776313 61.519271515 23.667296282 
106.10191256 61.62298661 23.484891577 106.29983655 61.760237934 23.306379426 106.47795247 61.929552567 23.134692485 
106.63348397 62.128122697 22.972657973 106.76481828 62.352029828 22.822634964 106.87181262 62.596616569 22.686131762 
106.95554037 62.857251927 22.563737661 107.017617 63.129935365 22.455439849 107.06014328 63.411279155 22.36063295 
107.08537476 63.698596201 22.278330017 107.09539442 63.989872556 22.207419855 107.09213456 64.283604292 22.146684467 
107.07732826 64.578695005 22.094862104 107.05249549 64.874362364 22.050682551 107.01895099 65.17005996 22.012882247 
106.97782209 65.465415156 21.980207885 106.93007113 65.760180659 21.951414099 106.87649417 66.05419269 21.92526749 
106.8178293 66.347354106 21.900513764 106.75468363 66.639598333 21.875931416 106.68759373 66.930873903 21.850319716 
106.61705126 67.221130511 21.822513711 106.54352768 67.510309401 21.791404432 106.4674983 67.79833844 21.75596113 
106.38946257 68.085131353 21.715253294 106.30995653 68.370585714 21.668446638 106.22957176 68.654595473 21.614853245 
106.14894481 68.937054511 21.553936019 106.06874386 69.217851282 21.485269691 105.98965384 69.496869459 21.408541104 
105.91235404 69.773981761 21.323529563 105.83751024 70.049029018 21.230039546 105.76569549 70.321852798 21.12804922 
105.69741246 70.592248153 21.017525738 105.63306198 70.859972845 20.898471637 105.57292885 71.124746647 20.770917014 
105.51717393 71.386253788 20.634913528 105.46585248 71.644128546 20.490489878 105.41885315 71.898016317 20.337770632 
105.37597509 72.147528066 20.176847497 105.3369215 72.392263053 20.007819648 105.30131872 72.631814954 19.830793847 
105.26873919 72.865777618 19.645886035 105.23872701 73.093750979 19.453224794 105.21082654 73.315347863 19.25295635 
105.18461242 73.530201946 19.045250329 105.15972047 73.737969679 18.830298297 105.13587522 73.938340868 18.608320546 
105.11291116 74.131088656 18.379602279 105.09079928 74.316025726 18.144441971 105.06965507 74.493028516 17.903166131 
105.04974265 74.662038926 17.656123079 105.03146908 74.823061316 17.403676178 105.01537156 74.976155803 17.146198353 
105.00209676 75.12142849 16.884068989 104.99237546 75.259020428 16.617673828 104.98700054 75.389086059 16.3474026 
104.98679166 75.511797926 16.073662003 104.99253942 75.627364545 15.79688977 105.00500958 75.73597971 15.517536642 
105.02490701 75.837841111 15.23607846 105.05285576 75.933151232 14.953015299 105.0893861 76.02211954 14.66886781 
105.1349276 76.104965207 14.384171279 105.1898092 76.181919975 14.099468484 105.25429447 76.253214593 13.815305765 
105.32851546 76.319126808 13.53222229 105.41253139 76.379954937 13.250743295 105.50635405 76.436017461 12.971380826 
105.60994487 76.487666579 12.694630944 105.72322362 76.535293782 12.420972372 105.84607421 76.579334347 12.150865011 
105.97834763 76.620270233 11.884747893 106.11986282 76.658629838 11.623036398 106.27044072 76.694978741 11.366139065 
106.42979972 76.729933123 11.114397096 106.59765686 76.764122579 10.868132654 106.77370004 76.798183758 10.62763356 
106.95758916 76.832743308 10.393151716 107.14896167 76.868399867 10.164904798 107.34743975 76.905706723 9.9430797513 
107.55263852 76.945157619 9.7278379298 107.76417476 76.987176032 9.5193214789 107.9816749 77.03210972 9.317660395 
108.20479665 77.080239075 9.1229994458 108.43319052 77.131755349 8.9354500123 108.66654387 77.186790425 8.7551456633 
108.90457101 77.245423564 8.5822370767 109.14700816 77.307692026 8.4168924182 109.39360826 77.373603605 8.2592983281 
109.64413384 77.443148762 8.1096584332 109.89834855 77.516311181 7.9681885715 110.156008 77.593076495 7.8351089072 
110.41685122 77.673437916 7.7106325174 110.68059345 77.757399185 7.5949510809 110.94692694 77.844982179 7.4882392244 
111.21550698 77.936207149 7.3905952159 111.48595866 78.031086917 7.3020223066 111.75789281 78.129635499 7.222451228 
112.03091116 78.231853214 7.1517089875 112.30461947 78.337720474 7.0895118985 112.57864159 78.447193579 7.0354660389 
112.8526329 78.560202469 6.9890744098 113.12628923 78.676663036 6.9497753084 113.39935917 78.796443533 6.9168910875 
113.67164728 78.919395594 6.8897145996 113.94301293 79.045354687 6.867528209 114.2133679 79.174139035 6.8496219582 
114.48267127 79.305552353 6.8353179002 114.75092268 79.43938694 6.8239916789 115.01815468 79.5754272 6.815090236 
115.28442468 79.713454117 6.808144814 115.54980455 79.853255103 6.8027822025 115.81437837 79.994619222 6.7987163681 
116.07822892 80.137356172 6.7957540615 116.34142887 80.281306417 6.7937839141 116.60403332 80.426350023 6.7927595709 
116.86607177 80.57241728 6.7926793304 117.12754126 80.719497931 6.7935625761 117.38840081 80.867648516 6.7954238225 
117.6485677 81.016996925 6.7982467663 117.90791535 81.167744002 6.8019591996 118.16627279 81.320161831 6.8064109427 
118.42342506 81.474588834 6.8113550692 118.67911414 81.631421607 6.81643379 118.9330388 81.791104882 6.8211681891 
119.18485161 81.954121404 6.8249503642 119.43416853 82.120957568 6.8270483969 119.68055636 82.292099112 6.8266066548 
119.92353351 82.468001681 6.8226552466 120.16256747 82.649063853 6.8141246494 120.39707423 82.835597602 6.7998670713 
120.62642036 83.027798288 6.778685097 120.84993028 83.225715714 6.7493683717 121.06686425 83.429255717 6.7106861905 
121.27651108 83.638098077 6.6615398122 121.4781945 83.851724662 6.6009833605 121.67126991 84.069451661 6.5282170351 
121.85514735 84.290444484 6.4426093354 122.02933911 84.513737032 6.3437459253 122.19357727 84.738270449 6.231559772 
122.34767385 84.962975181 6.1061112868 122.49157334 85.186792346 5.9676369822 122.62534102 85.408707118 5.8165152292 
122.74914553 85.627773013 5.6532310877 122.86323875 85.843127685 5.4783445595 122.96793661 86.054001824 5.2924646846 
123.063602 86.259723092 5.0962293992 123.15063113 86.459716953 4.8902908321 123.22944249 86.653505408 4.6753040263 

VERTICES 226 225
OFFSETS vtktypeint64
0 1 2 3 4 5 6 7 8 
9 10 11 12 13 14 15 16 17 
18 19 20 21 22 23 24 25 26 
27 28 29 30 31 32 33 34 35 
36 37 38 39 40 41 42 43 44 
45 46 47 48 49 50 51 52 53 
54 55 56 57 58 59 60 61 62 
63 64 65 66 67 68 69 70 71 
72 73 74 75 76 77 78 79 80 
81 82 83 84 85 86 87 88 89 
90 91 92 93 94 95 96 97 98 
99 100 101 102 103 104 105 106 107 
108 109 110 111 112 113 114 115 116 
117 118 119 120 121 122 123 124 125 
126 127 128 129 130 131 132 133 134 
135 136 137 138 139 140 141 142 143 
144 145 146 147 148 149 150 151 152 
153 154 155 156 157 158 159 160 161 
162 163 164 165 166 167 168 169 170 
171 172 173 174 175 176 177 178 179 
180 181 182 183 184 185 186 187 188 
189 190 191 192 193 194 195 196 197 
198 199 200 201 202 203 204 205 206 
207 208 209 210 211 212 213 214 215 
216 217 218 219 220 221 222 223 224 
225 
CONNECTIVITY vtktypeint64
0 1 2 3 4 5 6 7 8 
9 10 11 12 13 14 15 16 17 
18 19 20 21 22 23 24 25 26 
27 28 29 30 31 32 33 34 35 
36 37 38 39 40 41 42 43 44 
45 46 47 48 49 50 51 52 53 
54 55 56 57 58 59 60 61 62 
63 64 65 66 67 68 69 70 71 
72 73 74 75 76 77 78 79 80 
81 82 83 84 85 86 87 88 89 
90 91 92 93 94 95 96 97 98 
99 100 101 102 103 104 105 106 107 
108 109 110 111 112 113 114 115 116 
117 118 119 120 121 122 123 124 125 
126 127 128 129 130 131 132 133 134 
135 136 137 138 139 140 141 142 143 
144 145 146 147 148 149 150 151 152 
153 154 155 156 157 158 159 160 161 
162 163 164 165 166 167 168 169 170 
171 172 173 174 175 176 177 178 179 
180 181 182 183 184 185 186 187 188 
189 190 191 192 193 194 195 196 197 
198 199 200 201 202 203 204 205 206 
207 208 209 210 211 212 213 214 215 
216 217 218 219 220 221 222 223 224 

LINES 2 225
OFFSETS vtktypeint64
0 225 
CONNECTIVITY vtktypeint64
0 1 2 3 4 5 6 7 8 
9 10 11 12 13 14 15 16 17 
18 19 20 21 22 23 24 25 26 
27 28 29 30 31 32 33 34 35 
36 37 38 39 40 41 42 43 44 
45 46 47 48 49 50 51 52 53 
54 55 56 57 58 59 60 61 62 
63 64 65 66 67 68 69 70 71 
72 73 74 75 76 77 78 79 80 
81 82 83 84 85 86 87 88 89 
90 91 92 93 94 95 96 97 98 
99 100 101 102 103 104 105 106 107 
108 109 110 111 112 113 114 115 116 
117 118 119 120 121 122 123 124 125 
126 127 128 129 130 131 132 133 134 
135 136 137 138 139 140 141 142 143 
144 145 146 147 148 149 150 151 152 
153 154 155 156 157 158 159 160 161 
162 163 164 165 166 167 168 169 170 
171 172 173 174 175 176 177 178 179 
180 181 182 183 184 185 186 187 188 
189 190 191 192 193 194 195 196 197 
198 199 200 201 202 203 204 205 206 
207 208 209 210 211 212 213 214 215 
216 217 218 219 220 221 222 223 224 

POINT_DATA 225
SCALARS Curvature double
LOOKUP_TABLE default
0.15985865156 0.15193522187 0.14504004814 0.13926453965 0.13466790934 0.13125670833 0.12901999859 0.1279161021 0.12789685804 
0.12889986158 0.13087206424 0.13376741075 0.13755799139 0.14223156823 0.14778214905 0.15419836727 0.16142779636 0.16935059264 
0.17775210213 0.1863065183 0.19458194482 0.20208203445 0.20828708947 0.21272943164 0.21503121191 0.21503143727 0.2127518134 
0.20841371905 0.20239398137 0.19517664734 0.18728805972 0.1792327287 0.1714457911 0.16428321559 0.15798162907 0.15268268888 
0.14841783977 0.14514495822 0.14275808554 0.14111910739 0.1400887993 0.13953916696 0.13938355374 0.13956402433 0.14006475244 
0.14087722022 0.14199318398 0.14337157921 0.14493042066 0.14654400817 0.14805715101 0.14931837508 0.15020630666 0.1506578628 
0.150672503 0.15032055428 0.14971844687 0.14902173973 0.14841227252 0.1481157012 0.14840139013 0.14961154731 0.15214723657 
0.15648149277 0.16311266005 0.17253423796 0.18515980153 0.20133152863 0.22124358222 0.24493728585 0.27219651871 0.30242849538 
0.33446040455 0.36627423078 0.39491601418 0.41681071623 0.42834511706 0.42736399177 0.41377559621 0.38971942238 0.35861728137 
0.32402019069 0.28869087725 0.25450618653 0.22247530837 0.19305096568 0.16633672274 0.14229421521 0.12082086603 0.10186213958 
0.085464341992 0.071848053798 0.061456714762 0.054801235525 0.052178166443 0.053208628142 0.056883894819 0.062053721084 0.06780819488 
0.073570054998 0.079019596691 0.084036886033 0.088617477446 0.09281989869 0.096702498688 0.10029422151 0.10356987344 0.10646711952 
0.10890565854 0.11081311375 0.11215751217 0.11295072109 0.11326851274 0.11323292565 0.11300318407 0.11273852758 0.11257591216 
0.11259854407 0.11282091833 0.11317774812 0.11353725927 0.11372733723 0.11358451546 0.11298997344 0.11191835347 0.11044597038 
0.10876533514 0.10715234273 0.10592007204 0.10535598816 0.10564326273 0.10682736435 0.10879547879 0.11131475355 0.11409618532 
0.11684622603 0.11932633789 0.12135853967 0.12285032511 0.12377016309 0.12414766667 0.12404335494 0.12353631868 0.12270441874 
0.12161881349 0.12034032721 0.1189183008 0.11740137025 0.11583513267 0.1142727216 0.11276399651 0.11136082468 0.11010052513 
0.10900570764 0.10807613521 0.10729638434 0.10664279262 0.10609528515 0.10564873691 0.10531540298 0.1051284301 0.10512626586 
0.10535194758 0.10582636937 0.10655134031 0.10748508251 0.10855369386 0.10963589774 0.11058331416 0.11122234319 0.11136816772 
0.11083407111 0.10945084678 0.10709776957 0.10369721108 0.099252868624 0.093821567824 0.087543594694 0.080597212461 0.073220800781 
0.065658474754 0.058161683375 0.05095587707 0.044232217039 0.038132609126 0.032744635306 0.028111433565 0.024247852187 0.021167199863 
0.018898236177 0.017472163302 0.016875851354 0.017019634165 0.017763459314 0.019007216911 0.020768078687 0.023214834514 0.026623762153 
0.031286502169 0.037412439695 0.045083115541 0.054261339555 0.064812680198 0.076534834797 0.089173315405 0.10241672021 0.11591566631 
0.12926678345 0.14205207313 0.15382059681 0.16417607311 0.17277152252 0.1793904697 0.18392339899 0.18643620042 0.1871282603 
0.18629499401 0.18427223416 0.18139812399 0.17797352645 0.17422690714 0.17032797083 0.1663733009 0.16242533676 0.15851213708 

