# vtk DataFile Version 5.1
vtk output
ASCII
DATASET POLYDATA
POINTS 277 double
84.508583189 84.156195757 37.04092195 84.763122518 84.070515527 36.907289384 85.017509741 83.975958096 36.779473919 
85.271091378 83.872919118 36.656707506 85.523304848 83.761916697 36.538132953 85.773661998 83.643400565 36.422941337 
86.021718628 83.51773555 36.310375648 86.267043584 83.385201252 36.199715411 86.509266124 83.24613535 36.090242449 
86.748028726 83.10082255 35.981283931 86.982972796 82.949501999 35.872203017 87.213739606 82.792391461 35.762393594 
87.439963688 82.629691142 35.651279937 87.661266781 82.461587538 35.538315977 87.877252483 82.288257041 35.422985331 
88.087501591 82.109869062 35.304802675 88.291567382 81.926588784 35.183315191 88.488960916 81.73857416 35.058097417 
88.679155065 81.545988009 34.928756441 88.861600797 81.349011904 34.794946454 89.035686723 81.147826853 34.656351851 
89.20074817 80.942626747 34.512699737 89.356062817 80.733623444 34.363764723 89.500847435 80.521053315 34.209374564 
89.634256219 80.305185531 34.04941657 89.755381801 80.086332466 33.883844709 89.863217831 79.864855489 33.712671509 
89.956653683 79.641187247 33.535978275 90.0347756 79.415879895 33.35402191 90.096576964 79.189565993 33.167112711 
90.140986872 78.962994763 32.975633956 90.167057684 78.737055138 32.780084417 90.174294666 78.512737 32.581100255 
90.162117613 78.291155602 32.379311642 90.130310137 78.073506016 32.175396954 90.079266533 77.860932028 31.970040579 
90.009325119 77.654644866 31.763836713 89.921310035 77.455741188 31.557298758 89.816435594 77.265129319 31.350810696 
89.69593316 77.083646303 31.144616747 89.561043666 76.912082997 30.938833654 89.413273737 76.750960398 30.733454829 
89.254032964 76.60073901 30.528384383 89.084636488 76.461842172 30.323465549 88.90631985 76.334658523 30.118507554 
88.720226345 76.219571835 29.913311963 88.527404421 76.116988578 29.70769681 88.328812551 76.027360934 29.501519324 
88.125329508 75.951202866 29.294698236 87.917767016 75.889100514 29.087236381 87.706884712 75.841717817 28.879242654 
87.493408825 75.809795063 28.670952021 87.278050859 75.794140642 28.462746215 87.061526701 75.795615604 28.2551737 
86.844575101 75.815109533 28.048968471 86.627973174 75.853504231 27.845067022 86.412551123 75.91166044 27.64462834 
86.199218107 75.990455951 27.449077444 85.988906245 76.090248257 27.259964784 85.782612838 76.211322125 27.079040152 
85.581430211 76.353841981 26.908275746 85.386468628 76.517501318 26.749694065 85.198725829 76.701314149 26.605103411 
85.019376232 76.904458603 26.476631445 84.849244648 77.125099752 26.365681859 84.689266816 77.361532062 26.273791115 
84.540120684 77.611585586 26.201909605 84.402326878 77.872965709 26.150584546 84.276375729 78.143439078 26.120175812 
84.162323445 78.420639741 26.11015521 84.060438786 78.702545789 26.120241959 83.970528516 78.9872012 26.149286493 
83.892389375 79.272978578 26.196057251 83.825835939 79.558536705 26.259265883 83.770520379 79.842821741 26.337332394 
83.725970828 80.125092801 26.428512678 83.691759664 80.404873261 26.531137602 83.667438213 80.681929894 26.643526759 
83.652550374 80.956245509 26.764008809 83.646646343 81.227984498 26.890943783 83.649295516 81.497454781 27.02274042 
83.660096841 81.76507174 27.157861527 83.678686384 82.031326135 27.29481895 83.704742561 82.296754821 27.432163735 
83.737990408 82.561912547 27.568475792 83.778204965 82.82734506 27.702352786 83.825212443 83.093564817 27.832396095 
83.878888869 83.361028783 27.957194505 83.939157711 83.630115202 28.075310502 84.00598618 83.90109742 28.185273244 
84.079381035 84.174115386 28.285577878 84.159381408 84.449148462 28.374685129 84.246045326 84.725990938 28.451019278 
84.339432263 85.004226521 28.512974198 84.439581428 85.283202324 28.558934626 84.546486634 85.562006566 28.587312438 
84.660115119 85.839435413 28.5964396 84.780286995 86.113988004 28.584839632 84.906599774 86.383955592 28.55148797 
85.038603145 86.647287703 28.49513166 85.175512022 86.901913143 28.415367879 85.316381829 87.145649231 28.311996802 
85.460045378 87.376482214 28.185449808 85.605183788 87.592706451 28.036723432 85.750417889 87.793019338 27.86724381 
85.894391771 87.976720367 27.678904547 86.035830335 88.143502421 27.473645325 86.173676331 88.293935886 27.253809275 
86.306965802 88.428613269 27.021295296 86.435039609 88.548874034 26.77817767 86.557406033 88.656180269 26.526207335 
86.673716613 88.752104021 26.266874738 86.783752201 88.838309839 26.001453514 86.887379196 88.916486438 25.731008167 
86.984617025 88.988400912 25.456479639 87.075500428 89.055728135 25.178627768 87.160103425 89.120098945 24.898102755 
87.238526253 89.183085671 24.615474471 87.310887851 89.246186958 24.33125895 87.377321135 89.31081351 24.045941044 
87.437966967 89.378278161 23.759992747 87.49296817 89.449781912 23.473885675 87.542465005 89.526392328 23.188096623 
87.586591566 89.6090158 22.903105194 87.62545952 89.69839013 22.619388833 87.659154941 89.795073681 22.337414253 
87.687795393 89.899338627 22.057592024 87.711437509 90.011300327 21.780288559 87.730103857 90.130890048 21.505804278 
87.743776732 90.257874899 21.234363098 87.752364344 90.391916156 20.966123948 87.755750319 90.532516752 20.701146029 
87.753791866 90.679075105 20.439401396 87.746274001 90.830977927 20.180822998 87.732936544 90.987588898 19.925305285 
87.713474316 91.148265482 19.672720924 87.687529878 91.312376403 19.422942228 87.654681471 91.479314162 19.175864318 
87.614561424 91.648468794 18.931382799 87.566740538 91.819287255 18.68945783 87.510780466 91.991255374 18.450108186 
87.446245081 92.163902289 18.213421831 87.372714653 92.336804987 17.979563632 87.289800669 92.509592503 17.74877969 
87.197081274 92.681940677 17.521425371 87.094329277 92.853583313 17.297885065 86.981342644 93.02430882 17.078624734 
86.857996974 93.193963854 16.864170671 86.72426697 93.362456609 16.655092203 86.5802278 93.529752776 16.451985199 
86.425958669 93.695858714 16.255523082 86.261819875 93.860850345 16.06625414 86.088183938 94.02483862 15.884748165 
85.905497024 94.187972252 15.711545844 85.714273725 94.350429394 15.547143365 85.515053807 94.5124063 15.392022609 
85.308435988 94.674112162 15.24659999 85.095102857 94.835757132 15.111149381 84.875699368 94.99753795 14.985945212 
84.650870809 95.159629665 14.871202636 84.421252218 95.322176693 14.767077359 84.187447498 95.485290389 14.673705284 
83.950044083 95.649042747 14.591158826 83.709620043 95.813455017 14.519369063 83.466688213 95.978501586 14.458272561 
83.221714743 96.144105738 14.407747383 82.97511628 96.31014466 14.367614854 82.727258034 96.476455629 14.337642008 
82.478448093 96.642841482 14.31760496 82.228951891 96.809076329 14.30711784 81.978977428 96.974918616 14.305776262 
81.728682557 97.140119377 14.313154733 81.478181624 97.30443204 14.328794504 81.227551437 97.46762168 14.35221297 
80.976838308 97.629473439 14.382913852 80.726065788 97.789793144 14.420423756 80.475243693 97.948427644 14.464241537 
80.22437576 98.105269342 14.513868846 79.973465649 98.260245409 14.568857628 79.722522991 98.413323696 14.628794173 
79.471569165 98.564512933 14.693306931 79.220642842 98.713862667 14.762073632 78.969803592 98.861461392 14.834825293 
78.719135113 99.007421581 14.911373431 78.468741656 99.151909752 14.991529591 78.218749237 99.295107561 15.075177324 
77.969303626 99.437217162 15.162243719 77.720567601 99.578458386 15.252687951 77.472717356 99.719065453 15.346489927 
77.225939623 99.859283868 15.443641868 76.980433971 99.999369961 15.544149498 76.736378568 100.13958865 15.647949818 
76.493951109 100.28020845 15.754972132 76.253313275 100.42150505 15.865096961 76.014604566 100.56376217 15.978145151 
75.77793778 100.70727225 16.093871616 75.543411489 100.852351 16.211975601 75.311063072 100.99930454 16.332049827 
75.080905672 101.14845382 16.453626844 74.852924211 101.30013276 16.576169912 74.627075843 101.45468444 16.69907245 
74.403295746 101.61245873 16.821662449 74.18150546 101.77380808 16.943209908 73.961631376 101.93910328 17.062921204 
73.743590336 102.10867722 17.179968165 73.527314295 102.2828416 17.293492272 73.312763305 102.46189107 17.402599421 
73.099929849 102.6460837 17.50637341 72.888846863 102.83563072 17.603886386 72.679593633 103.03068573 17.694210591 
72.47230004 103.23133559 17.776429963 72.267166882 103.43763498 17.849577452 72.06441367 103.64946626 17.912871395 
71.864325781 103.86667282 17.965518558 71.667235169 104.08901506 18.006789254 71.473515581 104.31617358 18.036026074 
71.283576794 104.54775411 18.052652906 71.097875883 104.78330766 18.056131747 70.916888693 105.02231159 18.046042205 
70.741074252 105.26417391 18.022144891 70.570928483 105.50828287 17.984208294 70.406957203 105.75399238 17.932076819 
70.249671121 106.00062789 17.865671298 70.099590971 106.24749115 17.784968776 69.957284768 106.49385429 17.689932597 
69.823194894 106.73898208 17.580808603 69.697809188 106.98212871 17.457793311 69.58159428 107.22254137 17.32115427 
69.474986462 107.45946729 17.171234132 69.37841793 107.69214528 17.008410482 69.292272666 107.91982516 16.833149578 
69.216763523 108.14184512 16.64612077 69.152104736 108.357557 16.447974719 69.098433311 108.56636818 16.239425744 
69.055799609 108.76775476 16.021243395 69.024274512 108.96118746 15.794156162 69.003616989 109.14638093 15.55909266 
68.993615724 109.32305812 15.316886388 68.993988177 109.49102015 15.068353279 69.004384373 109.65014494 14.814279887 
69.024397424 109.80038021 14.555410646 69.053645512 109.94166351 14.292409988 69.091570802 110.07412198 14.02594696 
69.137668512 110.19785429 13.756591957 69.191426705 110.31298502 13.484851793 69.252330294 110.41966025 13.21117316 
69.31986673 110.5180415 12.935945988 69.393530277 110.6083017 12.659507853 69.47282561 110.69062288 12.382148935 
69.557302176 110.76514444 12.104113955 69.646458278 110.83211457 11.825618624 69.73984369 110.8917434 11.546840247 
69.837027798 110.94425135 11.267927285 69.937599588 110.98987324 10.989002967 70.041169384 111.02885971 10.710168298 
70.147370549 111.06147819 10.431504682 70.255862404 111.08801001 10.15307644 70.366340612 111.10871904 9.8749347517 
70.47850041 111.12396803 9.5971129572 70.592081622 111.13408763 9.3196341602 70.706850534 111.13941883 9.042510393 
70.822598517 111.14031006 8.7657435845 70.939141047 111.13711438 8.4893268138 71.056317619 111.13018112 8.2132462181 
71.173989387 111.11985161 7.937482229 71.292030331 111.10650542 7.6620054054 71.410333858 111.09049349 7.3867831079 
71.528806301 111.07216309 7.1117779348 71.647364992 111.05185735 6.8369485042 71.765936132 111.02991535 6.562250041 
71.884452003 111.0066682 6.2876349448 72.002849303 110.98245307 6.0130522605 72.121068868 110.95760601 5.7384493936 
72.239053092 110.93245655 5.4637728236 72.356745164 110.90733386 5.1889685083 72.47408823 110.88256746 4.91398271 
72.591024716 110.85848769 4.6387629035 
VERTICES 278 277
OFFSETS vtktypeint64
0 1 2 3 4 5 6 7 8 
9 10 11 12 13 14 15 16 17 
18 19 20 21 22 23 24 25 26 
27 28 29 30 31 32 33 34 35 
36 37 38 39 40 41 42 43 44 
45 46 47 48 49 50 51 52 53 
54 55 56 57 58 59 60 61 62 
63 64 65 66 67 68 69 70 71 
72 73 74 75 76 77 78 79 80 
81 82 83 84 85 86 87 88 89 
90 91 92 93 94 95 96 97 98 
99 100 101 102 103 104 105 106 107 
108 109 110 111 112 113 114 115 116 
117 118 119 120 121 122 123 124 125 
126 127 128 129 130 131 132 133 134 
135 136 137 138 139 140 141 142 143 
144 145 146 147 148 149 150 151 152 
153 154 155 156 157 158 159 160 161 
162 163 164 165 166 167 168 169 170 
171 172 173 174 175 176 177 178 179 
180 181 182 183 184 185 186 187 188 
189 190 191 192 193 194 195 196 197 
198 199 200 201 202 203 204 205 206 
207 208 209 210 211 212 213 214 215 
216 217 218 219 220 221 222 223 224 
225 226 227 228 229 230 231 232 233 
234 235 236 237 238 239 240 241 242 
243 244 245 246 247 248 249 250 251 
252 253 254 255 256 257 258 259 260 
261 262 263 264 265 266 267 268 269 
270 271 272 273 274 275 276 277 
CONNECTIVITY vtktypeint64
0 1 2 3 4 5 6 7 8 
9 10 11 12 13 14 15 16 17 
18 19 20 21 22 23 24 25 26 
27 28 29 30 31 32 33 34 35 
36 37 38 39 40 41 42 43 44 
45 46 47 48 49 50 51 52 53 
54 55 56 57 58 59 60 61 62 
63 64 65 66 67 68 69 70 71 
72 73 74 75 76 77 78 79 80 
81 82 83 84 85 86 87 88 89 
90 91 92 93 94 95 96 97 98 
99 100 101 102 103 104 105 106 107 
108 109 110 111 112 113 114 115 116 
117 118 119 120 121 122 123 124 125 
126 127 128 129 130 131 132 133 134 
135 136 137 138 139 140 141 142 143 
144 145 146 147 148 149 150 151 152 
153 154 155 156 157 158 159 160 161 
162 163 164 165 166 167 168 169 170 
171 172 173 174 175 176 177 178 179 
180 181 182 183 184 185 186 187 188 
189 190 191 192 193 194 195 196 197 
198 199 200 201 202 203 204 205 206 
207 208 209 210 211 212 213 214 215 
216 217 218 219 220 221 222 223 224 
225 226 227 228 229 230 231 232 233 
234 235 236 237 238 239 240 241 242 
243 244 245 246 247 248 249 250 251 
252 253 254 255 256 257 258 259 260 
261 262 263 264 265 266 267 268 269 
270 271 272 273 274 275 276 
LINES 2 277
OFFSETS vtktypeint64
0 277 
CONNECTIVITY vtktypeint64
0 1 2 3 4 5 6 7 8 
9 10 11 12 13 14 15 16 17 
18 19 20 21 22 23 24 25 26 
27 28 29 30 31 32 33 34 35 
36 37 38 39 40 41 42 43 44 
45 46 47 48 49 50 51 52 53 
54 55 56 57 58 59 60 61 62 
63 64 65 66 67 68 69 70 71 
72 73 74 75 76 77 78 79 80 
81 82 83 84 85 86 87 88 89 
90 91 92 93 94 95 96 97 98 
99 100 101 102 103 104 105 106 107 
108 109 110 111 112 113 114 115 116 
117 118 119 120 121 122 123 124 125 
126 127 128 129 130 131 132 133 134 
135 136 137 138 139 140 141 142 143 
144 145 146 147 148 149 150 151 152 
153 154 155 156 157 158 159 160 161 
162 163 164 165 166 167 168 169 170 
171 172 173 174 175 176 177 178 179 
180 181 182 183 184 185 186 187 188 
189 190 191 192 193 194 195 196 197 
198 199 200 201 202 203 204 205 206 
207 208 209 210 211 212 213 214 215 
216 217 218 219 220 221 222 223 224 
225 226 227 228 229 230 231 232 233 
234 235 236 237 238 239 240 241 242 
243 244 245 246 247 248 249 250 251 
252 253 254 255 256 257 258 259 260 
261 262 263 264 265 266 267 268 269 
270 271 272 273 274 275 276 
POINT_DATA 277
SCALARS Curvature double
LOOKUP_TABLE default
0.13263420592 0.12246716566 0.11323254858 0.10504063889 0.097964052187 0.092060914567 0.087379431436 0.083956399183 0.081781933534 
0.080811988188 0.080973157221 0.082166177627 0.08427965171 0.087199178324 0.090812656857 0.095029760425 0.099790797517 0.10506082326 
0.11081709485 0.11704132403 0.12373333803 0.13089839356 0.13853922406 0.14665376729 0.15522503829 0.1642017619 0.17344756365 
0.18275597603 0.1919037562 0.20064402791 0.20861690287 0.21530446706 0.22020787539 0.22298556217 0.22345216901 0.22158562026 
0.21747013477 0.21141064569 0.20391509223 0.19555045253 0.18696822397 0.17878141429 0.17148565227 0.16547736184 0.16107644903 
0.15852208454 0.15795094507 0.15937211563 0.16271333646 0.16785862001 0.17463111476 0.1828407567 0.19229364093 0.20279067955 
0.21409499623 0.22587117823 0.23773738744 0.24942694981 0.26070857297 0.27121103417 0.28037258913 0.28767269879 0.29294871181 
0.2960518656 0.29686109488 0.29519946198 0.29107648011 0.2846312986 0.27602356893 0.26556378193 0.25350261322 0.2400372745 
0.22531255221 0.20962193445 0.19339045398 0.17696025761 0.1605389291 0.1443543091 0.12879451615 0.1143547516 0.10160771009 
0.091246226388 0.084090103319 0.080913984033 0.082083201634 0.08732361841 0.095903632422 0.1069974908 0.11987508146 0.13397976618 
0.14894901812 0.16458394933 0.18074295772 0.19723385357 0.21381019482 0.23019850847 0.24604738046 0.26087939649 0.27415996722 
0.28518847394 0.29311608359 0.29699529512 0.29631485092 0.29113424774 0.28168200048 0.26823519324 0.25130945518 0.23197990629 
0.21125838417 0.18998847274 0.16879364201 0.14822042845 0.12880715745 0.11106109287 0.095546720428 0.082986447535 0.074198010731 
0.06977480996 0.069615457485 0.072889221584 0.078387762561 0.084897947035 0.091390819018 0.097106983433 0.10161708124 0.10467729973 
0.1062168058 0.10628884823 0.10504741502 0.10273265679 0.099671556217 0.096276214978 0.092978742814 0.090169077142 0.088190416443 
0.087318297958 0.087693913501 0.089325607939 0.092088360836 0.095791657469 0.10019176974 0.10501404757 0.11000092582 0.11494324095 
0.11966738934 0.12400676929 0.12779752551 0.13093192358 0.13341068803 0.13525813545 0.13648002362 0.13709133542 0.137147896 
0.13675965132 0.13602654995 0.13504617856 0.13389845975 0.13263271073 0.13125866314 0.12976657316 0.12816852936 0.12646529977 
0.12459742566 0.12246840736 0.12000123514 0.11717020851 0.11396561577 0.11037426611 0.10638877262 0.10203887343 0.097382285789 
0.092488087139 0.087448178825 0.082356325491 0.077304894037 0.072376107797 0.067634370205 0.063133295348 0.058920859314 0.055038225401 
0.05152523544 0.048409169241 0.045710911505 0.043470683894 0.041706981366 0.040443842873 0.039674440436 0.039351915012 0.039398898745 
0.03969783097 0.040107567166 0.040466087489 0.040622124218 0.040493072918 0.040092615713 0.039500873093 0.038895685146 0.038552461967 
0.038843553633 0.040170777758 0.042856909604 0.04704163238 0.052651852592 0.059475150412 0.06724553757 0.075707716082 0.084617719837 
0.093746708753 0.10288069969 0.11182436993 0.12041602942 0.12852020478 0.1360341692 0.14291013427 0.14912104464 0.15463855099 
0.15944223099 0.16357345916 0.16717327253 0.1703764437 0.17323529616 0.17577110669 0.17804100464 0.18012828255 0.18207339074 
0.18385297701 0.18540783421 0.18665797329 0.18749984139 0.18783246662 0.18760587941 0.18677757523 0.18526065074 0.18295276901 
0.17983666591 0.1760014974 0.17155947335 0.16657683234 0.16111294732 0.15527976925 0.14922360709 0.143074118 0.13693503998 
0.1308948657 0.12501835227 0.11934908021 0.1139056176 0.10869083431 0.103705027 0.098924444229 0.094307507002 0.089809998129 
0.085395013702 0.081033751231 0.076700706665 0.072374212551 0.068043800491 0.063709104313 0.059374191411 0.055047067877 0.050741229051 
0.046470437254 0.042248704967 0.038084585789 0.033981368398 0.029943099807 0.025972476008 0.022072464502 0.018243187373 0.014487915541 
0.010829336495 0.0073535833239 0.0044494216985 0.0037560093315 0.0060702099598 0.0094037507658 0.01300131133 
