# vtk DataFile Version 5.1
vtk output
ASCII
DATASET POLYDATA
POINTS 233 double
83.660030258 84.148369897 42.75106909 83.777767676 84.083364943 42.482930448 83.905365074 84.013523674 42.220580038 
84.042562426 83.93900358 41.964433258 84.189041995 83.859989274 41.714856427 84.344362675 83.776720958 41.472100864 
84.508049373 83.689445692 41.236349815 84.679585447 83.598414066 41.007705622 84.858414878 83.503869635 40.786184186 
85.043950511 83.406033962 40.57171751 85.235580334 83.305091581 40.364158349 85.432671797 83.201175952 40.163286324 
85.634574157 83.094357665 39.968814588 85.840619055 82.984635255 39.780396667 86.050119709 82.87192982 39.597632947 
86.262368774 82.75608284 39.420076919 86.47663569 82.636857798 39.2472417 86.692162945 82.513944407 39.07860688 
86.90815976 82.386939934 38.913643895 87.12379102 82.255419379 38.751771079 87.338186274 82.118899153 38.592417047 
87.550425732 81.976850145 38.435024058 87.759531368 81.828711643 38.27905959 87.964458336 81.673901548 38.12403458 
88.164064683 81.511801774 37.969524374 88.357151994 81.341837473 37.815188652 88.54245072 81.163465909 37.660802285 
88.718597622 80.976173894 37.506277442 88.884157619 80.779522727 37.351685508 89.037643822 80.573182302 37.197275693 
89.177550338 80.356970204 37.043485024 89.302398856 80.130893527 36.890933945 89.410799856 79.895189039 36.740403109 
89.50152471 79.650355185 36.592786298 89.573496115 79.397134362 36.449041055 89.626117178 79.136613903 36.310040286 
89.65907161 78.870067226 36.176520819 89.672415468 78.598926906 36.04898013 89.666556463 78.324701522 35.927611049 
89.642197099 78.048890755 35.81227243 89.60025387 77.772914439 35.702498983 89.541718998 77.498074298 35.597554718 
89.467601453 77.225552677 35.496472475 89.379054673 76.956370808 35.398079309 89.277051075 76.691457339 35.301127574 
89.162268354 76.431783335 35.204283625 89.035695586 76.178133697 35.106175077 88.897836216 75.931519498 35.005378218 
88.749348961 75.692916315 34.900489329 88.590724589 75.463510242 34.790076915 88.422378974 75.244773435 34.672649303 
88.244878975 75.038294393 34.546832191 88.058703411 74.846224015 34.411140876 87.864501261 74.671216343 34.264129037 
87.663249148 74.51635218 34.104582795 87.456281823 74.38550357 33.931470949 87.245553654 74.283573514 33.744112881 
87.033980336 74.215508695 33.542936575 86.825606662 74.187225329 33.32936579 86.625647578 74.203409484 33.106771587 
86.440104526 74.267058174 32.88029097 86.2747095 74.377804266 32.656351996 86.133631482 74.531598614 32.441329723 
86.018657334 74.72169638 32.240146685 85.929528416 74.940613738 32.05575564 85.864013671 75.180922891 31.888839781 
85.81964584 75.436899212 31.739048813 85.793391302 75.703856236 31.604911713 85.782559464 75.978454985 31.484738604 
85.784693643 76.258270656 31.376692891 85.797672733 76.541592241 31.278998879 85.819599247 76.827201574 31.189918486 
85.848733381 77.114241339 31.107747219 85.8836336 77.402141923 31.030993543 85.922931248 77.690505434 30.958192572 
85.965348052 77.979064873 30.887954607 86.009746919 78.267640612 30.819015648 86.054997645 78.556102459 30.750152767 
86.100070092 78.844345982 30.680267944 86.143990427 79.132267036 30.608353247 86.185870141 79.419751199 30.533536934 
86.224951442 79.706668108 30.455120999 86.260613883 79.992867356 30.372566806 86.292412076 80.278186721 30.285513592 
86.320099133 80.562462958 30.193770722 86.343634944 80.845542598 30.097291072 86.363177746 81.12728929 29.996130556 
86.379059274 81.407584771 29.890399157 86.391748392 81.68632299 29.780211791 86.401808091 81.963398652 29.665645504 
86.409852063 82.238692506 29.546707231 86.416504483 82.512056371 29.423314822 86.422365722 82.783298621 29.295287877 
86.427984456 83.052171625 29.162347725 86.4338385 83.318349441 29.024101812 86.440315046 83.581447793 28.880111233 
86.447698062 83.841001486 28.729870567 86.456164905 84.096462225 28.572829934 86.465783663 84.347201982 28.408423944 
86.476516052 84.592517803 28.236099188 86.488223875 84.831641422 28.055344516 86.500681673 85.063754795 27.865723272 
86.513594125 85.28801298 27.666906186 86.52661972 85.503574141 27.458701491 86.539398911 85.709637377 27.241080109 
86.551585175 85.90548582 27.014191275 86.562876592 86.090532826 26.778366373 86.573043384 86.264365603 26.534107951 
86.581949402 86.426781992 26.28206506 86.589562513 86.577814469 26.022996669 86.595954662 86.71773858 25.757728474 
86.601289111 86.847063143 25.487107938 86.605799029 86.966504936 25.211964027 86.60975773 87.076949575 24.933074778 
86.613445885 87.179405511 24.651145784 86.617117442 87.274949401 24.366796996 86.620967967 87.364682805 24.080561772 
86.625104322 87.449709941 23.792895909 86.62952244 87.531059835 23.504171642 86.634091338 87.609667145 23.214690211 
86.638542412 87.686343952 22.924689163 86.642466901 87.761759453 22.634349787 86.645318965 87.836425802 22.343804434 
86.646426556 87.910694211 22.053145557 86.645007486 87.984758243 21.762436448 86.64017783 88.058666348 21.471725171 
86.631006796 88.132343048 21.181060972 86.616529381 88.205618287 20.890512836 86.595773897 88.278262908 20.600189066 
86.567796288 88.350027403 20.310255026 86.53171061 88.420682468 20.020947267 86.486716031 88.490056745 19.73258175 
86.432119383 88.558070632 19.445555493 86.367350594 88.624760465 19.160341257 86.291970753 88.690293096 18.877477045 
86.20567231 88.754967534 18.597552231 86.108272861 88.819205557 18.321193077 85.999703973 88.883531734 18.049049613 
85.879997868 88.948545917 17.78178499 85.749275043 89.014891854 17.520067117 85.607733892 89.083223749 17.264561518 
85.45564256 89.154173295 17.015924236 85.293323637 89.228321571 16.774800789 85.121161151 89.306170484 16.541809364 
84.939617848 89.388110274 16.317504691 84.749188145 89.474422743 16.10239804 84.550407721 89.565271055 15.896930633 
84.343843694 89.660703029 15.701462018 84.130083094 89.760661741 15.516262429 83.909720428 89.86500158 15.34151041 
83.683345703 89.973508181 15.177296053 83.451534076 90.085918919 15.023628498 83.214837888 90.201942612 14.880446619 
82.973781394 90.32127609 14.74763046 82.728852417 90.44362151 14.625028221 82.480510896 90.568687986 14.512443282 
82.229196998 90.696189292 14.40960542 81.975308932 90.825864004 14.316242065 81.719214187 90.957466333 14.232049841 
81.461249656 91.090764158 14.156692511 81.201721134 91.225536225 14.089797401 80.940902227 91.361569383 14.030951634 
80.679032793 91.498656029 13.979698888 80.416317117 91.636591942 13.935537962 80.152921054 91.775175439 13.897936382 
79.888973805 91.914202779 13.866304881 79.624566031 92.053469628 13.840016566 79.35974992 92.19277157 13.818436949 
79.094543582 92.331903479 13.800926196 78.828935973 92.470661051 13.786854507 78.562893645 92.608844183 13.775618084 
78.296368543 92.746261689 13.766654286 78.029306583 92.882737886 13.759454884 77.761656002 93.018120167 13.753577052 
77.493374946 93.152287179 13.748650639 77.22443624 93.285153882 13.744383345 76.954835527 93.416685706 13.740557171 
76.684592208 93.546900575 13.737028143 76.41374883 93.675868593 13.733718004 76.14237141 93.803714075 13.730602574 
75.870547475 93.930612571 13.727697953 75.598383389 94.056785568 13.72504502 75.326000941 94.182492557 13.722692669 
75.053533586 94.308021365 13.720680754 74.781122326 94.433677007 13.719023893 74.508911409 94.559769871 13.71769643 
74.237044114 94.686604138 13.716619825 73.965659362 94.814468303 13.715652202 73.694888332 94.943625935 13.714580139 
73.424848656 95.074301592 13.713116414 73.155647257 95.206684618 13.710900306 72.88738021 95.340925594 13.707500889 
72.620136154 95.477138754 13.702423763 72.354001851 95.615406962 13.695119731 72.08906985 95.755788937 13.684994746 
71.825447743 95.898327746 13.671420211 71.563268284 96.043059281 13.65374261 71.302708971 96.190031432 13.631265459 
71.043979644 96.339279095 13.603326301 70.787351791 96.490857463 13.569246066 70.533163888 96.644837447 13.528345155 
70.281829094 96.801304221 13.479950979 70.033842269 96.960353947 13.423404416 69.789784699 97.122087349 13.35806878 
69.550325356 97.286600163 13.283342431 69.316217016 97.453970486 13.198675636 69.08829017 97.624245688 13.10358432 
68.86743027 97.797423386 12.99768159 68.654534331 97.97343069 12.880720046 68.450500553 98.152120629 12.752572108 
68.256176886 98.333257762 12.613258491 68.072317174 98.516513747 12.462949645 67.899540368 98.701469395 12.301955328 
67.738298306 98.887622569 12.130702101 67.588855943 99.074400635 11.949701991 67.451286674 99.261175207 11.759515854 
67.325481622 99.44727671 11.560716852 67.211170967 99.632006941 11.353857956 67.107952163 99.814647738 11.13944672 
67.015321405 99.994465735 10.917928684 66.93270379 100.1707126 10.689679082 66.859479947 100.34262191 10.455002103 
66.795042182 100.50937699 10.214109884 66.738716475 100.67015604 9.9671973456 66.689833527 100.82410379 9.7144162716 
66.647751903 100.97029919 9.4558758571 66.61183962 101.10775561 9.1916743802 66.581472079 101.23541008 8.9219196169 
66.556028019 101.35211509 8.6467526218 66.534883894 101.45663464 8.3663753162 66.517407895 101.54764753 8.0810822159 
66.502954535 101.62376017 7.7912954149 66.490860241 101.68354012 7.4976025849 
VERTICES 234 233
OFFSETS vtktypeint64
0 1 2 3 4 5 6 7 8 
9 10 11 12 13 14 15 16 17 
18 19 20 21 22 23 24 25 26 
27 28 29 30 31 32 33 34 35 
36 37 38 39 40 41 42 43 44 
45 46 47 48 49 50 51 52 53 
54 55 56 57 58 59 60 61 62 
63 64 65 66 67 68 69 70 71 
72 73 74 75 76 77 78 79 80 
81 82 83 84 85 86 87 88 89 
90 91 92 93 94 95 96 97 98 
99 100 101 102 103 104 105 106 107 
108 109 110 111 112 113 114 115 116 
117 118 119 120 121 122 123 124 125 
126 127 128 129 130 131 132 133 134 
135 136 137 138 139 140 141 142 143 
144 145 146 147 148 149 150 151 152 
153 154 155 156 157 158 159 160 161 
162 163 164 165 166 167 168 169 170 
171 172 173 174 175 176 177 178 179 
180 181 182 183 184 185 186 187 188 
189 190 191 192 193 194 195 196 197 
198 199 200 201 202 203 204 205 206 
207 208 209 210 211 212 213 214 215 
216 217 218 219 220 221 222 223 224 
225 226 227 228 229 230 231 232 233 

CONNECTIVITY vtktypeint64
0 1 2 3 4 5 6 7 8 
9 10 11 12 13 14 15 16 17 
18 19 20 21 22 23 24 25 26 
27 28 29 30 31 32 33 34 35 
36 37 38 39 40 41 42 43 44 
45 46 47 48 49 50 51 52 53 
54 55 56 57 58 59 60 61 62 
63 64 65 66 67 68 69 70 71 
72 73 74 75 76 77 78 79 80 
81 82 83 84 85 86 87 88 89 
90 91 92 93 94 95 96 97 98 
99 100 101 102 103 104 105 106 107 
108 109 110 111 112 113 114 115 116 
117 118 119 120 121 122 123 124 125 
126 127 128 129 130 131 132 133 134 
135 136 137 138 139 140 141 142 143 
144 145 146 147 148 149 150 151 152 
153 154 155 156 157 158 159 160 161 
162 163 164 165 166 167 168 169 170 
171 172 173 174 175 176 177 178 179 
180 181 182 183 184 185 186 187 188 
189 190 191 192 193 194 195 196 197 
198 199 200 201 202 203 204 205 206 
207 208 209 210 211 212 213 214 215 
216 217 218 219 220 221 222 223 224 
225 226 227 228 229 230 231 232 
LINES 2 233
OFFSETS vtktypeint64
0 233 
CONNECTIVITY vtktypeint64
0 1 2 3 4 5 6 7 8 
9 10 11 12 13 14 15 16 17 
18 19 20 21 22 23 24 25 26 
27 28 29 30 31 32 33 34 35 
36 37 38 39 40 41 42 43 44 
45 46 47 48 49 50 51 52 53 
54 55 56 57 58 59 60 61 62 
63 64 65 66 67 68 69 70 71 
72 73 74 75 76 77 78 79 80 
81 82 83 84 85 86 87 88 89 
90 91 92 93 94 95 96 97 98 
99 100 101 102 103 104 105 106 107 
108 109 110 111 112 113 114 115 116 
117 118 119 120 121 122 123 124 125 
126 127 128 129 130 131 132 133 134 
135 136 137 138 139 140 141 142 143 
144 145 146 147 148 149 150 151 152 
153 154 155 156 157 158 159 160 161 
162 163 164 165 166 167 168 169 170 
171 172 173 174 175 176 177 178 179 
180 181 182 183 184 185 186 187 188 
189 190 191 192 193 194 195 196 197 
198 199 200 201 202 203 204 205 206 
207 208 209 210 211 212 213 214 215 
216 217 218 219 220 221 222 223 224 
225 226 227 228 229 230 231 232 
POINT_DATA 233
SCALARS Curvature double
LOOKUP_TABLE default
0.14400355408 0.14253269498 0.14035722819 0.1374928011 0.13396972717 0.12983079401 0.12512527833 0.11990738652 0.11423589754 
0.10817271131 0.10178768591 0.095158863552 0.088392826739 0.081640560445 0.075136571045 0.069244069928 0.064486948091 0.06154981597 
0.061157387588 0.063789258498 0.069486427607 0.077903386228 0.088516202964 0.10080576317 0.11432570968 0.12869768521 0.14359058669 
0.15868969804 0.17366541162 0.18814801962 0.20171613309 0.2138761274 0.22407938866 0.2317634117 0.23641394571 0.23766905183 
0.23537137802 0.2296574384 0.22097140933 0.21001123602 0.19765079354 0.18486843765 0.17269936154 0.16217231571 0.1542828922 
0.15002566016 0.15009082536 0.15501899206 0.16494297154 0.17984190953 0.19966052159 0.22433521074 0.25402811078 0.28898074291 
0.32934798621 0.37493236785 0.42474937362 0.47604288964 0.52346536961 0.55890686374 0.57381900816 0.56324879065 0.52916860978 
0.47918291177 0.42212172096 0.36480704874 0.31101379158 0.26229727579 0.21887883696 0.1804076249 0.14633374633 0.11609956267 
0.089273948238 0.065725511748 0.045898987121 0.031570465729 0.027051382514 0.032737183668 0.042517862259 0.052332644603 0.060657011937 
0.066886828578 0.070822072099 0.072487889669 0.072137947749 0.070180449305 0.067164605167 0.063718858987 0.060514457545 0.058216215931 
0.057384279566 0.058412787735 0.061421937312 0.06630072766 0.07275475089 0.080446311429 0.089037386162 0.098229832187 0.10773755711 
0.11727178275 0.12653312676 0.13518315709 0.14287471296 0.14922273804 0.15386165496 0.15643688107 0.15668299324 0.15441876494 
0.14961517554 0.14236890113 0.13294754476 0.12171390622 0.10914777461 0.095741266811 0.082000403547 0.068373689588 0.05525580933 
0.042969579321 0.03179823223 0.022205778077 0.01548077698 0.014640662731 0.020032432398 0.028417303965 0.038110632209 0.048557497187 
0.059437950482 0.070434282858 0.081211635195 0.091415642485 0.10073957127 0.10893668481 0.11588346265 0.12157172603 0.12612668229 
0.12976652554 0.13277371675 0.135429966 0.13795336745 0.14046499788 0.14297870039 0.14540299884 0.147571076 0.14927459052 
0.15031978825 0.15055019894 0.14987931728 0.14829412459 0.1458549131 0.14268429857 0.138933921 0.13477150968 0.13034595342 
0.12577926891 0.12115134727 0.11649639828 0.11181162702 0.10705704882 0.10217435953 0.097089318751 0.091730854192 0.086036996522 
0.079969292013 0.073525933233 0.066741003619 0.059706205614 0.052552820488 0.045470798301 0.038688488262 0.032479382647 0.027146874964 
0.022975040602 0.020138645114 0.018536878776 0.017772069534 0.017310317052 0.016695976119 0.015655783252 0.014068709308 0.011948290051 
0.0094018338714 0.0066790039502 0.0044221253585 0.0042850309231 0.0065430883608 0.0096032015376 0.01283060494 0.016101420778 0.019446870902 
0.022985197194 0.026855053695 0.031191209506 0.036082345227 0.041565066707 0.047626078678 0.05421941377 0.061287271442 0.06877790703 
0.076649838986 0.084873866245 0.093428340502 0.10227866966 0.11136589615 0.12059096866 0.1297996478 0.13878717288 0.14728959016 
0.15501033042 0.16163611939 0.1668724313 0.17047982217 0.17230148549 0.1723003027 0.17055310968 0.16726562504 0.16273473231 
0.15734129562 0.15150220141 0.14565490796 0.14022685431 0.13561671885 0.13218062319 0.13021530117 0.12993703728 0.13147060733 
0.1348621398 0.14008331234 0.14704450003 0.15560959373 0.16559783498 0.17678298405 0.18887589575 0.20150772376 
