# vtk DataFile Version 5.1
vtk output
ASCII
DATASET POLYDATA
POINTS 242 double
84.387680689 88.433866284 35.66331056 84.572400009 88.544465193 35.454440423 84.766965227 88.644149952 35.24904413 
84.97035425 88.73249889 35.047033058 85.181744026 88.80880177 34.848353617 85.400025297 88.872760007 34.65279288 
85.624257194 88.923761692 34.4601766 85.853347839 88.961442701 34.27023187 86.08619715 88.985475577 34.082654666 
86.321706888 88.995433768 33.897132894 86.558715042 88.990990089 33.71331519 86.796022592 88.972015124 33.530817074 
87.032415774 88.938373969 33.349248982 87.266656691 88.890053778 33.168203191 87.497473365 88.827109367 32.987252724 
87.723638072 88.749908456 32.805951771 87.943968341 88.658961156 32.623844392 88.157342823 88.554927627 32.440463754 
88.362730954 88.438628494 32.255339016 88.559210229 88.311017307 32.068005874 88.745901099 88.173079059 31.877999086 
88.922166186 88.025988762 31.684925239 89.087447193 87.870877222 31.488443863 89.241280356 87.70883332 31.288293502 
89.38325485 87.540860863 31.084301771 89.513003741 87.367862565 30.876405789 89.630387961 87.190673327 30.664726297 
89.735222536 87.009935564 30.449487813 89.827246891 86.826115112 30.231024556 89.906368278 86.639558212 30.009845278 
89.972520279 86.450458497 29.786576261 90.025519863 86.258852723 29.561936873 90.065114287 86.064655801 29.336762028 
90.091230454 85.867742627 29.111983146 90.103616044 85.667919267 28.888601793 90.101897086 85.464974025 28.667713381 
90.085738911 85.258760927 28.450471224 90.054854723 85.049252791 28.238035775 90.008900129 84.836561208 28.031577948 
89.947596755 84.621000993 27.832206183 89.870789961 84.403121448 27.640887401 89.778426303 84.183707077 27.458404841 
89.670815092 83.96377029 27.285140293 89.548457122 83.744462763 27.121108562 89.41206398 83.527006925 26.965911982 
89.262531405 83.312617968 26.818746782 89.100752528 83.102505052 26.678520098 88.927917865 82.897706646 26.543720869 
88.745164972 82.699155394 26.412699527 88.553432782 82.507868821 26.283714151 88.353980681 82.324533838 26.154887752 
88.147743144 82.150146789 26.024335928 87.935903617 81.985444325 25.890231842 87.719500288 81.831577667 25.750665644 
87.499800826 81.689506812 25.60394176 87.27810808 81.560725529 25.448241835 87.055981039 81.446656327 25.282065722 
86.835202526 81.349113361 25.104014575 86.61793148 81.270330083 24.912872584 86.406631087 81.212426628 24.708097402 
86.20418205 81.177871875 24.489603033 86.013811632 81.169107219 24.25811322 85.838946616 81.188306634 24.015328767 
85.68297269 81.237104328 23.763996305 85.548944918 81.316359094 23.507827679 85.439310774 81.426015207 23.251274703 
85.355717061 81.565097943 22.999211521 85.299146273 81.73202616 22.756718354 85.269325669 81.924162645 22.528555836 
85.265489434 82.138678933 22.319193389 85.286321313 82.372474085 22.132712635 85.33008216 82.622259826 21.972813259 
85.394726721 82.88459992 21.842911007 85.477601296 83.155742885 21.745523405 85.575854844 83.431904252 21.682657632 
85.68633643 83.709266487 21.655453465 85.805693869 83.984159857 21.664019088 85.930531988 84.253301555 21.707346367 
86.057610627 84.514043371 21.783359138 86.184039556 84.764559364 21.889112961 86.307421222 85.003917798 22.021107256 
86.425910586 85.232029303 22.175619843 86.538193687 85.44950375 22.348990242 86.643410902 85.657470299 22.537806059 
86.740908072 85.857290525 22.739167469 86.830554468 86.050836217 22.950091767 86.912170856 86.239918587 23.168212995 
86.985859261 86.426546186 23.391222138 87.051706953 86.612730413 23.617040555 87.109949875 86.800505924 23.843629331 
87.16080508 86.991885801 24.068974876 87.204582956 87.188796588 24.291010654 87.241632423 87.393006664 24.507603402 
87.272287294 87.606159155 24.716428284 87.297049904 87.829396243 24.915244658 87.316338723 88.063660102 25.101576313 
87.330674741 88.309289248 25.273113575 87.340601033 88.566046952 25.427826521 87.346602124 88.833286335 25.563861269 
87.349093658 89.109977899 25.67958189 87.348473049 89.394591264 25.774171754 87.344989667 89.685521909 25.846989819 
87.338731605 89.981124621 25.897345375 87.329742384 90.279597704 25.925389537 87.317903353 90.579237832 25.931000619 
87.302956347 90.878298701 25.913866541 87.28461669 91.175011222 25.874158479 87.26244121 91.467464279 25.811467352 
87.235914343 91.753509485 25.725333783 87.20451232 92.030761313 25.615420512 87.167647719 92.296336821 25.48111659 
87.124761134 92.546783899 25.321891429 87.075411492 92.778031714 25.137529391 87.01940187 92.985475199 24.928453591 
86.95692237 93.16427639 24.696084026 86.888632373 93.309645939 24.442976789 86.815795455 93.41812801 24.173197423 
86.740110589 93.488280074 23.891743315 86.663441708 93.520144948 23.603664444 86.587589735 93.516645767 23.313607516 
86.514038188 93.48146554 23.025037039 86.443907543 93.418889817 22.740245553 86.377965772 93.333267933 22.460465956 
86.31669085 93.228665063 22.186107705 86.260357609 93.108676218 21.917018889 86.209168048 92.976319287 21.652732489 
86.163088744 92.834524051 21.392422566 86.122190962 92.685573304 21.135255225 86.08637496 92.531696338 20.880235304 
86.05564368 92.374797954 20.626393093 86.029867999 92.216715113 20.372733387 86.009035724 92.059151473 20.118298028 
85.993000447 91.903732671 19.862202974 85.981711698 91.752066681 19.60361911 85.975026083 91.605673715 19.341859321 
85.972780226 91.465991243 19.076385962 85.974847949 91.334531717 18.806748323 85.980935161 91.212478036 18.532789175 
85.990756263 91.100982286 18.254475195 86.003969012 91.001061628 17.971938347 86.02015379 90.913512764 17.685481025 
86.03880902 90.838805859 17.395559976 86.059400048 90.77726023 17.102692527 86.081349525 90.728987138 16.80744369 
86.104049764 90.693914025 16.510391431 86.126870585 90.671912836 16.212093874 86.149170732 90.662536622 15.913093738 
86.170315572 90.665324911 15.613874682 86.189677029 90.679743862 15.314867263 86.206625807 90.705236173 15.016450576 
86.220533754 90.741186197 14.718953767 86.23082419 90.786819518 14.422639318 86.236915186 90.841404782 14.127724117 
86.238181487 90.904253104 13.834396846 86.234074683 90.974514686 13.542782545 86.224053781 91.051348217 13.252973857 
86.207505401 91.133968718 12.965061846 86.183864932 91.221519889 12.679109131 86.152618643 91.313130855 12.395165544 
86.11313915 91.408000193 12.113325268 86.06484984 91.505312537 11.833699948 86.007251987 91.604284268 11.556430893 
85.939730695 91.704208682 11.281755617 85.861710699 91.804431211 11.009988437 85.772766138 91.904385147 10.741500781 
85.6724211 92.003606428 10.476787437 85.56012508 92.101723024 10.216501941 85.435683672 92.198510599 9.9612962239 
85.298853722 92.293859339 9.7119600894 85.149487886 92.38778393 9.469369256 84.987474955 92.480414461 9.2345235939 
84.81305287 92.572016571 9.0083271465 84.626478133 92.662938768 8.791761402 84.42814639 92.753607132 8.5857967699 
84.218568618 92.844504754 8.3913928141 83.998384279 92.936151874 8.2094673146 83.768457282 93.029062288 8.0407162156 
83.529691095 93.1237268 7.8857819305 83.283074545 93.220588149 7.7451610943 83.029652014 93.320022786 7.6191938872 
82.770459211 93.422351351 7.5081689295 82.506620156 93.527756903 7.4119568608 82.239164634 93.636354385 7.3303897404 
81.969058366 93.748174685 7.2631576235 81.697175698 93.863197185 7.2099327186 81.424318129 93.981302922 7.1701369862 
81.151171058 94.102322154 7.143114001 80.878309781 94.226065812 7.1282193687 80.606224214 94.352348526 7.1248857447 
80.335288772 94.480916237 7.1322377097 80.06579591 94.611553722 7.1495289625 79.79798361 94.74408157 7.1760970112 
79.531979757 94.878300633 7.2110384297 79.267859 95.014062683 7.2535113587 79.005663541 95.151277502 7.3027236712 
78.745348733 95.289873735 7.3577169964 78.486833773 95.429835416 7.4175385471 78.230020982 95.571211438 7.4812460397 
77.974768579 95.714086626 7.5478192703 77.720912941 95.858579097 7.6162200428 77.468295528 96.004847538 7.6854267722 
77.216773388 96.153094449 7.7544121371 76.966194654 96.303481133 7.8221865269 76.716446299 96.456177399 7.8878252437 
76.467443962 96.611322744 7.9504847568 76.219137361 96.769028576 8.0093977301 75.971492541 96.929312788 8.0639737345 
75.7244943 97.092131471 8.1137643837 75.478132122 97.25737135 8.1584693775 75.232384769 97.424844184 8.1979456405 
74.98721139 97.594306672 8.2321500232 74.742525474 97.765417942 8.2612584368 74.498204941 97.937805995 8.2855008259 
74.254087213 98.111063176 8.3051668285 74.00997256 98.284759046 8.3205406816 73.765633046 98.458444663 8.3319512629 
73.520831234 98.631681725 8.33968249 73.27533009 98.804047566 8.3439334039 73.028896433 98.975127957 8.3447866289 
72.781349518 99.144576709 8.3422988537 72.532542779 99.3120835 8.3363756829 72.282366242 99.47736334 8.3267619068 
72.030801276 99.640236401 8.3131561029 71.777890314 99.800574116 8.2951235417 71.523738966 99.958284546 8.272071103 
71.268546807 100.1133565 8.243335196 71.012602442 100.26584545 8.2081957273 70.756278943 100.41583502 8.165817927 
70.500057006 100.56342254 8.11520653 70.244527994 100.7087748 8.0554666103 69.990395535 100.85204561 7.9856145966 
69.738489029 100.99338022 7.9046520625 69.489778279 101.13289897 7.8115770253 69.245377463 101.27068681 7.7054393601 
69.006474958 101.40679603 7.5855292561 68.774367192 101.54121423 7.4512420656 68.550395429 101.6738732 7.3022057508 
68.335956009 101.80464044 7.1382301462 68.132325259 101.9333515 6.9595194534 67.940514857 102.05983886 6.7667011287 
67.761598638 102.18387971 6.5603698254 67.595993611 102.30534452 6.341754294 
VERTICES 243 242
OFFSETS vtktypeint64
0 1 2 3 4 5 6 7 8 
9 10 11 12 13 14 15 16 17 
18 19 20 21 22 23 24 25 26 
27 28 29 30 31 32 33 34 35 
36 37 38 39 40 41 42 43 44 
45 46 47 48 49 50 51 52 53 
54 55 56 57 58 59 60 61 62 
63 64 65 66 67 68 69 70 71 
72 73 74 75 76 77 78 79 80 
81 82 83 84 85 86 87 88 89 
90 91 92 93 94 95 96 97 98 
99 100 101 102 103 104 105 106 107 
108 109 110 111 112 113 114 115 116 
117 118 119 120 121 122 123 124 125 
126 127 128 129 130 131 132 133 134 
135 136 137 138 139 140 141 142 143 
144 145 146 147 148 149 150 151 152 
153 154 155 156 157 158 159 160 161 
162 163 164 165 166 167 168 169 170 
171 172 173 174 175 176 177 178 179 
180 181 182 183 184 185 186 187 188 
189 190 191 192 193 194 195 196 197 
198 199 200 201 202 203 204 205 206 
207 208 209 210 211 212 213 214 215 
216 217 218 219 220 221 222 223 224 
225 226 227 228 229 230 231 232 233 
234 235 236 237 238 239 240 241 242 

CONNECTIVITY vtktypeint64
0 1 2 3 4 5 6 7 8 
9 10 11 12 13 14 15 16 17 
18 19 20 21 22 23 24 25 26 
27 28 29 30 31 32 33 34 35 
36 37 38 39 40 41 42 43 44 
45 46 47 48 49 50 51 52 53 
54 55 56 57 58 59 60 61 62 
63 64 65 66 67 68 69 70 71 
72 73 74 75 76 77 78 79 80 
81 82 83 84 85 86 87 88 89 
90 91 92 93 94 95 96 97 98 
99 100 101 102 103 104 105 106 107 
108 109 110 111 112 113 114 115 116 
117 118 119 120 121 122 123 124 125 
126 127 128 129 130 131 132 133 134 
135 136 137 138 139 140 141 142 143 
144 145 146 147 148 149 150 151 152 
153 154 155 156 157 158 159 160 161 
162 163 164 165 166 167 168 169 170 
171 172 173 174 175 176 177 178 179 
180 181 182 183 184 185 186 187 188 
189 190 191 192 193 194 195 196 197 
198 199 200 201 202 203 204 205 206 
207 208 209 210 211 212 213 214 215 
216 217 218 219 220 221 222 223 224 
225 226 227 228 229 230 231 232 233 
234 235 236 237 238 239 240 241 
LINES 2 242
OFFSETS vtktypeint64
0 242 
CONNECTIVITY vtktypeint64
0 1 2 3 4 5 6 7 8 
9 10 11 12 13 14 15 16 17 
18 19 20 21 22 23 24 25 26 
27 28 29 30 31 32 33 34 35 
36 37 38 39 40 41 42 43 44 
45 46 47 48 49 50 51 52 53 
54 55 56 57 58 59 60 61 62 
63 64 65 66 67 68 69 70 71 
72 73 74 75 76 77 78 79 80 
81 82 83 84 85 86 87 88 89 
90 91 92 93 94 95 96 97 98 
99 100 101 102 103 104 105 106 107 
108 109 110 111 112 113 114 115 116 
117 118 119 120 121 122 123 124 125 
126 127 128 129 130 131 132 133 134 
135 136 137 138 139 140 141 142 143 
144 145 146 147 148 149 150 151 152 
153 154 155 156 157 158 159 160 161 
162 163 164 165 166 167 168 169 170 
171 172 173 174 175 176 177 178 179 
180 181 182 183 184 185 186 187 188 
189 190 191 192 193 194 195 196 197 
198 199 200 201 202 203 204 205 206 
207 208 209 210 211 212 213 214 215 
216 217 218 219 220 221 222 223 224 
225 226 227 228 229 230 231 232 233 
234 235 236 237 238 239 240 241 
POINT_DATA 242
SCALARS Curvature double
LOOKUP_TABLE default
0.17240437681 0.17022547315 0.16800762201 0.16591073094 0.164089497 0.16267491771 0.16176840095 0.16142389757 0.16163015766 
0.1623212 0.16336023251 0.16455150781 0.16567596951 0.16650473222 0.16684323747 0.16656327264 0.16564130027 0.16417913641 
0.16233669644 0.16031851042 0.15831886977 0.1565122741 0.15498028446 0.15373113006 0.15270047877 0.15179433295 0.15094319827 
0.15015067479 0.14951817395 0.14925342579 0.14963623211 0.15098721089 0.15359820614 0.15762274807 0.16305421552 0.16967686526 
0.17704129033 0.18449412702 0.1912199582 0.19634153897 0.19902290009 0.1986081366 0.19479025437 0.18766155669 0.17774870375 
0.16592750701 0.15340489259 0.14159817657 0.13207782214 0.12649726676 0.12610160125 0.13164304758 0.14289093919 0.15926319601 
0.17986129403 0.20398072808 0.23095304577 0.26017010625 0.2909020663 0.32216278589 0.35263743431 0.38073590965 0.40470358005 
0.42316896029 0.43534738531 0.44141005068 0.4423517359 0.43990202363 0.43592036621 0.43209680262 0.42939707768 0.42791095607 
0.42689273034 0.42505400177 0.42067081006 0.41215132074 0.39824442739 0.37840575871 0.35297725436 0.32315136589 0.29045191682 
0.25645370076 0.22247722549 0.18961550034 0.1588377276 0.13117371796 0.1082575989 0.092581051022 0.08722422238 0.093233617199 
0.1082138958 0.12844054089 0.15101674001 0.17392479111 0.19566700091 0.21498563793 0.23091880747 0.24287431683 0.25071873275 
0.25476584774 0.25582167826 0.25494172641 0.25338214052 0.25242518847 0.25319348276 0.25671923553 0.26384310008 0.27525566833 
0.29137703045 0.31222991289 0.33742797379 0.36591225785 0.39562408825 0.42329447037 0.44456461896 0.45483074035 0.45080866059 
0.43204296033 0.40096486349 0.36216285835 0.31991954703 0.27742553511 0.23677169887 0.1990677335 0.16474967264 0.13401196426 
0.10695303169 0.084147730343 0.06679898296 0.057199378045 0.056921681033 0.064536267705 0.076427211298 0.089890322897 0.1033226818 
0.11585222114 0.12692717834 0.13618265037 0.14334375615 0.14828372782 0.15105939362 0.1518625558 0.15095567759 0.14865593717 
0.1452831396 0.14114098685 0.13648907875 0.13154189733 0.12646438908 0.121394843 0.11645684709 0.11177297572 0.10749590523 
0.10380540312 0.10089993044 0.098978996927 0.098248879739 0.098858629622 0.10086489459 0.10424242588 0.10884543445 0.11443924859 
0.12075826849 0.12750890359 0.134418833 0.14124515244 0.14779034925 0.15391270026 0.15951882192 0.16457254247 0.16906010723 
0.17300646255 0.17642093261 0.17928025834 0.1815132533 0.18303251089 0.18373187902 0.18350269582 0.18225248815 0.17992335575 
0.1765034433 0.17204833544 0.16667135389 0.16050596873 0.15370764897 0.14642725027 0.13879078152 0.13089430884 0.12279341459 
0.11452316213 0.10606066346 0.09735808764 0.088374099252 0.079081277359 0.069489031616 0.059674883858 0.049843033809 0.040427430654 
0.032306647969 0.027067224876 0.02652156923 0.030630872477 0.037244790755 0.044482788942 0.051215002591 0.056807618619 0.06088650358 
0.063266127741 0.063876570879 0.062829789357 0.060338720144 0.05679304777 0.052660635042 0.048483109742 0.044849448849 0.042291426926 
0.041175257848 0.041595556848 0.04338845771 0.046234937302 0.049855238061 0.054100532719 0.05893189928 0.064416161653 0.070678119732 
0.077839889716 0.085989632589 0.09516698404 0.10536018432 0.11646308751 0.12832926694 0.14075143092 0.15346738902 0.16614827969 
0.17840762576 0.18981646744 0.19992644867 0.20830301237 0.21459328341 0.21859479894 0.22021000791 0.2195747522 
