# vtk DataFile Version 5.1
vtk output
ASCII
DATASET POLYDATA
POINTS 210 double
74.275661465 72.259542269 28.454325008 74.459887998 72.372618834 28.24641176 74.662247186 72.480902175 28.05334173 
74.881763202 72.582707866 27.87615165 75.117046314 72.676364718 27.715469018 75.366497016 72.760198707 27.571604366 
75.628203158 72.832714762 27.444306229 75.900164613 72.892578328 27.332908199 76.180398446 72.938602775 27.236415225 
76.466969953 72.969757919 27.153537613 76.758010384 72.985283868 27.082681432 77.051808179 72.984310293 27.022265506 
77.346695616 72.966467518 26.97037802 77.641122001 72.931171342 26.925234034 77.933597412 72.878228368 26.884915794 
78.222695436 72.807524981 26.847572523 78.507001202 72.719018202 26.811416581 78.785236931 72.613128923 26.77477149 
79.056038836 72.490079498 26.73610257 79.318306472 72.350712516 26.694130683 79.570858543 72.195675782 26.64775859 
79.81276401 72.025990038 26.596207739 80.043095569 71.842595151 26.538907062 80.261139066 71.646593035 26.475580103 
80.466179771 71.438976005 26.406121874 80.657739021 71.220833162 26.330685351 80.835180071 70.993034249 26.24947585 
80.998203448 70.756592436 26.162920053 81.146170542 70.512259375 26.071374026 81.27876587 70.260929253 25.975327918 
81.395434261 70.003372975 25.875196068 81.49565356 69.740404678 25.771386668 81.578985631 69.472900052 25.664292152 
81.644757701 69.201734821 25.554224265 81.692667092 68.927924566 25.441515511 81.72208677 68.652506712 25.326408983 
81.732897827 68.376628457 25.209177452 81.724814723 68.101472951 25.090041946 81.697956563 67.82824184 24.969244496 
81.652653794 67.558091474 24.847028249 81.589287228 67.292140805 24.723632752 81.508819485 67.031286479 24.599323236 
81.412143949 66.776317652 24.474340649 81.300445775 66.52778563 24.348907586 81.175097488 66.285985694 24.223200843 
81.037290925 66.051145521 24.097328305 80.888560204 65.82313776 23.971318815 80.730117378 65.601883683 23.845097667 
80.563301907 65.387096875 23.718486444 80.389193773 65.178592203 23.591187678 80.208896182 64.976090966 23.462813053 
80.023226045 64.77954589 23.332846279 79.833016674 64.58885856 23.200734227 79.638869983 64.404191605 23.065826998 
79.441299658 64.225840029 22.92744042 79.240736658 64.054227219 22.784903626 79.037484003 63.890061378 22.63749328 
78.831799968 63.734214303 22.484537312 78.623913519 63.587721857 22.325444639 78.414026608 63.451934097 22.159632806 
78.202388504 63.328376892 21.986649422 77.989336236 63.218666625 21.806237705 77.775310296 63.124832406 21.618198661 
77.560939145 63.048810569 21.422674002 77.347060329 62.992785967 21.220006335 77.134768958 62.958938201 21.010873296 
76.925449114 62.949394608 20.796315766 76.720741968 62.965922749 20.577782603 76.522653106 63.010364564 20.357072785 
76.333270608 63.083490911 20.136383931 76.154862416 63.185734525 19.918141622 75.989763554 63.316898411 19.704952026 
75.840174337 63.475934063 19.499433479 75.70800744 63.661001312 19.304020546 75.594919155 63.869767289 19.120897146 
75.502201921 64.099436762 18.951873729 75.430900888 64.346999756 18.79842595 75.381327592 64.609025063 18.661296456 
75.35351288 64.882218398 18.540801018 75.34726165 65.163460787 18.436880663 75.361770977 65.4497759 18.34881898 
75.396017579 65.738587752 18.275567464 75.448888919 66.027722995 18.215870004 75.518827502 66.315450687 18.168046069 
75.604437655 66.600460361 18.130456238 75.704076971 66.881881341 18.101256091 75.816144127 67.159212872 18.078624382 
75.93916235 67.432228507 18.060807944 76.071464403 67.701057244 18.046010861 76.211553366 67.965989269 18.032569557 
76.357962466 68.227471996 18.018873142 76.509156796 68.486119118 18.003401962 76.663698478 68.742566599 17.984711215 
76.820155284 68.997468478 17.96139493 76.977092051 69.251465963 17.932199234 77.133103511 69.50510477 17.895835054 
77.286801396 69.758823501 17.851157197 77.436823275 70.012906117 17.797071909 77.581837691 70.267454546 17.732551105 
77.720615558 70.522364186 17.656750327 77.852008637 70.777323248 17.568924856 77.975004714 71.031817794 17.468508905 
78.0888461 71.28517343 17.355244328 78.192825897 71.53655882 17.228870784 78.286723353 71.78511974 17.089671309 
78.370411792 72.029954441 16.937918 78.444112931 72.27023111 16.774171459 78.508362485 72.505259958 16.599204074 
78.563795002 72.734405839 16.413726757 78.611471424 72.95735156 16.218772736 78.652418294 73.173794284 16.015146863 
78.687962996 73.383770816 15.803873728 78.719364616 73.587297299 15.585738409 78.748018584 73.784681028 15.361657041 
78.775223587 73.976135291 15.132309375 78.802264737 74.162110043 14.898475674 78.830317849 74.342929072 14.660748714 
78.860411944 74.519031388 14.41975245 78.893436063 74.69076386 14.176001834 78.930051625 74.85848869 13.929984074 
78.97070386 75.022505268 13.682106913 79.015585332 75.183070945 13.432704364 79.064623526 75.340402931 13.182026303 
79.117526271 75.494649126 12.930218072 79.173747566 75.645932515 12.677332978 79.232589451 75.794285872 12.423310057 
79.2931657 75.939729141 12.168014692 79.354505448 76.082169226 11.911212762 79.415542368 76.221519089 11.652649679 
79.475140164 76.357543472 11.391989558 79.532173488 76.490041909 11.128951915 79.585432593 76.618652592 10.863209421 
79.633817509 76.743074416 10.59455889 79.676135316 76.862873171 10.322803695 79.711371402 76.977712029 10.04791769 
79.738420168 77.087168437 9.7699288372 79.756428564 77.190984936 9.489061339 79.764432176 77.28885595 9.2056103696 
79.761819922 77.380725243 8.9200591471 79.74780764 77.466503649 8.6329508971 79.722082388 77.546437172 8.3449688081 
79.684135152 77.620773479 8.0568388784 79.633912904 77.690077363 7.769333427 79.571199344 77.75495413 7.4832510624 
79.49616168 77.816247313 7.1993533113 79.408807279 77.874840329 6.9184226789 79.309481396 77.931754764 6.6411476551 
79.198311964 77.988022326 6.3682706068 79.075773089 78.044702518 6.1003933042 78.942045034 78.102851948 5.8382446449 
78.79765888 78.163437793 5.5823776534 78.642889637 78.227404958 5.3335001359 78.478225288 78.295533405 5.092193788 
78.304031242 78.368522799 4.8591427525 78.120741442 78.446895032 4.634987279 77.928775975 78.531013383 4.420381553 
77.728518077 78.621090449 4.2160178352 77.520407784 78.717118749 4.022498705 77.30479428 78.818987186 3.840525525 
77.082118543 78.92635207 3.6706184536 76.852723159 79.038798569 3.5134129083 76.617048407 79.155716235 3.3693037976 
76.375466996 79.276454325 3.2387634173 76.128439076 79.400255791 3.122013806 75.876406648 79.526369231 3.0192722584 
75.619876263 79.654045169 2.930546802 75.359376685 79.782600967 2.8557424403 75.095470224 79.911449541 2.7946307183 
74.828750593 80.04012973 2.7468110895 74.559808369 80.168320444 2.7118373013 74.289246289 80.295857912 2.6890801538 
74.017644547 80.42273133 2.6779178828 73.745567216 80.549081225 2.6775929025 73.473543338 80.675173188 2.6873712503 
73.202063536 80.801375178 2.7064708804 72.931574702 80.928126177 2.7341114598 72.662482642 81.055909022 2.7695501915 
72.395135502 81.185209392 2.8120058147 72.129853143 81.316515738 2.8607912948 71.866875897 81.450250512 2.9151465479 
71.606434711 81.586827049 2.9744264132 71.348653977 81.726531189 3.0379007011 71.093658299 81.86963706 3.1049479334 
70.841441444 82.016248208 3.1748728982 70.591999686 82.166465097 3.247064696 70.345188465 82.320205797 3.3208634414 
70.100863602 82.477397296 3.3956613714 69.858748247 82.637798037 3.4708315525 69.618568366 82.801192581 3.545764077 
69.379947431 82.967231115 3.6198616407 69.142522808 83.1356118 3.6925029613 68.905877301 83.305942416 3.76311184 
68.669619761 83.477891222 3.8310460096 68.43336824 83.651098275 3.8957246303 68.196783817 83.82527089 3.9564706566 
67.959593225 84.000145498 4.0126608333 67.721590555 84.175533847 4.0635608927 67.482670946 84.351310538 4.1084647199 
67.242822947 84.527429201 4.146550694 67.002154502 84.703910418 4.1770035846 66.760886237 84.880838499 4.1988885622 
66.519370061 85.058341602 4.211297333 66.278093171 85.236586775 4.2131715838 66.037675379 85.41573745 4.2035892506 
65.798899264 85.595955825 4.1814016543 65.562637547 85.777328608 4.1458096113 65.329947305 85.959894751 4.0957623632 
65.101891167 86.143567831 4.0307107969 64.87968641 86.328179889 3.9499743468 64.664424719 86.51344112 3.8534633999 

VERTICES 211 210
OFFSETS vtktypeint64
0 1 2 3 4 5 6 7 8 
9 10 11 12 13 14 15 16 17 
18 19 20 21 22 23 24 25 26 
27 28 29 30 31 32 33 34 35 
36 37 38 39 40 41 42 43 44 
45 46 47 48 49 50 51 52 53 
54 55 56 57 58 59 60 61 62 
63 64 65 66 67 68 69 70 71 
72 73 74 75 76 77 78 79 80 
81 82 83 84 85 86 87 88 89 
90 91 92 93 94 95 96 97 98 
99 100 101 102 103 104 105 106 107 
108 109 110 111 112 113 114 115 116 
117 118 119 120 121 122 123 124 125 
126 127 128 129 130 131 132 133 134 
135 136 137 138 139 140 141 142 143 
144 145 146 147 148 149 150 151 152 
153 154 155 156 157 158 159 160 161 
162 163 164 165 166 167 168 169 170 
171 172 173 174 175 176 177 178 179 
180 181 182 183 184 185 186 187 188 
189 190 191 192 193 194 195 196 197 
198 199 200 201 202 203 204 205 206 
207 208 209 210 
CONNECTIVITY vtktypeint64
0 1 2 3 4 5 6 7 8 
9 10 11 12 13 14 15 16 17 
18 19 20 21 22 23 24 25 26 
27 28 29 30 31 32 33 34 35 
36 37 38 39 40 41 42 43 44 
45 46 47 48 49 50 51 52 53 
54 55 56 57 58 59 60 61 62 
63 64 65 66 67 68 69 70 71 
72 73 74 75 76 77 78 79 80 
81 82 83 84 85 86 87 88 89 
90 91 92 93 94 95 96 97 98 
99 100 101 102 103 104 105 106 107 
108 109 110 111 112 113 114 115 116 
117 118 119 120 121 122 123 124 125 
126 127 128 129 130 131 132 133 134 
135 136 137 138 139 140 141 142 143 
144 145 146 147 148 149 150 151 152 
153 154 155 156 157 158 159 160 161 
162 163 164 165 166 167 168 169 170 
171 172 173 174 175 176 177 178 179 
180 181 182 183 184 185 186 187 188 
189 190 191 192 193 194 195 196 197 
198 199 200 201 202 203 204 205 206 
207 208 209 
LINES 2 210
OFFSETS vtktypeint64
0 210 
CONNECTIVITY vtktypeint64
0 1 2 3 4 5 6 7 8 
9 10 11 12 13 14 15 16 17 
18 19 20 21 22 23 24 25 26 
27 28 29 30 31 32 33 34 35 
36 37 38 39 40 41 42 43 44 
45 46 47 48 49 50 51 52 53 
54 55 56 57 58 59 60 61 62 
63 64 65 66 67 68 69 70 71 
72 73 74 75 76 77 78 79 80 
81 82 83 84 85 86 87 88 89 
90 91 92 93 94 95 96 97 98 
99 100 101 102 103 104 105 106 107 
108 109 110 111 112 113 114 115 116 
117 118 119 120 121 122 123 124 125 
126 127 128 129 130 131 132 133 134 
135 136 137 138 139 140 141 142 143 
144 145 146 147 148 149 150 151 152 
153 154 155 156 157 158 159 160 161 
162 163 164 165 166 167 168 169 170 
171 172 173 174 175 176 177 178 179 
180 181 182 183 184 185 186 187 188 
189 190 191 192 193 194 195 196 197 
198 199 200 201 202 203 204 205 206 
207 208 209 
POINT_DATA 210
SCALARS Curvature double
LOOKUP_TABLE default
0.27895045382 0.28162192378 0.28128519538 0.27798455222 0.27205898612 0.26406980659 0.2547269781 0.24477909375 0.2349257833 
0.22579897933 0.21790453819 0.21167556302 0.2073296983 0.20487801557 0.20410757013 0.20467135905 0.20609236581 0.20782041949 
0.20934301353 0.21023806003 0.2102730325 0.20938731582 0.20764573814 0.20524178898 0.20246440484 0.19968441122 0.19730474569 
0.19564312815 0.19493353755 0.19524937717 0.19655529587 0.19870790203 0.20147228235 0.20452047975 0.20745778794 0.20984021431 
0.21123261156 0.21121177105 0.20943239566 0.20563803147 0.19969167305 0.1916506489 0.18177143077 0.170414498 0.15796234295 
0.14489420855 0.13180338609 0.11928598905 0.10794756843 0.098426697605 0.091331234992 0.087233201964 0.08642992275 0.088946565406 
0.094585628376 0.1030461392 0.11398735792 0.12706151597 0.14199854435 0.15861689273 0.17671068685 0.19605610556 0.21642689383 
0.23751115781 0.25893190126 0.28015635218 0.30045455679 0.31909926071 0.33536129729 0.34863817571 0.35843076054 0.36452261053 
0.36689749977 0.36578122046 0.36141580495 0.35403205458 0.34377366428 0.33075834985 0.31522927354 0.29743027529 0.27771373019 
0.25644451141 0.23399848048 0.2108165185 0.18737389323 0.16402693675 0.14107397251 0.11891906947 0.098127622014 0.07967925243 
0.065355994528 0.05779893844 0.059112324826 0.068235297794 0.081939200506 0.097739208435 0.1140791245 0.12995411239 0.144676483 
0.15773405141 0.16867210914 0.17709295851 0.18268393959 0.18518904627 0.18456519312 0.18089076065 0.17441415478 0.16542769166 
0.15426220396 0.14152964338 0.12787452219 0.11403587648 0.10079335583 0.0889536618 0.079283619752 0.07226861165 0.068001303228 
0.065945365927 0.065143834592 0.064489310206 0.063098221716 0.060431588468 0.056349545975 0.051092449567 0.045367380771 0.040430233145 
0.038053237538 0.039885582703 0.046104045043 0.055582664087 0.066892137781 0.079009856917 0.091208149378 0.10296314559 0.11386928659 
0.12357877577 0.1318905652 0.13865608935 0.14374040486 0.14702070635 0.14860795957 0.14868247589 0.14757398877 0.14566989966 
0.14343609547 0.14134662316 0.13982493716 0.13918986484 0.13959266292 0.14105105189 0.1434147603 0.14647809554 0.14997000495 
0.15362801948 0.15720869755 0.16050996445 0.16339637737 0.16579829213 0.16765206429 0.16891283042 0.16953781281 0.16948979402 
0.1687184542 0.16715623414 0.16471212555 0.16129582673 0.15683160025 0.15132637343 0.14486434565 0.13753224221 0.1294732812 
0.12094863118 0.11227612983 0.10379273737 0.095815645566 0.088605106971 0.082325694852 0.077013676084 0.072600568639 0.068913777052 
0.065707422947 0.062682918391 0.059584251071 0.056216091051 0.052461625938 0.048318621797 0.043907965496 0.039543973318 0.035758305569 
0.033257938651 0.032812814402 0.034787279529 0.039008851567 0.044884014053 0.051865949363 0.059567298894 0.067804804128 0.076531015682 
0.085776293972 0.095596069883 0.10604736194 0.11714447238 0.12882023281 0.14090736325 0.15314594567 0.16519767488 0.1766664241 
0.1871453933 0.19621616924 0.20353883522 
