# vtk DataFile Version 5.1
vtk output
ASCII
DATASET POLYDATA
POINTS 220 double
76.767617179 75.101482887 32.703639664 76.865919947 75.013020664 32.43438064 76.968215097 74.915571868 32.169750102 
77.074282881 74.809641268 31.909905589 77.183909396 74.695739367 31.654953988 77.296879825 74.574391322 31.404943963 
77.412946702 74.446194143 31.159816995 77.531883934 74.311678329 30.919497249 77.653467732 74.171326884 30.683883454 
77.777456332 74.025591763 30.452834378 77.903572466 73.87490514 30.226153415 78.031526772 73.719600615 30.003656892 
78.160995764 73.559937448 29.785156376 78.291619867 73.396072814 29.570486692 78.422981459 73.228123739 29.359454247 
78.554622206 73.056113277 29.151895574 78.686038326 72.879981924 28.947677508 78.816681921 72.699600207 28.746699735 
78.945965696 72.514775618 28.548904928 79.073257334 72.325239167 28.354303963 79.197926745 72.130737461 28.16293354 
79.319327534 71.93096865 27.974919066 79.436818747 71.725624651 27.790463202 79.549779028 71.514408294 27.60984989 
79.657591106 71.297016665 27.43346961 79.759723843 71.073239672 27.261760635 79.855717558 70.842935124 27.09522253 
79.945177729 70.606024429 26.934414075 80.027761875 70.362486109 26.779955626 80.103272093 70.112447684 26.632420841 
80.17164022 69.856164991 26.492306772 80.232868271 69.593969102 26.360049763 80.286985403 69.326239206 26.2360344 
80.334236263 69.053541961 26.120312953 80.374844009 68.77643945 26.012822419 80.409031708 68.495512341 25.913315369 
80.437023721 68.211358237 25.8213121 80.459047773 67.924579596 25.736072555 80.475224431 67.635727085 25.656720852 
80.48558198 67.345315825 25.582226422 80.490008111 67.053824561 25.511449251 80.48833124 66.761720948 25.443119165 
80.480248592 66.469460282 25.375929317 80.465343887 66.17751242 25.308551537 80.443112886 65.88638667 25.239659879 
80.412971912 65.5966585 25.167950503 80.374282577 65.308996596 25.092156024 80.32648752 65.024148381 25.011128683 
80.269028187 64.742974992 24.923804086 80.201422974 64.466444064 24.829233076 80.123226582 64.195668639 24.726534914 
80.034248708 63.931788685 24.61505451 79.934438234 63.676007471 24.494270928 79.823882373 63.429584268 24.363784618 
79.702735408 63.193910064 24.223240423 79.57149583 62.970186117 24.072601305 79.430709034 62.759672016 23.911885229 
79.281021811 62.563620337 23.741227688 79.123149744 62.383315212 23.560862956 78.957997551 62.219748644 23.371302809 
78.78645621 62.073940232 23.173123889 78.609451815 61.946811568 22.967041574 78.427904106 61.839305938 22.753863831 
78.242787838 61.752033048 22.534603581 78.055040985 61.685571916 22.31034429 77.86558043 61.640434691 22.082253934 
77.675309051 61.617051536 21.851583846 77.485128134 61.615884247 21.619661099 77.295949339 61.637169473 21.387897963 
77.108699174 61.681056005 21.15775757 76.924343323 61.747643818 20.930753043 76.743899833 61.836903108 20.708434118 
76.568500428 61.948836869 20.492431711 76.399243146 62.082835038 20.284239542 76.23729883 62.238244528 20.085319933 
76.083891759 62.414234024 19.897059724 75.940212488 62.609636677 19.720646424 75.807288685 62.822878778 19.55691779 
75.686110085 63.052335409 19.406528125 75.577595444 63.296295194 19.26991828 75.482277909 63.552741055 19.14701329 
75.400617646 63.819801977 19.037605447 75.332985517 64.095709883 18.941352055 75.279444845 64.378706523 18.857610334 
75.239911154 64.667195334 18.785634988 75.214209964 64.959759494 18.724653935 75.202103891 65.255147883 18.673904044 
75.203179737 65.552247891 18.632564465 75.216883293 65.850105702 18.599801687 75.242620892 66.147927066 18.574840934 
75.279712389 66.445062047 18.556923743 75.327474645 66.740989176 18.545343067 75.384991586 67.035344295 18.539289261 
75.451373591 67.327890741 18.537982141 75.525695201 67.618516211 18.540604795 75.607026526 67.907217481 18.546291882 
75.694430267 68.194091077 18.554102353 75.786951823 68.479324735 18.563010566 75.883713816 68.763148675 18.571932842 
75.983895974 69.04581774 18.579714932 76.086747089 69.327581751 18.585137917 76.191592706 69.608655435 18.586927697 
76.297841545 69.889187659 18.583745701 76.404972581 70.169238887 18.574255828 76.512545741 70.448751467 18.557090913 
76.620186903 70.727529875 18.530869775 76.727576672 71.005220322 18.49420568 76.834437349 71.281290475 18.445711823 
76.940518212 71.555008048 18.384007178 77.045578591 71.825417329 18.307724775 77.149369002 72.09131342 18.215526772 
77.251606096 72.351199886 18.106093393 77.351943258 72.603234471 17.978135829 77.449975573 72.845343304 17.830736643 
77.545185658 73.075103022 17.663127895 77.636888413 73.289620576 17.474683012 77.724368913 73.486255973 17.265845899 
77.806677108 73.661859023 17.037123938 77.882965033 73.814213632 16.790370888 77.952305634 73.941282271 16.527757417 
78.013973367 74.042193435 16.252191386 78.067483806 74.117170866 15.966802157 78.112522028 74.167159633 15.674544878 
78.149175013 74.194328785 15.378115367 78.177622893 74.20104326 15.079604501 78.198240945 74.190068478 14.78056181 
78.211537784 74.164313648 14.481999621 78.218024369 74.126515938 14.18448434 78.218231923 74.079283614 13.888240834 
78.212683447 74.025047703 13.593245411 78.201898058 73.96606932 13.29930325 78.186388435 73.904427046 13.006117818 
78.166640039 73.842005223 12.713351507 78.143126401 73.780506299 12.420668027 78.116311816 73.721440902 12.127767828 
78.086652666 73.666109026 11.834414072 78.054596554 73.615577349 11.540447886 78.020573183 73.570675739 11.245790489 
77.984997746 73.531960872 10.95044003 77.948263284 73.499665707 10.654460687 77.910709827 73.473794595 10.357952948 
77.872618298 73.454157986 10.061034946 77.834201304 73.440363678 9.7638293896 77.795586677 73.431870261 9.4664499577 
77.756806119 73.428112739 9.1689936653 77.717788837 73.428547605 8.8715442155 77.678361623 73.432621177 8.5741759793 
77.63824974 73.439873381 8.27695959 77.597080097 73.449951612 7.9799701685 77.554381683 73.462623514 7.6832961725 
77.509592218 73.477779693 7.3870476747 77.462091767 73.495419373 7.0913601295 77.411192536 73.515673811 6.7964075155 
77.356163236 73.538783478 6.502409142 77.296247471 73.565084702 6.2096380891 77.230647997 73.595015557 5.9184400322 
77.158637965 73.629039975 5.629215477 77.079515791 73.667668535 5.3424406442 76.992632257 73.711431742 5.0586683106 
76.897416656 73.760852848 4.7785237519 76.793333883 73.816468234 4.5027312053 76.680056387 73.878694646 4.232025118 
76.557354687 73.947889543 3.9671849591 76.425106939 74.024331976 3.7090179746 76.283258155 74.108242892 3.458378516 
76.131947413 74.19967317 3.2160430461 75.971429758 74.298550774 2.9827249225 75.802018152 74.404720323 2.7590998972 
75.624050352 74.517967512 2.5458319539 75.438009293 74.637917876 2.3433943758 75.244409521 74.764134289 2.1521640564 
75.043769882 74.896147723 1.972448159 74.836603062 75.033476166 1.8045029264 74.623456879 75.175603776 1.6484524962 
74.404905617 75.322003818 1.5042787647 74.18149499 75.472196488 1.3719361486 73.953768555 75.62573935 1.2513066248 
73.722249632 75.782250864 1.1422630138 73.487488704 75.941378084 1.0445194853 73.250019995 76.102829027 0.95773883926 
73.010355722 76.26637122 0.88154998186 72.768987822 76.431819467 0.81552330836 72.526375136 76.599034841 0.7592176449 
72.282948087 76.767892161 0.71206413988 72.03908301 76.938281167 0.67344827957 71.795093404 77.110096722 0.64273607086 
71.551224279 77.28322213 0.61925710714 71.30764817 77.457524643 0.6023455635 71.064456296 77.632830061 0.59125225648 
70.821661359 77.808933382 0.58523492522 70.579203175 77.98559636 0.58356239467 70.336955664 78.162546757 0.58551070699 
70.094736038 78.339479829 0.59038819498 69.852317956 78.516066099 0.59748866503 69.60944903 78.691961472 0.60616401668 
69.365864073 78.866812988 0.61581187017 69.121297307 79.040264339 0.62588217611 68.875492942 79.21196104 0.63588121808 
68.628236141 79.381587164 0.64538693662 68.379342545 79.548847281 0.65405461992 68.128671071 79.713484863 0.66161955521 
67.876115658 79.875272522 0.66789130288 67.621636292 80.034065089 0.67277629636 67.365234987 80.189772701 0.67626218306 
67.106948937 80.342358416 0.67841151532 66.846844713 80.491836618 0.67935661415 66.58501173 80.638268959 0.67929418204 
66.321575179 80.781794486 0.67848640502 66.056661083 80.922571402 0.67723386247 65.790402312 81.060787728 0.67587336824 
65.522930692 81.196644893 0.67477139546 65.25438512 81.330370628 0.67431486185 64.984907016 81.462206624 0.67489751709 
64.714633543 81.592389812 0.67692046313 64.443703049 81.72115774 0.68078790215 64.172254831 81.848741654 0.68691887962 
63.900437754 81.975379944 0.69571878864 63.628406764 82.101305454 0.70758961563 63.35632524 82.22674382 0.72294059474 
63.084368798 82.351915882 0.74218212212 
VERTICES 221 220
OFFSETS vtktypeint64
0 1 2 3 4 5 6 7 8 
9 10 11 12 13 14 15 16 17 
18 19 20 21 22 23 24 25 26 
27 28 29 30 31 32 33 34 35 
36 37 38 39 40 41 42 43 44 
45 46 47 48 49 50 51 52 53 
54 55 56 57 58 59 60 61 62 
63 64 65 66 67 68 69 70 71 
72 73 74 75 76 77 78 79 80 
81 82 83 84 85 86 87 88 89 
90 91 92 93 94 95 96 97 98 
99 100 101 102 103 104 105 106 107 
108 109 110 111 112 113 114 115 116 
117 118 119 120 121 122 123 124 125 
126 127 128 129 130 131 132 133 134 
135 136 137 138 139 140 141 142 143 
144 145 146 147 148 149 150 151 152 
153 154 155 156 157 158 159 160 161 
162 163 164 165 166 167 168 169 170 
171 172 173 174 175 176 177 178 179 
180 181 182 183 184 185 186 187 188 
189 190 191 192 193 194 195 196 197 
198 199 200 201 202 203 204 205 206 
207 208 209 210 211 212 213 214 215 
216 217 218 219 220 
CONNECTIVITY vtktypeint64
0 1 2 3 4 5 6 7 8 
9 10 11 12 13 14 15 16 17 
18 19 20 21 22 23 24 25 26 
27 28 29 30 31 32 33 34 35 
36 37 38 39 40 41 42 43 44 
45 46 47 48 49 50 51 52 53 
54 55 56 57 58 59 60 61 62 
63 64 65 66 67 68 69 70 71 
72 73 74 75 76 77 78 79 80 
81 82 83 84 85 86 87 88 89 
90 91 92 93 94 95 96 97 98 
99 100 101 102 103 104 105 106 107 
108 109 110 111 112 113 114 115 116 
117 118 119 120 121 122 123 124 125 
126 127 128 129 130 131 132 133 134 
135 136 137 138 139 140 141 142 143 
144 145 146 147 148 149 150 151 152 
153 154 155 156 157 158 159 160 161 
162 163 164 165 166 167 168 169 170 
171 172 173 174 175 176 177 178 179 
180 181 182 183 184 185 186 187 188 
189 190 191 192 193 194 195 196 197 
198 199 200 201 202 203 204 205 206 
207 208 209 210 211 212 213 214 215 
216 217 218 219 
LINES 2 220
OFFSETS vtktypeint64
0 220 
CONNECTIVITY vtktypeint64
0 1 2 3 4 5 6 7 8 
9 10 11 12 13 14 15 16 17 
18 19 20 21 22 23 24 25 26 
27 28 29 30 31 32 33 34 35 
36 37 38 39 40 41 42 43 44 
45 46 47 48 49 50 51 52 53 
54 55 56 57 58 59 60 61 62 
63 64 65 66 67 68 69 70 71 
72 73 74 75 76 77 78 79 80 
81 82 83 84 85 86 87 88 89 
90 91 92 93 94 95 96 97 98 
99 100 101 102 103 104 105 106 107 
108 109 110 111 112 113 114 115 116 
117 118 119 120 121 122 123 124 125 
126 127 128 129 130 131 132 133 134 
135 136 137 138 139 140 141 142 143 
144 145 146 147 148 149 150 151 152 
153 154 155 156 157 158 159 160 161 
162 163 164 165 166 167 168 169 170 
171 172 173 174 175 176 177 178 179 
180 181 182 183 184 185 186 187 188 
189 190 191 192 193 194 195 196 197 
198 199 200 201 202 203 204 205 206 
207 208 209 210 211 212 213 214 215 
216 217 218 219 
POINT_DATA 220
SCALARS Curvature double
LOOKUP_TABLE default
0.12628294953 0.12165464815 0.1166133841 0.11124339169 0.10563299525 0.099880154876 0.094086532878 0.088359433613 0.082803130576 
0.077523799565 0.072623993769 0.068220775338 0.064457760281 0.061526859936 0.059655517893 0.059088204362 0.060026575326 0.062563074138 
0.066636103548 0.072055409709 0.078521671286 0.08571281942 0.093307553762 0.10100359525 0.10852345859 0.11560280628 0.12198313479 
0.12740865719 0.13163031249 0.13441539358 0.13556853736 0.13493015335 0.13239314321 0.12797602273 0.12178944676 0.11406372002 
0.10518337134 0.095724865198 0.08649616636 0.078598963856 0.073441695367 0.072342270335 0.075934154944 0.083771149698 0.094725017006 
0.10756765309 0.12127662315 0.1351063611 0.14851247842 0.16111882953 0.17266475065 0.1830437682 0.19224415204 0.20033625167 
0.20742057416 0.21362493903 0.21905045185 0.22376380023 0.22780675494 0.23121530933 0.23404001633 0.23635904332 0.23831264563 
0.24008525173 0.24189994913 0.24397517867 0.24649452741 0.2495750872 0.25323580409 0.25737844184 0.2617744755 0.26609139776 
0.26994177777 0.27289261001 0.27449745236 0.27436533086 0.27224056936 0.26805336687 0.26189733783 0.25401449085 0.24477740047 
0.23459495221 0.2238587352 0.21291271874 0.20199751905 0.19124368084 0.18067426824 0.17020379196 0.15968562404 0.14893781571 
0.13778991467 0.12610204341 0.11381687862 0.10096799761 0.087718693245 0.074412704472 0.061698266927 0.050742382893 0.043538366151 
0.042455651067 0.048056332226 0.058429796145 0.07144280492 0.085822442049 0.10097941681 0.11669343062 0.13294472103 0.14982226347 
0.16747325341 0.18604543353 0.20563592995 0.22622773507 0.24763260917 0.26936899652 0.29061952911 0.31009621086 0.32619556932 
0.33696373888 0.34076950769 0.33645832841 0.3239471664 0.30421985107 0.27892043451 0.25002611857 0.21927647802 0.18819440016 
0.15789231532 0.12921535909 0.10286106216 0.079640789908 0.060828976692 0.048516315252 0.044753938648 0.048462257532 0.05568246541 
0.063163414444 0.069169110741 0.07291915906 0.074154918694 0.07300616588 0.069807557095 0.065043916407 0.059271471823 0.053068595108 
0.046963775961 0.041489905128 0.037167426741 0.034586663305 0.03431484632 0.036678040651 0.041518194422 0.048390098733 0.056799756792 
0.06633171562 0.076623944981 0.087364007416 0.098257319614 0.10902906972 0.11942389871 0.1292054598 0.13816491499 0.14612926231 
0.15296344529 0.15857072347 0.16288934413 0.16590883846 0.167656616 0.16819788918 0.16762037187 0.16606089321 0.16366638454 
0.16059207578 0.15697707102 0.15293339145 0.14854408716 0.14387030554 0.13894503612 0.13377142638 0.12833927466 0.12262962754 
0.11662348447 0.11030600027 0.10366669027 0.096703376765 0.089418687215 0.081820859465 0.073925326876 0.065760696348 0.057383936542 
0.048891923296 0.04045197084 0.032351277337 0.025131182742 0.019795131809 0.017801430306 0.019637754655 0.023836802975 0.028749580418 
0.033443786831 0.037445229788 0.040514441085 0.042522206183 0.043447315229 0.043328252261 0.042269270515 0.040416982798 0.037967745891 
0.035157935455 0.032258714992 0.029573406202 0.027433986862 0.026155407101 0.025958312782 0.026904095944 0.028890220092 0.031727713742 
0.035213453394 0.03918063283 0.043506010725 0.048097709158 
