# vtk DataFile Version 5.1
vtk output
ASCII
DATASET POLYDATA
POINTS 270 double
118.1706384 86.743792161 37.389295134 118.02325701 86.925178211 37.201244907 117.86506338 87.100478739 37.016229505 
117.69703862 87.269273723 36.833847609 117.51998814 87.431124546 36.653719465 117.33457452 87.585535181 36.4754818 
117.14149379 87.732085084 36.298755151 116.941366 87.870326775 36.123178714 116.73474195 87.999754175 35.948410805 
116.52214763 88.119823163 35.774124214 116.30409894 88.229948864 35.600009345 116.08107551 88.329402513 35.425774704 
115.85365913 88.417590665 35.251157674 115.62242666 88.493830351 35.075932277 115.38799268 88.557409739 34.899914443 
115.15101816 88.607568134 34.722966655 114.91222803 88.643489007 34.545004517 114.67243946 88.664685255 34.366031251 
114.43249594 88.670617689 34.186111788 114.19330867 88.660600026 34.005371332 113.95578881 88.634615875 33.824028084 
113.72084672 88.592571473 33.642338103 113.48941227 88.534388379 33.460597304 113.26223504 88.460687292 33.279115464 
113.04006493 88.371883587 33.098193262 112.82348658 88.26874518 32.918092964 112.61288358 88.152314924 32.739005514 
112.4086315 88.023458779 32.561068979 112.21085494 87.883356996 32.384315637 112.0195672 87.733180357 32.208691257 
111.8347518 87.573994819 32.034067319 111.65630629 87.406873044 31.860230111 111.48399292 87.232939209 31.686886206 
111.31760778 87.05317618 31.513693913 111.15693729 86.868504622 31.340266554 111.0018327 86.679743674 31.166173902 
110.85205157 86.487729224 30.990980597 110.70744823 86.293176048 30.814244124 110.56792616 86.096726043 30.635532081 
110.43344393 85.898946948 30.454437931 110.30405171 85.700329204 30.270574637 110.17982148 85.501297836 30.083625234 
110.06087437 85.302195491 29.89334621 109.94741715 85.103276901 29.699555639 109.83972103 84.904705742 29.502155498 
109.738164 84.706557094 29.301111226 109.64313502 84.508812398 29.096510484 109.55504659 84.311367466 28.888543628 
109.47439201 84.114045582 28.677468228 109.40175184 83.916603091 28.463614501 109.33775888 83.718737339 28.247404665 
109.28295703 83.520115558 28.029373561 109.23799339 83.320387249 27.810107505 109.20367744 83.119187192 27.590265613 
109.18060075 82.916213284 27.370591738 109.16938171 82.711220214 27.151872183 109.170806 82.5040106 26.934969306 
109.18536663 82.294536424 26.720747144 109.21346118 82.082877047 26.510051462 109.25567358 81.869205626 26.303791778 
109.31206488 81.653890612 26.102699426 109.38268844 81.437403852 25.90744332 109.46775066 81.220327626 25.718707287 
109.56683934 81.003367374 25.536807487 109.67968101 80.787289751 25.362003827 109.80607064 80.572952108 25.194477405 
109.94551774 80.361233856 25.034134811 110.09755946 80.153037075 24.880780669 110.26179265 79.949301467 24.734150266 
110.43784898 79.751012155 24.593907417 110.62542624 79.559233576 24.459675689 110.82407958 79.374978805 24.330958957 
111.03347508 79.199358534 24.207303216 111.25327509 79.03354015 24.088262307 111.48311859 78.878751372 23.973415175 
111.72259647 78.736278329 23.86238153 111.97125792 78.607516203 23.75484959 112.22851817 78.493874909 23.65056721 
112.49360839 78.396666856 23.54934805 112.765653 78.317250514 23.451120248 113.04360892 78.25692694 23.355918015 
113.32627323 78.216997821 23.263902219 113.61224504 78.198659827 23.175357514 113.89992197 78.202608915 23.090635652 
114.18760634 78.229494047 23.010227314 114.47345137 78.279992338 22.934786106 114.75554405 78.35411515 22.864969943 
115.03195747 78.451634857 22.801492808 115.30060609 78.572491655 22.745243758 115.55952114 78.715935163 22.697014549 
115.80677256 78.881018692 22.657595818 116.04011594 79.067062988 22.627996449 116.25787552 79.272359923 22.608803252 
116.457863 79.49568621 22.600903208 116.63841721 79.735092614 22.604776263 116.79764565 79.988691527 22.620955424 
116.93418488 80.254147466 22.649564948 117.04667687 80.529081351 22.690608807 117.13455358 80.810867263 22.743575248 
117.1973065 81.096992073 22.807828188 117.23543232 81.385005849 22.882217997 117.24948461 81.672768146 22.96552941 
117.24081459 81.958514302 23.05622792 117.21107779 82.240947532 23.152706583 117.1618298 82.519161058 23.253404594 
117.09528968 82.792802665 23.356680585 117.01336633 83.061829092 23.461050374 116.91787888 83.326479665 23.56510465 
116.8106528 83.587256552 23.667507752 116.69348528 83.844858081 23.767025828 116.56799681 84.100069156 23.862484363 
116.43572132 84.353736742 23.952758598 116.29811729 84.606724382 24.036760551 116.15658412 84.85987344 24.113427244 
116.01246653 85.113976827 24.181651231 115.86710315 85.369720698 24.240434994 115.72176919 85.627646049 24.288820362 
115.577679 85.888126644 24.325891942 115.43597724 86.151346092 24.350816853 115.2977724 86.417318671 24.362694437 
115.16397269 86.685786928 24.361057375 115.03534872 86.956328276 24.345490925 114.91254165 87.228367573 24.315625944 
114.79598566 87.501182619 24.271299827 114.68582928 87.773962741 24.212696279 114.58212136 88.045865803 24.139945131 
114.48481562 88.316010585 24.0531504 114.39357683 88.583580419 23.952842883 114.30806243 88.847777708 23.839403639 
114.22791164 89.107795158 23.713113108 114.15261795 89.362946736 23.574508912 114.08167048 89.612604719 23.424107507 
114.01457174 89.856174777 23.262378322 113.95085447 90.093037396 23.089688362 113.88996584 90.322823715 22.906723236 
113.83141264 90.545161272 22.71404738 113.77471776 90.759720777 22.512211661 113.71939644 90.9663052 22.301852728 
113.66495935 91.164929462 22.083737687 113.61093782 91.355657383 21.858581318 113.55686025 91.538561756 21.627035057 
113.50226276 91.714059665 21.389943547 113.4466996 91.882583714 21.148062454 113.38972765 92.044607186 20.902099268 
113.33094172 92.200760918 20.652787481 113.26999271 92.351755383 20.400829568 113.20656659 92.498277938 20.146849323 
113.14038421 92.640994554 19.891408415 113.07131971 92.780637739 19.635033008 112.99930933 92.917825858 19.378142535 
112.92437983 93.05309469 19.121068661 112.84667827 93.186897493 18.864050121 112.76649353 93.319592991 18.607219967 
112.6841976 93.451412964 18.350606471 112.60026796 93.582475422 18.094133786 112.51528168 93.712779744 17.837622543 
112.42993201 93.842222904 17.58079614 112.34499487 93.970603533 17.323300837 112.26132869 94.097634965 17.064723308 
112.17987634 94.222958787 16.804611465 112.10166919 94.346153077 16.54249576 112.02785039 94.466730386 16.277904488 
111.95968335 94.584148878 16.010395712 111.89847243 94.697869196 15.739631808 111.84565026 94.807316445 15.465368523 
111.80274308 94.91190862 15.187508986 111.77149207 95.011012764 14.906111461 111.75353842 95.1041104 14.621526958 
111.75046939 95.19078485 14.334382541 111.76414086 95.270606964 14.045573507 111.79586903 95.343484324 13.756356319 
111.84697937 95.40944181 13.468263312 111.91844609 95.468761124 13.183077042 112.01079805 95.521998695 12.90273571 
112.12421642 95.569939756 12.629254483 112.25839832 95.613620236 12.364603641 112.41259098 95.654256238 12.110580502 
112.5858019 95.693162599 11.86883849 112.77661673 95.731703488 11.640668806 112.98355772 95.771219454 11.427191388 
113.20496155 95.812975345 11.229207645 113.43902727 95.858088141 11.047159104 113.68416949 95.907601382 10.881570858 
113.93851098 95.962256765 10.732272032 114.20048679 96.0227288 10.599299411 114.46856246 96.089509765 10.482477746 
114.74124428 96.162830386 10.381277158 115.01723868 96.242829251 10.295233127 115.29539675 96.329571801 10.223941483 
115.5746667 96.422855826 10.166618126 115.85417278 96.522426714 10.122536071 116.13318554 96.627966543 10.090961474 
116.41111271 96.739097374 10.071136272 116.68747698 96.855434919 10.062374168 116.96195863 96.976460643 10.063766076 
117.23434022 97.101693598 10.074521109 117.50450642 97.230645952 10.093854558 117.77243113 97.362834027 10.120994249 
118.0381579 97.497794236 10.155204576 118.30179047 97.635082078 10.19577767 118.56350673 97.77425275 10.241962595 
118.82350319 97.914912068 10.293094092 119.0819963 98.056702662 10.348547017 119.3392058 98.19931074 10.407750307 
119.59534599 98.342465677 10.470184513 119.85063355 98.485937073 10.535327417 120.10524955 98.629553526 10.602740981 
120.35934137 98.773200333 10.672042279 120.61301608 98.916822446 10.742905912 120.86634882 99.060426861 10.81501813 
121.1193697 99.20407874 10.888124157 121.37207028 99.347899688 10.962001759 121.62441437 99.492059836 11.036434718 
121.87634267 99.636766122 11.111215448 122.12777389 99.782261659 11.186137374 122.37861073 99.92882198 11.260975793 
122.62876818 100.07670407 11.3354867 122.87816157 100.22616822 11.409399114 123.12670788 100.37748226 11.482394349 
123.37436141 100.53084465 11.554137153 123.62109512 100.68642347 11.624257444 123.86690214 100.84435639 11.692339024 
124.11180129 101.00473735 11.757921928 124.35585167 101.16756587 11.820569792 124.59912198 101.33281949 11.879807108 
124.84169121 101.50044817 11.935113626 125.08365489 101.67033831 11.985991273 125.32511174 101.8423311 12.03197221 
125.56614789 102.01625815 12.072565922 125.80683008 102.19194652 12.107238981 126.04720242 102.36919568 12.13551972 
126.28727433 102.54780216 12.156978535 126.5270104 102.72758063 12.17116376 126.76632143 102.90836639 12.17758641 
127.00506109 103.09000882 12.175813035 127.24302624 103.27237955 12.165498956 127.47994638 103.4553861 12.146266244 
127.71547814 103.63896574 12.117710954 127.94921074 103.82307929 12.079468145 128.18069554 104.00770616 12.031323944 
128.409412 104.19285404 11.973025073 128.63476368 104.37855355 11.904310157 128.85609969 104.56484929 11.824983315 
129.07278421 104.75178603 11.735040312 129.28412001 104.93941526 11.634445203 129.4893468 105.12778953 11.523162619 
129.68769877 105.31695125 11.40126086 129.87848296 105.50692209 11.268984899 130.06095459 105.69771432 11.126553513 
130.23430869 105.88932544 10.97418007 130.39777302 106.08172449 10.812177009 130.55067136 106.2748455 10.640981494 
130.69224929 106.46859642 10.460988337 130.82164242 106.66284904 10.272562981 130.93804661 106.85742162 10.076169158 
131.04072492 107.05207662 9.8723468107 131.12882044 107.24651555 9.6616117138 131.20121365 107.44035102 9.444444031 
131.25713075 107.63312001 9.2215437232 131.29565438 107.82426408 8.993620215 131.31563775 108.01308844 8.7614284449 
131.31619612 108.19880772 8.5259054917 131.2966273 108.38055868 8.2881160699 131.25608112 108.55733015 8.0492305865 
131.19403872 108.72806388 7.810576545 131.11049356 108.89176083 7.573563159 131.00557251 109.04740885 7.3396448827 
130.8797643 109.19408744 7.1102687428 130.73387643 109.33100018 6.8868187062 130.569252 109.45766009 6.6704465556 

VERTICES 271 270
OFFSETS vtktypeint64
0 1 2 3 4 5 6 7 8 
9 10 11 12 13 14 15 16 17 
18 19 20 21 22 23 24 25 26 
27 28 29 30 31 32 33 34 35 
36 37 38 39 40 41 42 43 44 
45 46 47 48 49 50 51 52 53 
54 55 56 57 58 59 60 61 62 
63 64 65 66 67 68 69 70 71 
72 73 74 75 76 77 78 79 80 
81 82 83 84 85 86 87 88 89 
90 91 92 93 94 95 96 97 98 
99 100 101 102 103 104 105 106 107 
108 109 110 111 112 113 114 115 116 
117 118 119 120 121 122 123 124 125 
126 127 128 129 130 131 132 133 134 
135 136 137 138 139 140 141 142 143 
144 145 146 147 148 149 150 151 152 
153 154 155 156 157 158 159 160 161 
162 163 164 165 166 167 168 169 170 
171 172 173 174 175 176 177 178 179 
180 181 182 183 184 185 186 187 188 
189 190 191 192 193 194 195 196 197 
198 199 200 201 202 203 204 205 206 
207 208 209 210 211 212 213 214 215 
216 217 218 219 220 221 222 223 224 
225 226 227 228 229 230 231 232 233 
234 235 236 237 238 239 240 241 242 
243 244 245 246 247 248 249 250 251 
252 253 254 255 256 257 258 259 260 
261 262 263 264 265 266 267 268 269 
270 
CONNECTIVITY vtktypeint64
0 1 2 3 4 5 6 7 8 
9 10 11 12 13 14 15 16 17 
18 19 20 21 22 23 24 25 26 
27 28 29 30 31 32 33 34 35 
36 37 38 39 40 41 42 43 44 
45 46 47 48 49 50 51 52 53 
54 55 56 57 58 59 60 61 62 
63 64 65 66 67 68 69 70 71 
72 73 74 75 76 77 78 79 80 
81 82 83 84 85 86 87 88 89 
90 91 92 93 94 95 96 97 98 
99 100 101 102 103 104 105 106 107 
108 109 110 111 112 113 114 115 116 
117 118 119 120 121 122 123 124 125 
126 127 128 129 130 131 132 133 134 
135 136 137 138 139 140 141 142 143 
144 145 146 147 148 149 150 151 152 
153 154 155 156 157 158 159 160 161 
162 163 164 165 166 167 168 169 170 
171 172 173 174 175 176 177 178 179 
180 181 182 183 184 185 186 187 188 
189 190 191 192 193 194 195 196 197 
198 199 200 201 202 203 204 205 206 
207 208 209 210 211 212 213 214 215 
216 217 218 219 220 221 222 223 224 
225 226 227 228 229 230 231 232 233 
234 235 236 237 238 239 240 241 242 
243 244 245 246 247 248 249 250 251 
252 253 254 255 256 257 258 259 260 
261 262 263 264 265 266 267 268 269 

LINES 2 270
OFFSETS vtktypeint64
0 270 
CONNECTIVITY vtktypeint64
0 1 2 3 4 5 6 7 8 
9 10 11 12 13 14 15 16 17 
18 19 20 21 22 23 24 25 26 
27 28 29 30 31 32 33 34 35 
36 37 38 39 40 41 42 43 44 
45 46 47 48 49 50 51 52 53 
54 55 56 57 58 59 60 61 62 
63 64 65 66 67 68 69 70 71 
72 73 74 75 76 77 78 79 80 
81 82 83 84 85 86 87 88 89 
90 91 92 93 94 95 96 97 98 
99 100 101 102 103 104 105 106 107 
108 109 110 111 112 113 114 115 116 
117 118 119 120 121 122 123 124 125 
126 127 128 129 130 131 132 133 134 
135 136 137 138 139 140 141 142 143 
144 145 146 147 148 149 150 151 152 
153 154 155 156 157 158 159 160 161 
162 163 164 165 166 167 168 169 170 
171 172 173 174 175 176 177 178 179 
180 181 182 183 184 185 186 187 188 
189 190 191 192 193 194 195 196 197 
198 199 200 201 202 203 204 205 206 
207 208 209 210 211 212 213 214 215 
216 217 218 219 220 221 222 223 224 
225 226 227 228 229 230 231 232 233 
234 235 236 237 238 239 240 241 242 
243 244 245 246 247 248 249 250 251 
252 253 254 255 256 257 258 259 260 
261 262 263 264 265 266 267 268 269 

POINT_DATA 270
SCALARS Curvature double
LOOKUP_TABLE default
0.15432230263 0.14495971158 0.13722355701 0.13109785608 0.12656381852 0.12360533792 0.12217378795 0.12220590153 0.12362397605 
0.12631609702 0.13014810241 0.13496615567 0.14057124916 0.1467511826 0.15327241657 0.15986671225 0.16619126785 0.17186936977 
0.17657302307 0.18000090332 0.18191503061 0.18209918367 0.18037559171 0.1767244149 0.17116369687 0.1639191709 0.15533771706 
0.14572901837 0.13539174058 0.12462996555 0.11380577744 0.10328107492 0.093381579881 0.084429137022 0.07675402736 0.070695857136 
0.066489590775 0.064217030091 0.063756407463 0.064779704331 0.066876322996 0.069650665326 0.072784768453 0.07606516285 0.079393947944 
0.08278112334 0.086327156672 0.090186902871 0.094531960678 0.099523380668 0.10528595164 0.11184958009 0.11914552425 0.12701933743 
0.1352291128 0.14347080824 0.15136405229 0.15851224261 0.16462172303 0.16944384643 0.17282079381 0.17466325744 0.17497020304 
0.17394527349 0.1718755543 0.16918038016 0.16633446028 0.16375806756 0.16183933118 0.16095579707 0.16142124578 0.16343503472 
0.16709106095 0.17237296284 0.17914425473 0.18716401098 0.19615407289 0.20580896578 0.21579429931 0.22581573392 0.23561980582 
0.24494217243 0.25349170793 0.26107310546 0.26772069456 0.27356508543 0.27879085491 0.2836027681 0.2881991907 0.29272731559 
0.29725658784 0.30192695212 0.30673586044 0.31139165495 0.31533604068 0.31783841969 0.31806889892 0.31521097129 0.30893001077 
0.29908300853 0.2856512589 0.26875242435 0.24905237747 0.22745042777 0.20486066783 0.18221028184 0.16029979055 0.13987059596 
0.12172576253 0.10690426232 0.096625893094 0.091885472133 0.092915846574 0.098906701461 0.10836026748 0.11962013884 0.13137124837 
0.14269212003 0.15289484886 0.16144613232 0.16800730293 0.17241150047 0.17464333677 0.17491560503 0.17364152491 0.17123247619 
0.16803776795 0.16439755482 0.16058694392 0.15679723018 0.15313494034 0.14963731144 0.14625310791 0.14281592586 0.13910867605 
0.13494188718 0.13013809384 0.12458620164 0.11827788039 0.11123406338 0.10348493056 0.095125842261 0.086399482745 0.077633829317 
0.06917314574 0.061343499669 0.054437636611 0.048646643773 0.043906882516 0.03993447014 0.036303095989 0.032542347536 0.02828718428 
0.02340307663 0.018250798177 0.014643683785 0.016444502427 0.024231659694 0.035428327009 0.048657480236 0.063401759206 0.0793319493 
0.096194752493 0.11378700971 0.13190739551 0.15028757771 0.16855199755 0.18623710532 0.20283327119 0.21772880579 0.23050041215 
0.24088935072 0.24863830952 0.25349741016 0.2554413489 0.25488062298 0.25231086328 0.2482761533 0.24327025351 0.2376218221 
0.23147890705 0.22495591252 0.21821100684 0.21129819193 0.20419146954 0.196826073 0.18914412024 0.18107669453 0.17260220783 
0.16380320264 0.15475895351 0.1454933912 0.13602152334 0.12639137766 0.11667702199 0.10694730346 0.097280086466 0.087769845802 
0.078501036991 0.069557412384 0.061032547294 0.053042974942 0.045686075376 0.038992154232 0.032988615824 0.027686215588 0.023079303704 
0.019093984903 0.01561601925 0.012590998185 0.010117987932 0.008614111014 0.008706180726 0.010506948657 0.013468104008 0.017022712561 
0.020835545637 0.024744230986 0.02865607143 0.032519459858 0.03631317553 0.040063752257 0.043825289416 0.047640634497 0.051550994737 
0.055582251195 0.059753504985 0.064060920766 0.068488093959 0.073017302491 0.077615251553 0.082241265826 0.086857509239 0.091431660957 
0.095942731411 0.10038576511 0.10476778851 0.10909610104 0.11335709102 0.11753976839 0.1216314099 0.1256108179 0.12946263318 
0.13318779451 0.13678080954 0.1402232191 0.14350452362 0.14666926918 0.14980104642 0.15299722836 0.15637924988 0.1600674229 
0.16418332985 0.16885009613 0.17418195784 0.18026323768 0.18713654022 0.19479821784 0.20316917375 0.21210878798 0.22140207711 
0.23074187289 0.23974498448 0.24795881442 0.25490310096 0.26013718439 0.2632918109 0.26413108596 0.26258585799 0.25879342975 

