# vtk DataFile Version 5.1
vtk output
ASCII
DATASET POLYDATA
POINTS 244 double
76.414005721 65.476510817 33.092805832 76.575455582 65.578576618 32.86152456 76.749840623 65.682895624 32.640883826 
76.936548987 65.78836489 32.431137684 77.134939794 65.893890712 32.23243453 77.344317181 65.99842601 32.044784208 
77.564327506 66.100890059 31.868500413 77.794268868 66.200275651 31.703490269 78.033794014 66.295461803 31.550041921 
78.282329384 66.38537068 31.408181692 78.539353595 66.468858083 31.278003137 78.804361034 66.544645121 31.159664188 
79.076605583 66.611578 31.052994363 79.355423304 66.66825071 30.957998808 79.639938786 66.713339604 30.874387443 
79.929160848 66.745554761 30.80169167 80.222027175 66.763452302 30.739395586 80.517307071 66.765669669 30.686725057 
80.813632441 66.751045602 30.642635541 81.109529601 66.718415291 30.605954592 81.403397786 66.666757691 30.575319128 
81.693480942 66.59510573 30.549219592 81.977979281 66.503027129 30.525958872 82.255002077 66.390230196 30.503816776 
82.522621626 66.256760267 30.481066653 82.778926205 66.103033774 30.456048661 83.02208527 65.929849936 30.427247696 
83.250421686 65.738374133 30.393368753 83.462480092 65.530087716 30.353401041 83.657079714 65.306708278 30.306661183 
83.833291157 65.070060541 30.25279012 83.990505981 64.822034924 30.191777517 84.128448607 64.564493198 30.123950342 
84.24701502 64.299133246 30.049892926 84.346259162 64.027477763 29.970421552 84.426331711 63.750856989 29.886540636 
84.487236245 63.470389621 29.799378144 84.52939846 63.187116193 29.710234918 84.553058207 62.901909207 29.620420093 
84.558388939 62.615564173 29.531257674 84.545592452 62.328854886 29.444047372 84.515179244 62.042548223 29.359936094 
84.467548549 61.757416168 29.279907812 84.403065756 61.474275996 29.204756853 84.322615705 61.19389113 29.134853224 
84.226824718 60.91705257 29.070343722 84.116488953 60.644503328 29.011004581 83.992547765 60.376881998 28.956248861 
83.855624763 60.114894303 28.90528881 83.706662896 59.85904184 28.856979706 83.546121614 59.610027442 28.810044292 
83.374720445 59.368383267 28.762987311 83.192777312 59.134938035 28.71416551 83.000768588 58.910490259 28.661844298 
82.798926833 58.696239428 28.604101138 82.587698669 58.493451894 28.539035384 82.367353311 58.304119188 28.464420831 
82.138639369 58.130279051 28.378260212 81.902484797 57.974701057 28.278419289 81.66036039 57.840686219 28.162910237 
81.414481904 57.731971183 28.030126443 81.167965087 57.652481624 27.879147816 80.924851383 57.605918743 27.710056099 
80.690012636 57.595471863 27.524070383 80.468661463 57.622804698 27.323833487 80.265599359 57.687614586 27.113105926 
80.085123293 57.788489804 26.896078662 79.929796875 57.921809456 26.677089747 79.801229926 58.083638785 26.459930295 
79.700044592 58.269764405 26.247765638 79.625871223 58.475872566 26.043006149 79.577820215 58.69800504 25.847378149 
79.554872213 58.932713891 25.662130017 79.555575852 59.176852476 25.487967623 79.578437344 59.427745068 25.325260425 
79.622032401 59.683137733 25.174174524 79.685087678 59.941120847 25.034795321 79.765873264 60.200061831 24.906785022 
79.86334973 60.458644208 24.790159985 79.975788483 60.715832619 24.684408883 80.102204628 60.970772633 24.58954246 
80.240981928 61.222937154 24.505094947 80.391056048 61.471901048 24.431103204 80.550985659 61.717539432 24.367334623 
80.71958549 61.959829255 24.313914829 80.895483733 62.198980337 24.270877673 81.077381939 62.435311841 24.238519862 
81.263836417 62.669323851 24.217054447 81.453413653 62.901589407 24.207009087 81.64450971 63.132818566 24.208628604 
81.835472648 63.363752207 24.222407557 82.024520538 63.595177972 24.248644799 82.209830407 63.827862621 24.287396221 
82.389544035 64.062530044 24.338552264 82.561818867 64.299839753 24.401701385 82.724933483 64.540359581 24.476031533 
82.877467522 64.784528966 24.560260958 83.018255244 65.032708358 24.652811847 83.146465856 65.285181054 24.751809166 
83.261586357 65.54217711 24.855167587 83.363306209 65.803917719 24.960656406 83.451790079 66.070501799 25.065944271 
83.527267489 66.342019747 25.168720876 83.590006725 66.618528802 25.266639622 83.640399837 66.89997281 25.357352113 
83.67897681 67.186124042 25.438623728 83.706150056 67.476638815 25.508170626 83.722250257 67.770983088 25.563594472 
83.727828439 68.068288609 25.602852087 83.723310003 68.367447757 25.623865092 83.70914556 68.667038143 25.624726279 
83.685773347 68.965299823 25.603634616 83.653833355 69.26021458 25.55948688 83.613972681 69.549569695 25.491490286 
83.566923614 69.831062181 25.399379162 83.513499822 70.102433728 25.283451601 83.454577605 70.361607724 25.14454533 
83.391068029 70.606808656 24.983966803 83.323879061 70.836617599 24.803352296 83.253890346 71.050002228 24.604555905 
83.181945082 71.246508094 24.389700002 83.108790176 71.426010722 24.160820912 83.035079436 71.588738039 23.919880364 
82.961372721 71.735021955 23.668604898 82.888127725 71.865795508 23.408783028 82.815691731 71.982056146 23.141919754 
82.744336387 72.084696743 22.869235172 82.674202147 72.175169149 22.591958804 82.605365849 72.254685934 22.311016694 
82.537811762 72.324613733 22.027223043 82.471434334 72.386419991 21.741270586 82.406081831 72.441408865 21.453691203 
82.341504448 72.491095976 21.164971765 82.277420584 72.536787594 20.875481584 82.213482953 72.57984925 20.585555206 
82.149310853 72.621535265 20.295479101 82.084475878 72.663018003 20.005521307 82.018542324 72.705362879 19.715936555 
81.951049675 72.749491273 19.426978606 81.881498503 72.796213054 19.138918793 81.809436465 72.846104351 18.852011097 
81.734394804 72.899590981 18.566519309 81.655894043 72.956945956 18.282714232 81.573478536 73.018259768 18.000854168 
81.486743935 73.083445744 17.721168191 81.395285609 73.152320535 17.443881603 81.298686277 73.224628418 17.169225004 
81.196592012 73.300017819 16.897399889 81.088704338 73.378094028 16.628588241 80.974729969 73.458470012 16.36298523 
80.854318497 73.540790963 16.100841235 80.727321378 73.624680798 15.842328748 80.593547086 73.709835275 15.587676929 
80.452751992 73.79601199 15.337188447 80.304865783 73.883007554 15.091109369 80.149819739 73.970692669 14.849727054 
79.987462252 74.059014805 14.613438299 79.81783886 74.147973894 14.382556213 79.640983538 74.237636432 14.157444681 
79.456840465 74.32814231 13.938602127 79.265594812 74.419661072 13.726374534 79.067386397 74.512412445 13.521187057 
78.862289567 74.60667925 13.323601757 78.650633203 74.702725222 13.133953159 78.432689503 74.800847589 12.952672804 
78.208705486 74.901384656 12.780297692 77.979131803 75.004608466 12.617112386 77.74439238 75.110796581 12.463456169 
77.504911133 75.220231512 12.319714669 77.26120993 75.333120581 12.186095756 77.013832838 75.449614884 12.062719106 
76.76331164 75.569831657 11.949687681 76.510167598 75.693855881 11.847094618 76.254960038 75.821630149 11.754726179 
75.998187043 75.953075444 11.672386528 75.740303175 76.088080006 11.599855021 75.481728579 76.226446543 11.536724268 
75.222822808 76.367929035 11.482475184 74.963881112 76.512282138 11.43659266 74.705144565 76.659258231 11.398538558 
74.446792231 76.808559941 11.367579789 74.188954088 76.959934612 11.343050428 73.931728027 77.113172182 11.324335646 
73.675161258 77.268040092 11.310655053 73.41928517 77.424369443 11.301329003 73.164127467 77.582046882 11.295739863 
72.909686812 77.740957416 11.293182378 72.655971675 77.901045087 11.293049332 72.403005406 78.062304746 11.294787694 
72.150794965 78.2247251 11.297827846 71.899365134 78.388334432 11.301677337 71.648758372 78.553193094 11.305881765 
71.398999632 78.719335353 11.310015901 71.150124584 78.886808827 11.313701226 70.902178653 79.055670381 11.316577028 
70.655184153 79.22593565 11.318321285 70.409159544 79.397607762 11.318631139 70.164124014 79.570682805 11.317192582 
69.920073566 79.745114895 11.313706454 69.676988045 79.920826731 11.30787563 69.434845987 80.097727139 11.29935546 
69.193610548 80.275688709 11.287776826 68.953227348 80.454544763 11.27277296 68.713650072 80.634113294 11.253895568 
68.474834972 80.814181644 11.230640025 68.236737542 80.994507107 11.202534521 67.999343696 81.174833178 11.169010549 
67.762672959 81.35488095 11.129434843 67.526773338 81.534369668 11.083274721 67.291755386 81.713015617 11.029915118 
67.057805754 81.890531463 10.968679534 66.825161299 82.066680022 10.899101486 66.594149511 82.241250295 10.820671716 
66.365217356 82.414056446 10.732809888 66.138841938 82.585027461 10.635273966 65.915602383 82.754148826 10.52779413 
65.696201913 82.921476783 10.410090171 65.481354505 83.087198299 10.282163608 65.271834995 83.251588741 10.144086827 
65.068532173 83.415003582 9.9959269808 64.872355534 83.577890734 9.8379106507 64.684188971 83.740757076 9.6704187098 
64.505015085 83.904142494 9.4938186935 64.335934273 84.068615488 9.3084955857 64.177862566 84.234703249 9.1150782939 
64.031833804 84.402892941 8.9141581501 63.898966007 84.573613763 8.7063584228 63.780294833 84.747179593 8.4924200228 
63.676735622 84.923759028 8.2731711247 63.589221736 85.103394846 8.0494615397 63.51864004 85.285984791 7.8221893738 
63.465826991 85.471275933 7.5922990423 63.431251211 85.658831537 7.3607906212 63.415347169 85.848105316 7.128647837 
63.418375502 86.038443327 6.8968474663 63.440619713 86.229108182 6.6663669183 63.481839068 86.419304149 6.4381265693 
63.541746377 86.608231571 6.2129917314 63.620139914 86.795070161 5.9918236587 63.716405443 86.979052021 5.7753690283 
63.829893641 87.159457149 5.5643117707 63.960004648 87.335583786 5.3593190802 64.105855417 87.506850584 5.1609063083 
64.266533243 87.672754322 4.9695072487 
VERTICES 245 244
OFFSETS vtktypeint64
0 1 2 3 4 5 6 7 8 
9 10 11 12 13 14 15 16 17 
18 19 20 21 22 23 24 25 26 
27 28 29 30 31 32 33 34 35 
36 37 38 39 40 41 42 43 44 
45 46 47 48 49 50 51 52 53 
54 55 56 57 58 59 60 61 62 
63 64 65 66 67 68 69 70 71 
72 73 74 75 76 77 78 79 80 
81 82 83 84 85 86 87 88 89 
90 91 92 93 94 95 96 97 98 
99 100 101 102 103 104 105 106 107 
108 109 110 111 112 113 114 115 116 
117 118 119 120 121 122 123 124 125 
126 127 128 129 130 131 132 133 134 
135 136 137 138 139 140 141 142 143 
144 145 146 147 148 149 150 151 152 
153 154 155 156 157 158 159 160 161 
162 163 164 165 166 167 168 169 170 
171 172 173 174 175 176 177 178 179 
180 181 182 183 184 185 186 187 188 
189 190 191 192 193 194 195 196 197 
198 199 200 201 202 203 204 205 206 
207 208 209 210 211 212 213 214 215 
216 217 218 219 220 221 222 223 224 
225 226 227 228 229 230 231 232 233 
234 235 236 237 238 239 240 241 242 
243 244 
CONNECTIVITY vtktypeint64
0 1 2 3 4 5 6 7 8 
9 10 11 12 13 14 15 16 17 
18 19 20 21 22 23 24 25 26 
27 28 29 30 31 32 33 34 35 
36 37 38 39 40 41 42 43 44 
45 46 47 48 49 50 51 52 53 
54 55 56 57 58 59 60 61 62 
63 64 65 66 67 68 69 70 71 
72 73 74 75 76 77 78 79 80 
81 82 83 84 85 86 87 88 89 
90 91 92 93 94 95 96 97 98 
99 100 101 102 103 104 105 106 107 
108 109 110 111 112 113 114 115 116 
117 118 119 120 121 122 123 124 125 
126 127 128 129 130 131 132 133 134 
135 136 137 138 139 140 141 142 143 
144 145 146 147 148 149 150 151 152 
153 154 155 156 157 158 159 160 161 
162 163 164 165 166 167 168 169 170 
171 172 173 174 175 176 177 178 179 
180 181 182 183 184 185 186 187 188 
189 190 191 192 193 194 195 196 197 
198 199 200 201 202 203 204 205 206 
207 208 209 210 211 212 213 214 215 
216 217 218 219 220 221 222 223 224 
225 226 227 228 229 230 231 232 233 
234 235 236 237 238 239 240 241 242 
243 
LINES 2 244
OFFSETS vtktypeint64
0 244 
CONNECTIVITY vtktypeint64
0 1 2 3 4 5 6 7 8 
9 10 11 12 13 14 15 16 17 
18 19 20 21 22 23 24 25 26 
27 28 29 30 31 32 33 34 35 
36 37 38 39 40 41 42 43 44 
45 46 47 48 49 50 51 52 53 
54 55 56 57 58 59 60 61 62 
63 64 65 66 67 68 69 70 71 
72 73 74 75 76 77 78 79 80 
81 82 83 84 85 86 87 88 89 
90 91 92 93 94 95 96 97 98 
99 100 101 102 103 104 105 106 107 
108 109 110 111 112 113 114 115 116 
117 118 119 120 121 122 123 124 125 
126 127 128 129 130 131 132 133 134 
135 136 137 138 139 140 141 142 143 
144 145 146 147 148 149 150 151 152 
153 154 155 156 157 158 159 160 161 
162 163 164 165 166 167 168 169 170 
171 172 173 174 175 176 177 178 179 
180 181 182 183 184 185 186 187 188 
189 190 191 192 193 194 195 196 197 
198 199 200 201 202 203 204 205 206 
207 208 209 210 211 212 213 214 215 
216 217 218 219 220 221 222 223 224 
225 226 227 228 229 230 231 232 233 
234 235 236 237 238 239 240 241 242 
243 
POINT_DATA 244
SCALARS Curvature double
LOOKUP_TABLE default
0.19674543124 0.18936276777 0.18316463405 0.17828080748 0.17478121903 0.1726550413 0.17187410595 0.17231745455 0.17385356066 
0.17631098222 0.17950157531 0.18325200142 0.18738531327 0.19177235273 0.19637725506 0.20121722177 0.20634503088 0.21182293009 
0.21774358251 0.22416722329 0.23109890056 0.23843768255 0.24592356773 0.25315666515 0.2596195664 0.26477418932 0.26809615553 
0.26920608819 0.26790517091 0.26430031053 0.25867187624 0.25148486892 0.24329758026 0.2347408325 0.2264234845 0.21890137769 
0.21261387741 0.20774352705 0.20425652511 0.20184801058 0.19999679632 0.19804533952 0.19534318651 0.19137510016 0.18591318562 
0.17901065152 0.17105910254 0.16275248449 0.15508586197 0.14928388233 0.14677932841 0.14882669351 0.15639637765 0.16980649235 
0.18899310257 0.21348612245 0.24285906716 0.27639224582 0.31322439943 0.35202362983 0.39070850347 0.42644136199 0.45569593886 
0.47492571428 0.48198565537 0.47704050547 0.46205656441 0.44028162054 0.4148296386 0.38814097525 0.36187885372 0.33693359983 
0.31373881358 0.29238495101 0.2728127963 0.25489874672 0.23847586176 0.22332065218 0.20929375618 0.19629236129 0.18428682436 
0.17323588711 0.1632092953 0.15429616372 0.14672591425 0.14075395219 0.13671944798 0.13488933809 0.13541841727 0.13817999996 
0.14281966262 0.14867590122 0.15484548284 0.1603817931 0.16450757537 0.16668655896 0.16682476099 0.16519737589 0.16252476629 
0.15976256645 0.15802885154 0.15831916382 0.16137684413 0.16755458803 0.17681304952 0.18877449384 0.20283851278 0.21824475529 
0.23417624414 0.24983934819 0.26440025989 0.27703911676 0.28700752312 0.29373088203 0.29680816428 0.29614909747 0.29187664634 
0.2843315084 0.27396487636 0.26138013265 0.2471671406 0.23176910999 0.21551079103 0.19867988701 0.18150424168 0.16414148785 
0.14670373223 0.12928098872 0.11196022294 0.094831633444 0.078013830695 0.06168349911 0.046109640618 0.031854642806 0.020389537843 
0.016101341911 0.021604616038 0.030692328499 0.039865001534 0.048094846571 0.055099821827 0.060853433278 0.065455697169 0.069110224056 
0.072063323087 0.074563612308 0.076829501071 0.079026443392 0.081259345847 0.083574432398 0.085979315182 0.088453580257 0.090971218591 
0.093506988801 0.096046173951 0.098584797846 0.10113052811 0.10369298529 0.10627981336 0.10889543117 0.11153170742 0.11416880057 
0.11676983932 0.11928120653 0.12163564113 0.12374585526 0.12553575864 0.12691450202 0.12776475565 0.12796209299 0.12740772736 
0.1260137966 0.12370734097 0.12045884315 0.11626678564 0.11116191383 0.10521964396 0.098556215417 0.091302219071 0.083616916161 
0.075667567819 0.067616160507 0.05962176655 0.051827890789 0.044376968015 0.03741787895 0.031111969443 0.025649378594 0.02130641652 
0.018372392671 0.017063372366 0.017303124387 0.018630670551 0.020550343133 0.022712684879 0.024928266461 0.027144348342 0.029384572402 
0.031730083909 0.03429615452 0.037221138316 0.040648193685 0.044678854333 0.049383234991 0.054770668273 0.060784784263 0.067328759457 
0.074258385413 0.08139742485 0.088548623896 0.095510757209 0.1020965768 0.10814838972 0.11355373504 0.11826968854 0.12231495119 
0.12577483693 0.12885310173 0.13180572424 0.13492501894 0.13849074396 0.14272155969 0.14774529751 0.15358315185 0.16012688514 
0.16718324977 0.17450127934 0.18178910434 0.18878232148 0.19522303496 0.20088041894 0.20556292859 0.20919532664 0.21175780136 
0.21329747401 0.21389277617 0.21366540355 0.21273909032 0.21121206972 0.2091775316 0.20669803443 0.20381143996 0.20055451895 
0.19695538467 
