# vtk DataFile Version 5.1
vtk output
ASCII
DATASET POLYDATA
POINTS 208 double
108.57873796 72.281404877 27.561343501 108.2862677 72.225723427 27.524520372 107.99514691 72.163099247 27.488149928 
107.70537657 72.094083981 27.452559961 107.41694504 72.019152969 27.418069526 107.12980826 71.938815197 27.384969938 
106.84393669 71.853438114 27.353573136 106.55928995 71.763380525 27.324187225 106.27584361 71.668910857 27.297143153 
105.99359642 71.570212738 27.272794761 105.7125845 71.467368054 27.251517369 105.43289024 71.360362003 27.233685542 
105.15467871 71.249007714 27.219713016 104.87817252 71.133056815 27.209924569 104.60374218 71.011994987 27.204701377 
104.33182317 70.885290691 27.204224239 104.06303538 70.752150391 27.208652576 103.79810055 70.611740408 27.217916967 
103.53791845 70.463072368 27.231785395 103.28350027 70.305162904 27.249761104 103.03603893 70.136963153 27.271114332 
102.79674656 69.957633871 27.294815522 102.56707638 69.766282312 27.319606136 102.34833225 69.562487658 27.343951567 
102.14182593 69.346076695 27.366144245 101.94877284 69.117235331 27.384349623 101.77013131 68.876609291 27.39672439 
101.60644185 68.625318737 27.401598216 101.45792031 68.364761017 27.397535836 101.32438835 68.096546078 27.383449366 
101.20541892 67.822323695 27.35856227 101.10010212 67.543770681 27.322653256 101.00741634 67.2623561 27.275833199 
100.92636852 66.979306975 27.21842993 100.85576349 66.695615365 27.151217034 100.7946342 66.411990946 27.075012329 
100.74207166 66.128907203 26.990810191 100.69742202 65.846645259 26.899564217 100.66013737 65.565331041 26.802276501 
100.63004608 65.285022187 26.699733277 100.60704662 65.005720937 26.592702014 100.59131582 64.727453426 26.48173465 
100.58334662 64.450324989 26.367149368 100.58366967 64.174528902 26.249130149 100.59309347 63.900428766 26.12759391 
100.61270982 63.628623506 26.002192967 100.64350745 63.359909809 25.872465194 100.68678075 63.095438471 25.73769543 
100.74371644 62.836654345 25.597109476 100.81551978 62.585392059 25.449867948 100.90316652 62.34379835 25.295230949 
101.00755076 62.11447332 25.132542544 101.12894253 61.900072092 24.961543285 101.26733374 61.703500297 24.782247926 
101.42221889 61.527681512 24.595082673 101.59238321 61.3750482 24.400988765 101.77626767 61.247755066 24.201222979 
101.9719791 61.147533867 23.9973172 102.17736701 61.075626991 23.790995235 102.39007555 61.032525866 23.584066101 
102.60776984 61.018437776 23.378305422 102.82813023 61.033478819 23.175465943 103.0488308 61.076943873 22.977148502 
103.26766137 61.148045141 22.784819288 103.48244587 61.246017665 22.599876051 103.69123771 61.369240227 22.423360235 
103.89220322 61.516271999 22.256222249 104.08376196 61.685319346 22.099149845 104.26473926 61.874229472 21.952487597 
104.43409354 62.081093076 21.816541462 104.59147052 62.303482952 21.691103454 104.73658921 62.539418525 21.576036528 
104.86978484 62.786721927 21.470820425 104.99148241 63.043598374 21.375007459 105.10255845 63.308282729 21.287916772 
105.20387686 63.579374633 21.208996045 105.29659511 63.855570844 21.137532126 105.38171126 64.135894229 21.072995068 
105.46038281 64.419452645 21.014697732 105.53349769 64.705611687 20.96214167 105.60199163 64.993794449 20.914649852 
105.66649557 65.283605579 20.871685006 105.72758535 65.574693518 20.832521215 105.78551854 65.866830858 20.796492911 
105.8404527 66.159820437 20.762755612 105.89225526 66.453541273 20.730451192 105.94072272 66.747879365 20.698593592 
105.98539903 67.042750519 20.666135379 106.02583697 67.338041247 20.631989479 106.06138792 67.633614625 20.59498693 
106.09145668 67.929267988 20.553997002 106.11533599 68.224720039 20.507831047 106.13232626 68.519584249 20.455317858 
106.14177386 68.81335748 20.395342895 106.14288974 69.105360537 20.326648144 106.13512426 69.394789335 20.248205871 
106.11776197 69.680582212 20.158765642 106.09031595 69.961508228 20.057269327 106.05226167 70.236013747 19.942520058 
106.00335112 70.502356121 19.813549052 105.94332538 70.758333218 19.669222427 105.87240893 71.001678838 19.508901049 
105.79104693 71.229840151 19.33207683 105.70010695 71.440212102 19.138648622 105.60095437 71.630444751 18.929083172 
105.4954207 71.798814683 18.704472341 105.38563336 71.944353715 18.46634695 105.27386383 72.067060885 18.216555857 
105.1623267 72.167879443 17.957038174 105.05303075 72.248451893 17.689593912 104.94769734 72.310949017 17.41578746 
104.84766859 72.357944514 17.136927296 104.75404364 72.391858708 16.853965997 104.66758135 72.415176215 16.567667054 
104.58883129 72.43012354 16.278591984 104.51810973 72.438710424 15.987188506 104.45558831 72.442641135 15.693814664 
104.40119702 72.443369456 15.398798332 104.35485679 72.442014276 15.102411616 104.31618576 72.439469501 14.80493378 
104.28490242 72.43635528 14.506592918 104.26046192 72.433093161 14.207614332 104.24241996 72.429910017 13.908179672 
104.23020542 72.42689039 13.608448153 104.22334218 72.424031934 13.308544053 104.22133716 72.421295225 13.008566357 
104.22382137 72.41865699 12.708590926 104.23045626 72.416151295 12.408677113 104.24106032 72.413906081 12.108875173 
104.25547356 72.41215119 11.809228861 104.27371587 72.411246707 11.509787622 104.29579198 72.411643712 11.210603798 
104.32188824 72.413933189 10.911752836 104.35215553 72.418743704 10.613326289 104.38688141 72.426806008 10.31545692 
104.4263211 72.438824237 10.018309971 104.47080019 72.455527014 9.7221038997 104.52062283 72.47757492 9.427102224 
104.57610301 72.505575181 9.1336206673 104.63754781 72.540064742 8.8420260292 104.70523004 72.581482928 8.552724812 
104.7794281 72.630222364 8.2661770176 104.86036278 72.686567967 7.9828672157 104.94826178 72.750786314 7.7033346137 
105.04328946 72.823065953 7.4281378137 105.14560262 72.903600187 7.1578914417 105.2552918 72.992537448 6.8932323288 
105.37241779 73.090035353 6.6348517421 105.49695855 73.196203555 6.3834517421 105.62885868 73.311157673 6.1397905049 
105.76794023 73.434900775 5.9045750988 105.91402358 73.567453179 5.6785862402 106.06674645 73.708594975 5.4624006912 
106.22582566 73.858166213 5.2567221325 106.39076786 74.015644573 5.0618472962 106.56120287 74.180548276 4.8781591545 
106.7366684 74.352113992 4.7056464765 106.91680211 74.529536519 4.5442198897 107.10128603 74.711890561 4.3935556704 
107.289877 74.898192031 4.2531484456 107.4824471 75.0874556 4.1224326225 107.67891719 75.278674489 4.0006667165 
107.87932921 75.470885915 3.8871632466 108.08373918 75.663160161 3.7811380769 108.29228173 75.854628075 3.6819172388 
108.50506548 76.044500235 3.5888218363 108.7222162 76.23206219 3.5012927281 108.9437948 76.416714424 3.4188192856 
109.16982694 76.597955695 3.3409958466 109.40024428 76.775427337 3.2674618847 109.63492284 76.948886427 3.1979373147 
109.87361616 77.118277739 3.1321479746 110.11603439 77.283663155 3.0698769314 110.36175479 77.445324432 3.0108483796 
110.61035432 77.603619398 2.9548226479 110.86129916 77.759106925 2.9014480016 111.11409574 77.912360247 2.8503948926 
111.36819992 78.064060299 2.8012249393 111.62312333 78.214849158 2.7535113337 111.87839918 78.36534957 2.7067800365 
112.13362405 78.51609854 2.6605741783 112.38846543 78.667521687 2.6144567736 112.64268199 78.81990232 2.5680463642 
112.89613108 78.973373454 2.5210361444 113.14878678 79.127901423 2.4732239939 113.40072186 79.283320325 2.4245051832 
113.6521225 79.439324251 2.3749027271 113.90324701 79.595523058 2.3245204816 114.15441938 79.751459118 2.2735661848 
114.40599418 79.906639114 2.2222907537 114.65831841 80.060588144 2.1709885214 114.91172326 80.212843648 2.1199611921 
115.16647155 80.363028158 2.0694908529 115.42276128 80.510837634 2.0198208676 115.68069993 80.656082975 1.9711330492 
115.94030534 80.798696464 1.9235359807 116.20152498 80.938712139 1.8770705918 116.46422158 81.076301322 1.8316945503 
116.72822705 81.211694767 1.7873191852 116.99331141 81.345241606 1.7437858061 117.25924216 81.477311875 1.7009130164 
117.52575007 81.608355164 1.6584735393 117.79257186 81.738822369 1.6162310329 118.05943071 81.869195478 1.5739321052 
118.32604717 81.999960217 1.5313154351 118.59214528 82.131590168 1.4881278315 118.85742516 82.264584648 1.4440974268 
119.12160399 82.399393597 1.3989812076 
VERTICES 209 208
OFFSETS vtktypeint64
0 1 2 3 4 5 6 7 8 
9 10 11 12 13 14 15 16 17 
18 19 20 21 22 23 24 25 26 
27 28 29 30 31 32 33 34 35 
36 37 38 39 40 41 42 43 44 
45 46 47 48 49 50 51 52 53 
54 55 56 57 58 59 60 61 62 
63 64 65 66 67 68 69 70 71 
72 73 74 75 76 77 78 79 80 
81 82 83 84 85 86 87 88 89 
90 91 92 93 94 95 96 97 98 
99 100 101 102 103 104 105 106 107 
108 109 110 111 112 113 114 115 116 
117 118 119 120 121 122 123 124 125 
126 127 128 129 130 131 132 133 134 
135 136 137 138 139 140 141 142 143 
144 145 146 147 148 149 150 151 152 
153 154 155 156 157 158 159 160 161 
162 163 164 165 166 167 168 169 170 
171 172 173 174 175 176 177 178 179 
180 181 182 183 184 185 186 187 188 
189 190 191 192 193 194 195 196 197 
198 199 200 201 202 203 204 205 206 
207 208 
CONNECTIVITY vtktypeint64
0 1 2 3 4 5 6 7 8 
9 10 11 12 13 14 15 16 17 
18 19 20 21 22 23 24 25 26 
27 28 29 30 31 32 33 34 35 
36 37 38 39 40 41 42 43 44 
45 46 47 48 49 50 51 52 53 
54 55 56 57 58 59 60 61 62 
63 64 65 66 67 68 69 70 71 
72 73 74 75 76 77 78 79 80 
81 82 83 84 85 86 87 88 89 
90 91 92 93 94 95 96 97 98 
99 100 101 102 103 104 105 106 107 
108 109 110 111 112 113 114 115 116 
117 118 119 120 121 122 123 124 125 
126 127 128 129 130 131 132 133 134 
135 136 137 138 139 140 141 142 143 
144 145 146 147 148 149 150 151 152 
153 154 155 156 157 158 159 160 161 
162 163 164 165 166 167 168 169 170 
171 172 173 174 175 176 177 178 179 
180 181 182 183 184 185 186 187 188 
189 190 191 192 193 194 195 196 197 
198 199 200 201 202 203 204 205 206 
207 
LINES 2 208
OFFSETS vtktypeint64
0 208 
CONNECTIVITY vtktypeint64
0 1 2 3 4 5 6 7 8 
9 10 11 12 13 14 15 16 17 
18 19 20 21 22 23 24 25 26 
27 28 29 30 31 32 33 34 35 
36 37 38 39 40 41 42 43 44 
45 46 47 48 49 50 51 52 53 
54 55 56 57 58 59 60 61 62 
63 64 65 66 67 68 69 70 71 
72 73 74 75 76 77 78 79 80 
81 82 83 84 85 86 87 88 89 
90 91 92 93 94 95 96 97 98 
99 100 101 102 103 104 105 106 107 
108 109 110 111 112 113 114 115 116 
117 118 119 120 121 122 123 124 125 
126 127 128 129 130 131 132 133 134 
135 136 137 138 139 140 141 142 143 
144 145 146 147 148 149 150 151 152 
153 154 155 156 157 158 159 160 161 
162 163 164 165 166 167 168 169 170 
171 172 173 174 175 176 177 178 179 
180 181 182 183 184 185 186 187 188 
189 190 191 192 193 194 195 196 197 
198 199 200 201 202 203 204 205 206 
207 
POINT_DATA 208
SCALARS Curvature double
LOOKUP_TABLE default
0.092739438715 0.085915588007 0.079713362355 0.074140446993 0.069238704903 0.06510153685 0.061890673756 0.059830917898 0.059144734283 
0.059989174674 0.062432554807 0.066455157887 0.071988125748 0.078930944601 0.087174173928 0.09660400146 0.1071453362 0.11873010938 
0.13123699902 0.14451970698 0.15840569948 0.17249409583 0.18613979091 0.19862459995 0.20912490635 0.21689141004 0.22127724439 
0.22193662872 0.21884006106 0.21233697749 0.20287126446 0.19099699234 0.1773679991 0.16266260227 0.1476684053 0.13313747746 
0.11982022218 0.10848189369 0.099858261252 0.09453155733 0.092831554732 0.094972715815 0.10102214734 0.11064610922 0.12355548192 
0.13947152575 0.15805052829 0.17885040809 0.20130487316 0.2246764016 0.24803847017 0.27028166102 0.2902293507 0.30679097442 
0.31928855024 0.32755608096 0.33191746731 0.33302558048 0.33168620526 0.32884868126 0.3252324116 0.32108012561 0.31641451774 
0.31114310318 0.30497654387 0.29754624497 0.28846061876 0.27739134266 0.2643008922 0.24928800037 0.23262752613 0.21465036722 
0.19579053305 0.17656494032 0.15757486503 0.13933159455 0.12224981115 0.10663485185 0.092610013956 0.080086775885 0.068899442481 
0.058968976191 0.050292655368 0.043277622617 0.038946433437 0.038818593558 0.043464760626 0.052105524079 0.063321405944 0.076102853187 
0.089839277885 0.104224024 0.11911795694 0.13451970449 0.15051230906 0.16720750023 0.18471603372 0.20303722002 0.222021637 
0.24137906146 0.26043913851 0.27795408587 0.29232086267 0.30172436743 0.30451887583 0.2996886846 0.28729381797 0.26847720733 
0.245301893 0.21997105692 0.19448495913 0.17050485185 0.14926387091 0.13155536487 0.11762734218 0.1071324135 0.099298676266 
0.093141209893 0.087762640783 0.082539444845 0.077119332062 0.071381994229 0.065483925719 0.059752154157 0.054502175874 0.050012737441 
0.046494128649 0.044091736021 0.042952326808 0.043271432392 0.045296452928 0.049097846177 0.054583244183 0.061384390797 0.069055057223 
0.077124379621 0.085189144724 0.092938580785 0.10020005552 0.10691078466 0.11306511908 0.11871340782 0.1239946168 0.1290622564 
0.13404942977 0.13903511279 0.14401571836 0.14892091281 0.15361029387 0.1578477026 0.1613269377 0.1636780363 0.1645431048 
0.16359889907 0.1606674601 0.15568057408 0.14880266465 0.14037410403 0.1308909508 0.12093840325 0.11113487128 0.10210922733 
0.094480813893 0.088669376088 0.084798618354 0.082624154545 0.08160622267 0.081068055085 0.080368413793 0.078940535623 0.076319210853 
0.07221789232 0.066496479645 0.059233240794 0.050625414863 0.041050170988 0.03098200629 0.021034217092 0.012056256262 0.0065339620685 
0.0088349565051 0.013319192505 0.016413226218 0.017435661169 0.016345415062 0.013416222863 0.0094807070939 0.0071271728632 0.010120112947 
0.01613116969 0.022536211667 0.028292294918 0.032807530356 0.035734340844 0.036906158271 0.036319755319 0.034118238708 0.030554965636 
0.025882526015 0.020374569505 0.014275195041 0.0078604234354 0.0022509260631 0.006316281197 0.013024429899 0.019857793363 0.026717575907 
0.033582398485 
