# vtk DataFile Version 5.1
vtk output
ASCII
DATASET POLYDATA
POINTS 296 double
115.79918024 85.013928191 33.64644386 115.51867634 84.976019069 33.547058189 115.2393753 84.932719234 33.446494913 
114.96136874 84.883867478 33.344894026 114.68475642 84.829301733 33.242399438 114.40965523 84.768828765 33.139155891 
114.13618094 84.702300002 33.035318155 113.86445621 84.62957858 32.931042564 113.59461918 84.550513572 32.826484007 
113.32681881 84.464962671 32.721796267 113.06121522 84.372795947 32.617128488 112.79797982 84.273900526 32.512620016 
112.53729503 84.168185176 32.40839487 112.27935347 84.055584183 32.30455647 112.02436 83.936053337 32.201182986 
111.77253859 83.809558752 32.098322342 111.52409026 83.676165111 31.995977781 111.27923633 83.53593731 31.894108825 
111.03820199 83.388974132 31.792626512 110.80121541 83.235404374 31.691394022 110.5685079 83.075382692 31.590227649 
110.34031508 82.909085457 31.488897617 110.11687927 82.736706619 31.387129495 109.89846058 82.558444131 31.284607149 
109.68536063 82.374479149 31.180972329 109.47782638 82.18507318 31.075857213 109.27616432 81.99044506 30.968871035 
109.08070842 81.790813057 30.85961293 108.89182482 81.586394437 30.747680065 108.70991615 81.377405717 30.63267682 
108.53544413 81.164054082 30.514214774 108.36893809 80.946543891 30.391916743 108.21087377 80.725136857 30.265485678 
108.06182511 80.500075787 30.134639237 107.9224081 80.271620735 29.999145063 107.79327767 80.040052891 29.858831053 
107.67512264 79.805679702 29.713593271 107.56865828 79.568840883 29.563402086 107.47461618 79.329913773 29.408308392 
107.39375157 79.089315637 29.248443055 107.32681187 78.847510962 29.084030465 107.27444343 78.605014458 28.915410216 
107.23728511 78.362381386 28.742997105 107.21590076 78.120211013 28.567292035 107.21075925 77.879141969 28.388871809 
107.22221682 77.639845345 28.208375099 107.25050025 77.403016104 28.026484353 107.29569291 77.169362995 27.843903735 
107.35772969 76.939597478 27.661335256 107.43640473 76.714424096 27.479455728 107.53138703 76.494533852 27.298896516 
107.64234332 76.28064664 27.120242608 107.76871846 76.073427476 26.94399071 107.90984318 75.873500791 26.770534064 
108.06506751 75.681511191 26.600181491 108.2337154 75.498109571 26.433151849 108.41526797 75.324106721 26.269628758 
108.60890524 75.160143991 26.109638362 108.8138916 75.00694769 25.953155399 109.0295447 74.865352891 25.800113069 
109.25531414 74.736491031 25.650447632 109.4903275 74.621237591 25.5039602 109.73379458 74.520712705 25.36047103 
109.98487262 74.436204554 25.219802954 110.24260164 74.369146319 25.081790148 110.50586531 74.321170737 24.946303411 
110.77328039 74.293873505 24.81324421 111.04320522 74.288907486 24.682589123 111.31368294 74.307983511 24.55442045 
111.58236334 74.352822072 24.428957753 111.84653919 74.424601274 24.30653436 112.10319975 74.524139418 24.187636558 
112.34914854 74.651641328 24.072880061 112.58096346 74.806922602 23.963049367 112.79572163 74.988401105 23.85887139 
112.99095074 75.193895695 23.761044846 113.164445 75.421008603 23.67028505 113.31512632 75.666537515 23.587028509 
113.44259817 75.927271276 23.511553513 113.54699084 76.200176472 23.444002738 113.62893615 76.482447713 23.384362643 
113.68942763 76.771597895 23.332487426 113.72969879 77.065493865 23.288124609 113.75112326 77.362356264 23.250938399 
113.7551307 77.660737818 23.220530458 113.74314273 77.959488225 23.196456259 113.71653194 78.257713449 23.178236965 
113.67659816 78.554735629 23.16536859 113.62449965 78.850045728 23.157349099 113.56128295 79.143266779 23.153661616 
113.48815509 79.434200033 23.153669175 113.4060763 79.722723489 23.15677467 113.31580476 80.008754377 23.162385334 
113.21827622 80.292352749 23.169799287 113.11426887 80.57361014 23.17832579 113.00442658 80.852629847 23.187254191 
112.88935736 81.129547041 23.195822977 112.76969844 81.404545363 23.20326159 112.64596087 81.677778584 23.208784093 
112.51860976 81.949388285 23.211593224 112.38803936 82.219478368 23.210849052 112.25466907 82.48814954 23.205805411 
112.11884115 82.755443112 23.195727661 111.98085944 83.02135225 23.179935717 111.84099447 83.285822573 23.157830224 
111.69948732 83.548756451 23.128909486 111.55655548 83.810021864 23.0927796 111.41239817 84.069464119 23.049160702 
111.26720152 84.326919444 22.997889139 111.12114339 84.582229091 22.93891368 110.97439881 84.835251716 22.872281697 
110.82714631 85.085872717 22.798117618 110.67957427 85.334010388 22.71660056 110.53188595 85.579618897 22.627944645 
110.38430405 85.822688636 22.532381016 110.23707658 86.063232961 22.430114095 110.09047558 86.301309422 22.321376835 
109.9447979 86.536997233 22.206375654 109.80036737 86.770387851 22.08527813 109.65753418 87.001582466 21.958220299 
109.51667495 87.23068594 21.825305796 109.37819253 87.457801021 21.686606718 109.24251585 87.683022966 21.542165853 
109.1101344 87.906418334 21.391946954 108.98150282 88.128069745 21.235998366 108.85711503 88.348025086 21.074313246 
108.73748556 88.566307384 20.906874238 108.62314301 88.782914091 20.733666036 108.51462591 88.997816199 20.554683811 
108.41247759 89.210958902 20.369942418 108.31729903 89.422248133 20.179440936 108.22956997 89.631599235 19.983309657 
108.14980583 89.838898365 19.781677605 108.07849925 90.044023767 19.574726304 108.01611125 90.24685538 19.362697162 
107.96306414 90.447284699 19.145895426 107.91973686 90.645223211 18.92468997 107.88646223 90.840609755 18.699510557 
107.86352452 91.033417609 18.470844367 107.85116635 91.223659197 18.239230117 107.84962299 91.411384269 18.005250318 
107.85897049 91.596715003 17.769551112 107.87929957 91.779801622 17.532792767 107.91066276 91.960831434 17.295658282 
107.95307802 92.140023872 17.058847957 108.00653215 92.31762503 16.823075365 108.07098496 92.493899728 16.589063323 
108.1463732 92.66912174 16.357540077 108.23266025 92.843562201 16.129254102 108.32974104 93.017489227 15.904947635 
108.43744577 93.191153883 15.685339216 108.55563049 93.364778846 15.471158336 108.68412731 93.538553069 15.263126652 
108.8227409 93.712624275 15.061951956 108.97124616 93.887094597 14.868323351 109.12938639 94.062017726 14.682906042 
109.29687863 94.237395928 14.506340826 109.47343479 94.413176596 14.339262792 109.65863489 94.589244829 14.182145831 
109.85207854 94.765434066 14.035445664 110.05333389 94.941529596 13.899540511 110.26194272 95.117275644 13.774724245 
110.47742628 95.292383182 13.661199846 110.69929206 95.466538542 13.559074512 110.92704127 95.639413719 13.468358761 
111.16017627 95.810677504 13.388969169 111.39820776 95.980005983 13.320733738 111.64066163 96.147091878 13.263400604 
111.88710343 96.311637678 13.216702575 112.13708707 96.473399216 13.180216727 112.39020675 96.632165427 13.153497881 
112.64609061 96.78776307 13.136074102 112.90439705 96.940061691 13.127444489 113.1648151 97.088973779 13.127090975 
113.42706344 97.234454486 13.134488475 113.69088812 97.376501389 13.149112881 113.95606432 97.515140913 13.170472267 
114.22238392 97.650449601 13.198066194 114.48965291 97.78256302 13.231377466 114.75770123 97.911633352 13.26994797 
115.02637336 98.037844044 13.313345899 115.29552593 98.161406907 13.361166924 115.56502585 98.282558894 13.413034238 
115.83474891 98.401555863 13.468602611 116.1045778 98.51866643 13.527563523 116.37440151 98.634197711 13.589585682 
116.64411795 98.748450381 13.654382296 116.91363239 98.861730984 13.7216792 117.18285761 98.974348093 13.791211309 
117.45171423 99.086608567 13.862719164 117.72013099 99.19881427 13.935945429 117.98804499 99.311259166 14.0106318 
118.25539821 99.42423189 14.086521633 118.52214996 99.537999374 14.163335045 118.78826543 99.652813847 14.240794746 
119.05371949 99.768908833 14.318614209 119.3184967 99.886497146 14.396497045 119.58259103 100.00576944 14.4741369 
119.8460051 100.12689364 14.5512182 120.10874915 100.25001464 14.627417177 120.37084017 100.37525377 14.702403082 
120.63229705 100.50272389 14.775826419 120.89315225 100.63248317 14.847354265 121.15343712 100.76458019 14.916644265 
121.41318367 100.89904351 14.9833532 121.67242273 101.03588252 15.047139835 121.93118219 101.17508837 15.107667757 
122.18948527 101.31663508 15.164608479 122.44734837 101.46048165 15.217644978 122.70477888 101.60657454 15.266475536 
122.96177091 101.75486177 15.310791195 123.21831042 101.90526246 15.350347471 123.47436947 102.05769584 15.384917896 
123.72990594 102.21208162 15.414297725 123.984864 102.36833934 15.438313632 124.23917439 102.52639094 15.456824692 
124.49275555 102.6861627 15.469720643 124.7455147 102.84758695 15.476919224 124.99734867 103.01060387 15.478363489 
125.24813799 103.17517165 15.473987112 125.49776187 103.3412463 15.46379268 125.7460908 103.5087971 15.447791121 
125.99298435 103.67780778 15.425987323 126.23829299 103.84827264 15.398387375 126.48185696 104.02019643 15.364993496 
126.72350455 104.1935938 15.325799229 126.96305012 104.36848852 15.280784999 127.20027997 104.5449195 15.229886797 
127.43497215 104.72292393 15.173052089 127.66689266 104.90253836 15.110225095 127.89577518 105.08380703 15.041306926 
128.12132778 105.26677315 14.966178603 128.34323145 105.45147544 14.884702809 128.56113949 105.63794414 14.796727135 
128.77467863 105.82619628 14.702089935 128.98344376 106.01623361 14.600616684 129.18699084 106.2080397 14.492116633 
129.38491452 106.4015527 14.376483009 129.57677136 106.59669062 14.253587234 129.76211448 106.79333829 14.123325977 
129.94050051 106.9913461 13.985626885 130.11149601 107.19052999 13.840452537 130.27468302 107.39067264 13.687802367 
130.42966349 107.59152555 13.527713064 130.57601147 107.79281276 13.360216534 130.71338704 107.99422775 13.185435707 
130.84148918 108.19544588 13.003533649 130.96000561 108.39612663 12.814674983 131.06863494 108.59591465 12.619046185 
131.16708039 108.79444131 12.416852917 131.25503936 108.99132441 12.208316294 131.33208827 109.18614281 11.993616471 
131.39801649 109.37850298 11.773080893 131.45247784 109.56797495 11.546988304 131.49509924 109.75410615 11.315641764 
131.52548007 109.9364178 11.079375707 131.5431943 110.11440195 10.838564592 131.54778897 110.28751637 10.59363078 
131.5387426 110.45516089 10.345045724 131.51570362 110.61677415 10.093393235 131.4782609 110.77174219 9.8393077694 
131.42605639 110.91944263 9.5835073129 131.35881456 111.05926319 9.3267938675 131.27637454 111.19062694 9.0700467775 
131.17871675 111.31301973 8.8142068631 131.06597678 111.42601403 8.560252576 130.9384499 111.52929008 8.3091710706 
130.79658959 111.62265557 8.061925963 130.64099818 111.70606188 7.819423656 130.47240521 111.7796093 7.5824822468 
130.29163338 111.84353669 7.3518083747 130.09956176 111.89820247 7.127983911 129.89709235 111.94406187 6.9114614339 
129.68512171 111.98164274 6.70256719 129.4645181 112.01152087 6.5015103128 129.2361041 112.0342955 6.3083966409 
129.00064547 112.05056779 6.1232448372 128.75884505 112.06092483 5.9460035218 128.51128249 112.06587351 5.7766553539 
128.25859054 112.06599746 5.614984432 128.00129003 112.06179364 5.4608087572 127.73983921 112.05371088 5.3139393617 
127.47464441 112.04215561 5.1741819622 127.20602454 112.02745917 5.0414343563 126.93435663 112.0100106 4.9153922799 
126.65992486 111.99011748 4.7958666534 126.38298119 111.96806277 4.6826792987 126.10374495 111.94410614 4.5756770525 
125.82240322 111.91848863 4.4747458997 125.53915376 111.89146824 4.3796872696 125.2541502 111.86327979 4.290384507 
124.96752759 111.83415965 4.2067409185 124.67940417 111.80435127 4.1286816767 124.38988292 111.7741109 4.056156101 
124.09905296 111.7437142 3.9891405585 123.80699108 111.71346395 3.92764216 
VERTICES 297 296
OFFSETS vtktypeint64
0 1 2 3 4 5 6 7 8 
9 10 11 12 13 14 15 16 17 
18 19 20 21 22 23 24 25 26 
27 28 29 30 31 32 33 34 35 
36 37 38 39 40 41 42 43 44 
45 46 47 48 49 50 51 52 53 
54 55 56 57 58 59 60 61 62 
63 64 65 66 67 68 69 70 71 
72 73 74 75 76 77 78 79 80 
81 82 83 84 85 86 87 88 89 
90 91 92 93 94 95 96 97 98 
99 100 101 102 103 104 105 106 107 
108 109 110 111 112 113 114 115 116 
117 118 119 120 121 122 123 124 125 
126 127 128 129 130 131 132 133 134 
135 136 137 138 139 140 141 142 143 
144 145 146 147 148 149 150 151 152 
153 154 155 156 157 158 159 160 161 
162 163 164 165 166 167 168 169 170 
171 172 173 174 175 176 177 178 179 
180 181 182 183 184 185 186 187 188 
189 190 191 192 193 194 195 196 197 
198 199 200 201 202 203 204 205 206 
207 208 209 210 211 212 213 214 215 
216 217 218 219 220 221 222 223 224 
225 226 227 228 229 230 231 232 233 
234 235 236 237 238 239 240 241 242 
243 244 245 246 247 248 249 250 251 
252 253 254 255 256 257 258 259 260 
261 262 263 264 265 266 267 268 269 
270 271 272 273 274 275 276 277 278 
279 280 281 282 283 284 285 286 287 
288 289 290 291 292 293 294 295 296 

CONNECTIVITY vtktypeint64
0 1 2 3 4 5 6 7 8 
9 10 11 12 13 14 15 16 17 
18 19 20 21 22 23 24 25 26 
27 28 29 30 31 32 33 34 35 
36 37 38 39 40 41 42 43 44 
45 46 47 48 49 50 51 52 53 
54 55 56 57 58 59 60 61 62 
63 64 65 66 67 68 69 70 71 
72 73 74 75 76 77 78 79 80 
81 82 83 84 85 86 87 88 89 
90 91 92 93 94 95 96 97 98 
99 100 101 102 103 104 105 106 107 
108 109 110 111 112 113 114 115 116 
117 118 119 120 121 122 123 124 125 
126 127 128 129 130 131 132 133 134 
135 136 137 138 139 140 141 142 143 
144 145 146 147 148 149 150 151 152 
153 154 155 156 157 158 159 160 161 
162 163 164 165 166 167 168 169 170 
171 172 173 174 175 176 177 178 179 
180 181 182 183 184 185 186 187 188 
189 190 191 192 193 194 195 196 197 
198 199 200 201 202 203 204 205 206 
207 208 209 210 211 212 213 214 215 
216 217 218 219 220 221 222 223 224 
225 226 227 228 229 230 231 232 233 
234 235 236 237 238 239 240 241 242 
243 244 245 246 247 248 249 250 251 
252 253 254 255 256 257 258 259 260 
261 262 263 264 265 266 267 268 269 
270 271 272 273 274 275 276 277 278 
279 280 281 282 283 284 285 286 287 
288 289 290 291 292 293 294 295 
LINES 2 296
OFFSETS vtktypeint64
0 296 
CONNECTIVITY vtktypeint64
0 1 2 3 4 5 6 7 8 
9 10 11 12 13 14 15 16 17 
18 19 20 21 22 23 24 25 26 
27 28 29 30 31 32 33 34 35 
36 37 38 39 40 41 42 43 44 
45 46 47 48 49 50 51 52 53 
54 55 56 57 58 59 60 61 62 
63 64 65 66 67 68 69 70 71 
72 73 74 75 76 77 78 79 80 
81 82 83 84 85 86 87 88 89 
90 91 92 93 94 95 96 97 98 
99 100 101 102 103 104 105 106 107 
108 109 110 111 112 113 114 115 116 
117 118 119 120 121 122 123 124 125 
126 127 128 129 130 131 132 133 134 
135 136 137 138 139 140 141 142 143 
144 145 146 147 148 149 150 151 152 
153 154 155 156 157 158 159 160 161 
162 163 164 165 166 167 168 169 170 
171 172 173 174 175 176 177 178 179 
180 181 182 183 184 185 186 187 188 
189 190 191 192 193 194 195 196 197 
198 199 200 201 202 203 204 205 206 
207 208 209 210 211 212 213 214 215 
216 217 218 219 220 221 222 223 224 
225 226 227 228 229 230 231 232 233 
234 235 236 237 238 239 240 241 242 
243 244 245 246 247 248 249 250 251 
252 253 254 255 256 257 258 259 260 
261 262 263 264 265 266 267 268 269 
270 271 272 273 274 275 276 277 278 
279 280 281 282 283 284 285 286 287 
288 289 290 291 292 293 294 295 
POINT_DATA 296
SCALARS Curvature double
LOOKUP_TABLE default
0.061529111317 0.063079748613 0.064712754617 0.066422348766 0.068200698354 0.070037735662 0.071920024602 0.073827096627 0.075734617063 
0.077607954964 0.079399770277 0.081061287331 0.082549553759 0.083827250592 0.084859762729 0.085615742177 0.086084169576 0.086299355331 
0.086327646249 0.086250303411 0.086164139378 0.086182559002 0.086438043363 0.087066183882 0.088189104998 0.089890991795 0.092230013093 
0.095229920743 0.098879444016 0.1031442129 0.10796516009 0.11326874788 0.11896814523 0.12497566106 0.13120694745 0.13758625582 
0.14403945541 0.15048631829 0.15683924822 0.16300546704 0.16887663985 0.17433023296 0.17924745234 0.18353911834 0.18712918511 
0.18992508408 0.19182568285 0.19278179525 0.19285737732 0.19217154786 0.19084391602 0.18898533486 0.1867555817 0.18438414054 
0.18213431931 0.18028327324 0.17913199728 0.17897567612 0.18008483467 0.18269194298 0.18704947602 0.19336440051 0.201809125 
0.21245665101 0.22521613483 0.23987601779 0.25614933075 0.27363760222 0.29171132673 0.30950321711 0.32589546621 0.33964817295 
0.34949847153 0.35437427153 0.35398314833 0.34849550683 0.33829032183 0.32409690028 0.3070380382 0.28837002918 0.26907045703 
0.24975090303 0.23078538642 0.21247756564 0.19503127162 0.17851855546 0.1629390157 0.14826506757 0.13446622246 0.12151480489 
0.10936915639 0.098043087065 0.087647574794 0.078349299153 0.070382492188 0.064067140374 0.059742238235 0.057625232176 0.057746010398 
0.059823233171 0.06336350887 0.067764837417 0.072479334386 0.07704368591 0.081128321117 0.084527062138 0.087103030215 0.088764488472 
0.089468936139 0.089278815202 0.08834247653 0.086823299679 0.084867262536 0.082628187678 0.080278061425 0.07800262813 0.075985447255 
0.074373408764 0.073298099694 0.07286921105 0.073163372186 0.074223246431 0.076030554467 0.078527932889 0.081619717193 0.08520211592 
0.089161950909 0.093374214284 0.097708912287 0.1020391143 0.10624573808 0.11021820128 0.11385127254 0.11704905647 0.1197379008 
0.12190014204 0.12354933352 0.12470322664 0.12537816522 0.12561953961 0.12554101998 0.12528776651 0.12498933966 0.12474892979 
0.12466269257 0.12483232437 0.12534298198 0.12624449427 0.12755662229 0.1292656836 0.13131725016 0.13361814861 0.1360548488 
0.13853650814 0.14097812276 0.14326950556 0.14526191666 0.14680321973 0.14780998705 0.14823862792 0.14805141405 0.14720964325 
0.14568649277 0.14348954584 0.14065095211 0.13721549015 0.13325663069 0.12885441129 0.12407441807 0.11896789264 0.11358200031 
0.10799365201 0.10228572684 0.096523076269 0.090745935891 0.084984884693 0.079275785175 0.073659045833 0.068164317839 0.062802404927 
0.057585456891 0.052523732809 0.047629798915 0.042920606335 0.038403191008 0.034090844617 0.030014642955 0.026224749829 0.022793712718 
0.019822729199 0.017451152187 0.015850053864 0.015176343051 0.015452539809 0.016555891779 0.018276751942 0.020415150933 0.022829510709 
0.025424146416 0.028131699126 0.030903193627 0.033709074711 0.036543156499 0.03940169484 0.04226966769 0.045120043251 0.047923623734 
0.050651779966 0.053272056226 0.055748682422 0.058044721553 0.060125184698 0.061961035422 0.063527572377 0.064813762451 0.065839776263 
0.066634306414 0.067228069669 0.067654373922 0.067954793076 0.068194229718 0.068442609971 0.068765989418 0.069226371277 0.069885056432 
0.070799776898 0.072025393735 0.073605013144 0.075556568054 0.077890227792 0.080603644257 0.083685520817 0.087108901638 0.090807757709 
0.09470563181 0.098721318746 0.10277119442 0.10677317182 0.11064553278 0.11431190037 0.11771459339 0.12082015981 0.12361072007 
0.12608845339 0.12827444266 0.13022599522 0.13203959982 0.13381673138 0.13564896753 0.13762634535 0.13985056399 0.1424347669 
0.145466367 0.14899889736 0.15304915757 0.15760991684 0.1626264877 0.1679946935 0.1735726264 0.17918855813 0.18463309552 
0.18962784888 0.19384024687 0.19697188021 0.19886120744 0.19939514618 0.19845842674 0.19595641032 0.19190846684 0.18652039697 
0.18004904842 0.17274618405 0.16484881948 0.1565865743 0.1481870475 0.1398447729 0.13171367257 0.12391834679 0.11656193514 
0.10969660021 0.10335860639 0.097571002479 0.092353220614 0.087744019087 0.083759929445 0.080431067557 0.077802648655 0.075938061105 
0.074928812821 0.074870048685 0.075878776954 0.078090252508 0.081656250178 0.086754705947 0.093603814053 0.10248464007 
