# vtk DataFile Version 5.1
vtk output
ASCII
DATASET POLYDATA
POINTS 291 double
112.21357993 83.967411891 37.58711938 111.98513377 83.839035304 37.441072628 111.75874246 83.712038306 37.290685762 
111.53480059 83.58630795 37.135640711 111.31371962 83.461749637 36.975625004 111.09593146 83.338286335 36.810333575 
110.8818912 83.215858005 36.63947178 110.67207847 83.094420871 36.462760359 110.46701163 82.973949072 36.279924523 
110.26722447 82.854428405 36.090731888 110.0732455 82.735852171 35.895016014 109.8856281 82.61822371 35.692642464 
109.70492643 82.501548193 35.483538294 109.53168413 82.385825894 35.267701618 109.36642126 82.271043841 35.045209525 
109.20961952 82.157164342 34.816224931 109.06170762 82.044111947 34.581000092 108.92305797 81.931762117 34.33986962 
108.79404178 81.819932391 34.093214064 108.6748114 81.708362827 33.841568161 108.56552105 81.596719215 33.585481551 
108.466258 81.484574765 33.325559159 108.37705266 81.37140139 33.062454803 108.29789731 81.256569187 32.796863968 
108.22880273 81.139334696 32.529519572 108.16975827 81.018844214 32.261217125 108.12068401 80.894168644 31.99282047 
108.08158998 80.764253259 31.725274074 108.05252881 80.62794203 31.459642741 108.03360807 80.483999426 31.197145113 
108.02499516 80.331147972 30.939189647 108.02691226 80.168129282 30.687404971 108.03961931 79.993794423 30.443651974 
108.06340481 79.807200773 30.210023062 108.09861111 79.607677635 29.988867454 108.14525474 79.395339586 29.782256169 
108.20331058 79.170784933 29.592112951 108.27268397 78.935121572 29.420064297 108.35293499 78.690148801 29.266766161 
108.44347188 78.437973249 29.131978831 108.54371684 78.18070851 29.014798208 108.65310367 77.920351962 28.913688099 
108.77114914 77.658668251 28.826694821 108.89740339 77.397148608 28.751507794 109.03160149 77.137023338 28.685819 
109.17356246 76.879319096 28.627279602 109.32318843 76.624911009 28.57360722 109.48046741 76.374597183 28.522631236 
109.64544556 76.129161939 28.472277539 109.81820617 75.889435193 28.420549091 109.99892317 75.656421975 28.365456657 
110.18762631 75.431180348 28.305107486 110.38431883 75.214970926 28.237692759 110.58894488 75.009322683 28.161469082 
110.80130778 74.816033976 28.074822595 111.02101427 74.637175539 27.976349218 111.24742251 74.475056994 27.864964135 
111.47960632 74.332146932 27.740028009 111.71634724 74.210947824 27.601461433 111.95617716 74.114004967 27.449754555 
112.19740452 74.043459097 27.286179398 112.43828229 74.000670947 27.112781606 112.67716154 73.986591841 26.932053976 
112.91251072 74.001945072 26.746849924 113.14316866 74.045964967 26.560347378 113.36821805 74.117853615 26.375644599 
113.58694193 74.216677736 26.195843015 113.79896994 74.340707943 26.023808687 114.00408477 74.488130912 25.862158023 
114.20214317 74.657100856 25.713286079 114.39303698 74.845695284 25.579355862 114.57666203 75.05190052 25.462275257 
114.75300288 75.273420308 25.363391154 114.92197323 75.508070714 25.283805756 115.08347259 75.753665559 25.224234974 
115.23739493 76.008064472 25.18499701 115.38363909 76.269228283 25.166017844 115.52211763 76.535275122 25.166860776 
115.65276179 76.804528577 25.186772506 115.77552463 77.075550308 25.224747075 115.89037996 77.347154422 25.279598888 
115.99731518 77.618406272 25.350028339 116.0963211 77.888610223 25.434672359 116.18738174 78.157290043 25.532141588 
116.27043917 78.424155637 25.641086902 116.34539792 78.689075338 25.760188901 116.41226016 78.952083157 25.888031343 
116.47093934 79.21330681 26.023337595 116.5213278 79.472962903 26.164866458 116.56325063 79.731333589 26.311424684 
116.59654282 79.988765748 26.461800361 116.62114443 80.245650827 26.614761704 116.63692412 80.502389935 26.769126559 
116.64376674 80.759392657 26.92370854 116.64154416 81.017068746 27.077302294 116.63018482 81.275813364 27.228676984 
116.60975441 81.535973818 27.376629161 116.58030037 81.797857083 27.519943652 116.54192614 82.061712245 27.657406934 
116.49479414 82.327718742 27.787815572 116.43912544 82.595975272 27.90998725 116.37519678 82.866490268 28.022773023 
116.30332372 83.1391785 28.12504964 116.22387113 83.413852267 28.215742188 116.13727419 83.690213081 28.293890049 
116.04397196 83.967866925 28.358562111 115.94442927 84.246317031 28.408904954 115.83913184 84.524967666 28.444149867 
115.72858437 84.803130991 28.463612663 115.61331075 85.080034327 28.466694986 115.49385573 85.354828403 28.452894804 
115.3707865 85.626599076 28.421823782 115.24469351 85.894383448 28.373221926 115.11619133 86.15718934 28.306965162 
114.98591856 86.414018044 28.223073497 114.85453445 86.663891911 28.121724423 114.72271092 86.905887756 28.003267363 
114.59112272 87.139143834 27.868181092 114.46042652 87.362974443 27.717215505 114.3312411 87.576831287 27.551235806 
114.20412996 87.780340672 27.371233401 114.07958309 87.973321984 27.178302485 113.95800196 88.155792828 26.973605647 
113.8396889 88.327963058 26.758337335 113.72484187 88.490220314 26.533689688 113.61355644 88.643106296 26.300820439 
113.50583323 88.787287311 26.060826803 113.4015883 88.923524154 25.814728317 113.30068325 89.052607149 25.563432605 
113.20288266 89.17544637 25.307814524 113.10792024 89.292936984 25.048634426 113.01550107 89.405972491 24.786567641 
112.92531602 89.515430645 24.52221213 112.837057 89.622160135 24.256095333 112.75043131 89.726969306 23.988680832 
112.66517518 89.83061927 23.720375308 112.58107382 89.933821799 23.451533168 112.49795278 90.037239832 23.182469039 
112.41571493 90.141466262 22.913445604 112.33434751 90.247028243 22.644678622 112.2539302 90.354385496 22.376337468 
112.17464 90.4639313 22.108546359 112.09675425 90.575994224 21.841385733 112.02065015 90.690840267 21.574894783 
111.94680214 90.808675276 21.30907525 111.87578004 90.929651299 21.043897889 111.80824388 91.053870607 20.77931073 
111.74490216 91.181365087 20.515245793 111.68653107 91.31213189 20.251637364 111.63394824 91.446125036 19.988433016 
111.58799516 91.583258171 19.725607157 111.54951683 91.723406683 19.463173758 111.51934062 91.866410275 19.201197368 
111.49825781 92.012075883 18.939801021 111.48700688 92.160181208 18.679171058 111.48625469 92.310479458 18.419559011 
111.49657613 92.462705638 18.161279887 111.51843643 92.616584585 17.904706495 111.55218423 92.771838186 17.650259737 
111.59805346 92.928191223 17.398396837 111.65616774 93.085376972 17.149599351 111.72654597 93.2431425 16.904361474 
111.80911128 93.401253231 16.663179542 111.90370578 93.559494903 16.426543716 112.01010882 93.717672691 16.194932502 
112.12805406 93.875609022 15.968810115 112.25725497 94.033140281 15.748632702 112.39743677 94.190111144 15.53486593 
112.54821897 94.34637828 15.327907923 112.70927088 94.501798516 15.128176685 112.88026218 94.656226139 14.936084518 
113.06086321 94.809509469 14.752039596 113.250743 94.96148813 14.576446114 113.44956405 95.111991448 14.409701209 
113.65697434 95.260838643 14.252187562 113.87259915 95.407840929 14.104263294 114.09603522 95.552806293 13.966252239 
114.32684707 95.695546122 13.838434504 114.56456441 95.835883489 13.721035263 114.80868038 95.973663502 13.614211099 
115.05865751 96.108762214 13.518045818 115.31392801 96.241098818 13.432533096 115.57390012 96.370646975 13.357562333 
115.83798634 96.497430595 13.29295769 116.105606 96.621530449 13.238469422 116.37619506 96.74308464 13.193782741 
116.64921566 96.86228443 13.158530839 116.92416398 96.979366593 13.132310499 117.20057505 97.09460446 13.114696839 
117.47802493 97.208298162 13.1052556 117.75613086 97.320764733 13.103553689 118.03455018 97.432327932 13.109167753 
118.31297853 97.543308116 13.121690936 118.5911472 97.654013772 13.140737294 118.86881978 97.764736017 13.165943061 
119.14578904 97.87574426 13.196966564 119.42187205 97.987283931 13.233499667 119.6969111 98.099571688 13.275245501 
119.97077919 98.212786843 13.321897267 120.24336822 98.327080541 13.373181253 120.51459064 98.442577096 13.428831407 
120.78437846 98.559376736 13.48858517 121.05268306 98.677557624 13.552179391 121.31947495 98.797178495 13.619346522 
121.58474263 98.918283568 13.689811428 121.84849081 99.040908567 13.76328855 122.11073885 99.165085991 13.839479129 
122.37151619 99.290853064 13.91807336 122.63086815 99.418248131 13.998735511 122.88885539 99.54731131 14.081104663 
123.1455439 99.678096165 14.164805287 123.40100781 99.810665961 14.249439579 123.6553282 99.945092709 14.334587282 
123.90859203 100.0814553 14.419805896 124.16089094 100.21983607 14.504632235 124.41232015 100.36031613 14.588585135 
124.66297713 100.50297041 14.671168921 124.91295979 100.64786269 14.751878031 125.16236461 100.79504061 14.830202562 
125.41128458 100.9445309 14.905635186 125.65980708 101.0963351 14.977679303 125.9080117 101.25042696 15.045856857 
126.15596757 101.40675303 15.109714336 126.40373048 101.56523503 15.168828232 126.65133979 101.72577384 15.222810962 
126.89881519 101.88825502 15.271316727 127.14615404 102.05255564 15.314044719 127.39332901 102.21855419 15.350729767 
127.64028553 102.38613824 15.381136935 127.88694111 102.55520414 15.405093833 128.1331814 102.72567638 15.422436599 
128.37885828 102.89750891 15.43301731 128.62378858 103.07068746 15.436693378 128.86775255 103.24522993 15.433316404 
129.1104919 103.42118462 15.422722338 129.35170757 103.59862643 15.404723316 129.59105443 103.77765351 15.379092725 
129.82812035 103.95839079 15.345511339 130.06248114 104.14093929 15.303753119 130.29364365 104.32540795 15.253487347 
130.52105864 104.51188892 15.194347459 130.74411804 104.70044554 15.12593634 130.96215398 104.89109913 15.047835419 
131.17444046 105.08381501 14.959617239 131.38019325 105.2784902 14.860855003 131.57855041 105.47494687 14.751108886 
131.76866951 105.6729052 14.630072382 131.94964295 105.87200176 14.497446873 132.12055127 106.07177541 14.353019935 
132.28048768 106.27166857 14.196688154 132.4285804 106.47103616 14.02847315 132.56401587 106.66916019 13.848533235 
132.68606576 106.86526875 13.657171828 132.79409074 107.05855294 13.454821944 132.88761592 107.24820257 13.242080553 
132.96635461 107.43344226 13.019687893 133.03016207 107.61354362 12.788465262 133.0790595 107.78785222 12.549304826 
133.11322731 107.95580458 12.303138976 133.13299175 108.11693943 12.050910258 133.13880556 108.27090265 11.793543599 
133.13122562 108.41744687 11.531923035 133.11088755 108.55642525 11.266873162 133.07847896 108.68778035 10.999146104 
133.03471578 108.81153127 10.729414684 132.9803237 108.92776123 10.458270777 132.91595729 109.03655363 10.186223952 
132.8423897 109.13813303 9.9137203754 132.76030442 109.23270787 9.6411271618 132.67035121 109.32050384 9.3687475242 
132.57314426 109.40175661 9.0968278368 132.46926228 109.47670621 8.8255643003 132.3592498 109.5455929 8.5551089709 
132.24356178 109.60859104 8.2855864069 132.12274866 109.66599985 8.0170655502 131.99726479 109.71804304 7.7495945873 
131.8675401 109.76493588 7.4831954279 131.73398367 109.80688551 7.2178664698 131.59698724 109.84409186 6.9535847337 
131.45691821 109.87673161 6.6903111998 131.31414867 109.90499668 6.4279835183 131.16905113 109.92909223 6.1665181264 
131.02197936 109.94919947 5.905819353 130.87328533 109.96549755 5.6457752517 130.72332203 109.97816437 5.3862579041 
130.57244647 109.98737723 5.1271236397 130.42102261 109.99331344 4.8682132106 130.26942474 109.99615084 4.6093518722 
130.11804132 109.99606859 4.3503493708 129.96727933 109.99324801 4.090999871 129.81756942 109.98787381 3.8310818438 

VERTICES 292 291
OFFSETS vtktypeint64
0 1 2 3 4 5 6 7 8 
9 10 11 12 13 14 15 16 17 
18 19 20 21 22 23 24 25 26 
27 28 29 30 31 32 33 34 35 
36 37 38 39 40 41 42 43 44 
45 46 47 48 49 50 51 52 53 
54 55 56 57 58 59 60 61 62 
63 64 65 66 67 68 69 70 71 
72 73 74 75 76 77 78 79 80 
81 82 83 84 85 86 87 88 89 
90 91 92 93 94 95 96 97 98 
99 100 101 102 103 104 105 106 107 
108 109 110 111 112 113 114 115 116 
117 118 119 120 121 122 123 124 125 
126 127 128 129 130 131 132 133 134 
135 136 137 138 139 140 141 142 143 
144 145 146 147 148 149 150 151 152 
153 154 155 156 157 158 159 160 161 
162 163 164 165 166 167 168 169 170 
171 172 173 174 175 176 177 178 179 
180 181 182 183 184 185 186 187 188 
189 190 191 192 193 194 195 196 197 
198 199 200 201 202 203 204 205 206 
207 208 209 210 211 212 213 214 215 
216 217 218 219 220 221 222 223 224 
225 226 227 228 229 230 231 232 233 
234 235 236 237 238 239 240 241 242 
243 244 245 246 247 248 249 250 251 
252 253 254 255 256 257 258 259 260 
261 262 263 264 265 266 267 268 269 
270 271 272 273 274 275 276 277 278 
279 280 281 282 283 284 285 286 287 
288 289 290 291 
CONNECTIVITY vtktypeint64
0 1 2 3 4 5 6 7 8 
9 10 11 12 13 14 15 16 17 
18 19 20 21 22 23 24 25 26 
27 28 29 30 31 32 33 34 35 
36 37 38 39 40 41 42 43 44 
45 46 47 48 49 50 51 52 53 
54 55 56 57 58 59 60 61 62 
63 64 65 66 67 68 69 70 71 
72 73 74 75 76 77 78 79 80 
81 82 83 84 85 86 87 88 89 
90 91 92 93 94 95 96 97 98 
99 100 101 102 103 104 105 106 107 
108 109 110 111 112 113 114 115 116 
117 118 119 120 121 122 123 124 125 
126 127 128 129 130 131 132 133 134 
135 136 137 138 139 140 141 142 143 
144 145 146 147 148 149 150 151 152 
153 154 155 156 157 158 159 160 161 
162 163 164 165 166 167 168 169 170 
171 172 173 174 175 176 177 178 179 
180 181 182 183 184 185 186 187 188 
189 190 191 192 193 194 195 196 197 
198 199 200 201 202 203 204 205 206 
207 208 209 210 211 212 213 214 215 
216 217 218 219 220 221 222 223 224 
225 226 227 228 229 230 231 232 233 
234 235 236 237 238 239 240 241 242 
243 244 245 246 247 248 249 250 251 
252 253 254 255 256 257 258 259 260 
261 262 263 264 265 266 267 268 269 
270 271 272 273 274 275 276 277 278 
279 280 281 282 283 284 285 286 287 
288 289 290 
LINES 2 291
OFFSETS vtktypeint64
0 291 
CONNECTIVITY vtktypeint64
0 1 2 3 4 5 6 7 8 
9 10 11 12 13 14 15 16 17 
18 19 20 21 22 23 24 25 26 
27 28 29 30 31 32 33 34 35 
36 37 38 39 40 41 42 43 44 
45 46 47 48 49 50 51 52 53 
54 55 56 57 58 59 60 61 62 
63 64 65 66 67 68 69 70 71 
72 73 74 75 76 77 78 79 80 
81 82 83 84 85 86 87 88 89 
90 91 92 93 94 95 96 97 98 
99 100 101 102 103 104 105 106 107 
108 109 110 111 112 113 114 115 116 
117 118 119 120 121 122 123 124 125 
126 127 128 129 130 131 132 133 134 
135 136 137 138 139 140 141 142 143 
144 145 146 147 148 149 150 151 152 
153 154 155 156 157 158 159 160 161 
162 163 164 165 166 167 168 169 170 
171 172 173 174 175 176 177 178 179 
180 181 182 183 184 185 186 187 188 
189 190 191 192 193 194 195 196 197 
198 199 200 201 202 203 204 205 206 
207 208 209 210 211 212 213 214 215 
216 217 218 219 220 221 222 223 224 
225 226 227 228 229 230 231 232 233 
234 235 236 237 238 239 240 241 242 
243 244 245 246 247 248 249 250 251 
252 253 254 255 256 257 258 259 260 
261 262 263 264 265 266 267 268 269 
270 271 272 273 274 275 276 277 278 
279 280 281 282 283 284 285 286 287 
288 289 290 
POINT_DATA 291
SCALARS Curvature double
LOOKUP_TABLE default
0.055857638024 0.058526258689 0.062017332408 0.066163372716 0.07081899825 0.075864970348 0.08118773574 0.086676077609 0.092221917596 
0.097693513829 0.10295931533 0.1078834663 0.11232692871 0.11615623961 0.11922163792 0.12139407969 0.12262216977 0.12295474207 
0.12248662337 0.12135105236 0.11974326688 0.11801482499 0.11671644104 0.11645511144 0.11783932506 0.12144593665 0.12776087115 
0.13709590984 0.14947951267 0.1646548973 0.18209213936 0.20098528914 0.22017969118 0.23813941938 0.25304380293 0.26312834994 
0.26687052261 0.26329660924 0.25248199418 0.23576731662 0.21505222659 0.19220788417 0.16886967132 0.14657476886 0.12707932186 
0.11218740444 0.10360019595 0.10245641354 0.10869096084 0.12111591168 0.13814330739 0.15831233111 0.18057119409 0.20408240133 
0.22807667755 0.25169758583 0.27395653024 0.29387512543 0.31044828554 0.32269686753 0.32990706904 0.33213551592 0.3302641122 
0.3254112301 0.31864853611 0.3108639537 0.30310643245 0.29624858755 0.29058710169 0.28590338237 0.28171717014 0.27762156749 
0.27316583384 0.26788541356 0.26139742183 0.25346125861 0.24406413455 0.23330608928 0.22144163215 0.20883753049 0.19585456635 
0.18278585096 0.16988339574 0.15740303996 0.1456298926 0.13483873732 0.1251992435 0.1168699964 0.1100132052 0.10480624935 
0.10139904012 0.099826606235 0.1000351032 0.10188125168 0.10517956764 0.10968862697 0.1151402161 0.12128556676 0.12789149442 
0.13475141082 0.14168498436 0.1485617005 0.1553132342 0.16189547975 0.16823208456 0.17423664917 0.17987995577 0.18521512792 
0.19028111631 0.19501067003 0.19925885209 0.20290122073 0.20588708237 0.20812963473 0.20944557089 0.2095889715 0.2083487053 
0.20561493817 0.20131609091 0.19542707788 0.18797004526 0.17902946565 0.16876301758 0.15734740955 0.14503420326 0.1320980855 
0.11878989269 0.10532967137 0.091900765362 0.078676645328 0.06583224221 0.053543913572 0.042000964206 0.03144080115 0.022201847094 
0.015080328186 0.012055623451 0.014159535564 0.018756254402 0.023789393518 0.028663181173 0.033331002947 0.037929029307 0.042667428828 
0.047765835356 0.053391568094 0.059644724688 0.066527245107 0.073958842793 0.081791875438 0.089820206164 0.097816423368 0.10558976671 
0.11297534552 0.11979797952 0.12586610667 0.13101138372 0.13518422116 0.13842212634 0.14077496314 0.14229275255 0.14304743319 
0.14317869489 0.14286654511 0.14228049151 0.14157206812 0.14087515679 0.14030179409 0.13993237906 0.13981398178 0.13995744716 
0.14034525876 0.14090810833 0.14151432797 0.14200977166 0.14226520097 0.14216968712 0.14159745939 0.1403907811 0.13840541983 
0.13560719345 0.13203789034 0.12776139243 0.12284775986 0.11738561836 0.11152447796 0.10544738882 0.099328544365 0.093316288238 
0.087545402474 0.082130143376 0.077160928811 0.072692123884 0.068723013503 0.065230490007 0.06216668607 0.059460729608 0.057026449548 
0.0547701956 0.052611608779 0.050480056039 0.048309836143 0.046047464325 0.043671850632 0.041186478683 0.038607663632 0.035961765392 
0.033301291909 0.030721381362 0.028367745922 0.026441500889 0.025183036117 0.024838065455 0.025564765467 0.027360171543 0.030079655673 
0.033506389819 0.037414250056 0.041596438437 0.045869159036 0.050085217199 0.054157933081 0.058017973027 0.061598470976 0.064833185606 
0.067677695426 0.07015512429 0.07231148486 0.074204843969 0.075911161765 0.077528660305 0.079187530491 0.081039284351 0.08323220741 
0.085899741424 0.089171425046 0.093133760185 0.097850725415 0.10334269397 0.10957990785 0.11650516995 0.12401432254 0.13196775603 
0.14022444076 0.14866443627 0.15714729011 0.16547741378 0.17340774743 0.18069574966 0.18719172982 0.19275898252 0.19722993542 
0.20041683732 0.20216888743 0.20245916877 0.20131229416 0.19878961369 0.19499121583 0.19004563697 0.18412238083 0.17739191342 
0.17005340936 0.16232600184 0.15439967139 0.14641575626 0.1384783667 0.13068288934 0.12312793129 0.11589618076 0.10902285169 
0.10251880123 0.096380058542 0.090598877724 0.085178979891 0.0801002158 0.075339038188 0.070872401353 0.066675060991 0.062734408607 
0.059048968273 0.055626962021 0.052494274244 0.049700332369 0.047319893337 0.045453923093 0.044224038344 0.043762977188 0.044193635985 
0.045613723675 0.048084889493 0.051633538491 
