# vtk DataFile Version 5.1
vtk output
ASCII
DATASET POLYDATA
POINTS 251 double
86.34654443 80.875946415 40.339467284 86.582000555 81.031826346 40.238358748 86.82814174 81.170144292 40.137132258 
87.08332563 81.290630814 40.035489069 87.345669943 81.393861609 39.933069255 87.613649822 81.479978084 39.829412566 
87.885644936 81.549938523 39.724052345 88.160339723 81.60409022 39.616398111 88.436424741 81.643448927 39.505906585 
88.712752551 81.668477355 39.391895196 88.988234563 81.6800559 39.273750528 89.261817659 81.678683526 39.150731111 
89.532493754 81.665060068 39.02215522 89.79923022 81.63970816 38.887277671 90.06095363 81.603126326 38.74534706 
90.316626826 81.55591847 38.595734082 90.564962177 81.498376983 38.437625187 90.804869799 81.431157453 38.270584446 
91.035095023 81.354731381 38.094142509 91.254235434 81.269524816 37.907885435 91.461200038 81.176228358 37.711843505 
91.654860968 81.075467621 37.506141401 91.834150069 80.967893321 37.291073142 91.998290914 80.854264725 37.067206311 
92.14686133 80.735408559 36.835322316 92.279588077 80.612123827 36.59624554 92.39631316 80.485192893 36.350810449 
92.497488303 80.355466128 36.099990903 92.583329781 80.223690463 35.844559977 92.654395174 80.090625263 35.585285436 
92.711153617 79.95698814 35.322794561 92.754137011 79.82348662 35.057628706 92.783673671 79.69083421 34.790205717 
92.800267043 79.559739364 34.520903256 92.803894524 79.431011672 34.249976778 92.79486719 79.305451982 33.977694767 
92.773110885 79.184009563 33.704268186 92.738394522 79.067803147 33.429908905 92.6906867 78.957984762 33.15487363 
92.629415924 78.856154995 32.879457376 92.554553819 78.763803916 32.604064896 92.46549316 78.683109166 32.329245455 
92.362300529 78.616056955 32.055718791 92.244930626 78.565117784 31.784450062 92.11362874 78.533034612 31.516719233 
91.969330341 78.522250548 31.254041174 91.813400205 78.535184151 30.998214173 91.647840477 78.573791978 30.751188843 
91.475235947 78.639322695 30.514901938 91.298589332 78.732152877 30.291080925 91.121080904 78.851756666 30.081068386 
90.94581238 78.996812686 29.885712579 90.775596419 79.165413953 29.705350194 90.612829715 79.355310378 29.539867787 
90.459456541 79.564130411 29.388810433 90.317124299 79.789693027 29.251637579 90.186935038 80.029661236 29.127454774 
90.069706836 80.28197055 29.015390169 89.966250504 80.544912247 28.914774512 89.876821259 80.816670856 28.824683663 
89.80174204 81.095769588 28.744451431 89.741078559 81.380802151 28.673399445 89.694721596 81.670492308 28.61090625 
89.662447325 81.963694817 28.556432643 89.643804832 82.259371281 28.509452334 89.638185873 82.556612225 28.469480187 
89.644850455 82.854645431 28.436074358 89.662772761 83.152837468 28.408742835 89.690956852 83.450707889 28.387103783 
89.727990193 83.747943038 28.370619262 89.77266607 84.044358017 28.358936015 89.823347956 84.33994505 28.351474566 
89.878561192 84.634793476 28.347789403 89.936667894 84.929110003 28.347324175 89.996027895 85.22316973 28.349504538 
90.054971085 85.517290984 28.35374465 90.111837062 85.811797138 28.359359052 90.164878072 86.107000501 28.365655891 
90.212450024 86.403133501 28.371859549 90.252794462 86.700351361 28.377132773 90.284237269 86.998664237 28.380572567 
90.305071009 87.297918047 28.381190724 90.313695659 87.597749051 28.377944805 90.308465619 87.897553508 28.369678211 
90.288125106 88.196473318 28.355279106 90.251207034 88.493338466 28.333426763 90.196916852 88.786743948 28.302963951 
90.124654286 89.075040907 28.262703667 90.034112573 89.35634443 28.211456549 89.925458892 89.628621995 28.148129206 
89.799530323 89.889920475 28.071899761 89.657519608 90.138322941 27.982049039 89.501059185 90.372102825 27.878065603 
89.332114284 90.589764192 27.759619066 89.152935075 90.790133068 27.626593759 88.966011181 90.9725908 27.479227337 
88.773804735 91.136823978 27.317871619 88.578724535 91.28285324 27.143009975 88.383085326 91.410951431 26.955190351 
88.189011678 91.522039749 26.755298252 87.998398034 91.617033188 26.544087274 87.812953161 91.697029365 26.322319333 
87.634005809 91.763600162 26.090975332 87.462866056 91.818015509 25.850710248 87.300359529 91.862050394 25.602452849 
87.14737601 91.897190436 25.346829972 87.004410675 91.92516752 25.084605685 86.87201395 91.947550852 24.816360877 
86.750433507 91.965987334 24.542747412 86.639955876 91.982015483 24.264314449 86.540652661 91.997146148 23.981653379 
86.452536144 92.012785147 23.695333707 86.375537619 92.030238656 23.405929786 86.309310078 92.050623732 23.114061373 
86.253658086 92.0749725 22.820294157 86.207881011 92.103973419 22.525247042 86.171414304 92.138203294 22.229461422 
86.143439803 92.177958392 21.933440479 86.122969246 92.223267411 21.637600861 86.109081645 92.274099799 21.342274442 
86.10057129 92.330097655 21.047677449 86.096309984 92.390900659 20.753939826 86.09510703 92.456067682 20.461109302 
86.095726114 92.525069984 20.169155585 86.09696638 92.597508841 19.878036783 86.097614911 92.672901259 19.587666836 
86.096459637 92.750959168 19.298004015 86.09236167 92.831394652 19.009020062 86.084140329 92.914085781 18.720762866 
86.070732254 92.998959845 18.433337788 86.051038355 93.086075702 18.146949279 86.024077849 93.175549121 17.861885232 
85.988889504 93.26758229 17.578540662 85.944584716 93.362435243 17.297416908 85.890428238 93.460388845 17.019098224 
85.825625377 93.561794998 16.744317549 85.749756796 93.666914845 16.473800598 85.662135188 93.776114529 16.208504991 
85.56262215 93.889565106 15.949260986 85.450906968 94.007474099 15.697075333 85.326886294 94.129935611 15.452943575 
85.190717014 94.256895197 15.21774826 85.042389483 94.388298526 14.992561367 84.882318255 94.523867909 14.778147698 
84.710904549 94.663263533 14.575262619 84.528481254 94.806092154 14.384743097 84.335782571 94.951774435 14.20692546 
84.133360954 95.099738306 14.042277193 83.921863836 95.249345174 13.891069272 83.702083281 95.3999239 13.753223893 
83.474595699 95.550826746 13.62889358 83.24021734 95.701418782 13.517674535 82.999569736 95.851110541 13.419369347 
82.753318813 95.999369382 13.333558132 82.502089252 96.14573478 13.259758243 82.246428219 96.28979724 13.197548424 
81.986904723 96.43125832 13.146319802 81.723977586 96.569843601 13.105669221 81.458138489 96.705411061 13.074990543 
81.189782387 96.837820263 13.053925336 80.919329179 96.967061713 13.041945533 80.647130201 97.093117119 13.038756723 
80.373551673 97.216085281 13.043927499 80.098915953 97.336051142 13.057231676 79.823551997 97.453203993 13.078304964 
79.547760788 97.567710778 13.106975218 79.271839695 97.6798414 13.142883459 78.996069321 97.789829446 13.185881899 
78.72070514 97.898012929 13.235549762 78.445994316 98.004688397 13.291681808 78.172131558 98.110232499 13.353782309 
77.899293741 98.215005651 13.421454661 77.627604994 98.319398505 13.49415415 77.357134743 98.423804534 13.57124922 
77.087929926 98.528627854 13.652117614 76.819948024 98.634253413 13.73595149 76.5531335 98.741068667 13.821974596 
76.287375236 98.849431659 13.909322095 76.022523893 98.959648408 13.997103793 75.758427118 99.072032129 14.084409232 
75.494896525 99.186774272 14.170345272 75.231758964 99.304047487 14.254037667 74.968848196 99.423965516 14.33463479 
74.706015508 99.54652701 14.411417038 74.443140266 99.671745873 14.483626664 74.180133406 99.799507873 14.550716668 
73.916938563 99.929713671 14.612128333 73.653535814 100.06222454 14.667407921 73.389943795 100.19688778 14.716201267 
73.126218737 100.33358916 14.758119524 72.862460928 100.47220749 14.792930793 72.598817622 100.61270582 14.820262601 
72.335486141 100.75506303 14.839887768 72.07273177 100.89935829 14.851401665 71.81088318 101.04570962 14.854481258 
71.550364956 101.19433034 14.848651133 71.291691267 101.34548404 14.833443996 71.035502663 101.4995083 14.808284142 
70.782557509 101.65677483 14.77259807 70.533799733 101.81772166 14.725687839 70.290257839 101.98273817 14.667037359 
70.053296568 102.15232049 14.595826039 69.82422049 102.32676181 14.511744387 69.604570728 102.50635003 14.414401193 
69.396078317 102.69129368 14.303508964 69.200208579 102.88152285 14.179357452 69.01843466 103.07686204 14.042371481 
68.852060416 103.27698097 13.893249026 68.702196068 103.48142273 13.732907995 68.569361513 103.68956355 13.562624472 
68.453863035 103.9007618 13.383676762 68.355846436 104.11437289 13.19730822 68.275014176 104.32972911 13.004800556 
68.210800576 104.5461951 12.8073319 68.16290869 104.76318368 12.605838216 68.130450331 104.98011899 12.401230663 
68.112943692 105.19645044 12.194167236 68.109619887 105.41164377 11.98520997 68.119945395 105.62515091 11.77475311 
68.143213024 105.8364401 11.563091688 68.17896692 106.04492423 11.350389525 68.226503492 106.25005658 11.136735671 
68.285443363 106.45117639 10.922108915 68.355049003 106.64773324 10.706450165 68.434942057 106.83900611 10.489607952 
68.524336221 107.02447266 10.271434105 68.622750461 107.20342367 10.0517056 68.729351686 107.3754044 9.8302370881 
68.843476903 107.53984497 9.6067984435 68.964263421 107.69639204 9.3812018714 69.090854131 107.84475411 9.1532665271 
69.222380862 107.9846991 8.922815807 69.357860909 108.11630569 8.6897555535 69.496412668 108.23955209 8.4539446425 
69.637066659 108.35480573 8.215351807 69.778933889 108.46242258 7.9739251859 69.92114615 108.5628763 7.7296305709 
70.062888337 108.65686188 7.4825034883 70.203371901 108.74496744 7.2325068102 70.341898756 108.82805133 6.9797138904 
70.477773989 108.90687325 6.7241315688 70.610364503 108.98229482 6.4658125166 70.739073298 109.05518584 6.2048174445 
70.863277717 109.12641524 5.9411948026 70.982464618 109.19688089 5.6750630931 71.095976681 109.26746542 5.4064941434 
71.203363891 109.33903206 5.1356767563 71.303908861 109.41247657 4.862745327 71.39720607 109.48858559 4.5879781599 
71.482513118 109.56823857 4.3116253673 71.559462277 109.65211312 4.0340727008 
VERTICES 252 251
OFFSETS vtktypeint64
0 1 2 3 4 5 6 7 8 
9 10 11 12 13 14 15 16 17 
18 19 20 21 22 23 24 25 26 
27 28 29 30 31 32 33 34 35 
36 37 38 39 40 41 42 43 44 
45 46 47 48 49 50 51 52 53 
54 55 56 57 58 59 60 61 62 
63 64 65 66 67 68 69 70 71 
72 73 74 75 76 77 78 79 80 
81 82 83 84 85 86 87 88 89 
90 91 92 93 94 95 96 97 98 
99 100 101 102 103 104 105 106 107 
108 109 110 111 112 113 114 115 116 
117 118 119 120 121 122 123 124 125 
126 127 128 129 130 131 132 133 134 
135 136 137 138 139 140 141 142 143 
144 145 146 147 148 149 150 151 152 
153 154 155 156 157 158 159 160 161 
162 163 164 165 166 167 168 169 170 
171 172 173 174 175 176 177 178 179 
180 181 182 183 184 185 186 187 188 
189 190 191 192 193 194 195 196 197 
198 199 200 201 202 203 204 205 206 
207 208 209 210 211 212 213 214 215 
216 217 218 219 220 221 222 223 224 
225 226 227 228 229 230 231 232 233 
234 235 236 237 238 239 240 241 242 
243 244 245 246 247 248 249 250 251 

CONNECTIVITY vtktypeint64
0 1 2 3 4 5 6 7 8 
9 10 11 12 13 14 15 16 17 
18 19 20 21 22 23 24 25 26 
27 28 29 30 31 32 33 34 35 
36 37 38 39 40 41 42 43 44 
45 46 47 48 49 50 51 52 53 
54 55 56 57 58 59 60 61 62 
63 64 65 66 67 68 69 70 71 
72 73 74 75 76 77 78 79 80 
81 82 83 84 85 86 87 88 89 
90 91 92 93 94 95 96 97 98 
99 100 101 102 103 104 105 106 107 
108 109 110 111 112 113 114 115 116 
117 118 119 120 121 122 123 124 125 
126 127 128 129 130 131 132 133 134 
135 136 137 138 139 140 141 142 143 
144 145 146 147 148 149 150 151 152 
153 154 155 156 157 158 159 160 161 
162 163 164 165 166 167 168 169 170 
171 172 173 174 175 176 177 178 179 
180 181 182 183 184 185 186 187 188 
189 190 191 192 193 194 195 196 197 
198 199 200 201 202 203 204 205 206 
207 208 209 210 211 212 213 214 215 
216 217 218 219 220 221 222 223 224 
225 226 227 228 229 230 231 232 233 
234 235 236 237 238 239 240 241 242 
243 244 245 246 247 248 249 250 
LINES 2 251
OFFSETS vtktypeint64
0 251 
CONNECTIVITY vtktypeint64
0 1 2 3 4 5 6 7 8 
9 10 11 12 13 14 15 16 17 
18 19 20 21 22 23 24 25 26 
27 28 29 30 31 32 33 34 35 
36 37 38 39 40 41 42 43 44 
45 46 47 48 49 50 51 52 53 
54 55 56 57 58 59 60 61 62 
63 64 65 66 67 68 69 70 71 
72 73 74 75 76 77 78 79 80 
81 82 83 84 85 86 87 88 89 
90 91 92 93 94 95 96 97 98 
99 100 101 102 103 104 105 106 107 
108 109 110 111 112 113 114 115 116 
117 118 119 120 121 122 123 124 125 
126 127 128 129 130 131 132 133 134 
135 136 137 138 139 140 141 142 143 
144 145 146 147 148 149 150 151 152 
153 154 155 156 157 158 159 160 161 
162 163 164 165 166 167 168 169 170 
171 172 173 174 175 176 177 178 179 
180 181 182 183 184 185 186 187 188 
189 190 191 192 193 194 195 196 197 
198 199 200 201 202 203 204 205 206 
207 208 209 210 211 212 213 214 215 
216 217 218 219 220 221 222 223 224 
225 226 227 228 229 230 231 232 233 
234 235 236 237 238 239 240 241 242 
243 244 245 246 247 248 249 250 
POINT_DATA 251
SCALARS Curvature double
LOOKUP_TABLE default
0.24086471342 0.23155596359 0.22102704117 0.20987414154 0.19867975886 0.18796353146 0.1781506036 0.16963483499 0.16269765693 
0.15761091988 0.15452436604 0.1535527655 0.15466957558 0.15775198589 0.16255399257 0.16870133296 0.17575535191 0.18316685688 
0.1903543781 0.19669311013 0.20162981834 0.20476284351 0.20580469478 0.2045985255 0.20118460156 0.19585007774 0.18903074823 
0.18129207853 0.17320327348 0.16533269883 0.1582263468 0.15237667021 0.14822446504 0.14613104044 0.14645527417 0.14944559974 
0.1552646776 0.16399767561 0.17556618365 0.18989303024 0.20668309745 0.22555305645 0.24588046109 0.26696505642 0.28774989766 
0.30673783741 0.32221372842 0.33276523511 0.33741265805 0.33595519958 0.3289255005 0.31757828403 0.30339959292 0.28791529321 
0.27235447724 0.25751693526 0.24380466928 0.23142847812 0.22042197391 0.21056984611 0.20155257857 0.1929599118 0.18436250703 
0.17535223162 0.16560906219 0.15489996534 0.14301848472 0.129841728 0.11536342083 0.099734654151 0.083148770527 0.065945782567 
0.048691356084 0.032843436892 0.023327823254 0.028750613661 0.044265305445 0.063082363978 0.083065549146 0.10356956219 0.12426291225 
0.14490077664 0.16523138818 0.18495287861 0.20371315842 0.22107503793 0.23672615157 0.25035967632 0.26158179031 0.2700016087 
0.27549362715 0.27809507506 0.27795714346 0.27530750654 0.27041893156 0.26360963233 0.25518423811 0.24551155429 0.23488495068 
0.22353445568 0.21165643086 0.19958913337 0.18765779309 0.1762289824 0.16563025506 0.15619853676 0.14819137569 0.1417828625 
0.137002296 0.13372337896 0.13158254577 0.13006123297 0.1285869245 0.12658020166 0.12349644229 0.11893756705 0.11265944992 
0.10462933964 0.095017321159 0.084139599963 0.072473846143 0.060617067795 0.049461209916 0.040419764177 0.035684932506 0.03681035458 
0.043196916664 0.052612024568 0.063454984912 0.074848370652 0.08636690622 0.097776030392 0.10891559179 0.11966908277 0.12994722531 
0.13964609084 0.14868813852 0.15695732156 0.16437364026 0.17083018617 0.17625068689 0.18059209702 0.1837637076 0.18568797113 
0.18631863471 0.18565740517 0.18377000188 0.18073321938 0.17665239143 0.17169749669 0.16602570084 0.15984002489 0.15332644588 
0.14665051076 0.13994681705 0.13334089795 0.12695773164 0.12089864073 0.11522252607 0.10997567632 0.10515034908 0.10073220375 
0.096658264383 0.092854958566 0.08922263976 0.085640970322 0.081978864306 0.078086468828 0.073829267085 0.069080616735 0.063752921104 
0.057810825702 0.051281866135 0.04432374823 0.037251781529 0.03064911724 0.025586835702 0.023677221959 0.025849844796 0.031214637809 
0.038104057403 0.045394017828 0.052444890171 0.058894222577 0.064585118393 0.069487809103 0.073630367484 0.077101577209 0.080078290056 
0.082815958888 0.085597383371 0.088723277706 0.092497580405 0.097196259421 0.10306462318 0.11026362045 0.1188723059 0.12888346296 
0.14019553943 0.15259526454 0.16568499303 0.17895683208 0.19177590309 0.20342672939 0.21317897009 0.22040071693 0.22473085491 
0.22601340148 0.22428651649 0.21983445106 0.21320212326 0.20504426109 0.19601124624 0.18666661912 0.17746084848 0.16872872546 
0.16070506587 0.15352022645 0.1472562767 0.14190479126 0.13743264126 0.13375013348 0.1307595955 0.12831061524 0.12624169494 
0.12436071561 0.1224728781 0.12038653236 0.11796595278 0.11509727443 0.11166851677 0.10757831035 0.10283432233 0.097496005433 
0.091694920625 0.085607101712 0.079462901848 0.073551432826 0.068229822729 0.063898357362 0.060994223214 0.059866123429 0.060712926695 
0.063552820233 0.068171787699 0.07427405459 0.081486116652 0.089504831759 0.098028188826 0.1068137961 0.11562681335 
