# vtk DataFile Version 5.1
vtk output
ASCII
DATASET POLYDATA
POINTS 200 double
104.67753157 66.16440103 29.147540386 104.43454488 66.277474985 29.012896692 104.19508376 66.376116534 28.861618482 
103.95989353 66.458877697 28.694911288 103.72964526 66.524471201 28.51425095 103.50501536 66.57152255 28.321163186 
103.28660544 66.598889675 28.117444084 103.07495781 66.605639971 27.905050381 102.87059178 66.590985028 27.68602871 
102.67398232 66.554397833 27.462517488 102.48555763 66.495656335 27.2366897 102.30571866 66.414814743 27.010688564 
102.13481085 66.312286885 26.786562624 101.97313311 66.188803823 26.566185782 101.8209844 66.045264595 26.351239765 
101.67866224 65.882705103 26.143212701 101.54648499 65.702241555 25.943408772 101.42487853 65.504935228 25.753034303 
101.31417839 65.292083659 25.573037579 101.21484274 65.064872913 25.40431545 101.12739091 64.824506059 25.247671375 
101.052495 64.572147425 25.103911099 100.99068451 64.309205791 24.973525427 100.94260991 64.037080815 24.85692308 
100.9089302 63.75727958 24.754266757 100.89038686 63.471383348 24.665486209 100.88750562 63.181123937 24.589964948 
100.90081997 62.88822654 24.526738275 100.93080872 62.594400087 24.474454694 100.9779907 62.301323796 24.431454125 
101.04264997 62.01062401 24.395654954 101.12502972 61.723871299 24.364747496 101.2253415 61.442632751 24.336257166 
101.3437923 61.168562691 24.307587609 101.48017355 60.903282182 24.276146162 101.63422028 60.648565694 24.239435354 
101.80549482 60.406385371 24.195071691 101.99312978 60.178758139 24.140974727 102.19587199 59.967693274 24.075486954 
102.4121835 59.775214048 23.997380665 102.64029709 59.603409172 23.90581949 102.87802594 59.453880687 23.800668568 
103.1231218 59.328150654 23.682139298 103.37326071 59.227704818 23.550722951 103.62600483 59.153764575 23.407271674 
103.87886264 59.107313068 23.252913533 104.1292569 59.089403925 23.088892188 104.37437671 59.101249949 22.916578045 
104.61122558 59.143588935 22.737649107 104.83646774 59.217207633 22.553960754 105.0464191 59.322583626 22.367679192 
105.23714005 59.459598908 22.181328851 105.40467505 59.627239668 21.997767746 105.54543675 59.823377409 21.820060984 
105.65666049 60.044738162 21.651250191 105.73674751 60.28714374 21.494084052 105.78576483 60.545789356 21.350610332 
105.80500052 60.816029456 21.22215678 105.7968303 61.093715207 21.109277455 105.76433595 61.375477611 21.011858518 
105.71082481 61.658820591 20.929367001 105.63981246 61.942054833 20.860824299 105.55466562 62.224209852 20.805040053 
105.45836611 62.504849482 20.760885948 105.35389911 62.783993702 20.726930707 105.24389279 63.061957117 20.701877939 
105.13092193 63.339303768 20.684206586 105.01738449 63.616735786 20.672439883 104.90559579 63.895024458 20.664901714 
104.79780999 64.174942525 20.659871877 104.69621754 64.45717359 20.655473312 104.60290269 64.742218638 20.649735662 
104.51987628 65.030333166 20.640585764 104.44885125 65.321404858 20.62593543 104.39111653 65.614925229 20.603815477 
104.34748148 65.910028319 20.572460078 104.3181557 66.205568787 20.5304269 104.30275076 66.50025804 20.476653092 
104.30032716 66.792810091 20.410475063 104.30948208 67.082068703 20.331604989 104.32849336 67.367086571 20.240052891 
104.35550316 67.647115628 20.135960583 104.38850833 67.92167472 20.019725883 104.42557219 68.190436901 19.891751409 
104.46482557 68.453198152 19.752460232 104.50447776 68.709777867 19.602188045 104.54283949 68.960157968 19.441485919 
104.57837147 69.204295 19.270834067 104.60964432 69.442103403 19.090676699 104.63546635 69.673584048 18.901635013 
104.65485104 69.898711307 18.70433114 104.66699315 70.117417876 18.49937445 104.67138432 70.329672857 18.287441121 
104.66785404 70.53548129 18.069225478 104.65651208 70.734835075 17.845353797 104.63772082 70.927691885 17.616348411 
104.61224612 71.114127122 17.382715861 104.58104379 71.294188884 17.144815007 104.54525683 71.46791837 16.902882356 
104.50621428 71.635369705 16.65705601 104.46540096 71.796648456 16.40741881 104.42437068 71.951820526 16.153975084 
104.38475164 72.10090388 15.896681928 104.34817754 72.243975695 15.635555389 104.31625417 72.381075123 15.370644718 
104.29054226 72.512212932 15.102067782 104.2725584 72.637352736 14.830025823 104.26360517 72.7565024 14.55486894 
104.2648021 72.869647878 14.277050738 104.27704546 72.976771236 13.99712249 104.30097174 73.077870057 13.715712801 
104.33700339 73.172943687 13.433494086 104.38522488 73.2620707 13.151155076 104.4454966 73.345372167 12.869352597 
104.51750076 73.423018198 12.588688988 104.60081399 73.495229777 12.309706066 104.69494211 73.562299472 12.03288571 
104.79928662 73.624638292 11.758632459 104.91335556 73.682697538 11.487325334 105.03679295 73.736981978 11.219356522 
105.16917104 73.788145511 10.955066026 105.31029608 73.836880234 10.694873197 105.46009598 73.883975491 10.43926909 
105.61850465 73.930314795 10.188769112 105.78566026 73.976835807 9.9440549986 105.96171752 74.02453963 9.7059022781 
106.14681193 74.074443809 9.4751727054 106.34110594 74.12757098 9.252884112 106.54474074 74.184936715 9.0402237732 
106.75759603 74.247406938 8.8383103463 106.9794214 74.315723549 8.6483037683 107.20974442 74.390442576 8.4712650533 
107.44786674 74.471904497 8.3080615974 107.692894 74.56022238 8.1592804551 107.94379309 74.655288035 8.0251601184 
108.19948063 74.756817998 7.905603157 108.45887388 74.864357531 7.8001007263 108.72098842 74.97736784 7.7078648825 
108.98497993 75.095279963 7.6279216964 109.25015661 75.217527551 7.5591782135 109.51597728 75.343591995 7.5005396669 
109.78202829 75.472972463 7.4508341891 110.04801121 75.605231441 7.4089374169 110.3137116 75.740021296 7.3738500025 
110.57897301 75.877065051 7.3446534041 110.84368544 76.016134997 7.3204745504 111.1077605 76.157087657 7.300598482 
111.37112354 76.299834613 7.2844148368 111.63371916 76.444308691 7.2713877858 111.89549633 76.590481804 7.2611280046 
112.15641089 76.738342143 7.2533730123 112.41645119 76.887836643 7.2479237957 112.67562107 77.038899042 7.2446930741 
112.93394888 77.191427953 7.2436747501 113.19149625 77.345269369 7.2449183854 113.44836213 77.500209594 7.2484993878 
113.7046736 77.655990271 7.2545170924 113.96058481 77.812310046 7.2630619921 114.21627258 77.96883303 7.2741864781 
114.47192759 78.125207076 7.2878649361 114.72774374 78.281081657 7.3040099415 114.98391301 78.436119778 7.3224488467 
115.24061996 78.590009468 7.3429194086 115.49802092 78.742505576 7.3650384474 115.75624232 78.893429043 7.3883501248 
116.01537151 79.042683326 7.4123271022 116.27545308 79.190258836 7.4363841527 116.53646506 79.336270292 7.4599015684 
116.79833088 79.480930465 7.482247686 117.06091113 79.624559593 7.5027858842 117.3239979 79.767586488 7.5208966865 
117.58731987 79.910526861 7.5360175623 117.85055597 80.053952337 7.5476198002 118.11333474 80.198479948 7.5551940019 
118.37524799 80.344731012 7.5583124266 118.63586151 80.49330633 7.5565968552 118.89472117 80.644767799 7.5497026426 
119.15134632 80.799638495 7.5372794044 119.40529411 80.958302705 7.5190858303 119.65612566 81.121063724 7.4948675254 
119.90341948 81.288126199 7.4643765845 120.14675409 81.459616188 7.4273269499 120.38579748 81.635490303 7.3835209662 
120.62022517 81.815638449 7.3327046577 120.84973533 81.999869248 7.274601176 121.07401723 82.187937644 7.2088795342 
121.29283155 82.3794988 7.1352914629 121.50590038 82.574197969 7.0535354254 121.71292351 82.771656297 6.9633044007 
121.91354718 82.971483073 6.8642654227 122.10746219 83.17324975 6.7562127998 122.2942867 83.376537651 6.6389176151 
122.47360204 83.580918936 6.5121830739 122.64490851 83.78595238 6.3757943359 122.80779083 83.991169926 6.2297115936 
122.9617688 84.196090011 6.0738821339 123.1063465 84.400206762 5.9082989985 123.24098806 84.602979951 5.7329767491 
123.36531253 84.803868698 5.5481280506 123.47891633 85.002316019 5.3539760602 
VERTICES 201 200
OFFSETS vtktypeint64
0 1 2 3 4 5 6 7 8 
9 10 11 12 13 14 15 16 17 
18 19 20 21 22 23 24 25 26 
27 28 29 30 31 32 33 34 35 
36 37 38 39 40 41 42 43 44 
45 46 47 48 49 50 51 52 53 
54 55 56 57 58 59 60 61 62 
63 64 65 66 67 68 69 70 71 
72 73 74 75 76 77 78 79 80 
81 82 83 84 85 86 87 88 89 
90 91 92 93 94 95 96 97 98 
99 100 101 102 103 104 105 106 107 
108 109 110 111 112 113 114 115 116 
117 118 119 120 121 122 123 124 125 
126 127 128 129 130 131 132 133 134 
135 136 137 138 139 140 141 142 143 
144 145 146 147 148 149 150 151 152 
153 154 155 156 157 158 159 160 161 
162 163 164 165 166 167 168 169 170 
171 172 173 174 175 176 177 178 179 
180 181 182 183 184 185 186 187 188 
189 190 191 192 193 194 195 196 197 
198 199 200 
CONNECTIVITY vtktypeint64
0 1 2 3 4 5 6 7 8 
9 10 11 12 13 14 15 16 17 
18 19 20 21 22 23 24 25 26 
27 28 29 30 31 32 33 34 35 
36 37 38 39 40 41 42 43 44 
45 46 47 48 49 50 51 52 53 
54 55 56 57 58 59 60 61 62 
63 64 65 66 67 68 69 70 71 
72 73 74 75 76 77 78 79 80 
81 82 83 84 85 86 87 88 89 
90 91 92 93 94 95 96 97 98 
99 100 101 102 103 104 105 106 107 
108 109 110 111 112 113 114 115 116 
117 118 119 120 121 122 123 124 125 
126 127 128 129 130 131 132 133 134 
135 136 137 138 139 140 141 142 143 
144 145 146 147 148 149 150 151 152 
153 154 155 156 157 158 159 160 161 
162 163 164 165 166 167 168 169 170 
171 172 173 174 175 176 177 178 179 
180 181 182 183 184 185 186 187 188 
189 190 191 192 193 194 195 196 197 
198 199 
LINES 2 200
OFFSETS vtktypeint64
0 200 
CONNECTIVITY vtktypeint64
0 1 2 3 4 5 6 7 8 
9 10 11 12 13 14 15 16 17 
18 19 20 21 22 23 24 25 26 
27 28 29 30 31 32 33 34 35 
36 37 38 39 40 41 42 43 44 
45 46 47 48 49 50 51 52 53 
54 55 56 57 58 59 60 61 62 
63 64 65 66 67 68 69 70 71 
72 73 74 75 76 77 78 79 80 
81 82 83 84 85 86 87 88 89 
90 91 92 93 94 95 96 97 98 
99 100 101 102 103 104 105 106 107 
108 109 110 111 112 113 114 115 116 
117 118 119 120 121 122 123 124 125 
126 127 128 129 130 131 132 133 134 
135 136 137 138 139 140 141 142 143 
144 145 146 147 148 149 150 151 152 
153 154 155 156 157 158 159 160 161 
162 163 164 165 166 167 168 169 170 
171 172 173 174 175 176 177 178 179 
180 181 182 183 184 185 186 187 188 
189 190 191 192 193 194 195 196 197 
198 199 
POINT_DATA 200
SCALARS Curvature double
LOOKUP_TABLE default
0.25112776703 0.25259661831 0.25397672535 0.25546257675 0.25715937294 0.25900599998 0.26087345334 0.26258021209 0.26378530756 
0.26410957924 0.2633403578 0.261397276 0.25836218863 0.25461161742 0.25065744437 0.24683612427 0.24347257981 0.24095572924 
0.23944639677 0.23884890822 0.23895924076 0.23945298242 0.23971572915 0.23911187084 0.23717762895 0.23362710459 0.22851944132 
0.22253950192 0.21669235303 0.21197852294 0.20958238382 0.21063016843 0.21570227473 0.22466839508 0.23686506403 0.25122258656 
0.266222027 0.28042475938 0.29278439612 0.30266685396 0.30995634047 0.315391585 0.31993810113 0.32435140868 0.32967451454 
0.33708638239 0.3473237625 0.36059853208 0.37684728478 0.39534486356 0.41409894913 0.43047033479 0.4415407219 0.44448089351 
0.43746291186 0.42078832503 0.39581247699 0.36424004803 0.32856923559 0.29108554463 0.25342282797 0.21666272933 0.18154620369 
0.14835124104 0.11721473731 0.089093652319 0.066614303821 0.055888971481 0.062215761218 0.081283184672 0.10561785265 0.13078517796 
0.15434042171 0.17449127647 0.18977033846 0.19931398452 0.20323818253 0.20184390271 0.19570761774 0.18628038938 0.17521083949 
0.16395261409 0.15372349927 0.14544924004 0.13956817098 0.13610379987 0.13474571614 0.13490088314 0.13581100375 0.13673134292 
0.13708378252 0.13627464155 0.13377416094 0.12940142053 0.1232145668 0.1154689866 0.10670697753 0.097709023544 0.089451883322 
0.083189759079 0.080216459695 0.081327263355 0.08642427328 0.094578917527 0.10461053311 0.11532990735 0.12566722449 0.13481047805 
0.14216600927 0.14738135725 0.15031971537 0.15101580698 0.14955977707 0.1461705429 0.14132195782 0.1355445917 0.12937434193 
0.12330761338 0.11782036964 0.11342337652 0.11065526962 0.11004933332 0.11203558594 0.11675005087 0.12409914299 0.1337142582 
0.14496136947 0.15700430075 0.16876434137 0.17915286683 0.187247294 0.19229922742 0.19377488999 0.1913522966 0.18507631609 
0.17550547466 0.16345723201 0.1498370662 0.13541129067 0.12081340305 0.10658295138 0.093159340924 0.080895779678 0.069993765863 
0.060547361552 0.052601009777 0.046186203076 0.041278805124 0.037729004832 0.035258729141 0.033550164857 0.032303723021 0.031335747352 
0.030558061889 0.029936634702 0.029466193056 0.029110417425 0.02882663039 0.028551605388 0.028175009684 0.027576933524 0.02667434907 
0.02545915322 0.024026916325 0.022615446 0.021591264797 0.021338941116 0.022233456497 0.024549581554 0.028341997166 0.033452876142 
0.039624089983 0.046567418139 0.053965249843 0.061513502679 0.06894005911 0.075997049575 0.082479640881 0.08829515954 0.093428573488 
0.097864400318 0.10163772802 0.1048996585 0.10783787632 0.11065333774 0.11351473221 0.11653817784 0.11977645574 0.12324383558 
0.12692345965 0.13078052366 0.13477909007 0.13887506705 0.14301536943 0.14713411956 0.1511559555 0.1549953654 0.15856035075 
0.16176266622 0.16451711059 
