# vtk DataFile Version 5.1
vtk output
ASCII
DATASET POLYDATA
POINTS 207 double
86.458573798 84.919454917 31.723524168 86.539085335 84.953716361 31.43657663 86.62442511 84.98214681 31.150387643 
86.714453507 85.005126562 30.86514672 86.809064165 85.022999443 30.581024522 86.908159831 85.036099857 30.298173388 
87.011580758 85.044814597 30.016704195 87.119260409 85.049412967 29.736738165 87.231008698 85.050243205 29.458334055 
87.346737704 85.047502746 29.181572902 87.466273974 85.041398485 28.906488573 87.589503657 85.031999736 28.633132015 
87.716261769 85.019320878 28.361526883 87.846422006 85.003224741 28.091717817 87.979819732 84.983485576 27.823738389 
88.116323327 84.959705357 27.557658337 88.255759488 84.931402417 27.293549625 88.397985737 84.897908308 27.031545483 
88.542807805 84.858516877 26.771794846 88.690053048 84.812343763 26.514537444 88.839490116 84.758537244 26.260044698 
88.990886474 84.696120393 26.008698368 89.143953528 84.62420415 25.760931588 89.298369365 84.541934102 25.517260237 
89.453766059 84.448535248 25.278272808 89.609717967 84.343544648 25.044517834 89.765755432 84.22648501 24.816627843 
89.921357059 84.097392293 24.595027477 90.075960251 83.956378296 24.380092579 90.228959892 83.803788417 24.172025354 
90.379749648 83.640284796 23.97074218 90.527653286 83.466466158 23.776065405 90.672036089 83.283256457 23.587448046 
90.812195746 83.091471633 23.404242528 90.947439749 82.892015335 23.22558701 91.077075719 82.685781675 23.050501713 
91.200367262 82.473604745 22.877952245 91.316693929 82.256377101 22.706856454 91.425328909 82.034877406 22.536182218 
91.525808337 81.809976553 22.364961735 91.61758997 81.582445409 22.19233974 91.70043186 81.353078081 22.017640048 
91.774201319 81.122590854 21.84036635 91.838928954 80.891622106 21.660210505 91.89494628 80.660698295 21.477100734 
91.942565009 80.430210246 21.291086133 91.982357605 80.200392202 21.102420885 92.014824329 79.97133986 20.911433389 
92.04045602 79.743020472 20.718536545 92.059695463 79.515290895 20.524202823 92.072743764 79.287936472 20.328917192 
92.079743892 79.060693193 20.133192097 92.080449322 78.833291458 19.937527929 92.074572055 78.605493988 19.742413527 
92.061407173 78.377115787 19.548338917 92.040235136 78.148081552 19.355755111 92.010011065 77.91843006 19.165128587 
91.969756976 77.688366183 18.976873829 91.918333109 77.458270097 18.791404464 91.854759579 77.228724359 18.609052601 
91.778110016 77.00051925 18.430082396 91.687708116 76.774639508 18.254620503 91.58309106 76.552248127 18.082640697 
91.464104859 76.334642185 17.913914513 91.330774971 76.123266493 17.74801928 91.183500101 75.919592502 17.584299303 
91.022613762 75.725345083 17.421943136 90.848915971 75.542148831 17.259948554 90.663033677 75.372062705 17.097192659 
90.465994027 75.217108807 16.932477279 90.258834725 75.079831378 16.764549822 90.042998509 74.962840897 16.592270676 
89.820155073 74.869475593 16.414607361 89.59261134 74.802883433 16.230996052 89.363188944 74.766521369 16.041388319 
89.135350425 74.763546578 15.846520804 88.9130581 74.796323421 15.648049548 88.700418706 74.865914954 15.44852038 
88.501155625 74.971744366 15.251127821 88.318102573 75.111631752 15.059295915 88.152914464 75.282194854 14.876238522 
88.006055535 75.47941522 14.704654701 87.877005778 75.699164624 14.546610173 87.764691377 75.937695647 14.403702335 
87.667413043 76.191438031 14.276840853 87.58339991 76.457432554 14.166655716 87.510912721 76.733214365 14.073658095 
87.448031251 77.016514956 13.997824784 87.393096458 77.305516499 13.939269485 87.34442088 77.598548631 13.897618323 
87.300539869 77.894213367 13.872473296 87.260145831 78.191300168 13.863182234 87.222123301 78.488798133 13.868759908 
87.185620289 78.785906033 13.888238752 87.149991125 79.082050689 13.920127037 87.114862453 79.376858408 13.963084397 
87.080091792 79.670207943 14.015339714 87.045782928 79.962153246 14.075229593 87.012243633 80.252950529 14.140878935 
86.97997126 80.542973991 14.210476793 86.949575237 80.832692604 14.282161202 86.921776098 81.122601739 14.354127061 
86.897288033 81.413169727 14.424617318 86.876873844 81.704807584 14.491903281 86.86116281 81.997797231 14.55439503 
86.850818599 82.292318831 14.610455428 86.846253102 82.588361801 14.658706461 86.847905935 82.885798135 14.697654897 
86.855933232 83.184311671 14.726128999 86.87048695 83.483463324 14.742859796 86.891512145 83.782667407 14.746836059 
86.918898462 84.081220239 14.737066997 86.952437051 84.378301873 14.712682845 86.991807426 84.673009957 14.67302477 
87.036695616 84.964315975 14.61735119 87.086620122 85.251195245 14.545378034 87.141151396 85.53248005 14.456628376 
87.199711439 85.80709763 14.351151109 87.261727716 86.073950613 14.229030255 87.326591098 86.331995052 14.090554229 
87.393641904 86.580450015 13.936459695 87.462255994 86.818584105 13.767470849 87.531805319 87.046060113 13.584735662 
87.601717167 87.262812372 13.389520111 87.671478641 87.468966726 13.183085328 87.740660913 87.665184416 12.966989618 
87.808910712 87.852197529 12.742586682 87.875973889 88.031142945 12.511345089 87.941659915 88.203232035 12.274564261 
88.005845433 88.369842142 12.033487779 88.06843922 88.532373124 11.789225895 88.1293618 88.69221826 11.54277691 
88.188522049 88.850705965 11.295024397 88.245785988 89.009056048 11.046738815 88.300971068 89.168336315 10.79857798 
88.353803153 89.329442157 10.551085277 88.403951767 89.493037486 10.304670621 88.450955806 89.659611392 10.059636454 
88.494346151 89.829378437 9.8161328618 88.533501122 90.002437319 9.574234798 88.56785794 90.178645485 9.3338871884 
88.596749711 90.357796794 9.0950014804 88.619548608 90.539573829 8.85744505 88.63565027 90.723618171 8.6210899627 
88.644408133 90.90958501 8.3858575481 88.64535667 91.097126912 8.1517181559 88.637897196 91.285990031 7.918761992 
88.621708256 91.475960622 7.6871549207 88.596350289 91.666931649 7.4572000077 88.561583538 91.858856025 7.2292793944 
88.51714261 92.051757469 7.003879587 88.462850094 92.245697614 6.7815513605 88.398571426 92.440756042 6.5628957822 
88.324158814 92.637011884 6.3485703604 88.239563989 92.834505064 6.1392176362 88.144637297 93.033235999 5.935545281 
88.039389612 93.23311582 5.7381678262 87.923651351 93.433992334 5.54780178 87.797507682 93.635604536 5.3649748709 
87.660792401 93.837622866 5.1903834306 87.51368427 94.039629212 5.0244428042 87.356169108 94.241145404 4.8677152067 
87.18847565 94.441650544 4.7205445018 87.010842564 94.640596239 4.5832490358 86.82358314 94.837424295 4.4560660926 
86.627212288 95.031632928 4.3389964365 86.422132209 95.222706479 4.2321431187 86.209043492 95.410280713 4.1352193076 
85.988506597 95.593998588 4.0480544733 85.761209858 95.773639204 3.970253982 85.527797865 95.949048212 3.9014099748 
85.288894731 96.12014882 3.8410776606 85.045128721 96.286971519 3.788734936 84.797035874 96.449565844 3.7439520789 
84.545169238 96.608098638 3.7062153999 84.289971686 96.762711073 3.6751748378 84.031902808 96.913648871 3.6504104946 
83.771322674 97.061104541 3.631691213 83.508605857 97.205353417 3.6187217458 83.244046828 97.34660222 3.6113926492 
82.9779542 97.485122632 3.6095136079 82.710573904 97.621108054 3.6130734674 82.442165669 97.754807409 3.6219397588 
82.172941421 97.886389457 3.6361429975 81.903120796 98.016072097 3.6555492766 81.632891588 98.144016871 3.6801229521 
81.362434974 98.270418897 3.7096773221 81.091910637 98.395457778 3.7440264113 80.82146111 98.519335362 3.7828806443 
80.551207134 98.642269689 3.8258752716 80.281250013 98.764492998 3.8726034807 80.011663782 98.886266602 3.9225402705 
79.742509481 99.007862947 3.9751690951 79.473817573 99.129572517 4.0298604397 79.20561455 99.25169627 4.086009984 
78.937903297 99.374527531 4.1429578571 78.670688072 99.498365442 4.2000547751 78.403962557 99.623485055 4.2566438498 
78.137725588 99.750155151 4.3120704683 77.871978925 99.878620652 4.3656856409 77.606732722 100.00910215 4.4168516447 
77.342012691 100.14180977 4.4649191846 77.077855648 100.27690703 4.5092795228 76.814328285 100.41457214 4.549268678 
76.55150942 100.55491056 4.5843160047 76.28952407 100.6980691 4.6137366717 76.028504617 100.84409185 4.6370139535 

VERTICES 208 207
OFFSETS vtktypeint64
0 1 2 3 4 5 6 7 8 
9 10 11 12 13 14 15 16 17 
18 19 20 21 22 23 24 25 26 
27 28 29 30 31 32 33 34 35 
36 37 38 39 40 41 42 43 44 
45 46 47 48 49 50 51 52 53 
54 55 56 57 58 59 60 61 62 
63 64 65 66 67 68 69 70 71 
72 73 74 75 76 77 78 79 80 
81 82 83 84 85 86 87 88 89 
90 91 92 93 94 95 96 97 98 
99 100 101 102 103 104 105 106 107 
108 109 110 111 112 113 114 115 116 
117 118 119 120 121 122 123 124 125 
126 127 128 129 130 131 132 133 134 
135 136 137 138 139 140 141 142 143 
144 145 146 147 148 149 150 151 152 
153 154 155 156 157 158 159 160 161 
162 163 164 165 166 167 168 169 170 
171 172 173 174 175 176 177 178 179 
180 181 182 183 184 185 186 187 188 
189 190 191 192 193 194 195 196 197 
198 199 200 201 202 203 204 205 206 
207 
CONNECTIVITY vtktypeint64
0 1 2 3 4 5 6 7 8 
9 10 11 12 13 14 15 16 17 
18 19 20 21 22 23 24 25 26 
27 28 29 30 31 32 33 34 35 
36 37 38 39 40 41 42 43 44 
45 46 47 48 49 50 51 52 53 
54 55 56 57 58 59 60 61 62 
63 64 65 66 67 68 69 70 71 
72 73 74 75 76 77 78 79 80 
81 82 83 84 85 86 87 88 89 
90 91 92 93 94 95 96 97 98 
99 100 101 102 103 104 105 106 107 
108 109 110 111 112 113 114 115 116 
117 118 119 120 121 122 123 124 125 
126 127 128 129 130 131 132 133 134 
135 136 137 138 139 140 141 142 143 
144 145 146 147 148 149 150 151 152 
153 154 155 156 157 158 159 160 161 
162 163 164 165 166 167 168 169 170 
171 172 173 174 175 176 177 178 179 
180 181 182 183 184 185 186 187 188 
189 190 191 192 193 194 195 196 197 
198 199 200 201 202 203 204 205 206 

LINES 2 207
OFFSETS vtktypeint64
0 207 
CONNECTIVITY vtktypeint64
0 1 2 3 4 5 6 7 8 
9 10 11 12 13 14 15 16 17 
18 19 20 21 22 23 24 25 26 
27 28 29 30 31 32 33 34 35 
36 37 38 39 40 41 42 43 44 
45 46 47 48 49 50 51 52 53 
54 55 56 57 58 59 60 61 62 
63 64 65 66 67 68 69 70 71 
72 73 74 75 76 77 78 79 80 
81 82 83 84 85 86 87 88 89 
90 91 92 93 94 95 96 97 98 
99 100 101 102 103 104 105 106 107 
108 109 110 111 112 113 114 115 116 
117 118 119 120 121 122 123 124 125 
126 127 128 129 130 131 132 133 134 
135 136 137 138 139 140 141 142 143 
144 145 146 147 148 149 150 151 152 
153 154 155 156 157 158 159 160 161 
162 163 164 165 166 167 168 169 170 
171 172 173 174 175 176 177 178 179 
180 181 182 183 184 185 186 187 188 
189 190 191 192 193 194 195 196 197 
198 199 200 201 202 203 204 205 206 

POINT_DATA 207
SCALARS Curvature double
LOOKUP_TABLE default
0.087540147136 0.084181371084 0.080778577738 0.077371510977 0.074003505458 0.070726660934 0.067607056855 0.064730401388 0.062168162587 
0.060001524044 0.058334625197 0.057314545425 0.057123840374 0.05799988736 0.060179957607 0.063886253421 0.069226909979 0.076178600789 
0.084542202942 0.094046815483 0.10432805043 0.11490774697 0.12522452146 0.13465496327 0.14257134885 0.14843007446 0.15179511286 
0.15247205389 0.15046562409 0.14596547866 0.13932786987 0.13107993689 0.12207681907 0.11328369863 0.10572292488 0.10029343865 
0.097538161157 0.097386916514 0.099242262662 0.10202229236 0.10455827702 0.10590414515 0.10543766066 0.10291428336 0.09850479178 
0.09265241605 0.0860179299 0.07936182148 0.073524162071 0.069380875103 0.067785940787 0.069235502948 0.073874785707 0.081349122199 
0.091161606927 0.10260568116 0.11499857231 0.1276588318 0.13989784334 0.15098541329 0.16034595502 0.16766801071 0.17297858025 
0.17671303901 0.17981143592 0.18351486076 0.18922100497 0.19824667785 0.21173866411 0.2303657791 0.25428054103 0.28289059682 
0.31490555434 0.34823764425 0.37999922741 0.40681617086 0.42505579605 0.43162220986 0.42575630656 0.40922770483 0.38525123955 
0.35736406637 0.32863726916 0.30124725612 0.27652826709 0.25490730056 0.23624468531 0.22016295666 0.20608810508 0.19327182559 
0.18091607419 0.1682705419 0.15471435472 0.13985002057 0.12347772585 0.1055425081 0.086298873316 0.066344225574 0.047010434459 
0.031891517197 0.029426514305 0.04145466674 0.058758113367 0.07680282193 0.094143815653 0.11017953169 0.12466853716 0.13759245223 
0.14909800626 0.15935428943 0.16855598632 0.17685009881 0.18436633009 0.19118585214 0.19720359028 0.20220745389 0.20594780061 
0.20812670826 0.20838409704 0.20632566086 0.20161717655 0.19408990589 0.183836661 0.17093682829 0.15551355767 0.13805055567 
0.11909848935 0.099314218388 0.079396034378 0.060170935773 0.042630003611 0.028606522496 0.022182434949 0.025954716194 0.034422697454 
0.043110398977 0.050657778347 0.056856022839 0.0619754612 0.066453558942 0.070757927932 0.075208966073 0.079944506498 0.0849224572 
0.089978397872 0.094910675205 0.099556245498 0.10384808129 0.10781802083 0.1115777733 0.11527302226 0.11903523811 0.1229440034 
0.1270301356 0.13127540101 0.13561206898 0.13993658905 0.14410520016 0.14794891735 0.1513184503 0.15407822274 0.15600850163 
0.15690015823 0.15660926943 0.15503490909 0.15215508156 0.14799841496 0.14270413872 0.13647912395 0.12958796007 0.12226386624 
0.11473739636 0.1072650671 0.1000777766 0.093361669877 0.08726866629 0.081898517693 0.077296031285 0.073445836647 0.070311778807 
0.067805687579 0.065792278619 0.064076726156 0.062418961318 0.060569182496 0.058283246463 0.05538923853 0.051771264249 0.047397322164 
0.042288373526 0.036516062285 0.030243096409 0.02377945156 0.017682724832 0.013211308534 0.012593239317 0.016318750708 0.022208764442 
0.028864263848 0.035757260246 0.042693825199 0.04961640303 0.056508920994 0.063366805005 0.070173704555 0.076897032232 0.083490571248 

