# vtk DataFile Version 5.1
vtk output
ASCII
DATASET POLYDATA
POINTS 263 double
85.151534228 85.025998435 36.508014746 85.286496434 85.14121727 36.266249474 85.435873237 85.235081715 36.023734216 
85.598474369 85.306476122 35.782066558 85.772892932 85.354479685 35.542869835 85.957225596 85.379161188 35.307593532 
86.149533535 85.380946387 35.077457964 86.347967183 85.360281997 34.853516323 86.550586131 85.318569643 34.636345874 
86.755745527 85.256598321 34.426509887 86.961872042 85.175839901 34.224136442 87.167596889 85.077406853 34.02930967 
87.371665423 84.962276738 33.842031447 87.572983625 84.831674702 33.662064437 87.770494463 84.686377105 33.489279855 
87.963220857 84.527211666 33.32344756 88.150292987 84.355056236 33.164246589 88.330783538 84.170518664 33.011443276 
88.503800406 83.974239193 32.864747769 88.668578763 83.766988549 32.723767448 88.824241146 83.549355131 32.588172724 
88.969939788 83.321988502 32.457569112 89.105029887 83.085722707 32.331433509 89.228673061 82.841238581 32.20928081 
89.34022788 82.589390997 32.090497226 89.439190076 82.331110599 31.974395109 89.524754357 82.067220004 31.86027889 
89.596733095 81.798819873 31.7473102 89.654534251 81.526887597 31.634646279 89.697999981 81.252542795 31.52139127 
89.72687295 80.97690385 31.406630197 89.741099811 80.701132334 31.289463477 89.740742492 80.426404653 31.169029545 
89.725942428 80.153901791 31.044519389 89.697081462 79.88476603 30.915243821 89.65454335 79.620124443 30.780578798 
89.599047981 79.360957386 30.640107314 89.531181612 79.10825611 30.493422946 89.451978733 78.862702294 30.340415587 
89.362156682 78.625102797 30.180852431 89.262855927 78.395868468 30.014800856 89.155068865 78.175409796 29.842278534 
89.039685358 77.964198175 29.663221883 88.917822983 77.762351697 29.477770224 88.790446861 77.570099598 29.285937202 
88.658504859 77.387668933 29.087702433 88.522904368 77.215408138 28.882945114 88.384606761 77.053552256 28.671610918 
88.244541212 76.902482797 28.453564872 88.103650296 76.762700876 28.228633889 87.962914191 76.634831044 27.99663228 
87.823378412 76.519686047 27.757358377 87.686188267 76.418266583 27.510639853 87.552551103 76.331538556 27.256491501 
87.423795496 76.260706112 26.995008922 87.301482287 76.207352791 26.726390732 87.187178804 76.172784943 26.451262871 
87.082647952 76.158534066 26.170517083 86.989765319 76.166107379 25.885461382 86.910385453 76.196741562 25.597899809 
86.846172768 76.251201142 25.310083452 86.798913935 76.330271592 25.024711911 86.769666314 76.433574538 24.744736885 
86.759224969 76.560376819 24.473216749 86.767958356 76.709417761 24.213164702 86.795911711 76.879084482 23.967503328 
86.842309503 77.066989563 23.738473344 86.906210519 77.270750102 23.527947951 86.986575567 77.488022827 23.337516809 
87.081970503 77.716292749 23.168032179 87.190900809 77.953203685 23.019883281 87.312112176 78.196703309 22.893545025 
87.443973299 78.444728456 22.788439746 87.585325713 78.695604483 22.704555649 87.734739589 78.947762073 22.640904433 
87.891090661 79.199906183 22.59683477 88.053289615 79.450934737 22.571450799 88.220282708 79.699978479 22.563559768 
88.3911853 79.946339947 22.572196383 88.56517422 80.189492891 22.596354538 88.741453013 80.429134588 22.63480796 
88.919315548 80.665086687 22.68653256 89.098090881 80.89730465 22.750572749 89.277120186 81.125845779 22.826112025 
89.45574449 81.35094585 22.912210006 89.633301888 81.572892399 23.008146295 89.809104149 81.792048332 23.11329453 
89.982408419 82.008830577 23.227153815 90.15240002 82.223712252 23.349308183 90.318242019 82.437223967 23.479314797 
90.479004362 82.649900264 23.616852097 90.63365473 82.86228718 23.761651741 90.781045206 83.074940793 23.913458072 
90.920113916 83.28839679 24.071841718 91.049679334 83.503168704 24.236382853 91.168368351 83.719775355 24.406619572 
91.275183053 83.938638216 24.581757403 91.36890909 84.160186944 24.760959618 91.448459104 84.384808358 24.943159412 
91.513140546 84.612789846 25.12705984 91.561910128 84.844498147 25.311205335 91.594605111 85.080096282 25.493959525 
91.610643597 85.319850403 25.673495917 91.610123079 85.563858274 25.847939748 91.593034376 85.812239714 26.015221421 
91.559816288 86.064979675 26.173290427 91.510974698 86.322005649 26.319973977 91.447334056 86.583094448 26.453182535 
91.369810834 86.847907811 26.570751471 91.279640021 87.115907478 26.670761479 91.178055287 87.38641105 26.751142435 
91.066701118 87.658493718 26.810497507 90.947055378 87.931078067 26.846992668 90.82100823 88.202901798 26.860026877 
90.690253164 88.472567495 26.848635117 90.55658707 88.738639331 26.8128093 90.421667604 88.999676227 26.752778871 
90.287025117 89.254265468 26.669090625 90.153978375 89.501231617 26.562986279 90.02366168 89.73940287 26.43552351 
89.896899224 89.968029073 26.288486469 89.774350304 90.186376013 26.123353486 89.656401067 90.394066807 25.941918102 
89.543238917 90.590944845 25.745947056 89.435000353 90.776804374 25.536863943 89.331538983 90.951960866 25.316424929 
89.232699652 91.116683874 25.086036248 89.138321595 91.271228328 24.846884287 89.048060167 91.416289038 24.600314186 
88.961627726 91.552494184 24.347397648 88.878754823 91.680521095 24.089070534 88.799179431 91.801147971 23.82618204 
88.722630532 91.915303653 23.559529532 88.648912026 92.023889626 23.289768524 88.577909483 92.12779854 23.017446941 
88.509517897 92.228032806 22.743086088 88.443700962 92.325565306 22.467125374 88.380518266 92.421317389 22.189927573 
88.320047599 92.51620114 21.911827546 88.262383643 92.611054072 21.63312155 88.207716061 92.706644437 21.354064159 
88.156139173 92.803620399 21.074896933 88.107791024 92.902532723 20.795831631 88.062752644 93.003799153 20.517057333 
88.021005437 93.107673696 20.238730839 87.982523666 93.214339156 19.960989873 87.947084317 93.323765921 19.683918814 
87.91448845 93.435927043 19.407592672 87.884336666 93.550606294 19.132023239 87.856211547 93.667590282 18.857208776 
87.829576294 93.786579402 18.583107187 87.803816109 93.907232541 18.309649738 87.7782536 94.029225263 18.036768454 
87.752141265 94.152176249 17.764369762 87.724680231 94.275738144 17.492380701 87.695004907 94.399563553 17.220744893 
87.662261289 94.523317331 16.949430071 87.625506419 94.646684313 16.678454267 87.583791496 94.769371901 16.407890172 
87.536233282 94.891131365 16.137873189 87.481835071 95.011733674 15.868631479 87.419739481 95.131015819 15.600471647 
87.349190236 95.248877862 15.333780615 87.269280883 95.365244897 15.069083374 87.179537812 95.480166037 14.806920858 
87.079405337 95.593740587 14.547955228 86.968487395 95.70616616 14.292914876 86.846747793 95.817751789 14.042484051 
86.713960152 95.928876005 13.797523314 86.570474137 96.04001632 13.558680822 86.416471936 96.151709653 13.3267458 
86.252377562 96.264544146 13.102408874 86.07878279 96.379120855 12.886254005 85.896134318 96.496103855 12.679033695 
85.705264324 96.616053032 12.481129444 85.506779268 96.739574671 12.293163462 85.3014575 96.867155236 12.115537777 
85.090081565 96.999183427 11.948583273 84.873310213 97.136054525 11.792822616 84.651970986 97.277886001 11.648333153 
84.426718669 97.42481806 11.515453431 84.198222593 97.576808837 11.394321138 83.967111777 97.733653327 11.284899459 
83.733885514 97.895160216 11.187395077 83.499039493 98.060883881 11.101551102 83.262952062 98.230379943 11.027246441 
83.02591928 98.403168915 10.964416569 82.788185265 98.578639039 10.912633929 82.549901924 98.756216651 10.871682561 
82.31115998 98.935291494 10.841269205 82.072001772 99.115236233 10.820911522 81.832417831 99.295456686 10.810320392 
81.592372188 99.475370809 10.809077541 81.35181389 99.654443347 10.81668908 81.110671588 99.832160432 10.832839145 
80.868885367 100.00808157 10.85703194 80.626405171 100.18183485 10.888779736 80.38317993 100.35305985 10.927750563 
80.139203622 100.52155462 10.973363969 79.894480641 100.68715979 11.025149281 79.649031427 100.84977377 11.082664656 
79.402916121 101.0094681 11.145291135 79.15619283 101.16632806 11.212524012 78.908940088 101.32056309 11.28376901 
78.661248684 101.47248693 11.358380477 78.413205308 101.62244076 11.435759844 78.164909463 101.77089762 11.515191085 
77.916453836 101.91835563 11.595973516 77.667929429 102.06535446 11.677379625 77.419428309 102.21247296 11.758640308 
77.171043762 102.36029485 11.838974375 76.922878367 102.50941732 11.917560513 76.675042536 102.660395 11.993599545 
76.427673442 102.81379616 12.066226531 76.180934004 102.97014037 12.134587576 75.935015019 103.12987101 12.197881147 
75.690172545 103.29346254 12.255195156 75.446696077 103.46126284 12.305749393 75.204927743 103.6335614 12.348804082 
74.96532292 103.81070275 12.383466242 74.728327793 103.9928038 12.409189947 74.494492367 104.18001604 12.425336311 
74.264459496 104.37246437 12.431273666 74.038823549 104.57008276 12.426716624 73.81833593 104.77288418 12.411188913 
73.603706203 104.98073805 12.384471889 73.39562578 105.19343856 12.346474728 73.194994716 105.41085009 12.296863904 
73.002413196 105.63258825 12.235832948 72.818683402 105.85833531 12.163297843 72.644541036 106.0876726 12.079287864 
72.480539628 106.32006762 11.984025826 72.327511579 106.55500182 11.87741228 72.185836325 106.79179002 11.759784302 
72.056118801 107.0297348 11.631206939 71.938795981 107.26805051 11.49186215 71.834093322 107.50590038 11.34205878 
71.742449951 107.7423781 11.181883929 71.663722737 107.97660488 11.01183701 71.59811618 108.20761948 10.832102673 
71.545315341 108.43457051 10.643206176 71.505110883 108.65658944 10.445548211 71.477131938 108.87287701 10.239598553 
71.460733302 109.0828074 10.025962074 71.455529647 109.28563716 9.8050219292 71.460606422 109.48100602 9.5774536944 
71.475293826 109.66845199 9.3437186434 71.498829267 109.84762004 9.1042820832 71.530295951 110.01836288 8.8596540794 
71.568930192 110.1804218 8.6101909237 71.613884337 110.33366019 8.3562510553 71.664269362 110.47805159 8.0981781999 
71.719284438 110.6134565 7.8362067556 71.778109488 110.73975162 7.5705382492 71.83987688 110.85694946 7.3013910586 
71.903771672 110.96491694 7.0288991999 71.968964239 111.06343227 6.7531530342 72.034585039 111.15247017 6.4743035747 
72.09976164 111.23176481 6.1924259288 72.163570355 111.30102599 5.907608001 72.225080954 111.3600918 5.6200023373 
72.283205726 111.40837394 5.3296948979 72.336946839 111.44572269 5.0369433096 
VERTICES 264 263
OFFSETS vtktypeint64
0 1 2 3 4 5 6 7 8 
9 10 11 12 13 14 15 16 17 
18 19 20 21 22 23 24 25 26 
27 28 29 30 31 32 33 34 35 
36 37 38 39 40 41 42 43 44 
45 46 47 48 49 50 51 52 53 
54 55 56 57 58 59 60 61 62 
63 64 65 66 67 68 69 70 71 
72 73 74 75 76 77 78 79 80 
81 82 83 84 85 86 87 88 89 
90 91 92 93 94 95 96 97 98 
99 100 101 102 103 104 105 106 107 
108 109 110 111 112 113 114 115 116 
117 118 119 120 121 122 123 124 125 
126 127 128 129 130 131 132 133 134 
135 136 137 138 139 140 141 142 143 
144 145 146 147 148 149 150 151 152 
153 154 155 156 157 158 159 160 161 
162 163 164 165 166 167 168 169 170 
171 172 173 174 175 176 177 178 179 
180 181 182 183 184 185 186 187 188 
189 190 191 192 193 194 195 196 197 
198 199 200 201 202 203 204 205 206 
207 208 209 210 211 212 213 214 215 
216 217 218 219 220 221 222 223 224 
225 226 227 228 229 230 231 232 233 
234 235 236 237 238 239 240 241 242 
243 244 245 246 247 248 249 250 251 
252 253 254 255 256 257 258 259 260 
261 262 263 
CONNECTIVITY vtktypeint64
0 1 2 3 4 5 6 7 8 
9 10 11 12 13 14 15 16 17 
18 19 20 21 22 23 24 25 26 
27 28 29 30 31 32 33 34 35 
36 37 38 39 40 41 42 43 44 
45 46 47 48 49 50 51 52 53 
54 55 56 57 58 59 60 61 62 
63 64 65 66 67 68 69 70 71 
72 73 74 75 76 77 78 79 80 
81 82 83 84 85 86 87 88 89 
90 91 92 93 94 95 96 97 98 
99 100 101 102 103 104 105 106 107 
108 109 110 111 112 113 114 115 116 
117 118 119 120 121 122 123 124 125 
126 127 128 129 130 131 132 133 134 
135 136 137 138 139 140 141 142 143 
144 145 146 147 148 149 150 151 152 
153 154 155 156 157 158 159 160 161 
162 163 164 165 166 167 168 169 170 
171 172 173 174 175 176 177 178 179 
180 181 182 183 184 185 186 187 188 
189 190 191 192 193 194 195 196 197 
198 199 200 201 202 203 204 205 206 
207 208 209 210 211 212 213 214 215 
216 217 218 219 220 221 222 223 224 
225 226 227 228 229 230 231 232 233 
234 235 236 237 238 239 240 241 242 
243 244 245 246 247 248 249 250 251 
252 253 254 255 256 257 258 259 260 
261 262 
LINES 2 263
OFFSETS vtktypeint64
0 263 
CONNECTIVITY vtktypeint64
0 1 2 3 4 5 6 7 8 
9 10 11 12 13 14 15 16 17 
18 19 20 21 22 23 24 25 26 
27 28 29 30 31 32 33 34 35 
36 37 38 39 40 41 42 43 44 
45 46 47 48 49 50 51 52 53 
54 55 56 57 58 59 60 61 62 
63 64 65 66 67 68 69 70 71 
72 73 74 75 76 77 78 79 80 
81 82 83 84 85 86 87 88 89 
90 91 92 93 94 95 96 97 98 
99 100 101 102 103 104 105 106 107 
108 109 110 111 112 113 114 115 116 
117 118 119 120 121 122 123 124 125 
126 127 128 129 130 131 132 133 134 
135 136 137 138 139 140 141 142 143 
144 145 146 147 148 149 150 151 152 
153 154 155 156 157 158 159 160 161 
162 163 164 165 166 167 168 169 170 
171 172 173 174 175 176 177 178 179 
180 181 182 183 184 185 186 187 188 
189 190 191 192 193 194 195 196 197 
198 199 200 201 202 203 204 205 206 
207 208 209 210 211 212 213 214 215 
216 217 218 219 220 221 222 223 224 
225 226 227 228 229 230 231 232 233 
234 235 236 237 238 239 240 241 242 
243 244 245 246 247 248 249 250 251 
252 253 254 255 256 257 258 259 260 
261 262 
POINT_DATA 263
SCALARS Curvature double
LOOKUP_TABLE default
0.29541313017 0.29896006943 0.29883100047 0.29497418846 0.287675657 0.27761044668 0.26561370833 0.25254911866 0.23923169218 
0.22632250686 0.21430973615 0.20352411138 0.19416964341 0.18629294465 0.17987383015 0.1748151151 0.17096355983 0.16815747976 
0.16618648494 0.16481570051 0.16384539201 0.16310239711 0.16248281418 0.16198712086 0.16164421597 0.16148117191 0.16153951335 
0.16189523751 0.16261975952 0.16372706384 0.16516871857 0.16680702698 0.16843018078 0.16977571008 0.17055934658 0.17051419796 
0.16948796855 0.16742007848 0.16441721538 0.16067860674 0.15647028496 0.1520613687 0.1477838744 0.14404293626 0.1412768262 
0.1398920234 0.14026823119 0.14269680212 0.14738372535 0.15447935942 0.16399822053 0.17588421953 0.19000160224 0.20608123226 
0.22381341529 0.24284046096 0.26262756864 0.28244364724 0.30134593004 0.31833398208 0.33241911165 0.3428059231 0.34923140077 
0.35157593424 0.34984397838 0.34436888114 0.33593683795 0.32529488703 0.31319795475 0.3002589218 0.28687387814 0.27325855825 
0.25955923146 0.24583625909 0.23214061979 0.2185537814 0.20514037878 0.19198396498 0.17917812022 0.16679994307 0.15491817637 
0.14365527053 0.13320963562 0.12380484441 0.11562699606 0.10893895798 0.10402245406 0.10119400704 0.1006746335 0.10248370092 
0.10650962223 0.11244275129 0.11988680672 0.12838013011 0.13748750136 0.14678941384 0.15589758587 0.16452647038 0.17250864286 
0.17980972486 0.18658731717 0.19309003402 0.19950989871 0.20601066915 0.21279568016 0.22001029393 0.22769965734 0.23588417015 
0.24440497406 0.25289874503 0.26084651547 0.26775586911 0.27306364319 0.27637629198 0.27739004037 0.27596880761 0.27213662426 
0.26600549578 0.25779993678 0.24775954205 0.23629837337 0.22378255119 0.21058600685 0.19705312832 0.18339810555 0.16969832214 
0.15599279502 0.14237825879 0.12893174597 0.11570752335 0.10277180848 0.090207287552 0.078123877744 0.066704401073 0.056265630494 
0.04728684246 0.04039060608 0.036289299673 0.03525495778 0.036737308404 0.039679310548 0.042954675777 0.045728093035 0.04747722164 
0.047906830749 0.046909338632 0.044564151343 0.040934031758 0.036155906166 0.030438040891 0.024247529108 0.018560541965 0.015701618299 
0.01826040677 0.025309794975 0.034564988085 0.044844971171 0.055620211037 0.066564854144 0.077389949749 0.087827830287 0.097683176175 
0.10679652392 0.11496713438 0.12201841409 0.1278176698 0.13235749665 0.13571993515 0.13808736955 0.13972352482 0.14085843489 
0.14170427191 0.14244927697 0.14323507085 0.14411313595 0.14506413205 0.14598893305 0.1467522797 0.14719488016 0.14715591195 
0.14646699994 0.14501616584 0.14278759075 0.13979648773 0.13616083312 0.13201999443 0.12750081309 0.12273035658 0.11784606503 
0.11299889098 0.1083063066 0.10384778814 0.09966030917 0.095725496461 0.091986901014 0.088340378096 0.084650851355 0.080759459695 
0.07650725261 0.071750966383 0.066383672666 0.060349938083 0.053584258482 0.046036373685 0.037713737132 0.028670296876 0.019013015482 
0.0089411393393 0.0031341168726 0.0131283933 0.024194231624 0.035430565241 0.046688551794 0.057858816438 0.068843633515 0.079552918 
0.089903070534 0.099818413762 0.10921282352 0.11798169246 0.1260619304 0.13340546487 0.13999174599 0.14589407654 0.1511803518 
0.15590349278 0.16010907063 0.16386024699 0.16725322857 0.17035432325 0.17321975651 0.17587684185 0.17830286703 0.18045128339 
0.1822335967 0.1835321766 0.1842313801 0.18420769423 0.18337877323 0.18169797043 0.17916655396 0.17577042148 0.17151245647 
0.16648860254 0.16084185111 0.15476565321 0.14846858636 0.14216068056 0.13601836062 0.13021249486 0.12491419911 0.12028918033 
0.11650113412 0.11370071928 0.1120132956 0.11155822674 0.1124487534 0.11474055531 0.11849501224 0.12374624642 0.13048085533 
0.13872064725 0.14839800965 
