# vtk DataFile Version 5.1
vtk output
ASCII
DATASET POLYDATA
POINTS 234 double
100.59528981 72.773309279 36.78605584 100.4532591 72.622194559 36.569320644 100.3235637 72.466755907 36.347957771 
100.20632276 72.307172622 36.122630354 100.10167353 72.143603775 35.893985172 100.00963451 71.976231766 35.662685026 
99.93028355 71.805207985 35.429364734 99.863695866 71.630675375 35.194655435 99.809944318 71.452769841 34.959188919 
99.769097941 71.271621741 34.723601989 99.741219236 71.087357538 34.488540371 99.726359944 70.900101793 34.254661772 
99.724555206 70.709980132 34.022637178 99.735822114 70.517122082 33.793151202 99.760142813 70.321669182 33.56689604 
99.797428883 70.123787599 33.34455175 99.847550612 69.92367044 33.126778726 99.910303554 69.721553577 32.914187543 
99.985395472 69.517726891 32.707305153 100.07243748 69.312543089 32.50653592 100.17094239 69.106421811 32.312122359 
100.28033184 68.899848958 32.124110264 100.39995292 68.693370895 31.942325002 100.52910204 68.487586433 31.766361907 
100.66705279 68.283138702 31.595593091 100.81308323 68.080710336 31.429188209 100.96649835 67.881023569 31.266145442 
101.1266452 67.684846234 31.105327863 101.29292849 67.493012679 30.94549975 101.46480635 67.306453423 30.785348481 
101.64171372 67.126133696 30.623540005 101.82313387 66.95315116 30.458751545 102.0085371 66.788725768 30.289698334 
102.19734971 66.634207448 30.115169749 102.38892196 66.491083039 29.934065386 102.58249194 66.36097914 29.745431743 
102.77714604 66.245498033 29.548588121 102.97182412 66.146308001 29.343089341 103.16530274 66.065017821 29.128798403 
103.35620939 66.003089682 28.905913871 103.54305677 65.961750583 28.674973946 103.72429311 65.941917485 28.43683247 
103.89836122 65.944147259 28.192609327 104.06375621 65.968620758 27.943622559 104.21907272 66.015159663 27.691313842 
104.36303581 66.083270987 27.437178953 104.49451332 66.172207445 27.182711992 104.61251198 66.281033291 26.929368193 
104.71616258 66.408683259 26.678545208 104.80470024 66.554008739 26.431579605 104.87744419 66.715809025 26.189753702 
104.93378029 66.892848504 25.954308251 104.97315019 67.08386006 25.726456131 104.99504885 67.287537468 25.507392606 
104.99903217 67.502520605 25.298298749 104.98472211 67.727383471 25.100343119 104.9518342 67.960613558 24.914666584 
104.90028994 68.200579156 24.742295678 104.83013489 68.44558868 24.584182774 104.74161664 68.693890171 24.441138087 
104.63520931 68.943713162 24.313790414 104.51162449 69.193326937 24.202558304 104.37180637 69.441107946 24.107635491 
104.21691119 69.685608869 24.028995156 104.04827395 69.925620133 23.966411561 103.86736632 70.160216562 23.919496312 
103.67575305 70.388785855 23.887743318 103.47505215 70.61103823 23.870574748 103.2669035 70.827000492 23.867383361 
103.05294672 71.03699711 23.877564996 102.83481051 71.241624281 23.900540937 102.61410871 71.441708434 23.935805224 
102.39247139 71.638310516 23.982843212 102.17153201 71.832677977 24.041117596 101.9529437 72.0261876 24.110127092 
101.73840702 72.22032435 24.189333939 101.52968633 72.416639301 24.278124553 101.32861882 72.616698374 24.375766352 
101.13711028 72.822019338 24.481363138 100.95711373 73.033997691 24.593816184 100.7905859 73.253824203 24.71179783 
100.6394238 73.482403341 24.833746707 100.50538535 73.720282898 24.957890908 100.39000618 73.967607987 25.082300766 
100.29452642 74.224108155 25.204966851 100.2198427 74.48912146 25.323890562 100.16649369 74.761649454 25.437173199 
100.13467931 75.040431704 25.54308797 100.12430714 75.32402538 25.640126847 100.13505423 75.610877966 25.727017757 
100.1664318 75.899384234 25.8027172 100.21784131 76.187924806 25.866384852 100.28861667 76.474887549 25.917348912 
100.37806987 76.758670476 25.955052861 100.48552731 77.037660693 25.9789917 100.61011867 77.310301507 25.988848253 
100.75100167 77.575032671 25.984288192 100.90725133 77.83030651 25.96500472 101.0778295 78.074596276 25.930709072 
101.26155412 78.306411609 25.881127622 101.45707498 78.52431619 25.815999054 101.6628704 78.726914134 25.735043064 
101.87714273 78.913045747 25.638134489 102.09794486 79.081641172 25.525134845 102.32314377 79.231808896 25.395981342 
102.5504474 79.362862693 25.250714168 102.77744627 79.474345432 25.089508554 103.00166851 79.56605052 24.912706979 
103.22064907 79.638038906 24.720847196 103.43200964 79.690651478 24.514679433 103.63354461 79.724513411 24.29516659 
103.82330387 79.740526336 24.063462198 103.99964334 79.739826732 23.820854082 104.16133289 79.723818378 23.568747153 
104.30750599 79.694041108 23.308539242 104.43766193 79.652146655 23.041574871 104.55159705 79.599834245 22.769083419 
104.6494447 79.538865136 22.492170286 104.73153965 79.470975335 22.211766229 104.79838473 79.397870671 21.928631589 
104.8506055 79.321216108 21.643364 104.88891659 79.242632449 21.356414315 104.9140999 79.163696762 21.068107478 
104.92696518 79.085950722 20.778663201 104.92839023 79.010906465 20.488223603 104.91938861 78.939999417 20.196881462 
104.90098068 78.874610953 19.904691728 104.87426201 78.816046192 19.611697127 104.84041142 78.765511613 19.317945369 
104.80069539 78.724087999 19.023502642 104.75646652 78.692702338 18.728462602 104.70915021 78.672138385 18.432949801 
104.66025502 78.662903306 18.137124299 104.61131435 78.6653257 17.841173315 104.56387734 78.679522664 17.545309219 
104.51948227 78.705408164 17.249766022 104.47962993 78.742714118 16.954797906 104.44575937 78.791018514 16.660680674 
104.41922746 78.849778319 16.367716307 104.40129184 78.918363182 16.076239922 104.39309726 78.996087274 15.786627854 
104.39566377 79.082238081 15.499305506 104.40987688 79.176101031 15.214753419 104.43647874 79.276980389 14.93351059 
104.4760873 79.384225913 14.656182475 104.52913988 79.497219128 14.383422236 104.59589525 79.61538963 14.115918319 
104.67647942 79.738235565 13.854397882 104.77086855 79.865312297 13.599605105 104.87889671 79.996228643 13.352284222 
105.00026669 80.130640144 13.113161582 105.13456327 80.268240246 12.882927558 105.28126843 80.408750603 12.662219324 
105.43977802 80.551911073 12.451604981 105.6094193 80.697471026 12.251570112 105.78946886 80.845182107 12.062507018 
105.97919833 80.994798894 11.884743814 106.17780684 81.146060316 11.7184392 106.38451525 81.298706553 11.563668787 
106.5985613 81.452478269 11.420412159 106.81920477 81.607120811 11.288552073 107.04573493 81.762391003 11.167881472 
107.27747565 81.918064576 11.058111366 107.51378804 82.073943934 10.958879163 107.75407157 82.229865264 10.869756671 
107.99776377 82.385704828 10.790257582 108.24434867 82.54138301 10.719877941 108.4933243 82.696869936 10.658000297 
108.74423284 82.852185257 10.603993077 108.99665055 83.007397316 10.557194252 109.25018449 83.162620483 10.516910288 
109.50447156 83.318010072 10.482421555 109.75917757 83.473755359 10.452988681 110.01399665 83.630070523 10.427860159 
110.26865078 83.787184208 10.406280904 110.52288693 83.945332997 10.387510462 110.77648355 84.104735397 10.370801843 
111.02924751 84.265590274 10.355448812 111.28101574 84.42806271 10.340782721 111.53165759 84.592273015 10.326180608 
111.78107771 84.758287662 10.311072893 112.02921928 84.926112566 10.294948826 112.27606722 85.095688732 10.277359883 
112.52165056 85.266891019 10.25792005 112.76604366 85.439529489 10.236303883 113.00936516 85.613353999 10.212241851 
113.25177293 85.788062336 10.18550699 113.49346421 85.96330385 10.155926866 113.73466048 86.138697543 10.123359938 
113.97559859 86.313842189 10.087690727 114.21651932 86.488329005 10.048824883 114.4576543 86.66175603 10.006683965 
114.69921253 86.833743375 9.9612011377 114.9413675 87.0039491 9.9123181723 115.18424528 87.172085508 9.8599831108 
115.42791445 87.337935314 9.8041484007 115.67237798 87.501367116 9.7447687737 115.9175675 87.662349005 9.6817982054 
116.16334016 87.820956345 9.6151802321 116.40947487 87.977381826 9.5448435036 116.65567092 88.131950735 9.4707190434 
116.90155244 88.285096247 9.392698713 117.14666587 88.437358574 9.3106382286 117.3904785 88.589370383 9.2243485757 
117.63237477 88.741838287 9.1335883154 117.87163824 88.895527376 9.0380389924 118.10746278 89.051226331 8.9373393382 
118.33895479 89.209704273 8.8310837105 118.5651046 89.371690352 8.7187951123 118.78479294 89.537829984 8.5999499359 
118.99679652 89.708640102 8.4739927597 119.1998039 89.884461905 8.3403566229 119.39244547 90.065413588 8.1984884301 
119.57333803 90.251348824 8.047877326 119.74114346 90.441826956 7.8880835207 119.89463644 90.636100601 7.7187630838 
120.03277355 90.833124794 7.5396852227 120.15475382 91.031587304 7.3507386453 120.26006124 91.2299564 7.1519268002 
120.34848369 91.426537655 6.9433537611 120.42010673 91.619531263 6.7252051654 120.47528628 91.807081579 6.4977292667 
120.51460683 91.987314572 6.261223211 120.53883587 92.158362094 6.0160281594 120.54888064 92.318376426 5.7625347816 
120.54575279 92.465540981 5.5011990154 120.53054212 92.598084291 5.2325661139 120.50440053 92.71430438 4.9572991725 
120.46849991 92.812532675 4.676187126 120.42408917 92.891276044 4.3902056346 120.37250264 92.949406796 4.1005258817 
120.31505855 92.986056114 3.8084413177 120.25299865 93.000273404 3.5153502641 120.18769841 92.992388668 3.2227234277 

VERTICES 235 234
OFFSETS vtktypeint64
0 1 2 3 4 5 6 7 8 
9 10 11 12 13 14 15 16 17 
18 19 20 21 22 23 24 25 26 
27 28 29 30 31 32 33 34 35 
36 37 38 39 40 41 42 43 44 
45 46 47 48 49 50 51 52 53 
54 55 56 57 58 59 60 61 62 
63 64 65 66 67 68 69 70 71 
72 73 74 75 76 77 78 79 80 
81 82 83 84 85 86 87 88 89 
90 91 92 93 94 95 96 97 98 
99 100 101 102 103 104 105 106 107 
108 109 110 111 112 113 114 115 116 
117 118 119 120 121 122 123 124 125 
126 127 128 129 130 131 132 133 134 
135 136 137 138 139 140 141 142 143 
144 145 146 147 148 149 150 151 152 
153 154 155 156 157 158 159 160 161 
162 163 164 165 166 167 168 169 170 
171 172 173 174 175 176 177 178 179 
180 181 182 183 184 185 186 187 188 
189 190 191 192 193 194 195 196 197 
198 199 200 201 202 203 204 205 206 
207 208 209 210 211 212 213 214 215 
216 217 218 219 220 221 222 223 224 
225 226 227 228 229 230 231 232 233 
234 
CONNECTIVITY vtktypeint64
0 1 2 3 4 5 6 7 8 
9 10 11 12 13 14 15 16 17 
18 19 20 21 22 23 24 25 26 
27 28 29 30 31 32 33 34 35 
36 37 38 39 40 41 42 43 44 
45 46 47 48 49 50 51 52 53 
54 55 56 57 58 59 60 61 62 
63 64 65 66 67 68 69 70 71 
72 73 74 75 76 77 78 79 80 
81 82 83 84 85 86 87 88 89 
90 91 92 93 94 95 96 97 98 
99 100 101 102 103 104 105 106 107 
108 109 110 111 112 113 114 115 116 
117 118 119 120 121 122 123 124 125 
126 127 128 129 130 131 132 133 134 
135 136 137 138 139 140 141 142 143 
144 145 146 147 148 149 150 151 152 
153 154 155 156 157 158 159 160 161 
162 163 164 165 166 167 168 169 170 
171 172 173 174 175 176 177 178 179 
180 181 182 183 184 185 186 187 188 
189 190 191 192 193 194 195 196 197 
198 199 200 201 202 203 204 205 206 
207 208 209 210 211 212 213 214 215 
216 217 218 219 220 221 222 223 224 
225 226 227 228 229 230 231 232 233 

LINES 2 234
OFFSETS vtktypeint64
0 234 
CONNECTIVITY vtktypeint64
0 1 2 3 4 5 6 7 8 
9 10 11 12 13 14 15 16 17 
18 19 20 21 22 23 24 25 26 
27 28 29 30 31 32 33 34 35 
36 37 38 39 40 41 42 43 44 
45 46 47 48 49 50 51 52 53 
54 55 56 57 58 59 60 61 62 
63 64 65 66 67 68 69 70 71 
72 73 74 75 76 77 78 79 80 
81 82 83 84 85 86 87 88 89 
90 91 92 93 94 95 96 97 98 
99 100 101 102 103 104 105 106 107 
108 109 110 111 112 113 114 115 116 
117 118 119 120 121 122 123 124 125 
126 127 128 129 130 131 132 133 134 
135 136 137 138 139 140 141 142 143 
144 145 146 147 148 149 150 151 152 
153 154 155 156 157 158 159 160 161 
162 163 164 165 166 167 168 169 170 
171 172 173 174 175 176 177 178 179 
180 181 182 183 184 185 186 187 188 
189 190 191 192 193 194 195 196 197 
198 199 200 201 202 203 204 205 206 
207 208 209 210 211 212 213 214 215 
216 217 218 219 220 221 222 223 224 
225 226 227 228 229 230 231 232 233 

POINT_DATA 234
SCALARS Curvature double
LOOKUP_TABLE default
0.1565136568 0.15430586716 0.15237598823 0.15076747134 0.14951299839 0.1486241793 0.14810088701 0.14793128337 0.14809190595 
0.14855257414 0.14927105036 0.15018876215 0.1512237369 0.15225685816 0.15312761282 0.15362038789 0.15347283295 0.15239091622 
0.15007756175 0.14628658572 0.14085987206 0.13379594456 0.12527297346 0.11569797576 0.105732203 0.09633661183 0.088803127371 
0.084640214638 0.085179094874 0.090958220441 0.10143246193 0.1155301708 0.13211941922 0.15023966969 0.1690795831 0.1879173653 
0.20608136868 0.22291772204 0.23783192501 0.25031253907 0.2600323622 0.26685639225 0.27090363807 0.27248694547 0.27209566122 
0.27029866208 0.26770863663 0.26487425855 0.26225217146 0.26018490709 0.25891699896 0.25855784484 0.2590939159 0.26038344079 
0.26218156234 0.26414366057 0.26587069898 0.2669224321 0.26687425973 0.26533473513 0.26203089657 0.25679122945 0.24958211697 
0.24047771695 0.22967077448 0.21743095872 0.20407994991 0.18999381286 0.17560340815 0.16143716663 0.14814349848 0.13656901309 
0.12776402649 0.12285716464 0.12279444033 0.1279205162 0.13782469771 0.15148214306 0.16762709896 0.18495630445 0.20228453461 
0.21855400071 0.23290834132 0.24471806198 0.25365795342 0.25969992798 0.26309029775 0.26427719821 0.2638426019 0.26240240128 
0.26052753297 0.25869867454 0.25729344298 0.2565708975 0.25665345392 0.25753345413 0.2591309278 0.261306287 0.26388644511 
0.2666895473 0.26955148954 0.27234240967 0.27496734236 0.27736373354 0.27945033473 0.28110248631 0.28212217935 0.28224493942 
0.28113791216 0.27845226667 0.27389764794 0.26732597879 0.25873883798 0.24832191443 0.23639095057 0.22337333256 0.20972522924 
0.19591323693 0.18236344529 0.16946317648 0.15755924735 0.14696146051 0.13794218696 0.13071287978 0.12540225082 0.12200163702 
0.12037055559 0.12023959207 0.12124505421 0.1230116706 0.12518622008 0.12751768484 0.12984372904 0.13213855796 0.13444942546 
0.13689785769 0.13960533434 0.14267831372 0.14615803467 0.1500126241 0.15413976896 0.1583863129 0.16257103333 0.1665153891 
0.17005640323 0.17306449983 0.17544561502 0.17714579042 0.17814000409 0.17842895345 0.17802429994 0.17694638073 0.17521342267 
0.17284653457 0.16986476374 0.16629290986 0.16215845248 0.1574980577 0.15235334985 0.14676588141 0.14077878174 0.13442988471 
0.12775302715 0.12077409059 0.11351313491 0.10598410573 0.098196137954 0.090166270906 0.081920453562 0.073507259899 0.065005689482 
0.056535400971 0.048274276878 0.040471979258 0.033488101526 0.027824967606 0.024071794795 0.022621867777 0.023228671618 0.025069260202 
0.027300030595 0.029350714168 0.030944207995 0.031995980851 0.032587286646 0.032897371567 0.033188182868 0.033729162499 0.034730020723 
0.036286192462 0.038350200513 0.040756360929 0.043261667609 0.045604854571 0.047541550358 0.04887469257 0.049484458305 0.049349205772 
0.048601203459 0.047560510151 0.046803776413 0.047130783617 0.049420516941 0.054319676434 0.061995863416 0.072204233197 0.08446704506 
0.09825992677 0.11308312569 0.12844408783 0.14385816678 0.15882328857 0.17284512133 0.18544921499 0.19622857525 0.20489155061 
0.2113128452 0.21557150261 0.21794926247 0.21891203827 0.21904965155 0.21900870328 0.21938616513 0.22066894587 0.22317009893 
0.22700211149 0.23205137116 0.23800804924 0.24439896092 0.25064102177 0.2561186797 0.26026107424 0.26257032331 0.26279232156 

