# vtk DataFile Version 5.1
vtk output
ASCII
DATASET POLYDATA
POINTS 291 double
107.16654636 82.662471918 34.638006362 106.97172149 82.480261227 34.500819643 106.78820652 82.285971904 34.364623089 
106.6168251 82.080141655 34.229583103 106.45837706 81.863388187 34.09584801 106.31349532 81.636510062 33.963527044 
106.18262292 81.400446759 33.832680809 106.06600468 81.156232215 33.703316237 105.96369323 80.904946905 33.575387073 
105.87556676 80.647673844 33.448798927 105.80135574 80.385461726 33.323417749 105.74074388 80.11928096 33.199085129 
105.69317472 79.850065089 33.07561271 105.65812043 79.578629188 32.952811003 105.63502792 79.305696913 32.830490297 
105.62334286 79.031904742 32.708465427 105.62253025 78.757810198 32.586558399 105.63208968 78.483902833 32.464598846 
105.65156545 78.210616953 32.342422005 105.68055399 77.93834469 32.21986577 105.71874718 77.667456669 32.096763685 
105.76587794 77.398309681 31.972942599 105.82169588 77.131246805 31.848225227 105.88604811 76.866625202 31.722421539 
105.95883647 76.60482027 31.595329229 106.04002646 76.346241828 31.466728056 106.12973106 76.091393473 31.336352687 
106.22785508 75.840720534 31.20396813 106.33445062 75.594769904 31.069298018 106.44964005 75.354190279 30.932027677 
106.57354986 75.119723027 30.791812734 106.70610966 74.892051604 30.648354254 106.84733658 74.672016168 30.501297598 
106.99732474 74.460687092 30.350205793 107.15589107 74.259039401 30.194717377 107.32281532 74.068178272 30.034445385 
107.49781611 73.889375434 29.86897165 107.68050014 73.724082035 29.697855596 107.87029668 73.573913058 29.520659311 
108.06634803 73.440434791 29.33704802 108.26760847 73.325466211 29.146690755 108.47272741 73.230950062 28.949343736 
108.67999711 73.158925287 28.744897943 108.88730165 73.111463505 28.533442935 109.09202086 73.090875122 28.315275631 
109.29111141 73.098720639 28.091183946 109.48115665 73.136270456 27.862319589 109.65827961 73.204571852 27.630243121 
109.81866636 73.303405834 27.397012878 109.95879787 73.431525084 27.164990513 110.07532097 73.587119567 26.936739539 
110.16634808 73.766763025 26.714631721 110.22999879 73.967278047 26.501000547 110.26603227 74.184585615 26.29758367 
110.27464799 74.414899837 26.10577389 110.25641303 74.654711042 25.92666416 110.2123118 74.900774368 25.761023532 
110.14378759 75.150174129 25.609247333 110.05217967 75.400408727 25.471674 109.93886197 75.649284817 25.348549778 
109.80521149 75.894875532 25.240077188 109.65260577 76.13548269 25.146445391 109.48243123 76.369605927 25.067845559 
109.29609119 76.595917528 25.004477732 109.09497405 76.813213601 24.956604297 108.8806007 77.020493519 24.924411 
108.6545884 77.216978635 24.908019106 108.41860644 77.402098467 24.907524452 108.17439352 77.575537346 24.922937247 
107.92372644 77.737251929 24.954167859 107.66838743 77.887490633 25.001012819 107.41012988 78.026814022 25.06314159 
107.15063902 78.156100794 25.140093324 106.89149112 78.276524766 25.231289799 106.63412453 78.389516472 25.33605438 
106.37982768 78.496724228 25.453627139 106.12974156 78.59997933 25.583171804 105.88487246 78.70126116 25.723776075 
105.64611985 78.802657908 25.874458702 105.41427865 78.906316221 26.034126753 105.1900862 79.014390323 26.201596582 
104.97426136 79.129008753 26.375576417 104.76751704 79.252212005 26.554634212 104.57054593 79.385841524 26.737187373 
104.38404121 79.53146791 26.921536713 104.20867302 79.69030394 27.105896084 104.04506623 79.863147979 27.288447544 
103.89377131 80.05034654 27.467419192 103.75523265 80.251782993 27.641180718 103.62976614 80.466910273 27.808335627 
103.51755548 80.694836544 27.96777658 103.41866893 80.934437462 28.11869791 103.33308924 81.18446052 28.260581549 
103.26074871 81.44360788 28.393166352 103.20156792 81.710598132 28.516403227 103.15567209 81.984282706 28.630270511 
103.12295374 82.263435819 28.735042649 103.1034457 82.546966545 28.830982102 103.0973629 82.833878024 28.918287056 
103.10518146 83.123212128 28.997034678 103.1270149 83.413948685 29.06752979 103.16333322 83.705109596 29.129835116 
103.21503434 83.995617874 29.183740724 103.28244292 84.284322432 29.229279614 103.36628953 84.56993392 29.266167799 
103.46735117 84.850961763 29.293976484 103.58644234 85.125642723 29.312094195 103.72417733 85.391958058 29.319801896 
103.88092166 85.647624966 29.316257869 104.05687853 85.88996009 29.300398556 104.25175128 86.115995157 29.271089618 
104.46450585 86.322704754 29.227276985 104.69340267 86.507087579 29.167980316 104.93605726 86.66607278 29.092193829 
105.18903935 86.797650671 28.99954431 105.44848093 86.900461702 28.889919834 105.71023988 86.973935816 28.763484697 
105.97022203 87.019144281 28.62108978 106.22458198 87.037148707 28.463303549 106.47022134 87.030742851 28.291415669 
106.70454512 87.002529491 28.106392035 106.92542586 86.95527394 27.909100008 107.13160288 86.892241734 27.700611718 
107.32212742 86.816380948 27.481749578 107.49645435 86.730545378 27.253269198 107.65437607 86.637451344 27.015866188 
107.79596367 86.539652234 26.770186998 107.92152705 86.43952262 26.516847407 108.03159525 86.339244367 26.256454069 
108.12690441 86.240794676 25.989618591 108.20837375 86.145942036 25.716956285 108.27707504 86.056243924 25.439080503 
108.33420964 85.973039455 25.156600687 108.38109496 85.897436492 24.870122088 108.41914928 85.830302761 24.580240972 
108.44986504 85.772277238 24.28753287 108.4747406 85.723876959 23.992526982 108.49537655 85.685307731 23.695749889 
108.51333135 85.656631545 23.397680053 108.53012421 85.63779692 23.098758438 108.54723708 85.628643043 22.799400773 
108.56611646 85.628968686 22.500008469 108.58818275 85.638534027 22.200987872 108.61473544 85.656936331 21.902748492 
108.64702962 85.683859092 21.605727345 108.68625641 85.718997177 21.310405389 108.73353728 85.762070226 21.017323059 
108.78997326 85.812876196 20.727115026 108.85649986 85.871180804 20.440480576 108.93394751 85.936791793 20.15820641 
109.02307667 86.00957971 19.881192305 109.12452263 86.089443468 19.610440035 109.23876971 86.176301604 19.347044736 
109.36613342 86.270078051 19.092180195 109.50674961 86.370682884 18.847077991 109.66056176 86.477992388 18.61299667 
109.82730498 86.591831071 18.391177205 110.00649815 86.711957884 18.182789396 110.19745577 86.838059168 17.988881023 
110.39931668 86.969747476 17.810334628 110.61111943 87.106586852 17.647903255 110.83171767 87.248039903 17.501968952 
111.05995033 87.393549218 17.372713521 111.29465965 87.542544115 17.260091912 111.53472658 87.694457984 17.163843901 
111.77910396 87.848746365 17.083526913 112.026839 88.004901556 17.018553856 112.27708588 88.162462227 16.968231217 
112.52911001 88.321018613 16.93179499 112.78228583 88.480213924 16.908441549 113.03609089 88.639743131 16.897393864 
113.29009137 88.79934665 16.897839487 113.54393906 88.958810271 16.908938934 113.79736105 89.117959071 16.929924955 
114.05014808 89.276650153 16.960065235 114.30214602 89.434767147 16.998663762 114.55324837 89.592215593 17.045060085 
114.80338581 89.748915736 17.098654266 115.05252662 89.904803126 17.15885792 115.30067898 90.059832178 17.225063978 
115.54787172 90.213961779 17.29673751 115.79415676 90.367159178 17.373366407 116.03960575 90.519399983 17.454457303 
116.28430701 90.670668447 17.539532323 116.52836257 90.820958022 17.628126317 116.77188525 90.970271879 17.719785133 
117.01499499 91.118619792 17.814071967 117.25782139 91.266032364 17.910531672 117.50049447 91.412546557 18.008730952 
117.74314537 91.558210795 18.108241242 117.98590428 91.703084654 18.208638353 118.2288983 91.847238594 18.309502081 
118.47224949 91.990753684 18.410415733 118.71607317 92.133721085 18.510965497 118.96047661 92.276241157 18.610739472 
119.20555786 92.418422546 18.709326442 119.45140446 92.560381856 18.806314264 119.69809188 92.702243739 18.901287864 
119.94568228 92.844140564 18.993827346 120.19422324 92.986211185 19.083506644 120.44374654 93.128599517 19.169892307 
120.69426632 93.271453765 19.252542421 120.94577671 93.414926194 19.331005549 121.19825209 93.559175262 19.404804924 
121.45163829 93.704359513 19.473466658 121.70585161 93.850634026 19.536523742 121.96078028 93.998153529 19.593493312 
122.21627904 94.147069401 19.64389054 122.4721663 94.297528653 19.687231475 122.72822134 94.449672775 19.723036607 
122.9841819 94.603636666 19.750834768 123.23974189 94.759547998 19.770166881 123.49454915 94.917527019 19.780589512 
123.74819267 95.077701869 19.781614297 124.00022344 95.240167647 19.772891555 124.25013851 95.405023144 19.754064402 
124.49737994 95.57236551 19.724802071 124.74133487 95.742288426 19.684812625 124.98133463 95.914882178 19.633846682 
125.21665469 96.090233437 19.571704316 125.44651565 96.268425104 19.498244248 125.6700853 96.449535222 19.413391152 
125.88648206 96.633632653 19.317138298 126.09475846 96.820778016 19.209523975 126.29396218 97.010996449 19.090710641 
126.48312407 97.204281713 18.960946649 126.66125816 97.400592801 18.820558621 126.827391 97.599840876 18.669968667 
126.9805817 97.801880492 18.509691708 127.1199463 98.006501835 18.34033174 127.24468617 98.213425191 18.162575614 
127.35411657 98.422298961 17.977181516 127.44769023 98.632701584 17.784960411 127.5250167 98.844146555 17.586752886 
127.58587588 99.056091256 17.383403923 127.63022442 99.26794888 17.175736879 127.65819527 99.479101266 16.964527586 
127.67009063 99.688911764 16.750480289 127.66636934 99.896737041 16.534206894 127.64762582 100.10193943 16.316213233 
127.61456197 100.30389834 16.096893485 127.56796002 100.50201734 15.876529973 127.50866035 100.69572772 15.655297091 
127.43754417 100.88448957 15.433268255 127.35551656 101.06779258 15.210427455 127.26348876 101.24515695 14.986685428 
127.16236456 101.4161334 14.761897047 127.05303275 101.580304 14.535878172 126.93636358 101.73728456 14.308421778 
126.8132061 101.88672779 14.079312714 126.68435414 102.02827447 13.848327757 126.5506445 102.16171017 13.615285414 
126.41283846 102.28681998 13.380021812 126.27165841 102.40344217 13.142410074 126.12778253 102.51147365 12.902366606 
125.98183943 102.61087142 12.659853122 125.83440235 102.7016523 12.414876621 125.68598437 102.78389104 12.167487056 
125.53703509 102.85771668 11.917773179 125.3879382 102.92330761 11.665857361 125.2390113 102.98088509 11.411889254 
125.09050742 103.03070579 11.156039169 124.94261964 103.07305454 10.89849079 124.79549061 103.10822298 10.639430755 
124.64921787 103.1365326 10.379048301 124.50386144 103.15832831 10.117528035 124.35945664 103.1739454 9.8550399142 
124.21602122 103.18372133 9.5917384725 124.07356387 103.18799324 9.3277595238 123.93209225 103.18709585 9.0632174602 
123.79161983 103.18135978 8.7982034579 123.65217194 103.1711103 8.5327842813 123.51378947 103.1566665 8.2670023388 
123.37652991 103.13834093 8.0008771767 123.24046761 103.11643935 7.734407274 123.1056936 103.09126077 7.4675720525 
122.97231901 103.06309043 7.200332794 122.84046682 103.03221694 6.9326369533 122.71026732 102.99892988 6.6644218731 
122.58186418 102.96350669 6.3956150258 122.45540864 102.92622206 6.1261374743 122.33105797 102.88734906 5.855905912 
122.20897427 102.84716024 5.5848345132 122.08932361 102.80592846 5.3128365418 121.97227541 102.76392766 5.0398258552 
121.85800215 102.72143342 4.7657182512 121.74667943 102.67872325 4.4904327154 121.63848593 102.63607686 4.2138926804 
121.5336035 102.5937763 3.9360272965 121.43221709 102.55210596 3.6567727486 121.33451461 102.51135259 3.3760736294 

VERTICES 292 291
OFFSETS vtktypeint64
0 1 2 3 4 5 6 7 8 
9 10 11 12 13 14 15 16 17 
18 19 20 21 22 23 24 25 26 
27 28 29 30 31 32 33 34 35 
36 37 38 39 40 41 42 43 44 
45 46 47 48 49 50 51 52 53 
54 55 56 57 58 59 60 61 62 
63 64 65 66 67 68 69 70 71 
72 73 74 75 76 77 78 79 80 
81 82 83 84 85 86 87 88 89 
90 91 92 93 94 95 96 97 98 
99 100 101 102 103 104 105 106 107 
108 109 110 111 112 113 114 115 116 
117 118 119 120 121 122 123 124 125 
126 127 128 129 130 131 132 133 134 
135 136 137 138 139 140 141 142 143 
144 145 146 147 148 149 150 151 152 
153 154 155 156 157 158 159 160 161 
162 163 164 165 166 167 168 169 170 
171 172 173 174 175 176 177 178 179 
180 181 182 183 184 185 186 187 188 
189 190 191 192 193 194 195 196 197 
198 199 200 201 202 203 204 205 206 
207 208 209 210 211 212 213 214 215 
216 217 218 219 220 221 222 223 224 
225 226 227 228 229 230 231 232 233 
234 235 236 237 238 239 240 241 242 
243 244 245 246 247 248 249 250 251 
252 253 254 255 256 257 258 259 260 
261 262 263 264 265 266 267 268 269 
270 271 272 273 274 275 276 277 278 
279 280 281 282 283 284 285 286 287 
288 289 290 291 
CONNECTIVITY vtktypeint64
0 1 2 3 4 5 6 7 8 
9 10 11 12 13 14 15 16 17 
18 19 20 21 22 23 24 25 26 
27 28 29 30 31 32 33 34 35 
36 37 38 39 40 41 42 43 44 
45 46 47 48 49 50 51 52 53 
54 55 56 57 58 59 60 61 62 
63 64 65 66 67 68 69 70 71 
72 73 74 75 76 77 78 79 80 
81 82 83 84 85 86 87 88 89 
90 91 92 93 94 95 96 97 98 
99 100 101 102 103 104 105 106 107 
108 109 110 111 112 113 114 115 116 
117 118 119 120 121 122 123 124 125 
126 127 128 129 130 131 132 133 134 
135 136 137 138 139 140 141 142 143 
144 145 146 147 148 149 150 151 152 
153 154 155 156 157 158 159 160 161 
162 163 164 165 166 167 168 169 170 
171 172 173 174 175 176 177 178 179 
180 181 182 183 184 185 186 187 188 
189 190 191 192 193 194 195 196 197 
198 199 200 201 202 203 204 205 206 
207 208 209 210 211 212 213 214 215 
216 217 218 219 220 221 222 223 224 
225 226 227 228 229 230 231 232 233 
234 235 236 237 238 239 240 241 242 
243 244 245 246 247 248 249 250 251 
252 253 254 255 256 257 258 259 260 
261 262 263 264 265 266 267 268 269 
270 271 272 273 274 275 276 277 278 
279 280 281 282 283 284 285 286 287 
288 289 290 
LINES 2 291
OFFSETS vtktypeint64
0 291 
CONNECTIVITY vtktypeint64
0 1 2 3 4 5 6 7 8 
9 10 11 12 13 14 15 16 17 
18 19 20 21 22 23 24 25 26 
27 28 29 30 31 32 33 34 35 
36 37 38 39 40 41 42 43 44 
45 46 47 48 49 50 51 52 53 
54 55 56 57 58 59 60 61 62 
63 64 65 66 67 68 69 70 71 
72 73 74 75 76 77 78 79 80 
81 82 83 84 85 86 87 88 89 
90 91 92 93 94 95 96 97 98 
99 100 101 102 103 104 105 106 107 
108 109 110 111 112 113 114 115 116 
117 118 119 120 121 122 123 124 125 
126 127 128 129 130 131 132 133 134 
135 136 137 138 139 140 141 142 143 
144 145 146 147 148 149 150 151 152 
153 154 155 156 157 158 159 160 161 
162 163 164 165 166 167 168 169 170 
171 172 173 174 175 176 177 178 179 
180 181 182 183 184 185 186 187 188 
189 190 191 192 193 194 195 196 197 
198 199 200 201 202 203 204 205 206 
207 208 209 210 211 212 213 214 215 
216 217 218 219 220 221 222 223 224 
225 226 227 228 229 230 231 232 233 
234 235 236 237 238 239 240 241 242 
243 244 245 246 247 248 249 250 251 
252 253 254 255 256 257 258 259 260 
261 262 263 264 265 266 267 268 269 
270 271 272 273 274 275 276 277 278 
279 280 281 282 283 284 285 286 287 
288 289 290 
POINT_DATA 291
SCALARS Curvature double
LOOKUP_TABLE default
0.19441419435 0.19624430048 0.19674835138 0.19583833138 0.19349119291 0.18976632438 0.18480257397 0.17881056631 0.17203815308 
0.16475472961 0.15722433506 0.14968140664 0.14232194832 0.13530272722 0.12875538197 0.1227894669 0.11747677803 0.11285256699 
0.10894890018 0.10581075549 0.10350478723 0.10207536823 0.10150363883 0.10178196351 0.10290800042 0.10490367388 0.10781966526 
0.11162053043 0.11627781032 0.12177599503 0.12811072535 0.13529828843 0.14337200957 0.15237644664 0.16236404351 0.17343503294 
0.18571738964 0.19933715026 0.21436833555 0.23084965434 0.24889234932 0.2685584548 0.28967109414 0.31163246335 0.33351486582 
0.35442904402 0.37335054971 0.38876457365 0.39893549097 0.40277039876 0.40037546672 0.39267200258 0.38070749605 0.3658368359 
0.34956625693 0.33325335394 0.31786416797 0.30404856438 0.29214490425 0.28221421197 0.27406349043 0.26740044741 0.26198760245 
0.25752489078 0.25349845776 0.24923564178 0.2441494174 0.23797888899 0.23060286441 0.22185183838 0.21154001151 0.19967913903 
0.18670453546 0.17325216314 0.16005444465 0.14795977804 0.13800616572 0.13143580311 0.12930056044 0.13208667245 0.13954678133 
0.1507357156 0.16427672409 0.17861656275 0.19241607882 0.2046759594 0.21456044279 0.22134164222 0.22459876124 0.22450130344 
0.22166308804 0.2167954537 0.21054649737 0.20359022399 0.19665838375 0.19046532043 0.18558621734 0.18243523134 0.18135274931 
0.18263588051 0.18639072054 0.19267975716 0.20156935364 0.21297901136 0.22683163788 0.24290747636 0.26083168637 0.28014953602 
0.30042091461 0.32097068519 0.34060117153 0.35765399655 0.37057702724 0.37828509838 0.38012657648 0.37577924551 0.36551178943 
0.35063450423 0.33265894917 0.31313848794 0.2933078543 0.27410477158 0.25614731849 0.23970089609 0.22494610015 0.21195435034 
0.2005896025 0.1904955267 0.18123136787 0.17260732039 0.16456405657 0.15695915946 0.14952076897 0.14202116562 0.13456488527 
0.12745339195 0.12100056681 0.11545588106 0.11106859216 0.10816957152 0.10708161032 0.10797957493 0.11084080136 0.11547481441 
0.12161656948 0.12895356923 0.13717628244 0.14601314551 0.15524390175 0.16465687971 0.17398322222 0.18295614757 0.19138653946 
0.1991312583 0.20599085162 0.21163957325 0.21573794422 0.21810268164 0.21867481219 0.21742082914 0.21431286257 0.20940595712 
0.20291940795 0.19515115699 0.18640479791 0.17698104963 0.16715014385 0.1571581214 0.14720688978 0.13744896104 0.12800747186 
0.11897955971 0.11041885607 0.10234573086 0.094751516423 0.08760529611 0.080883620194 0.074558577122 0.068586877382 0.062914551877 
0.057475529644 0.052216538294 0.047096574375 0.042078487276 0.037135216468 0.032251418519 0.027431031395 0.022702657143 0.018135011317 
0.013885277176 0.010335719415 0.0083814783118 0.0090518256641 0.011876107407 0.01571671048 0.019987020841 0.024468804202 0.029084769138 
0.033807162249 0.038629504124 0.043550593555 0.048574617406 0.053708930013 0.058942176138 0.064258356599 0.069636917147 0.075056359195 
0.080499836119 0.085944930374 0.091370077782 0.096760901273 0.10211127956 0.10741876576 0.11267036704 0.11785433554 0.12297916519 
0.1280785986 0.13318391128 0.13829373706 0.14338729324 0.14846473351 0.1535695022 0.15872708883 0.16389375492 0.1689610915 
0.17381580932 0.17839291271 0.18260687878 0.18632093894 0.18935611636 0.19153366578 0.19274196194 0.19288999628 0.19191609419 
0.18980296796 0.18656545081 0.18226177195 0.17697884205 0.17087842001 0.16419799116 0.15717887907 0.15003051105 0.14294310109 
0.13612656313 0.12981083424 0.124185574 0.11935264568 0.11533387857 0.11209591551 0.10957594785 0.10766582264 0.10619982606 
0.10498179413 0.10381632477 0.10256032889 0.10109864985 0.099346732694 0.097253392679 0.094796715755 0.091986254051 0.088855685645 
0.08545288201 0.08183877546 0.07808140919 0.074234274513 0.070347756185 0.066465003931 0.062621539675 0.058851628956 0.055184263009 
0.051648455184 0.048269670592 0.045069005382 0.042076289746 0.039328769627 0.036873258482 0.034761532703 0.033037106193 0.031737859399 
0.0308978575 0.030538423297 0.030662144856 0.031255438528 0.032285833102 0.03371205913 0.035488844252 0.037568595673 0.03990641786 
0.042461041608 0.045195507804 0.048077063109 
