# vtk DataFile Version 5.1
vtk output
ASCII
DATASET POLYDATA
POINTS 216 double
82.25490311 83.349972414 36.667873668 82.363131913 83.499277807 36.431357462 82.491335539 83.653090327 36.208071786 
82.638351244 83.80941042 35.998533107 82.802459563 83.966276529 35.802516354 82.982223497 84.121895161 35.619665454 
83.176030642 84.274653124 35.4491521 83.382403202 84.423135902 35.289969913 83.600186203 84.565995141 35.141172122 
83.828120849 84.702123663 35.001546504 84.065212303 84.830455551 34.870012946 84.310631473 84.949914479 34.745583649 
84.56354284 85.059547363 34.627262053 84.823177896 85.158433965 34.514150125 85.088820776 85.245638581 34.405464198 
85.359795418 85.320114686 34.300542683 85.635295328 85.381083808 34.198743398 85.914523691 85.427688752 34.099550622 
86.196638636 85.458973013 34.002541497 86.480669859 85.474312823 33.907319316 86.765592999 85.473120393 33.813548391 
87.050300829 85.454762179 33.720925854 87.333637556 85.419192648 33.629117734 87.614388036 85.366190775 33.537775855 
87.891386626 85.296114266 33.446482191 88.163475316 85.209360898 33.354744527 88.429603406 85.106661884 33.261986463 
88.688847462 84.988963973 33.167559226 88.940348282 84.85724045 33.07073748 89.183503241 84.712773853 32.970813523 
89.417633937 84.556599429 32.867019251 89.642360192 84.390009281 32.758727586 89.857268605 84.214096046 32.645364065 
90.061924551 84.02982329 32.526442765 90.256099833 83.838183263 32.401732375 90.439482787 83.63995037 32.271126228 
90.61165679 83.435710608 32.134649118 90.77240572 83.226019063 31.992619644 90.92139445 83.011234617 31.845469489 
91.058242418 82.791587868 31.693773467 91.182416922 82.567170649 31.538207117 91.293519918 82.338076686 31.379607627 
91.390966919 82.10432281 31.21884773 91.474074783 81.8659323 31.056851084 91.541913809 81.622944615 30.89457786 
91.593750526 81.375598225 30.733001203 91.628653268 81.124251991 30.573066296 91.645450287 80.869444679 30.41571206 
91.643360101 80.61203981 30.261751444 91.621458912 80.353132964 30.11191667 91.579017777 80.094108668 29.966776171 
91.515740285 79.836586697 29.826642494 91.431411973 79.582383035 29.691631516 91.326515394 79.333341832 29.561500381 
91.201589393 79.09136506 29.435797341 91.057856027 78.858118747 29.313734698 90.896470542 78.635246899 29.194370865 
90.71916318 78.423945945 29.076551155 90.527370257 78.225498692 28.95906192 90.32296942 78.040648909 28.840650793 
90.107586318 77.870206393 28.720104812 89.882854424 77.71483917 28.596295382 89.650430279 77.574969309 28.468281561 
89.411798248 77.45114331 28.335261502 89.168396744 77.343827874 28.196658572 88.921602044 77.253300678 28.052201215 
88.672646605 77.179915058 27.90184412 88.422650896 77.124131236 27.745762452 88.17263018 77.086034033 27.584492442 
87.9234578 77.06583261 27.418735905 87.675906898 77.06378966 27.249369191 87.430654933 77.080040659 27.077446744 
87.188297949 77.114605128 26.904133298 86.949412052 77.167567142 26.730643996 86.714631623 77.239175685 26.558250487 
86.484552239 77.329249948 26.388200795 86.259881131 77.437740543 26.221709539 86.041496879 77.564712084 26.059993907 
85.83025834 77.709750287 25.904092367 85.627178187 77.872490081 25.754971735 85.433422813 78.052523756 25.61352023 
85.250009282 78.248924945 25.480301327 85.078174492 78.460939314 25.355866711 84.918875636 78.687329081 25.240398086 
84.773084763 78.926871598 25.133969034 84.641574234 79.178177548 25.036425814 84.524813229 79.439717637 24.947371527 
84.423291112 79.710092639 24.866376616 84.33693637 79.987735474 24.792693685 84.265781213 80.271306106 24.725615063 
84.209503996 80.559482804 24.664260417 84.16761554 80.851072775 24.607683197 84.139694861 81.145048123 24.554939094 
84.125034107 81.440470368 24.504983525 84.122905531 81.736539738 24.456762792 84.132607175 82.032568533 24.409205347 
84.153387593 82.327956422 24.361202057 84.184357286 82.622192361 24.311633706 84.2246736 82.914826436 24.25936758 
84.273496941 83.205442957 24.203235993 84.329917816 83.493657289 24.1420681 84.392964236 83.779109237 24.074731953 
84.461680786 84.061417957 24.000091402 84.535120887 84.34014305 23.916969358 84.612264802 84.614836294 23.824335031 
84.692112586 84.884986168 23.721231027 84.773696369 85.14996297 23.606702874 84.856057791 85.409082099 23.479987121 
84.938292206 85.661625966 23.340558758 85.019552257 85.906702433 23.187870909 85.099086004 86.14350172 23.021805629 
85.176237216 86.371154528 22.84236745 85.250445003 86.588767724 22.64972009 85.321319845 86.795694656 22.444455972 
85.388510065 86.991153122 22.227068965 85.451863869 87.174809905 21.998524686 85.511246805 87.346294236 21.759685383 
85.566622233 87.505531229 21.511580413 85.618013852 87.652700838 21.255296642 85.665393554 87.787961504 20.991775856 
85.708835206 87.911944244 20.72209789 85.748337853 88.025239297 20.44715919 85.783877446 88.128551374 20.167779498 
85.815470083 88.222810212 19.88474547 85.843076485 88.308888462 19.598701187 85.86664499 88.387677471 19.310203228 
85.886190028 88.460163146 19.019756887 85.901710745 88.527232181 18.727768523 85.913194652 88.589682923 18.43457043 
85.920745347 88.648337933 18.140461386 85.924453102 88.70388189 17.84567473 85.924400501 88.756896859 17.550398899 
85.920726559 88.80791435 17.254793885 85.91354667 88.857374385 16.958988312 85.902914646 88.905640921 16.663089328 
85.888837507 88.953036238 16.367193333 85.871268593 88.999856776 16.071392667 85.850040353 89.046383506 15.775785822 
85.824851044 89.092913435 15.48049104 85.795359971 89.139773338 15.18564775 85.761094022 89.187331656 14.891433918 
85.721425502 89.236031275 14.598088072 85.675785364 89.286354586 14.305888542 85.623505376 89.338862464 14.015191481 
85.563869937 89.394203609 13.726444665 85.496375139 89.453013955 13.440126447 85.420479884 89.516020847 13.156822745 
85.335915454 89.583898947 12.877124643 85.242590388 89.657298977 12.60164047 85.140589563 89.736839512 12.330979941 
85.030343503 89.822949325 12.065614514 84.91229401 89.91608991 11.806043395 84.78723578 90.016403333 11.552496754 
84.655875234 90.124064113 11.305226635 84.519028206 90.239023016 11.064297361 84.377452715 90.361126607 10.829696032 
84.231746277 90.490244224 10.601464212 84.082472909 90.626007516 10.379478561 83.929990721 90.768078383 10.163706231 
83.774470488 90.916129818 9.9542131556 83.615969609 91.069717516 9.7510348895 83.454384118 91.228420022 9.5543197592 
83.28947234 91.391835204 9.3643386929 83.120895533 91.559553973 9.1814588845 82.948299243 91.731120671 9.0060525632 
82.771285549 91.906106598 8.8386081112 82.589421747 92.084097383 8.6797512533 82.402433891 92.264598741 8.5299372874 
82.210069186 92.447140128 8.3897113579 82.012145479 92.63123722 8.2596245574 81.808699714 92.816369043 8.1399434586 
81.599782304 93.002036611 8.0310006477 81.385611197 93.187744261 7.9328633357 81.166496716 93.373031081 7.8454221479 
80.942742042 93.557466714 7.7685685968 80.714795642 93.740694392 7.701800874 80.483037137 93.922398962 7.6446820207 
80.247864693 94.102331694 7.5966159917 80.009675798 94.280319712 7.5568705019 79.768794476 94.456219094 7.5247742265 
79.525536478 94.629955044 7.4995380268 79.280178049 94.801499153 7.4803472515 79.032935636 94.970835434 7.4664291378 
78.783996434 95.137981468 7.4569722189 78.533521967 95.302987411 7.451134727 78.281630387 95.465899726 7.4481019909 
78.028405753 95.626758388 7.4470583139 77.773937542 95.785646438 7.4471467834 77.51829276 95.942634287 7.4475300802 
77.261530201 96.097787453 7.4473540953 77.003738406 96.251215783 7.4457694343 76.745024352 96.403043025 7.4419423598 
76.485521912 96.553407177 7.435024241 76.225419846 96.702499965 7.4242297022 75.964953184 96.850546197 7.4088276209 
75.704406969 96.997795152 7.3880756069 75.44411859 97.144541372 7.36139078 75.18446373 97.291093347 7.3282548275 
74.925868522 97.437772319 7.2881382136 74.668755468 97.584891898 7.2407716564 74.413575039 97.732749462 7.1858573306 
74.160782772 97.881615221 7.1231749369 73.910788563 98.031702328 7.0526737446 73.664027168 98.183192737 6.9742334315 
73.42087237 98.336197822 6.8878722628 73.181656576 98.490769679 6.7936576774 72.946742538 98.64693164 6.6915705319 
72.716384898 98.804632762 6.5817598754 72.490834565 98.963796535 6.4643427323 72.270381438 99.124335659 6.3393608588 
72.055202236 99.286118205 6.207009317 71.845495134 99.449012401 6.0674343008 71.641496007 99.612887769 5.9207301754 
71.44337616 99.777599633 5.7670707096 71.25129906 99.943003688 5.606632095 71.065444947 100.10895843 5.4395684028 

VERTICES 217 216
OFFSETS vtktypeint64
0 1 2 3 4 5 6 7 8 
9 10 11 12 13 14 15 16 17 
18 19 20 21 22 23 24 25 26 
27 28 29 30 31 32 33 34 35 
36 37 38 39 40 41 42 43 44 
45 46 47 48 49 50 51 52 53 
54 55 56 57 58 59 60 61 62 
63 64 65 66 67 68 69 70 71 
72 73 74 75 76 77 78 79 80 
81 82 83 84 85 86 87 88 89 
90 91 92 93 94 95 96 97 98 
99 100 101 102 103 104 105 106 107 
108 109 110 111 112 113 114 115 116 
117 118 119 120 121 122 123 124 125 
126 127 128 129 130 131 132 133 134 
135 136 137 138 139 140 141 142 143 
144 145 146 147 148 149 150 151 152 
153 154 155 156 157 158 159 160 161 
162 163 164 165 166 167 168 169 170 
171 172 173 174 175 176 177 178 179 
180 181 182 183 184 185 186 187 188 
189 190 191 192 193 194 195 196 197 
198 199 200 201 202 203 204 205 206 
207 208 209 210 211 212 213 214 215 
216 
CONNECTIVITY vtktypeint64
0 1 2 3 4 5 6 7 8 
9 10 11 12 13 14 15 16 17 
18 19 20 21 22 23 24 25 26 
27 28 29 30 31 32 33 34 35 
36 37 38 39 40 41 42 43 44 
45 46 47 48 49 50 51 52 53 
54 55 56 57 58 59 60 61 62 
63 64 65 66 67 68 69 70 71 
72 73 74 75 76 77 78 79 80 
81 82 83 84 85 86 87 88 89 
90 91 92 93 94 95 96 97 98 
99 100 101 102 103 104 105 106 107 
108 109 110 111 112 113 114 115 116 
117 118 119 120 121 122 123 124 125 
126 127 128 129 130 131 132 133 134 
135 136 137 138 139 140 141 142 143 
144 145 146 147 148 149 150 151 152 
153 154 155 156 157 158 159 160 161 
162 163 164 165 166 167 168 169 170 
171 172 173 174 175 176 177 178 179 
180 181 182 183 184 185 186 187 188 
189 190 191 192 193 194 195 196 197 
198 199 200 201 202 203 204 205 206 
207 208 209 210 211 212 213 214 215 

LINES 2 216
OFFSETS vtktypeint64
0 216 
CONNECTIVITY vtktypeint64
0 1 2 3 4 5 6 7 8 
9 10 11 12 13 14 15 16 17 
18 19 20 21 22 23 24 25 26 
27 28 29 30 31 32 33 34 35 
36 37 38 39 40 41 42 43 44 
45 46 47 48 49 50 51 52 53 
54 55 56 57 58 59 60 61 62 
63 64 65 66 67 68 69 70 71 
72 73 74 75 76 77 78 79 80 
81 82 83 84 85 86 87 88 89 
90 91 92 93 94 95 96 97 98 
99 100 101 102 103 104 105 106 107 
108 109 110 111 112 113 114 115 116 
117 118 119 120 121 122 123 124 125 
126 127 128 129 130 131 132 133 134 
135 136 137 138 139 140 141 142 143 
144 145 146 147 148 149 150 151 152 
153 154 155 156 157 158 159 160 161 
162 163 164 165 166 167 168 169 170 
171 172 173 174 175 176 177 178 179 
180 181 182 183 184 185 186 187 188 
189 190 191 192 193 194 195 196 197 
198 199 200 201 202 203 204 205 206 
207 208 209 210 211 212 213 214 215 

POINT_DATA 216
SCALARS Curvature double
LOOKUP_TABLE default
0.28483573231 0.27387150881 0.25984322478 0.24386913056 0.22712012248 0.2106316807 0.19526815615 0.18169900546 0.17045823502 
0.1618612526 0.15607000095 0.15307622495 0.1526606252 0.154454894 0.15801073465 0.16287038177 0.16855758015 0.17461168645 
0.1805792019 0.18602255235 0.19053328953 0.19372664875 0.19532979725 0.19515023925 0.19320872874 0.18968742964 0.18498206963 
0.17960673293 0.17414326172 0.16909876305 0.16484003368 0.16150460658 0.15903900714 0.1572652358 0.15595279046 0.1549388466 
0.15419372087 0.15384041302 0.154143888 0.15545546556 0.15815260129 0.16249926404 0.16862161518 0.17643988447 0.18569720178 
0.19592988677 0.20657714834 0.21700970474 0.22654381301 0.23445558042 0.24011200702 0.24308187456 0.24316608306 0.24049697969 
0.23550561916 0.22889065302 0.2215179785 0.21426931003 0.20797117529 0.20318188126 0.20018433426 0.19893221694 0.199131642 
0.2003169727 0.20192996083 0.2035019528 0.20473434026 0.20550464174 0.20588111593 0.20608754185 0.20643408356 0.20723545728 
0.20873958292 0.21107723431 0.21424108248 0.21804728717 0.22222172048 0.22643783269 0.23031868992 0.23346275344 0.23549974458 
0.23614176401 0.23516486163 0.23245746408 0.22800361492 0.22187239158 0.21424554299 0.20533540624 0.19544141445 0.18485211993 
0.17387700096 0.16280844536 0.15193674616 0.14152252306 0.13181827186 0.12309347588 0.11565822042 0.10984978488 0.10603049141 
0.10453005561 0.10553958607 0.1090332825 0.11477445521 0.12236215604 0.1312647676 0.14091777849 0.15077052921 0.16030302715 
0.1690547314 0.17660727757 0.18260225333 0.18672910362 0.1887974162 0.1887533531 0.18660306921 0.18247665214 0.17654676865 
0.16903908977 0.16022765383 0.15037808539 0.1397993233 0.12878805369 0.1176498589 0.10666844592 0.096105684874 0.086191407676 
0.077096596578 0.06893321765 0.061766187485 0.055583149064 0.050359374859 0.046085094596 0.042769482064 0.040470292546 0.039294943913 
0.039381568114 0.040864648554 0.043870596556 0.048451027848 0.054537195441 0.06201113217 0.070711630202 0.080295005512 0.090341251957 
0.10034476936 0.10976311773 0.11805254846 0.12473597343 0.12947777445 0.13209173559 0.13262217426 0.13125213463 0.12834902295 
0.1243295253 0.11964235671 0.11467992845 0.10979807303 0.1053487693 0.10168119097 0.099126428449 0.097975348084 0.098409928292 
0.10048566942 0.10405236324 0.10877671162 0.11419687097 0.11978191629 0.12497708843 0.1293064839 0.13236221215 0.13388278725 
0.13368303713 0.13173072817 0.12810416997 0.12299418663 0.11667360849 0.1094106716 0.10146520041 0.093070414442 0.084412698782 
0.075647564369 0.066899782076 0.058286355406 0.04993251683 0.042018482797 0.034845805194 0.028986673204 0.025339452293 0.024864419958 
0.027677389752 0.032812297587 0.039201678584 0.046129914769 0.053153722449 0.060004095644 0.0664956828 0.072512803882 0.077974198323 
0.082833569157 0.087078954417 0.090722863211 0.093784416028 0.096284408192 0.098243204514 0.099716208971 0.10076624487 0.10145300007 
0.10184854884 0.10202457856 0.10204909351 0.10198848282 0.10189405912 0.10180599411 0.10174620482 0.10172566019 0.10174503066 

