# vtk DataFile Version 5.1
vtk output
ASCII
DATASET POLYDATA
POINTS 239 double
74.166955063 69.123570917 34.046742998 74.427703614 69.101219145 33.900185222 74.683744747 69.093470579 33.744111279 
74.935316218 69.099147932 33.580827153 75.182951282 69.1169785 33.412466993 75.427374912 69.145705344 33.240940917 
75.669417995 69.184157364 33.067942141 75.909969677 69.231236956 32.894989704 76.149942357 69.285968954 32.723487862 
76.390258277 69.347317444 32.554727028 76.631798422 69.414280847 32.389894345 76.875412969 69.485891019 32.230146838 
77.121916488 69.561121436 32.076619186 77.372004411 69.638826719 31.930294913 77.626310967 69.717805655 31.792156414 
77.885412597 69.796718891 31.663202095 78.149698131 69.874074995 31.544220033 78.419421773 69.948249723 31.435905339 
78.694684005 70.01746628 31.338837868 78.975391637 70.07981227 31.253419936 79.261233014 70.133274711 31.179838383 
79.55165867 70.175796087 31.118029612 79.845872036 70.20535156 31.067651103 80.142836305 70.220042141 31.028066092 
80.441301667 70.218197077 30.998345809 80.739854951 70.198471465 30.977291886 81.036989292 70.159926221 30.963480131 
81.331186309 70.102075594 30.955322906 81.620999205 70.024894412 30.951144037 81.905122863 69.928780749 30.949256994 
82.182436396 69.814474999 30.948036108 82.451992259 69.682919168 30.945961502 82.713089366 69.535332137 30.941669995 
82.965171844 69.372950014 30.933970925 83.207804591 69.197005229 30.921845509 83.440626624 69.008676824 30.904437025 
83.663202509 68.808959314 30.880969702 83.875258151 68.598947285 30.850899141 84.076441933 68.379574601 30.813780515 
84.266278658 68.151636895 30.769231768 84.444197177 67.915863293 30.716952913 84.609737279 67.673045319 30.656856605 
84.762273662 67.423871771 30.588878134 84.901057355 67.169003523 30.513001669 85.025429805 66.909173845 30.429370125 
85.134805638 66.645157478 30.338239207 85.228601524 66.377749805 30.239914657 85.306343503 66.10779456 30.134779397 
85.367677764 65.836173514 30.023269481 85.412401453 65.56379665 29.905859597 85.440625328 65.291575273 29.783087605 
85.452567099 65.020387149 29.655459534 85.448612971 64.751060576 29.523461933 85.429286712 64.48435539 29.387548125 
85.395210856 64.220950938 29.248131135 85.347014822 63.961458385 29.105572476 85.285399214 63.706396997 28.960210192 
85.211097385 63.456189058 28.812363273 85.124746952 63.211208105 28.662321881 85.026921622 62.971778064 28.510369955 
84.918077763 62.738211526 28.356789889 84.79862385 62.510786837 28.201883463 84.668960476 62.289727693 28.045975693 
84.529362235 62.075290334 27.889399337 84.380050424 61.867741757 27.732499721 84.221148224 61.667418411 27.575628057 
84.052874755 61.474600892 27.419126559 83.875431505 61.289613148 27.263305866 83.689027107 61.112826305 27.108430462 
83.493917127 60.944641786 26.95469979 83.290368652 60.785547586 26.802239426 83.078804997 60.635967251 26.651067935 
82.859703968 60.496354292 26.501105943 82.633594606 60.367198516 26.352180112 82.401071029 60.24900418 26.204028295 
82.162750339 60.142372686 26.056315849 81.919368092 60.047797746 25.908649371 81.671683223 59.965807822 25.760617627 
81.4204767 59.896981176 25.61181871 81.16655892 59.841935418 25.461890089 80.9107666 59.801405532 25.310532943 
80.653989431 59.77591422 25.157581083 80.397115704 59.766104602 25.002997101 80.141051187 59.772608084 24.84690719 
79.886714871 59.796036173 24.689620275 79.635049817 59.837033869 24.531642544 79.386956493 59.895935766 24.373686896 
79.143332247 59.973082776 24.216643103 78.905052504 60.068675922 24.061561848 78.672965403 60.182750775 23.909617514 
78.447889169 60.315155425 23.762056821 78.230609596 60.465533509 23.620137216 78.021909163 60.6333719 23.485083059 
77.822485605 60.81784735 23.35794861 77.632994513 61.01796206 23.239581772 77.454047046 61.232574883 23.130572234 
77.286189915 61.460423542 23.031201577 77.129899163 61.700174929 22.941419599 76.985577695 61.95047539 22.860839418 
76.853611466 62.210029137 22.788781195 76.734274753 62.477552134 22.724224616 76.627732575 62.751818647 22.665868114 
76.534150955 63.03172311 22.612231361 76.453656525 63.31623456 22.561662969 76.386406688 63.604388795 22.512375957 
76.33240855 63.895210974 22.462467444 76.291587586 64.187725532 22.410007264 76.263824565 64.480930844 22.353068803 
76.248876998 64.773765884 22.289781778 76.2463429 65.065104934 22.218401365 76.255629758 65.353772515 22.137382669 
76.27594115 65.638578068 22.045447995 76.306280645 65.918365086 21.94163655 76.34543611 66.192103296 21.825396324 
76.39208906 66.458918008 21.69651202 76.444852177 66.718142571 21.555100285 76.502338691 66.969337055 21.401553551 
76.563227495 67.212280566 21.236469472 76.626314555 67.446942435 21.060578342 76.690548345 67.673439699 20.87467715 
76.755049037 67.891966102 20.679550792 76.819111902 68.102771655 20.475966624 76.882226072 68.306194535 20.264717906 
76.944059289 68.502508422 20.04647726 77.00444072 68.691922218 19.821823652 77.063346731 68.874559635 19.591244154 
77.120911611 69.050567588 19.355233825 77.177365751 69.21994642 19.114157818 77.23302147 69.382567148 18.868289575 
77.288255963 69.538262859 18.617885967 77.343463527 69.686826897 18.363181366 77.399016135 69.827958986 18.104358771 
77.455232666 69.961289013 17.841573295 77.512334752 70.086464403 17.574996338 77.570402446 70.203212905 17.304829555 
77.629359992 70.3112755 17.031263276 77.688952676 70.410478636 16.754496411 77.748734868 70.500682851 16.474707336 
77.808065948 70.582004579 16.192113987 77.866135008 70.654639945 15.906904257 77.921969867 70.718893078 15.619246524 
77.974427528 70.775136207 15.329284227 78.022241466 70.823893256 15.037172522 78.064067235 70.865801707 14.743087484 
78.098444563 70.901529086 14.447228498 78.123808415 70.931799518 14.14985655 78.13848343 70.957399114 13.851332423 
78.140897515 70.979233489 13.552164901 78.129424653 70.998238032 13.253020807 78.102515727 71.01542063 12.95476459 
78.0587821 71.031859108 12.658471854 77.997094147 71.048690536 12.365419198 77.916680563 71.067089663 12.077043687 
77.817213787 71.088236624 11.794870044 77.698859546 71.113276286 11.520413061 77.562278958 71.143275175 11.255069977 
77.40857562 71.179182334 11.000024592 77.239202043 71.22179976 10.756179012 77.055841816 71.271765134 10.524123449 
76.86028972 71.329547512 10.304142854 76.654344135 71.395454538 10.096254369 76.439683173 71.469694793 9.9003287075 
76.217935125 71.552269136 9.7159688836 75.990524539 71.643087512 9.5427134231 75.758685119 71.741972321 9.380061497 
75.523462266 71.848676857 9.2275147201 75.285714388 71.962948 9.0846663312 75.046181145 72.084329691 8.9509556399 
74.805419705 72.212403747 8.825972801 74.563852757 72.346755638 8.7094131388 74.32179697 72.486894991 8.6009617378 
74.079471306 72.632288069 8.5003064041 73.837015381 72.782434945 8.4072229906 73.594514501 72.936875278 8.3215742331 
73.352019206 73.095094284 8.2431064323 73.10956234 73.25663872 8.1716017409 72.867176027 73.421106063 8.1068337555 
72.624904705 73.588153296 8.0485585297 72.382814463 73.757494666 7.9964782953 72.14099495 73.928896613 7.9502017633 
71.899562089 74.102207608 7.9093275311 71.658653637 74.277339266 7.8734150091 71.418422959 74.454257887 7.8419958227 
71.179034098 74.632978644 7.8146033341 70.940644515 74.813534001 7.7907528786 70.703395005 74.995962172 7.769981553 
70.467405455 75.180299364 7.751879528 70.232764362 75.366561152 7.736093936 69.999522226 75.554731799 7.7223417577 
69.767692659 75.744764248 7.7104241191 69.537240578 75.936563742 7.7002186044 69.308083462 76.129989354 7.6916777292 
69.080106847 76.324872076 7.6848341786 68.853165299 76.521013643 7.6797829936 68.627090374 76.718193649 7.6766670931 
68.401703747 76.916182059 7.6756725709 68.176816592 77.114735764 7.6769651432 67.95225346 77.313624963 7.6806948064 
67.727858368 77.512639853 7.6869653303 67.503501484 77.711600279 7.6958067393 67.279083974 77.910364826 7.7071617223 
67.054541132 78.108840801 7.7208502526 66.829844276 78.3069932 7.736554994 66.604996808 78.504843177 7.7538418217 
66.380030695 78.702466484 7.7721510907 66.15500199 78.899986516 7.7908036503 65.929986546 79.097563682 7.8090037573 
65.705073748 79.295375186 7.8258720474 65.480361959 79.493595086 7.8404581929 65.25595575 79.69237353 7.8517572476 
65.031964884 79.891816676 7.8587220276 64.808505611 80.091968003 7.8602661509 64.585692842 80.292781964 7.8553797546 
64.363650743 80.494127166 7.8430642045 64.142513407 80.695779515 7.8223871026 63.922427743 80.897426524 7.7925105661 
63.703556142 81.098679666 7.7527180871 63.486083266 81.299089311 7.702401181 63.270205115 81.498177532 7.6411664512 
63.056131744 81.695471047 7.5688053853 62.844090127 81.890526925 7.4852627262 62.634318795 82.082963666 7.3906477566 
62.427064693 82.272484301 7.2852143654 62.222580833 82.458892158 7.1693344666 62.021149004 82.642074521 7.0433984802 
61.823017839 82.822068649 6.9079851145 61.628453718 82.998997767 6.7636519664 61.437735033 83.173069704 6.6109514019 
61.251166428 83.344559385 6.4504005117 61.069082312 83.513802891 6.2824852822 60.89178049 83.681209347 6.1077490967 
60.719615898 83.847202119 5.9266421731 60.552985943 84.012228691 5.7395723716 60.392352607 84.176759597 5.5469047398 
60.238131299 84.341284655 5.3490637512 60.090832915 84.506297799 5.146413373 59.951024841 84.672304616 4.9393183505 
59.819339788 84.839822084 4.7281564187 59.696484902 85.009377494 4.5133323786 
VERTICES 240 239
OFFSETS vtktypeint64
0 1 2 3 4 5 6 7 8 
9 10 11 12 13 14 15 16 17 
18 19 20 21 22 23 24 25 26 
27 28 29 30 31 32 33 34 35 
36 37 38 39 40 41 42 43 44 
45 46 47 48 49 50 51 52 53 
54 55 56 57 58 59 60 61 62 
63 64 65 66 67 68 69 70 71 
72 73 74 75 76 77 78 79 80 
81 82 83 84 85 86 87 88 89 
90 91 92 93 94 95 96 97 98 
99 100 101 102 103 104 105 106 107 
108 109 110 111 112 113 114 115 116 
117 118 119 120 121 122 123 124 125 
126 127 128 129 130 131 132 133 134 
135 136 137 138 139 140 141 142 143 
144 145 146 147 148 149 150 151 152 
153 154 155 156 157 158 159 160 161 
162 163 164 165 166 167 168 169 170 
171 172 173 174 175 176 177 178 179 
180 181 182 183 184 185 186 187 188 
189 190 191 192 193 194 195 196 197 
198 199 200 201 202 203 204 205 206 
207 208 209 210 211 212 213 214 215 
216 217 218 219 220 221 222 223 224 
225 226 227 228 229 230 231 232 233 
234 235 236 237 238 239 
CONNECTIVITY vtktypeint64
0 1 2 3 4 5 6 7 8 
9 10 11 12 13 14 15 16 17 
18 19 20 21 22 23 24 25 26 
27 28 29 30 31 32 33 34 35 
36 37 38 39 40 41 42 43 44 
45 46 47 48 49 50 51 52 53 
54 55 56 57 58 59 60 61 62 
63 64 65 66 67 68 69 70 71 
72 73 74 75 76 77 78 79 80 
81 82 83 84 85 86 87 88 89 
90 91 92 93 94 95 96 97 98 
99 100 101 102 103 104 105 106 107 
108 109 110 111 112 113 114 115 116 
117 118 119 120 121 122 123 124 125 
126 127 128 129 130 131 132 133 134 
135 136 137 138 139 140 141 142 143 
144 145 146 147 148 149 150 151 152 
153 154 155 156 157 158 159 160 161 
162 163 164 165 166 167 168 169 170 
171 172 173 174 175 176 177 178 179 
180 181 182 183 184 185 186 187 188 
189 190 191 192 193 194 195 196 197 
198 199 200 201 202 203 204 205 206 
207 208 209 210 211 212 213 214 215 
216 217 218 219 220 221 222 223 224 
225 226 227 228 229 230 231 232 233 
234 235 236 237 238 
LINES 2 239
OFFSETS vtktypeint64
0 239 
CONNECTIVITY vtktypeint64
0 1 2 3 4 5 6 7 8 
9 10 11 12 13 14 15 16 17 
18 19 20 21 22 23 24 25 26 
27 28 29 30 31 32 33 34 35 
36 37 38 39 40 41 42 43 44 
45 46 47 48 49 50 51 52 53 
54 55 56 57 58 59 60 61 62 
63 64 65 66 67 68 69 70 71 
72 73 74 75 76 77 78 79 80 
81 82 83 84 85 86 87 88 89 
90 91 92 93 94 95 96 97 98 
99 100 101 102 103 104 105 106 107 
108 109 110 111 112 113 114 115 116 
117 118 119 120 121 122 123 124 125 
126 127 128 129 130 131 132 133 134 
135 136 137 138 139 140 141 142 143 
144 145 146 147 148 149 150 151 152 
153 154 155 156 157 158 159 160 161 
162 163 164 165 166 167 168 169 170 
171 172 173 174 175 176 177 178 179 
180 181 182 183 184 185 186 187 188 
189 190 191 192 193 194 195 196 197 
198 199 200 201 202 203 204 205 206 
207 208 209 210 211 212 213 214 215 
216 217 218 219 220 221 222 223 224 
225 226 227 228 229 230 231 232 233 
234 235 236 237 238 
POINT_DATA 239
SCALARS Curvature double
LOOKUP_TABLE default
0.22543075052 0.20141240839 0.17747717003 0.1546273315 0.13361285537 0.11504535825 0.099529181267 0.087746562384 0.080422619977 
0.077945646814 0.080052144102 0.085900745871 0.094416136053 0.1046321329 0.11588327536 0.12771464185 0.13982851189 0.15200812084 
0.16409096136 0.17589799341 0.18721978575 0.19776696666 0.20720753095 0.21515285728 0.22122614834 0.22509915229 0.22658445101 
0.22565884758 0.22254263396 0.21763751687 0.21150516998 0.20476994641 0.1980321519 0.19181471365 0.18651390732 0.18241035089 
0.17966172579 0.17828837287 0.17821942448 0.17930276433 0.18133216234 0.18402796126 0.18709516026 0.19020649835 0.19302103608 
0.19521783225 0.19650169471 0.19666120079 0.195557273 0.19313738772 0.18944566447 0.18464608926 0.17898663875 0.17276511962 
0.16629643643 0.15988501804 0.15380928352 0.14829136799 0.14350323022 0.13955582017 0.1365095435 0.13437305618 0.13309687828 
0.13260193169 0.1327642463 0.13344065596 0.13445635009 0.13564161335 0.13684210537 0.13794778161 0.13891554823 0.13977789788 
0.14064852086 0.14170104486 0.14315474707 0.1452362575 0.14813347986 0.15196007122 0.15673563757 0.16238628511 0.16875450002 
0.17561373997 0.18272594785 0.18985532726 0.19679484213 0.20336921768 0.20945250167 0.2149487423 0.2197644171 0.22379064017 
0.22686631869 0.22878365299 0.22928654417 0.22814196636 0.22516394449 0.22030293463 0.21362587818 0.20533772922 0.19579845688 
0.18557417955 0.17536461552 0.16597289015 0.1582204202 0.15287033417 0.15046685219 0.15115822213 0.15459936948 0.16005868197 
0.16651601755 0.17289543267 0.17817822491 0.18157532697 0.18257187853 0.18099348349 0.17696062201 0.17084219011 0.16316692233 
0.15450649014 0.14541769316 0.13635425327 0.12766370913 0.11959964181 0.11234214053 0.10602247494 0.10074512503 0.096628613023 
0.093751936678 0.092198868393 0.091970172945 0.09296627486 0.094926849928 0.097493424825 0.10022320527 0.10265957792 0.10441849138 
0.10523142712 0.10501418714 0.10387822858 0.10219334359 0.10054444458 0.099699662065 0.10051524784 0.10374749176 0.10983962871 
0.11884713871 0.13046170704 0.14413785974 0.159154835 0.1747189218 0.18999242094 0.20408367811 0.21615176344 0.22541019782 
0.2313051793 0.2335229783 0.23214799187 0.22752575697 0.22025362433 0.21101236005 0.20053962279 0.18947182859 0.17833647878 
0.16750977619 0.15723974098 0.14766420526 0.1388325592 0.13075920762 0.12339288775 0.11668143192 0.11056423864 0.10498368372 
0.099870226811 0.095144889506 0.090715602851 0.086460961632 0.082256959676 0.077984306876 0.073549446717 0.068911556433 0.064091084309 
0.059183014607 0.054337643176 0.049747335084 0.045601980916 0.042041283746 0.039104391275 0.036723031555 0.034740816687 0.032979695407 
0.031304200703 0.029675785804 0.02817320409 0.026970401339 0.02628096073 0.026237542219 0.026788243188 0.027662413158 0.028453383063 
0.028732567372 0.028107060805 0.026265919153 0.023000871951 0.018211422532 0.011907748967 0.0041900689431 0.0049429638275 0.015025767061 
0.025951348495 0.03743875856 0.049214559006 0.061008525195 0.072556392835 0.083597751847 0.093901407108 0.10323504155 0.11139554593 
0.11818808909 0.12345501367 0.12707913642 0.1290325174 0.12934873627 0.12814766033 0.12561448366 0.12199714351 0.11758562294 
0.11270617947 0.1076945712 0.1028753639 0.098559093422 0.0950317487 0.092520341408 0.091207208389 0.091212525821 0.092607589328 
0.095395537365 0.099558948417 0.10507085655 0.11189855306 0.12001260091 
