# vtk DataFile Version 5.1
vtk output
ASCII
DATASET POLYDATA
POINTS 220 double
80.730412532 68.209262231 33.641357515 80.911373482 68.213447059 33.402164325 81.091562366 68.202038458 33.162621808 
81.270506597 68.17554887 32.92333498 81.44779247 68.134641024 32.684840998 81.623103844 68.080272626 32.447575549 
81.796230518 68.013563695 32.211855097 81.967040135 67.935604878 31.977897812 82.135488288 67.847529415 31.745821611 
82.301629392 67.750545067 31.515638628 82.465553209 67.64570993 31.287311417 82.627371378 67.533955178 31.060768508 
82.787246574 67.416220271 30.835879401 82.945314498 67.293249577 30.612518358 83.101685079 67.165656065 30.390558581 
83.256415971 67.033895597 30.169887143 83.409519357 66.898322105 29.950393036 83.560927466 66.759132489 29.73198897 
83.710484439 66.616380734 29.51461126 83.857939746 66.469989973 29.29822064 84.002940862 66.319761148 29.082805086 
84.145027433 66.165384181 28.868383692 84.283625427 66.006450604 28.655012232 84.418041309 65.842467965 28.44279114 
84.547454888 65.672875608 28.231876224 84.670880554 65.497033091 28.022500315 84.787228101 65.314315794 27.814972592 
84.89523415 65.124078855 27.609713245 84.993475333 64.925715177 27.407269396 85.08037546 64.718707976 27.208332903 
85.154066452 64.502595745 27.013809908 85.212855108 64.277338505 26.824678472 85.254865772 64.043103766 26.642110814 
85.278409259 63.800506758 26.467327538 85.282164749 63.550643828 26.301476084 85.265338251 63.295036683 26.145483496 
85.227658385 63.035500688 25.999971289 85.169794593 62.774013525 25.864940826 85.092662756 62.512451099 25.740047415 
84.997956147 62.252457658 25.624278052 84.887395792 61.995353142 25.516346005 84.762653558 61.742175921 25.414749501 
84.625517263 61.493636194 25.317763196 84.47746325 61.250287549 25.223693828 84.319759098 61.012581248 25.130878941 
84.153451636 60.780943899 25.037732004 83.979374734 60.555844992 24.942768036 83.79816721 60.337854618 24.844615675 
83.610296986 60.127692491 24.742021922 83.416061746 59.92631288 24.633829239 83.215693225 59.734837357 24.51905635 
83.009315784 59.554685012 24.396858437 82.796997377 59.387602881 24.266558617 82.578799987 59.23569946 24.127696507 
82.354841796 59.10148079 23.980086386 82.125341529 58.988058485 23.823834319 81.890863852 58.898626427 23.65964888 
81.652321825 58.836912193 23.488744324 81.411207011 58.80686091 23.313063469 81.169766874 58.812061445 23.135407935 
80.931015221 58.855198377 22.959339616 80.698601184 58.937641614 22.788928864 80.476420188 59.058783277 22.628264811 
80.268053789 59.215980784 22.480834723 80.076335473 59.40510282 22.349091863 79.902999042 59.621066247 22.234165403 
79.748642052 59.858625284 22.135919076 79.613339961 60.113270072 22.053577193 79.496306017 60.380883304 21.985520893 
79.39679126 60.658338682 21.930079896 79.313733219 60.943053669 21.885295968 79.246066238 61.233038738 21.849195995 
79.192814772 61.526777158 21.819856738 79.15306642 61.823095099 21.795388574 79.125983498 62.121075835 21.773940857 
79.110800876 62.419986857 21.753697488 79.106813242 62.719218603 21.732869366 79.113355971 63.018233347 21.709691651 
79.129783123 63.316522787 21.68243018 79.155444926 63.613573967 21.649401164 79.189664801 63.908844442 21.609003055 
79.231719393 64.201748751 21.559760519 79.280823664 64.491658023 21.500374419 79.336146778 64.77789524 21.429720963 
79.396761754 65.059785647 21.346977271 79.46166889 65.336709386 21.251676803 79.529862624 65.60809313 21.143590178 
79.600338806 65.87340479 21.022654148 79.672077169 66.13227946 20.889161629 79.744105351 66.384450572 20.74354217 
79.815502188 66.629717994 20.586280514 79.885376895 66.86788159 20.417813339 79.952920773 67.098906321 20.238785888 
80.0173747 67.322710136 20.049726839 80.078037788 67.539208325 19.851144203 80.134246159 67.74826445 19.643483286 
80.185443976 67.949791003 19.427260129 80.231167544 68.143699095 19.202993569 80.271042044 68.329896266 18.971201423 
80.304796896 68.508316282 18.732423746 80.332264828 68.678930204 18.487220066 80.353488524 68.841892857 18.236258659 
80.368602176 68.997417395 17.980184908 80.37786277 69.145840573 17.71965359 80.381595068 69.28758262 17.455289275 
80.3802775 69.42327617 17.187745053 80.374404896 69.553620863 16.917612781 80.364482637 69.679391874 16.645436095 
80.35099591 69.801414102 16.371708708 80.334395208 69.920548232 16.096881137 80.315095356 70.037672851 15.821366112 
80.293420172 70.153615988 15.545527623 80.269612917 70.269147533 15.269691952 80.243823417 70.38495839 14.994151773 
80.216133991 70.501633173 14.719161163 80.186549155 70.619625312 14.444931335 80.154998046 70.739253068 14.171631107 
80.121343335 70.860697153 13.899385081 80.085386995 70.984001224 13.628271895 80.046908792 71.109056133 13.35830947 
80.005634171 71.235647895 13.089478889 79.961251083 71.363465392 12.821725769 79.913388181 71.492125181 12.554977626 
79.861675692 71.621181474 12.289141604 79.805700517 71.750165994 12.024136104 79.745007843 71.878603512 11.759905276 
79.679106766 72.006029179 11.496434159 79.607444991 72.131997263 11.233768374 79.529471768 72.256110185 10.972020451 
79.444616858 72.378025983 10.711384732 79.35227807 72.497458152 10.452148807 79.251844444 72.614184717 10.19469828 
79.142708317 72.728051489 9.9395206843 79.024219236 72.838955914 9.6872286777 78.895863347 72.946899228 9.4385080642 
78.757144371 73.051940657 9.1941505898 78.607632522 73.154205595 8.9550397949 78.446985054 73.25388351 8.7221413051 
78.274903722 73.351213153 8.4965345991 78.091407111 73.446524736 8.2792191825 77.896588362 73.540174772 8.0712394904 
77.690676713 73.632551409 7.8736370204 77.474085384 73.724068353 7.687379901 77.24750516 73.815148859 7.513185026 
77.011698633 73.906192735 7.3516751945 76.767471772 73.997573758 7.2034101354 76.515867344 74.089610578 7.0684866251 
76.25787937 74.182561951 6.9468985814 75.994473859 74.276624738 6.8384862885 75.726577682 74.371928414 6.7429150001 
75.45507943 74.46852035 6.6595784835 75.180737494 74.566392088 6.5878448817 74.90420423 74.665479467 6.5270076723 
74.62601862 74.765676384 6.4763607981 74.346627502 74.866832334 6.4351183351 74.066378987 74.968771888 6.4025157162 
73.785535433 75.071305641 6.3778472826 73.504290736 75.174236009 6.3604556297 73.222783708 75.277364586 6.3497405364 
72.941110279 75.380497744 6.3451869149 72.659336353 75.48345238 6.3463034912 72.377506139 75.586063525 6.3526601285 
72.095650872 75.688188089 6.3638930688 71.813795976 75.789710255 6.3796836416 71.531966466 75.890544651 6.3997600502 
71.250190771 75.990643766 6.4238698444 70.968502029 76.090007594 6.4517455779 70.686939241 76.188676852 6.4831416484 
70.405546475 76.286737247 6.5178030202 70.124373461 76.384316182 6.5554777999 69.843468165 76.48159101 6.595841752 
69.562879067 76.578772715 6.6385622518 69.282652737 76.676105887 6.6832742057 69.002835387 76.773868811 6.7295825013 
68.723467731 76.872364608 6.777039109 68.444588911 76.97191643 6.8251625512 68.166241045 77.072869156 6.8734405568 
67.888472273 77.175586975 6.921327624 67.611344981 77.280463327 6.9682400618 67.334928766 77.387873314 7.0135848749 
67.05931814 77.498209402 7.0567501805 66.784633321 77.611861947 7.0971153718 66.511026296 77.729217448 7.1340522568 
66.238686592 77.850655686 7.1669239858 65.967824843 77.976484898 7.1951500623 65.698691565 78.106996217 7.218150045 
65.431569223 78.242434024 7.2353683949 65.16677593 78.383002251 7.2462616303 64.904660367 78.528850491 7.2503091541 
64.645570465 78.680024448 7.2470799417 64.389884447 78.836535784 7.2361423969 64.137994989 78.998336077 7.2170976656 
63.890325995 79.165340724 7.1895412187 63.64729019 79.33738085 7.1531445277 63.4092896 79.514222898 7.1076405897 
63.17674353 79.69560377 7.052769436 62.950071436 79.88121749 6.9883107202 62.72974438 80.07074912 6.9140079263 
62.516126456 80.263789277 6.8298117281 62.309617414 80.459937537 6.7356547646 62.110603369 80.658778413 6.6315319244 
61.919490845 80.859899614 6.5174607611 61.736615564 81.06287708 6.3935965418 61.562263089 81.267302618 6.2601922558 
61.396715015 81.472802378 6.117541044 61.240227233 81.679038033 5.9659989944 61.093074614 81.885713164 5.8059415794 
60.955376979 82.09257177 5.6379071157 60.827294133 82.299408328 5.462406579 60.70896715 82.506059745 5.2799740195 
60.600540155 82.712399685 5.0911461534 60.50218351 82.918330622 4.8964484537 60.413970255 83.12378285 4.6964575611 
60.336041408 83.328700596 4.4917030538 60.268553687 83.533037475 4.2827036814 60.211697326 83.736750249 4.069964989 
60.165732097 83.939792209 3.8539783224 60.130813717 84.142120744 3.6352724611 60.10719128 84.343682228 3.4143584753 
60.095138868 84.544412981 3.1917600134 
VERTICES 221 220
OFFSETS vtktypeint64
0 1 2 3 4 5 6 7 8 
9 10 11 12 13 14 15 16 17 
18 19 20 21 22 23 24 25 26 
27 28 29 30 31 32 33 34 35 
36 37 38 39 40 41 42 43 44 
45 46 47 48 49 50 51 52 53 
54 55 56 57 58 59 60 61 62 
63 64 65 66 67 68 69 70 71 
72 73 74 75 76 77 78 79 80 
81 82 83 84 85 86 87 88 89 
90 91 92 93 94 95 96 97 98 
99 100 101 102 103 104 105 106 107 
108 109 110 111 112 113 114 115 116 
117 118 119 120 121 122 123 124 125 
126 127 128 129 130 131 132 133 134 
135 136 137 138 139 140 141 142 143 
144 145 146 147 148 149 150 151 152 
153 154 155 156 157 158 159 160 161 
162 163 164 165 166 167 168 169 170 
171 172 173 174 175 176 177 178 179 
180 181 182 183 184 185 186 187 188 
189 190 191 192 193 194 195 196 197 
198 199 200 201 202 203 204 205 206 
207 208 209 210 211 212 213 214 215 
216 217 218 219 220 
CONNECTIVITY vtktypeint64
0 1 2 3 4 5 6 7 8 
9 10 11 12 13 14 15 16 17 
18 19 20 21 22 23 24 25 26 
27 28 29 30 31 32 33 34 35 
36 37 38 39 40 41 42 43 44 
45 46 47 48 49 50 51 52 53 
54 55 56 57 58 59 60 61 62 
63 64 65 66 67 68 69 70 71 
72 73 74 75 76 77 78 79 80 
81 82 83 84 85 86 87 88 89 
90 91 92 93 94 95 96 97 98 
99 100 101 102 103 104 105 106 107 
108 109 110 111 112 113 114 115 116 
117 118 119 120 121 122 123 124 125 
126 127 128 129 130 131 132 133 134 
135 136 137 138 139 140 141 142 143 
144 145 146 147 148 149 150 151 152 
153 154 155 156 157 158 159 160 161 
162 163 164 165 166 167 168 169 170 
171 172 173 174 175 176 177 178 179 
180 181 182 183 184 185 186 187 188 
189 190 191 192 193 194 195 196 197 
198 199 200 201 202 203 204 205 206 
207 208 209 210 211 212 213 214 215 
216 217 218 219 
LINES 2 220
OFFSETS vtktypeint64
0 220 
CONNECTIVITY vtktypeint64
0 1 2 3 4 5 6 7 8 
9 10 11 12 13 14 15 16 17 
18 19 20 21 22 23 24 25 26 
27 28 29 30 31 32 33 34 35 
36 37 38 39 40 41 42 43 44 
45 46 47 48 49 50 51 52 53 
54 55 56 57 58 59 60 61 62 
63 64 65 66 67 68 69 70 71 
72 73 74 75 76 77 78 79 80 
81 82 83 84 85 86 87 88 89 
90 91 92 93 94 95 96 97 98 
99 100 101 102 103 104 105 106 107 
108 109 110 111 112 113 114 115 116 
117 118 119 120 121 122 123 124 125 
126 127 128 129 130 131 132 133 134 
135 136 137 138 139 140 141 142 143 
144 145 146 147 148 149 150 151 152 
153 154 155 156 157 158 159 160 161 
162 163 164 165 166 167 168 169 170 
171 172 173 174 175 176 177 178 179 
180 181 182 183 184 185 186 187 188 
189 190 191 192 193 194 195 196 197 
198 199 200 201 202 203 204 205 206 
207 208 209 210 211 212 213 214 215 
216 217 218 219 
POINT_DATA 220
SCALARS Curvature double
LOOKUP_TABLE default
0.18578375435 0.18003907784 0.17243624514 0.16320251885 0.15264384596 0.141145764 0.12911093108 0.11693937217 0.10500402776 
0.093639098785 0.083131017319 0.073732437895 0.065622887017 0.058940378108 0.053766758219 0.050156670895 0.048130747324 0.047746366502 
0.049096651405 0.052311937858 0.057497963732 0.064719052161 0.073967485912 0.085196228078 0.098332555743 0.11330053705 0.12997301131 
0.14817218208 0.1675877127 0.18772431978 0.20782688876 0.22682346361 0.24333399481 0.25578207054 0.26270366115 0.2630793479 
0.25661647881 0.24402392806 0.22664960532 0.20637410076 0.18506992334 0.16450541568 0.14621300957 0.13153318337 0.12158675598 
0.117098462 0.11822397857 0.12448466485 0.13510904077 0.14935083928 0.1666968838 0.18688353928 0.20987302522 0.23571530191 
0.2644526639 0.29599042903 0.32979301307 0.36468595776 0.39854180276 0.42823685304 0.44991931173 0.45989982692 0.45622080058 
0.43939051482 0.41215313221 0.37835574609 0.34175446053 0.30514968206 0.27033093842 0.23833979872 0.20970077734 0.18467210212 
0.16344221329 0.14621696513 0.13326546385 0.12479287425 0.12078200004 0.12084990217 0.12423010717 0.12989485772 0.13675000597 
0.14378731785 0.15014987481 0.15518700753 0.15847580233 0.15987810603 0.15948267514 0.15758172651 0.15462636251 0.15113459113 
0.14760263148 0.1444445719 0.14192801994 0.14014746374 0.1390192526 0.13829825685 0.13762404917 0.13657783441 0.13475867627 
0.13180555974 0.12743870139 0.12148845741 0.11394634725 0.10491734538 0.09464065961 0.083443980858 0.071725910275 0.059923048378 
0.048537031306 0.038184033301 0.029682004921 0.024150420647 0.022469134599 0.024062884758 0.027161199739 0.030389159511 0.033095943928 
0.035115491574 0.036576352424 0.037813116586 0.039258306166 0.041346593031 0.044400417775 0.048541131207 0.053718094281 0.059768313392 
0.066497512696 0.073716952406 0.081278606891 0.089071280923 0.097024880378 0.10508624992 0.11321482682 0.12136241736 0.12946566999 
0.13743246345 0.1451385031 0.15242025139 0.15907389749 0.16487528881 0.16958865827 0.17297628618 0.17483803949 0.17503786476 
0.17351015589 0.17024201533 0.16537426606 0.15909634402 0.15162670058 0.14320584115 0.13413858216 0.12472000734 0.11523251303 
0.10593174141 0.097035244288 0.088719741003 0.081110088935 0.074288965798 0.068283510368 0.063080965617 0.058612526077 0.054776660094 
0.05144208329 0.048460984687 0.04567637744 0.042938860369 0.040115209457 0.037105570194 0.033843069861 0.030308219501 0.026540577566 
0.022672511715 0.018998010324 0.016146403252 0.015181559624 0.01697729302 0.021262423085 0.027182091096 0.034091043332 0.041586374379 
0.049411508612 0.057364629255 0.065280365121 0.073014354398 0.080451677392 0.087503769858 0.094111469072 0.10024233326 0.10588747074 
0.11106103679 0.11578811847 0.12010091752 0.1240305199 0.12760683341 0.13085816785 0.13380012796 0.13642612847 0.1387092597 
0.14061204161 0.14208325117 0.14306819549 0.14351451223 0.14339455766 0.1427074223 0.14148939145 0.13981062771 0.1377796346 
0.13553367292 0.13322555612 0.13100809381 0.12902764896 0.12740869186 0.12624665523 0.12560595651 0.12552612956 0.12602687102 
0.12711764943 0.12879467118 0.1310537458 0.13388898836 
