# vtk DataFile Version 5.1
vtk output
ASCII
DATASET POLYDATA
POINTS 274 double
86.208272479 83.907075414 38.348631172 86.473480018 83.957837026 38.217995546 86.734641255 83.99732361 38.07582241 
86.991062899 84.025541041 37.922759116 87.242080046 84.042484697 37.759420101 87.487076131 84.048195152 37.586443205 
87.725482174 84.042751124 37.404479713 87.956774497 84.026263382 37.214186208 88.180412223 83.998790492 37.016166261 
88.395981484 83.960546174 36.811111853 88.603094691 83.911745562 36.599682561 88.801372217 83.85259449 36.382502259 
88.990458733 83.783318335 36.160177639 89.170017995 83.704160758 35.933296002 89.339631052 83.615295223 35.70239047 
89.499083217 83.517105832 35.468048938 89.648075012 83.409904639 35.23079145 89.786313588 83.294029511 34.991114481 
89.913511063 83.169845245 34.7494911 90.029368728 83.037735466 34.506369938 90.13351604 82.898072239 34.262174609 
90.225776544 82.751382186 34.017321897 90.30588254 82.598160002 33.772192472 90.373575937 82.438939116 33.527143376 
90.428609409 82.274290537 33.282509056 90.470616072 82.104779178 33.038613121 90.499473667 81.931095741 32.795746574 
90.515009077 81.753933267 32.554179859 90.51705414 81.574014094 32.314163598 90.505390474 81.3920884 32.075940209 
90.479913668 81.208960152 31.839724544 90.440702215 81.025463498 31.605686748 90.387807398 80.842440312 31.373980806 
90.321257027 80.660766453 31.144744543 90.241346013 80.481317612 30.918038227 90.148529812 80.304940961 30.693850837 
90.043302224 80.132470715 30.472116535 89.926191603 79.964746505 30.252708554 89.797957003 79.802524339 30.035392069 
89.659478581 79.646482287 29.819842506 89.511651743 79.49727152 29.605666681 89.355426935 79.355492988 29.392402415 
89.191788218 79.221704815 29.179533655 89.02173658 79.096433387 28.966507037 88.846267513 78.980210634 28.75274558 
88.666400423 78.873520399 28.537674106 88.483134437 78.776869233 28.320735939 88.297457563 78.690802076 28.10140592 
88.110358975 78.615907253 27.879206057 87.922838631 78.552828989 27.653720846 87.73591824 78.502275221 27.424615123 
87.550652806 78.465022769 27.191654092 87.368144554 78.441920374 26.954724151 87.189559508 78.433886323 26.713855234 
87.016143028 78.441898953 26.469247245 86.849232923 78.466978344 26.221300252 86.690267288 78.510157008 25.970647941 
86.54078234 78.572434746 25.718192427 86.402574165 78.655006835 25.465146918 86.277225145 78.758401739 25.213076861 
86.166407667 78.883072179 24.9638483 86.072143689 79.029629189 24.719786256 85.995675465 79.197392667 24.483287457 
85.93867415 79.385972496 24.257221067 85.901825469 79.593749493 24.044180222 85.886052218 79.819208372 23.847120901 
85.891005914 80.059747147 23.668151928 85.916642709 80.313037508 23.509713821 85.961620996 80.576084117 23.372959469 
86.024911048 80.846277583 23.259319566 86.104480082 81.120894497 23.168848394 86.198713553 81.397651627 23.102041899 
86.305344803 81.67450276 23.058172138 86.422333768 81.949818245 23.036608787 86.547720051 82.222279696 23.036735634 
86.679423142 82.490957977 23.057393029 86.815502545 82.755233741 23.097453262 86.954125906 83.014743602 23.155818114 
87.093545079 83.269351585 23.231377717 87.232090874 83.519114712 23.323023792 87.368167523 83.764251642 23.42965089 
87.50025059 84.005114628 23.55014797 87.626885777 84.242166442 23.683384817 87.746687956 84.475959937 23.828199503 
87.858342775 84.70711919 23.983385229 87.960616968 84.936323926 24.147670382 88.052379965 85.164298524 24.319692915 
88.132629555 85.391803436 24.497979597 88.200511534 85.619624929 24.680938339 88.255336707 85.848562732 24.866857633 
88.296598672 86.079417427 25.053907624 88.323909799 86.312998502 25.240125128 88.337242715 86.550064501 25.423434842 
88.336754165 86.791333251 25.60166742 88.322839265 87.037454193 25.772564475 88.296135641 87.28898426 25.933785774 
88.257446726 87.54639724 26.082821897 88.207845327 87.810000554 26.217051892 88.148793931 88.079788055 26.334041265 
88.081813716 88.355597975 26.430969319 88.008812019 88.636829039 26.505300848 87.931899813 88.922484468 26.554509757 
87.853390407 89.211079092 26.576410589 87.775747079 89.50062415 26.568936007 87.701414663 89.788662968 26.531232249 
87.6327269 90.072399738 26.462754743 87.571719312 90.348876766 26.364017172 87.519846339 90.615412393 26.23681689 
87.47814107 90.869592243 26.083275907 87.447033555 91.109592212 25.906187947 87.426287691 91.334456126 25.708843672 
87.415467956 91.543552281 25.494110143 87.413641278 91.737144399 25.265034246 87.419789394 91.915815992 25.024191107 
87.432903104 92.080275725 24.773680158 87.451821154 92.231705009 24.515434134 87.475444884 92.37135248 24.251001376 
87.502738544 92.500506194 23.981626844 87.532718916 92.620497625 23.708323169 87.564460564 92.732670446 23.431910302 
87.597094793 92.838362016 23.153054289 87.629805816 92.938893618 22.87230312 87.661825785 93.035564215 22.590118253 
87.692428013 93.129642925 22.306901063 87.720922414 93.222357847 22.023014851 87.746652598 93.314882812 21.7388033 
87.768995306 93.40832041 21.454604745 87.787362129 93.503680321 21.170761348 87.801192583 93.601861263 20.887624622 
87.809941628 93.70363965 20.605559325 87.813162086 93.80959304 20.324919769 87.81041881 93.920156484 20.046060959 
87.801313503 94.035605379 19.769326445 87.785482416 94.156057577 19.495038697 87.762534208 94.281521654 19.223515286 
87.732183238 94.411822981 18.955014787 87.694167665 94.546697859 18.689769383 87.648211023 94.685840914 18.428008903 
87.594046158 94.828909225 18.169960117 87.531348547 94.97556726 17.915889588 87.459899267 95.125438461 17.666041166 
87.379484354 95.278172669 17.420693541 87.289873433 95.433456783 17.180181778 87.190851761 95.591005506 16.944890365 
87.082211926 95.7505652 16.715266751 86.963717076 95.911919998 16.491857588 86.83533116 96.074853612 16.275163946 
86.696981572 96.239187229 16.065785963 86.54865221 96.404752596 15.864362789 86.390373135 96.571385285 15.671577685 
86.222185532 96.738919028 15.488194965 86.044408312 96.907158286 15.314779372 85.85734921 97.075900667 15.151940024 
85.661399455 97.244923468 15.000224545 85.456959549 97.413982886 14.86020389 85.244716464 97.582822498 14.732032731 
85.025302699 97.751185194 14.61586773 84.799370856 97.918814879 14.51175482 84.56759845 98.085465757 14.41958952 
84.330746135 98.250936384 14.338926431 84.089482722 98.415051932 14.269314593 83.84443395 98.577675849 14.210199733 
83.596140668 98.738692548 14.161051512 83.3451526 98.898060548 14.121063154 83.091910294 99.055753042 14.089524075 
82.836788535 99.211768562 14.065722445 82.580100051 99.36612421 14.048960374 82.322100169 99.518848391 14.038566959 
82.062984253 99.669960606 14.033948645 81.802916829 99.819500962 14.034466311 81.542009915 99.967485577 14.039579343 
81.280338921 100.11391539 14.048795443 81.017947794 100.25877319 14.061669296 80.75485352 100.40202131 14.077801419 
80.491050136 100.54359986 14.096836978 80.2265088 100.68341696 14.118475946 79.961189355 100.82136755 14.142443378 
79.695042546 100.95733106 14.168500858 79.428009116 101.09116266 14.196454681 79.160026251 101.22270356 14.226141786 
78.89103116 101.35178517 14.257426262 78.62095785 101.4782172 14.29020501 78.349753898 101.60182595 14.324385156 
78.077381532 101.72245737 14.359884694 77.80380991 101.83995876 14.396637649 77.529021959 101.95419791 14.434582092 
77.253009294 102.06505192 14.473661301 76.975784739 102.17244608 14.513808281 76.697386225 102.27637478 14.554939653 
76.417859439 102.37685991 14.596966625 76.13726346 102.47397455 14.639786375 75.855664901 102.56783255 14.68328321 
75.573142734 102.65861232 14.727322139 75.289793059 102.74658271 14.771745814 75.00571315 102.83205558 14.816382702 
74.721006835 102.91540655 14.861043248 74.435783899 102.99707314 14.905520624 74.150159667 103.07755105 14.949588764 
73.86426014 103.15740445 14.993003386 73.578223453 103.23725554 15.035508766 73.292200923 103.31777532 15.076829667 
73.006363917 103.39968493 15.116672865 72.720909024 103.48374712 15.154726852 72.436063975 103.57075607 15.190661366 
72.152100249 103.66155018 15.224111238 71.869331414 103.75695925 15.254701109 71.588115843 103.85778462 15.282043184 
71.308869494 103.96481371 15.305716147 71.032063751 104.07878255 15.325275407 70.758225178 104.20035574 15.340252525 
70.487973507 104.33019182 15.350099734 70.221886123 104.46863817 15.354367796 69.960592085 104.61597658 15.352546901 
69.704719154 104.77232214 15.344124208 69.454922333 104.93768194 15.328539553 69.211782147 105.11182657 15.305294653 
68.975787105 105.29432781 15.273955014 68.74739653 105.48466689 15.23406611 68.526998474 105.68220126 15.185198444 
68.3149927 105.88624434 15.126861747 68.111582447 106.09592881 15.05875336 67.916977415 106.31039033 14.980545992 
67.731375033 106.52874585 14.891925363 67.554962773 106.75009623 14.792608239 67.387934765 106.97353704 14.68234677 
67.230556335 107.19816619 14.56087498 67.083062211 107.42306984 14.42804418 66.945717473 107.64734295 14.283765543 
66.818864824 107.87008363 14.127971425 66.7028943 108.0903905 13.960664861 66.598238324 108.30736314 13.781932079 
66.505372926 108.52009601 13.591941405 66.424893702 108.72763387 13.390880665 66.3571706 108.92912123 13.179249529 
66.302656214 109.12367727 12.957561074 66.261749257 109.31044681 12.726447532 66.23482994 109.48857118 12.486619706 
66.222163088 109.6572394 12.238910368 66.223704548 109.81583355 11.984325698 66.239393362 109.96373768 11.723851242 
66.269067696 110.10038252 11.458486458 66.312458252 110.22524155 11.189230271 66.368914642 110.3380899 10.917110916 
66.437806396 110.43867377 10.643050012 66.518399492 110.52681764 10.367893622 66.609972118 110.60229469 10.092402945 
66.711546181 110.66515451 9.8172501914 66.82217461 110.71541933 9.5429997885 66.940903792 110.7531218 9.2701225866 
67.066765375 110.7783222 8.9990027804 67.198801083 110.79107346 8.7299524026 67.33606247 110.79141672 8.463223888 
67.47755893 110.77954961 8.1989837907 67.622357091 110.75560311 7.9373631488 67.769539732 110.71973315 7.6784487891 
67.918207876 110.67212514 7.4222880978 68.067482528 110.61299863 7.1688922666 68.216498185 110.54254248 6.9182544619 
68.364408709 110.46110322 6.6703045544 68.510399101 110.3690623 6.4249388913 68.653676165 110.26682013 6.1820241083 
68.793469277 110.15482462 5.941389756 68.929028689 110.0335649 5.7028303117 69.059585502 109.90351084 5.4661190695 
69.18442875 109.76525039 5.2309821723 69.302871708 109.61939745 4.9971253388 69.414218418 109.4665602 4.7642446345 
69.517776598 109.30736819 4.5320282269 69.612833684 109.14245992 4.3001653045 69.698625635 108.9724825 4.0683512076 
69.774530103 108.79818352 3.8363007228 69.839851901 108.62029125 3.6037595475 69.89390323 108.4395685 3.3705106374 
69.936013551 108.25681644 3.1363834466 
VERTICES 275 274
OFFSETS vtktypeint64
0 1 2 3 4 5 6 7 8 
9 10 11 12 13 14 15 16 17 
18 19 20 21 22 23 24 25 26 
27 28 29 30 31 32 33 34 35 
36 37 38 39 40 41 42 43 44 
45 46 47 48 49 50 51 52 53 
54 55 56 57 58 59 60 61 62 
63 64 65 66 67 68 69 70 71 
72 73 74 75 76 77 78 79 80 
81 82 83 84 85 86 87 88 89 
90 91 92 93 94 95 96 97 98 
99 100 101 102 103 104 105 106 107 
108 109 110 111 112 113 114 115 116 
117 118 119 120 121 122 123 124 125 
126 127 128 129 130 131 132 133 134 
135 136 137 138 139 140 141 142 143 
144 145 146 147 148 149 150 151 152 
153 154 155 156 157 158 159 160 161 
162 163 164 165 166 167 168 169 170 
171 172 173 174 175 176 177 178 179 
180 181 182 183 184 185 186 187 188 
189 190 191 192 193 194 195 196 197 
198 199 200 201 202 203 204 205 206 
207 208 209 210 211 212 213 214 215 
216 217 218 219 220 221 222 223 224 
225 226 227 228 229 230 231 232 233 
234 235 236 237 238 239 240 241 242 
243 244 245 246 247 248 249 250 251 
252 253 254 255 256 257 258 259 260 
261 262 263 264 265 266 267 268 269 
270 271 272 273 274 
CONNECTIVITY vtktypeint64
0 1 2 3 4 5 6 7 8 
9 10 11 12 13 14 15 16 17 
18 19 20 21 22 23 24 25 26 
27 28 29 30 31 32 33 34 35 
36 37 38 39 40 41 42 43 44 
45 46 47 48 49 50 51 52 53 
54 55 56 57 58 59 60 61 62 
63 64 65 66 67 68 69 70 71 
72 73 74 75 76 77 78 79 80 
81 82 83 84 85 86 87 88 89 
90 91 92 93 94 95 96 97 98 
99 100 101 102 103 104 105 106 107 
108 109 110 111 112 113 114 115 116 
117 118 119 120 121 122 123 124 125 
126 127 128 129 130 131 132 133 134 
135 136 137 138 139 140 141 142 143 
144 145 146 147 148 149 150 151 152 
153 154 155 156 157 158 159 160 161 
162 163 164 165 166 167 168 169 170 
171 172 173 174 175 176 177 178 179 
180 181 182 183 184 185 186 187 188 
189 190 191 192 193 194 195 196 197 
198 199 200 201 202 203 204 205 206 
207 208 209 210 211 212 213 214 215 
216 217 218 219 220 221 222 223 224 
225 226 227 228 229 230 231 232 233 
234 235 236 237 238 239 240 241 242 
243 244 245 246 247 248 249 250 251 
252 253 254 255 256 257 258 259 260 
261 262 263 264 265 266 267 268 269 
270 271 272 273 
LINES 2 274
OFFSETS vtktypeint64
0 274 
CONNECTIVITY vtktypeint64
0 1 2 3 4 5 6 7 8 
9 10 11 12 13 14 15 16 17 
18 19 20 21 22 23 24 25 26 
27 28 29 30 31 32 33 34 35 
36 37 38 39 40 41 42 43 44 
45 46 47 48 49 50 51 52 53 
54 55 56 57 58 59 60 61 62 
63 64 65 66 67 68 69 70 71 
72 73 74 75 76 77 78 79 80 
81 82 83 84 85 86 87 88 89 
90 91 92 93 94 95 96 97 98 
99 100 101 102 103 104 105 106 107 
108 109 110 111 112 113 114 115 116 
117 118 119 120 121 122 123 124 125 
126 127 128 129 130 131 132 133 134 
135 136 137 138 139 140 141 142 143 
144 145 146 147 148 149 150 151 152 
153 154 155 156 157 158 159 160 161 
162 163 164 165 166 167 168 169 170 
171 172 173 174 175 176 177 178 179 
180 181 182 183 184 185 186 187 188 
189 190 191 192 193 194 195 196 197 
198 199 200 201 202 203 204 205 206 
207 208 209 210 211 212 213 214 215 
216 217 218 219 220 221 222 223 224 
225 226 227 228 229 230 231 232 233 
234 235 236 237 238 239 240 241 242 
243 244 245 246 247 248 249 250 251 
252 253 254 255 256 257 258 259 260 
261 262 263 264 265 266 267 268 269 
270 271 272 273 
POINT_DATA 274
SCALARS Curvature double
LOOKUP_TABLE default
0.18641818567 0.18465513634 0.18260799088 0.1803634091 0.17799911955 0.17558683107 0.1731858584 0.17084537262 0.16860089398 
0.16647134363 0.16447324874 0.16263316832 0.16097392046 0.15949932947 0.15820111661 0.15707180457 0.1561154118 0.15533256137 
0.15471766133 0.15426086635 0.15394533987 0.15374113773 0.15362841451 0.15362662732 0.1537551521 0.15400032449 0.15431586741 
0.15465415401 0.15497404098 0.15521238655 0.15526441009 0.1550121217 0.15429661332 0.15293942484 0.15083976374 0.14801930603 
0.14454878561 0.14049537149 0.13599347138 0.1313229128 0.12686125608 0.12299847986 0.12010823095 0.11852621184 0.11851918976 
0.12025223759 0.12380870015 0.12918970769 0.13632016034 0.14505172774 0.15523999563 0.16678467234 0.17959844377 0.19359503644 
0.20868372863 0.22475081931 0.24159219992 0.25884882121 0.27609567551 0.29302698225 0.30923491103 0.32394944472 0.33624593817 
0.34535381654 0.35095899956 0.3527461301 0.35071948156 0.34494186366 0.33581918183 0.32374167333 0.3095504911 0.29409415655 
0.2779968298 0.26158663562 0.24519745514 0.22932085708 0.21435828672 0.20055677617 0.18808938457 0.17709656091 0.16767424102 
0.1598811711 0.15381387028 0.14956034362 0.14706086316 0.1460709351 0.14632381735 0.14774040627 0.15030391269 0.15400054834 
0.15883250499 0.1648537119 0.17216094673 0.18084852685 0.19116866105 0.20344117297 0.21779198969 0.23400095369 0.25166607417 
0.27051659856 0.29003742409 0.30931178513 0.327045603 0.34167833343 0.35163677424 0.35558510223 0.35307540589 0.3442881134 
0.32960055154 0.3098916642 0.28680443546 0.26188966989 0.23629372324 0.21073971287 0.18575523965 0.16171939541 0.138820369 
0.11717368225 0.096888338901 0.078106055144 0.061104209218 0.046519574194 0.035860904726 0.031712294469 0.035077606424 0.043204035079 
0.053031188243 0.062941817594 0.072133754557 0.080252809996 0.08720461525 0.092969030813 0.097558064652 0.10107158739 0.10374147819 
0.10587483542 0.10773306815 0.10952678912 0.11144406955 0.11361973343 0.11615164588 0.11908198467 0.12241458843 0.12611622254 
0.13011972077 0.13434689016 0.13870683907 0.1430823253 0.14732441378 0.15125355177 0.15465016989 0.15726898297 0.15885965356 
0.15927854632 0.15842585067 0.15622609934 0.1525867556 0.14751122559 0.14119901368 0.13391033909 0.12588212443 0.11733902038 
0.10851718802 0.09966658903 0.090993453593 0.082644713886 0.074746480419 0.067405326792 0.06072033964 0.054746600233 0.049494303827 
0.044978171389 0.041212002039 0.038211852568 0.035984936904 0.034522622793 0.033785543202 0.033679648015 0.034093932643 0.034916711558 
0.036037195519 0.037337320391 0.038684258246 0.039955542039 0.041046541909 0.041862570033 0.042304560966 0.042270720626 0.041685577348 
0.040526708703 0.038784316915 0.036413147691 0.033353844535 0.029599812878 0.025217396534 0.020338536489 0.015279257313 0.011056355257 
0.010500294367 0.015130235292 0.022629602514 0.031476860919 0.041120270432 0.051309581928 0.061887516337 0.072701192658 0.083562337968 
0.094272562835 0.10464031091 0.11446856644 0.12352664867 0.13158959053 0.13849316549 0.14422959177 0.1488319519 0.15232453002 
0.15476491858 0.15632934908 0.15730842737 0.15798491678 0.15861267693 0.15940744669 0.16054092445 0.16213147037 0.16426024867 
0.1669922133 0.17033613607 0.17420707407 0.17846992722 0.18298902278 0.18763554643 0.19225695666 0.19667677788 0.20070744173 
0.20413890738 0.20674236851 0.20834149046 0.20890756635 0.20845700839 0.20694092498 0.20430167794 0.20060446605 0.19605779234 
0.19086559181 0.18521423052 0.17928228771 0.17324979247 0.1672718638 0.161490059 0.15604590917 0.15104569816 0.146505863 
0.14238459023 0.13862977441 0.13519199644 0.13201213911 0.12902096795 0.1261584365 0.12338452978 0.12068439737 0.11810156395 
0.11575842938 0.11379756426 0.11234454442 0.11151335853 0.11142777003 0.11220810391 0.11392833582 0.11659651237 0.12017906003 
0.12458238596 0.12968660829 0.13534199238 0.14137287453 
