# vtk DataFile Version 5.1
vtk output
ASCII
DATASET POLYDATA
POINTS 237 double
103.25091727 72.894178417 29.426678557 103.10954542 72.846725825 29.166458664 102.9587141 72.780545036 28.915812545 
102.80029496 72.696258789 28.675485764 102.63615922 72.594645248 28.445925921 102.46810136 72.476459888 28.2273933 
102.29786341 72.342627444 28.019843001 102.12705524 72.19401317 27.823096435 101.95717404 72.031383483 27.636910052 
101.78963128 71.855426875 27.460997498 101.62581165 71.666675973 27.29512516 101.46697657 71.465840562 27.138878247 
101.31437044 71.253474124 26.991947662 101.16920892 71.030121359 26.854036153 101.03274668 70.796278861 26.72490871 
100.90611366 70.552606153 26.604225878 100.79039598 70.299799277 26.491648972 100.68663561 70.038608595 26.386823521 
100.59577979 69.769875956 26.28933698 100.51864913 69.494534816 26.19870107 100.45595368 69.213585492 26.114355481 
100.40813262 68.928123369 26.035603637 100.37542808 68.639262962 25.961660058 100.35788396 68.348110166 25.891655293 
100.35532457 68.055736799 25.824640688 100.36736544 67.763149656 25.759609609 100.39343157 67.471265328 25.695523166 
100.43278185 67.180891992 25.631338995 100.48453583 66.892718009 25.566041919 100.54770143 66.607306172 25.498675595 
100.62120283 66.325092238 25.428373746 100.70391114 66.046387831 25.354386917 100.79467701 65.771386843 25.27610466 
100.89236435 65.500175795 25.193068653 100.99588481 65.232747961 25.104976985 101.10423938 64.969030461 25.011663069 
101.21652625 64.708891888 24.913097206 101.33196847 64.452166324 24.809361456 101.44994262 64.198695734 24.700590352 
101.56997227 63.948348251 24.586942666 101.69172467 63.701046664 24.468555827 101.8150055 63.456809106 24.345482532 
101.93969942 63.215674678 24.217800981 102.0658013 62.977824549 24.085428377 102.19337884 62.743571183 23.948148767 
102.32250478 62.513252786 23.8057558 102.45332859 62.287486957 23.657736274 102.5859261 62.066844136 23.503696888 
102.72041925 61.852266589 23.342887136 102.85681702 61.644686339 23.174675494 102.99510595 61.445456423 22.998126303 
103.13512951 61.25608503 22.812350312 103.27658992 61.078422844 22.616388657 103.41899546 60.914953618 22.409103795 
103.56154608 60.768462566 22.18961399 103.70306894 60.642408078 21.957187442 103.84189192 60.540899177 21.71153097 
103.97567483 60.468862973 21.453054111 104.10147686 60.431085116 21.18358581 104.21570198 60.432395933 20.906485305 
104.31464146 60.47603285 20.626989409 104.39487313 60.563313143 20.351762643 104.45406848 60.692658733 20.088003563 
104.49150303 60.859767947 19.842065933 104.50779612 61.05896033 19.61868627 104.50427168 61.284454649 19.421189417 
104.48327245 61.530135217 19.250650416 104.44693729 61.791050167 19.107436847 104.39734294 62.062981617 18.991171665 
104.33651968 62.342349475 18.900675905 104.26615912 62.626319625 18.834669086 104.18769431 62.91260045 18.791768328 
104.10240865 63.199345176 18.770263128 104.01134439 63.485123214 18.768473543 103.91534199 63.768831269 18.784770534 
103.81507668 64.049629787 18.817569433 103.71117055 64.327004913 18.864974464 103.60405149 64.600600173 18.925441986 
103.49410981 64.870310763 18.99725527 103.38167932 65.136237605 19.078704071 103.26699783 65.398558177 19.16831586 
103.15036524 65.657723728 19.264368116 103.03203907 65.914234311 19.365358483 102.91230498 66.168698034 19.469814011 
102.79152468 66.421843149 19.576253494 102.67010604 66.674420915 19.683314056 102.5485398 66.927214952 19.789693787 
102.42741328 67.181011139 19.894169233 102.30739896 67.436547301 19.995639086 102.18925716 67.694499415 20.093108444 
102.07382648 67.955455518 20.185700626 101.96200778 68.219896234 20.272659608 101.85474446 68.48818178 20.353345471 
101.75300115 68.760545397 20.427222703 101.65776553 69.037104744 20.493819585 101.56998071 69.317832027 20.552761524 
101.490552 69.602578645 20.603717447 101.42034447 69.891084622 20.646370339 101.36016429 70.182978399 20.680409736 
101.31075032 70.477781346 20.705520128 101.27276744 70.774911878 20.721375186 101.24690418 71.073696328 20.72755583 
101.23359188 71.373337567 20.723773671 101.23323329 71.672964021 20.709694542 101.24615775 71.971621665 20.684984174 
101.27272121 72.268252328 20.649236671 101.31304098 72.56173508 20.602199475 101.36715089 72.850895972 20.543663965 
101.43507743 73.134479455 20.473412494 101.51693663 73.411060732 20.391139321 101.61246403 73.679295934 20.296868347 
101.7215116 73.937679564 20.190532841 101.84388932 74.184582217 20.072112539 101.97940516 74.418158244 19.941594217 
102.12756557 74.636645418 19.799246094 102.28786148 74.83805446 19.645344669 102.45959676 75.020301204 19.48031546 
102.64182935 75.181270038 19.304765983 102.83331548 75.31891871 19.119511418 103.03247337 75.431422848 18.925581029 
103.23738313 75.517347126 18.724193186 103.44583767 75.57581139 18.51669207 103.65544332 75.606615884 18.304449192 
103.86375537 75.610290889 18.088746478 104.06841891 75.588059565 17.87066432 104.2672861 75.541722924 17.65099905 
104.45848888 75.473502027 17.430222387 104.64046372 75.385874259 17.208484042 104.81193701 75.28143502 16.985646552 
104.97188581 75.162797786 16.761338864 105.11949036 75.032535245 16.535017375 105.25402285 74.893122893 16.306009372 
105.37498667 74.747053833 16.073605839 105.48200593 74.596735857 15.837108778 105.57479065 74.444499135 15.595874445 
105.65317813 74.292610233 15.34937143 105.71715462 74.143248135 15.097228138 105.76688108 73.99846135 14.839270107 
105.80267147 73.860134976 14.575522662 105.82513519 73.729856507 14.306264591 105.83504634 73.608904216 14.031948727 
105.83334772 73.498202347 13.753165905 105.82112163 73.39830269 13.470588818 105.79954194 73.309400826 13.184910273 
105.76982492 73.23138108 12.896788839 105.73318562 73.163878884 12.606809359 105.69079842 73.106364414 12.3154585 
105.64377134 73.05823403 12.023116765 105.59320021 73.018719361 11.730073799 105.54007365 72.987117505 11.436520937 
105.48531264 72.962764779 11.142575554 105.42977749 72.945113149 10.848295376 105.37428951 72.933611412 10.553701311 
105.31960994 72.927821707 10.258788258 105.26645858 72.927426557 9.9635390754 105.21554697 72.932250475 9.6679346332 
105.16752979 72.942139084 9.3719728258 105.12303848 72.957048617 9.0756713176 105.08269299 72.97702813 8.7790755887 
105.04711597 73.002212234 8.4822665829 105.01692265 73.032789482 8.1853691022 104.99267432 73.068943375 7.8885551474 
104.97495577 73.110906558 7.5920459101 104.96434879 73.158909314 7.2961153037 104.96143152 73.213157289 7.0010904755 
104.96678874 73.273818566 6.7073526937 104.98100715 73.341000916 6.4153362389 105.00459295 73.414683292 6.125504624 
105.03805918 73.494777569 5.8383611507 105.08187847 73.58109777 5.5544349056 105.13647073 73.673364401 5.2742720093 
105.20219044 73.771217195 4.9984277066 105.27931557 73.874233635 4.7274596169 105.36806418 73.981962181 4.4619361389 
105.46855594 74.093932074 4.2024213041 105.58075255 74.209665039 3.9494379053 105.70456144 74.328734874 3.7035192797 
105.83979726 74.450768213 3.4651889882 105.98618656 74.575457396 3.2349597887 106.14337595 74.702567066 3.0133330615 
106.31100786 74.831950731 2.8008635581 106.48850633 74.963499008 2.5979537689 106.67531571 75.097180331 2.4050435579 
106.87083097 75.233010788 2.2225415036 107.07440603 75.371039377 2.0508169245 107.28537779 75.511337732 1.8902171984 
107.50305101 75.65397865 1.741029511 107.72667014 75.799001875 1.6033796473 107.95551414 75.946428815 1.4773607365 
108.18887249 76.096240718 1.362965942 108.42605931 76.248371645 1.2600784743 108.66643246 76.402710085 1.1684864457 
108.90940093 76.559097538 1.0878708606 109.15442009 76.717316656 1.0177098553 109.40103482 76.877127361 0.95743514958 
109.64886854 77.038265408 0.90638934188 109.8976242 77.200452621 0.86384376075 110.14708352 77.363408289 0.82904455416 
110.39709566 77.526851016 0.80117418453 110.64757032 77.690510602 0.77937788784 110.89847051 77.854136694 0.76284198126 
111.14979834 78.017499206 0.75077876339 111.40158511 78.180388896 0.74244947655 111.65388081 78.342617961 0.73716541568 
111.90673883 78.504030463 0.73428019775 112.16021591 78.664492091 0.73324538122 112.4143635 78.823892869 0.73359455209 
112.6692238 78.982146392 0.7349484531 112.92483024 79.139184156 0.73701795625 113.18119082 79.294980224 0.73959316419 
113.43830278 79.449526264 0.74255283259 113.6961472 79.602840324 0.74584922519 113.95468908 79.754967308 0.74949814663 
114.21388 79.905975084 0.75356916134 114.473653 80.055964114 0.75816752435 114.73392585 80.205062659 0.7634156509 
114.99460581 80.353418848 0.76943947569 115.2555885 80.501203059 0.77635006664 115.5167591 80.648606467 0.78422807969 
115.77799297 80.795840224 0.79311649453 116.03915612 80.943136786 0.80298808545 116.30010887 81.090743176 0.81375505335 
116.56070528 81.238922374 0.82525882632 116.82079354 81.387951912 0.83726571578 117.08021355 81.538125947 0.8494654293 
117.33879746 81.689750441 0.8614683867 117.59637586 81.843126036 0.87281703562 117.85276542 81.998561282 0.88298999946 
118.10776879 82.15636265 0.89140819755 118.36117038 82.316829634 0.89744361646 118.61272501 82.480259621 0.90041703216 
118.8621631 82.646924516 0.89962483019 119.10919181 82.817057836 0.89436443335 119.35347565 82.990872113 0.88391670604 
119.59464077 83.168540998 0.86756896625 119.83227495 83.350191293 0.84462773279 120.06593036 83.535894966 0.81443298882 

VERTICES 238 237
OFFSETS vtktypeint64
0 1 2 3 4 5 6 7 8 
9 10 11 12 13 14 15 16 17 
18 19 20 21 22 23 24 25 26 
27 28 29 30 31 32 33 34 35 
36 37 38 39 40 41 42 43 44 
45 46 47 48 49 50 51 52 53 
54 55 56 57 58 59 60 61 62 
63 64 65 66 67 68 69 70 71 
72 73 74 75 76 77 78 79 80 
81 82 83 84 85 86 87 88 89 
90 91 92 93 94 95 96 97 98 
99 100 101 102 103 104 105 106 107 
108 109 110 111 112 113 114 115 116 
117 118 119 120 121 122 123 124 125 
126 127 128 129 130 131 132 133 134 
135 136 137 138 139 140 141 142 143 
144 145 146 147 148 149 150 151 152 
153 154 155 156 157 158 159 160 161 
162 163 164 165 166 167 168 169 170 
171 172 173 174 175 176 177 178 179 
180 181 182 183 184 185 186 187 188 
189 190 191 192 193 194 195 196 197 
198 199 200 201 202 203 204 205 206 
207 208 209 210 211 212 213 214 215 
216 217 218 219 220 221 222 223 224 
225 226 227 228 229 230 231 232 233 
234 235 236 237 
CONNECTIVITY vtktypeint64
0 1 2 3 4 5 6 7 8 
9 10 11 12 13 14 15 16 17 
18 19 20 21 22 23 24 25 26 
27 28 29 30 31 32 33 34 35 
36 37 38 39 40 41 42 43 44 
45 46 47 48 49 50 51 52 53 
54 55 56 57 58 59 60 61 62 
63 64 65 66 67 68 69 70 71 
72 73 74 75 76 77 78 79 80 
81 82 83 84 85 86 87 88 89 
90 91 92 93 94 95 96 97 98 
99 100 101 102 103 104 105 106 107 
108 109 110 111 112 113 114 115 116 
117 118 119 120 121 122 123 124 125 
126 127 128 129 130 131 132 133 134 
135 136 137 138 139 140 141 142 143 
144 145 146 147 148 149 150 151 152 
153 154 155 156 157 158 159 160 161 
162 163 164 165 166 167 168 169 170 
171 172 173 174 175 176 177 178 179 
180 181 182 183 184 185 186 187 188 
189 190 191 192 193 194 195 196 197 
198 199 200 201 202 203 204 205 206 
207 208 209 210 211 212 213 214 215 
216 217 218 219 220 221 222 223 224 
225 226 227 228 229 230 231 232 233 
234 235 236 
LINES 2 237
OFFSETS vtktypeint64
0 237 
CONNECTIVITY vtktypeint64
0 1 2 3 4 5 6 7 8 
9 10 11 12 13 14 15 16 17 
18 19 20 21 22 23 24 25 26 
27 28 29 30 31 32 33 34 35 
36 37 38 39 40 41 42 43 44 
45 46 47 48 49 50 51 52 53 
54 55 56 57 58 59 60 61 62 
63 64 65 66 67 68 69 70 71 
72 73 74 75 76 77 78 79 80 
81 82 83 84 85 86 87 88 89 
90 91 92 93 94 95 96 97 98 
99 100 101 102 103 104 105 106 107 
108 109 110 111 112 113 114 115 116 
117 118 119 120 121 122 123 124 125 
126 127 128 129 130 131 132 133 134 
135 136 137 138 139 140 141 142 143 
144 145 146 147 148 149 150 151 152 
153 154 155 156 157 158 159 160 161 
162 163 164 165 166 167 168 169 170 
171 172 173 174 175 176 177 178 179 
180 181 182 183 184 185 186 187 188 
189 190 191 192 193 194 195 196 197 
198 199 200 201 202 203 204 205 206 
207 208 209 210 211 212 213 214 215 
216 217 218 219 220 221 222 223 224 
225 226 227 228 229 230 231 232 233 
234 235 236 
POINT_DATA 237
SCALARS Curvature double
LOOKUP_TABLE default
0.26735920594 0.25802685708 0.24729429231 0.2358983093 0.22452204788 0.21375323719 0.20405288682 0.19575131601 0.18906173376 
0.18408307992 0.1808144823 0.17912019822 0.17878290972 0.17951388429 0.18096399062 0.1827434257 0.18446119262 0.18573741537 
0.18624247814 0.18569270287 0.18390304243 0.18077020454 0.17632552789 0.17067095602 0.16402049419 0.15661835532 0.14874981256 
0.14067241682 0.13260208991 0.12467871699 0.11701407117 0.10967222432 0.10270722856 0.096170670619 0.090155468186 0.084781661485 
0.080168683799 0.076412344741 0.073538950004 0.071543870626 0.070395929993 0.070141863144 0.070905825621 0.072960917953 0.07671097936 
0.082546289129 0.090937228258 0.10214187406 0.11650263412 0.13418190176 0.15548613945 0.18068309772 0.21009579123 0.24412804329 
0.28297672232 0.32650836387 0.37379650289 0.4227240394 0.46937256628 0.50807965197 0.53270603219 0.53930566986 0.52794777727 
0.50271900198 0.46923718115 0.43257056224 0.39626410278 0.36217524279 0.33103299314 0.30280340052 0.27718165769 0.2537372668 
0.23200019838 0.21154114102 0.19202158758 0.17319932763 0.15486618079 0.13688425455 0.11915378216 0.10162998827 0.084333566326 
0.067375525273 0.051063565166 0.036197473187 0.025168536896 0.023418298553 0.031908510267 0.04456564971 0.058135949033 0.071542207344 
0.084359817908 0.096400851452 0.10759818699 0.11795240662 0.12751532938 0.13636330883 0.14458839944 0.15227438781 0.15949551451 
0.166309153 0.17275249774 0.17885971175 0.18466349229 0.19020730556 0.19554885887 0.20076851655 0.20597816657 0.21132218645 
0.21699175481 0.22319516635 0.23013398312 0.23797873634 0.2468421478 0.25673472806 0.26749545245 0.27877136584 0.28998654414 
0.30032113365 0.30877775041 0.31426248616 0.31581951119 0.31278852186 0.30502034975 0.29288175494 0.27725980284 0.25933879211 
0.24045147527 0.22189027781 0.20486375322 0.19041145384 0.17932008416 0.17204843495 0.16861864797 0.16857486452 0.17105863197 
0.17496196518 0.17909948582 0.18238223552 0.18389838361 0.18304656001 0.17951860905 0.17333488074 0.16476171539 0.1542730936 
0.14243588512 0.12985812623 0.11712424271 0.10477828991 0.093314380106 0.083164432781 0.074738458959 0.068376951513 0.064309774307 
0.062556962157 0.06295351647 0.065162867309 0.068773651114 0.073423900439 0.078833101041 0.08478201677 0.091100586777 0.097642903495 
0.10427704854 0.11087395171 0.11730239592 0.12343905242 0.12916789216 0.13440119788 0.13907481063 0.14315448986 0.14663443039 
0.14952473636 0.15185405113 0.15364921958 0.15494870462 0.15578890237 0.1562141919 0.15627087752 0.15601475084 0.15550226838 
0.15478601991 0.15390912926 0.15290256393 0.15176620459 0.15045339759 0.14887317785 0.14691314156 0.14444180981 0.14132381065 
0.13743006916 0.13266845921 0.12698483221 0.12038153236 0.11292131873 0.10471424417 0.095914498517 0.086705068562 0.077293753995 
0.067897791024 0.058739787087 0.050039329803 0.042015113639 0.03488912311 0.02887709394 0.024159844336 0.020825530992 0.018786501134 
0.017725627889 0.017213080008 0.016861081198 0.016437063999 0.015846109996 0.015100626047 0.014281828843 0.013493516991 0.012815914124 
0.012271216138 0.011826740763 0.011424398057 0.011061750597 0.010867370376 0.011166058443 0.012402699541 0.014899868982 0.018701297258 
0.023664491686 0.029597355148 0.036330100938 0.043709375598 0.051595576179 0.059861110109 0.068381637445 0.077046172721 0.085744535081 
0.09437522349 0.10282955397 0.1109943754 
