# vtk DataFile Version 5.1
vtk output
ASCII
DATASET POLYDATA
POINTS 304 double
86.262898273 88.668635424 33.889287782 86.341100641 88.589912991 33.61057623 86.426680183 88.50758074 33.335092134 
86.518971871 88.421661584 33.062889492 86.617335455 88.332168317 32.79398409 86.721172046 88.239090409 32.528371859 
86.829917085 88.142389662 32.266036728 86.943005208 88.042019087 32.006935681 87.059821563 87.937983145 31.750953004 
87.179819911 87.830237766 31.497993676 87.30247547 87.718717204 31.2479609 87.427282229 87.603315373 31.000769788 
87.553697066 87.484014283 30.756261639 87.681225407 87.360735102 30.514318267 87.809381803 87.233386165 30.274826571 
87.937680118 87.101820784 30.037701822 88.065638031 86.966013303 29.802795687 88.192787698 86.825877429 29.570002668 
88.318665134 86.681333216 29.339222229 88.442783927 86.532256518 29.110380923 88.56469908 86.378636626 28.883367925 
88.6839728 86.220457373 28.658090182 88.800173462 86.057713817 28.434463734 88.912884835 85.890430634 28.212406398 
89.021653203 85.71860695 27.991855106 89.126150165 85.54239414 27.772707384 89.226028984 85.361919012 27.554879592 
89.320971912 85.177341545 27.33828559 89.41069479 84.988855293 27.122835005 89.494889364 84.796649359 26.908441858 
89.573376621 84.601006791 26.694994779 89.645995033 84.402216253 26.482381035 89.712597553 84.200574372 26.270483672 
89.773063224 83.996392611 26.059178182 89.827194279 83.789965657 25.848336864 89.875010236 83.581669005 25.637808805 
89.916447384 83.371846066 25.427444258 89.951434199 83.160845054 25.2170854 89.979800825 82.949017431 25.006560708 
90.001592615 82.736748802 24.79569836 90.016726069 82.52441174 24.584322227 90.024977437 82.312402619 24.372237525 
90.026281942 82.10113063 24.159264209 90.020517673 81.891014297 23.94522477 90.007371425 81.682532808 23.729917032 
89.986641077 81.476176341 23.513166069 89.958116377 81.272455557 23.294814845 89.921384513 81.071991916 23.074683608 
89.876094605 80.875443041 22.852628648 89.821962763 80.683482135 22.628552246 89.758587608 80.496902846 22.402364286 
89.685404293 80.316704026 22.173978341 89.602204616 80.143755798 21.943433678 89.508646689 79.979120935 21.710788172 
89.404456622 79.823948693 21.476168915 89.289461851 79.679459965 21.239781852 89.163545979 79.547021615 21.001910414 
89.026937072 79.427819511 20.76294916 88.879970955 79.323093219 20.523358656 88.723194048 79.234006168 20.283666968 
88.557376619 79.161584238 20.044448734 88.383499563 79.106669222 19.806298185 88.202723693 79.069885223 19.569800437 
88.016348331 79.051619785 19.335503457 87.825763737 79.052022224 19.103894136 87.632403331 79.071017117 18.875380859 
87.437700091 79.108330199 18.650284195 87.243053305 79.163552762 18.4288423 87.04982752 79.236250484 18.211234829 
86.859286618 79.325620717 17.997505481 86.67261179 79.430948845 17.787667498 86.490903916 79.55149371 17.581689357 
86.315254019 79.686628523 17.379541135 86.146681851 79.835631185 17.181149957 85.986044758 79.997616898 16.986385625 
85.834234721 80.171878914 16.795163597 85.692333935 80.357936163 16.607477544 85.560981648 80.554814633 16.423189063 
85.440996193 80.761810515 16.242260755 85.333516346 80.97842748 16.064768658 85.239065439 81.20368104 15.890657156 
85.15844192 81.436811917 15.719992572 85.092791129 81.677163767 15.55296987 85.042563508 81.923703151 15.389669442 
85.008483489 82.175519176 15.230297795 84.991522001 82.431692922 15.075187919 84.992145829 82.691108155 14.92461963 
85.010827707 82.952632883 14.778943755 85.048072191 83.215089298 14.63859709 85.104538416 83.477203747 14.504159592 
85.180154245 83.737660813 14.37607831 85.275020048 83.995118412 14.25493892 85.389075429 84.248207091 14.141369841 
85.522256262 84.495482998 14.036115643 85.674053113 84.735578559 13.939841387 85.843769728 84.967191041 13.853208246 
86.03062315 85.189044587 13.776921557 86.233650617 85.399943369 13.711676606 86.451803448 85.598713455 13.65822223 
86.683776445 85.7843542 13.617220125 86.928038061 85.956116198 13.589185189 87.18305126 86.113307305 13.574665768 
87.44719408 86.255372803 13.574162502 87.718801344 86.381826837 13.588189288 87.996132003 86.49227906 13.617249509 
88.277327496 86.586711788 13.661569588 88.560563936 86.665069733 13.721477292 88.843979999 86.727405834 13.797260255 
89.125671979 86.773867406 13.889174237 89.403634371 86.804570716 13.997573741 89.675905152 86.820085558 14.122389363 
89.94046667 86.82092405 14.263649193 90.195280913 86.80774512 14.421264036 90.438321037 86.78137753 14.594996133 
90.667621108 86.742840813 14.784428606 90.881344024 86.693359717 14.988941635 91.077745017 86.634316116 15.207786202 
91.255539671 86.567385281 15.439863203 91.413741227 86.494349095 15.683968344 91.551726058 86.417083798 15.938802508 
91.669276841 86.337523075 16.203009082 91.766571021 86.257607639 16.475233254 91.844059258 86.179254034 16.754197778 
91.902415388 86.104366329 17.038720272 91.942912049 86.034683816 17.327633655 91.966747889 85.971875045 17.619963807 
91.975046534 85.917648128 17.914860391 91.969164383 85.873612154 18.211505994 91.95061708 85.841185277 18.509123714 
91.920688736 85.82196231 18.806963096 91.880672033 85.817631562 19.104201596 91.832098659 85.829466105 19.399949505 
91.776313743 85.858946753 19.693180665 91.714628139 85.907748559 19.98262218 91.648498649 85.977077639 20.266832536 
91.579342691 86.068010313 20.544133834 91.508550427 86.181456457 20.812573449 91.437483105 86.317954541 21.069973195 
91.367429003 86.477575689 21.313995583 91.299548005 86.659857175 21.54224154 91.234823357 86.863791953 21.752359575 
91.174030507 87.08787412 21.942143124 91.117718316 87.330177183 22.109603885 91.066202969 87.588446849 22.253015346 
91.019574735 87.860193862 22.370924084 90.977721781 88.142774923 22.462130386 90.940365034 88.433447232 22.525655569 
90.907092189 88.729393194 22.560714037 90.877387964 89.027723178 22.566697204 90.850660018 89.325466142 22.543186607 
90.82625762 89.619566105 22.490007608 90.803486349 89.906907224 22.407319263 90.781626312 90.184313217 22.295562058 
90.759941737 90.448805795 22.155946872 90.737727868 90.697777422 21.990304387 90.714332446 90.929087537 21.800912101 
90.689174772 91.141239591 21.590468027 90.661762909 91.333461862 21.36191559 90.631703104 91.505712323 21.118250724 
90.598700174 91.658608662 20.862343026 90.56255014 91.793295174 20.596794289 90.523128541 91.911285971 20.323855878 
90.480374825 92.014315514 20.045402722 90.434244001 92.104107709 19.762923165 90.384743812 92.182513732 19.477632208 
90.331956381 92.251472257 19.190491148 90.27592379 92.312661735 18.902201196 90.21671478 92.367748886 18.613313107 
90.154506677 92.418452425 18.32425035 90.08938581 92.466247159 18.035331924 90.021566336 92.512659128 17.746808554 
89.951269159 92.559079884 17.458880008 89.878681684 92.606890212 17.171748661 89.804137046 92.657330897 16.885571428 
89.727936234 92.711581458 16.60053045 89.650407054 92.770835962 16.31684878 89.571959076 92.835976099 16.034716646 
89.492988831 92.907833578 15.754368296 89.413903112 92.987094779 15.476055866 89.335113267 93.074363364 15.200066109 
89.25699995 93.169866398 14.92662442 89.179903771 93.273758474 14.655967858 89.104109389 93.386022765 14.388303186 
89.029830281 93.506484351 14.123794847 88.957201796 93.634842608 13.862560732 88.886291538 93.770756704 13.604697255 
88.817053877 93.913678326 13.350189598 88.749388547 94.063100997 13.099013727 88.683134817 94.218508403 12.851113048 
88.618081469 94.379394615 12.606408456 88.553982959 94.545328511 12.364841529 88.490541998 94.715832889 12.126302321 
88.427444218 94.890485861 11.890690981 88.364366432 95.068939157 11.657938542 88.300970894 95.250934039 11.428031579 
88.236916534 95.436203885 11.200940355 88.171874666 95.624523465 10.976655788 88.105517037 95.815741131 10.755226593 
88.037482808 96.009798521 10.53679726 87.967484294 96.206569143 10.321438353 87.895214735 96.406020505 10.109320314 
87.820337928 96.608184146 9.9007035364 87.742561795 96.813072365 9.6958407436 87.661620503 97.020702945 9.4950059679 
87.577230827 97.23112659 9.2985454056 87.489040086 97.444449655 9.1069426962 87.396844995 97.66066276 8.9205378805 
87.300383315 97.879794861 8.7397884024 87.199403463 98.101849093 8.5651773624 87.093595134 98.326833736 8.3973087869 
86.982806192 98.554626513 8.2365975776 86.866845564 98.785095621 8.0835357999 86.745545445 99.018057424 7.9386032072 
86.618770184 99.253272176 7.8022480428 86.486356511 99.490462956 7.6749791662 86.348308111 99.729256076 7.5570414924 
86.204611641 99.969260379 7.4487029994 86.055292164 100.21005391 7.3501638411 85.90041535 100.45119455 7.2615486247 
85.740084525 100.69223236 7.182908779 85.574379722 100.93271013 7.1143379334 85.403534178 101.17219942 7.0556393735 
85.227749776 101.41029769 7.0066721148 85.047255914 101.64663834 6.9672469405 84.862306191 101.88089754 6.9371363706 
84.673153591 102.11278481 6.9161339416 84.480087671 102.34206509 6.9039790749 84.283449427 102.56858558 6.9003094326 
84.083558979 102.79222731 6.9048224668 83.880744065 103.01292165 6.9172082292 83.675316724 103.23062231 6.9372136224 
83.467620262 103.44535998 6.9644949445 83.257995145 103.65721804 6.9986722629 83.046750735 103.86629181 7.0394065938 
82.834174492 104.07269637 7.0863614507 82.62052375 104.27654472 7.1392376518 82.406052193 104.47802982 7.1975690526 
82.190961409 104.6773156 7.2609603497 81.975416427 104.87457009 7.32899724 81.759540396 105.06993532 7.4013046984 
81.543427661 105.26360968 7.4773581574 81.327129948 105.45576207 7.5566783359 81.110665551 105.6465571 7.6387741854 
80.894020324 105.8361428 7.7231641452 80.677159108 106.02469999 7.809286777 80.460026487 106.21239577 7.8965998413 
80.242553743 106.3993966 7.9845557296 80.024658245 106.58586825 8.0725889017 79.806268801 106.77199801 8.1601198912 
79.587319727 106.95797203 8.2465765578 79.367758116 107.14398343 8.331382779 79.147541866 107.33024087 8.4139199087 
78.926672035 107.51695803 8.4936209126 78.705177391 107.70435467 8.5699178687 78.48312171 107.89265949 8.6422424529 
78.260607124 108.08212048 8.7099897353 78.037788181 108.27297738 8.7726201665 77.814863292 108.46545883 8.829644934 
77.592073015 108.65979577 8.8805718285 77.369702501 108.85620952 8.9249422119 77.148094644 109.05494046 8.9622402594 
76.92761226 109.25614908 8.992184449 76.708654199 109.45999682 9.0144711065 76.491644476 109.66661911 9.0288546928 
76.277023267 109.87612121 9.0351552789 76.065275219 110.08861042 9.0331665237 75.856826444 110.30410048 9.0229183901 
75.652104971 110.52259364 9.0044482036 75.451524896 110.74406783 8.9778374484 75.255473933 110.96847307 8.9432204578 
75.064372249 111.19576768 8.9006819765 74.878503234 111.42582594 8.8505079622 74.69814241 111.65852392 8.792950054 
74.523546658 111.89372972 8.7282480562 74.354980624 112.13131072 8.6566010738 74.192684649 112.37111596 8.5782063002 
74.036772391 112.61294691 8.4933478977 73.887403307 112.8566163 8.4022094572 73.744755302 113.10192779 8.3049128205 
73.60901526 113.34866483 8.2015299322 73.480212483 113.59656268 8.0922211587 73.35845062 113.8453552 7.9770323491 
73.243860178 114.09475216 7.8559419524 73.136564573 114.3444262 7.7288876247 73.036531991 114.59401665 7.5958853501 
72.943797845 114.84313763 7.4568505184 72.858393808 115.09136579 7.3116572025 72.78038421 115.33822341 7.1601065645 
72.709628453 115.58323525 7.0021397504 72.646061434 115.82588278 6.8376048547 72.58959186 116.06561756 6.666347427 
72.540160675 116.30182735 6.4881557845 72.497598052 116.53390749 6.3029075186 72.461693255 116.76125321 6.1105190079 
72.432253171 116.98322189 5.9108909941 72.409062979 117.19915844 5.7039557356 72.391945621 117.40832625 5.4896095602 
72.380609947 117.61008442 5.2679068967 72.374756755 117.80380705 5.0389463369 72.37409541 117.98885751 4.8028499481 
72.378344637 118.1645724 4.5597603919 72.387212503 118.33028511 4.3098686194 72.40029982 118.48559899 4.053567723 
72.417257824 118.63007055 3.7912211544 
VERTICES 305 304
OFFSETS vtktypeint64
0 1 2 3 4 5 6 7 8 
9 10 11 12 13 14 15 16 17 
18 19 20 21 22 23 24 25 26 
27 28 29 30 31 32 33 34 35 
36 37 38 39 40 41 42 43 44 
45 46 47 48 49 50 51 52 53 
54 55 56 57 58 59 60 61 62 
63 64 65 66 67 68 69 70 71 
72 73 74 75 76 77 78 79 80 
81 82 83 84 85 86 87 88 89 
90 91 92 93 94 95 96 97 98 
99 100 101 102 103 104 105 106 107 
108 109 110 111 112 113 114 115 116 
117 118 119 120 121 122 123 124 125 
126 127 128 129 130 131 132 133 134 
135 136 137 138 139 140 141 142 143 
144 145 146 147 148 149 150 151 152 
153 154 155 156 157 158 159 160 161 
162 163 164 165 166 167 168 169 170 
171 172 173 174 175 176 177 178 179 
180 181 182 183 184 185 186 187 188 
189 190 191 192 193 194 195 196 197 
198 199 200 201 202 203 204 205 206 
207 208 209 210 211 212 213 214 215 
216 217 218 219 220 221 222 223 224 
225 226 227 228 229 230 231 232 233 
234 235 236 237 238 239 240 241 242 
243 244 245 246 247 248 249 250 251 
252 253 254 255 256 257 258 259 260 
261 262 263 264 265 266 267 268 269 
270 271 272 273 274 275 276 277 278 
279 280 281 282 283 284 285 286 287 
288 289 290 291 292 293 294 295 296 
297 298 299 300 301 302 303 304 
CONNECTIVITY vtktypeint64
0 1 2 3 4 5 6 7 8 
9 10 11 12 13 14 15 16 17 
18 19 20 21 22 23 24 25 26 
27 28 29 30 31 32 33 34 35 
36 37 38 39 40 41 42 43 44 
45 46 47 48 49 50 51 52 53 
54 55 56 57 58 59 60 61 62 
63 64 65 66 67 68 69 70 71 
72 73 74 75 76 77 78 79 80 
81 82 83 84 85 86 87 88 89 
90 91 92 93 94 95 96 97 98 
99 100 101 102 103 104 105 106 107 
108 109 110 111 112 113 114 115 116 
117 118 119 120 121 122 123 124 125 
126 127 128 129 130 131 132 133 134 
135 136 137 138 139 140 141 142 143 
144 145 146 147 148 149 150 151 152 
153 154 155 156 157 158 159 160 161 
162 163 164 165 166 167 168 169 170 
171 172 173 174 175 176 177 178 179 
180 181 182 183 184 185 186 187 188 
189 190 191 192 193 194 195 196 197 
198 199 200 201 202 203 204 205 206 
207 208 209 210 211 212 213 214 215 
216 217 218 219 220 221 222 223 224 
225 226 227 228 229 230 231 232 233 
234 235 236 237 238 239 240 241 242 
243 244 245 246 247 248 249 250 251 
252 253 254 255 256 257 258 259 260 
261 262 263 264 265 266 267 268 269 
270 271 272 273 274 275 276 277 278 
279 280 281 282 283 284 285 286 287 
288 289 290 291 292 293 294 295 296 
297 298 299 300 301 302 303 
LINES 2 304
OFFSETS vtktypeint64
0 304 
CONNECTIVITY vtktypeint64
0 1 2 3 4 5 6 7 8 
9 10 11 12 13 14 15 16 17 
18 19 20 21 22 23 24 25 26 
27 28 29 30 31 32 33 34 35 
36 37 38 39 40 41 42 43 44 
45 46 47 48 49 50 51 52 53 
54 55 56 57 58 59 60 61 62 
63 64 65 66 67 68 69 70 71 
72 73 74 75 76 77 78 79 80 
81 82 83 84 85 86 87 88 89 
90 91 92 93 94 95 96 97 98 
99 100 101 102 103 104 105 106 107 
108 109 110 111 112 113 114 115 116 
117 118 119 120 121 122 123 124 125 
126 127 128 129 130 131 132 133 134 
135 136 137 138 139 140 141 142 143 
144 145 146 147 148 149 150 151 152 
153 154 155 156 157 158 159 160 161 
162 163 164 165 166 167 168 169 170 
171 172 173 174 175 176 177 178 179 
180 181 182 183 184 185 186 187 188 
189 190 191 192 193 194 195 196 197 
198 199 200 201 202 203 204 205 206 
207 208 209 210 211 212 213 214 215 
216 217 218 219 220 221 222 223 224 
225 226 227 228 229 230 231 232 233 
234 235 236 237 238 239 240 241 242 
243 244 245 246 247 248 249 250 251 
252 253 254 255 256 257 258 259 260 
261 262 263 264 265 266 267 268 269 
270 271 272 273 274 275 276 277 278 
279 280 281 282 283 284 285 286 287 
288 289 290 291 292 293 294 295 296 
297 298 299 300 301 302 303 
POINT_DATA 304
SCALARS Curvature double
LOOKUP_TABLE default
0.10264733868 0.097328418439 0.092020950913 0.08679245446 0.081708003434 0.076833342615 0.07223530991 0.06798388958 0.064144240282 
0.060785541563 0.057978129452 0.055792177135 0.054263389287 0.05340852415 0.05321835327 0.053656938428 0.05464376957 0.056089191107 
0.057883928646 0.05991344763 0.062062765071 0.064229905122 0.066323493357 0.068278716836 0.070043670255 0.071578505493 0.07284751265 
0.073823683007 0.074505892658 0.07491387243 0.075081902955 0.075052792808 0.074876645926 0.074608108248 0.074307384521 0.074046106461 
0.073907639856 0.073987164612 0.074392541977 0.075214743034 0.076548605056 0.078497008303 0.081139417015 0.084555239275 0.088810655309 
0.09392283312 0.099895456816 0.10672357773 0.11437574773 0.12279093729 0.13186950969 0.14149341339 0.15149438651 0.16167080952 
0.17177858442 0.18155481572 0.19070044402 0.19889901311 0.205822744 0.21117009572 0.21478484222 0.21663663709 0.21678043823 
0.21537410732 0.21264000208 0.20885568554 0.20432238237 0.19934441516 0.19425667569 0.18935627052 0.18487271615 0.18097953177 
0.1778125982 0.1754582501 0.1739512918 0.17330813914 0.17354864426 0.17463590243 0.17652619156 0.17916904165 0.18246772848 
0.18632966118 0.19065801898 0.19533729898 0.20028617163 0.20543078517 0.21068574816 0.21595926193 0.22116101308 0.22619051882 
0.230944177 0.23532912132 0.23929397406 0.24279846914 0.24580220218 0.24825462122 0.25011937817 0.2513828467 0.25204458004 
0.25215214053 0.25187097334 0.25138682461 0.25087110327 0.25047542732 0.25034127203 0.2506111291 0.25138852539 0.25273243255 
0.2546946173 0.25725326139 0.26025798143 0.26345409367 0.26650031594 0.26897955643 0.27041605597 0.27039026224 0.26865091658 
0.26508109023 0.25965929438 0.25249029106 0.24385650832 0.23424492401 0.22422262738 0.21450169414 0.20585231222 0.19895845783 
0.19441370462 0.19265553171 0.19392921687 0.19834633755 0.20577940406 0.2158509761 0.22813353182 0.24208042892 0.25695216752 
0.27191166957 0.28609000373 0.29868282091 0.30897457741 0.31662251268 0.32170295665 0.32452811158 0.32556952058 0.32543488187 
0.32489334545 0.32467636135 0.32530663558 0.3271442905 0.33021401855 0.33409991683 0.33797156251 0.34072699334 0.34115134658 
0.33802250722 0.33063067637 0.31881852497 0.30284406655 0.28328263689 0.26093526678 0.23684531084 0.21196903112 0.18707791796 
0.16278629377 0.13951400733 0.11748279492 0.096794158924 0.077592449106 0.060210720162 0.045310012187 0.034495164231 0.030388097924 
0.034012635046 0.042552676516 0.052762900911 0.063043792594 0.072616540803 0.081067139423 0.088109290906 0.093611316664 0.097496994961 
0.099750550089 0.10035324343 0.099352202956 0.096931611164 0.093353954284 0.088892219899 0.08382128985 0.078404450408 0.072878173688 
0.067459848568 0.062368196468 0.057803170472 0.053950861403 0.050958410784 0.048925770456 0.047901760069 0.047888139735 0.04885416484 
0.050742981346 0.053418738492 0.056768953128 0.060698449723 0.065109450256 0.069919986296 0.075054232563 0.080437918885 0.085984061811 
0.091585406783 0.097121734839 0.10247249612 0.10753535721 0.11220464957 0.11636995985 0.1199198705 0.12275205221 0.12483913314 
0.12616702466 0.12674929285 0.12663264371 0.12586968952 0.12450917256 0.12261002303 0.12022907878 0.1174413015 0.11431463703 
0.11089948167 0.1072360066 0.10335987057 0.099294893824 0.095058860293 0.090668762907 0.086148806204 0.081519840332 0.076790890205 
0.071962615224 0.06702878959 0.061977176456 0.05679099164 0.051455284233 0.045960735721 0.040312078908 0.034519851531 0.028607979551 
0.02262888992 0.01670777964 0.011208337891 0.0075097834676 0.0087373721621 0.013686806743 0.019783226656 0.026248230066 0.032853430108 
0.039490943214 0.046094973722 0.052618190449 0.059017270657 0.065247135833 0.071259048989 0.076997754588 0.082402212825 0.087395916497 
0.091907721321 0.095886281177 0.099309551064 0.10215754196 0.1044127299 0.10607725838 0.10716768499 0.10773502554 0.10783839196 
0.10755891449 0.10700792771 0.10628690757 0.10548187018 0.10467072262 0.10392607674 0.10330960406 0.10287463439 0.10265058077 
0.10264894355 0.10287224552 0.10331300846 0.10396301458 0.10481414438 0.10585148679 0.10706557571 0.10845929623 0.11004413475 
0.11182373248 0.11380343683 0.11598303051 0.11836030734 0.12092812002 0.123665621 0.12654536764 0.12953179635 0.13257755749 
0.13562389498 0.13860624223 0.1414554634 0.14409918211 0.14646409461 0.14848694245 0.15011012173 
