# vtk DataFile Version 5.1
vtk output
ASCII
DATASET POLYDATA
POINTS 276 double
111.56728179 86.142873515 36.413321443 111.45856753 86.14547078 36.133749908 111.35056556 86.135247714 35.854076437 
111.24356221 86.111845609 35.574812177 111.13784983 86.07508762 35.296497809 111.03373634 86.024804418 35.019700632 
110.93154254 85.960875622 34.745012778 110.83157788 85.883360336 34.473018059 110.73414883 85.792385189 34.204293314 
110.63954989 85.688172331 33.939392211 110.54805847 85.571037161 33.678832025 110.45996057 85.441282355 33.423124723 
110.37548168 85.299435989 33.172671654 110.29480111 85.146135519 32.927776002 110.21808515 84.982009839 32.688687143 
110.14552207 84.807613987 32.455646568 110.07716364 84.62379688 32.228653103 110.01306722 84.431318938 32.007671836 
109.95326735 84.230927829 31.792594916 109.89782432 84.02328228 31.583307327 109.84667003 83.809193045 31.379490103 
109.79977255 83.58933927 31.18084915 109.75709274 83.364351982 30.987062024 109.71858994 83.134809564 30.797792063 
109.68424358 82.901222107 30.612715598 109.65403315 82.664058724 30.431504872 109.62794168 82.42374462 30.25383933 
109.60600236 82.180633426 30.079447603 109.58828969 81.935028251 29.908096073 109.57492656 81.68718863 29.739590891 
109.56609009 81.437339125 29.573777214 109.56201768 81.185678079 29.410537881 109.56301352 80.932386763 29.249791801 
109.56945392 80.677639467 29.091491779 109.58178825 80.421615641 28.935620159 109.60057832 80.16450815 28.782197837 
109.6263906 79.906553758 28.631240815 109.6598659 79.648029819 28.482787526 109.70169286 79.389271387 28.336886998 
109.7525805 79.130684434 28.19358828 109.81323108 78.8727554 28.052930176 109.88443296 78.616075948 27.914961845 
109.96670126 78.361300791 27.779651468 110.0604943 78.109155845 27.646941837 110.16615792 77.86042879 27.516726657 
110.28399834 77.615998757 27.388848406 110.41377426 77.376617571 27.262995179 110.55520686 77.143044897 27.138795518 
110.70793954 76.916048336 27.015787626 110.87122074 76.696177436 26.893387202 111.0442004 76.483878371 26.770937999 
111.22596843 76.279512781 26.647716603 111.4156166 76.083431743 26.522915975 111.6120194 75.895712603 26.39572766 
111.81413696 75.716455809 26.265324062 112.02094762 75.545737331 26.130882818 112.23145169 75.383624849 25.991606967 
112.44467924 75.230203844 25.846740131 112.65969888 75.085648147 25.695545015 112.87559603 74.9500685 25.537447376 
113.0915146 74.823703401 25.37192457 113.30663897 74.706864653 25.198559495 113.52019783 74.599942039 25.01705482 
113.7314706 74.503405094 24.827247303 113.93979361 74.417802562 24.629118304 114.14455764 74.343757238 24.422794333 
114.34520146 74.281958213 24.208544076 114.54117724 74.233235148 23.986736799 114.73202856 74.198331369 23.757971212 
114.91732763 74.178059735 23.522967653 115.09666461 74.173265379 23.28258018 115.26963403 74.184786398 23.037798948 
115.43581791 74.213425177 22.78974485 115.59474494 74.259979938 22.539660681 115.74589485 74.325154907 22.288921642 
115.88879018 74.409279408 22.038994077 116.02285135 74.512606024 21.791388322 116.14745333 74.635151725 21.547637714 
116.26187146 74.776788309 21.3092996 116.36541005 74.936997205 21.077851741 116.45744096 75.114873347 20.85459578 
116.53727954 75.309376334 20.640709291 116.60425895 75.519259395 20.437194438 116.65770248 75.743150001 20.244905412 
116.69693441 75.979561618 20.06454782 116.72146017 76.226801071 19.896536226 116.73071016 76.483220221 19.74123102 
116.7241295 76.747138314 19.598893587 116.70117446 77.016849046 19.469720671 116.6613085 77.290616245 19.353877614 
116.60398157 77.566659854 19.25154495 116.52854989 77.843115907 19.163011966 116.43469718 78.118024462 19.088397057 
116.32207194 78.389334912 19.027961373 116.19046564 78.654876929 18.982002667 116.03965096 78.912241528 18.95101937 
115.86999795 79.159031311 18.935271601 115.68224971 79.392877838 18.934966163 115.4771923 79.611139946 18.950587704 
115.25665137 79.811902113 18.981963484 115.02252793 79.993268096 19.029098193 114.77721907 80.154019103 19.091664304 
114.52339617 80.293760829 19.169022893 114.26361516 80.412288877 19.260726681 114.0005154 80.51075369 19.365764357 
113.73636317 80.590438956 19.483380177 113.47315661 80.652887054 19.612953597 113.21252834 80.700325327 19.753641875 
112.95579249 80.734876948 19.904864719 112.70399388 80.758750448 20.066132702 112.45795565 80.774175096 20.237043698 
112.21833196 80.783353336 20.417271136 111.98565947 80.788438729 20.606545295 111.76040316 80.791533485 20.804630007 
111.54299436 80.794693437 21.011295501 111.33386064 80.799931497 21.226288025 111.13344845 80.809217847 21.449297252 
110.942242 80.824481068 21.679924998 110.7607803 80.847608628 21.917655602 110.58966752 80.880435561 22.161824435 
110.42957145 80.924714385 22.411585352 110.28121171 80.982071062 22.665884182 110.14534477 81.05396273 22.92344432 
110.02282556 81.141733754 23.182764734 109.91445084 81.246410766 23.442097019 109.82091916 81.368643229 23.699507251 
109.74292675 81.508821916 23.952909151 109.68114607 81.667057436 24.200070815 109.63622973 81.843183766 24.438612663 
109.6083436 82.036311651 24.666338594 109.59774004 82.24547821 24.880984148 109.60472296 82.469574722 25.080146378 
109.62890031 82.706776858 25.262026434 109.67008399 82.955339979 25.424663624 109.72789203 83.213276441 25.566285034 
109.80145542 83.478297908 25.685790065 109.89012597 83.748198762 25.781819954 109.99284674 84.020620226 25.853689337 
110.10839995 84.293254565 25.901138371 110.23570528 84.563843286 25.923754058 110.37334493 84.830280736 25.921994679 
110.51994053 85.090667103 25.896518018 110.67419919 85.343252343 25.848028831 110.83483769 85.586497589 25.777487493 
111.00056405 85.819249348 25.686318954 111.17024327 86.040519271 25.575852873 111.34283915 86.249544277 25.447483985 
111.51741952 86.445758598 25.302616535 111.69315459 86.628688123 25.142546953 111.86929278 86.798156234 24.968692453 
112.04517235 86.954042055 24.782314307 112.22019562 87.096305844 24.584576531 112.39381231 87.224977716 24.376550765 
112.56550497 87.340142046 24.159216356 112.73477611 87.441928194 23.933464834 112.90113709 87.530507501 23.700106648 
113.06409976 87.606097126 23.459879388 113.22317214 87.668968057 23.213455895 113.37786042 87.719453491 22.961452318 
113.52766211 87.757929058 22.704423765 113.67207689 87.784844641 22.442879959 113.81067041 87.80083317 22.177320821 
113.94301845 87.806570827 21.908179162 114.06874321 87.802833778 21.635843615 114.18752426 87.790490229 21.360657127 
114.2991045 87.770487884 21.082915342 114.40322156 87.74378777 20.802846464 114.49983808 87.711540707 20.520680429 
114.58891326 87.674852956 20.236580681 114.67047279 87.634845728 19.950676126 114.74460139 87.592639115 19.663067958 
114.81136507 87.549337467 19.373822457 114.8710035 87.506037743 19.083023965 114.92374791 87.463773314 18.790744804 
114.96985431 87.423520977 18.497062334 115.00961244 87.386194725 18.20206794 115.04328469 87.352684967 17.905860576 
115.07128453 87.323728619 17.608585286 115.09400978 87.299990487 17.310399399 115.11188954 87.282038321 17.011480036 
115.12539506 87.270329585 16.712021231 115.13500557 87.265280844 16.412225836 115.14133063 87.267046357 16.112306173 
115.14497573 87.275737519 15.812462543 115.14658774 87.291361043 15.512881675 115.1468551 87.313820872 15.213730491 
115.14650563 87.342959013 14.915155127 115.14630875 87.378494921 14.617273023 115.14704989 87.420067638 14.320174013 
115.14952976 87.467297013 14.023930897 115.15456178 87.51976441 13.72860287 115.1629657 87.577023617 13.434243342 
115.17555924 87.638613457 13.140909415 115.19317837 87.704086213 12.848677887 115.21661059 87.772970919 12.557642624 
115.24660407 87.844812884 12.267929105 115.28388354 87.919193468 11.979707586 115.32912113 87.995730583 11.693196432 
115.38292341 88.074088683 11.408665864 115.44582313 88.153983852 11.126438441 115.51834329 88.235196493 10.846909258 
115.60080021 88.317554308 10.570489183 115.69342567 88.400961632 10.297629018 115.7963638 88.485400677 10.028812886 
115.90965121 88.570926401 9.7645410677 116.03322703 88.657662885 9.5053219177 116.16702336 88.745811264 9.2517140172 
116.31068846 88.835600505 9.0041541191 116.46389713 88.927315412 8.7631088812 116.62625838 89.02127245 8.5290182524 
116.79732629 89.117806774 8.30229125 116.97666629 89.217280503 8.083360431 117.16372793 89.320018141 7.8725499662 
117.35794152 89.426311095 7.6701380056 117.55875429 89.536419556 7.4763902839 117.76560694 89.650548599 7.2915254401 
117.97795835 89.768853054 7.1157410554 118.1952742 89.891419327 6.9491857935 118.41698546 90.018208684 6.7918399881 
118.64258956 90.149137573 6.6436849842 118.87161784 90.284048755 6.5046333054 119.103643 90.42271584 6.3745281277 
119.33830404 90.56487757 6.2532158581 119.57525137 90.710172678 6.1403528238 119.81420453 90.858229211 6.0355962424 
120.05493887 91.008660608 5.9385838728 120.29727958 91.161068685 5.8489310656 120.54109769 91.315052918 5.7662429717 
120.78630982 91.470224629 5.6901566137 121.03285635 91.626202947 5.6202832147 121.28069875 91.78263172 5.5562431752 
121.52982017 91.939187689 5.4977116169 121.7802121 92.09558121 5.4443973863 122.03186633 92.25156181 5.3960451972 
122.28476791 92.406922661 5.3524355672 122.53889823 92.561496437 5.3134113939 122.79420835 92.715172639 5.2787914729 
123.05063225 92.867892084 5.2484311373 123.30808235 93.019649944 5.2222150403 123.56644557 93.170498336 5.2000423233 
123.82558535 93.320542098 5.1818201777 124.08534766 93.469930021 5.1674841007 124.34555293 93.618861052 5.1569232956 
124.60601027 93.767566002 5.150022628 124.8665221 93.916297973 5.1466657768 125.12688909 94.065321502 5.1467192837 
125.38691602 94.21490126 5.1500342876 125.6464138 94.365296785 5.1564556735 125.90521998 94.51672993 5.1657561865 
126.16319309 94.669393131 5.1777140574 126.42022252 94.823434207 5.1920831887 126.67623297 94.978950826 5.2085934998 
126.93117996 95.135998985 5.2269613431 127.18506389 95.29457469 5.246867062 127.43792637 95.45462132 5.2679685849 
127.68984107 95.616043971 5.2899102445 127.9409151 95.778708448 5.3123136608 128.19128305 95.942449663 5.3347766142 
128.44109843 96.107083041 5.3568679074 128.69053275 96.272402125 5.378127852 128.93976347 96.438190748 5.3980763504 
129.18896382 96.604233612 5.4162023078 129.43829743 96.770316979 5.4319636843 129.68791147 96.936230979 5.4447877271 
129.93793298 97.101766687 5.4540553078 130.18846049 97.266716453 5.4591267558 130.43955456 97.430878506 5.4593749506 
130.69123978 97.594046657 5.4541369557 130.94349857 97.756008533 5.4427402426 131.19626854 97.916540396 5.4245096633 
131.44944235 98.075383779 5.3986958445 131.702854 98.232297696 5.3647294277 131.95629277 98.3870071 5.3220010682 
132.20949808 98.53921924 5.2699483002 132.46216156 98.68862669 5.2080700683 132.71393132 98.834912573 5.1359415815 

VERTICES 277 276
OFFSETS vtktypeint64
0 1 2 3 4 5 6 7 8 
9 10 11 12 13 14 15 16 17 
18 19 20 21 22 23 24 25 26 
27 28 29 30 31 32 33 34 35 
36 37 38 39 40 41 42 43 44 
45 46 47 48 49 50 51 52 53 
54 55 56 57 58 59 60 61 62 
63 64 65 66 67 68 69 70 71 
72 73 74 75 76 77 78 79 80 
81 82 83 84 85 86 87 88 89 
90 91 92 93 94 95 96 97 98 
99 100 101 102 103 104 105 106 107 
108 109 110 111 112 113 114 115 116 
117 118 119 120 121 122 123 124 125 
126 127 128 129 130 131 132 133 134 
135 136 137 138 139 140 141 142 143 
144 145 146 147 148 149 150 151 152 
153 154 155 156 157 158 159 160 161 
162 163 164 165 166 167 168 169 170 
171 172 173 174 175 176 177 178 179 
180 181 182 183 184 185 186 187 188 
189 190 191 192 193 194 195 196 197 
198 199 200 201 202 203 204 205 206 
207 208 209 210 211 212 213 214 215 
216 217 218 219 220 221 222 223 224 
225 226 227 228 229 230 231 232 233 
234 235 236 237 238 239 240 241 242 
243 244 245 246 247 248 249 250 251 
252 253 254 255 256 257 258 259 260 
261 262 263 264 265 266 267 268 269 
270 271 272 273 274 275 276 
CONNECTIVITY vtktypeint64
0 1 2 3 4 5 6 7 8 
9 10 11 12 13 14 15 16 17 
18 19 20 21 22 23 24 25 26 
27 28 29 30 31 32 33 34 35 
36 37 38 39 40 41 42 43 44 
45 46 47 48 49 50 51 52 53 
54 55 56 57 58 59 60 61 62 
63 64 65 66 67 68 69 70 71 
72 73 74 75 76 77 78 79 80 
81 82 83 84 85 86 87 88 89 
90 91 92 93 94 95 96 97 98 
99 100 101 102 103 104 105 106 107 
108 109 110 111 112 113 114 115 116 
117 118 119 120 121 122 123 124 125 
126 127 128 129 130 131 132 133 134 
135 136 137 138 139 140 141 142 143 
144 145 146 147 148 149 150 151 152 
153 154 155 156 157 158 159 160 161 
162 163 164 165 166 167 168 169 170 
171 172 173 174 175 176 177 178 179 
180 181 182 183 184 185 186 187 188 
189 190 191 192 193 194 195 196 197 
198 199 200 201 202 203 204 205 206 
207 208 209 210 211 212 213 214 215 
216 217 218 219 220 221 222 223 224 
225 226 227 228 229 230 231 232 233 
234 235 236 237 238 239 240 241 242 
243 244 245 246 247 248 249 250 251 
252 253 254 255 256 257 258 259 260 
261 262 263 264 265 266 267 268 269 
270 271 272 273 274 275 
LINES 2 276
OFFSETS vtktypeint64
0 276 
CONNECTIVITY vtktypeint64
0 1 2 3 4 5 6 7 8 
9 10 11 12 13 14 15 16 17 
18 19 20 21 22 23 24 25 26 
27 28 29 30 31 32 33 34 35 
36 37 38 39 40 41 42 43 44 
45 46 47 48 49 50 51 52 53 
54 55 56 57 58 59 60 61 62 
63 64 65 66 67 68 69 70 71 
72 73 74 75 76 77 78 79 80 
81 82 83 84 85 86 87 88 89 
90 91 92 93 94 95 96 97 98 
99 100 101 102 103 104 105 106 107 
108 109 110 111 112 113 114 115 116 
117 118 119 120 121 122 123 124 125 
126 127 128 129 130 131 132 133 134 
135 136 137 138 139 140 141 142 143 
144 145 146 147 148 149 150 151 152 
153 154 155 156 157 158 159 160 161 
162 163 164 165 166 167 168 169 170 
171 172 173 174 175 176 177 178 179 
180 181 182 183 184 185 186 187 188 
189 190 191 192 193 194 195 196 197 
198 199 200 201 202 203 204 205 206 
207 208 209 210 211 212 213 214 215 
216 217 218 219 220 221 222 223 224 
225 226 227 228 229 230 231 232 233 
234 235 236 237 238 239 240 241 242 
243 244 245 246 247 248 249 250 251 
252 253 254 255 256 257 258 259 260 
261 262 263 264 265 266 267 268 269 
270 271 272 273 274 275 
POINT_DATA 276
SCALARS Curvature double
LOOKUP_TABLE default
0.15046936879 0.15302176905 0.15522808598 0.1570372475 0.15840226089 0.15927803612 0.15962193555 0.15939521217 0.15856343294 
0.15708254564 0.15490817444 0.15201111769 0.14839715849 0.14408430053 0.13908440758 0.13341531757 0.12718462773 0.12052959522 
0.11359600955 0.10653641672 0.099508102948 0.092692675108 0.08626316198 0.080359293093 0.075102428541 0.070613831648 0.067023796739 
0.064460256823 0.062981782898 0.062620153808 0.063405039015 0.065360911474 0.068495488139 0.072740261981 0.078003350371 0.084174517331 
0.091102682727 0.098616192353 0.10647672661 0.1144137822 0.12215424501 0.12940142334 0.13582294396 0.14104675619 0.14473281031 
0.1466684963 0.14680185048 0.14523081972 0.14219202558 0.13804842264 0.13323834685 0.12826376499 0.12376479946 0.12031618791 
0.11831689438 0.11797370431 0.11931847921 0.12222843446 0.12645235581 0.13165090076 0.13750246415 0.14371630652 0.1500455583 
0.15632829199 0.16253636908 0.16871677882 0.17491453462 0.18116889122 0.18756371751 0.19421709776 0.20119798689 0.20848007154 
0.21594959109 0.22341026516 0.23056057054 0.23706589067 0.24268491897 0.24723526917 0.25049918088 0.2522708687 0.25254742212 
0.25163339019 0.24992287685 0.24777616903 0.24554485308 0.24363519911 0.24248029946 0.24244394697 0.24386123495 0.24697801011 
0.25187495259 0.25843527599 0.26639446821 0.27552634704 0.28545842683 0.29549147864 0.3046084043 0.31174603394 0.3158821154 
0.31620744087 0.31218241009 0.30368530424 0.29096596943 0.27450099236 0.25538960501 0.23494660681 0.21431308606 0.19430168779 
0.17562471714 0.15912858757 0.14565517063 0.13591247964 0.13041109661 0.12935796331 0.1325425486 0.1393560763 0.14904900276 
0.16095450786 0.17445285885 0.18888389539 0.20360668741 0.21816164515 0.23229213739 0.24575906536 0.25828107779 0.26961432914 
0.27960773511 0.28817269968 0.29532746182 0.30128256735 0.30619031606 0.3099859795 0.31255165781 0.31395195367 0.31435333512 
0.31377383249 0.31202896388 0.30894818544 0.30452287711 0.29874208419 0.29173184423 0.28369027321 0.27478232443 0.26511972958 
0.25486260839 0.24437810124 0.23404836061 0.22410163424 0.21463840531 0.20574073177 0.19754709441 0.19015829003 0.18357132874 
0.17773139392 0.17253602117 0.1678198271 0.16339195526 0.15906681532 0.15470247895 0.15014774261 0.14521513432 0.13976578842 
0.13378844245 0.12735016099 0.12056430537 0.11358070439 0.10660315066 0.099893752173 0.093724538289 0.088380760412 0.084125208482 
0.081138752732 0.079429879373 0.078878218472 0.079283269291 0.080384136826 0.081856826342 0.083352580206 0.084565667196 0.0852491884 
0.085226417771 0.084442544227 0.082937216263 0.080763313737 0.078002423895 0.074844551791 0.071647234653 0.068820047577 0.066742701613 
0.065755786149 0.066137266389 0.068024805879 0.07135795831 0.075923796016 0.081415870728 0.087490830365 0.093801140625 0.10004182331 
0.10600040116 0.11151593867 0.11642612439 0.12059188464 0.12394591956 0.12650910417 0.12833925825 0.12953422446 0.13020616215 
0.13047582879 0.13044206011 0.13019967937 0.1298608124 0.12949648747 0.12908558528 0.12853816855 0.12775169755 0.12663881273 
0.12510176366 0.12304289359 0.12038421081 0.11707894941 0.11311452414 0.10852760717 0.1034403757 0.098008415343 0.092381368681 
0.086706313497 0.081140908358 0.075852538583 0.070991976058 0.066655170109 0.062902346724 0.059743862989 0.057140193514 0.05501081569 
0.053231066438 0.051677013317 0.050232861201 0.048802893351 0.047325470686 0.045779225932 0.044173694899 0.042550082998 0.040966881121 
0.039489136431 0.038160349368 0.03698696989 0.035948903591 0.034979622808 0.033960565543 0.032738625045 0.03118808068 0.029255163566 
0.026907993174 0.024133510714 0.020966669661 0.017583476034 0.014419899372 0.012358775878 0.01265106928 0.015646395467 0.020499077561 
0.026431922419 0.033020226882 0.040029654414 0.04732654167 0.054831565454 0.062483978714 0.070226248617 0.077995381952 0.085724373501 
0.093345810891 0.10078356091 0.10795283684 0.11476037123 0.12110637641 0.12688980778 
