# vtk DataFile Version 5.1
vtk output
ASCII
DATASET POLYDATA
POINTS 226 double
76.979009324 74.193604565 33.938215736 77.22230157 74.142893901 33.770397274 77.464076967 74.064979494 33.611014771 
77.701852764 73.961310736 33.460507702 77.933560203 73.834191682 33.318728763 78.157635651 73.686283128 33.185041649 
78.373219408 73.520699291 33.058265252 78.579885999 73.340246497 32.937021648 78.777559691 73.147466914 32.819795518 
78.966384628 72.944589591 32.705027588 79.146616463 72.733536413 32.591176101 79.318540647 72.515957265 32.476753242 
79.482414781 72.293275769 32.360346713 79.63842982 72.066734949 32.24063416 79.786685325 71.837436631 32.116397324 
79.927174786 71.606371304 31.986539783 80.059778934 71.374436771 31.850110412 80.184265828 71.142444551 31.706332651 
80.300284129 70.911116736 31.554623927 80.407388372 70.681070874 31.394640864 80.505091393 70.452788655 31.226334694 
80.59284601 70.226597857 31.049921653 80.670093784 70.002653122 30.865894419 80.736300789 69.780928541 30.675002019 
80.790932661 69.561236427 30.478186491 80.833635454 69.343227638 30.276606879 80.864224961 69.126454998 30.071521765 
80.882654526 68.910439264 29.864194546 80.889030968 68.694724082 29.655833336 80.883753426 68.478931409 29.447519847 
80.867476292 68.262816298 29.240109384 80.841003144 68.046292362 29.034177779 80.805295363 67.829443109 28.829985805 
80.76141941 67.612519973 28.627466725 80.71048892 67.395932056 28.426240573 80.653610532 67.180233268 28.225650993 
80.591839522 66.966112783 28.024816121 80.526149338 66.754391877 27.822685171 80.45741446 66.546029231 27.618093689 
80.386405248 66.342135854 27.409812766 80.313790957 66.143998789 27.196592912 80.240145822 65.953172026 26.97715664 
80.165978063 65.77135224 26.750382182 80.091721772 65.600551601 26.515237412 80.017767271 65.443098689 26.270877252 
79.944482488 65.301661559 26.01673436 79.872237634 65.179247583 25.75263415 79.801431474 65.07916292 25.478933291 
79.73253548 65.005112059 25.196624097 79.666094593 64.960667276 24.907623704 79.602744322 64.949092974 24.61479482 
79.543273639 64.97358696 24.321973144 79.488469327 65.035653761 24.033859852 79.43916775 65.135822014 23.755655085 
79.396173311 65.273208671 23.492720035 79.360054665 65.444922176 23.249679499 79.331258785 65.647323585 23.030418478 
79.310012438 65.875973913 22.83767993 79.296268855 66.125997832 22.67277582 79.289886146 66.392897333 22.536275923 
79.290530071 66.672426954 22.427727997 79.297738428 66.960866836 22.345988282 79.310998879 67.255129801 22.289630219 
79.329726951 67.552676003 22.256938488 79.353282111 67.851486854 22.246032638 79.38097931 68.150019386 22.25495824 
79.412097756 68.447152388 22.281748469 79.445886568 68.742131995 22.324461603 79.481569379 69.034520884 22.3811988 
79.518347824 69.32415291 22.450107866 79.555405469 69.611093407 22.529375638 79.591912866 69.895603934 22.617213347 
79.627030772 70.178107266 22.711845494 79.659923117 70.459163539 22.811461818 79.689786151 70.739431985 22.914205947 
79.71584972 71.019622927 23.018187668 79.737403784 71.300460897 23.121449805 79.753824524 71.582635912 23.221966559 
79.764601801 71.866750754 23.317655415 79.769361876 72.153269431 23.406399123 79.767872439 72.442476373 23.486052753 
79.760132531 72.734404089 23.554621398 79.746299692 73.028845586 23.610228506 79.726699598 73.32534626 23.651206049 
79.701799288 73.623225213 23.676145575 79.672158942 73.92161081 23.683881962 79.63841293 74.219478582 23.673575307 
79.601230223 74.515713895 23.644764859 79.561240822 74.809145311 23.597167901 79.519025342 75.09856999 23.530706238 
79.475094998 75.382769136 23.445461799 79.429879524 75.660512691 23.341637159 79.383722469 75.930556143 23.219525172 
79.336881463 76.191632958 23.079490255 79.289533145 76.442446546 22.921961838 79.241780688 76.681665597 22.747439722 
79.193664302 76.907926506 22.556509338 79.145172314 77.119805184 22.349825447 79.096258077 77.315940486 22.128244422 
79.046854069 77.495005232 21.892761103 78.996888728 77.65576864 21.644539342 78.946302687 77.797167997 21.384920537 
78.895062673 77.918378152 21.115406294 78.84317205 78.018877096 20.837620053 78.790674674 78.09843963 20.553235232 
78.737658882 78.157271181 20.263940824 78.68425252 78.196055265 19.971350628 78.630610522 78.21575183 19.676895482 
78.5769076 78.217622124 19.381791555 78.523329638 78.203163993 19.087005199 78.470067049 78.174042812 18.793239515 
78.41731115 78.132027206 18.500940274 78.365253493 78.078934471 18.210316757 78.314087725 78.016588719 17.921372408 
78.264013267 77.946790935 17.633940901 78.215239788 77.871299836 17.347724211 78.167991533 77.791819911 17.062330744 
78.122510203 77.709993638 16.777312507 78.079055208 77.627394036 16.492201015 78.037900039 77.545514851 16.206541546 
77.999323464 77.465756099 15.919925003 77.963602288 77.389414536 15.632012257 77.930974439 77.317638509 15.342563866 
77.901622406 77.251405005 15.051450014 77.875647101 77.191497799 14.758651052 77.853039345 77.138484776 14.464248614 
77.833657556 77.092708855 14.168405599 77.817213573 77.05429301 13.871339434 77.80326786 77.023160276 13.573293486 
77.791235787 76.999071894 13.274511207 77.780397429 76.981667864 12.975218498 77.769914226 76.970469125 12.675616013 
77.758863716 76.964980376 12.375874354 77.746256703 76.96470312 12.076143771 77.731061108 76.969166536 11.776566605 
77.712225448 76.977951282 11.477292576 77.68870256 76.990707416 11.178494684 77.659473421 77.007166556 10.880383826 
77.623571923 77.027149678 10.583220524 77.580109223 77.050570187 10.287322563 77.52829781 77.077433304 9.9930676601 
77.467472933 77.107831418 9.7008908964 77.397110602 77.141936041 9.4112770771 77.316824548 77.179991966 9.1247542917 
77.226390066 77.222295985 8.8418754397 77.125772317 77.269164582 8.5631876896 77.015057761 77.320938635 8.2892379943 
76.894459775 77.377955183 8.0205533285 76.764296725 77.440529009 7.7576311451 76.62496672 77.508936259 7.5009337196 
76.476921179 77.583400565 7.2508862645 76.320639137 77.664082889 7.0078785742 76.156603758 77.75107472 6.7722694479 
75.98528286 77.844395695 6.5443931071 75.807113558 77.943994006 6.324566801 75.622482403 78.049759168 6.1131123173 
75.431747636 78.161499697 5.9103263823 75.235214498 78.27897296 5.7165161171 75.033142622 78.401889476 5.5320006619 
74.825757172 78.529917022 5.3571079369 74.613259408 78.662687021 5.1921721305 74.395838917 78.799800297 5.037527326 
74.173685908 78.940832429 4.8934978752 73.947002306 79.085338737 4.7603858506 73.716010644 79.23285954 4.6384565418 
73.480959637 79.382925614 4.5279232589 73.24212634 79.535064482 4.428932587 72.999814516 79.688807367 4.3415518515 
72.754350058 79.843697031 4.2657595822 72.506067711 79.999296959 4.2014689544 72.255320511 80.155195956 4.1484549001 
72.002459119 80.311022826 4.1063989127 71.747821562 80.466453844 4.074915826 71.491731584 80.621219729 4.0535489799 
71.234494943 80.775112255 4.0417834282 70.976397634 80.927989219 4.0390604396 70.717705625 81.079777121 4.0447920464 
70.458665684 81.230471239 4.0583750559 70.199506842 81.380132955 4.0792036677 69.940441919 81.528884201 4.106680353 
69.68166906 81.676899739 4.1402245497 69.423373929 81.824397004 4.1792874246 69.165728372 81.971627863 4.2233322871 
68.908891214 82.118864928 4.2718537663 68.653009006 82.266391681 4.3243782115 68.398215076 82.41449372 4.380455875 
68.144628804 82.563451576 4.4396553708 67.892354871 82.713535821 4.5015562622 67.641482794 82.865004593 4.5657406487 
67.392086981 83.018103517 4.6317840215 67.144227411 83.17306726 4.6992464246 66.89795113 83.330122351 4.7676641706 
66.653294418 83.489490015 4.8365429648 66.410285661 83.651388557 4.9053525285 66.168948662 83.816034236 4.9735232645 
65.929306301 83.983640357 5.0404449028 65.691386076 84.154417635 5.1054646212 65.455220755 84.328563614 5.1678918478 
65.220848916 84.506249477 5.2270107407 64.988323206 84.687622403 5.282078361 64.757709226 84.872790752 5.3323365297 
64.529085965 85.061813853 5.3770223962 64.302545353 85.254692883 5.415379764 64.078190826 85.451363322 5.4466709171 
63.856135256 85.651689953 5.4701879107 63.636498289 85.85546443 5.4852631396 63.419403388 86.062405612 5.4912784567 
63.204974691 86.272162279 5.4876727825 62.993334896 86.484318551 5.4739441557 62.784609658 86.698402621 5.4496270636 
62.578898131 86.913878641 5.41439223 62.376299419 87.130175048 5.3679433048 62.176902359 87.346684191 5.3100481501 
61.98078559 87.56276946 5.2405347381 61.788018537 87.777771476 5.1592859914 61.598663217 87.991013231 5.0662344003 
61.412776655 88.201804113 4.9613569762 61.230413736 88.409443009 4.8446710599 61.0516302 88.613220672 4.7162313268 
60.876485565 88.812421726 4.5761282373 60.705045543 89.006326593 4.4244881385 60.537386869 89.194208646 4.2614662144 
60.373590054 89.375350731 4.0872741103 60.213743109 89.549045936 3.9021710636 60.057944364 89.714596302 3.7064578864 
59.906297587 89.871325777 3.5004899786 
VERTICES 227 226
OFFSETS vtktypeint64
0 1 2 3 4 5 6 7 8 
9 10 11 12 13 14 15 16 17 
18 19 20 21 22 23 24 25 26 
27 28 29 30 31 32 33 34 35 
36 37 38 39 40 41 42 43 44 
45 46 47 48 49 50 51 52 53 
54 55 56 57 58 59 60 61 62 
63 64 65 66 67 68 69 70 71 
72 73 74 75 76 77 78 79 80 
81 82 83 84 85 86 87 88 89 
90 91 92 93 94 95 96 97 98 
99 100 101 102 103 104 105 106 107 
108 109 110 111 112 113 114 115 116 
117 118 119 120 121 122 123 124 125 
126 127 128 129 130 131 132 133 134 
135 136 137 138 139 140 141 142 143 
144 145 146 147 148 149 150 151 152 
153 154 155 156 157 158 159 160 161 
162 163 164 165 166 167 168 169 170 
171 172 173 174 175 176 177 178 179 
180 181 182 183 184 185 186 187 188 
189 190 191 192 193 194 195 196 197 
198 199 200 201 202 203 204 205 206 
207 208 209 210 211 212 213 214 215 
216 217 218 219 220 221 222 223 224 
225 226 
CONNECTIVITY vtktypeint64
0 1 2 3 4 5 6 7 8 
9 10 11 12 13 14 15 16 17 
18 19 20 21 22 23 24 25 26 
27 28 29 30 31 32 33 34 35 
36 37 38 39 40 41 42 43 44 
45 46 47 48 49 50 51 52 53 
54 55 56 57 58 59 60 61 62 
63 64 65 66 67 68 69 70 71 
72 73 74 75 76 77 78 79 80 
81 82 83 84 85 86 87 88 89 
90 91 92 93 94 95 96 97 98 
99 100 101 102 103 104 105 106 107 
108 109 110 111 112 113 114 115 116 
117 118 119 120 121 122 123 124 125 
126 127 128 129 130 131 132 133 134 
135 136 137 138 139 140 141 142 143 
144 145 146 147 148 149 150 151 152 
153 154 155 156 157 158 159 160 161 
162 163 164 165 166 167 168 169 170 
171 172 173 174 175 176 177 178 179 
180 181 182 183 184 185 186 187 188 
189 190 191 192 193 194 195 196 197 
198 199 200 201 202 203 204 205 206 
207 208 209 210 211 212 213 214 215 
216 217 218 219 220 221 222 223 224 
225 
LINES 2 226
OFFSETS vtktypeint64
0 226 
CONNECTIVITY vtktypeint64
0 1 2 3 4 5 6 7 8 
9 10 11 12 13 14 15 16 17 
18 19 20 21 22 23 24 25 26 
27 28 29 30 31 32 33 34 35 
36 37 38 39 40 41 42 43 44 
45 46 47 48 49 50 51 52 53 
54 55 56 57 58 59 60 61 62 
63 64 65 66 67 68 69 70 71 
72 73 74 75 76 77 78 79 80 
81 82 83 84 85 86 87 88 89 
90 91 92 93 94 95 96 97 98 
99 100 101 102 103 104 105 106 107 
108 109 110 111 112 113 114 115 116 
117 118 119 120 121 122 123 124 125 
126 127 128 129 130 131 132 133 134 
135 136 137 138 139 140 141 142 143 
144 145 146 147 148 149 150 151 152 
153 154 155 156 157 158 159 160 161 
162 163 164 165 166 167 168 169 170 
171 172 173 174 175 176 177 178 179 
180 181 182 183 184 185 186 187 188 
189 190 191 192 193 194 195 196 197 
198 199 200 201 202 203 204 205 206 
207 208 209 210 211 212 213 214 215 
216 217 218 219 220 221 222 223 224 
225 
POINT_DATA 226
SCALARS Curvature double
LOOKUP_TABLE default
0.33474077067 0.3265250936 0.31034437616 0.28770533145 0.26086052762 0.23219083858 0.20375569692 0.1771149504 0.15341637877 
0.13357872527 0.11838642863 0.10845164601 0.10395596178 0.10438781659 0.10860206904 0.11518456011 0.12280733574 0.13039073843 
0.13710815035 0.14239193451 0.14591083424 0.14760286672 0.14761833236 0.14630132058 0.14406491295 0.14129349272 0.13817147753 
0.13461992721 0.13030720529 0.12478267534 0.11764546026 0.10869304534 0.098030826668 0.086162427447 0.074123077531 0.06376157013 
0.057984471796 0.059814144235 0.06986826846 0.086219557718 0.10677349493 0.13025925565 0.15603225775 0.18379759011 0.21340095255 
0.24466719135 0.27730353732 0.3107751418 0.34416982839 0.37610878513 0.40480353263 0.42810876464 0.44422129855 0.4518690896 
0.45060896378 0.44109090035 0.42483730773 0.4036979474 0.37950432981 0.35371901334 0.32742481244 0.30132879621 0.275836072 
0.25114730534 0.22731913351 0.20431550261 0.18206162881 0.1604629432 0.13946214178 0.11905387085 0.09938543783 0.08089150398 
0.064664872624 0.053117954098 0.049981863727 0.056938171238 0.071137040209 0.088967255069 0.10816215105 0.12736812517 0.14563940784 
0.16228503597 0.1768015495 0.18889195213 0.19846579934 0.20564578038 0.21073185852 0.21416082055 0.21641767463 0.21800193967 
0.21936952982 0.22090300581 0.22288431882 0.22548450658 0.22874997845 0.23260692541 0.2368565365 0.24120044194 0.24523113911 
0.24848348514 0.25043876523 0.25060707543 0.24854222248 0.24392971043 0.23658375954 0.22651433214 0.21389557196 0.19903967803 
0.18233173222 0.16420331349 0.14507264528 0.12533892383 0.10536841705 0.085534981249 0.06627783789 0.048319226644 0.03332806618 
0.025660260239 0.029722782287 0.040757601814 0.05323625641 0.064929281109 0.074866651508 0.082505347981 0.087525332809 0.089800612719 
0.089403852465 0.086615767929 0.081920902114 0.076008433944 0.069771700247 0.06430353763 0.06078296675 0.060195306205 0.06289077495 
0.068448610314 0.075991179507 0.084601314894 0.093531529038 0.1022233163 0.11029069645 0.11746975278 0.12361454766 0.12865738792 
0.13261118217 0.13553968187 0.13754875146 0.13876036809 0.13931270768 0.13933858135 0.13896916949 0.13832431333 0.13751929751 
0.13666280071 0.1358556939 0.1351930173 0.13475072669 0.13458618489 0.13471336679 0.13511184683 0.13570914394 0.13639764902 
0.13703668617 0.13746832635 0.13753464517 0.13708575091 0.13600316289 0.1341957126 0.13161901072 0.12825909731 0.12414859802 
0.11934445711 0.11393034409 0.1080014431 0.10166642202 0.095037305349 0.088232581882 0.081372278801 0.074580726052 0.067982622211 
0.06170105948 0.055853186728 0.050539367203 0.04583679577 0.041788235123 0.038403958033 0.035663617722 0.033541413037 0.032029381374 
0.031166409246 0.031048548973 0.031810246564 0.03358324151 0.03644022414 0.04037077162 0.045280409689 0.051020749227 0.057410189073 
0.064253375766 0.071357730942 0.078535495028 0.085618919642 0.092456680417 0.098930520103 0.10494637451 0.11044398149 0.11538621719 
0.1197646193 0.12358938856 0.12689625607 0.12973918883 0.13218951724 0.13432601163 0.1362365098 0.13800653183 0.13971595263 
0.14143323225 0.14321267427 0.14509241486 0.14709090717 0.14920913376 0.15142631239 0.15370613866 0.15599401557 0.15822582274 
0.1603282931 
