# vtk DataFile Version 5.1
vtk output
ASCII
DATASET POLYDATA
POINTS 242 double
79.250461061 76.249156671 41.45388831 79.440927769 76.303239469 41.228529626 79.633105553 76.345979306 41.002189748 
79.82669341 76.377172121 40.775169624 80.021395425 76.396463132 40.547779962 80.216902255 76.4032669 40.320365886 
80.412854893 76.397178474 40.093319888 80.608865221 76.37770669 39.86708072 80.804495625 76.34419092 39.642163086 
80.999253732 76.296091865 39.419147746 81.192604366 76.232975055 39.19867177 81.383958111 76.154390531 38.981449628 
81.572657963 76.059889136 38.768287389 81.75803501 75.94932795 38.55999607 81.939407189 75.822722879 38.35739559 
82.116079012 75.680217043 38.161307988 82.287365439 75.522133651 37.972514681 82.45255634 75.348861368 37.791790459 
82.611039362 75.16111538 37.619727296 82.762215191 74.959662659 37.456836763 82.905494178 74.745319913 37.303539688 
83.040283275 74.518935608 37.160166434 83.165915631 74.281319627 37.027015467 83.2818575 74.033477201 36.904115492 
83.387468363 73.776310016 36.791489487 83.482056387 73.510716137 36.68907797 83.564781131 73.237554249 36.596805555 
83.635006279 72.957853402 36.514287647 83.691968377 72.67258783 36.441126852 83.734868639 72.382761837 36.376819409 
83.762909276 72.089434 36.320722165 83.77559198 71.793746519 36.271923619 83.772421105 71.496830774 36.229433201 
83.752917344 71.199838147 36.192143429 83.71698086 70.903920987 36.158730732 83.664737426 70.610173817 36.127768403 
83.596327388 70.319663369 36.097754515 83.512161249 70.033391231 36.067077041 83.412983452 69.752227048 36.034098076 
83.299394535 69.477080885 35.997085492 83.172338016 69.208748014 35.954302948 83.032879853 68.947979091 35.90403223 
82.881939905 68.695737405 35.844319033 82.720880752 68.452828524 35.773432128 82.551026319 68.220289177 35.689515642 
82.373802529 67.999480191 35.590533419 82.190978322 67.791841196 35.474713046 82.0045332 67.599165753 35.340337337 
81.816758945 67.423619566 35.185885497 81.630315412 67.267686791 35.010266473 81.448213973 67.134072001 34.813057957 
81.273720716 67.025507146 34.594746741 81.11015998 66.944470286 34.356902113 80.960772058 66.893110127 34.102090106 
80.828052143 66.872252942 33.834081164 80.713801307 66.8819077 33.557069558 80.618980448 66.921161108 33.275359969 
80.543758124 66.988352814 32.992992115 80.487673577 67.081337138 32.71348411 80.449848293 67.197741049 32.439723602 
80.429187712 67.335167394 32.173979475 80.424542514 67.491329633 31.917987468 80.434817188 67.664120235 31.673064531 
80.459201731 67.851800995 31.440393103 80.496714995 68.052487005 31.220680626 80.546635462 68.264591949 31.014572814 
80.608587748 68.486825919 30.822903925 80.681901248 68.717654213 30.645969009 80.766261488 68.95583881 30.484362371 
80.861352542 69.20012923 30.33860576 80.966703841 69.449227664 30.208926868 81.081959166 69.701945323 30.095709755 
81.206624895 69.957097646 29.999147663 81.339977478 70.213557793 29.919056805 81.481226522 70.470343385 29.855159785 
81.629463757 70.726632666 29.807010831 81.783566999 70.981828828 29.773747861 81.942301196 71.235611066 29.754237362 
82.104381955 71.487934995 29.747201874 82.268485498 71.739021042 29.751279253 82.4332366 71.989350941 29.764890093 
82.597275436 72.239598534 29.78639931 82.759241694 72.490573926 29.814236567 82.917730054 72.743191435 29.846834058 
83.071394136 72.998349772 29.882575869 83.218804317 73.256938648 29.919946326 83.358438948 73.519787174 29.957425065 
83.488887131 73.787496127 29.993528269 83.608582874 74.06053665 30.026798032 83.715857916 74.339164501 30.055760289 
83.809274669 74.623249691 30.07906704 83.887304886 74.912412711 30.095390754 83.948351925 75.205968769 30.103404966 
83.991138792 75.502829738 30.101977394 84.014541132 75.801601029 30.090099245 84.017583008 76.100600574 30.066873827 
83.999533397 76.397880767 30.031560627 83.959797613 76.691234472 29.98349956 83.898337502 76.978326778 29.922347685 
83.815313925 77.256701068 29.847858487 83.711186495 77.523825376 29.759924175 83.586741183 77.777145721 29.658580394 
83.44309865 78.01414025 29.544002235 83.281718691 78.232380575 29.416503442 83.104398235 78.429603092 29.276536757 
82.913212765 78.60369538 29.124650844 82.710632052 78.753052519 28.961616682 82.499294081 78.876393125 28.788270904 
82.281992292 78.972905594 28.605538931 82.061583972 79.04227994 28.414397739 81.8408955 79.084705673 28.215833367 
81.622636646 79.100838447 28.010798389 81.409332232 79.091742944 27.800174649 81.203345757 79.058654768 27.584714391 
81.006696855 79.003383209 27.365115504 80.821148211 78.927815438 27.141926401 80.648215205 78.833929793 26.915570189 
80.489276369 78.723677662 26.686343424 80.345379777 78.599204773 26.454474132 80.217280461 78.462697094 26.220121658 
80.105594448 78.316251991 25.983374007 80.010943996 78.16187672 25.744248598 79.933284865 78.001749256 25.502795724 
79.872546878 77.837868556 25.259017565 79.828510756 77.672162771 25.012889306 79.800588823 77.506495697 24.764388637 
79.787834323 77.342576248 24.513496093 79.789168742 77.181947129 24.260160027 79.803436449 77.026050383 24.004274495 
79.828989423 76.876028397 23.74576703 79.864192329 76.732867174 23.484513694 79.907350235 76.597432114 23.220346505 
79.956607507 76.47037152 22.953102154 80.010047372 76.352116931 22.682638199 80.065782418 76.243038106 22.408800821 
80.121893777 76.143465297 22.131441994 80.176479283 76.053435199 21.850541759 80.227696828 75.973009374 21.566116581 
80.273706318 75.902244717 21.278256028 80.312779856 75.841030892 20.987202599 80.343332169 75.789172219 20.693330182 
80.36388097 75.746448871 20.397129153 80.373037696 75.712610748 20.099215251 80.369647274 75.687282345 19.800340214 
80.352823476 75.669983679 19.501350482 80.3218329 75.660212829 19.203155143 80.276150353 75.65741215 18.90670566 
80.215330553 75.661025276 18.61299688 80.13931642 75.670377565 18.322979948 80.048146907 75.684816492 18.037577544 
79.941974787 75.703701503 17.757672776 79.821018225 75.726419497 17.484120748 79.6856013 75.752377654 17.217727168 
79.536277512 75.780995301 16.959154235 79.37356996 75.811768024 16.709040579 79.198022207 75.844253978 16.467986664 
79.010218819 75.878073977 16.236544104 78.810946022 75.912906151 16.015057232 78.600923417 75.948516847 15.803862567 
78.380848987 75.984751836 15.603271429 78.151496243 76.021531341 15.413462296 77.913708287 76.058849595 15.234443546 
77.668262258 76.096776724 15.066208094 77.415865604 76.13545863 14.908771056 77.157318918 76.175091222 14.761903809 
76.893356163 76.215921 14.62535807 76.624649199 76.258239689 14.498884716 76.351812859 76.30238531 14.382256766 
76.075497772 76.348677404 14.275028644 75.796264478 76.397457192 14.176839349 75.514623128 76.449080886 14.08736357 
75.231068072 76.503873251 14.006200983 74.946060608 76.562111258 13.932904089 74.660012957 76.624054067 13.867071292 
74.373300485 76.689955357 13.808354725 74.086275404 76.759964165 13.75629593 73.799247644 76.834189735 13.710462524 
73.512490712 76.912702683 13.670438804 73.226249991 76.995564681 13.635851328 72.940727694 77.082719893 13.606232281 
72.656091421 77.174095443 13.581145451 72.372476701 77.269591567 13.560160266 72.089998429 77.369113651 13.542869218 
71.808723672 77.47247841 13.528796345 71.528696538 77.579505766 13.517479506 71.249939279 77.69001103 13.508451709 
70.972465353 77.803831378 13.501243636 70.696248419 77.920742706 13.495335177 70.421256881 78.040544501 13.490204708 
70.147453329 78.163047563 13.485313375 69.874810577 78.288099591 13.480090195 69.60327922 78.415505648 13.473949507 
69.332833832 78.545119653 13.466288891 69.063469744 78.676823262 13.456481309 68.795214288 78.810533591 13.443860297 
68.528109911 78.946163707 13.427798547 68.2622492 79.083676057 13.407643184 67.997777156 79.223069913 13.382718671 
67.734889368 79.364366941 13.352358485 67.473816919 79.507590749 13.315974626 67.214852403 79.652791526 13.27297323 
66.958355021 79.800037143 13.222751889 66.704719241 79.949379355 13.16479472 66.454360493 80.100846144 13.098685555 
66.207740505 80.254456806 13.024026801 65.965381909 80.410220147 12.940414027 65.727786265 80.568091093 12.847598012 
65.495454072 80.727989381 12.745406824 65.268909863 80.889809744 12.633690246 65.048750295 81.053429024 12.512254266 
64.835460174 81.218656375 12.38112819 64.629556638 81.385280794 12.240322732 64.431579982 81.553062001 12.08985298 
64.242151331 81.721727868 11.929683338 64.061722015 81.890951344 11.759999008 63.890829769 82.060378346 11.580907123 
63.73002304 82.229612075 11.392532328 63.579909724 82.39820324 11.194982041 63.440890737 82.565673103 10.988562652 
63.31341628 82.731505983 10.773549926 63.197869521 82.895160583 10.550284841 63.094591101 83.056071285 10.31915057 
63.003759247 83.213685042 10.08063696 62.925352545 83.367497204 9.8353308593 62.859254627 83.517038398 9.5838351455 
62.805192225 83.661904706 9.3267857776 62.762788486 83.801747171 9.0648101151 62.731475245 83.936319652 8.7985472478 
62.710504326 84.06549639 8.5286197669 62.69909152 84.189208099 8.2555733368 62.696427639 84.307427597 7.9798774136 
62.701622062 84.420202909 7.7019437776 62.713695674 84.527679433 7.4221286312 62.731728778 84.629991819 7.1407000908 
62.754853211 84.727234654 6.8578483342 62.782076613 84.81964441 6.573742845 62.812494445 84.907388417 6.2884830554 
62.845215749 84.990587712 6.0021176359 62.879298912 85.069425078 5.7146786077 62.913804138 85.144050202 5.4261672345 
62.947759971 85.214578667 5.1365621448 62.980134445 85.281105152 4.8458314143 
VERTICES 243 242
OFFSETS vtktypeint64
0 1 2 3 4 5 6 7 8 
9 10 11 12 13 14 15 16 17 
18 19 20 21 22 23 24 25 26 
27 28 29 30 31 32 33 34 35 
36 37 38 39 40 41 42 43 44 
45 46 47 48 49 50 51 52 53 
54 55 56 57 58 59 60 61 62 
63 64 65 66 67 68 69 70 71 
72 73 74 75 76 77 78 79 80 
81 82 83 84 85 86 87 88 89 
90 91 92 93 94 95 96 97 98 
99 100 101 102 103 104 105 106 107 
108 109 110 111 112 113 114 115 116 
117 118 119 120 121 122 123 124 125 
126 127 128 129 130 131 132 133 134 
135 136 137 138 139 140 141 142 143 
144 145 146 147 148 149 150 151 152 
153 154 155 156 157 158 159 160 161 
162 163 164 165 166 167 168 169 170 
171 172 173 174 175 176 177 178 179 
180 181 182 183 184 185 186 187 188 
189 190 191 192 193 194 195 196 197 
198 199 200 201 202 203 204 205 206 
207 208 209 210 211 212 213 214 215 
216 217 218 219 220 221 222 223 224 
225 226 227 228 229 230 231 232 233 
234 235 236 237 238 239 240 241 242 

CONNECTIVITY vtktypeint64
0 1 2 3 4 5 6 7 8 
9 10 11 12 13 14 15 16 17 
18 19 20 21 22 23 24 25 26 
27 28 29 30 31 32 33 34 35 
36 37 38 39 40 41 42 43 44 
45 46 47 48 49 50 51 52 53 
54 55 56 57 58 59 60 61 62 
63 64 65 66 67 68 69 70 71 
72 73 74 75 76 77 78 79 80 
81 82 83 84 85 86 87 88 89 
90 91 92 93 94 95 96 97 98 
99 100 101 102 103 104 105 106 107 
108 109 110 111 112 113 114 115 116 
117 118 119 120 121 122 123 124 125 
126 127 128 129 130 131 132 133 134 
135 136 137 138 139 140 141 142 143 
144 145 146 147 148 149 150 151 152 
153 154 155 156 157 158 159 160 161 
162 163 164 165 166 167 168 169 170 
171 172 173 174 175 176 177 178 179 
180 181 182 183 184 185 186 187 188 
189 190 191 192 193 194 195 196 197 
198 199 200 201 202 203 204 205 206 
207 208 209 210 211 212 213 214 215 
216 217 218 219 220 221 222 223 224 
225 226 227 228 229 230 231 232 233 
234 235 236 237 238 239 240 241 
LINES 2 242
OFFSETS vtktypeint64
0 242 
CONNECTIVITY vtktypeint64
0 1 2 3 4 5 6 7 8 
9 10 11 12 13 14 15 16 17 
18 19 20 21 22 23 24 25 26 
27 28 29 30 31 32 33 34 35 
36 37 38 39 40 41 42 43 44 
45 46 47 48 49 50 51 52 53 
54 55 56 57 58 59 60 61 62 
63 64 65 66 67 68 69 70 71 
72 73 74 75 76 77 78 79 80 
81 82 83 84 85 86 87 88 89 
90 91 92 93 94 95 96 97 98 
99 100 101 102 103 104 105 106 107 
108 109 110 111 112 113 114 115 116 
117 118 119 120 121 122 123 124 125 
126 127 128 129 130 131 132 133 134 
135 136 137 138 139 140 141 142 143 
144 145 146 147 148 149 150 151 152 
153 154 155 156 157 158 159 160 161 
162 163 164 165 166 167 168 169 170 
171 172 173 174 175 176 177 178 179 
180 181 182 183 184 185 186 187 188 
189 190 191 192 193 194 195 196 197 
198 199 200 201 202 203 204 205 206 
207 208 209 210 211 212 213 214 215 
216 217 218 219 220 221 222 223 224 
225 226 227 228 229 230 231 232 233 
234 235 236 237 238 239 240 241 
POINT_DATA 242
SCALARS Curvature double
LOOKUP_TABLE default
0.12615296848 0.12741520275 0.12990656888 0.13350986551 0.13811579471 0.14361480034 0.14984646649 0.15663484299 0.16375881656 
0.17096454136 0.17796860234 0.18447814268 0.19021314531 0.19493173462 0.19847926583 0.20077782775 0.20186329579 0.20185786085 
0.20098716132 0.19952711272 0.1977467171 0.19589418435 0.19419209875 0.19281345676 0.19185845694 0.19133940968 0.19120922182 
0.19133801488 0.19156930833 0.19171134258 0.19157798499 0.19101684136 0.18992584054 0.18827249405 0.18612408736 0.18369292845 
0.18130730144 0.1794448391 0.1786655184 0.17959930531 0.18285675775 0.18898893866 0.19850851497 0.21164402083 0.2284576268 
0.24882296719 0.27231195231 0.29820413978 0.32542589078 0.35239584299 0.37708278465 0.39711048262 0.41029837955 0.41504743741 
0.41120883332 0.39978192379 0.38268190679 0.36211834457 0.34019991276 0.31856585519 0.29841417073 0.28044939672 0.26505922487 
0.25239826932 0.24237423852 0.23476587528 0.22927289924 0.22542384631 0.22267256133 0.22036829187 0.21778481317 0.21416985921 
0.20882653722 0.20124864489 0.19109967507 0.17822113129 0.16275869237 0.14520277551 0.12630286995 0.10713829206 0.089291055006 
0.075145368145 0.068003880385 0.070451673602 0.081470224076 0.097963374571 0.1172384636 0.13763078572 0.15817521653 0.17823497515 
0.1973673668 0.21526370642 0.23174111457 0.24667643521 0.25997723349 0.27165052917 0.28185419614 0.29076983118 0.29859274702 
0.30547154889 0.31153935206 0.31682241583 0.32126602335 0.32469123923 0.32687414611 0.32751968626 0.32639710551 0.32331756703 
0.31828698078 0.31144502107 0.30305244244 0.29343879833 0.28300141334 0.27213734227 0.26125850582 0.25073347556 0.24082483518 
0.23169387662 0.22336909187 0.21577164655 0.20872080273 0.20197110839 0.19522724014 0.1882212718 0.1807189633 0.17258989079 
0.1638133249 0.15453848511 0.14505131495 0.13576623387 0.12719277038 0.1199493174 0.11468130475 0.11193161107 0.11203573087 
0.11499372877 0.12039328066 0.12762443809 0.13599318053 0.14480791368 0.15348049097 0.16152867848 0.16860282316 0.17446521433 
0.17902235582 0.18226939537 0.18431279552 0.1853064168 0.185431487 0.18485691658 0.18373716066 0.18219448707 0.18031254392 
0.17813639767 0.17566855468 0.17288117383 0.1697295096 0.16617387721 0.16218142926 0.15774208017 0.15287353642 0.14763697887 
0.14211525067 0.13641796048 0.13067004985 0.12499571201 0.11951350117 0.11431707152 0.10946747414 0.10499359867 0.10089399038 
0.097128376351 0.093626971693 0.090305610859 0.08707307157 0.083841078593 0.080537455688 0.077106141967 0.073511431159 0.069736637712 
0.065779338594 0.061650134754 0.057367274481 0.052969647225 0.048518714242 0.044109409906 0.039888962849 0.03607756672 0.033000333882 
0.031075033636 0.030741884721 0.032214866907 0.035411439198 0.040027692877 0.045699699869 0.052092224428 0.058954097833 0.066082295956 
0.073315170584 0.08051220155 0.087554762066 0.094333980356 0.10075798392 0.10676960637 0.11232616356 0.11740134672 0.12199410704 
0.12614279954 0.12990817848 0.13337345254 0.13664029529 0.13980586406 0.14295552777 0.14614645885 0.14939428206 0.15266773125 
0.155876711 0.15887881142 0.16148280464 0.16346438226 0.16457950825 0.16459016696 0.1633372387 0.16071897148 0.15668526387 
0.1512458201 0.14452218971 0.13670561771 0.12803681526 0.11876663096 0.10914550533 0.09942563268 0.089848256666 0.080661873944 
0.072158974802 0.064683321125 0.058695423645 0.054795620316 0.053593593588 0.055514734581 0.060647490339 0.068786123189 
