# vtk DataFile Version 5.1
vtk output
ASCII
DATASET POLYDATA
POINTS 200 double
109.11330495 70.510633006 30.59147395 108.96903132 70.676433575 30.387316775 108.81412283 70.842215543 30.191092136 
108.64850715 71.006998178 30.002936615 108.4721553 71.169746087 29.822945765 108.28513652 71.329397664 29.65113648 
108.08745917 71.484813414 29.487574421 107.87923942 71.63481425 29.332248572 107.66072342 71.778219076 29.185053571 
107.43221952 71.913811935 29.045839981 107.19417277 72.040392496 28.91434542 106.94718584 72.156818253 28.79015782 
106.69201579 72.262033265 28.672690462 106.42959182 72.355146857 28.561136851 106.16097898 72.435468892 28.4544767 
105.88731711 72.502473688 28.351515988 105.60979868 72.555805711 28.250911695 105.3296422 72.595252013 28.151216903 
105.04807311 72.62068712 28.050941131 104.7663229 72.63196689 27.948607613 104.48562473 72.62910347 27.842867609 
104.20721464 72.611999929 27.732530461 103.93236058 72.580482404 27.616600834 103.66238965 72.534273493 27.494307845 
103.39859598 72.473211996 27.365249142 103.14231916 72.396999941 27.229293292 102.89498069 72.305219812 27.086576495 
102.65793178 72.197622893 26.937597097 102.43254086 72.073977769 26.783091093 102.22021417 71.934090097 26.624002204 
102.02247214 71.777776245 26.46145434 101.84061736 71.605262654 26.296770166 101.67602787 71.41687381 26.131331385 
101.53003225 71.213199149 25.966556489 101.40389499 70.995103085 25.803853557 101.29882217 70.763714359 25.644586744 
101.21571039 70.520539705 25.48998203 101.15533827 70.267287053 25.341116254 101.11824749 70.005879335 25.198873801 
101.10471292 69.738391273 25.063927032 101.11471958 69.46697537 24.936730523 101.14795902 69.193782289 24.817528396 
101.20382967 68.920884079 24.706365997 101.28142537 68.650199013 24.60309467 101.3795562 68.383417901 24.507388926 
101.49680154 68.121947164 24.418776322 101.63146524 67.866828158 24.336622102 101.78179001 67.618762368 24.26020588 
101.94600094 67.378128321 24.188733557 102.12238593 67.145033745 24.12136605 102.30943595 66.919446209 24.057263371 
102.50566125 66.701103755 23.995530389 102.70986098 66.48975884 23.935306494 102.92115496 66.285309213 23.875744722 
103.13871212 66.087593552 23.815993189 103.36205684 65.896765653 23.755207963 103.59080359 65.713077141 23.692551716 
103.82478113 65.53709459 23.627161357 104.06390989 65.369625728 23.558163156 104.30818386 65.211784565 23.484658711 
104.55762394 65.065065118 23.405694678 104.81212046 64.931170848 23.32036534 105.07147366 64.812369797 23.227666529 
105.33514296 64.711136207 23.126714946 105.60219121 64.630279512 23.016729683 105.87114157 64.572845531 22.897131712 
106.13986204 64.541843931 22.767704461 106.40555166 64.539947555 22.628722835 106.66485591 64.569144758 22.481040421 
106.91412976 64.630410147 22.326097288 107.14975476 64.723608632 22.165809378 107.36876556 64.847054263 22.002426834 
107.56893759 64.998264436 21.838194917 107.74893022 65.174178178 21.675184082 107.90820538 65.371538769 21.515164238 
108.04686263 65.587174063 21.359562267 108.16546024 65.818160074 21.209473815 108.26479493 66.061928746 21.065720789 
108.34582809 66.316230088 20.928879605 108.40974882 66.579046525 20.799235501 108.45761359 66.848715482 20.676926774 
108.49045958 67.123793501 20.561909773 108.50948678 67.402971658 20.453849363 108.51563093 67.685170787 20.352314874 
108.51000527 67.96939308 20.256543486 108.49363473 68.254780432 20.165573622 108.4674243 68.540576767 20.07825008 
108.43244394 68.826106938 19.99314671 108.38963581 69.110773143 19.908719631 108.3399071 69.394007919 19.823273068 
108.28427206 69.675286854 19.735053588 108.22368891 69.954074753 19.642306461 108.15913192 70.229816887 19.543348883 
108.09158237 70.501909677 19.436602384 108.02205851 70.769748732 19.320763594 107.95156034 71.032692675 19.194755054 
107.88106543 71.290087419 19.057772878 107.81150347 71.54129284 18.909309861 107.74372737 71.785701289 18.749139719 
107.67849158 72.022738581 18.577265004 107.61643476 72.251866715 18.39387483 107.55803968 72.472642094 18.199374887 
107.50365379 72.684644924 17.994243547 107.45347546 72.887502016 17.779037506 107.40755731 73.080881944 17.5543611 
107.36584196 73.264444919 17.320804261 107.32811278 73.438023094 17.079078203 107.2941045 73.601446879 16.82983689 
107.26350701 73.754609232 16.573728201 107.23601366 73.897400162 16.311349969 107.21129128 74.029931211 16.043372144 
107.18907653 74.152338528 15.770403913 107.16918519 74.264841173 15.493027578 107.15154593 74.367673775 15.211770761 
107.13615669 74.461300187 14.927185343 107.12314118 74.546181937 14.639751508 107.11273658 74.622849005 14.349910879 
107.10531404 74.691850551 14.058057977 107.10130649 74.753904824 13.764582248 107.10125712 74.809724145 13.469829002 
107.10578634 74.860067994 13.174125206 107.11561698 74.90570699 12.877787138 107.13145076 74.947501864 12.581142766 
107.1540517 74.986291469 12.284529471 107.18419961 75.02290613 11.98831202 107.22269219 75.058141664 11.692896567 
107.27025795 75.092742699 11.398732486 107.3275314 75.127367857 11.106308726 107.3950839 75.162575346 10.816159288 
107.4733743 75.198809732 10.528850236 107.56275107 75.236392058 10.244970644 107.66341703 75.275519138 9.9651084441 
107.77538186 75.316271014 9.6898090836 107.89856717 75.358652617 9.4195953367 108.03278344 75.402620667 9.1549458185 
108.17775318 75.448117989 8.8962934394 108.3331528 75.49511299 8.6440435989 108.49847782 75.543613392 8.3984772145 
108.67321822 75.593718877 8.1598494284 108.8568152 75.64562974 7.9283621385 109.04871387 75.699661627 7.7042078571 
109.24827148 75.756213731 7.4874857993 109.4548409 75.81576543 7.2782664434 109.66779115 75.878865029 7.0766200381 
109.88652267 75.946124291 6.8826519607 110.11039665 76.018127582 6.6964088045 110.33880006 76.095430832 6.5179533687 
110.57114936 76.178554557 6.347382077 110.80688906 76.267986777 6.1848431754 111.04545352 76.364095953 6.0304422847 
111.28629702 76.467154346 5.8842830734 111.52889729 76.577353715 5.7464776025 111.7727467 76.694791697 5.6171124416 
112.01735307 76.819499844 5.4962603324 112.26223745 76.951342964 5.3838391317 112.5069567 77.090136602 5.2797300076 
112.75110914 77.235606442 5.183714847 112.9943478 77.387400776 5.0954797543 113.23639517 77.545094665 5.0146179393 
113.47707583 77.708141412 4.9405748809 113.71630973 77.875965475 4.8727724449 113.95411944 78.047947244 4.8106032034 
114.19062498 78.223449328 4.7534952436 114.42606858 78.401754642 4.7008513804 114.66077633 78.582151139 4.6521911002 
114.89514815 78.763922706 4.6071596416 115.12964106 78.946358508 4.5655750279 115.36473722 79.128756728 4.5273705385 
115.6009158 79.310455243 4.4926728512 115.83862616 79.490836614 4.4617773425 116.07826882 79.669332274 4.4351645886 
116.32012325 79.845480967 4.4133759168 116.56435618 80.018912934 4.3970212379 116.81100262 80.189365076 4.3866851994 
117.05996788 80.35668688 4.3828529331 117.31105107 80.520830188 4.3858679437 117.563949 80.68188718 4.3957801918 
117.8183204 80.840051718 4.4123536869 118.0738333 80.995599332 4.4350382637 118.33020605 81.148864702 4.4629741099 
118.58723878 81.300207643 4.4950398405 118.84481923 81.45001197 4.5298314541 119.10292787 81.598639082 4.5657450347 
119.36162171 81.746404201 4.6009963919 119.62100499 81.893557372 4.6336319807 119.8811837 82.040268523 4.6615600924 
120.14220635 82.186615046 4.6826374653 120.40401495 82.332569345 4.6946539776 120.66638477 82.477993012 4.6953936141 
120.92887272 82.622633594 4.6827072931 121.19078067 82.76613106 4.6546079333 121.45114703 82.908031921 4.6093779925 
121.70877532 83.047810886 4.5456758232 121.96229218 83.184894428 4.4625922899 122.21024373 83.31869909 4.3597375423 
122.45124132 83.448691911 4.2373331536 122.68406306 83.574423288 4.096095593 122.90761321 83.695494332 3.9369359604 
123.12125957 83.81171755 3.7613945088 123.32452291 83.922958302 3.5709166512 
VERTICES 201 200
OFFSETS vtktypeint64
0 1 2 3 4 5 6 7 8 
9 10 11 12 13 14 15 16 17 
18 19 20 21 22 23 24 25 26 
27 28 29 30 31 32 33 34 35 
36 37 38 39 40 41 42 43 44 
45 46 47 48 49 50 51 52 53 
54 55 56 57 58 59 60 61 62 
63 64 65 66 67 68 69 70 71 
72 73 74 75 76 77 78 79 80 
81 82 83 84 85 86 87 88 89 
90 91 92 93 94 95 96 97 98 
99 100 101 102 103 104 105 106 107 
108 109 110 111 112 113 114 115 116 
117 118 119 120 121 122 123 124 125 
126 127 128 129 130 131 132 133 134 
135 136 137 138 139 140 141 142 143 
144 145 146 147 148 149 150 151 152 
153 154 155 156 157 158 159 160 161 
162 163 164 165 166 167 168 169 170 
171 172 173 174 175 176 177 178 179 
180 181 182 183 184 185 186 187 188 
189 190 191 192 193 194 195 196 197 
198 199 200 
CONNECTIVITY vtktypeint64
0 1 2 3 4 5 6 7 8 
9 10 11 12 13 14 15 16 17 
18 19 20 21 22 23 24 25 26 
27 28 29 30 31 32 33 34 35 
36 37 38 39 40 41 42 43 44 
45 46 47 48 49 50 51 52 53 
54 55 56 57 58 59 60 61 62 
63 64 65 66 67 68 69 70 71 
72 73 74 75 76 77 78 79 80 
81 82 83 84 85 86 87 88 89 
90 91 92 93 94 95 96 97 98 
99 100 101 102 103 104 105 106 107 
108 109 110 111 112 113 114 115 116 
117 118 119 120 121 122 123 124 125 
126 127 128 129 130 131 132 133 134 
135 136 137 138 139 140 141 142 143 
144 145 146 147 148 149 150 151 152 
153 154 155 156 157 158 159 160 161 
162 163 164 165 166 167 168 169 170 
171 172 173 174 175 176 177 178 179 
180 181 182 183 184 185 186 187 188 
189 190 191 192 193 194 195 196 197 
198 199 
LINES 2 200
OFFSETS vtktypeint64
0 200 
CONNECTIVITY vtktypeint64
0 1 2 3 4 5 6 7 8 
9 10 11 12 13 14 15 16 17 
18 19 20 21 22 23 24 25 26 
27 28 29 30 31 32 33 34 35 
36 37 38 39 40 41 42 43 44 
45 46 47 48 49 50 51 52 53 
54 55 56 57 58 59 60 61 62 
63 64 65 66 67 68 69 70 71 
72 73 74 75 76 77 78 79 80 
81 82 83 84 85 86 87 88 89 
90 91 92 93 94 95 96 97 98 
99 100 101 102 103 104 105 106 107 
108 109 110 111 112 113 114 115 116 
117 118 119 120 121 122 123 124 125 
126 127 128 129 130 131 132 133 134 
135 136 137 138 139 140 141 142 143 
144 145 146 147 148 149 150 151 152 
153 154 155 156 157 158 159 160 161 
162 163 164 165 166 167 168 169 170 
171 172 173 174 175 176 177 178 179 
180 181 182 183 184 185 186 187 188 
189 190 191 192 193 194 195 196 197 
198 199 
POINT_DATA 200
SCALARS Curvature double
LOOKUP_TABLE default
0.15072514367 0.15147805783 0.15262532118 0.1542326053 0.15633366227 0.15888472747 0.16175267886 0.16474577118 0.16760752935 
0.16994604974 0.17133787324 0.17140674666 0.17002983462 0.16740272655 0.16406047297 0.16072590387 0.15819399797 0.15731133948 
0.1587426891 0.16266211125 0.16877441784 0.1765217839 0.18527468359 0.19444035621 0.20357608779 0.21243558362 0.22103369343 
0.2294876026 0.23782836759 0.24603759599 0.25400652571 0.26152771445 0.26829566313 0.27415447599 0.27897372304 0.28241910012 
0.28423454258 0.28433307376 0.28267489156 0.27921190436 0.274061509 0.26724815183 0.25842462741 0.24738450772 0.234181491 
0.2190572263 0.202459042 0.1850287004 0.16746305093 0.1504423873 0.13479305911 0.1213745339 0.11084900724 0.10383754434 
0.10069624049 0.10181333225 0.10744443528 0.1175593809 0.13189985171 0.15013765861 0.17196683391 0.19709282303 0.22517249604 
0.2554889598 0.28685739025 0.31743552345 0.34527783085 0.36819128758 0.383768273 0.39024270005 0.3870760664 0.37548121254 
0.3576558606 0.33627801299 0.31344027621 0.29051458439 0.2684804041 0.24784734448 0.22876323699 0.21106739667 0.19453672693 
0.17877799554 0.16328406545 0.1477431266 0.13208852582 0.1165574329 0.10184069933 0.089194314466 0.080449075498 0.077579797552 
0.081233450403 0.090061111608 0.10175536131 0.11429627741 0.12635796324 0.13701165544 0.14563277336 0.15208039387 0.15647557338 
0.15907532429 0.16015545693 0.15997887042 0.15874019762 0.15660934786 0.15377991759 0.15042217498 0.14669123682 0.14266380388 
0.13835021201 0.13373084033 0.12876999332 0.12345794647 0.11780750093 0.11188057787 0.10576588767 0.099596759339 0.093594573157 
0.088080673369 0.08344175047 0.080152753793 0.078687335876 0.079421647342 0.082470815137 0.087619790039 0.09435054165 0.1019806074 
0.10985282251 0.11743641011 0.12423299173 0.12983367078 0.1340518518 0.13685607167 0.13835357165 0.13870498062 0.1380847648 
0.13659787929 0.13434850864 0.13151596876 0.12831310316 0.12499216279 0.12183150475 0.11911591586 0.11709980484 0.1159645061 
0.11576102684 0.11638937786 0.11765836377 0.11932300328 0.12111139893 0.12274859941 0.12397202867 0.12453547883 0.12426382795 
0.12303536265 0.12068133359 0.11703287998 0.11200325798 0.10559072906 0.097892812989 0.089154160171 0.079694224045 0.069809387711 
0.059906428881 0.050703682876 0.043204581105 0.03871247555 0.038284652049 0.041838111237 0.048333064345 0.056455570801 0.064975528725 
0.072967143576 0.079691147287 0.084577619529 0.087104217066 0.086677009853 0.082878958789 0.075582489481 0.064978998224 0.051504608908 
0.035706883846 0.019161059596 0.014080348419 0.031654255663 0.054323811282 0.078305178894 0.10271881811 0.12696839128 0.15042664186 
0.17241882134 0.19229405819 0.20948221052 0.22357281564 0.23425007876 0.24127887545 0.24469397982 0.24479035987 0.24194672044 
0.23670132173 0.22959992658 
