# vtk DataFile Version 5.1
vtk output
ASCII
DATASET POLYDATA
POINTS 243 double
112.28432797 82.566984289 36.647343523 112.1779679 82.750826126 36.435569004 112.05526675 82.920818953 36.221084517 
111.9166679 83.075330518 36.004585289 111.76302679 83.212934289 35.786837775 111.59546187 83.332344362 35.568627838 
111.41534425 83.43250111 35.350726962 111.22406932 83.512206021 35.133896734 111.02345633 83.570951375 34.918826155 
110.81527516 83.608166624 34.706155351 110.60138184 83.623498455 34.496462467 110.38366638 83.616704512 34.290278004 
110.16405964 83.587973713 34.088028227 109.94442853 83.537668 33.890065885 109.72655811 83.466354968 33.696660136 
109.51211635 83.37483903 33.507978311 109.30261583 83.264144741 33.324073225 109.09938385 83.135483239 33.144874134 
108.90361015 82.990088742 32.970216388 108.7161778 82.829516932 32.799748721 108.53780576 82.65525981 32.633034683 
108.3690411 82.468796637 32.469544181 108.21035447 82.271502694 32.308684527 108.06203257 82.064782332 32.149779844 
107.92421921 81.849990922 31.992119255 107.79708389 81.628326389 31.834994186 107.68084802 81.400879788 31.677689379 
107.57548653 81.168781282 31.519522775 107.48110249 80.93300926 31.359861942 107.39793445 80.694458332 31.198105723 
107.32599891 80.454023814 31.033776378 107.26541684 80.212506679 30.866484319 107.21634422 79.970645918 30.69594671 
107.17903945 79.729128555 30.521977897 107.15353778 79.488566596 30.344591778 107.13997678 79.249500047 30.163901398 
107.13847094 79.012398886 29.98014436 107.14910284 78.777664688 29.793667957 107.17201043 78.545661189 29.604892273 
107.20710442 78.316664035 29.4143285 107.25433145 78.090936446 29.222489368 107.31358709 77.868734141 29.029873216 
107.38475533 77.65033969 28.836933087 107.46768931 77.436079715 28.644056459 107.56203367 77.226266011 28.451536791 
107.66752579 77.021308418 28.259570199 107.78396195 76.821730654 28.068262623 107.91084347 76.627975991 27.877612445 
108.04801708 76.440755458 27.687562121 108.19498981 76.260637435 27.497975031 108.35160613 76.088508561 27.308689024 
108.51740559 75.925082673 27.119511863 108.69230163 75.771534952 26.930253884 108.87583165 75.628753943 26.740747902 
109.06789652 75.49824654 26.550857296 109.26804876 75.381250215 26.360522271 109.47608215 75.279741069 26.169761186 
109.69141787 75.195443125 25.978737532 109.91352199 75.130880033 25.787790286 110.14148344 75.088698424 25.597521988 
110.37399944 75.071869378 25.408879648 110.60921719 75.083754079 25.223280568 110.84450436 75.127766137 25.04272578 
111.07624536 75.207240384 24.869943123 111.29984383 75.324315263 24.708245637 111.50999068 75.479476645 24.561303786 
111.70136336 75.670862265 24.432560907 111.86946207 75.894304995 24.32463239 112.01188376 76.143575192 24.238403319 
112.12772279 76.412417212 24.173692987 112.21824964 76.694715675 24.128772042 112.28556906 76.985664345 24.101464681 
112.33230455 77.281666666 24.089360604 112.36124951 77.580204469 24.090049681 112.37511075 77.879632752 24.101280989 
112.3762352 78.178947016 24.121119839 112.36702477 78.477611837 24.147644317 112.34948313 78.775417444 24.179230528 
112.32548103 79.072380069 24.214352863 112.29675243 79.368669482 24.251577747 112.26488797 79.664545383 24.28954604 
112.23137641 79.960312417 24.326944236 112.1976069 80.256278297 24.362486217 112.16485596 80.552711805 24.394937778 
112.13430978 80.849820618 24.423052651 112.10695892 81.147700497 24.445748322 112.08368534 81.446348629 24.461928109 
112.06513767 81.745634062 24.470680724 112.05170618 82.045317624 24.471305264 112.0435636 82.345083405 24.463250474 
112.04066339 82.644564555 24.446120769 112.04270782 82.943380966 24.419754789 112.04921 83.241176576 24.384172047 
112.05958444 83.537628146 24.339449479 112.07317608 83.83244894 24.285706697 112.08932054 84.125359977 24.222975963 
112.10731001 84.416136596 24.151437869 112.12650281 84.70453511 24.071123522 112.14630502 84.990279666 23.981957501 
112.16616765 85.273053021 23.883790441 112.18560313 85.552533896 23.776534271 112.20418402 85.82832803 23.65998673 
112.22151943 86.099945433 23.533836607 112.23728976 86.366925162 23.39796127 112.2512204 86.628762014 23.25223699 
112.26307907 86.884934902 23.096599145 112.27265825 87.13488608 22.931007133 112.27983826 87.378223586 22.755728696 
112.2845329 87.614609082 22.571101644 112.28670146 87.843822264 22.377594636 112.28634232 88.065766327 22.175776637 
112.28350282 88.280512187 21.966332396 112.27829804 88.488357868 21.750080708 112.2708718 88.689706603 21.527826772 
112.26140944 88.885083146 21.300376736 112.25012966 89.075080829 21.068493258 112.23733221 89.260468768 20.832983663 
112.22334368 89.441998412 20.594552227 112.20853729 89.620420685 20.353833968 112.19335043 89.796509339 20.111425983 
112.17826922 89.971012765 19.86786719 112.16382809 90.144611496 19.623623842 112.15062651 90.317934246 19.379114671 
112.13928184 90.491534708 19.13470986 112.1304564 90.665872736 18.890727138 112.12489716 90.841336065 18.647456869 
112.12328211 91.018181727 18.405132676 112.12633351 91.196579232 18.163963752 112.13483327 91.376617761 17.924149972 
112.14947012 91.558266216 17.68585313 112.17091333 91.74141266 17.449225713 112.19985759 91.925881231 17.214432239 
112.23697853 92.11142761 16.981649201 112.2827952 92.29774238 16.751041726 112.33784791 92.484488584 16.52281661 
112.40271736 92.671298246 16.297239459 112.47778278 92.857783047 16.074578001 112.56337868 93.043554999 15.85514541 
112.65979987 93.228230216 15.639306274 112.76738238 93.411418177 15.42751385 112.88614447 93.592781408 15.220175214 
113.01611736 93.772003617 15.017759195 113.15724279 93.948806367 14.820754826 113.30946739 94.122929079 14.629717694 
113.47243789 94.29420994 14.44508628 113.64579474 94.462522021 14.267312003 113.82910525 94.627788469 14.096811096 
114.02193446 94.789959589 13.934009264 114.22365474 94.949077444 13.779163179 114.43362341 95.105222119 13.632468383 
114.65119175 95.258506556 13.494060591 114.87575307 95.409055789 13.364072099 115.10658457 95.557069606 13.242421381 
115.34301358 95.702757652 13.128986953 115.58441622 95.846335961 13.02361857 115.83022321 95.988021299 12.926163907 
116.07981942 96.128072549 12.836269349 116.33268673 96.266725866 12.753637388 116.58837591 96.404203932 12.678018215 
116.84643283 96.540743281 12.609029804 117.10646566 96.676561739 12.546319308 117.36814206 96.811858961 12.489600236 
117.63115624 96.94682644 12.438565814 117.89523087 97.081641451 12.392882569 118.1601334 97.21646304 12.352291248 
118.4256613 97.351439153 12.316591787 118.69162414 97.486699178 12.285501189 118.95786224 97.622358868 12.258816508 
119.22423387 97.758526309 12.236386394 119.49061003 97.895292119 12.218017614 119.75687701 98.032735633 12.203532494 
120.02293143 98.170932238 12.192783077 120.28867328 98.309962467 12.185659466 120.55401429 98.449889125 12.181979003 
120.81886563 98.590788312 12.181605445 121.08313385 98.73275108 12.184420529 121.34672044 98.875882407 12.190300785 
121.60952626 99.02029415 12.199097494 121.87143632 99.166129123 12.210688534 122.13231112 99.31357165 12.224975586 
122.3920066 99.462814421 12.241822835 122.65036148 99.614076503 12.261095492 122.90719116 99.767609384 12.282660481 
123.16227276 99.923715449 12.306388416 123.41540787 100.08265321 12.332076874 123.66636956 100.24471363 12.359517814 
123.91490856 100.41020805 12.388469198 124.1607877 100.57941826 12.418623616 124.4037991 100.7525745 12.449608159 
124.64373351 100.92989956 12.480991368 124.88036057 101.11163399 12.51225782 125.11355998 101.29786298 12.542814423 
125.34320039 101.48867866 12.571992677 125.56914574 101.68416504 12.599015196 125.79133229 101.88429416 12.623040962 
126.00971861 102.08898274 12.643168583 126.22424087 102.29813072 12.658398454 126.43481859 102.51159056 12.667640629 
126.64141314 102.72908921 12.669867893 126.84391277 102.95033606 12.66398991 127.04212671 103.17499549 12.64885983 
127.23583856 103.40262979 12.623450321 127.42477615 103.63273489 12.586854095 127.60857944 103.86476208 12.538238908 
127.78681351 104.09811343 12.476897283 127.9589751 104.33214883 12.402270045 128.1246028 104.56620693 12.314158733 
128.28318859 104.79964021 12.212483025 128.43423829 105.03182617 12.097362664 128.57725452 105.2621749 11.969043764 
128.71180154 105.49015112 11.827963893 128.83756022 105.715304 11.674764045 128.95422586 105.93723728 11.510097431 
129.06151661 106.1556015 11.334632673 129.15917654 106.37008526 11.149047876 129.24712936 106.58047298 10.954153776 
129.32525895 106.78654662 10.750651254 129.39338579 106.98805776 10.539140407 129.45152038 107.18483424 10.320316378 
129.49968564 107.37669629 10.094807531 129.53785389 107.56341543 9.863149384 129.56606099 107.74476418 9.6258660503 
129.58450374 107.92057537 9.3835094099 129.5933451 108.09063835 9.1365514044 129.59268621 108.25466836 8.8853899377 
129.58293338 108.41254814 8.630503802 129.56442517 108.56410114 8.3722827282 129.53750643 108.70912733 8.1110685821 
129.50264569 108.84749401 7.8471941865 129.4604032 108.97912994 7.5809643138 129.41133464 109.1039435 7.3126251686 
129.35596679 109.22177276 7.0423597789 129.29500856 109.33263145 6.7703538219 129.22911155 109.43645787 6.4967279963 
129.15892338 109.53315021 6.221558265 129.08512099 109.62261068 5.9448917565 129.00841801 109.70480422 5.6667636997 
128.92950006 109.77962568 5.3871775797 128.84905317 109.84690201 5.1061134067 128.7677918 109.90651038 4.823557272 
128.68643316 109.9583241 4.5394969687 128.60570426 110.00216395 4.2539188793 128.52635361 110.03783161 3.9668210495 

VERTICES 244 243
OFFSETS vtktypeint64
0 1 2 3 4 5 6 7 8 
9 10 11 12 13 14 15 16 17 
18 19 20 21 22 23 24 25 26 
27 28 29 30 31 32 33 34 35 
36 37 38 39 40 41 42 43 44 
45 46 47 48 49 50 51 52 53 
54 55 56 57 58 59 60 61 62 
63 64 65 66 67 68 69 70 71 
72 73 74 75 76 77 78 79 80 
81 82 83 84 85 86 87 88 89 
90 91 92 93 94 95 96 97 98 
99 100 101 102 103 104 105 106 107 
108 109 110 111 112 113 114 115 116 
117 118 119 120 121 122 123 124 125 
126 127 128 129 130 131 132 133 134 
135 136 137 138 139 140 141 142 143 
144 145 146 147 148 149 150 151 152 
153 154 155 156 157 158 159 160 161 
162 163 164 165 166 167 168 169 170 
171 172 173 174 175 176 177 178 179 
180 181 182 183 184 185 186 187 188 
189 190 191 192 193 194 195 196 197 
198 199 200 201 202 203 204 205 206 
207 208 209 210 211 212 213 214 215 
216 217 218 219 220 221 222 223 224 
225 226 227 228 229 230 231 232 233 
234 235 236 237 238 239 240 241 242 
243 
CONNECTIVITY vtktypeint64
0 1 2 3 4 5 6 7 8 
9 10 11 12 13 14 15 16 17 
18 19 20 21 22 23 24 25 26 
27 28 29 30 31 32 33 34 35 
36 37 38 39 40 41 42 43 44 
45 46 47 48 49 50 51 52 53 
54 55 56 57 58 59 60 61 62 
63 64 65 66 67 68 69 70 71 
72 73 74 75 76 77 78 79 80 
81 82 83 84 85 86 87 88 89 
90 91 92 93 94 95 96 97 98 
99 100 101 102 103 104 105 106 107 
108 109 110 111 112 113 114 115 116 
117 118 119 120 121 122 123 124 125 
126 127 128 129 130 131 132 133 134 
135 136 137 138 139 140 141 142 143 
144 145 146 147 148 149 150 151 152 
153 154 155 156 157 158 159 160 161 
162 163 164 165 166 167 168 169 170 
171 172 173 174 175 176 177 178 179 
180 181 182 183 184 185 186 187 188 
189 190 191 192 193 194 195 196 197 
198 199 200 201 202 203 204 205 206 
207 208 209 210 211 212 213 214 215 
216 217 218 219 220 221 222 223 224 
225 226 227 228 229 230 231 232 233 
234 235 236 237 238 239 240 241 242 

LINES 2 243
OFFSETS vtktypeint64
0 243 
CONNECTIVITY vtktypeint64
0 1 2 3 4 5 6 7 8 
9 10 11 12 13 14 15 16 17 
18 19 20 21 22 23 24 25 26 
27 28 29 30 31 32 33 34 35 
36 37 38 39 40 41 42 43 44 
45 46 47 48 49 50 51 52 53 
54 55 56 57 58 59 60 61 62 
63 64 65 66 67 68 69 70 71 
72 73 74 75 76 77 78 79 80 
81 82 83 84 85 86 87 88 89 
90 91 92 93 94 95 96 97 98 
99 100 101 102 103 104 105 106 107 
108 109 110 111 112 113 114 115 116 
117 118 119 120 121 122 123 124 125 
126 127 128 129 130 131 132 133 134 
135 136 137 138 139 140 141 142 143 
144 145 146 147 148 149 150 151 152 
153 154 155 156 157 158 159 160 161 
162 163 164 165 166 167 168 169 170 
171 172 173 174 175 176 177 178 179 
180 181 182 183 184 185 186 187 188 
189 190 191 192 193 194 195 196 197 
198 199 200 201 202 203 204 205 206 
207 208 209 210 211 212 213 214 215 
216 217 218 219 220 221 222 223 224 
225 226 227 228 229 230 231 232 233 
234 235 236 237 238 239 240 241 242 

POINT_DATA 243
SCALARS Curvature double
LOOKUP_TABLE default
0.24972434096 0.25433097104 0.25775806443 0.259980769 0.2610617774 0.26113777346 0.26038498051 0.25898339096 0.25709187322 
0.25479483286 0.25208367766 0.24884910002 0.24491682891 0.24007286706 0.23412908222 0.22695863315 0.21857704295 0.20915662714 
0.19894371776 0.18825202863 0.17745118651 0.16697997738 0.15726225715 0.14868664135 0.14155350922 0.13607668459 0.1323578545 
0.13031769407 0.12976544904 0.13041256692 0.131882594 0.13380222454 0.13583116888 0.13769375818 0.13921361595 0.1403041425 
0.140961136 0.14124381055 0.14125010088 0.14107260347 0.14076609283 0.14034758867 0.1397962691 0.13910898192 0.13831069371 
0.13750743332 0.13688033466 0.13669301937 0.13727857181 0.1390002988 0.14227660644 0.14746498224 0.15497967137 0.16510345538 
0.17821650065 0.19455557643 0.21449930742 0.23828958468 0.26622941868 0.29844171575 0.33469033384 0.37414109284 0.41477733845 
0.45297875881 0.4833666359 0.5000118855 0.49850637057 0.47838697499 0.44343170838 0.39934012106 0.35165051817 0.30418537774 
0.25913207011 0.21747361776 0.17937829708 0.14469614946 0.11306345088 0.08424798785 0.058295137429 0.036254069734 0.023607366584 
0.029547599181 0.045130562604 0.061756400465 0.077118326925 0.09041227697 0.10119089327 0.10917662216 0.11427720817 0.1166057099 
0.1165677434 0.11475140209 0.11185047569 0.1085739874 0.10556791622 0.10340541067 0.10244370206 0.10289284894 0.10474922073 
0.10786481076 0.11192638369 0.11655229096 0.12133131926 0.12583389576 0.12963366163 0.13230533509 0.13346956253 0.13286910103 
0.13034016351 0.12585638439 0.11948456973 0.1114209854 0.1019314916 0.091332577906 0.079940259719 0.068066640559 0.056012961012 
0.044063284624 0.032565712858 0.022132887912 0.014585716936 0.014296946877 0.020944839639 0.029737219699 0.038872803044 0.047840702652 
0.056475266749 0.064718921442 0.072562866545 0.08002170706 0.087127434881 0.093905371075 0.10037803114 0.10655768904 0.11243093386 
0.11796438331 0.12311311919 0.1278193909 0.13201761067 0.135629653 0.1385858242 0.14081020797 0.1422475722 0.14285670996 
0.14262530679 0.14155336381 0.1396536739 0.13695792885 0.13351891484 0.12941165205 0.12471590894 0.11953073836 0.11396590062 
0.10813999941 0.10216807086 0.096164403142 0.090239101328 0.084488684758 0.07900310803 0.073851962765 0.069093535134 0.064767641822 
0.060888729666 0.057450334519 0.054426997077 0.051787705212 0.049477086676 0.047444882388 0.045640041797 0.044014647131 0.042533404974 
0.041173011484 0.039928962446 0.038808589757 0.037839419442 0.037066803293 0.036547074228 0.036344960096 0.036523048408 0.037139279274 
0.038225247505 0.039777399181 0.041766287685 0.04412260713 0.04675333833 0.049549770417 0.052412320557 0.055255176289 0.058035709826 
0.060784173167 0.063591482807 0.066619092087 0.070075223435 0.074209002059 0.07924444205 0.085333548382 0.09252596237 0.10074689637 
0.10978238592 0.11934103766 0.12906053809 0.13854314943 0.14740406704 0.15527928267 0.16187322947 0.16695281953 0.17044078507 
0.17233920974 0.17276445629 0.17189295205 0.16995998809 0.16722702383 0.16397303494 0.16046444451 0.15692028056 0.15350398232 
0.15031269943 0.14738766079 0.1447125412 0.14222659892 0.13984592802 0.13746744791 0.13498925158 0.13231864524 0.12937668889 
0.1261240547 0.12254574621 0.11865395412 0.11449288638 0.11015684403 0.10577425008 0.10150015352 0.097504519463 0.093955085947 
0.091013418472 0.08881881939 0.087464596279 0.087017885431 0.08751604946 0.088960985683 0.091334201675 0.094604364146 0.098730639197 

