# vtk DataFile Version 5.1
vtk output
ASCII
DATASET POLYDATA
POINTS 284 double
83.884696153 82.949195707 38.957734711 84.027012928 83.181114038 38.8315887 84.188159254 83.403297527 38.710657922 
84.366281677 83.614809103 38.59447804 84.559595802 83.814943012 38.4824841 84.766434907 84.003168023 38.374045591 
84.985271027 84.179072002 38.268493358 85.21471573 84.342313611 38.165138565 85.453507352 84.492583282 38.063284749 
85.700490601 84.629572362 37.962234233 85.954592111 84.752949145 37.861290955 86.214793571 84.862340918 37.759761046 
86.480103225 84.957322949 37.656953848 86.749526668 85.037415067 37.55218521 87.02204183 85.102051912 37.444775397 
87.29655396 85.150693042 37.334075108 87.571893921 85.182725834 37.219457535 87.846784073 85.197504374 37.100333847 
88.119803623 85.194312448 36.976154373 88.389398457 85.17259797 36.846489918 88.653873401 85.131861081 36.711012217 
88.91140533 85.071741132 36.569524266 89.160073939 84.992072831 36.421979491 89.39791707 84.892949969 36.26849612 
89.622914007 84.774661646 36.10932449 89.833208372 84.637953977 35.944898265 90.027258602 84.484027018 35.775790479 
90.203696798 84.314259892 35.602594531 90.361471257 84.130298188 35.425907107 90.499736387 83.933917605 35.246257148 
90.618257328 83.727188436 35.064120831 90.717010864 83.512140452 34.879833698 90.796186543 83.290765188 34.693590338 
90.856182507 83.065006373 34.50544448 90.897554278 82.836734637 34.315316077 90.920958958 82.607730959 34.123012038 
90.927110769 82.379686104 33.928250776 90.91673105 82.154219006 33.730680688 90.890478372 81.932933392 33.529880253 
90.849282725 81.717322295 33.325453448 90.793955416 81.508873269 33.116977316 90.725317727 81.309067692 32.904043396 
90.644212929 81.119394174 32.686278814 90.551414383 80.941494883 32.463310379 90.447987381 80.77680952 32.234941965 
90.334988801 80.626842419 32.001044869 90.213530353 80.493162449 31.76158471 90.084828123 80.377367756 31.516659166 
89.950223396 80.281066698 31.266526307 89.811201108 80.205854881 31.011630902 89.669405017 80.153306329 30.752625778 
89.526653991 80.124969173 30.490397369 89.384958967 80.122342322 30.226102474 89.246534568 80.146821061 29.961212523 
89.113803319 80.199626528 29.697556041 88.989532907 80.282106911 29.437431857 88.876637118 80.394880635 29.183593773 
88.778292269 80.538262403 28.939358926 88.697770196 80.711839626 28.708581123 88.638479226 80.91445351 28.495776502 
88.603127766 81.14324636 28.30541757 88.593934298 81.394329928 28.142030544 88.611988468 81.662519873 28.009469611 
88.656963246 81.94178093 27.910330716 88.727309423 82.225938641 27.845844591 88.820135204 82.509332911 27.815280424 
88.931927287 82.787518256 27.81652195 89.059294546 83.057241161 27.847123934 89.198598999 83.316767404 27.903420022 
89.346955454 83.565140082 27.982467307 89.501713698 83.802412164 28.081009609 89.660722905 84.029168769 28.196188149 
89.822232829 84.246351369 28.325508085 89.984811284 84.455151316 28.466772673 90.147271 84.656829246 28.618174399 
90.308614489 84.852865711 28.777956173 90.468002438 85.044739276 28.944613623 90.624678448 85.233924272 29.116829868 
90.777856494 85.421930398 29.293430317 90.926902834 85.61031607 29.473133816 91.071105211 85.800585422 29.654793198 
91.209571626 85.994341307 29.837224224 91.34156383 86.19302515 30.019144784 91.466160448 86.398060184 30.199214705 
91.582325292 86.61078728 30.375958754 91.688878857 86.832426527 30.547726142 91.784595057 87.063913404 30.712735078 
91.868255703 87.305796121 30.869139675 91.938601066 87.558253453 31.015013759 91.994444427 87.82099565 31.148450772 
92.034733711 88.093251086 31.267647616 92.058532645 88.37382047 31.370915216 92.0653416 88.661016438 31.457032382 
92.054840443 88.952917274 31.525030927 92.026934559 89.247429403 31.574246203 91.981709894 89.542372608 31.604270473 
91.919388681 89.835532852 31.61489735 91.840290051 90.124683702 31.606063646 91.744662796 90.407506633 31.577627896 
91.633047393 90.681711336 31.529773586 91.505960496 90.944900713 31.462608546 91.364006517 91.194542641 31.376260113 
91.207901342 91.427883698 31.270859327 91.038589719 91.641949582 31.146646471 90.857582795 91.834123103 31.004456155 
90.666539539 92.001499486 30.845092848 90.467626896 92.141656186 30.66988965 90.263429235 92.253238795 30.480779555 
90.056596077 92.334887913 30.279612815 89.849851713 92.387431841 30.068864757 89.645617047 92.411861262 29.850639077 
89.445952796 92.410098045 29.626869895 89.252356251 92.384972743 29.399187232 89.065898231 92.339287837 29.168737645 
88.887249658 92.275922352 28.936273508 88.716762328 92.197692655 28.702197401 88.554553269 92.107273934 28.466622385 
88.400582737 92.007161392 28.229435814 88.254718683 91.899664506 27.99035856 88.116782584 91.786927317 27.748996043 
87.98657749 91.670962335 27.504881326 87.863903556 91.553687262 27.257511998 87.748565759 91.436959845 27.00638262 
87.640396125 91.322616326 26.751003657 87.539198774 91.212468711 26.490967758 87.444749717 91.108273752 26.225990748 
87.356823313 91.011747964 25.955917506 87.275149044 90.924528588 25.680767037 87.1993954 90.848134051 25.400750816 
87.129155725 90.783913991 25.116278149 87.063943813 90.733016348 24.827940562 87.003185191 90.696347648 24.536488341 
86.946190813 90.67442581 24.242804182 86.892222777 90.667542854 23.947814658 86.840496853 90.675744387 23.652457227 
86.790205603 90.698869099 23.357642866 86.740540651 90.736595971 23.064231086 86.690712092 90.788494349 22.773017939 
86.63996447 90.854070055 22.484735275 86.587589104 90.932800289 22.200057262 86.532933232 91.024156188 21.919610024 
86.475406112 91.12761698 21.643982134 86.414480403 91.242676037 21.373734183 86.349691877 91.368841611 21.109406208 
86.280638715 91.505633321 20.851521993 86.206980383 91.652575698 20.600589926 86.128435974 91.809191527 20.357101357 
86.044779967 91.974996303 20.121528039 85.955836985 92.149493863 19.894318831 85.861476966 92.332173666 19.675896009 
85.761610663 92.522509776 19.466651743 85.656185084 92.719961308 19.266945236 85.545178798 92.923974986 19.0771019 
85.428597423 93.133988518 18.897414042 85.306470459 93.349434066 18.728141941 85.178849734 93.569741713 18.569514863 
85.045808624 93.79434256 18.421731716 84.907442085 94.022671349 18.284960631 84.763867172 94.254168963 18.159337561 
84.615223979 94.488284717 18.044962989 84.461676733 94.724478791 17.941896514 84.303414185 94.962225342 17.850150588 
84.140640574 95.201017106 17.769704704 83.973592372 95.440365028 17.700451653 83.802525949 95.679808046 17.64221061 
83.62770389 95.918917984 17.594747703 83.449394623 96.157302881 17.557761429 83.267865583 96.394610838 17.530885627 
83.083376441 96.63053271 17.51369467 82.89617284 96.864803447 17.505710866 82.706480979 97.097201928 17.506413439 
82.514503495 97.327549485 17.515247876 82.320416887 97.555707464 17.531635351 82.124370214 97.781573934 17.554981618 
81.926485286 98.005080078 17.584685046 81.726858021 98.226186456 17.620143752 81.525560622 98.444879244 17.66076155 
81.322644528 98.661166874 17.705952496 81.118143656 98.875076866 17.755144537 80.912077493 99.086652716 17.807782204 
80.704453989 99.295950874 17.863328616 80.495272005 99.503037634 17.921267106 80.284522982 99.707985654 17.981102332 
80.072192177 99.910870422 18.042361162 79.858259203 100.11176651 18.10459289 79.642697964 100.31074369 18.167368973 
79.42547636 100.5078631 18.230282701 79.206555793 100.70317353 18.29294867 78.98589067 100.89670809 18.355002144 
78.76342848 101.0884819 18.416097646 78.539110376 101.27849088 18.475906973 78.312872349 101.46671139 18.53411739 
78.084647517 101.65310133 18.590430202 77.854369007 101.83760223 18.644559549 77.621974097 102.02014328 18.696231344 
77.387409282 102.20064699 18.745182384 77.150635767 102.37903599 18.791160264 76.911635584 102.55524127 18.833924548 
76.670417329 102.72921099 18.87324845 76.427020742 102.9009189 18.908920756 76.181520197 103.07037252 18.940747791 
75.934024556 103.23761788 18.968548653 75.684687482 103.40275681 18.992173095 75.433703355 103.56594869 19.011494623 
75.181303595 103.72741095 19.026402947 74.927756198 103.88742195 19.036804692 74.67336393 104.04632068 19.042618542 
74.41846369 104.20450597 19.043768725 74.163426756 104.362434 19.040177706 73.908658099 104.52061082 19.031758122 
73.654596158 104.67958199 19.018404538 73.401714059 104.83992111 18.999985737 73.150521766 105.00221685 18.9763377 
72.901569071 105.16705892 18.947257892 72.655447773 105.33502172 18.912503277 72.412792441 105.50664597 18.87179116 
72.174279112 105.68241883 18.82480224 71.940620731 105.86275264 18.771186248 71.712559499 106.04796422 18.71056985 
71.490858014 106.23825941 18.642568726 71.276287265 106.4337211 18.566802644 71.069609236 106.63429911 18.482912006 
70.871554278 106.83980348 18.390574891 70.682797 107.04990459 18.28952231 70.503937568 107.26414468 18.179549939 
70.335538743 107.48197026 18.060482959 70.177973437 107.70270637 17.932300198 70.031508404 107.92562088 17.795047162 
69.89630229 108.14994382 17.648829701 69.772394104 108.374886 17.493816911 69.659715113 108.59966051 17.330227332 
69.558101271 108.82349866 17.158316018 69.46730553 109.04566102 16.978362633 69.38701326 109.26544445 16.790659597 
69.316862108 109.48218488 16.59550017 69.256461426 109.69525658 16.393169522 69.205407888 109.90406921 16.183940301 
69.163297531 110.10806416 15.968071625 69.129735685 110.30670966 15.745809572 69.104345464 110.49949498 15.517388354 
69.086774465 110.68592499 15.283033161 69.076698571 110.86551713 15.042965588 69.073823306 111.03780143 14.797410839 
69.077882653 111.20232208 14.546604769 69.088634494 111.35863936 14.290799374 69.105854862 111.50633365 14.030267557 
69.129331146 111.64501441 13.76530832 69.158854418 111.77433405 13.496251263 69.194211783 111.89400283 13.223457769 
69.235179415 112.00380101 12.947317566 69.281517328 112.10358981 12.668242365 69.332967361 112.19332406 12.386658541 
69.389254019 112.27306522 12.102998542 69.450103902 112.34295307 11.817685311 69.515208759 112.40329905 11.531135335 
69.584272591 112.45449753 11.243732006 69.657020149 112.49701746 10.955821626 69.733203266 112.53140095 10.667711731 
69.81260997 112.55824652 10.37966975 69.895070409 112.57818762 10.09192373 69.980461289 112.59187168 9.8046659039 
70.06870987 112.5999419 9.5180587925 70.159797058 112.60302185 9.2322428465 70.253756708 112.60170362 8.9473439504 
70.350670667 112.59653943 8.6634798082 70.450663455 112.58803473 8.3807659245 70.553898095 112.57664193 8.0993215591 
70.660572311 112.56275482 7.8192753579 70.77091303 112.54670784 7.54076961 70.885168798 112.52878099 7.2639625873 
71.003602256 112.50920507 6.9890299228 71.126483978 112.48816497 6.7161658402 71.25408685 112.46580227 6.4455840139 
71.386680816 112.44222036 6.1775177825 71.524528231 112.41749319 5.9122197095 71.667879515 112.39167383 5.6499606671 
71.816969594 112.36480021 5.3910289886 71.972014657 112.33689958 5.1357294199 72.133209208 112.30799281 4.8843817525 
72.300723492 112.2780986 4.6373191855 72.474700821 112.24723707 4.3948861485 72.655254522 112.21543163 4.157435426 
72.84246482 112.18270997 3.9253245729 73.036375873 112.14910468 3.6989115915 
VERTICES 285 284
OFFSETS vtktypeint64
0 1 2 3 4 5 6 7 8 
9 10 11 12 13 14 15 16 17 
18 19 20 21 22 23 24 25 26 
27 28 29 30 31 32 33 34 35 
36 37 38 39 40 41 42 43 44 
45 46 47 48 49 50 51 52 53 
54 55 56 57 58 59 60 61 62 
63 64 65 66 67 68 69 70 71 
72 73 74 75 76 77 78 79 80 
81 82 83 84 85 86 87 88 89 
90 91 92 93 94 95 96 97 98 
99 100 101 102 103 104 105 106 107 
108 109 110 111 112 113 114 115 116 
117 118 119 120 121 122 123 124 125 
126 127 128 129 130 131 132 133 134 
135 136 137 138 139 140 141 142 143 
144 145 146 147 148 149 150 151 152 
153 154 155 156 157 158 159 160 161 
162 163 164 165 166 167 168 169 170 
171 172 173 174 175 176 177 178 179 
180 181 182 183 184 185 186 187 188 
189 190 191 192 193 194 195 196 197 
198 199 200 201 202 203 204 205 206 
207 208 209 210 211 212 213 214 215 
216 217 218 219 220 221 222 223 224 
225 226 227 228 229 230 231 232 233 
234 235 236 237 238 239 240 241 242 
243 244 245 246 247 248 249 250 251 
252 253 254 255 256 257 258 259 260 
261 262 263 264 265 266 267 268 269 
270 271 272 273 274 275 276 277 278 
279 280 281 282 283 284 
CONNECTIVITY vtktypeint64
0 1 2 3 4 5 6 7 8 
9 10 11 12 13 14 15 16 17 
18 19 20 21 22 23 24 25 26 
27 28 29 30 31 32 33 34 35 
36 37 38 39 40 41 42 43 44 
45 46 47 48 49 50 51 52 53 
54 55 56 57 58 59 60 61 62 
63 64 65 66 67 68 69 70 71 
72 73 74 75 76 77 78 79 80 
81 82 83 84 85 86 87 88 89 
90 91 92 93 94 95 96 97 98 
99 100 101 102 103 104 105 106 107 
108 109 110 111 112 113 114 115 116 
117 118 119 120 121 122 123 124 125 
126 127 128 129 130 131 132 133 134 
135 136 137 138 139 140 141 142 143 
144 145 146 147 148 149 150 151 152 
153 154 155 156 157 158 159 160 161 
162 163 164 165 166 167 168 169 170 
171 172 173 174 175 176 177 178 179 
180 181 182 183 184 185 186 187 188 
189 190 191 192 193 194 195 196 197 
198 199 200 201 202 203 204 205 206 
207 208 209 210 211 212 213 214 215 
216 217 218 219 220 221 222 223 224 
225 226 227 228 229 230 231 232 233 
234 235 236 237 238 239 240 241 242 
243 244 245 246 247 248 249 250 251 
252 253 254 255 256 257 258 259 260 
261 262 263 264 265 266 267 268 269 
270 271 272 273 274 275 276 277 278 
279 280 281 282 283 
LINES 2 284
OFFSETS vtktypeint64
0 284 
CONNECTIVITY vtktypeint64
0 1 2 3 4 5 6 7 8 
9 10 11 12 13 14 15 16 17 
18 19 20 21 22 23 24 25 26 
27 28 29 30 31 32 33 34 35 
36 37 38 39 40 41 42 43 44 
45 46 47 48 49 50 51 52 53 
54 55 56 57 58 59 60 61 62 
63 64 65 66 67 68 69 70 71 
72 73 74 75 76 77 78 79 80 
81 82 83 84 85 86 87 88 89 
90 91 92 93 94 95 96 97 98 
99 100 101 102 103 104 105 106 107 
108 109 110 111 112 113 114 115 116 
117 118 119 120 121 122 123 124 125 
126 127 128 129 130 131 132 133 134 
135 136 137 138 139 140 141 142 143 
144 145 146 147 148 149 150 151 152 
153 154 155 156 157 158 159 160 161 
162 163 164 165 166 167 168 169 170 
171 172 173 174 175 176 177 178 179 
180 181 182 183 184 185 186 187 188 
189 190 191 192 193 194 195 196 197 
198 199 200 201 202 203 204 205 206 
207 208 209 210 211 212 213 214 215 
216 217 218 219 220 221 222 223 224 
225 226 227 228 229 230 231 232 233 
234 235 236 237 238 239 240 241 242 
243 244 245 246 247 248 249 250 251 
252 253 254 255 256 257 258 259 260 
261 262 263 264 265 266 267 268 269 
270 271 272 273 274 275 276 277 278 
279 280 281 282 283 
POINT_DATA 284
SCALARS Curvature double
LOOKUP_TABLE default
0.25619395355 0.24283464113 0.2294018022 0.21654116342 0.20474424659 0.19436919291 0.18565843398 0.17876002645 0.17376557262 
0.1707290897 0.16967022014 0.17055666775 0.17328555167 0.17772032905 0.1837402101 0.19120633782 0.19991070301 0.20951654021 
0.2196247415 0.2298886247 0.23996875975 0.2493946824 0.2575221975 0.26373864658 0.26771674436 0.26932386161 0.26843019683 
0.26492544095 0.258991615 0.25119902131 0.24221558734 0.2325266069 0.22254740945 0.21279059906 0.20385002088 0.19620402464 
0.19010101085 0.18567281462 0.18306660181 0.182418322 0.18377307879 0.18699145562 0.19181687479 0.19803775242 0.20559379928 
0.21446628328 0.2245561562 0.23566771756 0.24767637382 0.26077029458 0.27527559257 0.2914159129 0.30919480136 0.32859742488 
0.34989707666 0.37333818465 0.39857126586 0.4244330607 0.44933037232 0.47154660247 0.48865451104 0.49743495378 0.49519451737 
0.48161419538 0.45802216614 0.42654612967 0.38972457394 0.35056410428 0.31157519945 0.27409208451 0.23860003173 0.20530624125 
0.17443270803 0.14606950893 0.12025602454 0.097172317895 0.077586467377 0.063439365241 0.058096004742 0.063169609045 0.076525250721 
0.094802717807 0.1156721295 0.13797271197 0.16093126625 0.18379348407 0.20572688617 0.22597826588 0.24393371387 0.25903639608 
0.27079881018 0.27899560282 0.28400241456 0.28663681484 0.28784739351 0.28852583909 0.28952805861 0.29173564541 0.29589151916 
0.30234700893 0.31100762333 0.32139963725 0.33284994342 0.34430978761 0.35424445405 0.36069065848 0.36182265879 0.35672825324 
0.3450241966 0.32724136731 0.30432697842 0.27796787357 0.25003288555 0.22196915812 0.19479149034 0.16923779744 0.14602547315 
0.12590156851 0.1096871476 0.098281528792 0.092452904449 0.09237844968 0.09735178214 0.1059918656 0.11672976005 0.12818131986 
0.13935818451 0.14955995786 0.1582211746 0.16488901797 0.16925468681 0.17133497504 0.17141443657 0.16987283396 0.16712990145 
0.16364050727 0.15987113021 0.15624242686 0.15304826576 0.15043916387 0.14847960382 0.14714813562 0.14637430184 0.14604233036 
0.14600560481 0.14611962949 0.1462773817 0.14639620009 0.14641515334 0.14629528439 0.14601522468 0.14559141151 0.14505627461 
0.14443837507 0.14375511178 0.14301488035 0.1422058912 0.14130434483 0.14026252237 0.13900714012 0.13745982924 0.13554456936 
0.13319005185 0.1303425772 0.12696810727 0.12305034164 0.11861150303 0.11369053599 0.10834863875 0.10266447423 0.096720329192 
0.090602237665 0.084395676933 0.078180751961 0.07203354884 0.066024958098 0.060213852074 0.054658217255 0.049414683056 0.044543631958 
0.040115793876 0.036216786447 0.032944411523 0.030401567257 0.028681735482 0.027838972128 0.027860800016 0.028664181714 0.030109216343 
0.032045208049 0.034337438567 0.036863079371 0.039526074556 0.042235974473 0.044909307328 0.047467017177 0.049817121794 0.05187363213 
0.053565515914 0.054836174353 0.05564139769 0.055951746608 0.05577373607 0.055198062246 0.054378858261 0.053526722468 0.052923262874 
0.052908874391 0.053855935075 0.056070127031 0.059717355048 0.064802616732 0.071205059469 0.078689789342 0.086978178996 0.095787268289 
0.10483283281 0.11384818049 0.12260694115 0.13090063554 0.13851439001 0.14522618247 0.1508455483 0.15530250528 0.15857700651 
0.16063715633 0.16146200563 0.16109455802 0.1597153621 0.15753497339 0.15473209724 0.15146093827 0.14789864771 0.14427961087 
0.14081867274 0.13767005965 0.13493700064 0.13269742436 0.13101816023 0.12993546799 0.12942434237 0.1294054654 0.12976922533 
0.13039470098 0.13115488008 0.13187878059 0.13235701702 0.13239255795 0.13184928734 0.1306211004 0.12859230436 0.12564555892 
0.1217331488 0.11693440534 0.11137369949 0.10517924342 0.098482695775 0.091454383252 0.084320471228 0.077313840942 0.070666702112 
0.064619145265 0.059390041987 0.055151361981 0.052054063263 0.050209465988 0.049652722551 0.050281195274 0.051871648956 0.054190996609 
0.057047718856 0.06028331248 0.063764409592 0.067384729591 0.071063686951 0.074753809802 0.078420180743 0.08203561596 0.085580556761 
0.089035089708 0.092375647114 0.095576373819 0.098608834654 0.10144262246 
