# vtk DataFile Version 5.1
vtk output
ASCII
DATASET POLYDATA
POINTS 214 double
106.46466227 69.225616525 35.943617073 106.2544375 69.368840425 35.784644677 106.03390914 69.503834805 35.632576239 
105.80387756 69.629687561 35.486875518 105.56514102 69.745482403 35.346952069 105.31856451 69.850391936 35.212134799 
105.0649621 69.943522965 35.081771794 104.80510347 70.023807742 34.955244276 104.53994759 70.09048492 34.83184926 
104.27040879 70.142587987 34.71096543 103.9975073 70.179258595 34.591979995 103.72236399 70.199865753 34.474303079 
103.44615148 70.203741348 34.35739648 103.17011155 70.190719463 34.240746663 102.89550021 70.160622231 34.123880308 
102.62352104 70.113816538 34.006356843 102.35532096 70.050735556 33.887756451 102.09187731 69.972248243 33.767693676 
101.83404896 69.879275771 33.645789844 101.58245434 69.773044426 33.521705293 101.33763519 69.654663968 33.395081465 
101.09984981 69.525497038 33.265622031 100.86938636 69.386646135 33.132978054 100.64633345 69.239317094 32.996853281 
100.43076537 69.084575566 32.856942298 100.22284394 68.923307168 32.712888434 100.02265075 68.756386848 32.564393917 
99.83035975 68.584540309 32.411151224 99.646282507 68.408355007 32.252833157 99.470816635 68.228331691 32.089147811 
99.304397988 68.044901711 31.919894106 99.147647952 67.858375201 31.744893809 99.001361171 67.668969435 31.564029064 
98.866245321 67.47687957 31.377401402 98.743244244 67.282199978 31.185167579 98.633292865 67.08499317 30.987679223 
98.53720463 66.885310559 30.785505741 98.456001693 66.683140454 30.579321202 98.390205903 66.478532553 30.370074688 
98.340629371 66.27147456 30.158779282 98.307423094 66.062045505 29.946617146 98.290985799 65.850287919 29.734805468 
98.291076804 65.636342465 29.52456027 98.307653868 65.420345056 29.317084072 98.340170605 65.202530277 29.113427528 
98.388206899 64.983167708 28.914555457 98.451117292 64.762614246 28.721224436 98.528213132 64.541299733 28.533991652 
98.618980751 64.319729403 28.353301266 98.722657762 64.098492635 28.179268735 98.838737202 63.878256234 28.011921919 
98.966772162 63.659777764 27.851116032 99.106250381 63.443868338 27.696475196 99.256845483 63.231432043 27.547552961 
99.418356431 63.023490048 27.403815639 99.590445501 62.821062629 27.264553293 99.77290091 62.625277644 27.129039902 
99.965620538 62.437440188 26.996522142 100.16822408 62.258735832 26.866140132 100.38038601 62.090490476 26.737056449 
100.601705 61.934125658 26.608417856 100.8314488 61.790797195 26.479372182 101.06888405 61.661865905 26.349074818 
101.31293571 61.548300567 26.216726622 101.56243051 61.451086332 26.081543207 101.81599302 61.370907344 25.942802199 
102.07213172 61.30825204 25.799840929 102.32927761 61.263442114 25.652063716 102.58582389 61.23649639 25.499003645 
102.84016283 61.227443131 25.340262123 103.09077567 61.235912857 25.17566987 103.33615402 61.261772092 25.005112384 
103.57504547 61.304389206 24.82880654 103.80620274 61.363487857 24.647028777 104.02870436 61.438437894 24.460360455 
104.24176108 61.528745126 24.269514024 104.44470796 61.634018934 24.075344675 104.63722958 61.753651265 23.878886591 
104.81901975 61.887282956 23.681228899 104.98990972 62.034564798 23.483545419 105.14992083 62.19505309 23.287040427 
105.29898947 62.368485319 23.092940525 105.43705828 62.554599086 22.902485183 105.56416312 62.752978529 22.716840687 
105.68013531 62.963332907 22.537187881 105.78479356 63.185226224 22.364611306 105.87797421 63.418031818 22.200016195 
105.95921471 63.661204007 22.044325935 106.02833368 63.913776373 21.898033492 106.08488126 64.174852954 21.761602241 
106.12865694 64.44326944 21.635073956 106.15942602 64.71784866 21.518308639 106.17719034 64.997323396 21.410813669 
106.18206868 65.280461233 21.311876976 106.17438425 65.566088977 21.220554077 106.15466792 65.853141422 21.135718306 
106.1235399 66.140700197 21.056165122 106.08192013 66.428001208 20.980559096 106.03062317 66.714429572 20.907620909 
105.97081632 66.999543424 20.836015151 105.90354711 67.283014012 20.764496635 105.82995571 67.564628109 20.691871699 
105.75122905 67.844272766 20.617050827 105.66846967 68.121863059 20.538999829 105.58281475 68.397375105 20.456819197 
105.49533626 68.670793188 20.369715144 105.40703661 68.942061902 20.276909065 105.31886845 69.211137684 20.177811584 
105.23169107 69.477922786 20.071882864 105.14630938 69.742232824 19.958549902 105.06339426 70.003883861 19.837484173 
104.98355205 70.262588791 19.708297152 104.90731033 70.51798961 19.570641898 104.83505887 70.769719328 19.424346428 
104.76718765 71.017294296 19.269137447 104.70396713 71.260251837 19.10493158 104.6456358 71.49810146 18.931687979 
104.59246382 71.730284719 18.749338326 104.54459859 71.956378671 18.558085694 104.50229283 72.175867909 18.358031938 
104.46573167 72.388363618 18.149476761 104.43511768 72.593518826 17.932772735 104.41073342 72.790955143 17.708249337 
104.39274433 72.980508421 17.47644695 104.38146043 73.161903725 17.237794606 104.37708725 73.335053074 16.992872826 
104.37986568 73.499873933 16.742247147 104.39006855 73.656289628 16.486479405 104.40782545 73.804417416 16.226228786 
104.43340561 73.944252246 15.962070089 104.46686267 74.076046012 15.694676691 104.50832368 74.199999994 15.424666974 
104.55784383 74.316418098 15.152666929 104.61536048 74.425740173 14.879297438 104.68093642 74.52833066 14.605133102 
104.75439667 74.624784917 14.330739758 104.83567974 74.715634999 14.056638171 104.92471667 74.801458016 13.783325637 
105.02135258 74.882912038 13.511259316 105.12556457 74.960600109 13.240892499 105.23733167 75.035147144 12.972667335 
105.35663316 75.107177279 12.707012198 105.48358706 75.177259818 12.444400492 105.61836452 75.24594031 12.185342062 
105.76111952 75.31373466 11.930356902 105.91213946 75.381104815 11.68006501 106.07175858 75.448478743 11.435170995 
106.24020414 75.516244909 11.196376003 106.41781423 75.584765713 10.964541201 106.60479518 75.654376948 10.740535536 
106.80121322 75.725389803 10.52521713 107.00714127 75.798133064 10.319582542 107.22224418 75.872892984 10.124328142 
107.44624248 75.950022205 9.9403231736 107.67840475 76.029821319 9.7679436891 107.91803632 76.112679745 9.6076514858 
108.16411422 76.198927354 9.4593597501 108.41566554 76.288977031 9.3229859321 108.67156834 76.383163628 9.1979696656 
108.9307845 76.481865369 9.0837194372 109.19229139 76.585382641 8.9793734206 109.45516314 76.693975853 8.8839935526 
109.71857923 76.807884287 8.7966465546 109.98182702 76.927187748 8.7162660599 110.24430885 77.051988717 8.6419512542 
110.50555318 77.18221674 8.5727601991 110.76520663 77.317732202 8.5078621506 111.02299509 77.458394487 8.4465765775 
111.27878879 77.603871052 8.3882393881 111.53251573 77.75385919 8.3323485665 111.78417059 77.90802871 8.2785008841 
112.03383602 78.065973471 8.226357381 112.28160216 78.227353411 8.1756909032 112.52760355 78.391808209 8.1263267138 
112.77199379 78.558992014 8.0781385169 113.01490312 78.728631516 8.0310557455 113.25649507 78.900420565 7.9849985109 
113.49690194 79.074117061 7.9399030002 113.73624915 79.24949375 7.8956811112 113.97466069 79.426323097 7.8521947914 
114.21222863 79.604418397 7.8092605022 114.4490479 79.783575983 7.7666100399 114.68518365 79.963620009 7.7239021891 
114.920677 80.144387831 7.6807077431 115.15554849 80.32572559 7.6365285222 115.38977114 80.507511203 7.5907749863 
115.62328746 80.689638175 7.542824209 115.85598991 80.872029185 7.4920094811 116.08770922 81.054634456 7.4376031587 
116.31824207 81.23742471 7.3789488491 116.54730837 81.420397162 7.3153322014 116.77458445 81.603567005 7.246115105 
116.99970959 81.786963003 7.1707454946 117.2222353 81.970628182 7.0886196728 117.44175168 82.154602718 6.9993989283 
117.65777425 82.338932808 6.9027011413 117.86982928 82.523660298 6.7982904657 118.07748003 82.708820171 6.6860857983 
118.28020615 82.894453206 6.5659399837 118.47764018 83.080584606 6.4380065977 118.66933554 83.267247418 6.3023533722 
118.85490161 83.45447022 6.1591592024 119.03401928 83.642275671 6.0087006277 119.2062635 83.830695624 5.8511518764 
119.37138713 84.019744339 5.6868769515 119.52906254 84.209439944 5.5161560433 119.67894613 84.39979666 5.3392642484 
119.82081687 84.590812008 5.1565700575 119.95432385 84.782486822 4.9683469037 120.07919283 84.974807618 4.7749264382 
120.19518046 85.167750815 4.5766568812 120.30189997 85.36129388 4.3738198073 120.39912976 85.555394367 4.1667890388 
120.48659823 85.750004192 3.9559176294 
VERTICES 215 214
OFFSETS vtktypeint64
0 1 2 3 4 5 6 7 8 
9 10 11 12 13 14 15 16 17 
18 19 20 21 22 23 24 25 26 
27 28 29 30 31 32 33 34 35 
36 37 38 39 40 41 42 43 44 
45 46 47 48 49 50 51 52 53 
54 55 56 57 58 59 60 61 62 
63 64 65 66 67 68 69 70 71 
72 73 74 75 76 77 78 79 80 
81 82 83 84 85 86 87 88 89 
90 91 92 93 94 95 96 97 98 
99 100 101 102 103 104 105 106 107 
108 109 110 111 112 113 114 115 116 
117 118 119 120 121 122 123 124 125 
126 127 128 129 130 131 132 133 134 
135 136 137 138 139 140 141 142 143 
144 145 146 147 148 149 150 151 152 
153 154 155 156 157 158 159 160 161 
162 163 164 165 166 167 168 169 170 
171 172 173 174 175 176 177 178 179 
180 181 182 183 184 185 186 187 188 
189 190 191 192 193 194 195 196 197 
198 199 200 201 202 203 204 205 206 
207 208 209 210 211 212 213 214 
CONNECTIVITY vtktypeint64
0 1 2 3 4 5 6 7 8 
9 10 11 12 13 14 15 16 17 
18 19 20 21 22 23 24 25 26 
27 28 29 30 31 32 33 34 35 
36 37 38 39 40 41 42 43 44 
45 46 47 48 49 50 51 52 53 
54 55 56 57 58 59 60 61 62 
63 64 65 66 67 68 69 70 71 
72 73 74 75 76 77 78 79 80 
81 82 83 84 85 86 87 88 89 
90 91 92 93 94 95 96 97 98 
99 100 101 102 103 104 105 106 107 
108 109 110 111 112 113 114 115 116 
117 118 119 120 121 122 123 124 125 
126 127 128 129 130 131 132 133 134 
135 136 137 138 139 140 141 142 143 
144 145 146 147 148 149 150 151 152 
153 154 155 156 157 158 159 160 161 
162 163 164 165 166 167 168 169 170 
171 172 173 174 175 176 177 178 179 
180 181 182 183 184 185 186 187 188 
189 190 191 192 193 194 195 196 197 
198 199 200 201 202 203 204 205 206 
207 208 209 210 211 212 213 
LINES 2 214
OFFSETS vtktypeint64
0 214 
CONNECTIVITY vtktypeint64
0 1 2 3 4 5 6 7 8 
9 10 11 12 13 14 15 16 17 
18 19 20 21 22 23 24 25 26 
27 28 29 30 31 32 33 34 35 
36 37 38 39 40 41 42 43 44 
45 46 47 48 49 50 51 52 53 
54 55 56 57 58 59 60 61 62 
63 64 65 66 67 68 69 70 71 
72 73 74 75 76 77 78 79 80 
81 82 83 84 85 86 87 88 89 
90 91 92 93 94 95 96 97 98 
99 100 101 102 103 104 105 106 107 
108 109 110 111 112 113 114 115 116 
117 118 119 120 121 122 123 124 125 
126 127 128 129 130 131 132 133 134 
135 136 137 138 139 140 141 142 143 
144 145 146 147 148 149 150 151 152 
153 154 155 156 157 158 159 160 161 
162 163 164 165 166 167 168 169 170 
171 172 173 174 175 176 177 178 179 
180 181 182 183 184 185 186 187 188 
189 190 191 192 193 194 195 196 197 
198 199 200 201 202 203 204 205 206 
207 208 209 210 211 212 213 
POINT_DATA 214
SCALARS Curvature double
LOOKUP_TABLE default
0.17075241205 0.16659094558 0.16341407704 0.16145626027 0.16090082682 0.16182932045 0.16421094242 0.1678711093 0.17244196574 
0.17744026346 0.18227755666 0.18633553651 0.18902604599 0.18998819392 0.18897263528 0.18588968416 0.18082106144 0.17407734254 
0.16608215371 0.15734630498 0.1484015823 0.13977147389 0.13195704936 0.12540099697 0.12047106667 0.11744962545 0.1164283418 
0.11737768386 0.12015249311 0.12452242533 0.13018966065 0.13683587889 0.14412138978 0.15169974836 0.15923148016 0.1663851443 
0.17284432684 0.17832115585 0.18260194526 0.18554913478 0.18714066638 0.18741995591 0.18648497416 0.18441190154 0.18135328195 
0.17747392364 0.17294080692 0.16792866939 0.16263753268 0.15731753261 0.15226433636 0.14783567588 0.14441198915 0.14238142018 
0.14208274971 0.14368913406 0.14720768713 0.15246322383 0.15904553974 0.16645502194 0.17413443587 0.18156982751 0.18832206316 
0.19414347701 0.19891491519 0.20267765745 0.20557284157 0.2078175921 0.20953597179 0.21072274289 0.21133827752 0.21128945413 
0.2104786621 0.20882989038 0.20639204035 0.20332091486 0.19989803281 0.19648944661 0.19349890929 0.19130059337 0.19017051481 
0.19023272444 0.19142969313 0.19351630651 0.19610472741 0.19868360321 0.2006943512 0.20156810037 0.20083081828 0.19810855534 
0.1932021779 0.18606218231 0.176832092 0.16581343218 0.15337100288 0.1398978719 0.12583118022 0.11164048709 0.097897863333 
0.085241183289 0.074436345262 0.06632568438 0.06164416032 0.060725627536 0.063148259482 0.067988381383 0.074293364106 0.081282042381 
0.088442004958 0.095441555826 0.10209075493 0.10829196473 0.11400988819 0.11921967943 0.12389635349 0.12800711476 0.13151613005 
0.13437786218 0.13658502438 0.13814814755 0.13912524514 0.13959791589 0.13963524106 0.13930533808 0.13866698421 0.13775684795 
0.13656332435 0.13504013455 0.1331230848 0.13074082339 0.12785388367 0.12444978185 0.12056154433 0.11629508085 0.1118057672 
0.10727895762 0.1029296911 0.099040135947 0.095909953252 0.09384383176 0.093113014501 0.093907138623 0.096333509797 0.10037779444 
0.10589178877 0.11263712697 0.12030064679 0.12850003215 0.1367997017 0.14470520984 0.15168551241 0.15718243705 0.16074989213 
0.16199645281 0.16078738096 0.15712658922 0.15130093357 0.14372368001 0.13495192787 0.12557726828 0.1161606457 0.10712566326 
0.098748333146 0.091151528004 0.084316740989 0.078109365121 0.072347007973 0.066867702107 0.061554479087 0.056373651844 0.051346852707 
0.046540664179 0.042013985689 0.037818696161 0.033964308604 0.030439502072 0.027170522278 0.024058809307 0.020982883419 0.017879742201 
0.014872498169 0.012511633558 0.012029203202 0.014492593674 0.019438535459 0.025921359974 0.03329411135 0.041175547663 0.049298507461 
0.05743311103 0.065373809081 0.072928588914 0.079931140851 0.08623724621 0.091755625054 0.096421780802 0.10022338918 0.1031968077 
0.10541035013 0.1069838152 0.10805103555 0.10875335109 0.10921371732 0.10954345546 0.10985195557 0.110223368 0.11071316105 
0.11135607817 0.1121733009 0.11317302226 0.11435437586 0.11571133429 0.11722881017 0.11888691953 
