# vtk DataFile Version 5.1
vtk output
ASCII
DATASET POLYDATA
POINTS 243 double
77.825816372 89.27232471 37.603010546 78.104890147 89.294722777 37.495373398 78.390063725 89.311406933 37.403879911 
78.680077803 89.322042563 37.328024155 78.97371392 89.326429113 37.266904835 79.269916281 89.324375621 37.219576614 
79.567763415 89.315722454 37.184995228 79.866467874 89.300277171 37.162129631 80.165357951 89.277978352 37.14970709 
80.463889676 89.248690581 37.146577931 80.761603499 89.212204873 37.151654867 81.058111082 89.168311529 37.163810704 
81.353090697 89.116818563 37.181899463 81.646235296 89.057396137 37.204871309 81.937241285 88.989649458 37.231671505 
82.225835445 88.913273606 37.26120153 82.511695506 88.827823518 37.29241286 82.794438994 88.732773556 37.324232764 
83.073699515 88.62779379 37.355571379 83.34902454 88.512476569 37.385346098 83.619866363 88.386388884 37.412437172 
83.885674757 88.249322069 37.435753327 84.145861485 88.101186056 37.454236402 84.399799641 87.942006452 37.466856613 
84.646855333 87.771971498 37.472634551 84.886392833 87.591421157 37.470636002 85.117939395 87.401014223 37.460133964 
85.341069693 87.201502994 37.440473984 85.555478592 86.993784578 37.411130847 85.760978832 86.778855053 37.37168782 
85.95747963 86.557768668 37.321792714 86.145155426 86.331704316 37.26134563 86.324231284 86.101793215 37.190246115 
86.494996514 85.869146509 37.108398769 86.657820594 85.634869834 37.015730519 86.813230455 85.40005137 36.9123241 
86.961692105 85.16573112 36.798134335 87.103628515 84.932962096 36.672999419 87.239593895 84.702748565 36.536983198 
87.37000766 84.476110686 36.389968707 87.495179907 84.254151115 36.231694552 87.615469751 84.037873898 36.062173813 
87.73106232 83.828353731 35.881282346 87.841994704 83.626741267 35.68885696 87.948220926 83.434099769 35.484935915 
88.049557928 83.251423176 35.269677055 88.145662884 83.079645909 35.04333248 88.236059891 82.919557316 34.806317597 
88.320104472 82.771842092 34.559149221 88.397159811 82.636746651 34.302662267 88.46648303 82.514350216 34.037733738 
88.527301683 82.404474825 33.765330394 88.578813846 82.306746021 33.486452483 88.620180334 82.220649587 33.202104199 
88.650744555 82.145382459 32.913351659 88.669813676 82.080185252 32.621179463 88.676570774 82.024412107 32.326521846 
88.670507305 81.977260175 32.030349547 88.651091233 81.938098208 31.733586516 88.617579456 81.906559434 31.437174024 
88.569756335 81.882181868 31.142055739 88.507107051 81.864872605 30.849222663 88.429319781 81.854662187 30.559708777 
88.336320027 81.851709809 30.274550931 88.22777599 81.856554171 29.99496941 88.103896013 81.869730794 29.722119347 
87.964871621 81.892039674 29.457279223 87.810932514 81.924562827 29.201919046 87.642744082 81.968403647 28.957482533 
87.461208316 82.024777941 28.725490716 87.267504866 82.094983232 28.507546605 87.06319118 82.180278123 28.305243484 
86.850228592 82.281778318 28.120075487 86.63097166 82.400341285 27.953315226 86.408100942 82.536461671 27.805877322 
86.184494466 82.690202131 27.678198062 85.963055976 82.8611733 27.570153094 85.746529124 83.048570008 27.481033944 
85.537332368 83.251255399 27.409590307 85.337443629 83.467874203 27.354130635 85.148347687 83.696967931 27.312652317 
84.971042468 83.937073872 27.282976152 84.806157671 84.186842496 27.262903187 84.65388424 84.444967524 27.250184021 
84.514076575 84.710255352 27.242649905 84.386412862 84.981673006 27.238285334 84.270589124 85.258371912 27.235200718 
84.165862005 85.539453848 27.231600297 84.071613425 85.824188103 27.225850213 83.987255543 86.11191002 27.216377744 
83.911942122 86.401920939 27.201835367 83.845066928 86.693602512 27.180868194 83.785881702 86.986300177 27.152331065 
83.733670633 87.279365155 27.115234934 83.687895155 87.572125757 27.06849842 83.647841603 87.863900976 27.011491317 
83.612960181 88.153996632 26.94355964 83.582790934 88.441666041 26.864047227 83.556800424 88.726222351 26.772741634 
83.534575398 89.00695878 26.66940866 83.515775316 89.283136519 26.553836176 83.500057271 89.554096817 26.426098478 
83.487133601 89.819216804 26.286357828 83.476770515 90.077894102 26.134823224 83.468793799 90.329495407 25.971674614 
83.463019607 90.57356859 25.797380583 83.459315631 90.809671199 25.612379234 83.457580339 91.037414203 25.417148195 
83.457755266 91.256387526 25.212120532 83.459768724 91.466417867 24.997951047 83.463582282 91.667351273 24.775246653 
83.469174845 91.859106824 24.544625136 83.476558247 92.041581558 24.306639652 83.485711641 92.214977394 24.062019799 
83.496640483 92.379475466 23.811398828 83.509360918 92.535304133 23.555377242 83.523890671 92.682774379 23.294544608 
83.540223221 92.822374421 23.029519947 83.558364557 92.954583829 22.760845609 83.578336129 93.079872751 22.489001555 
83.600119077 93.198897273 22.214493534 83.623698286 93.312306843 21.93776418 83.649060209 93.420757367 21.65920902 
83.676179271 93.524950008 21.379196947 83.704991015 93.625667698 21.098083757 83.735426273 93.723679024 20.816185281 
83.767399541 93.819772025 20.533796431 83.800780257 93.914780402 20.251203188 83.835399431 94.009543725 19.968676556 
83.871055496 94.104894954 19.686476971 83.907505 94.201662569 19.404861796 83.944451927 94.300647022 19.124083707 
83.98154958 94.40256175 18.844376613 84.018407089 94.508037979 18.565961864 84.05458386 94.617588896 18.289035842 
84.089573611 94.7316224 18.013772534 84.122843574 94.850285427 17.740259141 84.15380573 94.973582277 17.468530489 
84.181802208 95.101354063 17.198553056 84.206108936 95.233248575 16.93020614 84.225994426 95.368700331 16.66327136 
84.240605821 95.50704893 16.397484308 84.248985216 95.647486776 16.132526203 84.250200638 95.789057816 15.868044091 
84.243093436 95.930723172 15.603707884 84.226433141 96.071321497 15.339236487 84.198985014 96.209626339 15.074461599 
84.159293953 96.344312164 14.809379334 84.10579534 96.473963524 14.54422359 84.037082841 96.597211866 14.27953361 
83.951674472 96.712677452 14.016210704 83.848220977 96.8190811 13.755566545 83.725622316 96.915347318 13.499331423 
83.583145115 97.000717259 13.24960926 83.420517849 97.074853819 13.008775575 83.237980949 97.137910664 12.779328564 
83.036278977 97.190550007 12.563722758 82.816598444 97.233897628 12.36421836 82.580478697 97.269457226 12.182766363 
82.329716728 97.299001985 12.020934776 82.066275973 97.324455747 11.879876471 81.79220676 97.347772835 11.760330081 
81.509583829 97.370836075 11.662636574 81.220454981 97.395378248 11.586762883 80.926795265 97.422925351 11.53232676 
80.630462201 97.454761597 11.498625381 80.33315433 97.491936384 11.484740008 80.036385333 97.53523706 11.489446537 
79.741423738 97.58517514 11.511241371 79.449284403 97.642071332 11.548558843 79.160745147 97.706096224 11.599801398 
78.876362381 97.77730093 11.663355181 78.596394171 97.855505509 11.737430059 78.320958461 97.940544286 11.820449615 
78.050031589 98.032223072 11.910917693 77.783360386 98.130165452 12.00728369 77.520681715 98.234100573 12.10823885 
77.261612722 98.343668936 12.212515881 77.005702896 98.458456879 12.318961445 76.752542583 98.578147374 12.426579352 
76.501653436 98.702297423 12.534465271 76.252604615 98.830504937 12.641870731 76.005021853 98.962429185 12.748160147 
75.758546219 99.097657408 12.85285892 75.512898562 99.235844098 12.955623447 75.267872051 99.376704141 13.056219026 
75.023325564 99.519986668 13.154535809 74.779187118 99.665492548 13.250575166 74.535452609 99.81311008 13.344392789 
74.292177905 99.962814982 13.436072197 74.049463224 100.11464081 13.525725532 73.807440835 100.26868216 13.613449917 
73.56626787 100.42510089 13.699286128 73.32611984 100.58412154 13.783192678 73.087169871 100.74599138 13.865044686 
72.849573314 100.91095641 13.944623242 72.613474999 101.07927853 14.021586115 72.379013133 101.25123722 14.095447301 
72.14628537 101.42704355 14.165638806 71.915366653 101.60686249 14.231501393 71.686326412 101.79082883 14.292268181 
71.459247121 101.9790591 14.347031441 71.234172039 102.17150856 14.394964726 71.011183194 102.36811283 14.435151312 
70.790413172 102.56877204 14.466577032 70.572008562 102.77325782 14.488351759 70.356167885 102.98127972 14.499634019 
70.143172604 103.19251367 14.499553638 69.933386689 103.406579 14.487272563 69.727196205 103.62300708 14.462230803 
69.525087393 103.84132205 14.423853994 69.327671262 104.06102621 14.371527152 69.135551251 104.28157206 14.304983274 
68.949407522 104.50241038 14.224000033 68.76999587 104.72298018 14.128406757 68.598188557 104.94269157 14.018018741 
68.434738922 105.16095675 13.893045848 68.280484727 105.37716693 13.753648676 68.136254768 105.59069323 13.600097963 
68.002939204 105.80085366 13.432668392 67.88118061 106.00700591 13.251983592 67.771581732 106.20848797 13.058688084 
67.674611825 106.40464624 12.853530227 67.590568249 106.59485497 12.637357385 67.519640983 106.7784866 12.41103217 
67.461581843 106.95509608 12.175633621 67.416028264 107.12428098 11.93216434 67.382407574 107.28574196 11.681606348 
67.360050588 107.43921479 11.424841182 67.347966371 107.5846468 11.16275901 67.345069065 107.72206873 10.89612673 
67.350258807 107.85151862 10.625563301 67.362344959 107.97310073 10.35158858 67.380016726 108.08706606 10.074656134 
67.402040009 108.1935578 9.7950704865 67.427119114 108.29275652 9.5130684796 67.453922039 108.3849094 9.228842221 
67.481118951 108.47012826 8.9424967768 67.507303984 108.54852174 8.6541147323 67.531022351 108.62021623 8.3637838801 
67.550712207 108.68522871 8.0715863909 67.564664247 108.74351884 7.7776478858 67.570984034 108.79498448 7.4821798924 

VERTICES 244 243
OFFSETS vtktypeint64
0 1 2 3 4 5 6 7 8 
9 10 11 12 13 14 15 16 17 
18 19 20 21 22 23 24 25 26 
27 28 29 30 31 32 33 34 35 
36 37 38 39 40 41 42 43 44 
45 46 47 48 49 50 51 52 53 
54 55 56 57 58 59 60 61 62 
63 64 65 66 67 68 69 70 71 
72 73 74 75 76 77 78 79 80 
81 82 83 84 85 86 87 88 89 
90 91 92 93 94 95 96 97 98 
99 100 101 102 103 104 105 106 107 
108 109 110 111 112 113 114 115 116 
117 118 119 120 121 122 123 124 125 
126 127 128 129 130 131 132 133 134 
135 136 137 138 139 140 141 142 143 
144 145 146 147 148 149 150 151 152 
153 154 155 156 157 158 159 160 161 
162 163 164 165 166 167 168 169 170 
171 172 173 174 175 176 177 178 179 
180 181 182 183 184 185 186 187 188 
189 190 191 192 193 194 195 196 197 
198 199 200 201 202 203 204 205 206 
207 208 209 210 211 212 213 214 215 
216 217 218 219 220 221 222 223 224 
225 226 227 228 229 230 231 232 233 
234 235 236 237 238 239 240 241 242 
243 
CONNECTIVITY vtktypeint64
0 1 2 3 4 5 6 7 8 
9 10 11 12 13 14 15 16 17 
18 19 20 21 22 23 24 25 26 
27 28 29 30 31 32 33 34 35 
36 37 38 39 40 41 42 43 44 
45 46 47 48 49 50 51 52 53 
54 55 56 57 58 59 60 61 62 
63 64 65 66 67 68 69 70 71 
72 73 74 75 76 77 78 79 80 
81 82 83 84 85 86 87 88 89 
90 91 92 93 94 95 96 97 98 
99 100 101 102 103 104 105 106 107 
108 109 110 111 112 113 114 115 116 
117 118 119 120 121 122 123 124 125 
126 127 128 129 130 131 132 133 134 
135 136 137 138 139 140 141 142 143 
144 145 146 147 148 149 150 151 152 
153 154 155 156 157 158 159 160 161 
162 163 164 165 166 167 168 169 170 
171 172 173 174 175 176 177 178 179 
180 181 182 183 184 185 186 187 188 
189 190 191 192 193 194 195 196 197 
198 199 200 201 202 203 204 205 206 
207 208 209 210 211 212 213 214 215 
216 217 218 219 220 221 222 223 224 
225 226 227 228 229 230 231 232 233 
234 235 236 237 238 239 240 241 242 

LINES 2 243
OFFSETS vtktypeint64
0 243 
CONNECTIVITY vtktypeint64
0 1 2 3 4 5 6 7 8 
9 10 11 12 13 14 15 16 17 
18 19 20 21 22 23 24 25 26 
27 28 29 30 31 32 33 34 35 
36 37 38 39 40 41 42 43 44 
45 46 47 48 49 50 51 52 53 
54 55 56 57 58 59 60 61 62 
63 64 65 66 67 68 69 70 71 
72 73 74 75 76 77 78 79 80 
81 82 83 84 85 86 87 88 89 
90 91 92 93 94 95 96 97 98 
99 100 101 102 103 104 105 106 107 
108 109 110 111 112 113 114 115 116 
117 118 119 120 121 122 123 124 125 
126 127 128 129 130 131 132 133 134 
135 136 137 138 139 140 141 142 143 
144 145 146 147 148 149 150 151 152 
153 154 155 156 157 158 159 160 161 
162 163 164 165 166 167 168 169 170 
171 172 173 174 175 176 177 178 179 
180 181 182 183 184 185 186 187 188 
189 190 191 192 193 194 195 196 197 
198 199 200 201 202 203 204 205 206 
207 208 209 210 211 212 213 214 215 
216 217 218 219 220 221 222 223 224 
225 226 227 228 229 230 231 232 233 
234 235 236 237 238 239 240 241 242 

POINT_DATA 243
SCALARS Curvature double
LOOKUP_TABLE default
0.21130304903 0.20307582991 0.19350232976 0.18300526374 0.17200973749 0.16089895863 0.15001385688 0.13966357434 0.13012231887 
0.12165811289 0.11454945861 0.10907540488 0.1054745899 0.10394599205 0.1045822167 0.10728478537 0.11184594689 0.11793922664 
0.1251416628 0.13300831491 0.14108012471 0.14890398191 0.15605369931 0.16217137728 0.1669546397 0.17019346007 0.17179050932 
0.17176349923 0.17023083646 0.16740903457 0.16358674571 0.15913142309 0.15443861645 0.14992629263 0.1460237453 0.14310899701 
0.14150753307 0.1414727067 0.14310215075 0.14637834013 0.1511421983 0.15707169985 0.16374248487 0.17065846536 0.17726978536 
0.18304235399 0.18751379216 0.19033809061 0.19135488609 0.19064569528 0.18849895072 0.18537387033 0.18182676303 0.17844157916 
0.17571155805 0.17399699288 0.17352974529 0.17436716076 0.17645742769 0.17969423325 0.18392374044 0.18904383364 0.19499344672 
0.2017626169 0.20940073763 0.21794903628 0.22742049847 0.23775673694 0.24873203729 0.25997315283 0.27095752248 0.28091853462 
0.28886784662 0.29380918947 0.29500579044 0.29199450432 0.28473318913 0.27358445555 0.25931570064 0.24283996827 0.22513104113 
0.20705762957 0.1894018931 0.17279721429 0.15778549706 0.14479748914 0.13425044102 0.12638757986 0.12130576775 0.11890633556 
0.11884257542 0.12069024665 0.12389687947 0.12792824233 0.13231659281 0.13667889525 0.14073585952 0.14428993629 0.14723777656 
0.14952993024 0.15116264433 0.15216001564 0.15256668356 0.15241980622 0.15175062037 0.15057285751 0.1488809518 0.14666014441 
0.14388310587 0.14053715608 0.13660990067 0.13209941936 0.12700969592 0.12136889006 0.11521294366 0.10858226736 0.10153173725 
0.094120907914 0.086409911995 0.078451916192 0.070298726411 0.061995829553 0.053578252706 0.045091051971 0.036606067788 0.028287245419 
0.020611514753 0.015012390167 0.014468523648 0.0194475582 0.026882795441 0.034849911754 0.042508526796 0.049358043152 0.055059262761 
0.05938889856 0.06232380467 0.064071029633 0.065110604394 0.066297687126 0.068683584992 0.073355050126 0.081162310674 0.092394591048 
0.10691026647 0.12423472002 0.14374272891 0.16478608943 0.18661623586 0.20839553796 0.22918766813 0.24798763615 0.26384103701 
0.27595251042 0.28389789026 0.2877000407 0.28793410069 0.28537392029 0.28081612264 0.27500788628 0.26857348127 0.26179413611 
0.25468709249 0.24704651855 0.23860298573 0.22908691007 0.21837112323 0.20642971491 0.19340820217 0.17951377191 0.16503583885 
0.15027504301 0.13555702197 0.12119615723 0.10747113595 0.094616847605 0.08288121645 0.072510375782 0.063682382594 0.056527655949 
0.051004964337 0.046922797364 0.043957564969 0.041693486339 0.039773940392 0.037972674965 0.036233271744 0.03466600739 0.033516405883 
0.033063639805 0.033551523679 0.035092612424 0.037675710503 0.041182683055 0.045470318956 0.050427242782 0.055993278262 0.062154857084 
0.068897982424 0.076202808511 0.084020213486 0.092270516155 0.10083014458 0.10955184318 0.1182749046 0.12683010658 0.13508414396 
0.14291803825 0.1502550815 0.15705752238 0.16332220979 0.16906975792 0.17436486584 0.1792810715 0.18387395367 0.18816259368 
0.19212188278 0.19566326667 0.19863736446 0.20083420466 0.20201780732 0.20194702568 0.20039547434 0.19720566963 0.19227851578 
0.18566762915 0.17749489407 0.16795134993 0.15727403149 0.14581116021 0.13394912083 0.12210200992 0.11073438043 0.10035893188 
0.091604196839 0.08521409409 0.081949240929 0.082503118985 0.087224524233 0.096029031533 0.10863942447 0.12476626708 0.14422047811 

