# vtk DataFile Version 5.1
vtk output
ASCII
DATASET POLYDATA
POINTS 274 double
113.49398884 87.821306605 40.312889829 113.3173126 87.797606064 40.071682215 113.13163803 87.755911479 39.839852364 
112.93874729 87.697095995 39.617825256 112.74039799 87.622297208 39.405617399 112.53822109 87.532667834 39.202968613 
112.33378885 87.429855057 39.009018799 112.12841448 87.315318618 38.822773799 111.92322247 87.190374191 38.643124349 
111.71918514 87.056261857 38.468842306 111.5171154 86.914199364 38.298608859 111.31773048 86.765189655 38.131167402 
111.12168104 86.610126831 37.965287619 110.92959374 86.449795135 37.799780196 110.74208055 86.28491086 37.633502362 
110.55970997 86.116156816 37.465399046 110.38308617 85.944131093 37.294501439 110.21283049 85.769390686 37.119937311 
110.04958321 85.592460486 36.940942929 109.894032 85.413835476 36.75685343 109.7468822 85.233994183 36.567131171 
109.60874701 85.053397963 36.371446979 109.48027406 84.872463491 36.169593813 109.36208097 84.691569175 35.961520864 
109.25480532 84.51105697 35.747292986 109.1590113 84.331228698 35.527132886 109.07510009 84.152330384 35.301438047 
109.0034963 83.97456353 35.070666811 108.94457386 83.798088185 34.835361095 108.8987995 83.623049796 34.596090752 
108.86635799 83.449550799 34.353545081 108.84748975 83.277702159 34.108404287 108.84243453 83.107636239 33.861353589 
108.85141632 82.939526038 33.613077396 108.87476535 82.773627485 33.364250638 108.91247552 82.610225435 33.115537486 
108.96464806 82.449710257 32.867560574 109.03132715 82.292563603 32.62090582 109.11251472 82.139370724 32.376118214 
109.20821199 81.990848196 32.133707501 109.31807134 81.847717311 31.894077123 109.44178441 81.710813406 31.657581575 
109.57894113 81.581032121 31.424508091 109.72910156 81.459359895 31.195103073 109.89167888 81.346792503 30.969547575 
110.06589787 81.24424834 30.74794166 110.25098825 81.15269403 30.530373423 110.44610541 81.073074283 30.316907566 
110.65044213 81.006466324 30.107653972 110.8629171 80.953594169 29.902632334 111.08250782 80.915244964 29.70192556 
111.30815409 80.892138896 29.505648966 111.53880291 80.885092227 29.314009863 111.77326661 80.894491851 29.12716688 
112.01038444 80.920690133 28.945343481 112.24899735 80.963955888 28.768809377 112.48793486 81.024675934 28.597947272 
112.72603278 81.102575891 28.432990573 112.96218138 81.197474763 28.274251461 113.19531002 81.309082405 28.122045272 
113.42437518 81.437051461 27.976699603 113.6484981 81.580590356 27.838363084 113.86685305 81.738995763 27.7072088 
114.07870839 81.911486083 27.583355733 114.28337498 82.097311933 27.46691986 114.48033186 82.295546229 27.357885998 
114.6691415 82.505281788 27.256203265 114.84940327 82.72568102 27.161820247 115.02076191 82.955942989 27.074670652 
115.18289078 83.195311098 26.994684303 115.33547481 83.443076152 26.921796971 115.47819378 83.698575324 26.85595848 
115.61064866 83.961223267 26.797177706 115.73251537 84.230391204 26.745412936 115.84338328 84.505506856 26.700679084 
115.94279548 84.786004376 26.663012294 116.03025461 85.071305923 26.632459111 116.10523004 85.360806256 26.60906515 
116.16716991 85.653859142 26.592861601 116.21544365 85.949777934 26.583887253 116.24948442 86.247796751 26.582102725 
116.26888256 86.547081778 26.587342984 116.27322977 86.84676659 26.599389849 116.26218314 87.145949235 26.617929466 
116.23544181 87.443698547 26.64254818 116.19318851 87.739144253 26.672574528 116.1355895 88.031469828 26.70728528 
116.06284978 88.319912515 26.745863631 115.97550149 88.603866945 26.787331574 115.87427815 88.882901736 26.830622746 
115.75992927 89.156709604 26.874633018 115.6331981 89.425085809 26.918208987 115.49504564 89.68802871 26.96017779 
115.3464734 89.945664683 26.99938703 115.18845803 90.198197896 27.034696337 115.0219992 90.445914554 27.06499345 
114.84807835 90.689138781 27.089165709 114.6677505 90.92826853 27.106179519 114.48209229 91.163729417 27.115083134 
114.29216441 91.395929626 27.114955303 114.09904674 91.625264582 27.104944952 113.90383922 91.852104094 27.084283323 
113.70766088 92.076763764 27.052185166 113.51166364 92.299544178 27.00813519 113.31698674 92.520675773 26.951685567 
113.12476054 92.740322362 26.882486816 112.93609873 92.958580543 26.80030362 112.75212806 93.175468463 26.704923192 
112.57380402 93.390970654 26.596569268 112.40204369 93.605002986 26.475451918 112.237675 93.817439034 26.341901205 
112.08152785 94.02809806 26.196220611 111.93409243 94.236827433 26.039134873 111.79583039 94.443449366 25.871287824 
111.66708088 94.647796871 25.69338586 111.54816818 94.849701041 25.506091853 111.43914454 95.049068209 25.310257012 
111.34003075 95.245831987 25.106674649 111.25080656 95.43996305 24.896107085 111.1714067 95.631477146 24.679298094 
111.10177925 95.820424582 24.456946336 111.04182633 96.006907738 24.229746861 110.99140648 96.191078102 23.998383073 
110.95044656 96.373105879 23.76348182 110.91890327 96.553187943 23.525645053 110.89676966 96.731542083 23.285455041 
110.88407777 96.908400139 23.043479836 110.88091717 97.083999243 22.800277827 110.88743951 97.258577224 22.556408976 
110.90372688 97.432376683 22.312442195 110.92994246 97.605621471 22.068947457 110.966263 97.778518134 21.826506143 
111.01286844 97.951250479 21.585712741 111.06993109 98.123975502 21.347175487 111.13770912 98.296822038 21.111549148 
111.21623949 98.469882389 20.879447119 111.30559887 98.643211102 20.651501197 111.40582913 98.816823276 20.428342948 
111.51692365 98.990693336 20.21059441 111.63893973 99.164755969 19.998931711 111.77167015 99.33890146 19.793891394 
111.91494697 99.512984851 19.596023877 112.06857325 99.686825682 19.405857434 112.23233688 99.860207931 19.22390809 
112.40602452 100.03287878 19.050695812 112.5892301 100.2045735 18.88655957 112.78161301 100.3750053 18.731880311 
112.98280382 100.54387611 18.587003116 113.19244954 100.71087099 18.452294549 113.41012032 100.87568407 18.328034055 
113.63530965 101.03803852 18.214390854 113.8675351 101.19766539 18.111557125 114.1062895 101.35432136 18.01968547 
114.35108032 101.50777197 17.938962456 114.60133927 101.65784618 17.869436665 114.85647288 101.80442843 17.811076096 
115.11590526 101.94743464 17.763852026 115.37905749 102.08682702 17.727686648 115.64537128 102.22259089 17.702519352 
115.91427375 102.35477979 17.688164386 116.18520766 102.48350023 17.684348139 116.45765819 102.6088732 17.690809677 
116.73114374 102.73104535 17.707247338 117.00522228 102.85017171 17.733354301 117.27949029 102.96642105 17.768786413 
117.55359241 103.07999713 17.813070645 117.82722744 103.19107942 17.865775783 118.10014723 103.29983875 17.926441474 
118.37215862 103.40643322 17.994578141 118.64311178 103.51098705 18.069736288 118.9129352 103.61365345 18.151290911 
119.18160095 103.7145509 18.238670557 119.44913227 103.81378926 18.331278271 119.71559999 103.91147495 18.428492399 
119.98111203 104.00770835 18.529691006 120.2458244 104.10261619 18.634184635 120.50992027 104.19634086 18.741275521 
120.77359915 104.28904297 18.850268415 121.03707113 104.38091334 18.960460245 121.30054774 104.47217878 19.071142993 
121.56423454 104.56311095 19.181599194 121.8283144 104.65402895 19.291123496 122.09294243 104.74529186 19.399024686 
122.35823811 104.83730166 19.504626029 122.62427803 104.93050048 19.607269153 122.89109531 105.02538633 19.706282092 
123.15865252 105.12246515 19.801078975 123.42685436 105.22227238 19.891096051 123.69554337 105.32536345 19.975798108 
123.96449768 105.4323013 20.054685436 124.23342793 105.54367763 20.127255354 124.50197498 105.66004833 20.193086238 
124.7697209 105.78192305 20.251828792 125.03618865 105.909802 20.303140068 125.30084753 106.04414292 20.346711696 
125.56310044 106.1853961 20.382214697 125.82231881 106.3339048 20.409400194 126.07786362 106.48989865 20.428087109 
126.32906294 106.65355882 20.438074515 126.57523609 106.82497343 20.439183355 126.81564613 107.00420403 20.431171431 
127.04965024 107.19109633 20.413949964 127.27662073 107.38542262 20.387421954 127.49594753 107.58688186 20.351480522 
127.70706451 107.79508147 20.306035461 127.90935226 108.00961015 20.250903265 128.10244714 108.2298384 20.186135415 
128.28594909 108.45515125 20.111693549 128.45951016 108.68488597 20.027554804 128.62283522 108.91834115 19.933716216 
128.77557246 109.15480925 19.830099731 128.91762785 109.39350374 19.716846595 129.04885588 109.63366612 19.59403841 
129.16913848 109.8745421 19.461781872 129.27838713 110.11538736 19.320218084 129.37646902 110.35546533 19.169469583 
129.46336675 110.59406411 19.009777826 129.53911109 110.83051445 18.841446461 129.60370571 111.06417945 18.664783553 
129.65717454 111.29446045 18.480137248 129.69952378 111.52078396 18.287867186 129.73077556 111.74261087 18.088368559 
129.75110876 111.95950792 17.88215207 129.76064813 112.17106389 17.669698851 129.7595504 112.37692037 17.451510209 
129.7479749 112.57675314 17.228085593 129.72609571 112.77027462 16.999925981 129.69426131 112.95733937 16.767591539 
129.65276794 113.13780521 16.531589603 129.60194577 113.31158232 16.292411095 129.54213918 113.47861771 16.050519547 
129.47367849 113.63887005 15.806343007 129.39704685 113.79244467 15.560309581 129.31265817 113.93941901 15.312786441 
129.22093244 114.07989707 15.064102239 129.12228963 114.21400226 14.814546533 129.0171061 114.34183251 14.564367962 
128.90580349 114.46354325 14.313784614 128.78879081 114.57929379 14.062978143 128.6664342 114.68921165 13.812096948 
128.53907973 114.79341073 13.561261611 128.40705282 114.89198675 13.310568098 128.27063332 114.98498045 13.060092857 
128.13012581 115.07246435 12.809892478 127.98581985 115.15449627 12.560007279 127.83797997 115.23110096 12.310465091 
127.6868646 115.30229325 12.061281859 127.53272896 115.36808125 11.812462665 127.37580937 115.42842911 11.564004702 
127.21640411 115.48342156 11.315886335 127.05479098 115.53310944 11.068077241 126.89125975 115.57757172 10.820533437 
126.72611389 115.61692331 10.573195656 126.55966059 115.65126807 10.325987938 126.39225111 115.68087157 10.078812462 
126.22423029 115.70598978 9.8315548609 126.05595231 115.7269256 9.5840821271 125.88777933 115.74402567 9.3362428835 
125.72008839 115.75765494 9.0878620293 125.55325126 115.76829083 8.8387608388 125.38764504 115.77640695 8.5887449423 
125.22365062 115.78250899 8.3376117254 125.06165343 115.78712904 8.0851540667 124.90207442 115.79081666 7.8311459647 
124.74528906 115.79415979 7.5753998861 124.59170386 115.79774505 7.3177232357 124.4417356 115.80217033 7.0579385908 
124.29581225 115.80804048 6.7958896328 124.15441811 115.81598708 6.5314247045 124.01797464 115.82660729 6.2644665745 
123.88693275 115.84049611 5.9949662477 123.76175614 115.85823936 5.7229176838 123.64290846 115.88040319 5.4483676545 
123.53084647 115.90752606 5.171420516 
VERTICES 275 274
OFFSETS vtktypeint64
0 1 2 3 4 5 6 7 8 
9 10 11 12 13 14 15 16 17 
18 19 20 21 22 23 24 25 26 
27 28 29 30 31 32 33 34 35 
36 37 38 39 40 41 42 43 44 
45 46 47 48 49 50 51 52 53 
54 55 56 57 58 59 60 61 62 
63 64 65 66 67 68 69 70 71 
72 73 74 75 76 77 78 79 80 
81 82 83 84 85 86 87 88 89 
90 91 92 93 94 95 96 97 98 
99 100 101 102 103 104 105 106 107 
108 109 110 111 112 113 114 115 116 
117 118 119 120 121 122 123 124 125 
126 127 128 129 130 131 132 133 134 
135 136 137 138 139 140 141 142 143 
144 145 146 147 148 149 150 151 152 
153 154 155 156 157 158 159 160 161 
162 163 164 165 166 167 168 169 170 
171 172 173 174 175 176 177 178 179 
180 181 182 183 184 185 186 187 188 
189 190 191 192 193 194 195 196 197 
198 199 200 201 202 203 204 205 206 
207 208 209 210 211 212 213 214 215 
216 217 218 219 220 221 222 223 224 
225 226 227 228 229 230 231 232 233 
234 235 236 237 238 239 240 241 242 
243 244 245 246 247 248 249 250 251 
252 253 254 255 256 257 258 259 260 
261 262 263 264 265 266 267 268 269 
270 271 272 273 274 
CONNECTIVITY vtktypeint64
0 1 2 3 4 5 6 7 8 
9 10 11 12 13 14 15 16 17 
18 19 20 21 22 23 24 25 26 
27 28 29 30 31 32 33 34 35 
36 37 38 39 40 41 42 43 44 
45 46 47 48 49 50 51 52 53 
54 55 56 57 58 59 60 61 62 
63 64 65 66 67 68 69 70 71 
72 73 74 75 76 77 78 79 80 
81 82 83 84 85 86 87 88 89 
90 91 92 93 94 95 96 97 98 
99 100 101 102 103 104 105 106 107 
108 109 110 111 112 113 114 115 116 
117 118 119 120 121 122 123 124 125 
126 127 128 129 130 131 132 133 134 
135 136 137 138 139 140 141 142 143 
144 145 146 147 148 149 150 151 152 
153 154 155 156 157 158 159 160 161 
162 163 164 165 166 167 168 169 170 
171 172 173 174 175 176 177 178 179 
180 181 182 183 184 185 186 187 188 
189 190 191 192 193 194 195 196 197 
198 199 200 201 202 203 204 205 206 
207 208 209 210 211 212 213 214 215 
216 217 218 219 220 221 222 223 224 
225 226 227 228 229 230 231 232 233 
234 235 236 237 238 239 240 241 242 
243 244 245 246 247 248 249 250 251 
252 253 254 255 256 257 258 259 260 
261 262 263 264 265 266 267 268 269 
270 271 272 273 
LINES 2 274
OFFSETS vtktypeint64
0 274 
CONNECTIVITY vtktypeint64
0 1 2 3 4 5 6 7 8 
9 10 11 12 13 14 15 16 17 
18 19 20 21 22 23 24 25 26 
27 28 29 30 31 32 33 34 35 
36 37 38 39 40 41 42 43 44 
45 46 47 48 49 50 51 52 53 
54 55 56 57 58 59 60 61 62 
63 64 65 66 67 68 69 70 71 
72 73 74 75 76 77 78 79 80 
81 82 83 84 85 86 87 88 89 
90 91 92 93 94 95 96 97 98 
99 100 101 102 103 104 105 106 107 
108 109 110 111 112 113 114 115 116 
117 118 119 120 121 122 123 124 125 
126 127 128 129 130 131 132 133 134 
135 136 137 138 139 140 141 142 143 
144 145 146 147 148 149 150 151 152 
153 154 155 156 157 158 159 160 161 
162 163 164 165 166 167 168 169 170 
171 172 173 174 175 176 177 178 179 
180 181 182 183 184 185 186 187 188 
189 190 191 192 193 194 195 196 197 
198 199 200 201 202 203 204 205 206 
207 208 209 210 211 212 213 214 215 
216 217 218 219 220 221 222 223 224 
225 226 227 228 229 230 231 232 233 
234 235 236 237 238 239 240 241 242 
243 244 245 246 247 248 249 250 251 
252 253 254 255 256 257 258 259 260 
261 262 263 264 265 266 267 268 269 
270 271 272 273 
POINT_DATA 274
SCALARS Curvature double
LOOKUP_TABLE default
0.26195049004 0.2512725539 0.23654786915 0.21873602182 0.19893677342 0.17822356126 0.15756084961 0.13771676803 0.11936765727 
0.10314566402 0.089660213618 0.079590843641 0.073593695057 0.071997717007 0.074432487404 0.079904070136 0.087302706887 0.095693269034 
0.10439662898 0.11292086072 0.12087471922 0.12796320274 0.13405047764 0.13913765915 0.14326460522 0.14649303861 0.14894268029 
0.15080716459 0.15231105274 0.15366736424 0.15505942377 0.15661211586 0.15836026399 0.16029316349 0.16236143141 0.16448701772 
0.16657407341 0.16851754125 0.170236255 0.17167901306 0.17283716887 0.17379648675 0.17470386573 0.17568170778 0.17679984997 
0.17811214531 0.17972108298 0.18169745142 0.18404636525 0.18670754971 0.18957765639 0.19251194412 0.19532875435 0.19790328324 
0.20014809939 0.20192138709 0.20300184382 0.20322666435 0.20255051459 0.20097999435 0.19854670974 0.19533255177 0.19144844652 
0.18704270488 0.18229567148 0.17746608056 0.17281756503 0.16856531781 0.16488411489 0.16193288337 0.15984945219 0.1587418491 
0.15865377829 0.15956891631 0.16142531114 0.16408659208 0.16737693847 0.17108894133 0.17499084657 0.17880161332 0.18218357754 
0.18479987034 0.18634974378 0.18657089403 0.18531248662 0.18256547686 0.17835226986 0.17271829875 0.16584530777 0.15813579044 
0.15003978004 0.14197825101 0.13434834367 0.12755746073 0.1220067559 0.11801036909 0.11581949243 0.11553226297 0.11704142172 
0.12006272786 0.12423214359 0.12923428569 0.13474770667 0.14042705489 0.14593892585 0.15098296042 0.15529857635 0.15866247696 
0.16100906558 0.16232610271 0.16256263378 0.16163442569 0.15958034013 0.15655809615 0.15275119519 0.14832247329 0.14344488627 
0.13829908253 0.13307143553 0.12794319326 0.12309553964 0.1187030171 0.11490481727 0.1118222261 0.10954726358 0.10813120395 
0.10759940734 0.10792408675 0.10904923626 0.11087701227 0.11328468499 0.11613847088 0.11930086545 0.1226377433 0.12601959624 
0.1293226304 0.132446789 0.13532259391 0.137901437 0.14016867347 0.14213247192 0.14379025737 0.14513277475 0.14617147663 
0.14694998603 0.14751010169 0.14785949957 0.14798866065 0.14788249181 0.14751906 0.1468745756 0.14594403045 0.14472012296 
0.14316122349 0.14120636059 0.13882814074 0.1360553539 0.1329213566 0.12944842146 0.12565651029 0.12157655074 0.11724139196 
0.11267929347 0.10792791851 0.10302059764 0.097950366044 0.092681187527 0.087176771486 0.081414860821 0.075375538011 0.069036845717 
0.062379754955 0.055393533744 0.048075685704 0.040444906781 0.032563741035 0.0245121613 0.016408604902 0.008661628689 0.0050797994682 
0.011245874015 0.019458860149 0.02796240004 0.036519727926 0.045035808277 0.053441945862 0.061704971625 0.069818721295 0.07776843701 
0.085526405835 0.093061735073 0.10035784009 0.10740122815 0.11417280988 0.12066305842 0.12684611077 0.13265499686 0.13800425785 
0.14284069456 0.14715716115 0.1509372145 0.15415460239 0.1567881662 0.15884668523 0.16036101998 0.16138351245 0.16202065879 
0.16236438725 0.16246135846 0.16233606297 0.16204007317 0.16165137735 0.16121679646 0.1607455568 0.16022615336 0.15963484998 
0.15893361755 0.15809082597 0.15710437071 0.15596715287 0.15462703588 0.15301194573 0.15108456189 0.14884101364 0.146278245 
0.14338446324 0.14015011987 0.13657682982 0.13266785971 0.12845241655 0.12399785947 0.11937782668 0.11465464205 0.10988411549 
0.10514014504 0.10051178389 0.096079606118 0.09190007033 0.088023724313 0.084493634295 0.081346026552 0.078584113793 0.076176110444 
0.074081521346 0.072245451983 0.070607590151 0.069079932709 0.067556581132 0.065939653101 0.064151929344 0.062122557005 0.059778099023 
0.057052914631 0.053933280808 0.050478042521 0.0467687295 0.042924647631 0.039123159212 0.035651136618 0.03289963022 0.031339784581 
0.031401596598 0.033267880202 0.036816021945 0.041697406686 0.047562859055 0.054117813071 0.061134470653 0.06844481138 0.075909821953 
0.083414029311 0.090850753406 0.098115828134 0.10510576275 
