# vtk DataFile Version 5.1
vtk output
ASCII
DATASET POLYDATA
POINTS 248 double
116.59612733 85.620963505 38.476955279 116.48021383 85.794826902 38.26173606 116.36056584 85.957652282 38.040022304 
116.23718822 86.109174563 37.812418226 116.1101474 86.249340065 37.579610114 115.97937666 86.377684483 37.342097935 
115.84495209 86.494185446 37.100556671 115.70682363 86.598385131 36.855510484 115.56502524 86.690049829 36.607570113 
115.41958281 86.768853869 36.357329729 115.27050202 86.834295341 36.105386862 115.117904 86.886180481 35.85239738 
114.96186529 86.924001073 35.599013675 114.80255284 86.947428009 35.345930814 114.64020129 86.9562472 35.093851664 
114.47506443 86.950093589 34.843508224 114.30749624 86.92883133 34.595622293 114.13792897 86.892520588 34.350863797 
113.96684298 86.841219271 34.109871158 113.7947873 86.775064811 33.873227322 113.62238015 86.694614845 33.641314811 
113.45026437 86.600404006 33.414416663 113.27913778 86.492888784 33.192741485 113.10968987 86.372997382 32.976182829 
112.94263247 86.241478746 32.764567187 112.77873313 86.099004579 32.557623112 112.61867951 85.946522476 32.354840597 
112.46328307 85.784652883 32.15574249 112.31329652 85.614169997 31.959707525 112.16954498 85.435711714 31.76611318 
112.03294747 85.249836055 31.574327956 111.90434482 85.057178159 31.383712343 111.784903 84.858143272 31.193692074 
111.67552212 84.653356188 31.003731038 111.57745576 84.443269926 30.813382769 111.49186011 84.228462394 30.622296406 
111.41984598 84.009578285 30.430242407 111.36274677 83.78728852 30.237094859 111.32155621 83.562441977 30.042871356 
111.29714906 83.335978928 29.847699433 111.29028773 83.108939997 29.651792599 111.30153202 82.88247683 29.455426178 
111.33082597 82.657781085 29.25889696 111.37794226 82.436048867 29.062462437 111.44250098 82.218496499 28.866307689 
111.52361374 82.006234527 28.67050323 111.62018601 81.80026358 28.474988011 111.73130086 81.601659832 28.279569234 
111.85555273 81.411230026 28.083924003 111.99181972 81.229911095 27.887619482 112.13884433 81.058544638 27.690139794 
112.29544997 80.898036316 27.490908719 112.46046745 80.749333746 27.289322112 112.63276477 80.61349023 27.084775055 
112.81119008 80.491633803 26.876706942 112.99459325 80.385056454 26.664624249 113.18176256 80.295157803 26.448161651 
113.37141396 80.223360224 26.227153811 113.56219055 80.171436243 26.001611248 113.7526229 80.140713039 25.771944741 
113.94116549 80.13283665 25.538832195 114.12619326 80.149203228 25.303371279 114.30613315 80.190652927 25.067063243 
114.47946791 80.257809428 24.831732945 114.64483444 80.350817142 24.599483036 114.80103055 80.469472946 24.372635279 
114.94721569 80.612834975 24.153522793 115.08280771 80.779659169 23.944438813 115.20748236 80.968422813 23.747569816 
115.32114965 81.177376797 23.564937052 115.42387532 81.404664356 23.398416504 115.51584821 81.648327119 23.24971915 
115.597454 81.906185276 23.120144937 115.66906049 82.176131779 23.010861877 115.73105906 82.456033662 22.922784007 
115.78375028 82.743811163 22.856782659 115.82762036 83.03724006 22.812943667 115.86305289 83.334261134 22.791192974 
115.89037405 83.632940371 22.791199795 115.90989304 83.931493848 22.812252437 115.92200105 84.228404674 22.852988632 
115.92692638 84.522432645 22.912078788 115.92490428 84.812663282 22.987805638 115.91619229 85.098571462 23.078131877 
115.90082767 85.379841323 23.181252825 115.87902862 85.656611619 23.294873865 115.85070054 85.929095795 23.417103447 
115.81594607 86.197871835 23.545727762 115.77459854 86.463543343 23.678782443 115.72661142 86.726901098 23.814190786 
115.67179459 86.988754593 23.949923865 115.60997517 87.24994713 24.083907738 115.54096931 87.511296839 24.214013614 
115.46458758 87.773551418 24.338025045 115.38067663 88.037345124 24.453602498 115.2892397 88.303113607 24.55842941 
115.1902386 88.571103021 24.649848704 115.08399748 88.841210921 24.725504525 114.97098638 89.11302139 24.783038135 
114.85192373 89.385771969 24.820306209 114.72779503 89.658377828 24.835568563 114.59981655 89.929507713 24.827602989 
114.46937598 90.197699154 24.795817227 114.33794065 90.461516564 24.740357908 114.20694808 90.719653259 24.66188633 
114.07773841 90.971023033 24.561526467 113.95150188 91.214805496 24.44072475 113.8292586 91.450445878 24.301098751 
113.71192537 91.67753416 24.144150559 113.60014764 91.896074722 23.971765776 113.49450279 92.106127803 23.785506785 
113.39555756 92.307788953 23.586708362 113.30360243 92.501502125 23.376946425 113.21913552 92.687498071 23.157278997 
113.14236686 92.866333894 22.929005758 113.07375728 93.038360233 22.693027795 113.01352317 93.204161068 22.45039886 
112.96216076 93.364134001 22.201886611 112.91991582 93.5188556 21.948381735 112.88734671 93.668723315 21.690568974 
112.86475286 93.81425676 21.429230546 112.8527019 93.955828752 21.165032868 112.85157303 94.093849907 20.898694044 
112.86180881 94.228651887 20.630904656 112.88389282 94.360503429 20.362363939 112.91802439 94.489679067 20.093784667 
112.96458935 94.616352162 19.825882137 113.02369075 94.740705959 19.559370743 113.09529116 94.862908775 19.294937239 
113.17938923 94.983103127 19.033275788 113.27575732 95.101468312 18.775034704 113.38398218 95.218224804 18.520788448 
113.50367202 95.333619803 18.271097523 113.63439393 95.44795293 18.026501197 113.77545803 95.561595211 17.787389922 
113.92627629 95.674952172 17.554166206 114.0863262 95.788479666 17.327262511 114.25485075 95.90265522 17.106914626 
114.43126434 96.017967739 16.893438727 114.6150247 96.134915826 16.687171762 114.80546443 96.253928847 16.488276355 
115.0021008 96.375427953 16.297061067 115.20441757 96.499749476 16.113749985 115.41190571 96.627120842 15.938489041 
115.6242188 96.757753567 15.771607297 115.8409147 96.891664074 15.613172234 116.06167974 97.028816974 15.463361778 
116.28626892 97.169091384 15.32238662 116.51440615 97.31220244 15.190235744 116.74594798 97.45784778 15.06707947 
116.98074087 97.605611003 14.952931264 117.21865558 97.755023084 14.847742601 117.45965377 97.905605938 14.751633349 
117.70361783 98.056827973 14.664423818 117.95047571 98.208183593 14.586031308 118.200173 98.359176422 14.516423057 
118.45256396 98.509361342 14.455298643 118.70753435 98.65833914 14.402484951 118.96493594 98.805772043 14.357743771 
119.22455738 98.951429567 14.32066492 119.48620637 99.095134871 14.290939586 119.74964375 99.236822973 14.268121919 
120.01461051 99.376532605 14.25168984 120.28086917 99.514349211 14.241211084 120.54814963 99.650482342 14.236082429 
120.816201 99.785191001 14.235737503 121.08478815 99.918772681 14.239668278 121.35367287 100.05159796 14.247243852 
121.62264206 100.18403814 14.257942966 121.89149248 100.31648464 14.271242816 122.16004059 100.44931905 14.28662414 
122.42811022 100.58291754 14.303648853 122.69554877 100.71761705 14.321880235 122.96222197 100.85371223 14.340938427 
123.22799336 100.99149013 14.36049501 123.49277476 101.1311335 14.380245853 123.75648019 101.27280666 14.399935374 
124.01903414 101.41664223 14.419331276 124.28040728 101.56267724 14.438232372 124.54056568 101.71095187 14.456443181 
124.79949489 101.86146722 14.473767631 125.05721087 102.01416905 14.490014306 125.31371344 102.16903282 14.504946022 
125.56902766 102.32598906 14.518310858 125.82317971 102.48496515 14.52982323 126.07616315 102.6459387 14.539094922 
126.32800063 102.80882606 14.545759788 126.57866273 102.97361202 14.549323875 126.82810378 103.14027734 14.549254123 
127.07624956 103.30881 14.544988995 127.32294749 103.47925909 14.535804511 127.56803601 103.65162905 14.521089847 
127.81123221 103.82600392 14.500008639 128.05222202 104.00242681 14.471849838 128.29058032 104.18097225 14.435797438 
128.52577513 104.36171502 14.391002458 128.75723558 104.54467813 14.336778319 128.9841765 104.72991882 14.272190701 
129.20584327 104.91738364 14.196653875 129.42133663 105.10699435 14.109509653 129.62959149 105.29861744 14.010052418 
129.82967223 105.4919797 13.897995489 130.02053126 105.68673726 13.773016468 130.20099574 105.88244035 13.634783459 
130.37021733 106.07850289 13.483470326 130.52731743 106.27425608 13.319238981 130.67145479 106.46893067 13.142326117 
130.80204078 106.66168918 12.953218224 130.91873196 106.85167516 12.752573623 131.02127277 107.03801223 12.541064752 
131.1094001 107.21977194 12.319322533 131.18335726 107.396179 12.088275832 131.24333172 107.56647104 11.848739232 
131.2894267 107.72985935 11.601443894 131.32215305 107.88581038 11.34731129 131.34193696 108.03384283 11.087171465 
131.34899268 108.17342335 10.821754027 131.34395682 108.30441555 10.551949451 131.32718433 108.42662666 10.27851922 
131.2989987 108.53997092 10.002221597 131.2599166 108.64466167 9.7238416371 131.21014293 108.7408111 9.4440874309 
131.15008791 108.82883272 9.1636758817 131.08005447 108.90917759 8.883271058 131.00019808 108.98230113 8.6035146738 
130.91090148 109.04891763 8.3249883062 130.81225417 109.10961233 8.0482671839 130.70451805 109.16513707 7.7738588288 
130.58788476 109.21621757 7.5022368225 130.46240144 109.26352577 7.2338951681 130.32833658 109.30780812 6.9692120465 
130.1857185 109.34968747 6.7086394409 130.03468131 109.38977951 6.4525692392 129.87537868 109.42863527 6.2013627115 
129.70777104 109.46672285 5.9554994971 129.53205224 109.50447149 5.7153144066 129.34830651 109.54223534 5.481214942 
129.15651649 109.58032306 5.2537140805 128.95690158 109.61898356 5.0331487679 128.74956311 109.65842742 4.8199705939 
128.53456251 109.6988443 4.6147130754 128.31217617 109.74037325 4.4177152014 128.0825884 109.78314837 4.2294375195 
127.84598013 109.827299 4.0503973431 127.60272641 109.87290905 3.8808839958 127.35310127 109.92007882 3.7213537045 
127.09745845 109.96888934 3.5721852682 126.83625773 110.01938617 3.4335792906 
VERTICES 249 248
OFFSETS vtktypeint64
0 1 2 3 4 5 6 7 8 
9 10 11 12 13 14 15 16 17 
18 19 20 21 22 23 24 25 26 
27 28 29 30 31 32 33 34 35 
36 37 38 39 40 41 42 43 44 
45 46 47 48 49 50 51 52 53 
54 55 56 57 58 59 60 61 62 
63 64 65 66 67 68 69 70 71 
72 73 74 75 76 77 78 79 80 
81 82 83 84 85 86 87 88 89 
90 91 92 93 94 95 96 97 98 
99 100 101 102 103 104 105 106 107 
108 109 110 111 112 113 114 115 116 
117 118 119 120 121 122 123 124 125 
126 127 128 129 130 131 132 133 134 
135 136 137 138 139 140 141 142 143 
144 145 146 147 148 149 150 151 152 
153 154 155 156 157 158 159 160 161 
162 163 164 165 166 167 168 169 170 
171 172 173 174 175 176 177 178 179 
180 181 182 183 184 185 186 187 188 
189 190 191 192 193 194 195 196 197 
198 199 200 201 202 203 204 205 206 
207 208 209 210 211 212 213 214 215 
216 217 218 219 220 221 222 223 224 
225 226 227 228 229 230 231 232 233 
234 235 236 237 238 239 240 241 242 
243 244 245 246 247 248 
CONNECTIVITY vtktypeint64
0 1 2 3 4 5 6 7 8 
9 10 11 12 13 14 15 16 17 
18 19 20 21 22 23 24 25 26 
27 28 29 30 31 32 33 34 35 
36 37 38 39 40 41 42 43 44 
45 46 47 48 49 50 51 52 53 
54 55 56 57 58 59 60 61 62 
63 64 65 66 67 68 69 70 71 
72 73 74 75 76 77 78 79 80 
81 82 83 84 85 86 87 88 89 
90 91 92 93 94 95 96 97 98 
99 100 101 102 103 104 105 106 107 
108 109 110 111 112 113 114 115 116 
117 118 119 120 121 122 123 124 125 
126 127 128 129 130 131 132 133 134 
135 136 137 138 139 140 141 142 143 
144 145 146 147 148 149 150 151 152 
153 154 155 156 157 158 159 160 161 
162 163 164 165 166 167 168 169 170 
171 172 173 174 175 176 177 178 179 
180 181 182 183 184 185 186 187 188 
189 190 191 192 193 194 195 196 197 
198 199 200 201 202 203 204 205 206 
207 208 209 210 211 212 213 214 215 
216 217 218 219 220 221 222 223 224 
225 226 227 228 229 230 231 232 233 
234 235 236 237 238 239 240 241 242 
243 244 245 246 247 
LINES 2 248
OFFSETS vtktypeint64
0 248 
CONNECTIVITY vtktypeint64
0 1 2 3 4 5 6 7 8 
9 10 11 12 13 14 15 16 17 
18 19 20 21 22 23 24 25 26 
27 28 29 30 31 32 33 34 35 
36 37 38 39 40 41 42 43 44 
45 46 47 48 49 50 51 52 53 
54 55 56 57 58 59 60 61 62 
63 64 65 66 67 68 69 70 71 
72 73 74 75 76 77 78 79 80 
81 82 83 84 85 86 87 88 89 
90 91 92 93 94 95 96 97 98 
99 100 101 102 103 104 105 106 107 
108 109 110 111 112 113 114 115 116 
117 118 119 120 121 122 123 124 125 
126 127 128 129 130 131 132 133 134 
135 136 137 138 139 140 141 142 143 
144 145 146 147 148 149 150 151 152 
153 154 155 156 157 158 159 160 161 
162 163 164 165 166 167 168 169 170 
171 172 173 174 175 176 177 178 179 
180 181 182 183 184 185 186 187 188 
189 190 191 192 193 194 195 196 197 
198 199 200 201 202 203 204 205 206 
207 208 209 210 211 212 213 214 215 
216 217 218 219 220 221 222 223 224 
225 226 227 228 229 230 231 232 233 
234 235 236 237 238 239 240 241 242 
243 244 245 246 247 
POINT_DATA 248
SCALARS Curvature double
LOOKUP_TABLE default
0.1509595178 0.14854603342 0.14684546771 0.14587568428 0.14562954233 0.14610966276 0.1472718854 0.14907805626 0.15145089715 
0.15429446238 0.15747973782 0.16084359693 0.16420796624 0.16736932687 0.17008558968 0.17208221912 0.17309905328 0.17291522027 
0.17136185325 0.1683441781 0.16390229231 0.15818543841 0.15143698178 0.14405572812 0.13649954442 0.12932966263 0.12312024934 
0.11845965218 0.1158607959 0.11570673484 0.11817776217 0.12314107103 0.13030990959 0.13917629732 0.14920555483 0.15980197591 
0.17034425125 0.1802068681 0.18883264867 0.19571773147 0.2004086956 0.20256870995 0.20215294217 0.19932722775 0.1944804756 
0.18821797256 0.18126275731 0.17441105016 0.16846843209 0.16420832852 0.16229698422 0.16323014046 0.16727149127 0.17442260631 
0.18446197093 0.19698584335 0.21143410034 0.22714004383 0.24334389729 0.25921777632 0.27391791146 0.28661542177 0.29666300861 
0.30364632937 0.30759778507 0.30880100889 0.30774912245 0.30503631068 0.30135495634 0.29728710302 0.29327153516 0.28950249813 
0.28595307126 0.28238184286 0.27839797127 0.27349080095 0.26719424343 0.25915953907 0.24909485511 0.23679790669 0.22229092964 
0.20578188123 0.18763658697 0.16836594725 0.14854315816 0.12889427635 0.11036843592 0.094304773608 0.082773882174 0.078175302136 
0.082060889594 0.093632355483 0.11065968421 0.13105533759 0.15327721502 0.17612396922 0.19853963557 0.21944042058 0.23775698252 
0.25245146066 0.26270547822 0.26803771044 0.2684917889 0.26460329054 0.25714251656 0.24698892139 0.23504715348 0.22214046955 
0.20894163443 0.19598073453 0.18362927674 0.17217336539 0.16179111389 0.15265881152 0.14487648222 0.13855854455 0.13375585163 
0.13051114555 0.1287613826 0.12841472891 0.12926247743 0.13106284477 0.13349081212 0.1362159827 0.13889825356 0.14122906682 
0.14293837518 0.14382192311 0.14377693777 0.14277270195 0.14085849949 0.1381512542 0.13482215768 0.13109506611 0.1272302717 
0.12349004546 0.12012018212 0.11730157153 0.11514632447 0.11367991333 0.11282340665 0.11244444351 0.11236461706 0.11240099561 
0.11238811872 0.1122012752 0.11176546056 0.11105733421 0.11011108292 0.10898033715 0.10772854135 0.10640348328 0.10501446735 
0.10353102308 0.10188423977 0.099968134834 0.097667579204 0.094856129396 0.0914184421 0.087271238852 0.082369264234 0.076735722837 
0.070443689543 0.063612391944 0.056410019418 0.04905122631 0.041788902459 0.034919591241 0.028815075407 0.023933103547 0.020761512204 
0.019617466448 0.020214442414 0.021837776855 0.023808958793 0.025686637564 0.027268790511 0.028486787086 0.029384922769 0.030056455157 
0.030645774291 0.031326761362 0.032287536782 0.033723923277 0.035819254393 0.038758231871 0.04263818505 0.047521380918 0.053408662421 
0.060247122793 0.067987755627 0.076520404468 0.085763306673 0.095590405446 0.10588595925 0.1165299118 0.127384751 0.1382870806 
0.1490410662 0.15943794561 0.16923494812 0.17819509932 0.18608420284 0.19266745549 0.1978030418 0.20138833351 0.20341494061 
0.20395584294 0.20320160026 0.20136437424 0.1986388505 0.19521975552 0.19130066117 0.18704301595 0.18255820927 0.17790129791 
0.17308206767 0.16809334332 0.16291248894 0.15752333966 0.15193648392 0.14620431281 0.14041642521 0.13467905552 0.12912134931 
0.12390851909 0.11922617605 0.115234362 0.11205986192 0.10978800894 0.10842241802 0.10793034897 0.10821712298 0.10916159913 
0.1106352405 0.11250736495 0.1146661637 0.11701687223 0.1194706152 0.1219560947 0.12441469033 0.12679762681 0.12906381269 
0.13117621243 0.13310384911 0.13481387418 0.13627545025 0.13746247954 
