# vtk DataFile Version 5.1
vtk output
ASCII
DATASET POLYDATA
POINTS 278 double
86.708773397 82.900223315 36.786670815 86.963406404 83.013535227 36.675871987 87.219538122 83.109177607 36.552550795 
87.475538153 83.188032243 36.41760669 87.729999879 83.250960238 36.271807588 87.981685966 83.298759574 36.115793309 
88.229476534 83.332141358 35.950086899 88.472322861 83.351719635 35.775110942 88.709207432 83.35801059 35.591206809 
88.939109806 83.351438333 35.398655288 89.160978543 83.332346453 35.197698958 89.373708785 83.301013645 34.988565781 
89.57612549 83.257673321 34.771493749 89.766973269 83.202537498 34.546756771 89.944915021 83.135825518 34.314691886 
90.108543413 83.057800223 34.075726939 90.256387803 82.968796881 33.830399201 90.386879029 82.869230783 33.57936002 
90.498666841 82.759787747 33.32346421 90.59041221 82.641283885 33.063670855 90.660940388 82.514749402 32.801057248 
90.709315006 82.381442859 32.536781741 90.734709804 82.242810324 32.272038294 90.736849128 82.100554891 32.008011472 
90.715847145 81.95651262 31.745787601 90.672022807 81.81260189 31.486322139 90.605955404 81.670821376 31.230410042 
90.518353486 81.53325747 30.978693471 90.410516433 81.40191833 30.731551072 90.283667788 81.278826312 30.489236108 
90.13915488 81.165990001 30.251866233 89.978433138 81.065403179 30.019457398 89.802931971 80.979199084 29.792013605 
89.614469347 80.909220421 29.569430478 89.414856219 80.857357464 29.351669895 89.206033825 80.825442341 29.138767537 
88.990083404 80.815269782 28.930889562 88.76927136 80.828526164 28.728373566 88.54607859 80.866169093 28.531630216 
88.323011254 80.929000637 28.341282726 88.102677777 81.017737032 28.15821035 87.887580182 81.13200215 27.98325809 
87.680013752 81.271051573 27.81738397 87.482133722 81.433992409 27.661729488 87.295625511 81.619147498 27.517277957 
87.121776497 81.824575522 27.38494583 86.961624372 82.048344002 27.265695095 86.815989673 82.288505288 27.160542397 
86.68510822 82.542755845 27.070155643 86.569175469 82.809035831 26.995322697 86.468233196 83.085324613 26.936795478 
86.38237834 83.36970784 26.895483212 86.311320097 83.660126553 26.871888033 86.254838162 83.954625735 26.866559796 
86.212677096 84.251263998 26.879931054 86.184610604 84.54810179 26.912368794 86.170249503 84.843215854 26.96388096 
86.169032131 85.134808892 27.034051127 86.1804032 85.421244052 27.122261374 86.203740859 85.701109783 27.227578986 
86.238381898 85.973266254 27.348806717 86.28342289 86.237076593 27.484244903 86.338053022 86.492219615 27.632198334 
86.401466804 86.738750877 27.790876805 86.47289164 86.977072308 27.958460347 86.551610564 87.207876216 28.13316048 
86.63697731 87.43207886 28.313261973 86.728423029 87.650757567 28.497139601 86.82545576 87.865097677 28.683254411 
86.927654604 88.076349579 28.87013707 87.034660532 88.285794062 29.056363956 87.146164631 88.494716305 29.240526871 
87.261894106 88.704386897 29.421197669 87.381614278 88.916061494 29.596857956 87.505051107 89.130923614 29.765945978 
87.631926386 89.35007219 29.926776228 87.761923789 89.574492836 30.077513608 87.894656069 89.805015044 30.216159443 
88.029632516 90.042265482 30.340536999 88.166232706 90.286678347 30.448107493 88.303628066 90.538215521 30.536478835 
88.440806176 90.796453162 30.603141336 88.576524768 91.06051243 30.645487782 88.709290496 91.328954597 30.661055975 
88.837479868 91.599740904 30.648252442 88.959216717 91.870398805 30.605355482 89.072757175 92.138100424 30.532194668 
89.176336611 92.399863217 30.428943018 89.268429392 92.652772332 30.296793019 89.347944884 92.894333246 30.137921622 
89.413848592 93.122207878 29.954484973 89.465902875 93.335030593 29.749734081 89.503755471 93.531495325 29.526345506 
89.527753257 93.711278321 29.287510863 89.538334804 93.874356501 29.036027768 89.535895879 94.020797738 28.774289588 
89.521336428 94.151450248 28.504697797 89.495473425 94.267182103 28.229189798 89.459187621 94.369051943 27.949405482 
89.413394649 94.458259065 27.666697227 89.35902134 94.536097858 27.382148034 89.296995481 94.603929583 27.096597338 
89.228242107 94.663163742 26.810668728 89.153679237 94.715239646 26.524797891 89.074216335 94.761610967 26.239261084 
88.990757234 94.803736082 25.954203657 88.904205731 94.843071638 25.669668091 88.815471261 94.881064624 25.385621631 
88.725470319 94.919138411 25.101984386 88.635122983 94.958671124 24.818657514 88.545345603 95.000972635 24.535550581 
88.457046114 95.047279169 24.252607359 88.371098183 95.098707589 23.969827028 88.288271328 95.156161651 23.687278096 
88.209205361 95.220342312 23.405101921 88.134362453 95.29170642 23.123500821 88.064028603 95.370515286 22.842723822 
87.998238973 95.45676296 22.563033853 87.936743918 95.550170781 22.284668793 87.879086224 95.650344 22.007837248 
87.824596453 95.756768154 21.732699358 87.772446486 95.86890815 21.459382598 87.721629508 95.986083699 21.187932519 
87.671081968 96.10768781 20.918385746 87.619680029 96.233137295 20.650769328 87.566268638 96.361884761 20.38512014 
87.509685849 96.493424471 20.121503985 87.448780557 96.62729094 19.860032262 87.38242674 96.763053254 19.600875731 
87.309507329 96.900314397 19.344287849 87.229008039 97.038692072 19.090585073 87.139985333 97.177833013 18.840172377 
87.041579775 97.317404415 18.593543198 86.933034391 97.457087289 18.351273924 86.813712464 97.596576166 18.114016344 
86.683121139 97.73558527 17.882484339 86.5409315 97.873856934 17.657435201 86.386925178 98.011160656 17.439689736 
86.221118839 98.14730622 17.230036562 86.043748941 98.282151543 17.029196061 85.855157677 98.415596255 16.837870302 
85.655831851 98.547589326 16.656687268 85.44638125 98.678128029 16.486182323 85.227425641 98.807240832 16.326900407 
84.999848411 98.935025436 16.179043701 84.764472992 99.06159765 16.042808042 84.522140096 99.187098445 15.918278296 
84.273689365 99.311686568 15.805429001 84.019942273 99.435531746 15.704129298 83.761668421 99.558808293 15.614208389 
83.499627666 99.681697936 15.535330501 83.234517566 99.804378294 15.467097559 82.966965231 99.927018514 15.409084316 
82.697536541 100.04977749 15.360816387 82.426735327 100.17280352 15.321781872 82.155004178 100.29623434 15.291443488 
81.882726483 100.42019634 15.269247791 81.610229141 100.54480312 15.254631754 81.337785916 100.6701546 15.247028469 
81.065621886 100.79633801 15.245876078 80.793919983 100.92343155 15.25063587 80.522819134 101.05149441 15.260731454 
80.252424532 101.18057943 15.275626076 79.982811071 101.3107311 15.294796063 79.714028108 101.44198794 15.317731504 
79.446104201 101.57438521 15.343936429 79.179051887 101.70795834 15.372927425 78.912872451 101.84274692 15.404231613 
78.6475605 101.97879829 15.437385135 78.38310995 102.11617356 15.47193392 78.119517866 102.2549506 15.507428573 
77.856777798 102.39520795 15.543418199 77.594894238 102.53704378 15.579463779 77.333879583 102.68056675 15.615130579 
77.073755342 102.82589321 15.649989035 76.814552913 102.97314375 15.683616046 76.556314834 103.12244126 15.7155944 
76.299099501 103.27391686 15.745502319 76.042960717 103.42766243 15.772961541 75.787969605 103.58377487 15.797597682 
75.534207714 103.74233919 15.819057017 75.281768005 103.90342881 15.837011505 75.030755787 104.06710683 15.851163491 
74.781298471 104.23344236 15.861226635 74.53352795 104.40248112 15.866978873 74.287588109 104.57426318 15.868247092 
74.043645303 104.7488411 15.864887958 73.801883756 104.92627461 15.856803623 73.562505015 105.10663224 15.843938906 
73.325727281 105.28999225 15.826277053 73.091785188 105.47644352 15.803836245 72.860942897 105.66609892 15.776648676 
72.633463831 105.85906347 15.744802409 72.409627209 106.05545112 15.708402526 72.18973542 106.25538788 15.667555827 
71.974109122 106.45900271 15.622372643 71.763089153 106.6664245 15.572959735 71.557038919 106.87777847 15.519412805 
71.356347073 107.09318173 15.461808376 71.161430557 107.31273835 15.400196309 70.972737698 107.53653404 15.33459427 
70.790750846 107.76463 15.264983239 70.615987052 107.99705431 15.191302665 70.44902277 108.23380448 15.113431247 
70.290450892 108.47481137 15.031205152 70.140848674 108.71992076 14.944432468 70.000832982 108.96891614 14.852866305 
69.871016785 109.22149209 14.756225686 69.751984779 109.47724249 14.654202509 69.644301674 109.73566035 14.546453509 
69.548495064 109.99613044 14.432609324 69.464803635 110.25791265 14.312408717 69.393431113 110.52021033 14.185571313 
69.334425578 110.78216855 14.051859369 69.28778891 111.04287952 13.911012883 69.253124378 111.30145338 13.762958003 
69.229947661 111.55703379 13.607639194 69.217669524 111.80881063 13.445031751 69.215594512 112.05603753 13.275150152 
69.222997728 112.29800817 13.098001082 69.239027972 112.53412926 12.913673867 69.262833146 112.76387663 12.722268031 
69.293607079 112.98675709 12.523863885 69.330583201 113.2023081 12.318540585 69.37305333 113.41008191 12.106376609 
69.420382894 113.60963046 11.887453211 69.472019919 113.80049123 11.661859046 69.527497766 113.98217511 11.429695888 
69.586436408 114.15415719 11.191086564 69.648543701 114.31587223 10.946186043 69.713617004 114.46671363 10.695194226 
69.781541604 114.60603603 10.438368902 69.852285012 114.73316212 10.176038449 69.925890588 114.84739341 9.9086141967 
70.002471602 114.94801628 9.6365990726 70.082218914 115.03424924 9.3605835555 70.165338707 115.10550861 9.0813149977 
70.252092026 115.16120657 8.7996288522 70.342766967 115.20085584 8.5164681803 70.437665317 115.22409383 8.2328700879 
70.537089725 115.23069988 7.9499465231 70.641388006 115.22043436 7.6688939912 70.750770632 115.19364798 7.3908832353 
70.865468947 115.15070568 7.1170726637 70.985679941 115.0921671 6.8485650304 71.111604492 115.01867203 6.5864258302 
71.243359381 114.93115648 6.3315581321 71.381000217 114.83074179 6.0846810574 71.52458395 114.718574 5.846394811 
71.674142856 114.59587187 5.6171411175 71.829711521 114.46386546 5.3972409701 71.99129283 114.32383489 5.1868422656 
72.158835913 114.17709528 4.9858886633 72.332310322 114.02488428 4.7942504448 72.511671698 113.86839896 4.6116854328 
72.696861441 113.70878542 4.4378526688 72.887807761 113.54713219 4.2723273806 73.084424748 113.38446555 4.1146142457 
73.286607503 113.22174597 3.9641560355 73.49422576 113.05986483 3.8203390499 73.70712826 112.89964772 3.68250605 
73.92513648 112.74185864 3.5499526769 74.148025415 112.58718749 3.4219176733 74.375554866 112.43626843 3.2976213427 
74.607450522 112.28967602 3.1762500451 74.843402618 112.14792978 3.0569580253 75.083067048 112.0115029 2.9388707653 
75.326065202 111.88083128 2.8210887254 75.571981358 111.75632157 2.702690638 75.820358606 111.63835885 2.5827376298 
76.070694023 111.52731434 2.4602790932 76.322438426 111.42360246 2.334332388 76.574966055 111.32755909 2.2039560549 
76.82759461 111.23953516 2.0682306505 77.079573322 111.15989251 1.9262701431 77.330077062 111.08898408 1.7772492271 
77.578207468 111.02714232 1.6204278937 77.823000719 110.97466346 1.4551783682 
VERTICES 279 278
OFFSETS vtktypeint64
0 1 2 3 4 5 6 7 8 
9 10 11 12 13 14 15 16 17 
18 19 20 21 22 23 24 25 26 
27 28 29 30 31 32 33 34 35 
36 37 38 39 40 41 42 43 44 
45 46 47 48 49 50 51 52 53 
54 55 56 57 58 59 60 61 62 
63 64 65 66 67 68 69 70 71 
72 73 74 75 76 77 78 79 80 
81 82 83 84 85 86 87 88 89 
90 91 92 93 94 95 96 97 98 
99 100 101 102 103 104 105 106 107 
108 109 110 111 112 113 114 115 116 
117 118 119 120 121 122 123 124 125 
126 127 128 129 130 131 132 133 134 
135 136 137 138 139 140 141 142 143 
144 145 146 147 148 149 150 151 152 
153 154 155 156 157 158 159 160 161 
162 163 164 165 166 167 168 169 170 
171 172 173 174 175 176 177 178 179 
180 181 182 183 184 185 186 187 188 
189 190 191 192 193 194 195 196 197 
198 199 200 201 202 203 204 205 206 
207 208 209 210 211 212 213 214 215 
216 217 218 219 220 221 222 223 224 
225 226 227 228 229 230 231 232 233 
234 235 236 237 238 239 240 241 242 
243 244 245 246 247 248 249 250 251 
252 253 254 255 256 257 258 259 260 
261 262 263 264 265 266 267 268 269 
270 271 272 273 274 275 276 277 278 

CONNECTIVITY vtktypeint64
0 1 2 3 4 5 6 7 8 
9 10 11 12 13 14 15 16 17 
18 19 20 21 22 23 24 25 26 
27 28 29 30 31 32 33 34 35 
36 37 38 39 40 41 42 43 44 
45 46 47 48 49 50 51 52 53 
54 55 56 57 58 59 60 61 62 
63 64 65 66 67 68 69 70 71 
72 73 74 75 76 77 78 79 80 
81 82 83 84 85 86 87 88 89 
90 91 92 93 94 95 96 97 98 
99 100 101 102 103 104 105 106 107 
108 109 110 111 112 113 114 115 116 
117 118 119 120 121 122 123 124 125 
126 127 128 129 130 131 132 133 134 
135 136 137 138 139 140 141 142 143 
144 145 146 147 148 149 150 151 152 
153 154 155 156 157 158 159 160 161 
162 163 164 165 166 167 168 169 170 
171 172 173 174 175 176 177 178 179 
180 181 182 183 184 185 186 187 188 
189 190 191 192 193 194 195 196 197 
198 199 200 201 202 203 204 205 206 
207 208 209 210 211 212 213 214 215 
216 217 218 219 220 221 222 223 224 
225 226 227 228 229 230 231 232 233 
234 235 236 237 238 239 240 241 242 
243 244 245 246 247 248 249 250 251 
252 253 254 255 256 257 258 259 260 
261 262 263 264 265 266 267 268 269 
270 271 272 273 274 275 276 277 
LINES 2 278
OFFSETS vtktypeint64
0 278 
CONNECTIVITY vtktypeint64
0 1 2 3 4 5 6 7 8 
9 10 11 12 13 14 15 16 17 
18 19 20 21 22 23 24 25 26 
27 28 29 30 31 32 33 34 35 
36 37 38 39 40 41 42 43 44 
45 46 47 48 49 50 51 52 53 
54 55 56 57 58 59 60 61 62 
63 64 65 66 67 68 69 70 71 
72 73 74 75 76 77 78 79 80 
81 82 83 84 85 86 87 88 89 
90 91 92 93 94 95 96 97 98 
99 100 101 102 103 104 105 106 107 
108 109 110 111 112 113 114 115 116 
117 118 119 120 121 122 123 124 125 
126 127 128 129 130 131 132 133 134 
135 136 137 138 139 140 141 142 143 
144 145 146 147 148 149 150 151 152 
153 154 155 156 157 158 159 160 161 
162 163 164 165 166 167 168 169 170 
171 172 173 174 175 176 177 178 179 
180 181 182 183 184 185 186 187 188 
189 190 191 192 193 194 195 196 197 
198 199 200 201 202 203 204 205 206 
207 208 209 210 211 212 213 214 215 
216 217 218 219 220 221 222 223 224 
225 226 227 228 229 230 231 232 233 
234 235 236 237 238 239 240 241 242 
243 244 245 246 247 248 249 250 251 
252 253 254 255 256 257 258 259 260 
261 262 263 264 265 266 267 268 269 
270 271 272 273 274 275 276 277 
POINT_DATA 278
SCALARS Curvature double
LOOKUP_TABLE default
0.26041739493 0.24386256102 0.22918838308 0.21667792845 0.20647131048 0.1986195663 0.19310835697 0.18987360174 0.18881960599 
0.18980072232 0.19264279287 0.19714480321 0.20307500763 0.21016517155 0.21805165022 0.22630976949 0.23454635338 0.24241520309 
0.24952396397 0.25533399822 0.25933463326 0.26133823056 0.26142757039 0.25976244059 0.25649060584 0.25192491622 0.24669763572 
0.24154203162 0.23714521794 0.23410611869 0.232932601 0.23399362503 0.23745017332 0.24328536901 0.25129497205 0.26094805217 
0.27136295251 0.28153777325 0.29082110544 0.29866554305 0.30433000538 0.30713507037 0.30693828801 0.30422246583 0.29966627427 
0.29388187344 0.28746589939 0.28112107568 0.27546139038 0.27088782991 0.26760293783 0.26558432978 0.26450366362 0.26379076793 
0.26282555018 0.26102960403 0.25775499297 0.25225606931 0.24392071621 0.23264798173 0.21870575431 0.20248020531 0.18433044254 
0.16473455994 0.14435024331 0.12384415229 0.10387289147 0.085245251578 0.069282477008 0.058315814838 0.055411113928 0.061812539176 
0.075400015098 0.093369509067 0.11390238722 0.13606446277 0.15942567406 0.1837962973 0.20895552627 0.23443685646 0.25956137106 
0.28366541599 0.30602605614 0.325697642 0.3416547693 0.35287665401 0.35884737978 0.35933647722 0.3547495675 0.34587376713 
0.33339816859 0.31799939506 0.30040774352 0.28158850678 0.26217494822 0.24235664285 0.22216143264 0.20180811818 0.18156611021 
0.16155984735 0.141765565 0.12212716268 0.10271493192 0.083671205524 0.065223709203 0.047891309006 0.033165549495 0.025369806174 
0.02939636339 0.040901921147 0.054350662242 0.067450406594 0.078989886652 0.088071480843 0.094225864097 0.097372113255 0.097510665631 
0.094690008978 0.08917332932 0.081606987102 0.072874737596 0.063991694812 0.056180677819 0.050940163457 0.049688791434 0.05291614519 
0.05984294968 0.069180448411 0.079823074118 0.090981538044 0.10210642708 0.11289270672 0.12315005259 0.13267443156 0.14121283916 
0.14853858021 0.15457575107 0.1592983 0.16267851897 0.16469307568 0.16535463963 0.16474960018 0.16298596515 0.16020350368 
0.15657998322 0.15225141277 0.14730673205 0.14182212071 0.13593463175 0.12979156124 0.12348622237 0.11704999964 0.11050644202 
0.10392494355 0.097383682439 0.090930439316 0.084587215402 0.078371061189 0.072304469091 0.066413865719 0.060707882744 0.055189529337 
0.049866838377 0.044750028766 0.039860898175 0.035226242465 0.030904342444 0.027008730804 0.023727109173 0.021332429616 0.020120899099 
0.02027933466 0.021758867459 0.024288453542 0.027535444767 0.031208195777 0.035092153656 0.039039268811 0.042941888497 0.04671913281 
0.050306848224 0.053653196438 0.056735983629 0.059545294288 0.062071204868 0.064305167733 0.06625893687 0.067982138297 0.069537275035 
0.070983109125 0.072381420941 0.073808173365 0.075347974845 0.077078879833 0.079070671095 0.081385441754 0.084078506864 0.087196334531 
0.090773657503 0.09482567948 0.099353756841 0.10433469074 0.10971794515 0.11544236809 0.12141807114 0.12753130572 0.13361298673 
0.13944394639 0.14480786617 0.14951796483 0.1533815507 0.15622571934 0.15789515421 0.15831576165 0.15750214423 0.15556415506 
0.15272746888 0.14925389484 0.14542466769 0.14152344747 0.1378422731 0.13468151478 0.13228435499 0.13080355157 0.13032744134 
0.13088680558 0.13245880152 0.13498943258 0.13837452298 0.14249783625 0.14723475882 0.1524459057 0.1579931162 0.16373995742 
0.16954111282 0.1752135999 0.18053089658 0.18527795296 0.18933220269 0.19257637862 0.19481758747 0.19580173986 0.19541902838 
0.19374543385 0.1908803701 0.18685038303 0.181684778 0.17553811067 0.16864984814 0.16123956686 0.15349224177 0.14556860563 
0.13762296893 0.12978185903 0.12215964961 0.11488757271 0.10807392791 0.10175245791 0.09590888155 0.090560613153 0.085802241993 
0.081738250956 0.078413475948 0.075867908743 0.074222708093 0.073678594772 0.074418431796 0.076554313315 0.080127214306 0.085111119276 
0.091415782437 0.098893412987 0.10733052853 0.11649386741 0.12612212617 0.13593526071 0.14563611321 0.15491364993 
