# vtk DataFile Version 5.1
vtk output
ASCII
DATASET POLYDATA
POINTS 271 double
71.400740599 67.424647824 42.090526941 71.627810802 67.491885523 41.906358666 71.854055068 67.55829149 41.720876854 
72.079646676 67.623497768 41.53417861 72.30474397 67.687134471 41.346345766 72.529498496 67.748829332 41.157457776 
72.754054371 67.808186425 40.967587337 72.978550091 67.864857267 40.776827617 73.20310984 67.918470974 40.585261783 
73.427845221 67.968657385 40.392975175 73.652855032 68.015026551 40.200052655 73.878220829 68.057207375 40.006586005 
74.104002062 68.094873986 39.812673621 74.330240435 68.12768853 39.618413247 74.556956834 68.155329959 39.423905653 
74.784156196 68.177422507 39.229252967 75.011807103 68.19375862 39.03456082 75.239859335 68.20409487 38.839928041 
75.468237011 68.208221281 38.645446162 75.696840229 68.205876886 38.451200192 75.925537721 68.197001429 38.257255003 
76.154177707 68.181506992 38.063658394 76.382583815 68.159331096 37.870435642 76.610550816 68.130399758 37.677588135 
76.837866509 68.094842881 37.485080347 77.064302919 68.052747212 37.292854847 77.289617034 68.004201529 37.100830732 
77.513561835 67.949342568 36.908904519 77.735911461 67.888404551 36.716957538 77.956435756 67.821576456 36.524864562 
78.174900115 67.749017838 36.332496511 78.391084453 67.67090248 36.139729243 78.604802133 67.587433222 35.946456279 
78.815857584 67.49873668 35.752586818 79.024058991 67.404897971 35.558052794 79.229177174 67.305894658 35.362804749 
79.431042125 67.201756991 35.166839388 79.629438857 67.092398455 34.970178145 79.824128637 66.977669715 34.772873455 
80.014843004 66.857364576 34.575008665 80.201237175 66.731172194 34.376695787 80.382978351 66.598813387 34.178086482 
80.559664707 66.459948799 33.979360866 80.730821237 66.314200437 33.780727556 80.895902702 66.161181543 33.582422534 
81.054250626 66.000474089 33.384711595 81.205145848 65.831718956 33.187883959 81.347848673 65.654676398 32.992235286 
81.481500956 65.469145677 32.798069775 81.605172908 65.275037859 32.605686505 81.717750111 65.072312796 32.415394313 
81.818268174 64.861247931 32.227439534 81.905701739 64.64225502 32.04203612 81.979000918 64.415915261 31.859351238 
82.037012111 64.182961524 31.679511474 82.078832382 63.944422337 31.502529393 82.103695222 63.701510098 31.328328719 
82.110880835 63.455571563 31.156768974 82.099730587 63.208095596 30.987648647 82.06976042 62.960715639 30.820694439 
82.020881883 62.715145931 30.655550389 81.953037798 62.473156631 30.49183297 81.866345622 62.236561039 30.329129893 
81.76105703 62.007213899 30.167017772 81.637498275 61.787050681 30.005073852 81.496406012 61.57788246 29.84289458 
81.338507917 61.381594297 29.680116713 81.164685441 61.200080747 29.516427102 80.97597981 61.035247486 29.35157617 
80.773466892 60.889236161 29.185377988 80.558661611 60.76388945 29.017769209 80.333208156 60.661123477 28.848800106 
80.098934106 60.582998691 28.678653871 79.857958662 60.531700889 28.507685472 79.612856724 60.508621365 28.336464039 
79.36642076 60.515860931 28.165778208 79.12182096 60.554217335 27.9966315 78.882606682 60.625079192 27.830324795 
78.652361282 60.728156587 27.668285672 78.434914899 60.863250418 27.512206822 78.233832627 61.028874849 27.363810095 
78.052132014 61.222584789 27.224706802 77.89246042 61.441570359 27.096461872 77.756556352 61.682270937 26.980305815 
77.64502701 61.940714659 26.876973237 77.558241631 62.213332435 26.78714812 77.495038393 62.496342416 26.710723336 
77.454452642 62.786729761 26.647722377 77.434422951 63.081735975 26.597519062 77.433238934 63.379271941 26.559688869 
77.448774105 63.677669529 26.533525146 77.47884023 63.975721767 26.518233699 77.521385491 64.272609656 26.51306882 
77.574403788 64.567831937 26.517267034 77.635962847 64.861150981 26.530061551 77.704231069 65.15253688 26.550706811 
77.777426198 65.442139624 26.578409858 77.853855694 65.730240998 26.612359085 77.931910671 66.017218541 26.651716216 
78.010056803 66.303516919 26.695589594 78.086837811 66.589617506 26.743022354 78.160877867 66.876009787 26.79298291 
78.230890861 67.163162209 26.844359294 78.295698506 67.451492303 26.895959667 78.35425501 67.741337994 26.946520237 
78.405589116 68.032952297 26.994687085 78.449021009 68.326433697 27.039119429 78.483985633 68.621760903 27.078476867 
78.510075004 68.918778785 27.111456302 78.527033759 69.217200972 27.136823987 78.534651781 69.516624157 27.153349833 
78.53298561 69.816515759 27.160071547 78.522106186 70.116260325 27.156109314 78.502101464 70.415160338 27.140676952 
78.473063009 70.712438778 27.113083978 78.435019394 71.007221281 27.072658869 78.38799874 71.298545074 27.018851385 
78.33203051 71.585372322 26.951249184 78.26704992 71.866531824 26.869417096 78.192955853 72.140711366 26.772961669 
78.109562593 72.406361464 26.66142248 78.016767305 72.661786612 26.534508563 77.914601134 72.905196917 26.392141648 
77.803116229 73.134505507 26.234217069 77.682531783 73.34740323 26.060780681 77.553538587 73.541962667 25.87249956 
77.416871285 73.715726361 25.669850044 77.273877429 73.867229387 25.454128136 77.126034156 73.99475499 25.226498737 
76.975216923 74.097785071 24.988640168 76.823409919 74.175907678 24.742079201 76.672681792 74.229797645 24.488460588 
76.525055756 74.260378597 24.229187899 76.382468115 74.268969229 23.965462769 76.246625688 74.257447181 23.698301086 
76.11927264 74.227365141 23.428408424 76.001841822 74.18078662 23.156364037 75.895655186 74.119665873 22.882577477 
75.802046745 74.045800022 22.607342439 75.722224791 73.961034231 22.3309069 75.657102946 73.867297075 22.053516639 
75.607558416 73.766380315 21.775424302 75.574462102 73.660008744 21.496920602 75.558143422 73.549982857 21.218349915 
75.558694143 73.437994317 20.940083229 75.576008233 73.325626091 20.662504537 75.609724045 73.214361031 20.38598854 
75.658789185 73.105475267 20.110824294 75.722044233 73.000035407 19.837212757 75.798111672 72.898903056 19.565235392 
75.885381015 72.802718755 19.294826332 75.982002474 72.711852121 19.025757293 76.086169717 72.626531592 18.757685361 
76.196046606 72.546833242 18.490159105 76.309794625 72.47271335 18.22264419 76.425595474 72.404059923 17.954550341 
76.541643333 72.340710623 17.685260037 76.656165757 72.282452627 17.414174272 76.76741746 72.229109187 17.140727422 
76.873668023 72.18053584 16.864420841 76.973207451 72.136641125 16.584855229 77.06435687 72.097404305 16.301761666 
77.145371885 72.062934463 16.014994772 77.214708833 72.033369857 15.724648143 77.270929277 72.008955552 15.43101173 
77.312683884 71.990058218 15.134572031 77.338583322 71.977225667 14.836011644 77.347972882 71.970893821 14.536275584 
77.340131043 71.971682999 14.236431784 77.31461268 71.980245154 13.937697515 77.27163716 71.99703693 13.641323889 
77.211163939 72.022711156 13.348664186 77.13398518 72.057533139 13.060920829 77.040793421 72.101801378 12.779278384 
76.932452499 72.155672024 12.504818319 76.810199376 72.218967709 12.238326623 76.674988321 72.291589055 11.980612461 
76.528014714 72.373140362 11.732173175 76.370434353 72.463104309 11.493319211 76.2032276 72.560952209 11.264305502 
76.027302418 72.666074965 11.045259576 75.843601917 72.777707614 10.836034716 75.652875093 72.895143333 10.636492852 
75.455777557 73.017670044 10.446421656 75.252846776 73.14460613 10.265602656 75.044586887 73.275255469 10.093705219 
74.831439771 73.408955987 9.9303546988 74.613765304 73.545106636 9.7752009706 74.391876723 73.68315399 9.6278874936 
74.166050292 73.822597011 9.4880590559 73.936526399 73.962991982 9.3553832313 73.703518708 74.103952443 9.2295544736 
73.46726607 74.245148375 9.1102066081 73.227972386 74.386316393 8.9970432185 72.985834611 74.527251331 8.8897917379 
72.741044 74.667801528 8.7882047101 72.493773039 74.807860745 8.6920924122 72.244205861 74.94737036 8.6012601303 
71.992529928 75.086315873 8.5155242284 71.738913283 75.22471395 8.4347652809 71.483516226 75.362606602 8.358899304 
71.226476209 75.500049475 8.2879226856 70.967947532 75.637115867 8.2217906569 70.708067966 75.773880088 8.1605058876 
70.446960838 75.910411861 8.1041156353 70.184734471 76.046770973 8.0527223251 69.921495152 76.183005052 8.0064303346 
69.657351773 76.319147131 7.9653081339 69.392401462 76.455213501 7.9294657411 69.126736931 76.591205491 7.8990362141 
68.860453746 76.727111777 7.874135575 68.593657419 76.862914549 7.8547847476 68.326452183 76.998594574 7.8410193636 
68.058947261 77.13413773 7.8328647005 67.791260572 77.269542755 7.8302832266 67.52351642 77.404829023 7.8331231622 
67.255841218 77.540039931 7.841223509 66.988366494 77.675250503 7.8543878753 66.721226042 77.81057215 7.8723369972 
66.45454682 77.94614945 7.8946826603 66.188453268 78.082161026 7.9210213088 65.923065781 78.218819403 7.950903534 
65.658504196 78.356374905 7.9838405879 65.394865791 78.495085999 8.0192433101 65.132249518 78.635238713 8.0565172722 
64.870750319 78.77713437 8.095030691 64.610469365 78.92109721 8.1341199489 64.351503305 79.067444821 8.1730841694 
64.093946969 79.216475905 8.2112076534 63.837912536 79.368492277 8.2477578153 63.583527341 79.523781262 8.2819862115 
63.330946326 79.68262449 8.3131183987 63.080350705 79.845277939 8.3403661701 62.831932405 80.011928813 8.362983238 
62.58593199 80.182755723 8.380205937 62.342631057 80.357900626 8.3912820824 62.102360017 80.537470526 8.3954712543 
61.86553137 80.721568084 8.3919912186 61.632546228 80.910167894 8.3802429613 61.403891977 81.103247308 8.3596026918 
61.180113347 81.300742291 8.3294981938 60.961827718 81.502557989 8.2893910849 60.749750515 81.70857791 8.238752603 
60.544543717 81.918574161 8.1773146097 60.346973384 82.132321694 8.1047928216 60.157851779 82.349555047 8.0209839576 
59.978158494 82.570001433 7.9256235645 59.808694736 82.793266419 7.8187968119 59.650356772 83.018939058 7.7005740738 
59.504092433 83.2465615 7.5710737129 59.370981337 83.475619739 7.4304049433 59.251756384 83.705501334 7.2790411903 
59.147275533 83.935554876 7.1173931335 59.058556468 84.165047717 6.9458358973 58.986197727 84.393191035 6.7650535506 
58.930768526 84.619152267 6.5757491345 58.89296129 84.842013465 6.3785935937 58.873117409 85.060854141 6.1744364443 
58.871371844 85.274768873 5.9641937358 58.88792439 85.482801314 5.7487538841 58.922894476 85.683972111 5.5290433918 
58.975937777 85.877460733 5.3060811276 59.0468008 86.062416407 5.0808385453 59.135118494 86.238037014 4.8542896921 
59.240551308 86.403494794 4.6274075885 59.36237509 86.55820396 4.4011540807 59.499913462 86.701587155 4.176452857 
59.652419566 86.833148343 3.9541915557 59.81906821 86.952491745 3.7352099697 59.998965383 87.059330846 3.5202870442 
60.191160488 87.153495542 3.3101274234 
VERTICES 272 271
OFFSETS vtktypeint64
0 1 2 3 4 5 6 7 8 
9 10 11 12 13 14 15 16 17 
18 19 20 21 22 23 24 25 26 
27 28 29 30 31 32 33 34 35 
36 37 38 39 40 41 42 43 44 
45 46 47 48 49 50 51 52 53 
54 55 56 57 58 59 60 61 62 
63 64 65 66 67 68 69 70 71 
72 73 74 75 76 77 78 79 80 
81 82 83 84 85 86 87 88 89 
90 91 92 93 94 95 96 97 98 
99 100 101 102 103 104 105 106 107 
108 109 110 111 112 113 114 115 116 
117 118 119 120 121 122 123 124 125 
126 127 128 129 130 131 132 133 134 
135 136 137 138 139 140 141 142 143 
144 145 146 147 148 149 150 151 152 
153 154 155 156 157 158 159 160 161 
162 163 164 165 166 167 168 169 170 
171 172 173 174 175 176 177 178 179 
180 181 182 183 184 185 186 187 188 
189 190 191 192 193 194 195 196 197 
198 199 200 201 202 203 204 205 206 
207 208 209 210 211 212 213 214 215 
216 217 218 219 220 221 222 223 224 
225 226 227 228 229 230 231 232 233 
234 235 236 237 238 239 240 241 242 
243 244 245 246 247 248 249 250 251 
252 253 254 255 256 257 258 259 260 
261 262 263 264 265 266 267 268 269 
270 271 
CONNECTIVITY vtktypeint64
0 1 2 3 4 5 6 7 8 
9 10 11 12 13 14 15 16 17 
18 19 20 21 22 23 24 25 26 
27 28 29 30 31 32 33 34 35 
36 37 38 39 40 41 42 43 44 
45 46 47 48 49 50 51 52 53 
54 55 56 57 58 59 60 61 62 
63 64 65 66 67 68 69 70 71 
72 73 74 75 76 77 78 79 80 
81 82 83 84 85 86 87 88 89 
90 91 92 93 94 95 96 97 98 
99 100 101 102 103 104 105 106 107 
108 109 110 111 112 113 114 115 116 
117 118 119 120 121 122 123 124 125 
126 127 128 129 130 131 132 133 134 
135 136 137 138 139 140 141 142 143 
144 145 146 147 148 149 150 151 152 
153 154 155 156 157 158 159 160 161 
162 163 164 165 166 167 168 169 170 
171 172 173 174 175 176 177 178 179 
180 181 182 183 184 185 186 187 188 
189 190 191 192 193 194 195 196 197 
198 199 200 201 202 203 204 205 206 
207 208 209 210 211 212 213 214 215 
216 217 218 219 220 221 222 223 224 
225 226 227 228 229 230 231 232 233 
234 235 236 237 238 239 240 241 242 
243 244 245 246 247 248 249 250 251 
252 253 254 255 256 257 258 259 260 
261 262 263 264 265 266 267 268 269 
270 
LINES 2 271
OFFSETS vtktypeint64
0 271 
CONNECTIVITY vtktypeint64
0 1 2 3 4 5 6 7 8 
9 10 11 12 13 14 15 16 17 
18 19 20 21 22 23 24 25 26 
27 28 29 30 31 32 33 34 35 
36 37 38 39 40 41 42 43 44 
45 46 47 48 49 50 51 52 53 
54 55 56 57 58 59 60 61 62 
63 64 65 66 67 68 69 70 71 
72 73 74 75 76 77 78 79 80 
81 82 83 84 85 86 87 88 89 
90 91 92 93 94 95 96 97 98 
99 100 101 102 103 104 105 106 107 
108 109 110 111 112 113 114 115 116 
117 118 119 120 121 122 123 124 125 
126 127 128 129 130 131 132 133 134 
135 136 137 138 139 140 141 142 143 
144 145 146 147 148 149 150 151 152 
153 154 155 156 157 158 159 160 161 
162 163 164 165 166 167 168 169 170 
171 172 173 174 175 176 177 178 179 
180 181 182 183 184 185 186 187 188 
189 190 191 192 193 194 195 196 197 
198 199 200 201 202 203 204 205 206 
207 208 209 210 211 212 213 214 215 
216 217 218 219 220 221 222 223 224 
225 226 227 228 229 230 231 232 233 
234 235 236 237 238 239 240 241 242 
243 244 245 246 247 248 249 250 251 
252 253 254 255 256 257 258 259 260 
261 262 263 264 265 266 267 268 269 
270 
POINT_DATA 271
SCALARS Curvature double
LOOKUP_TABLE default
0.023118467739 0.022030515827 0.022121769626 0.02332240246 0.025447754974 0.028271660858 0.031590569421 0.035237777038 0.039084683303 
0.043023053406 0.046965765379 0.050841502174 0.054589240092 0.058153998989 0.061483225947 0.064520368935 0.067215664809 0.069526491218 
0.071440284296 0.072944054301 0.074011803734 0.074606761519 0.074725859405 0.07440502003 0.073707224786 0.072715093265 0.071517911557 
0.070221810861 0.06893424061 0.067761071292 0.066811989214 0.066179487241 0.065936263814 0.066149570071 0.06689157654 0.068254851524 
0.070297550487 0.073037063555 0.076498976664 0.080727182995 0.085782246915 0.091657963868 0.098292023171 0.10560986576 0.11350814071 
0.12187079438 0.13054462274 0.13936548509 0.14817724903 0.15682032573 0.16513928092 0.17300291128 0.18030909208 0.18693895702 
0.19277659034 0.19783806931 0.20227108635 0.20620873907 0.20970584959 0.21283895 0.2157951724 0.21879298901 0.222055101 
0.22586050781 0.23044878058 0.23592833993 0.24234656749 0.24984192168 0.2586322179 0.26884736848 0.28047078774 0.29339335578 
0.30741085549 0.32212597217 0.3371192008 0.35210159759 0.36649530633 0.37919015401 0.38892232802 0.39469875544 0.39572668757 
0.39165121819 0.38250654653 0.36859836213 0.35041290316 0.32879886993 0.30509765314 0.28034481524 0.25525582032 0.23029796466 
0.20586333829 0.18217714413 0.15939020449 0.13766569943 0.11713313354 0.097867796694 0.080039244885 0.064174579814 0.051467198952 
0.043995226723 0.043846324615 0.050564414688 0.06143931992 0.074072884515 0.087130263346 0.099954970707 0.11213620903 0.12339082532 
0.13353537869 0.14250687454 0.15034635349 0.1572592852 0.16358603315 0.16969119071 0.17587994916 0.18247709165 0.18982687809 
0.19820816041 0.20781654484 0.21873722658 0.23091749203 0.24402698489 0.25747594802 0.2705425059 0.28237720683 0.29203356496 
0.29850671532 0.3010454491 0.29911882513 0.29273450293 0.28258061464 0.26992843244 0.25597987938 0.24175246592 0.22819120876 
0.21625859961 0.20658118939 0.19945190765 0.19488976948 0.19254981467 0.19171099382 0.19150192661 0.19113316412 0.18985936631 
0.18700941367 0.18202781924 0.17455090886 0.16450508583 0.15204893088 0.13772769012 0.12223707131 0.10626162909 0.090567010984 
0.076342538835 0.065471759228 0.060316276652 0.062449483045 0.07111743821 0.084126229675 0.099451363573 0.11573857629 0.1321766384 
0.14819941703 0.16336174806 0.17727853041 0.18959120095 0.19994361634 0.20814944403 0.21421498441 0.21820795445 0.22016113238 
0.22002925349 0.21796077647 0.21415105511 0.20880936771 0.2022244018 0.19463565502 0.18624714249 0.17722604909 0.16780507514 
0.15826270074 0.14882255285 0.1396410384 0.13084567945 0.12255053785 0.11483548321 0.10772772152 0.10122991138 0.095332666321 
0.090001330075 0.08518465453 0.080822909366 0.076862382956 0.073256681599 0.069961771883 0.066960738405 0.064271295337 0.061931109837 
0.059967562419 0.058400228986 0.057249911201 0.056530147657 0.056238954037 0.056350597917 0.056823883812 0.057589841313 0.058547014353 
0.059590431088 0.060617649838 0.061524312269 0.062192771771 0.062504077145 0.062367082374 0.061728573359 0.060538387305 0.058741112788 
0.056289039925 0.053198267611 0.04954199704 0.045432819179 0.041027370901 0.036554845876 0.032368563499 0.029001470112 0.027181949864 
0.027575376813 0.030356625777 0.035122489247 0.041286718045 0.048367666536 0.056024471419 0.064037683795 0.072263869693 0.080592364044 
0.088925484192 0.097184086793 0.10531045969 0.11325657748 0.12099080831 0.1284962546 0.13575863033 0.14274908192 0.14944506161 
0.15587961051 0.16211213957 0.16818334235 0.17410445494 0.1798774636 0.18548439519 0.19087962545 0.19603056587 0.2009280511 
0.20551441067 0.20966168019 0.21324885096 0.21624122054 0.21863189079 0.22044012127 0.22171020961 0.22248497549 0.22281052349 
0.22274085933 0.22233705277 0.22165402612 0.22070782825 0.21948722889 0.21796929621 0.2161192932 0.21390622942 0.2113023216 
0.20828987012 
