# vtk DataFile Version 5.1
vtk output
ASCII
DATASET POLYDATA
POINTS 214 double
88.850853347 88.019979963 37.043154848 89.044468571 87.89455921 36.85142104 89.234775802 87.755648446 36.665765912 
89.421083708 87.604036004 36.486083684 89.60286144 87.440784949 36.312041615 89.779572863 87.266749158 36.143307284 
89.950913099 87.083084723 35.979300251 90.116502271 86.890650483 35.81948985 90.276173517 86.690501895 35.663166529 
90.429669049 86.483458992 35.509657972 90.576824848 86.270367949 35.358229161 90.717448248 86.05196531 35.208164771 
90.851246454 85.828853685 35.05878786 90.978001954 85.601627317 34.909471648 91.09732221 85.370717541 34.759680862 
91.208773348 85.136489999 34.608984317 91.311908385 84.899246537 34.457091761 91.406099222 84.659170772 34.303848217 
91.490683781 84.416392653 34.149268521 91.564994814 84.171001009 33.993543821 91.628176646 83.923017571 33.837018174 
91.679381597 83.67247401 33.680199723 91.717801392 83.419445434 33.523723905 91.742397662 83.164040556 33.368336098 
91.75234549 82.906524792 33.214824171 91.746769754 82.647311684 33.063978181 91.72473829 82.387013908 32.916552869 
91.685726417 82.126485592 32.773110068 91.628907807 81.866819926 32.634127195 91.554164996 81.609306777 32.49970368 
91.461090193 81.355490549 32.369770998 91.349944102 81.106984781 32.243838937 91.220851429 80.865616706 32.121187317 
91.074498069 80.633142279 32.000759564 90.911543299 80.41145872 31.881311358 90.733083668 80.202302218 31.761434004 
90.540305912 80.007447907 31.639647484 90.334697943 79.828498137 31.514490797 90.117948105 79.666919115 31.384599486 
89.891894316 79.524081341 31.248749448 89.658615037 79.400949789 31.106004043 89.420185102 79.29860685 30.955563319 
89.178841729 79.217429168 30.797077918 88.936745675 79.158059752 30.63029048 88.696027836 79.120502467 30.455372384 
88.458704814 79.104770068 30.272662497 88.226716414 79.110857417 30.082671234 88.001775333 79.13830424 29.886202357 
87.785573717 79.186933737 29.684102806 87.579631867 79.256340711 29.477410044 87.385291313 79.345972259 29.267291749 
87.203999318 79.455554957 29.054980218 87.036824842 79.584317724 28.84185422 86.884867272 79.731622135 28.629344676 
86.749079107 79.89668355 28.418949137 86.630022938 80.078360399 28.212139426 86.528343185 80.275654068 28.010424505 
86.443949695 80.487008127 27.815073845 86.376929989 80.711137653 27.627372155 86.32655717 80.946313766 27.448164092 
86.292244436 81.191091058 27.278247566 86.272837855 81.44387872 27.117964064 86.267207193 81.703311958 26.967510234 
86.274047262 81.96813668 26.826801499 86.291932744 82.237240462 26.695479365 86.319639727 82.509752824 26.573187838 
86.35575594 82.784881387 26.45922107 86.399063246 83.062021369 26.352875269 86.448470926 83.340698519 26.253418096 
86.502853471 83.620508318 26.1599062 86.561250146 83.901144776 26.07141827 86.622808861 84.182364778 25.987013621 
86.686683047 84.463955459 25.905614046 86.752130591 84.745740303 25.826155768 86.818459476 85.027556132 25.747540981 
86.884992179 85.30924128 25.668630887 86.951081685 85.590627481 25.588296703 87.016066017 85.871520289 25.505379771 
87.079289129 86.151703951 25.418789148 87.140073579 86.430923733 25.327473938 87.197662129 86.708857039 25.230355047 
87.251345811 86.985157002 25.126576256 87.300333894 87.259392039 25.015278265 87.343803711 87.531055455 24.895698654 
87.381013982 87.799610916 24.7673186 87.411111869 88.064383941 24.629567269 87.433454711 88.3247171 24.482219216 
87.447378491 88.579834749 24.325045951 87.4524027 88.82895221 24.158024549 87.448231353 89.071283745 23.981281869 
87.434697598 89.30600533 23.794996928 87.411982474 89.532454577 23.599588824 87.380325242 89.749906672 23.395401289 
87.34038991 89.957981179 23.183053791 87.292805538 90.156196872 22.962987905 87.238576907 90.344533491 22.735891659 
87.178660667 90.522928275 22.502286363 87.114176376 90.691652968 22.262783366 87.046237895 90.851113504 22.017943139 
86.975920813 91.001794078 21.768257916 86.904275403 91.144452607 21.514272065 86.832224256 91.279789236 21.256420561 
86.760573903 91.408629442 20.995150089 86.689966523 91.531823508 20.730887722 86.620890077 91.650119813 20.46399457 
86.553624152 91.764286032 20.194848863 86.488259292 91.874972795 19.923787208 86.424724377 91.982674886 19.65109232 
86.36273147 92.08781501 19.377045565 86.301849451 92.190636352 19.101871865 86.241503487 92.291204311 18.825748788 
86.180987831 92.389473652 18.548836494 86.119510736 92.485210168 18.271249993 86.056214238 92.578052138 17.993090656 
85.990239829 92.667564402 17.714463703 85.920668891 92.753167978 17.435485128 85.846694116 92.834348217 17.156319342 
85.767492988 92.910545062 16.877184716 85.682334657 92.981302802 16.598374411 85.590604478 93.046329545 16.320255701 
85.491673004 93.105428607 16.043286381 85.385157284 93.158746378 15.767962539 85.270580809 93.206529398 15.49486857 
85.147689531 93.249368482 15.22458433 85.016221618 93.288033336 14.957727983 84.875916887 93.323485113 14.694956855 
84.726689903 93.356890079 14.436875565 84.568329478 93.389493281 14.18419205 84.400757616 93.422631223 13.937594615 
84.223951104 93.45764327 13.697800362 84.037775681 93.495898581 13.46572051 83.842396926 93.538618983 13.242146304 
83.637909501 93.586976 13.028072545 83.424568651 93.641970883 12.824504626 83.202818571 93.704362216 12.632382448 
82.973126603 93.774799376 12.452785241 82.736265685 93.853515402 12.28642823 82.49294648 93.94070225 12.134218758 
82.244149538 94.036068866 11.996454153 81.990730952 94.139362558 11.873636436 81.733679744 94.249936269 11.765589453 
81.473840337 94.367224054 11.672288667 81.212042217 94.490466332 11.593212633 80.948990795 94.618970386 11.527844131 
80.685298356 94.752059414 11.475516562 80.42147871 94.889075543 11.435359176 80.157952909 95.029501332 11.406660292 
79.895055442 95.172835161 11.388475474 79.633045034 95.318676394 11.379929641 79.37213189 95.466722812 11.380276623 
79.112448103 95.616687155 11.388612928 78.85408474 95.768352021 11.404161335 78.59710591 95.921550429 11.426265339 
78.341504596 96.076101405 11.454175775 78.0872523 96.231850438 11.48727702 77.834299619 96.388650733 11.52504967 
77.582539979 96.54632605 11.566931442 77.331862901 96.704706502 11.612488874 77.082134565 96.863608226 11.661326323 
76.83319767 97.022836013 11.713058684 76.58490013 97.182197872 11.767387307 76.337073643 97.341503438 11.823985527 
76.089556175 97.500577629 11.882553493 75.842189658 97.65926348 11.942789671 75.594820528 97.817442588 12.004334325 
75.347303622 97.975026682 12.066804753 75.099503136 98.13197966 12.129738302 74.851294817 98.288314719 12.192602593 
74.60255726 98.444086061 12.254769891 74.353196859 98.599410647 12.315542704 74.103130295 98.754440992 12.37412313 
73.852303976 98.909372208 12.429632986 73.600710875 99.064429535 12.481173052 73.348379696 99.21986404 12.527718398 
73.09541693 99.375929898 12.568333592 72.841991848 99.532886937 12.602029157 72.588356773 99.690986973 12.627865998 
72.334845961 99.850450741 12.645083308 72.081879424 100.01150696 12.652866109 71.829929724 100.17431934 12.650810545 
71.579542144 100.33907288 12.638464515 71.331273103 100.50591079 12.615723004 71.085695848 100.67498099 12.5826069 
70.843411477 100.84645661 12.539202161 70.604954686 101.02048119 12.485879196 70.370913484 101.19725566 12.422908937 
70.141861815 101.37698463 12.350642875 69.918358886 101.55986705 12.269465436 69.701067633 101.74614466 12.179608857 
69.49069806 101.93604464 12.081269014 69.287985752 102.12974474 11.97461586 69.093853814 102.32742311 11.859630409 
68.909306487 102.52916947 11.736243962 68.735349138 102.73492848 11.604396835 68.57326572 102.94456928 11.463830858 
68.424094091 103.1576865 11.314481361 68.289043222 103.37372008 11.156163123 68.169002543 103.5918413 10.988874231 
68.064779347 103.81102075 10.812611446 67.976697806 104.03003817 10.627561063 67.904935023 104.2475378 10.433873874 
67.849055756 104.46212998 10.231884602 67.808582717 104.67236204 10.021795089 67.782481153 104.87689743 9.8039450474 
67.769757804 105.07436045 9.5785065689 67.769120724 105.26351098 9.3457006696 67.779259751 105.44313875 9.1056818612 
67.798918098 105.61195954 8.8585157339 67.826675915 105.76888827 8.6043897451 67.861243448 105.9126992 8.3434292555 
67.901338463 106.04210529 8.0758069199 67.94561763 106.15602344 7.8018825235 67.992797702 106.25328708 7.5220885321 
68.041600819 106.33279493 7.2370151091 
VERTICES 215 214
OFFSETS vtktypeint64
0 1 2 3 4 5 6 7 8 
9 10 11 12 13 14 15 16 17 
18 19 20 21 22 23 24 25 26 
27 28 29 30 31 32 33 34 35 
36 37 38 39 40 41 42 43 44 
45 46 47 48 49 50 51 52 53 
54 55 56 57 58 59 60 61 62 
63 64 65 66 67 68 69 70 71 
72 73 74 75 76 77 78 79 80 
81 82 83 84 85 86 87 88 89 
90 91 92 93 94 95 96 97 98 
99 100 101 102 103 104 105 106 107 
108 109 110 111 112 113 114 115 116 
117 118 119 120 121 122 123 124 125 
126 127 128 129 130 131 132 133 134 
135 136 137 138 139 140 141 142 143 
144 145 146 147 148 149 150 151 152 
153 154 155 156 157 158 159 160 161 
162 163 164 165 166 167 168 169 170 
171 172 173 174 175 176 177 178 179 
180 181 182 183 184 185 186 187 188 
189 190 191 192 193 194 195 196 197 
198 199 200 201 202 203 204 205 206 
207 208 209 210 211 212 213 214 
CONNECTIVITY vtktypeint64
0 1 2 3 4 5 6 7 8 
9 10 11 12 13 14 15 16 17 
18 19 20 21 22 23 24 25 26 
27 28 29 30 31 32 33 34 35 
36 37 38 39 40 41 42 43 44 
45 46 47 48 49 50 51 52 53 
54 55 56 57 58 59 60 61 62 
63 64 65 66 67 68 69 70 71 
72 73 74 75 76 77 78 79 80 
81 82 83 84 85 86 87 88 89 
90 91 92 93 94 95 96 97 98 
99 100 101 102 103 104 105 106 107 
108 109 110 111 112 113 114 115 116 
117 118 119 120 121 122 123 124 125 
126 127 128 129 130 131 132 133 134 
135 136 137 138 139 140 141 142 143 
144 145 146 147 148 149 150 151 152 
153 154 155 156 157 158 159 160 161 
162 163 164 165 166 167 168 169 170 
171 172 173 174 175 176 177 178 179 
180 181 182 183 184 185 186 187 188 
189 190 191 192 193 194 195 196 197 
198 199 200 201 202 203 204 205 206 
207 208 209 210 211 212 213 
LINES 2 214
OFFSETS vtktypeint64
0 214 
CONNECTIVITY vtktypeint64
0 1 2 3 4 5 6 7 8 
9 10 11 12 13 14 15 16 17 
18 19 20 21 22 23 24 25 26 
27 28 29 30 31 32 33 34 35 
36 37 38 39 40 41 42 43 44 
45 46 47 48 49 50 51 52 53 
54 55 56 57 58 59 60 61 62 
63 64 65 66 67 68 69 70 71 
72 73 74 75 76 77 78 79 80 
81 82 83 84 85 86 87 88 89 
90 91 92 93 94 95 96 97 98 
99 100 101 102 103 104 105 106 107 
108 109 110 111 112 113 114 115 116 
117 118 119 120 121 122 123 124 125 
126 127 128 129 130 131 132 133 134 
135 136 137 138 139 140 141 142 143 
144 145 146 147 148 149 150 151 152 
153 154 155 156 157 158 159 160 161 
162 163 164 165 166 167 168 169 170 
171 172 173 174 175 176 177 178 179 
180 181 182 183 184 185 186 187 188 
189 190 191 192 193 194 195 196 197 
198 199 200 201 202 203 204 205 206 
207 208 209 210 211 212 213 
POINT_DATA 214
SCALARS Curvature double
LOOKUP_TABLE default
0.17778251998 0.17069342551 0.16250997535 0.15351456362 0.14401746232 0.13433044747 0.1247802893 0.11572936358 0.10755812553 
0.100693565 0.095527926809 0.09237242451 0.091380148127 0.092420300917 0.0952507214 0.099566616029 0.10507795073 0.11157071071 
0.11892352096 0.12707810266 0.13601423314 0.14566978163 0.15589381884 0.16642172791 0.17684862365 0.18669409529 0.19550293817 
0.20291232551 0.20865488817 0.21272346576 0.21531865217 0.21693588912 0.21821358485 0.21981578484 0.22225784195 0.22581327793 
0.23043656773 0.23582037419 0.24147028234 0.24691746888 0.25173355035 0.25562108961 0.25843554045 0.26016126994 0.26101458699 
0.26133142929 0.26146269558 0.26171267539 0.26229328589 0.26328117043 0.2645962943 0.26600576012 0.26714317062 0.26755675141 
0.26678125111 0.26433488788 0.25970812869 0.25266403026 0.24312978718 0.23131738038 0.21753296211 0.20226027936 0.18598504413 
0.16918477699 0.15225592204 0.135493371 0.11906883513 0.1030594742 0.087473811448 0.072251946608 0.057304335616 0.042553401352 
0.027949869462 0.013658334698 0.005215438257 0.017342157871 0.031751472073 0.04624579935 0.060583500192 0.074640950429 0.088315735698 
0.10150403894 0.11407243631 0.12587951634 0.13677563041 0.14657391782 0.15508160056 0.16206811954 0.16729977056 0.17057539525 
0.17171587613 0.1706459327 0.16736364676 0.16205558448 0.1549104285 0.14620945764 0.13627568238 0.12548424629 0.11425306829 
0.10298083937 0.092045437135 0.08174709523 0.072294205113 0.063755279822 0.056085125195 0.049105836803 0.042636697584 0.036629629704 
0.031374446415 0.027786895323 0.027455503529 0.031305180062 0.038713426851 0.04831962143 0.058988041647 0.069881893072 0.080329262434 
0.089764236462 0.097745659691 0.1039997445 0.10842434029 0.11116625585 0.11253828766 0.11309475958 0.11361783154 0.11496255454 
0.11786743903 0.1228093608 0.12986157997 0.13871746625 0.14881630056 0.15941652091 0.16974407542 0.17909442236 0.18687516337 
0.19252122169 0.19562537221 0.19599543633 0.19371507332 0.18898447875 0.18219338971 0.17376874041 0.16417833613 0.15384888362 
0.14315339125 0.13240076606 0.1218208244 0.11158849514 0.10181530502 0.092578476245 0.083911173557 0.075830535867 0.068325891741 
0.061364227953 0.054910165276 0.048940715174 0.043432417765 0.038379739931 0.033782153208 0.029615216398 0.025836599462 0.0223594132 
0.019061396287 0.015786749192 0.012464731165 0.0094597585834 0.0084270096458 0.011461365625 0.017715685458 0.025800580374 0.035125621674 
0.045328955034 0.056083521268 0.067056682223 0.077894624415 0.088226088808 0.097660855913 0.10584330756 0.11248288295 0.11743578821 
0.12068105689 0.12238032368 0.12284865025 0.12252481518 0.12195059539 0.12169046957 0.12229194087 0.1241900277 0.12772241156 
0.13305735289 0.14018650123 0.1488863771 0.15875934413 0.16921380579 0.17955736779 0.1890155138 0.19682918226 0.20236152397 
0.2052242492 0.20536313031 0.20308550655 0.19898593021 0.19378639311 0.18833122448 0.18350001343 0.18002810961 0.17843972983 
0.17902248862 0.18177641242 0.18651078463 0.19287677522 0.20039984617 0.2085574272 0.21679072326 
