# vtk DataFile Version 5.1
vtk output
ASCII
DATASET POLYDATA
POINTS 248 double
78.059465693 72.171501605 38.933283783 78.01302088 72.111348875 38.643141387 77.98835164 72.05169532 38.350252756 
77.987444503 71.99255019 38.056237816 78.011867666 71.933891298 37.763147604 78.063021038 71.875654456 37.473448117 
78.141071835 71.817699957 37.18975523 78.24596772 71.759806734 36.914843856 78.376278545 71.701655159 36.6510851 
78.53022805 71.642830744 36.400530554 78.705550606 71.582827267 36.16471565 78.899691254 71.521060813 35.944608649 
79.109879715 71.456914533 35.74049283 79.333526331 71.389735799 35.552258155 79.568197442 71.318858905 35.379412041 
79.811681709 71.243600758 35.221210098 80.061967804 71.163261409 35.076702687 80.317165273 71.077228465 34.944584492 
80.575633004 70.984876644 34.823539452 80.835887081 70.885509078 34.712262422 81.096522867 70.778624192 34.609140406 
81.356275006 70.663719425 34.512617544 81.613910748 70.540214547 34.421174913 81.868301406 70.407819998 34.333153895 
82.118360418 70.266265995 34.24699515 82.362956161 70.115271804 34.161186298 82.601104435 69.954891196 34.07429011 
82.831851548 69.785263565 33.985023717 83.054254692 69.606617064 33.89224505 83.267474075 69.419359084 33.795003117 
83.470890698 69.22410879 33.692623002 83.663966519 69.02151741 33.584634115 83.846225708 68.812246342 33.470744244 
84.017491119 68.597069308 33.350951343 84.177726946 68.376722357 33.225429188 84.326915828 68.151845064 33.094437944 
84.46512772 67.923018556 32.958341136 84.592644662 67.690796603 32.817630027 84.709572326 67.455591839 32.672732741 
84.816088718 67.217778352 32.524112663 84.912439381 66.977695171 32.372236114 84.998556012 66.735588256 32.217450669 
85.074636532 66.491747671 32.06014952 85.140601074 66.24641722 31.900611979 85.196331931 65.999862331 31.73907259 
85.241794281 65.752388085 31.5757325 85.276609554 65.504319148 31.410687815 85.300677809 65.25605276 31.244033891 
85.313692264 65.008033994 31.075789088 85.315256665 64.760789181 30.90591953 85.305235321 64.514893755 30.734390854 
85.283318796 64.271008353 30.561109107 85.24928828 64.029866093 30.385957018 85.20319119 63.792204313 30.208821312 
85.145012305 63.55884348 30.029535665 85.07489818 63.330634255 29.847906307 84.993302442 63.108351672 29.663740955 
84.90062808 62.892859723 29.476766152 84.797474688 62.68499779 29.28666848 84.684672211 62.485497828 29.093123342 
84.562954588 62.295276193 28.895677017 84.433308563 62.115119391 28.693888396 84.296767444 61.945838636 28.48728772 
84.154299035 61.788581829 28.275261895 84.007138164 61.644177031 28.057386527 83.856464715 61.513769501 27.833179284 
83.703545082 61.398743793 27.602184261 83.549778 61.300209995 27.364244133 83.396604587 61.219510117 27.119313156 
83.245567383 61.158084861 26.867564491 83.098261243 61.117143843 26.609530399 82.956261649 61.097640086 26.346078417 
82.821099648 61.100320427 26.07836163 82.69417618 61.125551659 25.807802914 82.576714425 61.173319916 25.536010383 
82.469728299 61.243247465 25.26469094 82.373845618 61.334350502 24.995514442 82.289488863 61.445494796 24.730028399 
82.216883565 61.575407236 24.469626962 82.156174814 61.7228461 24.215587188 82.107121038 61.8861844 23.968857215 
82.069636622 62.06417429 23.730362262 82.04354386 62.25555635 23.500887759 82.028531204 62.459034912 23.281023359 
82.024573028 62.673700019 23.071563475 82.031281234 62.898351514 22.872922717 82.048730533 63.132275781 22.685981853 
82.076550204 63.374419322 22.511156983 82.114755 63.62408189 22.3493534 82.163051339 63.88036595 22.201178924 
82.22122153 64.142470803 22.067434007 82.288993565 64.40958648 21.949005838 82.365801892 64.680798011 21.84647371 
82.451072589 64.955245511 21.760584069 82.544021254 65.232042931 21.691933627 82.643572288 65.510306827 21.64067301 
82.748543422 65.7892471 21.606835327 82.857614381 66.068179069 21.590240356 82.9693172 66.346565869 21.590269652 
83.082140154 66.624064586 21.605912685 83.194605567 66.900527161 21.635971785 83.305255945 67.175984721 21.679173145 
83.412774536 67.450666399 21.733747394 83.515972731 67.724926201 21.797958329 83.613688494 67.999225696 21.870099191 
83.7050801 68.274085922 21.948157059 83.789232918 68.55006744 22.030294279 83.865496791 68.827702151 22.114533636 
83.933210077 69.107497295 22.19892688 83.991841097 69.38987579 22.281483457 84.040923437 69.675153186 22.360201466 
84.079981134 69.96352769 22.433003972 84.108725706 70.254984442 22.497883794 84.126669386 70.549370713 22.552592191 
84.133704903 70.846203508 22.595181643 84.129515165 71.14478847 22.623438153 84.113982521 71.444086676 22.635324979 
84.087150901 71.742743675 22.629042009 84.049107317 72.039088107 22.602875198 84.000036532 72.331107445 22.555285012 
83.940387419 72.616563615 22.485299521 83.87076146 72.893071005 22.392395869 83.791893707 73.158180268 22.276514265 
83.704660579 73.409521168 22.138136569 83.610044478 73.64493472 21.978263538 83.509089399 73.862592442 21.798353997 
83.402852298 74.061089228 21.600231789 83.292346657 74.239435515 21.385926579 83.178525337 74.397144359 21.157625116 
83.062255379 74.534325074 20.917594381 82.944270511 74.651426339 20.6679449 82.825179793 74.749175889 20.410596524 
82.705478026 74.828480755 20.147247627 82.585558137 74.890810045 19.879462398 82.465708942 74.937395521 19.608453285 
82.346141341 74.969745717 19.3352491 82.226996526 74.989428502 19.060650214 82.108371417 74.997869774 18.785246485 
81.990313613 74.996719357 18.509467425 81.872860941 74.987357922 18.233582655 81.756020069 74.971371376 17.957739377 
81.639814733 74.950097571 17.681982373 81.524251482 74.925009173 17.406274571 81.409374103 74.897381847 17.130521809 
81.295212428 74.868538623 16.854595934 81.181836207 74.839674139 16.578348628 81.069308691 74.811918088 16.301641528 
80.957700557 74.78628093 16.024358863 80.847092114 74.763710431 15.746410678 80.73751384 74.744926626 15.46777456 
80.628972133 74.730526816 15.188472951 80.521430463 74.721000802 14.908576815 80.414759434 74.716545647 14.628221703 
80.308760774 74.717225623 14.347576987 80.203148099 74.722957192 14.066843932 80.097536133 74.7334914 13.786249394 
79.991456179 74.748392862 13.506029191 79.884370249 74.767170486 13.226424669 79.775658792 74.789302413 12.947693938 
79.664696143 74.814169084 12.670083309 79.550845813 74.841192343 12.393847142 79.433445264 74.86985295 12.119267487 
79.311906529 74.899679818 11.846620297 79.185728741 74.930305786 11.576178874 79.054424407 74.961491123 11.30825421 
78.917651324 74.993120154 11.043133209 78.775209081 75.025215744 10.781071758 78.626912969 75.057952184 10.522358426 
78.472768804 75.091637629 10.267210403 78.312899181 75.126700165 10.015798405 78.147413273 75.163713909 9.7683311057 
77.976619437 75.203307924 9.5249033224 77.800852664 75.24617234 9.2856042065 77.620403501 75.293119638 9.0505953668 
77.435739218 75.344847233 8.8199056661 77.24726071 75.402094225 8.5936473097 77.055348061 75.46562656 8.3720018058 
76.860459602 75.53597188 8.1550624846 76.662974407 75.613666952 7.943035273 76.463242471 75.699173973 7.736183919 
76.261617595 75.792664333 7.5346943695 76.058370479 75.894287144 7.3388507617 75.853711932 76.004077762 7.1489773063 
75.64781281 76.121768343 6.9652784947 75.440755418 76.247077199 6.7880316921 75.232549035 76.379639425 6.6175352138 
75.023163766 76.518841267 6.4539123311 74.812496881 76.664104398 6.297353173 74.60039084 76.81480528 6.1480437929 
74.386685268 76.970174992 6.0059753247 74.171172976 77.129516575 5.8712210555 73.95363556 77.292107487 5.7438009339 
73.733891218 77.457192934 5.6235772411 73.511727406 77.624090451 5.5105132976 73.286977164 77.792116478 5.404449014 
73.059519247 77.960634134 5.3051508867 72.829205273 78.129056033 5.2124942878 72.595991242 78.296846482 5.1261620379 
72.359842784 78.463534183 5.0458799125 72.120712275 78.628677588 4.9714452453 71.878667899 78.791939485 4.9024788837 
71.633736535 78.953002411 4.8387294813 71.385972261 79.111598485 4.7799345086 71.135482598 79.267543916 4.725779016 
70.882324826 79.420636139 4.676069742 70.626604195 79.57074758 4.6305658558 70.368428144 79.717782568 4.5890550314 
70.107856943 79.861603215 4.5514291179 69.845012205 80.002170502 4.5175049298 69.579991819 80.139432431 4.4871576621 
69.31285907 80.273292008 4.4603362392 69.04374442 80.403771966 4.4368863722 68.772749583 80.53086335 4.4167012613 
68.499957618 80.654530321 4.3997009549 68.225511893 80.774867526 4.385682581 67.94953416 80.891951341 4.3744577614 
67.672135619 81.005855432 4.3658289037 67.393477108 81.116795808 4.3594743103 67.113701739 81.224987299 4.3550705487 
66.832950491 81.330676221 4.3522597103 66.551396796 81.434234331 4.3505975473 66.26920093 81.536039593 4.349631827 
65.986533637 81.636530867 4.3488626067 65.703582054 81.736215955 4.3477578608 65.420539071 81.835626689 4.3457452025 
65.137618823 81.935343435 4.3422283027 64.855052507 82.035960777 4.3365916595 64.573112787 82.138123274 4.3281289779 
64.292087711 82.242432377 4.3161900115 64.012328954 82.34953197 4.3000075163 63.734240142 82.460041612 4.2787928031 
63.458269096 82.574515575 4.2517709375 63.184990618 82.693557468 4.2179953396 62.915029999 82.817643413 4.1765908855 
62.649117217 82.947194026 4.1266389929 62.388154668 83.082615527 4.0670950185 62.133154942 83.224176925 3.9969689063 
61.88522662 83.371994889 3.9153632623 61.645640053 83.526082008 3.8213910676 61.415844472 83.686323666 3.7142039523 
61.197294589 83.852369902 3.593240452 60.991390882 84.023666028 3.4582411217 60.799490901 84.199506983 3.3091840512 
60.623014573 84.379077802 3.1461736068 60.462609916 84.561346733 2.9700787087 60.31915937 84.745338269 2.781580859 
60.192663698 84.930038706 2.5819597864 60.083110025 85.114543992 2.3723768174 
VERTICES 249 248
OFFSETS vtktypeint64
0 1 2 3 4 5 6 7 8 
9 10 11 12 13 14 15 16 17 
18 19 20 21 22 23 24 25 26 
27 28 29 30 31 32 33 34 35 
36 37 38 39 40 41 42 43 44 
45 46 47 48 49 50 51 52 53 
54 55 56 57 58 59 60 61 62 
63 64 65 66 67 68 69 70 71 
72 73 74 75 76 77 78 79 80 
81 82 83 84 85 86 87 88 89 
90 91 92 93 94 95 96 97 98 
99 100 101 102 103 104 105 106 107 
108 109 110 111 112 113 114 115 116 
117 118 119 120 121 122 123 124 125 
126 127 128 129 130 131 132 133 134 
135 136 137 138 139 140 141 142 143 
144 145 146 147 148 149 150 151 152 
153 154 155 156 157 158 159 160 161 
162 163 164 165 166 167 168 169 170 
171 172 173 174 175 176 177 178 179 
180 181 182 183 184 185 186 187 188 
189 190 191 192 193 194 195 196 197 
198 199 200 201 202 203 204 205 206 
207 208 209 210 211 212 213 214 215 
216 217 218 219 220 221 222 223 224 
225 226 227 228 229 230 231 232 233 
234 235 236 237 238 239 240 241 242 
243 244 245 246 247 248 
CONNECTIVITY vtktypeint64
0 1 2 3 4 5 6 7 8 
9 10 11 12 13 14 15 16 17 
18 19 20 21 22 23 24 25 26 
27 28 29 30 31 32 33 34 35 
36 37 38 39 40 41 42 43 44 
45 46 47 48 49 50 51 52 53 
54 55 56 57 58 59 60 61 62 
63 64 65 66 67 68 69 70 71 
72 73 74 75 76 77 78 79 80 
81 82 83 84 85 86 87 88 89 
90 91 92 93 94 95 96 97 98 
99 100 101 102 103 104 105 106 107 
108 109 110 111 112 113 114 115 116 
117 118 119 120 121 122 123 124 125 
126 127 128 129 130 131 132 133 134 
135 136 137 138 139 140 141 142 143 
144 145 146 147 148 149 150 151 152 
153 154 155 156 157 158 159 160 161 
162 163 164 165 166 167 168 169 170 
171 172 173 174 175 176 177 178 179 
180 181 182 183 184 185 186 187 188 
189 190 191 192 193 194 195 196 197 
198 199 200 201 202 203 204 205 206 
207 208 209 210 211 212 213 214 215 
216 217 218 219 220 221 222 223 224 
225 226 227 228 229 230 231 232 233 
234 235 236 237 238 239 240 241 242 
243 244 245 246 247 
LINES 2 248
OFFSETS vtktypeint64
0 248 
CONNECTIVITY vtktypeint64
0 1 2 3 4 5 6 7 8 
9 10 11 12 13 14 15 16 17 
18 19 20 21 22 23 24 25 26 
27 28 29 30 31 32 33 34 35 
36 37 38 39 40 41 42 43 44 
45 46 47 48 49 50 51 52 53 
54 55 56 57 58 59 60 61 62 
63 64 65 66 67 68 69 70 71 
72 73 74 75 76 77 78 79 80 
81 82 83 84 85 86 87 88 89 
90 91 92 93 94 95 96 97 98 
99 100 101 102 103 104 105 106 107 
108 109 110 111 112 113 114 115 116 
117 118 119 120 121 122 123 124 125 
126 127 128 129 130 131 132 133 134 
135 136 137 138 139 140 141 142 143 
144 145 146 147 148 149 150 151 152 
153 154 155 156 157 158 159 160 161 
162 163 164 165 166 167 168 169 170 
171 172 173 174 175 176 177 178 179 
180 181 182 183 184 185 186 187 188 
189 190 191 192 193 194 195 196 197 
198 199 200 201 202 203 204 205 206 
207 208 209 210 211 212 213 214 215 
216 217 218 219 220 221 222 223 224 
225 226 227 228 229 230 231 232 233 
234 235 236 237 238 239 240 241 242 
243 244 245 246 247 
POINT_DATA 248
SCALARS Curvature double
LOOKUP_TABLE default
0.27177708413 0.28652044694 0.29998040062 0.31114987018 0.31896988061 0.32245580901 0.32106782441 0.31468045376 0.30382442076 
0.28936563926 0.27236273395 0.25383849333 0.23465527497 0.21548632027 0.19682384243 0.17904903983 0.16247865551 0.14746572822 
0.13442549911 0.12392887475 0.11651324027 0.11260581334 0.11236229669 0.11536203149 0.12082584246 0.12776440342 0.13517368924 
0.14217358236 0.14808701113 0.15240354908 0.15482997216 0.15524215896 0.15375476553 0.15067693474 0.1464119121 0.14140512586 
0.13610461247 0.13092776033 0.1262238538 0.12226478876 0.11922425458 0.11719920191 0.11620293182 0.11621570379 0.11718330983 
0.1189879923 0.12152089435 0.12461927547 0.12812255928 0.13183893314 0.1355545274 0.13904734666 0.14209072428 0.14452066271 
0.1462451765 0.14726599867 0.14772041406 0.14784572979 0.1480189371 0.14870271522 0.15044546106 0.15375989906 0.15902959173 
0.1665100285 0.17615332883 0.18772053104 0.20077823832 0.21467498397 0.22867419385 0.24198199517 0.25374124959 0.26312072881 
0.26943829663 0.27236795152 0.27188184565 0.26830375258 0.26221834456 0.25437102031 0.24552402877 0.23640385094 0.22762778804 
0.21969823403 0.21300288049 0.20776244116 0.20410392423 0.20200094782 0.20139598914 0.20206954192 0.20374435974 0.20602662654 
0.20845070462 0.21048082871 0.21154934806 0.21108374158 0.2086067849 0.20383003405 0.19662986073 0.18706918353 0.17543456692 
0.16220246295 0.14799658909 0.13360295043 0.11991598502 0.10795010404 0.098879161677 0.093788979673 0.093515026544 0.0981119829 
0.10697896951 0.11918542447 0.13385896608 0.15027358503 0.1678180138 0.18602758117 0.2044975453 0.22282248867 0.24058215116 
0.25730453443 0.2725090103 0.28565557159 0.2962521838 0.303837524 0.30813287488 0.30901114809 0.30645960904 0.30057920519 
0.29164519526 0.28002444108 0.26618016425 0.25061405757 0.23378718008 0.21611489019 0.19793966559 0.17955596434 0.16117818649 
0.14299466 0.12514082682 0.10771825911 0.090810583977 0.074522368552 0.058989922775 0.044492547723 0.031615891422 0.022032754224 
0.019109729334 0.023799889249 0.031637176149 0.039673306282 0.046723711666 0.052261086894 0.056050826742 0.057979044496 0.058060025692 
0.056397247316 0.053324834793 0.04941840087 0.045501662448 0.042588810675 0.041705514891 0.043347388883 0.047215219028 0.052476534309 
0.058205843991 0.063699095641 0.068477966159 0.072294367834 0.075074346201 0.076908703143 0.078031943663 0.078812841764 0.079669965561 
0.080996541439 0.083069665974 0.086008726668 0.089716248292 0.09395498042 0.098392565841 0.10266877558 0.10648224588 0.10957059596 
0.11174394367 0.11286686661 0.11291622445 0.11197008028 0.11015733582 0.10764845404 0.10465306522 0.10137471139 0.098002927854 
0.094695807758 0.091568428968 0.088701258435 0.086118382707 0.083806459921 0.081710697841 0.079770038357 0.077915745723 0.076095199406 
0.074274116619 0.072441325804 0.070610069 0.068808470081 0.067080559182 0.065467314892 0.06400257419 0.062707593973 0.061571005685 
0.060574264224 0.059660856222 0.058765497013 0.057789387071 0.056626649921 0.055164867349 0.053283584529 0.050888042137 0.047892416102 
0.044221667541 0.03984601086 0.034764449555 0.029036068007 0.022811118246 0.016455340151 0.011305502614 0.011170771482 0.017244936214 
0.026056887655 0.036079698372 0.046880059852 0.058279034792 0.070207789955 0.082628683799 0.095518908557 0.10887218858 0.12266105322 
0.13684078873 0.15132156595 0.16594796656 0.18047995191 0.19459093678 0.20784944781 0.21975645417 0.22979883711 0.23750588975 
0.24248647804 0.24462666398 0.2439338979 0.2407052365 0.23533005922 
