# vtk DataFile Version 5.1
vtk output
ASCII
DATASET POLYDATA
POINTS 238 double
76.922437656 73.817305472 35.258005397 77.104026255 73.800156365 35.019879055 77.285429714 73.765287489 34.783558265 
77.465719652 73.712172597 34.549796822 77.643887237 73.640598477 34.319359241 77.81891145 73.55073821 34.09295519 
77.989763046 73.442915104 33.87125194 78.15546419 73.317746398 33.654811324 78.315131682 73.176102801 33.444059 
78.467993807 73.019025909 33.23927805 78.613456474 72.847767971 33.04056151 78.751061896 72.663624665 32.84785716 
78.880500047 72.467927723 32.660962466 79.001595089 72.262002119 32.479540368 79.114285189 72.047132266 32.303139231 
79.21859874 71.824537806 32.131215081 79.314629829 71.595358863 31.963154007 79.402514419 71.360648586 31.798294304 
79.48240056 71.121368134 31.63594879 79.55439179 70.878379863 31.475425202 79.618688282 70.632517598 31.31601418 
79.675403702 70.384510177 31.157048028 79.724611148 70.135022652 30.997895146 79.766272251 69.884662865 30.837959301 
79.800391934 69.634006673 30.6767079 79.82689619 69.383581223 30.51367759 79.845625343 69.133881791 30.348470115 
79.856293801 68.885395856 30.180736418 79.85865105 68.638587872 30.010228671 79.852380702 68.393917084 29.836768314 
79.837096673 68.151856422 29.660235269 79.812381378 67.912899655 29.480570845 79.777739718 67.677599688 29.297750112 
79.732820012 67.446503936 29.111833883 79.677256492 67.220226432 28.922895918 79.610754125 66.99943389 28.731028218 
79.533128948 66.784838844 28.536329808 79.444341741 66.577187575 28.338892938 79.344526414 66.37724009 28.138790096 
79.234009991 66.185744538 27.936061469 79.113319783 66.003408418 27.7307052 78.983170932 65.830879749 27.522667701 
78.844448817 65.668732217 27.311838123 78.698230413 65.517383072 27.098066365 78.545686188 65.377162695 26.88114833 
78.388070415 65.248293073 26.660841312 78.226689252 65.130900489 26.436874846 78.062874315 65.025034111 26.208963132 
77.89796463 64.930753914 25.976792334 77.733314246 64.848019551 25.740082104 77.570250009 64.776735561 25.498598911 
77.410080042 64.71686966 25.252129813 77.254158479 64.668537254 25.000461439 77.103777353 64.631715263 24.7435339 
76.960222332 64.606472655 24.481359961 76.824859998 64.593051484 24.214009888 76.699064889 64.591721498 23.941705569 
76.584119674 64.602698456 23.664867684 76.481387711 64.626349996 23.384052333 76.392374582 64.663209557 23.100000625 
76.318332569 64.713599637 22.813749246 76.260544205 64.77791508 22.526555794 76.220230446 64.856522456 22.239941001 
76.198477658 64.949693872 21.955694894 76.196205418 65.05757896 21.675867584 76.214081646 65.180139324 21.402732537 
76.252380093 65.317052913 21.138675697 76.311104371 65.467810199 20.886172636 76.389904467 65.63166088 20.647688487 
76.48808467 65.807629777 20.425596502 76.604632149 65.994546409 20.222109483 76.738261344 66.191083344 20.039232422 
76.887464161 66.395795524 19.878736926 77.050558842 66.607156457 19.742157165 77.225728153 66.823585698 19.630795242 
77.411043314 67.04346889 19.545724171 77.604476765 67.265174089 19.487777641 77.803910554 67.487071675 19.457521929 
78.007149709 67.707564353 19.455207801 78.211950734 67.925133149 19.480710929 78.41607184 68.138401174 19.533474603 
78.617345414 68.346211568 19.61247155 78.813765323 68.547708338 19.716205235 79.003572724 68.742401983 19.842764887 
79.185314072 68.930200438 19.989939685 79.357794484 69.111365674 20.155452105 79.520287584 69.286629809 20.336690394 
79.672297498 69.456981691 20.531236364 79.813449161 69.62362431 20.736874261 79.943590748 69.787994596 20.951418 
80.062755984 69.95165558 21.172780258 80.170685531 70.11628378 21.39913521 80.26752362 70.283591901 21.6285205 
80.353017609 70.455397408 21.859084854 80.427000767 70.633511181 22.088834364 80.489254231 70.819682759 22.315646799 
80.539267706 71.015761482 22.537063863 80.576699841 71.223276917 22.750371959 80.601137658 71.443524367 22.95247865 
80.612218496 71.677389167 23.139898342 80.609779972 71.925121258 23.308872782 80.593984389 72.186164177 23.455586302 
80.565419951 72.459072442 23.576473067 80.525143758 72.741566555 23.66855207 80.474639555 73.030730718 23.729688078 
80.415698233 73.323294474 23.758685405 80.350269882 73.61590139 23.755231964 80.280346 73.905351351 23.719977992 
80.207775024 74.188709325 23.653959527 80.134229326 74.463300753 23.558509322 80.061180657 74.726655577 23.435094545 
79.989902613 74.976424043 23.285227064 79.921487117 75.21029414 23.110441059 79.856859507 75.425934596 22.912329398 
79.796785781 75.620983412 22.692622017 79.741865518 75.793098548 22.453285816 79.692514437 75.940079145 22.196614911 
79.648938321 76.060053234 21.925277425 79.611110708 76.151701043 21.642281832 79.578764488 76.214464166 21.350846578 
79.551409508 76.24867629 21.054185365 79.528377407 76.255571419 20.7552573 79.5088876 76.237156559 20.456546824 
79.492119427 76.195996863 20.159927697 79.477274633 76.134974412 19.86662757 79.46362254 76.057070807 19.577277415 
79.450522918 75.965124259 19.292040946 79.43742765 75.86205923 19.010622487 79.42389616 75.750483355 18.732482019 
79.409576278 75.632797555 18.456905482 79.394184968 75.511229638 18.183074455 79.377534574 75.387912017 17.910099571 
79.35949287 75.264765282 17.63713607 79.33998035 75.143587751 17.363394759 79.318983691 75.026025009 17.088192958 
79.296548631 74.913500336 16.811008315 79.272756939 74.807228143 16.531481354 79.247724562 74.708159571 16.249429913 
79.221588283 74.61694461 15.96484155 79.194489615 74.533911961 15.677848199 79.166555465 74.459101742 15.388681496 
79.137891376 74.392207773 15.097651831 79.108561217 74.332716234 14.805084057 79.07858377 74.279946726 14.511293341 
79.047930831 74.233121031 14.216564874 79.016529209 74.191431349 13.921143473 78.984264974 74.154099992 13.625231464 
78.950985619 74.120437086 13.328991263 78.916506564 74.089863847 13.032552998 78.880629357 74.061924422 12.736020603 
78.84313001 74.03634438 12.43947597 78.803767001 74.013020191 12.14298691 78.762261747 73.992045313 11.846614773 
78.718353033 73.973651218 11.550418174 78.671758211 73.958241749 11.25446246 78.622176984 73.946372378 10.95882981 
78.56927433 73.938758393 10.663634076 78.51272994 73.93619231 10.369028855 78.452223766 73.939529104 10.075221802 
78.387418546 73.949686803 9.7824925765 78.317978128 73.967593975 9.4912035076 78.243566953 73.994162366 9.2018114496 
78.163858009 74.030243167 8.9148733239 78.078589126 74.076492866 8.6310128123 77.987506587 74.133448053 8.3509328795 
77.890394568 74.201453216 8.0753829628 77.787078244 74.280642931 7.8051294548 77.677424088 74.37093991 7.5409245237 
77.561337774 74.472069071 7.2834777338 77.438760583 74.583585473 7.0334344706 77.309652243 74.704931276 6.7913812446 
77.174003264 74.835450009 6.5578264862 77.031866332 74.974389898 6.3331574957 76.883301624 75.121017866 6.1177224405 
76.728401349 75.274615613 5.9118154125 76.567293763 75.434500771 5.7156874255 76.400132078 75.600054188 5.5295820221 
76.227114531 75.770710777 5.3537197821 76.048538371 75.945924155 5.1882000117 75.864715089 76.125238626 5.0331464876 
75.676001625 76.308252426 4.8886461617 75.482785652 76.494618159 4.7547668959 75.285484655 76.684028774 4.6315415071 
75.084574669 76.876178373 4.5188372091 74.880508896 77.070802647 4.4165257104 74.673731517 77.267649084 4.3244134101 
74.464663459 77.466469061 4.2422393705 74.25367664 77.667022177 4.1697465636 74.0411231 77.869032914 4.1064599666 
73.827278232 78.072230015 4.051920576 73.612353058 78.276330061 4.0056117132 73.396491645 78.481038341 3.9669645604 
73.17976989 78.686051741 3.9353833431 72.96220319 78.89105972 3.9102182532 72.743758235 79.095755163 3.8907522317 
72.524355109 79.29984019 3.8762788715 72.303883341 79.503031215 3.8660792504 72.082215179 79.705065628 3.8594325802 
71.859212255 79.905700702 3.8556376194 71.634752431 80.10473428 3.8539953121 71.408735806 80.302005175 3.8538487109 
71.181086382 80.497388258 3.8546007078 70.951761232 80.690800027 3.8557194842 70.720752676 80.882198539 3.8567503408 
70.48808183 81.071574796 3.857322143 70.253809604 81.258967175 3.857156815 70.018027735 81.444453437 3.8560744176 
69.780844223 81.628135421 3.8539826668 69.542382824 81.810140976 3.8508702332 69.302777797 81.990619396 3.8467934126 
69.062166192 82.1697323 3.841857353 68.820691896 82.347659291 3.8362039821 68.578500387 82.524590129 3.8299894855 
68.335730382 82.700711348 3.8233592817 68.092515764 82.876206718 3.8164324657 67.848984109 83.051253085 3.8092852673 
67.605254879 83.226015855 3.8019348869 67.361442011 83.400651138 3.7943326004 67.117648493 83.575296605 3.7863538155 
66.87396876 83.750073359 3.7777967378 66.630489725 83.925085478 3.7683830873 66.38729404 84.100421508 3.7577552538 
66.14446027 84.276151551 3.7454920956 65.902065325 84.452326768 3.731123934 65.660191267 84.628982848 3.7141310574 
65.418928549 84.806138934 3.6939593829 65.178380353 84.983797622 3.6700322671 64.938671525 85.161946915 3.6417367556 
64.699940695 85.340552754 3.6084941959 64.462349525 85.519563518 3.5697331875 64.22608551 85.698908772 3.5248918627 
63.991361174 85.878497261 3.473433238 63.758413763 86.058215899 3.4148519537 63.527513395 86.237928562 3.3486483926 
63.298945861 86.417475217 3.2743952568 63.073004368 86.596675955 3.1917501325 62.850001487 86.775331722 3.1004052433 
62.630255306 86.953227817 3.0001222843 
VERTICES 239 238
OFFSETS vtktypeint64
0 1 2 3 4 5 6 7 8 
9 10 11 12 13 14 15 16 17 
18 19 20 21 22 23 24 25 26 
27 28 29 30 31 32 33 34 35 
36 37 38 39 40 41 42 43 44 
45 46 47 48 49 50 51 52 53 
54 55 56 57 58 59 60 61 62 
63 64 65 66 67 68 69 70 71 
72 73 74 75 76 77 78 79 80 
81 82 83 84 85 86 87 88 89 
90 91 92 93 94 95 96 97 98 
99 100 101 102 103 104 105 106 107 
108 109 110 111 112 113 114 115 116 
117 118 119 120 121 122 123 124 125 
126 127 128 129 130 131 132 133 134 
135 136 137 138 139 140 141 142 143 
144 145 146 147 148 149 150 151 152 
153 154 155 156 157 158 159 160 161 
162 163 164 165 166 167 168 169 170 
171 172 173 174 175 176 177 178 179 
180 181 182 183 184 185 186 187 188 
189 190 191 192 193 194 195 196 197 
198 199 200 201 202 203 204 205 206 
207 208 209 210 211 212 213 214 215 
216 217 218 219 220 221 222 223 224 
225 226 227 228 229 230 231 232 233 
234 235 236 237 238 
CONNECTIVITY vtktypeint64
0 1 2 3 4 5 6 7 8 
9 10 11 12 13 14 15 16 17 
18 19 20 21 22 23 24 25 26 
27 28 29 30 31 32 33 34 35 
36 37 38 39 40 41 42 43 44 
45 46 47 48 49 50 51 52 53 
54 55 56 57 58 59 60 61 62 
63 64 65 66 67 68 69 70 71 
72 73 74 75 76 77 78 79 80 
81 82 83 84 85 86 87 88 89 
90 91 92 93 94 95 96 97 98 
99 100 101 102 103 104 105 106 107 
108 109 110 111 112 113 114 115 116 
117 118 119 120 121 122 123 124 125 
126 127 128 129 130 131 132 133 134 
135 136 137 138 139 140 141 142 143 
144 145 146 147 148 149 150 151 152 
153 154 155 156 157 158 159 160 161 
162 163 164 165 166 167 168 169 170 
171 172 173 174 175 176 177 178 179 
180 181 182 183 184 185 186 187 188 
189 190 191 192 193 194 195 196 197 
198 199 200 201 202 203 204 205 206 
207 208 209 210 211 212 213 214 215 
216 217 218 219 220 221 222 223 224 
225 226 227 228 229 230 231 232 233 
234 235 236 237 
LINES 2 238
OFFSETS vtktypeint64
0 238 
CONNECTIVITY vtktypeint64
0 1 2 3 4 5 6 7 8 
9 10 11 12 13 14 15 16 17 
18 19 20 21 22 23 24 25 26 
27 28 29 30 31 32 33 34 35 
36 37 38 39 40 41 42 43 44 
45 46 47 48 49 50 51 52 53 
54 55 56 57 58 59 60 61 62 
63 64 65 66 67 68 69 70 71 
72 73 74 75 76 77 78 79 80 
81 82 83 84 85 86 87 88 89 
90 91 92 93 94 95 96 97 98 
99 100 101 102 103 104 105 106 107 
108 109 110 111 112 113 114 115 116 
117 118 119 120 121 122 123 124 125 
126 127 128 129 130 131 132 133 134 
135 136 137 138 139 140 141 142 143 
144 145 146 147 148 149 150 151 152 
153 154 155 156 157 158 159 160 161 
162 163 164 165 166 167 168 169 170 
171 172 173 174 175 176 177 178 179 
180 181 182 183 184 185 186 187 188 
189 190 191 192 193 194 195 196 197 
198 199 200 201 202 203 204 205 206 
207 208 209 210 211 212 213 214 215 
216 217 218 219 220 221 222 223 224 
225 226 227 228 229 230 231 232 233 
234 235 236 237 
POINT_DATA 238
SCALARS Curvature double
LOOKUP_TABLE default
0.21087817296 0.21496282871 0.21769749441 0.21886895988 0.21832762231 0.21601625043 0.21193997291 0.20618865812 0.19891845111 
0.190335162 0.18069024337 0.17024670987 0.15929355726 0.14811477958 0.13700947323 0.12626710865 0.11619027107 0.1070737996 
0.099209413912 0.092870637448 0.088246376019 0.085439708109 0.084425050171 0.085073063917 0.087139787785 0.090360068662 0.094485239039 
0.099309908491 0.10466571917 0.11041790742 0.11644980323 0.12263218242 0.12881856869 0.13482400306 0.14043981527 0.14543128705 
0.14956627199 0.15263925338 0.15450040796 0.15509775245 0.15447229185 0.15278340368 0.15027734925 0.14729872902 0.14422477822 
0.14145386658 0.13935627757 0.13825726428 0.13841360822 0.13999024257 0.14305849913 0.14761784158 0.15362962289 0.16099259154 
0.16959500115 0.17931873381 0.1900242484 0.20156028465 0.21375459225 0.22641553997 0.23929366401 0.25210711478 0.26453098014 
0.27620667988 0.2867798503 0.29591385468 0.30338395063 0.30905391656 0.31297451625 0.31531326491 0.3163943957 0.3165859131 
0.31633114629 0.31597726676 0.31571776036 0.31551849339 0.31513316646 0.31407698664 0.31171514704 0.3073470876 0.30030144767 
0.29009386522 0.2766063701 0.26008474415 0.24115065124 0.22065642193 0.19965783955 0.17928556478 0.1608244937 0.14575614477 
0.13567148541 0.13225285218 0.13628922556 0.14770602282 0.16545699585 0.1881610252 0.21452561708 0.24319262213 0.27270726865 
0.30139193928 0.32728705937 0.34842252326 0.36317609044 0.37092257438 0.37204380877 0.36783289894 0.36013087827 0.35101872712 
0.34230091562 0.33539976801 0.33118199169 0.3300222756 0.33175607327 0.33573894685 0.34084371954 0.34560493324 0.3482763182 
0.34715728989 0.34079756714 0.3283974447 0.30989685885 0.28611342433 0.25831113198 0.22792666868 0.19624001936 0.16435089672 
0.13306373404 0.10295625529 0.074505229712 0.048349396316 0.026744901186 0.020205919373 0.033470850355 0.050440954119 0.065871470381 
0.078542212548 0.087917773682 0.093740520142 0.096008742802 0.094942114229 0.090986191903 0.084753468562 0.076951615994 0.068301767823 
0.059502288031 0.051189680316 0.043919755908 0.038179488084 0.034330474731 0.032569593008 0.032878581922 0.035122019567 0.039122055661 
0.044732495874 0.051814751532 0.060228832637 0.069778117264 0.080203544476 0.091204642031 0.10244360735 0.11354800831 0.1241139885 
0.13375397967 0.14212032076 0.14894701642 0.15406758645 0.15743985138 0.15914789643 0.15939071619 0.1584600698 0.1566784197 
0.15437476768 0.15183029498 0.14925916906 0.14679328841 0.14448271252 0.14231459095 0.140221145 0.13811010178 0.13588006231 
0.13343324595 0.13068745846 0.12757138746 0.1240444726 0.12007401594 0.11563170366 0.11069399108 0.1052531709 0.099326562144 
0.092944330394 0.086157372047 0.079043365702 0.071708252725 0.064296425803 0.056988627896 0.050011466427 0.043635130879 0.038165683412 
0.033909060551 0.031055502827 0.029566647203 0.029129005142 0.029271371146 0.029514433929 0.029495441863 0.028979031216 0.027863957315 
0.026138621253 0.023872617326 0.021183396122 0.018223207524 0.015155566811 0.012131803359 0.0092770821695 0.0066832419943 0.0044896859965 
0.0032577535679 0.004125788368 0.006673436263 0.010138260277 0.014310833905 0.019121009363 0.024495776953 0.030338586154 0.0365445863 
0.042999669901 0.049596149386 0.056236310755 0.062836530109 0.069336031191 0.075684237063 0.081847683214 0.087792372456 0.09348383506 
0.098881626416 0.10393749072 0.10859907203 0.11281108275 
