# vtk DataFile Version 5.1
vtk output
ASCII
DATASET POLYDATA
POINTS 239 double
109.45569879 76.421066358 31.348039497 109.15620757 76.437290908 31.344836479 108.85634706 76.434512824 31.338429151 
108.55742026 76.412006509 31.328468212 108.26087458 76.369229554 31.314601214 107.96826539 76.305906139 31.296489795 
107.68119966 76.222023925 31.273815491 107.40139229 76.117599695 31.246223 107.1305769 75.992954405 31.213375908 
106.87038203 75.848804969 31.174988594 106.62239749 75.686014453 31.130760884 106.38807207 75.505709439 31.080410921 
106.16865412 75.30926111 31.023680048 105.9651366 75.098250493 30.960341983 105.77821285 74.874418147 30.890214566 
105.6082498 74.639599595 30.813173925 105.45528269 74.395652889 30.729168339 105.3190356 74.144383719 30.638229758 
105.19896322 73.887478002 30.540481915 105.09430743 73.626448783 30.436143178 105.00416003 73.362600599 30.325525652 
104.9275254 73.097011688 30.209029658 104.86337721 72.830531459 30.087136097 104.81070531 72.563791297 29.960395058 
104.76862969 72.297227234 29.829385693 104.73621428 72.031095982 29.694794225 104.71265945 71.765498989 29.55733064 
104.69730842 71.500414974 29.417726969 104.6897164 71.235729657 29.276733107 104.68940752 70.971250945 29.13514808 
104.69612563 70.706754709 28.993754124 104.70978134 70.442006916 28.853333574 104.73045147 70.176789279 28.714669517 
104.75824694 69.910942136 28.578481445 104.79346413 69.644380863 28.445445774 104.83650601 69.377123534 28.316163626 
104.88787673 69.10931082 28.191144989 104.94813356 68.841224516 28.070770859 105.01779218 68.573290278 27.955234839 
105.09738684 68.30606874 27.844574042 105.18739536 68.040243474 27.738635424 105.28820748 67.776598408 27.637071348 
105.40010106 67.515990258 27.539346553 105.52322745 67.259320136 27.444755106 105.65767838 67.007545329 27.352454896 
105.80329381 66.761573769 27.261460769 105.95983555 66.522311839 27.170723641 106.12696907 66.290654118 27.079151446 
106.30429305 66.067508044 26.985629102 106.49136208 65.85383852 26.889019491 106.6874951 65.650460732 26.788272981 
106.89203172 65.45829009 26.682371613 107.10432603 65.27845134 26.570268207 107.3234649 65.111840668 26.451133137 
107.54852342 64.95950454 26.324189311 107.77852592 64.82276548 26.188649452 108.01226647 64.702730427 26.044007683 
108.24843506 64.600620857 25.889869583 108.48556607 64.517817627 25.725946062 108.72197583 64.455768801 25.55212663 
108.95579176 64.415634894 25.36864826 109.18493183 64.398668287 25.175916363 109.40709993 64.405983846 24.974617827 
109.61980815 64.438480414 24.765745948 109.82042206 64.496753941 24.550614887 110.00623175 64.581011925 24.330858119 
110.17454886 64.690996159 24.108405699 110.32282489 64.825927472 23.885436531 110.44878279 64.98448146 23.664304395 
110.55054685 65.164806991 23.447440835 110.62675511 65.364590195 23.237242554 110.67663328 65.581163737 23.035956657 
110.70002185 65.811646805 22.845578783 110.69735426 66.053098072 22.66777693 110.66959066 66.302662776 22.503849321 
110.61811498 66.557697671 22.354721223 110.5446164 66.815859849 22.220975098 110.4509702 67.075155448 22.102905662 
110.33913538 67.333951633 22.00058688 110.21104402 67.590954377 21.913974806 110.06852944 67.845155447 21.843018275 
109.91357904 68.095872923 21.78737012 109.74795652 68.342641636 21.746813434 109.57326411 68.585142139 21.721317555 
109.39121511 68.823298622 21.710612941 109.20341236 69.057162429 21.714521706 109.01137941 69.286856299 21.733063527 
108.81669805 69.51266226 21.766091788 108.62093258 69.734965895 21.813397005 108.42563441 69.954219006 21.87479332 
108.23239648 70.170945634 21.950106455 108.04275136 70.385805431 22.038722492 107.85819649 70.599501166 22.139998895 
107.68015747 70.812804124 22.253085329 107.51001895 71.026550036 22.376983984 107.3489541 71.241613619 22.510365319 
107.19798204 71.458875662 22.651748198 107.05799113 71.679210847 22.799531027 106.92979781 71.903489504 22.952011948 
106.81403389 72.132513472 23.107350405 106.71113984 72.366961839 23.263645581 106.6215481 72.607430429 23.418980674 
106.54582365 72.854475111 23.571339682 106.4841648 73.10833357 23.718744299 106.43691786 73.369134861 23.859177955 
106.40453538 73.636846012 23.990519552 106.38740781 73.911150076 24.110630271 106.3858501 74.191417429 24.217417498 
106.40028723 74.476746773 24.308678705 106.43113675 74.765868866 24.38217089 106.4787673 75.057090938 24.435642637 
106.5434335 75.348247211 24.466893651 106.62518529 75.636671001 24.473873414 106.72375501 75.919213254 24.454821824 
106.83843731 76.192336065 24.408447393 106.96798942 76.452304217 24.334115423 107.11058891 76.695473482 24.232000623 
107.2639202 76.918523064 24.103022602 107.42518183 77.119043212 23.949118036 107.59141847 77.29567258 23.772838556 
107.75976503 77.448017345 23.576959703 107.92758706 77.576626638 23.364296543 108.09258737 77.682796033 23.137482552 
108.25284043 77.768329948 22.898830763 108.4067704 77.835323929 22.650278275 108.55309835 77.885996353 22.393392716 
108.69067587 77.922450192 22.129349725 108.81869173 77.94701175 21.859190012 108.93642727 77.96180746 21.583689883 
109.04316804 77.968805885 21.303438106 109.13836908 77.969968411 21.01897427 109.22166032 77.967162198 20.730808488 
109.29266285 77.962088986 20.439399953 109.35106137 77.956342314 20.145218828 109.3969063 77.951354766 19.848809322 
109.43029605 77.948343641 19.550712638 109.4515258 77.948295772 19.251486791 109.46104704 77.951955326 18.951680194 
109.45960052 77.959757014 18.651803679 109.44810095 77.971847263 18.352284516 109.42757727 77.988121547 18.053443634 
109.39916474 78.008252161 17.755481443 109.36406476 78.031738209 17.4584758 109.32349352 78.057967611 17.162395546 
109.27870984 78.086242463 16.867109983 109.2309719 78.115844073 16.572416535 109.18150598 78.14608889 16.278072784 
109.13152723 78.176352837 15.983817437 109.08226289 78.206088996 15.689388196 109.03493738 78.234863273 15.394546519 
108.99077256 78.262361935 15.099094703 108.9510076 78.288391397 14.802887364 108.91695798 78.312866804 14.505838623 
108.88988655 78.335845704 14.207956565 108.87106904 78.357493459 13.909343259 108.86180029 78.378075706 13.610209097 
108.86338488 78.39795372 13.310890876 108.87712066 78.417580325 13.011871619 108.90410293 78.437484284 12.713779802 
108.94538405 78.458250686 12.417394324 109.00185854 78.480508975 12.123639152 109.07421637 78.504913117 11.833564383 
109.16290185 78.53211911 11.548314289 109.26808303 78.562761094 11.269083383 109.389639 78.59742851 10.997064977 
109.52719416 78.636655249 10.733414595 109.68008998 78.680891052 10.479176014 109.84743795 78.73049129 10.235239024 
110.02821635 78.785730311 10.002346776 110.22129942 78.846796377 9.781073917 110.42550942 78.913798187 9.571831612 
110.63966168 78.986773579 9.3748825874 110.86259876 79.065699209 9.190360861 111.09326965 79.150548246 9.0183968348 
111.33056846 79.241158522 8.8588371109 111.57352338 79.337372189 8.7115375321 111.82124316 79.439007488 8.5763024028 
112.07292996 79.545891169 8.452953968 112.32782829 79.657803625 8.3412031367 112.58524477 79.774494322 8.2406719965 
112.84457186 79.895738541 8.1510210207 113.10526759 80.021337907 8.0719520011 113.36683307 80.15106807 8.0030794189 
113.62882521 80.284696071 7.9439690157 113.89085688 80.422018877 7.8942370909 114.15258485 80.562850375 7.853524908 
114.4137064 80.707004981 7.8214624512 114.67397012 80.854268264 7.7975952969 114.93316479 81.004447133 7.781520395 
115.1911218 81.157343614 7.7728214298 115.44771089 81.312761215 7.7710878884 115.70285141 81.470484531 7.7758565953 
115.95651672 81.630280792 7.786607301 116.20872023 81.791921729 7.8028154128 116.45952026 81.955175516 7.8239179407 
116.70901696 82.119811295 7.8493123443 116.95734008 82.285611376 7.8783788899 117.20466617 82.452353896 7.9104100897 
117.45118403 82.619843912 7.9446975414 117.69709272 82.787909405 7.980512898 117.94259131 82.956404596 8.0171158644 
118.18786797 83.125213441 8.0537617213 118.43309203 83.294248315 8.0897098826 118.67840118 83.46345255 8.1242506705 
118.92389509 83.632800704 8.1567069207 119.16963125 83.802296175 8.18644273 119.41562294 83.971969906 8.2128592822 
119.66183707 84.141878127 8.2354059613 119.90819477 84.312096042 8.2536234189 120.1545788 84.482716424 8.2670904933 
120.40083771 84.653843046 8.2754415156 120.64679216 84.825584913 8.2783596312 120.8922385 84.998053094 8.2755460676 
121.13696925 85.17133776 8.2668303279 121.38077257 85.345515399 8.2520484128 121.62344295 85.520637418 8.2310798568 
121.86478946 85.696724239 8.2038456373 122.10463288 85.873766317 8.1702652142 122.34283941 86.051704107 8.1303653671 
122.57930659 86.230441336 8.0841874579 122.81396604 86.409845045 8.0317901106 123.04678655 86.589746975 7.9732544812 
123.27776217 86.769948791 7.9086456743 123.50693184 86.950223556 7.8380837612 123.73436063 87.130328843 7.7616969436 
123.96012356 87.31001258 7.6795891052 124.18430328 87.489018235 7.591853695 124.40697311 87.667082789 7.4985351513 
124.62821325 87.843955491 7.3997125314 124.84808825 88.019394626 7.2954386898 125.06664123 88.193162842 7.1857294956 
125.28389638 88.365028296 7.0705798818 125.49985268 88.534751523 6.9499405614 125.71449923 88.702105441 6.8237811098 
125.9278113 88.866866067 6.6920682468 126.13974634 89.028796731 6.5547432774 126.35025017 89.187652626 6.4117435057 
126.55925803 89.343179216 6.2630051676 126.76669519 89.495111165 6.1084659503 
VERTICES 240 239
OFFSETS vtktypeint64
0 1 2 3 4 5 6 7 8 
9 10 11 12 13 14 15 16 17 
18 19 20 21 22 23 24 25 26 
27 28 29 30 31 32 33 34 35 
36 37 38 39 40 41 42 43 44 
45 46 47 48 49 50 51 52 53 
54 55 56 57 58 59 60 61 62 
63 64 65 66 67 68 69 70 71 
72 73 74 75 76 77 78 79 80 
81 82 83 84 85 86 87 88 89 
90 91 92 93 94 95 96 97 98 
99 100 101 102 103 104 105 106 107 
108 109 110 111 112 113 114 115 116 
117 118 119 120 121 122 123 124 125 
126 127 128 129 130 131 132 133 134 
135 136 137 138 139 140 141 142 143 
144 145 146 147 148 149 150 151 152 
153 154 155 156 157 158 159 160 161 
162 163 164 165 166 167 168 169 170 
171 172 173 174 175 176 177 178 179 
180 181 182 183 184 185 186 187 188 
189 190 191 192 193 194 195 196 197 
198 199 200 201 202 203 204 205 206 
207 208 209 210 211 212 213 214 215 
216 217 218 219 220 221 222 223 224 
225 226 227 228 229 230 231 232 233 
234 235 236 237 238 239 
CONNECTIVITY vtktypeint64
0 1 2 3 4 5 6 7 8 
9 10 11 12 13 14 15 16 17 
18 19 20 21 22 23 24 25 26 
27 28 29 30 31 32 33 34 35 
36 37 38 39 40 41 42 43 44 
45 46 47 48 49 50 51 52 53 
54 55 56 57 58 59 60 61 62 
63 64 65 66 67 68 69 70 71 
72 73 74 75 76 77 78 79 80 
81 82 83 84 85 86 87 88 89 
90 91 92 93 94 95 96 97 98 
99 100 101 102 103 104 105 106 107 
108 109 110 111 112 113 114 115 116 
117 118 119 120 121 122 123 124 125 
126 127 128 129 130 131 132 133 134 
135 136 137 138 139 140 141 142 143 
144 145 146 147 148 149 150 151 152 
153 154 155 156 157 158 159 160 161 
162 163 164 165 166 167 168 169 170 
171 172 173 174 175 176 177 178 179 
180 181 182 183 184 185 186 187 188 
189 190 191 192 193 194 195 196 197 
198 199 200 201 202 203 204 205 206 
207 208 209 210 211 212 213 214 215 
216 217 218 219 220 221 222 223 224 
225 226 227 228 229 230 231 232 233 
234 235 236 237 238 
LINES 2 239
OFFSETS vtktypeint64
0 239 
CONNECTIVITY vtktypeint64
0 1 2 3 4 5 6 7 8 
9 10 11 12 13 14 15 16 17 
18 19 20 21 22 23 24 25 26 
27 28 29 30 31 32 33 34 35 
36 37 38 39 40 41 42 43 44 
45 46 47 48 49 50 51 52 53 
54 55 56 57 58 59 60 61 62 
63 64 65 66 67 68 69 70 71 
72 73 74 75 76 77 78 79 80 
81 82 83 84 85 86 87 88 89 
90 91 92 93 94 95 96 97 98 
99 100 101 102 103 104 105 106 107 
108 109 110 111 112 113 114 115 116 
117 118 119 120 121 122 123 124 125 
126 127 128 129 130 131 132 133 134 
135 136 137 138 139 140 141 142 143 
144 145 146 147 148 149 150 151 152 
153 154 155 156 157 158 159 160 161 
162 163 164 165 166 167 168 169 170 
171 172 173 174 175 176 177 178 179 
180 181 182 183 184 185 186 187 188 
189 190 191 192 193 194 195 196 197 
198 199 200 201 202 203 204 205 206 
207 208 209 210 211 212 213 214 215 
216 217 218 219 220 221 222 223 224 
225 226 227 228 229 230 231 232 233 
234 235 236 237 238 
POINT_DATA 239
SCALARS Curvature double
LOOKUP_TABLE default
0.22374597337 0.22999808348 0.23582433909 0.24114584144 0.24588904265 0.24999091003 0.2533758892 0.25594915249 0.25757620516 
0.25809670432 0.2573078894 0.25499432142 0.25099501998 0.24521299049 0.23765944141 0.22842735326 0.21775151111 0.20591912805 
0.19325698825 0.1800676371 0.16663987571 0.15322511472 0.14005217495 0.12734688138 0.11535654685 0.10436710952 0.094734515213 
0.086897723875 0.081349249911 0.078442366533 0.078307504409 0.080738716687 0.085253814275 0.091189322644 0.097925409182 0.10491375311 
0.11171584797 0.11799846673 0.12353662706 0.12821693793 0.13202172171 0.13504515933 0.13746120714 0.13952660337 0.14153211149 
0.1437896694 0.14657903067 0.15014353411 0.15466302572 0.16024373013 0.16691397269 0.17467703254 0.18351899944 0.19338051983 
0.20419521228 0.21589989461 0.22839520348 0.24157463039 0.25531967331 0.26946841277 0.28382061454 0.29811508374 0.31206756592 
0.32530934957 0.33744669603 0.34800692337 0.35652295247 0.36249808988 0.36552815498 0.36528756654 0.3616929846 0.35483535228 
0.3449902318 0.33256453462 0.31816061004 0.30240803325 0.28597856174 0.26945843863 0.25336016564 0.23808469762 0.22394604736 
0.21115185143 0.199822807 0.19003758998 0.18176208123 0.17491037789 0.16934470369 0.16485038397 0.16118679751 0.15810130203 
0.15537938751 0.15286185979 0.15050112925 0.14839254651 0.14674710498 0.14587826005 0.14612430824 0.14780755901 0.1511803219 
0.15639175852 0.16345269523 0.17229376196 0.18280481992 0.19482557145 0.20822406582 0.22292853763 0.2388969088 0.25608462885 
0.27441928836 0.29374127503 0.31373424815 0.33380311933 0.35301254904 0.37001665938 0.38317373714 0.39076704658 0.39144547279 
0.38456433594 0.3705895983 0.35077110188 0.32678324804 0.30049764191 0.27367817388 0.24772400587 0.22367854125 0.20227665024 
0.18408502895 0.1694063339 0.15836177184 0.15083981001 0.14641459224 0.14434572202 0.14373041181 0.14355169548 0.14285179115 
0.1408121094 0.1368404279 0.13057594512 0.12194011068 0.11109022202 0.098359960587 0.084204543734 0.069093334487 0.053482732162 
0.037804217637 0.022550051927 0.0094290165624 0.011643037613 0.024788662811 0.038638338466 0.052457514289 0.06622158455 0.079991458186 
0.093805921716 0.10766508074 0.12149660317 0.13516681383 0.14846995133 0.16114012088 0.17287336657 0.18332868716 0.19219311615 
0.19917846335 0.20410501822 0.20688454918 0.20759822663 0.20643339771 0.20364415863 0.19951199532 0.19437210135 0.18855070228 
0.1823215022 0.17589921993 0.16943572689 0.16303116506 0.15674096917 0.15059316758 0.14460181123 0.13877715975 0.13312530392 
0.12765602928 0.1223761685 0.11728216658 0.11236236762 0.1075820976 0.10289966368 0.098244074671 0.093540249844 0.088695808087 
0.083621102756 0.078227481403 0.07243711375 0.066193822071 0.059457167508 0.05222592482 0.044525763237 0.036420767744 0.028014300641 
0.019457771064 0.011046185251 0.0044749920041 0.008209396258 0.015821302502 0.023386328559 0.030508650933 0.037072847452 0.043026065739 
0.048364692131 0.053107302132 0.057291351402 0.060952533461 0.064121549017 0.066815623123 0.069048902593 0.070821185001 0.072119718791 
0.07292980306 0.073248374229 0.073092974917 0.072511080653 0.071573405289 0.070379698913 0.069048806564 0.067709733711 0.06648876201 
0.065493879701 0.064810163782 0.064493655626 0.064565962107 0.065023252019 0.06583939466 0.066979017993 0.068397224536 0.070049343349 
0.071893766381 0.073896256997 0.076034274159 0.07829003516 0.080653213298 
