# vtk DataFile Version 5.1
vtk output
ASCII
DATASET POLYDATA
POINTS 263 double
78.838345689 68.868522947 32.155679678 79.081545984 68.904567652 31.983935386 79.32260879 68.915705885 31.805891709 
79.559422465 68.900635667 31.622526977 79.789697463 68.858579077 31.435085554 80.011070846 68.789326832 31.245015843 
80.221602188 68.694044935 31.053891769 80.419318061 68.573692091 30.863212068 80.603104274 68.430591809 30.674312139 
80.771897487 68.266677426 30.488337675 80.925270747 68.084375351 30.306149695 81.062966138 67.885879751 30.128397237 
81.184942826 67.673281741 29.95552627 81.291323539 67.44852293 29.787801269 81.382286508 67.213352571 29.625353836 
81.457921653 66.969288501 29.468244229 81.518588346 66.717850595 29.316347361 81.564188521 66.460235086 29.169612872 
81.595029852 66.1977338 29.027773077 81.611239866 65.931489638 28.890550995 81.612707476 65.662566425 28.757667624 
81.599600599 65.392061523 28.628691101 81.572012464 65.121027012 28.50315552 81.529977023 64.850500987 28.380557739 
81.473363985 64.581555892 28.260369488 81.402388862 64.315240767 28.141967005 81.31713923 64.052625406 28.024726619 
81.217716211 63.794807339 27.908002117 81.104220273 63.542935713 27.791129124 80.976755777 63.298237683 27.673425141 
80.835683465 63.061877893 27.554225712 80.681305378 62.835127915 27.432875988 80.513998901 62.619322913 27.308739973 
80.334144742 62.415971122 27.181178804 80.142336623 62.226588853 27.049606149 79.939365918 62.052682518 26.913508702 
79.726114012 61.895917736 26.772405994 79.503514808 61.758415356 26.625778845 79.273076028 61.641692831 26.473386373 
79.036373552 61.547803241 26.314954243 78.795380411 61.47874005 26.150362821 78.552483723 61.436204072 25.979713338 
78.310446946 61.421971308 25.803249158 78.072460139 61.43735799 25.621481521 77.841946658 61.48290681 25.435204343 
77.622703814 61.55908834 25.245372091 77.418318576 61.664935422 25.053221349 77.232150793 61.798854488 24.860070274 
77.067382034 61.958810209 24.667274842 76.926437833 62.141866713 24.476150825 76.810946598 62.344639718 24.28785623 
76.722503501 62.563943532 24.103466203 76.661426782 62.796112614 23.923785695 76.628189967 63.037911584 23.749565995 
76.62255656 63.286122069 23.581379471 76.644433598 63.537813577 23.419815024 76.693074672 63.790198642 23.265318019 
76.768385189 64.040652281 23.118566037 76.86919137 64.286770434 22.980007996 76.995048662 64.526158932 22.850440678 
77.14475873 64.756693076 22.730546643 77.317111862 64.976377893 22.621150592 77.510841591 65.183300465 22.523238435 
77.72393013 65.376133054 22.437528044 77.954804565 65.553340677 22.365184091 78.200884607 65.714482571 22.306717768 
78.460008138 65.859016639 22.263023244 78.729587493 65.987315084 22.234474733 79.007187966 66.100104386 22.221384055 
79.290528516 66.198449399 22.224006427 79.577412921 66.284101882 22.242076536 79.865980146 66.358798075 22.27555325 
80.154565073 66.424642778 22.324114838 80.44175521 66.483922386 22.387249301 80.726329775 66.538924905 22.464539292 
81.007176133 66.592020926 22.555584285 81.283372963 66.645628268 22.659623604 81.554018722 66.702102667 22.776003031 
81.818137943 66.763849834 22.904103128 82.07480707 66.833162717 23.043008498 82.323056485 66.91218839 23.191676422 
82.561640365 67.003149447 23.349075865 82.789401799 67.107825354 23.513797031 83.005010798 67.22780133 23.684322668 
83.206940967 67.364447905 23.858986358 83.393871697 67.518418879 24.03590413 83.564166026 67.690272799 24.213139676 
83.71657531 67.879719718 24.388703149 83.84974314 68.086219791 24.560645842 83.962601771 68.308659336 24.727141048 
84.054392241 68.545492161 24.886587831 84.124318514 68.795037089 25.037503597 84.172290161 69.05516017 25.178836362 
84.197868548 69.323879216 25.309515897 84.201463639 69.5989325 25.428998255 84.183110002 69.878250611 25.536654005 
84.143421232 70.15973743 25.632241205 84.083048041 70.441439445 25.715605377 84.002492645 70.721498188 25.786532208 
83.902889483 70.998244924 25.845216919 83.785065422 71.270121256 25.891671587 83.649843547 71.53564541 25.925886839 
83.498444836 71.793603381 25.948123029 83.331886359 72.042826195 25.958482932 83.151100413 72.282152682 25.956961801 
82.957197425 72.510597902 25.943662514 82.751324615 72.727289241 25.918699963 82.534558053 72.931338119 25.882094424 
82.307903089 73.12173833 25.833727418 82.072544925 73.29768548 25.773634141 81.829690782 73.458401897 25.701849061 
81.580531494 73.602977851 25.618309069 81.326332862 73.730443478 25.52293898 81.068534681 73.840243599 25.415972185 
80.808566253 73.931509111 25.297463729 80.547973331 74.00362395 25.167669066 80.288336879 74.056333836 25.027073849 
80.031316986 74.089003022 24.875978759 79.778450655 74.102005747 24.715213389 79.531377652 74.09516582 24.545317235 
79.29145615 74.069209307 24.367212122 79.060087045 74.02459173 24.181641063 78.838385745 73.962279013 23.989477986 
78.627369981 73.883258824 23.791509811 78.427954366 73.788577415 23.58844733 78.240720855 73.679597414 23.380997505 
78.066519801 73.557303776 23.169647545 77.905595891 73.423228018 22.954941416 77.758530687 73.278519283 22.737215403 
77.625608993 73.124528428 22.516776661 77.506986709 72.962616528 22.293863907 77.403108652 72.793969787 22.068595879 
77.313791267 72.62001592 21.841129663 77.239181562 72.441994585 21.611517959 77.179158148 72.261194203 21.379808956 
77.133328414 72.078879334 21.146049864 77.10157194 71.896246881 20.910209798 77.083094426 71.714448562 20.672318702 
77.0773092 71.534558508 20.432335573 77.083466301 71.357585902 20.190199628 77.100515382 71.184389585 19.945862441 
77.127599241 71.015837036 19.699192522 77.163591546 70.852628761 19.450078362 77.207366163 70.695381291 19.198387431 
77.257930962 70.544785671 18.943915276 77.314127653 70.401323265 18.686519976 77.374903276 70.265493074 18.426042211 
77.439303718 70.137925419 18.162278861 77.506332812 70.019063444 17.8951269 77.575089766 69.909401567 17.624502434 
77.644746163 69.809616652 17.350310861 77.714505661 69.720192772 17.072595773 77.783646287 69.641649135 16.791457956 
77.85146557 69.574745477 16.507008925 77.917333816 69.519893644 16.21954115 77.980637327 69.47762572 15.929385293 
78.040731331 69.448595271 15.636931817 78.097077196 69.432984486 15.342715467 78.149020309 69.43128755 15.047283717 
78.195979523 69.443587543 14.751271187 78.237336683 69.469905319 14.455337785 78.272379473 69.51026808 14.160173213 
78.300546056 69.564190702 13.866441387 78.321014518 69.631513329 13.574845686 78.333228366 69.711456859 13.285987987 
78.336437047 69.803434461 13.000490094 78.329957073 69.906643029 12.718913655 78.313247079 70.020076297 12.441724401 
78.285472243 70.142958261 12.169494911 78.246285624 70.274090142 11.902571069 78.195065409 70.412518947 11.641432063 
78.131336737 70.557214241 11.386518131 78.054866477 70.707099992 11.138191888 77.965146373 70.861270362 10.897026426 
77.862193309 71.018730016 10.663392093 77.745902858 71.178629801 10.437811615 77.616220305 71.340193859 10.220885236 
77.473517266 71.502701881 10.013028511 77.317894408 71.665552362 9.814941116 77.149908727 71.828221886 9.6270678349 
76.970076369 71.990285779 9.4499431572 76.778923406 72.151397562 9.2841679985 76.577331147 72.311320063 9.1300126127 
76.365912109 72.469848448 8.9880621927 76.145638517 72.626877406 8.8584438646 75.917337167 72.782321643 8.7414132436 
75.681856281 72.936127817 8.6371350427 75.440154353 73.088296263 8.5454402972 75.192980897 73.238792104 8.4664434863 
74.941243615 73.38765035 8.3997013155 74.685684369 73.534879129 8.3449315437 74.426994956 73.68049316 8.3017546377 
74.165849215 73.824546473 8.2694928818 73.90278211 73.967062826 8.2476866746 73.638298048 74.108109207 8.2356086219 
73.372815587 74.247761565 8.2325256094 73.106668478 74.386077828 8.237880554 72.840149085 74.523169501 8.250855333 
72.573481873 74.659140326 8.2707712094 72.306848333 74.794086559 8.2970943679 72.040391392 74.928150181 8.3291086124 
71.774224781 75.061459719 8.3662806594 71.508446785 75.194147358 8.4081651673 71.243128913 75.326368511 8.4542359733 
70.978341832 75.458270222 8.5041213935 70.714151318 75.59000701 8.5574861822 70.450608145 75.721737653 8.6139768429 
70.187777139 75.853623674 8.6733505207 69.925708836 75.985828637 8.7353298139 69.664448959 76.118515078 8.7996498687 
69.40406254 76.251866339 8.866102158 69.144576297 76.386044839 8.9343854333 68.886033208 76.521235646 9.0042320771 
68.628469927 76.657634982 9.0753379142 68.371895487 76.795420615 9.1473402976 68.116333962 76.934809857 9.219856475 
67.86178818 77.076008227 9.2924446506 67.608249995 77.219214352 9.364624064 67.355728016 77.364673118 9.4358539456 
67.104214627 77.512598367 9.5055543371 66.85370727 77.663200914 9.5731087938 66.604230757 77.816736111 9.6378129682 
66.35581762 77.973428522 9.6989353711 66.108519722 78.133474543 9.7557315842 65.862439655 78.297108381 9.8073506768 
65.617721353 78.464538532 9.8529013398 65.374539191 78.635892264 9.8915506211 65.133154787 78.811333181 9.9223099254 
64.893891347 78.990955633 9.9441969623 64.657110174 79.174736708 9.9563555394 64.423318744 79.362690089 9.9576705824 
64.193014602 79.554622885 9.9473669167 63.966814082 79.750313844 9.9245472603 63.745384539 79.949424521 9.8884309248 
63.529374658 80.151479031 9.8385056808 63.319542329 80.35595215 9.7741725987 63.116470651 80.562178709 9.695374447 
62.920887408 80.769483379 9.6018420964 62.733199415 80.977129858 9.4939876041 62.55401708 81.184396467 9.3718762379 
62.383510819 81.390610757 9.2363000147 62.222113389 81.595115025 9.0876140872 62.069841125 81.797382725 8.9267407894 
61.926852879 81.99692641 8.7543531728 61.793208286 82.193349579 8.5712166778 61.668813113 82.386380041 8.3782184665 
61.553758404 82.57574178 8.1760078422 61.447988806 82.761270473 7.9653493512 61.35144128 82.942857171 7.7469672263 
61.26417773 83.120380895 7.5214511352 61.186297642 83.293736606 7.2893522108 61.117780438 83.462899465 7.0512837816 
61.058742636 83.627802547 6.807748335 61.009459809 83.788319602 6.5591650611 60.97006237 83.944396724 6.3060341125 
60.940763041 84.095945195 6.0488144064 60.921967994 84.242787939 5.7879100764 60.91402433 84.384768943 5.5237804043 
60.917249295 84.521736538 5.2569185121 60.932348795 84.653350921 4.9877822854 60.959637249 84.779430996 4.7169644497 
60.999931221 84.89954384 4.4450627579 61.053682542 85.013393817 4.1727966183 
VERTICES 264 263
OFFSETS vtktypeint64
0 1 2 3 4 5 6 7 8 
9 10 11 12 13 14 15 16 17 
18 19 20 21 22 23 24 25 26 
27 28 29 30 31 32 33 34 35 
36 37 38 39 40 41 42 43 44 
45 46 47 48 49 50 51 52 53 
54 55 56 57 58 59 60 61 62 
63 64 65 66 67 68 69 70 71 
72 73 74 75 76 77 78 79 80 
81 82 83 84 85 86 87 88 89 
90 91 92 93 94 95 96 97 98 
99 100 101 102 103 104 105 106 107 
108 109 110 111 112 113 114 115 116 
117 118 119 120 121 122 123 124 125 
126 127 128 129 130 131 132 133 134 
135 136 137 138 139 140 141 142 143 
144 145 146 147 148 149 150 151 152 
153 154 155 156 157 158 159 160 161 
162 163 164 165 166 167 168 169 170 
171 172 173 174 175 176 177 178 179 
180 181 182 183 184 185 186 187 188 
189 190 191 192 193 194 195 196 197 
198 199 200 201 202 203 204 205 206 
207 208 209 210 211 212 213 214 215 
216 217 218 219 220 221 222 223 224 
225 226 227 228 229 230 231 232 233 
234 235 236 237 238 239 240 241 242 
243 244 245 246 247 248 249 250 251 
252 253 254 255 256 257 258 259 260 
261 262 263 
CONNECTIVITY vtktypeint64
0 1 2 3 4 5 6 7 8 
9 10 11 12 13 14 15 16 17 
18 19 20 21 22 23 24 25 26 
27 28 29 30 31 32 33 34 35 
36 37 38 39 40 41 42 43 44 
45 46 47 48 49 50 51 52 53 
54 55 56 57 58 59 60 61 62 
63 64 65 66 67 68 69 70 71 
72 73 74 75 76 77 78 79 80 
81 82 83 84 85 86 87 88 89 
90 91 92 93 94 95 96 97 98 
99 100 101 102 103 104 105 106 107 
108 109 110 111 112 113 114 115 116 
117 118 119 120 121 122 123 124 125 
126 127 128 129 130 131 132 133 134 
135 136 137 138 139 140 141 142 143 
144 145 146 147 148 149 150 151 152 
153 154 155 156 157 158 159 160 161 
162 163 164 165 166 167 168 169 170 
171 172 173 174 175 176 177 178 179 
180 181 182 183 184 185 186 187 188 
189 190 191 192 193 194 195 196 197 
198 199 200 201 202 203 204 205 206 
207 208 209 210 211 212 213 214 215 
216 217 218 219 220 221 222 223 224 
225 226 227 228 229 230 231 232 233 
234 235 236 237 238 239 240 241 242 
243 244 245 246 247 248 249 250 251 
252 253 254 255 256 257 258 259 260 
261 262 
LINES 2 263
OFFSETS vtktypeint64
0 263 
CONNECTIVITY vtktypeint64
0 1 2 3 4 5 6 7 8 
9 10 11 12 13 14 15 16 17 
18 19 20 21 22 23 24 25 26 
27 28 29 30 31 32 33 34 35 
36 37 38 39 40 41 42 43 44 
45 46 47 48 49 50 51 52 53 
54 55 56 57 58 59 60 61 62 
63 64 65 66 67 68 69 70 71 
72 73 74 75 76 77 78 79 80 
81 82 83 84 85 86 87 88 89 
90 91 92 93 94 95 96 97 98 
99 100 101 102 103 104 105 106 107 
108 109 110 111 112 113 114 115 116 
117 118 119 120 121 122 123 124 125 
126 127 128 129 130 131 132 133 134 
135 136 137 138 139 140 141 142 143 
144 145 146 147 148 149 150 151 152 
153 154 155 156 157 158 159 160 161 
162 163 164 165 166 167 168 169 170 
171 172 173 174 175 176 177 178 179 
180 181 182 183 184 185 186 187 188 
189 190 191 192 193 194 195 196 197 
198 199 200 201 202 203 204 205 206 
207 208 209 210 211 212 213 214 215 
216 217 218 219 220 221 222 223 224 
225 226 227 228 229 230 231 232 233 
234 235 236 237 238 239 240 241 242 
243 244 245 246 247 248 249 250 251 
252 253 254 255 256 257 258 259 260 
261 262 
POINT_DATA 263
SCALARS Curvature double
LOOKUP_TABLE default
0.29963848615 0.31133376889 0.31996333052 0.32464081805 0.32479291991 0.32030893252 0.31172039246 0.29986188616 0.28589749635 
0.27091925804 0.25588508019 0.24150312606 0.22824172434 0.21633611134 0.20586452341 0.1968069049 0.18906052153 0.18254126079 
0.17712097647 0.17270094643 0.16920471881 0.1665771749 0.16481074217 0.16392859223 0.16396978183 0.16493827177 0.16686011734 
0.16975013903 0.17362788574 0.17853171947 0.18448790814 0.19153877302 0.19972955689 0.20911532556 0.21971310327 0.23151520191 
0.24451032346 0.25863675917 0.27374814194 0.28974223437 0.30634268306 0.32292243084 0.33859792148 0.35242997986 0.3634676382 
0.37090365514 0.3744126154 0.37397037608 0.36986757505 0.36277397376 0.35363255318 0.3434086276 0.33322033933 0.32393772682 
0.31618741663 0.31034097447 0.30642908731 0.30425365904 0.3033924702 0.30335638801 0.30348013177 0.30317451676 0.30185667042 
0.2988475074 0.29339648374 0.28516423509 0.27408244052 0.26045359662 0.24488747053 0.22814855507 0.21109834 0.19462989879 
0.1797310887 0.16738699661 0.15859179889 0.15423320466 0.15466876458 0.15983535877 0.16921969045 0.1818669608 0.19666574389 
0.21259032923 0.22870277314 0.24417072292 0.25838224575 0.27084095556 0.28101880997 0.28855919934 0.29336481314 0.29557605137 
0.2955115502 0.29357741055 0.29021238674 0.28578089659 0.28061065062 0.27493146828 0.26892071052 0.26277452988 0.25666610036 
0.25077137914 0.24528831128 0.24036917396 0.23608093276 0.23248516019 0.22970304354 0.22784500169 0.22698208236 0.2271611697 
0.2283821642 0.23053110838 0.23343519419 0.23686217266 0.24051692405 0.24406684157 0.24716531012 0.24947819449 0.25074044005 
0.25070704054 0.249250477 0.24627727425 0.24192526532 0.23641282632 0.23005987312 0.22323046803 0.21624214192 0.20931124742 
0.20260946918 0.19627840206 0.19040843572 0.18501126781 0.18004491647 0.17540883003 0.17092439013 0.16639527308 0.16162894074 
0.1564604304 0.1508096232 0.14469133057 0.13821302987 0.13157924676 0.12504748411 0.118920739 0.11353227465 0.10925724708 
0.10645106568 0.10529427457 0.10583976855 0.10802523428 0.11162431929 0.11635599769 0.12191025803 0.12797784085 0.13428352944 
0.14059190841 0.14669650693 0.15241530836 0.15757622675 0.16203834529 0.16567519732 0.16843225732 0.17030071625 0.17135038422 
0.17172905349 0.17156586988 0.17100564117 0.17022285869 0.1694415982 0.16885030639 0.16863472547 0.16889998564 0.16966832801 
0.1708706821 0.17237883248 0.17403780548 0.17566065964 0.17708413105 0.17816016525 0.17878979469 0.1788966513 0.17843492913 
0.17736356084 0.17566273387 0.17335944974 0.17045630399 0.166995148 0.16300200524 0.15845079477 0.15329015347 0.14748129343 
0.14105822749 0.13406413523 0.1265915999 0.11875698957 0.1106780433 0.10248105451 0.094300281949 0.086280191254 0.078550665998 
0.071230663141 0.064433047039 0.058189847258 0.052531167093 0.047480513223 0.043037140313 0.039178451961 0.035837933462 0.032944957632 
0.030433226953 0.028243864079 0.026340616273 0.024722671328 0.023412268797 0.022487214013 0.022101911179 0.022460333246 0.023782278812 
0.026210715421 0.029770632148 0.034428344594 0.040104873537 0.046714646712 0.054172769602 0.062395149077 0.071288230318 0.080768606864 
0.090742742756 0.10110671921 0.1117333449 0.12243788091 0.13301364107 0.14323918253 0.1528695605 0.16163487487 0.16924822768 
0.17545182416 0.17999441961 0.18276014773 0.18371911906 0.18299082606 0.18076459049 0.17733208325 0.17292933654 0.16782957237 
0.16232394437 0.15671949689 0.15127437345 0.14620016128 0.14166862728 0.13779725736 0.13468694973 0.13241411238 0.13102349305 
0.13054974075 0.13102180425 0.13244727712 0.13483340861 0.13820316036 0.14257253399 0.14795357318 0.15439112172 0.16188958578 
0.17048448736 0.18015939157 
