# vtk DataFile Version 5.1
vtk output
ASCII
DATASET POLYDATA
POINTS 255 double
109.56152147 84.312397495 37.151897046 109.34734371 84.286638557 36.94349052 109.12682903 84.24581633 36.744308905 
108.90104101 84.189351627 36.555108415 108.67121791 84.116803906 36.376547621 108.43875023 84.027828337 36.209193318 
108.20517692 83.922740667 36.053095994 107.97204744 83.801445432 35.908508392 107.74087446 83.664736757 35.774948461 
107.5131617 83.512966617 35.652132347 107.29021711 83.347061118 35.539246937 107.07324603 83.167822704 35.435455226 
106.86335733 82.976051356 35.339810875 106.6613447 82.772822052 35.251107589 106.46806867 82.55890122 35.168257859 
106.28405308 82.335306994 35.089985487 106.10980056 82.102907106 35.015079093 105.94576333 81.862521978 34.942332508 
105.79212389 81.615077395 34.870551067 105.64932448 81.361268079 34.798606742 105.51734936 81.102004978 34.725448473 
105.39658778 80.837960296 34.650056025 105.28700045 80.569972528 34.571572983 105.18888196 80.298740693 34.489157368 
105.10224603 80.025039108 34.402168096 105.02729058 79.749584249 34.310018013 104.9640964 79.473104259 34.212294918 
104.91276481 79.196301536 34.108710156 104.87344546 78.919862491 33.999077879 104.84613408 78.644438095 33.883408373 
104.83102907 78.37067566 33.76171414 104.82801602 78.099150047 33.634244527 104.83729525 77.830473812 33.501163575 
104.85865513 77.56514375 33.362861529 104.89222307 77.303740603 33.219594945 104.93772802 77.046718026 33.071768984 
104.99513086 76.794623952 32.91965908 105.06416803 76.547942751 32.763562174 105.14454487 76.30717318 32.603705905 
105.2360918 76.07293973 32.44018729 105.33829131 75.84572026 32.273122138 105.45087117 75.626219692 32.102448498 
105.57339743 75.415127097 31.928061783 105.70533152 75.2131325 31.749807357 105.84628782 75.021220187 31.567370567 
105.99565061 74.840301805 31.380449291 106.15275081 74.671388923 31.188701448 106.31701183 74.515970754 30.991622223 
106.48746087 74.375159058 30.7889102 106.66318032 74.250683942 30.580110408 106.84293213 74.144070571 30.364965301 
107.02529672 74.057295652 30.143219404 107.20851842 73.991964906 29.91493478 107.39052996 73.950191237 29.680258199 
107.56892409 73.93352059 29.439772629 107.74102674 73.943272384 29.194390324 107.90395004 73.98037798 28.94539085 
108.05475299 74.045131597 28.694423492 108.19063296 74.137096942 28.443428316 108.30904897 74.255189465 28.194528551 
108.40805543 74.397505474 27.949862522 108.48626266 74.561705608 27.71145143 108.54289212 74.745145239 27.481095061 
108.57775179 74.945054521 27.260303141 108.59108036 75.158744954 27.05031149 108.58338809 75.383721553 26.852148359 
108.55587597 75.617530187 26.666344149 108.50946895 75.858209733 26.49350636 108.44552861 76.103947681 26.333877281 
108.36528469 76.353268282 26.1877206 108.27018042 76.604907519 26.055060691 108.16136671 76.857871114 25.936156928 
108.04038774 77.111336279 25.830843911 107.90846205 77.364689341 25.739289476 107.76692668 77.617472989 25.661544978 
107.61719488 77.869387893 25.597537927 107.46055658 78.120251698 25.547422503 107.29835915 78.369994022 25.511348513 
107.13204637 78.618657282 25.489268318 106.9630189 78.866344868 25.48135859 106.79274937 79.113220887 25.487869752 
106.62278619 79.359511368 25.508719236 106.45474318 79.605455055 25.5441302 106.29031966 79.851308121 25.594136213 
106.13123411 80.09731589 25.658559937 105.97943239 80.343705146 25.737460787 105.83662566 80.590646568 25.830203874 
105.70493059 80.83828021 25.936538698 105.58594029 81.086655215 26.055374241 105.48167398 81.335787415 26.185876364 
105.3935043 81.585608156 26.326525522 105.32299723 81.83601908 26.475820868 105.27120118 82.08687941 26.631866354 
105.23893241 82.338038732 26.792621534 105.22685104 82.589348345 26.955903135 105.23496596 82.840669487 27.119414579 
105.26356257 83.091874247 27.280789466 105.31199177 83.342845123 27.437734829 105.38022876 83.593443796 27.587756699 
105.46721977 83.843515467 27.72867327 105.57260072 84.092818671 27.857907821 105.69513626 84.341046834 27.973331654 
105.83401176 84.587730508 28.072391877 105.98786047 84.832262451 28.152893954 106.15525692 85.073834277 28.212603981 
106.33465107 85.311363977 28.249141074 106.5239704 85.543636418 28.260858548 106.72104445 85.769189604 28.246135186 
106.923454 85.98630668 28.203518049 107.12845385 86.193378566 28.132708182 107.33326935 86.388797714 28.033825557 
107.53515266 86.571153369 27.907690013 107.73148249 86.739273025 27.755647954 107.91997243 86.892515829 27.57981709 
108.09880363 87.030773342 27.382743467 108.26652149 87.154257346 27.166950411 108.42202333 87.263522829 26.934936066 
108.56486138 87.359739366 26.689379741 108.69443537 87.443855993 26.432280894 108.81091927 87.51747354 26.165856068 
108.91404394 87.581814487 25.89162871 109.00422946 87.638576645 25.611231075 109.08154074 87.689218851 25.325854185 
109.14627634 87.735323349 25.036600549 109.19884047 87.778460583 24.744431643 109.2393262 87.820122069 24.45013052 
109.26835087 87.861815209 24.154482636 109.28622433 87.904958819 23.858158006 109.29348575 87.950884566 23.561800718 
109.29079028 88.000785419 23.26600937 109.27881064 88.05574389 22.971346112 109.25852508 88.116552595 22.678290508 
109.23090452 88.183875137 22.387263882 109.19719832 88.258009808 22.098541766 109.15869328 88.339080972 21.812292436 
109.11681754 88.426921911 21.528522618 109.07304734 88.521152593 21.247096104 109.02888763 88.62125998 20.967765908 
108.98583579 88.726524544 20.690162986 108.94539845 88.836228336 20.413888868 108.90897584 88.949496544 20.138496713 
108.87802589 89.065511938 19.863580814 108.85379954 89.183382576 19.588781549 108.83765972 89.302285617 19.313836233 
108.83068884 89.421412503 19.038605753 108.83410045 89.540018675 18.763087257 108.84878921 89.657441709 18.487435867 
108.87577256 89.773077185 18.211962206 108.91573065 89.886445116 17.937126319 108.96945073 89.997127607 17.663547818 
109.0373534 90.104863208 17.391955018 109.11998358 90.209449968 17.123231164 109.21746662 90.310858156 16.858294777 
109.3301272 90.409092404 16.598229267 109.45777425 90.504330309 16.344040291 109.60055201 90.596738065 16.096956666 
109.75794828 90.686641953 15.857962222 109.92991662 90.774314006 15.62836561 110.1157062 90.860143997 15.409075574 
110.31490272 90.944466922 15.20126961 110.52668172 91.027647479 15.005815146 110.75020264 91.110014442 14.823532117 
110.98458253 91.191861176 14.655186906 111.22864278 91.273442741 14.501064664 111.48144905 91.3549573 14.361707517 
111.74171684 91.436555153 14.236890827 112.00841324 91.518341736 14.126603823 112.28042334 91.600384935 14.030373778 
112.55675636 91.682727458 13.947649546 112.83651155 91.765395768 13.877731616 113.11888026 91.84840717 13.819723156 
113.40318835 91.931785556 13.772745851 113.68885765 92.015563683 13.735784743 113.97542201 92.099794479 13.707865536 
114.26250641 92.184553852 13.688034689 114.54981128 92.2699358 13.675312586 114.83710342 92.356070122 13.668904705 
115.12420144 92.443084014 13.667910719 115.41095364 92.531157331 13.671716279 115.69725042 92.620436435 13.679586775 
115.98298595 92.71111669 13.691037324 116.26808153 92.803356339 13.70557459 116.55245655 92.897331909 13.722851869 
116.83604372 92.993187971 13.742576436 117.1187775 93.091056507 13.764542266 117.40059778 93.191043376 13.788606726 
117.68145066 93.293225345 13.814676328 117.96128656 93.397656047 13.842698248 118.24006147 93.504365558 13.872643724 
118.5177424 93.613353619 13.904487613 118.79429484 93.724620049 13.938216712 119.06970849 93.838119658 13.973774096 
119.34395815 93.953845428 14.011108731 119.61706102 94.071724632 14.05007778 119.88900359 94.19176295 14.090542389 
120.15983153 94.313880407 14.132243232 120.42955818 94.438085541 14.174905905 120.698249 94.564317449 14.218152625 
120.96595251 94.692577165 14.261555963 121.23275145 94.822822804 14.304613418 121.49872436 94.955041783 14.34675649 
121.76396544 95.089196745 14.387363536 122.02856579 95.225253293 14.425760841 122.29261353 95.363161421 14.461241287 
122.55618305 95.50286021 14.493079235 122.81932699 95.644277533 14.520540839 123.08206708 95.787333005 14.542899564 
123.3443874 95.931935967 14.559466672 123.60622189 96.078007276 14.569546673 123.86745723 96.225458772 14.572575789 
124.12790639 96.374249394 14.567898154 124.38734264 96.524328985 14.555143829 124.64542638 96.675739367 14.533680618 
124.90180302 96.828515257 14.503305522 125.15598326 96.982798925 14.463552732 125.40743767 97.138764239 14.414197436 
125.65553501 97.296659395 14.354982369 125.89951989 97.456810648 14.285617451 126.13861353 97.619559437 14.206028057 
126.37177456 97.785376177 14.115880149 126.59804528 97.954662016 14.015242653 126.81608015 98.127965236 13.903848169 
127.02468306 98.305687987 13.781871801 127.22231927 98.488293367 13.649313116 127.40749089 98.676097952 13.506437305 
127.57876228 98.86925375 13.35370412 127.73451081 99.06782413 13.191590125 127.87351889 99.271570541 13.020917088 
127.99482711 99.480047673 12.842631561 128.09775715 99.692625777 12.65774616 128.18193579 99.908512985 12.467287625 
128.24781805 100.1267415 12.272340278 128.29608138 100.34634227 12.073796046 128.3274779 100.56634949 11.872330197 
128.34351751 100.78583602 11.668496197 128.34546573 101.00395252 11.46257087 128.33478621 101.21992534 11.254657057 
128.3129429 101.4330556 11.044687015 128.2813341 101.64268441 10.832442999 128.24129612 101.84817665 10.617589248 
128.19416895 102.04895189 10.399732652 128.14108201 102.24430303 10.178343384 128.08330127 102.43367322 9.9529689332 
128.02189017 102.61625126 9.7229979829 127.95800889 102.79135195 9.4879437385 127.89276658 102.95808602 9.2472506339 
127.82731533 103.11552318 9.0004355675 127.76284736 103.26265443 8.747094871 127.70061291 103.39832834 8.4868990803 
127.64191921 103.52135129 8.2196939066 127.58810521 103.63050616 7.9455330607 127.54060141 103.72441665 7.6646520871 
127.50066811 103.80211067 7.3777096639 127.46975025 103.86222572 7.0854883679 127.44874491 103.90440614 6.7892785432 

VERTICES 256 255
OFFSETS vtktypeint64
0 1 2 3 4 5 6 7 8 
9 10 11 12 13 14 15 16 17 
18 19 20 21 22 23 24 25 26 
27 28 29 30 31 32 33 34 35 
36 37 38 39 40 41 42 43 44 
45 46 47 48 49 50 51 52 53 
54 55 56 57 58 59 60 61 62 
63 64 65 66 67 68 69 70 71 
72 73 74 75 76 77 78 79 80 
81 82 83 84 85 86 87 88 89 
90 91 92 93 94 95 96 97 98 
99 100 101 102 103 104 105 106 107 
108 109 110 111 112 113 114 115 116 
117 118 119 120 121 122 123 124 125 
126 127 128 129 130 131 132 133 134 
135 136 137 138 139 140 141 142 143 
144 145 146 147 148 149 150 151 152 
153 154 155 156 157 158 159 160 161 
162 163 164 165 166 167 168 169 170 
171 172 173 174 175 176 177 178 179 
180 181 182 183 184 185 186 187 188 
189 190 191 192 193 194 195 196 197 
198 199 200 201 202 203 204 205 206 
207 208 209 210 211 212 213 214 215 
216 217 218 219 220 221 222 223 224 
225 226 227 228 229 230 231 232 233 
234 235 236 237 238 239 240 241 242 
243 244 245 246 247 248 249 250 251 
252 253 254 255 
CONNECTIVITY vtktypeint64
0 1 2 3 4 5 6 7 8 
9 10 11 12 13 14 15 16 17 
18 19 20 21 22 23 24 25 26 
27 28 29 30 31 32 33 34 35 
36 37 38 39 40 41 42 43 44 
45 46 47 48 49 50 51 52 53 
54 55 56 57 58 59 60 61 62 
63 64 65 66 67 68 69 70 71 
72 73 74 75 76 77 78 79 80 
81 82 83 84 85 86 87 88 89 
90 91 92 93 94 95 96 97 98 
99 100 101 102 103 104 105 106 107 
108 109 110 111 112 113 114 115 116 
117 118 119 120 121 122 123 124 125 
126 127 128 129 130 131 132 133 134 
135 136 137 138 139 140 141 142 143 
144 145 146 147 148 149 150 151 152 
153 154 155 156 157 158 159 160 161 
162 163 164 165 166 167 168 169 170 
171 172 173 174 175 176 177 178 179 
180 181 182 183 184 185 186 187 188 
189 190 191 192 193 194 195 196 197 
198 199 200 201 202 203 204 205 206 
207 208 209 210 211 212 213 214 215 
216 217 218 219 220 221 222 223 224 
225 226 227 228 229 230 231 232 233 
234 235 236 237 238 239 240 241 242 
243 244 245 246 247 248 249 250 251 
252 253 254 
LINES 2 255
OFFSETS vtktypeint64
0 255 
CONNECTIVITY vtktypeint64
0 1 2 3 4 5 6 7 8 
9 10 11 12 13 14 15 16 17 
18 19 20 21 22 23 24 25 26 
27 28 29 30 31 32 33 34 35 
36 37 38 39 40 41 42 43 44 
45 46 47 48 49 50 51 52 53 
54 55 56 57 58 59 60 61 62 
63 64 65 66 67 68 69 70 71 
72 73 74 75 76 77 78 79 80 
81 82 83 84 85 86 87 88 89 
90 91 92 93 94 95 96 97 98 
99 100 101 102 103 104 105 106 107 
108 109 110 111 112 113 114 115 116 
117 118 119 120 121 122 123 124 125 
126 127 128 129 130 131 132 133 134 
135 136 137 138 139 140 141 142 143 
144 145 146 147 148 149 150 151 152 
153 154 155 156 157 158 159 160 161 
162 163 164 165 166 167 168 169 170 
171 172 173 174 175 176 177 178 179 
180 181 182 183 184 185 186 187 188 
189 190 191 192 193 194 195 196 197 
198 199 200 201 202 203 204 205 206 
207 208 209 210 211 212 213 214 215 
216 217 218 219 220 221 222 223 224 
225 226 227 228 229 230 231 232 233 
234 235 236 237 238 239 240 241 242 
243 244 245 246 247 248 249 250 251 
252 253 254 
POINT_DATA 255
SCALARS Curvature double
LOOKUP_TABLE default
0.22306826263 0.22707567467 0.22954002733 0.23028217726 0.22920650575 0.22631805395 0.22176723525 0.21572476869 0.20849795654 
0.20038519891 0.19173156101 0.18286539757 0.17409903507 0.16573090657 0.15803229384 0.15126395887 0.14564160088 0.14133206449 
0.13838954274 0.13680945308 0.13646117973 0.13717829808 0.13868288481 0.14069078693 0.14294057841 0.14521041897 0.14731546162 
0.14912355398 0.15055528176 0.15159390175 0.15224268544 0.15252779409 0.15248494339 0.15216414208 0.15162127641 0.15091793303 
0.15013578006 0.14937981063 0.148794455 0.14857769774 0.14895599207 0.15019955902 0.15257982213 0.15638521199 0.16189665004 
0.16931799468 0.17875788818 0.19027394495 0.20378980122 0.21922044756 0.23630171417 0.25460938984 0.27351357865 0.2922614718 
0.30988662958 0.32535339621 0.33759094711 0.3458167708 0.34960083681 0.34888359875 0.34400871229 0.33558695837 0.32436407549 
0.3111952832 0.29692434788 0.28222660003 0.26761306567 0.25343830563 0.23999019956 0.22745086307 0.21584894863 0.20518079462 
0.19545587531 0.18674594025 0.17911263423 0.17261857521 0.16737348212 0.16350969584 0.16114924409 0.16038883102 0.16129227927 
0.16381124123 0.16784665724 0.17319891383 0.17956747565 0.18660968183 0.19389863491 0.20100629896 0.20759563532 0.21338437027 
0.21813750966 0.22166354008 0.22400851302 0.22543340911 0.22631659727 0.22713025352 0.22838306987 0.2306481995 0.23443060199 
0.23997189073 0.24740018972 0.2566530978 0.26755759171 0.27972122012 0.2925984975 0.30545479979 0.31747476838 0.32771724085 
0.33523577147 0.33918858175 0.33888241956 0.33392096455 0.32447101171 0.31112988315 0.29476116235 0.27627538105 0.2566640602 
0.23688836213 0.21766089955 0.19942711427 0.18259503955 0.16754319437 0.15462155274 0.1440235072 0.13577834674 0.12979436475 
0.12570367411 0.122993744 0.12095998355 0.11883638254 0.11590467038 0.11158188942 0.10555596375 0.097815962995 0.088690391482 
0.078888273995 0.06955552051 0.062370344722 0.059174144374 0.061194425283 0.068002538556 0.078174969481 0.090111085408 0.10265512708 
0.11502226583 0.1267417415 0.13756069757 0.14731048265 0.15591338688 0.16334899532 0.16969915573 0.17506902688 0.17962680189 
0.1835174899 0.18688886668 0.18982290623 0.19236500332 0.19448512564 0.19608147904 0.19694613388 0.1968491014 0.1955972278 
0.19299266148 0.18892356043 0.18328395062 0.17616819714 0.16772188705 0.15813834664 0.14760695388 0.13636900081 0.12472843069 
0.11297647276 0.10139653799 0.09024943218 0.07975578319 0.070116941699 0.061506910719 0.054049642004 0.047893881631 0.043085473485 
0.039635077647 0.037377348232 0.036093211827 0.035499433516 0.035333034297 0.035382746744 0.03549384256 0.035559608869 0.035502691459 
0.035261916547 0.034786466969 0.034034479144 0.032969715806 0.031591102907 0.0299387825 0.028137992674 0.02642043127 0.025161897694 
0.024884463056 0.026077307886 0.028990749797 0.03348337232 0.039204956538 0.04575723768 0.052787167721 0.060014501864 0.067212350317 
0.074195568244 0.080816324349 0.086990844497 0.092696009123 0.097979274635 0.10294823056 0.10778324727 0.1127162363 0.11800675605 
0.12390408498 0.13063930143 0.13837620508 0.14720885107 0.15708983121 0.16784981886 0.17912912677 0.19042038526 0.20104239277 
0.21029447578 0.21742323656 0.22169572916 0.22247918416 0.21947207635 0.21277178709 0.20285601565 0.19041394739 0.17624050704 
0.16126989557 0.1463336076 0.1321677885 0.11946989327 0.10893657343 0.10124573291 0.096898532463 0.096214576633 0.099054539446 
0.10510376104 0.11380967979 0.12468551582 0.13728558636 0.15122282105 0.16613005819 0.18159426467 0.19712528006 0.21211201969 
0.2258585202 0.23757808312 0.24663036713 
