# vtk DataFile Version 5.1
vtk output
ASCII
DATASET POLYDATA
POINTS 240 double
74.902600097 66.787156851 34.902494619 74.98996507 67.054720151 34.798923866 75.098647884 67.312183412 34.690070226 
75.227208512 67.558069995 34.576212678 75.373967776 67.791212441 34.457622789 75.53719282 68.01067807 34.334518861 
75.715032094 68.21585921 34.207090271 75.90564505 68.406412185 34.075476761 76.107339834 68.582088028 33.939734033 
76.318527192 68.742729123 33.799850633 76.537787555 68.888061359 33.655704768 76.763618202 69.018149865 33.507207463 
76.994687327 69.132882656 33.354177132 77.22971603 69.232072863 33.196381963 77.46743932 69.315416016 33.033540196 
77.706552802 69.382817388 32.865445951 77.945765189 69.433995289 32.69186165 78.183741279 69.468629215 32.512581086 
78.419064727 69.486295768 32.327425069 78.650315907 69.486874801 32.136398666 78.876029445 69.470176132 31.939571927 
79.094731001 69.436124697 31.73714876 79.304974583 69.384795587 31.529476228 79.505387125 69.316438927 31.317042385 
79.694647512 69.231402982 31.100443321 79.871710138 69.130390076 30.880421855 80.035665458 69.014170881 30.657766304 
80.185798211 68.883634281 30.433300823 80.321581822 68.73974927 30.207854299 80.442656557 68.583524931 29.982234901 
80.548704292 68.415913042 29.7572206 80.639638915 68.237954866 29.533540003 80.715446637 68.050652079 29.311859161 
80.776107246 67.85493973 29.092792283 80.821552507 67.651696263 28.8769168 80.851724765 67.4418002 28.664764448 
80.866713921 67.226185027 28.456773644 80.866491708 67.00573983 28.25335384 80.850971759 66.781366728 28.054876971 
80.820076094 66.554018305 27.861654204 80.773908756 66.324715501 27.673865015 80.712506804 66.094499712 27.491637425 
80.635973229 65.864459226 27.31499664 80.544418863 65.63573464 27.14387712 80.438207094 65.40948238 26.978022451 
80.317820119 65.186845296 26.817029547 80.183845131 64.968942584 26.660347278 80.037020295 64.756839855 26.507255237 
79.878187002 64.551557059 26.356871872 79.708369918 64.354008994 26.20813782 79.528771155 64.164956216 26.059852275 
79.340638834 63.985093778 25.910715379 79.145309429 63.815034474 25.759343494 78.944158892 63.655440247 25.604247091 
78.738770077 63.506708484 25.444000471 78.530735903 63.369318433 25.277181324 78.321745715 63.243751042 25.102431353 
78.113624989 63.130614375 24.91840885 77.908290382 63.030269089 24.724136867 77.707751522 62.943199685 24.518779325 
77.514103665 62.869870919 24.301778987 77.32955301 62.810778497 24.072843206 77.15625896 62.766244898 23.83213062 
76.996289546 62.736472482 23.580189606 76.851636853 62.721599861 23.317888948 76.724137171 62.721645008 23.046430457 
76.615452821 62.736519864 22.767301616 76.527154244 62.766104414 22.482218941 76.460341157 62.81000593 22.193173227 
76.416033704 62.86785945 21.902269422 76.395056565 62.939242032 21.611756556 76.398044497 63.023678903 21.32401689 
76.425437319 63.120640252 21.041561261 76.477513764 63.229554035 20.767047105 76.554221573 63.349722566 20.5032224 
76.655159585 63.480324938 20.252867518 76.779624353 63.620444032 20.018785658 76.926502924 63.769032049 19.803693236 
77.094249094 63.924922521 19.610110137 77.280893481 64.086861431 19.440243806 77.484093635 64.253555887 19.295887609 
77.701217816 64.423732541 19.17834897 77.929451596 64.596196558 19.088420893 78.165907749 64.769881904 19.026393099 
78.407725765 64.943887636 18.992094866 78.652151913 65.11749881 18.984955396 78.896598141 65.290193263 19.004071382 
79.138666334 65.46163375 19.048346711 79.376160435 65.631663408 19.116452395 79.607172862 65.800308321 19.20670716 
79.830032593 65.967744546 19.317419254 80.043251572 66.134288119 19.446898703 80.245581111 66.300397488 19.593311606 
80.436152817 66.466648567 19.754594798 80.614086261 66.633724477 19.928946008 80.778845945 66.802397377 20.114359402 
80.930097685 66.973494698 20.308848307 81.067398733 67.147961272 20.510561644 81.190847478 67.326670917 20.717450115 
81.300098934 67.510693202 20.927639917 81.395439228 67.700898752 21.139089101 81.476738953 67.898345462 21.349761863 
81.544228265 68.10391095 21.557518658 81.598078268 68.318453332 21.760114214 81.638372478 68.542844229 21.955034451 
81.665558516 68.77759067 22.139743238 81.67999596 69.02312151 22.311393693 81.682166913 69.27959672 22.466855267 
81.672784733 69.54674972 22.602815044 81.652836697 69.82377943 22.715907299 81.623535891 70.109332748 22.802651754 
81.586366265 70.401389089 22.859512391 81.543191536 70.697115311 22.883550707 81.496106063 70.992992455 22.872441167 
81.447343572 71.284917501 22.824679485 81.399165555 71.568318554 22.739612204 81.353625142 71.83878664 22.618600782 
81.31242636 72.09209534 22.463637413 81.276750775 72.324772095 22.277971792 81.247150304 72.534463659 22.065731122 
81.223647147 72.719726014 21.831137015 81.205777643 72.880111159 21.578386239 81.192703041 73.016034521 21.311377614 
81.18333521 73.128582022 21.033536671 81.176450544 73.21930642 20.747739416 81.170782819 73.290044564 20.45631263 
81.165087688 73.342777768 20.161084274 81.158176301 73.37949252 19.863452745 81.148906238 73.402112871 19.564476087 
81.136290244 73.412837383 19.264953602 81.119386812 73.413568929 18.965445871 81.097381643 73.406294489 18.666354233 
81.069653576 73.393027928 18.367942275 81.035576136 73.375644435 18.070398954 80.9948401 73.356120986 17.773826885 
80.947245068 73.336330048 17.478295579 80.892679523 73.318127782 17.183869595 80.831349477 73.303270757 16.890591111 
80.763593834 73.29338225 16.598521298 80.689900864 73.289929526 16.307746335 80.610893714 73.294178795 16.018381534 
80.527287922 73.307168179 15.730574718 80.439886474 73.32955496 15.444479671 80.349449513 73.361732927 15.160268539 
80.256668168 73.40379048 14.878110339 80.16211362 73.455533315 14.598157957 80.066199976 73.516524651 14.320537657 
79.969159561 73.586148572 14.045347876 79.871033839 73.663667523 13.77266333 79.771692406 73.74817396 13.502505273 
79.670835744 73.838768417 13.234892042 79.568024539 73.934545891 12.969838124 79.462685131 74.034644526 12.707385516 
79.354171793 74.138196595 12.447579251 79.241796708 74.24438984 12.190495522 79.124831271 74.35249306 11.936271843 
79.002501442 74.461849417 11.685128573 78.874117462 74.571863355 11.437318541 78.739061752 74.68203628 11.193154366 
78.596784914 74.791969817 10.953018069 78.446825276 74.901367948 10.717354863 78.288858259 75.010047405 10.486644483 
78.122775651 75.117952944 10.261335644 77.948568842 75.225145882 10.041899221 77.766369096 75.33180366 9.8287838146 
77.576418653 75.438209658 9.6224156228 77.379050846 75.544742306 9.4231973462 77.174758387 75.651846935 9.2314057346 
76.964043977 75.760011334 9.0473112983 76.747447336 75.869741066 8.8711394762 76.525522705 75.98153501 8.7030816743 
76.298801058 76.095878869 8.5433486284 76.067874453 76.213160288 8.3919901832 75.833269958 76.333707781 8.2490902917 
75.595482589 76.457760359 8.114703344 75.354958237 76.585471795 7.9888858529 75.112102183 76.716885501 7.8716529442 
74.86728004 76.851907133 7.7629177037 74.620781275 76.990363155 7.6626143304 74.372833378 77.131987453 7.5706484092 
74.123590451 77.276456458 7.4869798989 73.873171964 77.423320679 7.4113808062 73.62163012 77.572107228 7.3436801483 
73.368970634 77.722303966 7.2836891089 73.115152726 77.873374963 7.2312554616 72.860121396 78.024757899 7.1861162296 
72.603803376 78.17590135 7.1480082879 72.346116087 78.326271485 7.1166722404 72.086975373 78.475356427 7.0918526285 
71.826313004 78.622684595 7.0732551223 71.564095888 78.767860853 7.0605112485 71.300310768 78.910554486 7.0532607566 
71.034977105 79.050520558 7.0511080842 70.768139745 79.187593011 7.0536466766 70.49989604 79.321748978 7.0603728263 
70.230371862 79.453076996 7.0707560639 69.959718151 79.581776273 7.0842359386 69.688110259 79.70816052 7.1002148572 
69.415740927 79.832641908 7.1180719274 69.142833349 79.955759371 7.137133904 68.869623386 80.078121213 7.1567265174 
68.596363748 80.200395425 7.1761727855 68.32332596 80.323290122 7.1948021881 68.050806869 80.447542844 7.2119501941 
67.779120403 80.573871462 7.2269981645 67.508599203 80.702957795 7.2393752888 67.23959533 80.835434096 7.2485621696 
66.972474813 80.971862654 7.2541010454 66.70761831 81.112735134 7.2555871512 66.445409968 81.258453285 7.2526762579 
66.186203177 81.409282034 7.2451166826 65.930346878 81.565413212 7.2326817843 65.678168258 81.72694743 7.2151779432 
65.429974601 81.893908363 7.1924242348 65.186076795 82.066277966 7.1642105354 64.946700348 82.243897089 7.1304004059 
64.712086585 82.426600814 7.0908002539 64.482470029 82.614187841 7.0451945864 64.258126238 82.806461035 6.9932974929 
64.039293173 83.003155281 6.9348584197 63.826226306 83.203993817 6.8696100397 63.619233215 83.408707226 6.7972428258 
63.418700114 83.617035324 6.7173910333 63.225031075 83.828684127 6.629719241 63.038647667 84.043332875 6.5339328407 
62.86006279 84.260659648 6.429704473 62.68984882 84.480314908 6.3167198535 62.528714345 84.701924067 6.1946111548 
62.377264779 84.925031908 6.0631996953 62.236224032 85.149147751 5.9222718991 62.106348848 85.373716207 5.7716698021 
61.988413627 85.598111389 5.6113053325 61.883231356 85.821629901 5.441146719 61.791576534 86.043492171 5.2612800351 
61.714087818 86.262871296 5.0719628579 61.651367016 86.478893919 4.8735406913 61.603888928 86.690669535 4.6664941808 
61.572121984 86.897263917 4.4513640793 61.556150521 87.097847441 4.2289213213 61.55583602 87.291698265 4.0000254555 

VERTICES 241 240
OFFSETS vtktypeint64
0 1 2 3 4 5 6 7 8 
9 10 11 12 13 14 15 16 17 
18 19 20 21 22 23 24 25 26 
27 28 29 30 31 32 33 34 35 
36 37 38 39 40 41 42 43 44 
45 46 47 48 49 50 51 52 53 
54 55 56 57 58 59 60 61 62 
63 64 65 66 67 68 69 70 71 
72 73 74 75 76 77 78 79 80 
81 82 83 84 85 86 87 88 89 
90 91 92 93 94 95 96 97 98 
99 100 101 102 103 104 105 106 107 
108 109 110 111 112 113 114 115 116 
117 118 119 120 121 122 123 124 125 
126 127 128 129 130 131 132 133 134 
135 136 137 138 139 140 141 142 143 
144 145 146 147 148 149 150 151 152 
153 154 155 156 157 158 159 160 161 
162 163 164 165 166 167 168 169 170 
171 172 173 174 175 176 177 178 179 
180 181 182 183 184 185 186 187 188 
189 190 191 192 193 194 195 196 197 
198 199 200 201 202 203 204 205 206 
207 208 209 210 211 212 213 214 215 
216 217 218 219 220 221 222 223 224 
225 226 227 228 229 230 231 232 233 
234 235 236 237 238 239 240 
CONNECTIVITY vtktypeint64
0 1 2 3 4 5 6 7 8 
9 10 11 12 13 14 15 16 17 
18 19 20 21 22 23 24 25 26 
27 28 29 30 31 32 33 34 35 
36 37 38 39 40 41 42 43 44 
45 46 47 48 49 50 51 52 53 
54 55 56 57 58 59 60 61 62 
63 64 65 66 67 68 69 70 71 
72 73 74 75 76 77 78 79 80 
81 82 83 84 85 86 87 88 89 
90 91 92 93 94 95 96 97 98 
99 100 101 102 103 104 105 106 107 
108 109 110 111 112 113 114 115 116 
117 118 119 120 121 122 123 124 125 
126 127 128 129 130 131 132 133 134 
135 136 137 138 139 140 141 142 143 
144 145 146 147 148 149 150 151 152 
153 154 155 156 157 158 159 160 161 
162 163 164 165 166 167 168 169 170 
171 172 173 174 175 176 177 178 179 
180 181 182 183 184 185 186 187 188 
189 190 191 192 193 194 195 196 197 
198 199 200 201 202 203 204 205 206 
207 208 209 210 211 212 213 214 215 
216 217 218 219 220 221 222 223 224 
225 226 227 228 229 230 231 232 233 
234 235 236 237 238 239 
LINES 2 240
OFFSETS vtktypeint64
0 240 
CONNECTIVITY vtktypeint64
0 1 2 3 4 5 6 7 8 
9 10 11 12 13 14 15 16 17 
18 19 20 21 22 23 24 25 26 
27 28 29 30 31 32 33 34 35 
36 37 38 39 40 41 42 43 44 
45 46 47 48 49 50 51 52 53 
54 55 56 57 58 59 60 61 62 
63 64 65 66 67 68 69 70 71 
72 73 74 75 76 77 78 79 80 
81 82 83 84 85 86 87 88 89 
90 91 92 93 94 95 96 97 98 
99 100 101 102 103 104 105 106 107 
108 109 110 111 112 113 114 115 116 
117 118 119 120 121 122 123 124 125 
126 127 128 129 130 131 132 133 134 
135 136 137 138 139 140 141 142 143 
144 145 146 147 148 149 150 151 152 
153 154 155 156 157 158 159 160 161 
162 163 164 165 166 167 168 169 170 
171 172 173 174 175 176 177 178 179 
180 181 182 183 184 185 186 187 188 
189 190 191 192 193 194 195 196 197 
198 199 200 201 202 203 204 205 206 
207 208 209 210 211 212 213 214 215 
216 217 218 219 220 221 222 223 224 
225 226 227 228 229 230 231 232 233 
234 235 236 237 238 239 
POINT_DATA 240
SCALARS Curvature double
LOOKUP_TABLE default
0.27782926542 0.27142647288 0.26297221729 0.25310425284 0.24248407975 0.23172962518 0.22137531422 0.2118509067 0.2034948984 
0.19656749504 0.19127759493 0.18773459321 0.18599322743 0.18604227379 0.18779168764 0.19103780522 0.19550857284 0.2008492904 
0.20664113253 0.21241079224 0.21769490147 0.22207633216 0.22520749421 0.22686077604 0.22692071604 0.22544291894 0.22259800834 
0.2186896728 0.21406880922 0.20910575581 0.20414299099 0.19946705711 0.19529137995 0.19173974544 0.18886687188 0.18665035836 
0.18500470847 0.18380141737 0.18287885291 0.18204208075 0.18108101774 0.17977036247 0.17788618116 0.1752453213 0.17174382392 
0.16735255264 0.16212674836 0.15629045746 0.15027361119 0.14469119363 0.14031626168 0.13796743315 0.13838949669 0.14208424389 
0.14908499681 0.15906218554 0.17140930487 0.18538409466 0.20018950148 0.21508371299 0.22942672552 0.24267635032 0.25445455655 
0.26455520722 0.27298709195 0.27995050122 0.28575954705 0.29080145686 0.29549928457 0.30024020301 0.30532704952 0.31093541872 
0.31705921845 0.32350946288 0.32990178058 0.33572669572 0.34038463667 0.34334020755 0.34413540038 0.34253951951 0.33851163423 
0.3322862862 0.32421702323 0.31474480368 0.30428247132 0.29320640806 0.28179558814 0.27023171215 0.25862717032 0.24702508323 
0.23546506962 0.22404965485 0.21295224537 0.20240362433 0.19271520514 0.18426002954 0.17745265183 0.17276956457 0.17059916262 
0.17135365942 0.17520008184 0.1822697769 0.19248127287 0.20567130231 0.22162968995 0.24002371515 0.26051729184 0.28267799697 
0.30605617079 0.33008518852 0.353967621 0.37659929539 0.39674887988 0.41303543596 0.42412668737 0.42878656645 0.42637532836 
0.41668712582 0.40030995833 0.37838479971 0.3524039479 0.32388365213 0.29426294836 0.2646653863 0.23596611744 0.20873017028 
0.18335052417 0.16007739664 0.13916232006 0.12083014847 0.10542105375 0.093333132646 0.084975889576 0.080683053048 0.080253052724 
0.083025880359 0.088029710289 0.094218209456 0.10066949021 0.10664118978 0.11151067051 0.11479977618 0.11617029951 0.1154408242 
0.11257778047 0.10772083923 0.10115395132 0.093309122133 0.084754473651 0.076210070868 0.068548698732 0.062757844408 0.059818755121 
0.060271994384 0.063906200382 0.069899525623 0.077232626355 0.084990893284 0.092475639 0.09918847875 0.10478972056 0.10908231883 
0.1120276745 0.11369537619 0.11427787014 0.11403046771 0.11325975287 0.11225983008 0.111270657 0.11044528763 0.10983316364 
0.10938978084 0.10900265879 0.10852578435 0.10781061067 0.10672462565 0.10518416836 0.10316022263 0.10068013253 0.097819661288 
0.094689735745 0.091430576095 0.088184571227 0.085084305853 0.082236520831 0.079699401279 0.077472058279 0.075488685462 0.073621271387 
0.071685211945 0.069465498722 0.066738502812 0.063288727578 0.058929622579 0.053524019057 0.047025784143 0.039433899826 0.030802755782 
0.021223447807 0.010947364079 0.0027154148977 0.01186939639 0.023080503433 0.034141897467 0.044722219485 0.054583077465 0.063531974731 
0.071437953639 0.078236035047 0.08391644774 0.088547916585 0.092234859039 0.095133454027 0.097424368635 0.099310363705 0.10100685558 
0.10271283091 0.10461320996 0.10685813018 0.10956699019 0.11281290926 0.11663931394 0.12105325313 0.12603216513 0.13153035559 
0.13749035613 0.14384853885 0.15053328752 0.15746177188 0.16454294146 0.17166825304 0.17870841427 0.18550434712 0.19186995764 
0.19760260432 0.20249260724 0.20634517789 0.20898839841 0.21031966619 0.21030754491 
