# vtk DataFile Version 5.1
vtk output
ASCII
DATASET POLYDATA
POINTS 234 double
82.375466482 73.052143737 27.806870136 82.561117755 72.828845027 27.731869486 82.737832659 72.593374175 27.674637658 
82.904001708 72.346825282 27.635238745 83.058175566 72.090497788 27.613297531 83.199222073 71.825853721 27.607896832 
83.326343962 71.554361241 27.617694119 83.439153555 71.277411958 27.64095621 83.537528434 70.996197617 27.675785552 
83.621586747 70.711697933 27.720173136 83.691622092 70.424677263 27.772074228 83.748045898 70.135703673 27.82945856 
83.79134271 69.84518077 27.890338511 83.822039559 69.553385172 27.952782016 83.840687262 69.260504819 28.014915777 
83.847851218 68.966675966 28.074925175 83.844109167 68.672017608 28.131054335 83.830052946 68.376663008 28.181611044 
83.806292699 68.080787542 28.224978042 83.77343496 67.7846321 28.259602302 83.732165752 67.488522197 28.284109324 
83.683166299 67.192872128 28.297269985 83.627126849 66.898184825 28.298050669 83.564738706 66.605038736 28.285656261 
83.496676111 66.314063616 28.259562708 83.423574378 66.025907588 28.219536634 83.346006386 65.741199689 28.165638932 
83.264461357 65.460513232 28.098208435 83.179327925 65.184335126 28.017829824 83.090884869 64.913044907 27.925288434 
82.999299439 64.64690512 27.821519325 82.904634512 64.386062813 27.707554412 82.806862451 64.130560231 27.584473243 
82.705885276 63.880352264 27.453358441 82.601558695 63.635327828 27.315257524 82.493718845 63.395332943 27.171149849 
82.382210086 63.160193604 27.021917854 82.266912009 62.929737091 26.868321765 82.147764439 62.703810863 26.710977025 
82.02477476 62.482313033 26.550326059 81.898070883 62.265162305 26.386654841 81.76787181 62.052348181 26.220056625 
81.634498247 61.843925784 26.050444784 81.498366225 61.640019901 25.8775665 81.359975907 61.440828994 25.701023972 
81.21989746 61.246627442 25.520304449 81.078756569 61.057773205 25.33480895 80.937228016 60.874740499 25.143856432 
80.796027641 60.69800313 24.946831582 80.655894949 60.528147526 24.743109781 80.51760067 60.365835405 24.532115204 
80.381977858 60.211871606 24.313279627 80.249883645 60.067054973 24.086203596 80.122221149 59.932254335 23.850593606 
79.999980781 59.808462968 23.606234275 79.884280051 59.696830645 23.353000457 79.776350442 59.598605354 23.090943683 
79.67751965 59.515097266 22.820346385 79.589322631 59.447845253 22.541679692 79.513480233 59.398558154 22.255730526 
79.451888048 59.369092955 21.963708663 79.406565978 59.361388644 21.667371932 79.37968647 59.37751012 21.369154277 
79.373127213 59.419098064 21.072291188 79.388273045 59.487186849 20.780700282 79.426193995 59.582467736 20.498980298 
79.486329656 59.70379259 20.231502403 79.567707391 59.849690026 19.982550049 79.667811445 60.01709573 19.754843868 
79.784052714 60.203072226 19.550365438 79.91328388 60.404234976 19.369378197 80.05260097 60.617634459 19.211297809 
80.199394542 60.840775957 19.074876022 80.351398409 61.071641245 18.958437037 80.506697521 61.308672895 18.860109184 
80.66369148 61.550718358 18.777988414 80.821038363 61.796959708 18.710237868 80.977575149 62.046880358 18.655257312 
81.13228974 62.300110647 18.611361786 81.284284283 62.556456873 18.577076364 81.432671668 62.815886063 18.551183883 
81.576648726 63.078398843 18.53245524 81.715436828 63.344052814 18.519831749 81.848180835 63.612973433 18.512460143 
81.97406899 63.885253735 18.509556687 82.09229924 64.160957559 18.510478099 82.202017784 64.440125418 18.51474298 
82.302359753 64.722736787 18.522000766 82.392421945 65.008704257 18.53203311 82.471402224 65.297821897 18.544707689 
82.53850697 65.589797073 18.559983217 82.592997736 65.884237922 18.577865899 82.634227516 66.180655144 18.598364657 
82.661668027 66.478475038 18.621445735 82.674934763 66.777060916 18.646987761 82.673805892 67.07574175 18.67474245 
82.658232514 67.373845157 18.704304561 82.62833739 67.670730386 18.735094658 82.584402361 67.965816277 18.766355554 
82.526845472 68.258599597 18.797160995 82.456191761 68.548660818 18.826434158 82.373043047 68.835657151 18.852969731 
82.278050753 69.119304218 18.87545748 82.171895057 69.399349229 18.892504283 82.055271564 69.67553851 18.902656316 
81.928880821 69.947579956 18.904412225 81.793402923 70.215088148 18.896194411 81.649649724 70.477630194 18.876551778 
81.498415195 70.734623546 18.844020828 81.340553408 70.985344677 18.797213761 81.176996977 71.228923325 18.734861601 
81.008771949 71.464349709 18.655863403 80.837007486 71.690496682 18.559335863 80.662937038 71.906156767 18.444660051 
80.487890918 72.110092004 18.311516806 80.313279362 72.301093135 18.159908597 80.140567603 72.478042582 17.990163221 
79.971244477 72.639976074 17.802919944 79.806786669 72.786136522 17.599098528 79.648620851 72.91601745 17.379855881 
79.498084515 73.029392104 17.146534111 79.356387983 73.126328551 16.900604286 79.224578122 73.207188975 16.643609115 
79.103506918 73.2726154 16.377107355 78.993806488 73.323501156 16.102621996 78.895872999 73.360952576 15.821594937 
78.809860863 73.386242485 15.535349692 78.735686829 73.400760919 15.245064092 78.673044288 73.405965459 14.951753055 
78.621447784 73.403321014 14.656258535 78.580213913 73.394295436 14.359261559 78.548471984 73.380324679 14.061287659 
78.52525796 73.362749636 13.762715021 78.509511948 73.342818618 13.463799975 78.500102607 73.321675807 13.164698868 
78.495849373 73.300352988 12.865490775 78.495553142 73.279770312 12.566199548 78.497980942 73.260724711 12.266815708 
78.501920056 73.243881067 11.967315883 78.506200166 73.229782158 11.667679277 78.509703643 73.218846178 11.367901082 
78.511385951 73.211366969 11.068001762 78.5102937 73.207517641 10.768031996 78.505579752 73.207358125 10.468073414 
78.49651303 73.210847077 10.168235762 78.482482325 73.217858047 9.8686515876 78.462993189 73.2281993 9.5694698214 
78.437646229 73.241641729 9.2708510823 78.406148776 73.25792743 8.9729605632 78.368281986 73.276801351 8.6759661122 
78.323871195 73.298033114 8.3800396303 78.272768873 73.321429995 8.0853592964 78.214834061 73.346848142 7.7921143408 
78.14991464 73.37419941 7.5005114145 78.077834187 73.403453997 7.2107818392 77.998383695 73.434639415 6.923189229 
77.911311474 73.467838888 6.6380394716 77.816309747 73.503190481 6.3556949502 77.71311051 73.540855791 6.0765468365 
77.601398307 73.581038396 5.8010526254 77.480860784 73.623966434 5.5297260892 77.351207996 73.669884113 5.2631349523 
77.212193172 73.719043324 5.0018949232 77.063633812 73.771695677 4.7466596228 76.905430914 73.828084883 4.498106639 
76.737584365 73.888439798 4.2569204486 76.56020023 73.95296927 4.0237758023 76.373479746 74.021863734 3.7993342593 
76.17777448 74.095261587 3.5841683829 75.973507593 74.173276049 3.378809368 75.761181609 74.255981879 3.1837181452 
75.541358443 74.343413814 2.9992827062 75.31463883 74.435566251 2.8258203827 75.081642844 74.532394243 2.6635845851 
74.842993474 74.633815301 2.5127739051 74.599304285 74.739712307 2.373541987 74.351171262 74.84993658 2.2460062248 
74.09916892 74.964311472 2.1302534456 73.843849372 75.082635733 2.0263417389 73.585739055 75.204694156 1.9343213474 
73.325353899 75.330243253 1.8541710271 73.06319163 75.45902262 1.7858045084 72.799726205 75.590767314 1.7290879033 
72.535408291 75.725205387 1.6838060234 72.270658409 75.862061651 1.6496501443 72.005857441 76.001060951 1.6262117311 
71.741336218 76.14193088 1.6129822908 71.477365384 76.284403122 1.6093608538 71.214147283 76.428213408 1.614667312 
70.951810993 76.573100117 1.6281614013 70.690411167 76.718801685 1.6490643966 70.429931791 76.865054278 1.6765860892 
70.170292899 77.011588237 1.7099472637 69.911354948 77.158127068 1.7483608007 69.652938805 77.304391406 1.7910974189 
69.394836686 77.45010126 1.8374752184 69.136826563 77.594982477 1.8868660868 68.878686543 77.738776007 1.9386983836 
68.620208584 77.881249487 1.9924571082 68.361210634 78.02221012 2.0476818457 68.101546861 78.161518319 2.1039632588 
67.841114663 78.299099355 2.1609387455 67.579857248 78.434950224 2.2182868756 67.317773061 78.569162865 2.2757201445 
67.054905627 78.701908561 2.332983354 66.791342387 78.833441844 2.3898450573 66.527209109 78.964093528 2.446091273 
66.262663392 79.094259572 2.5015193494 65.997887683 79.224386302 2.5559320426 65.733082526 79.354953479 2.6091320903 
65.468459966 79.486455781 2.6609173821 65.20423735 79.619384153 2.7110766204 64.940632083 79.754209989 2.7593832716 
64.677856014 79.891368691 2.8055917549 64.416103326 80.031229292 2.8494460922 64.155549831 80.17409792 2.8906619027 
63.896344789 80.32020201 2.9289282428 63.638605009 80.469682762 2.9639048918 63.382410259 80.622591128 2.9952203079 
63.127800465 80.778887006 3.0224705558 62.874775563 80.938441966 3.0452194863 62.623297815 81.101044195 3.0629999083 
62.373297085 81.266405668 3.0753160294 62.12467827 81.434169904 3.0816468075 61.87733316 81.603923296 3.0814356366 
61.63114438 81.775191947 3.074129138 61.386000598 81.947456908 3.0591696671 61.141808271 82.120160389 3.0359918652 
60.898499439 82.292707565 3.0040402515 60.656039833 82.464470735 2.9627808975 60.414435117 82.634793769 2.911714703 
60.173735268 82.802998091 2.8503922408 59.934036533 82.968390618 2.778429512 59.695480841 83.130274444 2.695523992 

VERTICES 235 234
OFFSETS vtktypeint64
0 1 2 3 4 5 6 7 8 
9 10 11 12 13 14 15 16 17 
18 19 20 21 22 23 24 25 26 
27 28 29 30 31 32 33 34 35 
36 37 38 39 40 41 42 43 44 
45 46 47 48 49 50 51 52 53 
54 55 56 57 58 59 60 61 62 
63 64 65 66 67 68 69 70 71 
72 73 74 75 76 77 78 79 80 
81 82 83 84 85 86 87 88 89 
90 91 92 93 94 95 96 97 98 
99 100 101 102 103 104 105 106 107 
108 109 110 111 112 113 114 115 116 
117 118 119 120 121 122 123 124 125 
126 127 128 129 130 131 132 133 134 
135 136 137 138 139 140 141 142 143 
144 145 146 147 148 149 150 151 152 
153 154 155 156 157 158 159 160 161 
162 163 164 165 166 167 168 169 170 
171 172 173 174 175 176 177 178 179 
180 181 182 183 184 185 186 187 188 
189 190 191 192 193 194 195 196 197 
198 199 200 201 202 203 204 205 206 
207 208 209 210 211 212 213 214 215 
216 217 218 219 220 221 222 223 224 
225 226 227 228 229 230 231 232 233 
234 
CONNECTIVITY vtktypeint64
0 1 2 3 4 5 6 7 8 
9 10 11 12 13 14 15 16 17 
18 19 20 21 22 23 24 25 26 
27 28 29 30 31 32 33 34 35 
36 37 38 39 40 41 42 43 44 
45 46 47 48 49 50 51 52 53 
54 55 56 57 58 59 60 61 62 
63 64 65 66 67 68 69 70 71 
72 73 74 75 76 77 78 79 80 
81 82 83 84 85 86 87 88 89 
90 91 92 93 94 95 96 97 98 
99 100 101 102 103 104 105 106 107 
108 109 110 111 112 113 114 115 116 
117 118 119 120 121 122 123 124 125 
126 127 128 129 130 131 132 133 134 
135 136 137 138 139 140 141 142 143 
144 145 146 147 148 149 150 151 152 
153 154 155 156 157 158 159 160 161 
162 163 164 165 166 167 168 169 170 
171 172 173 174 175 176 177 178 179 
180 181 182 183 184 185 186 187 188 
189 190 191 192 193 194 195 196 197 
198 199 200 201 202 203 204 205 206 
207 208 209 210 211 212 213 214 215 
216 217 218 219 220 221 222 223 224 
225 226 227 228 229 230 231 232 233 

LINES 2 234
OFFSETS vtktypeint64
0 234 
CONNECTIVITY vtktypeint64
0 1 2 3 4 5 6 7 8 
9 10 11 12 13 14 15 16 17 
18 19 20 21 22 23 24 25 26 
27 28 29 30 31 32 33 34 35 
36 37 38 39 40 41 42 43 44 
45 46 47 48 49 50 51 52 53 
54 55 56 57 58 59 60 61 62 
63 64 65 66 67 68 69 70 71 
72 73 74 75 76 77 78 79 80 
81 82 83 84 85 86 87 88 89 
90 91 92 93 94 95 96 97 98 
99 100 101 102 103 104 105 106 107 
108 109 110 111 112 113 114 115 116 
117 118 119 120 121 122 123 124 125 
126 127 128 129 130 131 132 133 134 
135 136 137 138 139 140 141 142 143 
144 145 146 147 148 149 150 151 152 
153 154 155 156 157 158 159 160 161 
162 163 164 165 166 167 168 169 170 
171 172 173 174 175 176 177 178 179 
180 181 182 183 184 185 186 187 188 
189 190 191 192 193 194 195 196 197 
198 199 200 201 202 203 204 205 206 
207 208 209 210 211 212 213 214 215 
216 217 218 219 220 221 222 223 224 
225 226 227 228 229 230 231 232 233 

POINT_DATA 234
SCALARS Curvature double
LOOKUP_TABLE default
0.27345211458 0.27456219376 0.27182238042 0.26521166876 0.2550789899 0.24210185579 0.2271449487 0.21113211748 0.19492271733 
0.17928533282 0.16488788199 0.15232322271 0.14211360745 0.13468946151 0.13032790917 0.12906443916 0.13065246694 0.13457449641 
0.14014458643 0.14658911636 0.15314235324 0.15908859202 0.16382755588 0.16686302192 0.16785927122 0.16662863301 0.16318326375 
0.15767915357 0.15042740236 0.14182568715 0.13235207331 0.12250174678 0.11277444472 0.10362023541 0.095409359964 0.08838575416 
0.082634384805 0.078091495354 0.074587340708 0.07196787727 0.070174979814 0.069345897145 0.069769841827 0.071813199539 0.075721022608 
0.081541360301 0.089079602391 0.098022480584 0.10801439008 0.11878245399 0.13016390136 0.14211726301 0.15473496132 0.16821937835 
0.18286775853 0.19903912711 0.21710674259 0.23737680681 0.26004688158 0.28506764659 0.31201447777 0.33988869901 0.36697194925 
0.39078241472 0.40836000103 0.41668468479 0.41418664459 0.40076052093 0.37832657507 0.34953423882 0.31745834345 0.28455958758 
0.25259329708 0.22262367614 0.19526462932 0.17083222349 0.14952114164 0.13155032442 0.11710971316 0.10642866626 0.099685387264 
0.096775321509 0.097256150031 0.10047338764 0.10563183651 0.1120209431 0.11907959101 0.12638878966 0.13363307272 0.14055504851 
0.14692438553 0.15249739747 0.15702838408 0.16027079856 0.16203211816 0.16220673768 0.16083953969 0.15814985147 0.15455359201 
0.15064402231 0.1471296456 0.14476384235 0.14423882675 0.14606365762 0.15046440682 0.15735766662 0.166412544 0.17710504464 
0.18884996836 0.2010598273 0.2131581539 0.22463072505 0.23500558279 0.24391715107 0.25106145963 0.25624181908 0.25932645602 
0.26028147324 0.25911265642 0.2558792071 0.25065097425 0.24352780396 0.23461187007 0.22404785953 0.21198555878 0.19862054592 
0.18414741946 0.16880506946 0.15281783176 0.13643055087 0.11987229168 0.10339460733 0.087260193337 0.071789425386 0.057426875556 
0.044885370678 0.035433177296 0.030883091173 0.032095347861 0.037381791698 0.044311685634 0.051371308065 0.057821554928 0.063342880448 
0.067832703484 0.071324989302 0.073940569392 0.075855968377 0.077288967916 0.078467141779 0.079625097684 0.080977313291 0.082720966604 
0.085013511464 0.08796889137 0.091649262028 0.096054421768 0.10113420825 0.10677046845 0.11281253976 0.11906941003 0.12533372409 
0.13138723372 0.13701763869 0.14203637956 0.1462842339 0.14965614955 0.15209130777 0.15360313173 0.15424612376 0.15413124963 
0.15339166032 0.15218513261 0.15066229696 0.14895979973 0.14718176671 0.14538464868 0.14357801595 0.14170670654 0.13967119838 
0.13732175107 0.1344902764 0.13100863836 0.12672772489 0.12156268695 0.11547670531 0.10851201836 0.10075842313 0.092373729731 
0.083548683367 0.074504986138 0.065482473275 0.056725126869 0.048495083652 0.041060358552 0.034712846743 0.02971697306 0.026230678851 
0.024158838896 0.023095257471 0.022466682862 0.0217316993 0.020524543493 0.018679822616 0.016254192426 0.013598849046 0.011576211876 
0.011602909596 0.014348781622 0.018966103498 0.02446851985 0.030263065759 0.036000082446 0.041451181684 0.046467262684 0.05096495853 
0.054920674684 0.058378554156 0.061440732532 0.064268295322 0.067055388971 0.070012024715 0.07332757271 0.077146711116 0.081549893176 
0.086546313171 0.092084050302 0.098067761352 0.10437266018 0.11086064405 0.11738451814 0.12379742124 0.12995201228 0.13570637428 

