# vtk DataFile Version 5.1
vtk output
ASCII
DATASET POLYDATA
POINTS 208 double
104.69011064 71.021363031 28.833365883 104.50203318 71.154547798 28.641396315 104.30234655 71.270622791 28.450050038 
104.09226883 71.368571468 28.259695787 103.87312829 71.447374642 28.070675632 103.64650493 71.506379652 27.883269592 
103.41405637 71.545036442 27.697705862 103.17752385 71.562981021 27.514152331 102.93870569 71.560012819 27.332718016 
102.69942212 71.536306182 27.153429488 102.46149465 71.491876326 26.976283877 102.22668535 71.427369489 26.80116368 
101.99668708 71.343424797 26.627899987 101.77317225 71.240720916 26.45625961 101.55756793 71.12046321 26.285905092 
101.35125814 70.983739722 26.116455643 101.15549856 70.83177175 25.947473564 100.97126511 70.666012417 25.77849266 
100.79963915 70.487673606 25.609041735 100.64129988 70.29825206 25.438682884 100.49707609 70.098995907 25.267010956 
100.36753929 69.891249085 25.093701624 100.25333305 69.676223419 24.918499545 100.15494718 69.455136354 24.741256324 
100.07294468 69.229117842 24.56190924 100.00774316 68.999302375 24.380506285 99.959894052 68.766776814 24.197162093 
99.929730938 68.532667867 24.012081137 99.917790562 68.298119262 23.825492695 99.924273805 68.064343028 23.637672811 
99.94961766 67.832648771 23.448876279 99.993807305 67.604406517 23.259350265 100.05702393 67.381155076 23.069274059 
100.13891849 67.164448857 22.878756434 100.23923083 66.956036045 22.687794922 100.35717248 66.757606901 22.496276474 
100.49191234 66.571000124 22.303957586 100.64217124 66.3979328 22.110483149 100.80651272 66.240162655 21.915386647 
100.98318416 66.099326427 21.718122774 101.17020038 65.976956608 21.518096439 101.36537229 65.874558796 21.314675155 
101.5662171 65.793291163 21.107278959 101.77010416 65.734493409 20.895321719 101.97415021 65.698838111 20.678427284 
102.17530888 65.687248641 20.456285738 102.3704203 65.70000323 20.228890281 102.55629515 65.737124215 19.996488893 
102.72959216 65.798565737 19.759577682 102.88732262 65.883410496 19.51905849 103.02666438 65.990541838 19.276091599 
103.14501791 66.118565496 19.032107707 103.24048341 66.265506588 18.788761515 103.31171016 66.429187446 18.547806366 
103.35771139 66.607411294 18.311061897 103.37812839 66.79785855 18.080321002 103.37319533 66.998223452 17.857248726 
103.34315788 67.206441571 17.643523433 103.28887711 67.420478866 17.440599454 103.21135821 67.638508759 17.249825133 
103.11163363 67.858885597 17.072533105 102.99134358 68.080110811 16.909632123 102.85183856 68.300899528 16.762182352 
102.6951412 68.520198079 16.630622876 102.52302803 68.737180919 16.515496504 102.33769867 68.951348239 16.41676288 
102.14117467 69.162456344 16.334424029 101.93570165 69.370625369 16.267946152 101.72329059 69.576204228 16.216994265 
101.5060766 69.77987641 16.180713089 101.28601042 69.982515969 16.158539196 101.06506266 70.185218259 16.14963768 
100.84515916 70.389216939 16.153297329 100.62826725 70.595859888 16.168877052 100.41636176 70.806491908 16.195617106 
100.2116235 71.02251886 16.232990373 100.01618541 71.24512395 16.280203302 99.832483118 71.475441265 16.33660371 
99.662887576 71.714234061 16.401276567 99.50976022 71.961916535 16.473166783 99.375519232 72.218566841 16.55106462 
99.262001999 72.483671465 16.633439522 99.170670176 72.756350829 16.718612131 99.102486327 73.035417383 16.804774349 
99.05789295 73.319481059 16.890041529 99.036477116 73.607024421 16.972576174 99.037606941 73.896616329 17.050621026 
99.0603695 74.186914186 17.122501941 99.103336271 74.476712951 17.186778686 99.165386513 74.764927484 17.241961884 
99.244914324 75.050623445 17.286876905 99.340676367 75.332903577 17.32023654 99.451290044 75.610936067 17.340917718 
99.575416386 75.883901361 17.347871431 99.711988914 76.150823557 17.3398102 99.859665181 76.410782839 17.315843294 
100.01735975 76.66258875 17.274793874 100.18389404 76.904917106 17.215646026 100.35804727 77.136251592 17.137507873 
100.53857407 77.354800226 17.039563982 100.72411284 77.558605745 16.921332146 100.91320153 77.745648433 16.782777244 
101.10431893 77.913637889 16.624072102 101.29584541 78.060690689 16.446248556 101.48618242 78.185148335 16.25077664 
101.67379951 78.285812458 16.039594558 101.85727904 78.361952462 15.814931704 102.03544821 78.413748931 15.579323788 
102.2073761 78.441972811 15.335215374 102.37233745 78.447838593 15.084801737 102.52979307 78.432969427 14.82995508 
102.67945812 78.399505377 14.572180104 102.82097395 78.349338127 14.312506894 102.95424748 78.284839188 14.05163017 
103.07896045 78.207945038 13.789872939 103.19501523 78.120872267 13.527317248 103.30203872 78.025464522 13.263818697 
103.3998054 77.92365993 12.999117164 103.48789142 77.817165134 12.732865905 103.565931 77.707604599 12.464730896 
103.6335198 77.596428182 12.194432588 103.69033968 77.484898874 11.921811984 103.73614998 77.374053616 11.646850983 
103.7710007 77.264654098 11.369711338 103.79499363 77.157213347 11.090658192 103.80875761 77.051910925 10.81010017 
103.81304246 76.948673954 10.528468212 103.80900251 76.84715765 10.24620453 103.79809393 76.74683057 9.9636939402 
103.7819294 76.647065327 9.681233277 103.76244408 76.547198429 9.3990163223 103.74164047 76.44662275 9.1171446541 
103.7216682 76.344859473 8.8356400625 103.70474067 76.241586069 8.5544882669 103.69309571 76.136698201 8.2736696333 
103.68895003 76.030337569 7.9931991179 103.69449911 75.922915396 7.7131641227 103.71167762 75.815131508 7.4337469472 
103.74243217 75.707960022 7.1552677099 103.78810382 75.602597267 6.8781560887 103.84998812 75.500459252 6.6029964499 
103.92877416 75.403052515 6.3304613988 104.02480792 75.31193178 6.0613082493 104.13822357 75.228720345 5.7963948534 
104.26851055 75.154825298 5.5365307821 104.41521513 75.091731004 5.2826400054 104.57739822 75.040629418 5.0355632163 
104.7540745 75.00263951 4.7961806489 104.94416595 74.978782829 4.5654068372 105.14633114 74.96973119 4.3440289264 
105.35939869 74.976325943 4.1330331184 105.58183665 74.99882371 3.9330973149 105.81225561 75.037602185 3.7450457028 
106.04913063 75.092679324 3.5694993575 106.29092441 75.163794873 3.4068936442 106.53618039 75.250670109 3.2576748959 
106.78345168 75.352432864 3.1217809973 107.03148284 75.46828869 2.9991939582 107.2791897 75.597074762 2.8895218633 
107.52572948 75.737536582 2.7922314286 107.77049813 75.888386405 2.7067153748 108.01316757 76.04817237 2.6321224103 
108.25360188 76.215609295 2.5677522728 108.49191509 76.389286011 2.512677097 108.72833832 76.567998979 2.4662217168 
108.96326941 76.750499285 2.4275544634 109.19714491 76.935726374 2.3961115831 109.43045709 77.122656928 2.3712359322 
109.66367529 77.31042187 2.3525114465 109.89722695 77.498252303 2.3394449002 110.131481 77.685504588 2.3317493911 
110.36670557 77.87167586 2.329030086 110.60310158 78.056366779 2.3310502571 110.84074227 78.239353093 2.3374479905 
111.07963 78.420519214 2.3479258938 111.31966715 78.599908094 2.3620814496 111.56069491 78.77767888 2.3794636979 
111.80250803 78.954094688 2.3995439375 112.04486706 79.129514078 2.4216756652 112.28753351 79.304332958 2.4451546074 
112.53027089 79.47898191 2.4691610209 112.77286637 79.653875938 2.4928132995 113.01513978 79.829385 2.5151699365 
113.25694373 80.005816026 2.5352235022 113.49817705 80.18336845 2.5519620053 113.73877674 80.362130696 2.5643583145 
113.97871887 80.542060999 2.5714123946 114.21801803 80.722979022 2.5722284166 114.45671004 80.904587126 2.5659222932 
114.69486548 81.086464089 2.5518809278 114.93256307 81.268099241 2.5294687997 115.16991151 81.448916608 2.4984213521 
115.4070333 81.628293384 2.4585429189 115.64407655 81.805600407 2.4099046459 115.88121168 81.980247307 2.3528187158 
116.11863715 82.151652478 2.2876784734 116.35656911 82.319375981 2.2152102106 116.595262 82.482968507 2.1361006379 
116.83497721 82.642159504 2.051303665 117.07601838 82.796667562 1.9617340141 117.31869308 82.946340178 1.8684398382 
117.5633421 83.09102564 1.7724710746 117.81031023 83.230634195 1.6749351067 118.05995457 83.365078712 1.5769588935 
118.31263803 83.494262946 1.4797015242 118.56869419 83.618106354 1.3843394131 118.8284704 83.736448152 1.2921094829 
119.09220993 83.849191866 1.204223099 
VERTICES 209 208
OFFSETS vtktypeint64
0 1 2 3 4 5 6 7 8 
9 10 11 12 13 14 15 16 17 
18 19 20 21 22 23 24 25 26 
27 28 29 30 31 32 33 34 35 
36 37 38 39 40 41 42 43 44 
45 46 47 48 49 50 51 52 53 
54 55 56 57 58 59 60 61 62 
63 64 65 66 67 68 69 70 71 
72 73 74 75 76 77 78 79 80 
81 82 83 84 85 86 87 88 89 
90 91 92 93 94 95 96 97 98 
99 100 101 102 103 104 105 106 107 
108 109 110 111 112 113 114 115 116 
117 118 119 120 121 122 123 124 125 
126 127 128 129 130 131 132 133 134 
135 136 137 138 139 140 141 142 143 
144 145 146 147 148 149 150 151 152 
153 154 155 156 157 158 159 160 161 
162 163 164 165 166 167 168 169 170 
171 172 173 174 175 176 177 178 179 
180 181 182 183 184 185 186 187 188 
189 190 191 192 193 194 195 196 197 
198 199 200 201 202 203 204 205 206 
207 208 
CONNECTIVITY vtktypeint64
0 1 2 3 4 5 6 7 8 
9 10 11 12 13 14 15 16 17 
18 19 20 21 22 23 24 25 26 
27 28 29 30 31 32 33 34 35 
36 37 38 39 40 41 42 43 44 
45 46 47 48 49 50 51 52 53 
54 55 56 57 58 59 60 61 62 
63 64 65 66 67 68 69 70 71 
72 73 74 75 76 77 78 79 80 
81 82 83 84 85 86 87 88 89 
90 91 92 93 94 95 96 97 98 
99 100 101 102 103 104 105 106 107 
108 109 110 111 112 113 114 115 116 
117 118 119 120 121 122 123 124 125 
126 127 128 129 130 131 132 133 134 
135 136 137 138 139 140 141 142 143 
144 145 146 147 148 149 150 151 152 
153 154 155 156 157 158 159 160 161 
162 163 164 165 166 167 168 169 170 
171 172 173 174 175 176 177 178 179 
180 181 182 183 184 185 186 187 188 
189 190 191 192 193 194 195 196 197 
198 199 200 201 202 203 204 205 206 
207 
LINES 2 208
OFFSETS vtktypeint64
0 208 
CONNECTIVITY vtktypeint64
0 1 2 3 4 5 6 7 8 
9 10 11 12 13 14 15 16 17 
18 19 20 21 22 23 24 25 26 
27 28 29 30 31 32 33 34 35 
36 37 38 39 40 41 42 43 44 
45 46 47 48 49 50 51 52 53 
54 55 56 57 58 59 60 61 62 
63 64 65 66 67 68 69 70 71 
72 73 74 75 76 77 78 79 80 
81 82 83 84 85 86 87 88 89 
90 91 92 93 94 95 96 97 98 
99 100 101 102 103 104 105 106 107 
108 109 110 111 112 113 114 115 116 
117 118 119 120 121 122 123 124 125 
126 127 128 129 130 131 132 133 134 
135 136 137 138 139 140 141 142 143 
144 145 146 147 148 149 150 151 152 
153 154 155 156 157 158 159 160 161 
162 163 164 165 166 167 168 169 170 
171 172 173 174 175 176 177 178 179 
180 181 182 183 184 185 186 187 188 
189 190 191 192 193 194 195 196 197 
198 199 200 201 202 203 204 205 206 
207 
POINT_DATA 208
SCALARS Curvature double
LOOKUP_TABLE default
0.23644836514 0.23849154691 0.23961675478 0.23992695574 0.23955233374 0.23864005295 0.23730162116 0.23558689561 0.2334628893 
0.23089388131 0.2278426904 0.22426615708 0.22014715205 0.21556466964 0.21069654983 0.20580729573 0.20118987211 0.19711212194 
0.19381216863 0.19143647752 0.19003845588 0.18958758865 0.19002168422 0.19125597958 0.19321843565 0.19581736196 0.19895299221 
0.20249928249 0.20632261385 0.21026832586 0.21417327358 0.21783079527 0.22108025538 0.22384310387 0.2261314084 0.22805677278 
0.22982873309 0.23173332283 0.23421193555 0.23768588511 0.24237372648 0.24842689615 0.25594301206 0.26487045752 0.27495541863 
0.28575597371 0.2966185803 0.30699504528 0.31628885146 0.32369384667 0.32855491459 0.33060765343 0.32992872494 0.32687851775 
0.32202146105 0.31598451187 0.30938783485 0.30263234861 0.2958011559 0.28874636786 0.28112736957 0.27254631875 0.2626060368 
0.25102284622 0.2376604073 0.22273526474 0.20669041546 0.19021634238 0.17418929201 0.1596879716 0.1481276384 0.14105207839 
0.13972374064 0.14465869472 0.15524211981 0.17020607268 0.18794732761 0.20687535576 0.22528689775 0.24164346914 0.25465675678 
0.26351688421 0.26790348387 0.26799438568 0.26445838494 0.25845223939 0.25104405616 0.24312860282 0.23559787241 0.22925112159 
0.22466819778 0.22228663654 0.22237638017 0.22505962521 0.23039660939 0.2382273048 0.24826656715 0.26004340773 0.27288686441 
0.28599339531 0.29840734306 0.30901201896 0.31660044845 0.32026858945 0.31939773315 0.31377500261 0.30348986523 0.28897155494 
0.27110210012 0.25092269187 0.2294664005 0.20770886138 0.18661088277 0.16704448552 0.14991515786 0.13605272263 0.12625495286 
0.12084965303 0.11951513138 0.12108755227 0.1239281432 0.12628034641 0.12668473744 0.12424993759 0.11831888019 0.1085597901 
0.095085280686 0.078381328034 0.059157782397 0.038340332883 0.018497196985 0.017410629118 0.038026959941 0.061580080666 0.085328000912 
0.10849536502 0.13048444316 0.15079974015 0.16895366826 0.18465359353 0.19772983245 0.20828236411 0.21653873172 0.22281821675 
0.22752059154 0.23103318776 0.23380045661 0.23611748964 0.23808113525 0.23963405848 0.24057339695 0.24062556029 0.2394491239 
0.23662176745 0.23174877195 0.22461410882 0.21520298241 0.20363295773 0.19020661195 0.17535093853 0.15957727243 0.14345064758 
0.1274852647 0.11219123211 0.098174116984 0.085983958759 0.076084928541 0.068672427056 0.063643993929 0.060452539047 0.058378385445 
0.05663922113 0.054542184062 0.051562471878 0.047351665721 0.04174814963 0.034727978997 0.026382128931 0.016937737692 0.0068329282988 
0.005383563022 0.016426774968 0.027992824022 0.039514399288 0.050698522364 0.061279710459 0.070991393633 0.079615205524 0.086939143823 
0.092809993958 0.09705049298 0.099523434129 0.10014202858 0.098990454712 0.096241283147 0.092134789432 0.087034141625 0.081367856214 
0.075660202892 0.070508499105 0.066553159808 0.064481000239 0.064877647607 0.067991979303 0.073677521784 0.081521353878 0.091064181814 
0.10186834852 
