# vtk DataFile Version 5.1
vtk output
ASCII
DATASET POLYDATA
POINTS 275 double
81.444646565 84.511262883 37.483534019 81.677510419 84.614533343 37.325141077 81.913674239 84.703441945 37.162967951 
82.152539318 84.777626107 36.997383758 82.39347196 84.83684232 36.828792451 82.635819632 84.880968745 36.657621401 
82.878926894 84.909973108 36.484306228 83.122141737 84.923847185 36.309277984 83.364835782 84.922948943 36.132985206 
83.606420854 84.907587142 35.955836155 83.846348513 84.878143988 35.778210453 84.084084746 84.834913462 35.60045557 
84.319183004 84.778506614 35.422884907 84.551234577 84.709465711 35.245768113 84.779867178 84.628311564 35.069338124 
85.00472471 84.535504383 34.893800025 85.225497407 84.431547195 34.719328147 85.44193694 84.316995588 34.546065196 
85.653792565 84.19229813 34.374145413 85.860830417 84.057867168 34.203695825 86.06282789 83.914075332 34.034843075 
86.259543204 83.761215254 33.867727192 86.450765739 83.59959707 33.702487391 86.636288718 83.429503912 33.539270172 
86.815875417 83.251157329 33.37823863 86.989270532 83.064753069 33.21956471 87.156192907 82.870467639 33.06342458 
87.316327516 82.668465062 32.909992636 87.469318118 82.458904437 32.75943503 87.614761033 82.241948736 32.611902407 
87.752199161 82.01777409 32.467521759 87.881083305 81.786555489 32.326398627 88.000834598 81.548535861 32.188579495 
88.110816463 81.30400964 32.054053137 88.210303753 81.05331604 31.922751935 88.298502902 80.796868234 31.794536934 
88.37455823 80.535167395 31.669194421 88.437563091 80.268818305 31.546433386 88.48653248 79.99853782 31.425887052 
88.520435042 79.72519096 31.307097989 88.53847808 79.449835554 31.189499684 88.539841143 79.173656046 31.072467643 
88.523834328 78.897987929 30.955317288 88.489690732 78.624352745 30.837294377 88.437425509 78.354319383 30.717635955 
88.367106696 78.08951651 30.59556324 88.279062808 77.831596333 30.470289855 88.173935603 77.582178879 30.341035399 
88.052954807 77.342597112 30.207130514 87.917427004 77.114081366 30.067917915 87.768871184 76.897657828 29.922790178 
87.608939274 76.694174034 29.771169716 87.439412092 76.504263621 29.612525421 87.262163766 76.328305023 29.446408823 
87.079016439 76.166633939 29.2723615 86.89179163 76.019510076 29.089949679 86.702314822 75.887151083 28.898765023 
86.512427563 75.769769599 28.698427553 86.324006747 75.667609326 28.488595172 86.138992413 75.580971903 28.26898246 
85.959420824 75.510232506 28.039389868 85.787455464 75.455844326 27.79974635 85.625405619 75.418329142 27.550169385 
85.47587767 75.398437022 27.290948376 85.341426212 75.396644624 27.022883291 85.224688685 75.413415643 26.747162089 
85.128572946 75.44933243 26.465391484 85.055641566 75.504534456 26.179825513 85.008009579 75.578771547 25.893247478 
84.987498049 75.671586485 25.608873816 84.994783557 75.781808609 25.330130931 85.030037377 75.908094025 25.060479461 
85.092411918 76.048687753 24.803094121 85.180456223 76.201746364 24.560746579 85.292123598 76.365375065 24.335638841 
85.425258151 76.537862718 24.129611337 85.577204862 76.717513378 23.943684505 85.745767237 76.902994532 23.778999459 
85.928489738 77.093034454 23.636039073 86.123071166 77.286550087 23.515070607 86.327397998 77.482621525 23.41629903 
86.539477266 77.680441247 23.339850804 86.757400564 77.879282674 23.285740503 86.979311975 78.078486065 23.253654827 
87.203495014 78.277463488 23.243314209 87.42831953 78.475684503 23.254310264 87.652246358 78.672678822 23.286101122 
87.8738351 78.868042556 23.338010115 88.091751998 79.061447728 23.409231167 88.30477716 79.252652156 23.498839639 
88.511810355 79.441510142 23.605803199 88.711875091 79.627983486 23.728993121 88.904119087 79.812149159 23.867202137 
89.08780768 79.994200702 24.019170887 89.262310832 80.174445503 24.183613094 89.427089313 80.353301982 24.359228975 
89.58168122 80.531298037 24.544708793 89.725687618 80.709067207 24.738733335 89.858757449 80.887340294 24.939972781 
89.980572201 81.066936414 25.147079595 90.090833156 81.248754093 25.358673601 90.189230248 81.433769643 25.57332259 
90.275462432 81.623022217 25.789500989 90.349274619 81.81757578 26.005565603 90.410415627 82.018509603 26.21973249 
90.458667379 82.226879724 26.430042012 90.493859088 82.443673801 26.63433359 90.515747968 82.669857973 26.830113651 
90.52439692 82.906056113 27.014766886 90.520067969 83.152548385 27.185584301 90.50293214 83.409462466 27.339371242 
90.473886283 83.676064073 27.473616016 90.433664542 83.951451215 27.58533581 90.383614528 84.233947551 27.672638727 
90.325116113 84.52162288 27.733902904 90.259714303 84.812266083 27.768270764 90.189057886 85.103615772 27.776062988 
90.114602637 85.393539912 27.757551222 90.037793431 85.680226964 27.714441497 89.959807106 85.962104387 27.647979777 
89.88166831 86.238048978 27.560186327 89.804200985 86.507268093 27.453017486 89.728089904 86.76918195 27.328198895 
89.653891063 87.023516437 27.187544482 89.582044676 87.270246778 27.032818149 89.51292358 87.509473031 26.86556302 
89.44684084 87.74143681 26.687208971 89.384062951 87.966496273 26.499075409 89.324818334 88.1851058 26.302379142 
89.269302531 88.397799363 26.098244442 89.217679268 88.605176692 25.887714245 89.170076789 88.807891433 25.671761705 
89.126582525 89.006640543 25.45130073 89.087239113 89.202152667 25.227193339 89.052049194 89.39517028 25.000249194 
89.020957165 89.586442602 24.771237315 88.99382604 89.776703313 24.540882529 88.970457123 89.966635856 24.30984507 
88.950575863 90.15685732 24.07871854 88.933832038 90.347895803 23.848017412 88.919802743 90.540172102 23.618164852 
88.908009421 90.733997462 23.389490522 88.89789141 90.929538852 23.162200898 88.888838366 91.126811561 22.936366866 
88.880215118 91.325697037 22.711934612 88.871361346 91.525950337 22.488730737 88.86158842 91.727221448 22.266482703 
88.850228588 91.929049043 22.044815802 88.836618852 92.130913911 21.823310186 88.820110581 92.332239323 21.601511656 
88.800030766 92.532393524 21.378950285 88.775797076 92.730750638 21.155198578 88.746839486 92.92668991 20.929885468 
88.712610782 93.119608867 20.702714574 88.672581766 93.308934118 20.473479067 88.62622997 93.494130706 20.242074415 
88.573173421 93.674810611 20.008551332 88.513016124 93.850639986 19.773056925 88.445400076 94.021377079 19.535845947 
88.370004497 94.186880242 19.297274293 88.286482392 94.347078669 19.057790295 88.194628466 94.502086465 18.817942654 
88.094233965 94.652096257 18.578340984 87.985098398 94.797377516 18.339649826 87.867041965 94.938273241 18.102580927 
87.739904946 95.075187505 17.867886882 87.603549595 95.20857123 17.636355456 87.457810966 95.338891375 17.408830971 
87.302644203 95.466660573 17.186147922 87.138029036 95.592382648 16.969159419 86.963973232 95.71654268 16.758740908 
86.780541947 95.839600483 16.555773066 86.587869964 95.961979005 16.361127921 86.38616406 96.084054993 16.175661224 
86.175646304 96.206156283 16.000280773 85.956781588 96.328552239 15.835658861 85.730033085 96.451449636 15.682481853 
85.495940593 96.574993677 15.541345885 85.255110308 96.699269016 15.412740882 85.008138294 96.824312029 15.297190342 
84.755800657 96.950089033 15.194780629 84.498810949 97.076533298 15.105616622 84.237880834 97.203545896 15.029678399 
83.973696494 97.331004436 14.966861396 83.706911558 97.458767688 14.91697977 83.438166654 97.586680418 14.87955489 
83.168018162 97.714589646 14.854135523 82.896960395 97.842347785 14.840200536 82.625422509 97.969817258 14.837172034 
82.353768892 98.096869819 14.844499398 82.08230025 98.223399972 14.861449667 81.811251146 98.349322782 14.887315702 
81.540798715 98.474577145 14.921389668 81.271068044 98.599129617 14.962950594 81.002138017 98.722977425 15.011269007 
80.734048507 98.846152166 15.065612888 80.466812525 98.968721894 15.125274619 80.200405836 99.090806544 15.18947133 
79.934792597 99.212564933 15.257466695 79.669926162 99.334200492 15.328528895 79.405756774 99.455962669 15.401932531 
79.142239566 99.578148401 15.476959953 78.879341678 99.70110105 15.552902089 78.617049376 99.825209357 15.629057799 
78.355373833 99.950905913 15.704727604 78.094349764 100.07863889 15.779226049 77.834048556 100.20888624 15.851873931 
77.574579219 100.34214081 15.921995695 77.316092042 100.47890049 15.988918161 77.058781663 100.61965784 16.051968894 
76.802889033 100.76488866 16.110474163 76.548712761 100.91506663 16.163727657 76.29659032 101.07059271 16.211050598 
76.046897861 101.231796 16.251782613 75.800059397 101.39895194 16.285249682 75.556537003 101.57225479 16.310785279 
75.31682522 101.75180769 16.327735149 75.081474145 101.93765255 16.335403589 74.851026838 102.12967988 16.333179973 
74.626009923 102.32764677 16.320533629 74.406966823 102.53122863 16.296936016 74.194425972 102.73999188 16.261914052 
73.988964387 102.95344133 16.214941238 73.791023935 103.17091518 16.155742401 73.601020476 103.39169501 16.084093406 
73.419342259 103.61501148 15.99982206 73.246367679 103.84005121 15.902784353 73.0823913 104.06595521 15.792975754 
72.927554651 104.29185821 15.670618193 72.782005292 104.51692309 15.535934601 72.645830612 104.74034869 15.389245085 
72.51916497 104.9613566 15.230839268 72.401884854 105.17929804 15.061347387 72.293920331 105.3935986 14.881347429 
72.195174339 105.60377921 14.691464119 72.105527888 105.8094607 14.49235907 72.0248815 106.01034823 14.284690591 
71.953118882 106.2062553 14.069151482 71.890077231 106.39712234 13.846480499 71.835662483 106.58293976 13.617355329 
71.789809232 106.76375699 13.38242819 71.752486562 106.9396669 13.142320555 71.723701893 107.11079042 12.89762084 
71.703500555 107.27726006 12.648883332 71.691976727 107.4391951 12.396622599 71.689271664 107.59668549 12.141317499 
71.695462677 107.74982975 11.883442978 71.710676177 107.89866218 11.623427867 71.735024404 108.04316917 11.36167394 
71.768585409 108.18328326 11.098554176 71.811384756 108.31888298 10.834410886 71.863436578 108.44976938 10.569551784 
71.924603995 108.57573643 10.304256544 71.994628428 108.69656434 10.038761372 72.073188719 108.81199047 9.7732507351 
72.159858358 108.92174041 9.5078548865 72.25415555 109.02549869 9.2426481655 72.355439707 109.12300218 8.9776440362 
72.462969201 109.21402997 8.7127965625 72.575974635 109.29834719 8.4480065145 72.693629814 109.3757373 8.1831250631 
72.815079123 109.44595495 7.9179568145 72.939388283 109.50883019 7.6522716583 73.065598264 109.56422552 7.3858192356 
73.192744548 109.61198058 7.1183353207 73.319842359 109.65194236 6.8495538591 73.445887256 109.68396376 6.5792178859 
73.569827462 109.70782793 6.3070728456 73.690635202 109.72348024 6.0329327133 73.807259702 109.73080103 5.7566427229 
73.918642758 109.72968816 5.4781066111 74.02372705 109.72006464 5.1972982164 74.121468484 109.70188814 4.9142717719 
74.210853143 109.67516161 4.629169897 74.290918763 109.63994424 4.3422280116 
VERTICES 276 275
OFFSETS vtktypeint64
0 1 2 3 4 5 6 7 8 
9 10 11 12 13 14 15 16 17 
18 19 20 21 22 23 24 25 26 
27 28 29 30 31 32 33 34 35 
36 37 38 39 40 41 42 43 44 
45 46 47 48 49 50 51 52 53 
54 55 56 57 58 59 60 61 62 
63 64 65 66 67 68 69 70 71 
72 73 74 75 76 77 78 79 80 
81 82 83 84 85 86 87 88 89 
90 91 92 93 94 95 96 97 98 
99 100 101 102 103 104 105 106 107 
108 109 110 111 112 113 114 115 116 
117 118 119 120 121 122 123 124 125 
126 127 128 129 130 131 132 133 134 
135 136 137 138 139 140 141 142 143 
144 145 146 147 148 149 150 151 152 
153 154 155 156 157 158 159 160 161 
162 163 164 165 166 167 168 169 170 
171 172 173 174 175 176 177 178 179 
180 181 182 183 184 185 186 187 188 
189 190 191 192 193 194 195 196 197 
198 199 200 201 202 203 204 205 206 
207 208 209 210 211 212 213 214 215 
216 217 218 219 220 221 222 223 224 
225 226 227 228 229 230 231 232 233 
234 235 236 237 238 239 240 241 242 
243 244 245 246 247 248 249 250 251 
252 253 254 255 256 257 258 259 260 
261 262 263 264 265 266 267 268 269 
270 271 272 273 274 275 
CONNECTIVITY vtktypeint64
0 1 2 3 4 5 6 7 8 
9 10 11 12 13 14 15 16 17 
18 19 20 21 22 23 24 25 26 
27 28 29 30 31 32 33 34 35 
36 37 38 39 40 41 42 43 44 
45 46 47 48 49 50 51 52 53 
54 55 56 57 58 59 60 61 62 
63 64 65 66 67 68 69 70 71 
72 73 74 75 76 77 78 79 80 
81 82 83 84 85 86 87 88 89 
90 91 92 93 94 95 96 97 98 
99 100 101 102 103 104 105 106 107 
108 109 110 111 112 113 114 115 116 
117 118 119 120 121 122 123 124 125 
126 127 128 129 130 131 132 133 134 
135 136 137 138 139 140 141 142 143 
144 145 146 147 148 149 150 151 152 
153 154 155 156 157 158 159 160 161 
162 163 164 165 166 167 168 169 170 
171 172 173 174 175 176 177 178 179 
180 181 182 183 184 185 186 187 188 
189 190 191 192 193 194 195 196 197 
198 199 200 201 202 203 204 205 206 
207 208 209 210 211 212 213 214 215 
216 217 218 219 220 221 222 223 224 
225 226 227 228 229 230 231 232 233 
234 235 236 237 238 239 240 241 242 
243 244 245 246 247 248 249 250 251 
252 253 254 255 256 257 258 259 260 
261 262 263 264 265 266 267 268 269 
270 271 272 273 274 
LINES 2 275
OFFSETS vtktypeint64
0 275 
CONNECTIVITY vtktypeint64
0 1 2 3 4 5 6 7 8 
9 10 11 12 13 14 15 16 17 
18 19 20 21 22 23 24 25 26 
27 28 29 30 31 32 33 34 35 
36 37 38 39 40 41 42 43 44 
45 46 47 48 49 50 51 52 53 
54 55 56 57 58 59 60 61 62 
63 64 65 66 67 68 69 70 71 
72 73 74 75 76 77 78 79 80 
81 82 83 84 85 86 87 88 89 
90 91 92 93 94 95 96 97 98 
99 100 101 102 103 104 105 106 107 
108 109 110 111 112 113 114 115 116 
117 118 119 120 121 122 123 124 125 
126 127 128 129 130 131 132 133 134 
135 136 137 138 139 140 141 142 143 
144 145 146 147 148 149 150 151 152 
153 154 155 156 157 158 159 160 161 
162 163 164 165 166 167 168 169 170 
171 172 173 174 175 176 177 178 179 
180 181 182 183 184 185 186 187 188 
189 190 191 192 193 194 195 196 197 
198 199 200 201 202 203 204 205 206 
207 208 209 210 211 212 213 214 215 
216 217 218 219 220 221 222 223 224 
225 226 227 228 229 230 231 232 233 
234 235 236 237 238 239 240 241 242 
243 244 245 246 247 248 249 250 251 
252 253 254 255 256 257 258 259 260 
261 262 263 264 265 266 267 268 269 
270 271 272 273 274 
POINT_DATA 275
SCALARS Curvature double
LOOKUP_TABLE default
0.17409332456 0.17499125226 0.1751757123 0.17463441069 0.17337850273 0.17144237604 0.1688793659 0.16575656986 0.16216551914 
0.15820097218 0.1539618107 0.14955142886 0.14507455121 0.14063986237 0.13635191592 0.13230434297 0.12857866916 0.12524252075 
0.12235427221 0.11996397761 0.11810045282 0.11678490986 0.11602302924 0.11579503251 0.11608372515 0.11687360848 0.11815891748 
0.11993114736 0.12216995782 0.12486287498 0.12800638094 0.13161910677 0.13572109665 0.14032814248 0.14547547419 0.15120503455 
0.15753982678 0.16441510315 0.17169188895 0.17922367315 0.18685031476 0.19432253474 0.20124954042 0.20716867392 0.21172900218 
0.21467031608 0.21584529693 0.21531270613 0.21327751757 0.20998880887 0.20578019594 0.20123249122 0.19710275758 0.19402206064 
0.19241805909 0.19264952506 0.19511430479 0.20014502644 0.2079055159 0.21841257476 0.23156598849 0.24709367293 0.26451360222 
0.28325748109 0.3027515167 0.32217974985 0.3402057348 0.35520059346 0.36596799536 0.37183198283 0.37254853453 0.36824454158 
0.35964552222 0.34795718074 0.33445190399 0.32038494123 0.30675954161 0.29415104052 0.28274833537 0.27260449331 0.26378798326 
0.25622876883 0.2496399443 0.24363439853 0.23788106796 0.23212844802 0.22616349244 0.21985523868 0.21314341683 0.20596673774 
0.1982788946 0.19013352208 0.18175303895 0.1734322612 0.16540542283 0.15789982508 0.15123285086 0.14582828646 0.14215920913 
0.1406848785 0.14181402864 0.14584794548 0.15287698805 0.1628133821 0.17552957622 0.19079400697 0.20813913447 0.22679825674 
0.2458201314 0.26430989342 0.28117366988 0.29524069559 0.30525582912 0.31038128928 0.31016044779 0.30479930409 0.29522954414 
0.28240389543 0.26723498339 0.25048832986 0.23309527218 0.21578889284 0.1989721613 0.18281070446 0.16738002178 0.15274491295 
0.13891378908 0.12586079206 0.11356816755 0.10202812264 0.091228951345 0.081163335546 0.071899004495 0.06358529142 0.056399391749 
0.050457721273 0.045753797765 0.042180594716 0.039461281047 0.037176363231 0.034885392329 0.032200450239 0.02886257784 0.024868390892 
0.020885392723 0.018531880624 0.019899792024 0.025251726328 0.033191648321 0.042434938346 0.05214194271 0.061776771915 0.070978537965 
0.079455126093 0.086952745391 0.093291804842 0.098492891571 0.10262956458 0.10575900009 0.10795055484 0.10937546589 0.11034798716 
0.11117945026 0.11213950179 0.11346090101 0.1153277249 0.11784452517 0.12103861395 0.12487921992 0.12926847855 0.13401927106 
0.13887465793 0.14358245677 0.14796643811 0.15185387157 0.15507083542 0.15744364599 0.15884234253 0.15919453049 0.15845214414 
0.1566787874 0.15395784655 0.15034837499 0.1458829418 0.14063154281 0.13475620927 0.12840615185 0.1216694861 0.11460066657 
0.10725354698 0.099693619145 0.09197086105 0.084111266246 0.076137055384 0.068060468889 0.059889566651 0.051643736571 0.043371577914 
0.035166630767 0.027217947616 0.020015262168 0.014940883873 0.014658664009 0.019556770822 0.027055760717 0.035610378074 0.04465508382 
0.053947767918 0.06336480012 0.072820810837 0.082244191718 0.091545822245 0.10063050099 0.1094211579 0.11785461993 0.12586656119 
0.13340416006 0.14041273467 0.14682859217 0.15257760538 0.15761509916 0.16198034246 0.16569981138 0.16873177421 0.1709939675 
0.17245933638 0.17316814398 0.17314397347 0.17238075608 0.17085698146 0.16857760166 0.16555679045 0.16185770368 0.15760213595 
0.15292123404 0.1479314806 0.14274607417 0.13752710515 0.13248299101 0.12780951431 0.12366409971 0.12018060422 0.11745172272 
0.11552329586 0.11437766324 0.11391327994 0.11398570451 0.11439960289 0.11492873708 0.11535258158 0.11548201046 0.11515599786 
0.11423908581 0.11263738576 0.1103433388 0.10742700946 0.10401435151 0.10030991914 0.096550649512 0.092995458205 0.089922162155 
0.087641040369 0.086446678864 0.08654294305 0.088029143287 0.090902941814 0.09507503342 0.10039255333 0.1066322641 0.11356697245 
0.12096237137 0.12858267934 0.13619244158 0.14355793402 0.15045221093 
