# vtk DataFile Version 5.1
vtk output
ASCII
DATASET POLYDATA
POINTS 208 double
76.407235408 72.579890776 32.613116197 76.624036322 72.545660223 32.408811376 76.852255693 72.488725723 32.22283597 
77.088880108 72.408529483 32.057028873 77.330255038 72.306061429 31.911553287 77.572875987 72.182662076 31.785672723 
77.813678687 72.040695054 31.677002055 78.050321565 71.882387203 31.582645934 78.28105716 71.709746683 31.499396343 
78.504796879 71.524814256 31.423759398 78.720721461 71.329153496 31.352494872 78.928277008 71.124203742 31.282470895 
79.127082515 70.911303606 31.210793591 79.316696985 70.691639635 31.13476235 79.496909629 70.466542925 31.052059372 
79.667327356 70.237272397 30.960541299 79.827831092 70.005250672 30.858636941 79.978261051 69.771887912 30.745096509 
80.118612485 69.538600755 30.619175777 80.24910765 69.306693965 30.480725598 80.369909252 69.077342451 30.32978196 
80.481541225 68.851418539 30.167064395 80.58435674 68.629591144 29.993270805 80.678879683 68.412157263 29.809497422 
80.765439349 68.199194598 29.616776243 80.844363802 67.99046515 29.416296756 80.915698402 67.785586665 29.20910858 
80.979441176 67.583946967 28.996340653 81.035224443 67.384889762 28.778953925 81.082685494 67.187636269 28.557976416 
81.121085363 66.991443859 28.334311368 81.149780762 66.795585469 28.108907343 81.167889853 66.599449043 27.882650271 
81.174681472 66.402586501 27.656404864 81.169575801 66.204777839 27.430943226 81.152079228 66.006051775 27.206915268 
81.122305177 65.806727028 26.984722289 81.080553025 65.607355138 26.764505058 81.027527185 65.408695653 26.54607381 
80.964304308 65.211637809 26.328904268 80.892018097 65.017192385 26.11220449 80.812048514 64.826395063 25.894959754 
80.725717451 64.640378111 25.676010193 80.63432973 64.460387417 25.454098019 80.539186224 64.287708014 25.227998613 
80.441469899 64.123825497 24.996518791 80.342300797 63.970496911 24.758526062 80.242763817 63.829520037 24.513175792 
80.143880502 63.703012221 24.259816089 80.046688774 63.593604167 23.99799806 79.952196195 63.503785372 23.727889685 
79.861505819 63.436763666 23.449994285 79.775703673 63.395532401 23.165621384 79.69602207 63.383623859 22.876787643 
79.623645194 63.403965165 22.586539336 79.559768263 63.459074428 22.298857325 79.505498858 63.550537697 22.018584354 
79.461735531 63.67856441 21.751099794 79.429056753 63.841760467 21.501799853 79.407644128 64.037178462 21.275505868 
79.397268023 64.260664287 21.07597718 79.397331439 64.507361996 20.905630689 79.406951517 64.772239335 20.765492731 
79.425060017 65.05054145 20.65537537 79.450495426 65.338087206 20.574173541 79.482126373 65.631432076 20.520461022 
79.518719811 65.92773597 20.49196941 79.559157092 66.224879161 20.486684289 79.602293602 66.521300775 20.502167175 
79.647072563 66.815908664 20.536439297 79.692427562 67.108065955 20.587090953 79.737354099 67.397460464 20.652026816 
79.780854373 67.684035514 20.72929859 79.821995242 67.96802649 20.816750743 79.859890737 68.249828015 20.912384592 
79.893678402 68.529962904 21.014260239 79.922641114 68.809077816 21.120339186 79.946172154 69.087857174 21.228623228 
79.96372742 69.366998605 21.337106237 79.975082425 69.64715192 21.443787699 79.980029446 69.928920625 21.546628171 
79.978741095 70.212755019 21.643730604 79.971423027 70.499027698 21.733087956 79.958661331 70.787883862 21.813006923 
79.941084163 71.079357742 21.881705609 79.919526002 71.373271638 21.937673252 79.894880216 71.669279938 21.979532161 
79.868048746 71.966872887 22.005917927 79.839940878 72.265343781 22.01592966 79.811365723 72.563843112 22.008527979 
79.783034057 72.861372391 21.983148022 79.755507355 73.156818392 21.939291536 79.729182251 73.44897148 21.876671036 
79.704260408 73.736603607 21.795343963 79.680775572 74.018408845 21.695339209 79.658568975 74.293176202 21.577117454 
79.637348385 74.559609922 21.440996001 79.616684649 74.8165502 21.287631004 79.596064689 75.062757945 21.117565636 
79.574915884 75.297064077 20.931505187 79.552639927 75.518266182 20.73016586 79.528640145 75.725115664 20.514294518 
79.502365112 75.916416513 20.284784137 79.473323038 76.090898635 20.042559164 79.441134968 76.247397169 19.788727568 
79.405559255 76.384881775 19.524548278 79.366478596 76.50234958 19.251360608 79.323990047 76.599384244 18.970759129 
79.278284333 76.675553425 18.684281143 79.229735381 76.731143729 18.39356726 79.178799661 76.766764374 18.100133574 
79.12598208 76.783231695 17.80532889 79.071849536 76.782083787 17.510297697 79.016932135 76.764736929 17.215911566 
78.961744785 76.733113056 16.922758929 78.906746519 76.688997427 16.631181517 78.852340312 76.634391995 16.341267768 
78.798884733 76.571134855 16.052935166 78.746673968 76.501169194 15.765923614 78.695993845 76.426231909 15.479891695 
78.647060603 76.348119066 15.194404171 78.600117012 76.268456773 14.909010063 78.555340016 76.188822726 14.623260325 
78.512942164 76.110680351 14.33673777 78.473077008 76.035331942 14.04910665 78.435932349 75.963973286 13.760098665 
78.401614093 75.897521822 13.469576524 78.370265477 75.836809987 13.177468136 78.341897697 75.782288947 12.883838801 
78.316527033 75.734333285 12.588793158 78.294040059 75.693008198 12.292513033 78.274252382 75.658248148 11.995198479 
78.256874197 75.629846042 11.697058407 78.241486522 75.607437682 11.398297825 78.227586602 75.590688598 11.099092884 
78.21454032 75.579129366 10.799603318 78.201637461 75.572426366 10.499958953 78.188087213 75.570153825 10.200276532 
78.173018833 75.572055245 9.9006640759 78.1555567 75.577822831 9.6012314855 78.134740465 75.587305166 9.3021087993 
78.109673613 75.600329174 9.0034467571 78.079382691 75.616855765 8.7054442963 78.043017017 75.63683862 8.4083358638 
77.999669766 75.660343235 8.112426071 77.94861887 75.687422529 7.8180564148 77.88909371 75.718234622 7.5256541329 
77.82059583 75.752902581 7.2356594817 77.742548026 75.791669906 6.948613782 77.654748381 75.834704289 6.6650154698 
77.556873352 75.882316254 6.385477356 77.449018421 75.934716135 6.1105069471 77.331196938 75.992240328 5.8406997448 
77.203727247 76.055150062 5.5765403084 77.066923499 76.123770219 5.3185433849 76.921249804 76.198378255 5.0671493576 
76.767197486 76.27924137 4.8227821394 76.605274037 76.366594691 4.5858511225 76.436009283 76.460593684 4.3567226406 
76.259862108 76.561369308 4.1358098561 76.077300685 76.668923083 3.923466844 75.888677428 76.783233768 3.720144213 
75.69434931 76.904111119 3.5262086942 75.494542659 77.03135009 3.342162623 75.289517383 77.164556033 3.1683632388 
75.079409668 77.303348627 3.0053401763 74.864451405 77.447152761 2.8533578547 74.644759172 77.595455474 2.7129051647 
74.420604401 77.747575203 2.5840658095 74.192169235 77.902914194 2.4671342999 73.959767931 78.060800414 2.3620266002 
73.723677589 78.220634186 2.2687451203 73.484246042 78.381833484 2.1870454324 73.241815135 78.543888496 2.1166606367 
72.996739089 78.706355045 2.0572322586 72.749373114 78.868863445 2.0083291369 72.500050566 79.031115275 1.9695500222 
72.249103088 79.192881717 1.9404111107 71.996830316 79.353988883 1.9205185954 71.743525169 79.514321067 1.9094009725 
71.489452025 79.673800026 1.9066819336 71.234864461 79.83239555 1.9119115199 70.979994504 79.990106679 1.9247080883 
70.725059864 80.146975968 1.9446124921 70.470261622 80.303076737 1.9711974212 70.215783829 80.458528096 2.003951841 
69.961797881 80.613487961 2.0423708489 69.708456885 80.76816322 2.0858665394 69.455905805 80.922804393 2.1338507704 
69.204271106 81.077704337 2.1856660487 68.953679028 81.233198309 2.240660432 68.704239411 81.389647783 2.2981304737 
68.456073115 81.547450083 2.3573874114 68.2092837 81.706995002 2.4177186122 67.963997894 81.868698687 2.4784319056 
67.720317109 82.032921331 2.5388446315 67.478378501 82.200048004 2.598285049 67.238276778 82.370351943 2.6561311428 
67.000159041 82.544150184 2.7117381198 66.764111206 82.721602794 2.7645543919 66.530275431 82.902918041 2.8139784427 
66.298740237 83.088160451 2.8595123983 66.069639395 83.277422523 2.9006084032 65.843069505 83.470686576 2.9368135609 
65.619167978 83.667952147 2.9676308619 65.398043753 83.869129938 2.9926595274 65.179853587 84.074153578 3.0114426995 
64.964706226 84.282854898 3.0236715375 
VERTICES 209 208
OFFSETS vtktypeint64
0 1 2 3 4 5 6 7 8 
9 10 11 12 13 14 15 16 17 
18 19 20 21 22 23 24 25 26 
27 28 29 30 31 32 33 34 35 
36 37 38 39 40 41 42 43 44 
45 46 47 48 49 50 51 52 53 
54 55 56 57 58 59 60 61 62 
63 64 65 66 67 68 69 70 71 
72 73 74 75 76 77 78 79 80 
81 82 83 84 85 86 87 88 89 
90 91 92 93 94 95 96 97 98 
99 100 101 102 103 104 105 106 107 
108 109 110 111 112 113 114 115 116 
117 118 119 120 121 122 123 124 125 
126 127 128 129 130 131 132 133 134 
135 136 137 138 139 140 141 142 143 
144 145 146 147 148 149 150 151 152 
153 154 155 156 157 158 159 160 161 
162 163 164 165 166 167 168 169 170 
171 172 173 174 175 176 177 178 179 
180 181 182 183 184 185 186 187 188 
189 190 191 192 193 194 195 196 197 
198 199 200 201 202 203 204 205 206 
207 208 
CONNECTIVITY vtktypeint64
0 1 2 3 4 5 6 7 8 
9 10 11 12 13 14 15 16 17 
18 19 20 21 22 23 24 25 26 
27 28 29 30 31 32 33 34 35 
36 37 38 39 40 41 42 43 44 
45 46 47 48 49 50 51 52 53 
54 55 56 57 58 59 60 61 62 
63 64 65 66 67 68 69 70 71 
72 73 74 75 76 77 78 79 80 
81 82 83 84 85 86 87 88 89 
90 91 92 93 94 95 96 97 98 
99 100 101 102 103 104 105 106 107 
108 109 110 111 112 113 114 115 116 
117 118 119 120 121 122 123 124 125 
126 127 128 129 130 131 132 133 134 
135 136 137 138 139 140 141 142 143 
144 145 146 147 148 149 150 151 152 
153 154 155 156 157 158 159 160 161 
162 163 164 165 166 167 168 169 170 
171 172 173 174 175 176 177 178 179 
180 181 182 183 184 185 186 187 188 
189 190 191 192 193 194 195 196 197 
198 199 200 201 202 203 204 205 206 
207 
LINES 2 208
OFFSETS vtktypeint64
0 208 
CONNECTIVITY vtktypeint64
0 1 2 3 4 5 6 7 8 
9 10 11 12 13 14 15 16 17 
18 19 20 21 22 23 24 25 26 
27 28 29 30 31 32 33 34 35 
36 37 38 39 40 41 42 43 44 
45 46 47 48 49 50 51 52 53 
54 55 56 57 58 59 60 61 62 
63 64 65 66 67 68 69 70 71 
72 73 74 75 76 77 78 79 80 
81 82 83 84 85 86 87 88 89 
90 91 92 93 94 95 96 97 98 
99 100 101 102 103 104 105 106 107 
108 109 110 111 112 113 114 115 116 
117 118 119 120 121 122 123 124 125 
126 127 128 129 130 131 132 133 134 
135 136 137 138 139 140 141 142 143 
144 145 146 147 148 149 150 151 152 
153 154 155 156 157 158 159 160 161 
162 163 164 165 166 167 168 169 170 
171 172 173 174 175 176 177 178 179 
180 181 182 183 184 185 186 187 188 
189 190 191 192 193 194 195 196 197 
198 199 200 201 202 203 204 205 206 
207 
POINT_DATA 208
SCALARS Curvature double
LOOKUP_TABLE default
0.37326940956 0.37667983784 0.3685902461 0.34869427597 0.31925439839 0.28388345268 0.24667608325 0.21110244811 0.17999928547 
0.15559433816 0.13973988139 0.13325005621 0.1351094274 0.14275755838 0.15308519291 0.1634825726 0.17203005181 0.177486568 
0.17919809243 0.17720622722 0.17188226057 0.16375176137 0.1534626945 0.14202532101 0.13046214903 0.11981636164 0.11119318255 
0.10563292372 0.10388937312 0.10602725169 0.11147715792 0.11900738839 0.1270623007 0.13401296876 0.13843144441 0.13926140404 
0.13610338069 0.12923107518 0.11965135008 0.10915315691 0.10000838073 0.094768350745 0.095777503986 0.10397942967 0.1184920452 
0.13780831911 0.16062776787 0.18603868603 0.21362434216 0.24319051184 0.27447819281 0.30710192042 0.34030519033 0.3728988486 
0.4032351431 0.42917293462 0.4483279928 0.45865541758 0.45902906914 0.44999562229 0.43291421506 0.40946989606 0.38193840309 
0.35236386833 0.32225964789 0.29259213317 0.26391210862 0.23649135479 0.21046466132 0.18583541628 0.16252681371 0.14055641931 
0.12010537988 0.10160969274 0.085922239771 0.07442594635 0.068714199641 0.069606428999 0.076292190305 0.086821269122 0.099388458185 
0.11262512757 0.12583005697 0.1386884821 0.15104027226 0.1627884332 0.17380085441 0.18392166722 0.19300017198 0.20083416566 
0.20725008103 0.2121387935 0.21550452734 0.2175573264 0.21861535383 0.21911413066 0.21951681932 0.22027191433 0.22175752744 
0.22422781497 0.22768859334 0.23192075514 0.23654428192 0.241004382 0.24459863434 0.24656470486 0.24615445282 0.24284074478 
0.23632835835 0.22657871011 0.21373376904 0.19811968091 0.18025099658 0.16074068394 0.14021311852 0.11921204658 0.098233188174 
0.077769568189 0.058368210116 0.041074005006 0.028502441198 0.02613574642 0.033989392279 0.045448765428 0.056744253351 0.066449567072 
0.073964279659 0.079010467175 0.08162069515 0.081878356792 0.080000764581 0.076316497894 0.071260190851 0.065399908316 0.059404455143 
0.054075219958 0.050363432517 0.049130424643 0.050869238154 0.055357337087 0.061990171908 0.070007347412 0.078755029574 0.087718192559 
0.096528397224 0.10489725284 0.11258067532 0.11942481834 0.12531486267 0.13017194236 0.13393015324 0.13664149815 0.13840774534 
0.13942689247 0.13991704468 0.14010611567 0.14019347259 0.14033453606 0.14062658961 0.14112099273 0.14181614149 0.14268318746 
0.14366396477 0.14466870616 0.14555862604 0.14615385429 0.14624917222 0.14568440909 0.14435809797 0.14216490198 0.13906642805 
0.13512718245 0.13048899107 0.12535607108 0.11994312492 0.11445577557 0.10904603184 0.1038157959 0.09879472519 0.093964302131 
0.089251011435 0.084547985059 0.079718061014 0.074635327802 0.069195898589 0.063349935426 0.057107188858 0.050585403354 0.044002859338 
0.03770833261 0.032287513272 0.028612990954 0.027608521126 0.029505310536 0.033640098085 0.039003630636 0.044860279351 0.050760418734 
0.056471171596 0.061882550869 0.066958629299 0.071720888075 0.076227438265 0.080530891223 0.084660756238 0.088618842938 0.092383075438 
0.095918098942 
