# vtk DataFile Version 5.1
vtk output
ASCII
DATASET POLYDATA
POINTS 218 double
110.86973354 87.405955644 36.177771421 110.80806208 87.547058933 35.920348821 110.73529717 87.678138024 35.660534705 
110.65163142 87.798873809 35.398996209 110.55717419 87.908860342 35.136394685 110.4519641 88.007594438 34.873411533 
110.33598576 88.094466864 34.610773718 110.20919318 88.168756553 34.349278547 110.07152031 88.229601284 34.089822477 
109.92292105 88.275989023 33.833431464 109.76356428 88.306971016 33.581219347 109.59374096 88.321495439 33.334415949 
109.41389182 88.318334404 33.094408285 109.22498041 88.296706298 32.862458871 109.02822233 88.255802232 32.63982219 
108.82525653 88.195183751 32.427492243 108.61805928 88.114799063 32.226091876 108.40882066 88.014861732 32.035858218 
108.19985518 87.896029499 31.856491308 107.99348832 87.759020454 31.687361448 107.79191591 87.604972625 31.527345259 
107.59733938 87.434728794 31.375270089 107.41164475 87.249606647 31.229606738 107.23671076 87.050676542 31.088905787 
107.07432734 86.839060464 30.951713325 106.92599828 86.616086366 30.816616009 106.79322852 86.383027926 30.682355432 
106.67747287 86.141233646 30.547802939 106.57974873 85.892289143 30.412000734 106.50101745 85.63779645 30.274159654 
106.44219143 85.379432293 30.133618694 106.40363867 85.119009939 29.989896874 106.38557329 84.858347501 29.84262072 
106.38801083 84.599275171 29.691496418 106.4108652 84.343653777 29.536259993 106.45351034 84.093257695 29.376746273 
106.51529211 83.849831179 29.212771045 106.595375 83.615063587 29.044149753 106.69276048 83.390583021 28.870690006 
106.80633242 83.177979019 28.692180419 106.93481227 82.978765615 28.508411432 107.07677197 82.79436006 28.319190507 
107.23072107 82.626171035 28.124323852 107.39506448 82.475579802 27.923643697 107.5680988 82.34395584 27.717025687 
107.748003 82.232673223 27.504411641 107.9328217 82.143125289 27.285838237 108.12044087 82.076733596 27.061473581 
108.30854632 82.035082176 26.831637281 108.49456877 82.019645761 26.596921389 108.67569236 82.031797791 26.358234666 
108.84872801 82.073098541 26.116848241 109.01016809 82.144750366 25.874556007 109.15619119 82.24757271 25.633742426 
109.282889 82.381602669 25.39739735 109.38621181 82.546223219 25.169165739 109.46284271 82.739234164 24.953002544 
109.51042461 82.957215164 24.752834265 109.52797158 83.195701443 24.572084687 109.516061 83.449659592 24.413225202 
109.47642575 83.714186998 24.277787047 109.41231097 83.984813544 24.165732805 109.32693253 84.258134587 24.076680445 
109.22405402 84.531652605 24.009277255 109.10709752 84.803785541 23.962164844 108.97928821 85.073663085 23.933941079 
108.84371172 85.341009255 23.923087473 108.70317864 85.605964842 23.928314255 108.56035586 85.868979521 23.94849453 
108.41785007 86.130723199 23.982655608 108.27829529 86.39201352 24.029953102 108.14443687 86.653748885 24.089622253 
108.01919908 86.916835385 24.160905751 107.9057152 87.182096628 24.2429566 107.8072938 87.450163441 24.334718888 
107.72730929 87.721355517 24.434804242 107.66926484 87.995606442 24.541424346 107.63556234 88.272296726 24.652103495 
107.62838579 88.550450338 24.763987092 107.64792948 88.828807312 24.873860518 107.69357512 89.106145915 24.978459576 
107.76328113 89.381492391 25.074746662 107.85429028 89.654245228 25.160044788 107.96344457 89.924165907 25.232059329 
108.08751256 90.191278058 25.288800891 108.22324331 90.455759266 25.328677987 108.36772022 90.717740696 25.350025485 
108.51810066 90.977248547 25.351482874 108.67175508 91.234078835 25.331840299 108.82625324 91.487709313 25.28992701 
108.97930869 91.737235712 25.224653487 109.12887503 91.981458723 25.135607432 109.27317074 92.218820157 25.022554498 
109.41065857 92.447395434 24.885475979 109.54034861 92.6653022 24.725368477 109.66157117 92.870480777 24.543309722 
109.77408745 93.060930805 24.340804156 109.87816099 93.235028217 24.119895105 109.97423371 93.391108044 23.882504595 
110.06309886 93.528044136 23.630912536 110.14566454 93.645018019 23.367375964 110.22281119 93.741253342 23.093986055 
110.29550029 93.816735276 22.812960333 110.36454671 93.871650857 22.526293121 110.4306033 93.906397396 22.235785114 
110.49418455 93.921962872 21.943066405 110.55560709 93.919637461 21.649476153 110.61498826 93.900929073 21.35604363 
110.67225303 93.867516577 21.063489343 110.72716501 93.821336831 20.772217073 110.77934062 93.764441888 20.482335414 
110.82825567 93.698898047 20.193709493 110.87327266 93.626801649 19.906009425 110.91364775 93.550251634 19.618769378 
110.94856416 93.471364228 19.33144634 110.97722145 93.392246882 19.043496484 110.99881567 93.314947457 18.754441448 
111.01256052 93.241482467 18.463914202 111.01788335 93.173727423 18.171732171 111.01446301 93.113326985 17.877916771 
111.00210607 93.061809913 17.582655986 110.98115672 93.020156974 17.286327333 110.95214037 92.989121286 16.989376811 
110.91594561 92.968995507 16.692273 110.87374632 92.959628645 16.395424088 110.82680068 92.960753025 16.099139211 
110.77658358 92.97164824 15.803587088 110.72456151 92.991565169 15.508815307 110.67221885 93.019735296 15.214771996 
110.62104505 93.05532413 14.921326776 110.57249449 93.097519949 14.628311618 110.52800071 93.145599073 14.335559208 
110.48897642 93.198903818 14.04293246 110.45685105 93.256863893 13.750353938 110.43297839 93.318935364 13.457832061 
110.41865558 93.384633383 13.165482356 110.41512723 93.45352628 12.87354214 110.42356059 93.525219685 12.582380544 
110.44507268 93.599356484 12.292510119 110.48042692 93.675572064 12.00454734 110.5302917 93.753552581 11.719218467 
110.59524186 93.833029059 11.437360661 110.67547533 93.913760665 11.159831706 110.77096904 93.995564797 10.887497572 
110.88164295 94.078329613 10.621267809 111.00716883 94.161999901 10.362001114 111.14699679 94.246571884 10.110460971 
111.30059311 94.33209407 9.8674137147 111.46739211 94.418648273 9.6336090663 111.64659647 94.50631098 9.4096024049 
111.8374954 94.595155507 9.1959595704 112.03943163 94.685232621 8.9932586782 112.25162768 94.776531338 8.801902727 
112.4733217 94.868977942 8.6222211421 112.70379494 94.9624309 8.4545006735 112.9424087 95.05667868 8.2990558898 
113.18840009 95.151423341 8.1558989942 113.44109827 95.2463154 8.0250470911 113.69986992 95.340961745 7.9064558966 
113.96412441 95.434940586 7.8000465891 114.23322241 95.527844392 7.7054898307 114.50659696 95.61929241 7.6224796488 
114.78371894 95.708948021 7.550690567 115.06406498 95.796554287 7.4896945698 115.34712038 95.881963449 7.4389496448 
115.63241614 95.965122604 7.3979326257 115.91952145 96.046074069 7.3661506517 116.20801371 96.12499662 7.3429783139 
116.497512 96.20216469 7.3278029417 116.78767428 96.27793454 7.3200341319 117.07819335 96.352729114 7.319142003 
117.3687897 96.427039891 7.3244832597 117.65922151 96.50137232 7.3355046685 117.94927406 96.576240063 7.3516977322 
118.23875896 96.652142635 7.3725646975 118.52751964 96.729528789 7.3976039137 118.81542199 96.808796171 7.4263690553 
119.1023467 96.890300818 7.4584601287 119.38821736 96.974288919 7.4934263405 119.67297615 97.060954877 7.5308459588 
119.95658372 97.150450468 7.5702945132 120.23902721 97.24287431 7.6113125706 120.52032136 97.338274913 7.6533999856 
120.80048781 97.436706181 7.6960277601 121.07954715 97.538248884 7.7386191072 121.35752852 97.642972422 7.7805505324 
121.63444522 97.750982825 7.8211651329 121.91028284 97.862434641 7.8597713316 122.18498505 97.977545395 7.8956333343 
122.458454 98.096557444 7.9280064152 122.73053794 98.219742569 7.9561488847 123.00101512 98.347418753 7.9793052237 
123.26958439 98.479940859 7.9967056454 123.53586184 98.617675792 8.0075847099 123.79940791 98.760928028 8.0112674845 
124.05969832 98.909996591 8.0070844221 124.31611595 99.065163561 7.99436156 124.56802623 99.226573929 7.9725706836 
124.81478662 99.394254784 7.9412955886 125.05571567 99.568164647 7.9001430891 125.29018499 99.748106252 7.8488666347 
125.51770842 99.933694778 7.7874356754 125.73784504 100.12447691 7.7158369275 125.95030733 100.3198697 7.6341900227 
126.1550502 100.51915783 7.5428112001 126.35213585 100.72160155 7.44200932 126.54173091 100.92643367 7.3320726869 
126.72427854 101.13283049 7.2134721179 126.90026612 101.33999974 7.0865863874 127.07027233 101.54716117 6.951774447 
127.23490722 101.75353888 6.8093077751 127.39491119 101.95838472 6.6595397793 127.55100439 102.16095818 6.5027186235 
127.70392363 102.36051657 6.3390527393 127.85440809 102.55628235 6.1686864825 128.00321911 102.74745268 5.9917592519 
128.15112718 102.93320509 5.8084218789 128.29889839 103.11263411 5.6187863251 
VERTICES 219 218
OFFSETS vtktypeint64
0 1 2 3 4 5 6 7 8 
9 10 11 12 13 14 15 16 17 
18 19 20 21 22 23 24 25 26 
27 28 29 30 31 32 33 34 35 
36 37 38 39 40 41 42 43 44 
45 46 47 48 49 50 51 52 53 
54 55 56 57 58 59 60 61 62 
63 64 65 66 67 68 69 70 71 
72 73 74 75 76 77 78 79 80 
81 82 83 84 85 86 87 88 89 
90 91 92 93 94 95 96 97 98 
99 100 101 102 103 104 105 106 107 
108 109 110 111 112 113 114 115 116 
117 118 119 120 121 122 123 124 125 
126 127 128 129 130 131 132 133 134 
135 136 137 138 139 140 141 142 143 
144 145 146 147 148 149 150 151 152 
153 154 155 156 157 158 159 160 161 
162 163 164 165 166 167 168 169 170 
171 172 173 174 175 176 177 178 179 
180 181 182 183 184 185 186 187 188 
189 190 191 192 193 194 195 196 197 
198 199 200 201 202 203 204 205 206 
207 208 209 210 211 212 213 214 215 
216 217 218 
CONNECTIVITY vtktypeint64
0 1 2 3 4 5 6 7 8 
9 10 11 12 13 14 15 16 17 
18 19 20 21 22 23 24 25 26 
27 28 29 30 31 32 33 34 35 
36 37 38 39 40 41 42 43 44 
45 46 47 48 49 50 51 52 53 
54 55 56 57 58 59 60 61 62 
63 64 65 66 67 68 69 70 71 
72 73 74 75 76 77 78 79 80 
81 82 83 84 85 86 87 88 89 
90 91 92 93 94 95 96 97 98 
99 100 101 102 103 104 105 106 107 
108 109 110 111 112 113 114 115 116 
117 118 119 120 121 122 123 124 125 
126 127 128 129 130 131 132 133 134 
135 136 137 138 139 140 141 142 143 
144 145 146 147 148 149 150 151 152 
153 154 155 156 157 158 159 160 161 
162 163 164 165 166 167 168 169 170 
171 172 173 174 175 176 177 178 179 
180 181 182 183 184 185 186 187 188 
189 190 191 192 193 194 195 196 197 
198 199 200 201 202 203 204 205 206 
207 208 209 210 211 212 213 214 215 
216 217 
LINES 2 218
OFFSETS vtktypeint64
0 218 
CONNECTIVITY vtktypeint64
0 1 2 3 4 5 6 7 8 
9 10 11 12 13 14 15 16 17 
18 19 20 21 22 23 24 25 26 
27 28 29 30 31 32 33 34 35 
36 37 38 39 40 41 42 43 44 
45 46 47 48 49 50 51 52 53 
54 55 56 57 58 59 60 61 62 
63 64 65 66 67 68 69 70 71 
72 73 74 75 76 77 78 79 80 
81 82 83 84 85 86 87 88 89 
90 91 92 93 94 95 96 97 98 
99 100 101 102 103 104 105 106 107 
108 109 110 111 112 113 114 115 116 
117 118 119 120 121 122 123 124 125 
126 127 128 129 130 131 132 133 134 
135 136 137 138 139 140 141 142 143 
144 145 146 147 148 149 150 151 152 
153 154 155 156 157 158 159 160 161 
162 163 164 165 166 167 168 169 170 
171 172 173 174 175 176 177 178 179 
180 181 182 183 184 185 186 187 188 
189 190 191 192 193 194 195 196 197 
198 199 200 201 202 203 204 205 206 
207 208 209 210 211 212 213 214 215 
216 217 
POINT_DATA 218
SCALARS Curvature double
LOOKUP_TABLE default
0.17098394275 0.16843816803 0.16800616824 0.16963594643 0.1732725545 0.17884322635 0.18623087863 0.19524668832 0.20558395517 
0.21678208366 0.22817357151 0.23891598589 0.24798721673 0.25438752435 0.25724926669 0.25618026815 0.25132623822 0.24340143003 
0.2335765726 0.22332887171 0.21407441973 0.20699414203 0.2027658791 0.20157484671 0.20312426945 0.20673400138 0.21159705945 
0.21690128735 0.22198160356 0.22635719148 0.229742967 0.23204299466 0.23330359376 0.23367438081 0.23335607863 0.23260006009 
0.23164534268 0.23074494162 0.23014150216 0.23011073026 0.23094481537 0.23290739533 0.23623733678 0.24120156263 0.24806982507 
0.25710289881 0.26852699364 0.28254602431 0.29931166975 0.31886328992 0.34102574314 0.36535230711 0.39087956233 0.41604243171 
0.43851195191 0.45532658769 0.4634578378 0.46071165664 0.44658398986 0.42245330862 0.39106640536 0.35561932718 0.31874861224 
0.28249083488 0.2483798832 0.21755119389 0.19101494417 0.16996710351 0.15592029331 0.15040010834 0.15420791687 0.1667710463 
0.18628998071 0.21036112482 0.23630152695 0.26121475164 0.28195593191 0.29576754787 0.3006538678 0.29673127882 0.28569908155 
0.27051262217 0.25454429896 0.24099711024 0.23220532318 0.22928723364 0.23221246131 0.23989230275 0.25071299056 0.26293046977 
0.2748838116 0.28514112837 0.29270320076 0.29694325856 0.29781991859 0.29562750401 0.29099803312 0.28467276659 0.27729309124 
0.26928890365 0.26082908044 0.25175575934 0.24167642759 0.23016864181 0.21686527504 0.20158526577 0.18433669833 0.16535641549 
0.14507485544 0.12420384436 0.10380044179 0.085576094402 0.072306578741 0.067536023675 0.072750036096 0.08520835148 0.10086653625 
0.11661760337 0.13038461163 0.14083389929 0.14704636485 0.14865740695 0.14574205964 0.13884555597 0.12894609496 0.1172052054 
0.10498399212 0.093709777948 0.084906969417 0.079994676134 0.079802713445 0.08419763076 0.092188495726 0.10252170983 0.11406252906 
0.12594658847 0.13752051872 0.14828523505 0.15784522619 0.16594485767 0.17242680515 0.17720756192 0.18031828063 0.18192819761 
0.18227711505 0.18165518364 0.18035786752 0.17864319512 0.17671179071 0.17468819955 0.17261847005 0.17048023333 0.16820645816 
0.16570952708 0.16290834685 0.15974063839 0.1561808166 0.15222601866 0.14789505627 0.14321070189 0.1381728372 0.13275624858 
0.12693641964 0.12069188559 0.11402150958 0.10694840552 0.099540085194 0.091915510805 0.084247260237 0.076751851002 0.069689044055 
0.063313678464 0.057848337538 0.053425366035 0.05003752078 0.047513683619 0.045583349372 0.043959826591 0.042410713723 0.040824240656 
0.039219601825 0.037784224172 0.036852250059 0.036868838337 0.038277281521 0.041328446981 0.04603128775 0.052200621294 0.059579546988 
0.067891153116 0.076887461059 0.086343482689 0.096044216848 0.10576250627 0.11525030268 0.12423073937 0.13240346223 0.13945804034 
0.14511254582 0.1490944888 0.15118171844 0.15125335638 0.14932597246 0.14553562928 0.1401639268 0.13356053796 0.12614972051 
0.11839708933 0.11077294926 0.10374063022 0.097764083184 0.093255409035 0.090580392179 0.090013023022 0.091720329834 0.095734996484 
0.1019775349 0.11032252681 
