# vtk DataFile Version 5.1
vtk output
ASCII
DATASET POLYDATA
POINTS 219 double
77.111362641 71.644221491 29.51877289 77.270808881 71.756402577 29.290822346 77.444467148 71.857037964 29.067919893 
77.630774071 71.945366166 28.850068916 77.828218369 72.020660904 28.637187188 78.035337766 72.082207391 28.429132648 
78.25070687 72.129282789 28.225726498 78.472916092 72.161144875 28.02677205 78.700573576 72.176912133 27.832098591 
78.932172164 72.175907756 27.641486467 79.166181263 72.157371262 27.454761803 79.400982576 72.120591515 27.271773752 
79.634840636 72.064818995 27.09242176 79.865920114 71.989647042 26.916593124 80.092334189 71.894894145 26.744195307 
80.312104187 71.780455461 26.575179813 80.523295088 71.646665179 26.40947499 80.72412221 71.4942712 26.246982388 
80.912791833 71.324063219 26.087631677 81.087854716 71.137326839 25.931292865 81.248102363 70.935509917 25.77782774 
81.392390171 70.72002613 25.627128115 81.519974635 70.492510542 25.479067869 81.630305946 70.254566587 25.333555702 
81.722920444 70.007703314 25.19055979 81.797330617 69.753320395 25.050131704 81.853423823 69.492861618 24.912358527 
81.890979019 69.22762356 24.777431501 81.909805442 68.958847461 24.64562372 81.909587963 68.687730999 24.51731153 
81.890338003 68.415497136 24.392874175 81.85203 68.143350206 24.272729965 81.79470804 67.872509805 24.157287731 
81.718449726 67.604234676 24.046922708 81.623840125 67.339726325 23.941798101 81.511508639 67.080151471 23.841940891 
81.382208654 66.826628304 23.747183396 81.237041318 66.580097607 23.657058958 81.077281955 66.341312139 23.570836941 
80.904251073 66.110868864 23.48755788 80.719329839 65.889190084 23.406038491 80.523877866 65.67658647 23.324900242 
80.319334466 65.473175488 23.242606213 80.107064643 65.279044628 23.157508674 79.888407252 65.094275193 23.067866079 
79.664703677 64.918987074 22.971865363 79.437333663 64.753386491 22.867642774 79.207762014 64.597809671 22.753308613 
78.977591456 64.452761379 22.626984688 78.748620151 64.318958669 22.486845134 78.522929005 64.197417581 22.331110323 
78.302836778 64.089208281 22.158478714 78.09094626 63.995650846 21.967971397 77.890299411 63.918438145 21.758896956 
77.703752302 63.85879861 21.53181433 77.534561529 63.818349448 21.28757465 77.385277776 63.797881837 21.028337965 
77.258452417 63.798211454 20.756636297 77.155606106 63.81924137 20.475771452 77.077773771 63.860542591 20.18916002 
77.025270794 63.921165606 19.900226888 76.997738316 63.99971715 19.612142656 76.994456759 64.094600641 19.327687445 
77.014491537 64.204108564 19.04922465 77.056515255 64.326325281 18.778599769 77.119363554 64.459468567 18.517311452 
77.201953522 64.601808657 18.266569128 77.303009582 64.751560837 18.027157956 77.4214992 64.907091704 17.79971763 
77.556478319 65.066837653 17.584720426 77.707084335 65.229304284 17.382513851 77.872519903 65.393068192 17.193356211 
78.052091002 65.55677597 17.017504984 78.244994722 65.719160841 16.855058192 78.450452482 65.879071365 16.70610985 
78.667642049 66.035494126 16.570716329 78.895664626 66.187592155 16.44887837 79.133532057 66.334748258 16.340529239 
79.380220919 66.476569653 16.2456155 79.634509033 66.613039714 16.16381062 79.895188916 66.744429135 16.094791908 
80.161031559 66.871332579 16.038163471 80.430809564 66.99465722 15.993471248 80.703315445 67.115595016 15.960251852 
80.977347334 67.235604253 15.938013507 81.251702557 67.356356011 15.926232364 81.525155475 67.479686667 15.92445727 
81.79640124 67.60756625 15.932280278 82.063998362 67.74205439 15.94933945 82.32625565 67.885321326 15.975372585 
82.581258005 68.039421417 16.010046669 82.826793066 68.206251875 16.053036932 83.060173875 68.387600696 16.104076288 
83.278579431 68.584605552 16.162704687 83.478893555 68.797901688 16.228417443 83.658165258 69.027234939 16.300530157 
83.813586996 69.271623212 16.378276419 83.943285402 69.52912108 16.460731314 84.045620798 69.797460329 16.547033164 
84.120454618 70.073807448 16.636263544 84.167652362 70.355503193 16.727669117 84.188174156 70.639915205 16.82055445 
84.183077456 70.924734215 16.914351186 84.153440713 71.207921692 17.008575712 84.100499268 71.487697784 17.102795307 
84.02546563 71.762517062 17.196607383 83.929353894 72.030977508 17.289609131 83.81304872 72.291767313 17.381372009 
83.677306693 72.543608854 17.471420253 83.522775039 72.785208808 17.559212539 83.350023833 73.015215953 17.644126005 
83.159590473 73.23218803 17.725443806 82.952036962 73.434571841 17.802345955 82.728019923 73.620702132 17.873905971 
82.488349244 73.788797717 17.939085947 82.234022446 73.936914229 17.99671067 81.966554053 74.06340734 18.045642716 
81.68773016 74.166677699 18.084686359 81.39962933 74.245108045 18.112527536 81.104881649 74.298062529 18.128174287 
80.806235601 74.325080316 18.130581429 80.50658708 74.326493816 18.118936718 80.208749595 74.303390059 18.092672419 
79.915351922 74.257179736 18.051225515 79.628593381 74.190178958 17.994471162 79.350403594 74.104630687 17.922094168 
79.082185082 74.003302869 17.834105748 78.824971608 73.888984446 17.730528565 78.5795782 73.764393995 17.611282804 
78.346484474 73.63232126 17.476426055 78.125943396 73.495490456 17.326084959 77.918132035 73.356510331 17.160360693 
77.723226378 73.217921804 16.979332283 77.541252704 73.08217814 16.783311529 77.372204482 72.951577325 16.572765056 
77.21611695 72.82825893 16.348280245 77.073106014 72.714220522 16.110569262 76.942993903 72.610962354 15.860827839 
76.825673699 72.519684503 15.600311802 76.721033701 72.441248695 15.330377575 76.628577491 72.375774296 15.052649141 
76.547819615 72.323072382 14.768618266 76.478206831 72.282637138 14.479661378 76.418852174 72.253430282 14.187079114 
76.368876769 72.234345845 13.891913171 76.327323757 72.224198177 13.594997147 76.293169113 72.221806629 13.296971196 
76.265263352 72.225997155 12.998311508 76.242461029 72.235781248 12.699346415 76.223576361 72.250338956 12.400300054 
76.20738822 72.269040275 12.101324278 76.192644893 72.291455584 11.80252824 76.17806159 72.317363694 11.504006736 
76.162335377 72.346692063 11.205860479 76.144164453 72.379544005 10.908222254 76.122256973 72.41614735 10.611275809 
76.095337903 72.456828414 10.31527564 76.062165105 72.501973944 10.020563176 76.021675896 72.551911 9.7275461497 
75.972908739 72.606939672 9.436712287 75.914965848 72.667319663 9.1486392121 75.847373356 72.733044101 8.8638597899 
75.769755646 72.80402029 8.5829232213 75.681922811 72.880008456 8.3063394442 75.584066635 72.960542678 8.0344460258 
75.476424149 73.045113413 7.7675197673 75.359369648 73.133143084 7.5057207388 75.233477112 73.224004884 7.2490384676 
75.099290413 73.31713821 6.9974196173 74.95733031 73.412062091 6.75078253 74.808155052 73.508386145 6.5089930562 
74.652286582 73.60584679 6.2719262323 74.490167433 73.704321095 6.0395150954 74.322179025 73.803823714 5.8117557609 
74.148633515 73.904504774 5.5887293547 73.969767027 74.006644524 5.3706246613 73.785813138 74.11061587 5.1576789521 
73.596937348 74.216881824 4.9502472955 73.403282753 74.325963008 4.7487701221 73.204979383 74.438415035 4.5537737766 
73.002168017 74.554798066 4.3658514678 72.795081183 74.675576357 4.1855219627 72.58397828 74.801151077 4.0133095446 
72.369154619 74.931856757 3.8497342171 72.15102803 75.067817857 3.6950573211 71.930049811 75.209038425 3.5494024801 
71.706676603 75.355451817 3.4128077408 71.481407504 75.506811189 3.2849977882 71.254710849 75.662808527 3.1655582463 
71.027006422 75.823127474 3.0540139592 70.798671733 75.987399398 2.9497423004 70.570022919 76.155246693 2.8520565977 
70.341311087 76.326327713 2.7603033362 70.112730808 76.500339008 2.6738836577 69.884422582 76.676978109 2.5922031554 
69.65647879 76.855975165 2.514744778 69.428953652 77.037094888 2.4410804109 69.201870466 77.220126283 2.3708555436 
68.975232036 77.404890519 2.3038018763 68.749018762 77.591205186 2.2396652798 68.523203396 77.778914836 2.1782509478 
68.297754244 77.967878586 2.1193891509 68.072639743 78.157967866 2.062918133 67.847832357 78.349065693 2.0086705593 
67.623305875 78.541049452 1.9564239032 67.399042023 78.733808351 1.9059318449 67.17502782 78.927233929 1.8569012208 
66.951256616 79.121222208 1.8089961261 66.72772025 79.315657788 1.7618129073 66.504413905 79.510427462 1.7149189994 
66.281333271 79.705413088 1.6678486749 66.058475591 79.9004893 1.6201030148 65.835835235 80.095521747 1.5711803337 
65.613410767 80.29036968 1.5205710623 65.39120563 80.484882772 1.4677600254 65.169230852 80.678898978 1.4122251288 
64.947504182 80.872253814 1.3534877493 64.726056417 81.064771365 1.2910662513 64.504931659 81.2562665 1.2244949681 

VERTICES 220 219
OFFSETS vtktypeint64
0 1 2 3 4 5 6 7 8 
9 10 11 12 13 14 15 16 17 
18 19 20 21 22 23 24 25 26 
27 28 29 30 31 32 33 34 35 
36 37 38 39 40 41 42 43 44 
45 46 47 48 49 50 51 52 53 
54 55 56 57 58 59 60 61 62 
63 64 65 66 67 68 69 70 71 
72 73 74 75 76 77 78 79 80 
81 82 83 84 85 86 87 88 89 
90 91 92 93 94 95 96 97 98 
99 100 101 102 103 104 105 106 107 
108 109 110 111 112 113 114 115 116 
117 118 119 120 121 122 123 124 125 
126 127 128 129 130 131 132 133 134 
135 136 137 138 139 140 141 142 143 
144 145 146 147 148 149 150 151 152 
153 154 155 156 157 158 159 160 161 
162 163 164 165 166 167 168 169 170 
171 172 173 174 175 176 177 178 179 
180 181 182 183 184 185 186 187 188 
189 190 191 192 193 194 195 196 197 
198 199 200 201 202 203 204 205 206 
207 208 209 210 211 212 213 214 215 
216 217 218 219 
CONNECTIVITY vtktypeint64
0 1 2 3 4 5 6 7 8 
9 10 11 12 13 14 15 16 17 
18 19 20 21 22 23 24 25 26 
27 28 29 30 31 32 33 34 35 
36 37 38 39 40 41 42 43 44 
45 46 47 48 49 50 51 52 53 
54 55 56 57 58 59 60 61 62 
63 64 65 66 67 68 69 70 71 
72 73 74 75 76 77 78 79 80 
81 82 83 84 85 86 87 88 89 
90 91 92 93 94 95 96 97 98 
99 100 101 102 103 104 105 106 107 
108 109 110 111 112 113 114 115 116 
117 118 119 120 121 122 123 124 125 
126 127 128 129 130 131 132 133 134 
135 136 137 138 139 140 141 142 143 
144 145 146 147 148 149 150 151 152 
153 154 155 156 157 158 159 160 161 
162 163 164 165 166 167 168 169 170 
171 172 173 174 175 176 177 178 179 
180 181 182 183 184 185 186 187 188 
189 190 191 192 193 194 195 196 197 
198 199 200 201 202 203 204 205 206 
207 208 209 210 211 212 213 214 215 
216 217 218 
LINES 2 219
OFFSETS vtktypeint64
0 219 
CONNECTIVITY vtktypeint64
0 1 2 3 4 5 6 7 8 
9 10 11 12 13 14 15 16 17 
18 19 20 21 22 23 24 25 26 
27 28 29 30 31 32 33 34 35 
36 37 38 39 40 41 42 43 44 
45 46 47 48 49 50 51 52 53 
54 55 56 57 58 59 60 61 62 
63 64 65 66 67 68 69 70 71 
72 73 74 75 76 77 78 79 80 
81 82 83 84 85 86 87 88 89 
90 91 92 93 94 95 96 97 98 
99 100 101 102 103 104 105 106 107 
108 109 110 111 112 113 114 115 116 
117 118 119 120 121 122 123 124 125 
126 127 128 129 130 131 132 133 134 
135 136 137 138 139 140 141 142 143 
144 145 146 147 148 149 150 151 152 
153 154 155 156 157 158 159 160 161 
162 163 164 165 166 167 168 169 170 
171 172 173 174 175 176 177 178 179 
180 181 182 183 184 185 186 187 188 
189 190 191 192 193 194 195 196 197 
198 199 200 201 202 203 204 205 206 
207 208 209 210 211 212 213 214 215 
216 217 218 
POINT_DATA 219
SCALARS Curvature double
LOOKUP_TABLE default
0.21936698828 0.21122675234 0.20415905882 0.19851593599 0.19456313459 0.19246351189 0.19228301455 0.19397616215 0.19740676842 
0.20230276315 0.20830846548 0.21498220476 0.22181570454 0.22826942079 0.23382674875 0.23805702225 0.24065725736 0.24151808548 
0.24068071473 0.23838705711 0.23500565753 0.23098162161 0.22677642444 0.22281131857 0.21944601606 0.21695996678 0.21549601123 
0.21507396077 0.21554215476 0.21661220141 0.21784087516 0.21870350216 0.21862406588 0.21703944876 0.21352226165 0.20781487203 
0.19988530716 0.18999409578 0.17867700956 0.16672180685 0.15515346598 0.14522955864 0.13833614568 0.13582395766 0.13866460844 
0.14715015735 0.16090938065 0.17914911516 0.20091151071 0.22521226371 0.2510194684 0.27719692912 0.30245146513 0.3253216825 
0.3443714443 0.35831620919 0.36639532799 0.36831806801 0.36455520778 0.35603307102 0.34397218326 0.32961751332 0.31409661867 
0.29831049163 0.28298258104 0.26862790443 0.2556532027 0.24428426983 0.23460174035 0.22657303146 0.22009444335 0.21493588449 
0.21074794996 0.20707415657 0.20340174656 0.19919795714 0.19396749186 0.18731611309 0.17900316151 0.16903845945 0.1576913689 
0.14556231534 0.13363067423 0.12335187283 0.11663523289 0.11549897797 0.12132769855 0.13421901252 0.15314247218 0.17661382679 
0.20303543903 0.23080404316 0.25818952742 0.28332751915 0.3042904583 0.31944399897 0.32773909546 0.32912272453 0.32433936403 
0.31492553643 0.30261178281 0.28910186725 0.27577474577 0.26367230384 0.25352934801 0.2458037467 0.24075530317 0.23849679781 
0.23902038559 0.2422315069 0.24795525015 0.25591861795 0.26571082588 0.27680460949 0.2885371911 0.30011366937 0.31064128307 
0.31918632574 0.32481983495 0.32690369838 0.32507944567 0.31941912355 0.31038219528 0.29873423019 0.2854576763 0.27159040434 
0.25813289493 0.24598881129 0.23590169757 0.22840176909 0.22373042868 0.22183593783 0.22234055096 0.22454414689 0.22748433063 
0.23003385212 0.23107094446 0.22965315482 0.22512370235 0.21714427681 0.20585613474 0.19167554292 0.17526281222 0.15739668276 
0.13881699948 0.12016100958 0.10196284117 0.084659356077 0.06871371529 0.054822401588 0.044318429993 0.039407386943 0.041745908506 
0.050029780638 0.061645965302 0.074692952406 0.087994866932 0.100707874 0.11212959971 0.12167696061 0.12882853993 0.13330950134 
0.13499669972 0.13401925464 0.13073488711 0.12563879209 0.11930040255 0.11232319057 0.10523846974 0.098514789517 0.092532014203 
0.087614629888 0.084033916578 0.082038142357 0.0817886357 0.083359384755 0.086646606184 0.091404166836 0.097202172647 0.10349120349 
0.10963157837 0.11496957281 0.11892746004 0.12101143641 0.12096367719 0.11870922282 0.11438149514 0.1083061999 0.1009357714 
0.092750733565 0.08424063785 0.075825258377 0.067853526991 0.060572199662 0.054145243434 0.048624850715 0.044003393126 0.040189693305 
0.037058251261 0.034431242652 0.032116318098 0.029899984869 0.027578538994 0.024979456121 0.021972857177 0.018490232429 0.014524015648 
0.010173876644 0.0058693147038 0.0041634243417 0.0079106752654 0.013324001361 0.019108888741 0.02501330285 0.030941998864 0.036842250543 
0.042680565555 0.048429456106 0.054060876123 
