# vtk DataFile Version 5.1
vtk output
ASCII
DATASET POLYDATA
POINTS 249 double
112.39183253 87.414166761 33.517874905 112.17746353 87.299702932 33.34200938 111.96752925 87.173114728 33.169129901 
111.76251815 87.034802537 32.999348907 111.56299887 86.884983735 32.832819883 111.369361 86.724222635 32.669585829 
111.18210619 86.552834111 32.509749878 111.0017176 86.371179231 32.353394266 110.82856901 86.179761349 32.200539636 
110.66319091 85.978874669 32.051272001 110.50598819 85.768983729 31.905605865 110.35735753 85.550549777 31.763543452 
110.21790365 85.323861255 31.625156099 110.08794994 85.089480993 31.49038577 109.96800394 84.847826628 31.359230468 
109.85863766 84.599319318 31.231684041 109.76020624 84.344546449 31.107641529 109.67334279 84.083973801 30.987054824 
109.59848694 83.818218854 30.869776049 109.53608306 83.547926383 30.755620515 109.48679654 83.273728939 30.644401488 
109.45086463 82.996432429 30.535783407 109.42891651 82.716802047 30.429447703 109.42118913 82.435732681 30.324942679 
109.42807568 82.154147403 30.221776502 109.44983343 81.873043198 30.119370877 109.48659636 81.593463527 30.017080266 
109.53855145 81.316529257 29.914188972 109.60561276 81.043378308 29.809933087 109.68781426 80.775262031 29.703476132 
109.78489473 80.513422741 29.593972853 109.89668378 80.259249463 29.480515837 110.02276855 80.014130491 29.362232682 
110.16276737 79.779630165 29.23822296 110.31607797 79.557322101 29.107681663 110.48213034 79.349049234 28.969803073 
110.66001634 79.156522398 28.824033474 110.84900039 78.982059689 28.669757016 111.04781716 78.827532879 28.506850801 
111.25522204 78.695237728 28.335317322 111.46978462 78.587783557 28.155449783 111.68968624 78.507230535 27.968157063 
111.912976 78.455780477 27.77474156 112.13749282 78.435359333 27.577048213 112.36092049 78.447456078 27.377461621 
112.58087098 78.49296093 27.178849038 112.79498716 78.572028685 26.984439396 113.00105898 78.683984499 26.797644665 
113.19713894 78.827294586 26.621833661 113.3816474 78.999618835 26.460088851 113.55344732 79.197958386 26.314987049 
113.71188025 79.418865803 26.188432166 113.85676403 79.658683908 26.081558014 113.98835008 79.913788451 25.994716341 
114.10724259 80.180803413 25.927552393 114.21429936 80.456752839 25.87913753 114.31053269 80.739140334 25.848131706 
114.39687664 81.026009046 25.833175658 114.4745742 81.315733152 25.832280313 114.54460457 81.607190703 25.843777118 
114.60797717 81.899567827 25.865860822 114.6656271 82.192334781 25.896778558 114.71840009 82.485181542 25.934862934 
114.76707371 82.777965804 25.978509365 114.81236281 83.070668632 26.026176428 114.85488273 83.363355643 26.076431071 
114.89521593 83.656144517 26.127885327 114.93383725 83.949179643 26.17925226 114.9711829 84.242603466 26.229325431 
115.0075949 84.536547048 26.276975129 115.04335069 84.831109397 26.321168869 115.07864795 85.126348682 26.360991153 
115.11359834 85.422292423 26.395530143 115.14824183 85.718905715 26.424109353 115.18253078 86.016129127 26.445978455 
115.21634565 86.313851856 26.460556986 115.24949724 86.611927749 26.467348041 115.28170322 86.910178774 26.465703034 
115.31264653 87.208384749 26.455300923 115.34191582 87.506289402 26.43560336 115.36904687 87.803590652 26.406167747 
115.39353863 88.099945488 26.366622112 115.41476667 88.394923658 26.316365619 115.4321639 88.688072831 26.255145531 
115.44498018 88.978793355 26.182325402 115.45256161 89.266462252 26.097637286 115.45412597 89.550296864 26.000597173 
115.44890295 89.829410057 25.890839474 115.43619943 90.10285081 25.768179112 115.41513245 90.369365472 25.632164208 
115.38516281 90.627814677 25.482915473 115.34567561 90.876819173 25.32041689 115.29611075 91.114817322 25.1447319 
115.23629519 91.340444545 24.956383771 115.1661357 91.552220686 24.755912622 115.08569064 91.748599776 24.543960729 
114.99538829 91.928335342 24.321480567 114.89588283 92.090374881 24.08953759 114.78800768 92.233842938 23.849250226 
114.67273654 92.358003958 23.60174807 114.55125209 92.462573304 23.348237593 114.4248204 92.547617705 23.089887506 
114.29470598 92.613409417 22.827763469 114.16213897 92.660251703 22.562806152 114.02834674 92.689149389 22.295904415 
113.89441162 92.701110708 22.027771894 113.76131799 92.697033238 21.75897908 113.6298835 92.678450277 21.489977484 
113.50080336 92.646624806 21.22106998 113.37463617 92.602959041 20.952437671 113.25177101 92.548998496 20.684140566 
113.1325713 92.486056941 20.416142862 113.01718233 92.415727692 20.148311011 112.90583133 92.339284847 19.88044237 
112.79853501 92.258214633 19.612277902 112.69542128 92.173781265 19.343509646 112.5965059 92.087293843 19.073817674 
112.50187062 91.999949218 18.802868817 112.41162498 91.912885606 18.53033703 112.32585448 91.827128406 18.255952835 
112.24481163 91.743637808 17.979441743 112.16867251 91.663191751 17.700645381 112.09770781 91.586436332 17.419454447 
112.03232535 91.513943269 17.135790951 111.97280375 91.446006294 16.849721175 111.91950965 91.3828232 16.561343553 
111.87290535 91.324519566 16.27078815 111.83328191 91.270984099 15.978286902 111.80095938 91.22206118 15.684084513 
111.77637227 91.177619588 15.38842675 111.7596754 91.137364159 15.091621636 111.75116691 91.101110834 14.793954085 
111.75109411 91.068694088 14.49572361 111.75958984 91.039966172 14.197236116 111.77697725 91.014936654 13.898801835 
111.80332889 90.993593033 13.600738861 111.83903458 90.976136086 13.303398672 111.88421166 90.962731462 13.007139555 
111.93931587 90.953766465 12.712398701 112.00457499 90.949599194 12.419633047 112.08052445 90.950802859 12.129432628 
112.16749251 90.95790892 11.842430144 112.26612419 90.971679755 11.559474705 112.37674312 90.992744795 11.281448052 
112.5000596 91.022021311 11.009580722 112.63634661 91.06019526 10.745120821 112.78591823 91.108010833 10.489563668 
112.94900663 91.166201751 10.244654636 113.12543964 91.235232591 10.01213536 113.314734 91.315336419 9.7937193274 
113.51611532 91.406509128 9.5910235266 113.72847919 91.508441606 9.4053778442 113.95045292 91.620528114 9.2376869167 
114.18050145 91.741918603 9.0883437712 114.41709029 91.871657517 8.9573512894 114.65866964 92.008601783 8.8439758972 
114.90390226 92.151677874 8.7472124374 115.15166089 92.299884968 8.6657895994 115.40105488 92.452385424 8.5984841821 
115.65136157 92.608344699 8.5436218712 115.90207688 92.767130898 8.4998165481 116.15284385 92.928206927 8.4657157144 
116.40343427 93.091103514 8.4399547606 116.65371439 93.255461566 8.42145541 116.90363345 93.420945163 8.4090988756 
117.15318874 93.587289708 8.4020638402 117.40242693 93.754239988 8.399546308 117.65141692 93.921574052 8.4009897503 
117.90025164 94.089074048 8.4058975716 118.14903232 94.256531349 8.413984785 118.39786531 94.423742657 8.4250202978 
118.64685779 94.590497547 8.4389771208 118.89610444 94.756603726 8.4558300454 119.14569657 94.921851186 8.4757330397 
119.39570204 95.086055848 8.4988194486 119.64617283 95.249036798 8.5252842726 119.89714733 95.410606055 8.5553804592 
120.14863024 95.570628835 8.5892542513 120.40061613 95.728965922 8.6270805008 120.65308488 95.885492569 8.6689990292 
120.90599539 96.040147504 8.7150019579 121.15930665 96.192873634 8.7650661756 121.4129764 96.343635494 8.8191113556 
121.66695699 96.492474489 8.8768979279 121.92121137 96.639436791 8.9381803727 122.17570951 96.784602329 9.002652202 
122.43042518 96.928120137 9.0698961243 122.6853452 97.07013674 9.1395129583 122.9404614 97.210849134 9.2110347327 
123.19577048 97.350485776 9.283964041 123.45127873 97.4892733 9.3578116713 123.70698753 97.627485707 9.4320431992 
123.96290428 97.76538518 9.5061399774 124.2190326 97.903245166 9.579575841 124.47537165 98.041330128 9.6518437173 
124.73192021 98.179903157 9.7224127421 124.98866442 98.319193838 9.7908228082 125.24558963 98.45943072 9.85656658 
125.50266931 98.600798434 9.9192089951 125.75987066 98.743458446 9.9783209232 126.01715315 98.887558738 10.033449056 
126.27446699 99.033180643 10.084260724 126.53175603 99.180413182 10.130332917 126.78895713 99.329282292 10.171355919 
127.0460024 99.479785957 10.207043004 127.30281314 99.63192618 10.237018202 127.55931286 99.785625919 10.261117928 
127.81541473 99.940821254 10.279081796 128.07102453 100.09742734 10.290672258 128.32605226 100.25532175 10.295791017 
128.58038941 100.41440071 10.294222223 128.833929 100.57453647 10.285864134 129.08656135 100.73559964 10.270655932 
129.33814224 100.89748367 10.248379368 129.58855015 101.0600612 10.219058971 129.83762277 101.22323429 10.18255337 
130.08518006 101.38691428 10.13874447 130.33104179 101.55102383 10.087606896 130.5749421 101.71551764 10.028877425 
130.81665668 101.88035792 9.9625750718 131.05584351 102.0455454 9.8884349444 131.29217222 102.21110061 9.8063764656 
131.52521744 102.37708121 9.7161910038 131.75450557 102.54357784 9.617712144 131.97951137 102.71071561 9.510804904 
132.19957258 102.87866909 9.3952389973 132.41405391 103.04763486 9.2709872865 132.62203242 103.21788895 9.1377679505 
132.82271531 103.38970353 8.9956649148 133.01496292 103.56343756 8.8445256071 133.19762784 103.73945473 8.684418238 
133.3694376 103.91812993 8.5154877062 133.52875143 104.09988799 8.3378327229 133.67398859 104.28506756 8.1518552577 
133.80335496 104.4739535 7.9580656293 133.91488172 104.66672746 7.7571577361 134.00648265 104.86341079 7.5500707629 
134.07605837 105.06380236 7.3380423779 134.12180981 105.26741068 7.1226451309 134.14215352 105.47347805 6.9057094009 
134.13600082 105.68097961 6.6892847536 134.10291971 105.88868889 6.475516021 134.04303823 106.09527001 6.2665278444 
133.95730432 106.29939646 6.0642404297 133.84745545 106.49991604 5.8701562789 133.71530479 106.69583938 5.6854914234 
133.56303797 106.88644094 5.5110130042 133.3930481 107.07129708 5.3470194372 133.20754138 107.25018753 5.1935401957 

VERTICES 250 249
OFFSETS vtktypeint64
0 1 2 3 4 5 6 7 8 
9 10 11 12 13 14 15 16 17 
18 19 20 21 22 23 24 25 26 
27 28 29 30 31 32 33 34 35 
36 37 38 39 40 41 42 43 44 
45 46 47 48 49 50 51 52 53 
54 55 56 57 58 59 60 61 62 
63 64 65 66 67 68 69 70 71 
72 73 74 75 76 77 78 79 80 
81 82 83 84 85 86 87 88 89 
90 91 92 93 94 95 96 97 98 
99 100 101 102 103 104 105 106 107 
108 109 110 111 112 113 114 115 116 
117 118 119 120 121 122 123 124 125 
126 127 128 129 130 131 132 133 134 
135 136 137 138 139 140 141 142 143 
144 145 146 147 148 149 150 151 152 
153 154 155 156 157 158 159 160 161 
162 163 164 165 166 167 168 169 170 
171 172 173 174 175 176 177 178 179 
180 181 182 183 184 185 186 187 188 
189 190 191 192 193 194 195 196 197 
198 199 200 201 202 203 204 205 206 
207 208 209 210 211 212 213 214 215 
216 217 218 219 220 221 222 223 224 
225 226 227 228 229 230 231 232 233 
234 235 236 237 238 239 240 241 242 
243 244 245 246 247 248 249 
CONNECTIVITY vtktypeint64
0 1 2 3 4 5 6 7 8 
9 10 11 12 13 14 15 16 17 
18 19 20 21 22 23 24 25 26 
27 28 29 30 31 32 33 34 35 
36 37 38 39 40 41 42 43 44 
45 46 47 48 49 50 51 52 53 
54 55 56 57 58 59 60 61 62 
63 64 65 66 67 68 69 70 71 
72 73 74 75 76 77 78 79 80 
81 82 83 84 85 86 87 88 89 
90 91 92 93 94 95 96 97 98 
99 100 101 102 103 104 105 106 107 
108 109 110 111 112 113 114 115 116 
117 118 119 120 121 122 123 124 125 
126 127 128 129 130 131 132 133 134 
135 136 137 138 139 140 141 142 143 
144 145 146 147 148 149 150 151 152 
153 154 155 156 157 158 159 160 161 
162 163 164 165 166 167 168 169 170 
171 172 173 174 175 176 177 178 179 
180 181 182 183 184 185 186 187 188 
189 190 191 192 193 194 195 196 197 
198 199 200 201 202 203 204 205 206 
207 208 209 210 211 212 213 214 215 
216 217 218 219 220 221 222 223 224 
225 226 227 228 229 230 231 232 233 
234 235 236 237 238 239 240 241 242 
243 244 245 246 247 248 
LINES 2 249
OFFSETS vtktypeint64
0 249 
CONNECTIVITY vtktypeint64
0 1 2 3 4 5 6 7 8 
9 10 11 12 13 14 15 16 17 
18 19 20 21 22 23 24 25 26 
27 28 29 30 31 32 33 34 35 
36 37 38 39 40 41 42 43 44 
45 46 47 48 49 50 51 52 53 
54 55 56 57 58 59 60 61 62 
63 64 65 66 67 68 69 70 71 
72 73 74 75 76 77 78 79 80 
81 82 83 84 85 86 87 88 89 
90 91 92 93 94 95 96 97 98 
99 100 101 102 103 104 105 106 107 
108 109 110 111 112 113 114 115 116 
117 118 119 120 121 122 123 124 125 
126 127 128 129 130 131 132 133 134 
135 136 137 138 139 140 141 142 143 
144 145 146 147 148 149 150 151 152 
153 154 155 156 157 158 159 160 161 
162 163 164 165 166 167 168 169 170 
171 172 173 174 175 176 177 178 179 
180 181 182 183 184 185 186 187 188 
189 190 191 192 193 194 195 196 197 
198 199 200 201 202 203 204 205 206 
207 208 209 210 211 212 213 214 215 
216 217 218 219 220 221 222 223 224 
225 226 227 228 229 230 231 232 233 
234 235 236 237 238 239 240 241 242 
243 244 245 246 247 248 
POINT_DATA 249
SCALARS Curvature double
LOOKUP_TABLE default
0.14915681271 0.14763128766 0.14620137992 0.14489900756 0.14375197506 0.14277934242 0.14200088956 0.14143520853 0.14110047783 
0.1410198435 0.14120948556 0.14168288898 0.1424491389 0.14350099651 0.14482352064 0.14639301422 0.14817331208 0.15012175687 
0.15219732022 0.15435436312 0.15656537871 0.15879635925 0.16104595806 0.16333620148 0.16572339692 0.16829682022 0.17117521156 
0.17450910746 0.17845799906 0.18322721387 0.18902279735 0.19604416764 0.20445456101 0.21436849083 0.22581452139 0.23874003084 
0.25303935066 0.26858776575 0.28508786452 0.3021212073 0.31916442277 0.33563545298 0.3508727131 0.36424128932 0.37506157579 
0.3827504676 0.38672013125 0.38648157024 0.38165348873 0.37228472766 0.35859555639 0.34090224081 0.31972500503 0.29591995118 
0.27034746718 0.24388577963 0.21723947589 0.19100732284 0.16559126693 0.14128238719 0.11828821131 0.096723116961 0.076718409794 
0.058483744401 0.042485824627 0.029943386314 0.023582744535 0.025737279656 0.033210024587 0.042238284813 0.051252085228 0.059747630029 
0.067578809219 0.074779470233 0.081418547045 0.087607076832 0.093489861065 0.099226401136 0.10501012742 0.11100558602 0.11738805386 
0.12428370067 0.13181010552 0.14000665574 0.14888660806 0.15841329806 0.16851363781 0.17903932054 0.18976944833 0.20043835799 
0.21074279489 0.22033392944 0.22885663466 0.23596934326 0.24139230579 0.24486926072 0.24626398718 0.24551417748 0.2426878563 
0.23792977088 0.23138961128 0.2231934777 0.21351498829 0.20255853719 0.19054115977 0.17766044267 0.16408648431 0.15003261387 
0.13568571035 0.12128133314 0.10707117965 0.093364149312 0.080537612088 0.069167837377 0.059983947367 0.053932961087 0.051704448679 
0.05325639239 0.057656912637 0.063643201473 0.070172105372 0.07651581073 0.082264538175 0.087204135034 0.091289264156 0.094557488868 
0.097109149929 0.099095094828 0.10066432744 0.10195663436 0.10310715996 0.10424751904 0.1055278714 0.1071227623 0.10925257076 
0.11213024768 0.11600423477 0.12106967835 0.12754159462 0.13553477071 0.14511439317 0.15622644481 0.16873141557 0.18234385259 
0.19666675994 0.21111096583 0.22493037491 0.23719045381 0.24698860712 0.25347017912 0.25585503525 0.25359418877 0.24668008313 
0.23557136206 0.22104085898 0.20406726015 0.18562132738 0.16658611212 0.14768397746 0.12948189396 0.11238091645 0.096657764736 
0.082504851242 0.070099052765 0.059562322923 0.050986691057 0.044391757261 0.039739122572 0.036851304317 0.035497718377 0.035357011893 
0.03617270434 0.037678890554 0.039675338565 0.041961028909 0.044333253552 0.046576983565 0.048472411753 0.049831344242 0.050489028606 
0.050345499182 0.049340044355 0.047445314164 0.044694416488 0.041136966307 0.036865077089 0.031987462864 0.026599452853 0.020818248186 
0.014830454525 0.009042897983 0.0053018537631 0.0078967166643 0.013542159035 0.019625371965 0.025647646427 0.031451277024 0.036954193771 
0.042130257991 0.046960090975 0.051420602203 0.055500633913 0.059197923345 0.062524566201 0.065492828513 0.068109314524 0.070398791023 
0.072384768768 0.074100228718 0.075593398148 0.07691271078 0.078117045172 0.079267342122 0.080427717864 0.081665046675 0.083042680103 
0.084627575174 0.086469292543 0.088626417363 0.091135288319 0.094042001987 0.097388697277 0.10122278284 0.10560903755 0.11062349102 
0.11637240034 0.12296088915 0.13054362529 0.13924699509 0.14921967517 0.1605690065 0.17334880738 0.18756130954 0.203065833 
0.21960043885 0.23675425028 0.2539130778 0.27027310236 0.28488183523 0.29676317817 0.30504096465 0.30914478255 0.30887058033 
0.30446270461 0.29655629324 0.28593935415 0.27348521476 0.26000339303 0.24614304614 
