# vtk DataFile Version 2.0
00002911.nii_R_ICA_labeled
ASCII
DATASET POLYDATA
POINTS 269 float
85.84209275617921 84.4563965767368 36.574517083978655
85.95354397586705 84.52475256313004 36.304631581253005
86.08892530624888 84.59691777682174 36.04695939111642
86.24729359747283 84.67137146292166 35.80342163537969
86.42695772356157 84.74640627506096 35.57531206313
86.6258854391767 84.82022868849582 35.36334857509853
86.8412856599896 84.89115245120095 35.16706124895211
87.07066281366397 84.957636768223 34.985589884628126
87.3118353072163 85.01818710633138 34.817832870204924
87.56250445356596 85.07163629290336 34.661996451192806
87.8208150162929 85.11687913885744 34.51635969820662
88.08517919273932 85.15280887518324 34.379228015606806
88.35410288581194 85.17846441311382 34.24881588199777
88.62620511838561 85.19300107182855 34.12337802158602
88.9002019441607 85.19554996370698 34.00129105665114
89.17480823559076 85.1850970154621 33.88101252679374
89.44868513683686 85.1610107342872 33.76104030803053
89.7204610042763 85.12263946436998 33.640021099647505
89.98863170669892 85.06924273867983 33.516688966213096
90.25166353737966 85.00049433594192 33.38995344875194
90.50800331863702 84.91627713985963 33.258920178652104
90.75584927886871 84.81627397428157 33.12275353197251
90.99376990652401 84.70104519724048 32.981040488221815
91.2201174181825 84.57089081559597 32.83342080013548
91.43357876779132 84.42660973677862 32.679858943801406
91.63303899815125 84.26916500255464 32.52051271578634
91.8174415591114 84.0995253125544 32.355639143203334
91.98635538650693 83.91904740320436 32.18574899683677
92.13909959655773 83.72879396866088 32.011274054770396
92.27569759688187 83.53013266020304 31.832824409655785
92.39621410527825 83.32428664212858 31.650955306922167
92.50057066809106 83.11232442354944 31.4661385971487
92.58931491196346 82.89544570089133 31.278884438686763
92.66282757254031 82.67467565272403 31.08958376582946
92.72149694110139 82.45096950275693 30.898548094894675
92.76565543808586 82.22522744231031 30.706004306575835
92.79589951025365 81.99833715401256 30.51212588950596
92.81265096244617 81.7711226313096 30.31699390301396
92.81630126014068 81.54438675418184 30.120621297940986
92.80720414866126 81.3189229898446 29.922961600443706
92.78561089054907 81.0955410892128 29.723911412729162
92.7518155677737 80.87505602978928 29.52333591383622
92.70610432741773 80.65829142863201 29.321075966938395
92.64868958775376 80.44611133971648 29.116948532839146
92.57977030135925 80.23941723183907 28.910763866396337
92.49954640646877 80.03914971612494 28.702337820296034
92.4081935618026 79.84631930457036 28.49149382365937
92.30593107925954 79.66198023914497 28.27808315653348
92.19312849072415 79.48712987926582 28.06201988758998
92.07014961707785 79.32283164461816 27.843248042512112
91.93743793873152 79.17015503232248 27.621763005522492
91.79550104031 79.03020445738369 27.397607612639995
91.6449258984387 78.90412528208283 27.170875934463556
91.48652793960504 78.79282122624564 26.941758751076872
91.321143523971 78.69727106915698 26.710480195468673
91.14971277171144 78.6184062026935 26.477320446338336
90.97324290979026 78.55727446056133 26.24260397865639
90.79293101791606 78.51459122623267 26.006737152747974
90.61004701707661 78.4910260331492 25.770172170452582
90.42594048222199 78.48723261175302 25.53341302165607
90.24207119128154 78.50396486596534 25.29703335759778
90.06000793542245 78.54163645719318 25.06167533373764
89.88138159187437 78.60047915836063 24.828037417183594
89.70791036972113 78.68070849311644 24.59689305404969
89.54150684635044 78.78267010541782 24.369148227041148
89.38391657225408 78.90585158307893 24.14567462729155
89.23699265254217 79.04986170564813 23.92744654169545
89.1028418661877 79.21442643722611 23.715625005621707
88.98305732328427 79.39825879314235 23.511177550056143
88.8794481140627 79.60028994704498 23.315246305327666
88.79370159300791 79.81913408510422 23.128984844209416
88.7269216789814 80.0528300752684 22.953300536225516
88.68057484663939 80.29964910701655 22.78937998701904
88.65519131595468 80.55725106817758 22.637944267522197
88.65145130728395 80.82344392408257 22.49987199553934
88.6696508379321 81.09590445127252 22.375891866775284
88.70946437147298 81.37225271566969 22.266407515942316
88.77097215685964 81.65024928346641 22.17219234312502
88.85310809179919 81.927685181076 22.093299582924192
88.95518254108956 82.20252025960636 22.030130089692204
89.0761539327924 82.47285691051529 21.98291228031395
89.21454721882421 82.73707954944202 21.951576716451374
89.36911029891878 82.9936525815072 21.936344490554113
89.53813033304714 83.24141188894127 21.93706912700763
89.71980903127599 83.47948475667454 21.953522790678146
89.91243339784967 83.70714101309008 21.985609995721
90.1141376560016 83.92400458583501 22.03303650598466
90.32299410059436 84.13008128691878 22.095306214764086
90.53718284355226 84.32556979078248 22.17197517789255
90.75493690318164 84.51092072667592 22.262550940152813
90.97455726466052 84.68680439781528 22.366525943987053
91.19442905992646 84.85424107927777 22.483154075480147
91.41307949643296 85.014334579455 22.611781462808732
91.6291460865254 85.16832749945127 22.751733087516264
91.84136654863 85.31757242146317 22.90231603473946
92.04856418050343 85.46350324784608 23.062819507167436
92.24963048655472 85.6076056684899 23.232511903759807
92.44350322663986 85.75139229000834 23.41063398992963
92.62913910853668 85.89638263990557 23.596389862733187
92.80548538892731 86.04408576698945 23.788932686766703
92.97145654481994 86.1959819895885 23.987342462934834
93.12591067822103 86.35350572395139 24.190599682695158
93.26756387535791 86.51806524285854 24.397563753974367
93.39520628242684 86.69088115337121 24.606886257442966
93.50750277753554 86.87305148990025 24.8170552041979
93.6030641529991 87.06547674532645 25.026345387434013
93.68037810608186 87.2688622498014 25.232775863774805
93.73780560611546 87.48366578544665 25.434046625448516
93.77423557076902 87.70969825484806 25.62775376683064
93.78808726513742 87.94663776092459 25.81105517717411
93.7786500417455 88.19335638192902 25.981248393419417
93.7449741548724 88.44844069484436 26.135242851563465
93.68722795341962 88.70975595010924 26.27048632722299
93.60541317453362 88.97490899947174 26.3841020004852
93.50068868666794 89.24106548812607 26.47406856882168
93.37462485295028 89.50531006356073 26.53877758050952
93.22899447881721 89.76464916735748 26.576752133210938
93.06648093882269 90.01638770169288 26.587784016366008
92.88979183193757 90.25813984354797 26.57194447939553
92.70164673502181 90.48772930767984 26.529415815720643
92.50512656111798 90.70385301342435 26.461634588890195
92.3029250346959 90.90521638069885 26.36944655581504
92.09778152563014 91.09152433280443 26.25480128965279
91.89210088817883 91.26233798901019 26.118922236824762
91.68805607081455 91.41818739979074 25.963918191561266
91.48755494382983 91.5594640958856 25.791301085366666
91.29223021811858 91.68696537131012 25.602746353399496
91.10337612921933 91.80180560236816 25.399986909751924
90.92206725751352 91.90512320036376 25.1845236784231
90.74922322677958 91.99808428119096 24.95767685677706
90.5853864139572 92.08212205363748 24.72087784487656
90.43094322473178 92.1586288860708 24.475367785251684
90.28612079477769 92.22898821250719 24.222266761312163
90.1509777779186 92.29457730944425 23.962610299095367
90.02542353671956 92.35674675251944 23.697354226549763
89.9092696826335 92.41680481662374 23.42736792397363
89.80206096044598 92.47602488177154 23.15352228675946
89.7032989121513 92.53558128273143 22.876588710290058
89.61237923268739 92.59656684247695 22.597288800762662
89.52860241734729 92.65998199824955 22.316299586712194
89.45118235782424 92.7267219558601 22.034257494715416
89.3793033292358 92.79761492209467 21.75176181169593
89.3119742893272 92.87328832436751 21.469385232652172
89.24821817667826 92.95428876418383 21.187657914608028
89.18702707579976 93.04105815962163 20.907081831874272
89.12737446595372 93.13394192618944 20.628136572802173
89.06822349233441 93.23326992285106 20.35131336015854
89.0085334666923 93.33916865127446 20.07705473538644
88.94730222250232 93.45174967264113 19.805815476938907
88.88355978228414 93.57108349354127 19.538065121211474
88.81634819248302 93.69724711685764 19.274325630900606
88.74476387653324 93.83025186362758 19.015139834660616
88.66800498749363 93.97002696686793 18.761050686724037
88.58530894440891 94.11652391996473 18.512677252460552
88.49591129736783 94.26973277042629 18.270761626102388
88.39923053475593 94.42950276176089 18.036001248617133
88.29479427078653 94.59563659052554 17.809115435124927
88.18213630981604 94.76795703694262 17.590947226936752
88.06092365826709 94.94619383030007 17.382330343470418
87.93106946499888 95.12992233965656 17.18393102320716
87.79245330249354 95.31874494065505 16.996549881311307
87.64514518519356 95.51214336927256 16.820832333412998
87.48943579681195 95.70948627639986 16.657156912215996
87.32554695158352 95.91017117328936 16.506008321235893
87.15390441729278 96.1135072434636 16.36754055882101
86.97501441016136 96.31879447321644 16.24169669354878
86.78930383454748 96.52536796921238 16.128463421053766
86.5972861568701 96.73256280669136 16.027551288062117
86.39949651390451 96.93975567797311 15.938471268060615
86.19638744529067 97.14637502665526 15.860739325602848
85.98831885682256 97.35187717465695 15.793919244030938
85.77570439098503 97.55578671789878 15.73730510301046
85.55886039078129 97.75766857681957 15.690268210994375
85.33804241321342 97.95712187695555 15.652201111008695
85.11345631878432 98.15377499154144 15.622514846452846
84.88523575801365 98.34725152256253 15.600709073936894
84.65354920596057 98.53725996212259 15.586166180122996
84.41850059855166 98.72349992798694 15.578390287570535
84.18017584469803 98.90569003056982 15.576922242536579
83.93865152078068 99.08356970875516 15.58133806361418
83.69397747372389 99.25686293561722 15.591290512674389
83.44625675998466 99.42539096521175 15.606379790873985
83.19559838600686 99.5890088503278 15.626243759433386
82.9421222176079 99.74761115965583 15.65054473023777
82.68595976069686 99.90113382777695 15.67896103953339
82.42726720426866 100.04958474986347 15.7111588180052
82.1662609270276 100.19313549526738 15.746731456296496
81.90315396414296 100.33200857859589 15.785281849830252
81.63816223443605 100.46649581707173 15.826395685291413
81.37153984829226 100.59705579200697 15.86958029150025
81.10354868664689 100.72425504253792 15.914301062271692
80.8344381593271 100.84871639725856 15.95999867851991
80.56446073336191 100.9711503957418 16.006062024567417
80.29388859069078 101.09237387380777 16.051838310673546
80.02298508052506 101.21321501444031 16.096655230546187
79.75202679325331 101.33454367663452 16.13978906447189
79.48130528160108 101.45720804715178 16.180561029524668
79.21112706015019 101.58202656735382 16.21827664773262
78.94183598627804 101.70980958298317 16.25220796347427
78.67376832126058 101.84119244142147 16.281783972036884
78.40729096183259 101.97675949472026 16.306422721987204
78.14280042654978 102.11702023296034 16.32556504709043
77.88063774606086 102.26223468375167 16.338880357285934
77.62116510741339 102.41262185423048 16.346032086719184
77.36475852448328 102.56834026701466 16.346707280842402
77.11168974513457 102.72931887364743 16.340836308906916
76.86224223187659 102.89548744109962 16.328326611460415
76.61671281907303 103.06676881476434 16.309074715586277
76.37532314656652 103.24297707071561 16.283113595883986
76.13828876813169 103.4239250694759 16.25048532349698
75.90584932317482 103.6094541190163 16.21120286880454
75.67826932470429 103.7994259820192 16.165261392064366
75.45588476112822 103.99375340446024 16.112589991315183
75.23898633906258 104.19229911277948 16.05320892556356
75.02796932628284 104.39499270977997 15.987043868154379
74.82329371705512 104.60178058934765 15.913990727069907
74.62548967589761 104.81261623333843 15.833918194459143
74.43519848629703 105.02746618544724 15.746637898374225
74.25312060042972 105.24626350089598 15.651965207920389
74.07995699504944 105.4688735771192 15.549766321538396
73.9165071513308 105.69512795661076 15.43987060085459
73.76360764472896 105.92478248813619 15.322125393743939
73.622275325955 106.15753749188747 15.196300061139995
73.49323615091264 106.39290926382867 15.062404846686844
73.37727326099167 106.63033781676107 14.920426257206339
73.27523293059562 106.869160098671 14.770331597372966
73.18774007284027 107.10857985543554 14.612223323423434
73.11512962561403 107.34771325170215 14.446340063957912
73.0578468422784 107.58559566309607 14.27283239443691
73.01597125926119 107.82121992165303 14.09199737335565
72.98931081050809 108.05359695766084 13.904208953576315
72.97783645210998 108.2816683750264 13.709717736839453
72.98102690971976 108.50449763134836 13.508939414562969
72.99829019638248 108.72120948260877 13.302264284070098
73.02918305676744 108.9308715348528 13.089978375895383
73.07284158102436 109.13280609671071 12.872505753839729
73.12845593861844 109.32639094819818 12.650218827364691
73.19532434718857 109.51098525681886 12.423426800139728
73.27257571010064 109.68615376424887 12.192494314106714
73.35930955301825 109.8516053141979 11.9577914178989
73.45470274691758 110.00709074585967 11.719654939803982
73.5580378205925 110.1523277870905 11.478379515487768
73.66842734119997 110.28737758630183 11.23432695663008
73.78511380869857 110.41227225339526 10.987806205862864
73.90738605812773 110.52710252757373 10.73910554215206
74.03460865351451 110.63194332648509 10.488481209601654
74.16613298343431 110.72703260228728 10.236192482505327
74.30136489955046 110.81265021918952 9.982474788323344
74.43977962018538 110.88905413880103 9.727532837328356
74.58089860144882 110.9565113307108 9.471549071949907
74.72430312775975 111.01521383631776 9.21467833429043
74.86957981335895 111.06547190121259 8.95706934890762
75.01636444062387 111.1075429918919 8.69884832621654
75.16432949774654 111.14163598916348 8.440124058659011
75.31317278722867 111.16792992243803 8.18099249597407
75.46261485218014 111.18649194677892 7.921536091112338
75.61237720698483 111.19750976464057 7.661834733937867
75.76219775439051 111.20108252624969 7.401957857456463
75.91181939953442 111.19727137573066 7.141969306169813
76.06097991013247 111.18605424976165 6.881929592537895
76.20941616185954 111.1674615951915 6.621898574840849
76.35686720366392 111.14153832298861 6.361934852750382
76.50306357427422 111.10827404107232 6.102097827084657
76.6477019410483 111.06753836272534 5.84245304287728
76.79051427392676 111.01940436388222 5.5830645314964595
76.93121065697835 110.96385281997568 5.324002334699855
77.06945238029465 110.9007466779009 5.065349376598217
77.20494749900513 110.8301267840653 4.807186627242185
77.3373877548443 110.751993767735 4.54960367554503
LINES 1 270
269 0 1 2 3 4 5 6 7 8 9 10 11 12 13 14 15 16 17 18 19 20 21 22 23 24 25 26 27 28 29 30 31 32 33 34 35 36 37 38 39 40 41 42 43 44 45 46 47 48 49 50 51 52 53 54 55 56 57 58 59 60 61 62 63 64 65 66 67 68 69 70 71 72 73 74 75 76 77 78 79 80 81 82 83 84 85 86 87 88 89 90 91 92 93 94 95 96 97 98 99 100 101 102 103 104 105 106 107 108 109 110 111 112 113 114 115 116 117 118 119 120 121 122 123 124 125 126 127 128 129 130 131 132 133 134 135 136 137 138 139 140 141 142 143 144 145 146 147 148 149 150 151 152 153 154 155 156 157 158 159 160 161 162 163 164 165 166 167 168 169 170 171 172 173 174 175 176 177 178 179 180 181 182 183 184 185 186 187 188 189 190 191 192 193 194 195 196 197 198 199 200 201 202 203 204 205 206 207 208 209 210 211 212 213 214 215 216 217 218 219 220 221 222 223 224 225 226 227 228 229 230 231 232 233 234 235 236 237 238 239 240 241 242 243 244 245 246 247 248 249 250 251 252 253 254 255 256 257 258 259 260 261 262 263 264 265 266 267 268

POINT_DATA 269
SCALARS curvature float
LOOKUP_TABLE default
0.3196757936806459
0.31912354748632926
0.311841719559576
0.2981358032982786
0.27920919358613944
0.2568321802331741
0.2330229915840068
0.20956063987357387
0.18798296530433367
0.16947003321233614
0.15496266095461247
0.14518950015379226
0.14046597650792528
0.1406151733841602
0.14502258122501258
0.15275742213448565
0.16263354384956105
0.1736124037249934
0.18487827870713638
0.19569994032575877
0.20543822367815964
0.2134855983740072
0.2194386232073675
0.2229707509900114
0.224050744241273
0.2229003498182725
0.2197811998699262
0.2149853549149479
0.20879909127468424
0.20162728980892175
0.19384467967258934
0.1858073740486143
0.17785539898511854
0.1702482974761455
0.16317132261532774
0.1567905613165964
0.1512625174426162
0.1467413450009043
0.14332220814811383
0.14106056600684133
0.1399961034649426
0.14011923334093185
0.1413933079779233
0.14371774675251042
0.1469616857293619
0.15098225978578336
0.1556275606028885
0.16074005776128536
0.16613809470504437
0.17166673386993642
0.17722401880579655
0.18275054647395092
0.18821834823900102
0.1936292233877478
0.1990111194250789
0.20438160917739723
0.20977394997994012
0.21529337447202782
0.22107009959967716
0.22718158668587465
0.23363341187439848
0.24039419771755846
0.2473834190930447
0.25445543516244584
0.26152164198909034
0.2685547695054625
0.2754142418953007
0.2817747029382173
0.28730788830382215
0.291825950683914
0.29517413721424324
0.29734499197768816
0.298414623847511
0.2984451175558924
0.2973735252351612
0.29517759958783785
0.2920623522256924
0.288185098212831
0.2836711047434702
0.27857162879039465
0.2728496564691273
0.26637452925166333
0.2589999781995396
0.2507261781940704
0.2415833684032497
0.23155115822438616
0.22064208420048073
0.20892572937754061
0.1965239040075787
0.1836755165768343
0.17081042591315967
0.15843169236590676
0.14704179146323462
0.1371892737104259
0.12951871226605796
0.12470139758509209
0.12328142312834083
0.12560611605281707
0.13169516064037431
0.1412199117562119
0.1536426946839418
0.16842264306320873
0.18509608505628156
0.2032148802630403
0.22244540655517742
0.24251163845126592
0.2630287644676165
0.28337821349415
0.3028706219499762
0.3209157432537929
0.3369338836543013
0.3503514350308473
0.3607607834135692
0.3676732953024913
0.3706967889941529
0.3697893080841148
0.3653741915820354
0.3579889432862661
0.34806673775573704
0.3359841444121897
0.32221309015121496
0.3070683120492816
0.29106807982335164
0.27471750198874934
0.2583288338965787
0.24201601544994927
0.22587612510792557
0.21007961396025746
0.19473427867327694
0.179994256691518
0.16603005841862314
0.15292445435867513
0.14065238067569366
0.12917957493287394
0.11857635186079829
0.1089339172565211
0.10029459562594074
0.0927252062247639
0.08628406526052755
0.08097675581486607
0.07678561705599372
0.07378833497470706
0.07208179749044734
0.07174019973426841
0.07278968903808919
0.07519833218990396
0.07888359962768846
0.08368955769445437
0.08946195696827301
0.09605736784513028
0.10331305322883082
0.11104212732400036
0.1190656006385583
0.12717659752246013
0.13516747776331645
0.14284665037106242
0.15002859165433896
0.15648843778505753
0.16196276819828476
0.16621360792967105
0.16901846818539182
0.17020766329546544
0.1697996949977009
0.16787983017687505
0.164557550245638
0.15994248898956046
0.1542018292254277
0.14764654373661096
0.14059367458662062
0.13333467103840194
0.12614030852323396
0.11923672154953695
0.11280283337303712
0.10698216047359532
0.10187691529175852
0.09755615457991058
0.09399478806662875
0.09112524786069608
0.08883126534393017
0.0869388917071547
0.08524341738362042
0.08350665703811633
0.08149957680305606
0.07900645688327368
0.07582258502879916
0.07175527433664951
0.06664254291133768
0.06035985792081123
0.05291472117145433
0.04440996583104116
0.035032631620422805
0.025168907068983844
0.016145060411439774
0.012943519508554708
0.019733551311264776
0.030654450882779207
0.04237096835790636
0.05389899136588436
0.06469962890575262
0.07441775381825741
0.08279902443119673
0.08965571288747917
0.09503365355860394
0.09902188003827853
0.1017249901362423
0.10331063742248578
0.10401805345584307
0.1041843474007428
0.10415339224354236
0.1042098040841332
0.10461541231989208
0.10559539150215053
0.10735671981779916
0.11003736788605968
0.11368280176067093
0.11829624588190683
0.12381865265481896
0.13015659744132355
0.13715433232528937
0.14459120591691962
0.15223116034390502
0.159833201989921
0.16712854760677523
0.173851721389365
0.17973979513365193
0.18454522572151655
0.18807116809993715
0.19022494575704288
0.19107305365505425
0.190753272573057
0.18938746900643771
0.1870742636086709
0.18398698054473162
0.18031129284625208
0.17619627743284547
0.17179543809655556
0.167213380368594
0.16246858953960716
0.1575307151695523
0.1524007294543497
0.1471132215948447
0.14169884369972346
0.13620510355342655
0.13068376447784924
0.12518693386077212
0.11976509558851317
0.11448442122830225
0.10943490562201393
0.10470206038376699
0.10034251822220121
0.09641390119107142
0.09295769652789909
0.0900119928367254
0.08758930379786045
0.08566695504073897
0.0842286106508577
0.08323837311690221
0.08266372014084446
0.08246455800815668
0.08259826960788462
0.08302242677943826
0.08369637455936996
0.08458606992790808
0.0856729472435805
0.0869372655324231
0.08836622244918345
0.0899520852889885
0.09168491992825709
0.0935583697477942
SCALARS torsion float
LOOKUP_TABLE default
0.0798562424103752
0.09837067005684426
0.12093750825038109
0.14820465363523555
0.18116111556188585
0.22108053348881299
0.2692619495688588
0.3268402193413717
0.3929789222588004
0.4641117928607903
0.5305076055285914
0.5774538638062372
0.5910112595313394
0.5672015166333764
0.514475732048619
0.44700073040905264
0.37918953915291653
0.3193673409143283
0.26904602971582153
0.22719065987071763
0.19214582912796874
0.16254461639607448
0.13712901357129195
0.11503809860328046
0.09740137822772242
0.08338639359391951
0.07232486476898008
0.06377231162946814
0.0582709742782907
0.05642317615727528
0.058021788150496655
0.06266889517792565
0.07031145469939
0.08085175657993957
0.0943344831204516
0.11005056167053903
0.12693437360260498
0.14405896113698569
0.15972370903933453
0.17298199449346344
0.18326050451045606
0.19017391492225505
0.19329200652008027
0.19253996496046225
0.18865506655129563
0.18277006245274785
0.17576933784661708
0.16843264366807464
0.16150153811892498
0.15541295184558734
0.15022887241432564
0.1460610069238136
0.1428345740387468
0.14053193846649745
0.1389479431276636
0.13786861827379412
0.13731835249300173
0.13651263842116995
0.1353347609133854
0.13380612194539113
0.13211024015528086
0.13013417710075006
0.12747341029464895
0.12444878030950665
0.12108905330483018
0.11730936558554109
0.11297783538229951
0.10825230495475419
0.10313412241637784
0.09719899379892
0.090515563869332
0.08349456902394378
0.07588498678808418
0.06702155923983749
0.056643831808637274
0.045097544103726045
0.032506562199819414
0.018781688691555717
0.004220127289724929
-0.011442689026555953
-0.028626099708149128
-0.047672812518034506
-0.06748402488506593
-0.08768224208916149
-0.10881942610681067
-0.13174277963025288
-0.15724857704937878
-0.18575891108891737
-0.21868726171675434
-0.25683586849146817
-0.30091007346271326
-0.35167867437880335
-0.40956201418216037
-0.4722894311006427
-0.5308280747930878
-0.5732454159227747
-0.5883328052121592
-0.5703400081180895
-0.5237206110017399
-0.46101684909667023
-0.3954934587488243
-0.33479989717652436
-0.28168288310701795
-0.23692135020825159
-0.20076963974470116
-0.17133749650699398
-0.14683350379353774
-0.12615515274591288
-0.10899298861496191
-0.09529880357565479
-0.08436442439643752
-0.07618074178918154
-0.07032193359178893
-0.0668474709161078
-0.06578453177286293
-0.06714760614855726
-0.07083525239852456
-0.07645815547084768
-0.08397373923559553
-0.09310715098481251
-0.10356092648780305
-0.11534649201229691
-0.1276221792117815
-0.14048052203032105
-0.1541848364466047
-0.16931161404117523
-0.1854836143889283
-0.20241226470995202
-0.2211276631979668
-0.2427971936512884
-0.26698172052599306
-0.2932176728906365
-0.32139903558137867
-0.35261669198337187
-0.386257936911516
-0.4216085485597195
-0.46063427717261696
-0.5009583750459704
-0.5392149921354478
-0.5718294117114743
-0.5986935398985529
-0.6185383923951382
-0.6253435159255974
-0.6165487582661124
-0.5902153051303423
-0.5475135889486777
-0.49261997064060487
-0.43181186913379993
-0.3706378760912097
-0.3119742765070886
-0.25879724150493355
-0.21187086095986749
-0.17142643204435515
-0.13719070000100397
-0.10889771931744517
-0.08700138545101921
-0.07022733091337721
-0.05742651576659098
-0.04790373675762423
-0.04145828557045096
-0.03796673028297883
-0.036969584076164616
-0.03782096335697278
-0.04045016648763301
-0.04479482556908387
-0.05104648375405737
-0.05899512367130229
-0.06857153781678721
-0.0796771500633667
-0.09197437754326293
-0.10535935091474834
-0.11944622563533887
-0.13373846408394247
-0.14698196361642957
-0.15776861542747966
-0.16505594031941492
-0.16861939055437486
-0.16788517411188386
-0.16243446846010054
-0.15250593843877172
-0.13996920300004798
-0.12711986442647857
-0.11489637532558455
-0.10443734769405148
-0.09655655707431203
-0.09299107267726958
-0.09587034828469419
-0.10889190223272466
-0.1394946813193105
-0.20433857133275712
-0.3467009313119882
-0.716856385254577
-1.8562219591224831
-2.9753191983952965
-1.2993976761993251
-0.5337442470622422
-0.26667951140949675
-0.1515770816911118
-0.0925667808627211
-0.058448953013283414
-0.036823531716962975
-0.02257056271698042
-0.012993137002441703
-0.006302953156923184
-0.0015642013592292003
0.0017277229304678069
0.0031984703378074675
0.0028436437331445597
0.0010347199958712964
-0.0019357816318065302
-0.005927341964320654
-0.010628513383367694
-0.015746015557683745
-0.019906658265206618
-0.022689247535318677
-0.023884808058167575
-0.023301353482117485
-0.021156087753383433
-0.017110098134702583
-0.011464670157208036
-0.004711751520700052
0.0029090184924728864
0.011375934404142135
0.0206601244875129
0.03090214817121141
0.04185160687712509
0.05372463830183605
0.06553806403213079
0.07659691045184769
0.08706715467005208
0.09716950250857252
0.10679814881364513
0.11452736116306976
0.12002077521960354
0.12373780123377463
0.1257498732414282
0.12592229628161425
0.12429103345894026
0.121085729497417
0.11726965385913811
0.11277029982350453
0.1084337429113019
0.10453619959672578
0.10085026915863494
0.09711719643425966
0.09326117383375573
0.09018805236530289
0.08785182095700532
0.08606407238137659
0.08469172324829526
0.08363865836387502
0.08294549408415731
0.0824995154593847
0.08253499075019281
0.0832319523701465
0.08430673101605624
0.0854547780589137
0.08666191519469903
0.08771245630133673
0.08869772905086559
0.08930151645899591
0.08949642969954959
0.08933852157300369
0.08880344332999231
0.08796701808763364
0.0868576324956586
0.0855161978900623
0.08398914053073382
0.0823005242683008
