# vtk DataFile Version 2.0
00001753.nii_R_ICA_labeled
ASCII
DATASET POLYDATA
POINTS 230 float
76.73142351414302 74.06714377153621 30.580000521754748
76.9518997470773 74.01125693477108 30.384435708443526
77.17458099290319 73.94131507146085 30.196024717212726
77.39844189888942 73.85727777375384 30.014913531675255
77.62242771293712 73.75919671071708 29.84116693881157
77.84547054636707 73.64720922471668 29.67476832703809
78.066503290198 73.5215326496518 29.5156199985065
78.28447155719591 73.38245955018704 29.363543431218623
78.49834431746278 73.23035383015944 29.21827947669443
78.70712354316088 73.06564722126247 29.079488674036877
78.90985325666315 72.88883518350833 28.946753129512587
79.10562770179361 72.70047212978082 28.819580191512213
79.29359853421853 72.50116549725648 28.6974092402746
79.47298062257735 72.291569195767 28.5796211969308
79.64305622333913 72.07237632007106 28.465551294320463
79.80317750247453 71.84431185321469 28.354504162526208
79.95276730128444 71.60812525529163 28.245771038909755
80.0913185623528 71.36458338543784 28.138648113741855
80.21839236678784 71.11446344901891 28.03245548217615
80.33361519543456 70.85854606491661 27.926556028675265
80.43667539209356 70.59760816975775 27.820373531086005
80.52731928957677 70.33241567954187 27.71340955264232
80.6053468863081 70.063716046272 27.605257839669264
80.67060728020108 69.79223068768903 27.4956161465134
80.722993844991 69.51864803391803 27.38429384673407
80.76243916125757 69.24361731163403 27.27121580019891
80.78890982491791 68.96774416402329 27.156421024369017
80.80240123462838 68.69158825868755 27.040057225905894
80.80293279117731 68.4156637801108 26.922370438494003
80.79054386266752 68.14044268105796 26.80369101246608
80.7652911662644 67.86636083060002 26.684415912654664
80.72724800893705 67.59382642928011 26.56498822828237
80.67650592228611 67.3232297868759 26.445874556774985
80.61317880734404 67.05495342922086 26.327540583850535
80.53740944070532 66.78938087128724 26.21042631495199
80.44937781299708 66.52690307995258 26.0949210471077
80.34931020924051 66.2679210274562 25.98134047569099
80.2374880402841 66.01284408506399 25.869906272428945
80.11425480774439 65.7620837227521 25.760731059007046
79.98002043323176 65.5160434837848 25.653809097359083
79.83526177177411 65.27510632286564 25.549014476756952
79.68051948783068 65.03962104063304 25.44610635480383
79.5163913572934 64.80988965099914 25.34474065868702
79.3435230104599 64.58615696641213 25.244486888705886
79.16259725164623 64.36860355539302 25.14484746749108
78.9743227639857 64.1573424194477 25.045278129510244
78.77942329003471 63.952419818694494 24.94520619579052
78.578627293448 63.753820296010296 24.844045972310102
78.37265968844643 63.561475116941004 24.741209042755397
78.16223377807347 63.375275791214136 24.636109576690433
77.94804577665278 63.195091213011224 24.528163384142953
77.73077344420459 63.02078488885382 24.416783761081014
77.51107628871027 62.85223645815792 24.301372390477795
77.28960051203084 62.68936249822697 24.181308438858185
77.06698783206546 62.532137027724524 24.055937307303203
76.84388850215693 62.380611688135964 23.92455964750616
76.62097817178928 62.23493483234939 23.78642372014311
76.39897893551986 62.09537059485656 23.640720922663984
76.1786951868171 61.96234857516943 23.48654719743687
75.96102178353966 61.8364078816894 23.323012872736744
75.74697393675524 61.71825611690984 23.149214303815757
75.53772666500787 61.608799330441826 22.964248409577536
75.33463662015406 61.50913638811108 22.76728680309488
75.13925776201611 61.42055572759244 22.557652845301313
74.95334083917336 61.34451483967735 22.334916777228628
74.77880751859213 61.28259571399203 22.099003277330258
74.61769432684946 61.23643341599794 21.850295860154112
74.47206469882039 61.20761932665156 21.58971917236369
74.34402491374883 61.19772054945089 21.31872159866549
74.23530822196987 61.20784762542412 21.039433934992694
74.14735807219336 61.23877379734784 20.7544309191787
74.08127324079739 61.29088718279484 20.466617884877856
74.03797513566356 61.36434260494015 20.179132379102455
74.01755219141596 61.458455591156 19.895159708265357
74.01993879210406 61.57234819857277 19.61778022886352
74.04482395994587 61.70485005266855 19.34992735912998
74.09166955169754 61.854515030028246 19.09433240407118
74.15948035845693 62.01947927937287 18.853269400331033
74.24721960758043 62.19782254394166 18.62872188631513
74.35367746360265 62.38750183067145 18.422275784115744
74.47749289883133 62.58642141766023 18.23508898114894
74.61718562000252 62.79251118325997 18.067882765436632
74.77119255115366 63.003804867521666 17.92095664358331
74.9378484354024 63.21850035880565 17.794122198761226
75.11552399382289 63.43505416987215 17.686899057601714
75.30262875720857 63.65220272512598 17.59855447041828
75.49761910676925 63.86898067590163 17.528149778577824
75.69900212175294 64.08473207198791 17.47457313178689
75.90537507407878 64.29909692611123 17.43668322514757
76.11540779235392 64.51198813536098 17.413341510316187
76.32782951146531 64.7235629524877 17.40345317844989
76.54140906261323 64.93419327280844 17.405993677191354
76.75492531170681 65.14443694666468 17.42007444606398
76.96714455031585 65.35501407477823 17.444790672740968
77.176817031531 65.56675899991828 17.479321841575267
77.38264491475759 65.7805915164729 17.5229249643326
77.58327135279605 65.99747948880004 17.57487347006515
77.77728104159458 66.21839452313692 17.63441809280985
77.96321672162618 66.44426192070692 17.70074208349569
78.1396150886288 66.67590695847808 17.772915952848965
78.305062153232 66.9140029250549 17.84985792953113
78.45826497207456 67.15902747569592 17.9303066505882
78.59812961239162 67.41123489562546 18.0128136055212
78.72383383095084 67.67064882224004 18.095756347296497
78.83487934335169 67.93707617256774 18.17737256782057
78.93111512133223 68.21013750129173 18.255806285412113
79.01272566285651 68.48930570000671 18.329159536394606
79.08019093116361 68.77394303515554 18.39553865488698
79.1342250608677 69.06332905321972 18.453091530916446
79.1757073904909 69.35667488880642 18.500032701243438
79.20561295992037 69.65312376336915 18.534659470497722
79.22495107614456 69.95173960561311 18.555363139523227
79.23471349233515 70.2514880659899 18.560640351992614
79.2358281433604 70.5512139030422 18.54909985262792
79.2291350896342 70.84962017727622 18.519503910273727
79.21535693842809 71.1452586644102 18.470805382718925
79.19507604823201 71.4365309049082 18.402184166660533
79.16872290003393 71.72170899286792 18.313106022827753
79.13657073598993 71.99897861484314 18.20337692033126
79.09873764659835 72.26650494889724 18.07318951218931
79.05520076456163 72.52251665693353 17.923148585889628
79.00581893882756 72.76540047835937 17.754270624294076
78.95036427967926 72.99379487499868 17.567951795602283
78.88854112113859 73.2066294090359 17.36587090577128
78.82005689091257 73.40326276003702 17.149988857380993
78.74466076949564 73.58351312381988 16.922419749138793
78.66213447487263 73.74755311118379 16.685256434795043
78.57233004856892 73.89591524259232 16.44052357921578
78.47518154514873 74.02943500186812 16.190105444366992
78.37071041599091 74.14918566951448 15.935695842285417
78.25902514589721 74.25641201343676 15.678769105355636
78.14031827479543 74.35246982076102 15.420568845451442
78.014860908707 74.4387735839452 15.162110205401243
77.88299722018147 74.51675411301981 14.904190971412065
77.74513809117245 74.58782532697823 14.647408471898046
77.60175509854483 74.65335874165743 14.392179157377333
77.4533732991949 74.71466432186627 14.138760096372502
77.3005616741215 74.77297376287662 13.887271628442166
77.14392533431788 74.82943082784682 13.63771958922919
76.98411395651843 74.88508397168825 13.39000585660565
76.82178201136782 74.94086443973693 13.14396475230426
76.65758714305696 74.99758738379096 12.8993793071334
76.49217512577935 75.05594782123102 12.656002200027967
76.32616293639983 75.11651844980264 12.413575818653978
76.16012079442433 75.17975085413315 12.171850940041741
75.99455354790769 75.24597937262622 11.93060345470265
75.82988323198647 75.31542841414841 11.689648169626816
75.66643338226343 75.38822269893815 11.448849557406762
75.50441723621209 75.46440043072131 11.208128723619573
75.34393000193386 75.54392853463726 10.967467222772317
75.18494677199467 75.62671914453912 10.726907533805402
75.02732532123278 75.71264628251376 10.48655145870264
74.87081434233811 75.80156158669219 10.246556567075183
74.71506578013884 75.89330855780888 10.007131944095686
74.55965124457367 75.98773457597414 9.76853316957073
74.4040808127264 76.08470070114586 9.53105745104241
74.24782388515555 76.18408895681408 9.295038510531183
74.09033055300982 76.28580756464916 9.060841681341508
73.93105292049235 76.38979410615298 8.828858705992932
73.76946528379429 76.4960173366797 8.599502384891668
73.60508226788914 76.60447770540398 8.373200916087828
73.43747451963125 76.71520721382927 8.150391872080451
73.26628083360197 76.8282685202457 7.931516209846798
73.0912170475048 76.94375359327786 7.717012136126629
72.91208071807536 77.06178151198549 7.5073095712661395
72.7287526854738 77.18249551039746 7.302824796045597
72.54119513244143 77.30605864749668 7.103955753871243
72.34944748696633 77.43264833163138 6.91107745008255
72.15362027194108 77.56244919817088 6.724537362071712
71.95388774065675 77.6956448954126 6.5446505427362975
71.75047939232327 77.83240869887106 6.371694204524284
71.54367063151587 77.97289364532348 6.205901794960312
71.333772523918 78.11722252551849 6.047456636379613
71.12112067184741 78.26547840180403 5.8964854710499495
70.90606323675746 78.41769630817188 5.7530524913367795
70.68894832307365 78.57385659343721 5.617154352863279
70.47011114280322 78.73388069799378 5.488717122090261
70.24986152941128 78.89762934445022 5.367595441543577
70.02847267188861 79.06490382963867 5.2535748073075315
69.8061717025526 79.2354496987931 5.1463766448940085
69.58313312724484 79.40896324829478 5.045666590652177
69.35947528303616 79.58509962691427 4.951065127420224
69.13526048022206 79.76348285638032 4.862160495767898
68.91049827705963 79.9437163567964 4.778522754326415
68.6851519399779 80.12539419201492 4.6997185429518815
68.45914708178064 80.30811199624482 4.625325575223199
68.2323820471112 80.49147767056027 4.554946163393299
68.00473897895698 80.67512132654429 4.4882192686856754
67.77609480856992 80.85870414286087 4.424830145659615
67.54633142114706 81.04192606465448 4.364517692017784
67.31534409259797 81.22453141860566 4.30707847378391
67.08304801171465 81.40631273158122 4.252368094387436
66.84938206111364 81.5871114404055 4.200299031066503
66.6143103454407 81.76681620409008 4.150835824772381
66.37782100720572 81.94535773541041 4.103986955847176
66.1399232168735 82.12270134838249 4.059794612705422
65.90064232322771 82.29883696936764 4.0183223080914034
65.66001397278022 82.47376793728668 3.9796417447287427
65.41807748980146 82.64749916270101 3.9438197803781576
65.1748690775933 82.82002562736456 3.910906444198218
64.93041540797434 82.99132224713017 3.8809253474430276
64.68472794971744 83.16133541568792 3.853866305706905
64.43779886359444 83.32997735799607 3.829681077466881
64.18959851737657 83.49712293958193 3.8082811894469013
63.94007549571406 83.6626100153177 3.789537988453599
63.68915859195562 83.82624230198056 3.7732838406175286
63.4367612388606 83.9877954641342 3.7593141943091655
63.182787515076484 84.14702525030569 3.7473898353680357
62.92713968633367 84.30367795182185 3.7372389850595114
62.66972643122149 84.45750232527007 3.728559047599069
62.410471400274524 84.60826292534968 3.7210177792416195
62.149321459196905 84.75575428836926 3.7142541115655505
61.88625414040903 84.89981550547961 3.7078786999315514
61.62128391105475 85.04034461818388 3.701474518175976
61.3544667453715 85.17731167607012 3.694597772686408
61.0859030808856 85.3107699518265 3.6867791986328275
60.81573877222553 85.44086352914306 3.677525945263738
60.54416480170969 85.5678313775342 3.6663238252958026
60.27141563287015 85.69200620222875 3.652639950251152
59.9977674415206 85.8138092597887 3.635925498517432
59.72353633367427 85.93374039470422 3.6156185426283303
59.44907756348121 86.05236512375014 3.5911471000191875
59.17478583549843 86.17029924778147 3.5619325838385696
58.90109685121455 86.28819232868463 3.5273941674557974
58.628489937270025 86.40671115836369 3.486954438007449
58.357490984326674 86.5265233654204 3.4400468477418973
58.088675209796 86.64828217360946 3.386125190972892
57.82266833128208 86.77261147696746 3.324675407823114
57.56014527508027 86.90009174438929 3.255229589847342
57.3018248603919 87.0312459580462 3.17738190443428
LINES 1 231
230 0 1 2 3 4 5 6 7 8 9 10 11 12 13 14 15 16 17 18 19 20 21 22 23 24 25 26 27 28 29 30 31 32 33 34 35 36 37 38 39 40 41 42 43 44 45 46 47 48 49 50 51 52 53 54 55 56 57 58 59 60 61 62 63 64 65 66 67 68 69 70 71 72 73 74 75 76 77 78 79 80 81 82 83 84 85 86 87 88 89 90 91 92 93 94 95 96 97 98 99 100 101 102 103 104 105 106 107 108 109 110 111 112 113 114 115 116 117 118 119 120 121 122 123 124 125 126 127 128 129 130 131 132 133 134 135 136 137 138 139 140 141 142 143 144 145 146 147 148 149 150 151 152 153 154 155 156 157 158 159 160 161 162 163 164 165 166 167 168 169 170 171 172 173 174 175 176 177 178 179 180 181 182 183 184 185 186 187 188 189 190 191 192 193 194 195 196 197 198 199 200 201 202 203 204 205 206 207 208 209 210 211 212 213 214 215 216 217 218 219 220 221 222 223 224 225 226 227 228 229

POINT_DATA 230
SCALARS curvature float
LOOKUP_TABLE default
0.18155900406291228
0.18078020962053037
0.17960808831604202
0.17811295786652426
0.17636202694298458
0.17439948816427236
0.17225332465489343
0.16993848640032247
0.16746556891113662
0.16486121464580183
0.16216609760462108
0.1594492237873533
0.15679224074513434
0.15429426912335092
0.15204695710027588
0.1501337496654753
0.14860590917022531
0.14748557252253966
0.146751728438024
0.14635060981513584
0.14619599568884667
0.14618657582215058
0.14621724243747478
0.1461961878193987
0.14605717512707453
0.14576960867641298
0.14534073653346682
0.14481164626464926
0.1442458189984521
0.1437113544247678
0.1432619169856544
0.14291512112188726
0.14264025283101978
0.14235231667712375
0.14191832231868964
0.1411773239151265
0.13996001636652688
0.1381241407666897
0.13556923546895802
0.13226476567995987
0.12824573490345376
0.12361712013338157
0.11853391495259749
0.1131830663349064
0.10776615585615507
0.1024812767348095
0.09751966021687458
0.09306655269453666
0.08930463702285159
0.08642446033746373
0.08462780200136606
0.08412879878220299
0.08515696851469898
0.08793164056653024
0.09266611294421934
0.09951714819603644
0.10860648486192272
0.1199744537404027
0.1336228770986016
0.1494548806164841
0.16729853729028135
0.1868927274041297
0.20784162431787723
0.22962224235750567
0.25153834298609384
0.27277266031397673
0.29241108593527676
0.3096215014844241
0.3237186408090707
0.33432048612631804
0.34135065831904016
0.3451050750361548
0.3460570057611418
0.3448091507965135
0.3418312092986067
0.3374694635814976
0.3318550722150653
0.32498569878042716
0.31672147376275056
0.3069414230530429
0.2955440597307804
0.28255195680646505
0.2680767192076354
0.25238674475936484
0.2357969183319864
0.21868430965117328
0.20142754069678057
0.1844261637341583
0.16808536690395984
0.15283859686802406
0.13920076085048835
0.12776196041956514
0.11924263059660026
0.11428826914664975
0.11333433665552022
0.11633618362224558
0.12274412447157068
0.13161387627004317
0.14184306256926807
0.1523545869175562
0.16218573043775858
0.17060133732863658
0.17711539210989194
0.1815867940363887
0.18418502054415162
0.18541444464647844
0.1859660771793701
0.18664158946583992
0.1881675173714656
0.1911185449250309
0.1957913658065315
0.2022160764001194
0.21015562318292072
0.21919854437379133
0.22878995866923738
0.23832792285333798
0.24716630480965443
0.254674338523484
0.2602560864848263
0.26344616796921966
0.2638933044551894
0.261419924192837
0.2560090917348868
0.24785075057995268
0.23726489805811454
0.22470165637286463
0.21062387171535316
0.1955205800185548
0.17981464955112234
0.1638809410899705
0.14800265394009893
0.1324066520532846
0.11724792402111373
0.10264552993632779
0.08869153836995163
0.07548936233809575
0.06317747477930047
0.05197135394465809
0.04221864905437959
0.03446562933363948
0.029443005356743518
0.027666298617741374
0.028752323583424933
0.03151422031533047
0.0347585398018304
0.03768578999656696
0.03983267142356719
0.040968561493894495
0.04101677636366575
0.040034965817639524
0.0382018292226131
0.035835473909045616
0.03341667646065797
0.031595274165970744
0.031097269006072004
0.032445186239603095
0.03568980242595941
0.04043789270689436
0.04614238482684368
0.052307699762858796
0.058551445761347055
0.06460837953803528
0.07029574340979453
0.07551303632068947
0.08020527893367173
0.08436350584131247
0.08799498688511265
0.09111483925254474
0.09373132308015414
0.09583710211218875
0.0974069621223009
0.09839711898897655
0.09874940637199013
0.09840196981763405
0.09729289039638023
0.09538029940883844
0.0926394772408012
0.08908731369820617
0.08476985764190827
0.07978480482392838
0.07426288158902235
0.06838496546687933
0.062361099294878555
0.0564361514377654
0.05086993597174551
0.045919592287201945
0.04181145359663133
0.03868727016770187
0.03657664878579681
0.035369393357094325
0.03486767097967034
0.03484224049495382
0.03510009998496491
0.035505905617853134
0.035980543791981665
0.03647760275373902
0.036961738879425624
0.03739657313441689
0.03773952035331399
0.037958601816030384
0.038037092543374326
0.03799361219404509
0.03788230764739842
0.037788275923487255
0.037818664707872596
0.038069105239125614
0.03860865495394109
0.03944418564164322
0.04052356218463687
0.04173398272683458
0.04292897586630657
0.04395346110578164
0.0446680990477296
0.04498624197365077
0.04488537230627897
0.04445760155944463
0.043907066283873225
0.04359169644462622
0.04396480611149831
0.0455109259304316
0.04858143141355783
0.053295715874429814
0.05953310488634801
0.06702696491144884
0.07546069738055193
0.08453235752536593
0.09396773872783534
0.10352697690452081
0.11298741252388998
0.122139366804744
SCALARS torsion float
LOOKUP_TABLE default
0.10941020776839358
0.11807296204482812
0.12684165401283717
0.13570214732928676
0.1446567296102643
0.15388395187437745
0.1635285702841306
0.1737538667561541
0.18469080235905735
0.19608684230775195
0.2078237135825314
0.2190865216653456
0.22941518645639153
0.23758963950814876
0.2429491680311722
0.2443160781421274
0.24121178698622242
0.2330228870815613
0.21979231361009458
0.201692152433596
0.17930515888517695
0.15352659103439836
0.12510732963889182
0.09536620195208602
0.06490254141693837
0.035268342619583025
0.0069275093241650595
-0.01840022007469789
-0.040194534238430744
-0.056766838386152096
-0.06761215763077273
-0.07171444167192827
-0.0689494575162825
-0.05958000057099906
-0.043954699080482836
-0.02347631388740347
0.0014284636118735007
0.02889325517872536
0.05875566000281977
0.08939018731623453
0.12079384423366127
0.15190273172165017
0.18257101915908877
0.2123434916317716
0.24089119624926073
0.268447474402557
0.29456115345617184
0.3196854989509051
0.3424898048841917
0.36204390167910316
0.37505380234916774
0.3786751868027284
0.3695146945603957
0.3465653594471231
0.31140361220287804
0.2679433765469741
0.22166298437363008
0.1766766802849834
0.13637552032653907
0.10160270459110467
0.07262769921923806
0.04866607542957723
0.02882144999951785
0.012358966728422004
-0.0016536389714839398
-0.013364202908879564
-0.023361634967153967
-0.031201277926603918
-0.03708577415879996
-0.04052115331132874
-0.041498909535567424
-0.03963692936536306
-0.03502285449033688
-0.027955315941591955
-0.018995102678517083
-0.008906250371902617
0.0014135460376564558
0.011128589303818846
0.019308332993237993
0.025295329316538624
0.02838500709063989
0.02803813316665014
0.023723185008449863
0.014686588416607095
0.00029047918207303607
-0.02086830419259303
-0.049895101895332125
-0.08906691209391795
-0.14006559753114417
-0.20520547269826914
-0.28473604650334067
-0.37525328660606405
-0.46560450656238267
-0.5361933677249765
-0.5678388392637883
-0.5550352424887752
-0.510298092949221
-0.4540868186310109
-0.40195018466187027
-0.36204302585952514
-0.33636544572431804
-0.3240250302978947
-0.3230910954351921
-0.3307291998098014
-0.3441737664508902
-0.3594808638782792
-0.3728445616091301
-0.3795874284964871
-0.3762683477604852
-0.36034798659737577
-0.33239473531831487
-0.2944371161724458
-0.2502293760266347
-0.20290242672868528
-0.1555455241184523
-0.10978764490836171
-0.06665406241507792
-0.026388926570701635
0.010544782018988693
0.04405556437260418
0.07416348122867089
0.10104248629595729
0.12471471966942692
0.1452670297670442
0.16319180253042825
0.1787002723237626
0.19267228151626797
0.20525060519975616
0.217588073756443
0.2297931915997369
0.24333991124252763
0.2585370461409759
0.277661731995738
0.30212889600882326
0.33665111456862673
0.38634952860336397
0.46123014372529253
0.5745827603086646
0.7454336830952406
0.973203224718983
1.1796224789987417
1.194596562115683
0.9914398013194519
0.7301468990088246
0.5152564204774757
0.3552165785826504
0.23341796380915375
0.1311450913604093
0.03575128795095207
-0.06495652137655898
-0.18030216950345845
-0.3193155487754598
-0.4802225291413406
-0.6375066815545454
-0.7296244534100763
-0.7040659381167389
-0.5827139176976283
-0.43298781648191137
-0.3009973335746885
-0.19801204520358054
-0.12119182008674828
-0.06341326076209862
-0.019533631463171053
0.01469037954295554
0.04147935475977666
0.06251335318924355
0.07856342160928431
0.09021540329291251
0.09783168107909837
0.10170427261787289
0.10217945712380443
0.09949383120694769
0.09400304121984855
0.08582222279433455
0.07521443001898612
0.062036007562668694
0.04634910482553601
0.027648294125706997
0.005674588746758826
-0.020494369735508142
-0.05152635807567872
-0.08858928620794838
-0.13247160496429372
-0.1833393204220217
-0.2395346915649913
-0.29550783294557853
-0.34157683853913495
-0.3640241518348221
-0.35316761936728425
-0.30781272083135863
-0.23865620276893681
-0.15978993166139088
-0.08435003167417221
-0.02095720133939961
0.025657767948098643
0.052792763020704105
0.06085460572342481
0.05048266382372372
0.02478600991157847
-0.01405353562513038
-0.06254852025974043
-0.11802924882306436
-0.17659201885977144
-0.23390678693513248
-0.28494206301111535
-0.32465019695269876
-0.3501545698879767
-0.36121189046055996
-0.3612739713332916
-0.35554314490279293
-0.3498172075294814
-0.3491923449223301
-0.35775832438590194
-0.3788263661213187
-0.41482886148117415
-0.4666794350572756
-0.5317946480676878
-0.6003431306153384
-0.6539069114656583
-0.6697517100146558
-0.6372563014088772
-0.5655271013598359
-0.4768377910528945
-0.3897106365120919
-0.31416788779964666
-0.252671632020641
-0.2041617811817834
-0.16643107133687773
-0.1370338579542188
-0.114020762647472
