# vtk DataFile Version 2.0
00003685.nii_L_ICA_labeled
ASCII
DATASET POLYDATA
POINTS 310 float
102.65598270630674 72.03923702310973 36.34462344225565
102.50037269713377 72.08367302212483 36.09207680159213
102.33949155912003 72.11056923466387 35.84035719513323
102.17391621924581 72.11855732612045 35.59038041624915
102.00469530875252 72.10782285539871 35.34296588876098
101.8327446907289 72.07760767107 35.09906806871363
101.65920853017803 72.02823618679025 34.859461777886374
101.48521381127745 71.96011122491257 34.624832900606144
101.3118899635982 71.87367179778667 34.395797499956146
101.14034669616407 71.76966967880624 34.172801317157806
100.9715803316924 71.64923249522212 33.95604361987238
100.80650450885356 71.51339580053998 33.74563394766192
100.64593354474736 71.36324784553867 33.541548577520366
100.49065335280223 71.19974086456648 33.34372430435545
100.34125224410027 71.02408217934261 33.15187949705827
100.19824639984914 70.83735057419568 32.96569986005335
100.06209389288713 70.64053021964911 32.78484348282937
99.93326548893067 70.43446347447889 32.60898370476249
99.81209958107155 70.22005250612939 32.437712365197804
99.69882305418884 69.99818315517517 32.27058968635738
99.59368274470529 69.76961035814466 32.107220502950966
99.49705377785939 69.53493747215381 31.94727742851837
99.40898461878997 69.29493383321777 31.790332037585824
99.32960714970446 69.05022275407414 31.63603935114513
99.25914272596434 68.80133363975577 31.48411678740529
99.19769134952 68.5488134660854 31.334288587624474
99.14522649023661 68.29319657614025 31.186306707819924
99.10181963115168 68.03492949103804 31.039998080664972
99.06763397402513 67.77440603268137 30.89525293485118
99.04249664923321 67.51205806788352 30.75195822451985
99.02638116823907 67.24823546485742 30.610077036081254
99.01934895832409 66.98324677166364 30.469633316944282
99.02127621589506 66.71739500997937 30.33066710120207
99.03200062602012 66.45094836692797 30.193249403921072
99.05140721543461 66.18414096335488 30.05749034416141
99.0794975417548 65.91718562260156 29.923552255728644
99.11599938979884 65.65028159645026 29.791556099675038
99.16073359546681 65.38360821598116 29.66164300029066
99.21353201070968 65.11733529595253 29.533951363350788
99.27434871780038 64.85164000342867 29.40864501364034
99.34288837185824 64.58668189354577 29.285789807684523
99.4189683476909 64.32262906623482 29.165448712749612
99.50243136665273 64.05966033614337 29.04765146912941
99.59325035477418 63.79799344576095 28.93242440160705
99.691150712909 63.537816486541644 28.81965042169211
99.79600763006725 63.27935569439928 28.709206250305343
99.90780998436583 63.02288972220685 28.600944221842376
100.02643595592957 62.76868931792921 28.49461960571931
100.15174936277921 62.51702892846519 28.38993620957657
100.28381244996176 62.26828275326453 28.28659272115473
100.42253156997832 62.02278611852761 28.184205784349267
100.56782463281992 61.78088845376224 28.082370760786773
100.71985698451996 61.54311808690379 27.98065566069508
100.87842025517911 61.309802302400605 27.878600122236513
101.04367247163576 61.08154996020197 27.775711238109086
101.21549433460947 60.85881414095318 27.671507043338295
101.39393257150428 60.64223168678306 27.56547004682641
101.57892547472326 60.43241532095671 27.457094013164543
101.77040798378566 60.230044685883335 27.345871365149677
101.96831406276087 60.03590863533411 27.231274280489167
102.17244953314892 59.850741279799074 27.112830676007334
102.3826921206489 59.67554934803476 26.989986672062138
102.59866369479175 59.51109070265222 26.862341436728553
102.82013961595746 59.35868724467262 26.729290574928754
103.04650423520215 59.21910334477595 26.59053340378832
103.27727129562341 59.09385759905996 26.445495447751085
103.5116136300381 58.98402476763006 26.293869036077194
103.74859030563536 58.89086777237141 26.135338084712963
103.98706896792407 58.816104799270086 25.969496230754512
104.22560126108215 58.76103726557191 25.796214865346276
104.46248413443055 58.72709767496124 25.615430106316186
104.69568519299877 58.71578338776507 25.427199113168577
104.92281221398939 58.728491180107454 25.231786003090857
105.1411131988256 58.76641936910867 25.02971653021839
105.34751181951489 58.83045104328351 24.82183263634289
105.5386891418771 58.92102115959795 24.609335962035335
105.71121442414274 59.037990435545574 24.39380614069116
105.8617262290706 59.180541809508114 24.17718409592907
105.986785309467 59.34741431068026 23.96175772517125
106.08416457237584 59.53596677577056 23.749977811492872
106.15215227799405 59.74323867319021 23.54430172099773
106.18991531078225 59.96585873921522 23.347041236238802
106.19731852234003 60.200337124257736 23.160301277738508
106.17550061092356 60.443081671926926 22.98562877680018
106.12608928366113 60.69087959768939 22.824158115923392
106.05106065202914 60.940951186771315 22.67663903096716
105.95262222862623 61.19097654518528 22.54346879516469
105.83305508868779 61.4390949600214 22.424768542972433
105.69435743023715 61.68380053550466 22.320666785044896
105.53885479457684 61.92402049141593 22.23083827174862
105.36854780156708 62.15897572833156 22.154994737345987
105.18510971352505 62.38804795903524 22.09299633429398
104.99014570736476 62.6108075543554 22.04466184571386
104.78534668844549 62.82712946971249 22.00951530000775
104.57183089595989 63.03668447938133 21.987756123793172
104.35111497729407 63.23961691538742 21.978861853249033
104.12425244570348 63.43581822597745 21.982992873216396
103.89246944010922 63.62547471575166 21.99990187621361
103.65683293807889 63.808703515079976 22.0296262590296
103.41843563616511 63.98574181822659 22.072112777713137
103.17835107348482 64.15692669349079 22.127230082706774
102.93763185902 64.32255379010365 22.195089063417846
102.69732642089217 64.48319522434223 22.275289038333526
102.45851656542217 64.63924447830034 22.368045295089203
102.22219141216924 64.79145238123658 22.472772223592752
101.9893729667238 64.94048790034795 22.589263728387113
101.76107478543081 65.08714969807377 22.717156169067653
101.53813362159568 65.2323596622085 22.855712981280725
101.32147944820917 65.3770665269765 23.004403720184417
101.11190229500025 65.52231863387159 23.16241276349034
100.91001454153553 65.66917723881542 23.328730600600295
100.71649478795399 65.81875469436322 23.502412568312632
100.53194926704094 65.97220041442581 23.68237163590126
100.3567234264785 66.13054958561786 23.867325854055846
100.19123600891405 66.29484226705765 24.056029014607716
100.0360672361433 66.46620984293429 24.247188042149766
99.89141634276123 66.64545348222134 24.439361130535598
99.75763140904353 66.83335703347547 24.631128331644305
99.6351299490027 67.03062395483992 24.821022075598925
99.52445142649647 67.23788933509177 25.007485962329525
99.42586492516378 67.45534823579052 25.189047993129606
99.33984408100176 67.68314247996692 25.364205077947528
99.2668947924662 67.9212025561185 25.53146528116546
99.20775369109842 68.16937019820021 25.68920761525223
99.1627624216762 68.42694813369299 25.83614407313338
99.13243520218597 68.69314826004103 25.970957702251614
99.11725441347652 68.96695364775283 26.092433649829257
99.11767058382155 69.24713952334153 26.199456371738783
99.13417544760158 69.53229997580642 26.290926276985086
99.16679956403469 69.82076477911413 26.36624868024111
99.21562941492576 70.11081994457129 26.42482406632
99.28061298276435 70.40066987264521 26.466216015070355
99.36163511268865 70.68845378129032 26.49005335111082
99.45845089216657 70.97224997611583 26.49607987419425
99.5704249915806 71.2502281052281 26.484451610377814
99.69695420998869 71.52056662374662 26.455250121151458
99.83730650235606 71.78148766702878 26.408647993537656
99.99080667951586 72.03106976684721 26.344640277390678
100.15627652454215 72.26777015163591 26.263787055964528
100.3325941624352 72.49000541603662 26.166492013481577
100.51853742443289 72.69624238050035 26.053190978147722
100.71281358622599 72.88487735048794 25.924265687152772
100.91390960953396 73.05452392668943 25.780305847033546
101.12016501017428 73.20404526725626 25.622061381859446
101.32985322149692 73.33230102532849 25.45024919831461
101.54112477816447 73.43830745335083 25.26567660263941
101.75201932382042 73.52127656327899 25.069248084031162
101.96044662499412 73.58044053805978 24.861878839742012
102.16431030393275 73.61575196041518 24.644779534909848
102.36150374518365 73.62725207818757 24.41912663667243
102.54996236605268 73.61530438609124 24.186152891752943
102.72772043570426 73.5806068802487 23.94712226951652
102.89296938086324 73.52418759360204 23.70329796571538
103.0441157436163 73.44738891973357 23.455906725967687
103.1798328951488 73.35183577338861 23.2061004531961
103.29891678549049 73.2392259940306 22.954915327641075
103.40080721990746 73.11175290078698 22.703272011131087
103.48513316133541 72.9715336215735 22.45190550041684
103.55182578535316 72.82070454251567 22.201376017798268
103.6010712180919 72.66135750674023 21.95207033120623
103.63299856326954 72.49543011930515 21.704235628194116
103.64853909281976 72.32497462496262 21.457907906379273
103.64846894249972 72.15175968810155 21.213009295091545
103.63337024786483 71.97742444219348 20.96936741663173
103.60445860554466 71.80352795253737 20.726659663112258
103.56279168080823 71.63144697203131 20.48450619158355
103.50919014904052 71.4625475222863 20.242457523210096
103.44508316674916 71.2979249227631 20.000015599809284
103.37140607786445 71.13877422898088 19.75663832395766
103.28942720029266 70.98608832165367 19.511779223611025
103.20036017455297 70.84080351482238 19.264899251605133
103.10532326351051 70.70401136826665 19.01540853046362
103.00570341897868 70.57639290508492 18.76286483743082
102.90271348272456 70.4589886272157 18.5067442364881
102.79774036339715 70.35251675134616 18.24668546142977
102.69215819195374 70.2576204990436 17.982426622605356
102.58739780160126 70.17523852377379 17.713683616593798
102.48490154769712 70.10576819690296 17.440463594393776
102.38609375040525 70.0496574101488 17.162852029593182
102.29246064692337 70.00742116113013 16.881022060023227
102.20543024557456 69.97929852552113 16.595345820461567
102.1262754163089 69.96524315519193 16.306364437929755
102.0562309107993 69.965193910027 16.014701358035623
101.9965128933996 69.97905364789729 15.721075816708101
101.9481217062242 70.00644899190613 15.426322150731155
101.91180195759475 70.04678552842051 15.131324324442502
101.88823202996537 70.09948442831086 14.836980531735371
101.87803445904268 70.1639651457047 14.544215335182646
101.88168743479484 70.23956311236918 14.25396782055926
101.8993155692643 70.32541311707618 13.967106683549114
101.9310856817241 70.42076953844773 13.684493930211898
101.97723120195464 70.52497811526696 13.407031861544246
102.0377008910867 70.63725866761338 13.135538093549771
102.11227387988451 70.75681177960524 12.870740393842254
102.20080350466684 70.88293882079348 12.613389241589978
102.3033111032666 71.01504275780768 12.36435920579081
102.41922708903633 71.1523182086213 12.124167973777466
102.54820515861822 71.29410585364326 11.893439148289314
102.69003011127552 71.43980753735912 11.672910047457353
102.84413116074796 71.58873850750464 11.463035891722992
103.00991965994011 71.74025279026506 11.26420697871373
103.18692373633074 71.89375468218554 11.076897878788087
103.37461349665097 72.04864707566156 10.901516668237074
103.57220092973739 72.20433281431946 10.738120276989934
103.77903589866665 72.36026794541186 10.586845747236453
103.99461902259709 72.51591946028506 10.448000226775376
104.21808379368466 72.670799796414 10.32128763656669
104.4487549195287 72.82446588047475 10.206569702131862
104.68606311787539 72.97648517588833 10.103809921205826
104.92930605019451 73.1265002410034 10.012634931327746
105.17782502436764 73.27421498766387 9.932606460292446
105.43108629113627 73.41934026534376 9.863429640607594
105.68854128051152 73.56165173330082 9.804668378885237
105.94962801470024 73.70102567828656 9.75569861457377
106.21390763838026 73.83732793016915 9.71608434446264
106.48096795512352 73.97046920330095 9.685357669247804
106.75037870449646 74.10048247506023 9.662841031814748
107.02181125822845 74.227368398869 9.648062879688226
107.29496774290502 74.35115822569502 9.640563434724818
107.56954320367451 74.4719999289994 9.639710156607457
107.84530459895231 74.58999630409811 9.645064875215338
108.12204372145224 74.705267857646 9.656223839114785
108.39955365107835 74.81802924038921 9.672656777315456
108.67767256575847 74.92844672366279 9.693998513754021
108.95625769710564 75.0366823265862 9.719946538241285
109.2351706054848 75.14296996174262 9.750089862041234
109.51429909723934 75.24749775627548 9.784145115863613
109.79354396658165 75.3504224686614 9.821928082426327
110.07281353775494 75.45196092384262 9.86312560299034
110.3520317356802 75.55228008719155 9.90753583589115
110.63113013984811 75.65152071027157 9.955017944897904
110.91005293113395 75.74983458586573 10.005373333342787
111.18875685839717 75.84735166968547 10.058418964088728
111.46720811676566 75.94417693217898 10.11399966433152
111.74538219168765 76.04039741114866 10.171967957060625
112.02327602544035 76.13610258351777 10.23209367316632
112.30089585361782 76.23135823064469 10.294168348259324
112.57825924940582 76.32621494125027 10.357976810837018
112.85540437491474 76.42072224882885 10.423236126210135
113.13238386340147 76.51492249847928 10.489633231777104
113.40926233013498 76.60885042113277 10.55683308970334
113.68611935359152 76.7025384210723 10.624455120137144
113.96304534802482 76.79602877150263 10.692068270094408
114.24013606631739 76.88936462338489 10.7592181314767
114.51749870469506 76.98259705621587 10.825381096781097
114.7952294132355 77.07579374026632 10.890031763330807
115.07341945886557 77.16903365343701 10.952610454987546
115.35216065728162 77.26241808768049 11.012459217688157
115.63150810429819 77.35606678408249 11.068971209848318
115.91149351109999 77.450120916276 11.121509394586326
116.19213044950018 77.54476313333342 11.16929520007175
116.47336776462676 77.64018816092775 11.211679042728784
116.75511144012474 77.73661740546005 11.247983884051706
117.0372188022961 77.83433185454976 11.277354931226046
117.31946747523934 77.93360024229804 11.299155228156241
117.60157465623686 78.03471594115207 11.312723373719146
117.88316976811387 78.13804053456208 11.31722203922838
118.16380643791967 78.24390081044673 11.312068951047824
118.44296884782935 78.35262782990877 11.296725651148595
118.72003012124424 78.46460638057219 11.270535892915863
118.99428360343275 78.58019801534563 11.23299399444814
119.26500297303907 78.69969302994593 11.183844421901911
119.5313752277292 78.82339815447115 11.122794804692589
119.79241052832326 78.95168595449564 11.049407608948206
120.04729240002926 79.08470645831702 10.96384920289062
120.29509043152194 79.22265311748555 10.866147141751203
120.53479168454108 79.36571168596744 10.756342964393756
120.76538863018526 79.51399852245038 10.63463293716614
120.9860487545438 79.66748840555564 10.501497911608405
121.1958640620621 79.8261616035762 10.357357726984944
121.39376922771545 79.99001409996609 10.202560745799058
121.57900180499458 80.15885918634757 10.037777789027908
121.75080567908773 80.33247769611599 9.86367387695827
121.90837732144458 80.51062594263625 9.68089319018103
122.05069565490643 80.69306021031271 9.49000915289604
122.17731281524038 80.87932532018554 9.291910205596812
122.28756616481701 81.06898639262782 9.087355455468538
122.3807567482511 81.26155540116737 8.8771069662889
122.45618673730975 81.45646891718204 8.661958018078943
122.51362021693981 81.65305321716988 8.442816538555352
122.55268275636399 81.8506123564023 8.22052826404797
122.57301115999965 82.0483914839894 7.995939405504736
122.57431023370755 82.24556684017578 7.769910988325576
122.55679364827324 82.44129866765228 7.5433094377828835
122.52057704066848 82.63472870405946 7.31694625354021
122.46584182190806 82.82497587394091 7.091600939060082
122.39280574903998 83.01112292957525 6.868027428417002
122.30225182280014 83.19238348479422 6.646864824122345
122.19482004815217 83.36796777193331 6.428692585419958
122.07108666884473 83.5370629231832 6.214052437246977
121.93186616781705 83.69895488059673 6.003383244609912
121.77818704456271 83.8530891375909 5.796989019617502
121.61086447703387 83.99885278633386 5.595165261794043
121.43063819933803 84.1355890982694 5.398191531156011
121.23865252069206 84.2629870369756 5.206129350252765
121.03569858860752 84.38053258100376 5.019121124592066
120.82254646433302 84.48769101557913 4.837290502508674
120.60022304865056 84.58425793266504 4.6605804046543575
120.3693947443825 84.66965871827938 4.4890990885408195
120.1309003172242 84.74353425388851 4.3228388901520445
119.88558656654688 84.80561158303604 4.161753066946689
119.63404899293876 84.85512665612535 4.006002521201529
119.37719283693494 84.89190285130637 3.8554992365870335
119.11575498044421 84.91540268461598 3.710316470222691
118.85047171824009 84.92485789640253 3.570624219527436
118.58225480721234 84.91999753537404 3.436414941739902
118.31196380898199 84.90013115912322 3.3078657636416797
118.040561238466 84.8644689465715 3.1852157405759045
117.76911774760738 84.81267763169951 3.0685682423933525
117.498766796206 84.7441838140133 2.95815665045254
LINES 1 311
310 0 1 2 3 4 5 6 7 8 9 10 11 12 13 14 15 16 17 18 19 20 21 22 23 24 25 26 27 28 29 30 31 32 33 34 35 36 37 38 39 40 41 42 43 44 45 46 47 48 49 50 51 52 53 54 55 56 57 58 59 60 61 62 63 64 65 66 67 68 69 70 71 72 73 74 75 76 77 78 79 80 81 82 83 84 85 86 87 88 89 90 91 92 93 94 95 96 97 98 99 100 101 102 103 104 105 106 107 108 109 110 111 112 113 114 115 116 117 118 119 120 121 122 123 124 125 126 127 128 129 130 131 132 133 134 135 136 137 138 139 140 141 142 143 144 145 146 147 148 149 150 151 152 153 154 155 156 157 158 159 160 161 162 163 164 165 166 167 168 169 170 171 172 173 174 175 176 177 178 179 180 181 182 183 184 185 186 187 188 189 190 191 192 193 194 195 196 197 198 199 200 201 202 203 204 205 206 207 208 209 210 211 212 213 214 215 216 217 218 219 220 221 222 223 224 225 226 227 228 229 230 231 232 233 234 235 236 237 238 239 240 241 242 243 244 245 246 247 248 249 250 251 252 253 254 255 256 257 258 259 260 261 262 263 264 265 266 267 268 269 270 271 272 273 274 275 276 277 278 279 280 281 282 283 284 285 286 287 288 289 290 291 292 293 294 295 296 297 298 299 300 301 302 303 304 305 306 307 308 309

POINT_DATA 310
SCALARS curvature float
LOOKUP_TABLE default
0.21979904544527212
0.22404586271801227
0.22680520709798788
0.22780794796950576
0.2269977506479799
0.22431753316566755
0.21990682215650798
0.21398910064169419
0.20684993127759368
0.19882878911961605
0.1902750696933847
0.1814998502884834
0.1727706011972868
0.16430601432307673
0.15626468750419759
0.14875873272803683
0.14186405319259157
0.13562721723874133
0.13007289569330222
0.12520169527832087
0.12099870522459805
0.11744411548593754
0.11446933937016053
0.11200310452670621
0.10997677518164506
0.10830418882862561
0.10689441369733185
0.1056675144689361
0.10455088263550569
0.10347899482756014
0.1024029782266162
0.10128731899548167
0.10011205931599501
0.0988694322270214
0.09756536104213029
0.09621645269502477
0.0948430972995936
0.09346073371009624
0.09208535769055189
0.09073461431403042
0.08942644078896662
0.08818293171892294
0.08702275519724781
0.08597256761928095
0.08507044525467718
0.08435451669637022
0.08388238878456661
0.08372340082221139
0.08394614722684995
0.084644430717692
0.0858957669009122
0.08776266339214574
0.0903336130118669
0.09362476152380612
0.0976699762871551
0.10247389415825617
0.10805220192607737
0.11440434508784217
0.12152898159291234
0.12941718233923136
0.13806820533934105
0.14751285077377532
0.1577453845045522
0.16880220397799187
0.18070757496763268
0.19354930283777935
0.20736965172834754
0.22220874059594178
0.23809903410368152
0.2550036533867932
0.27283556693294714
0.29139102292817926
0.3103581227855558
0.32927745958032617
0.34744613323467644
0.36408301809935073
0.3782612340536435
0.3889135016812763
0.39490552215848135
0.3955294840980296
0.39068382563753185
0.38073080540355536
0.3665699275830887
0.3494598111901895
0.33059755953733716
0.31102937411147263
0.29155695811015525
0.27281549259648313
0.255251308658411
0.2391060305606404
0.22453724728225546
0.21161298998482814
0.20031492213376603
0.19055457510713752
0.18229166733940355
0.17533990330087731
0.1695402668178334
0.16467471276183565
0.16054762699463598
0.1569643919806981
0.15373794351253425
0.15070568898216558
0.1477401247216512
0.14475420075973294
0.14170246026589398
0.1385929636226302
0.13551174115372325
0.13261918770118536
0.13014093555638526
0.12838975719298856
0.12768183584988108
0.1283162829949422
0.13054795092227559
0.1344683719544155
0.14004552743520857
0.14713834631622907
0.15546434255963487
0.16473887892202255
0.1746655147784484
0.18494628191293166
0.1953052269518991
0.20550453686305353
0.2153235971471321
0.22454386544669755
0.23299919367280017
0.2405546386228433
0.24710866477992138
0.25260739019807765
0.2570568283933857
0.2605141650535257
0.26310449630363897
0.26503235586435614
0.2664871567232063
0.26761534297492057
0.2685335432146176
0.26936501730248136
0.27026892158489996
0.2713557052354609
0.272708979620673
0.27439453500057576
0.2764156551475947
0.2787458354242805
0.281302146885017
0.2839489069564321
0.28651719897143085
0.2887741947189888
0.2905008864927746
0.2914742111405135
0.29145698408894305
0.29030628665316327
0.2879195016068995
0.2841771500093313
0.27893544843983137
0.27208823271747096
0.2636929313639127
0.2538829260059386
0.24286806036500133
0.23092718288154693
0.2183467736027953
0.20541715708988464
0.19243021765804463
0.17965289696727202
0.1673389728669245
0.15574827749666534
0.14512653701146142
0.13576967911651083
0.12801709585309595
0.12211484067587194
0.11836851184335224
0.11693447989360307
0.11780650007716638
0.12084455958851759
0.1256843704040698
0.1319845992162658
0.13931293252627985
0.1472456279438937
0.15541388097777853
0.16346532624609825
0.17109789794198926
0.1780501873905166
0.18410629877245765
0.18913327113682035
0.19305507936748112
0.19585247010691012
0.1976108886883406
0.19846595888031068
0.1985812908579489
0.19814844622886182
0.1973520118392496
0.19632519163035347
0.19515154336202484
0.19389400652612157
0.19261175663339625
0.19133008724191858
0.19004452674936861
0.18873460060270075
0.18735925848950286
0.18586248195679408
0.18417387155722792
0.18221922848477085
0.17993726920323008
0.17726423620185527
0.17414758550005954
0.17057735596163706
0.16654691119704876
0.162061127346573
0.15716860497747537
0.1519156111593503
0.1463344039836448
0.14045859854258413
0.13432706948027603
0.12799688210529847
0.12153237940424787
0.11499328734846363
0.10843319259150916
0.10190723582638106
0.09546282188102084
0.08914458176242024
0.08299852444596449
0.07706573409034592
0.0713936407999602
0.06602795079742699
0.06099503454295775
0.056329923163146736
0.0520523193282876
0.04815094797223293
0.04462226357517777
0.04145607824555455
0.03861956835508138
0.036075270196444915
0.03375267625196788
0.031567539667006324
0.02943730554333692
0.027281159855876248
0.025019298062659734
0.022585413307511987
0.019922579813421826
0.016984484413974474
0.013764704621649656
0.01033088006169129
0.0070245534639498996
0.0053886161266575305
0.007597685080692909
0.012236883496929316
0.01788352462679416
0.024121678894982488
0.030817714048527553
0.03791759539143921
0.04537150851123166
0.053120145533645
0.06111769418077564
0.06931508430953076
0.07766534932912168
0.08612241535476857
0.09462642070311228
0.10311445709603693
0.11151810781868397
0.11975605213079779
0.1277413213327351
0.1353893555170696
0.14262910130967832
0.14939737263636105
0.1556547037251955
0.16137221892893594
0.1665492761830683
0.17118900708949986
0.17530197880247264
0.1789302899049105
0.18215918132207048
0.18506566816949274
0.18774226505347075
0.19029375135598992
0.19279451346446833
0.19527596489996724
0.19773709045355653
0.20015897723441126
0.20250891729757647
0.2047223055274384
0.20671873299865032
0.20841721884025652
0.20972107783706284
0.2105402036785629
0.2107891817642186
0.21040461510019842
0.20933865650472067
0.20755929234839723
0.20508016587024164
0.20198140891535502
0.19835441580484783
0.19433308233331797
0.19008070148712675
0.18575302845525085
0.1814824401435741
0.17739756450637967
0.1736238922359698
0.1702985326013055
0.16755263571885826
0.16547693660935986
0.1641704961631642
0.163705138668889
0.16412159373899418
0.16548206764750722
0.16778681648572796
0.1710399356772178
0.17524053275338602
0.18032619079640258
0.18622923779077177
0.19284974915665606
0.2000258557076409
0.207564561011041
SCALARS torsion float
LOOKUP_TABLE default
-0.040318680445391594
-0.04567652711744907
-0.051659272601850555
-0.05831001824060877
-0.065598151494498
-0.07352832548150624
-0.08207597533520808
-0.09113374817574697
-0.10064659407746444
-0.11054327319360839
-0.12066903000267457
-0.1309508272664679
-0.14120843040821224
-0.1512471352514513
-0.16090972142140117
-0.16977819247199546
-0.1775538372869929
-0.1839362015524703
-0.18850541966442025
-0.19090957327276153
-0.19040893113447757
-0.18628989035822677
-0.17847151202749595
-0.16727146270716148
-0.1527397322662361
-0.13539837533944954
-0.11671049928125378
-0.09687659019918779
-0.07665984646779914
-0.05683990086157237
-0.037465229150112044
-0.019450181525482838
-0.0031507266151921814
0.011056544269386312
0.02181095128772978
0.028614207239947113
0.03146049416253042
0.03037998063381741
0.025090805483483084
0.015258536156623792
0.0007985989004332418
-0.018140579282187184
-0.04083694795026125
-0.06694047901510035
-0.09492173062411326
-0.12296703633363504
-0.15025128681283476
-0.17517134225188027
-0.19663651321535705
-0.21367088718044427
-0.2249419980282642
-0.23044910557554932
-0.230080884140649
-0.22408736581714486
-0.21396009841637315
-0.20108449988615526
-0.18658695290147953
-0.17174938286357175
-0.1575408184785627
-0.14468737109058064
-0.13353459241763332
-0.124026535981639
-0.11620570101885562
-0.11016163329867362
-0.10544417663103046
-0.10199434214183818
-0.09969311559833807
-0.09817688217455348
-0.09751979134621976
-0.09734846754494147
-0.09723399084974159
-0.09724009640635643
-0.09662309699695129
-0.09511860018345937
-0.09271388661762248
-0.08922514327967059
-0.08443506896658341
-0.07815293087187448
-0.07033940839498445
-0.06132950435640701
-0.0512923887034168
-0.040546947268287344
-0.02994013041946436
-0.01935668350702499
-0.008873359843244801
0.0016760256907023307
0.012430105068974736
0.023390951050531943
0.03485991953933547
0.04685024943231821
0.059425958575186136
0.07268794368002766
0.08652771890038954
0.1008527328894819
0.11564304490516378
0.13106941504930394
0.14717968750088886
0.1638040385561747
0.18072235115491558
0.19806889669370661
0.2161291888318458
0.23529382939550647
0.2558805558046101
0.27833158540737485
0.30299639176673565
0.33010761172994224
0.35913095748625085
0.3892095789214138
0.41855891317438115
0.4435562980568721
0.46067206499740804
0.4664221263898386
0.45824544426938746
0.4364079807949951
0.40291903143540153
0.361669212849171
0.31690495018240167
0.2714306802504719
0.22714952020243695
0.18622929521747836
0.14969949125690982
0.11697771905853217
0.08837253621772113
0.0633946951187855
0.04160290230713264
0.023502772811574927
0.008481243370602845
-0.003259591383211951
-0.011535043996724198
-0.01683569740066957
-0.019653397761533842
-0.020207824403629872
-0.018724034669987264
-0.015540230018914514
-0.01072850518007533
-0.00472612454168673
0.0022296703901426135
0.010104437082937913
0.018200386266361335
0.026465229788343703
0.03487148960551743
0.04328587664245008
0.051811726160131924
0.06044326382329364
0.06925376403408282
0.07834371504185056
0.08745837190780421
0.0966835489924128
0.1059726275002649
0.11513914604190538
0.12421464298898867
0.1332895668787646
0.14265136627053437
0.15240919762237456
0.16224415506180925
0.17240025875148843
0.18340225414629635
0.19560214751460384
0.20944308206659384
0.22574253404074882
0.24505755016333447
0.2679878171954361
0.295130637335108
0.32686160812741905
0.36287384650646043
0.4015415652794984
0.4397681314929286
0.4737162046304367
0.49733442696092806
0.5051987256093246
0.49549610219530993
0.47038296829773213
0.4353744489508955
0.3956011077245297
0.35532359035490585
0.317986174971824
0.2850723665782001
0.25644422101080305
0.23205337198206302
0.21128647660046926
0.1934544387399939
0.17798892707459044
0.16425961211095685
0.1519399261452433
0.14062996806513686
0.12989812561354544
0.12003458437837211
0.11082133607782008
0.10192423037651048
0.09316850044450345
0.08444202296665204
0.07606972968416813
0.06832093757385045
0.06113091902435928
0.054746758347941404
0.04922745542903597
0.044515969087013676
0.040577859180720745
0.03741338645303607
0.03501000876310264
0.03335729895180757
0.03247236475543723
0.03221247646917649
0.03251129373950707
0.03334166855212677
0.034443513031359924
0.03576608587830971
0.03717285235552541
0.03841067697096238
0.039428374345470876
0.04004564474649147
0.04003625290095978
0.0392359677780786
0.037819864810345556
0.03564981393268607
0.03252491602859167
0.02843076680749952
0.02302340152862486
0.01617779839231211
0.007872343920396783
-0.002284831792418676
-0.013946553567912846
-0.02688617794669681
-0.04097364609906435
-0.05552680894340399
-0.06988235667244101
-0.08314572322448688
-0.09410431054611598
-0.10151749480496623
-0.1043874726301362
-0.10206525023063291
-0.09429675156736267
-0.08261133627354673
-0.0674288624163334
-0.04843926266235274
-0.024798385930117847
0.006649736121299552
0.05219519832598795
0.12932365416998404
0.2947452753731792
0.7303376365553191
1.364694224191529
0.7656886480945251
0.3326070692432568
0.18730098176700838
0.13061295941562423
0.1065444630101342
0.09646694571295132
0.09254967885646098
0.09201929820497973
0.09345573049631029
0.09471858534579529
0.09596452762476818
0.0973535056229008
0.09877895191362061
0.10053012359495532
0.10201962452363886
0.10295155155120324
0.10369706881715889
0.1038326151486444
0.10342321363527948
0.10265766323246919
0.10144533916688794
0.09983262537255982
0.09780970804747811
0.09532164043308998
0.0923926242485665
0.08883604710012613
0.08452938061188835
0.07951352543459816
0.07408980412837997
0.06820235905846005
0.061797191316269776
0.05487322679733053
0.047417138496746246
0.03960780549461948
0.031501530881099034
0.02312180750012138
0.014783256951699167
0.0064647733185921544
-0.001794429600433362
-0.009878326144232383
-0.017878491824341182
-0.025764783510383426
-0.03357439267551838
-0.041359393832915536
-0.0488551592838151
-0.05607783024457871
-0.06304165748008106
-0.06967318363611755
-0.07592060607128844
-0.08190725073749523
-0.08767802755823263
-0.09313769873314841
-0.09815842166247712
-0.10252269121942298
-0.106086619495691
-0.10895570174674926
-0.1109144848489241
-0.11191714657528443
-0.112022567774656
-0.11111403230211615
-0.10931741229927651
-0.10672180062318556
-0.10337497479549518
-0.0994608400554488
-0.09509985574105365
-0.09039428071505723
-0.08545370113205253
-0.0803667270528229
