# vtk DataFile Version 2.0
00004563.nii_L_ICA_labeled
ASCII
DATASET POLYDATA
POINTS 267 float
111.97976885801077 86.63756926845832 40.90434548149285
111.8021726204097 86.64016508874064 40.66260329954865
111.6197700525767 86.63154177389451 40.42461012652783
111.43259667435507 86.61096879149335 40.19109922526928
111.24077569382263 86.57776476854043 39.96287953162193
111.04452942066482 86.53132680000901 39.740821618624025
110.84418754675022 86.47116176619691 39.52583543636445
110.64019069215826 86.39691757138577 39.31883921321646
110.4330621186463 86.30826341097323 39.12082013991537
110.22346887674732 86.20520520914225 38.93261296873608
110.01217233639201 86.0880634811062 38.75483715984909
109.79996658373068 85.95706566263958 38.58815835366483
109.58769625633926 85.81313535478954 38.43259257313325
109.37619178616694 85.65682928165721 38.28832914730985
109.16619701131118 85.48937742217495 38.154755703141056
108.95841156719895 85.31166667375263 38.03135757803025
108.753398907796 85.12481153121075 37.917161555189736
108.55160769963699 84.92987597044501 37.81100439383179
108.3534444793302 84.72774868129174 37.71166830242824
108.1591998013419 84.51933730927946 37.617714319981104
107.96909537596935 84.30546987436651 37.527625019181485
107.78334564554025 84.08685771420237 37.43986446820349
107.60216029025197 83.86415036093804 37.35285839381615
107.42576924709827 83.6379548800525 37.26500268369193
107.25445886458954 83.40885687558247 37.1746525455384
107.08859700366325 83.17745915350757 37.080102008667005
106.92860879698583 82.94443086487911 36.979633243346825
106.77506701129963 82.71051993745012 36.87146877825075
106.62869472920661 82.47661529700078 36.75378891997396
106.4904001797538 82.24380595717552 36.62473510450175
106.36146038432379 82.01351024080222 36.48221671270034
106.2430705355315 81.78740481525861 36.3246612171221
106.13695665766741 81.56769347176885 36.150250497594875
106.04473429853753 81.35687656892485 35.95791223831198
105.96839913647621 81.15808584024366 35.746759595464184
105.90935556246613 80.97435940231031 35.517250667141354
105.86881911830561 80.80882704348544 35.27053705891239
105.84746331472104 80.66432788000898 35.0086664254284
105.84506695675803 80.54284609496193 34.73453606294767
105.86055030454607 80.44527634118377 34.451418156047254
105.89240359503565 80.3717948260828 34.16242984495974
105.9388502247128 80.32203335730487 33.8703624649585
105.99770101052262 80.29466607124289 33.577559396214944
106.06715070233577 80.28876354034553 33.28584715559008
106.1453257047834 80.30297967565498 32.99663133632348
106.23057498313588 80.33611610106036 32.710976527610505
106.32147714195358 80.38724259584738 32.42974243387235
106.41680049150722 80.45573477322193 32.15370846258375
106.51539375017644 80.54088311093588 31.883520863585872
106.61627134660473 80.6422827291449 31.619866961599023
106.71855176091165 80.75971439505751 31.363509121585132
106.82143240757365 80.89308989948567 31.115322149867655
106.92417689772861 81.04240841674248 30.87632857061964
107.02608628871464 81.20792520056324 30.64788548188632
107.1265355712518 81.38943717135923 30.43126236087787
107.22495692423352 81.58679265466566 30.227978512877755
107.32079076518022 81.79992113873098 30.039965712491288
107.41364633681209 82.02791673365105 29.86864956018027
107.50315707544918 82.26997035127285 29.715846359477286
107.58920650545289 82.52449227076595 29.582555830243784
107.67176643330488 82.78991609649368 29.46991472367365
107.75114073585193 83.0640621123959 29.377716543755195
107.82772599523493 83.34499381988418 29.305777887550082
107.90215438132988 83.6306957543817 29.25283472395315
107.9751314318542 83.91948455260822 29.21747333809972
108.0474429488584 84.20993848643255 29.197767975179648
108.11988368592775 84.50097528924816 29.19177556233611
108.1932141393496 84.79180709146772 29.197229562736858
108.26816726171896 85.08189728687168 29.212172895286123
108.3453694854289 85.3709295567135 29.23444035384016
108.42537151504892 85.65873961560614 29.262050023524424
108.5086506307258 85.94526499124248 29.293131620283496
108.59563570667771 86.23049996739246 29.325891042784892
108.68657598542639 86.51450617099893 29.358581010178664
108.78166373700859 86.7973411725335 29.38957040445094
108.88099350957158 87.07905234885366 29.417304671730392
108.98456428210706 87.35965873002162 29.440303677020655
109.09230472000492 87.63912927207345 29.457119713954157
109.2040303072428 87.91738105862413 29.466399355554383
109.31945434664387 88.19427032078434 29.466911727387384
109.43822666619097 88.46957531972782 29.45748083847068
109.55992107004563 88.74299608491245 29.437019466869135
109.68405127252993 89.014140155181 29.404486860286006
109.81006879281715 89.282512721151 29.358888796977794
109.93735029914706 89.54756851968206 29.299515329320364
110.06525210516644 89.80864640035911 29.225637427441104
110.19309170786072 90.06495167041818 29.136522069892546
110.3201454271391 90.31557517889912 29.031549734286465
110.44568814352199 90.55959437731711 28.910451950047086
110.56896079803677 90.79587704966586 28.772816663707953
110.6891891287622 91.02319467179474 28.6184206084436
110.80566548212313 91.2404221991675 28.44751072090522
110.91756555415265 91.44605167162652 28.260007730430562
111.02427633843938 91.63903672642022 28.056710059235876
111.12507532936634 91.81799177786911 27.838138076792838
111.21948769945546 91.98206803582318 27.605491255704898
111.30702236878575 92.13034503493019 27.359907366714975
111.38746235608288 92.26251724206253 27.10295971121514
111.46063773068111 92.37838757450959 26.83615578007612
111.52661232884716 92.47830074790089 26.561140535562565
111.58557735284091 92.56291080544491 26.279471525947912
111.63778167146425 92.63303938529322 25.99253198788069
111.68371414196002 92.69006387110053 25.70163656806393
111.723779994748 92.7352319956163 25.407798694093447
111.75850382538299 92.77008095638553 25.1118777166453
111.78844906535551 92.79624693399661 24.814537965840408
111.81413916936603 92.81530796365975 24.51625652546911
111.83605841511985 92.8288056049374 24.217367826305573
111.85475918912987 92.83838372772925 23.918107295538093
111.87074951105399 92.84559086034982 23.61862180294652
111.88452379389004 92.85191880228575 23.31900559564674
111.89656917155955 92.85881198784955 23.019327322335833
111.90738854819791 92.8676662042334 22.719654409931955
111.91750722337817 92.87975775391575 22.420071322896582
111.92745610650051 92.89626316132303 22.12069463894464
111.93780001678994 92.91828919908775 21.82168845277896
111.94913769645625 92.94673455093773 21.523262596123782
111.96208573602779 92.98226629525372 21.22566466659173
111.9773203925495 93.025469101154 20.92919324866804
111.9955356861084 93.0766653186265 20.634167569866246
112.01740393736783 93.13589551048184 20.34089962324748
112.04370005996691 93.20319757217048 20.049744919882468
112.0751013253176 93.2782474015424 19.761000991743614
112.11227413744635 93.36061595257227 19.47494971057193
112.1560082636322 93.44991680833608 19.19192286137416
112.20681489851073 93.54543194705494 18.912125789309624
112.26529406242298 93.64655325260576 18.635818647527124
112.33207115436433 93.75268754135774 18.36329903762544
112.40748649670824 93.8631217742247 18.094772204542434
112.49193366234226 93.97725748234714 17.830515169554914
112.58587718149819 94.09458286081583 17.570901985694984
112.68941180037032 94.21455272670782 17.31619365318062
112.80270704240205 94.33674975189531 17.066753386892543
112.92593803069634 94.46084033972615 16.823024188956417
113.05914368415216 94.58654699552898 16.585449826873305
113.20223114533812 94.71365611195392 16.354460862610615
113.35513002776652 94.84203386074553 16.13056835013487
113.5178211330168 94.97161566997636 15.914404956251527
113.69009201566774 95.10236588771248 15.70652913649207
113.87170955497994 95.23428295263541 15.507538447512324
114.06245881048503 95.36738605362285 15.318110873818409
114.26221256383214 95.50170987573304 15.13911621574746
114.47054294509321 95.63723562384949 14.971149704860888
114.6871142674834 95.77392919536572 14.814967004085121
114.9116581562394 95.91172444512398 14.671534958091387
115.14361047787612 96.05046141999632 14.541425224510384
115.38244871222945 96.18993055681084 14.425309035661169
115.62766753040387 96.32986010964164 14.323992276914037
115.87849107816074 96.46990483955987 14.2376680286117
116.13426514034187 96.60967753579452 14.166814186012667
116.39420471856042 96.74875914104899 14.111451220567902
116.65752599397187 96.88672771168902 14.071383242058262
116.92351683916915 97.02314471621646 14.046492371485714
117.19143177473757 97.15765462735877 14.035993560834529
117.46066001337773 97.28989829676817 14.039367372517896
117.7306484455671 97.41960163447112 14.055754965836702
118.0009447182363 97.54656617148926 14.084168758234362
118.27119556642113 97.67059333204656 14.123806405128262
118.54113788728083 97.79159247122558 14.173616662418285
118.81059701541642 97.90951052413769 14.232602834196697
119.07946656356326 98.02429602388334 14.299888015008149
119.34770258492745 98.13592585104895 14.374608153180171
119.61532231091712 98.2444383873405 14.455850712949369
119.8823779310901 98.34985287460074 14.542831511790146
120.14895045848426 98.45217341415993 14.63484738147335
120.41515029487076 98.55143988789172 14.731188441953318
120.68110427690297 98.64771472337797 14.831177450887413
120.946945794288 98.74105143018161 14.9342072456005
121.21281419346077 98.83148918946713 15.039724564928363
121.4788491624354 98.91913389576555 15.147162366474731
121.74518337709063 99.00411159882748 15.255993095709972
122.01194218350955 99.08656307988319 15.36572422947504
122.27924659494731 99.16664539255363 15.475881903263
122.54718797226121 99.24462270599359 15.586002524655965
122.81584742807374 99.32077187212764 15.695652252427873
123.08529849717327 99.39540648265516 15.804397290305891
123.35558027663573 99.46892587411104 15.91183245483871
123.62671325216068 99.54176976297693 16.01756926256876
123.89870611257659 99.61442502125792 16.12120603442257
124.1715384842636 99.68743934114696 16.222352834605164
124.44515585369699 99.76139623502146 16.320652792461686
124.7194861334052 99.83692123546095 16.41571865826298
124.99443158086214 99.91470283768186 16.50711420418346
125.26984592886127 99.99539157392256 16.594484952645484
125.54555637042236 100.0796721022627 16.677414398563705
125.82134731932946 100.16829066218821 16.755401357354792
126.09695337004518 100.26189755466764 16.828021295749856
126.37206398698417 100.36112693471091 16.89481309045306
126.64630813580582 100.46663287670377 16.955236998881524
126.91925194649143 100.57901502505531 17.008741892110034
127.19042603144223 100.69870585847275 17.05487043157156
127.45929434245537 100.82613020629722 17.093096263787057
127.72521500898226 100.9617490981654 17.12276998750799
127.98758863659006 101.10567218147268 17.143524737457216
128.24573946177932 101.25802891707396 17.15489713662536
128.4988903481651 101.41894866544342 17.15633500756438
128.7463340409422 101.58828457515887 17.1475266357618
128.98734074097362 101.76582633178762 17.128177593157655
129.22108583958126 101.95137017390634 17.09791423218333
129.44677385280644 102.14456969050269 17.05648322051501
129.663697472877 102.34493104285653 17.00379703232658
129.87105190247794 102.55198236724108 16.93968456025241
130.06795827001437 102.76521481007006 16.86395326808439
130.25378791552183 102.98392130367846 16.77672728918025
130.427791880675 103.20742718265922 16.67802580717803
130.58903260400518 103.43505183369743 16.567745206711322
130.73702002620664 103.66592369798985 16.446217495938114
130.87111377785362 103.89919584441797 16.31364671705453
130.9904695362439 104.13398225068691 16.17011622301618
131.09484859488916 104.36929993782665 16.016168008900646
131.18382589821923 104.6041743477462 15.852193606729903
131.25688847622064 104.8375778648705 15.678541326965957
131.31413230972092 105.06853193715585 15.495913635728593
131.3554390908932 105.2960452424843 15.304857928870057
131.3807857101083 105.51913438745096 15.105960761056735
131.39061364936137 105.7369774632756 14.900000849694578
131.38515346509274 105.94872857571973 14.687621324223432
131.3648187704217 106.15364627724273 14.469517025736367
131.33029695952118 106.35118648675447 14.246444342038739
131.28209016928855 106.54078357959912 14.01905382976912
131.22080245061207 106.7219920959798 13.788000227382684
131.14724286855684 106.89459154401362 13.55395356920207
131.06207817958946 107.05836232329386 13.317504784208344
130.96586473761488 107.21307260816324 13.079196207396283
130.8594418461798 107.35881505932709 12.839577917213015
130.7434621723299 107.49562235134397 12.599124702289823
130.61849492807806 107.62352413432515 12.35826951109319
130.4851408265828 107.74265297085971 12.117411296700103
130.3440297704891 107.85325097440187 11.87690338354465
130.19568776959596 107.95551790868238 11.637057984604466
130.0405485360811 108.0495981375444 11.39816161603462
129.87910363880346 108.13575296305203 11.160455817649273
129.71181283934425 108.21425324093278 10.924144222869847
129.5390721341278 108.28532668955464 10.6894061885823
129.36119087896193 108.34910772092238 10.456417800611481
129.17857471123236 108.40589370845825 10.225289732396703
128.99156272766598 108.45591468263193 9.996120755403995
128.80044974020367 108.49935291284326 9.769000472017627
128.60551634016073 108.53638310037691 9.544000990234423
128.40709766034425 108.56729542978704 9.321133954833634
128.2054753021341 108.5923150497671 9.10041160146695
128.00088116813484 108.61159141383378 8.88185729741612
127.7936330254498 108.62546601604399 8.66540360588443
127.58399645538401 108.63421143744642 8.450990391132619
127.37220552731007 108.63805650019324 8.238558656362306
127.15853591227926 108.63735551683132 8.027982048272795
126.94324209878498 108.63245332787723 7.819121704411194
126.72655069453184 108.62365576669742 7.6118394784130325
126.50870062004971 108.61133765073082 7.405955106216322
126.2899226365506 108.59589566370569 7.201268054376619
126.07042549009287 108.57769633605716 6.9975792738768074
125.85041392322123 108.55713104064502 6.794671609157773
125.63008809039285 108.53462970733932 6.592310740099956
125.4096323850406 108.51060043762203 6.390266880485873
125.18922720558004 108.4854554019307 6.188303480015876
124.9690447813853 108.45964459305377 5.986181072207024
124.74925130462417 108.43360637173363 5.7836649088954175
124.53002027961864 108.40779867875882 5.580510738232026
124.31151308617257 108.3826873270771 5.376491618935899
124.09389520446999 108.35874167169904 5.171385122016803
123.87735023354651 108.3364590895008 4.964960423709389
123.66206254279552 108.31633535688735 4.757005305903544
123.44821586045012 108.29884926234048 4.547332782865398
123.23602355085812 108.28451260062894 4.3357499999488995
123.02572382598434 108.27385906257288 4.122071667023264
122.81753258820922 108.2673446484893 3.9061751990630014
122.611702544089 108.265458502787 3.6879382005606
LINES 1 268
267 0 1 2 3 4 5 6 7 8 9 10 11 12 13 14 15 16 17 18 19 20 21 22 23 24 25 26 27 28 29 30 31 32 33 34 35 36 37 38 39 40 41 42 43 44 45 46 47 48 49 50 51 52 53 54 55 56 57 58 59 60 61 62 63 64 65 66 67 68 69 70 71 72 73 74 75 76 77 78 79 80 81 82 83 84 85 86 87 88 89 90 91 92 93 94 95 96 97 98 99 100 101 102 103 104 105 106 107 108 109 110 111 112 113 114 115 116 117 118 119 120 121 122 123 124 125 126 127 128 129 130 131 132 133 134 135 136 137 138 139 140 141 142 143 144 145 146 147 148 149 150 151 152 153 154 155 156 157 158 159 160 161 162 163 164 165 166 167 168 169 170 171 172 173 174 175 176 177 178 179 180 181 182 183 184 185 186 187 188 189 190 191 192 193 194 195 196 197 198 199 200 201 202 203 204 205 206 207 208 209 210 211 212 213 214 215 216 217 218 219 220 221 222 223 224 225 226 227 228 229 230 231 232 233 234 235 236 237 238 239 240 241 242 243 244 245 246 247 248 249 250 251 252 253 254 255 256 257 258 259 260 261 262 263 264 265 266

POINT_DATA 267
SCALARS curvature float
LOOKUP_TABLE default
0.1572450536782395
0.1638999246729972
0.1705278203483833
0.17698443878613718
0.18307510751679135
0.1885617313877501
0.1931666435852074
0.19657709930978365
0.1984585723087776
0.1984700879428247
0.19634269758455553
0.19181573853412154
0.1848295945605471
0.17545337480241138
0.16407200432530852
0.1510604107412318
0.13683238176545925
0.12185375672955803
0.10675349704369905
0.09233783579966497
0.0797694437170429
0.07072191070678488
0.06718731641082605
0.07056010157091902
0.08065904132761473
0.09611218559883729
0.11548884055736136
0.13790001110949973
0.16287556491516345
0.19008540240984084
0.2190997427250672
0.24914915544648114
0.2790532405202896
0.3070370008546678
0.330920062914305
0.34868261165643105
0.35846333189403934
0.3590600698491635
0.3507580842417159
0.33538986427148115
0.31537447542380426
0.29333527616270194
0.27140865617577364
0.25102190497785787
0.23308971265393086
0.218288531825898
0.20710606839131185
0.1998022803096156
0.1963624951834734
0.19665365739959972
0.20035094811847626
0.206967263243845
0.21585459720049924
0.22619907753885682
0.23701499188378108
0.2473348955277446
0.2560732602092171
0.2620237298682345
0.26385246578147686
0.2607163159588045
0.25220579435164686
0.23873991416332488
0.22122242807872064
0.2008670918598361
0.1787358279099379
0.15580144547177124
0.1330039978363347
0.11113213189684096
0.09089380736689215
0.07307327313670632
0.05882018761492178
0.04984211934615647
0.04783006381785346
0.05236553691294671
0.06113811945395323
0.07198457489217154
0.08366520907440063
0.09552500762415811
0.10718950238123545
0.11845471024062346
0.12925254322556654
0.1395864215209004
0.14952583687250798
0.15919374680980258
0.16870035440955294
0.17808630341718107
0.18736872162015364
0.19652198661625142
0.2054507142481737
0.21400603609927257
0.22198256704267394
0.22907560554157794
0.23480100351937172
0.238658149497914
0.24009682702879986
0.238671612975881
0.23413325759772502
0.22655291158083332
0.2160765800841086
0.20296281265697155
0.18757688841685735
0.17041619793708812
0.1519990199235938
0.1328417692178122
0.1134205653563931
0.09409340835107684
0.0751510996094568
0.05696818178987921
0.04024087489852253
0.026760468193551067
0.021425358668750887
0.027636132888880994
0.039174584113663403
0.0515629612768668
0.06333879675984637
0.07390882707790951
0.08295731656301268
0.09043533554340127
0.09640416440919546
0.10099478070832058
0.10439981264720166
0.10685401602060898
0.10867536795517922
0.11016589142968335
0.11160007846735838
0.11317981606852312
0.11499646821351339
0.1170585830569997
0.11931409898216358
0.1216820320003003
0.12407632446945863
0.12644623484001674
0.128775836905831
0.13107802744086622
0.13339719774878794
0.13580760725089366
0.1384051556556406
0.14129529574952074
0.14457299467873783
0.14829618983772194
0.15245884455407588
0.15699556155973862
0.1617570845635437
0.16651148825479126
0.17096910847833077
0.1748396436467365
0.17782255723139082
0.1796106051010956
0.17996624677244505
0.17867187396616324
0.1756154434809467
0.1708037664810141
0.16441564015813281
0.15674110868203686
0.1480478094933535
0.13861923717791821
0.1287471898378901
0.11870855619524434
0.10874488362560349
0.09905602669450511
0.08980843780907076
0.08110408233936045
0.07301032128993143
0.06557013567093706
0.058810059447729615
0.05272264127309466
0.04725759611103131
0.04236742496575627
0.03800204933948269
0.03410614004592867
0.03063094621522766
0.027547587281551763
0.024889172482997497
0.02278546554809595
0.021482345960793705
0.021320988375030717
0.02256319226270362
0.025277637883689023
0.02936210918103868
0.0346277578586704
0.04087037610219503
0.04792229214997744
0.055638434096262
0.06388237128267363
0.07253315019569037
0.08147636354075591
0.09059038516040402
0.09973904291586369
0.10879185151057941
0.11763194381005596
0.126152377347102
0.13423635373442225
0.1417599127039312
0.1486620810809188
0.1549330621410632
0.16057981559562548
0.16566919306621158
0.17027933298801567
0.17447469217729225
0.17831900193210265
0.1818958504797317
0.18529156710022532
0.18856376379583498
0.19174210026127958
0.1948183256079837
0.1977183874655865
0.2003250049094986
0.20252415934455184
0.20420947190060104
0.2052903908299534
0.20570674477871026
0.20539730634453782
0.20431573782757084
0.20239958908563394
0.1996523215186651
0.1961655940178808
0.1920244096252917
0.1873367665634011
0.18221255076552678
0.17672293546046045
0.17092004158377944
0.16488462240233098
0.15871851558022676
0.1525120025160452
0.14634284051580115
0.14028098856718285
0.13438114199243165
0.12868380500706056
0.12322338662858444
0.1180383007123585
0.11315485112666816
0.1085652274147024
0.10425844101242336
0.10021038305648673
0.09639135561132532
0.09274749568217118
0.08921587577358088
0.08573778541245307
0.08225229273733169
0.07870609343303686
0.07504799180244034
0.07122722371459662
0.0672112535379728
0.0629791486055841
0.05852137032789463
0.053855395484710744
0.04900250517488465
0.04398139624248332
0.038814322413655886
0.033533140558960964
0.028178194775819912
0.022798635501887266
0.01746941697692614
0.012366063680723353
0.008098240060148722
0.00672629229582291
0.009717586979472165
0.01473899996434627
0.020404295473540387
0.026351095099856652
0.03245618456933755
0.03865905777104078
0.0449198621152878
0.051206855585713376
0.05748852243428248
0.06373299661167045
0.069908112869459
SCALARS torsion float
LOOKUP_TABLE default
0.001726146208095683
0.0018413614880194449
0.001964307537392575
0.0020009030607548023
0.0016829588347518315
0.0008983232124449148
-0.0007296888370332084
-0.003448737121707039
-0.007788888515258133
-0.014410162469706974
-0.02374145892851999
-0.036673703630529075
-0.05377039561332544
-0.07484288929683255
-0.10107545405775618
-0.13559351739672906
-0.18317362625376832
-0.2495245680726869
-0.342977694902622
-0.4764699080690928
-0.6536863123667531
-0.8446828449532829
-0.9490842789597526
-0.8753827966659624
-0.6839753802823972
-0.4924309703767898
-0.3493107436016812
-0.2524792375603274
-0.1877522523649184
-0.1436831504258129
-0.11313763338683826
-0.09151591238059217
-0.07665060716762781
-0.06671578978252482
-0.06087203046121523
-0.05820336026905675
-0.05825602525369228
-0.06095306992754961
-0.06590327395972559
-0.07293037284212031
-0.08138000707287246
-0.0906114234673997
-0.10036574620423784
-0.11022847678444654
-0.11947534147511768
-0.12560294748775408
-0.12693949474848798
-0.12323121824615454
-0.1142808139127617
-0.10009764868788217
-0.08148572535478686
-0.05975186463789886
-0.037594304032138356
-0.01576650734805611
0.004375219410036875
0.022117021620424265
0.038346200206778557
0.05442881884231096
0.0709855009906664
0.08706480575135797
0.10316318080159505
0.12040958739117728
0.13970365585064798
0.162515329915903
0.19138875845321146
0.22985975387408583
0.2829868067694385
0.36026268334528383
0.4822910458541131
0.6741224995219457
0.9501455514335228
1.2263822811049339
1.258343025777379
1.0106015812384601
0.725305329892072
0.5197818125604713
0.38624207962115087
0.29958157060509233
0.24151014051089661
0.20057072934002912
0.16969007511928969
0.1450151551854575
0.12488348045384756
0.10756772837157108
0.09191340089818419
0.07729227601391218
0.06341453666547343
0.05040105906086509
0.038085414945357624
0.027431700808875283
0.018399938023244813
0.01079307656548745
0.004480932622724157
-0.00038028660386045526
-0.00332766952013477
-0.0045219342246165155
-0.00413471831692946
-0.0021137870322982875
0.0015259459086356766
0.007124627819073873
0.014958139082528427
0.025903222072671032
0.04096451868923123
0.061651714650217425
0.09218621399198948
0.14037638345804296
0.22450496803505757
0.38905898049690174
0.7600218942628287
1.648453526203202
2.4486713207384168
1.4227055270700542
0.6990632139877934
0.41075673917954747
0.28973424555814364
0.23784616780919174
0.21867326862358183
0.21560449885249797
0.22218517956257636
0.23427069111953097
0.24970678548932182
0.26433270238617346
0.27516185080977185
0.27999156973164335
0.2764742141874739
0.264249507402964
0.2445898509003283
0.2184386366135822
0.18738158144805803
0.15260423796179848
0.11727099579277893
0.0837867242091982
0.05220716999472938
0.023309324522804282
-0.0031552095462965032
-0.025855117368084886
-0.044636505775755286
-0.05867831784217619
-0.06715538058507799
-0.07061125198382914
-0.07006667696047535
-0.06593161269123125
-0.0589489850612816
-0.049565327665203385
-0.03909456258571676
-0.02869220816106239
-0.018448298931989838
-0.008819420414836828
0.0003592254496239288
0.00880269023359272
0.01667991113254918
0.023899014170130368
0.030402710489092266
0.03660439597666499
0.04307842581207865
0.05009500915252557
0.058201195476498935
0.06769731153146684
0.07933971201264924
0.0936887565855746
0.11126106731050142
0.13275427465786588
0.1585452503707498
0.18849750841036625
0.22252391384994324
0.26053435830887567
0.3025704085759239
0.3487686314162371
0.3999608403117748
0.4574649059489464
0.523838149354836
0.6040744129032932
0.7057188439997742
0.8266476921165652
0.9422557913806923
0.998939262140278
0.9555419420608445
0.8305046616490779
0.6789116873487787
0.5365047696414637
0.41815937832344696
0.3251395197704022
0.25346850431563617
0.19790277968610193
0.15410154279250085
0.11920120934050586
0.09125796205038293
0.06860115770573444
0.05033782108950381
0.03575726033611386
0.023819308706593476
0.013902675367806136
0.0054995545665256955
-0.0012080756966893367
-0.006448395871111675
-0.01047084598676823
-0.013446354204200471
-0.01557372445904914
-0.017036261303073747
-0.017941410368896113
-0.018521819590861455
-0.018851335802179087
-0.0191728648646353
-0.01970188949554911
-0.020509942246408192
-0.02182724784970091
-0.02367671723447382
-0.02593766497927644
-0.02861620766976749
-0.03146567649303422
-0.03430893540138356
-0.03707305702773578
-0.0395526279131644
-0.04173225002871966
-0.043157785931177806
-0.04369539495518604
-0.04347119551992032
-0.042483579003386736
-0.04062769981886166
-0.03779316112279044
-0.03398290625601084
-0.029775218043506614
-0.025124027895116023
-0.020475675153249297
-0.01601542885770716
-0.01176164697514735
-0.007792871430919568
-0.00421376592698905
-0.001472549328795104
0.00023416233874752656
0.0011055316729322157
0.001185700611876643
0.0004529663729585114
-0.001029106098563258
-0.0033002317968047787
-0.005978115504138039
-0.009028077193944524
-0.012229106787017344
-0.015458937230739074
-0.018780526742788958
-0.022317919070781626
-0.026208865872261986
-0.03066739713819674
-0.03596473692565741
-0.04254176580378754
-0.05097057551479032
-0.06197505780569937
-0.07675660325862682
-0.09754878780158895
-0.12793527228307305
-0.1759782153487026
-0.261480200621669
-0.43469911017548074
-0.8513881496522886
-1.9855923449211774
-2.8898165650724006
-1.4189547993482245
-0.6393028999206312
-0.3460674324325167
-0.21450270356555015
-0.14573735496879398
-0.10531206798338592
-0.07929464535809165
-0.061582812343758425
-0.048915266279703766
-0.03967068216432782
-0.0327715187603949
