# vtk DataFile Version 2.0
00000122.nii_R_ICA_labeled
ASCII
DATASET POLYDATA
POINTS 246 float
74.29031254989677 69.75930704649362 31.11634226078434
74.5510685213499 69.87562834072965 31.02437503853048
74.813095353147 69.98115115502894 30.923431611840485
75.07584248533682 70.07567427076006 30.813833412805327
75.3387704277387 70.15897874208389 30.695883208777417
75.60133806490703 70.23081622755204 30.569866680683155
75.86301842855154 70.29110479005614 30.43618056042017
76.12324759596737 70.33943502015713 30.29501350573829
76.38150420667296 70.37581438297298 30.146817325208605
76.63722520489367 70.3999946731204 29.991882379731386
76.88980988494792 70.41170534989574 29.83049480643809
77.13869825118732 70.41092667645896 29.66305815235499
77.38327851485417 70.39754000467738 29.489901879897214
77.62286771261681 70.37137737266387 29.3113118041184
77.85685079400403 70.33257709361763 29.12766237900601
78.08458985401023 70.28131610163483 28.93928085272044
78.30545081462867 70.21787967210248 28.74646614139595
78.51881424082887 70.14267469961752 28.549481626626434
78.72409827495503 70.0562526052569 28.348552036678985
78.92087869793677 69.95941944180393 28.14389660762255
79.10877575699521 69.85303089716211 27.93566562284035
79.28751131197279 69.73803295892517 27.723970720015455
79.45687700216229 69.61539601811741 27.508882697596754
79.61677031954954 69.48611327916288 27.290460493216603
79.76727211779001 69.35119514140243 27.06879634700476
79.90848612410437 69.21152830307503 26.843981385007975
80.04051050123915 69.06786590162207 26.616117693422396
80.16357765315772 68.92087134710916 26.385382655521074
80.27799616130221 68.77106629090136 26.15201772418563
80.38395366269631 68.61877389127432 25.916277946137587
80.48175459532031 68.46419702760868 25.678508188461958
80.57171533752776 68.30739307787103 25.43910513272069
80.65395075431725 68.14822253595796 25.19848798938068
80.72881520866076 67.98649996827346 24.957167233834475
80.79635373353639 67.8218320960666 24.715676680709592
80.85675309134744 67.65380209604062 24.474612260467094
80.90999637212471 67.48185571471923 24.234625943727785
80.9560395829436 67.30540398951409 23.99642939034904
80.99475831343396 67.12384099505675 23.76078640746742
81.02580694148936 66.9364701406236 23.52858341866538
81.04890231102131 66.74276453354464 23.300695666344833
81.06341888112816 66.54209885298611 23.078190519779216
81.06874825803378 66.33408838743664 22.862121990602915
81.06415058684568 66.1185149252488 22.653588246479
81.04871624318076 65.89534139606698 22.453756333831613
81.02144138203941 65.66481908932934 22.263783758116194
80.98146396756499 65.42763329261844 22.084578406438162
80.92789563387802 65.18477329053093 21.916897868871896
80.85998405923885 64.93757847560198 21.761176265157456
80.77718026500453 64.68767884263082 21.617436804218876
80.67918701974706 64.43689571787462 21.485244184473878
80.56593202136 64.18713477398813 21.36373210322719
80.43765567734137 63.94027538989003 21.25157353284589
80.29490150366891 63.698047679063286 21.147063758367743
80.13838174581747 63.461996194476654 21.04827712087465
79.9689844296063 63.23345190422555 20.95313160159724
79.78761461942219 63.01364885817512 20.859463889267257
79.59554359292657 62.80346322874934 20.76505986289398
79.3940566905523 62.603653867694256 20.667791609835323
79.18441901030933 62.415048422433124 20.56551181224532
78.96820849429939 62.23813080907163 20.456280442713826
78.74702518914808 62.0734262503638 20.33826566996555
78.5225792147101 61.9216074989254 20.20962347414182
78.29680510686134 61.78297275729189 20.06899770859148
78.07172449417382 61.65810778156468 19.9150047775695
77.84954645871332 61.54754049131949 19.746563860944345
77.63255051129391 61.45163204542062 19.563071132697928
77.42317940769277 61.37093058491469 19.36406432517007
77.22399120838035 61.305953906270446 19.149475066029172
77.03741246294452 61.2569625770534 18.91985056767069
76.8658982863848 61.224272966985495 18.676025705200967
76.71183100985216 61.2081215158607 18.419240889561724
76.57748409618026 61.208650454093366 18.151131659446673
76.46463861558021 61.22564745082138 17.873818602069147
76.37489416236242 61.25884504219712 17.589624308207963
76.3094938657265 61.30779337598227 17.301093857663904
76.26928732674907 61.37186029770459 17.010911565254176
76.25488890754166 61.45033347468265 16.721838864720503
76.26620867642947 61.54218141695447 16.436599550576965
76.3028428722844 61.64630351500443 16.157777146007387
76.36407263869712 61.76153558675706 15.887772995345145
76.4489771502024 61.88670793530476 15.628815857235017
76.55633716358841 62.02061407876743 15.382889787008985
76.68450077135775 62.1619920302865 15.151536540980754
76.83191287817013 62.30973105803018 14.93615910104413
76.99706183180159 62.46283115037617 14.738086126003244
77.17799170238459 62.62026959416026 14.55801585776231
77.37312532484852 62.781235401907395 14.396879841027745
77.58075226371867 62.94497170498769 14.255339541127395
77.79910652473289 63.11080125782159 14.133775189082165
78.0267158436306 63.27817309638283 14.033089614594132
78.26177228493185 63.44654267195761 13.953369134389193
78.50270075831715 63.61545344047806 13.895233767111797
78.74782044630818 63.78447130433432 13.859111921929117
78.99539261490526 63.95319632723618 13.845128028869068
79.24366949582344 64.12124888287879 13.85371277918054
79.49082220149818 64.28828673773052 13.88483154091603
79.73502831331704 64.45402274975618 13.938211855182
79.97445165417979 64.61822816349063 14.013515683651004
80.20725287554777 64.78076045146706 14.110184005983527
80.43180692907546 64.94162305705251 14.227043053571332
80.64658698178968 65.10093688919464 14.36287077441442
80.8501664598087 65.25895541585308 14.516330412609666
81.04135658203535 65.41608160555458 14.685808955245648
81.21926359685521 65.5728439309828 14.869497410975924
81.38307470597337 65.72986300989648 15.065664997865417
81.53196972398709 65.88785446549544 15.272645914622105
81.66561523893968 66.0475534764782 15.488532478533287
81.78355100006706 66.20972175354846 15.711617287454834
81.885247534217 66.37515516729012 15.940229970491195
81.97064615031186 66.54453215232623 16.17259099906723
82.03942470090658 66.71854962720026 16.407029262759828
82.0913897910384 66.89783474430413 16.641824516292733
82.12667396636485 67.08285263927743 16.87526626789267
82.14517131348124 67.27410160554555 17.10559905494983
82.14720205545325 67.47188564726578 17.33109085883355
82.13324867464691 67.67640571834696 17.55005782962153
82.1036649213954 67.88791155500886 17.760674479762276
82.0594309573232 68.10638014038739 17.961377466814294
82.00154347160259 68.33179272663607 18.15060381311789
81.93102658601123 68.56417282050869 18.326657069719325
81.84947138588024 68.80328490930921 18.488335476782815
81.75840008685354 69.04897893465066 18.634306858291325
81.6594831838022 69.30109237183596 18.7632263047974
81.55468380749639 69.55927608939925 18.87423127416989
81.44594921932207 69.82322461185883 18.966277463454087
81.33536024453383 70.0925570627182 19.03833384464392
81.22509040235721 70.36668719370412 19.089825312709728
81.11732407200051 70.64495014739023 19.120057402839564
81.01433734978002 70.92652099352097 19.128242141641966
80.91830667482657 71.21029579014419 19.114131477441795
80.83133399847603 71.49497062889672 19.077516928567242
80.75537915593961 71.77900681232043 19.0183812835564
80.69215741016102 72.06064627642029 18.93698392869536
80.6431187602926 72.33793169274544 18.833782716842887
80.60914426039915 72.6088618755448 18.709758593660343
80.5906654146714 72.87145831288203 18.566092432177886
80.58762599984898 73.12386486442875 18.40416128634663
80.59949063694269 73.36444232903847 18.225482453877667
80.62530765226764 73.59182875834841 18.03162589243387
80.66389301987567 73.8048294899595 17.824025464592157
80.71361461056053 74.00277239451378 17.604243593958838
80.77276994411876 74.18519523371012 17.373626546597915
80.83960479129723 74.35182542517698 17.13334504219471
80.91236483029355 74.5024479599773 16.88436809670969
80.98918797225319 74.6373774301513 16.62772746312291
81.06835708461182 74.75684718421579 16.364221418779607
81.14820450285605 74.86107298013573 16.0945189039261
81.2271529267024 74.95078018076238 15.819384844592173
81.30375971915711 75.02651765963502 15.539426243297278
81.37669628506792 75.08895276767204 15.255234840849052
81.44488547002916 75.13907855535533 14.967447556039085
81.50735826732425 75.1777382911907 14.676606527446323
81.5633950263072 75.20597944625338 14.383265045416673
81.61255788850616 75.22497702391885 14.087950429550048
81.65449675610772 75.23578169800703 13.791108946610736
81.68918961538375 75.23961510253973 13.493160476413198
81.7167981744925 75.23766371868221 13.194451074204729
81.73750428721095 75.2309951221212 12.89524952502782
81.751791368555 75.22076230954214 12.595771905390919
81.76014185035056 75.20799296240725 12.296165361572081
81.76301311660727 75.19364041548792 11.996526598636475
81.76103408179851 75.17863195472731 11.696911992804457
81.75470579020177 75.16379483691956 11.39734839899738
81.74449410027675 75.14991129941762 11.09784605062036
81.7308617517158 75.13767828771469 10.798407892252879
81.71412399644355 75.12775996416758 10.499041662277781
81.6945216115771 75.12076966945992 10.199767033774021
81.67222322756845 75.11722808234944 9.900620980899381
81.64726149174882 75.11764003089716 9.601665044895652
81.61956508721676 75.12246825712833 9.302989469363014
81.58901754958613 75.13203198800328 9.004707058139513
81.5554020176031 75.14661130251574 8.706958433624337
81.51841227043668 75.16644451145089 8.40991473694344
81.47775067860044 75.1915960277141 8.113755805441125
81.43309737167019 75.22203960218218 7.818670930506493
81.38412223590475 75.25766139963007 7.524853836412878
81.33045109276674 75.29830509204052 7.232512608049182
81.2718492825149 75.34360804890372 6.941808188929732
81.20806974939129 75.3932000864482 6.6528990024516155
81.13885862720338 75.44669432845923 6.3659423604054375
81.06403546969374 75.5036461883873 6.081067333419659
80.98348261854132 75.56360040486896 5.798379230554557
80.89700108843952 75.62617501192489 5.518019982854248
80.80445571861506 75.6909967415702 5.24011861014291
80.70573633251864 75.75774418724784 4.96480976119941
80.60054787185857 75.82620537519443 4.692332418933228
80.4887817838322 75.8961793724144 4.422875881746663
80.37013004297128 75.9675751054235 4.156757618848881
80.2442927222887 76.04035344142066 3.8943420141942005
80.11100584115718 76.11452125213775 3.636026448453892
79.96976553256916 76.19017648049481 3.382413345459911
79.82032185225707 76.26740850776658 3.13403390517075
79.66221156249368 76.34637660540012 2.891640217673642
79.49502311275691 76.42725204331998 2.6560671661477824
79.318489886189 76.51018635910167 2.428156149488372
79.13228943209636 76.59534667830603 2.208926884135832
78.93620703964619 76.68287450246098 1.9994691513841116
78.730293018496 76.7728393413387 1.800760983145316
78.514681372358 76.86527852488899 1.613826445119536
78.28969675565112 76.96017043555943 1.4395978472492148
78.05579554321811 77.05745182083712 1.2789608701068207
77.81374812848996 77.15697146502471 1.1323823661293364
77.56439584847152 77.25855919755001 1.0001708660650899
77.30866986407263 77.36202587455982 0.8823702240257393
77.0475404067583 77.46718059038157 0.7787606384810766
76.78193642897372 77.57385791865678 0.688995259858353
76.51279521568858 77.6818976390791 0.6123467742950569
76.24094064171562 77.79117883314886 0.5480097072068345
75.96708364121419 77.9016170824456 0.49514134709479174
75.6918193573658 78.0131699931042 0.45299237047001933
75.4156735337718 78.12579026012793 0.42055558700600487
75.1390535464997 78.23946160884167 0.3970203873922145
74.8622894670294 78.35419124427146 0.38174018532183407
74.58564529577001 78.46995667906415 0.3738871479312606
74.30932357619918 78.58675348176473 0.37286465090322385
74.0334847096518 78.70457458151692 0.37814290378948495
73.75823808547084 78.8233850838392 0.3891225569793798
73.48367121288881 78.9431631532154 0.40536957709087945
73.2098392263865 79.06387126585382 0.4264313867379348
72.93676732900113 79.18546020526766 0.45185201011124154
72.66447540484087 79.30789429470376 0.4812742446633375
72.3929591454999 79.43112834661349 0.5143065686004281
72.12220299619506 79.55512206970899 0.5505794213054971
71.85219748688861 79.6798559001767 0.5897935530308174
71.5829278195838 79.8053188419323 0.6316533985043011
71.31438141487124 79.93151481817775 0.6758896329035142
71.04656442245455 80.05847815360028 0.7222998058503348
70.7795002305724 80.18627214913575 0.7707247403959385
70.51321817628835 80.31497463967037 0.8210148410268208
70.24777444367481 80.44469967677306 0.8730784161237531
69.98325828741802 80.57560637229962 0.9268760618352329
69.71975670412648 80.70785197738093 0.9823510490760778
69.45738499404054 80.84162837050195 1.0394856259556635
69.1962903620595 80.97716708031165 1.0982917955975375
68.93662279941574 81.11469680788694 1.1587689035182709
68.678543058654 81.25445135483852 1.2209180441185101
68.4222442783462 81.39669766891602 1.284760011242555
68.16792640330476 81.54169708331654 1.3503056012684655
67.91577739771722 81.6896773737042 1.4175448749066375
67.66602481235752 81.84090171989548 1.4864875889864173
67.41890065968865 81.99561731657533 1.5571323716537013
67.17460784756953 82.15401156105133 1.6294509433434943
66.93340955767144 82.31632713525889 1.70344111834518
66.69553877115064 82.48274345751393 1.7790733000089956
66.4612086802155 82.6533949776826 1.85630347192862
LINES 1 247
246 0 1 2 3 4 5 6 7 8 9 10 11 12 13 14 15 16 17 18 19 20 21 22 23 24 25 26 27 28 29 30 31 32 33 34 35 36 37 38 39 40 41 42 43 44 45 46 47 48 49 50 51 52 53 54 55 56 57 58 59 60 61 62 63 64 65 66 67 68 69 70 71 72 73 74 75 76 77 78 79 80 81 82 83 84 85 86 87 88 89 90 91 92 93 94 95 96 97 98 99 100 101 102 103 104 105 106 107 108 109 110 111 112 113 114 115 116 117 118 119 120 121 122 123 124 125 126 127 128 129 130 131 132 133 134 135 136 137 138 139 140 141 142 143 144 145 146 147 148 149 150 151 152 153 154 155 156 157 158 159 160 161 162 163 164 165 166 167 168 169 170 171 172 173 174 175 176 177 178 179 180 181 182 183 184 185 186 187 188 189 190 191 192 193 194 195 196 197 198 199 200 201 202 203 204 205 206 207 208 209 210 211 212 213 214 215 216 217 218 219 220 221 222 223 224 225 226 227 228 229 230 231 232 233 234 235 236 237 238 239 240 241 242 243 244 245

POINT_DATA 246
SCALARS curvature float
LOOKUP_TABLE default
0.1581740204929082
0.15740791900724221
0.1567909696595855
0.15637322689862257
0.15619900924084898
0.15630640223125736
0.15671484702692534
0.15743522144259056
0.1584393669917955
0.15967293036307278
0.1610384627260332
0.16238787655834516
0.16353832872044297
0.16426416838424784
0.16434720310463402
0.16360799271602963
0.16190701446231745
0.1591685066240908
0.1553943689776628
0.15074068679013664
0.14541845050055238
0.13969632541356702
0.13382356560873007
0.12801108109141326
0.1223909640482476
0.11701577418908045
0.11188813173076426
0.10698154181290259
0.10229419832723663
0.09788426871215046
0.09388982576930865
0.09054620587848775
0.08820821494489724
0.08726771949634911
0.0881564764565166
0.09117528920732125
0.09649094791561781
0.10406699709557968
0.11368721347957761
0.12504694835439797
0.13770883524079264
0.15118731674350935
0.16492094575814745
0.1782911252176693
0.190605975358703
0.20109983404642118
0.2090501180953171
0.21384452157536535
0.21511472028801934
0.2129086854228721
0.2076108704019318
0.19994334840069974
0.19084587485618562
0.18145034811126376
0.17284067471832604
0.1660219517459099
0.16179627226688242
0.16073049015897248
0.16305003921320677
0.16863903051850287
0.17701259514390458
0.18764776951625892
0.2000266036447999
0.21358028863182754
0.22782495319737922
0.24228191408490848
0.25653117546476945
0.27016399800336927
0.28282215526135523
0.2941955509312725
0.3040748954507261
0.3122989332040056
0.3188019446278216
0.3235814809795336
0.3266195284952714
0.3278919857925322
0.32745999613307747
0.3254063704848462
0.32185527360614535
0.3169511684786628
0.31087485697291534
0.3038513537453
0.29615564121837956
0.28812384002240354
0.2800973981423087
0.2724703099650383
0.265571288684728
0.2596712345662575
0.25496010466967606
0.2515340134967974
0.24943027085233352
0.2485262392341398
0.24863265190880318
0.24942104520689312
0.2504643822265772
0.25129124354324867
0.2514286906968405
0.25046302142066
0.24807491316233124
0.2441176841430176
0.23873354239057673
0.23221120421055866
0.22493556075917392
0.2173855947370851
0.21011536470565104
0.2036482610595438
0.19842531989143883
0.1947188034947499
0.19264659332906806
0.19218037636374066
0.19310656730757078
0.1951410644060249
0.197930163190786
0.20109491084630723
0.20431264906353577
0.20735365968836916
0.21004942686006578
0.21225142108890624
0.21392279271957684
0.2151836594098134
0.21625096387983384
0.21743117497004413
0.21905484863299535
0.22148458115894742
0.2250116142246622
0.22985932754154292
0.23612455691088152
0.2437111350423236
0.25237140378561657
0.26167571563676933
0.2710558937795439
0.2798080185019908
0.2871414745736624
0.29227066373882654
0.2945955139582481
0.29375116640381177
0.2897050880303669
0.282685840214715
0.27319644732358667
0.2618693347544628
0.24941696315134257
0.2365246656777663
0.2237955338238917
0.2117094959925496
0.2005890209060029
0.19056294807698737
0.18163260830298017
0.1736820718224831
0.16645797442216045
0.1596744630171732
0.1529929191347279
0.14610914694694482
0.138750144120462
0.13074737466103303
0.12202413770979659
0.11261229372578789
0.10264848930949441
0.09235584214473906
0.08204068062769623
0.072054699789091
0.06279394329998694
0.05474460647905784
0.04842368570129353
0.044332234069273516
0.042726972191444064
0.04342061069517822
0.045881830778998274
0.04947640970897658
0.053636223628948224
0.05797588589974427
0.06220631535333682
0.06612900788878737
0.06961576664807478
0.07256901793742716
0.07492284000192047
0.07662860458701334
0.07769623000635477
0.07818520389732939
0.07821215433295739
0.07794143671191307
0.07754553750547956
0.07722659088811182
0.07716583757726536
0.07754219387824678
0.07851857199087102
0.0802225608612287
0.08279947072532938
0.08632105876521456
0.09086242255824226
0.0964588190858455
0.10310410261059241
0.11076169911996812
0.11927754534724272
0.12846812546736178
0.13806424692129274
0.147733179022312
0.15707822873201888
0.16563259772140754
0.17291789866522936
0.17844458254594467
0.18182059092098468
0.18273193175281013
0.18109935906506944
0.17698774133341483
0.17062824463741966
0.16236619016746023
0.1526825999619081
0.1421417715671835
0.13125526252663158
0.12047191980376372
0.11014883555455174
0.10053004187848033
0.09176467391557686
0.0839027194169829
0.07690328927455663
0.07065825450145313
0.06504307601369012
0.059912450704467254
0.055143502327832904
0.05064199011356422
0.04634550741309112
0.042249037586482026
0.03838839617965575
0.03482907273946927
0.03166769080122242
0.028998802417030317
0.026903925086662277
0.025457212070732625
0.024700239788277546
0.024639928818169062
0.02523887933719263
0.02644758007119582
0.02819223728372914
0.03039999707633209
0.03298941548689775
0.035870233141968244
0.038965022158227995
0.04220516762981006
0.045534263417354184
0.048906232231361674
0.05228446288402547
0.05564074844362703
0.05895066297555919
0.0621934638161883
0.06534953424440906
0.0684012126722246
SCALARS torsion float
LOOKUP_TABLE default
-0.01452834145207709
-0.015150382571671128
-0.015741025131507064
-0.016256744549050656
-0.016642736334987706
-0.01679124523702225
-0.01645748774219426
-0.015478060925767529
-0.013295382251924927
-0.009727010509649858
-0.004041466779444762
0.00397601506703584
0.014632543867955244
0.028226189158458787
0.04421036223069757
0.06254976108464123
0.08296618291165782
0.10544469941986902
0.1285932747392024
0.1504160130641954
0.16938064783142362
0.18274501421498157
0.18871850215546068
0.18493960824850775
0.17021296821012807
0.14452981720773023
0.10763834375126367
0.06241725150185996
0.009027564582848232
-0.050018267175329686
-0.11390192214293302
-0.1788264498163626
-0.2400883334178705
-0.2884073665835327
-0.3146603549829287
-0.3144101480188448
-0.2889148298457578
-0.24611877268833354
-0.1946545515027835
-0.1417061836686423
-0.09114670788205875
-0.044173815487807654
-0.0020056229128475366
0.03694440838341738
0.0738219953277642
0.11071510388896488
0.1479733064870236
0.18710111626805867
0.22811012943129116
0.27144640227660394
0.31769017936456584
0.36703435591622147
0.4190612588968967
0.4710303214941109
0.519253797790133
0.5571726796559984
0.5784356377557299
0.5775988811384843
0.5536938930386212
0.5116730986129179
0.46006914534312443
0.4050789847986349
0.35139711547379204
0.3021734935922541
0.2580023040816526
0.2192954835313249
0.18520922478022656
0.15545419658829787
0.12949172229898856
0.10685807959079811
0.08745048463335596
0.07073360106660767
0.05666312017815685
0.044703225516279525
0.034534509964856935
0.025908001772821713
0.01864390408452052
0.01246964030069896
0.006792110704644834
0.001378493080358708
-0.004237883782909957
-0.010251000164980253
-0.016874330955506264
-0.024240199080091375
-0.03214363961631161
-0.040522747350305637
-0.04918704374626331
-0.057966386638764154
-0.06656742622954352
-0.07462093760400978
-0.08194026410681464
-0.08838745755282897
-0.09403928241426644
-0.09950843280253234
-0.10514523408227168
-0.11185180400200148
-0.12014992782427623
-0.13073453359152623
-0.14421661890964438
-0.1604014194901764
-0.1791628067467661
-0.20017534897969871
-0.22310512713019043
-0.24670802266909583
-0.2689197292251275
-0.28799749133196834
-0.30180080787684294
-0.30901623105281234
-0.30929629262727
-0.30299881735262385
-0.2924429749074385
-0.27934940853196777
-0.26636366278981477
-0.25508358030072475
-0.24684805167510895
-0.24220542780673956
-0.24121444938827333
-0.2442019298661787
-0.25062515548809106
-0.2594367220031665
-0.26976519176762837
-0.27967477705265154
-0.2881556607003604
-0.29279085687782
-0.2928064089506384
-0.2866770764042237
-0.2743999328636069
-0.2563579904160452
-0.233412874081127
-0.20715872764588164
-0.17852984428304586
-0.14828907047160111
-0.11667908106575198
-0.08457745267240946
-0.05220449259641224
-0.019816664357416185
0.012365408502393538
0.044581507919909474
0.07660819716782771
0.10873888428072649
0.14031069959677098
0.17137819874570195
0.200972868888359
0.22840981697824855
0.2528350037695467
0.27309670740909164
0.2881745507184178
0.296964383007467
0.3002362081540075
0.29797813043941035
0.2921276875117418
0.283753810135036
0.27487434290807855
0.2672139139009112
0.2622096291106884
0.26234558196461755
0.26921451936362417
0.2873898897470322
0.3196582609107233
0.36998778158941875
0.4409971400528025
0.5328721560054207
0.6282426741369617
0.6889231633221824
0.6712029399962132
0.5719114934644438
0.43065095925089586
0.2896933831791829
0.17004216060401062
0.07463906453088497
0.0011118179186965218
-0.055623637808555115
-0.09814657339354928
-0.13053121906572795
-0.15652116484989922
-0.17810162317177813
-0.19498209260388485
-0.20745429529156237
-0.21584670105126363
-0.21933203386779243
-0.2172497558359086
-0.2082040676368673
-0.19206460875818918
-0.16867683600551742
-0.13931764542562555
-0.10637237092712212
-0.07224895061308151
-0.04073659804769049
-0.013209999032580178
0.009012890436514771
0.025906956979375135
0.03680171483962885
0.04279767627082669
0.045107695844253864
0.04482410073486758
0.04300460098738522
0.040312442764591776
0.03739879571146414
0.03473723281900849
0.03261988814749097
0.03140209394597039
0.0311581695653169
0.03204507731416123
0.03409005517845492
0.03728614889290821
0.041690223321934894
0.04694880028421184
0.05296134603832768
0.0592101020291267
0.06525887540294426
0.07061575701533043
0.07442163302963799
0.07643472492295167
0.07590738776203737
0.07330334602736126
0.06915913702289894
0.0639028344660764
0.05840400770487791
0.05344591928899993
0.05040245485443071
0.050251958034217836
0.05405393671264206
0.06311398558199746
0.07831406466200873
0.10061918222573332
0.12990770867560317
0.16411619378153522
0.19865590288581494
0.2273525439013016
0.24352389954883522
0.24540591325661074
0.23499787289780097
0.2168277364707924
0.19504651495881611
0.17245832457588625
0.15146634765005995
0.1322660195224758
0.11547075915027341
0.10083171896440928
0.08817846486890535
0.07729332075823296
0.06789545234753552
0.0598567817075404
0.05296930739089504
0.04708492124207105
0.0420454237145076
