# vtk DataFile Version 2.0
00001298.nii_R_ICA_labeled
ASCII
DATASET POLYDATA
POINTS 257 float
83.27814843216454 85.18722763164031 43.18733374577447
83.33752102199247 85.44829015774225 43.05208237106863
83.41086591064673 85.70157524774058 42.90911529588877
83.49751046926266 85.9463871809523 42.75900145877359
83.59711628616742 86.18184599003652 42.60211676573931
83.70891522745245 86.40742075129486 42.439047967816684
83.8325173864564 86.62231580295672 42.270176721036854
83.96746938599217 86.82577204046474 42.095912538767216
84.11317989411249 87.01717211133105 41.9167221468616
84.26937199066346 87.19549052391437 41.732927020008745
84.43537698826188 87.36012726591272 41.54501838053882
84.61074903442159 87.51010782042114 41.35338837946574
84.79487493532889 87.64458697298001 41.15849481205445
84.9870477848361 87.76276169276957 40.96082437179053
85.18654755587798 87.8636794362147 40.760864688637845
85.3924292036443 87.94673491840571 40.55916802575816
85.60376162574612 88.01108153946502 40.3562770908162
85.81941035748808 88.05633382954552 40.15277513431176
86.03822826621987 88.08197288790987 39.94923915787043
86.25896570432826 88.08781537152575 39.74624837266481
86.48035129996013 88.07381143958148 39.54436265405436
86.701089273037 88.03994085973841 39.344131227962976
86.91992170870134 87.98667733936455 39.14603495608867
87.13555789026215 87.91411971643772 38.95057743951523
87.34687939529651 87.8231678946359 38.75812212870124
87.55267345334302 87.71413780441225 38.56909673953147
87.75199713024274 87.58808607753745 38.38375782738753
87.94382280068213 87.44565419340783 38.202409173984066
88.12735428925541 87.28787986762566 38.02522238510391
88.30180791406846 87.11566840544225 37.852355936805
88.46653391454242 86.93003685375662 37.68389020759792
88.62101346466734 86.73205322147112 37.51983250431853
88.76475003568059 86.52271657923427 37.36015980869046
88.89747305040737 86.3031548240722 37.20473638795031
89.01884330755578 86.07434237238367 37.05342722324932
89.12878304369308 85.83737463907143 36.90597739322207
89.22711073929369 85.59319163272818 36.76213949111704
89.31385366675381 85.34278927495959 36.621574112449984
89.38898889190187 85.08706617770478 36.483930658047306
89.45254287412274 84.8268892570546 36.34881891323198
89.50466274114919 84.56311388304503 36.215802347356735
89.54526016440535 84.29648820268658 36.08446072421742
89.57460070395082 84.02781185473613 35.95430489718477
89.59259686598608 83.75779129574862 35.82486821016754
89.59936323717355 83.48715220338309 35.69564966745995
89.59500005554852 83.21659881432791 35.56614715114002
89.5793590370829 82.9468526219323 35.435834700306415
89.55254169872052 82.67863706900825 35.30419362480153
89.51455112358111 82.41269627184536 35.17070214000831
89.46523988473187 82.1498502087254 35.03480647345598
89.40453791359525 81.89096144093011 34.8959622483956
89.33244214862091 81.63692469463659 34.753653744075415
89.24885001761669 81.38874874828882 34.607350616153084
89.1534782187477 81.14767398550086 34.45645807324832
89.04641050299325 80.91485398285539 34.30054467886849
88.92757328430844 80.69168113386237 34.13915283741917
88.7967097538774 80.4799576877323 33.97176196992353
88.65404687080499 80.28129058516468 33.79813906452767
88.49958318712798 80.0978532466365 33.61799434970744
88.33361968465522 79.93188151169106 33.43127535776317
88.15659687101652 79.78596500424301 33.23809987335888
87.96936955878411 79.66259825277467 33.038936473162565
87.77294485290024 79.56491048116514 32.83447173243376
87.56901050810282 79.49534930503586 32.625930335812
87.35961995691952 79.45631169085803 32.41488664112313
87.14728133876046 79.44968381292402 32.20329532904276
86.93486801593565 79.47655744947622 31.99339132369606
86.72544019781134 79.53705495984751 31.78751642094856
86.52206168835515 79.630418051226 31.58794775905543
86.32751167408982 79.75473500170158 31.396627521953274
86.14416020254515 79.90747653449186 31.21506867615425
85.97389598005189 80.08570914124732 31.044298027334932
85.81814995172313 80.28636658381122 30.88488655859881
85.67813746994288 80.50660634863247 30.737136732481165
85.5543035909488 80.74323899167082 30.600702941059534
85.44727692245833 80.99377780423292 30.47529579139165
85.3571597463898 81.25567168522771 30.360202104570924
85.28418272688697 81.52679776148051 30.25472151667612
85.22810128110308 81.80506759862652 30.15783607828695
85.18912612734431 82.08880184268433 30.068698867626654
85.16672667020788 82.37628182599003 29.986085636610273
85.16074238492659 82.66607849206564 29.908905521599632
85.17086350160653 82.95686054618419 29.83596609800418
85.19643845738157 83.24742201800949 29.76597566554714
85.23705723899738 83.53667244443497 29.69767390203213
85.2920045075487 83.8236346837339 29.629736238854225
85.36036348357993 84.10747547011825 29.560850607548396
85.44140088984702 84.38738907741866 29.489672268813173
85.53391989002479 84.662780106614 29.414935296802984
85.63676269366071 84.93312280094666 29.335406131104943
85.7487671491588 85.19792377740991 29.24983343432665
85.86843575240195 85.45694332351222 29.157227640600322
85.99446749720703 85.70981917361462 29.05644412522835
86.125299582831 85.95645052086324 28.946703178109676
86.25947147962866 86.19663126103416 28.827130350786845
86.39545382416644 86.4302905749413 28.697137657295634
86.53175315313578 86.65731509766377 28.5561862188444
86.66691683118054 86.87763889930714 28.403961046607428
86.799549327524 87.0911528055717 28.240243261785057
86.92837794101875 87.297792736935 28.06506960819853
87.05219372932274 87.4974040266033 27.878504161803463
87.17002263843823 87.68995887754917 27.680967381043125
87.2808814035849 87.87525485299332 27.472743468099658
87.38419418280382 88.05335053776473 27.254591342339722
87.47927536434278 88.22405720113059 27.02699214426513
87.56595920276536 88.38753465048381 26.790890423036977
87.64396384182459 88.54374266481555 26.546966757253845
87.71342856237779 88.69292191846264 26.296156700602214
87.77445366495806 88.8352262962529 26.039227307789606
87.82744325440648 88.97102341056619 25.77704408033671
87.87276951648663 89.10063739884788 25.510330021601273
87.91104056487198 89.22457831920869 25.23983749533119
87.94277772830732 89.34329128833028 24.966170086200684
87.96873184397474 89.45741675857172 24.689950871981413
87.98947438649446 89.56747127995918 24.41164472706938
88.00579511915771 89.67416298514918 24.131737583388787
88.01829133386786 89.77807575199552 23.85058937041663
88.02764367217044 89.8798764872743 23.56854668498351
88.03441851937146 89.98016996230923 23.285890178740665
88.03913329808057 90.07954417464197 23.00286685254766
88.04224180027106 90.17854924300097 22.719691723949545
88.04407090792233 90.2776797875586 22.436549238389787
88.04488437930303 90.37736189208475 22.1535957340204
88.04479035816095 90.4779743179791 21.870970628493623
88.04381353746717 90.57978737692738 21.58877761480488
88.04182657170114 90.68303251838817 21.307110866331108
88.03860695298951 90.78783505645885 21.02603146512345
88.03380259436058 90.89427496900649 20.745590920004055
88.02697578600453 91.00235717618386 20.46582155202989
88.0176021623337 91.11203640171685 20.18674875279692
88.0050768802886 91.2232273343976 19.90839932407679
87.9887740919952 91.33579335566924 19.630799969365672
87.9679790468286 91.4495885027155 19.354003985648454
87.94205301611956 91.56442412127316 19.078073178513307
87.91024024789111 91.68012537161646 18.803122848348416
87.8719821463451 91.79649134491858 18.529277822973437
87.82654625612285 91.91334848100976 18.256743322870335
87.77352838563739 92.03051774312456 17.985717735844712
87.71226121673999 92.14785278971468 17.71651061125671
87.64252342466148 92.26522577328875 17.44939044284102
87.5637944769206 92.3825449161972 17.184758116548842
87.47598995620692 92.49976007343045 16.92295153431787
87.37879205901315 92.61686513697069 16.664436253984753
87.27221958645362 92.73390823295105 16.409614753279975
87.15616975597844 92.85099152850833 16.158986910083176
87.03073656844016 92.96827319623199 15.913016059427623
86.89602401526221 93.08596732345627 15.672203950967381
86.75218296823162 93.20434276136858 15.437072682235534
86.59950730721644 93.32370894922438 15.208093741823282
86.43820694936814 93.44443566577564 14.98584019415123
86.2687461559721 93.56689410642262 14.77072118114531
86.09141712068441 93.69153051696085 14.56333437160148
85.90682830974545 93.81872723882897 14.363993141265667
85.71537603796256 93.94895500597265 14.173269140000537
85.51777086461225 94.08254252388551 13.991347885919993
85.3145146327725 94.219911655974 13.818705305457087
85.10636343302951 94.36127717901641 13.655372228378244
84.89389234426683 94.50693868593649 13.501658521102385
84.6778354835441 94.65695434206387 13.357422276643856
84.45877356663534 94.81144151616056 13.222753803328974
84.23734534919333 94.970273421815 13.097324477595723
84.0140507122058 95.13336232416174 12.980993049401473
83.78936921918263 95.30040646769177 12.873258271331876
83.56364968752551 95.47114496787411 12.7737976222423
83.33718087093612 95.64514480971754 12.681981369802376
83.11013470608442 95.82203598729883 12.597395159852713
82.88262078942448 96.00131688268645 12.519344457539047
82.65465215588391 96.1825736571125 12.447419684491111
82.42619928821729 96.36530113577606 12.380956398126868
82.19716158043099 96.54906793057438 12.31956103497536
81.96742074659794 96.7334257234515 12.26273165307034
81.73682424212173 96.91797091643197 12.210131367708362
81.5052186912841 97.10232901609695 12.161453151041927
81.27245885694505 97.28616854444914 12.116457946617436
81.03839456862592 97.46918890915357 12.075031558614334
80.80292962109284 97.65115402826235 12.037036376532294
80.56594085167521 97.83183000162809 12.002523636692288
80.3274001109193 98.01108201965 11.971450393542652
80.08724812697 98.18876138667649 11.943964324158062
79.84551592939759 98.36481601043018 11.920118227964712
79.60222125565487 98.53918569797587 11.900089755630288
79.35744818307347 98.71188365231787 11.883973624336843
79.11128200487781 98.882924941337 11.871923851540954
78.86384879540431 99.05237243935413 11.86402079002116
78.61527949661779 99.22029487344794 11.860352764216014
78.36572270399493 99.38678576723044 11.860943023303626
78.1153287911943 99.55194544070504 11.865779099983712
77.86424662879516 99.71588096344819 11.874792675010843
77.61261868639673 99.87870450155711 11.887844838051567
77.36056994140563 100.04051931971885 11.904758607576255
77.1082101096474 100.20143273594454 11.92525884733782
76.85562180737689 100.36153232456579 11.949057399595327
76.6028671107374 100.52091200350546 11.975749943393128
76.34997880672965 100.6796399286032 12.004947131251315
76.09696907693028 100.83779459674997 12.036138149639594
75.84382152787063 100.99542396684937 12.06883604597373
75.59050462052679 101.15258857008402 12.102448175835473
75.33696190512788 101.30931994199018 12.136379686628963
75.08313233386417 101.46565712903312 12.169982840227027
74.82893951840043 101.62161849923248 12.202569208103085
74.57431369764731 101.77722230660147 12.233435532847459
74.31918756600847 101.9324748253379 12.26183551264828
74.06351072332707 102.08737676495252 12.2870058848602
73.80726011803583 102.24192513377564 12.308188087162318
73.55043984231251 102.39610930696011 12.324564640497265
73.2931078455204 102.54992542110661 12.335414558622018
73.0353630921474 102.70336482127458 12.339892235049975
72.77737662781405 102.85643947486827 12.337371047567176
72.51937989872803 103.00916478999989 12.327027141302029
72.2616736504815 103.16159048586674 12.308388411042907
72.00464280900458 103.31378028093702 12.280710656486757
71.74870770630065 103.46583656000654 12.243723570876258
71.49440316521742 103.61788727514451 12.19680925796977
71.24224075266437 103.77009187349813 12.13990288151969
70.9928705218546 103.92264668057227 12.072587822315603
70.74687243778045 104.07576156821005 11.994934990613848
70.5049621365523 104.22968453151003 11.906754982771286
70.26777957852781 104.3846567819975 11.808184926389682
70.03605538547943 104.54093731935251 11.699245864720522
69.8105113875991 104.69877235720791 11.580061884579607
69.59185391789376 104.85838258809996 11.450834495423578
69.38093319909177 105.01999547614423 11.311625340610192
69.17840590005243 105.18374998958416 11.162789614528949
68.98529571500725 105.34983032749724 11.00432937494839
68.80223440085837 105.51827030087472 10.836701611045475
68.6303049875518 105.6891487253552 10.660004130774755
68.47020902789372 105.86239567745427 10.474707855600396
68.32303191503884 106.03794860214548 10.28106275574819
68.18944504913165 106.21560199779177 10.079639643476838
68.07050799105417 106.39513801019895 9.870841128151286
67.96668144509643 106.57619781533622 9.655404457923858
67.87892261758509 106.75840695791628 9.433879830394307
67.80736672389904 106.94127613901938 9.207136783814141
67.75251160282185 107.1242899205833 8.975897972263285
67.71424798907908 107.30688391528365 8.741015677696609
67.69243279546453 107.48847528033643 8.50326597087608
67.68666479240332 107.6684717478803 8.263379950446696
67.69623312557975 107.84630709834674 8.022003318302064
67.72044760795262 108.02140148756322 7.7796460511618974
67.75826856556161 108.19324071555444 7.5366965097251075
67.80876551091744 108.36128377459578 7.293391929123605
67.87084085549371 108.52503156585774 7.049833613338441
67.94338054746163 108.68398856597216 6.805990019270038
68.02540099476226 108.83757061531799 6.561704286979027
68.11570118462215 108.9853041860659 6.316731002831273
68.21336499258712 109.1264802335951 6.070716974301014
68.31727814575241 109.26051111703379 5.823270995787008
68.42644560332954 109.38664149008703 5.573941626716119
68.53987665689661 109.50397504035705 5.322233527707467
68.65647949624768 109.6117108212867 5.067701722417546
68.77521383606981 109.70858902493691 4.80981709260447
68.89488305773277 109.7936948802566 4.548242030724214
69.01423399648922 109.8654542728992 4.282558339882155
69.13189927799718 109.9227450446971 4.012651364893005
69.24634037095898 109.96391903085416 3.7384602638074487
69.35592045142333 109.98760244390257 3.460256609049606
69.4589458563891 109.99256335813 3.17861210542827
LINES 1 258
257 0 1 2 3 4 5 6 7 8 9 10 11 12 13 14 15 16 17 18 19 20 21 22 23 24 25 26 27 28 29 30 31 32 33 34 35 36 37 38 39 40 41 42 43 44 45 46 47 48 49 50 51 52 53 54 55 56 57 58 59 60 61 62 63 64 65 66 67 68 69 70 71 72 73 74 75 76 77 78 79 80 81 82 83 84 85 86 87 88 89 90 91 92 93 94 95 96 97 98 99 100 101 102 103 104 105 106 107 108 109 110 111 112 113 114 115 116 117 118 119 120 121 122 123 124 125 126 127 128 129 130 131 132 133 134 135 136 137 138 139 140 141 142 143 144 145 146 147 148 149 150 151 152 153 154 155 156 157 158 159 160 161 162 163 164 165 166 167 168 169 170 171 172 173 174 175 176 177 178 179 180 181 182 183 184 185 186 187 188 189 190 191 192 193 194 195 196 197 198 199 200 201 202 203 204 205 206 207 208 209 210 211 212 213 214 215 216 217 218 219 220 221 222 223 224 225 226 227 228 229 230 231 232 233 234 235 236 237 238 239 240 241 242 243 244 245 246 247 248 249 250 251 252 253 254 255 256

POINT_DATA 257
SCALARS curvature float
LOOKUP_TABLE default
0.2021502614108204
0.1974540757086939
0.19361774809644938
0.19072593744313715
0.1888545458448514
0.18801127989430452
0.1881843806799598
0.18932734678141974
0.19134839565689168
0.19415360876468024
0.19757217259213383
0.20140334385923991
0.2054233013573768
0.2093989927518883
0.21309388951548267
0.21628876883038622
0.2187814924744726
0.2205019240043398
0.22143364759983314
0.2215691748521051
0.22089991706010229
0.2194699962432736
0.21739116237687267
0.2147482075895729
0.2116289810523711
0.2080764133580227
0.20416567139743785
0.19994341558920947
0.19542104678085725
0.19057852025665484
0.18542340880697267
0.17999005628793344
0.17432713898070712
0.16851641510244253
0.16264801994508504
0.15683228161293958
0.15119387088364664
0.1458414800564305
0.14089063372036825
0.1364486056587672
0.1326230352733757
0.12951427368728477
0.1271827106693365
0.12571049148981295
0.1251330930185913
0.12549704647845336
0.1268588980186145
0.12926900368076336
0.13278403821819507
0.1374858050142226
0.14346829272280082
0.15080219934693406
0.1595891439182803
0.16995085010913488
0.18195398327230017
0.19567829645555368
0.2112045627384487
0.22848101521808575
0.24737596309460874
0.2676107804725256
0.28872312735054295
0.3099746921144742
0.33038530028772584
0.34870805488703827
0.363665154460852
0.37404143877041723
0.37885613657162737
0.37759689982406797
0.370573941632434
0.35878463003699884
0.34355819738441906
0.32627665849060544
0.30815006015531166
0.2901683373169342
0.27294904042938845
0.2567961657889955
0.24181547788704869
0.22810345330907697
0.21562902413549867
0.20432062694801847
0.19402304037937476
0.1846334376532332
0.17609245345586844
0.1683175702656688
0.16120791660769831
0.1546809419452396
0.14877893230112155
0.1436114937164092
0.13931592367596832
0.1360447993707369
0.13397455657286947
0.1332463840268033
0.13393636067874667
0.13590355916846136
0.13891407582386328
0.14269061902839816
0.14691333502437856
0.15119660112143385
0.15513541085120394
0.1583944669045897
0.16072963180968153
0.16193743031125493
0.16176542605767272
0.1600810256723911
0.15683624019195694
0.15210795877810224
0.14595062478716994
0.13848567832281722
0.12987187398207314
0.12032859425946366
0.1100373893209662
0.09916489836692777
0.08788117871908031
0.07642073044210189
0.06501654937348646
0.05392382815522082
0.043421790624895915
0.033767239316895806
0.025302479187976897
0.018575620949211405
0.014438267513445553
0.013600531738509173
0.015196903190883656
0.017761224049648958
0.020494767827155796
0.023288460610575098
0.026346124050912835
0.029955498868576704
0.034332512799899906
0.03956203039013176
0.04559471851424783
0.05225715369350419
0.059327006043382736
0.06655156039974076
0.07368606861423638
0.08054267935016067
0.08696094953908352
0.09283911162067959
0.09809155653710193
0.10269097842959739
0.10661791813426813
0.10990819321949943
0.11261578856900048
0.11482943541291386
0.11664380516549228
0.11816316652848469
0.1194844643784363
0.12069157105595078
0.12184290591419404
0.12295777320248821
0.12402945545040886
0.12502509828983205
0.125870655529327
0.12646510837606664
0.12668309144891515
0.12638592922147757
0.12545734915603088
0.12374620835788078
0.12112841195697498
0.11749154472652354
0.11285250287566302
0.1072471715238806
0.10082006633063449
0.09373537372754066
0.08622984195424359
0.07856005204526469
0.07100539562535992
0.06386967484972522
0.05744218888221809
0.052022114065889254
0.047825997683794856
0.04496289877676454
0.04339789430046068
0.04292663700543318
0.043285364033267326
0.04419459047671109
0.04543104945889094
0.04680047599207902
0.048153016098675276
0.04937738524936822
0.05038826404106394
0.051116673162910374
0.05151952075632884
0.051562529923469526
0.051194784002281266
0.050356647522693
0.04899725628708874
0.04708433201089215
0.044590894693872146
0.04150017515668512
0.037811287459772226
0.033548216787701576
0.028759576492401646
0.02347832248998009
0.01777350620340829
0.01182574865734613
0.006524043064954426
0.006592483598697281
0.012618534893670102
0.020171764957449972
0.028258899358997357
0.03663854086378855
0.0451778925739909
0.05376809688189505
0.062295990092707004
0.0706398532407603
0.07867048770304967
0.08626610608042579
0.09330564059047816
0.09972816036033776
0.1054733117945289
0.11054725963550335
0.11495852163682771
0.11879006785343872
0.12213779138697987
0.1251539343581426
0.12801279244455308
0.1308907726207173
0.13395289424205256
0.13733459087884592
0.1411252387275529
0.14538193565346852
0.15009873874338986
0.15523681914242246
0.16069652233213716
0.16633990165845405
0.17197591191708872
0.1773735939657772
0.18227280762936396
0.18639060694289392
0.18946564936449073
0.19118472998255873
0.19130731040224028
0.1896403685756091
0.18615564344336435
0.18091214872154218
0.17410412282250137
0.16601822193735424
0.15702781500257715
0.1475552515245461
0.1380227404274926
0.12888524069995472
0.12065576911512128
0.11392075122682559
0.10922430945021365
0.10711150780028536
0.10793036289684482
0.11184484151046958
0.11881478422132943
0.12857808330330267
0.14087723125030635
0.15530651202028256
0.1715182801895013
0.1890236167982721
0.20727394922694442
0.2255220256915726
0.242853469801428
SCALARS torsion float
LOOKUP_TABLE default
0.024736537295842242
0.025746530575922393
0.026634851614878878
0.02744597712482978
0.028186514511744205
0.029076094969167247
0.03029733422746186
0.031892706766830314
0.033924493192930054
0.03645596181232365
0.03962845189232464
0.04352480235803235
0.047806748262541776
0.0524421606877629
0.057178068024127164
0.061827515229926445
0.0663489763247597
0.07038030677478042
0.07394624941525063
0.0771389869406901
0.0800247812128446
0.08244661855051769
0.08431729179743615
0.08584184816839045
0.08710511716969585
0.08839244190878259
0.08994375457907183
0.09181986400568515
0.0942480706927905
0.09735386950781667
0.10136511621598034
0.1063156278281532
0.11239812854329778
0.11956258664096206
0.1278953980148729
0.13726868904881553
0.14758641556763494
0.1587472957551135
0.1703878300857855
0.18230652307623108
0.19381660724482613
0.20458873513768155
0.21401753588156572
0.22128518932977384
0.22603663724270653
0.22791632458703034
0.22678696256771824
0.22287205498271032
0.21613957819525337
0.20730619152519403
0.1961196473116831
0.18338522087260292
0.16959737423154014
0.15509246575241328
0.1406911254947777
0.12665297479002843
0.11343349214928453
0.10106112582946448
0.08971654663177005
0.07956710260157922
0.07063172523930938
0.06305311598407974
0.05705629518985878
0.05261527369317508
0.049919089155040314
0.048931600930268104
0.04986948326768758
0.052839269537099845
0.057912903006017716
0.06510343766308868
0.07411171272319826
0.08498313769523025
0.09729326463986708
0.11111057271243212
0.12642667951754194
0.14357829315207837
0.16214605809271346
0.18176534134723196
0.20238083692517372
0.22392106186687868
0.24648910662826415
0.2701830196162462
0.2947135237568342
0.3198638025096603
0.3456813712259261
0.3722320995767513
0.39854341098827417
0.4232594318301894
0.4448812289753353
0.46086547552710094
0.46983021161475486
0.46890268332819296
0.4560009923182288
0.43193692378988374
0.39952689614187836
0.3616316337246134
0.32064476730371616
0.279549455977942
0.23988302104596926
0.20482388896182194
0.17397978130669264
0.1462710166905196
0.1210502464559588
0.09923734213821435
0.08121811132898239
0.06632712107603714
0.05430196615462746
0.04488882873255509
0.03825965804180478
0.03438989332509173
0.032921868450977436
0.03429758255747565
0.03964822450574449
0.05088580421197729
0.07147232475519229
0.10728593676998255
0.17101143641836838
0.2868391167778971
0.5043574725649951
0.8883894568403866
1.3116022349248906
1.2098357381012816
0.6731493917565778
0.22100410696407624
-0.0738886042168583
-0.26269217695735486
-0.3675118526659235
-0.4059667100027079
-0.3947236537472771
-0.3536467273957724
-0.29854530645509963
-0.2417925527521742
-0.19002523912785657
-0.14506510649776758
-0.1071418471558172
-0.07570880907856044
-0.04891535760638826
-0.025558439037912085
-0.004316284918788094
0.0157765037853663
0.03554916766008196
0.05511985504869574
0.07468676541104338
0.0941549760821386
0.11292641105772286
0.13102305054507227
0.14764750564439363
0.1627449271391711
0.17558741024581928
0.18611631788008795
0.19325880489327596
0.19638404085286765
0.19569291658780708
0.19107413999770925
0.1831271525931964
0.1725354595004581
0.1593643908135504
0.143399301756565
0.1244117890665494
0.10345507501179536
0.08012019369940827
0.05446190214299777
0.026254525914380815
-0.0055794596803329
-0.040760942024906155
-0.08125601971538692
-0.1285943202640456
-0.18360555202412235
-0.24220366434374663
-0.2963156564709593
-0.3350423871019664
-0.34584246480713443
-0.3229394681801753
-0.2748382659702328
-0.21116116831169757
-0.14236254021711192
-0.075379595118461
-0.018629530765703915
0.026077991866772135
0.059868028042404195
0.08399607848135489
0.1002345385627888
0.10971459983765205
0.11346112320353585
0.11276973065581716
0.10813957504999538
0.1000873544034593
0.08818469588055809
0.07303864168169472
0.05388251491822507
0.029793607930989167
-0.001072952089684873
-0.04665505698019553
-0.126935510573731
-0.30016832574254415
-0.816610366189569
-2.9529242138995944
-3.098684573710057
-0.866573299596929
-0.34672901044425475
-0.1824356315030025
-0.1156895743485253
-0.08549507395698702
-0.07180720351186945
-0.0674648912372296
-0.06872957322947279
-0.07374521047224009
-0.08160760211815551
-0.09092735881083336
-0.10082768658351303
-0.11120456211262501
-0.12145704069348195
-0.1316019039156432
-0.14058675310970237
-0.14829776889368024
-0.1533875975770401
-0.1553388997975676
-0.1541706895824433
-0.14985445740352862
-0.14282076670664381
-0.1338894430063798
-0.12340640504243505
-0.1121693901472137
-0.10054651087797009
-0.08919403774337473
-0.07839677670089144
-0.0682410087529674
-0.058756325020689594
-0.04982838854025281
-0.04127041574952963
-0.032775766221732956
-0.023643176702664973
-0.01358739728674885
-0.0019763798360519086
0.011730166664495181
0.028298607400359433
0.0486704525721746
0.07322380214683591
0.10267677320385353
0.13841337343194546
0.18200014463648487
0.23399296755988686
0.29150343295345726
0.35040363057780927
0.40299433649564276
0.43896750379752925
0.45042876462084597
0.43577655982047514
0.40089675808854547
0.35596134966991927
0.30887957662420407
0.2650812903404246
0.22673834789704833
0.19408347283036118
0.1665723517200082
0.14324300041469482
0.123236391285809
