# vtk DataFile Version 2.0
00001309.nii_L_ICA_labeled
ASCII
DATASET POLYDATA
POINTS 218 float
114.01126236846976 86.90380873821773 37.12226900629932
113.72994726774667 86.93732640595296 37.023797439931705
113.4471176919641 86.94844129980378 36.9245983127447
113.16458133179465 86.93665559465836 36.82464688975189
112.88420871069164 86.90213047930798 36.72387693173368
112.60776981946908 86.84562058129306 36.62216543936635
112.3368701239511 86.76818472157338 36.51931467910553
112.07288460408762 86.67120178034334 36.415050743384775
111.81678339511589 86.55654241677873 36.30905824475739
111.56938501796293 86.42586272326828 36.20093752873407
111.33113639982334 86.28105934386943 36.09027606230027
111.10227474272818 86.12393009790455 35.976642142049336
110.88299346164384 85.95603413086637 35.859555012367615
110.67324978762962 85.77895385684263 35.73858208631649
110.47297134864883 85.59407851393601 35.61330073463888
110.28209502919759 85.40262559696477 35.48330306004793
110.10062977355246 85.20564579985343 35.34818258145026
109.92853648353844 85.00411213888388 35.207625711234215
109.765874405004 84.7988456927571 35.061356606221366
109.61280926960396 84.59054122533207 34.90914603426716
109.46960995215103 84.37978802619641 34.75082763185605
109.33669434143194 84.16707696269306 34.58628369429015
109.21456859827347 83.95282793255684 34.4154952013929
109.1038051979839 83.73740114087971 34.23855671269807
109.0051138210812 83.52110682238303 34.05563600850076
108.91928811361691 83.30423663680178 33.866999402386234
108.84729574372886 83.08709200518625 33.672973345479
108.78985917679564 82.87001834675117 33.47408055731632
108.74776317706721 82.65342179265467 33.270878691584464
108.72180527070672 82.43780819972564 33.06396573822977
108.71242591318214 82.22378018685248 32.85401691621653
108.7198190681262 82.01203687740536 32.641685925904184
108.74408214076615 81.80340316745635 32.42754080540828
108.78485151715803 81.59875805267188 32.21205681172632
108.8414549904744 81.39901644756942 31.995548865055525
108.91308170443936 81.20515774420623 31.778139076555895
108.99872858304416 81.01820382370154 31.559752204249488
109.0970901445981 80.83910980342003 31.340136727875077
109.20687477086446 80.66889762037857 31.1188748410098
109.32673745066116 80.50862766791492 30.895426313870974
109.45536075045797 80.35950349582897 30.669151247243835
109.59130232570465 80.22266073365346 30.43942478591273
109.73317840587033 80.09937641315835 30.20565135711433
109.87961061298503 79.99101910445256 29.9673409027381
110.02923497744612 79.89912111796542 29.724154358714923
110.18067095224077 79.82513729053062 29.476039080958653
110.33258524257151 79.77039112523465 29.223277678336753
110.4837277912984 79.7362372910426 28.966470794464957
110.63296829169433 79.72374680933004 28.70660889783927
110.779399773884 79.73342793991141 28.44503766501631
110.92231686638614 79.76576860458674 28.183343498504836
111.06135589969664 79.82049053669618 27.923288689726473
111.19644767802635 79.89700765574487 27.666669879061203
111.32775127444047 79.99473837913894 27.415337203977582
111.45575826805586 80.11238127452097 27.170929627287997
111.58109395402397 80.24876794094253 26.935019420978783
111.7044944122415 80.40279644702838 26.70915779790197
111.82678259886926 80.57308085643903 26.49464759108307
111.94875541072182 80.7583458388095 26.29274216625863
112.07114223712234 80.9573622372013 26.10464158641065
112.19456822311919 81.16901295666241 25.931616614744343
112.31946964900175 81.39196368333566 25.7745870580884
112.44607128726041 81.6249909621203 25.634459767128806
112.5743465224071 81.86687720905984 25.511971482233744
112.70399773498187 82.11646901635505 25.40775077036533
112.83442065145509 82.37253295480171 25.321794024102402
112.9647668051548 82.6340068757651 25.253889142560144
113.09396763711871 82.89996848310963 25.203435969288883
113.22075889658564 83.16969727552934 25.16955996187337
113.34380578564443 83.44261794231313 25.150765102990636
113.46170814565625 83.71839406954885 25.145392934436355
113.5730522467698 83.99687187484079 25.15152765621518
113.67644079146726 84.27804332725762 25.167040404077106
113.7704701882628 84.56200772959838 25.189641246982532
113.85383415574361 84.84888548288423 25.21682463994739
113.92531031861455 85.13876254092789 25.24594080222736
113.98374121012264 85.4316273984538 25.274197814381967
114.02805458869446 85.727292720673 25.2986349553167
114.05725135616473 86.02531318904761 25.316078092587396
114.07081278509145 86.32486022238281 25.32338633577794
114.06823879631848 86.62471518645565 25.317219650420704
114.04965258675203 86.92319435750257 25.29453411292995
114.01548102481325 87.21814979847024 25.25240388876973
113.96693501485957 87.50716566022477 25.18877123102446
113.90552370454677 87.78757787431555 25.101990183721423
113.83343378916558 88.05698272301682 24.9917408785297
113.7530347513582 88.313362179108 24.858542270216304
113.66671441485276 88.5551465861136 24.70352326386317
113.57684067217814 88.78180054140529 24.528879771557868
113.48541616223646 88.99306537676107 24.336612262898004
113.39415390631677 89.18968000879762 24.129298866559868
113.30439117184044 89.37262598149636 23.909192064239175
113.21718755375795 89.54313654605971 23.678320173235598
113.13330142278481 89.70287482028168 23.438671625169818
113.05331335855001 89.85351199616255 23.191894156864556
112.97766733621509 89.99679183141566 22.939424957735923
112.9067211985083 90.13448455723763 22.682516515790592
112.84078972813789 90.26835235608489 22.422269272104028
112.78017873968453 90.40012183690405 22.159666758781675
112.72521007187498 90.53145721703834 21.89560890168608
112.67626852100562 90.66394159930684 21.63094096632412
112.63373113732857 90.79901966726433 21.366479729995245
112.59801817871526 90.93794626859561 21.10300738360054
112.56956978944679 91.08173583346186 20.841267985294074
112.54885499292763 91.2311372159684 20.581958972677647
112.53628436205273 91.38655005091913 20.325680371167973
112.53211749251219 91.54796164231811 20.072859553253938
112.53662915409174 91.7150982542344 19.82379200112326
112.54987938112599 91.88731876546261 19.57852744220372
112.57178374899273 92.06374733591154 19.336898412986212
112.6022995838672 92.2434156911347 19.098611534585412
112.64107924148328 92.4252015430443 18.86314731393853
112.68785115558974 92.60803654844155 18.629956111518
112.74236074377986 92.79089560976536 18.39846910313613
112.80423577332076 92.97285656434204 18.16812843250096
112.87321991293344 93.1531346740615 17.93848440900478
112.9491526893421 93.33107993126868 17.709213481040678
113.0319016955594 93.50622226382605 17.48014359320093
113.1214158414483 93.67827381424452 17.251275782675375
113.21776255805949 93.84710967771395 17.022788077915912
113.32110142426086 94.0127696038509 16.795032242787144
113.4317239318457 94.17543211198682 16.56854139318173
113.54992033873796 94.33545217021044 16.34400419561338
113.67606288986387 94.49329217582455 16.122266988640526
113.81056296114241 94.64950300900837 15.904322848823835
113.9538421258116 94.80469466323147 15.691303552668298
114.10633731670664 94.95950572091412 15.48450082415959
114.26826994863106 95.11456614789853 15.28520197083592
114.43980302407621 95.27044787671416 15.09477822477548
114.62101631367702 95.42765312583242 14.914695247430062
114.81167042982607 95.58655637860085 14.74623225508193
115.01132782008824 95.74739727390993 14.590524009186007
115.21947722896797 95.91031158809722 14.448715518112156
115.43523183691734 96.07526136880884 14.321367339296428
115.65768589184499 96.24213365775668 14.208917906799085
115.88585412229386 96.41074672921205 14.111515793497366
116.11865400515062 96.58085998843728 14.02877716505034
116.35510696626076 96.7522540513249 13.960244570397775
116.59427881511326 96.92472619227829 13.905152762601665
116.83532484546502 97.09811069111363 13.862469992585014
117.07753517165641 97.27229984895975 13.831128499941078
117.32031704157622 97.4472418701269 13.810046224111053
117.56318476425452 97.622920018989 13.797952973042628
117.8057678610246 97.79935741946886 13.793638908381148
118.04779358367381 97.97660037377035 13.79592112717152
118.28907653494547 98.15470320704533 13.803653512888987
118.52950417529166 98.33371866407606 13.815764052780604
118.76904763245057 98.51366331242029 13.831191643756927
119.00773793563043 98.69452100961404 13.848995218761425
119.24566658872575 98.87622374026918 13.868330655803746
119.48298100656046 99.05864208056998 13.888463721873658
119.71988079677402 99.24157875441293 13.90877729790057
119.95661805327106 99.42475964362103 13.928782520447918
120.19347922632927 99.60785123149036 13.948126393169378
120.43077997187495 99.79046462486046 13.966580525650832
120.66885829910973 99.97216234439198 13.984026795640153
120.90803771129832 100.15250266129975 14.000462383056805
121.14862582213075 100.33104343288203 14.015951962620715
121.39090887266048 100.50734846939663 14.030602148734337
121.63509797048332 100.68106104240631 14.044551150205356
121.88134001237574 100.85189668084385 14.057924538667638
122.12972658389084 101.01963712755251 14.070808234749125
122.38025337956223 101.18419903915556 14.083234531272828
122.6328318045665 101.3456320683915 14.09516396635663
122.88732200018416 101.50408037948985 14.106470926720059
123.14351820585487 101.65981384095456 14.116946810571642
123.40115354707791 101.813226923967 14.126315424309533
123.65994002271704 101.9647735794725 14.134229526685544
123.91956929809379 102.11495905941607 14.140267420392307
124.17970229433138 102.2643454358343 14.143999328989393
124.44000185645949 102.4134844229477 14.14494853119994
124.70012227437793 102.56291908482885 14.142595229089233
124.9597100713925 102.71316673320155 14.136412555992345
125.21840998953704 102.86469650342748 14.12588242205784
125.47585404657575 103.01793455096106 14.110459154697867
125.73164158484707 103.17327869654571 14.089545007474898
125.98536463010545 103.33105713071963 14.062599807143094
126.2365831400655 103.49155556091655 14.029074275778356
126.4848151311356 103.65502126455809 13.988410971842592
126.72949926358372 103.82168732384856 13.939989748006221
126.9700932446559 103.9916802671414 13.883351632850873
127.20598977575135 104.16509709746981 13.818012958513858
127.43653403158804 104.34198214518545 13.743515619337023
127.66101457916967 104.52232587953159 13.659419849053645
127.87878796905592 104.7060018179758 13.565485251920824
128.08916472498925 104.89284017483689 13.46147570569728
128.29142230814548 105.0826153940865 13.347188813583578
128.4848709648867 105.27502659012521 13.222535037785846
128.66889731932966 105.4697036907866 13.087565093548855
128.8428632111466 105.66624430063672 12.942343973955696
129.00607352635447 105.8642095365985 12.786931159840883
129.15795932694522 106.06310165581645 12.621545842054854
129.29797629344856 106.26238674270991 12.44644727184237
129.42556856656046 106.46148802444084 12.261899490815248
129.54011977003577 106.65976320885059 12.068138655049928
129.64131902025113 106.85652863478926 11.865607219089432
129.72883475757226 107.05104215617503 11.65469804469348
129.80233555051444 107.24247633513714 11.435773918513197
129.86186436199873 107.43000932377255 11.20935764392269
129.90758762623508 107.61279973317895 10.97595976405973
129.93972598723903 107.78995459107728 10.736039401041573
129.9588867624724 107.96069020120993 10.49015067152202
129.96583700156705 108.12429182257816 10.238820507071008
129.96139751027854 108.28006471760935 9.982505193093
129.94663307775116 108.4274933969275 9.721678657936863
129.92271036424694 108.56620802149043 9.456780261224901
129.89079337656764 108.69591447469233 9.18818239048563
129.85204016011517 108.81637716516187 8.916197866817434
129.8077053821267 108.92760294759762 8.641147521531485
129.7589520329399 109.02959927121535 8.363279862163193
129.7069085483493 109.12242411195908 8.08280376796087
129.6526640940896 109.20611053898831 7.799878755413584
129.5973115158397 109.2808448592878 7.514671098733355
129.54190173806245 109.34673723571687 7.227302510927383
129.48748622096755 109.40387372899622 6.937876532212554
129.43515927213568 109.45224783419158 6.646475539879867
129.38601117652854 109.49197135015817 6.35322077839752
129.341189110188 109.523043646801 6.0582346888504
LINES 1 219
218 0 1 2 3 4 5 6 7 8 9 10 11 12 13 14 15 16 17 18 19 20 21 22 23 24 25 26 27 28 29 30 31 32 33 34 35 36 37 38 39 40 41 42 43 44 45 46 47 48 49 50 51 52 53 54 55 56 57 58 59 60 61 62 63 64 65 66 67 68 69 70 71 72 73 74 75 76 77 78 79 80 81 82 83 84 85 86 87 88 89 90 91 92 93 94 95 96 97 98 99 100 101 102 103 104 105 106 107 108 109 110 111 112 113 114 115 116 117 118 119 120 121 122 123 124 125 126 127 128 129 130 131 132 133 134 135 136 137 138 139 140 141 142 143 144 145 146 147 148 149 150 151 152 153 154 155 156 157 158 159 160 161 162 163 164 165 166 167 168 169 170 171 172 173 174 175 176 177 178 179 180 181 182 183 184 185 186 187 188 189 190 191 192 193 194 195 196 197 198 199 200 201 202 203 204 205 206 207 208 209 210 211 212 213 214 215 216 217

POINT_DATA 218
SCALARS curvature float
LOOKUP_TABLE default
0.26230389834360684
0.26457234531644147
0.26368809473748756
0.2595207264235513
0.25225492542188616
0.2423487796726643
0.23042783274071565
0.2172143649701069
0.20343607925869256
0.18975006521656568
0.17671415941049157
0.16478104359557627
0.15431354630123734
0.14556454335735902
0.13868742860049504
0.13374953496299907
0.13073441804231486
0.12953281499599006
0.1299768141804933
0.1318837408204359
0.13506835212847523
0.13937259930778703
0.14463720068325905
0.15070519159934206
0.1573800641826985
0.16441423782406414
0.17147069856468292
0.17813250941762215
0.18392023845841657
0.18832323872327705
0.1908978623245193
0.19133889045222374
0.18953364075352092
0.1856577778048333
0.18017603287940123
0.17381199940283942
0.16751832128464772
0.16238358774182862
0.15948160851380416
0.1596944178296392
0.1635411546067921
0.17097396696753728
0.18148144719916132
0.19418108037165646
0.2079614851843762
0.2216115183800204
0.23394614615051454
0.24392480307803477
0.2507493511804567
0.25405740270107025
0.2538552408692671
0.2506427910764202
0.24522939598361274
0.2385978033598722
0.23179372014403932
0.22571921356376884
0.22106701948622592
0.2181880107662934
0.2170995814639363
0.21749670617440278
0.21878523613716386
0.22016180380010383
0.22074803000818244
0.2197046412308056
0.21633678157515351
0.21026406444247556
0.20143030823202038
0.19016685273523498
0.17718663780045596
0.16356768386780318
0.15067378836779205
0.14016781206875806
0.13384477138977469
0.13328657411831513
0.13922621513960967
0.15134565056191243
0.16853948232385166
0.18942368542246835
0.21253792157452536
0.23652375161866485
0.25992196453943045
0.28100641004553706
0.2978852395898968
0.30899654402420684
0.3131063105795811
0.30983708915901076
0.2995919107665092
0.28337466620531965
0.26270755189256156
0.23902877829214483
0.2137448940944369
0.18792987289941004
0.16245323731744502
0.13800901721040257
0.11530956246362434
0.09526320264748228
0.07925694687083829
0.06919837715383309
0.06669820168917298
0.0713622023940232
0.08071629167682037
0.091957123501478
0.10298476020319125
0.11236866907594874
0.11914212261690636
0.12275313874221941
0.12306705566323681
0.12031432052196434
0.11510319412527871
0.10834313293367698
0.10105232172007526
0.09425370837002546
0.08873850578118217
0.0849643118543464
0.08291531267798503
0.08225315598793047
0.08250054022512207
0.08325491803155861
0.08434731917176959
0.08588146548168601
0.08818716335327731
0.09174014356204667
0.09697939284903294
0.1041422534114316
0.11317800331539085
0.12374067067223152
0.13526864466604732
0.14703320473263215
0.15828014214134856
0.16822162082417283
0.17617484551781054
0.18156825447766425
0.1839967708218355
0.18331883906754598
0.17959378194871187
0.17306042015151124
0.16415022432798348
0.15334620906819837
0.14117948921658033
0.12812822437581253
0.114590312642033
0.10091829391700406
0.08741649053312757
0.07433492353586237
0.061890396752437245
0.050268966695428303
0.03965084854244253
0.030187349047519053
0.02204550581142714
0.015455249878580109
0.01092171389885122
0.009422424810806442
0.011066221817813526
0.014499980073389932
0.018743549563089924
0.023387670821989535
0.028153403531270445
0.03274398536537181
0.036828972763725445
0.04008108614458286
0.04220506807425657
0.042952525667994824
0.042238640978019104
0.04013542992142357
0.036920774002633654
0.033115293563819544
0.02957830046546549
0.02747858893632879
0.02797337648612555
0.03133330090730618
0.03690942246628683
0.043831828689377926
0.05146484940827241
0.05944144251680722
0.06758480022724941
0.07580942261371446
0.08407745058594186
0.09235289821524949
0.10059037141059136
0.10870770009867045
0.11660524885226177
0.12416284394548956
0.13125933771235454
0.13779376092947754
0.1437020009781045
0.14896747585122622
0.1536138763817239
0.15772421114704965
0.1614085718533905
0.16478933539334445
0.16796977680602962
0.1710177074948921
0.1739365870809447
0.17665564650263713
0.17902310152661674
0.1808296206212092
0.18184672765485488
0.18184015492552477
0.18064129142940882
0.17813857405949038
0.174296431794898
0.16918233362878204
0.1629832529188807
0.1559344968001934
0.14833516810489797
0.14048326497554403
0.13267429331384606
0.12518940209123816
0.11829761621191243
0.11224925502180333
0.10729058117031894
0.10366571986196906
0.10158953591062435
0.10124892572960963
0.10278808504201521
0.10629394726526148
0.11175406402727454
0.119114873567863
SCALARS torsion float
LOOKUP_TABLE default
-0.06589582979340636
-0.07647790983190021
-0.08840981132289923
-0.10167717239941468
-0.11625185937781772
-0.13207480916544362
-0.14912169949376608
-0.16733557417383324
-0.18647669469984132
-0.20613682710779566
-0.22535183262552397
-0.2427623946583915
-0.25617918054662714
-0.26312461418232547
-0.26115385523257656
-0.24838296543904448
-0.22437507787964572
-0.19041619286366826
-0.1500680817472296
-0.10648347418463171
-0.06336391613928744
-0.023305415001253993
0.010947305187749362
0.03782795345588496
0.05562242612073701
0.06434166250047042
0.06400794557642027
0.055470322780977466
0.0393060560443854
0.01648828605829209
-0.012763634374633568
-0.047658037848828896
-0.08891448712567086
-0.13571845113921616
-0.18883968387084285
-0.2460708199117447
-0.30519760653278566
-0.35842831956284127
-0.39738463553257775
-0.41210751637061843
-0.3986139881509457
-0.3603382320464001
-0.3063196860996596
-0.24558363068229416
-0.1853043699220763
-0.12874444237137753
-0.07710300497003723
-0.029626420732439575
0.013948765017120559
0.05503503506149896
0.09361705200395352
0.13048506142701602
0.16473147146267772
0.1957044264786714
0.22115897006591553
0.23894261699024674
0.24614987174728478
0.24155742668536492
0.2252078806905341
0.19825165817442023
0.16258579826856712
0.12053753464299452
0.07342183829067123
0.022926026069171983
-0.03145502149155097
-0.08984484581322437
-0.15506879585379277
-0.22850541579676126
-0.31460447593435237
-0.41518003718368746
-0.5305547567258572
-0.6486680573246948
-0.7439755609003376
-0.7818705014543524
-0.7498626624414794
-0.6692702211225982
-0.5749423161445677
-0.48889778799782135
-0.4198453876471424
-0.3664104242794366
-0.3251873529217643
-0.2928736825827029
-0.2666968812511492
-0.2440937902852586
-0.22447236817835614
-0.2070511673208763
-0.19248787205635223
-0.18111534538042762
-0.17424917117601518
-0.1733537638191661
-0.1804635213220831
-0.19894844524679406
-0.2341917501938801
-0.295104051796889
-0.39587458051015934
-0.5545119219607121
-0.7741161808513475
-0.9819359317231545
-1.011965500123718
-0.8291326553087796
-0.5855680240170645
-0.38448457980234857
-0.23550892320104258
-0.12598101561300326
-0.039118474838762685
0.03403718065011469
0.10196888855408093
0.16835481864091886
0.23641377197580113
0.3049945522713202
0.3700792624712722
0.42118411512204873
0.4444151614448628
0.42604870182475657
0.3653386134502378
0.2701454896221479
0.15710516677607805
0.036762694760620336
-0.0779268641970791
-0.18300559666974328
-0.2716334548977431
-0.33690558132131554
-0.3685331119025396
-0.36884075054865373
-0.3450120520949166
-0.3081788240274425
-0.2671020617007382
-0.2276422060460249
-0.19241287270900376
-0.16235959158407795
-0.13726209010945814
-0.11693240607368174
-0.10079108868848535
-0.08870891765779525
-0.08025058886564836
-0.0753980655391822
-0.07395460643745815
-0.07588432706066817
-0.08128840443883266
-0.09009162142765036
-0.10289696706584585
-0.12025361214742544
-0.14336624820037094
-0.17366224321375828
-0.21355611451088952
-0.26625190907729834
-0.3373565949222914
-0.435043726369189
-0.5765057512577731
-0.7901710661949856
-1.087454125044407
-1.193442734714894
-0.9451876737913043
-0.7264742532945848
-0.5834474311002752
-0.4745146556352516
-0.37874519238982696
-0.29315880817141643
-0.21675110216119853
-0.14530571154951608
-0.07498021862489586
0.00017578404995372
0.08564095871169643
0.19333225990430863
0.33775623619459383
0.5381974758887985
0.7907278465399002
1.0102077580198994
1.0236667590589081
0.8242458230135205
0.5775141276965913
0.38619918787540874
0.25615598215018004
0.17204216935998792
0.11732805891678018
0.08219506368812689
0.05946468364803731
0.04455926140373187
0.03463205066021385
0.027434959153736733
0.021864753394454414
0.017009987200195885
0.0126523421138666
0.008611100095475737
0.005091089300448203
0.002193584378161561
-2.7441125545039924e-05
-0.001615272772495523
-0.003051896768912048
-0.0046090765397089305
-0.0072102679608037085
-0.011195597546796334
-0.017352474779905747
-0.025871918325447805
-0.03700699494342703
-0.05066285062794606
-0.06626289889884655
-0.08372102571988811
-0.10244918490242648
-0.12229628212312268
-0.14282901490445224
-0.1635534498932265
-0.18377875739552507
-0.2035016193792466
-0.22241848873199704
-0.24122485288721482
-0.259739648349128
-0.27911136349784466
-0.2987920755325978
-0.3194006539311407
-0.33932312336931375
-0.3573735317026078
-0.37042492333805227
-0.3758816500974739
-0.37162592228829106
-0.3573506216957248
-0.33503756572005194
-0.307597135422988
