# vtk DataFile Version 2.0
00002151.nii_R_ICA_labeled
ASCII
DATASET POLYDATA
POINTS 241 float
78.09159443284095 69.66728073353339 45.047383911329646
78.37669416649125 69.62512240568138 44.96417613752189
78.65987398348396 69.56947991908004 44.88232752470851
78.94062355808289 69.50209587333396 44.80091524928781
79.21862046759883 69.42466049899595 44.71898264454173
79.49369098563484 69.33881511905082 44.63555360998875
79.76576576079532 69.24612835185194 44.549648254723905
80.0348245249883 69.14806749792677 44.460274840945814
80.30088370870051 69.04604548603594 44.366465213164616
80.56396529341976 68.94138846259735 44.26731494529538
80.82403959488389 68.83529760571807 44.16195247700979
81.08101546365886 68.72886175016401 44.049571887133006
81.3346898379004 68.62305526495915 43.929372981376126
81.5848373932915 68.51868234906857 43.80082596543847
81.83111597234986 68.41636217059634 43.66346460927599
82.07310613218426 68.31650533767636 43.516973072955494
82.3102779540887 68.21931342105333 43.36111024739357
82.54213055225543 68.12469150615968 43.1959433300218
82.76812207195026 68.03230120895152 43.02164262998858
82.98769124319372 67.94156507680631 42.838486964238605
83.20018441518238 67.85167698377819 42.64676697162535
83.40509714458332 67.76160574127441 42.447049953175565
83.60184341125239 67.67017165373638 42.23988013632203
83.78976709506314 67.57604847777452 42.02583831828487
83.96812397735813 67.47778121488209 41.80556796823447
84.13622678150503 67.37392999714544 41.579868757524
84.29321391598505 67.26303311440961 41.34956902962385
84.43811906683739 67.14369299302722 41.115605135183806
84.5698216670124 67.01461014623872 40.87903061200141
84.68722390660515 66.87478480709986 40.64104708544187
84.78921067188124 66.72354262051459 40.402950306241706
84.8746854217042 66.56058516777412 40.16609498060272
84.94268009029635 66.38606672618194 39.93183291223262
84.9924288271924 66.2006052647276 39.70142810341202
85.02342120213761 66.00524526238468 39.475970223488076
85.03542332145105 65.80137899553782 39.25630415175427
85.02846423670928 65.5906426569207 39.04298998191951
85.00279419354976 65.37480871591383 38.83629876256065
84.95882728344661 65.15569174445793 38.63624085659013
84.89699799572453 64.93508124035827 38.44264464279577
84.81791390402299 64.71471825666673 38.25514005730713
84.72220670616223 64.49624070353045 38.073259995191094
84.61047079908596 64.28118961608595 37.896505653174046
84.4832965623442 64.07101510538456 37.724372954662385
84.34113879161575 63.86715408684 37.55641831869566
84.18473541225323 63.67084879537371 37.392169173953
84.01475403472051 63.483275730026094 37.23124022718426
83.83189515716626 63.3055214883323 37.07330600208387
83.63678895320622 63.13870667752058 36.918117053205386
83.43043192503868 62.98356881288475 36.76539257877836
83.21373917213305 62.84083263844778 36.61490290944317
82.98764091079303 62.711170425579134 36.466426280849326
82.75316752337572 62.595090043511746 36.31971084866903
82.51145050461 62.49285110316794 36.1744589984361
82.26354653847012 62.4047764090344 36.030353832611866
82.01050875931078 62.33121122220255 35.88703619969735
81.75347830039291 62.2721858120369 35.744099840284626
81.49350839416239 62.22797027898194 35.60112742536534
81.23167095069843 62.19891073236911 35.457682988956215
80.96907282844651 62.185132909858936 35.313354600166676
80.70682298642654 62.187078127983156 35.16775441339548
80.44610428407064 62.2052742558059 35.020545282428486
80.18813477850756 62.24007474239739 34.87150372415979
79.9342244467865 62.29204740188244 34.720507535350755
79.68583023456542 62.36190152715731 34.567569893708495
79.44445214882133 62.45010849862678 34.412907470239986
79.21167259098718 62.55708820261702 34.25693143886708
78.98914898152245 62.68315271181125 34.10025781665238
78.77854563140615 62.82837861979886 33.94370664264529
78.58146294756851 62.99253885143638 33.78827104002136
78.39935298113235 63.175054314664266 33.6350613976468
78.23343476871248 63.37497893027779 33.485227167633795
78.08462140102966 63.591022660868525 33.3398660457914
77.95347241214135 63.82161287583869 33.19993477607168
77.84017817362482 64.0649826749678 33.06617394198597
77.74457747253537 64.31927282212098 32.93905891349506
77.66620195761062 64.58262979151684 32.8187790861743
77.60440566382638 64.85331327117726 32.705274398844786
77.55826325890428 65.12968141138481 32.59819298201411
77.52673406380542 65.41028623025007 32.49697502522489
77.50873846348853 65.69388812540244 32.40091098633315
77.50317461764068 65.97944078700455 32.309176145204724
77.50907326468587 66.26607933233574 32.22089833511267
77.52521530254026 66.5530719476467 32.13507430967431
77.55054567038991 66.83984330953575 32.05073085123897
77.58412734476417 67.12591771239634 31.966894118285275
77.62492344991163 67.41091672566101 31.882591366292086
77.67196918561332 67.69453720291465 31.796902209478
77.72442114437936 67.97650442045693 31.70892319338987
77.7814170985452 68.25659088808845 31.61781854302966
77.84215704555395 68.53459441515233 31.522836364627754
77.90594421376359 68.81030025995584 31.423265597273147
77.97216107274315 69.08346990835037 31.318431917727498
78.04023686243212 69.35389549252638 31.207836079995314
78.10971941158344 69.62132864120008 31.09101581369435
78.1802463678858 69.88550441464531 30.96759692005451
78.25154673665533 70.14611788287141 30.8372449286489
78.32342052791454 70.40290763807535 30.699813876849873
78.39574294848651 70.65560065415482 30.555213081970567
78.4684427916959 70.90393490680901 30.403429045619927
78.54148431701272 71.14767449963172 30.244527505370367
78.61484977468109 71.38660804949814 30.078628918535056
78.68852064022319 71.62056473733149 29.90591249062858
78.76245807704044 71.84946589751026 29.726659772932994
78.83659342881613 72.07326233310128 29.541151419430832
78.91081629878352 72.29195869576625 29.349689662567993
78.98496759961238 72.50560222890611 29.15257697876552
79.05883214021007 72.71425928024371 28.95008759908185
79.13214576163104 72.9181052731823 28.74256002099778
79.20459216923253 73.1173014284492 28.530266600319873
79.2758045135848 73.31202215722503 28.313450519091393
79.34534530357807 73.50240313821983 28.0922811855865
79.4127687494732 73.68866991189479 27.866991785335017
79.47757541252835 73.87098345789482 27.63773552754469
79.53921017594709 74.04946335751528 27.40462040487065
79.59708258012787 74.22421066404459 27.167744143899494
79.6506177354744 74.39532894985764 26.92722761640091
79.69919310743032 74.56285596868615 26.683156784644282
79.74210542204261 74.72675574648272 26.43558795537471
79.77873860228603 74.88702012821209 26.1846551956474
79.80845094389224 75.04358771741497 25.930496057870247
79.83059525829839 75.19636297991788 25.673276063137187
79.84445348303453 75.34519170773702 25.413180042330964
79.84950673259334 75.48999210971928 25.150505566075598
79.84520869039945 75.63065191300699 24.88557915323574
79.83106849002434 75.76707750956467 24.618788041934266
79.80661808594897 75.89919004384781 24.350576079335326
79.77151833804017 76.02697953145963 24.08145488536165
79.72556835646353 76.15051403329609 23.81198244268043
79.66861235772993 76.26990918823327 23.542745958332688
79.60058576204426 76.38535235159037 23.274355702014013
79.52145169021559 76.49708515913849 23.00744347956627
79.43133323522332 76.60544772613284 22.742633121307
79.33044367179548 76.71084484660072 22.480524486879194
79.21901668570631 76.81371835207271 22.22170069535274
79.0973351366224 76.91454710096656 21.966716566637494
78.96563038317181 77.0138220722438 21.716140331983667
78.82434439562199 77.11206821447996 21.47042565038491
78.67385579132207 77.20978068915375 21.23001908080007
78.51455196540635 77.30742607024433 20.995331610051423
78.34677555908938 77.40543412807006 20.766778588194892
78.17095667245094 77.50417846002271 20.544679526470027
77.98752867302127 77.6039599588764 20.329299752825698
77.79688968010743 77.70500633313773 20.12088300910492
77.59939823119579 77.80747429007317 19.919663872422458
77.39543802548336 77.91143452213473 19.725797571734045
77.18541418804125 78.0168711621416 19.539344573315645
76.96967576142464 78.12370847033061 19.36036160515048
76.74852681830924 78.23181811295709 19.188902306173684
76.5222693846281 78.3410192934781 19.024964499339248
76.29121903298541 78.45109168209262 18.86846279710805
76.0556332250842 78.56180471583086 18.71934721988892
75.81572185062743 78.67292287154537 18.577610583726937
75.5717050210323 78.78421068689472 18.44320544380845
75.3238024341566 78.89545026477433 18.31606788455782
75.07219644387726 79.0064487222244 18.19620121841138
74.81703471058134 79.1170379076219 18.08369809739492
74.5585039686793 79.22708753011416 17.978602666122097
74.29678990709206 79.33650677733247 17.880995853586917
74.03207403079801 79.44524229924868 17.79101712658588
73.76453632875013 79.55327726909994 17.708882183300236
73.4944085541186 79.66064622999905 17.634743111732114
73.22194913416452 79.76743090815886 17.568740830301277
72.94743831034637 79.87376075764571 17.511023698364117
72.67118898315411 79.97981990363424 17.461712201753343
72.39354804290676 80.08585459641563 17.420895422892333
72.11491185688334 80.19217355612285 17.388463261206354
71.83568922523241 80.29914642914538 17.364266797994084
71.55630652481649 80.40720462617135 17.348040541128384
71.27720144662939 80.51684653666594 17.339427396857197
70.99881313480296 80.62861898994208 17.337903032120654
70.72156223822196 80.7430908925051 17.342784762976468
70.44585350677413 80.86086213068916 17.35330881334965
70.17207318958853 80.982545641514 17.368607285589363
69.90060736863757 81.10878812310942 17.387732087056303
69.63177955268257 81.24012881049758 17.409583468074352
69.36591541804525 81.37710333178366 17.43303868709894
69.10333029747926 81.52019189172132 17.456920872005234
68.84437748758258 81.66987834574917 17.47999187458434
68.58933564762992 81.82642053719428 17.501007931908106
68.33852671649582 81.99004567639639 17.518725637065522
68.09228641059163 82.16087641489374 17.53191399364387
67.85100658168032 82.33897560388684 17.53932036847657
67.61502748040385 82.52418281006237 17.53982029721951
67.3847125227068 82.7162392518745 17.532359588783923
67.16044033103263 82.91478038722849 17.515967120886437
66.94259953418175 83.11933792438552 17.489765161710014
66.73159754353333 83.32935452431889 17.45295680644375
66.52773484509066 83.54411960595732 17.405021543469076
66.33133638773353 83.76290335110333 17.34550402590672
66.14270047792202 83.9849327372752 17.274084033898887
65.96214569756133 84.20942121194507 17.190498480319544
65.78990817833258 84.43555259371607 17.09468872378229
65.62617339854141 84.66252626529804 16.98673579837007
65.47113835379113 84.88957389140309 16.86676059379962
65.32501658881466 85.1159514683956 16.734915223633582
65.18800295016975 85.34093961698959 16.591427202974984
65.06018114082534 85.56387662401198 16.436697614804633
64.94168267896202 85.78413384216043 16.27108909831738
64.83266676589422 86.00110226277849 16.094956642736935
64.73325340623674 86.21420984418181 15.908719517674111
64.6434526220357 86.42296249878459 15.712913838750675
64.56331314472655 86.62688143028609 15.508030057448579
64.49290159695143 86.82549907064973 15.294542363885014
64.43220957235903 87.01840765031376 15.072987878034589
64.38112181635267 87.205290695907 14.843971940539992
64.33954107615565 87.38584959685541 14.608060770239547
64.30736003361781 87.55981577647415 14.365808651823638
64.28442617077793 87.7269756582841 14.11778062243903
64.27045144274759 87.88724758851652 13.864592885691993
64.26517566430987 88.04056331738653 13.606806401486454
64.2683075311548 88.18690945254144 13.34496283986604
64.27958801749173 88.32627020496784 13.079555206098373
64.29857481038026 88.4588128226993 12.811111418240564
64.32487785700313 88.58468232368956 12.540083717335753
64.35807910946772 88.70406179554426 12.266883096087602
64.39778397827862 88.8171131115189 11.99186261728318
64.44347497544796 88.92411250315496 11.71535356480184
64.49464256609204 89.02532007731563 11.437624548544992
64.5507691199277 89.12098647780286 11.158889487220463
64.6113477085915 89.21132080888283 10.87930730941402
64.67579998067163 89.29658649827452 10.598999759924133
64.74354813891414 89.3770242023039 10.318042328924331
64.8140228040127 89.45283660431127 10.036469111438542
64.88666444831411 89.52416940554235 9.754276105651808
64.96088508186716 89.59119734456364 9.471439085827338
65.03611384757156 89.6540599607964 9.187912554495126
65.1117962749858 89.71285409223559 8.903634592464222
65.18738450496663 89.76762067172427 8.618528228509636
65.26234122523563 89.81842119322287 8.332522503649352
65.3361510531035 89.86529160773232 8.045549326508263
65.40831188175432 89.90823522191118 7.757544297465204
65.47832114577305 89.94722023676627 7.468447465321935
65.5456931878224 89.98222255595337 7.178217149970247
65.6099713025122 90.01323154485084 6.886833929805194
65.67069556767088 90.04021180974445 6.594290300792513
65.72740662093574 90.06312113268072 6.3005965619967395
65.7796195845216 90.08189402328883 6.005778002234081
65.82692989239304 90.09653512564488 5.709900721982455
65.8689079545896 90.10702015362332 5.413044706059711
65.9051372789241 90.1133332820522 5.11531482272916
LINES 1 242
241 0 1 2 3 4 5 6 7 8 9 10 11 12 13 14 15 16 17 18 19 20 21 22 23 24 25 26 27 28 29 30 31 32 33 34 35 36 37 38 39 40 41 42 43 44 45 46 47 48 49 50 51 52 53 54 55 56 57 58 59 60 61 62 63 64 65 66 67 68 69 70 71 72 73 74 75 76 77 78 79 80 81 82 83 84 85 86 87 88 89 90 91 92 93 94 95 96 97 98 99 100 101 102 103 104 105 106 107 108 109 110 111 112 113 114 115 116 117 118 119 120 121 122 123 124 125 126 127 128 129 130 131 132 133 134 135 136 137 138 139 140 141 142 143 144 145 146 147 148 149 150 151 152 153 154 155 156 157 158 159 160 161 162 163 164 165 166 167 168 169 170 171 172 173 174 175 176 177 178 179 180 181 182 183 184 185 186 187 188 189 190 191 192 193 194 195 196 197 198 199 200 201 202 203 204 205 206 207 208 209 210 211 212 213 214 215 216 217 218 219 220 221 222 223 224 225 226 227 228 229 230 231 232 233 234 235 236 237 238 239 240

POINT_DATA 241
SCALARS curvature float
LOOKUP_TABLE default
0.17032997574216546
0.15189085368686628
0.13369790074400437
0.11647449029633344
0.1009691768342536
0.08807221730112946
0.07880318094110228
0.07411789542233296
0.07430398435719805
0.07860939245726346
0.08563610620172851
0.09392430960092758
0.10226700946502214
0.10978365910681008
0.11588743193982692
0.12024841972217458
0.12278393363458115
0.12370623594054213
0.12351207082897618
0.12291260682249705
0.12282726858702188
0.1242123888196271
0.1279084282014999
0.13446254449148065
0.14399555846728704
0.15613312540884247
0.1701953839241148
0.18527728102445698
0.2003629686119049
0.21437709538481017
0.22631154366386474
0.23529602133268676
0.24074360133541434
0.24243631336254617
0.24056427564685548
0.2356898784684343
0.22863929242718625
0.22037352141914082
0.2118279971738011
0.20383210592123557
0.19697993512712916
0.1916020841025195
0.18778907069753895
0.18542555048538223
0.18423058534870151
0.18379555920500823
0.1836967468432234
0.18354696821194713
0.18302863667141475
0.1819531863525236
0.18025246300381853
0.1779934406449109
0.17536520589503257
0.17266339151565793
0.170252911932862
0.16853962923727694
0.16791084698157666
0.16871488464789436
0.1712190048956943
0.17554724843568542
0.18171207470194173
0.18960909316720778
0.19896852013164523
0.20944408482471102
0.22058006797523055
0.23181965497582868
0.2425534798836294
0.2521084402670861
0.25982161218854233
0.2650524114140918
0.2673136553608295
0.266273304757233
0.2618552417180093
0.25418971415264113
0.2436341695362523
0.2306701006236045
0.21587597050398885
0.19982669755458346
0.18309433379729734
0.1661854519301253
0.1495073741496087
0.13339272096127147
0.1181745414325687
0.10417494925875494
0.09173420183102428
0.08125626573001517
0.07313879616045532
0.06772263945715025
0.06516171403767493
0.06522861093546349
0.06735447391620863
0.07083907457701782
0.07501701632260459
0.07934158356709813
0.08343654664151698
0.08704265749960576
0.08999956356873579
0.09222787166686963
0.0936973546027823
0.09440493314905012
0.09436407417530511
0.09360461256555049
0.0921689733025651
0.09012956659224519
0.08757980607533072
0.0846415310693405
0.0814684798827321
0.0782424362269763
0.07517372664377525
0.07248764052642412
0.07041491812898654
0.06918516210896883
0.06896097469395177
0.06984931267262177
0.07186976028976427
0.07496176636175728
0.0789772830684164
0.08374214812143496
0.08906128995675205
0.09472611637703819
0.10053191938269959
0.10627846247826307
0.11176957346526355
0.11682320183243995
0.12127990147175813
0.1250044935831584
0.12789561332093516
0.1299005387911939
0.13101537170531297
0.13128417658060856
0.13079174897420232
0.1296669378847783
0.12806473839746796
0.12615971675447274
0.12411604081221447
0.12208916841246141
0.1201987466818152
0.1185211148360261
0.11707898719527084
0.11584573394672051
0.11475514188169668
0.11370649297153901
0.11258768667546394
0.11130335105960004
0.10978507353678602
0.10800451535132229
0.1059763654008601
0.10375273336543804
0.10141910503334796
0.09908039504055689
0.09684969681563375
0.09483481540005488
0.09313345673198822
0.09182276649386459
0.09094693071644183
0.09052868304657277
0.09055204432966867
0.0909741049761072
0.09170798065034948
0.09265117598293764
0.09366806457022853
0.09460705091001705
0.09529459497414192
0.09555322064302935
0.09522149742612887
0.0941629295400762
0.09231512772727038
0.08968243767136554
0.08636689193044382
0.08257512556108816
0.07863190930555006
0.07497348895025782
0.07211401580149053
0.0705967994824367
0.0708896623310605
0.07322024397707318
0.07754042642929712
0.08357279678252466
0.09090739612513346
0.09910750375962764
0.10776929616959491
0.11651932557068961
0.12501662608019376
0.13300135197455643
0.140264395658184
0.14665905699417225
0.1520863646916332
0.15650524480801892
0.1599393077523012
0.16244995659681977
0.16413544124522178
0.1651075423360922
0.16549502889152176
0.16542217725949526
0.16500190252953514
0.16432676876289373
0.16346635701962997
0.16246850860886555
0.16135805869527128
0.16013798338452845
0.15879017606035006
0.1572819409542791
0.1555654399440318
0.15358349137994765
0.15129087897830862
0.14865225025646037
0.14564151519537233
0.14224072624221318
0.13844358192575598
0.13425915940021943
0.12970127530917477
0.1247913398496846
0.11955410007489739
0.11402645234843604
0.10824673478824724
0.10225896201858911
0.09611242474022959
0.08986759911729293
0.08359418613464456
0.07737577252843099
0.07131531249056139
0.06553460077634053
0.06017737841556874
0.05540741309048019
0.051411587983965626
0.04835499154061038
0.04636520270184925
0.04549649803673753
0.04571799517783886
0.046899044316564664
0.04885984395232788
0.051417253705465786
0.0544108075270537
0.057710561301650795
0.06122261640302635
0.06487989858295529
0.06863368355840993
0.07244393171472492
0.07627160157614932
0.08007919269929942
0.0838265774811346
SCALARS torsion float
LOOKUP_TABLE default
0.18131459881188003
0.22842322219547487
0.2921231942904039
0.37835281349525385
0.49200326534862726
0.6277957544167941
0.7561041144834096
0.8146530606188727
0.7605325486270941
0.6214366898772794
0.46108222594347814
0.3177784583505493
0.2003824363335165
0.10482266994472669
0.022953542912746504
-0.05054391353925588
-0.12162912189787772
-0.19185021096357716
-0.26238533022733607
-0.330593251472965
-0.39001666995976914
-0.4313116634749119
-0.44498991999621407
-0.42832207756008445
-0.38555656253844334
-0.3283861895271506
-0.2670169644945822
-0.20765878653175612
-0.15360652439820635
-0.10448450567355716
-0.06037970218369462
-0.019335436825270124
0.018643929996281974
0.05524120512294039
0.09018920219337552
0.12435579943084864
0.1567228848650221
0.18690123947051307
0.2133811573362357
0.23437806068377584
0.24853135344417496
0.25433517336826134
0.25191855019826415
0.2415700455622846
0.22634832865863072
0.20852971632276132
0.19106966171710824
0.1759718689537817
0.164634369517269
0.15808331230734687
0.15630445051641864
0.1592067510839396
0.16605391633806205
0.17527130705667895
0.18555746069738718
0.19402725412791016
0.19907852999599446
0.198062327529889
0.19022768550306388
0.17562754728768115
0.15531651498914065
0.13109744682686383
0.10465076442429483
0.07822074681695397
0.053171384099941495
0.030618318160938476
0.011393189173741677
-0.004283747357874336
-0.015843605338307046
-0.02331983153419613
-0.026270357380067305
-0.024897704575113047
-0.019241115280242138
-0.009508591632592267
0.003912726587302388
0.021017899371680443
0.04127321598763882
0.06519300392561665
0.09239641481784107
0.12426247950014704
0.1620350766648996
0.207887063210501
0.2637055217131747
0.33124922729994205
0.4121361602662802
0.5017592559215213
0.587955316207625
0.6455161734640135
0.6506136103313309
0.5972752989340443
0.5056438802885023
0.4015264005894254
0.30339668217900223
0.2191170004752977
0.14956161272144214
0.09440490032180646
0.051461959255358666
0.020129803008946765
-0.0014065981202493346
-0.01403561605790768
-0.018504605118423514
-0.015371916730812785
-0.004795493013124269
0.011936285351547985
0.03507255992512874
0.06320479788894573
0.09657214394304602
0.1338807151650437
0.17417770580251085
0.21443182861482427
0.25105660797713963
0.2790062787757578
0.29405879206247376
0.2941354147794867
0.2801009782383371
0.25574975044825865
0.22611428464740044
0.19559182560639105
0.16767428509145157
0.14379984907628943
0.12480878170460875
0.11063968682339795
0.10136950483570059
0.09647868592571024
0.09538632832280496
0.09778827915688461
0.10300774256279877
0.11092803242631659
0.12090121000176061
0.13283915399385726
0.1458826876448517
0.15964935014462633
0.1730874765313696
0.18535573350470858
0.19528913659510275
0.20167385348297362
0.20355446624050802
0.20010275123507618
0.19128482916987533
0.17750041868202948
0.15909467672474303
0.13697077128509588
0.11196975874607752
0.0860705574519236
0.059635884073409876
0.03430355807590926
0.010223697947312213
-0.011211090349944816
-0.029620520659147536
-0.04413764880648552
-0.05415172600358362
-0.059334873527507916
-0.0591445426058022
-0.05393868488686432
-0.04395894341539201
-0.03010872385440065
-0.013347308360680335
0.005141057668569022
0.02411213904485789
0.043254611283976514
0.06244139531817882
0.08199597049879002
0.10256981701741347
0.12507348256608908
0.15047835183622774
0.18040579177411303
0.21581429366527607
0.2589409927354207
0.3103021729668184
0.3718577220197415
0.4421636104748837
0.5181092873328781
0.589945682898456
0.6433030208923357
0.6624194601133674
0.6416333988320962
0.5887528963430704
0.5193399845554648
0.4482553572707305
0.38347718464733577
0.32807171953440056
0.28229689173610795
0.24511412467109486
0.21476802147443783
0.1897784722108668
0.16911284504308957
0.15163100674023083
0.13659948970843058
0.12320398382050998
0.11107424815496286
0.09968304526866613
0.08900744914947267
0.07874243178626543
0.06911908214686137
0.06002976299075376
0.05167385941366805
0.04406635143667124
0.03734996833053167
0.03160517050498284
0.026773135868229832
0.022819046471578324
0.019608788329052898
0.016990660890194454
0.014869171139974805
0.013051125338348867
0.011446258680509025
0.00983832961615498
0.008197916807246606
0.006553561237900573
0.004961252352619751
0.00386013572156114
0.0034546140988011773
0.004510790766020177
0.007478258760791252
0.013087807444678572
0.022090006369628174
0.035118268128803615
0.05313012564500534
0.07651956622818945
0.10605411066038586
0.14270110839282532
0.18707732264519955
0.2389906688706563
0.29613010166706716
0.3537786067826118
0.40366021642918914
0.4359404359154265
0.4437525218010603
0.4258186905611794
0.3893837734267262
0.34349462450612545
0.2969532626475979
0.2545531345261086
0.21847454506369962
0.18887702287452976
0.1647391223728788
0.145166638180749
0.12891141389951796
0.11517748010714313
0.10333696243302626
0.0929603613120492
