# vtk DataFile Version 2.0
00003078.nii_L_ICA_labeled
ASCII
DATASET POLYDATA
POINTS 250 float
103.96203744106727 72.13990435510546 28.243429693626343
103.74740506729246 72.16984180260336 28.036015119884407
103.52451521944899 72.19303621826666 27.836595462419787
103.29470261127155 72.20913610069361 27.64446482513343
103.0588593603488 72.21744625290233 27.459270425768636
102.81802242879901 72.21752685442219 27.28042457938608
102.57300564690851 72.20864316884997 27.107577555117707
102.32467173667916 72.1901539841574 26.940316596061784
102.07384606378876 72.16128132337651 26.778329648541153
101.82137750875309 72.12116407352748 26.62137087970239
101.5681751461932 72.0689469702359 26.469233594690916
101.31521465628083 72.00368198308588 26.32181014274976
101.06358365854832 71.92437984799902 26.179079280249525
100.81445186289368 71.83027521847305 26.041041825878967
100.56915483762754 71.72042497494553 25.907861993074334
100.32908286787317 71.59429441268779 25.77969377951827
100.09564675682033 71.45163181988978 25.65671992999864
99.87023647186955 71.29247659643327 25.539132415297242
99.65410048429152 71.11727924150449 25.427062293028403
99.44829377008739 70.92682939903167 25.320559585585208
99.25346738999895 70.72238040469858 25.219491177677497
99.06990474273007 70.50540437346515 25.123574356177
98.89754457333876 70.27746792965387 25.03238947166457
98.73601190609567 70.0401451830176 24.9453965332627
98.58479445463128 69.7948592255883 24.862002497127893
98.44306051162825 69.54302433282346 24.78150695467688
98.30994739113109 69.28583990965696 24.703220404344144
98.1847314200745 69.02425153528829 24.62649805023213
98.06653588211594 68.75915109760486 24.550691540833693
97.95470728031154 68.49120188804162 24.47523412980506
97.84868748710142 68.2209449520377 24.39961774586988
97.7480285349935 67.9488085893576 24.323414818554493
97.65250717838605 67.67509102017618 24.246266788264556
97.561983648833 67.40002184454036 24.167909058076834
97.47657090786258 67.12372945762097 24.088131341327244
97.39645735189862 66.84630135246329 24.006814072654343
97.32206862470838 66.56776357870628 23.923871082987386
97.2538877911215 66.28813424296953 23.83928545787801
97.19261469036205 66.00741335529318 23.75305107048023
97.13896599935107 65.725635707953 23.665203615154834
97.09387375473571 65.44286587366392 23.575758437178795
97.0581908592186 65.1592555811218 23.484746916965772
97.03303996332447 64.87503699536157 23.39213821142415
97.01926559476914 64.59057603556775 23.297905798332252
97.01814999582085 64.30637804729521 23.201908771583653
97.030442547983 64.02309689321058 23.10401700920968
97.05727104911162 63.7415796872411 23.003976058441754
97.09943660318473 63.46283682701731 22.901503626092094
97.15760480750198 63.188032697773444 22.796271929073374
97.23266537011878 62.918624229838215 22.68784536262337
97.32479862162853 62.656062000224985 22.575868273875525
97.43429231154259 62.40202680475331 22.459926914288562
97.56133804160491 62.15843101125317 22.33958591876433
97.70545294734265 61.92700745091952 22.21456429172101
97.86610426551084 61.70961728453727 22.08460560996685
98.04267908745683 61.50832889823839 21.949481421556897
98.23384511281857 61.32466269349897 21.809227134343313
98.4382504644281 61.16016272231728 21.663940634229842
98.65446397848815 61.016433886717664 21.513795331581868
98.8806326496298 60.89439114051879 21.35919957889476
99.11491890359756 60.794807637949745 21.200635645712964
99.35554962964177 60.7186582669315 21.03862268880147
99.600557290747 60.665966987810755 20.873872147421864
99.84814462925465 60.63703330206654 20.707096931686195
100.0965365810158 60.632001440014506 20.539090879660744
100.34404596325619 60.65046308570992 20.370715459981202
100.5890099892508 60.692658367123265 20.202892297877824
100.82992146616947 60.75788611465383 20.036587727331806
101.06524261650505 60.846028473599354 19.872861591528977
101.29351997369706 60.956617769035276 19.71283550648127
101.5134144142175 61.088966998584745 19.557655791257737
101.72339495712043 61.24279836262888 19.408679502444173
101.92230775780108 61.41697804478169 19.26711436141696
102.10894813730306 61.61053570837398 19.13426470957599
102.28205761020715 61.822487679027056 19.011554396553258
102.44091730652981 62.05113150107531 18.900060607399453
102.5849142976263 62.29477289954553 18.80080620178748
102.71366967704299 62.551584496737135 18.714651785228956
102.82715519781924 62.819583039568236 18.642176188532137
102.9258573310404 63.0966590537069 18.583487432805306
103.01045134219461 63.38088411973723 18.53848959319022
103.08168755375705 63.670545452977954 18.50699708266593
103.14085900609723 63.964007444294474 18.488234422998925
103.18917600344938 64.25997801513628 18.48145145278673
103.22781604423943 64.5574175618938 18.485896407566813
103.25822570800473 64.85549529302986 18.500440126506753
103.28154873235452 65.15362057332152 18.524258350113858
103.29910559406832 65.4513819584952 18.55622980561893
103.31200090947972 65.74851772921657 18.59545482707939
103.32136249533583 66.04489792616243 18.64092205566325
103.32820220243659 66.34048218988477 18.6917224580653
103.33348724291704 66.6353072152177 18.746937574070103
103.33811539957149 66.9294636703341 18.805671630010874
103.34292662106705 67.2230727765048 18.867072414227437
103.34868711050531 67.5162862287753 18.930257583336548
103.35614224826837 67.8092531319366 18.994401480388696
103.36591089797173 68.10212900215288 19.058648417615515
103.37857759493762 68.39505042947967 19.12217499748134
103.39464533703845 68.68813580519216 19.184153304669902
103.41445344193772 68.98147269681516 19.24381136345403
103.43828648782356 69.27512345961 19.30036878968769
103.46626369254044 69.56912009736155 19.353096076578325
103.49832382000008 69.86346672121563 19.401352902186268
103.53433574499755 70.15815564621934 19.444455118655604
103.57395409166188 70.4531612038044 19.48184257873885
103.6167156559884 70.74845231540884 19.51299092869961
103.66208613634166 71.04399789394323 19.537271125134584
103.70935821955348 71.33975224551207 19.55428627981894
103.75781871943863 71.63566408233177 19.56334001424925
103.80664532297259 71.93165203474518 19.564026268804827
103.85497984036799 72.22759818715667 19.555546069315152
103.90194603915292 72.5233286781768 19.537417962873924
103.94657029402697 72.81857440326475 19.50864831016506
103.98796107867703 73.11297897993988 19.468655447235008
104.0250766586274 73.40600829117358 19.416311271613527
104.05701661021958 73.6970031358405 19.35087258746744
104.08271719305317 73.98502753942324 19.27113897430588
104.1013338315584 74.26900547249409 19.176364934522375
104.11181158285595 74.5474422780909 19.06532481781322
104.11346312429241 74.81876675268275 18.937495299526926
104.10547288881094 75.08095732157135 18.792071817516394
104.08727844714075 75.33181312117483 18.628706795802902
104.05857448032442 75.5690357131943 18.44748060939753
104.01922280316639 75.79015445518341 18.248739243712148
103.96927051811609 75.9925300251455 18.0331343934973
103.90921524565478 76.17394721235839 17.802027485763343
103.83972630271379 76.33228424983454 17.557026183499
103.7616935336906 76.46570253419904 17.30005487857011
103.67619705775695 76.57272512961327 17.033293160009492
103.58446450387687 76.65228370022454 16.75909475870267
103.48781155153198 76.70362155340757 16.479892066397337
103.38765386630844 76.72663059880335 16.198165722288014
103.2854107485826 76.72163995176093 15.916292479325524
103.18247173604345 76.68940464616074 15.63647317230884
103.08016056335741 76.63113957025558 15.360649717654287
102.97969632906315 76.54843325135359 15.090434026190268
102.88218166331902 76.44309927551315 14.827087869426107
102.78848724173153 76.31757303686267 14.571305762618309
102.69930377238279 76.17422362822305 14.323383045776746
102.61520109733691 76.01527695058726 14.083303654642389
102.5364441156169 75.84329658160212 13.850494110699204
102.46318318579935 75.66055139423385 13.624168826535575
102.39546845007844 75.46913995197623 13.403337162598241
102.33309201563601 75.27120222521881 13.186718623778212
102.27593779133842 75.06852200097721 12.973059164071117
102.22358290093112 74.86296251515037 12.760922660820908
102.17572886389885 74.65614684184611 12.54894233156787
102.13188716767894 74.44965949398089 12.335777665109434
102.09161915375743 74.24497622315758 12.120183249624441
102.05445050237596 74.04349006109179 11.901052432963807
102.0198996194641 73.8464251153003 11.677519482413713
101.98758930008006 73.65499353427798 11.448818813155407
101.95714987433834 73.47007851432791 11.214570455880327
101.9283470364499 73.2924217208695 10.974569387964687
101.90108785492106 73.12268402254317 10.72872880142655
101.87536639988141 72.96107802318684 10.477307250618084
101.85133857013709 72.80774747594037 10.220589492900956
101.829325361265 72.66275905498732 9.958891828366642
101.80972026581647 72.52582241831743 9.692703975343646
101.79307430661912 72.39675351171013 9.42241381921482
101.78002891092325 72.27530148731701 9.14842144736428
101.77123305536388 72.1611313807289 8.871147812979833
101.76752348137478 72.05417306491536 8.59090015635806
101.76957927170403 71.9541676613485 8.308081430210075
101.778238883898 71.86114926467576 8.02301337456206
101.79424610944842 71.77514744005568 7.736068484656076
101.81828739267488 71.69627397947424 7.447641292886933
101.85113430827955 71.62484329542052 7.158147644173549
101.89323550938455 71.56103465803567 6.868074442705571
101.94521070042376 71.50530235812376 6.577939899560074
102.00734871519226 71.45795391981808 6.2883182472378545
102.07986177496967 71.41934100790895 5.99981437748161
102.16299006969024 71.38993528032537 5.7130957391114245
102.25654152196294 71.36990177713975 5.428792722972966
102.36044916513258 71.35955990108467 5.147584524866154
102.47445616936089 71.35908261985762 4.870125997772627
102.59812241498891 71.36845622479929 4.5969949828359535
102.73118763296873 71.38783531770162 4.328852613391551
102.87307654736453 71.41700398103096 4.066177016835839
103.02337375832043 71.45586450398423 3.8094992386207163
103.18165435507635 71.50425298239522 3.5593218980829175
103.34739242109293 71.56180882627511 3.31600676401482
103.52031759861833 71.62841336448741 3.0801145276923934
103.69991539879909 71.70356486638144 2.8519013824329784
103.88595631871274 71.78705159182871 2.631893041066018
104.07807142959602 71.878415339326 2.4204005151178043
104.27602542344017 71.97731119761679 2.217868901961394
104.4795739002879 72.08333170539055 2.024704291767503
104.68845429374954 72.19600826595902 1.841241824846326
104.90250830682226 72.31497094306206 1.6679960870882
105.12142978422767 72.4396527033105 1.505167233512507
105.34505974282864 72.56964863052086 1.3532580381014807
105.57308976699876 72.70437947653929 1.2124209048622514
105.80525861706181 72.84332454251563 1.082891013925943
106.04129823993294 72.9859588410223 0.9648785367207419
106.2808475764437 73.13168449087487 0.8582628879816724
106.52361873015755 73.27998554925563 0.7630958430124465
106.76925124526362 73.43030658177018 0.6790935973722897
107.01739878590374 73.58213665554953 0.6058804808527585
107.26776961090508 73.73502485797489 0.5431871425169481
107.5200157021001 73.88853587483347 0.4902930260433363
107.77386578491486 74.04231565172377 0.4466477916448876
108.02906070792827 74.19606278180268 0.41155771819347153
108.28535964848297 74.34954459541076 0.3841823513722769
108.54258065498442 74.5025815078736 0.36385198126792573
108.80053685888582 74.65507109192858 0.34962109498250177
109.05909010950764 74.80695512576331 0.3407144445401262
109.31811552101738 74.95823199413519 0.33628482797755477
109.57750721258891 75.10894488678828 0.3354952692474904
109.83718016026125 75.25916148228761 0.33758869122824836
110.09705388757332 75.40898781574529 0.34176449266636066
110.35706425129963 75.55853196485013 0.3473377000041513
110.61714955673855 75.7079174979951 0.3536288944317223
110.87725611273926 75.85726073121033 0.36004572415910496
111.13733387408942 76.00667094547549 0.36605457525176494
111.39733844529945 76.15624012445534 0.3712105736341283
111.657228102479 76.30604629013952 0.37512262508908445
111.91697185235493 76.45613672873021 0.37753078956849845
112.1765433422578 76.60654243645907 0.3782240967125704
112.43592919257307 76.75726542148317 0.3771067447777577
112.6951284544168 76.9082847402919 0.3741711160842008
112.95415038267546 77.05956315826806 0.36945703868924706
113.21302351878808 77.21103739793293 0.3631292873319118
113.47178572161495 77.3626346367387 0.35536717361305015
113.73048983405886 77.5142663647033 0.3464282794191632
113.98919758533626 77.66583702757956 0.336600521118887
114.24797920155949 77.81724256731194 0.3261881532967539
114.50690577790444 77.96838250047298 0.31552345408775684
114.7660520479987 78.11915057798213 0.30493234719901785
115.02548511422447 78.26945188945196 0.2947372842570892
115.28526519283425 78.41919855664847 0.28524299783430523
115.54544674658565 78.56830658227338 0.2767466018278739
115.80606133034239 78.7167221802031 0.2694925157903583
116.06713965742675 78.8643862416522 0.2637353790792776
116.3286848163505 79.01127789211893 0.25965938269394906
116.59069305261131 79.15738188101618 0.2574429416421109
116.8531466514026 79.30270089915994 0.25723819675413717
117.11600906821161 79.4472667503668 0.25913637556933944
117.37924533168574 79.59110373387811 0.2632725512110683
117.64279746200859 79.73427754043534 0.26967678677146534
117.90661065091196 79.87684503412686 0.27842866562526203
118.17061985527532 80.01888247414736 0.2895626773872992
118.43475663414085 80.16047374213662 0.30309618065502164
118.6989507295326 80.30170183159197 0.3190830153102287
118.96312890692417 80.44266352844652 0.3374992411704573
119.22721644202396 80.58344916607224 0.3583954292765355
119.49113950183732 80.72415585585404 0.38175546165677404
119.7548227766012 80.86487835496692 0.4075966421470003
120.01818880223396 81.0057131698649 0.43593961904552514
120.281166299012 81.1467530022344 0.466762458101998
LINES 1 251
250 0 1 2 3 4 5 6 7 8 9 10 11 12 13 14 15 16 17 18 19 20 21 22 23 24 25 26 27 28 29 30 31 32 33 34 35 36 37 38 39 40 41 42 43 44 45 46 47 48 49 50 51 52 53 54 55 56 57 58 59 60 61 62 63 64 65 66 67 68 69 70 71 72 73 74 75 76 77 78 79 80 81 82 83 84 85 86 87 88 89 90 91 92 93 94 95 96 97 98 99 100 101 102 103 104 105 106 107 108 109 110 111 112 113 114 115 116 117 118 119 120 121 122 123 124 125 126 127 128 129 130 131 132 133 134 135 136 137 138 139 140 141 142 143 144 145 146 147 148 149 150 151 152 153 154 155 156 157 158 159 160 161 162 163 164 165 166 167 168 169 170 171 172 173 174 175 176 177 178 179 180 181 182 183 184 185 186 187 188 189 190 191 192 193 194 195 196 197 198 199 200 201 202 203 204 205 206 207 208 209 210 211 212 213 214 215 216 217 218 219 220 221 222 223 224 225 226 227 228 229 230 231 232 233 234 235 236 237 238 239 240 241 242 243 244 245 246 247 248 249

POINT_DATA 250
SCALARS curvature float
LOOKUP_TABLE default
0.15901606890592992
0.1479349647661602
0.1392095342591701
0.13288996345030718
0.12912001199336995
0.12791051544468057
0.1292829254546214
0.1331288165556975
0.1392528448607184
0.14736012694639714
0.15705459885980153
0.16785180838934807
0.17916902745274194
0.19030511226204055
0.20043584398279554
0.2086395219500168
0.21399302846523388
0.21576494432203677
0.2134780953294397
0.20707316171432075
0.19689586424719774
0.18367676641371594
0.16832065855000714
0.15180517424917242
0.13505661748617612
0.11885865718241209
0.10383773004698209
0.09053249806171744
0.07935139266887259
0.07059935951439185
0.0643987582015508
0.06072040931104527
0.05938558969998023
0.06013972557911541
0.06272448784928124
0.06691984656857058
0.07258826572387518
0.07959729263064291
0.08782374170183772
0.09709467816532318
0.10723394689545869
0.11802170522592774
0.12926471420457727
0.14078450069866374
0.15244399818359286
0.1641227103807201
0.17572643923790743
0.1872142277463089
0.1985561360178556
0.20966215657741707
0.22038941192927458
0.23057936178396168
0.24003647015280666
0.24854842475142028
0.2559095643175789
0.2618968322697818
0.2663899817536628
0.26931724659669426
0.27078558310922635
0.2710222093772442
0.27027765456838854
0.2688144366703938
0.2669798842230085
0.2651187092048416
0.26356044733335937
0.26258710331958535
0.262405691208846
0.2630971924350858
0.2646381483595781
0.26688514626699583
0.26955689442185016
0.27227376231551026
0.2745486494670069
0.27578670523216886
0.2752913051631277
0.27251597198643307
0.2670756782568464
0.25877851760945353
0.24768269704424822
0.2340956519269999
0.21849344809557042
0.20140710233643216
0.18346734769534093
0.16520439207572016
0.14702316417757552
0.12921870207152325
0.11204819148843226
0.09571124071854092
0.08035059469058774
0.06608505412755822
0.053073727272426506
0.04159818397795352
0.03226663915834374
0.026320212931437815
0.025166288286956894
0.028719188581021342
0.03496945377088928
0.04225205968557598
0.049620527170336395
0.05658043905987007
0.06284758430958177
0.06827519735044396
0.07283855014444177
0.07662408694122792
0.07986309479234795
0.08289734330018032
0.08616309205684827
0.0900954475869642
0.09512180519635652
0.10158045182997755
0.1097385700827163
0.11968324231582596
0.13143845787595268
0.1448564097681868
0.15978725110860956
0.17594076153320332
0.19303439138575537
0.21070035297325682
0.2285253922523665
0.2460655580766935
0.2628053027044755
0.27819490218484844
0.2917024936164178
0.3029860949961588
0.31183413171988333
0.3182591094526188
0.3223789769011815
0.3243617786384154
0.324334003163729
0.3223894072914485
0.318600826431119
0.3128376428116564
0.30475594338241274
0.2940484131085071
0.2805991383634652
0.26440732820769175
0.24565926545663788
0.2247128406518273
0.2020728609299749
0.17825281535956328
0.15389366647126698
0.1296054738872812
0.10605471760994892
0.08407644398343868
0.0651955652232876
0.05199914472186139
0.04808358738961351
0.053688626576487486
0.06471193136210798
0.07715203374245899
0.0887543976554124
0.09836335835496414
0.10542023377043241
0.10982362225402267
0.1117240056214592
0.1115183342798551
0.10971915801351384
0.107034584019934
0.10430245562828074
0.10227139550524876
0.1015361311420974
0.1024449652058635
0.10510141706205194
0.10932037633412992
0.11477948613281538
0.12107228368157474
0.12779682480167895
0.13457497850078393
0.14106992362664061
0.14697465018250194
0.15206443519433865
0.15617998375402392
0.15921038402889567
0.16115094248958772
0.16202730572372215
0.16194459579209788
0.1610542842725887
0.15954080977534726
0.15761288493457815
0.15544177410487145
0.15318881614755936
0.15100999327007908
0.14904833054710445
0.14739483291533098
0.14610792907008605
0.14519577623835822
0.14462391258432022
0.14431989983583698
0.14417425664035066
0.14405285687031336
0.14379625934509097
0.14322583303764377
0.14217029438639198
0.14046028620288448
0.13795900258237506
0.1345849941533269
0.1302794821627767
0.1250490036979808
0.11893310292244713
0.11199591703340615
0.10434938570378824
0.09611896409644906
0.08743763558475426
0.0784246620277039
0.06918119474990729
0.059832640228104944
0.05050484795475331
0.041316221512927846
0.03237853793648326
0.023816552272925864
0.015759139581070274
0.008395397263963256
0.002620910387154633
0.005249241607884362
0.010145771902622296
0.014275038880096869
0.017428436841707955
0.01956048390191099
0.020660211178524478
0.020771180927186644
0.01996724490781808
0.018337747253767904
0.01602067040470672
0.01317079976630169
0.009995420489993636
0.006824192777309166
0.00453796103080552
0.004943227034689425
0.007582479396816945
0.010746198015367218
0.013849611704461555
0.016695443889813116
0.019203318933940613
0.021328997655813194
0.02307034943775027
0.024438281631396577
0.025470474958869196
0.026214990284263516
0.02671696549638677
0.027032119185557032
0.02720963530455401
0.027300010995523524
0.027346895662126475
0.027388478407200087
0.02745263939813033
0.027558861058666402
0.02771930571745024
0.02793965173632261
0.02822285988469892
0.0285670216855959
SCALARS torsion float
LOOKUP_TABLE default
-0.2273088378180205
-0.25103260168568947
-0.27355861453375757
-0.29229311523972873
-0.3042904699893134
-0.30717571475085315
-0.2995840195602166
-0.2827249185149075
-0.25862667940637907
-0.23076692406519986
-0.20218341380076976
-0.17495953132114592
-0.15044612128745352
-0.12909752082826056
-0.11114667599769057
-0.0965749603745189
-0.08544111871615191
-0.07790358231080877
-0.07381227870743728
-0.07314795755126088
-0.07600302244570373
-0.08243649250731407
-0.09295679720968894
-0.10803863732730717
-0.12847826429640222
-0.15466873840802298
-0.186455507677613
-0.22192731009886502
-0.2547877000396875
-0.27573790331157794
-0.2716879343491511
-0.23590913867274926
-0.17254985250595065
-0.09665837275258272
-0.02835002498456057
0.02280839426289717
0.052379191909658875
0.06331263710236794
0.05905028317190248
0.0446972054314254
0.024647066559726847
0.001593149931072233
-0.021914408539545203
-0.04446912024062692
-0.06557071787374902
-0.08402801041506837
-0.10017297893857036
-0.11242293950142988
-0.12152409995235086
-0.12790212220536068
-0.13226466297521455
-0.13378752220766618
-0.13261683926344603
-0.12932946155599973
-0.12432175242229293
-0.11788953494187551
-0.11022284536424852
-0.10177278306900713
-0.09288915059338874
-0.0834665166290942
-0.0735354769427673
-0.06298890403212676
-0.051971999693247374
-0.04033551529421216
-0.028468265899707555
-0.01632948330778448
-0.004289414114792571
0.007531414605976546
0.01876440977471015
0.02909769568990494
0.03846843911627473
0.046691916417559244
0.053905275458924644
0.06023053009485213
0.06583838728492447
0.07055019521711443
0.07450317767729847
0.07795052260005617
0.08102726766095286
0.08401119472935378
0.08695570597113254
0.09083755962397339
0.09612521371247089
0.10327026631477466
0.11295754780962616
0.12647770030440794
0.14634938985147458
0.17541065877959428
0.2200870576809678
0.29038910159258896
0.4067940357727826
0.6053311080580411
0.9314157402173676
1.3158415863514261
1.3741371572578174
1.027658030492076
0.6880807413334019
0.4798867589468769
0.365596376848324
0.3057999130330276
0.27816922681559475
0.2712629083353882
0.2779044815160088
0.2929121092662195
0.3120923790338531
0.32825419328251493
0.33670441348108365
0.3344288955658811
0.320052808509965
0.2935179336639866
0.25676382102097767
0.21528688615861727
0.17359031352730447
0.13483722796143277
0.10087581496250737
0.0717487963708427
0.04775351323382698
0.027997644321094032
0.011829143353983764
-0.001448707966929451
-0.012585857684194275
-0.021982593763285818
-0.030040901454788937
-0.03652508722950948
-0.04169879961038518
-0.045766464340341484
-0.04885654976651128
-0.05128688242784153
-0.05319725800368138
-0.05512265734079185
-0.05720996312687707
-0.0599572500940317
-0.0637900864642494
-0.06901158076853173
-0.07610742159012204
-0.08539710281041289
-0.09778499544897208
-0.11410056989415296
-0.13603328324358635
-0.16700867293194954
-0.21233523906245078
-0.28243114238745576
-0.3981767593752175
-0.5971655699004875
-0.9414137495353234
-1.397559195023791
-1.5461161928554281
-1.1642323494800422
-0.7404112458747117
-0.46619628670813495
-0.2989176681924707
-0.18855479841172607
-0.10761268620401239
-0.042957124339616216
0.015576475939350999
0.07343886836449921
0.13293340604807177
0.18923927663750914
0.2391487823831406
0.2757556459684323
0.29271131154621827
0.2871911618132187
0.2605027085459223
0.22120336230642243
0.17699473405410787
0.13370822901638382
0.09493547932714448
0.06159168835812164
0.03439180218856869
0.012580321785126558
-0.0036457952333287524
-0.015211938135931727
-0.022719367516191958
-0.026720554983788183
-0.0277160058587637
-0.025899027050152013
-0.022000738709651198
-0.016396577623280683
-0.009164814560676951
-0.0004303905122877346
0.009592055219688096
0.02012097947960562
0.03099939188927249
0.041546060371084124
0.05154203027897778
0.06033949404222139
0.06772653643194378
0.07345929388373185
0.0774869314936092
0.07999643555774487
0.08126984103110271
0.08150395165820727
0.08092709238444967
0.0797516959365215
0.07823639322066618
0.07646939706591697
0.07463685030006031
0.07271057660734527
0.07071084555830424
0.0684837006259197
0.06634422981073268
0.06439974718692014
0.06229236036466193
0.059519019368976404
0.055960565835966494
0.05232463193375562
0.048278294669747965
0.04459183921829207
0.04135982190624133
0.04044782233930613
0.046926734031597715
0.09229564512856196
0.0
0.15666099056097688
0.035878155728190794
0.010311263994354813
-0.0028574003772022525
-0.014309022934477215
-0.026430959928410044
-0.042126136197071604
-0.06423298998115994
-0.0990376810948224
-0.1574163167877638
-0.2683107406259824
-0.5122535433263811
-1.1545799813188695
-2.6615052244374313
-2.226363129568205
-0.9261010625880836
-0.4476139934818049
-0.2640295686400372
-0.18295337721432967
-0.14353489465695865
-0.12455949111077691
-0.11676069085801394
-0.11538437663279227
-0.1179985114595002
-0.1231324638326651
-0.1298213257750087
-0.1372271925456621
-0.14450076129103334
-0.15095411906780387
-0.15603149320860948
-0.15917567444655145
-0.16079344563403702
-0.1606663836839858
-0.15934334843839315
-0.15695701113843954
-0.1537755562633026
-0.150022461766059
