# vtk DataFile Version 2.0
00003857.nii_L_ICA_labeled
ASCII
DATASET POLYDATA
POINTS 278 float
112.23555576222837 88.08432856890892 38.57917589412758
112.11760178504784 88.11948810924486 38.305624878415415
111.99548846525605 88.14020200532211 38.03242275348675
111.86947639472517 88.14562433873539 37.76026449017683
111.73999595631943 88.13535537568771 37.48988590537568
111.6074880637305 88.10884025157002 37.222095387104574
111.47247236015914 88.06563267773262 36.95775547299834
111.33554169388593 88.0054129066584 36.69776624554601
111.19735374607426 87.92800437455342 36.443045238103274
111.05861988101081 87.83335483994244 36.19451780952227
110.92010167501203 87.72147529661106 35.95313376393855
110.78257640757397 87.59285685129866 35.71965391017761
110.64681394158592 87.4480210550181 35.49479714161869
110.5135720138654 87.28759722281771 35.27919931719074
110.38358275985117 87.11233651417966 35.073385831201534
110.25743681930003 86.92340529327022 34.8775143104466
110.13566461058075 86.72188679483885 34.691668506372615
110.01875862150789 86.50879574763984 34.51587124628823
109.90699830383485 86.2854235898566 34.349752624852904
109.80059058544003 86.05293759440104 34.19287426599129
109.69966069898746 85.81242875754994 34.04470256028285
109.60427463817203 85.56489547965123 33.904639578441035
109.51441136784265 85.31128611798525 33.771984285866345
109.42996849787879 85.05248353121691 33.645958891349395
109.35084703573204 84.78923594285446 33.52581907150822
109.27693370854583 84.52220165587539 33.41082435819509
109.2081145948909 84.25195532753695 33.30025243637112
109.14428761715928 83.97899545276258 33.193410755188964
109.08537284031827 83.70375279152603 33.089645268784395
109.03132017283433 83.42659943262836 32.988346062171445
108.98211568245526 83.14785724103535 32.888951803156104
108.93778666028615 82.86780547097015 32.79095366808993
108.89840579837382 82.58668746671904 32.69389912463227
108.86409336676185 82.30471732833514 32.59739385583008
108.83501929905118 82.02208698155854 32.50110012757658
108.81141002949362 81.73897278670017 32.404733993941775
108.79350906937381 81.45554336660031 32.30806742961326
108.7816170905236 81.17196012159238 32.21092949559638
108.77607572598573 80.88838426418604 32.11320459390221
108.77726217190835 80.60498360037106 32.01482673417916
108.78558323610584 80.3219392793882 31.915773201417718
108.80147031890009 80.03945174813285 31.816060054441238
108.82537457623101 79.75774636733959 31.71573843432203
108.85776077630621 79.47707933823408 31.614889525158247
108.89914874401084 79.19775253399644 31.513616111109357
108.95000565305857 78.92010599856135 31.412040755945334
109.01074732011716 78.6445182404502 31.310295725273804
109.0817994607504 78.37142240937261 31.208514653363835
109.16354622298496 78.1013011104423 31.10682670044328
109.25632518239581 77.83468808534728 31.005348219596446
109.36048731946599 77.57219602463547 30.904177118574253
109.47607407112046 77.31438868260679 30.803375718787585
109.60312994573029 77.06187986176305 30.702971205324893
109.74157650964705 76.81528012513519 30.602941393985123
109.89120156524326 76.57517666011941 30.50320125167481
110.05167535618229 76.34212520503694 30.403594525111586
110.22256685826875 76.11664427554925 30.303889789195782
110.40324503600768 75.89911160363083 30.203783012950158
110.59305963233606 75.68987950551005 30.102891955392792
110.79129114491778 75.48923478455671 30.000749626184604
110.99717176993701 75.29741091310964 29.89680565593002
111.20990597543684 75.11460785212998 29.7904327660756
111.42868283359546 74.94101519343045 29.68093151761762
111.65267901240485 74.77683670556347 29.567532175144002
111.88105322732089 74.62231628012817 29.449393875039707
112.11293437238085 74.47776472346649 29.32560646816454
112.34740293020988 74.34358670807319 29.195195932299583
112.58346370132544 74.22030756316443 29.057131513776046
112.82001001367202 74.10859837571275 28.91033874713333
113.05578058642479 74.0092977058281 28.75372339208024
113.28931368160278 73.92342400624133 28.58621651434632
113.51890534614577 73.85217266376075 28.406846266829163
113.74257593055083 73.79689500685836 28.21482968173357
113.95804976214819 73.75905430449271 28.009677038918696
114.1625231794159 73.74051974350763 27.79107893385332
114.35332727766612 73.74243738388815 27.559743693668793
114.527395385152 73.76622003248893 27.316740085745142
114.68202139896346 73.81255283344117 27.064045432013547
114.81475076370197 73.88170710892969 26.804227658905578
114.92396447961232 73.97309841045626 26.54035923848348
115.0084373825884 74.08585632957244 26.275675015233258
115.06815925117637 74.21824520780191 26.013339508631585
115.10328262579732 74.36860709213892 25.75628509773246
115.11471543758694 74.53492051901965 25.507018539759752
115.10364998814771 74.7151683377986 25.267599681485862
115.07092211697798 74.90767135740936 25.03998104251367
115.01795207079337 75.11051092088897 24.825529081539937
114.94586482595959 75.32200967803534 24.625494880848805
114.85567000251646 75.54057605222752 24.440995173752512
114.74825386201924 75.76467054635089 24.273084880465017
114.62443374292272 75.99275567563207 24.1227649008838
114.4851555555352 76.2232552155548 23.990782870720043
114.3312612552504 76.45460793899423 23.877916273433318
114.1636508782367 76.68523324778553 23.78482854999475
113.98331705266294 76.91355360051666 23.712041081957768
113.79137289914473 77.13803297766557 23.65989941971158
113.58899621358464 77.35717774261447 23.62870881303622
113.37769983307484 77.56976808519515 23.618133693984234
113.15901868442877 77.7748060145551 23.627727172770218
112.93455415055588 77.97160244469073 23.65678256530146
112.70591965734918 78.15981332778031 23.704373431366403
112.47468950954294 78.33945137069774 23.7694105836943
112.24235998441513 78.51087491265339 23.850706159331487
112.01032330232741 78.67475095715797 23.9470393450655
111.77985969501003 78.83200304785922 24.05721427182884
111.55214832456014 78.98375753341448 24.18010164883306
111.3282910521046 79.1312937713066 24.314661721851575
111.10934616542288 79.276004882601 24.459950158578245
110.89636531646008 79.41936826577432 24.6151070556757
110.69043056894417 79.56292412425161 24.779332410500217
110.49269131693558 79.70825977368338 24.95185190764322
110.3043987586201 79.85699458423097 25.13187394542888
110.12693240867789 80.01075773353699 25.318537714782742
109.96180729468803 80.1711502233448 25.51085102484036
109.81065312821694 80.33968717788815 25.707623351793906
109.67516827678742 80.51772737880563 25.907405753547966
109.55729002645074 80.70654237464504 26.10843885982755
109.45850685612848 80.90686852556549 26.308595793909554
109.3801419699358 81.1190904280351 26.505489836114716
109.32350325552319 81.3433455644529 26.69639045005087
109.2887906214729 81.5789891407751 26.87861033047631
109.2758706698901 81.82512809260588 27.049446324778014
109.28403342693018 82.08057672335232 27.20634228277955
109.31162549017152 82.34381093309514 27.347364469172643
109.35719083053473 82.6134954969814 27.47040093656024
109.41827261325243 82.88807549233026 27.574417768631392
109.49265838631308 83.16623831345814 27.65833568986932
109.57810350397779 83.4467747805924 27.721193134535447
109.67211718413691 83.72853015320719 27.76276123335816
109.77244441896146 84.0104748919587 27.782696194164497
109.87692031533699 84.29161318592183 27.780655921576024
109.9834166186693 84.57097030255647 27.756665770032612
110.08993743979859 84.84760011576674 27.710998823005884
110.19463476488991 85.12054860356805 27.643955845484463
110.29580976059088 85.38885793250046 27.556013020310687
110.39188759373312 85.65151613827263 27.447657611645084
110.48161137934552 85.907650675245 27.319968328796
110.56394570255135 86.15642413965801 27.174047406800838
110.63810440688482 86.39708620169408 27.011122591606167
110.7035636197587 86.6290035002507 26.832530227511334
110.76006033320371 86.8516759107205 26.639669442173638
110.80754078843145 87.06470297865809 26.433905757328407
110.84622940772455 87.26788445115358 26.216659114517064
110.87652852333841 87.46114377344773 25.98926012684526
110.89895871700732 87.64448480543682 25.75290731503328
110.91414388482585 87.8179951588392 25.508682969437075
110.92278089188557 87.9818267961541 25.2575480736031
110.92561628241717 88.13617995431649 25.00034541590857
110.92342740115011 88.28129065675273 24.73780773795079
110.91700568074803 88.41742150301553 24.470568767410427
110.9071417926856 88.54485443943267 24.199175289183213
110.8946147466676 88.66388691680133 23.92410007816638
110.88018387725148 88.7748319603975 23.645755028180183
110.86458231416096 88.87802057986086 23.364503236805675
110.84851263403415 88.97380477978803 23.08066919861131
110.83264209388925 89.06256042335312 22.794547155722515
110.81759741980157 89.14469067643924 22.506408068377226
110.80395907702496 89.22063000353984 22.216505285465477
110.7922558362924 89.29084736446521 21.925078623108664
110.78297652399782 89.35582212851426 21.63235097607151
110.77653219026577 89.41611652732404 21.338547419991254
110.7732737705517 89.47231437900633 21.043880117581953
110.77349599906121 89.52502002542006 20.74854996846982
110.77743299414055 89.57486095617446 20.452748627857872
110.7852574004799 89.62247993841942 20.156658278905137
110.79708329257944 89.66852581159094 19.86045153444697
110.81300268325585 89.71364358969255 19.564293563682018
110.83298546528914 89.75848174730372 19.268339596363237
110.85699716263777 89.80365069550096 18.972735678860737
110.88496843699767 89.84972440412774 18.677620014914794
110.91680316404093 89.89722964070518 18.383123459763134
110.95238979623736 89.94663871716129 18.089370553226832
110.99164120527233 89.99838417995743 17.796488184291686
111.03442392875064 90.05279451722484 17.50458529086586
111.08065285882273 90.11013657033546 17.21377135015598
111.13027852877184 90.17060136201704 16.92415237785175
111.18329502993882 90.23430390464105 16.635831373726926
111.23974885903606 90.30128631230941 16.34890971432608
111.299744951317 90.3715231130202 16.063489061860196
111.36345125472212 90.44492752165236 15.779674047725416
111.43110225354653 90.5213585792489 15.497576091688876
111.50300331956333 90.60063005242372 15.217319417346722
111.57954339908724 90.6825232701212 14.93905266352849
111.66114655333165 90.76677405714206 14.662937598358996
111.7483100899918 90.85310912590882 14.389176807035545
111.84158213147604 90.94124427651732 14.11801641583115
111.94155372630362 91.0308920607679 13.849756370986933
112.04884845933762 91.12176830543775 13.584760661411591
112.16410682999236 91.21359690759554 13.323465564984067
112.28796657452007 91.30611456982426 13.066385765741563
112.42103911297973 91.3990763545117 12.814117406373542
112.56388251515096 91.49226250360694 12.56733681073904
112.71704973639515 91.58548350579314 12.326844074157961
112.88087391757887 91.67858287064487 12.0934367988805
113.05555525989078 91.77144311654646 11.867946132103343
113.24116503246128 91.86398667678849 11.651229464735305
113.43760399063513 91.95617909183734 11.444121236081504
113.64470807730295 92.0480287676394 11.24751874285099
113.86193189982842 92.13959979314733 11.062024382852897
114.08865243621358 92.23100176933049 10.888177358303992
114.32414845303735 92.32238867273566 10.726404153848044
114.56764673463944 92.41395676076455 10.577052743034805
114.81828269032702 92.50594072056587 10.440293709834762
115.07511074308026 92.59860089933264 10.31605159627188
115.33724111441799 92.69222467372805 10.204221697688622
115.60380641794958 92.78711865532588 10.10460622914634
115.87397710432563 92.88360185137633 10.016938077300464
116.14697490263268 92.98200599302596 9.940930435716552
116.4220595484389 93.08266278118847 9.8762342100297
116.69853326223216 93.18588565144252 9.822415067991994
116.97575802214024 93.29198836845892 9.779077179039017
117.25314060800505 93.40127142196887 9.745819717650157
117.53012979109063 93.5140164540461 9.722241248547014
117.80621412692338 93.6304802988653 9.707941607326843
118.08092066697805 93.75088924112836 9.702522201220185
118.35381485420582 93.8754335385678 9.705585341079932
118.6245012279294 94.00426333354092 9.71673251415306
118.89262422309989 94.13748746271385 9.735561414123971
119.15785732467833 94.27519102379581 9.761689720333075
119.41993554544194 94.41739001069021 9.794676624058873
119.67864306477516 94.56406135826829 9.83406902002065
119.93381099713852 94.71515215136681 9.87940129924688
120.18532255564763 94.87058068437008 9.930179710921381
120.43311264577741 95.03024523624583 9.985878680795375
120.67716878191347 95.19403029261495 10.045934898710513
120.91753245411907 95.36181144199048 10.109740480405598
121.15429827624743 95.53346071762184 10.176639721681834
121.38760277670195 95.70886019637513 10.245933630076633
121.6176265695121 95.88789901151112 10.316871134740982
121.84461379966837 96.07044573124261 10.388646272809094
122.06882532449211 96.25639173416587 10.460420895530843
122.29054820796017 96.44562939392408 10.531318208269473
122.51008699649964 96.63804642177537 10.60043173703186
122.72775458433425 96.83351868378492 10.66683575709705
122.94385939471773 97.03190992431101 10.729584247665802
123.15870240323551 97.23305539860182 10.787722857020082
123.37257893162244 97.43672151243206 10.840383897044982
123.5857487732943 97.64264857046459 10.886731193772201
123.79844210728108 97.8505275259366 10.926007925183418
124.01085694041471 98.06000356794986 10.95753742502619
124.22315955608669 98.2706806812681 10.980698995475318
124.43548424946914 98.48210933194946 10.995154743206182
124.64793181991588 98.69383664785884 11.000631446708125
124.8605753882391 98.90540696709363 10.9969929093784
125.07346335968901 99.11637712351602 10.9842137406642
125.28662168399654 99.32632129843705 10.96230292765112
125.50004456939214 99.53487478489203 10.93149743211246
125.71369833031497 99.74171878526194 10.891994067371675
125.92751494254225 99.94659119179701 10.844006279639077
126.14138679071642 100.14928757999675 10.78773601536928
126.35516087083478 100.34965916424561 10.723350676409726
126.56863281202665 100.54760860341374 10.650965807686802
126.78153991230317 100.7430846576055 10.570631284358168
126.99355371873783 100.93607586681347 10.482321996803389
127.20427142518271 101.12660356418479 10.385931364020086
127.41320393271549 101.31470800120343 10.281253380620578
127.61977597237444 101.5004471859223 10.168020468321872
127.823320263626 101.6838829766429 10.045903464329202
128.02305907833377 101.86506522935822 9.9144981512754
128.21809280478888 102.0440245683268 9.773347895467737
128.40738696495012 102.22075888498728 9.621959741546606
128.5897620695392 102.39521719450359 9.459827750429822
128.76388561912282 102.56728288054998 9.286463223954975
128.92818874805127 102.73673765751488 9.101348957123518
129.08098390115293 102.90327575129369 8.90414030292328
129.22054137180382 103.06650072521622 8.694740762249786
129.344977913653 103.2258809077231 8.473206698955709
129.4520716624647 103.38068179728904 8.23969845792537
129.54023205260933 103.53021468268474 7.995119732184542
129.6078466637552 103.67367582191594 7.7405690030276
129.6534338669183 103.81018997987711 7.47744665339915
129.67632578006464 103.93905601188636 7.207604769022551
129.67642200336516 104.05972772839162 6.933045321452425
129.65410554150432 104.1718301575116 6.655768783093406
129.61031183494816 104.27522940177585 6.37766217684491
129.5463930269959 104.37002113929391 6.100370578735379
129.4635563228682 104.45630060064364 5.825307616576344
129.364053253461 104.534727886162 5.55342680890315
LINES 1 279
278 0 1 2 3 4 5 6 7 8 9 10 11 12 13 14 15 16 17 18 19 20 21 22 23 24 25 26 27 28 29 30 31 32 33 34 35 36 37 38 39 40 41 42 43 44 45 46 47 48 49 50 51 52 53 54 55 56 57 58 59 60 61 62 63 64 65 66 67 68 69 70 71 72 73 74 75 76 77 78 79 80 81 82 83 84 85 86 87 88 89 90 91 92 93 94 95 96 97 98 99 100 101 102 103 104 105 106 107 108 109 110 111 112 113 114 115 116 117 118 119 120 121 122 123 124 125 126 127 128 129 130 131 132 133 134 135 136 137 138 139 140 141 142 143 144 145 146 147 148 149 150 151 152 153 154 155 156 157 158 159 160 161 162 163 164 165 166 167 168 169 170 171 172 173 174 175 176 177 178 179 180 181 182 183 184 185 186 187 188 189 190 191 192 193 194 195 196 197 198 199 200 201 202 203 204 205 206 207 208 209 210 211 212 213 214 215 216 217 218 219 220 221 222 223 224 225 226 227 228 229 230 231 232 233 234 235 236 237 238 239 240 241 242 243 244 245 246 247 248 249 250 251 252 253 254 255 256 257 258 259 260 261 262 263 264 265 266 267 268 269 270 271 272 273 274 275 276 277

POINT_DATA 278
SCALARS curvature float
LOOKUP_TABLE default
0.1768013569674206
0.18180301007383542
0.1866384459015693
0.19123444798632422
0.19551322364646095
0.19938725194808649
0.20274775798803726
0.2054673318989043
0.20740328182847945
0.2083825484420113
0.20822155669602102
0.20678017836065196
0.20394281693816996
0.1996206143858638
0.19375294104120058
0.1863948331412488
0.17775257210357423
0.16807223811100266
0.15761351663281958
0.14659933977212947
0.13529001379167613
0.12400353276654731
0.11302130460068185
0.10256394489036612
0.09281992372572928
0.0839636136767682
0.07616793420746022
0.06959015703772722
0.06434560849701189
0.06052145024427026
0.05814608897986517
0.05717626542238466
0.05747947305235537
0.058842399842618014
0.061060924929550404
0.06397235840366212
0.06745218771919025
0.07139997759388632
0.07572256691583992
0.08035379696675994
0.08525655401220193
0.09040612353623342
0.09577058418516497
0.10130157838610473
0.10694113450047278
0.11261887487442789
0.11825234676495663
0.12372370501571228
0.128886595559539
0.1335903252560087
0.1376803050604632
0.14101610864964384
0.1434053799768681
0.14467774884759058
0.14479288162903275
0.14384800398468325
0.14198227182464473
0.13934432197990426
0.1361633810462
0.13285044991893957
0.12993635358018804
0.12797019581623292
0.12749797070478183
0.12906008152478693
0.1331336329892961
0.14005394327981155
0.15000721829771482
0.16302521200163123
0.17902905718141648
0.19778327932772788
0.21887028413449847
0.24176659195831737
0.2658935728324925
0.2903949322679494
0.31382698980583057
0.3343277175911028
0.35021238970454877
0.36051445783059355
0.36468311928704933
0.3627513582105284
0.3554530187176221
0.34446068265134777
0.33149259263077446
0.3180765083301965
0.30536056792898914
0.2941506475970686
0.2848671563982892
0.27767172362665754
0.27263134592139976
0.26964530274063475
0.26832640998319646
0.268032535224223
0.26810543774241524
0.26802664739579185
0.2672628158359194
0.26509877923709396
0.2607820411190967
0.2539272000714321
0.24455584074943085
0.23290122302020397
0.21930385437044367
0.2042429387015565
0.18840452642479844
0.1726103537749351
0.15775525660201825
0.14482549839664935
0.13489839385494218
0.12903155582369885
0.12805228297659887
0.13232456446763052
0.14163919065764732
0.15532591487796343
0.17238889126860854
0.19166713427831525
0.2120328569460212
0.23253838564128496
0.252142459226603
0.2696026285821547
0.28362280635243153
0.29322482816486334
0.29816063623202516
0.2986092169534911
0.2952356545156699
0.2890622476197256
0.28116970433046423
0.2726267971198717
0.2644293324385138
0.2574217815493539
0.25199101403050267
0.24808284303476766
0.24540349092681166
0.24371830981571216
0.2427222913867252
0.24188918920714422
0.2405279890023353
0.2380468406514574
0.23423357641672468
0.22900772749205892
0.22234133776992826
0.2142766235248504
0.20499157481220545
0.19478875455769123
0.183995608953289
0.17293311417526783
0.16190686243038446
0.15115697736155276
0.14085275483333817
0.1311183733537438
0.122046167315282
0.11372135200753146
0.10617866963224283
0.09939112429713111
0.09329097031544474
0.0877983852730114
0.08283856725542296
0.07831981111057779
0.07413229082555438
0.07017308254795923
0.0663791888928424
0.06271996076105849
0.059206154216202914
0.055889252688576876
0.05284988001285303
0.0501797429189758
0.04797394039165178
0.04635467585426408
0.045433061868022255
0.04523023397171801
0.045666452453422136
0.04659569073297581
0.04787787051540896
0.04936879638597448
0.05091603810455608
0.05237634148460958
0.053656254466603694
0.054737025980325156
0.05565937515670519
0.05651830255882948
0.05746438992818126
0.05869896130909798
0.06045938262147961
0.06298711976940616
0.06645647221011325
0.07095659418604702
0.07650714323704969
0.08307114402669886
0.09055597034940539
0.09878323716236781
0.10753914201210846
0.11658200980657968
0.1256465575955634
0.13445880307451735
0.14273976490706514
0.15020618066661715
0.15660534228413178
0.1617064898067756
0.16532499329625655
0.16732289398984693
0.16768167085637892
0.16655268673496604
0.16414337923551348
0.16064462462105342
0.15624343379416086
0.15119384111982956
0.14582393307219893
0.1404191466123983
0.13515685607665986
0.13015288781347578
0.12551024565498067
0.12131938683334546
0.11762477133824756
0.11440423975520646
0.11159676651107495
0.10911250865300892
0.1068427040430363
0.1046681586042267
0.10247538515076668
0.10016196302597508
0.09760695163673776
0.09468837320111075
0.09132830485493636
0.087521424645594
0.08329038612058733
0.07863056928587049
0.07354969390811718
0.06814669555544171
0.06263958308755596
0.05733760163204049
0.052650466805134806
0.049111672333033075
0.04733754049739012
0.047801326809980206
0.050588815839962484
0.055354558725086926
0.06151510375283204
0.06841642348055091
0.07544233980810135
0.08212890776604272
0.08818441823943582
0.09337413762677091
0.09747345111818245
0.10032021698953111
0.10193531655862413
0.10249305813386661
0.10218071529998649
0.1011711437933232
0.09965837827194692
0.09787931442303871
0.09609314618951094
0.09453509718695104
0.09341607064531177
0.09296155063479804
0.09338617383724628
0.09491902472012391
0.09775088587876102
0.10200112351400087
0.10774915013028163
0.1150447427520877
0.12391757381868368
0.1343449723740759
0.14623465780707423
0.1594530426870164
0.17385270453307905
0.18922369805726072
0.20525546326723937
0.2214997165706356
0.23737177631436773
0.25213125073010056
0.2649700246929044
0.27508290046603145
0.281752676209873
0.2845832392273439
0.28354611866321766
0.2789561423873146
0.27140995894942055
0.26164979100098007
0.25040599309296696
0.238382593952269
SCALARS torsion float
LOOKUP_TABLE default
-0.026356467509901275
-0.028366670090576335
-0.030481732455431242
-0.03270352465520933
-0.03502605534573303
-0.03743611116245441
-0.03992304342619258
-0.04249575084128944
-0.04509327044589488
-0.04772002108355978
-0.050416425524177765
-0.05318523618395133
-0.05613356092301857
-0.05925536351258132
-0.0627528204689385
-0.06684905982964087
-0.07168515045101698
-0.07746134222114258
-0.08442945887304013
-0.09305911397942396
-0.10414135812229558
-0.11813999359165847
-0.13566418144628467
-0.1573569400774253
-0.18359107018296322
-0.21450492715418948
-0.24868599614074477
-0.283224380098556
-0.313170437098568
-0.33158793535130465
-0.3320486052223132
-0.3113694864002396
-0.27457834754896027
-0.22933021601468023
-0.18133965782173897
-0.13392044855769009
-0.08994725044934175
-0.054286795969983426
-0.027897627049649498
-0.009017529415737236
0.004572025869746462
0.013581980636779914
0.01780452849617794
0.017812477607497382
0.014760951026844698
0.009627754546497903
0.0027130578700187424
-0.005911849097473302
-0.016037518934542295
-0.026849213729179606
-0.03806946827326328
-0.050487620646457
-0.0655087829025098
-0.08322986468636355
-0.10189648480682434
-0.12150182799539007
-0.14386339905903403
-0.1709235913553385
-0.20259365039012844
-0.23505384397499487
-0.26655255099337816
-0.29464577225567207
-0.316162020510635
-0.3272598781314669
-0.3231273502441014
-0.3046856371343204
-0.27565813086475965
-0.24094662900602673
-0.20475407761507378
-0.16922778612414363
-0.1360330782079487
-0.10704810452539718
-0.08250557339535965
-0.060953146018312296
-0.040836424237141476
-0.02164363145248017
-0.005415600292555861
0.007946592809390987
0.019126347866077666
0.028607553552544907
0.03578261832948634
0.03983018802881078
0.04092534074567939
0.039439531521674585
0.03536672959553629
0.02902666407471393
0.020463129933828168
0.011130568222115705
0.002020216286706005
-0.006488827434654556
-0.01342303225665332
-0.018689257900529214
-0.021063074803802238
-0.020143337591493605
-0.015542938534642786
-0.0066970053773854074
0.006513653574907371
0.02328036022674092
0.04429141112140007
0.07035361486762369
0.10300314043599484
0.14409058069797778
0.19400226960224734
0.25543093344225093
0.3286786268546793
0.411239163781357
0.4939556434785585
0.557672884761562
0.582670855255834
0.5616651574862817
0.5058067202566746
0.4351743856888664
0.366782147997783
0.3094086152532074
0.2659433458087681
0.23472174694069292
0.21333508233499882
0.2001623586864931
0.1942982054655361
0.19414405066876067
0.19847651267578365
0.2061110737456405
0.21619614980483953
0.22754433859848522
0.23861678565555317
0.2487516455434868
0.2563514851206616
0.2597484257794471
0.25731024473992853
0.24897078116251337
0.23648863482391375
0.2210929578172875
0.20269115994366255
0.18139482603642204
0.15797610635089773
0.13525970605134388
0.11364290761404325
0.09249259535988806
0.07140764173595432
0.049798278584780475
0.028412643310713193
0.006696321369376588
-0.015306456016169421
-0.037359456887024294
-0.05994160991139057
-0.08361713366121157
-0.10860435317861993
-0.13445634537146747
-0.16037932950917777
-0.18560032149397734
-0.20995984344617277
-0.23236403910356837
-0.2531036818130482
-0.2723221664923789
-0.2894125425646168
-0.3047385651582839
-0.31852009465016645
-0.33282344095952354
-0.3491891221114134
-0.3687283812533871
-0.39280332305819804
-0.4212582059518503
-0.4515284533854087
-0.48061325225947044
-0.5058006382317877
-0.5225206823269793
-0.5236407476044251
-0.5032052305157096
-0.46302104190985294
-0.4104263263629045
-0.35116778527673537
-0.2882578300868775
-0.2228580892828321
-0.15663236168906808
-0.09269872362721357
-0.030686989435186027
0.0291857917310832
0.08541531596621986
0.1376154191922517
0.18240997597140107
0.217135320949475
0.23664208027231262
0.23815330815618113
0.22471977837159693
0.20068305972670888
0.17057633383226534
0.13858056463411272
0.10756829232011524
0.07869877973092611
0.05230801412446964
0.028073808645043045
0.007195783833219008
-0.010489345110033771
-0.02586112293210459
-0.03937717687832341
-0.051757061031013615
-0.06316002438440722
-0.07405385403937613
-0.08452272465834137
-0.094431610742217
-0.10403779028254387
-0.11394803322036601
-0.1243840054117087
-0.13498167430898894
-0.1451853084230926
-0.15473711689488864
-0.16366376810410085
-0.17164049609979637
-0.17821439377555615
-0.18269553984935946
-0.18458989323814953
-0.18364742602600795
-0.17978457039479903
-0.17340145228770923
-0.16466941975033075
-0.15523215206076227
-0.14615376354501333
-0.13789048255443417
-0.13147580611055967
-0.127600355236482
-0.12851519328217506
-0.13566612178594592
-0.1501841649851269
-0.17407893415523842
-0.21068476836641997
-0.26231311184255746
-0.3329189935215969
-0.42526294033687684
-0.5372530266473076
-0.6535888668202404
-0.7344816019166032
-0.7427616878340226
-0.6761054182723647
-0.5697015439774458
-0.4608057594041868
-0.3684314770376824
-0.29721585156815694
-0.2454084625888294
-0.20804535542652383
-0.18053009681775195
-0.15978833981900556
-0.14414739112320535
-0.1316148895309507
-0.12031724677447786
-0.10784646371626742
-0.09266572484397217
-0.0741556650522541
-0.051851523930860795
-0.025124584236618404
0.005088400195341897
0.03820900840889147
0.07265475383756125
0.10607117118768845
0.1359950334736368
0.15741164526364324
0.16937976670491894
0.1732582438507027
0.17100842177292527
0.1640471191873533
0.15307930786606702
0.1398329507551166
0.12628994135930352
0.11341396379343502
0.10144508847778949
0.0904868568921218
0.08045324703923941
0.07149637322224073
0.06347776500166845
0.05624352734636401
0.04968122566823821
0.04369974117440697
0.03824828835883532
0.03331035029018726
0.02888311856140713
0.024965340419650373
0.021543422663736933
0.018598385402661406
0.016073338111161
