# vtk DataFile Version 2.0
00000912.nii_R_ICA_labeled
ASCII
DATASET POLYDATA
POINTS 208 float
86.19445798081588 85.47276504330004 31.651462526720326
86.38420753621048 85.36559700613715 31.445314866805564
86.58111338085938 85.2551017627833 31.247810170830174
86.78362930979452 85.14044784919115 31.058515552425437
86.99027151597222 85.02083283180559 30.876903628813086
87.19968384376888 84.89538038344989 30.702547280190124
87.41052020074788 84.76327167373836 30.53495495187033
87.6214523737052 84.62365275042478 30.37369284042714
87.83111970994504 84.47573337763676 30.218290547021905
88.03811056820241 84.31879860839935 30.06823927847325
88.24093342303091 84.15221220148686 29.922982419468326
88.43803570333054 83.97552423540732 29.781851846202187
88.62778108595525 83.7884404021522 29.64408247078359
88.80845737659328 83.59087810042642 29.508779792214252
88.9784153727564 83.38309571061612 29.374911582918223
89.13578853691939 83.1654418959864 29.241352992065035
89.27905079362766 82.93878103700592 29.10691181945698
89.406649653537 82.70412800979506 28.970425105606665
89.5170541698394 82.46270640925295 28.830796748247675
89.60930681333089 82.21605998278108 28.687196320683118
89.6826584172694 81.96577488719258 28.539067044763907
89.7367098749219 81.71344579488257 28.386178021848924
89.77153277916494 81.46056964953223 28.228671095184396
89.78781363637867 81.20839194595915 28.067082182442068
89.78649086967849 80.9578128799674 27.902210157471238
89.76876611370015 80.7093558398807 27.735077688638572
89.73627100089521 80.46312004076394 27.56686786668223
89.69039156269407 80.21890919002266 27.39881291830345
89.63282439427127 79.97621257337984 27.23215923609954
89.56489028178984 79.73437435273283 27.068176307401586
89.4880477419894 79.49262338574437 26.90803869946204
89.40335557223052 79.25016959778928 26.753002772671362
89.31194962416266 79.00629386019509 26.604133813722168
89.21461124123039 78.76036080714904 26.462592955229336
89.1120697648605 78.5119482852035 26.32929939261773
89.00477745205679 78.26081132105378 26.205169258322645
88.89306246682025 78.00698339333198 26.090800360041914
88.77699469817837 77.75070729113297 25.986687483499093
88.65652506409319 77.49249093358745 25.89287748871718
88.5313409479841 77.23300291192793 25.809305551078165
88.40109439876886 76.97308574478865 25.735352846131992
88.26519114343925 76.71367251148376 25.670344940951615
88.12309087924899 76.45575092313648 25.613114045184062
87.97409674843244 76.20036757824396 25.562399308597055
87.81758679675687 75.94856757631595 25.516649776139992
87.65295805971554 75.70141125428191 25.474196724132053
87.47967777235233 75.459982479061 25.433259891445665
87.29743206929723 75.22530724947612 25.39200180704552
87.10595238837395 74.99851688678966 25.348556677589826
86.90538597914544 74.78055004201123 25.301152265832876
86.69588735869687 74.57255079149243 25.247977716123685
86.47814062194215 74.37529933930182 25.187510276756324
86.25286744718957 74.18977006918622 25.11818029850051
86.02123526381307 74.01650600355406 25.03880952016176
85.7844906660105 73.85616458308544 24.94817467357621
85.54418573511383 73.70891033857092 24.845506412428477
85.30192422919657 73.5750945543609 24.729866411500527
85.05947247335686 73.45453982450456 24.60082376667569
84.81865961524936 73.34729073764059 24.45773708128903
84.58137698434597 73.2531433110825 24.30026323229198
84.34958469556747 73.17195234173552 24.128090869337417
84.12541025735845 73.10374745544868 23.94086485402535
83.91093070837073 73.0484147309067 23.738644938232504
83.70859303597162 73.00631137622882 23.52130242396608
83.52059561049799 72.97759881884741 23.289401055916567
83.3496019651836 72.9630313499272 23.04345750784154
83.19777870639182 72.96318821855257 22.784844814588503
83.06740559069685 72.97908254157439 22.515257726447025
82.96040568969755 73.01186467359483 22.237055515628892
82.87800396837548 73.0626430187401 21.95325262499091
82.82093402775982 73.13264331233438 21.667330945217792
82.78921394087916 73.22301512653036 21.383196544308042
82.78210621161153 73.33471326245343 21.105029713616055
82.7981245523436 73.46834543368577 20.837095841576886
82.83509755618061 73.62400427241778 20.58350917489664
82.89029966291335 73.80111848118943 20.347949101299985
82.96063471124197 73.998383557562 20.13335566931257
83.04286951944565 74.21381633682788 19.941662043342195
83.13390400364234 74.44496963169573 19.773695728452793
83.23096155494657 74.68916304132969 19.629157238916342
83.33172442849562 74.94372509496142 19.506694018355518
83.43443305563714 75.20629509594391 19.40435745537553
83.53783584586031 75.47493026744633 19.319992827643375
83.64110765153946 75.74793624529504 19.250821891549904
83.7437668067425 76.02411082036312 19.19445774431715
83.84558794450143 76.3024836657075 19.14826750153872
83.94649684729714 76.58238007475668 19.109909739232073
84.04649541931605 76.86332381614693 19.07721436981268
84.14562155718725 77.14497180567614 19.048099019299375
84.24387324607054 77.42710212688941 19.020732379448848
84.34117927833047 77.70956753346374 18.993443380778974
84.43739003275445 77.99226968618764 18.96476437168781
84.53222066519034 78.27515301250743 18.933410552948498
84.6252916839221 78.55818667076468 18.89836905426795
84.71609590485593 78.84136170771166 18.85882279813539
84.80407474153832 79.12467858152844 18.81423519496161
84.88860457257 79.40814010226723 18.76423093272465
84.96913994917142 79.69173587050781 18.70870344363844
85.04511225769058 79.97543360127624 18.647553754367937
85.11618992689019 80.25916272611165 18.580913721641572
85.18208644056737 80.54281150070287 18.508829169874474
85.2427249690373 80.82621940191228 18.431382322014056
85.29820480477709 81.10917638263913 18.348601615900705
85.34873461324881 81.39141324091328 18.260371891369957
85.39475574597813 81.67262831401763 18.16658659164929
85.43670450004933 81.9524452496437 18.066895569642323
85.47520934176474 82.23048750061798 17.96104109983066
85.51083462837637 82.50629010077643 17.848530202964795
85.54422101894973 82.77940778124446 17.72900428215007
85.57592592662921 83.04930045786763 17.601935673268486
85.6064908124892 83.31546969201916 17.466981716179163
85.63635634388643 83.57732266523999 17.323687968585013
85.66588290578179 83.83434151565689 17.17183073141405
85.69531142011725 84.08594109078776 17.011138165300643
85.72476352018927 84.33165020203477 16.841581599838026
85.75423335527904 84.5709879796736 16.663147892138362
85.78358881426186 84.80360824966743 16.476023625714706
85.81257814691183 85.02923209309745 16.28046477750067
85.84084127667751 85.24770068932172 16.076840847653287
85.86793343910216 85.45899235058936 15.865623915196592
85.89333268900273 85.66315171753213 15.64730042517092
85.91649247869233 85.86040352073493 15.42247275541891
85.93681038928014 86.05097713430658 15.191687865074794
85.95373953074382 86.23529501195291 14.955607707627172
85.96669795897746 86.4137191565144 14.714794512293906
85.9752547627919 86.5867837361012 14.469906581989454
85.97895330310995 86.75491358597279 14.221483930043433
85.97757380430623 86.91867297966998 13.970134438485745
85.97086069139063 87.07849026743317 13.716344336632003
85.95883812029018 87.23490043958046 13.460634046056706
85.94148108660097 87.38831155353925 13.203416924721887
85.91901603647204 87.53919103462725 12.945099339275739
85.891620170288 87.68790814987211 12.686004004837422
85.85964669241831 87.83485157075752 12.426420904368296
85.82338012908276 87.98033677216233 12.166580177753959
85.78318423583082 88.12467349316738 11.906676611261712
85.73932001298866 88.26811617048301 11.646870902067988
85.69203942064556 88.41089894009026 11.387300833337271
85.64145613994954 88.55321223302573 11.128095672469852
85.58761250463996 88.69521927027391 10.869379828310747
85.53039131844515 88.83704658695771 10.611291335183079
85.46956883834261 88.97878852068203 10.353981124187875
85.40474474827664 89.12050165472894 10.097634524332701
85.33540309945225 89.26220431008453 9.842468087347662
85.26087488992269 89.40387462223919 9.588751328581985
85.18041057094227 89.54545064228884 9.336803161137457
85.09318334752923 89.68683325899079 9.087008388607341
84.99834879322381 89.82789379925804 8.839820215318355
84.89511175782404 89.96848733105543 8.59575488557361
84.78270713648394 90.10846416544736 8.355416812972585
84.66056711443434 90.24769917349998 8.119440464818604
84.52815795764093 90.38610147252149 7.888571275918795
84.38528312453029 90.52366297318385 7.663514287726961
84.23173284305308 90.66045486138799 7.445119400973769
84.06771675675935 90.79667518865276 7.23410221299987
83.89334602468726 90.93262859498176 7.031379701619778
83.70916501860407 91.06874170976104 6.837639899374839
83.51554629312919 91.20555274372015 6.653850535191597
83.31326435391922 91.34365906946648 6.480668766030515
83.10292729841798 91.48374963628198 6.319065832555873
82.885451683403 91.62648308600532 6.1696907987864975
82.66167692211233 91.77255610231653 6.033425884555242
82.43264123402471 91.92255370063037 5.910859113389652
82.19939422196835 92.07698974588311 5.802580205947802
81.96304808703327 92.23623481368772 5.708986359803608
81.72473659905795 92.40044515287613 5.6301076959141625
81.48552296937729 92.5696983474667 5.565995398497256
81.2463932945975 92.74377147046718 5.516028447631386
81.00817354690903 92.92239952410527 5.479600773389084
80.77150562868458 93.10516750628848 5.455727921523497
80.53682204985851 93.29159800578164 5.443242187214752
80.30436841374043 93.48120547125247 5.440918289150034
80.07417187744288 93.67346069709679 5.447317819506241
79.84614301583888 93.86790241226602 5.461128279206193
79.62003490392017 94.06406722902288 5.480915803515358
79.39556224164373 94.26157633091339 5.50542003174385
79.17237364741693 94.46008169067908 5.53337677826565
78.95013413591442 94.6593077022519 5.563679062034917
78.72851786499582 94.85902278009458 5.595302122460598
78.50724522165096 95.05904975623505 5.627358571849912
78.28608537519935 95.25925346013871 5.659088042866394
78.06486671929204 95.45953982269003 5.689870342420711
77.84347758954758 95.65984980249581 5.719239377086055
77.62185901312233 95.86015281762296 5.746872808552128
77.3999964769843 96.0604390162603 5.772604549675214
77.17790392229449 96.26071069457335 5.796391706201623
76.9556128329654 96.46097260880566 5.8183363224367985
76.73315169441815 96.6612204533511 5.838625274150399
76.5105379805385 96.86143138594248 5.85756181306554
76.28775999044083 97.0615527116349 5.875488395434964
76.06477476758596 97.26149589615457 5.892817267995643
75.84148858689943 97.4611181899229 5.909969401637764
75.61776784574928 97.66023160055282 5.927370687522514
75.39341661351251 97.85857561356106 5.945426107801278
75.16820464638131 98.05584754625103 5.964479115452672
74.94184299267798 98.25166890072911 5.984822446501566
74.7140248232204 98.44563212224978 6.006647425299203
74.48440475141999 98.63726946463414 6.030070159638877
74.25263649972018 98.826095502486 6.055103910719421
74.01836951736273 99.01159728139925 6.081677597179767
73.7812552864535 99.19323560148788 6.109640839944587
73.54098645990531 99.37049216552717 6.138763071112309
73.29724217041047 99.5427853024671 6.1687676184715725
73.04979745409817 99.7096188052677 6.199322585473672
72.79838343558738 99.87036765004525 6.230079465289027
72.54288307145251 100.02456946838404 6.260671464231725
72.28311025951133 100.1715690108586 6.29072046416171
72.019069782437 100.310946525646 6.31986693811356
LINES 1 209
208 0 1 2 3 4 5 6 7 8 9 10 11 12 13 14 15 16 17 18 19 20 21 22 23 24 25 26 27 28 29 30 31 32 33 34 35 36 37 38 39 40 41 42 43 44 45 46 47 48 49 50 51 52 53 54 55 56 57 58 59 60 61 62 63 64 65 66 67 68 69 70 71 72 73 74 75 76 77 78 79 80 81 82 83 84 85 86 87 88 89 90 91 92 93 94 95 96 97 98 99 100 101 102 103 104 105 106 107 108 109 110 111 112 113 114 115 116 117 118 119 120 121 122 123 124 125 126 127 128 129 130 131 132 133 134 135 136 137 138 139 140 141 142 143 144 145 146 147 148 149 150 151 152 153 154 155 156 157 158 159 160 161 162 163 164 165 166 167 168 169 170 171 172 173 174 175 176 177 178 179 180 181 182 183 184 185 186 187 188 189 190 191 192 193 194 195 196 197 198 199 200 201 202 203 204 205 206 207

POINT_DATA 208
SCALARS curvature float
LOOKUP_TABLE default
0.14556203131866954
0.1316280021314667
0.12045522700084921
0.11246689429926685
0.10793457384497834
0.10690756908529435
0.10909454231567539
0.11392308961835414
0.12071107220241183
0.12884465542102524
0.13784205985826503
0.14736691641662972
0.15721676197471599
0.16727711243251236
0.1775350068841421
0.1879132726030589
0.1981384040924638
0.20762580961927643
0.21546404657243545
0.2206530059812659
0.2223902221113076
0.21995297780378723
0.21287291199872332
0.201441599267008
0.18645954720271266
0.1691715655765406
0.15108219202181344
0.1338773207345335
0.11923889138231866
0.10876822099028816
0.1034022415648524
0.10319087035235858
0.10689220982394732
0.11270388171097796
0.11880953983204269
0.12381169069160353
0.12682459302231372
0.12740577559482893
0.12560045146026685
0.12188356586669562
0.11715117368243577
0.11243430766847316
0.10894202626325096
0.10797379429629335
0.1103909989126894
0.11637997281241334
0.12542412875418008
0.1365402102921364
0.1486900441717153
0.1609441197295812
0.1725166389061247
0.18282010231936352
0.1914404090067856
0.1982684054799406
0.20349671117795337
0.2075992704157272
0.21122394240938153
0.21512803549476417
0.22006431175900992
0.22670306511367977
0.23552289898566764
0.24666154693283734
0.25992777674054757
0.2749133970286712
0.2908918465736355
0.3069517964504707
0.3221388564800758
0.3356487978049008
0.347029591299949
0.3562484127736525
0.36354049288718726
0.3691519866801887
0.3729805818230723
0.3744518766634267
0.3724960878395191
0.3657220364739912
0.35292989482663745
0.33371991372780335
0.30869900859277194
0.27948073643740845
0.24766221353854978
0.21452396906729002
0.18135826807439331
0.14916215403918887
0.11863893297797588
0.09025409290055104
0.06444055122745716
0.04183279559817586
0.024264563097105712
0.01875455708333224
0.02751759498386481
0.03943848365069193
0.05033205550000503
0.05945397276135016
0.06679300969025302
0.07255439050063643
0.07694817102978807
0.08016386673499488
0.08229257230587336
0.08344274420194293
0.08368069194304925
0.08313968982885044
0.08214210133770891
0.08118930264113391
0.08084229759546929
0.08164140629252835
0.08388596714642921
0.0876153062729751
0.09254394551834026
0.09824323985183359
0.10420212913076218
0.10990591941360768
0.11488109657650439
0.1187611388475718
0.12129760801516833
0.1223587917615591
0.12193292291930326
0.12011612743102336
0.11712223843088113
0.11325406033902538
0.1087827453225935
0.10396623326828328
0.09909502111232425
0.0943964314800871
0.08998732957701659
0.08585761492298817
0.08190256517464063
0.07796195908695631
0.07389455786359342
0.06959192277076674
0.06498767191511462
0.06012480943723412
0.05512541009202784
0.05021156253984262
0.04565720881105108
0.04175426268788021
0.038805400762932554
0.03707956711728236
0.036776422466666535
0.03800473560514834
0.04089086727717408
0.04551954306975571
0.05183481771381608
0.0596887759530543
0.06882085031965542
0.07887816084698038
0.08940071331329595
0.09992990098903762
0.11002767894459797
0.1192960257377025
0.1274087141520707
0.13414445020250246
0.13945037810356348
0.14347305345575362
0.14652902278354016
0.14902566545895157
0.15141609987638094
0.1540978271343796
0.15732457220643767
0.161166065165323
0.16539356971377636
0.1695519679602495
0.17302811276264876
0.1751199229841084
0.17516437692614129
0.17266060512270362
0.1672756664263774
0.1590892998021787
0.1483890423461375
0.1355509673481762
0.12101172869020983
0.10534688198903053
0.08914609141240512
0.07296213874044155
0.057276846894020315
0.04251997625051769
0.029026353882527892
0.01717001442882611
0.007822403556467235
0.006370955626377624
0.011820357410998596
0.01671783952619306
0.020060672618572313
0.021784463319872566
0.021994599159052698
0.020841164778864274
0.0185222483872558
0.015266144565479213
0.011377144111699936
0.007371498423193401
0.005191589221600167
0.007942921493732352
0.013119315944049914
0.018946312755392932
0.024983697454787145
0.031077664704158514
0.03717553070947996
0.043259560907626164
0.049344351039556734
0.05544449811944635
0.0615801820972273
0.0677637637113422
0.07401308727994182
0.08031650823328008
0.08664376857068193
0.09293443359417153
0.09910848974700989
0.105077490707595
SCALARS torsion float
LOOKUP_TABLE default
0.34167241009480265
0.4026959299243009
0.4653663134986858
0.5192736635743997
0.552060383442837
0.5556244398754135
0.5330899670395914
0.4965546953988396
0.45844832763990734
0.42670733618123546
0.403690359165459
0.3895986033050047
0.3807184180054369
0.37444826309169843
0.36371397881327017
0.34607884279835277
0.31892736912547626
0.28259530143276634
0.23807036261344594
0.19136115819379912
0.14284277845340373
0.09046095987357093
0.03347116796305365
-0.028073462655568385
-0.09711889437207102
-0.17800717543353256
-0.27405153933763104
-0.3866077528813452
-0.5045641964491199
-0.5978040904798979
-0.6265925144544073
-0.5692298057374958
-0.45020111938950147
-0.3131125488158285
-0.18434481383480042
-0.0707655960849972
0.032332445320901786
0.12872805888055355
0.22530752414676847
0.32372117495617925
0.42656528500371205
0.5342448850411863
0.6308776830268344
0.6881100164470357
0.6899660393406736
0.6409465244122261
0.5629910440681861
0.4802820282255949
0.4080605323946852
0.3504459029649538
0.30800166235562426
0.2784821536470853
0.26004777862004375
0.25004076717377305
0.246198944024099
0.24544515185028823
0.24541945693651296
0.24195985664994082
0.2332926731099537
0.21778801420795682
0.1949859511454991
0.16467164973154857
0.12835273862957378
0.0868519136332762
0.042222932725372586
-0.005044676416362491
-0.052926067179362435
-0.10155670725468355
-0.1476616176948622
-0.1905525046063558
-0.22769079032816744
-0.2559351667628562
-0.27242331616045506
-0.2741570331853752
-0.2619359655526207
-0.24007512098266207
-0.21248221635312559
-0.18212615072073682
-0.15504429797582897
-0.13137998583620644
-0.10985362868596249
-0.09097718653442709
-0.07682973961180219
-0.0686169584168221
-0.07030917311613341
-0.09196228473663089
-0.16387320872394784
-0.39167106236809907
-1.1727606558756787
-1.8364787927514667
-0.6999696179083074
-0.201190297629842
-0.0023042485858332153
0.09730290428879877
0.15321845127864156
0.17961708219524927
0.18005527327432708
0.15561346065299447
0.11487184513918948
0.059200559359160056
-0.011267888086656947
-0.09393617702736412
-0.17991101763167547
-0.26094399139417
-0.32482923022823246
-0.3590396302225639
-0.3586016093896758
-0.3284995616943565
-0.2799659248970159
-0.2251234157079976
-0.17045560025403336
-0.11898247623780106
-0.07201385648315183
-0.02959999121700652
0.009526619177347586
0.04705265142756562
0.08348970358192943
0.11999706811704294
0.15580340846116184
0.19136735232733268
0.22734844196335896
0.26181248996210266
0.2899782674971897
0.3095600297856757
0.3180532701711932
0.31520654550560234
0.30115513240874847
0.28246214478024184
0.2610786452571905
0.23960156728416507
0.2195708349238703
0.20355501837841883
0.19339552519942552
0.19076720577214246
0.19509249900714432
0.20376371230326396
0.21123435888804434
0.20915369972252845
0.1901136290970076
0.15431671931803134
0.1077086617602819
0.062314480749760155
0.0272822754520473
0.005322528027978847
-0.0054649669366660545
-0.006328590159152573
-0.0004889692955331678
0.010069852243669311
0.02424989451067011
0.04222988556350376
0.06399101962389728
0.08999052666200191
0.11890787247066653
0.14996381722381608
0.18081800674833268
0.20995268916463944
0.2332864499384006
0.24901906567412385
0.25560727579737125
0.252966239907633
0.2422826997775475
0.2252607080444347
0.20362698139296592
0.18054994629100712
0.1574561327569391
0.13564579504819138
0.11536226783972268
0.09829608836659426
0.08334097522776651
0.06931729048021926
0.05667057843028888
0.045931604006280845
0.038200036488967054
0.035350246316602774
0.04098464616229201
0.06544897689519164
0.13724725605796553
0.390026055817893
1.746533017113527
2.204128294725597
0.45556652635698275
0.12616018928587636
0.024483838699979887
-0.017223545839094936
-0.032836597213404144
-0.02394201242976454
0.01897365254186096
0.12786794213080427
0.42708803383981997
1.4499606178908047
0.0
1.3815922311196482
0.34341546984767557
0.012769233337728808
-0.12375282636842339
-0.19175481156871318
-0.22413634110784567
-0.23845304590916364
-0.24132926378479697
-0.23650516078386344
-0.225777739972848
-0.20953199534097208
-0.188845316385588
-0.16701755425656717
-0.1453469055122132
-0.1258957292936663
-0.10888505406185717
-0.0945863383868834
