# vtk DataFile Version 2.0
00002926.nii_R_ICA_labeled
ASCII
DATASET POLYDATA
POINTS 214 float
74.22349219320796 72.44928035220893 34.60675864742197
74.30245084324874 72.50787865885188 34.32340802286985
74.40271315149525 72.56539738529831 34.0466450388135
74.52268992437746 72.62052082074791 33.77733346981099
74.66089500854302 72.67198033766736 33.51614982427979
74.81598347071919 72.71851651300639 33.26366102155188
74.9866482136148 72.7588837941155 33.02032277052926
75.17158813972989 72.7918688820197 32.78648842954065
75.3696345165679 72.81620588587498 32.56253504713744
75.57967579284855 72.83054299965517 32.34888339810815
75.80055023620189 72.8334647415324 32.14596932532768
76.03092019164474 72.82362827545319 31.95413930531718
76.26942636341927 72.79953306011328 31.773866622838323
76.51450349415188 72.75968616295233 31.60560940096921
76.7643116106795 72.70286891025715 31.449640545400513
77.01686485094923 72.62768066303869 31.306394443660814
77.26990563538615 72.53342764786248 31.175858738267756
77.52105733469944 72.41939232008077 31.058084353149514
77.76792024686925 72.28562165069062 30.95265752598402
78.0082110150858 72.1325564467384 30.858929726886686
78.23983763550909 71.96101563634707 30.775991659995647
78.46123543032925 71.77249504835802 30.70248405535001
78.67103895199526 71.56838056836291 30.63702453505441
78.86861707977836 71.35058721121906 30.57787693483102
79.05342034656472 71.12068595431963 30.523404589270225
79.22552447573933 70.88047416125252 30.471864964527647
79.38488816266403 70.63134725090369 30.421665608269123
79.53192448980894 70.37478144259671 30.371295969185397
79.66692784650351 70.11197362444452 30.319422008643233
79.79019569726131 69.84399025460617 30.264871383157196
79.90216226922438 69.5718355806762 30.20671858336376
80.00306729460665 69.29633808823795 30.144216560955826
80.09314285794318 69.01824378961628 30.076856239308842
80.17265956911906 68.73821683589046 30.004400913809633
80.241707371923 68.45680577283832 29.92675706982561
80.30038187628637 68.17449202261695 29.84402367165408
80.34881404381689 67.89169476314346 29.756451394248593
80.38698439905339 67.60878377722713 29.664289936646817
80.4148865998803 67.32611722807478 29.56779940278626
80.43256142459735 67.04406104457895 29.46719553617375
80.43992129798188 66.76302857020492 29.362525169016287
80.43682419900347 66.48351656288146 29.253657582713284
80.42321568204825 66.20610562926616 29.14031931185608
80.3989124111544 65.93151660156518 29.02201013265598
80.3635686257765 65.66068079614496 28.897979019054
80.3170353866003 65.39464644630328 28.767433635571376
80.25902477054461 65.13471889714224 28.629406486782987
80.18911449761232 64.88256275780603 28.482762544132594
80.10722177078432 64.63991548997754 28.32660679215387
80.01314115512376 64.40892703949584 28.16000527382679
79.90691580863452 64.19189253199438 27.982329539941443
79.7888443348799 63.99117029231283 27.793332163491506
79.6593861928006 63.80926480362119 27.593092571716326
79.51941860297742 63.64829534784904 27.382289191867162
79.3699272224827 63.51040443510121 27.16189019544116
79.21225679648221 63.397009040410275 26.933380149264412
79.04776726717218 63.30953764603972 26.69837640108854
78.87804507105027 63.248509265916496 26.458781993801356
78.70460505540835 63.2147759170823 26.216466983446832
78.529094720399 63.208177255723044 25.97338714909589
78.35312872178983 63.22898381070754 25.73143964875636
78.17838236122073 63.2769180021755 25.49248247770755
78.00657297943346 63.351645973168175 25.258320004538287
77.83954032832875 63.45294983487238 25.030787228360307
77.67909599058311 63.57992013452335 24.81154150164514
77.52728597538909 63.73206069293331 24.60240562686782
77.38594376088336 63.90791553512971 24.404853460449075
77.25710951797087 64.10628571382072 24.220518329164488
77.1423558835114 64.32504777632674 24.050504954387517
77.04335951218269 64.5622512383957 23.89601906277478
76.96095948788061 64.81512924582003 23.75746547553403
76.89593124692902 65.08115768444611 23.63523544833007
76.84816451170329 65.35750125804903 23.52894224410348
76.81731695096681 65.64164955729288 23.43804682692026
76.8023280946311 65.93124377922261 23.361415474614972
76.80201470291867 66.22438273916615 23.29785873041517
76.8146286805282 66.51951030262205 23.24572665151433
76.83849418269975 66.81553087333296 23.203462291783524
76.87171857335258 67.11170703709766 23.169329301842033
76.9123973306021 67.40762681218894 23.141576818389705
76.9587073692568 67.70312591074294 23.1185019099855
77.00890328968114 67.99821252237419 23.0984244325907
77.06128909800124 68.29300563685081 23.07964806349111
77.11430024371941 68.58766379924197 23.060510422048026
77.16649870703989 68.88232799224858 23.039358151077906
77.21657321667995 69.17707182454109 23.014533560294105
77.2633159383958 69.47185649157367 22.98432438903478
77.30569111567011 69.76648882685777 22.947060447430733
77.34281655230008 70.06059123315326 22.901076635986815
77.3739586116683 70.35357337144059 22.844708141603018
77.39848799060104 70.64458510460057 22.776210331460927
77.41608703565498 70.93257237808491 22.694173152216703
77.42650666639847 71.2161967055287 22.59711321634956
77.42969423284383 71.49388186431027 22.483764772133277
77.42581402358311 71.76389269683095 22.353221934040747
77.41510791000705 72.02423934778012 22.20468506940402
77.39805491650407 72.27296735371058 22.0379600806536
77.37520009158982 72.50803521923305 21.85310244055811
77.34722076588886 72.7275626613472 21.650682569319763
77.31489027538781 72.93002582932276 21.431790948824876
77.27896933211944 73.11400424950281 21.197669716123336
77.24030112674927 73.27894319492916 20.950174959236765
77.19963088604638 73.42430443910348 20.690995680815995
77.15769682167665 73.550530208413 20.4221631850474
77.11512501782225 73.65800753496946 20.145389224829497
77.07247141128231 73.74795032674962 19.86243474527481
77.0301990138582 73.82142077819628 19.574697938693284
76.98868821685708 73.87989653284424 19.283427082069608
76.94824379711355 73.92488723693964 18.98961526565807
76.90911914659777 73.95780747776485 18.694023783050806
76.87150555347311 73.98013756677771 18.39724463070821
76.83553638744783 73.99331763771043 18.099711744504436
76.80130091905889 73.99865347594469 17.801727396331728
76.76884554404452 73.99732580411836 17.503496761700813
76.73814213455768 73.99047628184405 17.205154734421935
76.70909384837975 73.97913830790367 16.906782497531932
76.68153416446658 73.96422446603555 16.60842527747629
76.6552208653065 73.94652807977214 16.310106865513674
76.62978938135949 73.92680435683437 16.011838666778544
76.60479167498941 73.90568630350516 15.71362895382205
76.57967507147313 73.8837236980044 15.415490136034482
76.5537973887736 73.86141675859194 15.117442094850976
76.52643969900913 73.83919648360947 14.819520109961827
76.49680836169247 73.81745610532667 14.521780827652877
76.46412124681791 73.79654540853625 14.224302824944427
76.42752888371231 73.77680892578057 13.92720062841423
76.38627481948456 73.75855733123724 13.63061591969694
76.33962352028664 73.7421026838271 13.334727983349755
76.28689109133155 73.72776069362965 13.039754153813577
76.22757363924268 73.71581097524765 12.745927824846124
76.16112826173404 73.70657934076128 12.453533663860274
76.08726305400226 73.70032857338886 12.162847133883014
76.00570857804449 73.69733992055369 11.874172015297951
75.91623041571525 73.69790762324372 11.587839679553914
75.81879065563344 73.7022549252325 11.304151623120996
75.7132820538868 73.71064632028585 11.023456825772714
75.59963316737577 73.72333381805356 10.746122235428667
75.47786370722633 73.74051514718113 10.472502176977862
75.34790109238412 73.76242766261721 10.203020873920988
75.20965778824711 73.78930696196979 9.938150768666256
75.06314103385681 73.82131659326666 9.678348515076266
74.9082742712717 73.85865792876311 9.424162698639241
74.74496696738142 73.90153475867653 9.176211279652714
74.57328950226469 73.95004055127487 8.935046245090346
74.3932485790627 74.00431194797223 8.701324485609607
74.20492382377266 74.06444475730943 8.475707613763728
74.0085720230207 74.13042062544532 8.258733487054299
73.80439841045512 74.20227634382044 8.051045742639701
73.59281883629156 74.27991191019085 7.853079190858427
73.37430114068574 74.36320475193807 7.665204995180909
73.14933059189907 74.45204067242844 7.487775401675046
72.9185763448136 74.5461605520676 7.32080416726808
72.68262686523354 74.64538658725917 7.164379996683231
72.44217991363678 74.74943701799083 7.0182765694466624
72.19790564402204 74.85804649223874 6.882177223229875
71.95043019817487 74.97099424570398 6.7557294402091115
71.70041111745996 75.08799084245065 6.638282486328781
71.44841957444633 75.20884215661819 6.5292495134628235
71.19500112570054 75.33336346337154 6.427920075649705
70.94066068564842 75.46138306435984 6.3334895262748105
70.68584565077643 75.59281559183482 6.245222997759542
70.43096722147534 75.72758183937763 6.162325913474404
70.17638815630431 75.8656249747815 6.084024780892907
69.92243224936293 76.00694880491237 6.009647979336633
69.66937571411844 76.15153998267964 5.938556624090209
69.41744112112883 76.29937265493476 5.870198218791855
69.1668138143641 76.45044461817776 5.804154421335339
68.91761309624276 76.60469723405666 5.740093646900813
68.66989405143926 76.76202798433943 5.677795403521936
68.42367161353458 76.92233421001117 5.61717119466373
68.17888057007846 77.08542786689878 5.5582071903236
67.93540494450187 77.25108668015434 5.500972104789069
67.69310097566262 77.4190880467013 5.4456232230121
67.45176205953881 77.58912551926765 5.392312769451887
67.21117323854885 77.76090132480313 5.341230694921498
66.9711085218916 77.93410715126811 5.292568690226018
66.73133686864941 78.10840883576878 5.246440494818849
66.49164752315077 78.2834989734815 5.2029453801408545
66.25184977009903 78.459074045719 5.16208187859803
66.0117840049906 78.63485473512027 5.1237537630073176
65.77131485275464 78.81058928773999 5.087816284828159
65.53034691131724 78.98605742902929 5.053978260144043
65.28880778422788 79.16107113917654 5.021903611964178
65.04664910342251 79.33547180022981 4.991188815865729
64.80385601765677 79.50914377427105 4.961365401751184
64.56042591943255 79.68199219571325 4.9319526321344425
64.31638430955317 79.85396072777958 4.902450005211672
64.07178010112554 80.02502706097468 4.872367828353715
63.82667719021391 80.1951858359073 4.841217793840329
63.58117309395328 80.3644792587908 4.808550729221603
63.33538636565111 80.53297428098912 4.773940542311442
63.08946049358703 80.70075757508104 4.73694547813771
62.843569892262984 80.8679604299472 4.697193481614721
62.5979141638006 81.03472823592095 4.654289133462228
62.35272869835003 81.20122556103689 4.607797398645196
62.10826862401047 81.36763502558232 4.557343879167216
61.86482442774851 81.5341397684983 4.502488229617119
61.622725279332315 81.70092132269303 4.442743192208753
61.38230526581478 81.86814027386525 4.3776817380387625
61.14394795384382 82.0359369665343 4.306784574807739
60.90806280002607 82.2044174786572 4.229531324831659
60.67505794944055 82.3736390847544 4.145462559489249
60.44541811324006 82.54362416430513 4.054004966924283
60.219603847442386 82.71433220551077 3.9547101157790316
59.99810817191091 82.88567374791123 3.8471290118524557
59.781502575704536 83.05751262809578 3.7307490735245814
59.57027270666218 83.22965335126052 3.605293040221176
59.36501861465616 83.40186197107103 3.470372030040515
59.16629754329992 83.57386082659922 3.325755646092187
58.97463721214673 83.74534221642637 3.171329740434165
58.79066705250698 83.91595937711318 3.006918919607406
58.61486335331181 84.08535788903924 2.832613985540472
58.44770313592474 84.2531699267714 2.648545626397003
58.2896292580878 84.4190218653627 2.45492025504601
LINES 1 215
214 0 1 2 3 4 5 6 7 8 9 10 11 12 13 14 15 16 17 18 19 20 21 22 23 24 25 26 27 28 29 30 31 32 33 34 35 36 37 38 39 40 41 42 43 44 45 46 47 48 49 50 51 52 53 54 55 56 57 58 59 60 61 62 63 64 65 66 67 68 69 70 71 72 73 74 75 76 77 78 79 80 81 82 83 84 85 86 87 88 89 90 91 92 93 94 95 96 97 98 99 100 101 102 103 104 105 106 107 108 109 110 111 112 113 114 115 116 117 118 119 120 121 122 123 124 125 126 127 128 129 130 131 132 133 134 135 136 137 138 139 140 141 142 143 144 145 146 147 148 149 150 151 152 153 154 155 156 157 158 159 160 161 162 163 164 165 166 167 168 169 170 171 172 173 174 175 176 177 178 179 180 181 182 183 184 185 186 187 188 189 190 191 192 193 194 195 196 197 198 199 200 201 202 203 204 205 206 207 208 209 210 211 212 213

POINT_DATA 214
SCALARS curvature float
LOOKUP_TABLE default
0.26087850484249525
0.24809778921640913
0.2362284230157747
0.2258902120494049
0.21754129978797473
0.2114892388358607
0.20790829334973718
0.20682340619835432
0.20817251442874615
0.21179519310554173
0.21742535138981742
0.2246503566245415
0.23296728409476505
0.24172636899793434
0.2501634816735238
0.2573808380489836
0.2623888094940482
0.26418898048441164
0.2621621766290612
0.2560698393500178
0.24616199919717394
0.23319552202165342
0.2182062196177777
0.20243463749661858
0.18706353833017147
0.17310816926489206
0.16131650365852215
0.15200374101190356
0.14514561349864316
0.1403682540764491
0.13707458801692907
0.134652276248953
0.13258298759176482
0.13055855741805789
0.12849329176114382
0.12648515210363684
0.12474315265040946
0.12352732906567221
0.12309449724140804
0.12370825732575375
0.12566234120232406
0.12933717026666167
0.1350717337862495
0.14321772855361123
0.15407245155018115
0.16769024288189247
0.1837880774644044
0.2018254055070558
0.22093224666950934
0.24009339209002667
0.2581690282911981
0.27411330446914933
0.2870540599930713
0.2965615485281357
0.3025770534058899
0.305566793098248
0.3062648062614987
0.3056719165616268
0.30466086404763976
0.30391154091737727
0.3039775159769007
0.3051859895384222
0.30758338869376817
0.3109326323136671
0.3147264988905369
0.3182161887886825
0.32058124721525044
0.3208780122167972
0.31825130666662266
0.3119272935842727
0.3015806609828854
0.2871026143862963
0.2687854266930685
0.2470697763542108
0.22257812058619975
0.1960512956828796
0.1682530577228701
0.13983076828594976
0.11131740722676305
0.08313393016685759
0.0556165288269138
0.02920925285100319
0.008542332031201092
0.02446534054024084
0.0479933542787168
0.07109409985858497
0.09344580311924112
0.11500144434730844
0.13574395709014292
0.15565243347279953
0.17468137332118794
0.19276276365655645
0.2097626485460061
0.2254544187659875
0.23950527033480598
0.251452346858495
0.2607957156299337
0.26697169923351327
0.26946577238069414
0.268059283610092
0.2627644113500438
0.25379036919769804
0.24143084384449298
0.22641529928611218
0.2094809434567351
0.19141469356989388
0.17288234915369388
0.154476135587503
0.13664243642063917
0.1197278382627468
0.10396374137368558
0.08949652256879172
0.07636362361682003
0.06453945468127903
0.05388859087489047
0.04423158260973897
0.03536598299539338
0.02714817972827309
0.019663875040331243
0.013918564804008438
0.013036421904302325
0.018240395480185554
0.02646248869105821
0.03577218017934136
0.04537936788365663
0.05484222415801432
0.06382817811925633
0.07210666262462609
0.07951460848695824
0.08596934694081497
0.09143073492766234
0.09597842270330566
0.09974623581072992
0.1029447747090068
0.105816592208195
0.10860684060407942
0.11153283258765621
0.11475940239149325
0.11837753485661703
0.12239960966496076
0.1267477269848611
0.1312800186644467
0.13581914127428968
0.1401575807318777
0.1440475732581636
0.14722724759047773
0.14948186009753497
0.15060912574000818
0.15047761526704448
0.1490012147696789
0.14614427434800453
0.1419509245983782
0.1364897128859757
0.12989631125143578
0.12233614163174727
0.11401603914519935
0.10518380407821855
0.0960957011316686
0.08702798947330109
0.07828124509914543
0.07017206551526821
0.06300898769052699
0.057031877554504756
0.05236202815530958
0.048927891363325586
0.04646771865397919
0.04461881791944958
0.04300808664551283
0.041364626862687034
0.039560199465582896
0.03762612198424579
0.035700790999723356
0.03397510988529352
0.032612985143561805
0.03167525381617214
0.031063293923745256
0.03054291319604574
0.029823121072181682
0.02864441666230244
0.02684378408719332
0.024371527213713516
0.02133785539967053
0.01800005462237848
0.014831116670692503
0.012582351916408214
0.012135573910276616
0.013703460440680538
0.01658847858470909
0.020065676382901285
0.023757059110965963
0.027540465086185923
0.03144822158086848
0.03557266871848252
0.0400311176269525
0.04492106257695504
0.050293319657348845
0.05614847390592811
0.062446873505107865
0.06910513566369526
0.07603010984696483
0.08312461294185715
0.09029090799581752
0.09743572316060274
0.10447074755190061
0.1113212530044365
0.11791619108655486
0.12420005323860121
0.13011328454978527
0.1356003897350489
0.14060111364425895
0.14504363215273727
0.14885974665598745
0.15198419265744587
0.15436121998233
SCALARS torsion float
LOOKUP_TABLE default
0.1484313870264208
0.16469927438415258
0.18107662765253063
0.19697092143948103
0.21164193978023382
0.22436407765929017
0.23448143956153591
0.24181603246611996
0.2461588718176088
0.24801999978922526
0.24730595978294287
0.24495416888613306
0.24081490410525896
0.23584479726848642
0.23042581641471152
0.22530835430344
0.22113631979800472
0.21913510781394493
0.2201331832535802
0.22542032602787737
0.2359033604939447
0.25198231785653735
0.27360902113738483
0.2992502757294004
0.32601763061858596
0.3483778475971383
0.3605416527734438
0.35694532215871394
0.33440918666279057
0.2927997645993337
0.23791618417547764
0.1744592877939766
0.11213736942767008
0.05469249870406518
0.008714117963080612
-0.023022499680022825
-0.03575948431828032
-0.02836605818429009
-0.0016775896990342946
0.04026517507395685
0.09085096567282287
0.14004458531903186
0.17900304258468758
0.2038780134290594
0.2139532307039145
0.20840266187339515
0.19173579629325194
0.1686566530563936
0.1434400476065833
0.11867509550339411
0.09564767227261985
0.07536969793492594
0.057958661821129215
0.04377569502162504
0.03293942901403973
0.02553786679393698
0.021503034921108173
0.020634857662145727
0.022810318799403904
0.0278010936787483
0.03497213362269218
0.043802345617588806
0.053015142176020595
0.06200017997137371
0.06974294271419021
0.07579146836701775
0.07964678199810714
0.0812417208153949
0.08057575286182136
0.07805884578519146
0.07380957583143277
0.06856559866824813
0.062391541155715956
0.05558363408893852
0.04872183335741557
0.042760840959661636
0.03891409250151501
0.03924154256863019
0.04899232780647789
0.0820838449149215
0.19287833330485704
0.7636852837070487
9.040690969835177
1.0147599463276773
0.18099991460352485
0.019441143893310267
-0.042378253992832626
-0.07605273680547052
-0.09673081976633971
-0.11055967146121698
-0.11867775494065598
-0.12272186990783783
-0.12307415432435981
-0.12049709301264304
-0.11545371871279513
-0.1087091216665843
-0.10064843681121938
-0.09213997236564431
-0.0836119551401613
-0.07615612371171732
-0.0696899959649524
-0.06430926422523253
-0.06051465193272794
-0.05868126153452488
-0.05907696853691824
-0.0619229489173213
-0.06738753111167436
-0.07571686410153596
-0.08673747656065643
-0.10039198619043375
-0.11558790251552489
-0.130848174806127
-0.14357430105824442
-0.1495471048489546
-0.1432183458853321
-0.11370857369721078
-0.0405817332373911
0.11833642462238131
0.4701450506687109
1.192395094655599
1.4206057671270849
0.6687880453864953
0.26602023113715517
0.11654894336482614
0.0602279871321409
0.04008977671998256
0.035516295175198886
0.03682515479337313
0.040927480559406725
0.045826045407416416
0.05051474567030297
0.054157929298909835
0.05616428508187525
0.05609749054836818
0.05388815137450913
0.04948522494945458
0.043421836427391704
0.036065048286309166
0.028457110855601524
0.02108855817985825
0.01482772207279613
0.009887763021994426
0.006592545213961447
0.004814013132270667
0.004475095659941203
0.005484913960426909
0.007799540713285468
0.011121577698197868
0.015352962332181575
0.0202419396434295
0.025875365856576918
0.032413756225698157
0.04031478995186973
0.05043650145517244
0.06362015905072388
0.08101737862582935
0.10377401235539964
0.13329933247481585
0.17065125040218612
0.2161941094729984
0.2672925555252309
0.3176865681682559
0.35620038020369293
0.3687434203783884
0.3461001715113663
0.28686876182844595
0.2016370695566004
0.09950820400150269
-0.00873418383713897
-0.11996709263126243
-0.22719899646444572
-0.32784458833230795
-0.4141950349496816
-0.4730191688228991
-0.49356880862655705
-0.48083747751814687
-0.44753355677715684
-0.4129095589954229
-0.3895914530498705
-0.39115143399943586
-0.4296516801072869
-0.5248419011433645
-0.7107259916985719
-1.025915217698821
-1.4073492812164692
-1.5032619300251842
-1.1840813258198601
-0.8252463495670141
-0.5936796202072512
-0.4594665274797867
-0.3810019255167364
-0.3309790186894058
-0.29256052896202517
-0.2580643257836501
-0.22297501398839212
-0.18743168910761082
-0.15213050801858255
-0.11907264443867008
-0.08971854154549201
-0.06458475684060079
-0.04368571582807671
-0.026886876275752238
-0.013785477697705337
-0.004256545781161231
0.0022266647558350306
0.006171171125642046
0.008152164132257108
0.008826551365892938
0.008613650417634573
0.008074866749716875
0.007379760013593637
0.006720433011547197
0.0061087154528345075
0.00555411025249647
