# vtk DataFile Version 2.0
00003466.nii_R_ICA_labeled
ASCII
DATASET POLYDATA
POINTS 246 float
82.91414906158452 71.96245963138934 34.55960058949282
83.09701529373987 71.79630637648641 34.38954652800073
83.26409845774047 71.61630477118871 34.21737643357684
83.41398968906965 71.4228872038521 34.04394686756595
83.5451460479071 71.21656184676729 33.87022028103294
83.65674234581905 70.99843620419239 33.697239161563985
83.7479381510332 70.76965084864253 33.526075204251114
83.81897638325799 70.53185260239505 33.357664506769325
83.87030597572989 70.28660659149345 33.192798468459415
83.90281631740723 70.0354616084667 33.03205909066223
83.91761071987753 69.77983167449176 32.87582951433222
83.91621328994032 69.5210138654485 32.72421165675333
83.90018851832313 69.2600819878142 32.577111992846135
83.87109012570934 68.9979078560433 32.434272293361055
83.83035787081316 68.73518700484956 32.29532056857258
83.77948079321418 68.472472654873 32.159733087933745
83.71987234060137 68.21018386132853 32.02689877157066
83.65274460070032 67.94864636720122 31.896179237544843
83.57925396628887 67.68811463750194 31.766876535311507
83.50052350863017 67.42877367593017 31.638262381552188
83.41749054616496 67.17079160506202 31.509618148922396
83.3310585901531 66.91430315039447 31.380226941683983
83.24205969567525 66.65941417385946 31.24942227123854
83.15120655808393 66.40624513765266 31.116568130196253
83.05915704347447 66.15489565316925 30.98110881257707
82.96648181323205 65.90544347745401 30.84260389769714
82.8736522383935 65.65797157762681 30.700692227725348
82.78105252610696 65.4125615649053 30.55509812489733
82.68896103905357 65.16923918072203 30.405727379881977
82.59755649733356 64.92803500628708 30.25254764214281
82.50692788595158 64.68898053752754 30.095583318368256
82.41707127254423 64.45209014163314 29.934937364792614
82.32790231678133 64.2173720439943 29.770758352017705
82.23928441577016 63.98487465034623 29.60315641306763
82.15104279736101 63.75471112849566 29.4321689221789
82.06297739616811 63.5269964678793 29.257844793497668
81.97489933724297 63.301960308180035 29.08008304530354
81.88663909414164 63.079934613505486 28.898664819648868
81.79807343771047 62.86128291256517 28.7133409746471
81.70912394650937 62.64658447173948 28.52363276387691
81.61978970975491 62.43641299490526 28.329100384661853
81.53013590344473 62.231570301429876 28.12911061339103
81.44031694306928 62.03291914471274 27.923046100386276
81.35057468000245 61.84148715171182 27.710230556031156
81.26125091256895 61.65847029190251 27.489972935719305
81.17278066530972 61.48510534328547 27.26171381726786
81.08573276217344 61.32299583713643 27.024809546425605
81.00074444196098 61.17355435266488 26.779004378004206
80.9186230834235 61.0386680658137 26.523987896333555
80.84024270699179 60.92005611335545 26.259881228635475
80.7665649578173 60.819477439581995 25.987089933823224
80.698687753396 60.73887461587252 25.706285142726482
80.63773541503262 60.67997699023526 25.418598262968924
80.5848056412821 60.64422052294969 25.125579646147276
80.54101197404864 60.6329152252375 24.8291186468903
80.50740688213712 60.64705647012779 24.531456747996206
80.48493890317252 60.68726879633574 24.23513114423532
80.47443899195407 60.75382131496242 23.94291639162307
80.476526345516 60.84647487690522 23.65772205095323
80.49160062192409 60.96453787781014 23.38248669209176
80.5198539221742 61.10694379659605 23.120112772434485
80.56122745262837 61.272218723797515 22.873356307141584
80.61540452346334 61.45852220934238 22.644725171797752
80.68181743937937 61.66370879540903 22.436384597242427
80.7596705217423 61.885408416287774 22.25007894538044
80.84797765479405 62.12112054778525 22.08707816224648
80.94562019217912 62.36832382248588 21.948181637855328
81.05143789115556 62.624600396073085 21.833880038463253
81.16411889384547 62.887548290716005 21.743864505937797
81.28243588689361 63.15505833065906 21.677632968426835
81.40523587556311 63.425275218742165 21.634532699417495
81.5314175936694 63.69657111891253 21.613680223187913
81.65993132051683 63.967581963464504 21.613746134612246
81.78986725306972 64.23717551100889 21.63383241258925
81.92035684547889 64.50446214938614 21.672565513843633
82.05062059287889 64.76873561629107 21.728822940608854
82.17992574706768 65.02946000489362 21.801481825300932
82.30759841390751 65.28629289651461 21.889322554670095
82.43296271597494 65.53896965008546 21.991399384692887
82.5554179072954 65.78744868073936 22.106493782149915
82.67428185796811 66.03168881593206 22.233787283201487
82.78900042871145 66.27190746470383 22.37206902375994
82.89885564936522 66.50828076062572 22.520555505386245
83.00329832042208 66.74123285200292 22.678081803045018
83.1016565119203 66.97119982260325 22.84370722019668
83.19329989169059 67.1987498762463 23.016374393405982
83.27768917943867 67.4245548193008 23.194932110515083
83.35416757104228 67.64933705800985 23.378281126672622
83.42225751872972 67.873911433189 23.565157210345216
83.48153133369352 68.09912046618966 23.754260124317167
83.5315537904522 68.325835900098 23.94423401538663
83.57199728977758 68.55493119435918 24.13362967487579
83.60272669828232 68.78720593935218 24.320962424414063
83.62363495026818 69.0233960244603 24.504715890238217
83.63465763737585 69.26415599093383 24.683321953769212
83.63587526746338 69.5099778312059 24.85523669047971
83.62749853098893 69.76115087801124 25.019016753938047
83.60974407391676 70.01780542667734 25.17326997428281
83.5827918476197 70.2799259296722 25.3166087392854
83.54695663144392 70.5472345824094 25.447905368173206
83.50255216447584 70.81927711736488 25.566213152332114
83.4497680331488 71.095497946314 25.670574711525386
83.38882459559237 71.37516435514516 25.760274924220596
83.31996587595998 71.65741490490753 25.83488554341187
83.2431769380922 71.94134660689461 25.89370216470043
83.15864042742014 72.22592104660598 25.936624508187354
83.06628679610256 72.51005884263208 25.963227972915977
82.96610630373766 72.79260210336612 25.973355709181106
82.85802549295514 73.07232469896172 25.966819979135433
82.74192044897013 73.34789089699603 25.943380070891976
82.61776289036297 73.61792770133941 25.902999621243627
82.48538687517082 73.88081620701882 25.845305125988776
82.34490101101386 74.13500771399455 25.770404220439143
82.19624525623978 74.3785233242594 25.677892437894204
82.03969601191318 74.60947514742813 25.56787622143938
81.87561574605564 74.82574598614583 25.440395036079263
81.70451675145519 75.02492002275653 25.29548622153841
81.52723837307636 75.20460865417868 25.133558879738743
81.34491506505489 75.36246948706346 24.955327659553344
81.15896618759815 75.49620903721903 24.761783674490022
80.97110837796431 75.60383630751254 24.55431161731392
80.78328835311599 75.6838535383565 24.334679676102255
80.59756907900525 75.73542557763385 24.104969159153026
80.4159841658662 75.75849116084248 23.867447117758367
80.24038731969631 75.75378436640085 23.624400849115357
80.0723268760989 75.72276140064652 23.3779675845894
79.91296969964966 75.66744777169487 23.129992407691685
79.76309268838786 75.5902251923936 22.88193937057773
79.62317683837038 75.49354968622588 22.634873580583953
79.49324324161672 75.38019550609486 22.38944049231775
79.37314482846323 75.25269419061722 22.14593233700588
79.26269137011448 75.11329587128864 21.90437393796574
79.16143167629913 74.96428549740044 21.664523393586634
79.06890624010127 74.8076844705947 21.42597589866102
78.98475597531245 74.64526766557273 21.18821200342263
78.90840440913797 74.47878959820748 20.95062099665084
78.83959257420656 74.30971421332843 20.712558804590262
78.77780410516677 74.13947401307274 20.473401911588304
78.72278904098337 73.9693098496803 20.232542249908285
78.6742111862134 73.80034625980662 19.98946380938458
78.63175988997116 73.63353614468771 19.743764898770834
78.59526031618317 73.4697363057165 19.49510273138383
78.56433866411237 73.30952743991425 19.243364659285103
78.53868926336037 73.15333721665664 18.98852713784809
78.51799841753979 73.00143970970569 18.73066112033292
78.50178784239661 72.85382801674125 18.470000140790752
78.48953923241285 72.71034071255991 18.206830607103846
78.48066337869246 72.57067711623822 17.941476012498676
78.47450483548145 72.43445387385711 17.6742611845162
78.47027221628387 72.3011527260191 17.405538535761654
78.46714346900202 72.17028701364596 17.13560558417623
78.46423725923897 72.04141364251383 16.864712851446182
78.46061285162426 71.91415731955932 16.593065391582474
78.45531988767705 71.78823701436275 16.32082381833552
78.44739507234057 71.66351802430198 16.048094258551796
78.43582836951562 71.54002247832545 15.774939594457244
78.41972761442355 71.417893619306 15.501401979259906
78.39819414898574 71.29743957655442 15.227497090933953
78.3703067055824 71.17913584783435 14.953230566775606
78.3353749888337 71.06352881462158 14.678623629987896
78.29266468496658 70.95131710834781 14.403709976473891
78.24149495673667 70.84332020049344 14.128555813391673
78.18142680995486 70.74035309020458 13.853275286655597
78.11193494217964 70.64338231539354 13.578037067078633
78.03263612662616 70.55338731432548 13.303084591194384
77.94331223284487 70.47128974804806 13.028738669157821
77.84364598254479 70.39814191633715 12.755427253360207
77.73348685503306 70.33489504827925 12.483682690032856
77.61280295831891 70.28238431157172 12.214134518041691
77.48151121541927 70.24148402296981 11.947550513768563
77.33960320861186 70.2129706890733 11.684826324686972
77.18728480281726 70.197313542551 11.426899781543238
77.02474821318877 70.19491834058023 11.174812431852024
76.85220325701303 70.20609462739253 10.929710234670655
76.67004460096261 70.23080932741672 10.692693000042675
76.47874959161028 70.26879472662087 10.464806859308604
76.27881835787005 70.31962317184968 10.247058791342146
76.0707548453681 70.38273362219843 10.04042234177387
75.8551576387473 70.4572928870985 9.84566447570919
75.63266184651191 70.54229060578747 9.663336554605943
75.40386142106627 70.6366763649483 9.49387550981922
75.16928795549362 70.7394072700492 9.337672840091862
74.92954186916 70.8492849437982 9.194749961697216
74.68517438628172 70.96516332015096 9.064992501997352
74.4366670105649 71.08599226562913 8.948255756674035
74.18449354006762 71.2107575257763 8.844205125641418
73.92913333733233 71.33850310022409 8.752236155246157
73.67098345515093 71.46842805631498 8.671821163295483
73.4104302696148 71.59981969687911 8.60226487627672
73.14784927326376 71.73207733476261 8.542677539831116
72.88354356445743 71.86473627869152 8.492305137361313
72.61781866621065 71.99743894998475 8.450178040327899
72.35094456448259 72.12994844060246 8.415315979759443
72.08314359527968 72.26212488862751 8.386872138349885
71.81464535602991 72.39393488004588 8.363794376603472
71.54564006982949 72.52542173965173 8.345194877349652
71.2763067037132 72.65670188230953 8.330222536906572
71.00681919760352 72.78795422687254 8.318024784955794
70.7373414502547 72.9194027631236 8.307887470225907
70.46803823939868 73.05130945944714 8.299154874708837
70.19906985617125 73.1839503034087 8.29126192550414
69.93060178320957 73.31762283228349 8.28375198685898
69.6627974885406 73.45262047604714 8.276251661121496
69.39580963975807 73.58921008910687 8.26847908988859
69.12979280410445 73.72765320836866 8.260226974093865
68.8648941637558 73.86818542714342 8.251348207770393
68.60122653992195 74.01096732892745 8.241755496952589
68.3388914158886 74.15612954279149 8.231387295548982
68.07798557542428 74.3037839435036 8.220181871217019
67.81853864242971 74.45391833182116 8.208093663908626
67.56056855025464 74.60649732254521 8.195043965195977
67.30407844395235 74.76145593218594 8.180904956893563
67.04901707985744 74.9186379391129 8.165517695707893
66.79531198806417 75.07785208461108 8.148669120743193
66.54288693853378 75.23889505938583 8.130066132078934
66.29163357102139 75.40150783766403 8.109376213398129
66.04143619625586 75.5654118356917 8.086226374044037
65.79219742209064 75.73033383582268 8.060153584393726
65.54381537230982 75.89597596917731 8.030695669861585
65.29621028418676 76.06204787187531 7.9973745101708875
65.049345907073 76.22827138843053 7.959614589578656
64.80320872366316 76.39437859840726 7.916925145758737
64.55783545522311 76.5601294747089 7.868802960681395
64.31333162514171 76.72529888624268 7.814640919255192
64.06983502435159 76.88970946668786 7.754024779702075
63.82755225928324 77.05321199294059 7.686486706419216
63.58677523686033 77.21567532681127 7.611474607441835
63.34781331183038 77.37703237460751 7.52868075882405
63.11105546925115 77.53723125488882 7.437711119916651
62.87698600063325 77.69623329729112 7.338099475431128
62.64607428641484 77.85405308796582 7.229636967062062
62.418872857825555 78.01070327988829 7.112029948639948
62.196053780311715 78.16618839438074 6.984882913850825
61.978219144820976 78.32054529877779 6.848095844608618
61.76606266628649 78.47378914070342 6.701487262587327
61.56038724368692 78.62591146375128 6.544822642741482
61.361936613527064 78.7769016296255 6.37807466162769
61.17147266906164 78.92672418590807 6.201266276996721
60.98984803523341 79.07530586503655 6.014397024714478
60.81790335457361 79.22254748555322 5.817578749509419
60.65633662942445 79.36833995699855 5.611127897030479
60.505960172486844 79.51252898122954 5.395309481280675
60.36750496158955 79.65494290749872 5.170524669613662
60.241435541703886 79.79542595636082 4.9373915423082995
60.128519106726685 79.93375150511163 4.696361035100081
60.0288493999283 80.0697866763811 4.44828791783494
LINES 1 247
246 0 1 2 3 4 5 6 7 8 9 10 11 12 13 14 15 16 17 18 19 20 21 22 23 24 25 26 27 28 29 30 31 32 33 34 35 36 37 38 39 40 41 42 43 44 45 46 47 48 49 50 51 52 53 54 55 56 57 58 59 60 61 62 63 64 65 66 67 68 69 70 71 72 73 74 75 76 77 78 79 80 81 82 83 84 85 86 87 88 89 90 91 92 93 94 95 96 97 98 99 100 101 102 103 104 105 106 107 108 109 110 111 112 113 114 115 116 117 118 119 120 121 122 123 124 125 126 127 128 129 130 131 132 133 134 135 136 137 138 139 140 141 142 143 144 145 146 147 148 149 150 151 152 153 154 155 156 157 158 159 160 161 162 163 164 165 166 167 168 169 170 171 172 173 174 175 176 177 178 179 180 181 182 183 184 185 186 187 188 189 190 191 192 193 194 195 196 197 198 199 200 201 202 203 204 205 206 207 208 209 210 211 212 213 214 215 216 217 218 219 220 221 222 223 224 225 226 227 228 229 230 231 232 233 234 235 236 237 238 239 240 241 242 243 244 245

POINT_DATA 246
SCALARS curvature float
LOOKUP_TABLE default
0.25160395772585004
0.25918866205779434
0.2643168566727838
0.26638958270908536
0.2649167673658969
0.2597491669951542
0.2509638130195682
0.2390333397267193
0.22457153453022222
0.2082711782058536
0.19080870096263558
0.17277503171304473
0.15465138246720989
0.13679778772380013
0.11949880859298039
0.10297989655558723
0.08745078349994394
0.0731730132800019
0.060502800171435604
0.04993678744153043
0.04217864079734874
0.03787291943165301
0.0370191027279236
0.0387276611896635
0.041633712639602936
0.044643843332635984
0.04707372780992888
0.04862691263934192
0.04927080321308067
0.04916264303381187
0.04857631731278709
0.047871116351825
0.04742895526652649
0.04759507448353332
0.04868396970934589
0.05091273148802527
0.05446115979661369
0.05951379468531218
0.06616185105836792
0.07454435009639067
0.08463955157524679
0.09644373991365511
0.10983757238777483
0.12467161867458447
0.1407673486338486
0.15790110153676773
0.1758238326927835
0.19419811394878123
0.21267763642988538
0.2308942375017327
0.24846287402503242
0.26503154520211225
0.2802709391236878
0.293977843035842
0.30599044368263395
0.31623745584063545
0.3246712878380108
0.33137452521275385
0.3364089838677675
0.3396937860514362
0.34103681580504214
0.34031952936694443
0.3374269981830144
0.33231647712518875
0.3250100220175499
0.31567857787253156
0.3045959585319775
0.2921199593148732
0.2786701593524099
0.2646615815512949
0.2505007330523471
0.23652215128674475
0.2229919719259478
0.21009840835645818
0.1979245963573681
0.1864988784864875
0.175818814287817
0.16585841241747795
0.1565527079113064
0.14782540152953025
0.1396191179205608
0.13189492367237513
0.12468148212680218
0.11804907870434006
0.1121780019817423
0.10734084749069153
0.10387572206056427
0.10217193181036942
0.10252941900503026
0.10510161141337811
0.10983561375468837
0.11647448238537643
0.12457363486277767
0.13363041643811996
0.14311761760922778
0.15253576561332172
0.16145778696678872
0.16954291922401732
0.1765447790532108
0.18237083817819574
0.18707752402768502
0.1907928650522394
0.19371818111359537
0.19613624320272297
0.19837769971073274
0.2008011532039788
0.20374872678980108
0.20752858684682354
0.21239695993429641
0.21855024119973385
0.2261110912436445
0.23515433150086476
0.2456243967347965
0.25739319121452764
0.2701926248185633
0.2837097172919097
0.29743631044147506
0.3105788479871607
0.32212961361731574
0.33104665008188544
0.3362594090611914
0.3369019410175385
0.3324106131568718
0.32271686470879085
0.30819600732660507
0.2896705781591653
0.2681609904027892
0.24478785107972847
0.22056821626468828
0.19639626428107332
0.17298384290369742
0.15093973879657913
0.1307962666348588
0.11311527298499216
0.09859588457264057
0.08780597899754448
0.08118178759430361
0.07842211540553443
0.07862143083446384
0.08040021941903469
0.08240669652689325
0.08353682897233103
0.08309936057570676
0.08072241567872786
0.07627946248793481
0.069894564918449
0.06186151184870914
0.05262661614321164
0.042794618485557094
0.033281170522541495
0.025643983827071844
0.022579731163199387
0.025892361703736478
0.03354965362720968
0.0431101994369881
0.05334806635623806
0.06375849472786368
0.07414328645433196
0.08441050387002466
0.09452918843612733
0.10448455067300881
0.11428650850363233
0.12394741071817024
0.13347672344729425
0.14287885917391913
0.15212637971897292
0.16115442790185355
0.16985690480055238
0.1780886131199437
0.18566103420176658
0.19234540245491832
0.19791893897291185
0.20222859696971962
0.20513858492629078
0.2065304422091169
0.2063192501268111
0.20454502318795154
0.20131702585858227
0.19680899613150157
0.1912203687931395
0.18474279178314695
0.177547546504554
0.16977308063394458
0.16151584121098755
0.15282487133329448
0.14373481193669296
0.13426358332246777
0.12443270230935655
0.11426828689958603
0.1038112776935264
0.09310646640165934
0.08225555615276592
0.07139335327183227
0.06067750636862488
0.05028793259825277
0.040428451642521526
0.03136467577943702
0.02345866644019532
0.017359559322364916
0.014156525742294812
0.01446051672329339
0.017163444763958716
0.020671340461242953
0.02414535796372208
0.02723316263057525
0.029772759853203656
0.031705988500271426
0.03300867323430195
0.033683296098186426
0.03378613086774124
0.03341735693998061
0.03274865210880161
0.03204620396916893
0.03165822631162629
0.031984063633544814
0.03335165147485601
0.035914617940300486
0.03963637887052114
0.04431460394925674
0.049680596846166276
0.055475469565721386
0.061470751412004254
0.06748977874581939
0.07341349896524688
0.07917406940604671
0.08474880425583876
0.09015181613916697
0.09542439226904649
0.10062277465812469
0.10580670452025163
0.11103336094434538
0.11634204606464497
0.12175061422395059
0.1272530102680397
0.13282490546778172
0.13841899733488852
0.14397037860940967
0.14939839527133295
0.15461040610710458
0.15950433618949822
0.1639766120116994
0.16791816275961602
0.17122336062474103
0.173809035169572
0.17558843450977174
0.176534161338173
SCALARS torsion float
LOOKUP_TABLE default
-0.004261204413456584
-0.0049565939536544675
-0.0057451279816561176
-0.00652069424572431
-0.007191791555214281
-0.0074782757806492045
-0.007029636201767682
-0.005457514105839965
-0.002211962186427822
0.0031893346209696236
0.011433731172078496
0.023333172272061324
0.03983513536185653
0.06278299166117515
0.09435200152866785
0.1391479396573785
0.2035692524602955
0.29849996191824524
0.43591627752068673
0.6219685011496107
0.8269938498385792
0.9479890423533914
0.8935827829625882
0.7133169571339818
0.5204865900558034
0.36480001312905597
0.24789431376251667
0.15912576235183873
0.08625747105451614
0.022490062608270613
-0.03671523013632835
-0.09102215350198117
-0.13643764692337154
-0.16376168243113778
-0.16680953768467127
-0.1457759180943647
-0.10650314812426324
-0.060213522200843465
-0.016140068739706907
0.018960796371811042
0.04328153471593593
0.05799623970883956
0.06473626924786435
0.06673700399698744
0.06568697492399936
0.0632647789873842
0.06009416306127885
0.056825461999179046
0.05366161401628503
0.05072419774725273
0.04811882573564386
0.04583630216808981
0.04379648862367197
0.041866939543823416
0.03988387840664552
0.03764027376839796
0.03508054191586433
0.03212679350222202
0.028664240833971708
0.02461124480392213
0.020040893144242886
0.015130700345422817
0.009959873821785781
0.004822103687000571
-0.000267718559694538
-0.005095807529193567
-0.009758045564852416
-0.014321863956069388
-0.01894342743575176
-0.023906427766350297
-0.029390072857284944
-0.0357888397625067
-0.04333491948182223
-0.0525771262720743
-0.06395383283734817
-0.07791841672464811
-0.09498534592422149
-0.11564491964882229
-0.14062101041005481
-0.17053238829922837
-0.2059585933483434
-0.24757199549588277
-0.2955349695435701
-0.34979411706664115
-0.40864156863437906
-0.46847788173637056
-0.5228132563001848
-0.5628588401287042
-0.5800853776110029
-0.5703951467326988
-0.5366768406771355
-0.48600842593168936
-0.4277395345741062
-0.3680048609799332
-0.31119048174975456
-0.2587842617689437
-0.21111200767179128
-0.16792516951345926
-0.1285387440990468
-0.09366909606549996
-0.062356226382149715
-0.03412112626226211
-0.008256844851464005
0.014589478182273114
0.03406080333836577
0.049998216969784466
0.061809851404570966
0.0696866891975752
0.07345765862619295
0.07352310283716532
0.07045069973439391
0.06466465447714195
0.057009183983410885
0.047874680067057265
0.03826334729585202
0.028593655924512646
0.01890715779109101
0.009193600994295592
-0.0003190942394767647
-0.00933957843843952
-0.017999052073551833
-0.026363115535245042
-0.03473329989374547
-0.04345333740618286
-0.05304288078685699
-0.0641706168113876
-0.07770840697382662
-0.09480432928415491
-0.11707525831147354
-0.14653443745300043
-0.18609955165411893
-0.23941330525896115
-0.3105720141916498
-0.40063924098217696
-0.5031464704882179
-0.5966696520584591
-0.6439436267602248
-0.622347257663557
-0.5418031566909681
-0.436993912803746
-0.33673388586277525
-0.25234471306013795
-0.18895394927108988
-0.14349953152819162
-0.11622466061260188
-0.10816473627213975
-0.12711567588392275
-0.1903208739582125
-0.33566317550545083
-0.644433502922844
-1.1906945589466325
-1.5699661297354401
-1.11956389536891
-0.5526778743766682
-0.22492950658653035
-0.052932851915177145
0.04126995363045324
0.09285887014273109
0.12156275083323363
0.1366706963214202
0.14317482288719274
0.14220304784103346
0.1360437506146577
0.12550457312771804
0.11156585667774116
0.09531075854218932
0.07720408406599669
0.05838844164301467
0.03920604056467156
0.020213185528460766
0.0016530683247435757
-0.016121139213366595
-0.03252142122936535
-0.04806845476128345
-0.06314974394357398
-0.07789713814685194
-0.09144132959729422
-0.10389845887516537
-0.11487302895048097
-0.12429785858542253
-0.13171584512324971
-0.13679836480645044
-0.13946690836859207
-0.13936794397073252
-0.13701944733816407
-0.1322453310941841
-0.1258513763435792
-0.11812876078326395
-0.10876727043337425
-0.09732775781357679
-0.08306749567848201
-0.06587131389563604
-0.04310988389402186
-0.010876636048444438
0.038934714289390035
0.12136274061064563
0.2689209432813768
0.5419710522569251
1.0069675347637999
1.41995797921161
1.1840511383406236
0.6736245817390475
0.33799484244114647
0.15763364237325386
0.06582625154185838
0.023935785430234714
0.01522562510764904
0.03066131518308826
0.06527266453982246
0.11895507312549344
0.18919486546249834
0.27717729899251725
0.37359041372959545
0.46508687529131965
0.52367164268061
0.5286033963803828
0.4805605478237485
0.39999080832138384
0.3111618883621047
0.22867013157632224
0.15862529993423014
0.10143926328450362
0.054758218188278626
0.017293654775909804
-0.01359934683588458
-0.038405441917808876
-0.05850159430728875
-0.07413625987353802
-0.0859250427955008
-0.0938750215595249
-0.09830234668172325
-0.09991374847638596
-0.09922915092403543
-0.09662673022930657
-0.09242411753271869
-0.08709019542973384
-0.08127316295633129
-0.07520492120151986
-0.06933494621160025
-0.06371212767022817
-0.058511823439369066
-0.05371045496134362
-0.04927778117746604
-0.04517729489669163
-0.04136287708300082
-0.0378046511222002
