# vtk DataFile Version 2.0
00001461.nii_L_ICA_labeled
ASCII
DATASET POLYDATA
POINTS 251 float
107.63354900537126 74.67374530317612 38.85298328430457
107.5844385568969 74.65995891725255 38.55737892556196
107.5225864680228 74.64259982244647 38.26436512623688
107.44830367535518 74.62157510881418 37.974495743578274
107.36169250675233 74.59672650706739 37.688374368927114
107.2631275698699 74.56797668822392 37.40651858169923
107.1526509461148 74.53513301316801 37.129570041703985
107.03065565637758 74.49811304816937 36.85803638049044
106.89720576147089 74.45669998289958 36.59259360015732
106.75268565916507 74.41077529150873 36.33377344679098
106.59728516577952 74.36011128866319 36.08224431469149
106.43136965799549 74.30451104605834 35.83859957402198
106.2553601019519 74.24375924992343 35.60341378198563
106.06960289275298 74.17753350899567 35.37738215825777
105.8747710901112 74.10562847436255 35.16092998732419
105.67140157753313 74.0276799319668 34.954661579328224
105.46024381555242 73.94337640308237 34.75899273265276
105.24216549012668 73.85243523775597 34.57418747566619
105.01801593684372 73.75446650908893 34.400574605446195
104.788820426306 73.64919306195266 34.23818954559221
104.55565119860135 73.53638618942807 34.08689627728942
104.31957038503286 73.41575806345263 33.94654267280379
104.08169673079124 73.28715043749747 33.81669270622133
103.84312320892535 73.15050884338815 33.69670169212868
103.60489960193904 73.0057008670786 33.5859414933683
103.36802847961539 72.85276358550979 33.4835183316238
103.1334181100724 72.69180810009253 33.388433371268995
102.90198431622484 72.52278353439922 33.29977774365979
102.67445223144409 72.34597650676808 33.21635460343973
102.45159862413665 72.16144718166001 33.137127967828434
102.23406984565885 71.9694273281389 33.060961981345486
102.02251827575878 71.77009456213186 32.986771690055946
101.81756573895379 71.56366283579982 32.91347923032027
101.61981425518809 71.35037501896974 32.8400376285489
101.42990770730093 71.13046961343161 32.76542395913652
101.24848185527131 70.90424025430978 32.68865080528548
101.07624576579487 70.67199508843416 32.60874715978666
100.91393401865805 70.43410832073141 32.52477675231365
100.76236437735776 70.1910101286396 32.43581633286361
100.62238683220262 69.94322915612143 32.340984978819606
100.49497225823617 69.69138575019757 32.23940011664632
100.38101985510436 69.43626584081753 32.13028784973036
100.28168555971291 69.178772693367 32.01280149521229
100.19775489240803 68.92003627071232 31.88638325478693
100.13048375027427 68.66135172441437 31.75028019936477
100.08045907586144 68.40421163194344 31.60420322297973
100.048458647559 68.15027997997133 31.447821713914955
100.03503427299637 67.90138871670041 31.28099987659971
100.04016299730644 67.65933475572193 31.103972382123832
100.06399102529576 67.42610283158733 30.916916833339574
100.1058979279088 67.20340734558032 30.7204411297354
100.1652285894712 66.99293820320764 30.515169166922206
100.24112835138102 66.79627580100865 30.301822816072633
100.3323579907243 66.61461642786043 30.08129515775256
100.43790242977158 66.44933343938456 29.854364268030654
100.55635162830939 66.30126850998064 29.62197848710217
100.68662099028374 66.17162833864943 29.38495614849081
100.82738682241674 66.06120306519126 29.144233989827228
100.9775586905338 65.97120135816455 28.90071403836614
101.13591359216284 65.90260600004459 28.655417049630845
101.30134827420792 65.85691002486877 28.409468627523722
101.47256207168839 65.83527027401739 28.164190839868333
101.64828468191062 65.83967458989419 27.921209471902085
101.82692100406697 65.8715642944023 27.68246900236355
102.00666463796335 65.93258044080937 27.45034260457612
102.18537610368602 66.02410981784622 27.227660632259163
102.36058754935829 66.1468804346358 27.017611150346205
102.52962825605465 66.30059505440228 26.82349284990971
102.68987090925228 66.48369047406538 26.648331879730435
102.83905213231402 66.69334364350289 26.494451196426187
102.97557200678834 66.9257617277201 26.36313022970291
103.09866683305751 67.176677649334 26.254477541530385
103.20839874300843 67.44188650658737 26.167556208570165
103.30549801609402 67.7176502745949 26.100677144121693
103.39113881020387 68.00090201936972 26.05173916322813
103.46665592855152 68.28929983275742 26.018627724958044
103.53353723528976 68.58106752411726 25.999179040650716
103.59331837709045 68.87492162238058 25.991291418404646
103.64735257412161 69.16999307286684 25.993267484805585
103.69706708031174 69.465663171679 26.00334695077314
103.74371976377603 69.76153292524673 26.020107938011183
103.78852708511369 70.05733892394127 26.042221321785835
103.83263401327994 70.35291601155119 26.068444244619347
103.87710804168745 70.6481497121073 26.09774452115018
103.92291739528146 70.9429731402532 26.12905158831796
103.97097366870554 71.23732037280627 26.161449444756194
104.02203259531386 71.53113960940688 26.1940410966059
104.07677337108326 71.82436655347658 26.225976591237046
104.13567612731103 72.1169412244727 26.256448143404892
104.1991408282634 72.40878883913355 26.284636823221486
104.2672912990229 72.69985465929432 26.309799915558408
104.34024271598142 72.99006350789183 26.33109374214511
104.41779139595545 73.27937782816748 26.347805492014064
104.49969948525113 73.56774951853535 26.359135942067784
104.58559057325657 73.85513628398229 26.36427656624422
104.6749305101462 74.14150961700649 26.36252548090723
104.76719359808634 74.42679897996851 26.352977445012485
104.86169567167674 74.71094288007484 26.334974863456402
104.95776378233603 74.9938173190285 26.307687556410748
105.05465629548915 75.27526260497478 26.270397348240326
105.15160345788023 75.55506272815192 26.22241633743848
105.24779594343181 75.83292779249061 26.163041721690536
105.3424005190824 76.1085153446862 26.091716063132925
105.43453580610205 76.38138902988146 26.0078413540331
105.5232957996313 76.65104619021068 25.91094555438147
105.60773433162495 76.91689755937549 25.80061383964491
105.6868352773375 77.17823951111198 25.676431912710793
105.75959574490543 77.4343175105949 25.53821102733937
105.82485824827444 77.68417552754794 25.38561954296124
105.88155107725888 77.9268417434808 25.21868356686002
105.92840521875398 78.1610724011899 25.03728300038577
105.96422438734298 78.3855531631644 24.84161687263772
105.98780333044559 78.59880624635682 24.632035387429305
105.99772965409842 78.79895634180892 24.408892191545863
105.99299649437079 78.98428192807746 24.17314906773932
105.97254761476808 79.15275367915916 23.925889213157607
105.93556727703208 79.30228260487512 23.668575594448583
105.88153159501614 79.43075044016591 23.403040645839518
105.81060070896201 79.53653383320074 23.13155306473217
105.7233827203708 79.61830675643553 22.856542351744764
105.62106045846622 79.6753273814933 22.58049006356356
105.50532467848772 79.70752521850847 22.305718875055575
105.37823644083763 79.71549349279617 22.0341986779984
105.24205508807252 79.70039362553095 21.76741288404548
105.09905231092598 79.66373363998407 21.50632921731477
104.95141248873989 79.60722128669964 21.25142938536444
104.80118961767366 79.53292886015326 21.00266363069808
104.65016916354728 79.44270657314073 20.759701289053133
104.49995624293811 79.3382430690191 20.521991563459945
104.35191079811446 79.221486296037 20.288674886475587
104.20729027809627 79.09384394355554 20.058932379022448
104.06706382621296 78.95702895198745 19.83175554978096
103.93220582466999 78.8123217071862 19.606221159784667
103.80338677204217 78.66118436306536 19.381373362856593
103.68133866353428 78.50479877310488 19.15633626889161
103.56647303629752 78.34444290148737 18.930314605339365
103.45928229822356 78.18121097024888 18.70258801860659
103.35995240829804 78.01620745059766 18.472585852516854
103.26870547295296 77.85041554512016 18.239818662597916
103.18554491521871 77.68475090362399 18.003952752323283
103.11040735289284 77.52002005716022 17.76476366600961
103.04318260059657 77.35693820313014 17.52211508321689
102.98357655404902 77.19608259294175 17.276013238119567
102.93146995212234 77.03800290006386 17.026434948809722
102.88648023430062 76.8830697183596 16.773521243672143
102.84852439906383 76.7317125317082 16.51730999009796
102.8173316350837 76.58420464546336 16.257960630048974
102.79289467595815 76.44090828341693 15.995543707295763
102.77516300482993 76.30211368848384 15.730185718534463
102.7642561420584 76.16818030002017 15.461977141236263
102.76036399857743 76.03948405506907 15.191026429265408
102.76374956007055 75.91642178800349 14.917465095058123
102.7748506011283 75.7995011982755 14.641427573148665
102.79403001740104 75.68914839898186 14.363140063524625
102.82196046297769 75.58602827777487 14.082829284025776
102.8590482406541 75.49057690376037 13.800872414616327
102.90600536956431 75.40348334343714 13.517686107693752
102.96334029055762 75.32527143125054 13.233823817186558
103.03152013621492 75.25644096700154 12.949930525278042
103.11117273209886 75.19765606119526 12.666770457962915
103.20244860979402 75.149194248565 12.385172949078845
103.30554787629964 75.1114112148607 12.106030879404193
103.42065485518724 75.08469995800456 11.8303257357787
103.54744601727802 75.06903510213407 11.558934470589621
103.68559556439457 75.06443287507373 11.292720462486969
103.83478072897054 75.07097591305437 11.032570766945437
103.99420487225363 75.0883160993065 10.77907613379664
104.16317385913973 75.11624035407178 10.532807296906233
104.34098025280863 75.15456721920567 10.294279462600816
104.52666107427346 75.20282529109058 10.06368366330526
104.7194699077466 75.26081295693204 9.841322189050075
104.91852171641344 75.32813209395363 9.627243625322645
105.12303121446945 75.40448451592157 9.421498662137202
105.33226229790445 75.48961133711225 9.224112343052532
105.54547789719159 75.5831620788798 9.034971545908265
105.76207265276 75.68496827254553 8.854113175424326
105.98141539919558 75.79465516148782 8.681353170564316
106.20301875138783 75.91209733856957 8.516767923905325
106.42637536806063 76.03688769322562 8.360150842207576
106.65110590506953 76.1689077532217 8.211634533903801
106.87682659830342 76.30771082873868 8.071013020483496
107.10324938498366 76.45311826829413 7.938421689357072
107.33010554780245 76.60468337416692 7.813699943157384
107.55718614571555 76.76212149706404 7.696911724526211
107.7843151339452 76.92501032443867 7.5879544703689685
108.01135502987044 77.09295610289537 7.486762182188691
108.23819757518869 77.2655719947857 7.3932778062374025
108.46476711720945 77.44238210576668 7.307264496728701
108.69100255933309 77.62303782042092 7.22868034126993
108.91687624750438 77.8070521300913 7.157164407899176
109.14237067175955 77.99404980297619 7.092514763374179
109.36749112599583 78.18362908463507 7.034408595827703
109.59226387792572 78.37539630557217 6.9824558162930455
109.81672750653192 78.56901845908152 6.936373523022008
110.0409508593838 78.76411930242261 6.895667479744062
110.26501594681567 78.96038760389987 6.860009313921911
110.48903171978765 79.15749258725863 6.828948526191798
110.71312789958198 79.35512413744482 6.80209218019255
110.93746018738238 79.55297175701136 6.7790667577136325
111.1622005198602 79.7507245045402 6.7594530457200515
111.38755717915029 79.94805961561613 6.742947407293964
111.6137323671737 80.14466501070426 6.729149774888721
111.840969399863 80.3401986147786 6.717780885614123
112.06949064410077 80.53434126672657 6.708511022098373
112.29953495773741 80.72675607665576 6.701070365503154
112.53132741379245 80.91711578472388 6.695195737823727
112.76505556123045 81.10512990098071 6.690632244067101
113.00092279316458 81.29047678526632 6.687167117930055
113.23902615437505 81.47295621424787 6.684570720471633
113.47948849290574 81.65232405907238 6.682657063922932
113.72231694429688 81.82847976319803 6.681231497125667
113.96749378741191 82.00135449550501 6.680118165997952
114.21494575173926 82.17095764363822 6.679143558567213
114.46450398302791 82.33744643347728 6.678135501211547
114.71600788186 82.50098038382265 6.676914762156865
114.9691786122329 82.66191892487798 6.675301238173366
115.22374636191076 82.82063211203557 6.673095514269024
115.47938841285143 82.97759622101084 6.670085145945907
115.73575645348708 83.13334891779922 6.6660468728153
115.99249065740457 83.28845815568232 6.660709883013753
116.24920826899316 83.44353349884997 6.65382219135412
116.50551857820238 83.59918605578991 6.645055595593742
116.76103576508928 83.7559990239948 6.6341064112660675
117.01537042062027 83.91452584015089 6.62061611802171
117.26814012926182 84.07526320875357 6.604205385192167
117.51900209769187 84.23859831086354 6.5845120996285464
117.76758450918146 84.40489456069542 6.561066870956608
118.01362208041297 84.57431381031179 6.533509451938552
118.25679590815805 84.74701760787845 6.501319681915739
118.49689862784888 84.92297103484543 6.464081257647814
118.73370998103131 85.10208978800863 6.421278137754594
118.96704941647782 85.28417814263891 6.372379216439591
119.19680311901321 85.46892007485371 6.316900490570891
119.42278351467728 85.65597504162193 6.254156410219412
119.64493522981986 85.84485121619022 6.1836791280121455
119.86307210891759 86.03504887858263 6.104729531778001
120.07707340740046 86.22596630955361 6.016727202221976
120.28675686739649 86.4169561565844 5.919026884073234
120.49183931736289 86.60729392452139 5.810857373850208
120.6920947300157 86.79621258565075 5.691720659924442
120.88711789555254 86.98284944504636 5.560887727108547
121.07650601089804 87.16629385578678 5.41784185730137
121.25982868014586 87.34560845343518 5.262215642345195
121.43646382251396 87.51969934958643 5.093482534786323
121.60594133194351 87.68758489415285 4.9116391238524955
121.76767901880163 87.8482053191806 4.716661155193558
121.92107006396873 88.00048260870666 4.50868254506047
122.06572349467847 88.14358435859917 4.288298380790276
122.20108463556004 88.27653408840571 4.055977462865417
122.32695830533908 88.39878154561247 3.812703579308291
122.443166068111 88.50983952985 3.55945442186929
LINES 1 252
251 0 1 2 3 4 5 6 7 8 9 10 11 12 13 14 15 16 17 18 19 20 21 22 23 24 25 26 27 28 29 30 31 32 33 34 35 36 37 38 39 40 41 42 43 44 45 46 47 48 49 50 51 52 53 54 55 56 57 58 59 60 61 62 63 64 65 66 67 68 69 70 71 72 73 74 75 76 77 78 79 80 81 82 83 84 85 86 87 88 89 90 91 92 93 94 95 96 97 98 99 100 101 102 103 104 105 106 107 108 109 110 111 112 113 114 115 116 117 118 119 120 121 122 123 124 125 126 127 128 129 130 131 132 133 134 135 136 137 138 139 140 141 142 143 144 145 146 147 148 149 150 151 152 153 154 155 156 157 158 159 160 161 162 163 164 165 166 167 168 169 170 171 172 173 174 175 176 177 178 179 180 181 182 183 184 185 186 187 188 189 190 191 192 193 194 195 196 197 198 199 200 201 202 203 204 205 206 207 208 209 210 211 212 213 214 215 216 217 218 219 220 221 222 223 224 225 226 227 228 229 230 231 232 233 234 235 236 237 238 239 240 241 242 243 244 245 246 247 248 249 250

POINT_DATA 251
SCALARS curvature float
LOOKUP_TABLE default
0.15077948255249995
0.14967351675967933
0.1489599697805975
0.1486627101027968
0.14879433655728166
0.14934486417717618
0.15028661772467836
0.15156360593835144
0.15310319826074104
0.1548048395460901
0.15657126054066364
0.1583030831001571
0.1598899314641059
0.1611981027170563
0.16209886238110893
0.16245700111249198
0.16214707142413945
0.16107041695587113
0.15913250644906488
0.1562883602145776
0.1525310084989003
0.14793216152702932
0.14264532896608223
0.1368802115503626
0.130889320027376
0.12497042024982916
0.11944844275308376
0.11466869398267933
0.1109476485297379
0.10856862816462912
0.10770323678292716
0.10844728546831459
0.11080445248187727
0.1147176418984764
0.12009293977064699
0.12681734878342915
0.13477441786974634
0.14383920311492215
0.15389462030405848
0.1647903601394631
0.1763594054982501
0.18836164390475232
0.20051002887936872
0.21242773527474523
0.22366544032604757
0.23381575098293403
0.24249495176970723
0.24932651815481816
0.25403288519553374
0.2565012966437862
0.25694628932355507
0.25574178894056887
0.2534677316059661
0.25079959787741807
0.2484847304357058
0.24724965176192112
0.24786926109410104
0.2510202490379803
0.2572500047741595
0.26685784840839677
0.2800436698438699
0.296700672674396
0.31642723786143234
0.33822382912419363
0.36042813800029666
0.38060886531145355
0.3956408540418388
0.4025693792593245
0.3992786038331103
0.385153364928179
0.3613174750074269
0.33044442456986345
0.2955842697639228
0.25947174453756994
0.22403056683972644
0.19046568558434437
0.15939836625743128
0.13102718006687394
0.10545776606735514
0.08268637057237385
0.06290573071447549
0.046710646582171514
0.03541751956378349
0.03114876196282612
0.033662747832202654
0.03988427803267687
0.047012538587293436
0.0537590054286226
0.0596962183039399
0.06481897451564368
0.06933308865003276
0.07353391954774044
0.07775731784717643
0.08227870698333935
0.08732745047461118
0.09299121516045479
0.09930142640133471
0.1061645342693112
0.1134755632572794
0.12111293808225833
0.12897146911000723
0.13702087429645757
0.14528691610968977
0.15381575127186245
0.16266613700307775
0.1719437253368682
0.18180274061472862
0.19238538925724905
0.2038417292526367
0.21626279846458743
0.22968397036991478
0.2440004540520962
0.2589946144296451
0.2743356401770056
0.28941455040637776
0.3033028698559814
0.31481762925750484
0.32269642850884533
0.32577331547039245
0.3232768272764007
0.3149434432735388
0.30120202043407823
0.28297258643478485
0.26161731904951974
0.2385328555389343
0.21494251300546838
0.1918116434630079
0.16994400944247237
0.15002530869011615
0.13256485257071945
0.11809025454477243
0.10688613402484756
0.09914271192916957
0.09459891409974541
0.09276015836811528
0.09280885686224451
0.09393635608725462
0.09540061539173504
0.09666366000553979
0.0973851501839732
0.09744301868709707
0.09692418056041888
0.09603055450335593
0.09502897485369485
0.09422542864980006
0.09390646690463372
0.09434235035008408
0.09571764937434013
0.0981674985287957
0.10177597466188702
0.10658115539366939
0.11252788660363773
0.11947320506122369
0.1272167348733811
0.13552440587300202
0.14410844353004065
0.1526517640597095
0.16081322392767597
0.16831184508136035
0.17484845684524078
0.18014890833703068
0.18394623923246525
0.18606654751379365
0.18648839991690225
0.18526852241672198
0.1825390818964991
0.17854808277731188
0.17357647173822374
0.16792085566511816
0.16190997671895047
0.15582370569391818
0.14988430120790278
0.1442600899267758
0.13907415051792996
0.134393638682237
0.13023271268950634
0.12654649395485235
0.12326802686466597
0.12029102904145103
0.1175138623187083
0.1148268641689289
0.1121370302955871
0.10935991051542658
0.10642313150658948
0.10326754287967413
0.09984459784590469
0.09612227978985362
0.09209078940341899
0.08774636431448117
0.08311333374298754
0.0782223926046918
0.07312859083300097
0.06789649245937525
0.06259916795251584
0.05731980830937939
0.05214871799426748
0.0471932473320837
0.042584677030725784
0.03849778163657415
0.03513604508935488
0.03275161839910979
0.031529123911984556
0.031555614792147774
0.03269619983569218
0.034669837256328516
0.03712091443328883
0.03968428419695943
0.04202442432177099
0.0438631530066187
0.044950945784082194
0.04511568026300462
0.0442261738926845
0.042208267579171156
0.03908164137190481
0.03491377082085625
0.0299558963306997
0.024594642482126852
0.01960900718535911
0.016539998214311548
0.017432731093209242
0.022155621582906068
0.02896450585343114
0.03652485492889249
0.04416609947307559
0.05150921062391305
0.05834588290349162
0.06457959482629004
0.07020836781424016
0.07530001428759596
0.07998964789985727
0.08446422312388996
0.08894560958424569
0.09366952238022401
0.09886234903741589
0.10467799706038775
0.11122121668616926
0.11851186406103485
0.12650574902111597
0.1351111882095741
0.14417789961511587
0.15352710844299527
0.16294226566380743
0.17217775962317547
0.18096287555351323
0.1890216951090686
0.19607568462747618
0.20185912771496012
0.2061752037134525
0.2088543174566196
0.20985803482923895
0.20922023943227
SCALARS torsion float
LOOKUP_TABLE default
-0.04169065492878851
-0.042802353070956756
-0.04376908856484284
-0.04474539178022222
-0.045842855836769336
-0.04733994542818652
-0.049653428710028834
-0.05300768695411959
-0.05799239847381161
-0.06469482949464253
-0.0728799919738852
-0.08262236322552247
-0.09388049030385022
-0.10687775260076414
-0.12103803994702
-0.1361884614673122
-0.15207581920584823
-0.168339305871454
-0.18523783206281588
-0.2026912286508566
-0.22131001067277342
-0.2413699033559868
-0.2632721228997928
-0.28754947372148787
-0.3141204408824823
-0.3423070797906546
-0.37042061735297405
-0.3959344179553608
-0.41507280881409425
-0.42448553701356484
-0.4220095722854344
-0.407163138253642
-0.38219393014924563
-0.3500566736514738
-0.3148081252095691
-0.27934560942855136
-0.24600690318667462
-0.2160930420272421
-0.19033069343472803
-0.16893674796381344
-0.15167808777100372
-0.13827081157731172
-0.12826267472858038
-0.12099267099062022
-0.11624023942009522
-0.11302338752981836
-0.11119260366413687
-0.11035284058970218
-0.1106032427746293
-0.11119909907743673
-0.11186128572914183
-0.1123596670776205
-0.1123643368616898
-0.11159797260141986
-0.10952597344987389
-0.10596986590803613
-0.1009718145362339
-0.094230390795011
-0.08574476918826178
-0.07576360054715559
-0.06514518405032588
-0.054452361217447925
-0.04425037403318205
-0.034941312685468004
-0.026612961949496576
-0.01932817928779141
-0.013006930531788733
-0.007600734771036545
-0.0027874454823710385
0.0018382488804654902
0.0065708993235143965
0.011823285487860984
0.01815582744936051
0.026392508337268042
0.037581387020185875
0.053381938441895316
0.07658239837112522
0.11155194666206532
0.1675227401539421
0.2614472838543462
0.42871455901238387
0.7294560574600246
1.1705975571538931
1.3889625463935917
1.0936060285566744
0.7261669168956415
0.5045504592236164
0.3922955259554705
0.34238841844759443
0.32773016999824456
0.33043563661005815
0.34003417463389785
0.3483440164258691
0.3502765944073419
0.34206807287342833
0.3236214219653208
0.2978854652898726
0.2691649343542748
0.2405099947763898
0.2141746384627048
0.19128111484325763
0.17185633208390122
0.15567541889009853
0.14223848310922707
0.13123760928481795
0.12182667191262032
0.11313572695376826
0.10492448275696495
0.096541538501003
0.08794869421284564
0.07854855798769372
0.06838068311838222
0.057681715605418994
0.04636729970570119
0.034139383128092414
0.020683168768943473
0.006084995048679081
-0.009799070051657394
-0.026929460480461583
-0.04533808253899185
-0.06524028799988667
-0.08680287055712535
-0.11066032921503337
-0.13709877359359635
-0.16756876186150366
-0.2037239572685732
-0.24755045052822972
-0.30016937947925515
-0.3625539459268765
-0.43373733152118876
-0.5071159517473163
-0.5717033556262293
-0.6096870233343181
-0.6117118643805742
-0.5778342528333635
-0.5202715520749417
-0.45449659872703174
-0.3897086330016008
-0.331964378807887
-0.28145189033810913
-0.24020937797802214
-0.20560798715782888
-0.17649100077287838
-0.15114898270098523
-0.12807433042320862
-0.10659047506895535
-0.08597523073320665
-0.06630960202750616
-0.047855965512197444
-0.030367482985606178
-0.014605290045148489
-0.0011062548359222527
0.009951658916512136
0.018731446648731893
0.02558937695802048
0.030451299923037377
0.03349541482969479
0.03488712808881084
0.034580313949760175
0.03274320085024404
0.029361759537788704
0.02453476832796956
0.018197064580331383
0.010338216078985468
0.0014649590863746956
-0.008542488138954328
-0.01899772424195826
-0.02988106932883554
-0.040384489162897524
-0.0500503885128946
-0.05849296719457263
-0.0652319242251538
-0.06968906281633065
-0.070978230796335
-0.06872936893275793
-0.06307409892746037
-0.05388905901368294
-0.042178069730180325
-0.028187907452306055
-0.01338069261599696
0.0014827317082731282
0.015827465854896843
0.02906950148154392
0.040943817278802946
0.05097839209647538
0.059088100997342144
0.06535371422583054
0.06978540414102828
0.07362952815646902
0.07724088879534755
0.08223359049014929
0.08966353412331082
0.10102224935888113
0.11827449975925272
0.14345035487022462
0.1797822846820451
0.2301404003858633
0.2968012026258625
0.3800916697860004
0.4713317272681541
0.5531149223366959
0.5965855423076705
0.5837840001171646
0.5231580227137561
0.4399207578578303
0.3562919483373132
0.2836634936972534
0.22653583637456762
0.1849824569121751
0.1572716419403764
0.1425135341629631
0.14050085678375765
0.1541268806560438
0.1891604574078068
0.2586691100682097
0.3894004565826136
0.6402632264822539
1.1028448054578432
1.6545360152863666
1.5385552382257144
0.9409232049759327
0.5134459771469536
0.27546847628016324
0.1385661772667553
0.050756232090503534
-0.010508451038729733
-0.05758654186666825
-0.09618016296240268
-0.12917927159169026
-0.1577954984617196
-0.18165005686611466
-0.19996294929807293
-0.21040931036828353
-0.21288509250684348
-0.20800452497174204
-0.19684939852936076
-0.18172829572996116
-0.1641798009519678
-0.14636506643357627
-0.12933888921155767
-0.11379502006387796
-0.10006715140794999
-0.08809947538688592
-0.07787579942988719
-0.06907156412935016
-0.061405660074515554
-0.05467423248967944
-0.04866228197104119
-0.04327946075782596
-0.03843332780661554
-0.0340766560111481
