# vtk DataFile Version 2.0
00003155.nii_L_ICA_labeled
ASCII
DATASET POLYDATA
POINTS 220 float
108.139588676239 71.65185641921013 30.538406127067354
107.98432376067174 71.7281040477258 30.293361994210883
107.81681572606047 71.81187014794328 30.059054121799946
107.63846875552001 71.90072281919245 29.834825081730745
107.45009572330719 71.9927624674481 29.620282214643133
107.25234834364893 72.08633146472067 29.415035306891223
107.04560834801622 72.17998099513648 29.218886962329016
106.83008183986216 72.27236122258543 29.03180462073295
106.6058563073554 72.36215229293263 28.853913782298154
106.37293775377056 72.44801003659538 28.685508202606567
106.13129120991415 72.52852003505134 28.52706054062313
105.88088926004245 72.60215976656795 28.379232363030603
105.62177439673212 72.66727294686049 28.2428786121614
105.35413702613113 72.72206063732733 28.11904118229176
105.07840887867329 72.76459818867866 28.008922057726124
104.79532473780684 72.79278491878691 27.91392923432361
104.50611996623665 72.80460563213204 27.835400730904833
104.21254507139582 72.7982919751653 27.774461368772435
103.91679942339599 72.77201617761445 27.732301207962603
103.62153727867619 72.72496378097357 27.709152698143296
103.32963875127048 72.65635105531977 27.70518683037909
103.04386597456214 72.56657250919243 27.719466513838558
102.76688516663964 72.45601695124387 27.75097999564033
102.50074148012902 72.32599027449957 27.797873803480954
102.2472073837269 72.17764296165755 27.858356552819952
102.00751357920285 72.01239219807123 27.930387397934062
101.78248091322905 71.83165390665067 28.011925126491356
101.57274526652363 71.63665254475785 28.101063637162053
101.37877910914668 71.42849005248628 28.195979513186902
101.20073487222015 71.20830335774941 28.294887784696588
101.03876468172102 70.97704532775042 28.396139229151952
100.89293727773634 70.73560168074735 28.498157092497397
100.7632455922577 70.4848127950826 28.599425049562246
100.64960450268774 70.22549384611564 28.698478313134327
100.55188878446603 69.95843110692662 28.793885449236036
100.46982210339162 69.68444423579245 28.884271531260982
100.40300111362683 69.40437050639935 28.96833538381837
100.35095309585587 69.11904357230932 29.044838645492337
100.31310706015567 68.82930916634709 29.112629006076773
100.28880731519375 68.5360216972604 29.17065634111385
100.27738279387152 68.24003235203979 29.21794149295398
100.27805986388259 67.9422101045981 29.253681763153917
100.2900225585967 67.64341830812229 29.277261475006664
100.31251606943107 67.3445018542153 29.288182995208786
100.3448304052947 67.04629162508058 29.28610825966576
100.38639780107799 66.74961911812487 29.27074744130888
100.43658232477702 66.45526535787809 29.2421944455299
100.49493100708597 66.1639889414827 29.200578470741995
100.56109714858478 65.87651680806414 29.146157567013358
100.63488855488521 65.59357733116981 29.079219430339787
100.71612983675877 65.31582282822929 29.00027146648444
100.80475055495289 65.0438862870683 28.909841977059344
100.90076255738745 64.7783962645618 28.8084609873687
101.0042503625221 64.52000789842332 28.696623496649423
101.1152875320629 64.26936363950604 28.5748464270849
101.23388868409154 64.02707341876838 28.4436598819862
101.36005021458747 63.79379337144313 28.303501740548725
101.49369983303228 63.57020927575001 28.154744082639365
101.6346789610719 63.35704893298956 27.997684037749227
101.78261915691138 63.15490598438225 27.83266578794504
101.93707484503582 62.96441786414452 27.65993338179187
102.09747784152191 62.786188215732835 27.479699106925224
102.26318303226938 62.62086697324004 27.292109495278435
102.4333951546013 62.46890402862581 27.09739647727289
102.6072932415681 62.33076090245722 26.89576997545976
102.78403652651434 62.2068853231005 26.687458206619354
102.96278449476429 62.09770892443036 26.472732512135853
103.14271942437261 62.00370709555066 26.251905719037346
103.32305366347995 61.92533010621056 26.025382410308495
103.50304933343496 61.863004892573144 25.793668008242552
103.6820211094299 61.81724206477167 25.557346681752957
103.85932988352056 61.788590493661154 25.317112801538908
104.03437637132042 61.77763249794728 25.073783005145984
104.20658667770014 61.7849929213261 24.82830498129079
104.37538723603059 61.81137028236954 24.581772478622508
104.5402447486401 61.85723258526944 24.335434081491258
104.70060318676249 61.9230739980855 24.09066610382044
104.85589112154597 62.00926322229854 23.84896898132477
105.00546263424046 62.11617016169726 23.611993086536433
105.14873953930997 62.24360599599206 23.38137061762707
105.28511311585295 62.39120198999819 23.158722900570233
105.41390898971751 62.55846171095778 22.94567349486888
105.5345738569964 62.744322010144174 22.743560478239264
105.6466223977923 62.94744318188343 22.553447369228184
105.74953609964528 63.16645835865001 22.376247135246462
105.84305013651952 63.39956715902575 22.212307089482437
105.92698022299071 63.64498057255309 22.061663789222518
106.00116976813767 63.901010884472804 21.924134216629287
106.0656800523846 64.1659174269458 21.799088640300937
106.12067276628275 64.43810584681775 21.68565775843078
106.16636578272363 64.71616971602542 21.58282549283208
106.20300454753806 64.99888982070179 21.489485094733105
106.2309954250085 65.28516747992158 21.404340200604786
106.25078222078531 65.5740869582027 21.326081429950424
106.26284080772778 65.86489055415304 21.25341400782891
106.26769103545334 66.15695328175353 21.18507270374057
106.26584478125491 66.44976886361718 21.119867816863938
106.25793127645476 66.74292168336866 21.05665631858913
106.24455043339137 67.03608875132902 20.994434007330305
106.22629906118215 67.32901819077289 20.932326155938238
106.20374971525943 67.62151503265555 20.869591233548054
106.17745020771927 67.91343071640085 20.805620014904534
106.14793049794652 68.20465972440898 20.73994587945987
106.11563822009732 68.49512034183232 20.672205516089484
106.08095290237327 68.78474552122277 20.602111561167323
106.0441767011819 69.07346857952685 20.529410146758533
106.00553994858674 69.36121239709294 20.453848290393857
105.96520795611902 69.64788103057299 20.37515188100553
105.9232683664737 69.93333639855037 20.29296482993393
105.87974397220225 70.21738710192862 20.206832366086466
105.83459722094968 70.49977175527613 20.11617903619667
105.7877344494621 70.78013981796234 20.02029326461426
105.73900979830302 71.0580280332531 19.918316549247567
105.68822959179644 71.3328318127102 19.809239612883644
105.63515789976904 71.60377002933733 19.691905618770274
105.57950991099194 71.86981107132033 19.56496635760304
105.52100115224567 72.12969165695318 19.427046223179893
105.4593464744131 72.38183681770929 19.27671768966123
105.39429179473828 72.62432668356146 19.112590246279694
105.32561831634392 72.85474149987697 18.933269030139176
105.25333302945155 73.0707091205839 18.738107812812423
105.17753112436893 73.26932400142886 18.526557473376663
105.0986360623085 73.44831008590633 18.299224214253307
105.01724090415809 73.60550586814304 18.057140854544798
104.93416949236641 73.73976351390188 17.80216157951686
104.85035540148259 73.85096169102184 17.536534746031283
104.76676590736713 73.9395977436141 17.26247025898093
104.68432220040043 74.00743883906146 16.982178442584924
104.60389481186377 74.05627843483593 16.69736754209246
104.52625322443288 74.08846936148544 16.40942148342653
104.45210168091849 74.10633518817089 16.119308796661436
104.38211027158137 74.1120861688714 15.827665392764299
104.3169351877711 74.10780064343793 15.534877290555393
104.25721634152343 74.09543391689529 15.241153533514924
104.20357785782264 74.07679884195542 14.946586788041717
104.1566604212838 74.05354492853016 14.651201694215287
104.1171043833602 74.02720442144744 14.35499948298102
104.08554119117026 73.99921019140601 14.057991379920246
104.06258124250029 73.97091126854079 13.760224919315409
104.0487992771598 73.94358311347004 13.461804123871337
104.0447198341844 73.91843331006059 13.162903856757826
104.05080381128036 73.89660244363034 12.863778851300028
104.0674460034605 73.87916558910956 12.564768170686065
104.0950194210613 73.86715886532245 12.266301407132511
104.13368632422589 73.86147351012846 11.968883569866708
104.1835895800392 73.86293788965497 11.673095092000194
104.24479585195536 73.87228306948383 11.379583437680063
104.31738619149532 73.89020150638953 11.089081837635554
104.40123708119557 73.91716489772804 10.802338109805943
104.49619202380003 73.95352863904856 10.52013184337119
104.60210439608362 73.99956226633722 10.243287972361175
104.71876953104277 74.05538391744815 9.972637555216817
104.84581114959744 74.12084544753624 9.708908138799323
104.98288861026391 74.19572708637791 9.452819173914275
105.12966911112656 74.27972616052978 9.205070828293982
105.2855889493935 74.37225106148826 8.966098172603093
105.45013048722862 74.47270607047857 8.736280026677804
105.62278143346776 74.58047464738598 8.515914969837695
105.8029031866861 74.69482441166106 8.305048743502242
105.98985203121174 74.81503824170966 8.103592714252636
106.18300222767131 74.94044579773474 7.911359054431413
106.38175925709729 75.07043841381628 7.7280908874084995
106.58552063402487 75.20443680944842 7.5534008214463695
106.79371868170533 75.34191965605075 7.3868355357130095
107.00585779696407 75.48244025759104 7.22795173607953
107.22150529867878 75.62560279997224 7.076311160821316
107.44030071560115 75.77105274245815 6.931507566778552
107.66196760150787 75.91846774832273 6.7932021377795575
107.8862759503316 76.06751953607986 6.661045412782698
108.11308518970668 76.2178945656354 6.534786670369614
108.3423200319177 76.36927325580348 6.41423586568097
108.57396053503075 76.52132561227162 6.299259183306854
108.80804169121595 76.67371166342919 6.189799204259058
109.04460654123955 76.82608224241136 6.085793585768664
109.28370682720129 76.97809682212788 5.987206549477841
109.5253910392106 77.12943522760466 5.894028162165287
109.76968627745809 77.27981205119232 5.806258499794817
110.01658674447927 77.42899197763731 5.723903444523169
110.26600342969941 77.57682910663713 5.646882049630371
110.51780840111695 77.72325849937872 5.5751209837665865
110.7718188086126 77.86831004004719 5.5085172616179925
111.02780671410447 78.01210782829986 5.44695472653545
111.28546939730296 78.15488999417933 5.390201164641752
111.54448465779735 78.2969681256726 5.338018709627898
111.80450394528411 78.4387220034786 5.290119767293751
112.06516508112783 78.58058375213157 5.246190185856271
112.32609131176007 78.72300934665648 5.205799234104686
112.58691916650776 78.86645093205219 5.1684831855602935
112.84730259690394 79.01133452645652 5.133719726294552
113.10691966978044 79.15804281388374 5.100932277814612
113.36548662971569 79.30688279969051 5.069481567071765
113.62277688583264 79.45805328642754 5.038683539477628
113.87861830706045 79.61165345866166 5.007838610644063
114.13290441001514 79.76766456863349 4.976242337245738
114.38558826782685 79.92596073975518 4.9431920907840965
114.63671994710212 80.08626222742836 4.908045142093262
114.88641224904195 80.248193352612 4.870217266757381
115.13484396862229 80.41128307235991 4.8292022262865215
115.38224996305966 80.57498071203526 4.784569582001549
115.6289203353946 80.738669625175 4.736008132229463
115.87517774936964 80.90170482241737 4.68332836935366
116.12135475333287 81.06343622755 4.626424750483367
116.36777974182765 81.22322635208678 4.56527010980377
116.61476151833018 81.38046374901232 4.4998926576597125
116.86255980969383 81.534626551747 4.430413669157759
117.11138089298208 81.68525114302717 4.356945436455094
117.36136564492858 81.8319540600203 4.279595046155645
117.61259198208155 81.97440580308646 4.1984168474493515
117.86504917345736 82.11240979144101 4.1134633390296385
118.1186595508525 82.2458334960105 4.024713290784082
118.37328152819 82.37460542214747 3.9320736565169283
118.62871628220394 82.49869759389884 3.835373667395644
118.88471101793368 82.61812559407961 3.7343778942894827
119.14096608001472 82.73297513868114 3.6288357983116937
119.39715039025747 82.84332598159556 3.518435147128412
119.65290276361347 82.94926824437397 3.4028371435531897
119.90782504370492 83.05085814980387 3.2816359725166255
120.16150888145555 83.14822541995369 3.1545174812959313
120.41351872528331 83.24145759645 3.021125879832267
120.66339523758 83.3306366145195 2.88111476408504
LINES 1 221
220 0 1 2 3 4 5 6 7 8 9 10 11 12 13 14 15 16 17 18 19 20 21 22 23 24 25 26 27 28 29 30 31 32 33 34 35 36 37 38 39 40 41 42 43 44 45 46 47 48 49 50 51 52 53 54 55 56 57 58 59 60 61 62 63 64 65 66 67 68 69 70 71 72 73 74 75 76 77 78 79 80 81 82 83 84 85 86 87 88 89 90 91 92 93 94 95 96 97 98 99 100 101 102 103 104 105 106 107 108 109 110 111 112 113 114 115 116 117 118 119 120 121 122 123 124 125 126 127 128 129 130 131 132 133 134 135 136 137 138 139 140 141 142 143 144 145 146 147 148 149 150 151 152 153 154 155 156 157 158 159 160 161 162 163 164 165 166 167 168 169 170 171 172 173 174 175 176 177 178 179 180 181 182 183 184 185 186 187 188 189 190 191 192 193 194 195 196 197 198 199 200 201 202 203 204 205 206 207 208 209 210 211 212 213 214 215 216 217 218 219

POINT_DATA 220
SCALARS curvature float
LOOKUP_TABLE default
0.2642082922378075
0.22479802897651066
0.1947492434963862
0.17239379962873744
0.15673307738290615
0.14705574201635777
0.1428878243736312
0.14380324683804296
0.14934480389819835
0.1589961285149687
0.1722412960235031
0.18853015720777075
0.20728886630433765
0.2278059024910066
0.249178218095382
0.2702071902839683
0.2894326981670429
0.3053159524149116
0.3163529130327641
0.3216250806461943
0.3208144751536887
0.3145623657599689
0.30403821533214825
0.29081538645007227
0.27642582925859144
0.2621556605724448
0.24887513728250044
0.2371190442683511
0.22716903576789313
0.21904273358430795
0.21259066862740808
0.20755838450710967
0.20364867753524166
0.20055983328628826
0.19803046646646075
0.1958474938300022
0.1938664749928937
0.19199989451214475
0.1902124214789533
0.1884860130070474
0.1868062828906746
0.18513935727768685
0.18343489057644857
0.18162003832942522
0.17962464509529
0.17740033795161536
0.17495365437017002
0.172352885868913
0.16972925462569777
0.16726879336468709
0.16517920538142775
0.16365086347873173
0.16282755935244228
0.16277035961497235
0.16344385623965582
0.1647082156366363
0.16637300515750256
0.1682215339282428
0.1700626949388266
0.17175917500396085
0.17325335850511162
0.17456117690237963
0.1757586163644383
0.1769613269609111
0.17830408064047093
0.17992416928912655
0.18194681651659328
0.1844896255652377
0.18764895709744076
0.19150577901157861
0.196108797172406
0.20147984459599963
0.20759362305260778
0.21437072442268837
0.22166691005711342
0.22924271499231555
0.23675649353158618
0.24377374651321088
0.24979351299709823
0.25428065776935926
0.2567211417722064
0.2566635749473723
0.2538582851630978
0.24823004180943226
0.23984767206332097
0.2290252607839899
0.2161909081952943
0.201822649543448
0.18641182784603944
0.1704269110616241
0.154272546183967
0.1383139468383098
0.12285895120270235
0.10818493525850932
0.09453914041675962
0.08215260343480292
0.07123232536088675
0.061922792503191486
0.054320916222326814
0.04844598168895588
0.04423762150184327
0.04155071389534454
0.040159629429659095
0.039831586198536384
0.04035400193241001
0.04160194391191786
0.043585873522941
0.04650659173659359
0.050733861121087805
0.056756325926970067
0.06503219549884627
0.07592412621624119
0.08961273525697082
0.10615885915213347
0.12547333645429368
0.1473662871952679
0.17141647266109328
0.19693868638137105
0.22287523327181974
0.2476464679955299
0.2692509416376117
0.28533423409813985
0.29402678046932934
0.2940437997268844
0.28532206676810223
0.26909784346951754
0.24736432014014612
0.22248555398530742
0.19651194412342415
0.17115937134100007
0.1477205732080444
0.1272006651486797
0.11048557100729602
0.09833105094026277
0.09124125828969032
0.08915622049277487
0.0913283622605523
0.09657160563828847
0.1036882271186131
0.11173960326997197
0.12006743718778014
0.12826122262940767
0.13606969345549796
0.14335533155036873
0.15004873872686564
0.15610938347907555
0.16150662970479304
0.16619538213294452
0.17009912791218582
0.1731053382652639
0.17508459016799754
0.17590268898054312
0.17545861002205376
0.1736666671370896
0.1704893556356797
0.16595880461313978
0.16017005105293458
0.153255928628218
0.14543222761272792
0.13694014904404944
0.12805930345750557
0.11907204450215433
0.1102672242727141
0.10190217844013981
0.0942051027572503
0.08734916076828615
0.08145935338480868
0.07660271115145965
0.07279055989004417
0.06998951198928642
0.06813211805297675
0.06710939885924277
0.06677534325669436
0.06693551583817106
0.06735256725290222
0.06775696463620709
0.06786654026006532
0.06743811431092012
0.0662862680548406
0.06431553209611411
0.06150852949888483
0.05794072180345506
0.05377184364559094
0.0492217975756524
0.044561357830559735
0.04010127094305197
0.03617516494112137
0.03309887629537614
0.03111823545725104
0.030318165933900954
0.030585730082460433
0.03164120266829169
0.03317947801747365
0.0349308628472763
0.03674950790464635
0.038571733013300226
0.04041809708638305
0.042338649171801294
0.04442752086289401
0.04674005479671463
0.049313186026919045
0.052095330927158984
0.05499103489570408
0.057844772748743424
0.06050758061836221
0.06284386736357107
0.06477889008884248
0.06629831737339316
0.06747453852288576
0.06844104775954753
0.06937741801449285
0.07047306890066125
0.07189447818605738
0.07375196770843462
0.07609191797707561
0.07890892466970055
0.08216106396200938
0.08578657779274136
0.0897225611115575
0.0939108265463186
SCALARS torsion float
LOOKUP_TABLE default
-0.1960176289564571
-0.2197624808584527
-0.24619690155240492
-0.2730423291434196
-0.2961065462190354
-0.31007736825143783
-0.3103524489076869
-0.29603988976816986
-0.27024605691888826
-0.23866177833325813
-0.20642332318073928
-0.17700410788371054
-0.15205425816686288
-0.13202561376789143
-0.11681873869910128
-0.10612397920423296
-0.09958860974704616
-0.09684960184196159
-0.09753592514091136
-0.10135816537336238
-0.10776686569741842
-0.11643132705181419
-0.1266610445007221
-0.13805834333197356
-0.14993284957627717
-0.16182452954430263
-0.17326016495029392
-0.18375277538118365
-0.19272167605522872
-0.20022179688396344
-0.20627618298155076
-0.2112210681875735
-0.21529547665275614
-0.2187260367079813
-0.22155364004760328
-0.22339782790302495
-0.2238210142909562
-0.22204512606679153
-0.21726876032909195
-0.2086581775716526
-0.19551955999399603
-0.1777196322593534
-0.1551705258022467
-0.1286348213048928
-0.09868811746752355
-0.06689494629972983
-0.03412103133700392
-0.0019395307047851721
0.028221426157808618
0.05428840409712006
0.07494093039579294
0.08875101255496684
0.09407559223371563
0.08989197423397624
0.07714350582249303
0.056945276936348294
0.03212819948668569
0.004320211864014052
-0.023226623413303116
-0.04928642661517357
-0.07103572854627814
-0.08778610766863314
-0.09790008202459345
-0.10130385867407682
-0.09775671647816116
-0.08789828258654234
-0.07295364974467487
-0.054093221704257885
-0.033172581633784906
-0.011447894558763098
0.009428035877885696
0.028382398113483278
0.0442059224582002
0.05645491152837487
0.06473245704276796
0.06905256235546686
0.06950459777856563
0.06627921208885097
0.05950735725666566
0.049886369413105314
0.037650802296984795
0.023744778184149586
0.008183246582630931
-0.008440760974584592
-0.026402131475400464
-0.045123159594482334
-0.06508137152719239
-0.08632575120981725
-0.10954704535274394
-0.1351769754551506
-0.16416755163501318
-0.1973685960077758
-0.2361077103884552
-0.28124405463378016
-0.3337978240365559
-0.39252159350245486
-0.45622111959842254
-0.5177162580589375
-0.5683010799049792
-0.5926272975759485
-0.5827422546748715
-0.5346216060859234
-0.46478765906902353
-0.3868952206155562
-0.3156910570812752
-0.2555300247359361
-0.20625967120101538
-0.16520072573002986
-0.1289674767366756
-0.09748434449869028
-0.07048754512169472
-0.049245175195200455
-0.03316809548631341
-0.021780952218627542
-0.013904547552119832
-0.008713213503453037
-0.005557941996490795
-0.0039834232600071615
-0.0038182422401443414
-0.005095305607068593
-0.007978374083282213
-0.012751133100712846
-0.019796043263406542
-0.029920200657995465
-0.043982956932686085
-0.06284033991053724
-0.0880662737113046
-0.12143663867319487
-0.1657388380235824
-0.22421333869001747
-0.300536807939219
-0.3964785407938373
-0.5068202844333695
-0.6102446776462569
-0.6715244129659017
-0.6629961391553989
-0.5949683391485652
-0.5009123977730754
-0.4098895782021915
-0.33366923302352514
-0.27383217134499954
-0.2275531401131732
-0.19129500921707898
-0.16207516658611407
-0.1371980600672362
-0.11507027063535456
-0.09454188323596167
-0.07484803609701474
-0.05531736946445358
-0.03595492622983985
-0.017411390589589983
-6.786090625888553e-05
0.015156718460463401
0.027877555458667876
0.03743096558004632
0.04380544501485362
0.0467826199416191
0.04687054913935181
0.044103977367788184
0.039654177090656675
0.033772867400072855
0.02830791281951422
0.024076541581872297
0.02335602112921216
0.02760524368773861
0.03839563597331308
0.05668619814243915
0.08134097828711256
0.11065550074741017
0.1395878200194887
0.1643795899993165
0.17976529790711876
0.18379009655209666
0.17494005180949088
0.15472799211024763
0.12454565813650778
0.08711103622955685
0.04368614677324447
-0.004463729254932424
-0.0580829571728246
-0.11742132144681425
-0.18509636162759957
-0.26235060767203183
-0.3526680209339324
-0.4571716132994918
-0.5762848450787093
-0.7025835254891077
-0.8191100182521664
-0.8990982992555154
-0.9231284429444399
-0.8940835354872381
-0.8377518370212831
-0.7770678215255719
-0.7278582895675612
-0.6917907560625909
-0.6669458560071888
-0.6478819054450488
-0.6290583930253744
-0.6034796229506076
-0.5676719583235182
-0.5191115970825169
-0.4601810081155997
-0.39310474902486586
-0.3223562392871988
-0.24929460653288887
-0.17732844308558013
-0.10580731415344992
-0.03771918222504276
0.027545357522548847
0.08606622853185283
0.1367122904336264
0.1756458590651849
0.2016216093648048
0.21453918744117642
0.21588942864307192
0.20921097929100227
0.19718477387979322
0.18316702169631172
0.16857983115589042
0.154624957364349
