# vtk DataFile Version 2.0
00002087.nii_R_ICA_labeled
ASCII
DATASET POLYDATA
POINTS 248 float
75.138239582052 74.7117658144552 31.794364709428955
75.32515025329654 74.93111092550329 31.71128735485425
75.52748687046578 75.13388918435534 31.622439683930764
75.74380073553405 75.3190188745095 31.52814877748139
75.97217862561061 75.48621152906412 31.428912101146555
76.21125384280217 75.634546610636 31.324992942372788
76.45925046417715 75.76400241399774 31.21682893959894
76.7148440359645 75.87376179940867 31.10464153107989
76.97643457234217 75.96383127937342 30.988798144383523
77.24270316637516 76.0333197760757 30.869491688646367
77.51211897012293 76.08215202602229 30.747059060733907
77.78323494172726 76.10956978240092 30.621745209717684
78.05447830916096 76.11511330359566 30.49387052971793
78.3242125645426 76.09841928899682 30.363796297192327
78.59066163918544 76.05887704748295 30.231905171863428
78.85196689073962 75.99629780842422 30.098664494440595
79.10623822005495 75.91075720518772 29.96459173174291
79.35156007118931 75.80252755608727 29.830239396968402
79.58607931341328 75.6722240257451 29.696181310333117
79.80803542269793 75.52074623270877 29.562988565043508
80.01608850865432 75.34960959825237 29.431172296466258
80.20913996632977 75.16045069276448 29.301166975995027
80.38643688223239 74.95508858290532 29.173306303933682
80.54750524771747 74.73537802284662 29.047822060984096
80.69213844749777 74.50316648606638 28.924842375345808
80.82059415500889 74.26036866625853 28.80436113176718
80.93318011698426 74.00865290613314 28.686308320560535
81.03009378886689 73.74944091865908 28.57058076528748
81.11209609200226 73.48422086924731 28.45695219335877
81.17964235165509 73.21416107207415 28.345211233807913
81.23326681440203 72.9403275649115 28.235110748946802
81.27371979246406 72.66369833346414 28.1263687202067
81.30133896120903 72.38505967478223 28.01873811024133
81.31696668315742 72.10517401774808 27.911933127342973
81.32104376542415 71.8246569805849 27.8057131034133
81.31423097550832 71.5440585251369 27.69984525345532
81.29716731070081 71.26383525139204 27.59413263834581
81.2703616643775 70.98437496074116 27.48841733022982
81.23458732625271 70.70596184120515 27.382589782944766
81.19039064709568 70.42882473886664 27.276590066839542
81.13844197034544 70.15310241233475 27.17041378055623
81.07941194265341 69.87885591759976 27.064111997390754
81.01381478776581 69.6061123559785 26.95778952801468
80.94224587579835 69.3348213099241 26.85160137429126
80.86519103580002 69.06490970594979 26.74573523427704
80.78297897794928 68.79631257710058 26.640404855122163
80.6959038544026 68.5289601439978 26.535818135049695
80.60414196563416 68.26281804787163 26.432155327307303
80.50770671730741 67.99791777468529 26.32955911268922
80.40649827475346 67.73436235789946 26.228104311814228
80.30037810805128 67.4723181233308 26.12776147565278
80.18908449504235 67.21204832046148 26.028410712420033
80.07222003634422 66.95393601837898 25.929833321746752
79.94950620320465 66.6983900267583 25.83168277284684
79.82059134797946 66.44591833410294 25.733527151186237
79.68504706686761 66.19715982772668 25.634827176360133
79.54266060310744 65.9527222166538 25.53497844957473
79.39321025312479 65.71329822141107 25.433324732911142
79.23644312482574 65.47971906301713 25.329131362554264
79.0724161728487 65.25267010017012 25.221736297574953
78.90107628591139 65.03303804391807 25.110412437699555
78.72256378876757 64.82164400456399 24.99451395198756
78.5370926880221 64.61933099645329 24.873454689417056
78.34487586478214 64.4270892889601 24.74665103908823
78.14633661049777 64.24571703150978 24.613729098497622
77.94177866652944 64.07638604921178 24.47421990399087
77.73177891565636 63.91988045621047 24.327986630294955
77.51675570822043 63.77758176283836 24.17471656637585
77.29741541664191 63.65030961581934 24.014515401213213
77.07436064137022 63.539576416279715 23.84731842012818
76.84842700529349 63.44638071644101 23.67343824763467
76.62048290775198 63.372192628626436 23.493158239959648
76.3915755395798 63.31834314356099 23.30698786864281
76.16290452432804 63.28603118466689 23.11562418458037
75.93587869298061 63.276812001224926 22.919855367646065
75.71211096488992 63.291773739821025 22.720738344299566
75.49341598370677 63.33187112385388 22.519487544303203
75.28182589360327 63.39786753324143 22.317478086705318
75.07954063232125 63.49014072071195 22.116235876124946
74.88886104735312 63.608602517792605 21.917391098072343
74.71208430895166 63.75261510560554 21.722611240249172
74.55128880873498 63.92084380276366 21.533480636179704
74.40829154586979 64.11147049170707 21.351437685845394
74.28448914351465 64.32221035871704 21.17768513429586
74.18077486290927 64.55046034872656 21.013133763465433
74.09750835523552 64.79347207619878 20.858379054890328
74.03454086795938 65.04852200066377 20.713712184520123
73.99128261013506 65.31305299253687 20.579158373893904
73.96691287283045 65.58480726030167 20.454593981369104
73.96024869040828 65.86178477743316 20.339685309197712
73.96985215540144 66.14231175439498 20.233937670181145
73.99445143689141 66.42508591195609 20.136934023568497
74.03262937894449 66.70906032177082 20.04816175369345
74.08291762150547 66.99344790851087 19.96705353055003
74.14415236024412 67.27767476939226 19.893215216864885
74.21490012818352 67.56134832065972 19.826033346269824
74.29418675181331 67.84419129055458 19.76516497751396
74.38077902295908 68.126064454617 19.710006397811988
74.47387200704107 68.40686262623129 19.660199440075502
74.57247872002671 68.68657922798162 19.61513119258307
74.67597055830137 68.96519137051287 19.57436920539104
74.78360419115953 69.24274166476229 19.537241807430725
74.89493463549715 69.51922667101057 19.503184902600356
75.00945106161711 69.79468337724542 19.471430319615134
75.12686332085582 70.06909473292846 19.44123220347731
75.24687167188927 70.34245524548587 19.41171346414023
75.36930218074232 70.61471246791143 19.381945367144336
75.49401942317627 70.88578736728131 19.35091090621155
75.62090883048782 71.15557505366897 19.31755783635378
75.74992966912993 71.42388985451616 19.280695866374547
75.88096451159132 71.69054730268165 19.239216051583934
76.0139206558099 71.95527437684055 19.19190807963223
76.14865623780625 72.2177324810255 19.137537164892176
76.28493934727044 72.47756143963366 19.07502257601094
76.4224867232077 72.73430485472205 19.003228812300925
76.56091937792452 72.98743927107547 18.921082969134588
76.6997553711227 73.23645307231486 18.827794086439862
76.83843558766777 73.48077267672042 18.722623604050373
76.97630196748518 73.71975114682736 18.604870443895333
77.11263876419821 73.9528563266407 18.47427390378584
77.24668456066486 74.17956854240103 18.330699919960637
77.3776447205995 74.39941724642141 18.17418521737189
77.50468440307166 74.61196888953937 18.0048830642886
77.62707346625572 74.81704918176715 17.823382095366142
77.74409908698222 75.01454005023837 17.630293245031126
77.85505176925916 75.20438441357184 17.426256462046073
77.95937423015775 75.38675887646835 17.212155960445603
78.05661021055828 75.5619643559162 16.98892425088406
78.14627062165577 75.7302981427875 16.757384446575834
78.22805520523806 75.89225467383174 16.518495455548234
78.30175281144133 76.04839399413105 16.27318415714445
78.36701131066252 76.19919840995874 16.022208168081548
78.42383353633988 76.34537515272882 15.76648637673773
78.47203979700926 76.48751333001647 15.506747835852117
78.51157177018442 76.6262618795798 15.243731252024922
78.54246885391719 76.76228019630057 14.978143283107833
78.56460117046079 76.89616471225177 14.710602464445426
78.57815296812028 77.02856065482538 14.44175141619708
78.58305235736842 77.16003742243763 14.172152675153631
78.57945472987288 77.29116660534818 13.902364354341913
78.56744748562707 77.42247688039339 13.63290684932327
78.54708350176325 77.5544773207094 13.36429000884027
78.5185981285917 77.68762608112266 13.096981406688743
78.48200282418584 77.82238633472299 12.8314736240532
78.43753852056516 77.95914955549742 12.568201426364435
78.38533461614671 78.09829372781556 12.307611144591466
78.32546419848607 78.24018753514169 12.050171890048423
78.25815494762915 78.38509934149519 11.796276262803776
78.18343908808447 78.53332741224565 11.546398608700105
78.1014404552737 78.68507896080536 11.300960470297351
78.01228043228042 78.84049611029835 11.060360915509818
77.91590744120894 78.99974605359466 10.825108840560848
77.81245232459955 79.16282998085667 10.595562288548978
77.70194536638931 79.32973351899157 10.372128774795561
77.58431148823783 79.50043282222371 10.15530000543179
77.45968025594546 79.67473668786312 9.945359289253442
77.32806049590121 79.85247055699756 9.742684448498432
77.1894396783943 80.03342664569765 9.54767428923256
77.04397941924387 80.21729090114682 9.360525757756106
76.89174818819379 80.40377577589085 9.181531780520539
76.73284500980935 80.5925689749215 9.010954906631099
76.56751450296777 80.78331316933752 8.848868638418365
76.39592156592934 80.97568720118697 8.695446905221939
76.21829785447447 81.16936220042223 8.550775212750619
76.03497333231812 81.36401046654434 8.414780249824258
75.84619688444565 81.55933807123485 8.287493962066401
75.65230754156646 81.7550556430021 8.168780334177658
75.45367138892668 81.9508954483226 8.058405286478838
75.25056180427711 82.14660500440073 7.956242520861695
75.04335366741134 82.34194704695489 7.861905178943433
74.83235883292122 82.53669767094445 7.7750279720122455
74.61781360285438 82.73062517170263 7.695294865177753
74.40002308198719 82.92352592698168 7.6221378884111175
74.17917205270342 83.11517427089959 7.555116526187109
73.95543350003038 83.30534757704119 7.493702140769722
73.72896872367701 83.49384058103253 7.437299839808206
73.49983828838242 83.68040367370955 7.3854247576472485
73.26815471994345 83.86484873537556 7.337461070357962
73.03397409355888 84.04697539930196 7.292880249066359
72.79733486396009 84.22659137972235 7.251187421857719
72.55833892261548 84.40360272944523 7.211863191725843
72.31705373127771 84.57791104769943 7.17449002496568
72.07361019567476 84.74952360960319 7.138668539450873
71.82818292503883 84.91854011089244 7.104057749586101
71.58094822309066 85.08509775114186 7.070400639549568
71.33217563132213 85.24949919142944 7.037479730264211
71.08215138488713 85.41211226288682 7.00516067515778
70.83119089019517 85.57338524249455 6.973385097425478
70.57966602759387 85.73388261541486 6.942147739940889
70.32795296193481 85.89420188037346 6.91151725891371
70.07645089588301 86.05499028179942 6.881622920468219
69.82555447030971 86.21688505860186 6.852627491279743
69.575657064214 86.38051055528601 6.824745883992896
69.32713300273674 86.54643535055529 6.798217091716111
69.08029890274858 86.7151045903463 6.773271659755744
68.83544699088375 86.88689490900377 6.7501626678866335
68.59278917484022 87.06202980063146 6.729113851472913
68.35243522092199 87.2405626731221 6.710299066119989
68.11443782604795 87.42245836312304 6.693888508093428
67.878712893867 87.6074944215246 6.6799738493046235
67.64505688869237 87.7953069145271 6.66857826425873
67.41319231455081 87.98546246119415 6.659713785262743
67.18270294344178 88.17738047259989 6.653286998493596
66.95310195920503 88.37042412177826 6.649161481018466
66.72384178188858 88.56390683811686 6.647197792452522
66.49431967707075 88.75708871026718 6.647147707722517
66.26392624011383 88.94922342831653 6.648766254758542
66.03203745951608 89.13953286191777 6.651780367206066
65.79810325488369 89.32730098031276 6.655855174547735
65.56159881092735 89.51180257199898 6.660651214148016
65.32207660543968 89.69235790517618 6.665788758406088
65.07923326321277 89.86842125795171 6.670858005694589
64.83282422962007 90.03947183250607 6.675418769221932
64.58274598333206 90.20513432294902 6.678995762143896
64.32905101456097 90.36522854426788 6.681103350068492
64.0718499283192 90.51964175757223 6.681212761753137
63.81137965097114 90.66845408566522 6.678782814810716
63.54798984185734 90.81195210115956 6.673297679531615
63.28205081575083 90.95047967941481 6.66419319411215
63.01401525251906 91.08456051610082 6.650937771176533
62.74438187132798 91.21484787969268 6.633057246669968
62.47365041190851 91.34200883914629 6.610005319574709
62.20236736876258 91.46683240212529 6.581349063612601
61.93108111234719 91.59011558437085 6.5466852609507775
61.66036791536587 91.71264711401452 6.505496052869242
61.39079951575286 91.83522300054155 6.457502447065534
61.12296664896985 91.95857774382893 6.402329357986329
60.85749386974368 92.08340270230855 6.339584594012266
60.59495508218051 92.21026508080628 6.269070370142796
60.33597382737052 92.33966028336697 6.190470495467839
60.08115914400907 92.47195985244448 6.103536661167119
59.831043390257854 92.60736673800983 6.008156230734026
59.58620218642622 92.7459986778899 5.904117628919522
59.34713980400478 92.88781666258936 5.791308237829308
59.11424836925341 93.03262770917796 5.669735114036783
58.88795001778441 93.18017079301318 5.539316515275896
58.66857207792057 93.33006737455456 5.4000587709119365
58.456303467876666 93.48184301078535 5.252090763242312
58.25138735743339 93.63499376805053 5.095428449534809
58.05395040322172 93.78895259255304 4.930189669394172
57.86401036290311 93.94313224997916 4.756579948251958
57.68171365290109 94.09693268508529 4.574638758914828
57.50699707906828 94.24975713468255 4.384618546034209
57.339863276160195 94.4010156039537 4.186687776250041
57.18035183717465 94.55010559398838 3.9809755007416046
57.028324588478924 94.69649354900614 3.7677903034364046
56.883892831308906 94.83956037372756 3.5471979983760242
56.7468412582216 94.9788461598763 3.31958864468229
LINES 1 249
248 0 1 2 3 4 5 6 7 8 9 10 11 12 13 14 15 16 17 18 19 20 21 22 23 24 25 26 27 28 29 30 31 32 33 34 35 36 37 38 39 40 41 42 43 44 45 46 47 48 49 50 51 52 53 54 55 56 57 58 59 60 61 62 63 64 65 66 67 68 69 70 71 72 73 74 75 76 77 78 79 80 81 82 83 84 85 86 87 88 89 90 91 92 93 94 95 96 97 98 99 100 101 102 103 104 105 106 107 108 109 110 111 112 113 114 115 116 117 118 119 120 121 122 123 124 125 126 127 128 129 130 131 132 133 134 135 136 137 138 139 140 141 142 143 144 145 146 147 148 149 150 151 152 153 154 155 156 157 158 159 160 161 162 163 164 165 166 167 168 169 170 171 172 173 174 175 176 177 178 179 180 181 182 183 184 185 186 187 188 189 190 191 192 193 194 195 196 197 198 199 200 201 202 203 204 205 206 207 208 209 210 211 212 213 214 215 216 217 218 219 220 221 222 223 224 225 226 227 228 229 230 231 232 233 234 235 236 237 238 239 240 241 242 243 244 245 246 247

POINT_DATA 248
SCALARS curvature float
LOOKUP_TABLE default
0.26827091281735743
0.26203511478274816
0.2555798589443884
0.24941244800174317
0.24396723325181682
0.2396342294808464
0.2366669854173834
0.23529146300198822
0.2355655445028816
0.2375213698976443
0.24099341692116824
0.2457411810420619
0.25139919195019905
0.2575087425769851
0.26348864308843145
0.2686302692666796
0.2722380014795167
0.2737185840120723
0.2726347603622501
0.2687957568217085
0.2622935431609203
0.25348498283683607
0.24286589362278083
0.23102933363006464
0.2185483755959493
0.20595757192061892
0.19367950234965572
0.18199828980857596
0.17105780437095108
0.16094385285828758
0.15168325788500264
0.14321303328306542
0.1354360310724359
0.1281925205445902
0.12132184211941129
0.11465804538120984
0.10806106348523921
0.10142302816269133
0.09470555040746326
0.08793230449077495
0.08121079066779507
0.07470978683752853
0.06868106320165814
0.06343084569518784
0.05924682305572011
0.05637770988802402
0.054939438802050954
0.0549025465024126
0.05617205661926068
0.058592321361110464
0.062041050336430766
0.06641393458350428
0.07164671090325543
0.07766276166535524
0.08438821981520113
0.09170924403482111
0.09945577020546703
0.10748497371103141
0.11566620211656743
0.12390058882581878
0.13212942279844758
0.1403260332757219
0.14850339663623566
0.15672168324843977
0.16509007645319373
0.17372746978296696
0.18271955456828623
0.19217999476462455
0.2022061501124315
0.21289444008745498
0.22428224991432286
0.23635909957238166
0.24904533759559003
0.26217117029867015
0.2754501466628454
0.2884528406046264
0.30063806598152193
0.3114836625156701
0.32035605329815064
0.326508539905237
0.3292301480340705
0.32814082957159735
0.3230890645694682
0.314270579397003
0.3021017789320976
0.2872226971923291
0.2703260267468422
0.2521482885881854
0.23333407072473267
0.21446032013660493
0.19599125028835135
0.17823730657785541
0.16138140470794618
0.14553484295818103
0.130809609856844
0.11721279235855478
0.10471828104825387
0.09322294983458
0.08260474513954402
0.07270920690481743
0.06340361611096268
0.05460097973748557
0.046368549339940994
0.039020845865985414
0.03341679998183742
0.030985704415376365
0.03306520392086049
0.039452714562149084
0.0488329191557997
0.06003507564345735
0.07223979450192493
0.08492069264242397
0.09766727106795577
0.11013057341283031
0.12198317890192197
0.13295168496726456
0.14281140079850468
0.1513308133975501
0.15826743913710997
0.16346438389117593
0.16683192595459123
0.16833993946280384
0.16804209139564943
0.16608272477143268
0.16266719430810125
0.1580197780698572
0.15243564406875418
0.1462025073016957
0.13961683489134136
0.13296233679829947
0.12646547592456872
0.12031595419982614
0.11465810215090788
0.1096149827412834
0.10526017150818848
0.10162206175076706
0.09870747550497878
0.09646550159316089
0.09484932752486869
0.09378570745456011
0.09321231109657975
0.09308331026545022
0.0933616647296092
0.09403183201318123
0.0950735533665343
0.09647194078414603
0.09821056470568888
0.1002520411299675
0.10254307320243189
0.10501554480757001
0.10757891247563078
0.11014352391102784
0.11261163441399355
0.11489538451883995
0.11692038568991618
0.11863037392036292
0.1199779817826814
0.12091890246830217
0.12142541865282355
0.12146670098366184
0.12101705784591896
0.12006788769791196
0.1186003623743643
0.1165997271427484
0.1140595166703507
0.1109728964164936
0.10734764437515906
0.10322169615912524
0.09863591364025402
0.09366182514642232
0.08837955769697448
0.0828887742314953
0.07731653728669184
0.0718074291638846
0.06652816093176858
0.061635824984284424
0.057264432888843995
0.05348045698250547
0.050254673711750374
0.047456779828535
0.04485084868867688
0.04214671651951775
0.03905931632024825
0.035339667171879585
0.03079786319143677
0.025350562627790025
0.01907877798030812
0.012429204689151784
0.007497427459405404
0.0100233431722156
0.017394058078063452
0.02552040836774686
0.03331572427978204
0.040239836108997534
0.04590008610155848
0.050016828228567255
0.05238041406428656
0.052871433929747566
0.05140244728682731
0.04807595794176094
0.04315265358439667
0.03703238431605224
0.030439653755482934
0.024636750688988625
0.021893775138336992
0.024096679804553354
0.030363087721749983
0.03852053276376853
0.04711055059609424
0.0553296016349893
0.06264511403252515
0.06868055494286911
0.07320510105948264
0.07611431707768021
0.07744552200290612
0.07733511219299244
0.07604598197935955
0.0739673382006653
0.07156359398039129
0.06939184795695437
0.06800182913644083
0.06790749156661172
0.06940781550810304
0.07254106716109023
0.07712761543680426
0.08279246789221963
0.08912199723010707
0.09570079889153359
0.10215809907840435
0.10818780579587944
0.11355143246998362
0.11808803672583733
0.12169862621545004
0.1243591570655656
0.12614223683000622
0.1271434968544027
0.12748154212995952
0.127296802556147
0.12675375006983888
0.12601953100167612
0.125229829829529
0.12449357965716126
0.12388455852535935
0.12344849960361301
0.12320719897517665
0.12315515029164666
0.1232819632028569
0.123558860604455
SCALARS torsion float
LOOKUP_TABLE default
0.034523019319573994
0.037746002167405125
0.04095203006336945
0.0440101841984676
0.04681554159332347
0.049167534967879345
0.050934613804176826
0.052007137956150154
0.05235915305883652
0.05203918972272271
0.05123244127226041
0.05013570582969634
0.04903890724024511
0.048130572303019814
0.04756680178828987
0.04754813020631089
0.04814717553152889
0.04947721687493475
0.05143811645802303
0.054045234093800375
0.05722124970451329
0.0609185976526989
0.06513894948048769
0.06983488740315272
0.07506762984025317
0.08082084532032417
0.0869276446303575
0.09321664638349925
0.0994493896674127
0.10524318368609416
0.11011257340455353
0.11351396084091855
0.11486972624826619
0.11376596288339086
0.10959160660982278
0.10193071164954927
0.09001276961346494
0.07395245514936696
0.05404035647468521
0.02895085859625247
-0.0026117825740548106
-0.041024080340939816
-0.08131517481016043
-0.118794270852393
-0.1425932753379677
-0.1420638745000273
-0.11064598031901539
-0.05013587888748483
0.026821567298787166
0.10713893906625394
0.17513847060155327
0.22427812975027808
0.2553568004683254
0.2717561912265243
0.2755739524256241
0.26832016158530037
0.25476359964318224
0.23674465900553623
0.21678153752958293
0.1954157802389343
0.1736792641147457
0.15181864550101096
0.13016706967803557
0.10962650372018262
0.0903234050127947
0.07237110373604554
0.05584529758999293
0.041012668733545095
0.028571188243436595
0.018406518488321224
0.011142520195063926
0.00654408964207431
0.004794051078020653
0.0057153747821189526
0.009022312483569559
0.014588829271986428
0.021502077874387515
0.02926552306706813
0.03747683172385304
0.045865727829276545
0.05359269063035767
0.05970147527670843
0.06378540295840524
0.06524215360703677
0.06408111361021646
0.06015308606208611
0.053678072237631484
0.044942515412101806
0.034175231506414896
0.02258293724728435
0.009773234069205203
-0.003966575614487389
-0.01884043536179941
-0.03295249459549893
-0.04535217617022481
-0.05436715099090061
-0.05745512142583954
-0.05214852919178904
-0.034113062324741254
0.0018804098147909122
0.0640567118919412
0.16537227584344136
0.32382357142660373
0.5658966105452113
0.8870786996832712
1.1288015587459836
1.046293552105019
0.7587536294279899
0.5041385805603109
0.3401988513118198
0.2414634397408647
0.18238061225017177
0.14700858484405072
0.12531173545948845
0.1125463003583361
0.10499780836629159
0.10116468863397152
0.10003911837409993
0.10128700562137925
0.1041411045663126
0.10849504218890721
0.11413073492918248
0.12107401888190912
0.12936941884571343
0.1390800261178373
0.15027681610502602
0.16286587042589648
0.1768870681065277
0.19217588207902414
0.2083389209508656
0.22507105776296324
0.24160048101797996
0.25717363683626054
0.2704374642320581
0.28085199807819045
0.28727531205924334
0.2896120834191316
0.2877655214586782
0.28218593182703977
0.2737166559482493
0.26291797194604266
0.25069907878132064
0.23704617760822047
0.22165430615693937
0.20452790695831527
0.1853380333594028
0.16427363657425562
0.14157206394566874
0.11772313051733736
0.09362542293903445
0.06989515625289716
0.047576268828954424
0.027412954328025586
0.009855730480687105
-0.00429010889710231
-0.015341492599245523
-0.023356600331268167
-0.02859116628779519
-0.03133361476346635
-0.031783950251749085
-0.030690223481049172
-0.028273784100923308
-0.02553599239013437
-0.022881113425829908
-0.021222289164138125
-0.02130432962460125
-0.023755313645006087
-0.029451496008982714
-0.039024912216639805
-0.05320167025971032
-0.07292980088708595
-0.09883185479860636
-0.1318804469086042
-0.17036499483693696
-0.21361094880194537
-0.25696618007480937
-0.29569290220368216
-0.32292738344137795
-0.3328078106966368
-0.32363913895885604
-0.29727983905230804
-0.2573597893933607
-0.20825317658344455
-0.14819769907958677
-0.06924472415697992
0.05741206549223837
0.314333439942161
1.0973172647680796
3.4774745700508096
1.987743554017817
0.5996749806843606
0.21694379709588227
0.07692510169652303
0.010112158528379267
-0.029810704517785485
-0.058920435754987156
-0.08611755903439548
-0.11725135829506245
-0.15922419279454633
-0.22002852947405122
-0.3168074555924628
-0.48289869442361283
-0.7818214358443788
-1.2708095328052589
-1.681103361203167
-1.4276225008801968
-0.9130000407712499
-0.5756620978813491
-0.39279026188571486
-0.29554175854242215
-0.24578222564773705
-0.22422805583590288
-0.22132027389825257
-0.232971237930665
-0.2562017082404703
-0.29113220998605005
-0.33616852070521536
-0.39061819386222396
-0.4507436764057477
-0.5090862568284054
-0.5542652807155591
-0.5721894494705773
-0.5551382306461579
-0.5064740079102523
-0.43775150873268315
-0.36194304047915127
-0.28814565460211533
-0.22194438807171554
-0.163575527048773
-0.11353185431960984
-0.06976768151836533
-0.0319913079662106
0.0012907950638821823
0.029890068582975996
0.054181206856945864
0.07512530416498474
0.09329504420483288
0.10850509751649957
0.12004455257792836
0.12806163435743073
0.13337190298147253
0.135920752007254
0.13656688626958108
0.13537964413317688
0.13304440266453857
0.12978746183671885
0.12586677270573773
0.121480646681318
