# vtk DataFile Version 2.0
00004708.nii_L_ICA_labeled
ASCII
DATASET POLYDATA
POINTS 269 float
114.54011787993578 81.2005564273658 37.227859689710996
114.38634610684488 81.34877231610791 37.017248583079706
114.22044707008938 81.4838870990217 36.807031491368875
114.04299983597986 81.60502417767722 36.59772961742023
113.85475609773846 81.71143170587506 36.38985759159608
113.65661529308873 81.80250078743907 36.18390315618893
113.44952476167335 81.87763067949639 35.98033377463908
113.23463538241663 81.93655856983094 35.77953267270784
113.01315741035584 81.97922061885832 35.58179773461092
112.78626565332917 82.00555002413398 35.387373260497505
112.55513606104815 82.01551677702548 35.19644152807056
112.32101687576824 82.00958470451395 35.00901467199809
112.08504933820052 81.98803557525316 34.825076790901555
111.84834939914444 81.95116802770133 34.64454004486958
111.61198912541485 81.89970542096806 34.46715390653192
111.3769657744563 81.83418780952174 34.29264249745766
111.14425669175573 81.7550884296463 34.12067198687973
110.91471582824661 81.66327768419148 33.950771149454674
110.68916292723797 81.5594563913847 33.78244644424616
110.46841829456363 81.4442494758532 33.61515452523039
110.25319429761906 81.31846407491504 33.44828826422036
110.0441497924864 81.18290448078626 33.28121949996321
109.84194032872026 81.03831802847195 33.113306011003445
109.64727504006638 80.88538141947697 32.94388059504626
109.46075685059792 80.72488342055163 32.772300089544906
109.28297717899765 80.55759226990082 32.59795595875201
109.11456691984174 80.38423130792094 32.42027177949321
108.95626173897477 80.20547462455293 32.23868801030528
108.80870525117318 80.02205687856822 32.05275620669273
108.67251359670828 79.83470677145688 31.86213630272786
108.54837439340338 79.64411103920727 31.666568768501275
108.43717928034286 79.45091198397265 31.46583926652085
108.33940540227015 79.25581040026444 31.26003387619722
108.25569220811926 79.05943248027062 31.049302176387098
108.18690350081418 78.86237368101298 30.83386117077882
108.13334155834148 78.66521890871498 30.614229742212213
108.09548511450012 78.46849532541263 30.390972656102097
108.0739169813555 78.27270705015641 30.164746763560633
108.06861136571086 78.0782851902576 29.936388954604322
108.07978693685425 77.88564454298339 29.70673581029849
108.1075246497691 77.69517605148884 29.476674615599332
108.15149393493455 77.50720704353049 29.24708789579335
108.21153172823502 77.32209158160474 29.018823053451214
108.28738934696806 77.1401941217692 28.792689434334537
108.37845710358155 76.96182991216816 28.569373247941172
108.4842496125509 76.78737056451006 28.349485606132898
108.60429474477874 76.61723803226181 28.13355866149987
108.73806447280744 76.45188655279114 27.92202798204013
108.88489473310113 76.2917581869763 27.71519465123551
109.04423695862533 76.13737358234889 27.513313914357912
109.21555857408856 75.98930715317034 27.316575373222076
109.3983481309526 75.84819300764866 27.125117457430164
109.59211657582263 75.71472963690788 26.93904433091176
109.79639494425396 75.58968589385601 26.758443167450647
110.0107704626499 75.47395235258494 26.58342677345964
110.23475807231331 75.368439739579 26.414085031021713
110.46787681633607 75.27416057784853 26.250547165198938
110.7096181130487 75.19223531099898 26.092990076864027
110.95940538562999 75.12388230460701 25.941641883958898
111.21656146951545 75.07041213303003 25.796792009343356
111.48028787800027 75.03326521138955 25.658819939540287
111.74962940669108 75.01409700059074 25.528241962798738
112.02329174501718 75.01422178373983 25.405501947253715
112.2997947166162 75.03519995005456 25.291230457426998
112.57732652974545 75.07872752497461 25.18621987810557
112.85373333168982 75.14565223993995 25.091034544120582
113.12649268439215 75.23733998141518 25.006594376762276
113.39293887812181 75.3538505841076 24.933394517401492
113.65017292122738 75.49525144890256 24.872057389363654
113.89531476151525 75.6608304092367 24.822959178812123
114.12589155022116 75.84897226686427 24.786083369794177
114.33955275083488 76.05793703963737 24.761374468440238
114.53476829115564 76.28520239318219 24.748291586896787
114.71061248471104 76.52812767017082 24.74609065562682
114.86644906425072 76.78424780820745 24.75399678185784
115.00266651058767 77.05091681483701 24.770866813641227
115.119567980699 77.32600820083076 24.795726854269155
115.21807157212754 77.60753236080848 24.827445028852893
115.29928305054251 77.89383904059639 24.864917722897314
115.36419155258334 78.18363302444351 24.907145118438738
115.41396548428972 78.47584748841749 24.95311965118167
115.44984762462258 78.76964878872612 25.001866954229932
115.47293628362192 79.06442103111338 25.052484097926417
115.48428146429899 79.35970956660785 25.104102284096314
115.48487298915607 79.65519074550174 25.155882941670537
115.47563528869699 79.95064447124474 25.207013418894256
115.45738854898137 80.2459287533306 25.256692102758002
115.4309615876053 80.54096115482858 25.304144463791836
115.39710768739978 80.83569926154934 25.348617623195672
115.35651301420353 81.13012340756671 25.389375040233837
115.30981673954463 81.42422283282424 25.425703636705208
115.25761590052109 81.71798370567619 25.45692093227562
115.20046175384843 82.01137864715525 25.48237368101193
115.1388458388769 82.30435679081674 25.50140015485626
115.07331812710373 82.59685180995461 25.51351868645311
115.00435711526742 82.88876920827013 25.51825152766928
114.93241311339146 83.17998792505567 25.515166012807974
114.85790737573089 83.47035708047996 25.503846715891065
114.78129747037237 83.75972822581824 25.484142733812117
114.70298802759633 84.0479332550831 25.455881112651376
114.62335377340116 84.33477481336979 25.418820576172
114.54279499890919 84.62009389162758 25.373037474523006
114.46167535434755 84.90371926866722 25.31854621193296
114.38034400858712 85.18545546584286 25.25527623630881
114.29914230470757 85.46514810866768 25.183364977230312
114.21838994388568 85.74263958405157 25.102925161002933
114.1384002270691 86.01774528109355 25.013977174893554
114.05947579499957 86.2902858935549 24.916583046950993
113.98189458178447 86.5601045944568 24.81088611458427
113.90593418766821 86.82701421125716 24.69694576878043
113.83189540233862 87.09077329139498 24.574706487144354
113.7600297021905 87.35120539969407 24.444311349659948
113.6906033090155 87.6080961548026 24.30582164842363
113.62389570435525 87.86120880174445 24.159272741866378
113.56022006677361 88.11026626237239 24.004650571007925
113.49982882314804 88.35508082460841 23.842138164278417
113.44301716725234 88.59542061131874 23.671842086947805
113.39011645402489 88.83103089397473 23.49385070251829
113.34145676897857 89.06168736783155 23.308321501423322
113.2973260723617 89.28724242075491 23.115530825370087
113.2580498634074 89.5075342476824 22.915730682374136
113.22402041051555 89.72236665011184 22.70913856732577
113.1955205985629 89.93169311773595 22.496157244584392
113.1728488919969 90.13548243596635 22.27718957839755
113.15632906212265 90.33371817746973 22.052642933294766
113.14631338399978 90.52640753489067 21.822942852391957
113.14299896294253 90.71373182020365 21.58865654581396
113.14664073566513 90.89586077988034 21.35031276756612
113.15753870292122 91.07297879017446 21.108439049080765
113.17590509704911 91.24537630372214 20.863624327285326
113.20189950854783 91.41340757774452 20.61647594393801
113.23571424156056 91.57743416507972 20.367588493804778
113.2776228381681 91.73781296591447 20.11755721013571
113.32772132046392 91.8950013791647 19.867007831578416
113.3861369023241 92.04944269814818 19.616551277154795
113.45300335164043 92.20157575662677 19.366795825197375
113.52856197848264 92.35181617295184 19.11837697172569
113.6127802411754 92.50062405649753 18.87188963183039
113.70571929982866 92.64840847413967 18.627933858913444
113.80744578939343 92.79555166208361 18.387116598306555
113.91800263032974 92.9424099620405 18.150047546255315
114.0372437973795 93.0893043361275 17.91724966983049
114.16507357629273 93.23650777335848 17.689253896785328
114.30145118969543 93.38425580731729 17.466626610729463
114.44612071989332 93.53272318701086 17.24978833630933
114.5988255296423 93.68203004684072 17.03912434589653
114.75934249436337 93.83224901567058 16.835017630589196
114.92742730229678 93.98340220159204 16.63780925682036
115.10269130674351 94.13544756637772 16.447663385031436
115.28482283323686 94.28831000861064 16.264763081353227
115.47358407522287 94.44188094929505 16.089329795544483
115.66860466910344 94.59599949076406 15.921383434011492
115.86956817023504 94.75048122144999 15.760943842246697
116.07620273643805 94.90512079141853 15.608034379947261
116.28830441169481 95.05969229131738 15.46273016440833
116.50555401913276 95.21396206283931 15.324904085178803
116.7277226793284 95.36769389427448 15.194518076267975
116.95460928878694 95.5206481887633 15.071550997617017
117.18604302098545 95.67258062897515 14.956015223629452
117.42177737888697 95.82327596970487 14.84778592844139
117.66162202745352 95.97252306492861 14.746823352016458
117.90540121672227 96.12011991697048 14.653116938714705
118.15294986812357 96.26587221458949 14.566687930438071
118.40403535634962 96.40963906596025 14.487435209415393
118.65846202882419 96.55128410294964 14.415339527939825
118.91604253443388 96.69068388423024 14.350421520057235
119.17657916457082 96.82773888892928 14.292707274071276
119.43982659604688 96.96241025473113 14.242124664693906
119.70556220120247 97.09466376997253 14.198672756324253
119.97357394185937 97.22447019801008 14.162414097945021
120.24361362321109 97.35185602586584 14.133327314350359
120.51542079147056 97.476887017202 14.111355308507093
120.78874086644068 97.59964586630382 14.096470882950868
121.0633270126393 97.72021881009903 14.088727944682045
121.33888909048488 97.83879441418435 14.08793000069173
121.61515852705685 97.95556188089827 14.093948361696366
121.89187107578321 98.07073393299991 14.106662791297685
122.16876210068969 98.1845783541711 14.125824378495992
122.44558297112616 98.29739938586081 14.151089750059683
122.7221051100967 98.4095190953947 14.182105762999749
122.99811499493019 98.5212854282954 14.218500590622394
123.27344147407206 98.63307077892382 14.259700387539525
123.54793962840827 98.74524621094308 14.30515301640491
123.82148715339014 98.8581935773814 14.354280666763623
124.09400627512004 98.97228050716632 14.406401938058382
124.36545636231723 99.0878474357358 14.460793552874614
124.63582131485514 99.20521453722867 14.516715072150632
124.90509590088107 99.32470607248068 14.57339344184284
125.17332801486572 99.44654857660286 14.630008497249236
125.44056299765784 99.57095943409584 14.68574476041453
125.70684735303506 99.69813538968792 14.739761044861694
125.97222843050542 99.82823136598964 14.79120317886144
126.23675224761584 99.96132839674722 14.839266732679658
126.50043407798093 100.09750267867085 14.88315000140413
126.76324603804667 100.2368454580945 14.922009600126678
127.02513691638485 100.37936052551385 14.955150075290293
127.28600145526492 100.52506081274753 14.98190884964507
127.54567157553758 100.6739783169268 15.001641619217388
127.803912116059 100.82615806695387 15.01375324881648
128.06045322385674 100.9816000208432 15.017879508203666
128.31495182082352 101.14036090661664 15.013673483250226
128.56698178167375 101.30255551882316 15.000802728896131
128.8160944648145 101.46828126145476 14.97914917032398
129.0618041444382 101.63766227738446 14.948698880270973
129.30356861495915 101.81087443578822 14.909482261842907
129.54075794802387 101.98816651106291 14.861534745451737
129.77276434478318 102.1697609396376 14.80509174992618
129.99894671885025 102.35590494472376 14.74043552671521
130.21860714151074 102.546875862288 14.667857228938598
130.4309748575023 102.74297420290314 14.587649035577108
130.6352220762737 102.94449261710675 14.50012667977716
130.83058630020852 103.15162247404012 14.405707560714472
131.01620096382734 103.36454915912557 14.304746237042766
131.19115154406524 103.58339076227116 14.197582630934129
131.35435153257367 103.80823431600749 14.084477171524332
131.5049892745178 104.03889910443606 13.965814492055774
131.64211621520954 104.2751464274294 13.841875589849469
131.76469696821258 104.51662039531412 13.712876848250414
131.87181281576522 104.76275903558555 13.579025409505181
131.96282324297118 105.01277885791828 13.440534756425631
132.03697811557248 105.26578951594344 13.297500367083739
132.09365986666506 105.52072598531042 13.149968892186878
132.13274703747896 105.77637216060869 12.99802419952478
132.15392581395872 106.0314381663054 12.8416179500664
132.15720255541999 106.28455112132727 12.68070614147784
132.1429597812967 106.53435007136754 12.51527476355783
132.11134063028365 106.77938851444972 12.345196233249347
132.0630117718752 107.01834360265926 12.170454815854448
131.9987086828232 107.24997445712002 11.991056837195398
131.91891736388834 107.47293111425329 11.806949359784396
131.8247166008727 107.68625482399807 11.618295437457679
131.71699216928846 107.88899632622632 11.42525531667036
131.5964756345812 108.08015592371734 11.228004760225549
131.46434054748963 108.2592839524692 11.026939753805486
131.3215303492983 108.42591638415455 10.822452060981936
131.16882592932188 108.57954901003312 10.614952256975164
131.00730036363728 108.72028144280996 10.404995584649063
130.83780492679907 108.84817025237297 10.193108894085249
130.66107578343863 108.96331600717423 9.979823412911152
130.4778803361124 109.06612720910528 9.765690358016917
130.2889220864813 109.1571698373182 9.551234795433292
130.09479316566302 109.23703691432195 9.336938733363663
129.8959837123757 109.30631697062461 9.12324595516734
129.69299004399522 109.36581228809054 8.910538274944715
129.48624398788596 109.41635113356838 8.699129192452027
129.27611426720944 109.4587455197706 8.48926812457775
129.0629308073168 109.49380710147045 8.281137224759792
128.84698862966553 109.52232217170618 8.074856193800127
128.62861492161116 109.54517809193209 7.8704369444633375
128.40810037562443 109.56316949660935 7.667835987732543
128.18573775048918 109.57706383284761 7.466937748168871
127.96182079396573 109.58757524682169 7.267564710534134
127.7366789588509 109.595417908621 7.069451186948895
127.51066580042577 109.60126290240399 6.872262109344463
127.2841554656036 109.60572076044858 6.675607415023752
127.05755547230841 109.60935970703687 6.4790389247869005
126.83131412720495 109.6127228929244 6.282052965391632
126.6059081702492 109.61631375306054 6.0841161222266305
126.38185273201923 109.62059736343518 5.884666286532059
126.15974186266065 109.62603325507624 5.683082242834347
125.94015732981966 109.6330230667011 5.478798265222274
125.7237375158776 109.64195479695609 5.271240796154911
125.51122160620476 109.65323330200737 5.059802378602464
125.30330955031431 109.66719804913602 4.843995347703959
125.10073408201319 109.68417050824232 4.6233846104262195
124.90434141151982 109.70449759101925 4.39753188060703
124.71490040851006 109.72844768723989 4.166167271589872
124.53314864040573 109.75624312224686 3.9291368920976013
124.359835118019 109.788084638271 3.68636584416441
LINES 1 270
269 0 1 2 3 4 5 6 7 8 9 10 11 12 13 14 15 16 17 18 19 20 21 22 23 24 25 26 27 28 29 30 31 32 33 34 35 36 37 38 39 40 41 42 43 44 45 46 47 48 49 50 51 52 53 54 55 56 57 58 59 60 61 62 63 64 65 66 67 68 69 70 71 72 73 74 75 76 77 78 79 80 81 82 83 84 85 86 87 88 89 90 91 92 93 94 95 96 97 98 99 100 101 102 103 104 105 106 107 108 109 110 111 112 113 114 115 116 117 118 119 120 121 122 123 124 125 126 127 128 129 130 131 132 133 134 135 136 137 138 139 140 141 142 143 144 145 146 147 148 149 150 151 152 153 154 155 156 157 158 159 160 161 162 163 164 165 166 167 168 169 170 171 172 173 174 175 176 177 178 179 180 181 182 183 184 185 186 187 188 189 190 191 192 193 194 195 196 197 198 199 200 201 202 203 204 205 206 207 208 209 210 211 212 213 214 215 216 217 218 219 220 221 222 223 224 225 226 227 228 229 230 231 232 233 234 235 236 237 238 239 240 241 242 243 244 245 246 247 248 249 250 251 252 253 254 255 256 257 258 259 260 261 262 263 264 265 266 267 268

POINT_DATA 269
SCALARS curvature float
LOOKUP_TABLE default
0.20597486602038906
0.2081682488591021
0.20932934688126878
0.20942091652951278
0.2084517184005823
0.2064774716821395
0.20358002919824492
0.19988123516913528
0.19550600411289784
0.19056532890388894
0.18516197644578852
0.17939145623352662
0.17333951952564403
0.16711022563948516
0.16081700586358627
0.1545624082502489
0.14845238725522403
0.14263660136194314
0.1373267195347256
0.13274817493813754
0.12912502401614218
0.1266470246426887
0.12546088981789344
0.12565088415850734
0.12720249259524746
0.13003227483471663
0.133984541601303
0.13884970209550418
0.144370344871959
0.150268565359135
0.15625985804202186
0.1620776497377811
0.16752582706018626
0.17244150268088837
0.17666499613338404
0.18008926012604887
0.18263943396775514
0.1842677113284621
0.18500759684889473
0.18493357160723706
0.18412892808402126
0.18267004880325177
0.18062792884246517
0.17809967891643563
0.1752179783068901
0.1721408950281542
0.1690592689473801
0.1661745509607803
0.16366856400189583
0.16174613980870198
0.16061798756943912
0.16049192625766662
0.16157655331698276
0.16405224114732597
0.1680678709137081
0.17369524672095527
0.18097749606491914
0.18993305596116566
0.2005083802566066
0.21260062866582524
0.22611367657068354
0.24088365500248127
0.2565351111793812
0.2724886547836197
0.2880317017854723
0.30240844125786975
0.31467232975336384
0.32398006640609023
0.32949165891461063
0.3304863307309264
0.326578650550051
0.31795124743150843
0.3053666901468126
0.289737870702006
0.27198553624142996
0.25300405437342893
0.2335171130073877
0.21409644293785696
0.19526821778210288
0.17744175157234732
0.16085583583543986
0.1456448394894752
0.13192947260570012
0.1198380339683995
0.10948478263824162
0.10094159491024546
0.09428815565333311
0.08953629519908744
0.08660200598115515
0.08529876797629758
0.08533882904904531
0.08638025011407421
0.08807649515824882
0.09013226397462708
0.09229581069066395
0.09435081696759934
0.09612697711240709
0.09752359383886441
0.09850955026593047
0.09910151863326294
0.09935301488749486
0.09934540002344788
0.09915508061946741
0.09887269605943556
0.09860294757202619
0.09844919587321958
0.09848344501716773
0.09874951257870655
0.09926852367704951
0.10003988914364699
0.10105200557023795
0.1022559066476295
0.10359216319879606
0.10500643068683689
0.10644721049943678
0.10785462716645916
0.10915966301087057
0.11029466080997014
0.1112074553685555
0.11185557464999256
0.11220497858433041
0.11222738623564352
0.11190000355017989
0.11119381049176794
0.1100993956695309
0.10866713101374598
0.10698189015247585
0.10514450168646093
0.1032725600923532
0.10149333396864241
0.09993307541055872
0.09871104482042105
0.09794695225042292
0.09771891794477935
0.09805382862032215
0.09893032544034103
0.10029006932765823
0.1020162504457775
0.10397247376230676
0.10603206758363179
0.1080696959472541
0.10995797462583999
0.11157107112464092
0.11279523342139332
0.11355944142916564
0.11381720668647351
0.1135825181065463
0.11290484510940674
0.11184200910456352
0.11044622012516667
0.10878503251707317
0.10695664066061057
0.10505789694106482
0.10316691069534355
0.10135270803924104
0.09966219024772346
0.09812298118374309
0.09674984427873946
0.0955392412058216
0.09447492866312651
0.09353520236796802
0.0926963936567693
0.09193456458012414
0.09122410561084246
0.0905424782612355
0.08987373696973726
0.08920360965316203
0.08851222818014129
0.08777721116361889
0.08695740693555058
0.08598990191321572
0.08480736937828727
0.08332825955180499
0.08146571592518088
0.07916511015696465
0.07638053956695605
0.07306189561442077
0.06916457274957194
0.06468312945525523
0.0596894457774344
0.054284237492292026
0.04862286593088916
0.042907056153346695
0.03742568224994184
0.03260453899774619
0.029062408702182414
0.027587115424620726
0.028739017255103496
0.032320528501218186
0.03769279057022542
0.04420233534318608
0.051346096709579264
0.0587619830183042
0.06621036585090213
0.07349976846139714
0.08046795847586459
0.0869777864056052
0.09291346039288635
0.0981860006518425
0.10276925569737214
0.10670645368008468
0.11007704609675208
0.11298488943633525
0.1155613369027772
0.11798000975738952
0.12044784718670612
0.12318180235214345
0.12638793829526834
0.1302223438862548
0.1347728030403576
0.14006612306852975
0.1460541256442323
0.15260910377133938
0.15955127652550358
0.16669532248896907
0.17383518748442256
0.18071500407167393
0.18704298011954126
0.19257482051995603
0.19715975491050908
0.20069913114857071
0.2032411089276752
0.2049082528799676
0.20578662722882946
0.20594929447679466
0.20552767771485692
0.2046812714268302
0.2035069635767793
0.20205637916115352
0.20030738845689525
0.19815765020568446
0.19543397067377055
0.19199008347709481
0.1877850382937213
0.18278370643736186
0.17697155883188354
0.17038695874007384
0.1630724667011964
0.15507455275678048
0.14650062311961304
0.13751101113191427
0.12824883531753795
0.11881880224852112
0.10931074981277933
0.09980120014798016
0.09034736913393297
0.0809843718348613
0.07173881500684122
0.06262380957619872
0.05362470371780805
0.04472170680302671
0.035906513427016715
0.027228500397989932
0.018929907178943856
0.01208063948864714
0.010682673707882397
0.016576037865917825
0.025320885108499405
0.035019627147459646
0.04517341812518262
0.055575741429933836
0.06610511718073428
0.07664867203518444
0.08709154989585989
0.0973061543706904
0.10714431866917253
0.11644856099841373
0.12505666934824486
0.132806019045423
SCALARS torsion float
LOOKUP_TABLE default
-0.05098669530641552
-0.05623639390057435
-0.061847840890885776
-0.06783833411445761
-0.0742025691851125
-0.080957708292876
-0.08815875609110976
-0.09586510928040252
-0.10429672583522244
-0.11363829323074337
-0.12411506973032442
-0.13602329895538232
-0.14953277599934994
-0.1647478159124313
-0.1819440639885788
-0.20134163212704131
-0.22329348907015628
-0.2464096232011025
-0.26956105827704957
-0.2912093620222725
-0.3091699163268199
-0.32121729010372174
-0.3245604764553604
-0.31812742372393527
-0.30219034309183007
-0.27805476460257633
-0.24813100522453846
-0.2150180668126873
-0.1804156593601012
-0.14536686457326228
-0.11051061396445465
-0.0785352858143141
-0.0499043399981689
-0.024224304463782508
-0.0013096903515421327
0.018937946415786548
0.03515079697133726
0.04740781462083424
0.0549667608896085
0.057613618991524264
0.05568425164314791
0.04955908099911841
0.039307423069318816
0.02496994055499198
0.006889196161655755
-0.012201735955847903
-0.03162887660909936
-0.05151245682141367
-0.07188871351636135
-0.09202698706215322
-0.1096460891715015
-0.1242318855917921
-0.13488775638440065
-0.14120200802063132
-0.14350134243085816
-0.14272580879578145
-0.13950544367981035
-0.1339139684503215
-0.12660268084918044
-0.11852899992890806
-0.11038012978981372
-0.10235328596340082
-0.09442758045575715
-0.08682772375096118
-0.07970961604285486
-0.07296058030557903
-0.06673078819399461
-0.06107775368662388
-0.05589176368945183
-0.05119776606219895
-0.04727471270357285
-0.04487943945141509
-0.04403485881940583
-0.04501107946818591
-0.04802218415122192
-0.0534508618890419
-0.0618268813123252
-0.07331286521185791
-0.08813922901523831
-0.10697117365538686
-0.13043795292007615
-0.1594155152698083
-0.19385145115269123
-0.2332217398004211
-0.27604280850746843
-0.3192920459675839
-0.35759873706607676
-0.38522812763372
-0.3966585706021735
-0.3902018597949612
-0.36789170201947885
-0.33472440826011396
-0.2989917787218548
-0.26409233733722254
-0.2312717588188468
-0.2013421442843316
-0.17561384356171145
-0.15504579319291464
-0.13907931428089867
-0.12706327733154005
-0.11844439976695573
-0.11163059156571052
-0.10593697719156209
-0.10096363950398198
-0.09629180296714437
-0.09168619268764225
-0.08706007178978115
-0.08242369493357907
-0.07789487926799567
-0.07359579674387627
-0.07014156968810475
-0.06815225963191657
-0.06765658876232392
-0.06850898399943746
-0.07074753492239692
-0.07440125006773685
-0.07957764158709672
-0.08586699239443041
-0.09279496313024947
-0.10044087488249699
-0.10864142217484679
-0.11758900258233161
-0.12775477864561557
-0.13959413263134976
-0.153060749314048
-0.1677959757319819
-0.18379375651307492
-0.20080952919819928
-0.21851069323028507
-0.23576969803523434
-0.2516051945491331
-0.2645642553333826
-0.2727864819844009
-0.2754994107994753
-0.27279322178708765
-0.26497543824576686
-0.2522691347001632
-0.23566826392722498
-0.21686696682945225
-0.1973975752585329
-0.1777250038111843
-0.15805943646276643
-0.13854999983640137
-0.11930331132494748
-0.10011022351773508
-0.0815293312730731
-0.06440468499554841
-0.04818353316150337
-0.03215694679504927
-0.015997879579916278
-0.0007560165590377872
0.013112600682223266
0.02529597902092208
0.03518403642364442
0.04265960860245056
0.04813395904404598
0.05151064617621781
0.052418817182111783
0.05059875561044008
0.0465544455477373
0.04124846489928555
0.034677723472823246
0.026669231551578427
0.01719840533876651
0.006861531083023444
-0.003972577516553425
-0.015134607245614152
-0.02622010262104752
-0.037312640284928034
-0.04890142621973179
-0.06129117723998363
-0.07400847636333664
-0.08694607506230644
-0.1005989498975138
-0.11536400975164517
-0.13210667815122873
-0.15167967297817134
-0.1759841571023954
-0.20653555741723792
-0.24553016739644057
-0.29767858172706396
-0.3696161157047056
-0.47096230575579084
-0.6133739051114344
-0.8026754716987774
-1.0104411126393957
-1.131608640305444
-1.0617089997480802
-0.8610415431145586
-0.6508682476477383
-0.4828564813083559
-0.3596891656928619
-0.2693103094570315
-0.2005334891302993
-0.14608370673909435
-0.10108406661077468
-0.0620206215531574
-0.02656130991110055
0.007087928897136458
0.03785001352371722
0.06534962521919307
0.09082588644655817
0.11525202799575512
0.1387286129164599
0.15882062256085086
0.17484937862062555
0.18518130654949796
0.1885260472518305
0.18517986970498673
0.17574869322374861
0.161137830173526
0.14112976054435925
0.11665584851209206
0.09035799972240281
0.06444020862750284
0.0386809647198359
0.012242127998033385
-0.015187731191188795
-0.041497176053411924
-0.06649826362423966
-0.08966215776816933
-0.1099467180100442
-0.1276556250954121
-0.14279248764025002
-0.15540010230815174
-0.16341158784217658
-0.16588680525228439
-0.1638226146061823
-0.1579823986550285
-0.148246809975621
-0.1348266336732319
-0.11813284171160507
-0.10042832022678945
-0.08181997839706392
-0.06315664555619696
-0.044719861245836635
-0.026308478058877448
-0.007984819805014899
0.010497641214644454
0.027629614865129017
0.043251423856217955
0.05779701331682861
0.07146864767087706
0.08387638154415893
0.09405752957921405
0.10112241285199548
0.10574083728640828
0.10676104457692662
0.10252631909696473
0.08990763432970725
0.062290341295681215
0.006693802889488081
-0.11640041128449796
-0.42138150339988156
-1.269194576647161
-1.7052134462638597
-0.6702753290869307
-0.23939846196442485
-0.09091540079230181
-0.03262247996137465
-0.007187713152589615
0.003575019812612979
0.007660617523998857
0.008852136349340279
0.00847830902490815
0.007552639531309553
0.006345710162335033
0.005302580069755505
0.00447359339117441
