# vtk DataFile Version 2.0
00003703.nii_R_ICA_labeled
ASCII
DATASET POLYDATA
POINTS 205 float
72.52762810776235 66.31344250454198 27.55539293796143
72.6906227022796 66.53808461602236 27.44175808148523
72.87382066354171 66.75250810135613 27.33975242305008
73.07601586727847 66.95497418280397 27.249925792249282
73.29539141827861 67.14419570619526 27.17235914381708
73.52998255306493 67.31921150392351 27.10686044244266
73.777739427798 67.47942515421542 27.052947198055872
74.03650707219732 67.62480079937687 27.00973034486136
74.30439718192913 67.75549167331242 26.976211059438043
74.57981225340248 67.87168878752779 26.951344215180367
74.86127709999924 67.97390720366973 26.933863895870246
75.14764340250001 68.06248857653053 26.922560379482547
75.4379552127551 68.1377240865549 26.9161735772684
75.73141854581155 68.19981478177442 26.91341076060774
76.02737342672843 68.24875050461111 26.912969828066952
76.32522995705592 68.2843187836433 26.913520091183894
76.62440306676673 68.30618993595029 26.913704259380733
76.92427462381227 68.31363174931688 26.912122568190874
77.22410384037968 68.3060158160498 26.907392369065377
77.52296359990632 68.28216139703459 26.898034304484156
77.81970381155502 68.24119279365651 26.882706469283477
78.11282882248672 68.18181785993266 26.860016574929382
78.40053920457113 68.10305669011336 26.828808964188976
78.68072598006879 68.00409987469719 26.78816808348861
78.95095159600255 67.88431116774395 26.737444793917255
79.20869407532398 67.74363510309757 26.6764798917847
79.45149116647362 67.58252584079132 26.605582369187058
79.67703387854426 67.40184511775351 26.52547335671565
79.88333333855495 67.20285901994805 26.437264466141237
80.0686490929406 66.98702867139086 26.342329715978355
80.23191417691132 66.75620840660068 26.24231414551087
80.3723253223861 66.51222932269481 26.138883404942668
80.48936516694938 66.25693162036939 26.03367464307144
80.58263816312854 65.99211169404806 25.928238450747273
80.65234010196876 65.7196845701189 25.8239698619872
80.69866690950582 65.44144152192762 25.722057260043627
80.72182080147896 65.15912357730282 25.62349461822499
80.722666102183 64.8744955853521 25.528933086966195
80.70196465007567 64.58918654049558 25.438762577203367
80.6606809628355 64.3047336010054 25.35305370501278
80.6002037114229 64.0224947583074 25.271495647633234
80.52172503438439 63.74368188006746 25.193540174727012
80.42679396508737 63.469265447809015 25.118310613071095
80.3168841479948 63.200031803798474 25.044737588091525
80.19336997095705 62.93663998599182 24.971582637768922
80.05779996502136 62.67950749966355 24.897497898091313
79.91141879094562 62.42907427159179 24.821062816414166
79.7555978342089 62.18559554263518 24.740907102651292
79.59152234738711 61.94935185767594 24.65572637852407
79.42027790408076 61.72064283488958 24.564322050787837
79.2429423608205 61.49967564330231 24.46576994046487
79.06037735820962 61.28683406789088 24.359210460945665
78.873446933651 61.08238121343414 24.24413892393206
78.68284860470821 60.88671942258391 24.120147697118725
78.48918250062191 60.700300913033665 23.987009687416684
78.2929620487939 60.523579621812274 23.844704259121492
78.09458055168537 60.35725157135972 23.69317080907302
77.8944138672287 60.201914309213 23.532592907929356
77.69276874587084 60.05856296417402 23.362976956180255
77.4899966575214 59.928021455670944 23.184594047671975
77.28646164160162 59.811619448738575 22.997512594871967
77.08262375467288 59.710428989518995 22.802107426458797
76.87904345855294 59.62612887966604 22.598594935973395
76.67640760112039 59.560000475709224 22.38757444262852
76.47557661962568 59.51384621307613 22.169638288781197
76.27754886922202 59.4891262685687 21.945747868163064
76.08347445900272 59.48730037268301 21.717096590154064
75.89468771119863 59.509867716421624 21.485160080875502
75.71251453657689 59.557605181471224 21.251768767281266
75.53834825880438 59.63113190828586 21.018969544605202
75.37360533207988 59.730761455929255 20.78904028314186
75.21951244437516 59.856071066930724 20.56435736819514
75.07712889734717 60.006193414539275 20.3472899098479
74.94732987313448 60.17988299710838 20.14012987680504
74.83086486515565 60.37566777915396 19.94509865423366
74.7281243317259 60.59154202891672 19.764061068623253
74.63935580055981 60.82540334865958 19.598643316411234
74.56471864439487 61.07510922879363 19.45026947939953
74.50428922638885 61.33846223058438 19.320141391833083
74.45789983514561 61.61310683486757 19.20897009419235
74.42542650037457 61.896814144949914 19.117311514960875
74.4067818273541 62.18741785120454 19.045547714584384
74.40158555641578 62.482716424624556 18.993379578052952
74.40955431538899 62.780713935203266 18.960375339528987
74.43038960626946 63.07956616362295 18.945800011022296
74.46352943875223 63.37765886432581 18.948273644886527
74.50858465507505 63.67364933754819 18.966409281842225
74.56497321909521 63.96652266570185 18.998335282245062
74.63218982709095 64.25556821993221 19.042079183746957
74.7097174964992 64.54038552294033 19.095480992405857
74.79707916221354 64.82084317721673 19.156295392045894
74.89380809773132 65.09704697067947 19.222210770127184
74.99957011983845 65.3692304169918 19.29093031110772
75.11391782652872 65.63780200840023 19.36011632773638
75.23661079366212 65.90314888175658 19.42742344781606
75.36722724172378 66.16573355691797 19.49051252287795
75.50542381909224 66.42593404195236 19.546965332242728
75.65075269474212 66.68405200705992 19.594303626952808
75.80261748396757 66.9402614459923 19.630018515995484
75.96028330207498 67.19453984540954 19.651476326944927
76.12276164857053 67.44662913653313 19.656028407950792
76.2887658354971 67.69599419229239 19.64116374818241
76.45671204167742 67.94174628863313 19.60436545937665
76.62465203189102 68.18264554781972 19.543467855918493
76.79034301275831 68.41716228698995 19.45696091603213
76.95135473669453 68.64353057507408 19.34399793290094
77.10524957041143 68.85993389192222 19.204676587982735
77.24980846328043 69.06471378834037 19.040078271024772
77.38323891215362 69.25656372180444 18.85214630953019
77.50431362641852 69.43465966004801 18.64344057387064
77.61240159518123 69.59869524057969 18.41682672488778
77.70736109676518 69.74878737604116 18.17514670154224
77.78943925821872 69.88539557714262 17.92105539307678
77.85928486680406 70.00935595864416 17.65700452242081
77.91754115829983 70.12148344808196 17.384961151309692
77.96503045455916 70.22278722597181 17.10664312732028
78.00250996472427 70.31424576424362 16.823423379157532
78.0307215650681 70.39687943980547 16.536435805956625
78.05022616295346 70.47161354060911 16.246568509053077
78.06159822369608 70.53946599751163 15.954579739850995
78.06509350895466 70.60127467127167 15.661050019815946
78.0610268175197 70.65800582524409 15.366502636842542
78.0494193840659 70.71049668044397 15.07136911827843
78.03022686078327 70.75961346002208 14.776050076974439
78.00325017329993 70.80619136494973 14.48092827352104
77.96817302558321 70.85105018540307 14.186392758264297
77.92460350666843 70.89500283327217 13.892857272557258
77.87212602160594 70.93885088894876 13.600768134983996
77.8102283574218 70.98339732807614 13.310637446289215
77.73858075590181 71.02942650271129 13.022994767802262
77.65678036715556 71.07773676386743 12.738452511965717
77.56462372182067 71.12910716491356 12.45763881432711
77.46209979799151 71.18428265382141 12.181175938552965
77.34929711614997 71.2440185910521 11.909709385691125
77.22654384596619 71.3090344213602 11.643832012187794
77.09443518873293 71.37996992380974 11.384021785841359
76.95367763764024 71.45746027073353 11.130705591953005
76.80512493754051 71.54211562561053 10.884225936871415
76.64984845214265 71.63439122661894 10.644723893948461
76.48891666864697 71.73476261121834 10.4123143405487
76.32346879270834 71.8436281318853 10.187007461055414
76.15468410122124 71.9612107876392 9.968662591785739
75.98364748750538 72.08780459626246 9.757216687068889
75.81141016337075 72.22344128632142 9.552458638836711
75.6388819864438 72.3681653489514 9.35427109456166
75.46683865211027 72.52190472382347 9.162556013202712
75.2958808519042 72.68444157233601 8.977231817194243
75.12644443226858 72.85559477752076 8.79838006903863
74.95873213737495 73.03492419982169 8.626031499350058
74.79277628786669 73.22211014648371 8.46046888419705
74.6283608757389 73.4165625474759 8.301891241908194
74.46511246981072 73.61776008950514 8.150692599222626
74.30248431542235 73.82504330385639 8.00724460024064
74.1398176194506 74.03767926959661 7.871902448634446
73.97637159215921 74.25493789043925 7.745110757047199
73.81139938110138 74.47593213955454 7.627053447423236
73.64416763694334 74.69979461849462 7.517914655806168
73.47400719995495 74.9256167100424 7.417704781945325
73.30040420197628 75.1524808695922 7.326123318291409
73.12295585769061 75.37953200232113 7.242737184646835
72.94141671983664 75.60598780869749 7.166872725315271
72.75573727138831 75.83119607109097 7.097595031359299
72.56595763370532 76.05463056330112 7.033901606728769
72.37223980118372 76.27590573941407 6.974676026839505
72.17486661755039 76.49479843394575 6.918751466233796
71.97414269011134 76.71118578651388 6.86504116102014
71.77046409255136 76.92509126980963 6.812522228244356
71.56425161549065 77.1366386431074 6.7603377497031465
71.3559053394044 77.34600116644985 6.7078165987135785
71.14586859244406 77.55346810583853 6.654510969054273
70.93452770634534 77.75933976486799 6.6001831446019965
70.72225045729914 77.96396335406804 6.544799786810019
70.50936759743574 78.16770681888806 6.488502603072778
70.29615832800317 78.3709273522914 6.431553588990361
70.08286519860613 78.57397977745956 6.37431940138644
69.86968570980326 78.77717877973507 6.3171822583482795
69.65678648727369 78.98079551076822 6.260489390252975
69.44430566426878 79.18503800725661 6.204482340886179
69.23237421995105 79.39006656461942 6.149271732142321
69.02109809073471 79.59595938049462 6.094770368242819
68.81058668074843 79.80275042165255 6.040712238747262
68.60093858007622 80.01040903223016 5.986624977301815
68.39224217233279 80.21884319528775 5.931845599361416
68.18459749099551 80.42790992369228 5.875504609485659
67.97807849611526 80.63738819309224 5.816616602106917
67.77278246687803 80.84699745699581 5.754040226504074
67.5688014402846 81.0563780503641 5.686596170306814
67.3662404200118 81.26509953252379 5.613108893960865
67.16525388017324 81.47263699743547 5.532318966186411
66.96599567244004 81.67841889475494 5.4431989505604035
66.76868061956202 81.88179777842657 5.344737434040758
66.5735799677832 82.08205962615702 5.236018239322967
66.38097707998368 82.27851807920379 5.116456025369172
66.19121908095134 82.47046654185986 4.985560191153682
66.0047168697952 82.65719169237617 4.842958020197316
65.82185921601724 82.8381234851703 4.688652897215884
65.64308326448389 83.01271622890732 4.52270128719742
65.46887294975888 83.1804449269204 4.345216612005359
65.29962017647716 83.34099630727788 4.156645172539786
65.13577664085734 83.49402379710358 3.9573444364699517
64.9777367921043 83.6392980937848 3.7478172859681114
64.8258484532591 83.77666541191155 3.528628883359964
64.68046033901769 83.9059729321904 3.300318503685353
64.54184274119149 84.02715788083381 3.0634988997727626
64.4102055324021 84.1402151947262 2.81880546244034
LINES 1 206
205 0 1 2 3 4 5 6 7 8 9 10 11 12 13 14 15 16 17 18 19 20 21 22 23 24 25 26 27 28 29 30 31 32 33 34 35 36 37 38 39 40 41 42 43 44 45 46 47 48 49 50 51 52 53 54 55 56 57 58 59 60 61 62 63 64 65 66 67 68 69 70 71 72 73 74 75 76 77 78 79 80 81 82 83 84 85 86 87 88 89 90 91 92 93 94 95 96 97 98 99 100 101 102 103 104 105 106 107 108 109 110 111 112 113 114 115 116 117 118 119 120 121 122 123 124 125 126 127 128 129 130 131 132 133 134 135 136 137 138 139 140 141 142 143 144 145 146 147 148 149 150 151 152 153 154 155 156 157 158 159 160 161 162 163 164 165 166 167 168 169 170 171 172 173 174 175 176 177 178 179 180 181 182 183 184 185 186 187 188 189 190 191 192 193 194 195 196 197 198 199 200 201 202 203 204

POINT_DATA 205
SCALARS curvature float
LOOKUP_TABLE default
0.2910644649193263
0.2913953635305046
0.2875118229709879
0.2795733716511293
0.2681752321166593
0.2541540901088165
0.23847431264834418
0.22210229676422918
0.20588774547744368
0.1905719431473351
0.17680620969787605
0.1652296147019882
0.15650175079953932
0.1512677330077708
0.15010368726835113
0.15334314926232362
0.1609499356018783
0.1726304746733295
0.1877703997208287
0.20558435371063968
0.22503614124101104
0.24493027211914
0.2639170645694974
0.280623985906204
0.29396213724624465
0.30330214175011927
0.3084091678350116
0.30949410560065227
0.30723605026250705
0.30259375442571895
0.29662686337721317
0.29010216036831626
0.2834168476556708
0.2767421131325167
0.2699797121579369
0.2627251123773337
0.2544859266811722
0.24486971802198435
0.23365383866869888
0.22086387475135155
0.20683254620367028
0.19210980863759589
0.17749150643492578
0.16386265257825186
0.15209800161905457
0.14296954396806205
0.13704396882931702
0.1342965190232594
0.13421541137584556
0.13599501284687537
0.1387871086487918
0.14197957298287814
0.14522854819159178
0.14845107942537988
0.15181006165659294
0.15567019358469658
0.16043274597220347
0.1664667644612489
0.17404058669130001
0.1832831296924558
0.1942355514495278
0.20675641868475902
0.2205886158298697
0.2353113832446586
0.2503715096040963
0.26513345185293286
0.2789314684586725
0.2912032888290903
0.301484243267967
0.309424835383376
0.31477509389021385
0.3174493563220336
0.31767466533440203
0.31586118305965283
0.31246821184342155
0.3079620664600815
0.30286656054582983
0.29746836147302236
0.29175306822713476
0.2855692641192821
0.2786214019400332
0.2705207754259317
0.2608699015912842
0.24928373373190174
0.23558276466009648
0.21997115814949394
0.20271354953406887
0.18417417095982472
0.16500758705561533
0.14613173607659571
0.1286966760547173
0.11416763680604136
0.10435884834263671
0.10097381966192792
0.10501801162786938
0.1159145340704335
0.13224683602881884
0.15252947116462937
0.17555283315139286
0.20034911676668998
0.2259856586090385
0.2514652667777804
0.27557011841062395
0.2968743119386661
0.3136407371037014
0.32404486557471723
0.3270612353666604
0.3225309013189476
0.31110506535253957
0.29422921313857325
0.27383212971118787
0.25161539335621247
0.22892188325555735
0.2067523729948861
0.18579382153984214
0.16653771136046558
0.14928297135057772
0.13419026643913498
0.1213298300339925
0.11072000418072031
0.10246524897838521
0.09663460826901826
0.09329329515288476
0.09242010165032684
0.09382863200485529
0.09720814421260843
0.10210825749327293
0.10804577784038588
0.11454480330691458
0.12111463310198041
0.1272782290824619
0.13261135860640405
0.13678279898686482
0.13957708618856723
0.1409245710343971
0.14092147027194518
0.13980820017834447
0.13791585454758595
0.13553666724417576
0.13293408264885376
0.13042016622826041
0.12819352583951338
0.12632524642940332
0.12475217991159084
0.12334474282944927
0.12192286752592725
0.12032724003955546
0.11844643644466168
0.11628636009603847
0.11399643711107386
0.11182440005053827
0.11000802451854992
0.10874200821044021
0.10806700330279476
0.10779727025084175
0.10751045437762062
0.1066284221793443
0.10453095262671246
0.10082470481253243
0.09532500442551264
0.08813101811170086
0.07965999217567399
0.07053161594690965
0.06134925058170647
0.05268631970357284
0.04513447526223585
0.03897814414121707
0.03405365417033957
0.02982744443043799
0.025637484997099565
0.021007349951127033
0.01575901196040694
0.009942885138684328
0.003846479989346422
0.002452614057721993
0.0075761665289756554
0.011549924953868725
0.013946906662142702
0.014660807274945675
0.014129095022032473
0.013654478282982916
0.01569897934054886
0.021862702787085027
0.03144775793121564
0.04322130267817531
0.05630310732723036
0.07002419503016791
0.0838262082339674
0.09724833192713167
0.1098748023105957
0.12132317945423528
0.13128966729814542
0.1396410822914391
0.14632018085304418
0.15135059819191438
0.15490025034893481
0.15716767475424384
0.1583162920418139
0.15855123996842044
0.15809267588550352
0.15713575599207544
0.15583249637853175
0.15427247144640818
0.15250826944055162
0.150566325408111
SCALARS torsion float
LOOKUP_TABLE default
0.02848196655650333
0.03264459260442333
0.037387444403932296
0.042987771365118124
0.05037904997772776
0.060467455750943186
0.0748553664169725
0.09436318946037865
0.11950051763734021
0.15156350428420243
0.19125359355214347
0.23585746092524393
0.28062904801811334
0.3163671342340294
0.33447703671390117
0.3283474947682392
0.30109819324089365
0.2603659726940588
0.2141495292656097
0.1678271973033805
0.12510759091031634
0.08697667741156467
0.053021261299182776
0.02230119289012772
-0.004440991729083349
-0.02848413114823576
-0.05083756055085203
-0.07100478653453969
-0.08834040043349833
-0.10078347548983634
-0.10732627826253685
-0.1068094098460207
-0.09980637074716701
-0.08746077093027105
-0.06976928801627348
-0.046598785448718885
-0.018414621827656553
0.015240801966461597
0.05361667079518779
0.09793881824173699
0.1485881030645843
0.2062995602846404
0.2701354669396692
0.33879594032232935
0.40601723002872103
0.4565048633676198
0.47471113585842034
0.4557838932190385
0.4046995050497426
0.3350697184419211
0.26224449521572846
0.19534559915472258
0.13426993889454186
0.0794066583445708
0.03549652343541923
0.0022317721993525483
-0.021188210474992582
-0.035911185653809075
-0.04323541073527402
-0.045602692755711695
-0.044913411716417474
-0.04302741438561687
-0.04097613340128502
-0.03978161075942259
-0.039779586976511024
-0.041121493145476036
-0.04359044157363139
-0.04678716846528227
-0.050477032123110666
-0.05451963612101778
-0.05848320670612066
-0.06215278762444882
-0.064625145684485
-0.06546586334762271
-0.06405323332861254
-0.060553120384569344
-0.05481341594706281
-0.04653353170483296
-0.03550749045659035
-0.021673743003693607
-0.005218325803702387
0.013457515886001237
0.03468096308371
0.059205745332279194
0.08704430461020707
0.11982772799699411
0.16197553681817042
0.21782250734341607
0.29176028363751033
0.39059668068133513
0.5196815942989343
0.6725841794641226
0.8136686520472616
0.877330422194177
0.8211901283422666
0.6864200014078988
0.5416479363472431
0.42155345561433843
0.331847919092445
0.26686528529029974
0.2197258023819547
0.18453987955783646
0.1578051309450557
0.13667570614216773
0.11877353710701184
0.10334005912076252
0.089896555205384
0.07783215852057941
0.06680988484028355
0.05785003433501056
0.05080457735241512
0.04584750040079392
0.04337945098177409
0.04415065843710016
0.049757005881808786
0.06186892179602129
0.08234477839666288
0.1127621493733372
0.1525732823113122
0.2010412772128411
0.2549020811117595
0.3065603988061295
0.3454346398030006
0.3633165341798749
0.3584254364376499
0.33612731515419947
0.3053068262590039
0.2739742884485475
0.24699328144345228
0.22634788004216838
0.213258815293213
0.20793431195964696
0.20949754941603524
0.21732613560150507
0.22957070882898847
0.24536281386367956
0.26231477657533087
0.2789062111715019
0.29341675414456225
0.3022822194213466
0.3010887719256795
0.28731953372742725
0.2596644768874327
0.22028771693823448
0.17041180457664204
0.11308402082691965
0.048082936236661475
-0.025575029447809004
-0.10321943484047792
-0.1808497305674665
-0.2523790267114146
-0.31315506941398336
-0.35639333405485624
-0.38025672886000006
-0.3872089782000912
-0.381120522944586
-0.3669085862984231
-0.3531510270382622
-0.3449428872977255
-0.34670386792154645
-0.36176655412976844
-0.3961989430624886
-0.450017143765831
-0.5209755035771189
-0.6037966392190761
-0.6761083486743096
-0.710416946083213
-0.6816632337517388
-0.6044618520721451
-0.5032945394466225
-0.4219956599482025
-0.37274953843682446
-0.39468166725736076
0.0
0.0
-0.20697761808861065
0.05966549610767763
0.2552720998772215
0.5331704436007226
0.9852204655269046
1.5716629053413966
1.630644410576745
1.0703484552585272
0.6272593819565874
0.387594848722062
0.2607971667591686
0.18774798066692777
0.14270239558388606
0.1130423166108998
0.09136960385774824
0.07393116942241915
0.05851445104956565
0.04382471791796974
0.02974916681555813
0.016481471824479368
0.005105397048423632
-0.0046856693276321505
-0.012979984768156254
-0.019111532441389172
-0.02294050158323244
-0.02480328465816106
-0.025101857616894693
-0.02468274233785882
-0.023843288937247437
-0.0229282150751409
