# vtk DataFile Version 2.0
00003667.nii_R_ICA_labeled
ASCII
DATASET POLYDATA
POINTS 234 float
79.59184409619168 71.16821252694055 31.3977489336646
79.84094252138986 71.13020347395516 31.234990088818876
80.08335331743042 71.08429870277378 31.06435634200881
80.31886366898664 71.03059431483327 30.886486264682752
80.547243735191 70.96913619312382 30.701951608146945
80.76828023653488 70.89996473664158 30.51130616497118
80.9817511339875 70.82309162134445 30.315071904741316
81.18740635836298 70.738485298646 30.113739953965244
81.3849709419714 70.64607932821501 29.907788664568294
81.57414105030473 70.54577321869306 29.69769420847845
81.75458157325552 70.43743564331741 29.483941203359784
81.92592608673083 70.32091150279224 29.267032818499768
82.08777997139248 70.19603288318672 29.047499927349435
82.23969001991667 70.06260346751559 28.82590273932642
82.38127168939278 69.92051660908008 28.60285553937244
82.51211347591692 69.76968025545683 28.378998960787882
82.63183344958503 69.61007163264044 28.1550029228614
82.74010483798429 69.44176084824393 27.931552407829194
82.8366797001359 69.26492839742214 27.709325963208535
82.9214077938662 69.07987494935455 27.488968477875204
82.99424837879667 68.88702252723921 27.271060995493205
83.05527150660686 68.68690655331184 27.056091081961515
83.10464918160787 68.48016105340966 26.844427226766918
83.14263633965096 68.26749885461275 26.636300714764875
83.1695449900787 68.0496908859688 26.43179612770886
83.18571437429584 67.82754639986568 26.230851803523123
83.19146519115033 67.60189346490615 26.03327280598811
83.18708527628606 67.3735767537242 25.838740151487627
83.1728609148284 67.14345916615483 25.64681655642315
83.14897400290369 66.91239669313099 25.456998213465667
83.1155255724523 66.68125126640209 25.268730787293048
83.07253442030459 66.45089282157997 25.081438714714412
83.01994400634587 66.22219946313818 24.8945567812382
82.95763909925691 65.99605311117423 24.707563103448496
82.88547155763412 65.7733273329055 24.520012996305883
82.80329450002435 65.55486636011635 24.33156972811594
82.71100219838537 65.34145373688588 24.14202947152708
82.60857085653628 65.13377412160615 23.951334138488676
82.49609488517835 64.93237205634517 23.759569143900823
82.37381189059788 64.73761722315471 23.56694239077635
82.24211266795771 64.5496832852999 23.373746985943917
82.10153386188203 64.36854821800591 23.18031202895235
81.95273635688103 64.19401751439794 22.98694943728678
81.79647379323686 64.02576786669586 22.793904592583832
81.63355773730879 63.86340456719073 22.60131629240718
81.46482446168213 63.706523500151015 22.40918991576187
81.29109248898801 63.554788529658616 22.217382951601984
81.11317648985066 63.40795214255698 22.025597205140052
80.93187337255432 63.26588819768473 21.83338872546929
80.7479246278407 63.128663041707625 21.64018083268416
80.56203701241638 62.996545741150015 21.445276073659276
80.37488832607866 62.87010185431932 21.247833601542183
80.18717842199594 62.75002239906167 21.04698452232634
79.99960275000669 62.63732788579462 20.841783560833562
79.81290600490459 62.533335718616776 20.631262032667507
79.62793045416173 62.43972858439776 20.414450691536892
79.44563945990002 62.3584472188152 20.190525328853134
79.26716095526932 62.29172357341929 19.95886900900102
79.09383810567941 62.2420624608 19.71917091852794
78.92723937994998 62.2120876452803 19.47158400587444
78.76916958712742 62.204421839032676 19.216832870774844
78.6215627474287 62.221319195157655 18.956337135765313
78.4862935083485 62.26427220682656 18.69218109591391
78.36510131142701 62.33398696810728 18.42690829345494
78.25945413137342 62.43026880435474 18.16330247952999
78.17049797253175 62.55210716685545 17.90414300837774
78.09879036461334 62.69750349430805 17.651872341755265
78.04469516472548 62.86423127165282 17.408556827996357
78.00837106409189 63.04987337477091 17.175855950065053
77.98987137785588 63.25198864591761 16.95507544838369
77.9892214156159 63.46820755241645 16.74725490833327
78.00646429832153 63.696266671246505 16.55325887683571
78.04167339545577 63.93400136387726 16.37385276689416
78.09493586801729 64.17931542042304 16.209753275649255
78.16631087950896 64.43014537345606 16.061650365456124
78.25576908566624 64.68443315994087 15.930199714976135
78.36312056676036 64.94011958941319 15.815987943668638
78.48794394554284 65.19516689481804 15.719475870536854
78.62953136665018 65.44761373155428 15.640930299940658
78.7868639995868 65.69565766252167 15.580359229685554
78.95862832535558 65.93775096182877 15.537467003363629
79.1432730647906 66.17268965206215 15.511643305818183
79.33909645974931 66.39967511807039 15.501991272298001
79.54434390194912 66.6183362248662 15.50738927427029
79.75729732875406 66.82870969459276 15.52657365541387
79.97634227816721 67.03118703185815 15.558226195357657
80.2000075966385 67.22644085189833 15.601054147539616
80.4269785614426 67.41534555288052 15.653853119342749
80.65609020992643 67.59890199101852 15.71555160133367
80.88630855454457 67.778160619331 15.785264693819164
81.11669462886061 67.95420593111162 15.8622424228864
81.34639519073686 68.1280913977933 15.945893015049165
81.57461512443298 68.30079604429196 16.03580973645473
81.8005935305634 68.47321678137426 16.13173234871788
82.0235840177471 68.64615793275834 16.23353000384181
82.24281350050522 68.82033924179292 16.34120926631442
82.45755916189155 68.99636440956195 16.454760266180877
82.6670605940241 69.17475530310313 16.5742554415841
82.87053508739585 69.35596345122042 16.69977044656852
83.06716804981738 69.54038957472518 16.831353408661744
83.25603871015991 69.72843414312212 16.969039212771005
83.43630112035072 69.92042890438032 17.112676273169015
83.60698947283745 70.11674022348878 17.26205319900832
83.76705800711433 70.3177565733922 17.416826330543415
83.91536293545954 70.52389432685325 17.576498766455778
84.05064336581948 70.73559537864216 17.740396128108067
84.17147469448622 70.95332365063976 17.907643599101107
84.27635656080983 71.17749456639075 18.07711411760067
84.3636519321816 71.40845602540944 18.247420037945513
84.43160918334502 71.64642401590112 18.4168759209518
84.47834762697647 71.89141921224265 18.583451918422735
84.50222676432269 72.14308552466868 18.74481654877556
84.50182414057842 72.40067244874763 18.89838706385175
84.47617278289782 72.6629727100011 19.041457466311623
84.42491976190571 72.92834412362028 19.171373180237495
84.34830670170857 73.19479735627183 19.28564543966207
84.24775817880851 73.46016851669295 19.382554322797965
84.12510377051882 73.72236205599899 19.460896214519778
83.98258610830929 73.9794902046965 19.520122842152322
83.82262002010116 74.22997088294639 19.560269410504414
83.64757831547743 74.47254867727261 19.581817819919745
83.45964018088809 74.70625444141263 19.585540159391048
83.26070895746159 74.93032979314054 19.572354552936474
83.05238817575797 75.1441405415751 19.54321418500038
82.83598346279476 75.34707152082736 19.49900276510217
82.6125194448866 75.53838548810832 19.440431263391574
82.38295847709477 75.71749163727524 19.36839209820352
82.14804008018467 75.88356342761732 19.283527196697353
81.90837457252437 76.0354473907301 19.18626566866993
81.6646476036211 76.17210320026811 19.077240161150442
81.41753341253562 76.29221785586707 18.956955532400908
81.16779609866936 76.39428634802945 18.825910401333605
80.91636213336209 76.47668240222734 18.68466780479701
80.66437808691278 76.53773597099016 18.533902715415863
80.41323453837806 76.57602097107817 18.37449796899347
80.16455497092765 76.59029652234038 18.207464103317523
79.92016363484308 76.5797173146928 18.03395729583316
79.68196837708466 76.54409471564114 17.85525046269395
79.45180791112857 76.48396886655863 17.672621666892258
79.23132800868761 76.40052858522083 17.487226245935023
79.02186660076532 76.29554249554026 17.29999890445986
78.82439622811158 76.1712047983127 17.111578706783757
78.63952333577066 76.02996022568998 16.922276926371964
78.46753290979882 75.87434661520876 16.73208478427793
78.30845795087347 75.70687751924193 16.540710744537684
78.16215430061415 75.52997226480635 16.347632830866097
78.02836680912165 75.34592759168622 16.15215531809526
77.90679323590105 75.15691643573183 15.953458718280443
77.79713881094654 74.96501859864972 15.750634364187025
77.69897849968741 74.77226356277961 15.5427974916574
77.61194217629782 74.58060430637249 15.32907650782711
77.53564141511998 74.39195939142793 15.108678330799368
77.46965188576921 74.20821424726793 14.880937714142307
77.41349105506258 74.03120351058492 14.645365192250214
77.36659524205501 73.86267449468761 14.401687804149585
77.32830071547752 73.7042354128836 14.14987555632708
77.29783289808535 73.55729610227745 13.890147514258564
77.27430692980624 73.42301289130224 13.622953894550252
77.25674019932615 73.30224757465935 13.34893681009363
77.2440752771804 73.19554960567747 13.06887568162473
77.23520934886068 73.10316289253663 12.783627496872295
77.22902575398115 73.0250552732594 12.494070792249394
77.22442421039557 72.96098169807017 12.201056906170168
77.22034010797776 72.91048993626 11.905390018352378
77.21577020376172 72.87299347573392 11.607800971890853
77.20978500038028 72.84782321493013 11.308940182452803
77.20153598580268 72.83425756751302 11.009380452456387
77.19025920867489 72.83155078113508 10.709622974651515
77.1752756715966 72.83895457313552 10.410105639673656
77.15598901232495 72.85573452944614 10.111212121557308
77.13188172357717 72.8811832806343 9.813280902459963
77.10249380746207 72.91465248497404 9.516618349906858
77.0674419161301 72.95552109982492 9.221501804014833
77.02643048463653 73.00319843020655 8.928180275668257
76.97920010830421 73.0571871236286 8.636894980994876
76.92553944656375 73.11706136866997 8.347882310983945
76.86527950189733 73.18247116410932 8.061380682289496
76.79828877091273 73.25314363544348 7.777636513855214
76.72446131012212 73.32888777203375 7.496913141643453
76.64371422640414 73.40958917683449 7.219496014446731
76.55603691560826 73.49516808805103 6.945668440906017
76.46142205271528 73.58561738312417 6.675744118987215
76.35989315733212 73.68097038467245 6.410053483544973
76.2515072997653 73.78128633656344 6.148939071849961
76.13635826873838 73.88663533714988 5.892748576437133
76.0145798003053 73.9970840227831 5.641825850586564
75.88634792151184 74.11268264582716 5.396500349639665
75.75188163756326 74.23345487310459 5.157076058195856
75.6114413344828 74.35939030523402 4.923820707788237
75.46532390014123 74.49044043336076 4.696957047431742
75.31385509261216 74.62651746697172 4.476656766918521
75.1573790048455 74.76749615459886 4.263038567727525
74.99623572001596 74.91322841499378 4.056186351959494
74.83077758455757 75.06351860139893 3.8561124859244593
74.66133360903862 75.21815205062839 3.662797919552482
74.48820145140964 75.37689886667462 3.4762014619728108
74.31164269751987 75.53951536960689 3.296266203303125
74.13187848986959 75.70574802908472 3.1229293581218123
73.94908805361321 75.87533675048661 2.9561307319388486
73.7634106095717 76.04801785527636 2.7958187644376635
73.57494980322339 76.22352688352854 2.641954327648004
73.38378032729162 76.40160144221386 2.494512105430399
73.18994536863049 76.58199262977394 2.35350603770651
72.99349604061541 76.76444225286113 2.2189125574488107
72.79447290120096 76.94871173683764 2.090732633246216
72.59291974250868 77.13457932943223 1.9689742819613911
72.38889260186914 77.32184170125456 1.85364299886325
72.18246535965343 77.51031674336119 1.7447365132550718
71.97373369199957 77.6998458652083 1.6422395666164664
71.76281727406734 77.89029562387057 1.546118913855528
71.54986021878241 78.08155854124439 1.4563187467821488
71.33502991558711 78.2735531428505 1.3727568269133725
71.11850898440566 78.466225394932 1.295343258006979
70.90050902179722 78.65954006726122 1.2239127546643775
70.68124668661011 78.85348553168082 1.158291145221603
70.46094488090215 79.04806815698639 1.0982751455447868
70.23982707541302 79.24330864211447 1.0436354167504571
70.01811173664511 79.4392380519074 0.9941212424194017
69.79600711644879 79.63589362006728 0.9494663432516417
69.5737067685201 79.83331455918814 0.9093949336711067
69.35138590143615 80.03153809758912 0.8736276793627377
69.12919868363005 80.23059595244702 0.841886885932259
68.90727726019252 80.4305130014029 0.8139062747692174
68.68573074211481 80.63130328664879 0.789423930258509
68.46464363060598 80.83296657286394 0.7681757240431777
68.24407978268803 81.03549403721102 0.7499166506061037
68.02408411974596 81.23886740380564 0.7344097609310953
67.80468544867907 81.44306091111454 0.7214244338602285
67.58589963899217 81.6480437799534 0.7107344440499784
67.36773269685887 81.85378265929113 0.7021161801928779
67.1501834118614 82.06024367565566 0.6953473498381337
66.93324557138034 82.26739403984992 0.690205966071897
66.71690948277981 82.4752029274571 0.6864696517024041
66.5011630689469 82.6836419066642 0.683915038294674
LINES 1 235
234 0 1 2 3 4 5 6 7 8 9 10 11 12 13 14 15 16 17 18 19 20 21 22 23 24 25 26 27 28 29 30 31 32 33 34 35 36 37 38 39 40 41 42 43 44 45 46 47 48 49 50 51 52 53 54 55 56 57 58 59 60 61 62 63 64 65 66 67 68 69 70 71 72 73 74 75 76 77 78 79 80 81 82 83 84 85 86 87 88 89 90 91 92 93 94 95 96 97 98 99 100 101 102 103 104 105 106 107 108 109 110 111 112 113 114 115 116 117 118 119 120 121 122 123 124 125 126 127 128 129 130 131 132 133 134 135 136 137 138 139 140 141 142 143 144 145 146 147 148 149 150 151 152 153 154 155 156 157 158 159 160 161 162 163 164 165 166 167 168 169 170 171 172 173 174 175 176 177 178 179 180 181 182 183 184 185 186 187 188 189 190 191 192 193 194 195 196 197 198 199 200 201 202 203 204 205 206 207 208 209 210 211 212 213 214 215 216 217 218 219 220 221 222 223 224 225 226 227 228 229 230 231 232 233

POINT_DATA 234
SCALARS curvature float
LOOKUP_TABLE default
0.15041541265552957
0.1457047427924543
0.14184118510513305
0.13882039781703726
0.1366389142016087
0.13529026891428214
0.13476889071060755
0.13506607669075865
0.13616255698075203
0.13802108044161776
0.14056563773073458
0.14368452355994535
0.14720029325757392
0.1508916763650755
0.15447964723447544
0.1576593866075584
0.16011660360710783
0.16155158625989624
0.16173239085735533
0.16049369688068468
0.1577883060059359
0.1536613939647366
0.14828645195980866
0.14192330031496198
0.13493855695139095
0.1277680901579106
0.12092323274476484
0.11496205274823511
0.11043274106434414
0.10780659524747967
0.10734725767798987
0.10903508776145576
0.11251843498559999
0.11718644923846534
0.12227656478300294
0.1269837483989776
0.1305760639257124
0.1324492401122983
0.132222890727815
0.12974192732366271
0.12511164874661657
0.11862470130524039
0.11071266048361289
0.10186038847083574
0.09256699771873929
0.08336189033481875
0.07486895005901864
0.0679737443411082
0.06390752055409439
0.06412045931421355
0.06964916087244263
0.08062305981016962
0.09634785781960868
0.11603766524932159
0.13907195695818267
0.16489132403564205
0.19289369695865785
0.22225041742911647
0.25181038163938785
0.2800402297362725
0.3050396233327936
0.32486897587434754
0.33798042493972563
0.3437108525001527
0.34246507107913327
0.335668768605624
0.32532822074111645
0.31347697664055985
0.30185995825505424
0.29177191290834
0.28400195758821145
0.27885405948292363
0.2762013747118434
0.2755545361640895
0.27613702952041
0.27696736221279744
0.27696821011265677
0.275094469647149
0.2704648853131795
0.2624984464339049
0.2509985407685184
0.2361846163113628
0.21860731079874918
0.1990531024747314
0.17840444762352112
0.15756799504892008
0.13738121722020336
0.11863707091000777
0.10208509669015231
0.08849659548948328
0.07860118256885805
0.07288967532661936
0.07139426816990999
0.07350948319845085
0.07827021856516139
0.08470301342607355
0.09206676271112071
0.09989374283011873
0.10794074582134562
0.11613086364656468
0.12453582500827172
0.1333401806981213
0.14283627698316284
0.15337124225677243
0.16532339370101276
0.17901475003905726
0.19467195272101204
0.21231808773492697
0.231722328127122
0.25233666236501323
0.273217214786605
0.29305405845288773
0.3102228234719168
0.3230885386917281
0.330258983875802
0.3310165045691292
0.32557558650080315
0.3149715387096951
0.3007099924127768
0.28449893073953186
0.2678865105460049
0.25216677674061755
0.23831108797029585
0.2270175208562396
0.2187738297308942
0.21389525768485168
0.21247688265191736
0.21446308166497074
0.2196817830704396
0.22771117993550213
0.23798963303509277
0.24977482326357558
0.26211311115620356
0.2738721127943387
0.28378748843574275
0.2905745699164433
0.2930841419461465
0.29060587715549213
0.2830154218161011
0.27076268833972356
0.2547586477880932
0.23624252348763905
0.2165590412418391
0.1970331856696001
0.17889350512269472
0.16326220008681247
0.15112035133301807
0.14320808287674858
0.1398526972339056
0.14075971166452106
0.14511109948961975
0.15175961636704882
0.15946777799508047
0.1670867958951684
0.17365674837724848
0.17844637539962283
0.18100288926781807
0.18113645568162717
0.1789315345859992
0.17467461607743995
0.16881199785835027
0.16184732039747707
0.15428704587930142
0.14657840958254892
0.13907963881075333
0.13205071730218826
0.1256552191988962
0.11998163802641693
0.11506059760079347
0.11088699860992535
0.10744033265268259
0.1046887233290215
0.10259621429049322
0.10111973871109571
0.10021179186050422
0.09982856447270073
0.0999152930551211
0.10042722420164739
0.1013045171330556
0.10249396585483965
0.10391663581462512
0.1054896086612816
0.1071026166518006
0.10863413305517212
0.10995353926749256
0.11092918869675307
0.11144776395630053
0.11141358110548127
0.11077963970352649
0.10953177249447418
0.10771565102907912
0.10540917117539293
0.1027292175644076
0.0998104480811842
0.09679156438381611
0.0938076997509352
0.09097161938171906
0.08837908205751419
0.08609183660539434
0.08414642717640285
0.08254655971807148
0.08126864474537025
0.08026543192322423
0.0794666315582432
0.0787918686678597
0.07815441069351411
0.07746976139178433
0.0766601007115448
0.07565837591499704
0.0744110442685503
0.07288049710227243
0.0710460315212107
0.06890472360206688
0.06647553942304461
0.06379361179229888
0.06091262337746377
0.05789408145990062
0.054807638715524035
0.051717254131576795
0.04867896497445894
0.0457334187698619
0.04290213678455209
0.04019183613919401
0.0375914984815569
0.035084632286286464
0.032650741679138374
0.03027477709723123
0.02795033775680741
0.025681253378002443
0.023484604445597784
0.021389272613284913
0.01943660678711185
0.017684106830065674
0.0162061022141879
SCALARS torsion float
LOOKUP_TABLE default
-0.0583937029086273
-0.06007042647489165
-0.06155066133035948
-0.06309901630671579
-0.06482189771797424
-0.0669615630168177
-0.06959691304292896
-0.07249774468802739
-0.07550226902329389
-0.07800398176706853
-0.07966729691532368
-0.07999396579133822
-0.0787479742425838
-0.07586285646249674
-0.07133989393098306
-0.06524597258748899
-0.05750755206869079
-0.04804352553850375
-0.036499714740057074
-0.02247274322194816
-0.005230414712735997
0.01594596504966708
0.042024679202368714
0.07391282730302809
0.11216888654984086
0.15716405060014507
0.2071817718458399
0.2590134306343355
0.30489430040577964
0.3363102698464188
0.34461766906765384
0.32792651495131986
0.2907197054738898
0.24122723806961052
0.18836170681491055
0.13678700924363676
0.09078125918655994
0.0505555695873625
0.01843412198718401
-0.005965212099541236
-0.02003839812934352
-0.02268429168312882
-0.010175432105148811
0.02114524264483774
0.0763537830757666
0.16176669226898807
0.27895177476252997
0.4220618431150063
0.5505889646015614
0.5982161376604715
0.5284235426055433
0.39415801594067645
0.26376982693979695
0.16421031702895958
0.09565222123286957
0.049649366435110615
0.019472914381450466
-0.0003487510504388969
-0.01260961211777971
-0.019333854757977855
-0.021333074598255036
-0.01911939742460952
-0.01317055273014682
-0.0036146937613028662
0.008579592043001245
0.02323936233276113
0.03883129957404844
0.054975472199137565
0.06985282875608201
0.08276143350375008
0.09204570916999605
0.09715987700796465
0.09774669046127554
0.09401309692308721
0.08690421811169108
0.07698698638361463
0.06560878159292
0.05300657718869324
0.03998678542145385
0.026267897874674567
0.01183731281564734
-0.004173385642877986
-0.02293412421597998
-0.04624675989266945
-0.07652799514111974
-0.1171950069012998
-0.1725495299410616
-0.24741312697031342
-0.3444795639262338
-0.45776722785577717
-0.5635656368039834
-0.6186264190064992
-0.5941736204537781
-0.5038935434169406
-0.3935307421358332
-0.2963495966542603
-0.22544225892953965
-0.18075136368747038
-0.15709982764824437
-0.1496707246657711
-0.15299939093959875
-0.16290796267924315
-0.17552793760647897
-0.1873256756633919
-0.19640946006166643
-0.2006131042596094
-0.20027424373891703
-0.19524806173230672
-0.18710174965976384
-0.17662187476438895
-0.16507366841795135
-0.15298359482435483
-0.14081753817409903
-0.12857139546864235
-0.11624625360979532
-0.10359427889247226
-0.09051545608548794
-0.07667256488345656
-0.062005934627845385
-0.046108915829731256
-0.02911978343255222
-0.01081457500700517
0.008295139222746422
0.027724343058516673
0.04632775679797666
0.06267702452860544
0.07555432157635451
0.08382641176174532
0.0872148220930171
0.08585164712403852
0.08045935237741786
0.07176957525185318
0.06036029656184516
0.04676132838556754
0.030898553197313987
0.012693723691611541
-0.008341494396578804
-0.03214391421947213
-0.059632309430773356
-0.09144272013230036
-0.12907729077618607
-0.17330118760768326
-0.22612543270582502
-0.2879791474691798
-0.3588965516907435
-0.4339843957095006
-0.5035804772997214
-0.5522244647730575
-0.5662227367679549
-0.5439407531792707
-0.49550750585477865
-0.4371211395633187
-0.3800828276255803
-0.33148082895633335
-0.29266038495451885
-0.26403618673646917
-0.2441073500672596
-0.23195198253822708
-0.2261504757797927
-0.22567835730225683
-0.22933233400133912
-0.23591313969106295
-0.2441116918028038
-0.2527557006526201
-0.26038799121583184
-0.26625486561690603
-0.2690922067615337
-0.26870763278990384
-0.2642914670851076
-0.25590589787820445
-0.2430738411155954
-0.22594207696210147
-0.20442194329676247
-0.1791616359141309
-0.15077013493637353
-0.12049809948041248
-0.08957906244581931
-0.05950908756709736
-0.03168629434654924
-0.00717818451402401
0.013131380026327036
0.029068197375574787
0.040640025817844
0.04839350629182714
0.05303045247425543
0.05523034514710705
0.05576174142847104
0.054953934849732156
0.05307979965396297
0.05013205082048151
0.04596686650942862
0.04034885975252105
0.03295809008049813
0.023550781178672587
0.012104192807644385
-0.0013111525105832214
-0.01588764289712524
-0.03105270034928711
-0.04520100096700543
-0.05750003582046324
-0.06643344050980811
-0.07145261543542958
-0.07202070381892259
-0.06819378660670736
-0.06064605760513043
-0.049752499192081225
-0.0366815920127116
-0.021757114399651677
-0.006054809738828727
0.010301100220762485
0.02653863706438824
0.04268225575961948
0.058251658392861026
0.07326450575742836
0.08739545110958113
0.10042745590789685
0.11200556013874186
0.12151955840915152
0.1285847119249769
0.13233618013536022
0.13280966956001986
0.12949241646602205
0.12346969511371106
0.11530405951558281
0.10697861570285634
0.10016669437899413
0.0965611731912519
0.09807445541772118
0.10547977855880708
0.1199511537187714
0.14201924622000267
0.17202491311543092
0.2098528465176166
0.253148579665086
