# vtk DataFile Version 2.0
00001268.nii_R_ICA_labeled
ASCII
DATASET POLYDATA
POINTS 244 float
77.66426046834174 79.18105049016383 36.21311304602548
77.88005748499054 79.26337525665373 36.02174409968778
78.09447260264231 79.32804487393649 35.82221866026411
78.30673681031448 79.37449813426059 35.61545590346159
78.51604002680315 79.40204685687732 35.40239140787416
78.72160575616563 79.41033379254955 35.18412997866112
78.92260810733966 79.39884890141637 34.96180336829352
79.11836137538975 79.36767953986141 34.73670215418253
79.30817418723221 79.31680398193512 34.51010442145235
79.49135939181528 79.2462093945428 34.283335584342026
79.66741553923214 79.15637160034983 34.05773363046139
79.83588363487847 79.04777728279014 33.834600373114306
79.99638470700664 78.92104113511438 33.61518891958274
80.14863013990613 78.77692604931096 33.40066907685611
80.29240201755094 78.61630246355148 33.192104595858105
80.42755577319468 78.44016134029775 32.990415795213096
80.55408531467079 78.24971303285358 32.796274333214434
80.67200040666378 78.04616271037615 32.610165907898036
80.7813486615861 77.83075551265902 32.432349078650596
80.88217715464212 77.60472280607516 32.26287144512032
80.97447935579875 77.3692334983484 32.101604627094076
81.05835179695046 77.12554589239494 31.94809600276973
81.13377039899936 76.87475294738721 31.801807044707143
81.20058512734855 76.6178248474272 31.662123725366712
81.25862731088584 76.35569782799992 31.528299329151384
81.30770670228644 76.08924376076342 31.39952603366826
81.34747555831063 75.8192142038653 31.275056541028523
81.37745973015275 75.54629665518038 31.154196927863662
81.39732157099444 75.27118117426328 31.036272084199858
81.40659952043568 74.9944840217513 30.920765607491262
81.4047939936965 74.7167929482961 30.80730443364408
81.39150767811279 74.43867943661411 30.695660179938088
81.36652266983256 74.16068023955263 30.585754190274915
81.32970772348745 73.88328516045458 30.47766343849265
81.28112344916677 73.60692648788635 30.37158283730434
81.22102915223853 73.33196333815148 30.267791157757923
81.14990895749962 73.05866579446902 30.166598697980678
81.06856819256507 72.78718385409678 30.068254433467043
80.97794488720871 72.51757090183098 29.972922671189508
80.87912566347217 72.24978574381721 29.880620247487457
80.77324895988936 71.98372191796166 29.791200788229126
80.6615655446846 71.71920433672788 29.70428556482985
80.54532636619977 71.4560292905816 29.61928221196921
80.42568168227646 71.1940148724129 29.535420616638465
80.30375102768872 70.93300408925388 29.45171924152101
80.1805801032896 70.67289134473828 29.367043719386306
80.05711286266083 70.41368417303642 29.28005736096784
79.93423346282947 70.15547467783055 29.189357278554812
79.81276809564794 69.8985210152797 29.09335064223854
79.69351458338788 69.64325129894301 28.990348222425535
79.57723253715356 69.39027806414344 28.878663602850832
79.46478559927709 69.14052876591352 28.756323743385405
79.35699537098098 68.89514885796345 28.62160432600658
79.254790422347 68.65563319557388 28.472745428314912
79.15920514597117 68.42383891545356 28.30812094597741
79.07140022512534 68.20200752620515 28.12635213200592
78.99255939476161 67.99259507627869 27.926653428916865
78.92390044207399 67.79821391504767 27.708842264437216
78.86660789520295 67.62146105098196 27.473451745221258
78.82173384443892 67.4646800669038 27.221788502380218
78.79012083778788 67.32975576793687 26.95585090153035
78.77235365599988 67.2179741850563 26.678152226116456
78.76875037744905 67.12998055982027 26.391493282516468
78.7793911238706 67.06583214494242 26.098741959072605
78.80417046213272 67.02511834458289 25.802663156255772
78.84285620091698 67.0071029108416 25.505818569139574
78.89514118922729 67.01085615136283 25.210529636218535
78.96075224077445 67.03546686797677 24.918916413734717
79.03936973909295 67.07994577553025 24.632926455191495
79.13052776677895 67.1431156121987 24.3542690017132
79.23392397660822 67.2240955230965 24.0846301479671
79.34920201077693 67.32198375228927 23.82562850584436
79.47579497191572 67.43566210202228 23.57863601687202
79.61334649375118 67.56439331375992 23.345263331110107
79.76118010737603 67.70709560365465 23.1267822294514
79.91859900861155 67.86276894652752 22.9244452478093
80.08494412020995 68.03058084071834 22.739720698533638
80.25918602226976 68.20932103944307 22.573455543060465
80.44035589184158 68.39799376372403 22.426707244038063
80.62736903744566 68.59559795274238 22.300481463338535
80.81893192429435 68.80096990966736 22.195225720168988
81.0137380167989 69.0130732541528 22.111446271151696
81.21040102048659 69.23094986177 22.0497157972421
81.40742258015969 69.45355206022529 22.00989250391059
81.60329663446483 69.67996825393573 21.991849815909116
81.79649637574944 69.90936568608734 21.995236939749226
81.98544957703021 70.14101984457606 22.019645766299774
82.16871512856788 70.37427661054373 22.06400150140961
82.34491868392324 70.60863925724593 22.127176084357664
82.5128159445739 70.84375397381478 22.207801414318
82.67127118848407 71.07942221510709 22.304368984526537
82.81940159584485 71.31560031004919 22.415058567940903
82.95659187775424 71.55239817589586 22.537870973318903
83.08240353655991 71.79006900835552 22.670781225830112
83.19650370910708 72.02900436115424 22.81176063674454
83.29890781460561 72.2696858059364 22.958632289402598
83.38979635806989 72.51265983949042 23.109264108627226
83.46936261837853 72.75854348834099 23.26157616683985
83.53795514988347 73.00796559966048 23.41347098117558
83.59610706110924 73.26148780432668 23.562912117951683
83.64423801167953 73.51967489138777 23.707860728643027
83.6828433850759 73.78298708648381 23.84628525644119
83.7125173274237 74.05169107262273 23.976285912064498
83.73370646900645 74.32596064211324 24.095901671243542
83.74685131235151 74.60575686861642 24.203225020032075
83.75244516483686 74.89074269696918 24.29663235382505
83.75084623697339 75.18039879735967 24.374534296106273
83.74229065327552 75.47399279350921 24.435347906156625
83.72711126954844 75.77047832172084 24.47813085911258
83.70548818566391 76.06868259780164 24.502015030223195
83.67748363343956 76.3672816776111 24.50623600378643
83.6431738464606 76.66483322951768 24.490534521632437
83.60258124962647 76.959864254528 24.454915117920883
83.55561855949453 77.2508506928571 24.39939274413718
83.50214656373143 77.53621715326562 24.324116969871312
83.44208916444596 77.81446805757503 24.229634074576396
83.37529112657707 78.08404199767705 24.11637713479194
83.30151628206507 78.34319361753774 23.984635610118044
83.2207202018764 78.5903661566272 23.835199609580727
83.13284095384347 78.82385260950915 23.668728407513473
83.0379072219447 79.04190013603991 23.48598647752237
82.93605025040583 79.24267248684016 23.287828305627738
82.82763236348772 79.42455926869876 23.075436386648303
82.71320206684086 79.58614868474625 22.85018195271306
82.59349215850163 79.72630973807199 22.613603836097933
82.46941731376442 79.84436187786524 22.3674006144585
82.34202749526395 79.9401699986181 22.113345785367287
82.2124404009863 80.01418235271515 21.85317882686927
82.08176757913917 80.0674032903196 21.588495157527966
81.95105559490628 80.10116137306278 21.32064077484969
81.82123271306375 80.11742428960078 21.050720505870608
81.6930755348187 80.11824199765834 20.77950872851679
81.5672129670303 80.10577459611258 20.507498097247556
81.44417808182534 80.08208807704725 20.234932332087087
81.32431775251231 80.04947407830538 19.96186975654394
81.20789261720206 80.01001495373757 19.688220192278408
81.0951459743485 79.96562552407781 19.413783954567325
80.98613590556202 79.91826339224959 19.138335556573583
80.88092330976869 79.86966523912383 18.861627937439483
80.7795397913316 79.82147745972489 18.583423461317956
80.68187837267138 79.77518885457397 18.30357080324108
80.58784836978647 79.73214966965492 18.021962277172
80.49730396278683 79.69357621079702 17.73857142525608
80.40999239675763 79.66042471173832 17.453486474449903
80.32564459751731 79.63350130320826 17.16685764950651
80.24396582481337 79.6135109278548 16.87889222866034
80.16454483878016 79.60079227464173 16.58988513199523
80.08696345545708 79.59557997540799 16.300146323368725
80.01076895586279 79.5979690174066 16.01000199104913
79.93547109823137 79.60791660326733 15.71978401944467
79.86054803686505 79.62515703443344 15.429810533560493
79.78547409963939 79.64939637371047 15.140376213697197
79.7097021907074 79.68032825892053 14.851762013781919
79.63268214641788 79.71750702292788 14.564217089136578
79.55386947205565 79.76046401675642 14.277965584231303
79.47270030672935 79.80876306070965 13.99322754968779
79.38859821649669 79.86194709363805 13.710216506828749
79.30103389464001 79.91948843027176 13.429114548138424
79.2094488321949 79.98091222483156 13.150123177783241
79.11324801744767 80.04575537800935 12.873469260538435
79.01195327953371 80.11347777933226 12.599335744426472
78.90505760568293 80.18358193633046 12.327941683660846
78.79199146085708 80.25558417041124 12.059562669084423
78.67239030134665 80.32894710526088 11.794405770635768
78.54586177132882 80.40316808000577 11.532726253430901
78.41200154523432 80.4777515660226 11.274825566502672
78.27056324582048 80.55220956358322 11.02096657045683
78.12137661412378 80.62608978108935 10.771411581266719
77.96429636112616 80.69897596575092 10.526450209754305
77.79919297503181 80.77048497847159 10.28640944460446
77.62616313477936 80.84032128247789 10.051515718434212
77.4452815745125 80.90824548113157 9.822038668751032
77.25663166291916 80.97407817732535 9.59827751045639
77.06039611789629 81.0377318597101 9.380490330087836
76.8568402174959 81.09921478372961 9.168886670907678
76.64621319078887 81.15860160226516 8.963700523010543
76.42871398908137 81.2160222998519 8.765233726372085
76.20470898522404 81.27172026109241 8.573631942279164
75.97451381529937 81.32597796481592 8.389082948584754
75.73841564013283 81.37911909628914 8.211808445899141
75.49673287209635 81.43151351114534 8.041994576753522
75.24984172202795 81.48355840758131 7.87973398371589
74.9980756044725 81.53565223084703 7.725160079154442
74.7417159809021 81.58820067551554 7.578492016267172
74.48116313426434 81.64157973268374 7.439727536812321
74.21675032141228 81.69613684366325 7.308951528638711
73.94877960230441 81.75219726928954 7.186305104918393
73.67759560440128 81.81002587829401 7.071814910824724
73.40353416713707 81.86983422697645 6.965484241807389
73.12690145783912 81.93180394546165 6.867364561178851
72.84799554668757 81.99608603906674 6.777516767742643
72.56714523315506 82.06275764812753 6.695839854542019
72.28464923295056 82.13189200081412 6.622286820451421
72.00079182940337 82.20357099454289 6.556857454964534
71.71587807925444 82.2778237862042 6.499373115869648
71.43019662400289 82.3546868895912 6.449651637941914
71.1440244277519 82.43421482248736 6.407515519555585
70.85763286647666 82.51647399488145 6.372756484011236
70.57128204676123 82.60149306036737 6.345007792090701
70.2852116296807 82.68932797494212 6.323927684518182
69.99964857044971 82.78006100821698 6.309183719351251
69.71479037083009 82.87372665120643 6.300301773999877
69.43080596810519 82.97035622951854 6.296789477831601
69.1478408981356 83.06998680868796 6.298151859444213
68.86601814427065 83.17265559084808 6.3038745201134905
68.58540919883995 83.2783293076432 6.313342303324762
68.30606698062456 83.38698861560282 6.325969731370918
68.02802968931549 83.4986253296308 6.341175243918704
67.75129198460145 83.61317202520263 6.358326550810209
67.47583151262229 83.73055624692786 6.376806978082414
67.2016212135137 83.85071833934475 6.396016448615071
66.92862812681216 83.97360009120861 6.415358358306041
66.65679887227279 84.099102443806 6.434259178830872
66.38609646415152 84.22715832484576 6.452178800345793
66.11650730384287 84.35774026842375 6.468584918884386
65.84800941228848 84.49077997515381 6.483015228670118
65.58061147863101 84.62625121233204 6.4950425714086215
65.31435798621669 84.7641746165831 6.504252728826923
65.04931016001302 84.9045720709467 6.510296794260963
64.78555376067024 85.0474845351359 6.512879558187137
64.52322093569938 85.19301117088338 6.511695492104627
64.26247670373193 85.34127649458122 6.506462332158654
64.00349964153351 85.49239804442261 6.496959153198101
63.74652504881641 85.64655253700062 6.482910124235341
63.491839037627216 85.80394996652583 6.464003366682212
63.23972615982655 85.96475420746319 6.439987387181556
62.99053955337141 86.12917080232626 6.4105165698083955
62.744719048711865 86.29744085255076 6.375133673876854
62.50267339944217 86.46969440350053 6.333470925484959
62.26490209697579 86.64607770268759 6.2850347242983435
62.032002952072546 86.82672492747254 6.229214796059106
61.80458398212528 87.01166036712564 6.165427284473662
61.58330150826272 87.20082789139246 6.093059589040295
61.36889347567 87.39409837525545 6.01144014385029
61.16219780531495 87.59125482157198 5.9198390865602555
60.96406195873606 87.79193479864912 5.81760679531888
60.775326903265196 87.99564232022985 5.704200468654642
60.59687714895795 88.20177522934357 5.579133991504605
60.42958756658283 88.40961726477241 5.442049627034505
60.27438939904306 88.61835075131606 5.292657124070436
60.13187150270838 88.82707006447944 5.131113666303397
60.00258124615293 89.03485677412002 4.957674294672485
59.887161092366156 89.24074890990875 4.77258272599259
59.7855075323249 89.4439150462625 4.57671785959242
LINES 1 245
244 0 1 2 3 4 5 6 7 8 9 10 11 12 13 14 15 16 17 18 19 20 21 22 23 24 25 26 27 28 29 30 31 32 33 34 35 36 37 38 39 40 41 42 43 44 45 46 47 48 49 50 51 52 53 54 55 56 57 58 59 60 61 62 63 64 65 66 67 68 69 70 71 72 73 74 75 76 77 78 79 80 81 82 83 84 85 86 87 88 89 90 91 92 93 94 95 96 97 98 99 100 101 102 103 104 105 106 107 108 109 110 111 112 113 114 115 116 117 118 119 120 121 122 123 124 125 126 127 128 129 130 131 132 133 134 135 136 137 138 139 140 141 142 143 144 145 146 147 148 149 150 151 152 153 154 155 156 157 158 159 160 161 162 163 164 165 166 167 168 169 170 171 172 173 174 175 176 177 178 179 180 181 182 183 184 185 186 187 188 189 190 191 192 193 194 195 196 197 198 199 200 201 202 203 204 205 206 207 208 209 210 211 212 213 214 215 216 217 218 219 220 221 222 223 224 225 226 227 228 229 230 231 232 233 234 235 236 237 238 239 240 241 242 243

POINT_DATA 244
SCALARS curvature float
LOOKUP_TABLE default
0.22099599920660928
0.22454828715788516
0.22741049005375244
0.22957892585763162
0.2310641066709315
0.23190475295974716
0.2321322845029537
0.23179139555204517
0.23089617249329517
0.22943076160367568
0.22735266327240192
0.22457983383507849
0.22100220909419963
0.21649087377234127
0.21093882651585713
0.20427249441603967
0.19650597650852997
0.1877295799990669
0.17811881286924808
0.16793435911088747
0.15754898520168675
0.14745666057256365
0.13819799174977476
0.13035722524166343
0.12445735366094503
0.12083556595358935
0.11958707728509799
0.12047113894471022
0.12293145194235353
0.12624285585782788
0.12962568563404342
0.13235775997889354
0.13384762657756782
0.13363890033218387
0.1314127782322307
0.12701505220299358
0.12042339520632961
0.11177334594548131
0.10126852748246191
0.08916264601012183
0.07573658473908353
0.061338468735342315
0.04652762615353354
0.03260714626383507
0.02395794077673929
0.02831308383441942
0.04333398155944177
0.06269510394870273
0.08434770387365399
0.10768264028575825
0.13243600336405562
0.1584137917551098
0.18528234076941755
0.2125036119528846
0.23929381211093229
0.26457357088697975
0.28706455113609314
0.30546107512338394
0.3186663894115422
0.3261023450528895
0.3278465629487353
0.324655926384799
0.3177443596943055
0.30854668028256305
0.29838110071300566
0.2883204020409519
0.27913187801713973
0.2713077184532758
0.2650818548114311
0.2604782495753791
0.25738314658934175
0.25558261049887504
0.254778696217455
0.2546835918851957
0.2549859198945886
0.25543468312284945
0.25581794300210686
0.255970918707056
0.25576779980897013
0.2551226357628057
0.25401271798218
0.2523865479279809
0.2501153439376173
0.24706522570882467
0.24310731570970526
0.23810612435295486
0.23191056214518593
0.2244273449152387
0.21562923705048542
0.20557445187836335
0.194445369307462
0.18254646997863008
0.17032435785109612
0.15833206275930303
0.14728381966864076
0.13799090728356897
0.1312826925950235
0.12791784525362895
0.12833777053177434
0.13248590213886222
0.1399151802656479
0.14987239751163825
0.1614605071259204
0.17381825719741695
0.18614526779313473
0.19776412095850074
0.20813254687760233
0.21686195711428113
0.223783208288237
0.22892454643594767
0.23248292502185466
0.23487088713608165
0.2366058798292283
0.23820154444035105
0.24013178948069613
0.24278003927399097
0.2463956728712553
0.25105287840653695
0.25658016536090594
0.26258130588298395
0.26843598544645153
0.2733119762159794
0.27628412082771814
0.2764114294776487
0.2729356769051897
0.2653575898957593
0.25360916444405857
0.2379894381430826
0.21919412268616298
0.19807312862819895
0.17551692138764377
0.1523058505917392
0.12920810817248915
0.10699066271987293
0.08641504956361486
0.06844517235878188
0.05459927104790988
0.04677969927322165
0.04611909443730097
0.05110564612421505
0.0586884054760869
0.06667359037269024
0.07380922590077496
0.07953211736119643
0.0835995840566938
0.08595627558272922
0.08672137250721135
0.08608051983636707
0.08428299403793715
0.08163388940340506
0.07848310531009232
0.07515795863621579
0.07196979745261624
0.06920915997507504
0.06712058871155376
0.06591037724814063
0.06570982296232263
0.06655578440145926
0.06840117909646604
0.0711329907712068
0.07456927193690288
0.07851600608528125
0.08277439400854958
0.08713908778379706
0.0914313235141936
0.09548313037190467
0.09916067900815326
0.10236149506078877
0.10501157389127311
0.10706720344082789
0.10852340312315485
0.10940114493738338
0.1097385617556041
0.10959804077387253
0.10905921042078627
0.1082043729307438
0.10712438282884086
0.10592184161737586
0.10469082663893059
0.10351063333625625
0.10244242033175453
0.10153307913165531
0.10080445210219317
0.10025557286184628
0.09985724774466179
0.0995612198551473
0.09930864669520344
0.09903222388873359
0.09866694106772031
0.09815323929663934
0.09743547507512958
0.09647124920994928
0.09522325740674602
0.09366036064578384
0.09177085423735988
0.08954873016966956
0.08698357962799681
0.08406668269026925
0.0808078460768167
0.07721975812333666
0.07331840321408707
0.06912881038168057
0.06468882363688894
0.06005064781360988
0.055289186596016116
0.050513687457832065
0.045864221258014204
0.04153543399710374
0.03776274147648168
0.03481956761482554
0.032969777944077905
0.03238630385673993
0.033042032422798386
0.034743960142933586
0.037207510024614976
0.04013541007218639
0.04330742001072726
0.04658991408422397
0.049926923392488
0.05332975670893859
0.05686274031650089
0.06062058503779888
0.06471009055046317
0.06923987075554085
0.0743044236781166
0.07996954475905874
0.08626609226690185
0.09321406370921713
0.10079370584116493
0.10897917473500308
0.11772343632856885
0.12694810910154597
0.13655093488663653
0.1463960275302673
0.15631529471593475
0.16609562312510553
0.17549121955828575
0.18422827145847967
0.19201706745503147
0.19856684393053678
0.20364710580102108
0.20708628101612508
0.2087653931188065
0.208733064590689
SCALARS torsion float
LOOKUP_TABLE default
-0.03335533097676767
-0.03642111924571331
-0.03962848691549868
-0.043005771388505656
-0.04655612351728059
-0.05029973218045145
-0.05427270370920816
-0.05832601377638369
-0.062249675890520724
-0.06570275290890265
-0.06795263869571949
-0.06857517808452548
-0.06644430141040672
-0.061224879851215996
-0.051991773234794904
-0.03840600545863464
-0.02021750064325754
0.003328416317548463
0.03274353244123294
0.06930266327630868
0.11157597501085066
0.1596089431742393
0.2096984673333433
0.25734133942401166
0.2939921752154907
0.31102624606850254
0.30378515974069314
0.27283140422870994
0.22526743806687857
0.169538998598403
0.11228699570892103
0.05995488132963238
0.012938886646105626
-0.027001820269665633
-0.06047067668462265
-0.08455321058630277
-0.0991881392139957
-0.10200281277899324
-0.09038042402545302
-0.06015141758754884
0.001522569970237168
0.12054983904543048
0.3779550336077616
1.0010311767098388
2.0553130202972434
1.4608218691665311
0.5563094367448713
0.20358726199225116
0.06697481559236178
0.007047643164081728
-0.02084145344098222
-0.03354748007373556
-0.03704252281008121
-0.0351721442765098
-0.02989245745587408
-0.022008288503893667
-0.01252261172979498
-0.0014709118781167767
0.010129569540551445
0.022266992751865982
0.03384377703088532
0.04475404202967915
0.05420590287873547
0.06204697077122566
0.06806426857750465
0.07213646895268754
0.07416786446269516
0.07404318063782522
0.07194988805039378
0.06800860545233806
0.06250945192787268
0.05572435652064809
0.047833208812782205
0.03899758561435128
0.029281919890501173
0.018856509687420534
0.007594411201152459
-0.004420366205289711
-0.017341324820036554
-0.030843760877616838
-0.04500336114046522
-0.06012858180063532
-0.07655811252815575
-0.09401019016425935
-0.11249808953642108
-0.13219028569103147
-0.1534905644257182
-0.17689101491383788
-0.20301759922706472
-0.23292511501388166
-0.2676665765093161
-0.3088031158617275
-0.3573999226143503
-0.4141776538959922
-0.4774567858980917
-0.5412903210507546
-0.5943398540117814
-0.6212830527596843
-0.6105704047343226
-0.5637286033294674
-0.4927952154341628
-0.41285508057804865
-0.33548544428459454
-0.2659509098286042
-0.20593431235664145
-0.15476964213609457
-0.11105855834884287
-0.07396738424061867
-0.04184877971917342
-0.014542516681795854
0.008963324769904413
0.028217299881186673
0.043726384759739244
0.055505859286971514
0.06359578079168561
0.06767504711992661
0.06766649553316476
0.06406499305914545
0.05727474862685471
0.04816156769133711
0.03729959945477332
0.025311093633760762
0.01261961546762519
-0.0005986396355982387
-0.014214895219976402
-0.028513336174001508
-0.043746820170753146
-0.0607337403669598
-0.08030745281671749
-0.1043950984185187
-0.13579312468159138
-0.1791854478818182
-0.24152052421163664
-0.33619167977773057
-0.48582747413316263
-0.7214675294015958
-1.0524087011463825
-1.32005121229615
-1.2497328228257456
-0.9360126267037675
-0.6538218318659623
-0.4690111105198392
-0.35776022939625574
-0.2918378400151357
-0.2537154813233006
-0.23416406875812187
-0.22731152639191932
-0.2304546712564034
-0.24179497718039053
-0.2604866432611345
-0.285054127509781
-0.3145932607528075
-0.3467896815802197
-0.3785754681547409
-0.40552632156908935
-0.42277469991792643
-0.4266674371871793
-0.4158970615756282
-0.39249859232040585
-0.3604628943324011
-0.32437723677752744
-0.28775504880850883
-0.25264021939232206
-0.2201725555108501
-0.19016099389615573
-0.16253129291497684
-0.13666556730907128
-0.1119661288874381
-0.08802249970682298
-0.06415950471357935
-0.04023404855914241
-0.015717816577636056
0.00902304449789255
0.03413227703475093
0.05895094165660392
0.08309268832609301
0.10565675074031584
0.12556531732310974
0.14242142505880315
0.1556061055033591
0.16445481805614426
0.16791819424165172
0.16586698841045194
0.1587854118657801
0.14712305102818246
0.13276673604633835
0.11637984754503165
0.10043791899603263
0.08571423547884492
0.07382187368146867
0.06549079924913113
0.061016267230041416
0.0607202478856852
0.06408167447775336
0.07059795569893433
0.07989391237935008
0.0913115295161096
0.10475233654120375
0.11923653162101464
0.1351078176794102
0.15255021088687062
0.17236786632987194
0.19594883887181164
0.2247992464608856
0.26149807473055686
0.30829976866593156
0.36790989794742174
0.4410239924288853
0.5236906424111452
0.6019778954856692
0.651537023017342
0.6479183743197309
0.5875870196389155
0.490063431081314
0.3821534842581537
0.28266995331844735
0.19764262618690542
0.12913469660439977
0.07443739156375521
0.032960176259665575
0.0023759271120023188
-0.01769981421369623
-0.0288367861260139
-0.03169754750816584
-0.02766894276534235
-0.018835934884539916
-0.006805686199702771
0.006782057802573583
0.02072015542426119
0.0340276184396484
0.04574093046074709
0.05555542949428018
0.06261920473658873
0.06720854347382722
0.0689910962718242
0.0684488931565585
0.06592026893217993
0.06184868399758503
0.05697856688990264
0.051613910897753086
0.04633456737971549
0.04129757644112564
0.036673123632214796
0.0324969812080204
