# vtk DataFile Version 2.0
00003738.nii_R_ICA_labeled
ASCII
DATASET POLYDATA
POINTS 229 float
84.88450923675289 85.80247503227257 32.118778478993
85.04364990933985 85.85063485727999 31.869123396958944
85.21472681404121 85.88773675827132 31.625546713073902
85.39665007505947 85.91352114609133 31.38845248670865
85.58832912195214 85.92776052156309 31.15816522433457
85.78868725804656 85.93024379184868 30.93494448874852
85.99666892455173 85.92076224003854 30.719000518963984
86.21124047228571 85.8990982462921 30.51050938000254
86.43138526907336 85.86501819309144 30.309626087517735
86.65609434573184 85.81827096500153 30.116494232026334
86.88435431644399 85.75859350547942 29.931250734158123
87.11513466162316 85.68572500695727 29.75402406742485
87.34737741006386 85.59942972535244 29.584925094664694
87.57999240696837 85.499528345401 29.424029509369504
87.81186154593006 85.38593435250662 29.271352873215164
88.0418543348888 85.25869147004943 29.1268199841417
88.26885510874808 85.11800483663166 28.990233181644232
88.49179947476236 84.96425979924972 28.861245050496102
88.70969835817488 84.79799114176933 28.739358944253595
88.921703022542 84.61993991450112 28.62388375113346
89.12714272451123 84.43100791597273 28.513959545645136
89.32549919653097 84.23214854937794 28.408624331257467
89.51641522599162 84.02435576632301 28.306835823377206
89.6996749047642 83.80862131416983 28.2075187187505
89.87517393041021 83.58589993077783 28.109610501196887
90.04288463039178 83.35708312793471 28.012102659441716
90.20282053968243 83.12298244154225 27.91407272936381
90.35500328774087 82.8843199396349 27.81470713538439
90.49943433055826 82.64172543859299 27.7133136432672
90.6360717746856 82.39573852251202 27.609324878937166
90.76481316531869 82.14681526074222 27.502293673341914
90.88548345882363 81.89533893341023 27.3918816647803
90.99782810651989 81.64163456889017 27.277843152222548
91.10151064763926 81.38598722779908 27.160005222290508
91.19611445819672 81.12866313032443 27.038246828630438
91.28114866566088 80.86993341248379 26.912477509975144
91.35605798160235 80.61009883406274 26.78261845137959
91.42023687789279 80.34951467367603 26.648586346982505
91.47304799144223 80.08861374998537 26.51028204210847
91.51384507076035 79.82792623471273 26.3675841479759
91.54200020684489 79.56809421071594 26.220348398315426
91.5569348956042 79.30987936079376 26.06841233224128
91.5581540861095 79.05416222172994 25.911604501949675
91.54525342605757 78.80194073835138 25.749746603969243
91.51803787437659 78.55428770274014 25.582696544479614
91.47647370699049 78.31233722158363 25.410332262587282
91.42072511105928 78.07724879646148 25.23256369877172
91.35116740979156 77.85017051688548 25.04933457149646
91.26838322495672 77.63220721970617 24.86061603566276
91.17314010371818 77.42440403404325 24.666391601368783
91.06634354071208 77.22776817908691 24.46662850154395
90.94911567597383 77.04316263662541 24.261314260437388
90.82265662864666 76.87142138114494 24.0503930276394
90.68825761215388 76.7133510935208 23.833771392609297
90.54728956040118 76.56977057599362 23.611314938153175
90.40120342616792 76.44156732175209 23.382847742411787
90.25154523020413 76.32983611422523 23.148133356623955
90.10004160608081 76.23559152669947 22.907027636668353
89.94855897738839 76.1601714327084 22.659385773532662
89.7992057321683 76.10516022866139 22.40517749140856
89.65440389286738 76.07240890514136 22.144591860536874
89.5169551913261 76.06401399542014 21.878187843369343
89.39013410581572 76.08234024889808 21.607079354475793
89.27769978055086 76.12981366809807 21.333212317802737
89.18350959559895 76.20817381698147 21.059598624503508
89.11170100836245 76.3188655791226 20.790435623827015
89.06549949257246 76.46146420548189 20.530881025241122
89.04687953707814 76.63388166517315 20.28642529993603
89.05614396016828 76.8324501203274 20.0620782798985
89.09197895345199 77.05251398789444 19.861705801896786
89.15136975517622 77.28887997269541 19.687108203862444
89.2311531065483 77.53714848893812 19.53912348819489
89.32766664514112 77.79345713890694 19.4170160635879
89.43772296621701 78.05492059432059 19.319746603264026
89.55846028001227 78.31935720927214 19.24594815685239
89.68739086877488 78.58516464277623 19.194153724957282
89.8223824239232 78.8511861739326 19.16293291338493
89.96160711234383 79.11659490592729 19.150958464686195
90.10348207377082 79.38080425543335 19.157027029998037
90.24661272051357 79.64340419947146 19.180051817205637
90.38974444757861 79.90411887391264 19.21904055429733
90.53171091755006 80.1627679792993 19.27314936972658
90.67142395125175 80.41928547255203 19.341425451132704
90.8078668921864 80.67369807028612 19.422918671415495
90.94006153804818 80.92611417957282 19.516704377201474
91.06706669689159 81.17673349589148 19.621805986719707
91.18797788968462 81.42584923422355 19.737175179979452
91.30193123136688 81.67384719967677 19.861678658369684
91.40811025108961 81.92119945422135 19.9940918411931
91.50575374723606 82.16845102607549 20.133100057739625
91.59417118070255 82.41619865308029 20.277302919573543
91.6727447459915 82.6650635265246 20.425232653931637
91.74095198345587 82.91565817411406 20.575366611537987
91.79837419706844 83.16855258168144 20.72615220249011
91.8447104251128 83.424242269747 20.876031470129256
91.87978803409752 83.68312233637987 21.02346791710517
91.90356964804346 83.9454704682239 21.16697231874535
91.91615408195543 84.21144015626848 21.30512532991894
91.91777073343958 84.48106396217956 21.43659354179163
91.90876732445281 84.7542644645182 21.560137281157076
91.88959257243397 85.0308698540564 21.674608482178748
91.86077566712505 85.31063032082545 21.77893901272305
91.82290519712471 85.59323185335556 21.87212055354479
91.77660984764506 85.8783046053593 21.9531783397382
91.72254256406806 86.16542378428532 22.021141661087064
91.6613515276292 86.45410477653716 22.074970822768947
91.59372343496165 86.74377411912143 22.113626215016108
91.52035361402429 87.03375404142865 22.13601570196924
91.44193316721578 87.32322773743631 22.140934206782394
91.35917073811018 87.61119191698675 22.127091508475853
91.27280447288882 87.89640666194163 22.09313551835222
91.18361622016087 88.1773461902315 22.037705005653542
91.09244559943716 88.45216221020236 21.959519613241216
91.0001983304745 88.71863062111318 21.857403915886817
90.90785937261681 88.97424539264829 21.730641788809216
90.81645452730048 89.21639615763907 21.579197749541553
90.72701389703326 89.4424434998953 21.403616070145265
90.64053748172189 89.64989317437143 21.20509158770347
90.55782776189446 89.83718262455591 20.985981679490035
90.47952818850617 90.0032505345495 20.748861351335705
90.40604093050214 90.14791490256978 20.496640157757405
90.33747450369763 90.2720118461076 20.232347542649574
90.2737628009461 90.3768582072019 19.958650264968146
90.21467636525531 90.46422979836538 19.677853789328804
90.15987142905917 90.53618164317999 19.39184880569408
90.10893297769987 90.5948984447582 19.10211930835286
90.06140736708441 90.6425869099369 18.809788434362623
90.01682292180922 90.68140734937595 18.515681353284076
89.9747004938061 90.71343560041957 18.220391076823326
89.93455597876819 90.74064512960541 17.924339737657828
89.89589769311891 90.76489812951102 17.627832071690108
89.85822093523397 90.78793925013312 17.331100704316803
89.82100170439233 90.81138453553937 17.034343354356125
89.78369166614401 90.83670437096957 16.737752198771517
89.74571410340467 90.86520333971696 16.441535598000357
89.70646930488543 90.89797451057173 16.145928063352837
89.66533841144118 90.93588167769838 15.851193669884845
89.62168931024175 90.979540811909 15.55762092319131
89.57488613650155 91.0293077453657 15.26551068572071
89.52431595390965 91.08525694541648 14.975153171272261
89.46939144462411 91.14722508768867 14.686816492656463
89.40956441808433 91.21484144144459 14.400733700503439
89.34433326316032 91.2875764321708 14.117098268296239
89.27324658511036 91.36479571444096 13.836067322637003
89.19590354541141 91.44581463094926 13.557771628259374
89.11195156569451 91.52994714175531 13.2823297654621
89.02108227816488 91.61654714676847 13.009864162325727
88.92302638272176 91.705038996558 12.740516229143623
88.81754795833726 91.79493845208201 12.47445952112353
88.7044385404274 91.88586338233284 12.211909839923887
88.58351135934838 91.97753674212335 11.953132716130545
88.45459618337667 92.0697821715781 11.698448305842778
88.31753516618791 92.16251468343587 11.448234631788964
88.1721804062515 92.25572766062704 11.202929482118543
88.01839350733114 92.3494777986739 10.963031466767987
87.8560478655086 92.44386966431041 10.72910026402739
87.68503381892201 92.53904048417068 10.501755738960263
87.50526725306707 92.63514668943311 10.281675345975378
87.31670142589408 92.73235205359867 10.069588755590653
87.11934187632785 92.83081801866888 9.866268497164759
86.91326352317002 92.93069593350596 9.672515244626691
86.69862861123447 93.03212129552668 9.489136607227477
86.47570350761252 93.13521006356558 9.31691880905637
86.24487155528128 93.24005722166474 9.15659196566995
86.0066394339731 93.34673786010782 9.008790573913739
85.76163417961942 93.45531077568431 8.87401317948711
85.51059003042171 93.56582449690208 8.752585183911176
85.2543249118047 93.67832510208206 8.644630781716796
84.99370955408811 93.79286498403086 8.550057095707794
84.72962717096888 93.90951594858716 8.468580213665101
84.46295919260685 94.02836321040024 8.399657900709053
84.1945334902353 94.1495212624039 8.342590968077936
83.92510903532343 94.27313418562336 8.29654547982275
83.65536488875279 94.39937296601157 8.260582479474662
83.38589506410376 94.52843095312554 8.233693881254624
83.11720929511246 94.6605162481409 8.214834524472973
82.84973760746664 94.79584164811828 8.202949149156323
82.58383643498402 94.93461233545258 8.196993735498895
82.31979453812876 95.07701203510369 8.195952384278632
82.05783751826787 95.22318835058073 8.198850253243124
81.79813012239674 95.37323789301034 8.204764354972603
81.54077639396101 95.52719250331747 8.21283265780561
81.2858177301686 95.68500709576566 8.222262752773762
81.03323027981101 95.8465512889561 8.232339915117894
80.78292086678583 96.01160274075491 8.242435000156147
80.5347273787472 96.1798501250509 8.252011615826968
80.2884182081385 96.35089571349125 8.260632065459639
80.04369768977774 96.52426660793034 8.267961560067832
79.80021545474709 96.69942987790671 8.273770067971924
79.55758059362456 96.87581204033012 8.27793119575882
79.31537998980204 97.0528217422786 8.280418311323633
79.07320015641602 97.22987524028149 8.281297164140641
78.83065086854295 97.40642343312423 8.280715499592752
78.58738844395765 97.58197897966262 8.278888881139137
78.34313698368028 97.7561426019339 8.276083403106334
78.09770471884336 97.92862559777643 8.272594855210196
77.85099493158154 98.09926802595592 8.26872559964276
77.60300918984201 98.26804867372259 8.264760025209046
77.35384462992758 98.43508781539941 8.260940069508854
77.10368513538526 98.60064070054516 8.257442758293337
76.85278908589194 98.76508386611388 8.254360655677141
76.60147432015985 98.92889385427866 8.251687517757695
76.35010276220909 99.09262128122475 8.24930853236342
76.09906556139705 99.25686163671173 8.246996735509212
75.84876959395977 99.42222481882212 8.244413856973031
75.59962547410905 99.5893048740627 8.241116406378053
75.35203675756792 99.75865093057045 8.236564908414888
75.10639039242191 99.93074093096301 8.230136234437797
74.86304778433517 100.10595849661264 8.221137241491865
74.62233724760206 100.28457483743301 8.208818699779986
74.38454742841148 100.46673523981892 8.192388406658365
74.14992335922044 100.65245170749677 8.171021845726166
73.91866462518816 100.84159973595678 8.14387033044366
73.6909269742752 101.03391906068339 8.110065395278614
73.46682697048564 101.22901603847443 8.068720767234975
73.2464504687387 101.42636683480933 8.018932439943008
73.02986542790443 101.62531967395408 7.959775482663114
72.81713907688433 101.82509324859306 7.890296737911994
72.6083385706397 102.02477303125796 7.8095656895930725
72.40356436423936 102.22331362861343 7.716647422799388
72.20296147950778 102.41953547395654 7.610641785505852
72.00673414736939 102.61212889154302 7.4907206398730315
71.81515606905094 102.79966760251685 7.356176581432681
71.62857320339248 102.98063598800123 7.2064806051572265
71.44739626346687 103.15347436485577 7.041343576960939
71.27208042126551 103.31664343401782 6.860772443464055
71.10309204622314 103.46870588930193 6.665110087813607
70.94086481064811 103.60841692883817 6.455046944788572
70.7857515257053 103.734811398995 6.23159617240845
LINES 1 230
229 0 1 2 3 4 5 6 7 8 9 10 11 12 13 14 15 16 17 18 19 20 21 22 23 24 25 26 27 28 29 30 31 32 33 34 35 36 37 38 39 40 41 42 43 44 45 46 47 48 49 50 51 52 53 54 55 56 57 58 59 60 61 62 63 64 65 66 67 68 69 70 71 72 73 74 75 76 77 78 79 80 81 82 83 84 85 86 87 88 89 90 91 92 93 94 95 96 97 98 99 100 101 102 103 104 105 106 107 108 109 110 111 112 113 114 115 116 117 118 119 120 121 122 123 124 125 126 127 128 129 130 131 132 133 134 135 136 137 138 139 140 141 142 143 144 145 146 147 148 149 150 151 152 153 154 155 156 157 158 159 160 161 162 163 164 165 166 167 168 169 170 171 172 173 174 175 176 177 178 179 180 181 182 183 184 185 186 187 188 189 190 191 192 193 194 195 196 197 198 199 200 201 202 203 204 205 206 207 208 209 210 211 212 213 214 215 216 217 218 219 220 221 222 223 224 225 226 227 228

POINT_DATA 229
SCALARS curvature float
LOOKUP_TABLE default
0.1987066344045324
0.19382795281631565
0.1890578782514275
0.18461622139333808
0.18070246951485444
0.17748813945733696
0.17510869214797556
0.17364809294543465
0.17311908118260586
0.17345214561985003
0.17446847845605898
0.175892202622966
0.17733703122599884
0.17835317131718417
0.17845325290458047
0.17719197616015936
0.17423448986968812
0.16941440663776594
0.1627826391315269
0.15461728988158338
0.14541122030432688
0.1357713331492626
0.1263651742578144
0.11781267157834761
0.11062492233617906
0.10511460181355314
0.1013890926175282
0.0993557769890553
0.09880976391628013
0.09950501320574413
0.10123578526383128
0.10385876270879978
0.10729682074344458
0.11150953838543004
0.11646654336250359
0.12212091340987481
0.12839656007149783
0.13518357204560244
0.14234072619768595
0.14969807275047606
0.15706174872215153
0.16421205488428375
0.17091252496828088
0.17691276782562843
0.18197791038974706
0.18591269820268377
0.18859595329057363
0.19001734346753413
0.19029551385684448
0.18969774335157252
0.1886316193806149
0.18765024451614432
0.18741381930530399
0.18867319910443694
0.19222045589497086
0.1988483778836024
0.20930589026611748
0.22417402302583553
0.24388685367894342
0.2686812098274942
0.2984898405388385
0.33279473543101173
0.370322862885444
0.4086332381143741
0.4438586397044768
0.47094490062684125
0.48495351264537273
0.4830518457865599
0.46575475435972474
0.4368492375149905
0.4015116926493094
0.36427870669532275
0.3283673062782289
0.29564071704715256
0.2669116121380903
0.24234579838445183
0.22171967789556632
0.2046287431564276
0.19056417958902583
0.17899261767757665
0.16937498916312266
0.1612117609772386
0.15404511677476446
0.1475154636207026
0.14138541175290661
0.13556430164356162
0.13012471020151503
0.12530641102959933
0.12148589194985553
0.11909259885269999
0.11849322214589379
0.11984107360186143
0.12301054779182494
0.12759843170511845
0.13304888771200832
0.13877674151984082
0.1442920847932649
0.14926554463093283
0.15355427120420578
0.15719925613642918
0.1604006827145784
0.1634854348209103
0.16686458305591084
0.17098916280778265
0.17630864529200926
0.18322783557997377
0.1920715809980139
0.20303780315323317
0.21618857014939713
0.23139663296852275
0.24831823055122212
0.2663330424037502
0.28449038031161006
0.3014816427380529
0.3156695581264604
0.3253327562871401
0.3288995543316627
0.3253134454061465
0.3144802029631515
0.29707517910267855
0.27445055245396704
0.2482700042806764
0.22008503289109277
0.1911572417729054
0.16241675941104045
0.13447695177395072
0.10771806432972536
0.08238979036410395
0.058702495481892006
0.03707364565638855
0.0192022440441854
0.014943701797551034
0.027095679520443318
0.041201825519314235
0.05393755442201704
0.06464525435430103
0.07312144539071488
0.079356700745805
0.08351100542285332
0.08590247013936281
0.08697168586040895
0.08722771100143117
0.08717088627925448
0.08722389071037466
0.0876657302056646
0.08863062370097131
0.09012010978839952
0.09207302833174873
0.09441014451624302
0.09708382453791102
0.10008466518131841
0.10344501692814087
0.10721426499125533
0.11144389734325881
0.11616133790985918
0.12135968425195738
0.12698320054661957
0.13292708342675363
0.13903338144507
0.14509391979743377
0.15085310705388202
0.1560145691843227
0.1602613683655251
0.1632696352310414
0.16475289353717115
0.1644758984050854
0.16231238108528015
0.15823617896835124
0.15235960191785577
0.14488845122670668
0.13614108277531253
0.1264815768507681
0.11631262575951505
0.10603759049784961
0.09604341730598435
0.08668525144400513
0.0782565949804369
0.07097322559677054
0.06492738631675998
0.06006605066964451
0.056180975500661326
0.052938696365055035
0.04995949147379605
0.04687497785679775
0.043415149099977166
0.039416927802431036
0.034883144597115126
0.029972263731095652
0.02507316221911395
0.020843753874088575
0.018223949041525425
0.01791811127414017
0.01957467639176816
0.02201914845090168
0.024200811867413907
0.02542333440366807
0.02532239735374655
0.023708839572847962
0.020574277624227623
0.016017510311949697
0.010367583560712155
0.005091018125726501
0.007605008932694164
0.015505663555833502
0.024419479421159684
0.03363326572254856
0.04283892100710798
0.05181434334921851
0.06042081908355322
0.06857444785540742
0.07629752902039728
0.08367287600340614
0.09087931319743185
0.09813667577900499
0.10570709957606853
0.11383868861915732
0.12273815003488503
0.13253948711536903
0.14327257061760318
0.1548590231982018
0.16710133817574432
0.1796852002682818
0.19219315183423297
0.2041182311735167
0.21490856833211106
0.22401329012105498
0.23095837978034287
0.2354110258313396
0.23723241743622
SCALARS torsion float
LOOKUP_TABLE default
0.09268822865261919
0.10034696120765861
0.1080815640407293
0.1157004357485783
0.12298325544691484
0.12966195735583239
0.13547120889909142
0.14018629719991363
0.14372566331534758
0.14610947354059206
0.14767503390864534
0.14885082911586742
0.15040040491261353
0.15304588546837317
0.15777755764724802
0.1652975040879185
0.17661113507695375
0.19212513092441053
0.21269980876802036
0.2380063874984218
0.26784147611212067
0.30020116604794256
0.33195489693881486
0.35810442277805904
0.3717508662111309
0.36812593483338607
0.3433890295273399
0.3015304424741655
0.24693694532164717
0.1894357282987068
0.13426053099478155
0.08809387226717892
0.05274103564658906
0.02995308368073055
0.01894706345571752
0.01789379683758912
0.02491031305456923
0.03678448332353642
0.051919525459856966
0.06758872033581442
0.08309760832493117
0.097003935255028
0.10945591635762215
0.12032493759738781
0.13028446447781208
0.14005698741102438
0.1504151327633047
0.16217884932817078
0.175867874247908
0.191623381519368
0.20941246665130026
0.22789640267852976
0.24603432213859738
0.26071934732625746
0.2701552556734826
0.2711582436339831
0.26344571192701877
0.24703667586150155
0.22439665978404327
0.1978721494805328
0.1697457188466007
0.14166629826015195
0.1140354874123432
0.08740367551245529
0.0612291887807375
0.03608199308324776
0.011791371692836877
-0.010893880749489361
-0.03150863747638606
-0.049778627017276714
-0.06597011395917439
-0.08062744109241754
-0.09425436337192579
-0.10718529440320458
-0.12000554303853792
-0.13262429357753905
-0.14552621260490725
-0.15840380568686543
-0.17192942348032822
-0.18606716751408495
-0.20187920637363174
-0.21995100596004294
-0.24167943859046848
-0.268090521781223
-0.30030896457328626
-0.33889049362039414
-0.3830543097864527
-0.4301444845188805
-0.4743277448046581
-0.5074553034133577
-0.5212475286763854
-0.5114882575577401
-0.48097042423911673
-0.4372277471291985
-0.38947082818804313
-0.344192909007191
-0.3053575858363918
-0.27405293174122264
-0.2500471490720922
-0.23231852771171543
-0.21924106780003438
-0.20945355791340192
-0.20092818240080987
-0.19248581859274375
-0.1824092062811563
-0.17018970944983566
-0.15535374537046162
-0.13832021664208824
-0.11988779201126828
-0.1008329156567833
-0.08226555660219852
-0.06467942854378653
-0.0488573217930342
-0.03494699492122001
-0.023423767554333785
-0.014255482988678781
-0.0075750937886439025
-0.003290825202230451
-0.001157047829169009
-0.0010673989993992905
-0.002680390756426833
-0.006058637876501908
-0.011066150231061547
-0.018224705443283386
-0.02797374913692587
-0.04204650097142711
-0.0632081215485556
-0.09934394464069853
-0.17242813518878142
-0.37134078426450357
-1.1904939997176345
-1.7525813913959474
-0.533933838688277
-0.2672328524020101
-0.2010334122241757
-0.18886605139188833
-0.19722504316164544
-0.21701082433122776
-0.24264429390384368
-0.27140207017988177
-0.29894673323016213
-0.3208676494359547
-0.3319235545022928
-0.32771063442457943
-0.3069090011575438
-0.27047836428960725
-0.22369676715811898
-0.17087382974369797
-0.11815812613884541
-0.06825574296729167
-0.024908985153631442
0.011283525261507906
0.03894952042498044
0.05873150349636735
0.07121045389943247
0.07768986743753585
0.07991875479164572
0.07913923065497769
0.07698961008701075
0.07425176756132541
0.07191708341851745
0.07038771536759145
0.0701539105695945
0.07145508206142137
0.07451964250779645
0.07961665356887543
0.0869327531022716
0.09690926296917127
0.109884514845674
0.12657829835865217
0.14756063653624296
0.17379752735545723
0.20597041602613195
0.24482752367328578
0.2901544453641838
0.34077095908767024
0.3931972399475276
0.441770250215419
0.4794311810379136
0.4999388244454018
0.5021290699304419
0.48968107707344144
0.4715335542304495
0.45670017931094375
0.4550407355708362
0.47622553103478804
0.533746283259427
0.6483896296125438
0.8485373645761344
1.1431193943648774
1.4025522343999188
1.361440548210651
1.0622484141392574
0.7706796298297816
0.5737322678136834
0.4552535231488445
0.388282199445096
0.3593257205749743
0.3691838938953489
0.4550995954698193
0.8329936432211653
3.1044723457446888
1.6588202554244778
0.578672206618603
0.3617276959535839
0.2901250619289341
0.2604483848726311
0.2485429743862695
0.24563891214054917
0.24826712998208061
0.25381469002161233
0.26079348180983486
0.2673348319414719
0.2717615840424146
0.2723757616296292
0.2683042027440285
0.25922879052666675
0.24563407133304732
0.22848061163055722
0.20906017316995942
0.18854097566668346
0.1680587821901671
0.1483227804248245
0.12991350747456512
0.11306961922591446
0.0979783165296014
0.08463737420500783
0.07294424737548834
0.0627750709297026
