# vtk DataFile Version 2.0
00000652.nii_R_ICA_labeled
ASCII
DATASET POLYDATA
POINTS 223 float
74.15346966537984 67.47022290211358 37.59834477049429
74.32662273733186 67.66226594819835 37.446265588707114
74.50695011869813 67.8527532974495 37.30070106634861
74.6942377324717 68.04049890644976 37.16045742989471
74.88838273693581 68.22440258221717 37.02451426031831
75.08936584324965 68.40339281416648 36.8919957195964
75.29725107744872 68.57635527541635 36.762150734989945
75.51214031343167 68.74210011399053 36.63431485183986
75.73414726953587 68.89932476393743 36.50789378994332
75.96334712211237 69.04660959105308 36.38235030353744
76.19974891645131 69.18238739948224 36.25720187580896
76.44324561350648 69.30493437116422 36.13201723305427
76.69353081428578 69.4124375208666 36.00641897259509
76.95005322697496 69.50302327959567 35.88008883458493
77.21195889965183 69.57485185841831 35.75277213503279
77.47805939173068 69.62623482288575 35.624279376323955
77.74684565502476 69.6555544824019 35.494469793564136
78.0164731833991 69.66195866190633 35.36327416270871
78.28494659110655 69.64504407066681 35.23065227572923
78.55016643113218 69.60467388933543 35.096555564219244
78.8102118709177 69.54186249245748 34.96096316101164
79.06331800350188 69.4577025598536 34.823804086668254
79.30803231340802 69.35375142383323 34.68498412328364
79.54333322800946 69.23194875295636 34.544401491853385
79.76847130054637 69.09415789799874 34.40193082079359
79.98295285715825 68.94218364803565 34.25744273884419
80.1867034829303 68.77793573898637 34.110861073121356
80.37978039956214 68.60305830833214 33.96213290820657
80.56240840947218 68.41902926702693 33.81125493390914
80.73493479608223 68.22714566697739 33.65827829652505
80.89778733512203 68.02851976138696 33.50330854724056
81.0514347492112 67.824083881627 33.346499200573405
81.19633560449772 67.61459399868069 33.18803834602932
81.33293876221126 67.40066700944978 33.02813892648207
81.4616213693275 67.18278465673687 32.86701263020997
81.58265335689565 66.96131832879462 32.704846248653986
81.69617479558943 66.73656085347366 32.54177835575252
81.80217254745824 66.50875665055514 32.377876477547815
81.90046233519895 66.27813336276331 32.213116677666235
81.99067908078257 66.0449343259393 32.04736893377315
82.07227475656354 65.80945201206036 31.880388468304048
82.1445281727661 65.57206191368591 31.711816838998953
82.20656536680428 65.33325666366977 31.541191816813495
82.25739435716386 65.09367817726216 31.367968699378523
82.29591035040367 64.85414945656647 31.191537955960754
82.32104090830215 64.61569852357584 31.011284019749898
82.33180462545569 64.37955512648482 30.826626729112895
82.32733419279404 64.1471486120965 30.63704487442731
82.30697766595634 63.92008170566334 30.442116508874978
82.27035976337541 63.70008749519298 30.241541627736083
82.21741026040135 63.48898379996587 30.035146734205043
82.1483447686136 63.28865230152492 29.822867950858843
82.06383589626077 63.10085302599848 29.604804737685633
81.96475568294386 62.92733713516439 29.381120151151592
81.85220913195127 62.76979862313822 29.152051683452004
81.72748849276933 62.62989029358742 28.917901893515875
81.59203817070915 62.50925480658901 28.679041522814238
81.44743508358309 62.40956189340702 28.4359290215179
81.29536213304901 62.332654212762385 28.1891340890207
81.13770700306819 62.28033847425595 27.939435715785713
80.97653472701124 62.25441760333389 27.68787120546757
80.81409763837316 62.25676439391626 27.435808330818766
80.65290898421335 62.28938867147035 27.1850665506568
80.4956271654519 62.353197949803466 26.937882051773006
80.34511446645591 62.449304952488475 26.697025829619246
80.20392215184141 62.57690965359561 26.465341426201544
80.07434656535347 62.734675376726 26.245750988928233
79.95794051957668 62.91986812354221 26.04067053647659
79.8553733175193 63.12887669254348 25.851690862902448
79.76668712893166 63.357995841121074 25.679730445241432
79.69104230783711 63.60324962578134 25.52457752436401
79.62731309774226 63.861238485757205 25.385515420435787
79.57422247140767 64.12911519274789 25.261450901288676
79.53030804146448 64.4044431868755 25.150808124574763
79.49428316895933 64.68537918574941 25.0520184070698
79.46500047422327 64.97049256022949 24.963473282598702
79.44148795101665 65.25868663563709 24.88358234763112
79.42296230442139 65.54912403894333 24.810801884023125
79.40883045360198 65.84116252599992 24.743645826669614
79.39868324608089 66.13430199182397 24.68068714338279
79.39228562985562 66.4281416294436 24.62055659040752
79.38956217772787 66.72234485981316 24.56194121233736
79.3905785105744 67.01661052166982 24.503585538597367
79.39551740449559 67.31064893222671 24.44429514952618
79.40464912340725 67.60416239606805 24.382942677546524
79.41829615453143 67.89683001966861 24.31847415549895
79.43679335587959 68.18829715687522 24.24991413328156
79.46044685889329 68.47816950878467 24.176367293592264
79.48949415733114 68.76601158846067 24.09701520352235
79.52406994204297 69.05134859860038 24.01110821913685
79.56419826565295 69.33365760707096 23.91792491233227
79.60973036855766 69.61239406274012 23.816814236474926
79.66035366105646 69.8869930705279 23.70716983747152
79.71561476019882 70.15685390548583 23.588386732477126
79.77491243285611 70.42134591941205 23.459876208928375
79.83751121884559 70.67980118275537 23.32106415506021
79.90255860384859 70.93147906338488 23.171357301768822
79.96906759098616 71.17570212337894 23.010377343958766
80.03599604404897 71.4117428799793 22.837789165258744
80.10225755792297 71.63889083815897 22.65341445678007
80.16673698140563 71.85639678030417 22.45716635556394
80.22839759083396 72.06378697543828 22.249403171134336
80.286302315084 72.26067468409808 22.03063210995385
80.33965402305516 72.44683846306351 21.80155445234809
80.3878537612143 72.6222990044097 21.563076664964175
80.43059112312572 72.78743349923316 21.316323754228055
80.46776486630856 72.94278088841122 21.062412424129636
80.49950062611234 73.08907179970431 20.802449622784522
80.52611092244834 73.22715527707828 20.537466148215586
80.54813881084989 73.35806309540514 20.268447041925345
80.56622040643246 73.48279720118803 19.99621605064633
80.5810823471181 73.60233879358694 19.72146929614341
80.59350563724047 73.71760725966257 19.444780110310127
80.60429235216922 73.82942816281728 19.16660996582588
80.61423525479978 73.93851106652563 18.887322551080988
80.62408877352242 74.04543468679715 18.607197762669756
80.63454480461259 74.15063621224648 18.326443382532048
80.64619421041928 74.25442821128918 18.04521185356848
80.65950469318534 74.35698904087242 17.76360277191019
80.67479642262333 74.45838679040617 17.48167345021627
80.69222260176547 74.55860181389808 17.199445311733374
80.71175540352174 74.6575534882168 16.91690946281055
80.7331797393524 74.75512932198137 16.63403226994583
80.75609393622871 74.85121413117855 16.350761535248886
80.77991932556809 74.94570800166008 16.067031035674088
80.8039026005174 75.03857278303718 15.78277644832561
80.82715485573439 75.1298240458186 15.497939388017818
80.84866801997508 75.21954466228019 15.212480631732065
80.86734094393988 75.30788448416243 14.926392908989076
80.88200706396435 75.39505355273448 14.639714489766547
80.89145317529288 75.48130794451636 14.352541958248707
80.89444266569227 75.56693565128629 14.065044572481662
80.88981647796128 75.65223900359071 13.777475406472362
80.87645185403052 75.73750581877643 13.490171974392428
80.85331861612829 75.82299283093303 13.203558132784764
80.81951160278248 75.90890743529528 12.918136992828138
80.7741961441314 75.99539794767031 12.634493033763034
80.71686778931779 76.0825327257515 12.353233017410654
80.64716216468709 76.17031065712186 12.074986335397261
80.56490708168987 76.25866820190052 11.800374169102827
80.4701143155596 76.34749559162333 11.529986854993714
80.36292829312983 76.4366586069162 11.264380857815796
80.24379571154452 76.52602011266528 11.003982540332986
80.11320746380774 76.6154714562468 10.749166799417678
79.9717474238998 76.70495152434002 10.500230468632559
79.82006078332348 76.79446395711498 10.257399442128685
79.65882567919532 76.88408941908895 10.020840488560046
79.48869887235965 76.97399375045883 9.790699933558214
79.31039400371881 77.06442605521731 9.567047340255714
79.12457529044924 77.15571538114646 9.349954620152586
78.93187547393853 77.24826285445542 9.139493784556969
78.73289915704612 77.34252993467771 8.93574268573263
78.52822383905915 77.43902411993598 8.738792178210117
78.31840295756922 77.53828142420974 8.548750198505557
78.10396964881649 77.64084641721799 8.365743007621525
77.88544029512717 77.74725025840067 8.18991336215947
77.66330767920343 77.85800133915417 8.02143758206301
77.43806376672232 77.973535829975 7.86047394017871
77.21018474412419 78.09419870995154 7.707165690447185
76.98011466602478 78.22024542757703 7.561661648918735
76.7482640534891 78.35181958973067 7.424093990018373
76.51499974798149 78.48894606809601 7.294573378308956
76.28063468313425 78.63152998185038 7.173186400944611
76.04541549708397 78.7793906344814 7.060043445567291
75.80952944647554 78.93218216235461 6.955140512816505
75.57308792618664 79.08949773220093 6.858499569682787
75.33613484863473 79.25085791769176 6.770132669301629
75.09865397179179 79.4157263023441 6.690043485423437
74.86057942325432 79.58352602944527 6.618229027154633
74.62180682789796 79.75366047296595 6.554700596144953
74.3822110822962 79.92551405459471 6.499435318463604
74.1416633014299 80.0984739144292 6.4523646465147335
73.90003938921149 80.27195210765473 6.4134124768230505
73.65723365730307 80.4453924099606 6.382459206289985
73.41316779751183 80.61828395353096 6.35932963861277
73.16779702260548 80.79017506010055 6.343781927348235
72.92110716517828 80.96067891269486 6.335532884272524
72.67313440644148 81.12950838962443 6.334151211024252
72.42394782794979 81.29647343219355 6.339147564576927
72.1736498947631 81.46149142345011 6.349957616634492
71.92237405313759 81.62459429996193 6.365940676507642
71.67028088444223 81.78593011669489 6.386387324976816
71.41755343620126 81.94575742522714 6.4105325373842765
71.16439459361663 82.1044374030892 6.437563691613122
70.91102588792702 82.26242540254995 6.46661286962969
70.65767923323799 82.42023508827914 6.49680438792658
70.40459715991939 82.5784198143092 6.527251047463952
70.15203042593109 82.73754503769271 6.557066097971451
69.9002350825462 82.89815960622599 6.585375269975957
69.64946899312109 83.06076866194294 6.6113272760304005
69.39999151782362 83.22581711133665 6.634091201402118
69.1520367314931 83.39363086068242 6.652916503085846
68.9058218510473 83.56443395235702 6.667101031632675
68.66153255778963 83.73832863917166 6.676011224668711
68.41931470827336 83.91529358024752 6.67908709279723
68.179267806774 84.09518868507743 6.675843874246049
67.94144925985572 84.27777419369559 6.665846941154014
67.70585881228892 84.46270580367062 6.648753911274111
67.47244762142383 84.64956275191356 6.624297951931104
67.24113637907325 84.83787612381921 6.592245179391582
67.01181956434324 85.02713940318456 6.552403971439164
66.78437654902082 85.21682440815755 6.504618981427134
66.55868283378402 85.40639582541041 6.4487684612613165
66.33462806299708 85.59531883305424 6.3847238145745235
66.11210120481037 85.78308372457187 6.312474514633767
65.89101864681835 85.96921416516207 6.232028591536018
65.67132075547583 86.1532794683833 6.143449001111492
65.45297014703355 86.334908453914 6.046869239241358
65.23594779742982 86.51380230847609 5.94250238906107
65.02025000819309 86.68973682837266 5.8306268305356586
64.8058732452059 86.86258493613009 5.711626230459907
64.5928032786344 87.03232538618883 5.585988665681489
64.3810157640028 87.19901862924486 5.454248580123598
64.17046550111027 87.3628098568867 5.316997788787143
63.961082301157084 87.52391898583925 5.174870965104959
63.75276956218954 87.68262871265205 5.028531477346135
63.54540769832402 87.8392663488097 4.87864983234871
63.33884938004027 87.994207947081 4.725921318154252
63.132928308060535 88.14785614675152 4.571039669096329
62.92746501008583 88.30062884424167 4.414690152839101
62.72226912536675 88.45295719286652 4.25755741512991
62.517143366734054 88.60528173925259 4.100329411862096
62.3118873733899 88.7580499350955 3.94370330331362
LINES 1 224
223 0 1 2 3 4 5 6 7 8 9 10 11 12 13 14 15 16 17 18 19 20 21 22 23 24 25 26 27 28 29 30 31 32 33 34 35 36 37 38 39 40 41 42 43 44 45 46 47 48 49 50 51 52 53 54 55 56 57 58 59 60 61 62 63 64 65 66 67 68 69 70 71 72 73 74 75 76 77 78 79 80 81 82 83 84 85 86 87 88 89 90 91 92 93 94 95 96 97 98 99 100 101 102 103 104 105 106 107 108 109 110 111 112 113 114 115 116 117 118 119 120 121 122 123 124 125 126 127 128 129 130 131 132 133 134 135 136 137 138 139 140 141 142 143 144 145 146 147 148 149 150 151 152 153 154 155 156 157 158 159 160 161 162 163 164 165 166 167 168 169 170 171 172 173 174 175 176 177 178 179 180 181 182 183 184 185 186 187 188 189 190 191 192 193 194 195 196 197 198 199 200 201 202 203 204 205 206 207 208 209 210 211 212 213 214 215 216 217 218 219 220 221 222

POINT_DATA 223
SCALARS curvature float
LOOKUP_TABLE default
0.15402831868681024
0.1319941122780323
0.11677068780950302
0.10786666999449995
0.10487693109433366
0.10718967364836911
0.11398184076172835
0.12433724763335142
0.1374354003888767
0.1525641288936507
0.16910052219480928
0.1864213311924173
0.2038286529450293
0.22052321996159005
0.23558343983153893
0.24805896027252863
0.2570088963478153
0.2618341467052864
0.2622480512842547
0.2583257057781654
0.250621419463266
0.23993845936971475
0.22718260816273994
0.21323062663453934
0.19879630683476582
0.18442974986855507
0.1705028248925112
0.15725342155101266
0.14482916872672144
0.13334037325562384
0.12289063752171404
0.11361196116556195
0.10565771502513796
0.09921391935139882
0.09445385203825069
0.09155008864350093
0.09059837602472057
0.09168545881739519
0.09485382808370144
0.10016436954653336
0.10760002646731799
0.11709783836010897
0.12843057773933375
0.14125193512939377
0.15504537963093964
0.1691948196546634
0.1830261584840614
0.19589603430653263
0.20728967743535376
0.21687449174088688
0.22459489074469685
0.23065779807365097
0.23557987865876395
0.2400526001892661
0.24490792322896685
0.2509941368173585
0.25909321058371526
0.2697927170201652
0.28341037625306836
0.29985076619764645
0.31849762867292414
0.33819280694862036
0.3571304284229742
0.3729089417551052
0.38265125726703014
0.38406621443289635
0.3757741759043612
0.3581244577993857
0.3328674054082616
0.3025014613660343
0.2696551553358633
0.23649811692555261
0.20453509142172113
0.17465827199431885
0.14728883675005777
0.12260255081255925
0.1006290200415088
0.08144752684551275
0.06530656328522513
0.0528745563131833
0.045289876905585225
0.04359131328126272
0.04733649099318813
0.05466425568627952
0.06374254032383993
0.07337258565000267
0.08285223479404204
0.09176896622784139
0.09991300943457854
0.10723467842606733
0.1138283706915377
0.11991696622402402
0.1257873704971067
0.13174272784545416
0.13800569487519654
0.14467330303431666
0.15164075785518413
0.15859758077680117
0.16504782375432864
0.17036289564174573
0.17386137396646703
0.1749291307739754
0.17310802519547716
0.16815207477400104
0.16012584434339955
0.14934954410753717
0.1363095614670281
0.12161160973878023
0.1059238101772427
0.08989445939140826
0.07412599687075827
0.05916386561874345
0.04558129242487423
0.034058420499912624
0.025609408019698816
0.02142770183921556
0.02153093946876806
0.02384396564738183
0.026290283538205714
0.027784373067591996
0.027890991367670783
0.026561920919797376
0.02404278896015158
0.021064840417935913
0.01920667088148145
0.020783541799970707
0.026698961263335916
0.035860681989814576
0.0469993917054362
0.05927421708204997
0.07209489519247665
0.08498203979378866
0.09750300287838554
0.10926474257541371
0.11989874752836692
0.12908683271799173
0.136554629272093
0.14214004403149966
0.14575790290121243
0.14741767253432206
0.147228555188454
0.14538250610468953
0.14215452951487023
0.1378470066594095
0.13278220099081972
0.1272883614009565
0.121682107353597
0.1162727531065542
0.11133963926017723
0.10713779119183664
0.1038683221671128
0.10167258838907572
0.10059502794943553
0.10057880725034683
0.10145621397912268
0.10297575320888629
0.10483767629526919
0.10672439457778327
0.10835158954096469
0.10948047140922586
0.10995533052826628
0.10969520197620021
0.10871411234286117
0.10709516482213957
0.10500014443602979
0.1026251034166215
0.10018091763279917
0.09785891169313635
0.09579532078714136
0.09405196706637249
0.09259348880134696
0.09130007017585716
0.0899813706602273
0.08841251394402952
0.08635778227558173
0.08359853241128548
0.0799402572797677
0.07524351252557461
0.0694136517010708
0.06241240673934372
0.05425092628323802
0.04500898027582336
0.03482480569924813
0.023944175245229512
0.012915301161213921
0.005943207968639144
0.013898150002892505
0.025175107679236797
0.03632103648832768
0.04678063994736345
0.05623359570168607
0.06448655909758123
0.07140971217147449
0.07698421908364278
0.08126288583942254
0.08439899861022335
0.08659429665434328
0.0881053641146052
0.08918723890143396
0.09006817556808976
0.09091752367778638
0.09182233115625837
0.0927797307492195
0.09369176270634663
0.09439314681518393
0.0946692035012143
0.09429688556467246
0.09306489854379076
0.09081374590645865
0.08744099721323588
0.08292548665474542
0.07731793561352569
0.07073034645596764
0.06331681741578526
0.05525164365708556
0.04671580884480952
0.037875832686400046
0.028905249965444316
0.02002413313260434
0.011866554637480398
0.007838317364884885
0.01296927530061466
0.0217060108811673
SCALARS torsion float
LOOKUP_TABLE default
0.3104426816519195
0.3634176239663181
0.4121971605661611
0.44116601971871267
0.4369743409956895
0.4002503256624215
0.34538730662651496
0.2882266996154214
0.23835578754128722
0.1987890476093155
0.16927627437391152
0.14835468940965868
0.13448165737690648
0.12628761868340715
0.12269428269164184
0.12272787770757765
0.12562347937765886
0.13055066754244377
0.13676949722995746
0.14373600372550896
0.15054202390069082
0.15643678044100923
0.1606671312065306
0.1623871433300513
0.16100983435307367
0.15547870939079073
0.1458830743518964
0.1313451880502739
0.11281364789922184
0.08996855937654581
0.06506686516785326
0.03931461060869302
0.017354751633641377
0.0028471670379288457
0.0016119545589620534
0.016169299174029542
0.04615384872157065
0.08683692415715866
0.13019287128281776
0.16850345462880298
0.19587168182837367
0.21091075543811508
0.21493420077578573
0.21170684432255854
0.20478780114829867
0.1971683666918663
0.19077688129812212
0.18657062070467934
0.1850388967100389
0.185962079071289
0.18917860356943086
0.19372505171743362
0.19893022036237043
0.20337998157538809
0.20607003453604653
0.20536781154438646
0.20047965833393103
0.1908509796464203
0.17678942996430458
0.15896656759698427
0.138423791372734
0.11669492911540943
0.09424045594170109
0.07175762876880895
0.04967755901465043
0.029028983888165622
0.010481756685289318
-0.0053906347970204185
-0.01799696665553014
-0.02714248715605479
-0.032303621508876085
-0.03278296576927211
-0.027661172238467417
-0.014549860490603046
0.009331752441272954
0.050948618403764925
0.120416806942384
0.23688116110509114
0.42499130644477007
0.6979498792020661
0.9705421770395285
1.0235501535679865
0.8188129884982267
0.5624911819057307
0.3748210269866263
0.2595141721805712
0.19641305641622067
0.1673700563269961
0.16037176434286424
0.16787736365657507
0.18335603515206617
0.20271476245851222
0.22106496296441025
0.23563137086025102
0.2436172251996617
0.2444146489072419
0.2382207961603313
0.22669271400700872
0.21157081554769053
0.1947915811451203
0.17752366432818695
0.16068698750891622
0.14434395753023785
0.12904604409781575
0.11399884530343679
0.09877484885270008
0.08171593395078317
0.06189302632809408
0.03565059579268138
-0.0013213179683289828
-0.05893560154350058
-0.15312427192565606
-0.31740891855325054
-0.6041659113318023
-1.0252520777693963
-1.2781267636717986
-0.9898334027294996
-0.5393303502399276
-0.2085197078012474
0.016759351134116925
0.20155130085294212
0.3998447870530635
0.6769699687031473
1.1036170749849337
1.5890061397100579
1.594001276417834
1.1240094726080474
0.717654774615037
0.47394385507863696
0.33137118405697186
0.2426627681563827
0.1832638840278427
0.14059656498463782
0.10781973851191158
0.08175961722727006
0.05995362639044893
0.04235438083303272
0.02791167738008132
0.017547415514743488
0.010928681051023076
0.009037185490473422
0.011964335460667042
0.020156808400591114
0.033920050036723555
0.05318334156850068
0.07812531233472246
0.1078093124419902
0.14144793496611321
0.17639135678134982
0.2101754747989546
0.23896319258105797
0.2592225448233133
0.2678001172911432
0.2638197026555089
0.24821318951472865
0.2236281187526317
0.19297954462007016
0.15894558771792125
0.12317256013820184
0.08685232389797629
0.050190706014198214
0.013477072559653766
-0.02364547560620774
-0.06065471504986289
-0.09743594449457514
-0.13246313441011104
-0.16448744096202222
-0.19113675894415078
-0.21068746719340806
-0.22182563714255626
-0.22426145519513818
-0.219229861439183
-0.2081222170145235
-0.19323097094888778
-0.17584105411462683
-0.15719225821758173
-0.13746726200589016
-0.11670448706370855
-0.0937685446854943
-0.06720356603745878
-0.032763269097525895
0.017463677645635986
0.10932034869755212
0.3390791753211103
1.37159361596508
6.615254729495822
1.220359856348968
0.36693427387532573
0.18613997076937072
0.1300916205910042
0.1129295654001773
0.11222141307451744
0.11976948143796956
0.13227182556786127
0.14741260139464712
0.16387281530560288
0.1799409641174803
0.1941832040500839
0.20490839064383282
0.21068735817236964
0.21048913157036245
0.20389769721945775
0.19164982550720738
0.17470830072325375
0.15508161699688955
0.1339492284263663
0.11304147875202378
0.09284331825699761
0.07459921582477114
0.05816601379584151
0.044123308597652754
0.032067671387644665
0.0219930517484186
0.013474416738644655
0.0058929574594357255
-0.0014145637803947167
-0.01027329249737588
-0.024254523431566106
-0.05679801055834854
-0.16887011253806755
-0.3901323992490569
-0.1456841834622307
-0.0526955465046541
