# vtk DataFile Version 2.0
00001955.nii_R_ICA_labeled
ASCII
DATASET POLYDATA
POINTS 221 float
75.48642067810945 75.80388696070936 38.362844209736814
75.69705669930168 75.7878023914497 38.14990121587069
75.9155126457153 75.75834700112954 37.94647978368394
76.14051432437435 75.71521365730794 37.75286838015558
76.3707047488199 75.65820612925611 37.56919623878622
76.60468306255096 75.58722469670526 37.39544165449783
76.84104267877316 75.50216624570879 37.23150600337472
77.0783609489743 75.40317653267259 37.07705012630874
77.31527313691875 75.29039700229809 36.93168993620445
77.5504694134584 75.16404308460083 36.79495949690043
77.7826857083201 75.02432952992666 36.66637184311793
78.01076693484438 74.87168278950313 36.545303896285105
78.2336873044457 74.70664123893353 36.431074879132666
78.45052964981848 74.52978148071843 36.322989793545425
78.6604810859583 74.34172837419199 36.22032489057543
78.86300724374392 74.14337400100005 36.12222659850313
79.05768869973222 73.93557534056464 36.027858497124555
79.24422087208512 73.71918712093128 35.93637006010639
79.42252510730964 73.49516463091038 35.846866149789705
79.59265498370046 73.26444574104967 35.75846238761048
79.75472783154032 73.02790492292942 35.670298860632705
79.90888541256201 72.78634849771268 35.58153545476719
80.05532534107937 72.54054798580147 35.49136390765848
80.19424873538175 72.29121337406202 35.39902688893624
80.32577367471217 72.03896753368265 35.30380678408765
80.44993831427136 71.7843702502202 35.205029381961324
80.56667277315925 71.52792577565889 35.10205982496675
80.67576839417754 71.27009598599783 34.994288396299204
80.77696885881483 71.01132978180311 34.88119529339804
80.86986438449198 70.75206079208886 34.762282589636776
80.95393936640934 70.49273727552472 34.637096581559845
81.02858871551574 70.23384460287748 34.50522749032252
81.09313906390817 69.97592842102569 34.36630848339102
81.14687417724195 69.71961762020352 34.220014289052045
81.18901107590594 69.465659060193 34.06602666987132
81.21887263449153 69.21490580701803 33.90412911182265
81.23577893292756 68.96835693762227 33.73411596236734
81.23910927712278 68.72716540223341 33.55582116499278
81.22832894965885 68.49264658476038 33.369126200259515
81.20301247379287 68.26628252253386 33.1739710103588
81.16286805765348 68.04972138848947 32.97036876279182
81.10776444936371 67.84476981145318 32.758425444436696
81.03774457991722 67.6533946305106 32.538353400025485
80.95304318253358 67.47773044980673 32.310488981100065
80.85426457422925 67.31987182238166 32.07538979555406
80.74224415017879 67.18199603849395 31.8337612069163
80.61813672005364 67.0662458597638 31.58650039040298
80.48343344942624 66.97466112184408 31.3346981377237
80.33990926357977 66.90934131820332 31.07961560185802
80.18981043974142 66.8717633616141 30.822741814517634
80.03562102711291 66.8632473108297 30.565690672757327
79.88009683306595 66.88497513526058 30.310231761456876
79.72626968881669 66.93761859257165 30.058280659542458
79.57731051325177 67.02118856096327 29.81183105172363
79.43665124277686 67.13583459130984 29.573134332221713
79.30756686330584 67.28040382908301 29.344363348747518
79.193538654698 67.45383789870414 29.128003284172955
79.09750902713633 67.65378204112173 28.92628078564616
79.02246908846529 67.87780330750351 28.741693812616692
78.9702205742757 68.12215695048391 28.57601794768299
78.94221162448052 68.38306084507032 28.430975081087517
78.93854961506831 68.6561957397092 28.30735171441001
78.95857499280686 68.93746963769527 28.2053964249211
79.00059748209969 69.22314730709255 28.124482732070767
79.06253420346016 69.51019662116353 28.063613418799836
79.1416216225776 69.79635053308924 28.021050697898918
79.23514847147527 70.08014263776003 27.995007488596578
79.34039142232967 70.36079910050923 27.98357971116321
79.45473131298587 70.63812132469957 27.984884552580443
79.57563826640832 70.91238852329619 27.997039991402307
79.70075611850285 71.1842085909121 28.018311957022448
79.82783967964049 71.45442846646816 28.047070428579683
79.9547159587895 71.72405060214346 28.081767693393545
80.07924999617532 71.99415596740837 28.12090973592767
80.19932429161327 72.2658267695722 28.163024630682813
80.31284268468626 72.54006368803621 28.20663322767408
80.41776823818653 72.81769728167191 28.250230461740816
80.51219658020835 73.09930276993965 28.29228177515608
80.59441117279515 73.38514767091704 28.33122270176298
80.6630625384013 73.67513266537493 28.36549811948565
80.71743765784956 73.96877376064222 28.39368802771115
80.75726040044351 74.26535238316244 28.414454804198282
80.78280931674702 74.56397568603732 28.426598356125087
80.79505141002511 74.86367562501073 28.429212487181257
80.79520173206112 75.16354108714789 28.421473055332978
80.78463993804938 75.46272630221931 28.40256696337038
80.76503727791132 75.76048095256617 28.371926219549646
80.73798140864581 76.05611466113082 28.328917020460086
80.70500353257216 76.34895285134354 28.272888004318812
80.66754013175692 76.63828906025543 28.203162965582628
80.62690759014114 76.92333528431712 28.119036437905322
80.58428956607541 77.2031626033009 28.019750743566043
80.54074545764233 77.47673997611787 27.904716463777145
80.49717645822044 77.74286180210224 27.77337445700327
80.45433265175528 78.0001774735735 27.625321750640875
80.41280427224468 78.24722380588878 27.460373339425978
80.37302251202875 78.48243079584061 27.278555087859758
80.33524616944831 78.70424702729849 27.080235658531134
80.29955086288206 78.91130342151065 26.866200096586255
80.26586362409516 79.10233209421668 26.637439706229284
80.23397628917245 79.27621092283937 26.395140374900954
80.203553827357 79.43208071199172 26.14070152848625
80.17415600967487 79.56947653444286 25.87571366572073
80.14528214050787 79.68806954471236 25.60173406847348
80.11638145128948 79.78770149596318 25.32030165021575
80.08686654224454 79.86835964519081 25.03291560288996
80.05614550266323 79.9303843964802 24.741063867633954
80.02362765061842 79.97413907063492 24.44610919266738
79.9887370725978 80.00012367587 24.14932575990458
79.95091197532204 80.0089126120005 23.851890905179424
79.90964173477586 80.00131233060436 23.554879099945783
79.86448509185507 79.97833491678341 23.259224670131154
79.81505615409816 79.94109378314116 22.96570967838955
79.76104575111454 79.89086334540725 22.674944879408212
79.70220510132361 79.82901776058043 22.387368522613396
79.63841473083693 79.75716067590857 22.103190957596855
79.569648805371 79.6769793523911 21.822416958270907
79.49595965137443 79.59019775627083 21.544868746149504
79.4174840620025 79.49856771591247 21.270202266142043
79.33441281648533 79.40382510518413 20.997951376835054
79.24704150938763 79.30769472355912 20.727537820471206
79.1557147472486 79.21181013607459 20.4583462033339
79.06080747891424 79.11769749808981 20.18976875502939
78.96271896514057 79.02675821777554 19.92124186397296
78.86183886886455 78.94028156489591 19.652276669689833
78.75857121593587 78.8593455172878 19.38249626511678
78.65326666625666 78.78485360377992 19.111650735735335
78.54620551842073 78.71753609258788 18.839619496683692
78.43757802061414 78.65795438841556 18.56640808047192
78.32745956730888 78.6065523681194 18.292135005191216
78.21582381481893 78.56352922114371 18.017035227570307
78.1025116997263 78.52902872915469 17.74142093777507
77.98724747588426 78.5031160905779 17.46567504109164
77.86965218779363 78.4858073771137 17.19023910168274
77.74924597379847 78.47714066943973 16.91561172476162
77.62551610988514 78.47706779722672 16.64232949174755
77.49791466678286 78.48557731160967 16.370968237330295
77.3658903595355 78.50268249361996 16.102141693895437
77.22892002964545 78.52841073712061 15.836496680391567
77.08652789869883 78.5628078996062 15.574712650077315
76.9382913971592 78.60594838979873 15.317509677401837
76.78394620287222 78.65779731129236 15.06556450126703
76.62330233396506 78.71833832974453 14.819567508965882
76.45628018116669 78.7875088572903 14.580182987854146
76.28288372237964 78.86521794832568 14.348060625276613
76.1032311757595 78.95128182539528 14.12377662481693
75.91755696286947 79.04539458977779 13.907784025688075
75.72612648025208 79.14721467931805 13.70048621483638
75.5292422226515 79.25633324257406 13.502203241806953
75.32719937302387 79.37231382711066 13.313221283081644
75.120371169647 79.49456681351543 13.133601002727785
74.90907974259446 79.62251657773191 12.96338739363618
74.69362813685747 79.75555975616668 12.802548446329409
74.47428616378379 79.89308804612175 12.651005347818442
74.25129704304793 80.03448921625541 12.508623746443208
74.02490155064912 80.17913935655567 12.37515901899088
73.79529538236808 80.32646250037247 12.250383372222982
73.5626516692566 80.47591864534499 12.134053746783183
73.32712544369448 80.62701207190845 12.025925133639005
73.08884827100532 80.7793010427867 11.925794052946461
72.84796268688773 80.93239100341391 11.833425288552995
72.60461093475031 81.0859502501231 11.748607660699333
72.35893736993175 81.23971228517273 11.671170415278278
72.11110195988967 81.39347689518185 11.600962312138826
71.86128765607478 81.54711419607605 11.537843796108616
71.6096978953451 81.70056781976115 11.481715417634033
71.35659030865367 81.85386302199956 11.432389526072392
71.10225139603703 82.00710642368747 11.389677719018785
70.84700396059579 82.1604878574584 11.353354809556285
70.59120738620793 82.31427996890245 11.323138436194448
70.33525550265095 82.46883961506433 11.298699152541706
70.07957347922093 82.6245939408649 11.279597501857692
69.82460387098591 82.78202312560582 11.265303444655297
69.57080227015906 82.9416510608356 11.255223385156611
69.31863034370542 83.1040229488372 11.24868615942105
69.06855833149481 83.2696975998982 11.244959260067104
68.82104059028579 83.43919594441465 11.243232995943133
68.57650232662445 83.61297154174407 11.242652385170778
68.335349083997 83.7914142884098 11.242342890521213
68.09794937945557 83.97481802333412 11.241417644292996
67.86465024761203 84.16339554067417 11.238980835908894
67.63569790782451 84.35718137212656 11.234172678553819
67.41127560686942 84.55609196667541 11.226178442134456
67.19149684629286 84.75992793842799 11.2142352593069
66.97639718607606 84.9683775193332 11.197641227913413
66.76595273785432 85.18104521960487 11.175734929501205
66.56000200130902 85.39739902267863 11.147998284949162
66.35834869099324 85.6168770595769 11.113950396751022
66.1607426661565 85.83887496104592 11.07317251888428
65.96689651338967 86.06276306966632 11.025296828476185
65.77652118236645 86.28790310978842 10.969948629904211
65.58927772187614 86.51363860368127 10.906883675696914
65.40486243489333 86.73932982058743 10.835834716217004
65.22299354886759 86.96434495045426 10.756555921445058
65.04341991776016 87.1880621154853 10.668823142651776
64.86593428093241 87.4098620585587 10.57240491752819
64.69036137629442 87.62914420386738 10.467135137747878
64.51656529386274 87.84533890488225 10.352914682165478
64.34446105544214 88.05789570240242 10.22966353182023
64.17400798594656 88.2662973356249 10.097355117942259
64.00521507637443 88.47005331602028 9.955992374820616
63.83813387089508 88.66872943303798 9.80565179914892
63.6728507794109 88.86198377875341 9.646515207233694
63.50950432577498 89.04951919983274 9.478769641142453
63.348278289106155 89.23110619365863 9.30263658395792
63.18941043629273 89.40656144545903 9.11833429639354
63.03318092073717 89.57577685212878 8.926112258770223
62.87990117455226 89.73872678393334 8.726254122423972
62.729936212624224 89.89540052154098 8.51899938918088
62.58369315118294 90.0458148948282 8.304571339131341
62.44162312313894 90.18999575459524 8.083168566266856
62.3042347474057 90.32795036630294 7.854949472609223
62.17201805865777 90.45974818696972 7.620133724573456
62.04551511232563 90.58541240676924 7.378896540562989
61.92529115946268 90.7049531474886 7.131417660928664
61.8119307453753 90.81836638079847 6.877889739725571
61.706088862116 90.92559249859276 6.618488389060426
61.608336612671785 91.02663956109843 6.353494338126372
61.51928852022651 91.12147339012407 6.083190985360665
61.439565510372105 91.21005029411057 5.80790072248279
61.3697832287618 91.2923244103803 5.52799422657692
LINES 1 222
221 0 1 2 3 4 5 6 7 8 9 10 11 12 13 14 15 16 17 18 19 20 21 22 23 24 25 26 27 28 29 30 31 32 33 34 35 36 37 38 39 40 41 42 43 44 45 46 47 48 49 50 51 52 53 54 55 56 57 58 59 60 61 62 63 64 65 66 67 68 69 70 71 72 73 74 75 76 77 78 79 80 81 82 83 84 85 86 87 88 89 90 91 92 93 94 95 96 97 98 99 100 101 102 103 104 105 106 107 108 109 110 111 112 113 114 115 116 117 118 119 120 121 122 123 124 125 126 127 128 129 130 131 132 133 134 135 136 137 138 139 140 141 142 143 144 145 146 147 148 149 150 151 152 153 154 155 156 157 158 159 160 161 162 163 164 165 166 167 168 169 170 171 172 173 174 175 176 177 178 179 180 181 182 183 184 185 186 187 188 189 190 191 192 193 194 195 196 197 198 199 200 201 202 203 204 205 206 207 208 209 210 211 212 213 214 215 216 217 218 219 220

POINT_DATA 221
SCALARS curvature float
LOOKUP_TABLE default
0.21022347021316434
0.208160369050428
0.2051975999122909
0.2015504643373367
0.19746530766533063
0.19318026518950773
0.188895541386292
0.18472714041034863
0.18069443167579272
0.17670804881561708
0.17259080735570492
0.16811628575764137
0.16305558171222595
0.15724743625078377
0.15060580543908442
0.14319368215858236
0.13518112496684326
0.1268775921407497
0.11867514769687287
0.11102653289677034
0.10438457250518891
0.09918093492708177
0.09573977664948054
0.0942485407280375
0.09472629443117084
0.0970654883991135
0.10103926303771366
0.10640719943750054
0.11291913810359049
0.12037953514470874
0.12859683942576725
0.13741574219534766
0.14668867314168219
0.1563047035344224
0.16617855868613682
0.1762697845223071
0.1865629616986574
0.19708232259226893
0.207853898559369
0.21891047659428794
0.23024467496823833
0.24182229640800154
0.25354846855661967
0.26528489009078465
0.27684739775782313
0.28805576179170456
0.298767436725025
0.3089301639547205
0.318619293258022
0.32798280856475864
0.3371967760171513
0.34653263246280425
0.3562352197565842
0.36634629455144724
0.3765789802891815
0.38643129875600024
0.39497813244862434
0.4008806508589485
0.40246927854959613
0.3983820988051461
0.38757618744605865
0.3698636927427501
0.3458469736844282
0.31681838459984746
0.284329472589056
0.24991502809911473
0.21489580843327388
0.1802821897878721
0.1468967652672921
0.1155872541960148
0.08781429734444603
0.06684670259067524
0.05883203630793346
0.06714319821610482
0.0858978113142309
0.10830569796559762
0.13066693866617513
0.15080778983776347
0.1672016472138557
0.1787661027547616
0.18513009352543236
0.1865372340047834
0.18392368025206052
0.17872552606563566
0.17256075244012298
0.16700207152831328
0.16337256740789935
0.16258338552919646
0.16504553402565933
0.17062686086249038
0.17880087928911007
0.18879979620212056
0.19974882899557347
0.2107899425527608
0.22110957677736792
0.23002086621368437
0.2369564770675722
0.24157718472323245
0.24375574387228055
0.24359372813960795
0.24135200169522084
0.23745249565142876
0.2323633123793489
0.22652478803181902
0.2202836433620138
0.21386447690775978
0.20734390794170712
0.20065636046501326
0.19361476928275737
0.18594281979601737
0.17735192638821007
0.16758892807259085
0.15646051844386363
0.1438544264316082
0.12981924926781466
0.11456612083173125
0.09852885247161113
0.08235519705415587
0.06706133940252464
0.054248090714067665
0.04626453957007832
0.04513457162296458
0.050209443905693735
0.058600350904423934
0.06778633728380794
0.07629646985460728
0.08343717593371645
0.08893972077197108
0.09284511373362378
0.09538887796797946
0.09698515991451175
0.09811719970933268
0.09929240263330602
0.10095671381455397
0.10343526395673391
0.10686176166217551
0.11118396897521861
0.11619781753407367
0.12159894598910685
0.12704960542161672
0.13220689854432446
0.13677194294293227
0.1404900748518837
0.1431929967914154
0.14476898667666702
0.14518607197028902
0.14446915391908216
0.14269390193605988
0.1399678994100308
0.13642785264619572
0.13223637057162194
0.12755946435810067
0.12256422803766547
0.11741688138358063
0.11227952112022149
0.10730674038859232
0.10263262571511708
0.09836882401783825
0.09458352449384777
0.09130521864483897
0.08850054184911448
0.08609146932701944
0.08395114285367608
0.08192723419232097
0.07985015756851475
0.07755900186009965
0.07492933763251897
0.07188839055129152
0.06843662004009131
0.06466974499206905
0.06082508177299181
0.05727691246862924
0.05453283794579278
0.05313028981810194
0.05348347811194201
0.055694756317648086
0.059494554901778185
0.06436400060412271
0.06972986432544208
0.07506947518107651
0.07996585691035384
0.08412580559992569
0.08738365972707593
0.08969036505289706
0.09110545436613056
0.09178213687222975
0.09195472805657534
0.09189387764703483
0.0918788665057927
0.09215447258134067
0.09291228854407486
0.09424045937670562
0.09614747303445983
0.09855242170577687
0.1013233765779263
0.10428406438136406
0.10724552914291104
0.11002946582256512
0.11247788083623218
0.11446734017640343
0.115908890605184
0.1167707726662552
0.11707059403231686
0.11688043508015367
0.1163154049247463
0.11553549109351209
0.11472094804008175
0.11405776732444145
0.11371238241600656
0.1138186961728966
0.11446421279363124
0.11568812987779878
0.11747800666440282
0.11978819742358383
0.12255542212516762
0.12570571440254272
0.129170840561557
0.13287950378917865
0.136764404773747
0.1407548512510513
0.144773239032778
SCALARS torsion float
LOOKUP_TABLE default
0.11393527088599935
0.1276729438990342
0.1423051636546752
0.1573830924648424
0.172334306197241
0.18616957323413583
0.19808244508944145
0.20717902340873282
0.21322356165499215
0.2163592223286532
0.2174458848824046
0.2176990941216034
0.21867235340901045
0.2217556124473793
0.22820062089761828
0.23886254827453152
0.2544425146731969
0.27487638874699727
0.2995203563872236
0.3258118614936042
0.34999737538215403
0.3654959088058969
0.366330073873444
0.3477093595853257
0.3108369816750479
0.26084165597563364
0.2068348218790876
0.15550744526997998
0.11193177918037199
0.07827694563196165
0.055615839260808195
0.0428093566404977
0.03860114817878351
0.040886700193218065
0.04801677952001337
0.05806139569362028
0.06974583793975989
0.08168511308319248
0.09316808394990989
0.10354573856702665
0.11275234684360365
0.12067474986930253
0.12766150045569521
0.13397864976513232
0.14017790603659064
0.14631606428866084
0.15275177442777188
0.15908976213547357
0.16529248273038158
0.17048238542370558
0.1744698973411888
0.17610178420473363
0.17491976848776056
0.17028868396349037
0.16234725640594966
0.1513215655818935
0.13736997094427947
0.12084605015106126
0.10265253730122854
0.08315281163559522
0.06321812413748958
0.04277205839278283
0.022051828411254564
7.0251311277825905e-06
-0.02480042267061866
-0.055212134028282525
-0.09586612030809047
-0.15583794711497861
-0.25327714924372474
-0.4264715100355798
-0.7532514875779284
-1.306222863377421
-1.6785651045870646
-1.2789363001091578
-0.7752287560465515
-0.48733809449647847
-0.3401546693013132
-0.26572512358865485
-0.23120631298025382
-0.22110194429022043
-0.227781491829105
-0.24661442223754076
-0.2747168781671463
-0.3077889795271175
-0.34109449137393383
-0.36719190848004146
-0.378314103730954
-0.36783033842949225
-0.3354380110189006
-0.287219511972603
-0.23158958477611385
-0.17662142533891628
-0.12623390738020362
-0.08244198223197244
-0.04510040913069013
-0.013905249614580784
0.012241687087589506
0.034099730791182524
0.052688830402352727
0.06865281187597295
0.08265078356960662
0.09499334330279355
0.10605789892663912
0.11587723792100993
0.1245778732266323
0.13210030076858723
0.13863953041872118
0.14436349385316963
0.14976463894955344
0.15549380943606403
0.1626401328056979
0.17235759555303126
0.18630405422631555
0.20709383900860673
0.23883445330732198
0.2885240847308321
0.3681694096516822
0.4991757400018734
0.7147547607007161
1.0384793135009105
1.3514816421843674
1.3320589343907192
0.9917848978592961
0.6515625372294479
0.41599175362745905
0.2608272275449559
0.15103678330529838
0.06698342560560436
-0.0041983696298973465
-0.06665481041295901
-0.1234242923473658
-0.1719556669888506
-0.21022898454714742
-0.23395316171938424
-0.24151867430199508
-0.2336134897137687
-0.21361922680155487
-0.18688192407949872
-0.15742275240851217
-0.12921954438447833
-0.10382243987488265
-0.08267258502793338
-0.06600445758958293
-0.05428689548747768
-0.04710694265929713
-0.04426371414113458
-0.045101317175062
-0.049251849521418284
-0.05594000567671103
-0.0647912468183158
-0.07488472042587137
-0.08577851971415593
-0.09656068662400308
-0.10663117254679759
-0.11514059918003161
-0.12122262824596969
-0.124067423939083
-0.12262050868020212
-0.11631343047671808
-0.10440541457577937
-0.08691871540310413
-0.06383637923895692
-0.03549738197995137
-0.0021685798971549652
0.035883153115055556
0.0791578271206273
0.12841527214819692
0.18573694344309036
0.2537333830881634
0.33476508055953713
0.42926697135049874
0.5332882848253891
0.632981221076809
0.7036429713449718
0.7212915297965885
0.6823636089932
0.6078807082368953
0.5249967099598637
0.4509094889426838
0.3923621568533543
0.34963173730961405
0.3206956100381531
0.3029240160103749
0.2940149572808197
0.29176696646014855
0.2940923525055129
0.298618138842824
0.30288731819837994
0.3042113794735213
0.3004478255383873
0.29001637309930633
0.2731301127355078
0.25085814311566823
0.2254768974779715
0.19867039716511226
0.17205359013074367
0.14665644831287802
0.12299771892745309
0.10073898258118802
0.0793888829355996
0.05850018311229157
0.037517931389560666
0.01614046240042271
-0.00600170641017609
-0.02841201295122529
-0.050892399107519436
-0.07220999988636237
-0.09160259522068491
-0.10765719919274555
-0.11962783512343174
-0.1270835662231131
-0.13006122712029908
-0.12948087710054507
-0.12607519639912743
-0.12112061875067533
-0.11525768041159468
-0.10922983491949517
-0.10323559990621177
-0.09740351808129237
-0.09173148274853958
-0.0861912149443372
