# vtk DataFile Version 2.0
00000491.nii_R_ICA_labeled
ASCII
DATASET POLYDATA
POINTS 244 float
73.04490773882121 70.55974904548991 34.81609699780626
73.20207250608328 70.80624904980661 34.74878721770182
73.36668640829586 71.04807690079015 34.68234619598794
73.53883213986357 71.28483547254795 34.616744871811285
73.7188114695359 71.51593275825961 34.55199070353125
73.90675183398953 71.74084308944954 34.48808472256423
74.10287445118249 71.95890777297905 34.425050909830645
74.3074732400953 72.16930913838671 34.36293343936727
74.52062559521117 72.3713253150496 34.301763914737656
74.74253452982153 72.56399421789283 34.241595431651874
74.9732873677869 72.74631330988953 34.182471463848884
75.21278065650708 72.91734546219797 34.12440786741741
75.46086015506569 73.0760474349942 34.067398911124684
75.71728640288123 73.22126444338515 34.01139936245474
75.98150901124504 73.35212219048859 33.956279952091016
76.25286937429946 73.46776466945981 33.9018365465319
76.53055989176978 73.56745483734679 33.84777006876147
76.81363432311227 73.6506240334094 33.79367750279731
77.10105522676896 73.71680013175195 33.739045633593484
77.39167070733079 73.76583868809867 33.683263859880654
77.68430258850061 73.79776845686398 33.62564250107988
77.97777066044901 73.81274617717663 33.56542836037234
78.27090567258081 73.81106812895204 33.50183466693176
78.56255060412127 73.79306017441668 33.43404607686787
78.8515778470592 73.75921904513389 33.36128831253953
79.13692445071055 73.71018312316804 33.282880698150045
79.4175640718387 73.64655759224891 33.19820906993194
79.69245124288939 73.56884673685626 33.10669540423007
79.96065837491771 73.47777375475853 33.007973421054125
80.22131908779109 73.3740438198887 32.901804572358735
80.47348936684364 73.25817330844416 32.787960230364895
80.71636946793677 73.13083415223585 32.66643195960752
80.94922764876229 72.99268195643745 32.53733073879083
81.17109286620256 72.84409471784554 32.40067950193584
81.38134730221958 72.68575227501634 32.25682229565111
81.57911773632149 72.51807300887654 32.10600761351252
81.76350493841684 72.3414739413073 31.948568634902983
81.93377857132575 72.15647927622264 31.784995538593495
82.08878922854754 71.96339824403763 31.61569465997809
82.22767840734424 71.76274857730006 31.441288579018007
82.34943330382173 71.55501424967625 31.262432314655694
82.45272694928143 71.34064844810823 31.079830755515587
82.53656400741693 71.1203284490585 30.894382152153877
82.59984492152954 70.89479225268906 30.707068522650324
82.6414901197706 70.66490515526156 30.518989463421228
82.66054610849818 70.43169174466153 30.33136155722506
82.65622749952801 70.1963403733677 30.14549922915432
82.62827420813335 69.96019476593571 29.96273047921628
82.57670390236198 69.7246758491186 29.78434719451956
82.50197864179849 69.49123136456788 29.6115191106984
82.40500432093445 69.26125487237431 29.445210069976337
82.28708627662084 69.03600668145482 29.286105668831077
82.14984663488916 68.81654998130487 29.13456430786893
81.99511136835933 68.60371412408249 28.990602619715713
81.8247445208334 68.39811574176656 28.853936004193024
81.64059986052456 68.2001690686509 28.72399304560229
81.4445629198323 68.01003391283666 28.59990120906106
81.23827616295442 67.82779262592267 28.480657790772906
81.02309946690939 67.65357703225206 28.365175927511398
80.80043379176938 67.48731230561184 28.252190772588715
80.57139587050752 67.3290479456175 28.140452571302518
80.3369171340703 67.17898290392957 28.028684495486786
80.09793510879533 67.0372006265456 27.915647889906925
79.85514678603572 66.9041659946387 27.80011861527863
79.60928886858497 66.78023525540495 27.681018216745834
79.36098718622583 66.6660326252247 27.557354438827893
79.11084447986093 66.56235147242623 27.428260571690554
78.8594715272141 66.46992021159377 27.29315933544859
78.60744678989796 66.38982434328868 27.15155953236656
78.35536845655926 66.32303306980654 27.00332205304882
78.1038267667444 66.2705345350365 26.848572304585062
77.85342949927424 66.23349553671923 26.68762296192579
77.60479315708822 66.21292397992079 26.52110327948741
77.35853027608289 66.20965374252816 26.349892583748176
77.11528045282132 66.22451091989906 26.175027515717996
76.87575360434218 66.25837887812148 25.99769351936729
76.64063746137894 66.31166996721817 25.819244847090435
76.41068605769442 66.38476308721806 25.64108550789779
76.18672367665614 66.47791878026426 25.46466646708428
75.96969199077968 66.59135234407458 25.291489804104216
75.76056966814454 66.72495944513908 25.12304599324584
75.5603922329424 66.87842654497841 24.960782855836207
75.37029798866203 67.05133078774222 24.806126069084268
75.1914846244099 67.24303823595172 24.660441064997663
75.0251879294559 67.4526893140142 24.525005077945824
74.87269918028791 67.67923570452787 24.401014900599368
74.7350880498224 67.92118800760541 24.28935183666124
74.61336560077191 68.17692259502287 24.190718111906534
74.50834461720295 68.44461466833296 24.10552591162532
74.42058436192373 68.72230493578796 24.033860446609854
74.35035440135991 69.0079856959484 23.975463432795035
74.29780336256349 69.29973725265376 23.92986427727002
74.26246759398275 69.59565856175281 23.896046556664214
74.24378720390892 69.89412124166218 23.872852755557638
74.24114508067186 70.19374426424791 23.85900002359733
74.25368933586113 70.49338201620678 23.852982021632332
74.28035238605038 70.79216326781936 23.853141857601
74.32045697000535 71.08940639662708 23.8579114904361
74.37278910648807 71.38468719015401 23.865491338331967
74.43667881580444 71.67765801051873 23.874163367636278
74.5110950868704 71.96815601282974 23.8821093296344
74.59539077979369 72.256004053521 23.887428307629722
74.68869168189703 72.54110776879453 23.88819123726994
74.79034093617172 72.82328012458412 23.88229630499499
74.89960133671828 73.10226081311288 23.86755443487653
75.01568622903588 73.37765108100523 23.84174194391992
75.13783307166207 73.64877662971094 23.802390458683412
75.26510123530417 73.91470379260952 23.747110964436757
75.39639314068297 74.17419453373189 23.673703281246375
75.53045937455451 74.42566999665624 23.580215733722284
75.66588389541481 74.66731299115376 23.46525585375933
75.80115194003457 74.89723459569689 23.32820963058624
75.93476600352304 75.11370463897033 23.169366811547434
76.06538236255483 75.31538755560177 22.989894932000574
76.19193177094547 75.50151642584665 22.791666990855393
76.31368957712311 75.67195842615631 22.576993799290634
76.43028032052116 75.82716523480961 22.34833697148764
76.5416261531599 75.96804193972429 22.10807040694991
76.64786661660554 76.09578747228329 21.85832770461116
76.74927413407475 76.21174703638867 21.60093208836835
76.84617190875082 76.3172780782226 21.33737620234057
76.93885320559053 76.4136313036844 21.06883010056036
77.02768841988704 76.5022111773939 20.796332595788183
77.11288931608863 76.58411460844002 20.520601501646887
77.19466326877566 76.66047260552749 20.24225158117361
77.27311235141897 76.73227093089956 19.961737789893668
77.34823938051947 76.80039928820922 19.67940414634618
77.41999667162611 76.86569881048179 19.395528951376278
77.48816767668443 76.9288802171556 19.110293554042304
77.55254963661778 76.99064220075503 18.82386935046365
77.61272630727628 77.05157874082997 18.536356300957813
77.66831940693595 77.11226491641995 18.24786988995519
77.71883802688507 77.17321846635973 17.958508489337987
77.76365673303229 77.23494360154727 17.66837378642961
77.8022606374587 77.29790477435012 17.377613503390137
77.83404926383754 77.36256303414066 17.086402160536025
77.85837684255472 77.42939804590226 16.7949647531221
77.87471260259113 77.49887392094021 16.5035895086469
77.8826006743719 77.57145158084904 16.212621476399235
77.88164039774742 77.64760382057668 15.92246392744941
77.8714951809303 77.72781946421627 15.633580592810084
77.85195937276497 77.81257577791828 15.346483481043792
77.82302148013999 77.90229326143842 15.061698804051352
77.78472621727664 77.99739388246195 14.779780375806464
77.73717578372352 78.09830050070236 14.501310328931853
77.68056587403773 78.20540737506326 14.226881036249749
77.6152515930342 78.31900588142638 13.957035530917395
77.54155551627858 78.43940106710208 13.692344241407154
77.45971333403347 78.56696689926851 13.43346971047061
77.37016384293555 78.70186515298928 13.180944201242959
77.27322886342638 78.84430000677769 12.935380337177206
77.1691180785903 78.99452460833024 12.697517434531264
77.05812108045966 79.15261086451402 12.46801392165238
76.94045125668079 79.31859261544287 12.24759085396074
76.81623154905387 79.49247776312663 12.037077841872629
76.68553506296199 79.67419112519622 11.837379467182446
76.54850064893324 79.86342897712366 11.649259587217538
76.40520728026395 80.0598197244567 11.473546400949218
76.25575508890245 80.26283999557512 11.310990671619594
76.10027936117356 80.47182150996582 11.162221151370701
75.93896877236617 80.68596115102561 11.027679176193802
75.77212527416604 80.9043174945252 10.907420383364004
75.60008308250782 81.1259308680077 10.801266681601623
75.42322565484749 81.34985009026246 10.708727779642508
75.241966476161 81.57518746701732 10.629022313111115
75.05672762999006 81.80116332274186 10.561127724069005
74.86789461934194 82.02712992171098 10.503926752130655
74.67588348460971 82.25258736031786 10.456039691275928
74.48105603222184 82.47718459666973 10.416130387018086
74.28373734022574 82.70069725166955 10.382908379895301
74.08419535056846 82.9229897360792 10.355222045394353
73.88272159337967 83.14403914323859 10.331904887201357
73.67955419628211 83.36387056010327 10.31200440925482
73.47488839328912 83.5825335683873 10.294750724449571
73.26892745871011 83.80012560752249 10.27947638889672
73.061837012554 84.01674398343091 10.26570309522324
72.85373960755969 84.23246850368164 10.253126572044302
72.64475449009508 84.4473899339734 10.241559526990098
72.43496062666286 84.66157202369924 10.230958225454309
72.22439712992153 84.87504701582509 10.221405709110384
72.01309477995963 85.0878409896167 10.213051270428988
71.80105109215052 85.29994744921913 10.20612158617912
71.58823421094772 85.51132722550825 10.200908696395413
71.37460890244623 85.72192966120228 10.197697959723543
71.16013027469249 85.93168519543966 10.196764402394077
70.9447457961323 86.1405062309341 10.198364167884293
70.72840259814787 86.34829426372065 10.202711431669854
70.51107331118418 86.55497116878048 10.20990003528376
70.29273578591295 86.76046216247173 10.219961495536102
70.07337947734301 86.96470687072853 10.23284754839648
69.85301877234691 87.16768142682017 10.24839426634332
69.63169561998195 87.36940872560882 10.266324470452357
69.40946666986213 87.56994605513741 10.286289476665308
69.18640237823546 87.76938584378986 10.307871767232976
68.96260752750568 87.96788299920729 10.330556024424359
68.73820221305726 88.16562686748227 10.353784155414118
68.5133210236592 88.3628358930336 10.376957645071036
68.2881186980761 88.55975910334911 10.399431236769738
68.06277165982739 88.75666618657128 10.420551168016686
67.83746831695028 88.95382934527983 10.439645762452923
67.61241944673607 89.15152883168062 10.455987822656875
67.38784431626924 89.35001657582742 10.46891975324563
67.16397728330428 89.5495250443123 10.477755265685898
66.94108524056729 89.75027566780012 10.481731746844506
66.71942623216991 89.95241804342076 10.480218558820537
66.49928342491269 90.15607010156558 10.47254508395874
66.28098837526245 90.3613244634197 10.457951877159978
66.06485619460209 90.56818690957405 10.435849006534811
65.85123806678287 90.77662550812069 10.405623991295798
65.64055027763585 90.98657577606174 10.366590901638222
65.4332031240658 91.19790164470797 10.318227324118263
65.22963433223322 91.41042569460897 10.260066471350283
65.0303471220551 91.62394007659273 10.191618480078327
64.8358860340518 91.83819655786372 10.112456497628477
64.64675265571458 92.05290889258065 10.022382918478781
64.4635047020618 92.26777633614168 9.921199787221928
64.2867703526457 92.48247648300938 9.808708594351906
64.1170906026561 92.69667544586552 9.684968595505664
63.95499845152862 92.91003830377285 9.550114174919829
63.80102574856946 93.12222766742221 9.404333184491666
63.65577077304637 93.33288670010904 9.247784028805212
63.51960221115368 93.54169356936718 9.080929433508837
63.392910266018674 93.74832084832646 8.904189362576414
63.27604918974519 93.95243947534652 8.718009420960891
63.169364136614206 94.15370553715668 8.522832128827867
63.07293961504086 94.35183507964683 8.3192876234797
62.98687722980733 94.54652888246976 8.10793015210787
62.911283579416754 94.73746639064156 7.889266283015003
62.84607172939038 94.92437851126908 7.66388525276178
62.79105832641008 95.10702536244725 7.432369382820126
62.74609261488056 95.28514218968782 7.195220010146535
62.71096822970365 95.45847315815452 6.952917764872761
62.685287743354095 95.62685295867495 6.705982834916111
62.668750076660096 95.79006814189394 6.454832027535927
62.66106275176051 95.94789200931244 6.199837154168089
62.66175337042064 96.10021446371988 5.9414043845464155
62.67048108557173 96.24685152618375 5.679846445605059
62.68693666694041 96.38759280425941 5.415436625317835
62.71067610743479 96.52234015678299 5.148470161300319
62.74137168457101 96.6509136987546 4.8791766988200145
62.77877528951892 96.77305175870355 4.607743834474162
62.82250054825151 96.8886239870789 4.334388126449158
62.872269263043854 96.99739281001337 4.0592794745985445
62.9278205485753 97.0990858390563 3.78257494383486
LINES 1 245
244 0 1 2 3 4 5 6 7 8 9 10 11 12 13 14 15 16 17 18 19 20 21 22 23 24 25 26 27 28 29 30 31 32 33 34 35 36 37 38 39 40 41 42 43 44 45 46 47 48 49 50 51 52 53 54 55 56 57 58 59 60 61 62 63 64 65 66 67 68 69 70 71 72 73 74 75 76 77 78 79 80 81 82 83 84 85 86 87 88 89 90 91 92 93 94 95 96 97 98 99 100 101 102 103 104 105 106 107 108 109 110 111 112 113 114 115 116 117 118 119 120 121 122 123 124 125 126 127 128 129 130 131 132 133 134 135 136 137 138 139 140 141 142 143 144 145 146 147 148 149 150 151 152 153 154 155 156 157 158 159 160 161 162 163 164 165 166 167 168 169 170 171 172 173 174 175 176 177 178 179 180 181 182 183 184 185 186 187 188 189 190 191 192 193 194 195 196 197 198 199 200 201 202 203 204 205 206 207 208 209 210 211 212 213 214 215 216 217 218 219 220 221 222 223 224 225 226 227 228 229 230 231 232 233 234 235 236 237 238 239 240 241 242 243

POINT_DATA 244
SCALARS curvature float
LOOKUP_TABLE default
0.0969045212842397
0.0989485746182375
0.10237702586204636
0.10702164182597652
0.11275608678618666
0.1194332449399857
0.12690027493350015
0.1349982342064183
0.14350870058869256
0.1521945600235011
0.16076975352520878
0.16892108122901814
0.17633170213579247
0.182681964790749
0.18774326533937666
0.19137491742329188
0.19355815734324205
0.19440550969407067
0.19412070930754297
0.19299485919035128
0.1913708265083083
0.18960224085379504
0.18797310147396118
0.18666691437241628
0.18575490738557776
0.18520792981333303
0.18493864212561506
0.18485551561363323
0.1848793522431061
0.18498255949051687
0.18519524704512952
0.18562018129710547
0.1864046208359979
0.1877127379071867
0.18969496011146394
0.1925031428673831
0.19626098087520863
0.20104306819197915
0.20688894225530743
0.2137477374890183
0.22148616324168477
0.22988461577967237
0.23860543865962353
0.24719165019408246
0.2550803209619178
0.26159503096191133
0.26602050069446803
0.26768170909329797
0.26610459644922246
0.2610496993012086
0.2525042808950949
0.24068713758859117
0.22614196756635171
0.20960257482387565
0.19188555378503527
0.17383234469674091
0.15628620333702417
0.140101176782489
0.12619586070224315
0.11546687208223497
0.1087309264666217
0.10650555573120715
0.1086169436100982
0.11441057284519035
0.12284844439637461
0.13294381981907802
0.1438645459783511
0.15495947149856382
0.1657584006897151
0.17595953805804943
0.18540259213315818
0.19403380048609614
0.20189357114603484
0.2090902147502505
0.2157662713735843
0.22207257854585294
0.22817235936995905
0.2341872475801085
0.2402006938045818
0.24623409816148326
0.2522843901479337
0.2582483774434312
0.26389277617474627
0.26887052911188314
0.2727814155146958
0.27514908563738183
0.27552801937559845
0.273513399456803
0.26883337036593374
0.2613781073301027
0.2512473683137829
0.23870515141766524
0.22421380724200413
0.20830982806883297
0.19158612879723097
0.17470063968152744
0.15834080471237477
0.14333449388702
0.130602497559427
0.12136556688577617
0.1168419258623004
0.11817427886983191
0.12565969663494042
0.1388586915647754
0.15671209696126026
0.17794139968136868
0.20119363365499943
0.22491295388316487
0.2472901627527933
0.2662829831526696
0.2798471812740733
0.2863389743346111
0.2850221738173201
0.2761522661674536
0.2608958857887848
0.24100241903933164
0.2183940734837539
0.19473045140943065
0.17129532157849905
0.1489476769958271
0.12824118938013265
0.1095366724464334
0.09300482501981373
0.07885087180602879
0.06721588922328164
0.05832428042561509
0.052373373313347835
0.04941381796730312
0.04926071903708102
0.05139096110625878
0.05527739068612774
0.06040286577163344
0.06639202343985688
0.07295941992008922
0.07986636361549618
0.08690375311794547
0.0938699422674586
0.10055945359730349
0.10678953738363599
0.11240739396528118
0.11730094892880637
0.1214267813353526
0.12480775561484918
0.12754562182855778
0.12979144362111983
0.13175165498792807
0.13365445985300453
0.13571718588758924
0.13814368149479525
0.14109426360048527
0.14468296526139468
0.14895221364288738
0.15383744947024322
0.1591861228750976
0.16473118431369888
0.1701074987655295
0.17485058485147617
0.17843243808781017
0.1803046415498056
0.17994293986532808
0.17700823201887175
0.17135779486279795
0.16306333844633852
0.15237037075880597
0.13974208698057144
0.1257488676324869
0.11101887568074129
0.09618562167682479
0.08178588788069577
0.06827701116925093
0.05602855236297534
0.04528989776663368
0.036239344248361414
0.028980787707763425
0.023522140330897036
0.019766395141631546
0.017587307873725706
0.01673540421521425
0.017022868399783994
0.018310174359200678
0.020430162921707833
0.023156588595335162
0.02620651368294624
0.02928127415788502
0.03209283226849558
0.034381634609028745
0.035919862054019355
0.03653916648839866
0.03612991664212544
0.03462183533239681
0.03202387291562345
0.02839640240204496
0.02387335410186392
0.018673281748438828
0.013312807688054852
0.009306978222636554
0.01013874895257018
0.01572114602377789
0.023097434178686895
0.031133328761011318
0.03944712075585678
0.04785967461586167
0.05627211478088663
0.06462165797258543
0.07286446275162481
0.0809677841771532
0.08889708562831102
0.09661484137824053
0.10407899231983855
0.11123610284971477
0.11803024242899426
0.12440208731856588
0.13028401312181456
0.13560491172970562
0.14030404069523894
0.14434426555917793
0.14769887360345538
0.15037119640157715
0.15237720258693657
0.1537403100240031
0.15448449263947212
0.15464330583300367
0.15424202306102938
0.1532968197096146
0.15181744595772942
0.14982697902942296
0.1473642851246231
0.1444722988293285
0.14120568671961273
0.13762813030112417
0.13382324750077118
0.12988744584548825
0.12592498540123018
0.12204187471222988
0.11834243663276676
0.11492347925566565
0.11187785006862519
0.10929643544394517
0.10725478162261458
0.10582520168388872
0.1050870342345739
0.10509831199313063
0.10592812378646249
0.107647977492852
SCALARS torsion float
LOOKUP_TABLE default
0.049020194887127666
0.04545677293265909
0.041593926954300725
0.03790186292098332
0.03463980191221013
0.0322597241854369
0.030950109438109698
0.031025250653962937
0.032742944392235025
0.03622988844106536
0.04183611624739729
0.04963914537853727
0.05991874922600428
0.07281786557819028
0.08799931616342169
0.10554956255844417
0.12446537990712722
0.14456842872120412
0.16458342250064295
0.1838388476088998
0.1996475648873679
0.2106078701504497
0.2152607408054596
0.21294981647538525
0.2040504201697022
0.18924917212365272
0.17052411865578476
0.14938909562616925
0.1271731589172084
0.10505901419982625
0.08370058763336219
0.06424444706177386
0.04650378919369559
0.030482919918225236
0.01609603951892937
0.0035738835293746335
-0.007076853775442254
-0.015827314597598587
-0.02271291669735588
-0.02786519084731697
-0.03144642760087424
-0.03346574500830709
-0.033968699716296076
-0.03305017401356223
-0.030715006695807477
-0.02696551616006539
-0.021664857225827252
-0.014789515960185172
-0.006323355049418044
0.004209965872871712
0.017625226194992072
0.03470331397396818
0.05631264094856294
0.08404839452973609
0.11972280059456977
0.16608411483175325
0.22483016182622886
0.2973377330665085
0.37911606603809944
0.45753278364352523
0.508667057592593
0.5087180377543097
0.4556992825803144
0.3683136177750648
0.27191068647297506
0.1826678499989267
0.10586058192582898
0.042486206562630635
-0.009659319947912155
-0.05040404822237506
-0.08220164932089695
-0.10530335817145599
-0.12095888190485245
-0.12960192143628738
-0.13183623888709467
-0.12878862115075568
-0.12116577829004276
-0.11021283067858946
-0.0967214433959808
-0.08193903848989625
-0.06687090624885901
-0.05171114416075226
-0.03672348278050605
-0.022067727978121333
-0.008021676716443315
0.005630094808065346
0.019096214585840397
0.03277464608876121
0.0471191876694762
0.06270706619020269
0.08013146708565913
0.1004194470323268
0.12468639123344495
0.15473586526904803
0.19269855680624504
0.24165947023024084
0.3045687629787071
0.3842007966297553
0.47791689638032736
0.5729692830444537
0.6410315475859031
0.6498349895701234
0.5957487991656835
0.5041981597207628
0.4065490152060741
0.32024127246602363
0.2496219234178204
0.19398037887434183
0.14969124351038426
0.11478364497148562
0.0866732021697493
0.06463102657936702
0.04737710217082959
0.03426698087614824
0.024695190277744954
0.01872547189790562
0.01634101996793262
0.01764356706797743
0.023385106106818265
0.0344942234139872
0.05313538762615433
0.082278097994203
0.12611552640478077
0.18957220494121632
0.27531604495723505
0.3776311953181729
0.4737921136394803
0.5275658810795463
0.5176240324748996
0.4567544387974729
0.3750835343914871
0.29647525852950835
0.2335896507983624
0.18945580261034398
0.16071953495458915
0.14434215311883916
0.13654030236416762
0.13444858104114993
0.13592878020426474
0.13898186174202412
0.14299911309455812
0.14679326768680742
0.15018203741511923
0.15210223111449409
0.152380201249159
0.15016731326029556
0.14514265385328992
0.13649966643844114
0.12404723331772222
0.10786934547596423
0.08823568513378297
0.06649894933778402
0.04347129038950908
0.020800128282839378
-0.0006146707500831576
-0.01993296973246901
-0.036572642919421576
-0.05066114067349059
-0.06205300035730666
-0.0714255770464309
-0.07911387017474966
-0.08577674673301643
-0.09214307032597921
-0.09873311716760354
-0.10619989254541444
-0.11489682566444624
-0.12596542404963346
-0.13950923359019748
-0.15714414974328095
-0.17856567818935967
-0.205371657746254
-0.23472793672206602
-0.2628238090433166
-0.2750739092005232
-0.2483934416521344
-0.15838801813417502
-0.008190586088078775
0.14605894665540303
0.24409778121561143
0.26273306308785394
0.22424698973512125
0.16378524217033194
0.10421455773273737
0.05592796263248685
0.01749308035288179
-0.012111370616703298
-0.036924496446960636
-0.05869541319420686
-0.08065089736672704
-0.10584453763863792
-0.1395299717061124
-0.192345045842906
-0.28770917579210636
-0.4942696751731628
-1.024943923559352
-2.2032623854374283
-1.9672273487529952
-0.8685165247977973
-0.4173626574865192
-0.23209040715311605
-0.14119959426558326
-0.08865443562637136
-0.05547749294751357
-0.03282042725865932
-0.017466461861160996
-0.006903386279311856
-0.0004932731146979502
0.002725845684689506
0.0033318262007342022
0.001717704238498235
-0.0015038858121324541
-0.005933962908812719
-0.011254517887668288
-0.017084016704542886
-0.023182443310798623
-0.028823043229753483
-0.03394525919345385
-0.03791339780701745
-0.04071086487699989
-0.04192845983075526
-0.04150244628813161
-0.03942821587458577
-0.035672131364202525
-0.030456434395470793
-0.02378983735147728
-0.016182437610251343
-0.007848860396480842
0.0010997671270754085
0.010565133340354376
0.020346604090618222
0.030025921747087254
0.03950156248023159
0.04838935857471642
0.05661493212606348
0.06419251189338385
0.07100045403440451
0.07726991240567471
0.08285457348391807
0.08793107284124771
0.09239830822231714
0.096250464304583
0.09941950486345479
0.10179295774908113
0.10330165110164
