# vtk DataFile Version 2.0
00000065.nii_L_ICA_labeled
ASCII
DATASET POLYDATA
POINTS 283 float
112.40566111773875 81.54116949706554 40.711195348154234
112.23486393460024 81.4932875416043 40.46925887487308
112.06693785577406 81.44101148301925 40.226225618646296
111.90209397572475 81.38392597505238 39.98216749593076
111.74057278502389 81.32161006724063 39.73717007578605
111.58264739011531 81.25363341465182 39.49133628323387
111.42862713845327 81.17955429715053 39.24479041957105
111.2788618043754 81.09892128502729 38.99768180094522
111.13374601600995 81.01127790611808 38.75018812678446
110.99372374790516 80.91616933799064 38.502518719429325
110.85929282471356 80.81315173387222 38.2549171722722
110.73100886946285 80.70180480520695 38.0076630083277
110.6094886380467 80.58175108579616 37.76107001986893
110.4954118952074 80.45268045481384 37.5154808607895
110.38952047954972 80.31437468575328 37.271259808603965
110.29261387272017 80.1667294769225 37.02878476585395
110.20554138154155 80.0097763565781 36.788436677584464
110.12918944469767 79.8437063414703 36.550584745084365
110.06450317456343 79.66886741040283 36.315577226797515
110.01239307486472 79.48583771544494 36.08370557577683
109.97371101276359 79.2954100972303 35.8551911645995
109.9492821598927 79.09854965447079 35.63019029034747
109.9398483661895 78.89640288185434 35.40877955060734
109.94603845226797 78.69028091111046 35.19094986141861
109.96834143239938 78.48163490581302 34.9766053280696
110.00708342260675 78.27202404757584 34.765568118632515
110.06240921422592 78.0630808529557 34.557585794907226
110.13426884740271 77.85647502061404 34.35234027543385
110.22241039407824 77.65387775164575 34.14945709570675
110.32638082288871 77.45692801749433 33.948515127098524
110.44553441021961 77.26720272312598 33.74905639950692
110.57904803910934 77.08619379729093 33.550594935524515
110.72594392596204 76.91529461503015 33.35262566800213
110.88511312897724 76.75579539685373 33.15463248414543
111.05533668184628 76.60888636736442 32.95609552465024
111.235302209962 76.4756676461226 32.756497596664516
111.42361515898673 76.3571668523984 32.55532931169669
111.61880607041127 76.25436639551653 32.352095509319675
111.81932756160177 76.16823359610702 32.14632406663375
112.0235393355185 76.09974647228886 31.93757922267672
112.22968304378963 76.04991195021707 31.72548102616117
112.43584816782264 76.01977904559817 31.50973050977718
112.63993022225955 76.01045101540618 31.290143262702173
112.83958338121994 76.02308386767363 31.066698127942516
113.03217771996447 76.05885210104545 30.839606640275505
113.2146857755413 76.11904635054552 30.609385763987884
113.38373580521413 76.20473338136377 30.377005865867964
113.5359075759017 76.3163033258474 30.143971667288582
113.66705355723738 76.45440159183961 29.91240263106325
113.7738873160066 76.61794418706236 29.684974163812946
113.85272042164591 76.80579220264799 29.465032437791635
113.90165019609071 77.01497618150722 29.2559564021547
113.91966478969667 77.24203157037637 29.061030773517146
113.90666451972645 77.48313205825376 28.883315894211872
113.86474572763213 77.73398861404631 28.724556884884773
113.79592225717651 77.99100669473906 28.586316345646896
113.70360617672699 78.25095918484713 28.468752588871624
113.59059154257451 78.51139408744686 28.372140717977064
113.46012852737451 78.77044697418575 28.29590753867619
113.31514626091565 79.02683060259973 28.239375767856526
113.15829549081855 79.27970134639345 28.201824367881002
112.9919957808836 79.52856445451154 28.182493034665686
112.81843867389033 79.77318973137572 28.180639284153123
112.63962110441773 80.013549264316 28.195559717214056
112.45738628914054 80.24977410627775 28.226591949209368
112.27345796526731 80.48211936803894 28.273115026085378
112.08947437809236 80.71092219949249 28.334602130990284
111.90703815208386 80.93659212409177 28.41057557685303
111.72768155747306 81.15963338885932 28.500380150477508
111.55291737379386 81.38056495487835 28.60347038739318
111.38425508481835 81.59994011421746 28.719266487246
111.22321148438267 81.8183343145345 28.847136337266132
111.07133002607739 82.03632999135104 28.9863919048565
110.9302003823629 82.25450396669679 29.136269780902243
110.8012637749379 82.47339696524719 29.29576679816541
110.68598629963722 82.69349793905673 29.46382087682334
110.58576713902039 82.915228707182 29.63921929360049
110.50190742210155 83.13892503002195 29.820597675950026
110.43556958528558 83.36481909937531 30.006445818715008
110.38773186378762 83.5930269850445 30.195123121261744
110.35915164958557 83.82354476491201 30.384884989315474
110.35034707379852 84.0562538839407 30.57391589089705
110.36159143187575 84.29093125570898 30.76036490839423
110.3929145019013 84.52726236351647 30.942380148064338
110.44411159201758 84.76485684421625 31.118139166890185
110.514779866229 85.00326533509894 31.28586334349295
110.6043585991066 85.24199183972527 31.443814126824595
110.712036601097 85.48050405829767 31.590369270651944
110.83693194897995 85.7182409130939 31.723940427734803
110.97804825222656 85.95460954175729 31.842989867262176
111.13428105201216 86.18898082887715 31.946023044280423
111.30441659766267 86.42068166145616 32.03158462954803
111.48712238055978 86.64898615466986 32.09826183976172
111.68093296905757 86.87310710348736 32.14469727456104
111.88423304445395 87.09219039246368 32.16961544093072
112.09529345912166 87.30525463293976 32.17165760491827
112.31208963659593 87.51133713054043 32.14996219232839
112.53247412679941 87.7094405668926 32.103888219708445
112.75418761771594 87.89855545211995 32.033061802444614
112.9748591224717 88.07761145821031 31.937246018795157
113.19210798223605 88.24578183105136 31.817009159483298
113.40369897453566 88.40243669545625 31.67339663258226
113.60757285514684 88.54709037024408 31.507707316137957
113.80184577509397 88.67939865355535 31.321432163019438
113.98522334156662 88.79957953520369 31.116794797190586
114.15668393732031 88.90794236981806 30.895862198773774
114.31558810624585 89.00502456601785 30.660736458176057
114.46165042795108 89.09155280592637 30.413459968112264
114.59486416215672 89.16837951529578 30.155923951869063
114.7155005982297 89.23648086115068 29.889866764975782
114.824030372617 89.29689528715988 29.61682377565808
114.92102710856793 89.350667151866 29.33810356178382
115.0071391717636 89.39884314990708 29.054816357809326
115.08307403499684 89.44247161849694 28.767900861266323
115.14959903142024 89.4825995784761 28.478149498368307
115.20746585608855 89.52024044882678 28.186211595366917
115.25742192296089 89.55638319311068 27.892625946342473
115.30020432380059 89.59199293363814 27.597842731289443
115.33653437436693 89.6280111802559 27.302243017468015
115.36711328026075 89.66535216643265 27.00615596618748
115.3926197631876 89.70489240727534 26.709873530916703
115.41370828365366 89.74745556423774 26.413662356608143
115.43100942914297 89.79379920015741 26.11777338079112
115.44513091977107 89.8446033155661 25.82244867295598
115.45665582097848 89.90045314412096 25.52792386206409
115.46613777927416 89.96181209306184 25.234424638189346
115.4740947106349 90.02899256874981 24.942157794959172
115.48100603277342 90.10214072991539 24.651300477048473
115.48731345338318 90.18123647063562 24.36198986449443
115.49342071701624 90.26609761687381 24.074312636079252
115.49969111178 90.35638440073666 23.788294450814185
115.50644826151196 90.45162506052812 23.50389767593683
115.51397583946215 90.55120413954096 23.221009436013045
115.52251494933986 90.65439553561292 22.93944695324915
115.5322777792024 90.7604393175981 22.658985555583676
115.5434490676758 90.86854889519391 22.379366156226496
115.55619020937299 90.9779381965369 22.10031184979254
115.57064470548222 91.08784704338977 21.82154523169981
115.58694416798282 91.19756469604538 21.54280515097379
115.605217203819 91.30644855128095 21.263860791610973
115.62559387775954 91.4139408620385 20.984523051822926
115.64819737112445 91.51959731644833 20.704657074727972
115.67316973292307 91.62307968185254 20.42418113420108
115.70066976672248 91.72416264149683 20.14306765323995
115.73087842229441 91.82273411993049 19.861341227953012
115.76400411519046 91.91879259097976 19.57907531975596
115.80028749666181 92.01244169582371 19.296388441012596
115.84000488865024 92.1038804081124 19.01343981828084
115.88347126048268 92.19339166716784 18.73042615389459
115.93104173034565 92.28132974261179 18.447579716733248
115.98311187486279 92.36810693977257 18.165168075238714
116.04011750506847 92.45418114863398 17.883495998025708
116.10253287742323 92.54004425276611 17.60290919802376
116.17086823173315 92.6262113824485 17.323799892081087
116.24566562100951 92.71321077136243 17.04661368207474
116.32749244409383 92.80157374149618 16.7718571573761
116.41693296675494 92.8918245674033 16.500105798807862
116.51457688961322 92.98447021879554 16.232011372562198
116.62100505310832 93.07998921802499 15.968307805539059
116.73677299317688 93.17882053215935 15.70981518481794
116.8623916361836 93.28135217039554 15.457440384137138
116.99830342471861 93.3879074586196 15.21217093340593
117.14485366077942 93.4987286726958 14.975058719532495
117.30226123742489 93.6139609642388 14.747193229952847
117.47059607315347 93.73364179813184 14.52966883226
117.64976881042342 93.85769814823682 14.32355222023432
117.83961896478759 93.98598250834293 14.129965880418533
118.03958530227658 94.11814622270781 13.949634236063067
118.24905769113583 94.25378697841403 13.783214040281637
118.46729744325665 94.39242699436647 13.631146845605093
118.69347951804615 94.53354170930473 13.493650794062736
118.92678612135924 94.67659813268907 13.370843846684004
119.1662713347219 94.82103331430498 13.262379032936355
119.41107798522631 94.96632751803271 13.167827496067174
119.6604126110942 95.11200246936117 13.086626075332955
119.9135583949164 95.25762978784876 13.018108862440965
120.1698839621349 95.40283468634263 12.961544789682355
120.42884437724443 95.54729527872375 12.916165675396906
120.68997792562878 95.69073940679309 12.881189614707234
120.95290055497476 95.83293965255521 12.855842524540293
121.21729829806311 95.97370747114905 12.839375599684866
121.4829184057752 96.11288726168436 12.83107620107552
121.74956027529245 96.2503510157693 12.830273590658129
122.01706694871551 96.38599366922949 12.836341180550098
122.28531764548791 96.51972897970894 12.84869584199712
122.55422122541401 96.65148623132957 12.866796803799462
122.82371005998579 96.78120849021695 12.890144590957487
123.09373426411001 96.90885225181896 12.918280037883315
123.36425651071364 97.03438802911296 12.950782553795726
123.63524755464196 97.15780187388766 12.987266590457386
123.90668232905169 97.27909760474874 13.027378368933544
124.17853603725517 97.39830047008913 13.070793717390627
124.45078027191894 97.51546199063883 13.117216729855215
124.7233798414052 97.63066469369656 13.166377953275486
124.99629071563272 97.74402607379204 13.218030923660747
125.26945865535264 97.85570207163917 13.2719482768931
125.54281835617176 97.96589014970161 13.327917390192335
125.81629299581675 98.07483185785944 13.385735568255603
126.08979446483983 98.18281387935376 13.445204584646703
126.36322455936323 98.29016670627006 13.50612406117604
126.63647631304553 98.3972620955653 13.568284727035646
126.90943417648724 98.50451105362565 13.631463679257537
127.18197915943185 98.61235491903788 13.695407583171573
127.45398722078168 98.72125898164992 13.759838407161322
127.72533105668123 98.83170567821176 13.82444271955554
127.99588073576427 98.94418644896953 13.888866281016428
128.26550377549674 99.05919276521152 13.952710702191188
128.53406485383348 99.17720670112732 14.01553121437516
128.80142546772663 99.29869096586654 14.076835040914647
129.06744375976106 99.424078175392 14.136080627814582
129.33197410898705 99.55376057121808 14.192677921125549
129.59486554835246 99.6880813963494 14.24599186357796
129.85595992731646 99.82732690948336 14.295347780848815
130.11509068741006 99.9717181696897 14.340037684650472
130.3720824110261 100.12140280686596 14.37932756961746
130.62675022002261 100.27644886368907 14.412465400249863
130.87889674222106 100.43684418237 14.438690206200706
131.12830819133848 100.60249816397898 14.457242441663062
131.3747510967033 100.77324363312053 14.467376510102044
131.61796374060603 100.94884745537942 14.46835771877677
131.85766254828948 101.12899998360169 14.459501191438255
132.09354714051364 101.31331934752042 14.440206439039162
132.32527833851637 101.50138653138325 14.409916962136931
132.55248286140724 101.69274735564083 14.368156625460776
132.7747527062836 101.8869276232142 14.314548544057246
132.9916467151755 102.08344911044526 14.248828599244852
133.2026938202048 102.28184363713895 14.170848275374288
133.40739667874354 102.48166649385537 14.080574190477252
133.6052357245332 102.68251141501041 13.978091078057833
133.79567351223042 102.88402689344882 13.86360576070647
133.97815949002222 103.08592766619384 13.737442212355507
134.1521350322678 103.28799563855092 13.600023747944585
134.3170367459763 103.49007597295981 13.451853883084842
134.47229909469186 103.69207194967635 13.293502533482837
134.6173537318433 103.89393892773344 13.12559389479753
134.7516117478458 104.09567395271775 12.948782778742997
134.87453637073858 104.29729965057682 12.763795017155761
134.98557170550322 104.49884371803962 12.571351845688634
135.08417563200297 104.7003194923696 12.372185316347917
135.1698319583373 104.90170680090654 12.167031909994682
135.2420636611762 105.10293581456297 11.956626404586634
135.30044560734822 105.30387499995707 11.741695503213501
135.34461949571784 105.50432130463065 11.522949830805562
135.3743123237292 105.70399332252006 11.301074193418053
135.38935599772893 105.90252821024119 11.076715233133786
135.3897006611586 106.0994862600044 10.850469515769
135.37541846741655 106.29436331134097 10.622874640636002
135.34670242422246 106.48660533805537 10.394401447305404
135.3038614741069 106.67562426081255 10.165448241546144
135.2472472569625 106.86079205738973 9.936337833589997
135.1774337072282 107.04151436951953 9.707319454087076
135.09501479739066 107.2172017418138 9.478572451975229
135.00063001059604 107.38729196619042 9.25021878675495
134.89495575910883 107.55126487917457 9.022334999044906
134.77869000864303 107.7086532463556 8.79496505585774
134.6525389566433 107.85905176402204 8.56813270473885
134.51720541692302 108.00212475370431 8.341852965078528
134.37337915638426 108.13761243027625 8.116141769617492
134.22172952487773 108.2653345502989 7.891022260556969
134.06289902339515 108.38519298039527 7.666529327914351
133.89749816953437 108.49717241213132 7.442711733644936
133.72610125084336 108.6013394499576 7.219632448779231
133.54924282131327 108.69783937753736 6.99736735746636
133.36741550560998 108.78688913221366 6.7760017996442246
133.18106839070305 108.86876898928172 6.555627196169672
132.99060158470286 108.94380723022773 6.336340071877474
132.79637860535453 109.01239449079732 6.118236995452144
132.59871494773137 109.07495591241582 5.9014158902330305
132.39788201893185 109.13194472930256 5.685974143166982
132.19411140417583 109.18383667166326 5.4720069552317
131.98759768087564 109.23112430688384 5.259607398230604
131.77850135801404 109.27431323248663 5.0488672198502185
131.5669524078568 109.31391913545026 4.839877482332636
131.35305452518597 109.35046569305764 4.632728725314213
131.13688937788498 109.38448324314207 4.427511250369264
130.9185202661067 109.4165089516454 4.224316214986577
130.6979954536028 109.44708801938894 4.023237198682509
130.4753514503378 109.47677528210997 3.824371904248684
130.25061628430268 109.5061371066462 3.6278240307545913
130.0238128298899 109.53575359666459 3.4337053590835946
129.79496205166186 109.56622126905532 3.2421383820306753
129.56408643433122 109.59815597494644 3.0532593195310502
129.331213841875 109.632195859695 2.86722139411219
LINES 1 284
283 0 1 2 3 4 5 6 7 8 9 10 11 12 13 14 15 16 17 18 19 20 21 22 23 24 25 26 27 28 29 30 31 32 33 34 35 36 37 38 39 40 41 42 43 44 45 46 47 48 49 50 51 52 53 54 55 56 57 58 59 60 61 62 63 64 65 66 67 68 69 70 71 72 73 74 75 76 77 78 79 80 81 82 83 84 85 86 87 88 89 90 91 92 93 94 95 96 97 98 99 100 101 102 103 104 105 106 107 108 109 110 111 112 113 114 115 116 117 118 119 120 121 122 123 124 125 126 127 128 129 130 131 132 133 134 135 136 137 138 139 140 141 142 143 144 145 146 147 148 149 150 151 152 153 154 155 156 157 158 159 160 161 162 163 164 165 166 167 168 169 170 171 172 173 174 175 176 177 178 179 180 181 182 183 184 185 186 187 188 189 190 191 192 193 194 195 196 197 198 199 200 201 202 203 204 205 206 207 208 209 210 211 212 213 214 215 216 217 218 219 220 221 222 223 224 225 226 227 228 229 230 231 232 233 234 235 236 237 238 239 240 241 242 243 244 245 246 247 248 249 250 251 252 253 254 255 256 257 258 259 260 261 262 263 264 265 266 267 268 269 270 271 272 273 274 275 276 277 278 279 280 281 282

POINT_DATA 283
SCALARS curvature float
LOOKUP_TABLE default
0.0790326308554456
0.07565370835410123
0.07463243857660251
0.07563948231080711
0.07834243671605795
0.08243404348622771
0.0876316935040208
0.09369199778808951
0.10041925160341943
0.10765096330964884
0.11524606034756489
0.12303803107927754
0.13084358167074786
0.1385011646619525
0.14588872128432642
0.15289482277318728
0.15937975141093594
0.16520598965142072
0.1702996037956353
0.17467056345796036
0.17836178445365206
0.18140163476864224
0.18382261041038606
0.18569032566505905
0.187083462361127
0.18806109884274128
0.1886556650263268
0.18888221587762222
0.18877115826773164
0.18837419483971485
0.18777548517934958
0.18715468540600352
0.18671868033357825
0.18669995336236223
0.18735408385889737
0.18897906702159703
0.19199283174916704
0.19680264599059413
0.20373883801978263
0.213039124286442
0.2249072292375256
0.23961081580354632
0.2573426181350278
0.2780459815184265
0.30129254371500047
0.32636211368567164
0.3524153216617446
0.3781395159346062
0.40130141671347075
0.41907361541375693
0.4289604994456998
0.4300618029396963
0.42233678422653326
0.406421578566529
0.3842865746521007
0.358692363377761
0.3321352691900372
0.30604572465444607
0.2811853938168849
0.25817270443721635
0.23754910978109314
0.21954103447955742
0.20403047632063798
0.19081264857057414
0.1798137433030108
0.17109402941364477
0.16470070920999086
0.16053838475215726
0.1584135473837782
0.15819463264237899
0.15983073917757942
0.1632261544262856
0.168131198536357
0.17418123414024322
0.18100231940908582
0.18832817693176282
0.19589302495840433
0.20334362398436928
0.21028829287496908
0.21643466491431315
0.22168719346432716
0.22604660926075795
0.22953455627576813
0.2322171383286539
0.23428101775562685
0.23604262957793376
0.2378346648830693
0.23995067695102495
0.2426290220733732
0.24606674254498895
0.25040010653730926
0.25566219779602944
0.2618052619921956
0.26865511741952386
0.2758956413866462
0.2830560839371517
0.28955341114840166
0.2948698153747748
0.29846192894587664
0.2997247202923525
0.29811440925636445
0.2933688335363825
0.2856154199275951
0.27512789954942957
0.2622788041871464
0.24744219208696366
0.23118587192359386
0.21416907930744045
0.1969158224937673
0.17974701776180763
0.16287300101517344
0.14653905032844422
0.1310162723980159
0.11653740402664951
0.10327232481330409
0.0913966162083588
0.08113976202360648
0.07282551979381123
0.06680523503928498
0.06325900969838025
0.06203094463079745
0.06264048053273279
0.06447760575654013
0.06689604783024952
0.06919103951729907
0.0707034651100402
0.07101852067052657
0.06997928868833056
0.06752363556061362
0.06360450301360628
0.05824640539195743
0.05169990603435169
0.044402318931382245
0.03689270637606624
0.029863745310929838
0.024324014600916623
0.021581649820875685
0.022324480014372695
0.025626456765290708
0.02994882459994964
0.03422370588097796
0.03793931536552451
0.04089039185880975
0.043053649741040735
0.04453669320182521
0.04555260251854914
0.046422246664636325
0.04753308260314343
0.04928819673988218
0.05203855072462319
0.05602378954891867
0.06132887595828058
0.06792160340174251
0.07568128667029193
0.08443579735864822
0.09400172641692259
0.10418939480214545
0.11480856358921479
0.1256794591936148
0.13661716680394742
0.1473915162671691
0.15769067825507274
0.1671545916430283
0.17548070402788382
0.18241809165000697
0.1876817794098056
0.19090827986914372
0.19185137603859442
0.1905535322565291
0.18723203271989572
0.18210195506634733
0.17533199025779647
0.16718936897405418
0.15811363515514415
0.14854044535030664
0.13878387645729134
0.12905202052633086
0.11951565558045858
0.1103484109841746
0.10169884960536725
0.0936573034302364
0.08626797363318081
0.0795395855480905
0.07344305842082627
0.06794895864953021
0.06301920032281834
0.058602289379683696
0.05462901216358867
0.051004899694927074
0.04764271485047333
0.04445862035309319
0.041370298529692005
0.03830036612195145
0.03517488559089525
0.031937743605948234
0.028548139624859224
0.024990924723787337
0.021302314694074266
0.017611680402849935
0.014244088829340676
0.01194123759785401
0.011866433831545373
0.014453677184558564
0.018921475899004968
0.024468122286048704
0.030661618272745078
0.03727766217803695
0.044181317679133914
0.05127186127191579
0.0584781564626427
0.0657480713006441
0.07303019318788762
0.08026730480939934
0.08739762086421521
0.09437280581727304
0.10119258831407321
0.10785376067360428
0.1143205940250632
0.12052764377957849
0.12641279767266386
0.1319662626176345
0.13716998899015573
0.14193851344370725
0.1461342750483119
0.14965200066211398
0.15249193983570106
0.1546795127294521
0.15619610688242697
0.15701102194963512
0.1571818698090505
0.15690893937226438
0.15641160963463327
0.15585905708240747
0.15538869695321217
0.15515169275672752
0.15531238989021928
0.1559669077452732
0.15709843819386554
0.1585984807227381
0.16031601534931075
0.16209365871142564
0.16374860151578086
0.16505942487818995
0.16579760875549976
0.16580653584891925
0.16504001966517617
0.16350103277895847
0.16123102756566152
0.15830168980937942
0.1548409175292374
0.15102471696407418
0.1470101783208016
0.14291862147864928
0.13882999383702044
0.13478389723407252
0.13078267373502103
0.1267934692735773
0.12276387724554479
0.11863215893368607
0.11433787002642537
0.10982996812101116
0.10507789995537191
0.10008925385125847
0.094892527089593
0.08952407696947408
0.08402825274421258
0.07846110601552847
0.07289116693257922
0.0673960350584008
0.06204521404780636
0.05691349044242795
0.052089764943879166
0.04767783649046523
0.04381065572697151
0.04065309707861071
0.03839909798813118
0.03724661978253038
0.03734857185184906
0.03876208236381169
0.041439484775198314
0.04525902032254268
0.05007452996838456
0.055753629430019
SCALARS torsion float
LOOKUP_TABLE default
0.05445003546221712
0.054131799524356906
0.051490595277419796
0.04684928742749348
0.040974453930735
0.03432282763630285
0.026458292932836622
0.018017157353669266
0.008938317997373334
-0.0007199931450771287
-0.011378897354086313
-0.02455456132905601
-0.0400905413212559
-0.05676895131065797
-0.07424469249197131
-0.09296153064783239
-0.11354046324080952
-0.13636611500584453
-0.15898224398033894
-0.18056795294831457
-0.20105252312479235
-0.2200270707858957
-0.23770912756586132
-0.2525624229756182
-0.26443968541643215
-0.2735706220140933
-0.28028354403801076
-0.285359861666098
-0.28904311381087966
-0.29205357381283154
-0.29478403785541096
-0.29714756298576844
-0.29922246034086264
-0.3004674654602372
-0.30081252325107166
-0.29958173294881446
-0.2953865852607819
-0.2876176987446752
-0.2756087849942583
-0.2600048574401733
-0.24185212043144194
-0.22173065615862572
-0.2001518565024802
-0.1773953961919683
-0.1541295069490086
-0.13184773618375326
-0.11121591964988653
-0.09117368553116244
-0.07053287729715306
-0.049207646482045155
-0.029495459917927395
-0.01128074412293395
0.007116568441158338
0.026501489843993784
0.0453260279055503
0.0627207918374984
0.08000545242353949
0.09912807474214083
0.12062292612564685
0.14310559446879195
0.1663284604149272
0.1911337148408135
0.21843599229128918
0.24817201715705584
0.27821816147676826
0.30640989590314843
0.3309372037690223
0.35080804711743413
0.3652306924691866
0.37301136794726514
0.37303125751116734
0.36529985091615297
0.3515789758893063
0.3341910821212473
0.3154588522216401
0.29617783366768563
0.2767555118436068
0.2581118894834074
0.24091869302473076
0.22608347511103358
0.2135056438078355
0.20272341790430953
0.19371312294938658
0.18637966196613895
0.18066049294321568
0.17618484103234994
0.17248138591282
0.16910893628422322
0.16590928833966848
0.16242360171681078
0.15848772488800383
0.1540469773410989
0.14897081712920127
0.14338315106289223
0.137250668799349
0.13076247496493135
0.12433085798382834
0.11807379375255923
0.11193846451095142
0.10598670686296696
0.10039132665999143
0.09588053468033818
0.09247654183086228
0.09013928676763588
0.08900002778280233
0.08946788931368863
0.09232186240357793
0.09774239005156872
0.10594367502739901
0.11760334214457757
0.13394351094042445
0.15652636781528323
0.18698553603671333
0.226844282366954
0.27811185854902387
0.3428041026988094
0.421212901042089
0.5063970232611591
0.5788496545779392
0.6134447277607996
0.5980985868322893
0.5470738626081062
0.47827115822302546
0.4051353756221825
0.33700650259521897
0.2803677026468866
0.24133357937761038
0.2176762144987952
0.2062778469068385
0.20699985355833453
0.2241642444228741
0.2665795840629653
0.3475866859683248
0.48996963774824787
0.7278826665118079
1.057976614130101
1.2710017012894772
1.0883836747239959
0.7204770687923644
0.42398416593556937
0.2278245120616444
0.09474916784312593
-0.006630445913345169
-0.0921038114981533
-0.17210108994504997
-0.24805564222973336
-0.3172320449770247
-0.37414178694347233
-0.4081001031063802
-0.4137143535731648
-0.3919006109108871
-0.35070990953986236
-0.30065451228003864
-0.25024901271382805
-0.2043763679947932
-0.16517269604925422
-0.13280842130497103
-0.10639931191646124
-0.0853990207654885
-0.06857587594257547
-0.054735909069276355
-0.04302999550665687
-0.03304988204785159
-0.024818798158928984
-0.017881137798051616
-0.011550584156161118
-0.005407826408484501
0.00044398855772238746
0.005581722262266287
0.010225596553802344
0.01484693819692017
0.01972037546243421
0.02469393026916578
0.029528567446049838
0.03431252567133992
0.03941491637987502
0.04495551337067738
0.05106991105192338
0.05775774364212712
0.06492400672725177
0.07260226292642041
0.08053709653220771
0.08885338951471977
0.09757181379287716
0.10611597443551624
0.11322277722669365
0.11789328853327798
0.11972944035521628
0.11852182841011841
0.11333555954069433
0.10188904923957479
0.08264817947955562
0.055749604633245964
0.020457138540903985
-0.02653231277930495
-0.090882847575407
-0.18497449555426013
-0.32887316764842045
-0.5656071438725994
-0.9656160127228567
-1.4901591092496356
-1.623892861792795
-1.1838740886018762
-0.7593587591339138
-0.5100978770497004
-0.37167108310757135
-0.2931941647919916
-0.24682980052132691
-0.21923261112721038
-0.2017005884408296
-0.18864363903274714
-0.17900244507354207
-0.17189242948653047
-0.16700906093341863
-0.1626487672531034
-0.15694388089532268
-0.15011018179698474
-0.1420784035786617
-0.13316121797852723
-0.12310099758685707
-0.11141063488077554
-0.09793555463527293
-0.08194592672218341
-0.0635866745847463
-0.044498026138283436
-0.025509851261426485
-0.005887722266518354
0.015707602790190955
0.039677771559454074
0.0629454007609241
0.0838642432582335
0.10267108211037843
0.11972751092005292
0.13491928360290514
0.14573267855331823
0.150768176187414
0.14979518117872384
0.14295480297603497
0.13074513973186855
0.11496731221447655
0.0963737490352343
0.07532204637542313
0.052215401680046784
0.02720217508647023
0.0028655466360834924
-0.020500256901500223
-0.043034574781194594
-0.06469256026117232
-0.08554712764176593
-0.10391765794793835
-0.11925529018303188
-0.1311864053412672
-0.13922686610002147
-0.142977116021355
-0.1425926701692352
-0.13770524414728008
-0.12936199986048047
-0.11819566865802582
-0.10435446137023004
-0.0889000316875542
-0.07165223257838928
-0.05386400509716209
-0.03597130708069987
-0.01743375491596997
0.00258623085399403
0.024774419452371757
0.0489038305902912
0.07519636631933613
0.10479498063560957
0.1399170366259486
0.1819148377186074
0.23149961603683072
0.28890333103342236
0.3534474185302092
0.4221397047345122
0.4853596621650339
0.5287726761297489
0.5393435736357383
0.5145317609708443
0.4640291862824274
0.40226474336215395
0.34096856149771
0.286334261268745
