# vtk DataFile Version 2.0
00004393.nii_L_ICA_labeled
ASCII
DATASET POLYDATA
POINTS 258 float
104.57895157253334 69.89423842396529 36.52159860764311
104.37568668247131 69.9303741325551 36.304007406200135
104.16887601890318 69.94694729541064 36.08739524108297
103.9598756446999 69.94367498076949 35.87228725555705
103.75010577312933 69.92040684839344 35.65916983627293
103.54106792049035 69.8769336813005 35.44851031857431
103.3342801094833 69.81369578249084 35.24065435689104
103.13125682371137 69.731106053098 35.03589746356949
102.93346600698875 69.62978434776223 34.83445479598845
102.74228925279405 69.51054543387215 34.636464064941684
102.5589987778717 69.37431362152505 34.44200503885272
102.38480694941724 69.22201113923464 34.251137463993764
102.22064208207037 69.05485188488959 34.063843269118095
102.06753977608791 68.87374066018711 33.88018382706578
101.92599472478713 68.68007010890052 33.700098923984804
101.79677511008863 68.47476124729066 33.52367337945116
101.67999547036537 68.25918446536433 33.35085705746001
101.57604007677219 68.03430831301289 33.181735329276954
101.48473498177839 67.80135557258234 33.01627859479035
101.40615496718003 67.5612410879245 32.85456416996678
101.33985533921988 67.31503837942849 32.69654000278852
101.28577174984783 67.0635134976675 32.54228425923501
101.24327904551194 66.80757044897202 32.391707814493344
101.21216090742215 66.54785908736864 32.24484488724711
101.19189131803282 66.28506259929588 32.10161391225388
101.18209309924586 66.01975308085363 31.961957236373586
101.18250223812397 65.75243724308442 31.825824872970642
101.19267210889576 65.48362011225633 31.693067273150344
101.21252503996446 65.2137293745583 31.563622179949174
101.24175437344462 64.94320873279482 31.437306694523066
101.28029379045817 64.67247701287405 31.31397500394818
101.32811203004623 64.40196265392562 31.193446153494232
101.38513430751772 64.13210048130183 31.07548549655974
101.45150602126867 63.86335903128145 30.95987976473113
101.52715713282153 63.59619825300217 30.846329469378322
101.61227180337417 63.33113987464433 30.734565734993296
101.70677591897324 63.06866956733159 30.624250334719996
101.81074340182157 62.80932579913876 30.51505877082786
101.9240759821886 62.553609029437226 30.40663599707073
102.04661752856423 62.30199756617311 30.298625036941996
102.1782137547661 62.05497958958126 30.190664029777345
102.31843099907768 61.81288840427489 30.082393576466714
102.46702637341382 61.57616082366532 29.97343831881309
102.62334357595917 61.34494866998781 29.86344704064192
102.78701400389839 61.11959177535011 29.752006821551227
102.95728808898838 60.90010906743747 29.63875017594534
103.13367392984162 60.686730029681165 29.52320455297953
103.31545129822298 60.4794566159976 29.40493290453156
103.5019993816838 60.27839260501798 29.283413956873055
103.69271738251982 60.083711997227326 29.158035528580395
103.88691789687473 59.89549373250929 29.028215997842494
104.08397909922725 59.713976468780444 28.893267055477203
104.28329737543761 59.539604606386575 28.75234693348724
104.48418872359476 59.37274559137131 28.604731047305407
104.68597839859709 59.214007922549484 28.44958243267608
104.88793723328968 59.06424233986118 28.285971977121942
105.08924233368633 58.924492197815276 28.112975631535594
105.28898177528558 58.79588317294675 27.929833801624866
105.48606173679329 58.680047109116764 27.73563572470405
105.67923527518381 58.57869664698159 27.529780076727597
105.86700958531654 58.49390289887817 27.31182119448027
106.04767940354996 58.4278593807495 27.081724630674753
106.21915152564235 58.383190330614035 26.83977835751184
106.37929033034648 58.362073386017364 26.58713073474459
106.52570525257629 58.36672700978743 26.325497474389962
106.65600523484176 58.39887542721614 26.0573693081106
106.76801071972872 58.45947380853283 25.785921792759307
106.85994058933069 58.54855771509129 25.514788413276868
106.93059522015388 58.66515795704455 25.247745187471562
106.97946222646802 58.80737484253161 24.988348427608514
107.0065996774629 58.972709972931796 24.739689044186854
107.01255685685254 59.15829215621323 24.504244481052563
106.99822452559324 59.361131386816645 24.283851295196072
106.96446605639817 59.57844943622203 24.079977409819907
106.91257869065339 59.80736745999265 23.893324692315232
106.84371782374657 60.045363319896225 23.724329274563114
106.75885951197954 60.29019899817485 23.573324522650555
106.65920932240371 60.53975399908391 23.44011544762853
106.5456510177947 60.79220992440005 23.324673195492846
106.41913790261378 61.04589913078034 23.22671607042595
106.28064505854735 61.29934131090779 23.145781239015857
106.13080207907231 61.55117571274433 23.081806847759655
105.97064661351473 61.80024488698187 23.03403992172965
105.8009368039022 62.045494300303545 23.002082520056238
105.62244423102513 62.28598745780064 22.98548452897629
105.43613348691474 62.521057737551914 22.983401763606874
105.2427897984564 62.7500867424609 22.995267183204113
105.04332001190392 62.97272581265753 23.020222739642836
104.83864814719894 63.188872409564866 23.057270415111283
104.62956337013283 63.39846558762192 23.105640130788945
104.41698461285031 63.601886239753746 23.164103304285007
104.20170283486861 63.79958842160108 23.231617878974227
103.98447660638003 63.99221922335953 23.30711165721721
103.76605578049704 64.18070478919361 23.38933606976625
103.5471175249684 64.36600770498124 23.477233961624492
103.32832816239346 64.54929492824924 23.569621276789928
103.11032703675734 64.73178460289483 23.66539286199961
102.89378073349708 64.91476242263585 23.763505767570027
102.67932940983275 65.09951209823969 23.862889337033657
102.46772683654864 65.28736682877157 23.96255286049668
102.25970687076853 65.47953485404824 24.061524868120635
102.05614193329984 65.67722427489846 24.158861493518263
101.85793763266908 65.88147662387165 24.25366583940418
101.66610106905416 66.09321725028866 24.3450635908771
101.48167663419477 66.31316187109145 24.43223150003915
101.30579904142826 66.54186529469628 24.514357673117956
101.13951471524497 66.77955534694256 24.590735724955994
100.98405850287452 67.02639928928565 24.66058570425142
100.84030027399474 67.28206841291278 24.723374173785107
100.70942128994221 67.5462980723602 24.778393799952788
100.59207736267024 67.81833730595388 24.825257492517416
100.4890728872091 68.09744252977606 24.86348422886474
100.40094787673189 68.38265678725425 24.89274589279938
100.3280235843116 68.67291243575505 24.912840816719783
100.27068681007867 68.96713684355232 24.923526765475863
100.22887221337882 69.26415582282901 24.924839432037384
100.20277181859954 69.56285756495113 24.91667014723502
100.19213022321618 69.86211111961244 24.899196608664703
100.19688513158974 70.16083619256604 24.87250070989236
100.21682324301251 70.45798738208255 24.836778347332185
100.25156613200836 70.75259348792497 24.79234518006669
100.30115520537437 71.04362772698421 24.739292098433506
100.36505755754393 71.33022957184573 24.678059151206938
100.44307396315456 71.61148633641905 24.60890047602823
100.53514504831635 71.88641097448577 24.531997705275
100.64083558783567 72.15418374745883 24.44773288379416
100.75995490907884 72.41385972709557 24.35633801188495
100.89245735780067 72.66433063396916 24.257948189475936
101.03788638457095 72.90470905343537 24.152879091843893
101.1960054758781 73.13387282752058 24.041286499733246
101.3665913703148 73.35052873451832 23.92326313772309
101.54900563094607 73.55366007304042 23.799047832048018
101.74283257049426 73.74181144694734 23.66868310527876
101.94726385958926 73.91379554417792 23.5323313458299
102.16141419325838 74.0682931527678 23.39009795095558
102.38420141294267 74.20400203555909 23.242085710715873
102.6142675997888 74.31984752654489 23.0884449514165
102.85009711900892 74.41477728888457 22.92929585598099
103.08994213729191 74.4880275305597 22.764789848432144
103.33189880035455 74.53920274200779 22.595105738067083
103.57395561634627 74.56791327705116 22.420354045669953
103.81407544851893 74.57466248979861 22.240763641689536
104.05015328689439 74.55954184385155 22.056383849892242
104.28030787193893 74.52377798197983 21.867420422235192
104.50263198788848 74.46824306808642 21.673905226835597
104.71552550695168 74.39447260217635 21.475926185559995
104.91749711848851 74.30398744668761 21.2734799894496
105.10732516842072 74.19857733830683 21.066549294567416
105.28397957222207 74.08009887600758 20.85506633436172
105.44668442841002 73.95052796073345 20.63894304854049
105.59477570666814 73.81181970460081 20.418031802316932
105.72794570988124 73.66605000434694 20.19221922997429
105.84575277715511 73.51517351830182 19.96127881816901
105.94836268770241 73.36127736460229 19.72513431468956
106.03548975751376 73.20634001488624 19.483512828317007
106.10769028807876 73.05236983095047 19.23641413367792
106.1650764700376 72.90136618359921 18.983664775584664
106.20838032296803 72.75520366381932 18.72532636225099
106.2381893523096 72.61578205946549 18.461413161053795
106.25549301873325 72.48479457795683 18.19211763139328
106.2613148117836 72.36389440100254 17.917661597875103
106.25695817267737 72.25446695153603 17.638405611702918
106.2438230539197 72.15776537926142 17.354762441323807
106.22351583279925 72.0746951748873 17.067247295403774
106.19771247199806 72.00598317298903 16.77640162865311
106.1682003459707 71.95196720798549 16.482818993791795
106.13677926053069 71.9128034786778 16.187084300798055
106.10525131974545 71.88832776265771 15.889783026123208
106.07537635783595 71.87818108525035 15.591477396404102
106.04886160886616 71.88189208435229 15.292704011768166
106.02728187858456 71.89870293097614 14.993982664077478
106.01222469258653 71.92801881430317 14.695827192065739
106.00496312156142 71.96880846496306 14.398730651238893
106.00695769601543 72.02043308901663 14.1032423656464
106.01917594767804 72.08179985038244 13.809871904050476
106.0427647117044 72.15214101705276 13.519223894495804
106.0785212937231 72.23052285594963 13.231895844833291
106.12716398796148 72.3160956913694 12.948540924537673
106.18932621840723 72.40807333662724 12.669876112586058
106.26526160575523 72.50561946825071 12.396570179981648
106.35538184153597 72.6080855284397 12.12944428429233
106.45946369114179 72.71473410247354 11.869117205980418
106.57763297914879 72.82506023612046 11.616448612814802
106.70924459816486 72.93848314314212 11.371925939967278
106.85411244214086 73.05465034988345 11.13634824132544
107.01128875121493 73.1731634448657 10.910009234024695
107.18027696838725 73.29381466218386 10.69352261497835
107.35999820336176 73.41637872693019 10.486980385048119
107.54973066352312 73.54077306872998 10.290739768606567
107.74837621076502 73.66691089930795 10.10469310305245
107.95508303754279 73.79480283595666 9.928904597001452
108.16883530647716 73.92445544454529 9.763111547254875
108.3887494373399 74.05591900107412 9.60708669254804
108.61396383058933 74.18924659185097 9.46048412267785
108.84364465081993 74.32447516662464 9.322819897270646
109.07711104847337 74.46167407907127 9.19373612699575
109.31364326539952 74.60083988351393 9.072578581883034
109.55270725427553 74.7420228791798 8.958954205926624
109.7937579265403 74.88518765364883 8.852212175137877
110.03637186432488 75.03031944805603 8.751855607815573
110.28018219911806 75.17737649719125 8.657369810729731
110.52487404943673 75.32627700410991 8.568196131432607
110.77021205680336 75.47698231079586 8.483964158213482
111.01598475357773 75.62937627780902 8.404151851876968
111.26203981812951 75.78340152952487 8.328444770827236
111.5082501943665 75.9389644495055 8.256477580583313
111.75451919610094 76.0959923569334 8.187974696420634
112.00077150105118 76.25442574619306 8.122724174113403
112.24694951855156 76.4141910604683 8.060510810800599
112.49300543169828 76.57526221507305 8.001251065880563
112.73890449049192 76.7375739560224 7.944790950368186
112.98461099261223 76.90112002162452 7.891123246184193
113.23009995300738 77.06585015596198 7.840148841821636
113.47534006268168 77.23176008171363 7.791874244327209
113.72030631596195 77.39881526129652 7.7462302491695905
113.96496598312422 77.56700775633378 7.703192748313883
114.20928750398448 77.73631468590936 7.662677397372466
114.45323163860287 77.90672671482844 7.624593551859071
114.6967544549621 78.07823539117639 7.588804486713336
114.93980601975728 78.25083677582673 7.55512644451158
115.18232411254051 78.42454516546674 7.523346577573996
115.42424540226651 78.59937011055226 7.4931805827390665
115.6654845692519 78.77535655049765 7.464333420343519
115.90596669298483 78.95252836259036 7.436436111361697
116.14557951258207 79.13096311742196 7.40911375912991
116.38423709424295 79.31069519007139 7.381934830651868
116.6218054994487 79.49181716756802 7.354443579469162
116.85818247885155 79.6743711150104 7.32616718139459
117.09322794069959 79.85843201903275 7.296593142998741
117.32681940658462 80.04403713444823 7.265209022798667
117.55882461103222 80.23121385800634 7.231483762523602
117.78909684877146 80.4199778220013 7.194857597973224
118.01751914761101 80.61029072526613 7.154825814175864
118.24390954641886 80.80213547584097 7.110770778135523
118.46815817385138 80.99540838055464 7.062236921356795
118.6900627918486 81.19003432972747 7.0086090722798025
118.90947502481234 81.38587356639799 6.949435198613721
119.12617778547408 81.58279237528764 6.884177477988351
119.33994367747556 81.78063410141178 6.812359465354291
119.55052645437641 81.97923030986236 6.733563301445314
119.75758671657769 82.17841756057699 6.647283687630356
119.96083458481478 82.3780161073489 6.5532423052770685
120.15978761704324 82.57786052352033 6.4509088294205394
120.35408959749253 82.77777874182954 6.340135017702042
120.54312429476778 82.97760524575335 6.22044515015475
120.72642507613689 83.17717851404875 6.09175655248978
120.90326336466936 83.37632546363578 5.953709558775017
121.07305428196348 83.57487723695763 5.806280066484349
121.23497648447422 83.7726342739374 5.649247463025816
121.38835601920898 83.96939403355206 5.482678855645659
121.53232486155477 84.16490664438997 5.306522229021115
121.66616264003605 84.35891205069592 5.120964697455072
121.78905210471292 84.55110285027524 4.926177969465857
121.90025841048478 84.74114894020056 4.722473282604365
121.9991952253181 84.92871461230624 4.510317129244595
122.0850912578695 85.11339038718745 4.290099751345918
122.15768189098131 85.2948517805312 4.062547069802593
122.216605367806 85.4727370657622 3.8283162405145
LINES 1 259
258 0 1 2 3 4 5 6 7 8 9 10 11 12 13 14 15 16 17 18 19 20 21 22 23 24 25 26 27 28 29 30 31 32 33 34 35 36 37 38 39 40 41 42 43 44 45 46 47 48 49 50 51 52 53 54 55 56 57 58 59 60 61 62 63 64 65 66 67 68 69 70 71 72 73 74 75 76 77 78 79 80 81 82 83 84 85 86 87 88 89 90 91 92 93 94 95 96 97 98 99 100 101 102 103 104 105 106 107 108 109 110 111 112 113 114 115 116 117 118 119 120 121 122 123 124 125 126 127 128 129 130 131 132 133 134 135 136 137 138 139 140 141 142 143 144 145 146 147 148 149 150 151 152 153 154 155 156 157 158 159 160 161 162 163 164 165 166 167 168 169 170 171 172 173 174 175 176 177 178 179 180 181 182 183 184 185 186 187 188 189 190 191 192 193 194 195 196 197 198 199 200 201 202 203 204 205 206 207 208 209 210 211 212 213 214 215 216 217 218 219 220 221 222 223 224 225 226 227 228 229 230 231 232 233 234 235 236 237 238 239 240 241 242 243 244 245 246 247 248 249 250 251 252 253 254 255 256 257

POINT_DATA 258
SCALARS curvature float
LOOKUP_TABLE default
0.2282063252038373
0.23015853902849626
0.23089166879168957
0.23045994764932667
0.22898125738334557
0.2266210819034106
0.22359577207678577
0.2201117854864172
0.2163541171169444
0.21246365682614346
0.2085122772022745
0.2044832683782555
0.20029737065230868
0.19584257945795386
0.19100386250030824
0.18568400254128567
0.1798366362860352
0.1734918794663586
0.16676515976417963
0.15977617157746987
0.15265497351490512
0.14555378555337345
0.13867726207530265
0.13222723339164097
0.12636543215195276
0.12123007700674343
0.11690907545314595
0.11343497543427787
0.11083750432966895
0.10908339448205544
0.10811995213471959
0.10783770521753377
0.10810439225489496
0.10876931993562151
0.10966091925364625
0.11062509375556144
0.11151591477368618
0.11219038711833836
0.11251290466850045
0.11237475790287552
0.11170839649404582
0.11049427646790383
0.10874300758106878
0.10654415997138052
0.10404864667993582
0.10148436620632202
0.09913311745876283
0.09735258390248255
0.0965963387184813
0.09739435336190831
0.10022813030766216
0.10547064947878702
0.11341588478630772
0.12410306697881845
0.13749844795392888
0.15352884809775147
0.1720782307943882
0.19299497986046144
0.21605615972611905
0.24087916369263926
0.2669462810451521
0.2934614750129237
0.31939509623016504
0.3434377536093655
0.3639509476881091
0.3791863111982822
0.38788206759778676
0.3895904076516796
0.3847280043850552
0.37450166988501044
0.3604575192540486
0.34420599098422516
0.3270781827480854
0.3100548926950868
0.2937969106234664
0.2787878306110684
0.26525124109125453
0.2532311279004729
0.24265943586975103
0.2333410428846436
0.2250033765107177
0.21732805927857915
0.20992188462017458
0.20238643151834076
0.19435443401209543
0.1855136811836276
0.17559434404425245
0.16442909635346092
0.15193765037889428
0.13808210825384812
0.12295540429779796
0.10670763961113189
0.08959190733743
0.07208178842768267
0.054987711471617115
0.04006977196100659
0.031588649266732
0.03509245182415576
0.04784396699097276
0.06436168659082085
0.0819569937864291
0.09954192206974252
0.11654464392151258
0.13257286080689482
0.1473707919179007
0.16073930292682176
0.17252270428323846
0.18256528103240668
0.19081160565979569
0.1972118402389284
0.20184268793645962
0.20482098877109547
0.20632572987755596
0.20659696488336218
0.20587311820484372
0.2043919729413457
0.20236084350161818
0.19999879280186553
0.1975137895641792
0.19510750393736298
0.19297426987013883
0.1913047300608404
0.19025808211979608
0.18998042804854343
0.19058324395397133
0.1921202447799201
0.19462546969122255
0.1981006730276867
0.2024814202698827
0.2076542792295978
0.21346816565882243
0.21973647225670692
0.2262553522402343
0.23276317621377354
0.23895189776187414
0.2445007898499079
0.24910206707524418
0.25246411722231993
0.254362847919053
0.25464500399576634
0.2533104487266979
0.2504951176978606
0.2463125109062361
0.24094625691252056
0.23461186582598303
0.22759376887332655
0.22017437266037146
0.21266073527874188
0.20533201464433407
0.19852493578704722
0.19253080797033018
0.18752345017536834
0.1835952623901179
0.18076102947366532
0.17900811276691161
0.17817643273279707
0.17805763323768978
0.17835140348358855
0.17881692965330045
0.1792029654200768
0.1792114203868484
0.17855324060891084
0.17707698258671006
0.17477215397226634
0.17174600625536607
0.16823693585847344
0.16455973524449727
0.16115373071831102
0.15841474958443733
0.15660588890917632
0.1558515072802386
0.15622919115886558
0.15768224211034304
0.16007468442535883
0.1631470744248189
0.16661832373436342
0.17022724648085852
0.17371822152465585
0.17679369368594913
0.17916832023398419
0.1806161148924106
0.18101070279086448
0.1802338324529641
0.17826684978578372
0.17510035996319318
0.17087048459962417
0.1656900475663898
0.15968627226981472
0.15295005026143565
0.1456422933869156
0.13791861056062923
0.12993385928335147
0.12182584991826038
0.11371060139470013
0.10569418396734884
0.09787153230798723
0.0903069485894478
0.08305744687841572
0.07616835535490869
0.0696982445984582
0.06370010975378076
0.058219083572100795
0.05330358492403355
0.04894533765726309
0.045161754910482924
0.041956723841626235
0.03933880794747375
0.03727699285635547
0.03571029913362549
0.034572455013574976
0.03375859176886279
0.0331739681488271
0.032706256863646886
0.03224869871767049
0.03170105959553836
0.03096727036586372
0.029974910004769983
0.028668876689189535
0.027036001630423346
0.025117005553582344
0.023015725431407313
0.02093659903248364
0.019188159720613544
0.018167181629827635
0.018327537958502917
0.019872360745510152
0.02272254349570868
0.026556591762938026
0.03107576339211413
0.036046482984067915
0.04131520238337968
0.04677242336381556
0.052340579227173556
0.057964733686176356
0.06361054409537266
0.06925253348420322
0.0748750738173919
0.08047081594803555
0.08603983717561597
0.0915955727511801
0.09715212761631792
0.10272258249712155
0.10832456239606944
0.11398183370312412
0.11971891176304893
0.12554715995960164
0.1314652871164751
0.13744936754931814
0.14345172276467172
0.14939709167592502
0.15518459087652972
0.1606956299296748
0.16579514525110287
0.17034248415473466
0.17420748178475276
0.17726074893628777
0.17942358298218172
0.180637938882048
SCALARS torsion float
LOOKUP_TABLE default
-0.08384583558383021
-0.09371803928209689
-0.10428162756163258
-0.11528262787700126
-0.12641291401155277
-0.13713593638583968
-0.14642432618042522
-0.15375597108412112
-0.15848539910952253
-0.16024074862397283
-0.15818329267796752
-0.15209132925303345
-0.14276772023454326
-0.1309011973923863
-0.11737535585288014
-0.10315064582561617
-0.08889793481593063
-0.07622444738502537
-0.0651050025985916
-0.05534037611366863
-0.04683979548590194
-0.04084336526583454
-0.03798419464135903
-0.03847477739104022
-0.04249752217592397
-0.050027153039394076
-0.06026501754452461
-0.07305243634852158
-0.0878194440020193
-0.10409671453472569
-0.12015799000060388
-0.13494154752455592
-0.1476459812925482
-0.15745848169433474
-0.1645615194349995
-0.16891724367028674
-0.17095667594411196
-0.17149116617543253
-0.17112991585211143
-0.17134852430863223
-0.17286340150600296
-0.17764385509807926
-0.18719172698203565
-0.2015720056620403
-0.2207916881652596
-0.24414334083993305
-0.27086220018191753
-0.29801014693084055
-0.31851421336774177
-0.3269388396926566
-0.31773176334975606
-0.29068610294084957
-0.25102110154007795
-0.20586765749533015
-0.16150247190639805
-0.1212946973468689
-0.08653792013305062
-0.05788217145141816
-0.03480924005669226
-0.016441160087269983
-0.0024444357860846115
0.008276420737340636
0.015855175164319103
0.02086704027243249
0.023424509744445356
0.023681617234195464
0.02145544908069341
0.016767026319872855
0.010567683683222674
0.0030575434900178395
-0.004932263389504016
-0.01327899163044215
-0.02155248839397568
-0.029707918712779523
-0.037070864692318246
-0.04321142825725017
-0.048011418475449166
-0.051263898745465566
-0.05289039164924588
-0.05298903979548205
-0.05143012898685669
-0.048210672017220915
-0.043200314012369706
-0.03672263393656222
-0.028749722578821534
-0.01928483570679745
-0.008459798145804652
0.00448146473524428
0.02051324777571122
0.04179792569134458
0.07199306772888009
0.11835772487190206
0.1959487940041888
0.3374819479403625
0.6270627685051409
1.2375889841557381
2.023973418963594
1.6344435641344666
0.8486875010817981
0.4398881960936663
0.24438884049015216
0.1432850106553015
0.08679569622152417
0.05326830072970069
0.03336781651639712
0.02173870195742796
0.01520061203676755
0.012252223501676294
0.011483481275395741
0.012342097869681492
0.01366931741911253
0.014874676726652115
0.015548330003721089
0.015225526310104267
0.013919558697784174
0.011641375000386684
0.008444541095259382
0.004660230080648732
0.00035484829071737867
-0.003697879356798599
-0.00722720717425744
-0.009794460720382899
-0.010991834702301992
-0.01073084960194639
-0.008751900470481147
-0.005091447102215004
0.00041176715099769693
0.007738638768341042
0.01664253855288382
0.026989219889884647
0.03839766770531132
0.050109929625532325
0.06223388973112486
0.07475502745549865
0.08793132461925499
0.1013852712836209
0.11524779258669195
0.12928788692477988
0.14337496042442402
0.15761713523679086
0.1716353898303273
0.1856314993056693
0.19992078657368986
0.21488762377242515
0.23030945596422026
0.24636757041420526
0.2630024225286693
0.28011854886798426
0.2978651680329836
0.31569328436562877
0.33264370771357393
0.3479388930069959
0.3608678773564991
0.37028878993664266
0.3756123448002555
0.37684206610258086
0.37442829524287524
0.3702808405262112
0.36554424821335
0.3608219862877338
0.3572492018357251
0.3559991615992857
0.3576021274938509
0.3620802860657727
0.36900116934129534
0.37738534375092797
0.38643105019163165
0.3937676030712271
0.3966395362883159
0.3931096545129032
0.3822380723675559
0.3635311951763684
0.33751494233277884
0.306112863090529
0.2710012755661779
0.23564354221307346
0.20150114498171784
0.1684848909537295
0.13645476911031348
0.10561326436875354
0.07711682303581735
0.050315413655621984
0.02568200835895497
0.0026729075625122993
-0.018137708577372767
-0.03673208798792277
-0.053660394578219445
-0.06950400824882635
-0.08414648943647843
-0.09683011397291344
-0.10728007453403632
-0.11576564449382852
-0.12177833628930301
-0.1264566762625913
-0.1298354213621087
-0.13150622885640753
-0.13098757176706857
-0.12794857369600102
-0.12370279362799294
-0.11759026050203945
-0.11051770668380922
-0.10218901198424107
-0.0932782385406921
-0.08457789883936889
-0.07546990611821756
-0.06499635963744407
-0.053511400287215245
-0.042043133390260244
-0.03177530583122802
-0.022967534741827656
-0.01651798507681443
-0.013394915995788683
-0.01416861216512928
-0.01979564651889604
-0.03126801230721878
-0.04981920180715861
-0.0775665278784689
-0.11785073817778066
-0.17500555945328733
-0.2568254683860837
-0.3688423153525237
-0.5160932069835558
-0.6915487873731793
-0.84995571661927
-0.9042298773745895
-0.8194749236855504
-0.6621411773180544
-0.5108913635295874
-0.39501977756258916
-0.31149335914360493
-0.2520211857175431
-0.20902435137456168
-0.176832060602563
-0.15144095364616714
-0.12896909276003143
-0.10841088062171739
-0.08825496818568485
-0.0682510713462599
-0.04925938930828891
-0.031260543589676004
-0.01397720384915892
0.0027926006127723187
0.018518044721950615
0.032063317987371553
0.043484325273578234
0.05218773572633769
0.05832842874050429
0.06179380489782179
0.06276128655329656
0.061970629518731654
0.0599306122844462
0.056924306967453195
0.0532453865417102
0.04913995266843169
0.04510159234141387
0.041203731007692736
0.037543899957715184
0.0341430668812157
