# vtk DataFile Version 2.0
00001375.nii_L_ICA_labeled
ASCII
DATASET POLYDATA
POINTS 200 float
103.56666428818598 73.19535482490582 35.28407431106698
103.5031927090919 73.28186985259354 35.00397918460363
103.4222551513589 73.36010211987364 34.725957391033766
103.32422419404047 73.42933956995844 34.45106803081068
103.20981643848795 73.48902954443597 34.18030029565707
103.0797953513636 73.53864617241018 33.91459307932624
102.93497388482629 73.57767715178502 33.65483771981108
102.77619397428543 73.60558146002028 33.40189449821007
102.60456942838377 73.6219887626461 33.1564457643504
102.42120858150828 73.626476580015 32.91910939120825
102.227322930752 73.61863417029831 32.69037674507452
102.02418940989507 73.59798267284988 32.47064221701012
101.81328372029698 73.56415672975385 32.26005391023473
101.59615312648455 73.51677117749843 32.05860348047652
101.37441835170839 73.45542290176837 31.866132453101613
101.14977073082228 73.37962145867372 31.682384401215383
100.92401309065409 73.28904685080765 31.506871934324508
100.6989947696613 73.18337242973345 31.339020370202626
100.47663094603968 73.06229260781407 31.178182192233397
100.25895045799224 72.92546188089766 31.023695377923545
100.04796803920273 72.77287509819837 30.874785465761676
99.84576730194813 72.60453933452598 30.73075117315135
99.65446244329146 72.42063417194778 30.59093912632916
99.47617866678165 72.22153958406636 30.454775430438193
99.3129786843613 72.00790277549858 30.32178555346091
99.16667891761236 71.7807340653254 30.191599381826208
99.0388843002607 71.54128297006702 30.063978412115667
98.93086507528385 71.29105727560015 29.93878488368519
98.84350043457658 71.03176120898112 29.815952009920704
98.77724062824363 70.76521697627356 29.695450293101135
98.73210493171956 70.49327634104509 29.577250496742014
98.7077400599571 70.21773437851625 29.46128828328067
98.70352719776913 69.94027002311896 29.347433250086546
98.71847246040475 69.66241349013693 29.23544349691564
98.75152730892856 69.38550616604013 29.124980395437976
98.80158710828094 69.11072308895773 29.015597360511453
98.86766907376096 68.83913245748343 28.906736546067908
98.94857794636174 68.57164576364812 28.79771945162333
99.04327933977083 68.30910797105784 28.687775290245924
99.15093833434464 68.05239152124777 28.57601905769906
99.27056472596257 67.80226665241756 28.461519865610736
99.40132423268354 67.55955735371434 28.3432930046908
99.54251738818976 67.3252237572156 28.2202692432423
99.69325936989098 67.10012818822048 28.091468770052142
99.85279949533879 66.88533012389544 27.95586537474163
100.02033917899536 66.68200011806503 27.812463128241724
100.19492533848492 66.49125845224782 27.660440488530163
100.37557965455143 66.31440365506049 27.49901562601529
100.56120984611225 66.15289226202977 27.327483372853596
100.75051271793717 66.00803336304779 27.14543180787798
100.94206638425477 65.88127895323817 26.95256193242453
101.13427207252542 65.77408372979214 26.748794111936828
101.32534837027335 65.68790905524415 26.53428209520514
101.51335159688372 65.62406877668228 26.309503463976927
101.6962305666 65.58368092048934 26.075271638032955
101.8718680556532 65.567673841133 25.83272080925516
102.03817187210868 65.5766497211329 25.583332356177902
102.19319382085845 65.61079488516226 25.32890658334963
102.33525787458468 65.66982407562115 25.071489848266435
102.46306972187703 65.75297901061082 24.813263066246094
102.57577483095605 65.85909088478833 24.55641133715382
102.67296369574758 65.9866846138496 24.303006776797787
102.75463570764629 66.13409734913007 24.054924359396583
102.82111022656787 66.29962004004707 23.81381180474504
102.87297494450041 66.48155668455546 23.581078396720862
102.91110597026214 66.67818933070932 23.35782906276196
102.9364448865825 66.88798477485287 23.144975072952477
102.94997164194137 67.10957269623296 22.94327333997402
102.95270631462157 67.34170980087559 22.753338419722485
102.94579935572254 67.58317229159138 22.575516355410077
102.93035628364292 67.83290982021676 22.41008041236208
102.90746118475066 68.09001900400546 22.25727457595974
102.87838456031687 68.35354346019616 22.116954072601384
102.84437498919513 68.62268528053765 21.988933551500406
102.80673199316483 68.89675248513781 21.872933450114676
102.7668523286885 69.17510401858887 21.76844631223893
102.72618440494077 69.45718065708037 21.674808276593964
102.68621659573338 69.74251399429785 21.591270928490083
102.64849193830268 70.03070666950066 21.51701430402158
102.61453637948063 70.32136796132441 21.451017266766534
102.585821794753 70.61412427263606 21.392179180462133
102.56373999869335 70.90859026450472 21.33931211948419
102.54957783239003 71.20434445334426 21.291130760072797
102.54442510758238 71.50090392447511 21.2462117702648
102.54908611360361 71.79772429932791 21.203005693753273
102.56412769399932 72.09420887374961 21.15986886459081
102.58985048136876 72.38970831630881 21.115057427864723
102.62631212943515 72.68351635019764 21.066727185677333
102.67321192877364 72.97489874243367 21.013031488195484
102.73009245451037 73.2630589337525 20.952096249632046
102.7962936597606 73.54712369342849 20.8820407277915
102.87098012004034 73.8261044012148 20.800973580863484
102.95305900056555 74.09895421416297 20.707208323961122
103.04134220917756 74.36446871707986 20.59913543651696
103.1345010700161 74.62129998455335 20.475334832224164
103.23107835635633 74.86796273052377 20.334644528176117
103.32951250571767 75.10287762685235 20.17626059107166
103.42818630804527 75.32446362981398 19.999852247079737
103.52550632266123 75.53126854124952 19.805647296733795
103.62000479337591 75.72212064171835 19.594458900493635
103.7104440278808 75.89626705742228 19.367630980210603
103.79589552684213 76.05344323164054 19.126893732639157
103.87580647514451 76.19394101582787 18.874228350940864
103.9500122646948 76.31853726306741 18.611664733063648
104.0187165853864 76.42840558929167 18.341138193460335
104.08242249954218 76.5249719931437 18.064374726499807
104.14184492423286 76.60977350445279 17.78283523135878
104.19781138739991 76.68429712572139 17.497695193133328
104.25124191099545 76.7500367673402 17.209915790138997
104.30306002618543 76.80836460826059 16.920246390119768
104.35413863294946 76.8604354472131 16.62925371717295
104.40528136465242 76.90726629314645 16.337381742625123
104.45716446211412 76.94971085656815 16.04496924854774
104.51032874358013 76.98840367764582 15.752265965718331
104.56517194477604 77.02383500844027 15.459459278973654
104.62192867259743 77.05637236370818 15.166681258272703
104.68069961158956 77.08623685366929 14.874015645423823
104.74147097262701 77.113536985952 14.581508050398908
104.80412467592684 77.13833018201733 14.28917435459941
104.86850720218729 77.1606410075983 13.997016294358877
104.93448012825621 77.18049287876624 13.705035563671652
105.00195386849329 77.1979426415091 13.413244297871671
105.07092786882178 77.21309884730948 13.121675652991579
105.14150364447443 77.22616735877168 12.830389381387839
105.21390285547398 77.2374504966006 12.539476233510223
105.28846013810828 77.24735347772909 12.249058413889774
105.36559378976001 77.25638722032018 11.9592860182112
105.44578260915827 77.26515918527608 11.670336490956846
105.5295216355638 77.27436328992775 11.382409982867694
105.61727540234962 77.28475814905435 11.095723304373145
105.70947992502198 77.29715836325954 10.810518269027417
105.80651080308745 77.31241393488047 10.5270593499948
105.90870184157912 77.33141076451439 10.245648715709374
106.01626286189637 77.35498269533866 9.96659732817521
106.12935124516538 77.38392631648156 9.690251790118559
106.24807453180912 77.41897707596152 9.416995604579718
106.37251566322078 77.46080287332178 9.147260665160875
106.50270530414726 77.50992890979275 8.881501191162338
106.63863905022517 77.5667094935984 8.620181952962195
106.78033020839655 77.63137421275049 8.36380068524617
106.927808706389 77.70402501534319 8.112880225402838
107.08111817371515 77.7846374558011 7.867959035495203
107.2402606461506 77.87300217000615 7.6295199798879745
107.40526952068832 77.9688494436815 7.398061366170684
107.57617531506533 78.07183561208555 7.174067727748577
107.75301303001466 78.1815946061588 6.958036919159623
107.93570858965407 78.29765805924913 6.7503377089873045
108.12417347914698 78.41960409061193 6.551346475610321
108.31825405107064 78.54702976685381 6.361390257837223
108.51774699331574 78.67959200389305 6.180785515372982
108.72230765487609 78.81694435225035 6.009679125494862
108.9315201929355 78.95881101501332 5.848147682231128
109.14489555605265 79.10497166186218 5.696169587860848
109.36188988108536 79.25525259521135 5.553622876312258
109.58192619370696 79.40951214901376 5.420284102991864
109.80439972639063 79.56759016034871 5.295750066985794
110.02874600891154 79.7293429543646 5.179570759266783
110.25445373945244 79.89460535959277 5.071226759192147
110.48109614558773 80.06319245999772 4.970198949471093
110.70834019242878 80.23483608247705 4.875889678631909
110.93596884824596 80.40923062131725 4.787753155523824
111.16387234212165 80.5860307873172 4.70529878251882
111.39204395152395 80.76485865004675 4.628124469288942
111.62056673206523 80.9452855415309 4.555865690960117
111.84959054000821 81.12687031359911 4.488240634583089
112.07930267960911 81.30918174444008 4.425049098953917
112.30989887549487 81.49181618678527 4.366155277042862
112.54154913415309 81.67441242179828 4.311426704820764
112.77437453355944 81.8566745885281 4.260718636762321
113.0084341187547 82.0383883085577 4.213869549728311
113.24371040688047 82.21943329783174 4.170665450056445
113.4801040266487 82.39978968019715 4.130807408219646
113.71743182096513 82.57953999769819 4.093866607267949
113.95545742673728 82.75884475054417 4.059324038059491
114.19390126124392 82.93792742497607 4.026555853721897
114.43245326694034 83.11705607048174 3.9948410420833484
114.67078508331237 83.29651774692496 3.963354322227108
114.90856532107105 83.47659291225274 3.9312095373291025
115.14546718799461 83.65753180609467 3.8974739254517514
115.38116529637935 83.83954217532515 3.8611752474245704
115.61536262569217 84.02275391712887 3.8213841379377906
115.8477759356377 84.2072263382534 3.777208729922691
116.07814361364545 84.39293851339038 3.7278274567213616
116.30622899821772 84.57978791646775 3.6725053822178846
116.53184389073897 84.76758617262897 3.6106569109702336
116.75486589707855 84.95607226842726 3.541888263367859
116.97522712809341 85.14493656649798 3.465954270446528
117.19292713153537 85.33383556551539 3.3827746681366384
117.4080260771218 85.52240605490479 3.2923929113674344
117.62068059610039 85.7102854892395 3.195054168727497
117.83111611221209 85.89712698916341 3.091116595332026
118.03961855207379 86.08260459611675 2.9810198585049545
118.2465234677595 86.26640980546436 2.8652480400338263
118.45221783310228 86.44826082954022 2.744344958061804
118.65712347919786 86.62790694130453 2.618890473084873
118.86167929131875 86.8051055867947 2.489446223536751
119.06634463394684 86.97960580275884 2.356554291922123
119.2715916472232 87.15118485445264 2.2207866933753397
119.47789471235038 87.31961704632177 2.0826990946455854
119.685733476259 87.4846631536905 1.94283722176807
LINES 1 201
200 0 1 2 3 4 5 6 7 8 9 10 11 12 13 14 15 16 17 18 19 20 21 22 23 24 25 26 27 28 29 30 31 32 33 34 35 36 37 38 39 40 41 42 43 44 45 46 47 48 49 50 51 52 53 54 55 56 57 58 59 60 61 62 63 64 65 66 67 68 69 70 71 72 73 74 75 76 77 78 79 80 81 82 83 84 85 86 87 88 89 90 91 92 93 94 95 96 97 98 99 100 101 102 103 104 105 106 107 108 109 110 111 112 113 114 115 116 117 118 119 120 121 122 123 124 125 126 127 128 129 130 131 132 133 134 135 136 137 138 139 140 141 142 143 144 145 146 147 148 149 150 151 152 153 154 155 156 157 158 159 160 161 162 163 164 165 166 167 168 169 170 171 172 173 174 175 176 177 178 179 180 181 182 183 184 185 186 187 188 189 190 191 192 193 194 195 196 197 198 199

POINT_DATA 200
SCALARS curvature float
LOOKUP_TABLE default
0.21938637703408934
0.2187528891342869
0.21773619264181893
0.21644074840006106
0.21495172449480562
0.2132882594424725
0.21142382787456768
0.20934031626199523
0.20701328173412564
0.20437790706113385
0.20141909876950578
0.19820481618357827
0.19494286989730647
0.19195239153806185
0.18966270016303508
0.18850595252696087
0.1888124898326171
0.19087557034129937
0.19484982649781848
0.20074262715351626
0.2083154507470116
0.2171158697910864
0.22647472009900854
0.23551246493063158
0.24330787635592907
0.24902637322139692
0.25217477697341056
0.25250624648997416
0.24985592635035228
0.24430853658469787
0.23622754666026544
0.22622389276832047
0.2150295362012272
0.20339799403092845
0.19198157994641735
0.1812707016798769
0.17177057771275164
0.1639913604131906
0.15835276116041586
0.15521591729765963
0.15473101492367208
0.15691273416984022
0.16165298601882402
0.16863428996569296
0.1774556177408556
0.18769112908419508
0.1989564302420139
0.21103603412394661
0.22373135015999068
0.23676819498206084
0.24993406682003513
0.26300559857452144
0.2756870772999588
0.2875493418224536
0.2980727492999347
0.30655295992648024
0.31211645971055446
0.31409451026599206
0.31215185474300544
0.30656263395243216
0.29793398412662686
0.28703178355885434
0.2746282933621038
0.2614183411474965
0.24812973535672117
0.2353030061276457
0.22324163887526663
0.21202018596400712
0.20148110163453614
0.19135078538363628
0.18131151807001933
0.17108023282834373
0.16050542296126952
0.14967200082757687
0.13881227210967875
0.12826319864523064
0.11858402185796633
0.11051798399506357
0.10473418180171222
0.10164148024268042
0.10131008590803484
0.10331762494911424
0.10685557872901513
0.11120525261938607
0.11593564722578226
0.12098770063372946
0.12665890375438285
0.1335623475464351
0.1420475109989135
0.15222017592059056
0.16417387684908408
0.17777049909431922
0.19259889410941985
0.20808468499219035
0.22358369808323544
0.23804570677706266
0.2500534911312648
0.25824685941522113
0.26144166512801875
0.2589721546172183
0.2507614121265434
0.23730066962153387
0.21934403885991952
0.1979546455621762
0.17468467669383048
0.15095134681415434
0.12792789148330286
0.10649295343541554
0.08737081839532197
0.07126648086374934
0.05879608170093085
0.050163270109232966
0.044899931782633136
0.041995022981297724
0.040330488775176594
0.03902573334596313
0.03763297269475512
0.03608673168297378
0.03453407237439216
0.03308756248142657
0.03175629123435819
0.03050436677743533
0.029393029325528158
0.028732283198586773
0.029141844448651335
0.03126302001550578
0.035413716287239355
0.04138672002517359
0.048700863131995405
0.056876539108608626
0.06547885589590201
0.07417156932830081
0.08272500383769951
0.0909709827720273
0.09876078699133373
0.10589159481006255
0.11217362047421592
0.117503977924077
0.121862687482103
0.1253114620378584
0.1279582858757355
0.12993276920574925
0.13135141099951447
0.13233124581718742
0.13298701788124193
0.13337400601737567
0.13348871791854086
0.13324377819421027
0.1324974329962843
0.13106254990716298
0.12877043488334516
0.12550388708270482
0.1212676393432497
0.11616170095083432
0.11028543063645284
0.10376397899165865
0.09678564537073896
0.08956701559471938
0.08235731157574085
0.07534248690917673
0.06870020703854232
0.06265286210219519
0.05747155438385447
0.05340289900181748
0.05055505752383006
0.04877725733086238
0.04770523854461388
0.046834468627596396
0.04559120874279699
0.043432933135009046
0.039940191874631735
0.03491325090490494
0.02838009383391596
0.020542246785318203
0.011843345086856789
0.005229017109954172
0.011756396788572824
0.02249013705482054
0.03360176700853335
0.04445620124986639
0.05468792278764334
0.06396796004912511
0.0719369792593447
0.07827238000420231
0.08274283147387458
0.08531167329615551
0.08606668601322193
0.08509235367778509
0.08251980139839814
0.0786074136394971
0.07369800443633828
0.06820869730394431
0.062551848418276
0.05713558523204707
0.05232271292176512
0.048486975745172
0.046005449117186334
0.045152917842344445
0.04604017497836707
0.0486048781733353
SCALARS torsion float
LOOKUP_TABLE default
-0.05864321158351982
-0.062262684984773206
-0.06579922478955155
-0.06964258068750359
-0.07430507447808075
-0.0813450262862684
-0.09112133880947106
-0.10378806704272053
-0.12086138943904982
-0.14356572387553276
-0.17129064546640488
-0.2034733290325671
-0.23717009760498625
-0.2707518187740208
-0.30162242338599726
-0.32790409306365953
-0.3477359591386076
-0.3554102393801122
-0.3502815273426335
-0.3338462162484202
-0.30921093832434754
-0.2798122029555299
-0.24771302572415527
-0.21502968947225687
-0.18434297749926623
-0.15735074682985364
-0.1362379475375019
-0.1199741201419423
-0.10810658361450345
-0.10160588315410954
-0.10100804144482112
-0.10759326891392242
-0.12088555893156785
-0.14025243965106035
-0.1662129744154648
-0.19883597826348537
-0.23596560873803496
-0.27397938096214786
-0.3070641864922034
-0.3296296286082669
-0.33773979056305353
-0.3313653676301669
-0.3126949639819895
-0.28553745469183267
-0.25478346915581285
-0.224864258580177
-0.19815483981406376
-0.17547074610533875
-0.15620997875455953
-0.14003107889943092
-0.1260203864131246
-0.11344084640082545
-0.10100718639918188
-0.08851174217460388
-0.07569666986789536
-0.061733624548403435
-0.04645621136462124
-0.03005151302055894
-0.013276712336983597
0.0029587839181025905
0.01878648602800184
0.03452316133451221
0.05041805524725471
0.06615678639218879
0.08050400203616637
0.09369927377353594
0.10581680659721168
0.11772925553988962
0.13005251103430232
0.14401191928491316
0.16149857641484355
0.1856843662659357
0.21872203797785641
0.2629449144826738
0.320902538173614
0.39457191351828375
0.4806336913170311
0.5682108201402617
0.6381029998759904
0.6765782940699224
0.6778290154611878
0.6510063076134728
0.6160485642757616
0.587035623234309
0.5680227943327564
0.5562568902864399
0.5436349692766346
0.5224381651957577
0.49384984137572085
0.4589555256594619
0.41447147713609556
0.36578872480320856
0.31757136271688247
0.27398890750646965
0.23524034999063168
0.20047313698588104
0.16967808452018435
0.142088619684415
0.11778330565796657
0.0959153330233309
0.07595770633719522
0.05580049708099494
0.03249678591469266
0.005704310648677439
-0.026567173754799823
-0.06561609374063847
-0.1157739513614606
-0.18364202586183687
-0.27482351769180235
-0.38660283927964545
-0.49695994790702175
-0.5533049944609326
-0.5276117458780022
-0.42424792844369036
-0.2765776821526301
-0.12356010346643971
0.007791419079200373
0.09522174746253188
0.12040160884032917
0.08982636677486272
-0.0013813865575085515
-0.1572239229736989
-0.36631380872633823
-0.5974186750445974
-0.7686611699409959
-0.8105621717525365
-0.7238492733186681
-0.5916390818284373
-0.476483327482723
-0.38619299209762203
-0.317547655966644
-0.2621978824216867
-0.2157584114245549
-0.1751240100346076
-0.13725339302788986
-0.0999715888533484
-0.06305003759390054
-0.02616968867844932
0.0068111004460412
0.0359704305410235
0.06056683432658824
0.08077762349186687
0.09636589681394558
0.10419307411191052
0.10323435428083999
0.09517033433730211
0.08076697435776098
0.06112934939765909
0.036675639898697335
0.007683206971248862
-0.02182458802222767
-0.05037673306689277
-0.07475140148603673
-0.09466315073652606
-0.10986394146197359
-0.11719714235454784
-0.11262218853430325
-0.09340074857476703
-0.05695250522167724
-0.009286998489183294
0.052983071022717605
0.1336534899793375
0.21953954495624298
0.2923025893249192
0.3297258059586735
0.32457991257715535
0.289242859856295
0.23235312058660185
0.160893145106023
0.08892339559435809
0.017459759684960923
-0.05698272664140379
-0.1599507941175444
-0.378574745744097
-1.236790280718406
0.0
-1.4815460817849309
-0.46601593771042465
-0.251843305839082
-0.17681776486188494
-0.1431793992271336
-0.12672986815190682
-0.11951259807540478
-0.11672179682555178
-0.11730829946244951
-0.12105546493799386
-0.12821448799028665
-0.14002616231308188
-0.15742909191635668
-0.18162403299708813
-0.2146349790080363
-0.25798096462665715
-0.31347613385363404
-0.3815484711319854
-0.4601036036748573
-0.5396091111003684
-0.6014287686694822
-0.6268987526260511
-0.6065553836298809
-0.548927908428849
