# vtk DataFile Version 2.0
00002074.nii_R_ICA_labeled
ASCII
DATASET POLYDATA
POINTS 252 float
72.56150075055987 75.36596894726883 36.26865864798685
72.76553688768512 75.31820344067664 36.054014765259076
72.97658712316321 75.2629226928513 35.84813436816895
73.19382555888258 75.20032522329608 35.65096824902584
73.41658914538803 75.13043047208623 35.462613524245526
73.64406259848236 75.05347793572926 35.282830504460236
73.87554003828535 74.96957751603398 35.111460102218196
74.11023079800951 74.87905427353711 34.94800924795759
74.34748844225642 74.78201148432512 34.792178657534365
74.58661307298108 74.67880330848118 34.6433167186278
74.82702128950743 74.56961081526303 34.50092794225974
75.0681625110233 74.45467409806503 34.36441841147087
75.30954836054278 74.33427754154665 34.233144042210036
75.55074748176875 74.20855834498319 34.106598455556224
75.79139404224075 74.0778502340777 33.98411940328311
76.03117381409096 73.94235727557486 33.86518900120533
76.26983030926176 73.8023385406972 33.749278215824326
76.50718000755684 73.65811776861035 33.635861026569366
76.7430518418159 73.50992435775396 33.52449893537952
76.97738148790825 73.35816452401501 33.41469390951982
77.21009813689274 73.20314331247151 33.3060188108293
77.44120121967357 73.04526083086174 33.19802069659975
77.67069971359129 72.88489671026464 33.0902565393127
77.89862399278579 72.72245104556832 32.98226867445108
78.12501194370408 72.55832856685556 32.87358641365693
78.34988603060619 72.39292395756928 32.763711636775724
78.57324998841736 72.22662504450243 32.65212034845941
78.79507518106155 72.05980476879436 32.53826178846446
79.01526693070771 71.8928144529701 32.4215198375971
79.2337078663884 71.7259865108951 32.30130982666681
79.45014275798816 71.55964567097973 32.17687319496509
79.66431796188203 71.39408412235731 32.04758551687573
79.87582029753858 71.22960785002662 31.91264020448609
80.08416431436513 71.0665151631451 31.77126080150029
80.28876785970269 70.90510795659152 31.622673388153004
80.48883978979701 70.74574814653751 31.465935339314512
80.68359273349135 70.58876870677906 31.30035243385568
80.87187549606948 70.43464590150033 31.12490480820813
81.05263120701686 70.28380645605267 30.93900887154635
81.22439832045633 70.13685846225019 30.741825234325812
81.38575863429007 69.99440704505602 30.532913309149556
81.53518598235138 69.85712954371863 30.31201286296553
81.67094053153865 69.72582646754132 30.078994647035813
81.79157689236634 69.60119783734136 29.834298046467847
81.89579041735686 69.48389600533807 29.578684173804675
81.9825537220431 69.37444203234357 29.313258555482065
82.05125036438163 69.27313297468531 29.039435130498024
82.101608410949 69.18003099382229 28.758792461131648
82.13409957376716 69.09474794118589 28.473070909344777
82.14944685513171 69.01664227261548 28.18387562678346
82.14865147607509 68.94479496879735 27.892647557490076
82.13266094215656 68.8781230981285 27.600620339229877
82.10290064446868 68.81522743766627 27.308829793693928
82.06048597147715 68.75469759165026 27.01809954671483
82.00638060596792 68.6950361619051 26.72913251622262
81.94169987761002 68.63471931711273 26.44248219535858
81.8670621012278 68.57220566776846 26.158736031973945
81.7832772323798 68.50607591263757 25.87838451010941
81.69075717908315 68.43494138668979 25.602034523531685
81.58992808366993 68.35764676726605 25.330286744620555
81.48104815759017 68.27325380008773 25.063809989855585
81.36423365310107 68.18107725572209 24.803342801538243
81.23964580662538 68.08091384352494 24.5495119713746
81.10716911436158 67.97272859113292 24.303076883869807
80.96692189899792 67.85714465356465 24.06442268641146
80.81864688358887 67.73482215138856 23.834124961219533
80.66242960729743 67.60702562296188 23.612201011672678
80.49796577755386 67.47500914570739 23.398869645989148
80.32526685162937 67.34037933645914 23.19383954408521
80.14411975982172 67.20476107567592 22.996909118681714
79.95437931288767 67.06988865308725 22.807710438944916
79.75601198660372 66.9375102164649 22.62573744116025
79.54885458912923 66.80945727834266 22.45059344676921
79.3328610538466 66.68759965517984 22.28182515154082
79.10811850330187 66.57379115315007 22.118971829381106
78.87465737718827 66.47010070348601 21.9617324444911
78.6326462079199 66.3787448804155 21.809876807884585
78.38254325201946 66.30188104508296 21.663210058782525
78.12476238554964 66.24242280649264 21.521870466746574
77.86033360781761 66.20286287224475 21.385982763098262
77.59048851564306 66.18667186345837 21.256122160167635
77.31722111068822 66.19721972202125 21.133089738828225
77.04334310594918 66.23810752203686 21.018112951062186
76.77276030289764 66.31289745663955 20.91290891744624
76.51069468255564 66.42463187511692 20.819704217549475
76.26367276590271 66.57504333555595 20.74111826242329
76.03866948471544 66.76315580873654 20.6795879740688
75.84273269789747 66.98591673702902 20.637403590516424
75.68051551175935 67.2369217357845 20.615420378367517
75.55463988189825 67.50891309419521 20.613677530211593
75.4643780596538 67.79424645274382 20.630821096875373
75.40745741237276 68.08660435071023 20.66514071805252
75.38041379033778 68.38110905706901 20.714674943350808
75.37931667167594 68.67434843133496 20.77748948795297
75.4002798579406 68.96414769509101 20.851837388497874
75.43980889785949 69.24923579924187 20.936259919476832
75.49490896694479 69.5289213198855 21.0296092860715
75.56261280290806 69.80309202700722 21.13074043171527
75.6404510315341 70.07190459225549 21.238759140704516
75.72627105504945 70.33570518854638 21.352932100659736
75.81793480153424 70.59514598332873 21.472440548440414
75.9135959650893 70.85094512574004 21.59658651341599
76.01152840646097 71.10393225931796 21.724668507888623
76.11008937818124 71.35501389467268 21.855980802927707
76.20769575773015 71.60520773173585 21.98967971930819
76.30284493980284 71.85554028420417 22.12488023742164
76.39406183545232 72.10706151199767 22.26058000643658
76.47985216973379 72.36084112726937 22.395605372547973
76.55892307970268 72.6178304436685 22.528637425638195
76.6298919625247 72.87895434000289 22.658126886487423
76.69159539487 73.14492342704487 22.78238051640354
76.74295128604417 73.41626229332563 22.89950740689331
76.7831388630761 73.693186110416 23.007558659948238
76.81140806495195 73.97566945966207 23.10438612569613
76.82752842650626 74.2632346905801 23.18813083934107
76.83127993805856 74.55518892246518 23.256780525522885
76.82284151659414 74.85048161044759 23.308648435354897
76.80270333332453 75.1478195927176 23.34243201348877
76.77140436074069 75.44575996065105 23.356879638099063
76.72971703758509 75.74271640035865 23.351131684824953
76.67861411488052 76.03707891248781 23.324819661820417
76.61897289912957 76.32717272745064 23.27746214651455
76.55180718054808 76.61134100486494 23.208985788447798
76.47817682077792 76.88801010999981 23.119622759993984
76.39901230994556 77.15541084394955 23.00924791998121
76.31541552509182 77.4120310913199 22.87845455063288
76.22840937678514 77.65622655653655 22.72762668795548
76.13904460832312 77.88624287801271 22.55717261350642
76.04844273775238 78.10067111772614 22.368075242998376
75.95772186981374 78.29784504817236 22.16109933754575
75.86804757724613 78.4763592412175 21.93741404772629
75.78056582960355 78.63515573014381 21.698511065357447
75.6964379548867 78.7731387305113 21.44586526879721
75.61675413334969 78.88973379063479 21.18128615374132
75.54246102686606 78.98490139537306 20.906745994368013
75.47445466073162 79.05869532812459 20.62410928493519
75.41343743818719 79.11174140119076 20.3352853954422
75.35987430397043 79.14517294482589 20.04207039009838
75.3142454800983 79.15996253673998 19.745985472619868
75.2766600288317 79.15781869289805 19.448406705405606
75.24724885672384 79.1402340446315 19.150411086253953
75.22596970239273 79.1089137970222 18.852845105363574
75.21270259473036 79.0655515713395 18.55632030621505
75.20727613957558 79.01179421480532 18.261249153152736
75.20946754158358 78.94922788752245 17.967872705300312
75.21898120446446 78.87938767055273 17.676285435787207
75.23557441969724 78.80363188795401 17.38649426837232
75.25882807270449 78.72332909489649 17.09838767589921
75.28849258958644 78.63960502318632 16.811845930688584
75.32403489171456 78.55359455878276 16.526651812516565
75.36512272656205 78.46620942368976 16.242621713860736
75.41114288327752 78.3782908779248 15.959513113824638
75.4616210993055 78.29051905429692 15.677118832306425
75.51586999621775 78.20343404733774 15.395210833152564
75.57328221882172 78.11746307328195 15.113586945391653
75.63309056672273 78.03286387954306 14.832045857597983
75.69458956346905 77.94983762924382 14.5504004180552
75.75697501723123 77.86842238135111 14.268479611892142
75.81947578263932 77.78864483657102 13.986116472367067
75.8813120080142 77.71044431505359 13.703166645029706
75.9417267162361 77.63376824002447 13.419493741222494
75.99998541970551 77.55857861280145 13.134973758276265
76.05544346523136 77.48486157285075 12.849510821042642
76.1074204167108 77.41272020762297 12.562992942572425
76.15543140850886 77.34228793122328 12.27536084937867
76.19893854779917 77.27385356170909 11.986533190168636
76.23754641548814 77.20777497269351 11.696464262568734
76.27090318268748 77.14451029876825 11.405120138053462
76.2986487975215 77.08463880896153 11.112474692219592
76.32059694434683 77.02871923750835 10.818558882597607
76.33638619315384 76.97749983498073 10.523395002035079
76.34590468936017 76.93157111519622 10.227095613161234
76.34885012880333 76.8916739029716 9.92978746080838
76.3450333860194 76.85841037744825 9.631676167742965
76.33421130919244 76.8323527241702 9.333021533078558
76.31607903288014 76.81403341565337 9.034148372728483
76.2904408410272 76.80373916441216 8.735441502934497
76.25686024856095 76.80187541367398 8.437352462053276
76.21517423252266 76.80842199932715 8.140356026836063
76.16489826723058 76.82356146714598 7.84500861406474
76.10582805780936 76.84707858180901 7.551847108090081
76.03752870524406 76.87888687069368 7.26148661749331
75.9597284445947 76.91868065205414 6.974522470600036
75.87209617699668 76.96617308575848 6.691591788749788
75.7743245111874 77.02104889005875 6.413359709893658
75.66623960470982 77.08292885867864 6.14046387828301
75.5475379949934 77.1515729518387 5.8736670297337
75.41827304159446 77.22659669683335 5.6135813884111165
75.27818225357072 77.30789650760057 5.361100295628951
75.12754230549346 77.39515573473538 5.116818096812077
74.9663620321511 77.48831642361282 4.881611526087518
74.79498059857654 77.58724002408493 4.656175886219944
74.61379150089682 77.69185373640427 4.441220973230511
74.42319011539496 77.80217225487468 4.237556284555462
74.22389852651898 77.91807611770156 4.0456523248163725
74.01649387107983 78.03958215032787 3.8662140152738345
73.80178321373836 78.16657562446115 3.6996316160715703
73.58059909402722 78.2989100143618 3.546189493289538
73.35368408739545 78.43650403682923 3.4063421457029976
73.1219772553123 78.57905761984242 3.279969573780482
72.8862682514908 78.7263601473369 3.167166363995355
72.64735868136034 78.87813551185432 3.067826957372328
72.40603237159033 79.0340335486663 2.9815648911699677
72.1629585086311 79.19380827324503 2.908269379196674
71.91880644504093 79.35707549229866 2.847283066415148
71.67413588363542 79.5235655497352 2.798244354819194
71.42945205540482 79.69297135766901 2.760564185414166
71.18518181741746 79.86501115814725 2.733653411898802
70.94168841835301 80.03943637363666 2.7169924745711205
70.69924703654198 80.21596850449266 2.7098781393039157
70.45809236668396 80.39438784966585 2.7118536548006755
70.21834828697433 80.57441603402987 2.722176395806809
69.98012726057445 80.75583276029649 2.7404377699100113
69.7434126562832 80.93835199508565 2.765901682155203
69.5081924761162 81.12172868602377 2.798161393363122
69.27433563736086 81.30567414019613 2.8365260490097572
69.04171468599851 81.48992075916868 2.8805500694467523
68.81011749760412 81.67419204529804 2.929588258415291
68.57933072430599 81.85822432511004 2.983141993161883
68.34909748275336 82.04177621902801 3.0405888224981004
68.11916188897523 82.2246258001424 3.101373659003494
67.88926097918755 82.40659362405694 3.1648770021093964
67.65914383139 82.5875372937557 3.2304902100382766
67.4285775549898 82.76736505268006 3.2975789991511766
67.19736241923222 82.94604692003709 3.3654919311265488
66.96532699562145 83.1236007348204 3.43356561006778
66.73235796610592 83.30012442164048 3.501127359311909
66.49836606587581 83.4757524033249 3.567476734571825
66.26334305124126 83.65070005183169 3.6319512087404195
66.02729240240252 83.82520752622246 3.6938090762463944
65.7903091644886 83.99957020586285 3.7524213296498976
65.55249785953585 84.17410251351151 3.807034467672135
65.31403791032191 84.3491290804916 3.8570374068410906
65.07513241058703 84.52498575617572 3.9017110475940364
64.836034616788 84.70198499976415 3.940438686598562
64.59702859399663 84.88041887640223 3.9725808362648105
64.35843454688568 85.06054935768097 3.9974915819890167
64.12058966660604 85.24256345139506 4.01465778944546
63.88388073902361 85.42664462740024 4.023375680157839
63.64867484884012 85.61284381780732 4.023262154471536
63.41540705428165 85.80121905321107 4.013667723186897
63.18448449194666 85.9917087556561 3.994218091614845
62.95635668273837 86.18422024255985 3.9644473015670316
62.731493240694334 86.37859907157643 3.9239333459829404
62.51032695590183 86.5746153897249 3.872447855016773
62.2933927305357 86.77202606548204 3.8095564282537007
62.081083617939846 86.9705025548344 3.7352712483935737
61.8739735401698 87.16972107318335 3.6492297252517507
61.672409450708834 87.36930086131196 3.551633441720519
61.476923360013366 87.56885850878727 3.4423318525497133
61.28784813084046 87.7679980192574 3.3215906786059954
61.1055191213623 87.96632988682 3.18965915142549
LINES 1 253
252 0 1 2 3 4 5 6 7 8 9 10 11 12 13 14 15 16 17 18 19 20 21 22 23 24 25 26 27 28 29 30 31 32 33 34 35 36 37 38 39 40 41 42 43 44 45 46 47 48 49 50 51 52 53 54 55 56 57 58 59 60 61 62 63 64 65 66 67 68 69 70 71 72 73 74 75 76 77 78 79 80 81 82 83 84 85 86 87 88 89 90 91 92 93 94 95 96 97 98 99 100 101 102 103 104 105 106 107 108 109 110 111 112 113 114 115 116 117 118 119 120 121 122 123 124 125 126 127 128 129 130 131 132 133 134 135 136 137 138 139 140 141 142 143 144 145 146 147 148 149 150 151 152 153 154 155 156 157 158 159 160 161 162 163 164 165 166 167 168 169 170 171 172 173 174 175 176 177 178 179 180 181 182 183 184 185 186 187 188 189 190 191 192 193 194 195 196 197 198 199 200 201 202 203 204 205 206 207 208 209 210 211 212 213 214 215 216 217 218 219 220 221 222 223 224 225 226 227 228 229 230 231 232 233 234 235 236 237 238 239 240 241 242 243 244 245 246 247 248 249 250 251

POINT_DATA 252
SCALARS curvature float
LOOKUP_TABLE default
0.1580602557362743
0.15404926194384014
0.1490517893715588
0.14319401346689964
0.1366060074562784
0.1294561612437522
0.12192110006079383
0.11418938649642399
0.10644520067638384
0.09886040225071031
0.09157500216314592
0.08469169510849114
0.07826816108235621
0.07232894934168282
0.06683283651126945
0.06170077194361286
0.056835932367854974
0.05214287278960067
0.047561050460793716
0.043089911083037405
0.038809258063363945
0.03489784552212134
0.0316537559156213
0.029488641827859364
0.028854724270852703
0.03007943108748822
0.033197616627751614
0.03801576340964459
0.044287866833217865
0.05181843673005198
0.060524974493254606
0.07033436918944232
0.08125159548522783
0.09327845020418439
0.10641419761057921
0.120620395584422
0.1357874021627807
0.15174132383586053
0.16815962545972155
0.184573447310789
0.20031039720100144
0.21460652874815547
0.22659162378329503
0.23534778533616438
0.23999767829790025
0.23992524924072123
0.23497551278134393
0.22542491313942753
0.21213556148627646
0.19618138264736462
0.17884754562310573
0.16144534904586097
0.14532166765730484
0.13177027382955017
0.12200636101587535
0.11680062395393317
0.11636067281175276
0.1198749162049697
0.12600533021675625
0.13317345107786666
0.13999711718271812
0.14540100476451379
0.14873556435359186
0.14972688454283084
0.14852461849936788
0.14545551764060718
0.14117334670922413
0.13652585833555392
0.13247133214088003
0.1299504537272414
0.12979446338906622
0.1326025629385215
0.13880847919242278
0.1485651518639382
0.16188171981118601
0.17879260143118095
0.19936229877099226
0.22366267450176047
0.25201326795381324
0.28462810748698913
0.32172647354026235
0.3630642141655228
0.4075880023086735
0.45313414488054643
0.4956148707129044
0.5290126177477127
0.5467846940536294
0.5441247004085703
0.5213309108429754
0.4832047920606839
0.4366267294309188
0.3874611193602036
0.3396648594813852
0.2953567037399508
0.2551414175668222
0.21880502845378724
0.18592549397697086
0.15603323897852558
0.1286879966146437
0.10354206848245226
0.08039351636246
0.059513941792331326
0.042385000423064895
0.03372469385105099
0.038813704294248755
0.05377325556429089
0.07276300254900014
0.09327228995432126
0.11430801894128784
0.1353003694345452
0.15574650064538423
0.17513489024839363
0.1929728116209617
0.20881963995807282
0.2223660428862475
0.23339772553820917
0.24189850881297983
0.24803954758873037
0.25213345848690394
0.2547037444473011
0.25632651022027353
0.2575255819018854
0.2587375910004025
0.26031907500764795
0.26252650806708283
0.26539563666489857
0.268773327053911
0.27235251200639016
0.27571410117080053
0.2783203588672597
0.279637998984487
0.279142850264544
0.27638953308336855
0.2710658647066553
0.26317422968242843
0.2529142334417767
0.2405791219752024
0.22649968018184363
0.2110870882960429
0.19488853515241936
0.17838020585703798
0.16199638652871662
0.14609504053975128
0.13097525840535817
0.11687047472359384
0.10391956979798118
0.09223413408363151
0.08183377463518716
0.07268389081239755
0.06460758596008363
0.05740462897636698
0.05079748349542223
0.04453251609763308
0.03840671300904926
0.03239437434766468
0.02672321364014858
0.022081225073352407
0.019680721777773316
0.020702214961536687
0.024768240116577002
0.030559784787206966
0.03702713878739269
0.0435924626113864
0.04998083841269449
0.05612127178969355
0.06206383691131699
0.06793379060040029
0.07386568102884389
0.07996842482918035
0.08628329165076484
0.09277980811825086
0.09935366166420545
0.10584644438677049
0.11207644468820044
0.11787273619389893
0.12309556172024562
0.12770288074865643
0.1316890672563569
0.13512727367501232
0.13811006409863674
0.14078898076797
0.14332241489877276
0.14586277139701423
0.148534200046064
0.15140226209208005
0.15446230854156728
0.15766372757795913
0.1609266985306468
0.1641536395791912
0.16721988028641413
0.16998637663310773
0.17233453474419316
0.17415552162152642
0.17534615379164709
0.1758354052915827
0.17553755171935648
0.17439892294077142
0.1723829276807326
0.16949546295674595
0.1657924323721491
0.16130791217134238
0.15609156621382014
0.15026751391863813
0.1439768897004228
0.13737163288681267
0.1305795242745908
0.12371084436157713
0.11685065543374225
0.11005570220437817
0.10334327620692012
0.09671643823598565
0.0901483188695798
0.08360837706527331
0.07706514718718294
0.0705002125389816
0.06391284036118745
0.057318153074643524
0.05075195399499257
0.04427032023824585
0.03794385200828161
0.031872141537301404
0.026202765817080767
0.021204119786908636
0.017389583756840767
0.015626784560300335
0.016655570376531505
0.020149008831250044
0.025256225770289457
0.03131319333476787
0.03799285025868268
0.04508039934313793
0.05244351278727775
0.05996264466065011
0.06753803204150231
0.07506818292751084
0.0824692779326687
0.08966536235894394
0.0965992099436529
0.10322255539513892
0.10951198220873622
0.11545435350682344
0.12104327361138989
0.12626123644081894
0.1310872480841848
0.1355063386181924
0.1394895987730164
0.14301054301698618
0.14602025015158607
0.14848814281405578
0.15036654779747138
0.15163543370463314
0.152283114292542
SCALARS torsion float
LOOKUP_TABLE default
0.05306471113178309
0.06044554746887405
0.06901518209663396
0.0789527175946702
0.09053231778962396
0.1039110546336391
0.11912499630264535
0.1361576832109482
0.1543209192126199
0.17314225391685115
0.1919059390197498
0.20963569811333313
0.22481577548299453
0.23585503620619455
0.24343025326508436
0.24863300457631593
0.2539860511409133
0.2636421809801859
0.282444337002689
0.3178819239415268
0.3765038409459313
0.46348378629011616
0.5745766835214043
0.6827126584913642
0.7335452825209632
0.6828580674142443
0.5517161961596975
0.3988428876518972
0.2653841867739139
0.16313237815197706
0.09143871567205417
0.0421862128734112
0.009514273808196076
-0.012031544086874702
-0.025656629085021036
-0.033859417915326775
-0.03837769577225463
-0.040096970122042025
-0.04021492328753219
-0.03948100950525043
-0.03847082423727136
-0.03801846586758058
-0.03838651306527335
-0.04067856560604516
-0.045431858191488324
-0.054017439606368185
-0.06758971750194075
-0.08766519513389831
-0.11629249837087012
-0.15544710442537935
-0.20797507433709925
-0.2752932801968295
-0.35508231665510936
-0.4397803252875847
-0.5092677801099488
-0.5366609540763554
-0.502250479195526
-0.4175480615928873
-0.3105508741896113
-0.2017633589642754
-0.10343457060517935
-0.015603871245733932
0.06257530530963895
0.13360008976337784
0.20168158602343159
0.2693525841435686
0.3374903260828155
0.40043412562539155
0.4543532558035999
0.4916667031485584
0.5058063890824743
0.4934823517539027
0.457226973349787
0.40615371393748967
0.3500721099944682
0.2959629460220577
0.24730400868164432
0.20539968964948718
0.17019448167088472
0.1403899352641004
0.11496906780593429
0.09264587789632217
0.07270737067083871
0.054537028087059125
0.03724883640514089
0.02034936270787712
0.0037387097169990207
-0.012435620060261656
-0.0271377474431689
-0.040225414862488866
-0.051769208376849125
-0.0625293384118592
-0.07312342539505957
-0.08443543686378739
-0.09745662942066105
-0.11375001382327908
-0.13514345087655244
-0.16466819777757713
-0.20903459773785976
-0.28209699206021693
-0.41498793124904915
-0.6867649609057365
-1.261367391340773
-1.9406820847481452
-1.4995552113165191
-0.8358833123593624
-0.5105323882143357
-0.36175464644218025
-0.28547249843867806
-0.24328672921620695
-0.21743366510774373
-0.20034248292159615
-0.18747860372166358
-0.176379101792576
-0.16625513979563528
-0.15651660446431004
-0.14688553433294
-0.13732843326622332
-0.1279375896514547
-0.11912623402441919
-0.11072002287765682
-0.10313854642619398
-0.09628295623612533
-0.09042064519059421
-0.08544823864861234
-0.0812925103385621
-0.07801600200180696
-0.07564479957580773
-0.0742426492083133
-0.07376253956926555
-0.07413784964879612
-0.07535632235772148
-0.0773178533494389
-0.08022348734356335
-0.0841846428797628
-0.08932212473109048
-0.09593203608105415
-0.10445955486725303
-0.11529067382367021
-0.12880008776975133
-0.14550682046451704
-0.16593254435493457
-0.19029352719680256
-0.21845039093739602
-0.2505037255791299
-0.2868165247572394
-0.3256430891920255
-0.36354145504127083
-0.39595510192432004
-0.4229919995241907
-0.44347270304596886
-0.4622657186341239
-0.48852378254396417
-0.5382183765684841
-0.6433038185704834
-0.8428937889882795
-1.1666332956661603
-1.438482320250985
-1.28631809738183
-0.8667735067976987
-0.5149988346749238
-0.27944461285079597
-0.1232072845170762
-0.014313184240986973
0.0640867486870415
0.11741370890864768
0.15234731786217842
0.1695111025142138
0.17257621674522294
0.162752629503464
0.14333407213521204
0.11717880339262092
0.08641071967453112
0.05428510658537294
0.02190968320189317
-0.008837715873122558
-0.0364546943648825
-0.06128243876663162
-0.08258999721673728
-0.10043881926274753
-0.1128993404576108
-0.1198338546897661
-0.12015411948076599
-0.11375344476172926
-0.10140702986635329
-0.08379735180606575
-0.06314145471459359
-0.0416264534512277
-0.019805681631800937
0.0011919726059974154
0.021001897508424544
0.037522561024190756
0.05076673254013139
0.05999003495139806
0.0652690269834134
0.06729220778868698
0.06637664722641108
0.06381317391657694
0.06048366789253902
0.056765580770180936
0.053253250122749625
0.050164814887994194
0.04808977572570307
0.04687677692638015
0.04577089706426583
0.04444092269081059
0.04181800100446931
0.037234394837782674
0.030214260918808116
0.020164412001727066
0.006430924732079046
-0.011692169494753735
-0.0347289233553552
-0.061759510472410434
-0.09396744189900885
-0.1308528492086321
-0.1743510149293024
-0.22619118430320617
-0.29056814294315214
-0.37542490197317396
-0.4952071823278611
-0.6751919774109084
-0.9536538988066955
-1.3399298986050947
-1.6298647276044398
-1.4798565608700782
-1.0870200434733046
-0.7683401892164281
-0.5598451924420125
-0.4252670692831319
-0.3332685413260732
-0.2671103912970253
-0.21640236454880563
-0.17531033337464522
-0.1409707040054506
-0.11198861402204265
-0.08688717096809352
-0.06580231374382466
-0.047791693966954076
-0.03330700800999844
-0.02186876380684791
-0.012958126060117425
-0.006187181141391174
-0.001330834366107755
0.001764683157761669
0.00348394553707479
0.004331738542892349
0.004503507613578635
0.004404350121961682
0.004123075330825489
0.00380763617162152
0.00350387073766546
