# vtk DataFile Version 2.0
00004446.nii_R_ICA_labeled
ASCII
DATASET POLYDATA
POINTS 210 float
75.1015997058152 67.67308975537149 30.685482488249406
75.24047557102453 67.86569854038082 30.502230246813344
75.39562326576025 68.05452495342098 30.328320473681746
75.56540820993432 68.23841275289173 30.162994382058884
75.7486219012058 68.41629566518522 30.0056176938624
75.94432452698574 68.58713263633034 29.85563975008743
76.15164970774028 68.7499500456562 29.71251327132259
76.37000364371366 68.90363951851117 29.57583878713084
76.59890800001718 69.04695062316345 29.445292433059787
76.83778830300123 69.17864782870792 29.320522967355018
77.0861607437347 69.29724543914084 29.20127781021865
77.34350470630075 69.40099836028752 29.087348794378556
77.60897832529862 69.48832067573213 28.978420777524946
77.88169915616317 69.55713903646088 28.874258938094844
78.1603000609555 69.60585815065225 28.77442647978965
78.44321038026133 69.63247994764784 28.678470566866118
78.72838292267505 69.63588982159116 28.58565760338086
79.0135493045974 69.61518441624831 28.495098472228904
79.2962175447559 69.56990412839183 28.405670409983575
79.57391664761083 69.50067160547259 28.31601741041239
79.84430173616022 69.40852007559138 28.22463776008402
80.1052149134231 69.29491599269315 28.129915391721696
80.35478373963379 69.16176405919272 28.030211517081593
80.59149393008994 69.01128623115274 27.924001257139057
80.81398259106597 68.84566181735106 27.809870387230966
81.02104959052237 68.66709382995107 27.686601375846028
81.21190431339005 68.47789912328304 27.553415665101095
81.38571885001099 68.28013218875935 27.40976035896029
81.5420384094999 68.07579817082429 27.255578020730557
81.68066533637582 67.86668238158582 27.091211759055646
81.80148531609422 67.65429007069406 26.917265275061922
81.9049055486669 67.43989008408569 26.734767530755644
81.99122368851351 67.22442077203479 26.544783637659595
82.06115551233341 67.0085635403071 26.34859529078679
82.11532707329435 66.79274982031079 26.147429376579534
82.15436786848745 66.57721940382665 25.94248379017326
82.17902429807515 66.36206539948316 25.734919217035994
82.18972999090488 66.14730037992085 25.52576556292216
82.18695183121848 65.93290099840608 25.315980694292954
82.17103438709147 65.71886045066863 25.106413396802587
82.14199877150922 65.50523696466702 24.89782956271316
82.09992718847599 65.2921792505227 24.690897140497725
82.04472735985921 65.07996284443271 24.486198621389534
81.9760832877903 64.86902887797652 24.28426220586597
81.89394484325632 64.65994967725031 24.085461082233067
81.79791247110883 64.45351921867989 23.890150893514424
81.68811012701907 64.25060235662735 23.69844994361402
81.5644224822804 64.052295480356 23.510416572425516
81.42734545971688 63.85965401768845 23.325809833441113
81.27739019330232 63.67385188286762 23.144226628936845
81.11552928519636 63.49594083865188 22.964975679106555
80.94297948442048 63.32687401786786 22.78713615775755
80.76115176375394 63.167521321476976 22.609568049608054
80.57175278221452 63.018471422292635 22.430967057428155
80.37648913400183 62.88037633201126 22.249891860098966
80.17726732098102 62.753568657200894 22.064915192778653
79.97595695454885 62.63858805555151 21.87455250784488
79.77450377745535 62.535751423293384 21.677516421419277
79.57486581686538 62.445619347607305 21.472578431599086
79.378995641 62.36869058554683 21.258822441827345
79.18885064905773 62.30563515125557 21.035575486207385
79.00635567158545 62.25720733966242 20.802517470596293
78.83334541162314 62.22419205832767 20.55974558178626
78.67161590437108 62.2075118836637 20.30771045604951
78.52276431188065 62.20798149705235 20.04733690224069
78.38830475206221 62.22645776233236 19.779891128670744
78.26955356280867 62.26364274981296 19.507019684211084
78.16760534675738 62.320023218640785 19.230669875452016
78.0835308629871 62.39604061947106 18.953017696096165
78.01791646579794 62.49154840733218 18.67641391940498
77.97155580396831 62.606507624921875 18.403337958122794
77.94460932477065 62.740101790992206 18.13620674818542
77.93732685497076 62.891466617040564 17.877421812761906
77.9496708789644 63.059329820460476 17.629222295962776
77.98126113413133 63.24204194614074 17.393521196266995
78.03182958131951 63.437967508199876 17.172173844554873
78.10046120201474 63.64502525868644 16.96636253947966
78.18654953496625 63.86137855982551 16.777351587225773
78.28887050053987 64.0849674797021 16.605634313852303
78.40652150198778 64.31403000591492 16.451878110924152
78.53809724976244 64.54681088472233 16.31602131879147
78.68252069698329 64.78185842165277 16.19831652319722
78.83831174403396 65.01787554006917 16.098378193338643
79.00420965950805 65.25383175988587 16.016107381090244
79.17880675609456 65.48891968949867 15.951160484196537
79.36068826340313 65.72256096428434 15.903176266962237
79.54848778198723 65.95436290602474 15.87198105460839
79.7407013142953 66.18416057087984 15.857050171428405
79.9359048219193 66.4119148264377 15.858221023668417
80.13258261440286 66.63778645355558 15.874925923203616
80.32923859890042 66.86204606506763 15.90678051918485
80.524369401372 67.08511061136615 15.953129713676207
80.71648475061585 67.30750574526739 16.01325744428284
80.90413982212432 67.52986017047701 16.08625430684496
81.0859572874517 67.7528838886678 16.171037079914154
81.26062695432765 67.97734782003987 16.266391506999778
81.42696672264682 68.20404647323487 16.37091460180693
81.58381904918244 68.43379381315609 16.483162940839616
81.73023271777744 68.6673291772418 16.601526844783983
81.86512883721565 68.90539756286671 16.72445424544556
81.9877522398785 69.14853773029319 16.850269312203103
82.09711977976828 69.39726837455741 16.97736370437774
82.1924828849514 69.65186770734564 17.1041059943244
82.2731016107204 69.91244628614827 17.228910661249422
82.33802826766748 70.17901005875616 17.350163402729653
82.38671284268095 70.45121867431875 17.466362760962696
82.41842062744554 70.72860574651833 17.575992822133898
82.43232520765304 71.0105100739546 17.6774851322634
82.42797546551989 71.29596665876099 17.769437027785116
82.40469405597766 71.58384561439439 17.850304577900385
82.36192573977372 71.8727521026701 17.918530828638417
82.29941970854766 72.16103972108777 17.972658538389144
82.21667875221361 72.44675590999857 18.010880506434823
82.11395495420709 72.72772837201428 18.03175977851167
81.99134903534383 73.00139338445692 18.033439799948823
81.84977223038186 73.26504783315208 18.014454938273133
81.69057805274977 73.51582060364966 17.973414140403303
81.5156609508972 73.75070961697637 17.909056534644147
81.32774546794438 73.96704169977632 17.820779109121762
81.13009844808182 74.16258129028739 17.70851875405911
80.926362046572 74.33572130486041 17.572798510061318
80.72032156231114 74.48567348453676 17.414758851549085
80.51564946133925 74.61236582418542 17.23592604840477
80.31563078311456 74.71675093883728 17.038379478492683
80.12297564504709 74.80035955507867 16.824295778454115
79.93986103199431 74.86502553590779 16.595744111373932
79.76775875459464 74.91307936501907 16.35485457372032
79.60760309934253 74.94690442520042 16.10351731899843
79.45983684845294 74.96891492555588 15.843417581704177
79.32450955242528 74.98145994466599 15.576011255461475
79.20123553616216 74.98684590243971 15.30259454409743
79.08958745578686 74.9871295693208 15.024168804864319
78.98868228602508 74.9843327876957 14.741681045788283
78.89759347305744 74.9802553031972 14.455887420645835
78.81538296850216 74.97655784339452 14.167406199521125
78.74082345728272 74.974723602123 13.876833970005656
78.67274755843299 74.97604670696424 13.584670350535136
78.6099826816942 74.98166408577306 13.291369919537646
78.55126371855188 74.99240301104044 12.997374916167468
78.49545719032936 75.00896171935187 12.703082859463217
78.44144905709587 75.03170397825174 12.40886815277872
78.38825119711413 75.06081062901265 12.115066812247589
78.33499187177758 75.09620593166522 11.821967466758537
78.2809344830821 75.13761785366681 11.529803661118605
78.22547425693612 75.18461482326366 11.238749301953007
78.16812681850513 75.23663967323722 10.948917941766924
78.10851121371026 75.29306683659111 10.660370084090546
78.04633363146739 75.35323161662897 10.373120437264427
77.98135471195663 75.41648201509838 10.087156116445385
77.91336845751273 75.4822014573651 9.802450250371146
77.84215697462812 75.54985015868438 9.51898730682671
77.76750017517867 75.61896077934574 9.236766298579294
77.6891014365862 75.6891733653188 8.95583516794211
77.60666755085828 75.76020875250178 8.676269663065009
77.51977146609698 75.83189654953215 8.39822680409394
77.42804753621036 75.90413464951695 8.121883042391339
77.33095957457827 75.97691013051063 7.847520854078429
77.22810382142144 76.05025939644914 7.575423649545708
77.11893667388617 76.1242907912765 7.3059844744645135
77.00305364742057 76.1991480223553 7.039596923322821
76.88001190688907 76.27502373676164 6.77673269467295
76.74948192037984 76.35213595040625 6.517872057814349
76.6112020730358 76.43072926856914 6.263521502412606
76.46495811544348 76.51107676654881 6.014225136107798
76.31070068762973 76.59344861078144 5.770482277365594
76.14832700819251 76.67816271363867 5.5328929463953065
75.97798269745701 76.76549341654437 5.301925411298267
75.79965947666997 76.85579415180837 5.078238668695018
75.6136354275496 76.94933783562735 4.862291966226847
75.42005120877285 77.0464794848894 4.654743752528733
75.21924594474048 77.1475088065679 4.4561054628659695
75.01152892480009 77.25275853793444 4.266996433205871
74.79732644879748 77.36252502967247 4.08796000919481
74.57712539294742 77.47709868367052 3.919528656423581
74.35148151863976 77.59675880550344 3.7622053924590895
74.12105683473496 77.72172875183402 3.6163600723174785
73.8865523727049 77.85223017566439 3.4823418151920444
73.64876127151419 77.9883907127776 3.3602781879199934
73.40848201892379 78.13033384692388 3.2502675734004707
73.16654696473822 78.27806764947128 3.1521506121771092
72.92375298041645 78.43158148006512 3.065719348522224
72.68085438194532 78.59073946983285 2.990514532025424
72.43852233498046 78.75538236911648 2.9260473842961674
72.19731671081213 78.92522274828075 2.8716089289961535
71.95768693007916 79.09996675097527 2.8265193202455703
71.71992587774163 79.27918997049026 2.789897423655747
71.48422634604329 79.46250132487442 2.760973553438118
71.25060565035734 79.64938099707635 2.738778781213158
71.0190203907708 79.83938140487646 2.7225123707724372
70.78927394468516 80.03195941937972 2.7112100117020894
70.56113198262328 80.22663377030267 2.7040335634308517
70.33427730929621 80.42290015267893 2.7000960644659577
70.10836615320238 80.62028633099268 2.6985518894637703
69.8830447166602 80.81835222622546 2.6985809035986326
69.65796608742671 81.01669275468822 2.6993746454467202
69.43281821119221 81.21495467438152 2.700163217095752
69.20733981748434 81.41284188863722 2.700210022981736
68.98132140702268 81.61010645679515 2.698791804270585
68.75463400952512 81.80657457454248 2.6952592602354426
68.52720064285715 82.00210799408248 2.6889506671933288
68.29902264520805 82.19663381347056 2.6792954521172816
68.07014772462986 82.39010146101647 2.665698473263827
67.84068794867379 82.58250951461866 2.6476618038711277
67.61079166961835 82.77386234808034 2.624654275392986
67.38064869778019 82.96418796678377 2.5962373375158747
67.15047496950105 83.15350378390987 2.561940439360419
66.92051045756816 83.34182964765323 2.5213700544678583
66.69101451650153 83.52917040725829 2.4741378957049833
66.46226442221204 83.71551661850062 2.4198805690147696
66.2345401994713 83.9008552420033 2.35834710973831
LINES 1 211
210 0 1 2 3 4 5 6 7 8 9 10 11 12 13 14 15 16 17 18 19 20 21 22 23 24 25 26 27 28 29 30 31 32 33 34 35 36 37 38 39 40 41 42 43 44 45 46 47 48 49 50 51 52 53 54 55 56 57 58 59 60 61 62 63 64 65 66 67 68 69 70 71 72 73 74 75 76 77 78 79 80 81 82 83 84 85 86 87 88 89 90 91 92 93 94 95 96 97 98 99 100 101 102 103 104 105 106 107 108 109 110 111 112 113 114 115 116 117 118 119 120 121 122 123 124 125 126 127 128 129 130 131 132 133 134 135 136 137 138 139 140 141 142 143 144 145 146 147 148 149 150 151 152 153 154 155 156 157 158 159 160 161 162 163 164 165 166 167 168 169 170 171 172 173 174 175 176 177 178 179 180 181 182 183 184 185 186 187 188 189 190 191 192 193 194 195 196 197 198 199 200 201 202 203 204 205 206 207 208 209

POINT_DATA 210
SCALARS curvature float
LOOKUP_TABLE default
0.23998270407226271
0.2184605873805049
0.20145575978254168
0.1887423623150172
0.18013433352654937
0.17545893817071337
0.1745016707380015
0.17704518517979143
0.18281158917019
0.1913538385969846
0.20219661888815288
0.21479110936925036
0.22836453179714788
0.24191258359623596
0.2543157351879591
0.26437737784530196
0.2711487510423494
0.27403822286526064
0.2731160416368431
0.26913425607098707
0.26330155706735353
0.25704279406389025
0.2516336394900681
0.24768845887843058
0.2451661330506379
0.24351931099911953
0.2418154106814062
0.23905832191824364
0.23446644679161763
0.22765676310309335
0.218678467202349
0.20798723663919721
0.1963160087966944
0.18450862447896033
0.1733301939370734
0.1634751623379786
0.15551709235086134
0.14985410504961202
0.146621527099428
0.14571645858090448
0.14687080044340858
0.14962000048402396
0.15341893432877127
0.15767829385669746
0.16179828664596232
0.165151722517668
0.16716896555089322
0.16732077828480058
0.1653463604431151
0.1612835687624954
0.1556445853546724
0.1493857778315945
0.14388100573988222
0.1406359242891464
0.14105335181642065
0.14578820457421862
0.15473457024445703
0.16705872749824094
0.18167196213992629
0.19744857514368258
0.21343848426101186
0.22891228207007175
0.24336400893679833
0.2564888429742197
0.2681433681135586
0.27834778377519326
0.2871512848151317
0.2945764880565173
0.3005699849516057
0.3050258681205644
0.307826053091067
0.30890072695941606
0.3081468185064791
0.30548536405344084
0.3009710388766488
0.29470234746555724
0.2869287218244818
0.2779202874764072
0.268042457673642
0.25759975483409786
0.2468547581240479
0.2361102709299652
0.2256622436807826
0.21572085448254202
0.206420839813196
0.19780685102807308
0.18986866318243487
0.18251294971623547
0.17564508040531973
0.16915959697145866
0.16297668887048247
0.1570553252657503
0.15150663230047567
0.14659472109742952
0.14273589766744058
0.1404103802857306
0.14005994919151527
0.14196523231182273
0.14612958507001914
0.15235174785572086
0.1602276594093073
0.16931170125819897
0.17916163181486652
0.1894723739449866
0.20007313026579224
0.210895852125613
0.22198614226749525
0.23348551147712382
0.24556775975682002
0.25840609719738405
0.27213755742607837
0.2868313647858892
0.3023328196968921
0.3181461048222991
0.33357941338475483
0.3476685466731738
0.359300831864385
0.3672372823690054
0.3703975959269695
0.36804669023987663
0.36004465754609
0.3469224068596627
0.3297020150722598
0.30938382864131625
0.28687675351160385
0.263227338241137
0.23928934711647934
0.21569919602406606
0.19291776063556954
0.1713151045335973
0.15117811749093446
0.13279493242742607
0.11644581902398589
0.10251472981826887
0.09135778931649674
0.08310360679103665
0.07772786091032877
0.0748238235013995
0.0735625416472799
0.07300861825340205
0.07233192576359121
0.07095912360855054
0.0686182392108162
0.0653263494120129
0.06132867176649296
0.05693486353380213
0.05252412147786312
0.048598533184972724
0.04565286567232893
0.044056592340909154
0.04401059998565331
0.045512862709092175
0.04842108109096762
0.052513541508323894
0.05755180621872628
0.06329416500886563
0.0695500046322034
0.0761184619248133
0.08276293002353222
0.0892589762206618
0.0954289764276695
0.10115658572767716
0.10639700747510437
0.1111643291211313
0.11553093573586062
0.11961267934796285
0.12353873718917661
0.12738652853295737
0.1312116946981654
0.13503307636167777
0.1388144329499708
0.14244362299456867
0.14576438672098385
0.14858145685729693
0.15067748776997394
0.1518354024948522
0.15193195557602993
0.1508983082912922
0.14861775441872072
0.14501319566569307
0.14011118490595686
0.13398108349949736
0.1267058383643989
0.11839456426039342
0.109162029885259
0.09914604660803826
0.08848079984036988
0.07733612870330972
0.06587792598210879
0.05425842847779979
0.04263369331161691
0.031205435867505394
0.020206201392000682
0.010060305958020183
0.00441461496658748
0.011086459441191486
0.019199133663779438
0.026762473991474408
0.033689435422927246
0.040041093962322555
0.04589990905273117
0.051355111641791885
0.056534509693545745
0.06153361587241985
0.06640954047093069
0.0711795807845405
0.07583102543318952
0.08033005793630976
0.08463195879653068
0.0886914943871003
SCALARS torsion float
LOOKUP_TABLE default
0.16259277110849085
0.176964175426983
0.19079167911613237
0.20303604462646824
0.21244273334151917
0.2180000081846352
0.21924180433149332
0.2166121370451834
0.21132733287799912
0.20532468960307182
0.19966782928447074
0.1957632606333025
0.19506088725823995
0.19886658155439646
0.20709710891842617
0.2205648250190444
0.23929753622686073
0.26296868713284016
0.29055507615988574
0.31855258662798686
0.3435868724743295
0.36022254258762654
0.363498444021756
0.35050824128387076
0.3213545125710836
0.2781052089124118
0.22752489997014116
0.17340035252774363
0.12077879377905514
0.07012942219300418
0.023125860079878553
-0.020515549951650395
-0.05939856306820751
-0.0944420601761888
-0.12521042354657988
-0.14850770915978878
-0.16031830145060114
-0.15865549254882907
-0.1420030704843667
-0.11317822905867374
-0.07485066970707971
-0.03192656827272443
0.012311295585831047
0.054308752637794354
0.09485180247642601
0.1359417862621459
0.178621260027059
0.2251267655384983
0.27741261038123183
0.33849259684173094
0.40860138282417097
0.48566515056573484
0.5584323940482291
0.6090759268026812
0.6156279648771997
0.5724838896947619
0.4923451495617515
0.3962352777288958
0.30090052382616533
0.21674821900504085
0.14524759152506167
0.0872738066554454
0.04051593772922369
0.0048518775929955885
-0.021296472460862543
-0.03837350687264413
-0.047986165619418486
-0.051134970345188505
-0.048595294189742046
-0.04114281448564252
-0.030518355104372903
-0.017729407123482782
-0.004616191346912994
0.007717404488132789
0.018062976603147072
0.025468371120051507
0.02940535392663402
0.029538794416117398
0.02550390343379311
0.016537502104860973
0.002292142279740661
-0.017212028520456047
-0.04186648948133171
-0.07105365605099084
-0.10397544368021744
-0.13966594885666253
-0.17678303936416465
-0.21443623477124046
-0.2524702467430226
-0.2908525109155726
-0.330184497361295
-0.37077546450955495
-0.4120308933360729
-0.4521432213324955
-0.48729087061882714
-0.5109417175004122
-0.516536264501704
-0.5001763143783206
-0.4639843531477773
-0.4147064334478202
-0.35999302677062484
-0.3056823705937825
-0.2557771562968997
-0.21237384632323303
-0.17573875670487188
-0.14562511721104454
-0.12162088550270843
-0.1034145171928065
-0.09057873468712263
-0.08278517492316363
-0.07941462064993454
-0.07999729559574147
-0.08443153122809494
-0.09259403069278564
-0.10359586084592601
-0.11704524495198124
-0.1317718910335972
-0.14709130500917317
-0.16231610718346567
-0.1762794528081192
-0.18877637776111422
-0.20004083920338614
-0.2101032374238524
-0.21964077013768157
-0.22975101242028467
-0.24082381664050762
-0.2548151150589989
-0.2729139513848116
-0.2977481395500489
-0.3307761708442365
-0.3741154508476347
-0.4302332513822523
-0.5026964288172913
-0.5861147166811678
-0.666443870217188
-0.7258600338669174
-0.7430724228649247
-0.712244809907529
-0.6458078464574994
-0.5683802259032901
-0.4952583438761424
-0.4379838706536443
-0.3983923903656152
-0.38043379203464084
-0.38015206444544747
-0.3938836234405012
-0.41997294407873886
-0.45014687576868323
-0.4681079213252852
-0.45449666069885847
-0.40042094505091763
-0.31366138419570677
-0.21584591880821818
-0.1261968085385185
-0.05699273086277785
-0.006602168046295165
0.029629840714532906
0.05426016030405386
0.07014189703948687
0.08109343312305034
0.08929980307305199
0.095739743717386
0.10105591234922595
0.10545603349409036
0.10893628590346352
0.11111140404732914
0.11237613068291707
0.11333689613245565
0.11393089147957744
0.114211472478856
0.11468089599817051
0.1157665595863315
0.11753007638317459
0.12011828313450022
0.1229803486534467
0.1261552290272454
0.1289753203177004
0.13108215060677575
0.13215679463798372
0.13155230160405315
0.128406687994365
0.12269360885780263
0.11394185286728821
0.10285787788783397
0.0890294263246597
0.07345790114742945
0.05614009899935334
0.03877576424655128
0.01986118053560134
-0.0032242999598607073
-0.031616990473747
-0.06966068310038781
-0.14126844368669073
-0.41567644333079046
0.0
-0.3418194636786251
-0.19414123304216524
-0.1712887317479301
-0.16516195155976487
-0.16332127053607107
-0.1623830085825742
-0.15800199962732425
-0.14862975855847924
-0.136397718052423
-0.12225645216341406
-0.10820439107982506
-0.0948041629518683
-0.08304262493325307
-0.07283679570606393
-0.064142197940251
