# vtk DataFile Version 2.0
00001220.nii_L_ICA_labeled
ASCII
DATASET POLYDATA
POINTS 245 float
112.21892776901456 88.19388223207086 35.01655948817883
112.23272123194911 88.42898216999271 34.83093262240901
112.21638552631036 88.66471880242246 34.64631760390341
112.17090122240255 88.89824992251548 34.46377730421908
112.09743970381054 89.12688547450007 34.28416570382506
111.99818808770188 89.34836279547024 34.10799374752235
111.87483773844069 89.56052514647641 33.935606833181716
111.72999558612118 89.76186361279562 33.76698645583259
111.5654658927069 89.9507662064063 33.60206115731207
111.3834174296898 90.1260566188829 33.44054453569167
111.18566157822023 90.28652340105648 33.28210628059157
110.97385352249204 90.4308967841705 33.12637142854046
110.74979039767572 90.5581832180725 32.97289692615816
110.51491889702349 90.6668645431579 32.82129200700129
110.27100762425124 90.75582133054533 32.67112522748228
110.01979105262966 90.82372747881139 32.522015241229624
109.7631209942749 90.86905637458258 32.37362683118884
109.50312398927487 90.89049773474297 32.22567514566102
109.24214913926144 90.88698097580125 32.0779539004321
108.98275005024199 90.85762205945072 31.930347650630104
108.72764540526434 90.80198403847429 31.78283273980155
108.47959488412333 90.72020451318735 31.63546738625447
108.24123166694964 90.61306720594526 31.48836563785996
108.01488241761666 90.48199339442569 31.341658583547055
107.80241530943846 90.3289468325032 31.19545102922172
107.60514926449605 90.15627407327152 31.049783987575413
107.42384057926066 89.96651544446692 30.90461088112534
107.2587972729547 89.76218331885656 30.75979156527223
107.10989186607958 89.54571553296987 30.615096027089077
106.97659608137758 89.31940510652873 30.4702254424889
106.85826118093426 89.08523419027331 30.32483720539667
106.7543121200648 88.84486782041901 30.1785515604397
106.663901371427 88.59984309104567 30.03099980160177
106.58626828206198 88.35142868293225 29.881838740351494
106.52094296596968 88.10065865347704 29.730729132074917
106.46714973965553 87.84846289821462 29.577459237125286
106.42462236592795 87.59556255699482 29.421825346633184
106.39289017140615 87.34256835393917 29.263786737129966
106.37180546019893 87.08995687924013 29.103372586969062
106.36127460547107 86.83809717914167 28.94075212201199
106.36124400662392 86.58724855653722 28.77623775969102
106.37200548901431 86.33761200619945 28.610239433407187
106.39361706788182 86.0892857642595 28.443338509082096
106.42650548279768 85.84236128680357 28.276200019223463
106.47104229234894 85.59690545372713 28.109601345151198
106.5275632198342 85.35299865159404 27.944370750348217
106.59663004188536 85.1108084647744 27.781401247496245
106.67860752413473 84.87057311428255 27.621558202580143
106.77380164776797 84.63264737801701 27.46563769600012
106.88259863104928 84.39755888396418 27.314383694749996
107.00521389511309 84.16598795941125 27.16837151560752
107.14163792632533 83.93873757310753 27.027931267467874
107.29189354063978 83.71680263492651 26.893223082425536
107.4559664855573 83.50137694832763 26.76419269130408
107.63348092524753 83.29365761636964 26.640432781104643
107.8241411851656 83.09503499060504 26.521379859511867
108.02771136085781 82.90717643023588 26.406302829872782
108.24352291644503 82.73159711723333 26.294195885476064
108.47097191336427 82.57006974642661 26.183990933049632
108.70938345440045 82.42466038792196 26.074526571189864
108.95769157175978 82.29732162316274 25.964582622236478
109.21460369419209 82.19011534752748 25.852975687398306
109.47852022581883 82.10518154293342 25.738598646415632
109.74744653512866 82.0445826455214 25.620488245941942
110.01897530013692 82.01023779912563 25.49788731054353
110.29030741196762 82.00355798932448 25.370351909397563
110.55839263535243 82.02543079654056 25.237776592889453
110.82006610505607 82.07616746179625 25.100398874605453
111.07221924926374 82.15542722206037 24.958785945255382
111.31196299157575 82.26226557411087 24.813783630877513
111.53674481121001 82.39524534802442 24.666447417672877
111.74440655169275 82.55257659737715 24.51797290784884
111.93318702706061 82.73225259023882 24.369635846244435
112.10168925152959 82.93215760760086 24.22274729627831
112.2487368697438 83.15020658352945 24.07863907479365
112.37352783656215 83.38420791388756 23.938617716991708
112.4755868570682 83.63194866264314 23.803920175159924
112.5546205518982 83.89128313764947 23.675714575053654
112.61060322844422 84.16007611399512 23.55505236528246
112.64363902765494 84.43625573393956 23.442887911982524
112.65442538277166 84.71771155278472 23.339859966336682
112.64395985107065 85.00248478872894 23.246335015614285
112.613479404195 85.28881802934826 23.162402931507284
112.56424782253252 85.57517692429283 23.08796442456858
112.49819417596457 85.86031731833074 23.022375259380063
112.41712337440973 86.14332661543331 22.964836732461453
112.32266135736178 86.42354054545257 22.91443970646442
112.21685573561268 86.70067642579312 22.869857298956685
112.10132214325755 86.97461044234457 22.829817181240294
111.97774404344291 87.24545537189063 22.792865170414114
111.84766812203085 87.51345971176002 22.757505279722874
111.71248606194109 87.77893425597604 22.722194605836737
111.57359739796144 88.04228453052016 22.685384643432993
111.43221507956713 88.30384528484302 22.645444570854757
111.28959561313735 88.5639804006744 22.6008735040726
111.14688865270962 88.82292979226504 22.55012196539522
111.00523343475041 89.0808364476652 22.491713608896003
110.86570119828038 89.33772441197459 22.42440516887173
110.72931407269942 89.59346999908736 22.347060547064125
110.59706527489729 89.84780019522528 22.25866527403056
110.46974936208916 90.10035748051581 22.158714426045417
110.3480530007469 90.35069626151757 22.046893642661118
110.23249185317634 90.59834007368528 21.923193524442723
110.12341247679714 90.84281820380602 21.787854188575164
110.02098101857547 91.08370708467969 21.641343307656914
109.92512115770559 91.3207059064956 21.484410011532542
109.83564888478956 91.55359309491118 21.317840177730133
109.75227472577446 91.78224002511004 21.142458039781705
109.67467048754887 92.00657397036125 20.95903811064119
109.60233564024296 92.2266946835516 20.768495389397764
109.53481032650075 92.44272406023315 20.57160617278587
109.47169023785636 92.65478412163093 20.369019585740368
109.41246819661605 92.86314997740298 20.161481468684283
109.35673087416895 93.06808026864877 19.94960024872243
109.30414703136564 93.26982421347475 19.733888065434662
109.25434810086878 93.46874969368187 19.51492090603032
109.20709106900983 93.66518086032374 19.293155183751185
109.16219263395142 93.85946755091538 19.069022133030906
109.11949965001497 94.05200276985676 18.842954485442498
109.07896772688258 94.24314745002468 18.615313995727234
109.04060321636216 94.43327106281417 18.38644592750671
109.00445183280218 94.62272819019199 18.156666604918566
108.97064121279729 94.8118311450984 17.926240058093608
108.93934349925516 95.00085352458619 17.69539293421901
108.91073575951178 95.19000869990064 17.464305941300456
108.88504762611728 95.37943937300768 17.23310181529709
108.8625735158644 95.56921612247423 17.001847069847468
108.84354584738958 95.75931768361976 16.770550362793408
108.82824876345175 95.94964567460079 16.539163382871607
108.81702236595021 96.14002246866956 16.307583725710284
108.81016362897387 96.33019530953631 16.07566696573846
108.80798520001541 96.51985435547535 15.843239495081482
108.81088617306732 96.70862939156707 15.61010205970371
108.81924535084107 96.89611500153867 15.376059055437256
108.83344131874192 97.08189402079158 15.140940084889356
108.85399953001696 97.2655018534114 14.90459034763782
108.88138699095443 97.44650404053583 14.666929380690565
108.91610364493039 97.62448694386417 14.427950780749834
108.95885759874838 97.79898717251106 14.187711963998877
109.01016857457333 97.96967313237965 13.946413817554324
109.07069531520816 98.13621251487803 13.704356522758452
109.14124922070148 98.29827069417331 13.461975826709594
109.22238722948732 98.45569654345366 13.219858498673727
109.3148160428127 98.60833891880223 12.978728703907763
109.41932903954965 98.75607957277109 12.739491799192361
109.53638484564219 98.89899199857925 12.503153400132788
109.66650583885817 99.03716456951354 12.270865721138671
109.81018164466423 99.1707331050443 12.043937721344939
109.96764514970805 99.29994009548608 11.823738411106032
110.13890112658135 99.42509542922106 11.611649009380567
110.32381110868627 99.54653179668244 11.40907867925126
110.52200912048403 99.66461358750104 11.217381605061686
110.73296398138118 99.77970765414737 11.037868923624824
110.95580703278567 99.89221193205451 10.871568701541689
111.1895111774186 100.00250487697808 10.71928845189127
111.43293779633414 100.11093552991626 10.581597677456548
111.68486508769888 100.2178191981666 10.458782120234531
111.94408389694588 100.32342362854988 10.35093466423209
112.20936187009833 100.427979004979 10.25779649033316
112.47953827176147 100.53166655572197 10.178839195252767
112.75359799533919 100.63461168202917 10.113436540127674
113.03068598639068 100.73688291601488 10.061004731074217
113.31001497564041 100.83851734446104 10.020591984876656
113.59096965629085 100.93950422633651 9.99133522945458
113.87307351568684 101.03978371948405 9.972548764784971
114.15592499889387 101.13928725816294 9.963249413902757
114.43923868149264 101.23791252764401 9.96268251271742
114.72280224592083 101.33553746294622 9.970157776034357
115.00646202315004 101.43205842625981 9.984869807932258
115.29011520937574 101.5273498857925 10.00624383368766
115.57369322561105 101.62131979291243 10.033630915129864
115.85715332825555 101.71390119322912 10.06644208506288
116.14046499582223 101.8050260978311 10.104240314248766
116.423610130965 101.89470565660764 10.146484737163133
116.70657156692486 101.9829708589877 10.192752045674562
116.989327510067 102.06987330793476 10.242710847646535
117.27185861526573 102.1555455137123 10.29595957553592
117.55413834920768 102.24013502843707 10.352190996845373
117.83613239000444 102.32381431766383 10.411152972029742
118.11780831761627 102.4068012548444 10.472563989562179
118.39913153794656 102.48932520869698 10.536177126776991
118.68006582803923 102.571625949176 10.601768333349714
118.96058059283517 102.65395430289185 10.66909785374971
119.24065782820675 102.73655805412524 10.737895880317355
119.52028715353285 102.81967946828796 10.807882507097126
119.79946808426453 102.90356415709357 10.878743252714955
120.07822805748614 102.98842809806669 10.950093504092491
120.35660675351572 103.07448242269103 11.021506373825378
120.634658143584 103.1619500224633 11.092475389154856
120.91246093742171 103.25100752616515 11.162432149634927
121.1900997129673 103.34183762712425 11.230739992525177
121.46766260045626 103.43464994284886 11.29664679299102
121.74523365795466 103.52960094634342 11.359392349462198
122.02287639871514 103.62686547417167 11.418145478917333
122.30062381148001 103.72665799361388 11.47194886229547
122.57845814543089 103.82913483213618 11.51993117693772
122.85630040395262 103.93447665975056 11.561180099867434
123.13399325795004 104.04290131173025 11.594711067410616
123.41129194695978 104.15458603150671 11.619686330254892
123.68786346341436 104.26970849072927 11.635350816234967
123.96327987045159 104.38846700963269 11.64099926565921
124.23700872446062 104.5110873900109 11.635985339283893
124.50847664108254 104.63772466384391 11.620020929426422
124.77704426798365 104.7685735683565 11.592887051209853
125.04201587187454 104.90385648564859 11.554482119253615
125.30268478769563 105.04378733304509 11.504917537325946
125.55839524294367 105.18854061420883 11.444554837614337
125.80848676627039 105.33832230822976 11.373804177627653
126.05223118358067 105.4934116284741 11.293045049831939
126.28909323666412 105.65394442234698 11.202985322259561
126.51849746077235 105.82010505282605 11.10424204472171
126.73976627644268 105.992144213714 10.997337361826803
126.95242729239258 106.17014432595009 10.882986267284437
127.1559481905948 106.35420310689244 10.761795843090699
127.34960845969385 106.54448690417829 10.63423057195411
127.53297661880481 106.74091808602829 10.500909477587548
127.70545439301418 106.94345703276718 10.36229721422908
127.8662879519356 107.15205723722157 10.21876448770344
128.01502985081038 107.36642481043611 10.07076503865375
128.15106535812907 107.58626758414475 9.918628967732014
128.27364444578902 107.81124130164119 9.762608922787985
128.3823994051868 108.04076697922306 9.603017151640765
128.47684742447672 108.27423914461838 9.440075587186728
128.55643563863194 108.51097981510166 9.273945385672727
128.620960119146 108.75016344005499 9.104812206857169
128.6702744765886 108.99092036224697 8.932816864415624
128.70427001176046 109.23233829205743 8.758056239049763
128.7228879419027 109.47345609466333 8.580587661019592
128.72645511447897 109.71331078998512 8.40048815163359
128.71525457420145 109.95095257365305 8.217783340604445
128.68953916889498 110.18541560324607 8.032453922089344
128.6498305430113 110.41579649828954 7.844494852897775
128.59670776860887 110.64124643308904 7.6538864607898205
128.5306621596712 110.86090396115068 7.460570338785692
128.45224925342285 111.07393802236389 7.2644829190897875
128.36219090559123 111.27964120673663 7.065591070272785
128.2610455642437 111.4772302341772 6.863820310209862
128.1493885574704 111.66591985113922 6.6590969163025395
128.0279504079669 111.84507556088668 6.451399361305376
127.89728534983671 112.01389519326574 6.24066438964522
127.75801877809278 112.17161339125063 6.026862389019582
127.61086886096984 112.31758359649186 5.810020022271898
127.45641640009968 112.45090691983873 5.590133592349818
127.29540210885318 112.57088390486915 5.367291144128947
127.128587350833 112.676845478961 5.14162758981193
LINES 1 246
245 0 1 2 3 4 5 6 7 8 9 10 11 12 13 14 15 16 17 18 19 20 21 22 23 24 25 26 27 28 29 30 31 32 33 34 35 36 37 38 39 40 41 42 43 44 45 46 47 48 49 50 51 52 53 54 55 56 57 58 59 60 61 62 63 64 65 66 67 68 69 70 71 72 73 74 75 76 77 78 79 80 81 82 83 84 85 86 87 88 89 90 91 92 93 94 95 96 97 98 99 100 101 102 103 104 105 106 107 108 109 110 111 112 113 114 115 116 117 118 119 120 121 122 123 124 125 126 127 128 129 130 131 132 133 134 135 136 137 138 139 140 141 142 143 144 145 146 147 148 149 150 151 152 153 154 155 156 157 158 159 160 161 162 163 164 165 166 167 168 169 170 171 172 173 174 175 176 177 178 179 180 181 182 183 184 185 186 187 188 189 190 191 192 193 194 195 196 197 198 199 200 201 202 203 204 205 206 207 208 209 210 211 212 213 214 215 216 217 218 219 220 221 222 223 224 225 226 227 228 229 230 231 232 233 234 235 236 237 238 239 240 241 242 243 244

POINT_DATA 245
SCALARS curvature float
LOOKUP_TABLE default
0.3439576120660668
0.3392054330353751
0.3298735590350254
0.3171794990072573
0.30255178312895714
0.28743436676070927
0.2730684457567011
0.2603968474485602
0.250128479932435
0.24269087357124977
0.23832978720831444
0.23713312297362066
0.2389710315228559
0.24362847175638588
0.250694862089717
0.25965789929982996
0.2698216296289734
0.2802401461722545
0.2898202099830711
0.2974028669358434
0.3018663111454931
0.30233682578280613
0.29832201163408134
0.28986244165454345
0.2774664779571739
0.262050646684983
0.24467824250028078
0.2264437855387023
0.20830262930427826
0.1910556940096019
0.17528923745134173
0.16141182666900458
0.1496364685714751
0.14003837607771152
0.1326136183147655
0.1271414870296853
0.12340686118328069
0.12111211048452726
0.12003448818359892
0.12003196879152041
0.12105007552589162
0.12315022920999494
0.12637433170466794
0.13076278853535003
0.13621781397326493
0.14251142603543882
0.1493005446235286
0.15615673903110344
0.16264158124473144
0.16837602564155263
0.17313870508670645
0.1769268143391431
0.1799760941196424
0.18276063673492848
0.1859420338663841
0.19025512282053814
0.19643226559786608
0.20496866243214487
0.21611168005999679
0.22981916235925143
0.24565505644078578
0.26292909672638953
0.28068191857475827
0.297765975153389
0.3129156336164668
0.32510333659073415
0.3335792751559214
0.3380901149333906
0.3388290017228275
0.33645255435215504
0.3318396203927483
0.32594047581278174
0.31956266919462417
0.3132837827900223
0.307382393194005
0.3018170046847993
0.2962822736465406
0.2902515148984699
0.28305542465685
0.27403741997666464
0.26273194262839666
0.24887210331931023
0.23244677309956255
0.2136296314277568
0.19288763797650044
0.17073724853490924
0.1477717272358665
0.12462780437547813
0.10202229746111807
0.08094656415377556
0.06305506724075359
0.051541222961906996
0.05013588115584749
0.05887952618515691
0.07317048199367661
0.0893635754953064
0.10537593320975389
0.12002947837131431
0.13250478554750098
0.14221083590902292
0.1487950017029533
0.1521371496754953
0.1523197238256017
0.14963397998797132
0.14451280942880157
0.13751279781889314
0.12918876132847584
0.12001576681163709
0.11038802878611112
0.10064785562040439
0.09106866597430868
0.08184918691548862
0.07310520935533216
0.06491140011852642
0.057317060054885634
0.050348703476483736
0.04405527975625859
0.03853480008286193
0.033938825493842105
0.030498976871191737
0.02843456038828656
0.02782810755927096
0.02856744176197934
0.03034200615429743
0.032780640899506976
0.03559542918710398
0.0386248132309024
0.04182752604834932
0.045252439249018055
0.04901041581587385
0.0532150744018701
0.057957012454308156
0.06328995483254009
0.06920626754089415
0.07565905624007681
0.08257307504793279
0.08985959292297821
0.0974320858225174
0.10522460588655104
0.11317355449852126
0.12122994492864039
0.12936640278440398
0.1375541076336523
0.14576700331749484
0.15396275697234052
0.16206462698996307
0.16996013746478542
0.177463001224578
0.18434272252818207
0.19030283446847746
0.19504534172032337
0.19825442849673142
0.1996835635286625
0.1991631613904704
0.19661442897308629
0.19204103905287698
0.18561795470826517
0.17762122294487084
0.16840676939057955
0.15835981153817982
0.14783903612984786
0.13717907097193283
0.12665747698508997
0.11648935112329314
0.10684879983854073
0.09783193351171232
0.08950671863461158
0.08188166701082865
0.07493104404303856
0.06861812945503128
0.0628755389730391
0.05761317031428557
0.05274613542085534
0.04818580420290751
0.043869791686329665
0.03976122214263352
0.03584363998875589
0.032129147173927834
0.028645168045296723
0.025427104966538015
0.022496496805833814
0.01987481379667899
0.017582697971834847
0.015670320813618747
0.014282545241738793
0.013751082860993299
0.014554443720913824
0.017059956714262248
0.02132694981512735
0.027138953366123385
0.0342623323156266
0.04249167982940172
0.05160505933017038
0.061377432976533565
0.07157945348322645
0.08193671747330049
0.09217682602462798
0.10202601516860632
0.1112141734756461
0.11950204947492667
0.12666996670223363
0.13255579613842317
0.13708577381413856
0.1402892277635797
0.1422767010574738
0.14325267866196978
0.1434860644200795
0.14326704095337098
0.142893492297367
0.14263529705715133
0.1427116124965519
0.14328562194005431
0.14443992585062293
0.14619613180910176
0.14852286305831577
0.15132842837370533
0.15448567334216623
0.15784440600883898
0.1612350090388079
0.1644887703429146
0.1674363536339337
0.16992752113417184
0.1718391073359842
0.17307414796943663
0.1735887702852904
0.1733880115597849
0.1725144711553027
0.1710619242288633
0.1691605346962289
0.1669679707229846
0.16464252351737776
0.16233480992899685
0.1601825668318364
0.15833132411978032
0.15691579844260464
0.1560388131203753
0.15578839003207334
0.15622603899041998
0.15737661700770403
0.15924470565472165
0.16179726406422734
0.1649668885453588
0.16866712747320733
0.1727780909266341
0.177158971600973
SCALARS torsion float
LOOKUP_TABLE default
-0.07871305078290497
-0.09160702511255035
-0.10562990169626198
-0.12058550120999871
-0.13630003836180427
-0.15241680802679503
-0.16852667213122033
-0.18389477107602462
-0.1976752780397783
-0.20888439761703334
-0.2166020762360795
-0.22032346580609122
-0.2198090857829507
-0.21574686831295228
-0.20894171094818192
-0.20043321257895744
-0.19084213005892292
-0.18112117524990404
-0.17188318935051863
-0.16354925402577455
-0.15662012983809018
-0.15129564551237415
-0.14799314213314554
-0.14686275003930463
-0.14827801153125814
-0.15232307116586274
-0.1589730961508149
-0.16799686138951425
-0.1790622876348403
-0.19123007071009743
-0.20263269640389792
-0.21064977044179922
-0.21226755047198276
-0.20415770032693822
-0.18357037157596007
-0.15051419884054792
-0.10535071192360425
-0.05266851920583799
0.004833150599896285
0.060664826339537875
0.11130922143464884
0.1505584841805378
0.1752138720598468
0.18306988589494003
0.17422677013403784
0.15159701742029819
0.11824847699406561
0.07742153085723553
0.03152160479957341
-0.018137553825411615
-0.06919268292710687
-0.12187411774411955
-0.17300548825628498
-0.22211999402787327
-0.2644022882918906
-0.2975358616543142
-0.31697262773454216
-0.3218363932615004
-0.31308482688636186
-0.2934057116960998
-0.26736999494057984
-0.23852619358181096
-0.2092752467101615
-0.1809260709849964
-0.15425668649313906
-0.1296327731481024
-0.1066919744498319
-0.08553776078959723
-0.06565696845290779
-0.04724336688462268
-0.029966268459139477
-0.014326386198699933
-0.00027901094279823434
0.011422788311602459
0.02071890821805243
0.027273225792876735
0.031067097642861467
0.03198919901574601
0.030054010232115982
0.025429380101610093
0.01789818359321462
0.007696472805812185
-0.005905194984435071
-0.02359461781172137
-0.047354505713422236
-0.08031443657560192
-0.12879770036268193
-0.2041785261757437
-0.32903526237768915
-0.5475450163045551
-0.9211737390023396
-1.3794606549168387
-1.4309296181276292
-0.9987738815597684
-0.6082524048098205
-0.3735672153095517
-0.2394772307902662
-0.1588801989509738
-0.10774572575198577
-0.07365871305211395
-0.049631197353161245
-0.03196149929771525
-0.01832033545089717
-0.007276490365374541
0.002030040157209893
0.010066224331608113
0.017149279882828453
0.02344022563029415
0.028748153470362983
0.03208147647538155
0.03240778708361723
0.028091637308382853
0.016786738210243835
-0.003967733755812406
-0.03864171862079518
-0.09057686455982894
-0.1645685668385614
-0.26290154620258616
-0.37883470221673154
-0.49093495871359305
-0.5554843806801681
-0.5358024732390301
-0.434117266818083
-0.29091250595425167
-0.14826097034179636
-0.023942521936601745
0.07373831785578992
0.14749188968162824
0.1963550942993372
0.22255910434551462
0.2269359134088607
0.21324224678441536
0.18558955674539301
0.1486551397844256
0.10748372078204822
0.06538957056255147
0.024567146905376504
-0.013442102032641224
-0.04872227396267218
-0.08062489792493924
-0.10991298378795492
-0.13469268631654008
-0.1559076001811407
-0.1725834119136141
-0.18525950672799396
-0.1936222555288605
-0.19789126264176907
-0.19843709293843517
-0.19551209316143914
-0.1898725741402159
-0.18188579581185005
-0.17229240900047277
-0.16176859816113684
-0.15039395942413275
-0.13837862411501714
-0.12571867779041396
-0.11280784329927618
-0.09915004898127062
-0.0851494666843678
-0.07006986101759786
-0.05425305823337653
-0.03694651015697703
-0.018659698211244483
0.0008716527725365067
0.02093997790857778
0.04084100325767652
0.05980604374376969
0.0765168634044008
0.08967976334109129
0.09775666660654897
0.09892498508775675
0.09275065569864199
0.07731618211542433
0.05376662957721781
0.020638530814834907
-0.021329888515380514
-0.07324719721203561
-0.13493066007708016
-0.20723223825770917
-0.2903107012755771
-0.3851642511611999
-0.49624274552182124
-0.6317175062264611
-0.8018216463940798
-1.0051553753941793
-1.1794372990296982
-1.1919127897310449
-1.0094232838735042
-0.7560339344461683
-0.5428470194443147
-0.3857605202287753
-0.27640139580936496
-0.19764704938590194
-0.13973420997069375
-0.09538260048109891
-0.05979067469474513
-0.030547712982848002
-0.005548280984032283
0.01676283185716389
0.037506704000782425
0.05750496500965223
0.07696303568354972
0.09630288619223985
0.11464540517793446
0.1321788265746848
0.14773653301856796
0.1610322324292648
0.17083867499139635
0.17638022871530995
0.1769986692647638
0.1721829830412214
0.16221585086577459
0.14748035493781453
0.1290940416455174
0.10809061544759944
0.08535788417780597
0.06176187821368378
0.038067405752139356
0.01547341518510397
-0.005962338867176531
-0.025734573399583502
-0.04410130496433679
-0.06090035488168481
-0.07639187799978604
-0.09065178755751711
-0.10384697276851515
-0.11595318871149864
-0.12690881751677924
-0.1367523506181245
-0.1453260755003495
-0.15264847240445062
-0.15871086031338244
-0.16343412708753716
-0.16674933931309813
-0.16850572985905685
-0.16901195807856714
-0.16807215007210252
-0.16586607779530493
-0.16233314984812341
-0.157619975815754
-0.15184640588614345
-0.14518892901030225
-0.1378505805500568
-0.13004363951083575
-0.121967442737659
