# vtk DataFile Version 2.0
00003997.nii_L_ICA_labeled
ASCII
DATASET POLYDATA
POINTS 275 float
111.60249794902347 80.94635991040629 37.242603649496125
111.38099534515472 81.02135338708639 37.054734208195256
111.15084866424637 81.09024129210077 36.875091337744216
110.91310758508546 81.15266388798817 36.703132903910245
110.66874176377887 81.20827283927751 36.53826305946174
110.41870007500563 81.25678597921927 36.379783624150875
110.163886234822 81.29798126134007 36.226932021492324
109.90511500506318 81.33161958513031 36.07895425913005
109.64315122659264 81.357470450693 35.935082969723126
109.37871922390636 81.37530669444278 35.794546571232736
109.11251283652493 81.38490144763422 35.65657714111546
108.84520410828023 81.385995914662 35.520420834225284
108.57746338954168 81.37835500360694 35.38532874531249
108.309957803719 81.36178134130385 35.250574437571174
108.04335776032974 81.3360462150545 35.11546700671991
107.77834611591733 81.30092780714365 34.979354282087236
107.51562076423176 81.25621735495366 34.84163409114963
107.25589617222298 81.20172468319342 34.70176374233687
106.99991831139998 81.13724978832992 34.55925819624271
106.74845542973658 81.06262279763264 34.41370582962594
106.50223548259005 80.97780692376374 34.264814670231424
106.262004067996 80.88274937991241 34.11237358238891
106.02849092699972 80.77744718462525 33.95627148914321
105.80239931290085 80.66195028288928 33.79649621467701
105.58448846921189 80.53625677444305 33.63309320515629
105.375306512718 80.40062590570436 33.466269375091905
105.175413587522 80.25527558506349 33.29627422617649
104.98531630934936 80.10046318311946 33.12342002653068
104.80545774313786 79.93648784406068 32.94807314553718
104.63633499306997 79.76359280096729 32.770623320372025
104.47817000366774 79.58222941937038 32.59153181419008
104.33123795804971 79.39277618215756 32.411252320958326
104.19578150081966 79.19561708421308 32.23024835863369
104.07201359078428 78.99114126212123 32.048989688662246
103.96019232128506 78.77970463907286 31.867951882811486
103.86050269435178 78.56170607977899 31.687612829470755
103.77308376528772 78.33756792455992 31.50844067997229
103.69814408380961 78.1076851306984 31.330901577875256
103.63591041093748 77.87246551419614 31.15545667228898
103.58662949260996 77.63234034648889 30.982557717645516
103.55064348346478 77.38775355664853 30.812660573638933
103.52820691498538 77.13923403059027 30.646178852787667
103.51954420551108 76.88737020705649 30.483483903402686
103.52491634985395 76.63279930128735 30.324915195438663
103.5445528299198 76.37623219746382 30.170750375491913
103.57863476952593 76.11845555125889 30.021187187259265
103.627278882949 75.86032531900668 29.876331808700023
103.69060495875323 75.6027630659011 29.736216766325022
103.768477703794 75.34672717152868 29.600712397330252
103.86074330653724 75.09320036502012 29.469598732673667
103.96716859002271 74.8431796250506 29.342544235087964
104.08743759413277 74.59766051462636 29.219112000904218
104.22116294279847 74.3576264088431 29.09877370183037
104.36790020706977 74.12404418277184 28.98092592556194
104.52716237914771 73.89786685121592 28.864906815359515
104.69843106525502 73.68004204835927 28.75001121946743
104.88116249626609 73.47152372014676 28.63550537047278
105.07485213380289 73.27335763147327 28.520631163691423
105.27884276157991 73.08651504987657 28.404627124995283
105.49252051052677 72.91210036719791 28.28673740289974
105.71523919164463 72.75133548396546 28.16621900080199
105.94629432005148 72.60559075400008 28.042355682224386
106.1848878420418 72.47641686254141 27.91447614585463
106.4300836963686 72.36558348621475 27.781976800325303
106.68074881034148 72.27512032148695 27.644355019914666
106.93550187578077 72.20764831313211 27.501193875015286
107.1924780766759 72.16572481629063 27.35240815764673
107.44931566366138 72.15233919706438 27.198226557013673
107.70286769043746 72.17123668650021 27.03931548346005
107.94908426262744 72.22560941633091 26.877177839246457
108.18288166937064 72.31847084220703 26.714231317002632
108.39818194617092 72.45182447646872 26.55401940537274
108.58842117443481 72.62567694950994 26.40115804791149
108.74738785604465 72.83744324029625 26.260947890614826
108.87028131174128 73.0818153196792 26.138667873593594
108.95516379906387 73.35109986355752 26.038359161233736
109.00235117940161 73.63719231465022 25.962648322331862
109.01427600563174 73.93246201165135 25.912519776264777
108.99474658935384 74.23056173322301 25.887559980885452
108.9481506737157 74.5267430698988 25.886396659917178
108.87860114045611 74.81767402894874 25.90741258946821
108.790216435101 75.10128725340941 25.948500383388883
108.68637134417743 75.376315543741 26.007881451692885
108.57031232168191 75.64234850990664 26.083489107277515
108.44468296635607 75.8993817676498 26.173600864958416
108.31179592629648 76.14779331716535 26.27660158575279
108.17365974081109 76.38823410699504 26.39100772890654
108.03202077039703 76.62154894364912 26.51546379461254
107.88841080090498 76.84872551686583 26.64872130504346
107.74419207124781 77.07085956976358 26.789615741730213
107.6006109107743 77.2891050859814 26.937092280130127
107.45883054835105 77.50472567514247 27.090072893209577
107.31991951822434 77.71902730970038 27.247476638401455
107.18491615513015 77.93332223198641 27.408253326173458
107.05484912978345 78.14894910903163 27.571300674361474
106.9307891150968 78.36727822578092 27.735425941179592
106.81379356560394 78.58965610879956 27.899295793545427
106.70491054295957 78.81734930131451 28.061437726211874
106.60525395574743 79.05155157845681 28.220192990818276
106.51596514567139 79.29331219004 28.373684733566673
106.4381882878498 79.54345876499589 28.519810896504627
106.37315843177376 79.80259540228184 28.656147129652044
106.32184421167636 80.07079440082866 28.78022146344407
106.28510518438242 80.34768436927286 28.889454709993625
106.26377856474163 80.63245523996041 28.981067386137354
106.25841236223984 80.92368661496624 29.052408058717784
106.26906391929573 81.21935219576883 29.10135606870299
106.29581780135142 81.51703458424342 29.12569402210545
106.33800957032204 81.81391126948527 29.124374825191552
106.39505567187703 82.1069585974537 29.09633496100345
106.46582579390198 82.39316736098615 29.041643787825368
106.54918633270836 82.66957690605389 28.96060861469666
106.64373266333294 82.93355692208912 28.854330195320586
106.74807668722877 83.18271800590763 28.724119074086584
106.86066242373546 83.4152982997865 28.57193329514579
106.98013346080987 83.62950480275464 28.39937400549963
107.10493149344855 83.8245548481865 28.20880190365002
107.23367189982527 83.99973320076906 28.002201504897062
107.36501625626434 84.15446975055566 27.781394571442807
107.49761353587488 84.28905623353009 27.548464834325497
107.6302198000315 84.40376553060172 27.305127513890433
107.76164005772232 84.49910334865311 27.05293695945832
107.89072313218018 84.57578037476145 26.793275616442735
108.01635979984029 84.63467910411518 26.52734891949005
108.13748133806726 84.67681870179707 26.256187143446372
108.25303633001889 84.70328413955095 25.98064344293581
108.36203983128952 84.71534312882294 25.70144430468315
108.46352373470422 84.71428974369162 25.419166672197505
108.55654958722225 84.70148362027354 25.134273461717335
108.64021951570784 84.67835397945655 24.847137171103352
108.71368794200758 84.64639901526843 24.55806134139571
108.77617371951263 84.60718022548515 24.267301265478707
108.82697896332871 84.5623129817166 23.975085479835577
108.86552295149248 84.51345441404622 23.681637271269945
108.89138843174494 84.46228536064517 23.387192043080823
108.90431630849685 84.41048826763586 23.092004299926845
108.90428073142904 84.35973267843842 22.796353391450868
108.89166204493846 84.31158702457945 22.50053620852084
108.86702280118293 84.26749145916952 22.20484378523476
108.8311990047342 84.22871930480251 21.909546592601277
108.7851976224738 84.19641138122014 21.614880033973805
108.73041002796481 84.17138713906726 21.32100748027519
108.66834647448835 84.15424265728991 21.02801577923834
108.60059197940643 84.1453884250845 20.73591599994993
108.5287903378726 84.14505213823378 20.444647655398146
108.45459668578512 84.15337462946465 20.15409702667238
108.37969234458618 84.17022262562168 19.864098485014093
108.30568903133528 84.19541363812593 19.574473857291512
108.23414500711364 84.22870836983701 19.285050179930384
108.16655809696698 84.2698258157281 18.995681921441342
108.10435656687453 84.31846114288345 18.70627290593861
108.04889117392305 84.37430066817463 18.416795883244344
108.00149715102445 84.43708313170929 18.127309710028474
107.96328631516249 84.50645221518191 17.837972898157993
107.93531670751901 84.58212910038874 17.549049718447918
107.91852703348586 84.66385882808547 17.260913336027617
107.91372149871368 84.75141261961372 16.974043286081034
107.92155174455887 84.84458843338922 16.689016872139028
107.94264861243278 84.94327008979235 16.406529920122537
107.97717421542086 85.04724547386405 16.127286310781944
108.02525629404634 85.15637729176991 15.852046004635746
108.08686251781394 85.2705345917279 15.581579969247345
108.16181426704377 85.38958762154998 15.316647768739758
108.24990803252365 85.51344181652163 15.05803546185899
108.35054549404369 85.64188846597689 14.806334441450765
108.46318684188356 85.77475212342276 14.56212300105327
108.58723484834285 85.91183303654319 14.325898474492629
108.72206013559021 86.05290524726321 14.098074938197046
108.86705006532435 86.19772482513974 13.879009686476191
109.0215972047232 86.34601739747349 13.668987220290086
109.18505368230866 86.49745607184369 13.46815586346027
109.35687551395058 86.65171160799824 13.276667746139054
109.5365724663793 86.80843407591047 13.094643726922053
109.72371229761372 86.96725415087421 12.922187698954977
109.9179215962605 87.12778247415858 12.759398893759544
110.118883664132 87.28960813602156 12.606382310283587
110.32633137962185 87.45229928461923 12.463256469654162
110.54003824717248 87.61540560988782 12.330161475963
110.75983754032998 87.77845731430165 12.207316718711361
110.98550676539296 87.94097125226416 12.09484380746255
111.21686026559185 88.10245647626638 11.992937875034443
111.45369915218062 88.26241802558489 11.901801919092316
111.69579808217028 88.4203655980342 11.8216367311465
111.94289467862981 88.5758233490879 11.752629287121353
112.19468241316457 88.72834025114493 11.694940228179592
112.45084145665437 88.87746909131862 11.648792831899057
112.71093122282564 89.0228665150947 11.614173177691319
112.97449371472614 89.16423881114514 11.591065003377954
113.24104070823503 89.30136019696258 11.579395254777673
113.51006167102724 89.43407992513859 11.579017407720714
113.78104672377341 89.56229556768056 11.589778654816866
114.0534717962355 89.68601647766833 11.611366062002235
114.32683273128332 89.80534173160919 11.643365504652317
114.60066629133082 89.92041404025126 11.68535537305005
114.87455250271857 90.03142780033501 11.7368644077265
115.14812314408667 90.1386159610302 11.797380432474755
115.42106140510833 90.24221447190676 11.86641297962768
115.69312098347228 90.34252209360456 11.943328531918068
115.96412026496786 90.43982313985325 12.027510589046894
116.23394204690608 90.53439012643094 12.118333622826668
116.50253339303403 90.62648272450346 12.21515317562403
116.76990260175113 90.71634377595278 12.317309485600767
117.0361155277681 90.80419613571722 12.42412997703902
117.3012886314642 90.89023523572163 12.534941022727635
117.56559065543428 90.97463767337804 12.649044896338353
117.8292358837439 91.05756740572886 12.765720573145533
118.0924654751769 91.1391642633162 12.884260732895868
118.35554205641347 91.21955665775481 13.003958657269775
118.61873925925848 91.29886624848746 13.124113218042458
118.88233074110272 91.37721307756455 13.244034794148401
119.14658588538248 91.45471622718024 13.363040036455883
119.4117425982884 91.53151887939914 13.480482923720844
119.67800448905477 91.60777794613209 13.59575847338429
119.94553529326686 91.68367131806782 13.708303911318868
120.21445096239447 91.75940439202077 13.817609174335386
120.48482495895905 91.83521690426659 13.923197493037824
120.75666197857254 91.91138586236316 14.024691965105232
121.02991161556974 91.988217901956 14.121796824174426
121.30448524435683 92.0660486698149 14.214259488769807
121.58025584526602 92.14523770255876 14.301879072881299
121.85706379148151 92.22616429470136 14.384497011696372
122.13472717346727 92.30923980362917 14.461948866675503
122.41303204373557 92.39485182487576 14.534155948631179
122.69175754691996 92.48339493003334 14.601004032995851
122.97067292543434 92.57525524756066 14.662354639509925
123.24953810740159 92.67080349115888 14.718034533459777
123.52810311457608 92.7703907717599 14.767822629788979
123.8061056054878 92.87434511772697 14.81143915180756
124.08326654221814 92.9829691957319 14.848535652463568
124.35928273720995 93.09654057657477 14.878688953520689
124.63381672254027 93.21531317991922 14.90139814750004
124.90648485740782 93.33951762943656 14.916082325098923
125.17684346291527 93.46936005113014 14.922079726626647
125.44437248454912 93.60501965370688 14.918647219742057
125.70845559956834 93.74664606227083 14.904963305451274
125.96835759905181 93.89435459404861 14.880136903145559
126.22319329239878 94.04822472428002 14.843205521721998
126.47186229980099 94.20831484493303 14.793083353082956
126.71316832646541 94.37451127018912 14.728881577464561
126.94569154819074 94.54663752281455 14.64968336196683
127.16780823839044 94.72439594763573 14.554657287730876
127.37754665426657 94.90738953700362 14.442935931193107
127.57322490761386 95.09488043745237 14.314444794246292
127.75274789316681 95.28608034428966 14.168971025577022
127.91443693529531 95.47994905691185 14.007052725539847
128.05675330086527 95.675348191225 13.829543246002318
128.17864961965563 95.8710817028896 13.637773596995029
128.2796078081901 96.06599075182118 13.433405853042204
128.35952488967 96.25902469756028 13.218222609626205
128.41913626690604 96.44934959713154 12.994208860573337
128.45898343526258 96.63624913196637 12.763025338769976
128.4806439189191 96.81934392907321 12.526433862521602
128.48547635391841 96.9983818828043 12.285817400988318
128.4749217528463 97.1732631637096 12.04233156283778
128.45038011146414 97.34399046764764 11.79690521125924
128.41341589506283 97.51072004451811 11.550284966351134
128.36538480627323 97.67363251034638 11.30301658990347
128.30755392674817 97.83294871326362 11.055498388154115
128.2410950776001 97.98891403579422 10.80800845675353
128.16708573513625 98.14178694884036 10.560728636842226
128.08651676072648 98.29183137313898 10.31376418234995
128.00030360032687 98.43931202230358 10.06715935947532
127.90929940014975 98.58449239674697 9.820909646960231
127.81430967181424 98.72763513511035 9.57497107838393
127.71610639287118 98.86900316950769 9.329267293458676
127.615444715213 99.0088625325992 9.083694298384758
127.5130760532105 99.14748289764472 8.838123914721077
127.40976825222587 99.28514242098714 8.59240605098385
127.30632340014897 99.42213054845375 8.346370752377323
127.20359987556901 99.55875223149769 8.099830234753453
127.10253737217346 99.69533186335708 7.852581597303558
127.00421718996249 99.83222228435517 7.604402095746702
126.90990650860174 99.96981392099765 7.3550591958777805
126.82106552106242 100.10852682184665 7.104336141068657
126.739504039284 100.248826526616 6.85203194258742
LINES 1 276
275 0 1 2 3 4 5 6 7 8 9 10 11 12 13 14 15 16 17 18 19 20 21 22 23 24 25 26 27 28 29 30 31 32 33 34 35 36 37 38 39 40 41 42 43 44 45 46 47 48 49 50 51 52 53 54 55 56 57 58 59 60 61 62 63 64 65 66 67 68 69 70 71 72 73 74 75 76 77 78 79 80 81 82 83 84 85 86 87 88 89 90 91 92 93 94 95 96 97 98 99 100 101 102 103 104 105 106 107 108 109 110 111 112 113 114 115 116 117 118 119 120 121 122 123 124 125 126 127 128 129 130 131 132 133 134 135 136 137 138 139 140 141 142 143 144 145 146 147 148 149 150 151 152 153 154 155 156 157 158 159 160 161 162 163 164 165 166 167 168 169 170 171 172 173 174 175 176 177 178 179 180 181 182 183 184 185 186 187 188 189 190 191 192 193 194 195 196 197 198 199 200 201 202 203 204 205 206 207 208 209 210 211 212 213 214 215 216 217 218 219 220 221 222 223 224 225 226 227 228 229 230 231 232 233 234 235 236 237 238 239 240 241 242 243 244 245 246 247 248 249 250 251 252 253 254 255 256 257 258 259 260 261 262 263 264 265 266 267 268 269 270 271 272 273 274

POINT_DATA 275
SCALARS curvature float
LOOKUP_TABLE default
0.15844514490469983
0.14925205411924788
0.14013659589294195
0.1313671825127593
0.12318982124432822
0.11582604338655036
0.1094706238116043
0.104297713681613
0.10045304414460814
0.09803891637925463
0.0970948246643238
0.09760010438502902
0.09946349389994169
0.1025239681110625
0.10656271850736818
0.11132327325243725
0.11656466092446487
0.12207299842726575
0.12763606044479517
0.133027914017224
0.13804382409439195
0.14253943143925143
0.14641443200776336
0.1496105024641687
0.1521066425590234
0.15391863777827747
0.15506612882218723
0.1555914386165342
0.15561280118732324
0.15528995102278156
0.15476900799653426
0.15415777488931684
0.15356550716016354
0.15313355215994123
0.1529998012114924
0.1532589757614366
0.15396254894320466
0.15513043874773286
0.15673181063680014
0.15870584547703215
0.16094507562915072
0.16331506047856176
0.16565447463815897
0.1677690740298377
0.16949449730397848
0.17071512482296344
0.17136879135626354
0.1714071771658882
0.170823909118161
0.16970230660702784
0.16820782368657536
0.16656501901080883
0.16505932687177707
0.16401124249258744
0.16374179182455798
0.16453552998668877
0.16669123158189414
0.1706146840522551
0.17671159738459258
0.18531008317005823
0.1966193397262861
0.21085710216327505
0.22836075840885975
0.249536214463176
0.27475647658793956
0.3043676397758074
0.3384979650091138
0.3770074526232493
0.41910530984019356
0.46305034011001955
0.5060578319055584
0.5433796501028386
0.5685152739753244
0.5763647125522443
0.5662395245685318
0.5407080820694642
0.5038064253420779
0.46082326304819576
0.41649396367113894
0.37356484941140966
0.3333130348554319
0.29609644362018295
0.26184504310804246
0.23021968407977955
0.20105359550482635
0.17419824181165044
0.14940641458518564
0.12643069718319308
0.10523895551116612
0.0862970226343389
0.07077725182531541
0.06079400791020944
0.05883776998534343
0.06562500120713659
0.07918129351866918
0.09699209282144727
0.1173812277419915
0.1394837406454719
0.1627789016930566
0.18675942741965568
0.2108217628481778
0.23439012888407487
0.2570775309606448
0.2784111925297013
0.297594800766384
0.31377506349147394
0.3265311205645036
0.3357054007111772
0.34133175144302935
0.3434509606980676
0.3423198650206589
0.3382538405870046
0.33163461288106644
0.32306722400590393
0.3131458585489927
0.3021521979168263
0.29019495064208506
0.27749555781128216
0.26450036907514807
0.2515422188211856
0.23872121328659085
0.22606316022505496
0.21371243736959278
0.2018879625684785
0.1907841392959856
0.1805915167759794
0.17149380452496238
0.16364800955706676
0.15714220421078254
0.152035595992214
0.14842213017692993
0.14629855188527494
0.14539131680536693
0.14517889603231543
0.14511977316127908
0.1448040065324336
0.14382794394151996
0.1418013741174873
0.1384129045631374
0.13359038776854992
0.12747123876708
0.12042037057386394
0.11305456441006606
0.10607233248380576
0.10014884253960982
0.0959069404142513
0.09389327647712689
0.09447925771657728
0.09763873631901186
0.10295148505871606
0.10981012072499946
0.11762584297384956
0.12588791612109307
0.13414885331094925
0.1420557660020732
0.1493192866826643
0.15567704774217475
0.16090686712339827
0.16490051233556513
0.16771304000720766
0.16939522130028342
0.16993352365349904
0.16933291031892672
0.1677169473781448
0.16529767132891052
0.16225318067290498
0.15873139587610208
0.1548809739568171
0.15088235390235127
0.14691875928602324
0.1431556415299526
0.13974431341354063
0.1368184266706549
0.13447810123600915
0.13280269665614136
0.13182237975122782
0.13152822288889301
0.1318803005088375
0.13279372479320098
0.1341464624454876
0.13578063013101516
0.13751354560220086
0.13915912196618582
0.14053901940713875
0.1414766101737502
0.1417874440171192
0.14131136760539129
0.1399781758831544
0.13780486384810525
0.13481939714821067
0.13102152462963246
0.12643399595568713
0.12116707960223289
0.11536112249116699
0.10912641895037704
0.1025309984225527
0.0956252908787382
0.08846105723193091
0.08107474491212559
0.07349756016082941
0.06576320517907433
0.05790492188152564
0.04995785179881758
0.041975174551104555
0.034075688172522864
0.0264927156545489
0.019713541718284794
0.014864524053841744
0.013873397704838078
0.01707400380682954
0.022381456220026158
0.02824121378580139
0.034012764366798176
0.039406116415877185
0.044273828636366655
0.04854025556058906
0.05226637561101123
0.05557429540927089
0.05857674839089721
0.061375286877675087
0.06408082796536588
0.0668294399848195
0.06974510752637013
0.07291857169694839
0.07642827068935941
0.08035976920083639
0.0847935165272175
0.08983679066043285
0.09560056316920676
0.10218905489612289
0.10970047306018782
0.11821576408034208
0.12782841616117852
0.13861137034895524
0.15058361261369094
0.1637019317413073
0.17784394178053367
0.19281419360233637
0.20830268921774556
0.22385177594159725
0.23887326495159145
0.252641750333942
0.26431155615974117
0.272839248603603
0.2772994051829389
0.27731005090449956
0.27296245276157693
0.26452398178991365
0.25239158275489376
0.2373788055673364
0.22053203547047298
0.20282433224966873
0.18491548191738438
0.1672761147050171
0.15026682639344727
0.13413148778195136
0.11899815095128276
0.10490697114112826
0.09187987952140624
0.07990931942200019
0.06900371939230493
0.05921334546854555
0.050679111513426876
0.043752490794225427
0.03904443439037838
0.03733758695857894
0.03918335834034871
0.04451303314778715
0.05285157854918405
0.06377064861990127
0.07711422987090166
0.09302261746572622
0.11187848767573853
0.13427518408258898
0.161072203260149
SCALARS torsion float
LOOKUP_TABLE default
-0.1574709649187804
-0.1788208989186303
-0.20286429625058858
-0.2296058489951126
-0.2586677602642957
-0.28922140166466365
-0.3194830364992519
-0.34706788389421533
-0.3686613382847669
-0.3807458584642132
-0.3814825964923606
-0.37048172741893237
-0.34945914677888484
-0.3202604348465871
-0.2855850700996827
-0.24917179327475628
-0.21419841081993773
-0.18162998559200852
-0.15131150686598432
-0.1230834352821338
-0.0974565039405096
-0.07523943806907608
-0.055833315481679885
-0.03936598923775112
-0.025442540415689413
-0.013548383200120749
-0.0033202612575348052
0.005342824225190777
0.0121295643688858
0.01712245601622015
0.021145348564295643
0.024486092605353747
0.026922884609048053
0.02810670348249824
0.027926989014066844
0.026227095287796653
0.022982529493914685
0.017622541221604844
0.009849062926218415
2.399940928127754e-05
-0.011193438542660783
-0.023679902259138835
-0.03847746250947734
-0.055865065660093575
-0.07450941874169772
-0.09275746619327213
-0.1109275242400484
-0.13010406266809346
-0.1507907259374423
-0.1713780896123063
-0.19058295548152746
-0.20847362886177154
-0.2240380906300916
-0.23701493341582358
-0.2460371518351166
-0.25026902894931363
-0.24977942056791436
-0.243293650448678
-0.2309462557159392
-0.21330067455932236
-0.1916893520981502
-0.16801967638191415
-0.1438655531429893
-0.11987951883354361
-0.09662131835221865
-0.07434368428109465
-0.052790913625634685
-0.032217090594529575
-0.011913421047229911
0.007093578550841945
0.025000905864862758
0.042483066132733435
0.05971864719681826
0.07430153304177538
0.08487323211748612
0.09267348505885316
0.09864775481010264
0.10268083361960165
0.10537205063655784
0.10834233009341829
0.11244562017655728
0.11836540864448296
0.1271126487782975
0.14057439974719785
0.16082748014461998
0.19055497299799767
0.23470031669436817
0.3030072803687608
0.4124446480611824
0.5882361722624291
0.8525855087772839
1.145953304116914
1.2350078912546085
1.0217593457636598
0.7330157600753058
0.5181281297924336
0.3816772037006159
0.29585743860771135
0.24017922589466573
0.20253287260266492
0.1764680642738387
0.15778321904924844
0.14301406599387506
0.1299377830021859
0.11744887059181798
0.10512540106676656
0.0930158233756999
0.08052689036105541
0.06834283126812137
0.05655456902196196
0.04613939349377051
0.03761252488730673
0.0315190402616001
0.02852980343275188
0.02860951432443834
0.03221538685382198
0.03939487637502576
0.0493605741645327
0.0621744708044502
0.0780532573330549
0.09760321691714417
0.1212218379174534
0.14767110878352885
0.1773818181544783
0.21016619568746742
0.24584493513848835
0.2834719824864582
0.32061538901953346
0.3555263884697893
0.386248065092669
0.40960867960730907
0.4225035990775976
0.4243165545929034
0.4178368241534644
0.4081468001552639
0.3971296243751381
0.3872413503637007
0.3814430521034886
0.3821889052770828
0.39165774353825794
0.4110895352611542
0.44292911035157295
0.4860844759766958
0.5358109874737776
0.5839360145999279
0.6192184224273544
0.6286318845682017
0.6016458275983066
0.5416177123186585
0.46291148192104364
0.3804876799639323
0.3042213267535106
0.2365961534630782
0.17962646474236488
0.13180538476036005
0.09109373206668138
0.0561097361605517
0.025490524285160878
0.0013693238426040503
-0.017067064244658006
-0.03134385478787822
-0.04249212041308402
-0.050535619629889596
-0.05457641692090145
-0.054593776230110906
-0.05175391293675141
-0.04626826970045619
-0.038337080380764825
-0.02822350381586527
-0.015931602057664255
-0.0029782651239030006
0.010430954874434899
0.024180725605319385
0.03806904912580463
0.05129564240030212
0.06181611113955383
0.06920677238373739
0.07354905048117147
0.07496264185303311
0.07349753848303969
0.06916116986413763
0.0623025531437396
0.053942596917396
0.0444215905719289
0.0339044076489368
0.02248279452929473
0.010366657593061525
-0.0009158272550234125
-0.011376245325247853
-0.021362979319688002
-0.031204087620311488
-0.04052407340785779
-0.04798350857635451
-0.053359773324669596
-0.05661860324136328
-0.05742880897139811
-0.05525810776496372
-0.04925570672354392
-0.03853033027976028
-0.023928335761336794
-0.0035709548105127484
0.025627222552119668
0.06977978193235627
0.13945350210360302
0.2521070286488572
0.45524801852164243
0.8509588896675336
1.493135789524797
1.6779305830708031
1.0830431280577475
0.6264170343480236
0.40358433906617003
0.2972598945746648
0.24710503891416918
0.22670749818034894
0.22209302148331497
0.22212481721346222
0.22329472850766138
0.22427784705926568
0.22384978018054066
0.21846743998176046
0.20504038814990516
0.18447072715757426
0.15899543235822272
0.1300387606952851
0.09946942402802318
0.06884278926179391
0.03990863180881822
0.016040897654282057
-0.0029432537859998198
-0.01714032720889949
-0.027082665524298635
-0.0331551788446763
-0.03478048727400929
-0.03297270578410378
-0.02895718912418353
-0.023453777876563425
-0.016993297060941537
-0.010183351975755622
-0.003047493871889152
0.0036469450229525344
0.009930206911067586
0.015616112648151107
0.02064035671999247
0.024902613592638522
0.027879276029423014
0.029599003407797496
0.030180533615355172
0.029746616960659545
0.02859973806733634
0.02660666817367369
0.02396469637028014
0.020761607442830572
0.016904562472443607
0.012657723448788277
0.00770118487795993
0.002236342935546411
-0.0038512577886685067
-0.011131434155855203
-0.020611109040251374
-0.033404182295660376
-0.05095718882625702
-0.07498263995043039
-0.1062750842448531
-0.14060248113726329
-0.16219750475557015
-0.15622999457316322
-0.1296454360550688
-0.0997410162042358
-0.07541492171912983
-0.05775313225432283
-0.04530847914676101
-0.036543878224111745
-0.030249634659464834
-0.0256467359590843
