# vtk DataFile Version 2.0
00000995.nii_L_ICA_labeled
ASCII
DATASET POLYDATA
POINTS 226 float
100.0327154369351 68.5422297541051 39.60677218530861
99.96874740790217 68.34331886547481 39.39157133000495
99.91331041776729 68.13152261341864 39.1865354851436
99.86650692144633 67.90819023113382 38.99184156796017
99.82825082134414 67.67479799449676 38.807336886986576
99.79829169488396 67.432851495121 38.63256291873606
99.7762480690011 67.18380786394785 38.46680091474078
99.76166458303781 66.9290095455786 38.30914910518852
99.7539580500271 66.66971656435743 38.15848641151643
99.752534456883 66.40702623163425 38.013622452890836
99.75677664811029 66.1419083799815 37.87330037053078
99.766058713566 65.87522118732508 37.73622719376264
99.77975797328325 65.60773128571768 37.601098381646885
99.79726467392503 65.34013563920307 37.466617994294445
99.81799114858555 65.07308248039554 37.33151783030579
99.84138028350931 64.80718980188644 37.19457687361008
99.86691360642129 64.54305948562896 37.05464299868149
99.89412015378889 64.28128775905758 36.91065374835324
99.9225837636573 64.02247557594967 36.76164822216249
99.95193900474833 63.767185271403456 36.60685623543894
99.98189062025443 63.51595544838892 36.44567037664462
100.0122096142022 63.26926738788158 36.27768388227193
100.04273281070216 63.027517382742154 36.102701710050475
100.07336030479652 62.79100756286048 35.92071639033996
100.10404956608453 62.55989543995438 35.731933175486375
100.13480791102583 62.334169933950946 35.53675120305447
100.16568220823633 62.11371187450735 35.33565474152799
100.19674696703511 61.89829554486234 35.12919314280825
100.22809207549865 61.68762461024167 34.917931040947465
100.25981005812707 61.481374970010606 34.702403341551026
100.29198333420429 61.27924010117919 34.48307704269097
100.3246719198304 61.0809729456197 34.260322543132666
100.3579018256152 60.88642147907987 34.034394191978166
100.39165447865473 60.695556021598165 33.805419898614055
100.42585693625743 60.50848863817379 33.573398629012594
100.46037311890946 60.325486377458304 33.338204500801865
100.49499532360663 60.146980303428606 33.099596661023895
100.52943553836079 59.97357418091567 32.857233169869204
100.56331569905635 59.80605418702351 32.61068949091491
100.596155854264 59.6454032124956 32.35948094071585
100.62736022441696 59.49281887965751 32.10309230717521
100.65619963207584 59.3497402221809 31.8410145693767
100.68179684792852 59.217863062849275 31.572803758542147
100.70311814269569 59.09914477270548 31.298159365521887
100.71894650328848 58.99587182796955 31.016993294650188
100.72792321590784 58.91054761952812 30.729593436442872
100.7285791287112 58.845857530356014 30.4367412343369
100.71940034134305 58.804568007174 30.13984430944774
100.69888414752857 58.78947846452065 29.84105395940289
100.66606761010046 58.80233646741873 29.543276466638186
100.6202382283051 58.84464597565219 29.249989251865266
100.5616451101315 58.91616720347461 28.964759044578045
100.49107176810962 59.01594808228703 28.69094582377523
100.41004554581417 59.14182417600899 28.431121727754206
100.32044193916077 59.29127174804757 28.187059963973173
100.22443005972815 59.46135516742417 27.959476630024366
100.12413458208349 59.64952809341019 27.748563954770578
100.02166241205298 59.85342472429285 27.553921065242214
99.91901112466901 60.07097977009349 27.374761185062876
99.818050432775 60.300539502438234 27.210202023471517
99.72054914383769 60.540731384435325 27.05928680535848
99.62818694589262 60.790399263157056 26.92104142569367
99.54256091638267 61.0485334247315 26.794497829208254
99.46517875700818 61.31420379418069 26.67869318799625
99.3974357979817 61.58650274855258 26.572653934326688
99.34057652655812 61.864502323740616 26.47537148551981
99.29564165396289 62.147229431354994 26.385776417344523
99.26340870666293 62.433661924587476 26.302715785262546
99.24433659511129 62.7227458372849 26.224939073273536
99.23852840542588 63.013429926435926 26.151096370353592
99.24571679955561 63.3047085955474 26.07974936642035
99.2652761652174 63.595663465582135 26.009393987559147
99.29625688644649 63.885494499541046 25.93849092289148
99.33743658671166 64.17353535491903 25.86550129236155
99.38737739225945 64.45925190956048 25.78892392824975
99.44448341894731 64.74222702252897 25.707333667295497
99.50705316444296 65.02213676350766 25.619419400328994
99.57333433257222 65.29871142552248 25.523992413577506
99.64153592212821 65.57174280750277 25.420096030320487
99.70991258223435 65.84105146960974 25.307010897989286
99.7768071360536 66.10647765299277 25.18427686040202
99.84069899858423 66.36789197305343 25.051728085174084
99.90025838268328 66.62521041653206 24.909501001618278
99.95438530079987 66.8784071479041 24.7580060666129
100.00225157079397 67.12753937527762 24.597907972849864
100.04338057723616 67.37279026202373 24.430126934640175
100.07757674047384 67.61442397657267 24.255670501783616
100.10493471518406 67.85279370048646 24.075603181929758
100.12580986670132 68.08832044686027 23.890979660323694
100.14078026636582 68.3214635913717 23.70278781129379
100.15060505263057 68.55268759467707 23.51190492726211
100.15618370553324 68.78242779812298 23.31906634447455
100.15851802995292 69.01105932022095 23.12484648435286
100.15867762395892 69.23886951035061 22.929648726855007
100.15776783890087 69.46603678033391 22.733704573135093
100.15689899708653 69.69261456131352 22.53707890283349
100.15715716132819 69.9185222245575 22.33968252029269
100.15957536529898 70.14354148622336 22.14128970050999
100.16508993450397 70.36732523259745 21.94156739745866
100.17451308469269 70.58940838090109 21.74010268217506
100.18849827272876 70.80923220569119 21.536439395874773
100.20751014862255 71.0261773521483 21.330116146236723
100.2318036641434 71.23960485977643 21.120703374812127
100.26141392484561 71.44890307035725 20.907836699508813
100.29616228880072 71.65353466882155 20.691242334311355
100.33569810073067 71.85305398000673 20.470734590556575
100.37947326896192 72.04720850184418 20.246274053846317
100.42684895621541 72.23590370513585 20.017921736887093
100.47714338059455 72.41920657678831 19.785830736069517
100.52968180311203 72.59733951428923 19.550236177071813
100.58384836715781 72.77065593452362 19.31143798831888
100.63913033973805 72.93960973762408 19.06978454339684
100.69515219412493 73.10472182435849 18.82565747239503
100.7517002450079 73.26654639198858 18.57945818336
100.80873671323613 73.42564215619772 18.331597947109525
100.86640330756028 73.58255484671736 18.082494502710077
100.92501823612409 73.73778362480192 17.832558529774143
100.98506408270516 73.89177180241306 17.582195223055912
101.04716855004871 74.04489586396737 17.331804520097137
101.11207984045247 74.1974574216614 17.081783437140338
101.18063537616129 74.34967862137533 16.832530001419286
101.25372639057983 74.5016995784506 16.584447483665183
101.33225842145603 74.6535786375086 16.337947845417457
101.41711039108884 74.80529506606555 16.09345294077871
101.50909447782962 74.95675503117543 15.851392648311961
101.60891964405391 75.10780088598013 15.612199256043235
101.71716243588055 75.2582238694219 15.376298667330635
101.83428015734829 75.40777569558485 15.144114190214292
101.96051586268155 75.55619477844095 14.91601895858486
102.09595976436654 75.70322119293584 14.692348046542678
102.24056936054926 75.8486120784166 14.473396484539524
102.39417892762265 75.99215773653597 14.259412754833196
102.55652568577781 76.13369325646052 14.050602238895848
102.72727745677244 76.2731062380975 13.847134953035708
102.90605945855667 76.4103406252238 13.6491567744191
103.09247782644842 76.54539672765857 13.45680229468379
103.2861388681416 76.67832811505558 13.270208162453233
103.48666312195084 76.80923582316248 13.089525127666453
103.6937027575459 76.93825832183202 12.914936504913861
103.90692062523013 77.06556944899985 12.74664074248164
104.12601841154944 77.19135960758294 12.584880434656673
104.35072581780565 77.3158263905685 12.42993572076502
104.5807964341295 77.439161461775 12.282121655932524
104.8160027612513 77.56153647823183 12.141782654465361
105.05613041265266 77.68308859197278 12.009283274487572
105.30097158355893 77.80390702844787 11.884995102090192
105.55031850252209 77.92402135684004 11.76927965542833
105.80395712155207 78.04339345967199 11.662467739536048
106.06166199218795 78.16191371907344 11.564835996186497
106.32319292649905 78.2794029730045 11.476582678872246
106.58829414748945 78.39562007989176 11.397804559990728
106.85669630925219 78.51027546284493 11.328478945781393
107.1281339374648 78.62303870469586 11.268494966708843
107.40231037991299 78.7335878052591 11.217520235243098
107.67894769632304 78.84160756848266 11.175137807413142
107.95777902013407 78.9468172595566 11.140823690358372
108.23855292064064 79.04898959983046 11.113970463279884
108.5210363415348 79.14796512337449 11.093918332129379
108.80501513812429 79.24366235705277 11.07998854569289
109.09029272789982 79.3360833488711 11.071516743564258
109.37668705676361 79.42531600264176 11.06788377765636
109.6640272238986 79.51153149594354 11.068544188639692
109.95214820980281 79.59498432658047 11.073043543453993
110.24088480801245 79.67601629152004 11.081019995112586
110.5300712577029 79.75503833221906 11.092226605161288
110.81953586472862 79.8325306586166 11.10651763396104
111.10909791251888 79.90903587236062 11.12383598484483
111.39856542793096 79.98514998270623 11.144191906571407
111.68773379786255 80.06151163985467 11.167636200558123
111.97638584638862 80.13878900015825 11.194228005101738
112.26429366412347 80.21766480484132 11.224000240423031
112.55122274566284 80.29881970068628 11.256924550399109
112.83693853689928 80.3829146452141 11.292878500892954
113.12121508582159 80.47057304649658 11.331618337076618
113.4038450869035 80.56236357306209 11.37275869188934
113.68464611447722 80.65879406989407 11.415764653012303
113.96347644862266 80.76027997292142 11.459941347808686
114.24024055591119 80.86713312132245 11.504450359957794
114.51488328420673 80.97957279093606 11.548329247383709
114.787389062646 81.09771469122306 11.59051112982178
115.05777352864078 81.22157073599743 11.629850244404166
115.3260709636904 81.35105182870456 11.665149716229612
115.59231898327992 81.48597274424246 11.695189325475942
115.85654135310166 81.62605954321462 11.718753176426748
116.1187306910442 81.77095870078385 11.73465646145223
116.37883208053829 81.92024857060154 11.741771215495966
116.63672827226853 82.07345387234281 11.739046726407846
116.89222293802634 82.23006621328237 11.725505644917355
117.14505515034347 82.38953434338603 11.700359190701455
117.39487721734113 82.55131399051162 11.662926419121717
117.64126492742828 82.7148727671963 11.612675539622684
117.88372524980244 82.87970574776092 11.549228724083191
118.1217074957129 83.04534835865779 11.47236117296704
118.35461679950353 83.21138550001884 11.381994454731355
118.58182862848294 83.377456446887 11.27818524542585
118.8027032680835 83.54325522169748 11.161110546165222
119.01659918910688 83.70852731132162 11.031051190184263
119.2228784535839 83.87306253458878 10.88836535638359
119.42091594650338 84.03668674091423 10.733476747004085
119.61014570673932 84.19925780811248 10.566909562873072
119.7900180252389 84.3606518691682 10.389203070497143
119.96002148117809 84.5207576634272 10.200930456418238
120.11968604667953 84.67947061588845 10.002690537371812
120.26858505042094 84.83668818517258 9.795100876669384
120.40633593119358 84.99230629082099 9.578791794874562
120.53259990611463 85.14621646309035 9.354401017448518
120.64708051579622 85.29830332948737 9.122568717507303
120.74952133158423 85.44844217500984 8.883933054811662
120.8397034024188 85.59649641113391 8.639126424174723
120.91744282807139 85.74231496621704 8.388772476090695
120.982589248482 85.88572984526695 8.13348410402582
121.0350252500704 86.02655404705584 7.873862127922226
121.07464872427393 86.16457609396085 7.6104901676076615
121.1014080519813 86.29956676006867 7.34394514672818
121.11530820021666 86.43128295522033 7.074794409892063
121.11637101631246 86.55946043477776 6.80358660027738
121.10465357103632 86.68382127564753 6.530857385795096
121.08024645508166 86.80407770577649 6.2571298161766915
121.04327071274015 86.91993590311435 5.982914918990411
120.99387375247846 87.0310993813027 5.7087126779860515
120.93222451774007 87.13727146270352 5.435013432613421
120.85850857039284 87.23815691465826 5.162299823853201
120.77292386935825 87.3334626944923 4.8910491361993085
120.67567765757565 87.4228981945376 4.621735953214454
120.56698515092788 87.50617526463962 4.354834743693471
120.447069719391 87.5830083421347 4.09082221982852
LINES 1 227
226 0 1 2 3 4 5 6 7 8 9 10 11 12 13 14 15 16 17 18 19 20 21 22 23 24 25 26 27 28 29 30 31 32 33 34 35 36 37 38 39 40 41 42 43 44 45 46 47 48 49 50 51 52 53 54 55 56 57 58 59 60 61 62 63 64 65 66 67 68 69 70 71 72 73 74 75 76 77 78 79 80 81 82 83 84 85 86 87 88 89 90 91 92 93 94 95 96 97 98 99 100 101 102 103 104 105 106 107 108 109 110 111 112 113 114 115 116 117 118 119 120 121 122 123 124 125 126 127 128 129 130 131 132 133 134 135 136 137 138 139 140 141 142 143 144 145 146 147 148 149 150 151 152 153 154 155 156 157 158 159 160 161 162 163 164 165 166 167 168 169 170 171 172 173 174 175 176 177 178 179 180 181 182 183 184 185 186 187 188 189 190 191 192 193 194 195 196 197 198 199 200 201 202 203 204 205 206 207 208 209 210 211 212 213 214 215 216 217 218 219 220 221 222 223 224 225

POINT_DATA 226
SCALARS curvature float
LOOKUP_TABLE default
0.22038085208673078
0.21191583534992686
0.2006644113227548
0.18707415641600125
0.17169246419989231
0.1550741563541615
0.13772170523913443
0.12006630373230859
0.10247202672648269
0.08530705052598193
0.06902407109041028
0.05440803175945144
0.04294183216780855
0.037135999718490714
0.03883304817905859
0.0463745002880328
0.05655899120166149
0.06719731218850013
0.07705087441427853
0.08538188480734508
0.09169149284332256
0.09569077575382144
0.09725108672165732
0.09645925565745897
0.09358220535048452
0.0890971359306716
0.08356451323514336
0.07760502014617923
0.07179056768893406
0.06660155674568041
0.06237125535568157
0.05931728298812131
0.05761969287672335
0.05751293108112748
0.05935172591162973
0.06354549329592347
0.07047620968272168
0.08036339674512763
0.09330074313662447
0.10925683370526999
0.12818801857156545
0.1500053457358696
0.17460007998404342
0.20173592321570763
0.23097738910407162
0.2615059205821824
0.2919818437967117
0.3204481357927034
0.34432146509371725
0.3609381964044217
0.3680668745418522
0.36496292381317297
0.35238690734477424
0.33249392295997776
0.30815009846023994
0.28212769852403974
0.25668025512101866
0.2334381841808315
0.21348066117199604
0.19740810762661448
0.1853936196813941
0.1772083332034257
0.17223437048324028
0.1695597901780018
0.1681243621313013
0.16684256473793443
0.16474604105642232
0.16107906101147293
0.15544893475446311
0.14779373535971707
0.1384475132347209
0.12808291828419857
0.11773165675002654
0.10865471264325391
0.1021820190186674
0.09932172416236829
0.10033743817365444
0.1045703704848684
0.11069787835145056
0.11725378841100263
0.1229473465928776
0.12678979215332645
0.12812009838084512
0.1266023976070669
0.12218843307000084
0.11510337788574937
0.10572427888685612
0.09453828891545545
0.082056115417659
0.06875866135274761
0.0550690313000372
0.04134977326239489
0.02801864909300108
0.016068971559490972
0.010749932146331761
0.018244743538567483
0.029654707891452144
0.04135426960356157
0.05254683318847263
0.06282151343409484
0.0718021124922841
0.07916547818048025
0.0846016282899468
0.08792744978015075
0.08903810909105903
0.08801070642894691
0.08503002700547603
0.08041228687483418
0.07449024979856575
0.06762963082546869
0.060140057988854675
0.05228542244346993
0.04428474243453871
0.036388412692681935
0.02906588724860361
0.023386383671417474
0.0214427279883591
0.024790666200486363
0.032273838936218976
0.04194411262297439
0.05260553561999683
0.06354112654024496
0.07423740433866922
0.08427401507738042
0.09328945570394301
0.10100398209504058
0.10721170787404985
0.11180987615584823
0.11479466443212197
0.11626367564238567
0.11638375552458549
0.1153863949624017
0.11353678981354885
0.11112226819014144
0.10842623017987094
0.10572207329322957
0.1032517801728902
0.10122444743811386
0.09980240933613867
0.09909537882675357
0.09915331891922019
0.09996295496967544
0.10144349564114222
0.10345348300916428
0.10579401088589128
0.10822732686427314
0.11048998493437769
0.11231250969227663
0.11344327502625738
0.11366072134047862
0.11281455149469752
0.11081585560221109
0.10766068050918558
0.10341751378039918
0.09824123197091941
0.09232277363757631
0.08589783108195027
0.07919306926959899
0.07242236782969304
0.06575964677435282
0.059332619412525885
0.05324797772691536
0.04759852288847015
0.04254733541491443
0.0383434680903246
0.03538712385822539
0.03409461265478217
0.03470753068900518
0.037051475646057555
0.040616859216728314
0.04478432230305416
0.049013425115975895
0.052932060254888995
0.05633490589852884
0.059212626969437035
0.061713013110791595
0.06414522322101208
0.06689393852561586
0.07035685420632563
0.0748316111962663
0.08045989272521233
0.08719722284447073
0.09485495525862035
0.10314369473762447
0.1117375915133983
0.12030451042289865
0.12854343036754337
0.13618741605036186
0.14303221476935768
0.14892983762191542
0.1538016251410717
0.15763066962700228
0.16046148127832524
0.16238512648906198
0.16352791835694225
0.16403148003734436
0.16403883977222197
0.16367948946862315
0.16306242955496345
0.1622722592240552
0.16136881094892008
0.16039237291976113
0.15936888965630464
0.15831944402021497
0.1572630843573008
0.15622325036349233
0.155225992230899
0.15429464139064955
0.15344865836327157
0.15269273992467242
0.1520220373880015
0.15141815882585444
0.15085764666774087
0.15031637406955473
0.14977479830303495
0.14922378079743695
0.14866445609338289
0.1481136639774786
0.1475987087660035
0.14715854664348368
0.14683610724055488
0.1466712902190725
0.14669792227461806
0.1469330709693224
0.14738289953557876
0.148038485103446
SCALARS torsion float
LOOKUP_TABLE default
-0.040727345067043674
-0.048770630609974684
-0.0586323771175111
-0.07083644980268973
-0.08625197821082216
-0.10617248345157511
-0.13301666011510527
-0.1709995484936028
-0.2280033218798986
-0.3189534461685975
-0.47283871403678457
-0.7395372302630834
-1.1519017522900832
-1.4845343684215042
-1.295306869429474
-0.8494509931448114
-0.5189979784030555
-0.32159492325965633
-0.20371669332731157
-0.12913854872743477
-0.07912471426969499
-0.043562424570392076
-0.016802400918131496
0.004544723835126255
0.022589336607254838
0.03844018414823678
0.05230279484040897
0.06325112139090629
0.06879962716922605
0.06568743017122199
0.05043976268654573
0.02137203534915654
-0.019691639229345193
-0.06717939596931781
-0.11079855631279163
-0.14182702614164708
-0.15486798345902367
-0.1533559528184958
-0.1426262259827825
-0.1291005487810269
-0.11551052555724049
-0.10386536918785257
-0.09387814441580526
-0.08566912236052897
-0.07815364261293352
-0.07096066610502881
-0.06296012535732985
-0.05353963216026929
-0.04152652596980523
-0.026309633925732427
-0.00749010883969042
0.015345848666617451
0.04235873713629779
0.07347625460999288
0.10861957298388587
0.1477673590549219
0.19106211590711036
0.23696258280766114
0.28294169573953115
0.3246814979510582
0.3569190150424825
0.3758378739000183
0.3801994840667485
0.3738442184723119
0.3615878190239556
0.3495191425695217
0.3421857068864809
0.3440571493449404
0.3582596347181093
0.38790468321105176
0.43623256456032516
0.5054913907423135
0.5943732471635736
0.6916139388397153
0.7708021233583819
0.7984888731882187
0.7583884566240854
0.6699075739561582
0.5662943414929023
0.47224950451271586
0.3958108749400541
0.33796975825542225
0.29525392580809867
0.2647547068728031
0.24308549815527228
0.22782719963681491
0.21631712310352963
0.20609231587181712
0.19300793469998676
0.17118231667448228
0.1258756719518019
0.021962637847127434
-0.2744847504207595
-1.4054323932195372
-3.4766374334840773
-1.0177877623032163
-0.20403759155901308
0.03290864526873479
0.12724923566644852
0.1710473027988594
0.19467084216777833
0.2081025509986249
0.21714336634417455
0.22363327736789831
0.22920444312303234
0.23363517500166817
0.23664190766071858
0.2362518344589741
0.23047124875826042
0.21453613725814807
0.18315817457537392
0.12475440216316881
0.02228529189620187
-0.16309611463332915
-0.49691383934194
-1.0264290286669646
-1.383322020114831
-1.0547336270839267
-0.580658367539134
-0.29312498134583964
-0.14312062936726178
-0.06416691613152604
-0.02156116296687033
0.0018209942301664636
0.014595129119931341
0.021081787767075956
0.02364202801151425
0.02333922116734305
0.02071356539566012
0.01582695973960321
0.008613197602803232
-0.0011981228127377391
-0.013626344692795424
-0.02885002401800292
-0.046227617416007394
-0.06538731597126961
-0.08467228197353344
-0.10291359424269098
-0.11770531717781883
-0.12764377342546657
-0.13081304836684246
-0.1268457266828415
-0.11566158649345372
-0.09836146828803068
-0.07663866031422263
-0.05191227881098906
-0.026183390044855696
-0.00012348131556398894
0.02489370481058681
0.048930063260561006
0.07110116233730543
0.09177796513962964
0.11038648854953671
0.1269879268832126
0.14055569632488063
0.15038386465074133
0.15475034050522407
0.15151912331169837
0.1374626081066377
0.10857288259665542
0.059802610694019126
-0.014260876053787938
-0.11929183897010338
-0.2582384935976366
-0.4252531985434569
-0.5920909364529803
-0.7051992889634967
-0.7220782388755731
-0.6594052723643727
-0.5711393709503174
-0.49783462019431945
-0.4527013540451257
-0.43610122390078826
-0.44175043558798255
-0.46443883124411645
-0.49555219984978965
-0.5273390059170345
-0.5489172893238016
-0.5525768473615411
-0.5338017845863836
-0.4953541830179093
-0.44364047279971297
-0.38635177483846356
-0.3293609854477541
-0.2758311300035252
-0.22737996674755856
-0.18370948448865723
-0.14495440644672636
-0.10993694805892293
-0.07876212369552246
-0.050416361520446804
-0.025299096053644374
-0.002778248538245852
0.01659033423003168
0.03311574955813701
0.04646154915924318
0.05678640394144968
0.06420600064580843
0.06887596987857056
0.07132719787678199
0.07174874705550371
0.0707652645076788
0.06852187708450508
0.06544049208874891
0.06156607958216016
0.05706844539957334
0.0519082903568798
0.04610136411799211
0.0396176912203511
0.03250258098793336
0.02483295712417244
0.016829614473376272
0.008697569758534042
0.0008545652767615681
-0.006494036689240269
-0.012989083951801254
-0.018538254273837537
-0.023004198719269866
-0.02642381665276707
-0.028864233919388624
-0.03043922255039091
-0.03131789940816201
-0.03164083490957659
-0.0315958310858021
-0.031286534875324255
-0.0308346870288761
