# vtk DataFile Version 2.0
00003773.nii_L_ICA_labeled
ASCII
DATASET POLYDATA
POINTS 280 float
115.08729259377267 81.1708174001115 44.63032289859839
114.87421549110061 81.35399188252264 44.525281135079716
114.65394884622792 81.52794520794777 44.419401558451966
114.4267239896197 81.69199114529363 44.31243023046689
114.19270722445398 81.84522490570481 44.20407901445092
113.95208956007713 81.98655199119975 44.09401739405142
113.70524807141015 82.11493607382239 43.9819098613115
113.45269760055614 82.22934061766475 43.86741824305196
113.19506621623701 82.32864162903172 43.75019295990947
112.93314347659003 82.41169818466967 43.62989052199701
112.66789937070399 82.47737568785527 43.50618400086081
112.40052019675007 82.52490855408324 43.37884069932326
112.13231241221128 82.55365874643545 43.24767614368314
111.86470133952562 82.56309536075324 43.11254237509203
111.5991662995472 82.55323105292258 42.9734050466568
111.3370991179269 82.52463951685985 42.830330264524655
111.07985765345944 82.47785324463504 42.68333590114653
110.82850264108693 82.41417696000998 42.53254700541118
110.58386987573724 82.33504863667359 42.3780520534465
110.34666032456921 82.24186597088968 42.21985087876679
110.11726013160859 82.13630675543526 42.05794309937031
109.89586967627875 82.02001823860974 41.89227263504968
109.682607316314 81.89450773271426 41.72270818293752
109.47751652292975 81.76118153263435 41.54907117605678
109.28061000413453 81.62132217886058 41.37114785077522
109.09190741994465 81.47607631518886 41.18870448520093
108.91146561976518 81.32645220299719 41.00150245457505
108.73939971121247 81.1733263622786 40.809311823285185
108.57589781082822 81.01745199080855 40.61192475244631
108.42123157036957 80.85946251188885 40.40917196324572
108.2757634070755 80.69986907594947 40.200942621828645
108.13995823407389 80.53905858674186 39.98719807808481
108.01436565955687 80.37730547732949 39.76799219921934
107.89962189412238 80.21478183775908 39.54347621543634
107.7964411935074 80.05156350202842 39.31391264045702
107.70560282378014 79.88763108902164 39.0796934763731
107.62793535008379 79.72287585208456 38.8413545330405
107.56429649500136 79.55712137201176 38.599579171772696
107.51554778369473 79.39015337458797 38.3551964120336
107.48252181724035 79.22175259055625 38.10917508202222
107.46598254733925 79.05172947193913 37.862610961861606
107.466696230228 78.87994949989297 37.61671445196021
107.48513705171047 78.70639951615014 37.37276464176855
107.52153702305061 78.53121325620351 37.132029577033954
107.57598306403571 78.35468443078193 36.8957227501336
107.64832886776041 78.17728919380389 36.66492912710443
107.73820155056336 77.99968274426465 36.440541130442675
107.84510663269295 77.82268745605131 36.223246564111626
107.96823661047716 77.64725584879751 36.013397997976355
108.1067335013743 77.47443731854602 35.811093648398376
108.25972165166138 77.30536424504092 35.616196060937774
108.42631977676768 77.1412369339555 35.42835315001367
108.60567146450539 76.98332005567133 35.247040721443156
108.7969622838918 76.83295329633643 35.07160560284131
108.9994235987167 76.69157082458099 34.90131040183251
109.2123202658789 76.56073074930381 34.73537278196043
109.43492157250988 76.44214917013791 34.57300074102285
109.6664555815681 76.33773390741369 34.413427377349535
109.90604783588566 76.24961924174025 34.2559473174835
110.15264377707426 76.18019925685883 34.09996102993801
110.40490959130354 76.13213846300032 33.94503462837891
110.66111485740569 76.10832882012652 33.79098180284053
110.91899807853348 76.11226876284573 33.6379918452988
111.17557749692946 76.14674640452607 33.486707561025625
111.42703917153453 76.21503427250218 33.33841466025889
111.66890028085055 76.31895342135849 33.195000943773614
111.89609661447108 76.45947752923215 33.05903670996433
112.10357390094795 76.63570519607401 32.93355565757829
112.28689746525005 76.8448365860473 32.82172690321807
112.44297474383345 77.0823115273801 32.72635240839189
112.57030982047175 77.34259716975004 32.64957483530118
112.66899904188591 77.61990710979323 32.59272708576974
112.74044620619067 77.90881557408893 32.55633614542649
112.78639939503172 78.20471747639185 32.5407177160188
112.81000598729689 78.50363636566495 32.544945016315324
112.81359444691863 78.80257610259764 32.56867683177592
112.80033222038077 79.09925035857886 32.61059258915302
112.77289876254306 79.39203302906031 32.669615678963076
112.7338416151479 79.67981966460171 32.744584246201335
112.68554639957543 79.96194852350524 32.83427725283127
112.63021824692802 80.2381292631695 32.93743864827105
112.5698762667057 80.50837901808387 33.052795974034915
112.50635704207451 80.77296645323483 33.17907207648885
112.44132681534383 81.03236461056136 33.31498980618762
112.37630002758999 81.28721045835907 33.45927376867302
112.31265951653737 81.53827220311595 33.610644097344704
112.25171326664103 81.78640504662208 33.767844900615934
112.19463669457983 82.03260405315257 33.92947759103942
112.14249981092884 82.27790625316842 34.094114288888726
112.09631310606471 82.52337898200491 34.260264548133094
112.05702885770333 82.77010651707064 34.426327735511464
112.02554030260453 83.01915753962595 34.59056823336522
112.002664472681 83.27154230709438 34.7510957280072
111.98911403790709 83.52816088433659 34.905855196964445
111.98547227150576 83.78974797813736 35.05262611343072
111.99216765595739 84.05681278166641 35.18903893476416
112.00943501195195 84.32957358589579 35.31262352704612
112.03726273975172 84.60789856660497 35.42089711042424
112.07534882724342 84.891273589654 35.51147485929076
112.12309036436343 85.17880986201448 35.582166213186255
112.17970730695595 85.46930091824966 35.63073200455711
112.24393768411505 85.76117026145381 35.655824658187704
112.3143926650143 86.05267985391247 35.65637759450772
112.38958783358704 86.34192400469259 35.63138611623124
112.46783027274907 86.62698264824238 35.58080943876988
112.54744387888982 86.90598231892706 35.50490935832173
112.62676819044466 87.17695701657956 35.40381065459648
112.7042014781381 87.43821767740633 35.278568156319785
112.77826816794617 87.68817841851752 35.13032833873031
112.84754840173771 87.92520961313889 34.96015238802691
112.91085514866087 88.14808571802665 34.769728035085166
112.9672021014669 88.35580621379061 34.56086874296549
113.01577467195169 88.54754062042382 34.335414397934564
113.05589824427881 88.72258794276054 34.09519987778552
113.08733311927314 88.88095160476176 33.842438515063215
113.10996546834241 89.02274139858007 33.57910820643229
113.12388805242232 89.1483595830125 33.30709510986475
113.12937341137132 89.2584682729313 33.028138467512996
113.1268418718426 89.35394736191418 32.74379047058978
113.11682815807363 89.43584875474201 32.45539275113954
113.09993652904058 89.50533307262589 32.164065105153
113.0768349453307 89.56367642724626 31.870721197202283
113.04818440293666 89.61215725241287 31.576069159850867
113.01462706450506 89.65204877350403 31.280644161438524
112.97679330409716 89.68464236238196 30.984837787326335
112.93527350343282 89.71120734479044 30.688920531379583
112.89061001485018 89.73298688290996 30.393068156916282
112.84329022567945 89.75119570128112 30.09738591483589
112.79373967450442 89.76701786777153 29.801930773456466
112.74231617794217 89.78160473173558 29.506731623359887
112.6893110351936 89.7960754321596 29.211806476966245
112.63495449035948 89.81151707885546 28.917176912168568
112.57942124767717 89.82897914577205 28.622880328987762
112.52283696756217 89.84946032527341 28.328979587615695
112.46528174875354 89.8739153927332 28.035572590737104
112.406817593242 89.9031866634644 27.742788209473176
112.34749840468885 89.93802372422442 27.450787624466127
112.28739234144638 89.97906843862539 27.159757467916606
112.22660288234698 90.02683265101436 26.869897840949836
112.16528697808597 90.08168319452406 26.581407149299135
112.10366840686532 90.14383690992673 26.294465980436723
112.04204965246981 90.21340809419269 26.00923237259274
111.9808175535445 90.2902974406398 25.72580018109037
111.92043763276399 90.3742872790727 25.44420623115366
111.8614557375053 90.46507133280899 25.164429922791957
111.80449240188067 90.56225512040479 24.886390063623402
111.750237050125 90.66537608682357 24.609951376696063
111.69944083887059 90.77392280508812 24.334936077449782
111.65290935052502 90.88735155500027 24.06113914695954
111.61149695041392 91.00509881682021 23.788345521633982
111.57610159507993 91.12659029759901 23.51634870408029
111.54766055277248 91.25124663099723 23.24496989196371
111.52714541250577 91.37848620068446 22.97407725435428
111.5155547529833 91.50772623057571 22.70360521784528
111.51390273390227 91.63838422804243 22.433573872201848
111.52324127825808 91.76988250473406 22.164110728461115
111.54453097348005 91.90164660027581 21.895462342196918
111.57871451426952 92.03311688093163 21.62800890825358
111.62666579159507 92.1637461581224 21.362268240963235
111.68915835929222 92.29300775219204 21.09889629581488
111.76682577177718 92.42041235400177 20.838680721572377
111.8601260414053 92.54552744307263 20.58252453304753
111.96932375631108 92.66798855394721 20.331420285041382
112.09451850033024 92.7874985878902 20.0864346450282
112.235650166394 92.90383189127022 19.848691937189432
112.39225369978816 93.01689723029251 19.619208274334312
112.56379017791649 93.12667908345855 19.39899543849322
112.74956241922163 93.23325109337533 19.188990371040628
112.94875026757585 93.33676195653544 18.990037366167495
113.16044204119889 93.4374207743839 18.802876176059872
113.38372152096879 93.53546958973838 18.628208174709673
113.6175143175813 93.6312087293519 18.466495316192773
113.86077282216418 93.72494363113594 18.31812019566039
114.11247482852886 93.81697476875165 18.183387391315577
114.37161627960346 93.90759073284899 18.0625082085059
114.63722048313994 93.99705913480062 17.955605853615296
114.90834489654628 94.08561993793414 17.86271897507475
115.184086474616 94.17348143766051 17.783803672119916
115.4635865465185 94.26081814862442 17.71873419589201
115.74603548752135 94.34777246594412 17.667304798053696
116.03067739621244 94.43445790954875 17.629232164843597
116.3168147273039 94.52096257095161 17.60415647070879
116.60381337675446 94.60735277500149 17.59165400114703
116.89110515150132 94.69367793305251 17.591223904043183
117.17819453990604 94.77997726203824 17.602254341793962
117.46466229497358 94.86628649239061 17.624104026235837
117.7501642348872 94.9526434957902 17.65608173847121
118.03443095100022 95.03909218373303 17.69745298053898
118.31726603952667 95.12568589241884 17.747447414324572
118.59854204409316 95.21249033918333 17.805270066700057
118.87819421808508 95.29958579603682 17.870113799409456
119.15621330058906 95.38706754080778 17.94116956745459
119.43263791008081 95.47504487663379 18.01763412796506
119.70754662047536 95.56363933614013 18.098716353307836
119.98105003346541 95.65298191866857 18.183642578393332
120.25328279250907 95.74320984202187 18.271661722805206
120.5243961402845 95.83446266880601 18.362049333880538
120.79455118721077 95.92687803933721 18.45411076641501
121.06391256842907 96.0205891636916 18.5471830104654
121.33264421044132 96.11572418308279 18.640630479544633
121.60090966234412 96.21239146592532 18.733844384512963
121.86886224978511 96.310693007555 18.826244905255134
122.13664512627314 96.41072007463121 18.917274504403924
122.40438864493429 96.5125551008651 19.00639400687428
122.67220768655552 96.6162755512876 19.093077383904024
122.94019882973973 96.72195853575478 19.1768061895246
123.2084368883138 96.82968620647709 19.257064421987646
123.47697090787167 96.9395515117576 19.333333475769077
123.74581937240353 97.05166399648671 19.40508790644144
124.01496445979085 97.16615561157131 19.471792271367665
124.2843459556071 97.28318530825346 19.532898394911694
124.55385542751438 97.4029402040609 19.587844452429547
124.82333023064584 97.52563496247494 19.636055389241356
125.09254693555854 97.65151020764036 19.676945760644806
125.36121440447293 97.78083006821313 19.709925196196956
125.62896404087314 97.9138885165345 19.73438043205863
125.89535182640707 98.0509750813256 19.749739248069776
126.15985485181055 98.19237892649754 19.75544250609059
126.42186951672788 98.33837828886298 19.750952814653534
126.68071517520136 98.48922428189914 19.735779052807334
126.93564027321848 98.64512874677129 19.709491646221885
127.18583159247498 98.80625261053012 19.671732281161418
127.43042681015248 98.9726945467287 19.622222656987315
127.66853150313838 99.14448023540217 19.560775649661192
127.899240243586 99.32155396698673 19.487306292869
128.12165757049638 99.50377565736744 19.401835675815985
128.33487619903428 99.690941572131 19.304440112644947
128.53807129772898 99.88274462879617 19.19534743376804
128.73049748499923 100.07880002263558 19.074886499859037
128.9114519072919 100.27867173908956 18.943424638763247
129.08030691756525 100.48186738086306 18.80138776146636
129.23651045695962 100.68784816772721 18.649245371369062
129.37958416281108 100.896037373618 18.487497157049884
129.50912164200972 101.10582678036525 18.316662444312545
129.62478745324066 101.31658166747393 18.13727203898699
129.72631635683678 101.52764536421225 17.949862066764965
129.81343188337368 101.7383379663228 17.754930517979002
129.88608638744768 101.94797047627696 17.553055537639914
129.94423839955536 102.155850094708 17.344772437159893
129.9879230576397 102.36128574487503 17.13061091055198
130.0172643901046 102.5635985359934 16.91109722721077
130.03248533076672 102.76213515083973 16.68675378734351
130.033915277111 102.95628346774186 16.45809656708636
130.02199012022922 103.14548879058705 16.22563019555874
129.9972477356504 103.32926962216362 15.98984214076718
129.96025997094014 103.50720024748252 15.751184149634035
129.91181255438406 103.6790184358265 15.510109171603975
129.8527227936555 103.84456028335053 15.267022581324678
129.7838483333919 104.00376950823059 15.0222842310076
129.7060773150126 104.15669879403077 14.77620710720817
129.6203073623407 104.3035026952226 14.529056625150357
129.527427838018 104.44442928604661 14.281052860275604
129.42830375244876 104.57980682371605 14.032373253165837
129.32376078714557 104.7100245519366 13.783155306849032
129.21457243213197 104.83551272173874 13.53350121161304
129.1014494700588 104.95672422121037 13.283484433131832
128.98503166612977 105.0741178150617 13.033157138030834
128.86588364833784 105.18814293051861 12.78255651587961
128.74449436873917 105.29922571538474 12.53170934325627
128.62127633498122 105.40775567883138 12.28063585892328
128.4965614888464 105.51406963395142 12.02935302194893
128.37060832229375 105.61845467358047 11.77787899557349
128.24359172817807 105.72112463003889 11.526233702245761
128.11561063162665 105.82222194659967 11.274440351103152
127.98669162535774 105.9218148837075 11.022525966279401
127.85679322750043 106.01989689210093 10.770521967014439
127.72581057448122 106.11638706740676 10.518464802310945
127.59358149515793 106.21113273992732 10.266396866775162
127.45989402245134 106.30391407022168 10.014367810402682
127.32449479167634 106.39444991322195 9.762436341107177
127.18709858877665 106.48240578148285 9.510672652400277
127.04739838757615 106.56740258869723 9.259161171176297
126.90506430120303 106.64901134626706 9.00800525536483
126.75976644529 106.72677858025936 8.757329100684085
126.61119636049497 106.80025113643477 8.507277566802118
126.4590480310072 106.86894911783305 8.258023079634095
126.30303651155695 106.93238783874624 8.009766073308784
126.14290495692626 106.99008529854711 7.762736024989888
125.97843109509559 107.0415696956311 7.517191449439221
125.809433342461 107.086387552119 7.2734186049823
LINES 1 281
280 0 1 2 3 4 5 6 7 8 9 10 11 12 13 14 15 16 17 18 19 20 21 22 23 24 25 26 27 28 29 30 31 32 33 34 35 36 37 38 39 40 41 42 43 44 45 46 47 48 49 50 51 52 53 54 55 56 57 58 59 60 61 62 63 64 65 66 67 68 69 70 71 72 73 74 75 76 77 78 79 80 81 82 83 84 85 86 87 88 89 90 91 92 93 94 95 96 97 98 99 100 101 102 103 104 105 106 107 108 109 110 111 112 113 114 115 116 117 118 119 120 121 122 123 124 125 126 127 128 129 130 131 132 133 134 135 136 137 138 139 140 141 142 143 144 145 146 147 148 149 150 151 152 153 154 155 156 157 158 159 160 161 162 163 164 165 166 167 168 169 170 171 172 173 174 175 176 177 178 179 180 181 182 183 184 185 186 187 188 189 190 191 192 193 194 195 196 197 198 199 200 201 202 203 204 205 206 207 208 209 210 211 212 213 214 215 216 217 218 219 220 221 222 223 224 225 226 227 228 229 230 231 232 233 234 235 236 237 238 239 240 241 242 243 244 245 246 247 248 249 250 251 252 253 254 255 256 257 258 259 260 261 262 263 264 265 266 267 268 269 270 271 272 273 274 275 276 277 278 279

POINT_DATA 280
SCALARS curvature float
LOOKUP_TABLE default
0.14211327516248065
0.14791876059391956
0.15415457930179957
0.16082456072989793
0.1679191421708496
0.17540322125599786
0.1831919568059974
0.19110801551614362
0.19889050561358573
0.20618094134145312
0.21251917594634911
0.21739289988304825
0.22024078402453007
0.22053555499641045
0.21799231157374893
0.21260357238627473
0.20458624118412522
0.19447639623655427
0.18291934660506468
0.1706581277031847
0.1584178652933714
0.14688436453225806
0.1366467174479637
0.12816384701314046
0.12175258430291458
0.11756316998668315
0.11554101077214798
0.1155041891135667
0.11718150895185692
0.12025117534273436
0.1244004338507675
0.12937073276057584
0.1349842851687539
0.14111433919553182
0.14766855261674353
0.15460055351302118
0.16190243380148936
0.16952717863356864
0.17732765845360576
0.1850462768386697
0.19235240118810537
0.19886846590067972
0.20417104931346586
0.2077996833630255
0.209352932441144
0.208629750040967
0.20568591224522786
0.20079658492097444
0.1944750193655497
0.18739471502104654
0.18037834949307108
0.1743435781497414
0.17027392320123189
0.16917118282577948
0.1718870695297902
0.1790094136163216
0.1908077071463315
0.20733587253075358
0.2285861689084971
0.2544067755960151
0.2843415970279559
0.3174794822797879
0.35262569469275923
0.3884187540071936
0.42260147527047587
0.4515148612294418
0.471027245855112
0.4789656421906545
0.47514593101250774
0.4605265262830219
0.43714948257102515
0.40842022599959005
0.37756968170429367
0.34655399142892473
0.3162673413154997
0.2872574796428361
0.25988633232192904
0.23421454992032342
0.2101004257487946
0.18732275679808516
0.16572881109815213
0.1452404655320481
0.1258618027057652
0.10781120400081938
0.09157825661938655
0.07810057110131019
0.06898973259996703
0.06614897635208677
0.07064747943704228
0.08168566572644691
0.0973712886056057
0.11593412683247617
0.13610573482325933
0.15714965853056412
0.1785487246673791
0.19967061232429267
0.21963445006756152
0.2375676535395638
0.2530786598655366
0.2660509265739026
0.27628354007286987
0.28362228899259545
0.28823461624992425
0.2907492145114541
0.2918323661552512
0.2918446831087607
0.2909032321418454
0.289113472345297
0.28650720541350083
0.2829115113479577
0.2780477407064018
0.27159843123367494
0.2633617365614181
0.25320453779483565
0.24119810669964606
0.22755297950169254
0.21253220129422104
0.19643567070067347
0.1795441540953841
0.16219846797135265
0.14475660582296251
0.1275026515532555
0.11062642232699584
0.09426903991936972
0.07855090429525652
0.06364486633442488
0.04983611609232731
0.037641258123273784
0.028177759398142068
0.023539882545418597
0.025367856057121257
0.03185982740767864
0.040196559895865805
0.04882708765209693
0.05707352471599122
0.06462141974188318
0.07123639592333858
0.07666746773062874
0.08071390222191473
0.0833032697674554
0.08445974882067242
0.08427850114829524
0.08295562514361178
0.08079854570819231
0.07825124868089446
0.07585923884266768
0.07424806964344152
0.0740279509649223
0.07567060031629701
0.07940259424106892
0.0851885292693892
0.09278423665478171
0.10182931221140153
0.11191998581795808
0.12263781358829111
0.1335907589948541
0.14448640440330887
0.15508282305967055
0.16509104056501617
0.1741467025663919
0.18192200813453385
0.18830137195634528
0.19326670100028226
0.19676807193881113
0.19872634068918202
0.19918484960918287
0.1983827656428395
0.19659513925502814
0.19404365105724855
0.1908991132970482
0.18732989459591065
0.18353109175674998
0.1796398315392203
0.17572681769006557
0.17180885149754022
0.16786134014900295
0.16382980623165067
0.1596357292376845
0.15521440912909273
0.15051062762470657
0.1454558853775765
0.13996417191573807
0.13396284935447014
0.12745926672425173
0.12050234002835801
0.11312868500222156
0.10535248883364252
0.0972025147034032
0.0887707864498558
0.0801782771159922
0.07153337744742484
0.062929886111433
0.054467062881453275
0.04625869461651431
0.03846052622405873
0.0312803505976655
0.025041193852044428
0.020275598801246644
0.017746449982779813
0.018001930052695812
0.020612044748394443
0.024617557109830067
0.02930817797015198
0.03433788428088804
0.03956350750977756
0.04494072612464959
0.05047726621061676
0.056201075711788576
0.06214657494800469
0.06835968584038102
0.07486014203331558
0.08166232565893881
0.08876074344736086
0.09612821342187
0.10373992244422778
0.11155010344772172
0.11948703854601869
0.12742952234265958
0.13521776604357605
0.14270929926943715
0.1498210971828559
0.15646232990356645
0.16249234519132794
0.1677486489197887
0.1721378315621758
0.17569867945195028
0.17848545235472743
0.1805295371350721
0.18185849906130355
0.1825525072971346
0.18275748034436456
0.18260433678680385
0.18218669643499671
0.18156568702528916
0.18078181810245442
0.17985039593099136
0.1787488685210015
0.1774340082123745
0.1758352875356315
0.17383704262885621
0.1712833720545682
0.16802927650065
0.16401031831941235
0.1591908012632135
0.1535161418727032
0.1469132274710416
0.13939094056181472
0.13109757650130277
0.12220834089140248
0.11287009101395448
0.10320598130338962
0.093365545102728
0.08354818753466746
0.07395294164010839
0.06476188471231112
0.05614234190983823
0.04822455291067451
0.04110942244739597
0.03490467444214625
0.029719511490490177
0.025662872974021086
0.0227734780349989
0.02102961408601761
0.020399375787920726
0.020828419514079603
0.022275541441514564
0.02468874682438565
0.027997099894082327
0.032114633012556716
0.036920263174403445
0.0422790305857424
0.04807279738474325
0.05419237306106898
0.06052786389957452
0.06697876390173646
0.07344433300772348
0.07984830048189445
0.08612029070696912
0.09218927589569603
0.0979863535614029
SCALARS torsion float
LOOKUP_TABLE default
-0.08174455552861594
-0.08601089136777232
-0.09029685200024494
-0.09452012069347791
-0.09852566857400452
-0.10223425594802994
-0.10540838953284828
-0.10786211998877485
-0.10964522175698167
-0.1108948165428476
-0.11182458652945723
-0.112788686047603
-0.11429649492946022
-0.11701947567389344
-0.12174000530647544
-0.12904363415698522
-0.13945175375426752
-0.15348815494200999
-0.1711695376915823
-0.192426423785201
-0.21661861646619252
-0.2414950794005491
-0.26437474624573587
-0.27999461459703295
-0.2834296176637344
-0.2723101404278195
-0.24728256049927066
-0.20988741129614727
-0.16172543494948316
-0.1065061317713499
-0.05236130421855286
-0.005362175624887366
0.03512164288829115
0.07160238802395516
0.10494010204661325
0.1314564986670623
0.14827025719163078
0.15633240162663745
0.15666688123029096
0.15037103471046995
0.13732521797286043
0.11785387980861489
0.09267232279828394
0.06211728222494902
0.026711372912521902
-0.01134967788497703
-0.052572786923868145
-0.09659188846201658
-0.14318316336622605
-0.19319152102477594
-0.24352518605084492
-0.29280690124101366
-0.3353492157067909
-0.3638840191704263
-0.37371333663279643
-0.3623147062872935
-0.3339083830673447
-0.295841255058178
-0.2542522508458186
-0.212794749181443
-0.17275075166102374
-0.13462188098188207
-0.10098263863964335
-0.07102181055819344
-0.04177021136538279
-0.01073534643768348
0.02060177252729081
0.04817921982493551
0.07270859205736928
0.09597408161366451
0.11753691939993968
0.13488049476801262
0.14851240371404922
0.1602083219469705
0.17133536965485194
0.18229089490981343
0.19354468473905717
0.20645807584534992
0.2226845758421957
0.24439163402791778
0.27473406935638267
0.3180651118301649
0.3830720224913925
0.48172799373561515
0.6287085273393691
0.8311279275528769
1.0482550778874988
1.149563287615046
1.0396633992360236
0.8164521139299127
0.6114238511101683
0.4647702788970073
0.3676510020194028
0.30265297438265165
0.2571275669856262
0.22486750569136016
0.20243382916284183
0.1873224927591856
0.17674743110631208
0.16844692161949737
0.16181208234318253
0.15653659990592286
0.1521744268792993
0.1476953695817479
0.142292582329414
0.13574470484134107
0.12815049707315834
0.11989658902174351
0.11091641107773381
0.10150974023564423
0.09187633827341277
0.08236492469231461
0.07332575713228257
0.06475742773738166
0.05717153765948799
0.050400972680371595
0.04449201879679074
0.039395528126965736
0.035289220731840286
0.03316094224908669
0.03337805209113188
0.036963560139767884
0.045693222880507575
0.06277581980985772
0.09446729605859683
0.15380379482694512
0.26852035197505913
0.497200366502976
0.9114533590346401
1.2936737257751176
1.0676488904550108
0.6219939108550285
0.3410980440079104
0.19213485304533176
0.11729595582078288
0.08138038698377235
0.06784987026811953
0.06952604832131562
0.08249122293827249
0.10450639030203687
0.13569015492019598
0.17507831755352213
0.22414214348101388
0.2819521369610847
0.34622298998801576
0.4123545568507484
0.46780058631436733
0.4998812765527241
0.49790700100370366
0.4620459316429368
0.40327080865375586
0.335630558275508
0.2698001626223557
0.21046915581591102
0.15896598398219672
0.11584389843941988
0.08162502078140944
0.05376190177673226
0.029194805379897333
0.006267156248005376
-0.014557519618394469
-0.03197345156637417
-0.04695473124874204
-0.06092442916181875
-0.07460022662378674
-0.08702194464784206
-0.09714483475903599
-0.10507019047002361
-0.1111612003578867
-0.11544375406421843
-0.11773756193173388
-0.11773852373681995
-0.11554445076049467
-0.11167245419325804
-0.10605818772167247
-0.09934962653770746
-0.09165556975773208
-0.0835947608113318
-0.07604698236023952
-0.06895362962024558
-0.062405617056023106
-0.05641132944253577
-0.05160276424439293
-0.048720305572399654
-0.04785279392376174
-0.048751156007998675
-0.051771007368362876
-0.05761638543978641
-0.06725980053907632
-0.08191189362531273
-0.10276284813842856
-0.13272371731316743
-0.1762434423199836
-0.24107893375564873
-0.34078696611305764
-0.4978984103755842
-0.7427263215039703
-1.0788433216565774
-1.3421320021337952
-1.2468216275624797
-0.9138989437321139
-0.6180926111287548
-0.42114387194063446
-0.2950680099315532
-0.21082201668961315
-0.1503904166652668
-0.10452986700920328
-0.06721881495606462
-0.03573388335564022
-0.009609548618799042
0.011265666311863917
0.028157603764142964
0.04215898168456711
0.054055172666622915
0.06288434928625018
0.06803786286806215
0.07065120437948945
0.07183046672284502
0.07223663224129125
0.07148299836339081
0.06925687034544797
0.06589557851329281
0.0618230679266016
0.05725130727710869
0.05238153592310398
0.04715567659278458
0.04147989776610088
0.03537586703873286
0.028798522700489437
0.022159648195045314
0.015472212663048834
0.008627780752327585
0.0015633650032557383
-0.00577513652799827
-0.013138825459224252
-0.020542284005249142
-0.027800133503679908
-0.03472118120012191
-0.04133103706679522
-0.04743778952137857
-0.05315461394094528
-0.058279289930623285
-0.06262764986511293
-0.06615929320248565
-0.06874536430111249
-0.07046179523948388
-0.07210262238976067
-0.07381452727244354
-0.07530748045812378
-0.07620294225758655
-0.07629403613793306
-0.07727924752615346
-0.0796004004784461
-0.0827664222445489
-0.08575093221673831
-0.08751737863867709
-0.08958970695203622
-0.09172172867313295
-0.09132852820996562
-0.0834248108047437
-0.06223596046000932
-0.02713222083630492
0.017395359478039697
0.06054520340451482
0.08980535969709119
0.09885829884303092
0.09127214024129922
0.07484411352488834
0.0570550560223311
0.04174679592884849
0.02984079561967328
0.021261731324830016
0.015250151953243812
0.011194278619843635
0.008555129358175987
0.006831472074193579
0.005612407648986208
0.004747169713828874
0.004077443090227839
0.00354021782054679
