# vtk DataFile Version 2.0
00000624.nii_L_ICA_labeled
ASCII
DATASET POLYDATA
POINTS 286 float
109.81346087457753 91.58134028232723 34.292140688721545
109.63421241978779 91.58990310959425 34.051774528221934
109.44971792215239 91.58389700069917 33.81533028130793
109.26099160777756 91.563607853684 33.58305495696295
109.06905197071461 91.52946474430773 33.35507347082859
108.87489339749453 91.48200727447636 33.13139159837179
108.67946582690386 91.42185256430999 32.91190543390931
108.48366220524505 91.34966424647668 32.696415478887104
108.28831282384873 91.26612502379193 32.48464351910393
108.0941853646902 91.1719146180072 32.2762501671012
107.90198887055251 91.06769366848704 32.070851725198445
107.71238021114127 90.95409281792973 31.86803557550948
107.52597136148628 90.8317054193902 31.66737462246416
107.3433364909453 90.7010828613372 31.468441049360006
107.16501911910716 90.56273303626348 31.270817848551925
106.99153928875852 90.41712262177738 31.07410676740542
106.82340000327063 90.26468119292731 30.8779340310653
106.66109222712895 90.10580490944321 30.681955992740907
106.5050985333845 89.94085919064531 30.485865266158708
106.35589661249209 89.77018171489138 30.289395414632537
106.21396420813629 89.59408740943968 30.0923217186989
106.07978440376037 89.41287429584267 29.894460147609937
105.95385014882122 89.22682865386045 29.695667083357943
105.83666819913346 89.03622929510071 29.495840197219955
105.72876306804085 88.8413523087877 29.2949191231058
105.63068099091494 88.64247831786224 29.09288420446261
105.54299305867751 88.43990153035698 28.88975453726613
105.46629563264385 88.23393957003668 28.685587028951222
105.4012073598929 88.02494371505557 28.480476508010618
105.34836388628378 87.81330915055722 28.27455611284085
105.30840889370229 87.59948493033271 28.067997959943302
105.28198098849704 87.38398324249337 27.86101340417405
105.2696943695643 87.16738754143138 27.653851940203058
105.27211329740348 86.95035818311958 27.44679763551767
105.28972617227161 86.73363329278287 27.240163082072584
105.3229234918731 86.51802314366013 27.034282674582975
105.37197891081264 86.30439963982757 26.82950445581068
105.43703038404621 86.09368296347918 26.626178122523218
105.51806376466874 85.8868259897325 26.42463878969938
105.61490801779411 85.68479714864385 26.22519058626662
105.72724740607659 85.48856421446568 26.0280956146665
105.85464187719055 85.29908222206507 25.833567613075658
105.99654588887148 85.11728676658616 25.64176646437179
106.15232470823756 84.94409305902371 25.452792523855944
106.32127339096016 84.7804013828326 25.26668493676836
106.50263974910055 84.62710850448249 25.083428830037757
106.69564237941303 84.48512357109207 24.90296726492248
106.89947650300013 84.35538470665998 24.725212574910735
107.11336373115334 84.23896175720854 24.550070443486028
107.33636643135173 84.13683404770666 24.37740324270621
107.56753607540422 84.0500954666282 24.207085018342212
107.80585836078748 83.97994066346894 24.039010682603177
108.05020886316173 83.92764810595901 23.873109679632343
108.29931269797852 83.89455981759487 23.70936137000664
108.55170336298893 83.88204511464748 23.547808910528573
108.80568709043551 83.89145524508878 23.388573111369983
109.05931578879823 83.9240636483308 23.231866052040008
109.31037520790075 83.98097904157768 23.078000694233253
109.55636088761851 84.06316470897163 22.927410503257725
109.79455032826533 84.17109904555926 22.780613052316884
110.02218495570045 84.30457131726791 22.638157031605697
110.23647148423485 84.46298569189787 22.500640731809554
110.43457575651765 84.64539649154754 22.368711496983757
110.61398712025662 84.85013195498318 22.242947749949415
110.77272891425059 85.0749128759916 22.12380314732557
110.9089962592855 85.31739034204544 22.011724253103115
111.02118805192444 85.57507667245461 21.90714010435209
111.10863408537841 85.84505912813846 21.810246913873776
111.17071998135184 86.12463425589641 21.721289317144535
111.20696920430726 86.41116606741343 21.64054126506684
111.2174310785759 86.7020096784589 21.56818413211659
111.20254521757857 86.99464904756803 21.5043433786758
111.1628521298199 87.28674550890159 21.44918267029331
111.09916653454168 87.57612717304069 21.40284456184364
111.01244118216944 87.86078996934077 21.3654926673423
110.90411321347638 88.13902179459339 21.337153857131142
110.77578987722066 88.40941405900205 21.317809479938095
110.62918450742791 88.67086267475675 21.307408431334782
110.46613990169007 88.9226070434496 21.305840097389932
110.28856465842348 89.16423214995069 21.312942458847406
110.09836608356474 89.39564712173583 21.328516975932978
109.89739777872477 89.61705062792109 21.352346713611645
109.68742635270641 89.82889136768529 21.384215132663545
109.47011236659672 90.03182535963356 21.423923461332063
109.24700045635143 90.22666917617946 21.47130709742341
109.01949043881261 90.4142932250101 21.526325476868898
108.78896274147702 90.59578014388129 21.588864142911962
108.55667551884765 90.77220890034293 21.6589218814144
108.32383132710989 90.94468141754112 21.736576169158845
108.09161360047025 91.11431680143762 21.821973673626296
107.86123247664915 91.28223696171281 21.91536191049332
107.63395777510199 91.44957629080083 22.01703081801334
107.41109385673124 91.61744180327652 22.127228102070873
107.19406764494956 91.78689197331919 22.246283207739786
106.98444111705874 91.95893015229446 22.374517762737288
106.78392898944955 92.13447847714974 22.512206482690015
106.59440169491124 92.31434336815926 22.65952862889131
106.41786601236831 92.49917381549528 22.816510494718763
106.25641848880635 92.68941701187757 22.982964963346742
106.11217405086659 92.88528010010604 23.15843853487245
105.98717431069069 93.0867058586975 23.342174698367693
105.88334299819597 93.29337961081407 23.533116852744296
105.80237201812453 93.50473173110822 23.729899894745312
105.74527233645682 93.7199226911933 23.930839856483114
105.71276622784123 93.93800085387888 24.13413183009869
105.70513565606103 94.15793254449805 24.337884178046266
105.72225809605675 94.37866374589733 24.5401973461307
105.76366812043757 94.59916809384772 24.739227326575655
105.8286334634893 94.8184785851296 24.93322758187727
105.91624578578595 95.03569995429896 25.12056528223955
106.02544557235665 95.250013193008 25.2997396465673
106.15515162464105 95.46065517910078 25.46934343159254
106.30424311831881 95.6669071105645 25.628059497683445
106.47157754708824 95.86807860903062 25.774643948008027
106.65601208608322 96.06348602181349 25.907895499962393
106.85639304930466 96.25243567019974 26.026637610261986
107.07153964811506 96.43420887325317 26.129703261787455
107.30021958232753 96.60805084613676 26.21592569914862
107.541118529904 96.77316390272529 26.284137241072326
107.79280676741253 96.92870529370629 26.33317453070958
108.05370335535544 97.07379130878088 26.36189359189862
108.3220399137547 97.20751041757684 26.369198701629657
108.59582915313057 97.32894780652128 26.354085301400946
108.87284463456973 97.437223409971 26.315698362094366
109.15061380334656 97.53149329311059 26.25331910988383
109.42640664174213 97.61103114591238 26.16648164043094
109.6973726486387 97.67551425267192 26.055388437193745
109.96061724800722 97.72481820404049 25.920506178522057
110.21328924074741 97.7591267888133 25.762689440493837
110.45262624453555 97.77891446802985 25.5830947688963
110.67654739660122 97.78536238950547 25.38373109352852
110.88330501885343 97.77979885388335 25.166578067665764
111.07158135883651 97.76377701261646 24.933685272738938
111.24062691930767 97.73908521827164 24.687183638392185
111.39038892212243 97.70768139674682 24.4292337213476
111.52107429873392 97.6714625459264 24.161711498432943
111.63321769346184 97.63229219789848 23.8862953413236
111.72759812971809 97.59195952970195 23.604452264321637
111.80516709952579 97.55215288436267 23.31744542314986
111.86699235214765 97.51444270144431 23.026354996122105
111.91421807415823 97.48027155054052 22.732105237212398
111.94803614175962 97.45095003484082 22.435491724305386
111.96966619340728 97.4276522307346 22.137206692073725
111.98034406384052 97.41140801481885 21.83786079560162
111.98131542905774 97.40309118876446 21.537999568844736
111.97383108345839 97.40340573638419 21.238113539191335
111.95914241627551 97.41287942728484 20.938642254175562
111.93849381303916 97.43186055120101 20.63997402791623
111.91311297887127 97.4605168934954 20.342442854800787
111.88419996069145 97.49883874092177 20.04632381422717
111.85291516798803 97.54664795382206 19.751828637909824
111.82037037060547 97.60361887895144 19.45910376464222
111.78762123785701 97.6693060389569 19.1682323771941
111.75566132955151 97.74317293915547 18.879240351681972
111.72541830176183 97.824620449475 18.592105620837362
111.69775279081873 97.91301411110446 18.30677025450265
111.67346151941534 98.00770867847935 18.023153951657736
111.65328274993561 98.10807013831531 17.74116847124347
111.63790201790583 98.21349341065145 17.46073182816737
111.62795784055355 98.32341572968113 17.181781429962292
111.62404829527291 98.43732655626162 16.904285805191414
111.62673896863694 98.55477101483933 16.628253402091314
111.63657139619296 98.67535017764627 16.353739704909252
111.65407041529437 98.79871986033703 16.080853528732547
111.67975026590682 98.92458799883228 15.809762705175938
111.7141204263476 99.0527106942887 15.540699492499774
111.75769024363647 99.1828843625197 15.273964692263492
111.81097211700933 99.31493573936817 15.009931343989726
111.8744815073478 99.44871149888306 14.749048550864476
111.94873266712733 99.58406760709555 14.491844916831797
112.03423215057717 99.72085832897683 14.23893149933219
112.13146975349123 99.8589240956067 13.99100332226434
112.24090598714474 99.99807862034139 13.748838554143045
112.36295469144176 100.1380966932559 13.513294184305815
112.49796035362264 100.27870378578356 13.285296445154238
112.6461738698671 100.4195680516328 13.06582573314305
112.80773124011704 100.56029657538751 12.85589831168905
112.9826343715405 100.70043557357704 12.656543441297439
113.17073260706233 100.83947538768132 12.468773814078602
113.37170696654279 100.97686165736269 12.293549326265996
113.58506303038114 101.1120120151361 12.131738173887324
113.81013811569495 101.24433768116249 11.984084204143706
114.04618414133523 101.3732418898384 11.851279639567316
114.29220065884729 101.4982074615642 11.733679874955211
114.5471184242676 101.61878817563542 11.631468091039048
114.80982997464416 101.7346241666828 11.544659272245493
115.07920583538063 101.84546432042687 11.47307525733321
115.35413326362965 101.95117411566426 11.41636381146093
115.63354789220077 102.05173897949031 11.374020380860333
115.9164580508902 102.14726415683312 11.345410384316912
116.20196352877197 102.23796855989093 11.329795046563884
116.48926886014623 102.32417069633485 11.326362284070393
116.77768873628564 102.4062725179315 11.334255975684687
117.06664631634823 102.48474472926995 11.352598966012625
117.35566673982994 102.56011423625849 11.380509719499793
117.644367971839 102.63295215386577 11.417115106704689
117.93245015589807 102.70386105613201 11.461561360357349
118.21968387287943 102.77346331267692 11.513022172381406
118.50589817638901 102.84239150007994 11.570702583131284
118.79096919460736 102.91128017637479 11.633839826358159
119.07480970031817 102.9807587073557 11.70170202826596
119.35735985655259 103.05144529214233 11.773585005614652
119.63857923060857 103.12394055124875 11.848809094915492
119.9184405363665 103.19881963555136 11.92671554145829
120.19692517027671 103.27662289506527 12.00666282619495
120.47402013255707 103.35784735625408 12.088022814812192
120.74971600288231 103.4429416348063 12.170175284324547
121.02400598720683 103.53230167593509 12.25250271471399
121.29688646275333 103.62626488083886 12.334386039248187
121.56835889355435 103.72510320664688 12.415201199704097
121.8384316175908 103.82901898235234 12.494316722743458
122.10711979448217 103.93814642802829 12.571092470855621
122.37444419951176 104.05255550700498 12.644879118187085
122.640429132619 104.17225540850103 12.71502009577738
122.90509954309667 104.29719781554006 12.780855567305238
123.16847663111191 104.42728238325132 12.841727185603055
123.4305707506989 104.56236603746143 12.896984583250259
123.69137302008794 104.70227339128567 12.945993140554702
123.95084590765042 104.84680758753849 12.988145561468476
124.2089136438101 104.99576181827737 13.02287641423964
124.46545424966881 105.14893080797806 13.049674999642509
124.72029395868499 105.30612147583764 13.068094555128582
124.97320287769244 105.46716382737186 13.077761186125302
125.22389072045907 105.63192378899302 13.078385885928473
125.47200306809218 105.80031773749366 13.0697779975632
125.7171209557639 105.97232374928348 13.051852413473366
125.95876493188301 106.14798530835395 13.024626118682773
126.19639921171411 106.32741218707055 12.98821250241779
126.42943452020688 106.51078040646915 12.942818486202656
126.65722964841835 106.69833102687396 12.888743617778617
126.87909386344081 106.89036310255541 12.826374953278465
127.09426949433639 107.08723270730883 12.756152251586903
127.30199762192622 107.2892887450227 12.678622840379953
127.50147474983171 107.4968863828805 12.594365227011748
127.69187917484322 107.71034930712918 12.504001166152706
127.87238566482684 107.92994306146097 12.40818619146774
128.04218097700954 108.15585088306844 12.30759635885495
128.2004835238535 108.38815103334447 12.202912302085698
128.34656835728603 108.62679661172126 12.094799995301836
128.4797943807141 108.87160172924251 11.983888459229545
128.59962384445816 109.12224216854933 11.87075091397329
128.7056295084503 109.37827028727635 11.755892811458445
128.79749641215574 109.63913366070815 11.639741005902112
128.87502156115252 109.90419311231213 11.522631890640398
128.9381086074317 110.17274108824449 11.404801136025677
128.98675210362833 110.44402327530592 11.28638349920411
129.0210046778432 110.71726082459169 11.16742302657827
129.04098349808774 110.99166141095428 11.047885880366568
129.0468315417706 111.26642982158401 10.927667703716915
129.03870323820536 111.54076755910346 10.806600130710374
129.0167628723169 111.81387093839255 10.684460601083028
128.98116851775288 112.08492710502516 10.560983775570604
128.93210313138076 112.35311641979561 10.43587670703632
128.86975125394892 112.61760542721942 10.308824769105861
128.79432193583654 112.87754667705936 10.179499586226738
128.70606154831066 113.13208032868056 10.047566198777215
128.60526486355496 113.38033828577136 9.912690651586148
128.49228830659408 113.62145258670364 9.774547971000956
128.3675473277321 113.85455443730167 9.632822805869596
128.23159288928687 114.07883669429361 9.487234319311941
128.0850655064621 114.29354171202213 9.33752443365502
127.92870704318759 114.49798748545199 9.18346247515302
127.76335393943339 114.6915845560795 9.024845259355187
127.58993082647069 114.8738555802689 8.861497102428432
127.40944091727258 115.0444533762376 8.69326804438651
127.2229477289891 115.20316719917616 8.520028354785186
127.03155167683447 115.349916020783 8.341661258493309
126.83637000457722 115.48473828242135 8.158057427186083
126.63852291222877 115.60778428778748 7.969112049715104
126.4391231968484 115.71930776777813 7.774722607628095
126.23926736005451 115.81965029757048 7.5747856851448425
126.04002945944228 115.90922045299268 7.369194270971975
125.84245962733324 115.98847572436799 7.157837659805858
125.64758690506576 116.05791111874532 6.940603919130003
125.45642415796645 116.11805088241172 6.717383680692279
125.26997473462514 116.16943971047841 6.488073899714812
125.08924026012507 116.21263376275543 6.252582498609466
124.91522821155243 116.24819454483402 6.010835521091642
124.74895822225434 116.27668718437592 5.762786936937353
124.59146581488035 116.29868063714817 5.508430598978637
124.4438027509839 116.31474848087882 5.247813905793812
124.30703280359232 116.32546983020103 4.981052932151797
124.1822211509383 116.33143040603342 4.708348660106224
124.07041592288026 116.33322387542582 4.430003056245398
123.97262175799912 116.33145195830663 4.14643262498071
123.889765810524 116.326722370906 3.85817686131462
LINES 1 287
286 0 1 2 3 4 5 6 7 8 9 10 11 12 13 14 15 16 17 18 19 20 21 22 23 24 25 26 27 28 29 30 31 32 33 34 35 36 37 38 39 40 41 42 43 44 45 46 47 48 49 50 51 52 53 54 55 56 57 58 59 60 61 62 63 64 65 66 67 68 69 70 71 72 73 74 75 76 77 78 79 80 81 82 83 84 85 86 87 88 89 90 91 92 93 94 95 96 97 98 99 100 101 102 103 104 105 106 107 108 109 110 111 112 113 114 115 116 117 118 119 120 121 122 123 124 125 126 127 128 129 130 131 132 133 134 135 136 137 138 139 140 141 142 143 144 145 146 147 148 149 150 151 152 153 154 155 156 157 158 159 160 161 162 163 164 165 166 167 168 169 170 171 172 173 174 175 176 177 178 179 180 181 182 183 184 185 186 187 188 189 190 191 192 193 194 195 196 197 198 199 200 201 202 203 204 205 206 207 208 209 210 211 212 213 214 215 216 217 218 219 220 221 222 223 224 225 226 227 228 229 230 231 232 233 234 235 236 237 238 239 240 241 242 243 244 245 246 247 248 249 250 251 252 253 254 255 256 257 258 259 260 261 262 263 264 265 266 267 268 269 270 271 272 273 274 275 276 277 278 279 280 281 282 283 284 285

POINT_DATA 286
SCALARS curvature float
LOOKUP_TABLE default
0.1851273304476541
0.17961973390060773
0.17303943573643835
0.16562827363663696
0.15765226601010246
0.1493803876444822
0.1410770158421823
0.13299841667049267
0.12537285469608483
0.11839321878714959
0.11221912962860374
0.10698492662898532
0.10279468912126896
0.09970010944563308
0.09768220708886648
0.09667937678912142
0.09660833430357382
0.09737033244719845
0.09885421905607099
0.10095558853811354
0.10359128375608494
0.10670019522809976
0.11024219558349409
0.11419571086907285
0.11854786479570115
0.1232923044201631
0.1284104544291103
0.1338615066220687
0.13960216421868435
0.14556274276838665
0.151649658524292
0.15772030497223505
0.1635751259710309
0.16902418428167537
0.17392902589387052
0.1781763240162104
0.1816279889801963
0.184133250471889
0.18563325611067996
0.18625443962318353
0.18620059566646802
0.18565440526557647
0.184783952221312
0.1838375567810561
0.18319882023437697
0.18326268730782302
0.18433753765702407
0.18663452423338275
0.19037064689640634
0.1957661791574072
0.20298168575534856
0.21203307894776513
0.22273525617625814
0.23480757862232132
0.24799346704676356
0.26199096064096533
0.27629654057087005
0.29012364365174687
0.3025797381057669
0.3131125271392676
0.32143348155156104
0.3272445367156617
0.3302249940081999
0.33038945560297706
0.32839355000829284
0.3249672816382548
0.3206085185458058
0.3155994422111551
0.3101999157784744
0.3047058479860269
0.2991767682122484
0.2933408560474222
0.28676860094780865
0.2791611989426981
0.2703689256000281
0.26025684601749544
0.24866437400934513
0.23552304414529066
0.22105052729119942
0.20562667528831746
0.1896202535597749
0.1733475467539688
0.15713934910537614
0.14143637022824107
0.12676874113255673
0.11375490432497291
0.10308505186875479
0.09560305761735607
0.09216041413033572
0.09332150547960744
0.09910816573569789
0.10894283889654215
0.12197392147310337
0.137400000201923
0.15451611490067935
0.17269396364501274
0.19128340659429469
0.209583563751157
0.226891294844643
0.24253874290938193
0.2558794609629524
0.2663387554840037
0.27352489376165207
0.2774522576148474
0.27844210508512424
0.2769998271780981
0.2737346222917103
0.26930261674081385
0.2643932003604508
0.25961846826175344
0.25544768574480864
0.2522132476025485
0.2501430593789341
0.24942203186660392
0.2501622207774379
0.252394684108569
0.2560956080085064
0.26117914735435827
0.2675514901451969
0.27506756914510894
0.28348721690866796
0.2924857554182002
0.3016102120950992
0.31032555874589773
0.3179852231372903
0.323850258784859
0.3272416284900056
0.32754548629803965
0.3243661995000544
0.31752126512588835
0.30727672998099653
0.2941791502142491
0.2789259975654936
0.2623200854743613
0.24511068456311533
0.22802370278986683
0.21168137981494778
0.19655251573850754
0.18295347375518853
0.1710344731533127
0.1608492496176843
0.152344328731658
0.14532682677041825
0.1394773896587852
0.13439313520380622
0.12972034220650996
0.1251695027437033
0.1205062071853753
0.11556858948236343
0.11028183548975481
0.104741026427038
0.09916026978322277
0.09380501981428539
0.08896163406391554
0.08491490120391858
0.08190620824021022
0.08011746346354597
0.07961274201226601
0.08033298270749359
0.08214816881156058
0.08487634102447349
0.08835943774712514
0.09247298375013603
0.09712681056375114
0.10228293174396635
0.10791903032148074
0.11403375695388915
0.12062336110863113
0.12765627179395503
0.13510142509078799
0.14290933996903987
0.1510016597540536
0.15925584381430125
0.1674878157161089
0.17548542196753178
0.1830687702992194
0.19005269458786309
0.19620848780687122
0.20126262782074975
0.20495140602149886
0.20714474689402537
0.2077750166048068
0.2067578395350076
0.20401936046547997
0.19955414967618834
0.19352606323211288
0.18614726875946283
0.17759900605609472
0.16802891109496274
0.15761420811329407
0.14661899493289404
0.1352960184994429
0.1238457332656482
0.11242752421523085
0.10119491129817314
0.09033016370947536
0.0800321464501904
0.07050214966143206
0.061965665397795106
0.05468339478535789
0.04894241267698902
0.04503734251430885
0.04312955114403757
0.04311680530301745
0.044640799578728144
0.04725779252527672
0.050568474177922575
0.05424465051512056
0.058038218715140956
0.061807842400538104
0.06553927791362385
0.06927063220358189
0.0730366735528083
0.07685700893291389
0.08075923682895855
0.08477787921847131
0.08891875289850831
0.09312517816854339
0.09728674401713028
0.10128655614370852
0.10503599005922513
0.10845619250986384
0.11145772036244014
0.11396377685215081
0.11597447785527856
0.1176089142074059
0.11903234448248891
0.1204145866988282
0.12194190340932382
0.12383737713910103
0.12632230640829564
0.12953612569787762
0.13347933846914353
0.13803112187615765
0.14299860767252362
0.14815474397692585
0.1532129098627454
0.15782929935270312
0.16165107983376137
0.16445451388868174
0.16620792977129276
0.16694349626029154
0.16670197876195456
0.16557388445633203
0.1637822794838187
0.16165235511565826
0.15948310490343975
0.15747489640615053
0.15579197758166008
0.15459405076754643
0.1540136992398872
0.1541099566678064
0.1548207977615055
0.1560214600680256
0.1575875918095052
0.15940702477954685
0.161326302118894
0.16309864085156459
0.16444437077109378
0.165191977342046
0.16529888691560798
0.16473101197741974
0.16339324576209965
0.161206035664389
0.15825309645694294
0.1547611061464336
0.15094882965427214
0.14695204175318746
0.14290134159675802
0.13901515976652104
0.13556526627192408
0.1327766730044107
0.13078404003152932
0.1296861571921763
0.12958886937704933
0.1305869502560624
0.13271706263445418
0.13594234579149345
0.1401834841036348
0.1453309443228503
0.15124621824788292
0.15775340654461087
0.16463134647672914
0.17163137594387032
0.178483131446081
0.18490491250133
SCALARS torsion float
LOOKUP_TABLE default
-0.08510944342994918
-0.09575965331285999
-0.10762727398147853
-0.1208647923029759
-0.1356430178885314
-0.1520939294700231
-0.17015131396499453
-0.18959921760789966
-0.20992626170624215
-0.23023908343820843
-0.2493440906877834
-0.264898238130611
-0.2747831607474919
-0.27798492281454873
-0.274713990654168
-0.265101514740958
-0.24905981841855238
-0.2276458074040708
-0.20374720079082975
-0.1806056148162207
-0.15899372586222552
-0.13871642170552323
-0.11986814460234288
-0.10330102733920352
-0.09011132091359886
-0.08002190178856768
-0.07238301076485504
-0.06689653307405717
-0.06326189788860713
-0.06114154208867871
-0.06043470991111905
-0.06114769619341661
-0.06331959508874016
-0.06648197866896638
-0.06991143246974231
-0.07376230160704086
-0.07888923175653555
-0.0856818659692389
-0.09364442787742362
-0.10188785240498381
-0.11050629064567002
-0.12042002162439987
-0.1320051612647371
-0.14427002862789254
-0.15533493154379532
-0.16473869896116292
-0.17240978798311074
-0.178411693627503
-0.1821350495722534
-0.18211101720272968
-0.17859887251682327
-0.17232534876626027
-0.1644479184185883
-0.15597442411117055
-0.1472993026257279
-0.1386517335839656
-0.13024699918159738
-0.12250379668409128
-0.11587913404832759
-0.11039402140076272
-0.10554195127352521
-0.10063011478399057
-0.09555480025784718
-0.09046427467452858
-0.08504236252569565
-0.07867679375817613
-0.07073991490120762
-0.061264351176730535
-0.05121352184338207
-0.04064500067709052
-0.029292273360372715
-0.016987176728194185
-0.004028121407696863
0.00844389558256793
0.020605418696370895
0.033266665028791206
0.047136619498767796
0.06258195252887909
0.07971668017879797
0.09948572049156575
0.1241365756798662
0.15604187065730793
0.19772220614619596
0.2516761236226625
0.32078248721059566
0.40692717811587864
0.5056465183067004
0.5991693675109546
0.6553804584957622
0.6482239877406949
0.5816182463088386
0.48639946320124716
0.3912627059987935
0.3108963528480274
0.24790471452516397
0.20013495944488696
0.16463380779835557
0.13859062331908056
0.12007569542201238
0.1073504791198006
0.09893853942867407
0.09380253383388257
0.09136142594144174
0.09059266750831806
0.09109549401558646
0.09223953484964262
0.09367272886277131
0.09516958553048743
0.09612916624764588
0.096423762026368
0.09593829013689027
0.09464491219302558
0.09262267695755036
0.08998630752334603
0.08677473580150649
0.08334863403542007
0.0799312674625957
0.076728968998701
0.07411489086681868
0.0721627152270751
0.07112597693514344
0.07118880170901111
0.07247273802319643
0.075124109869037
0.07929051095123646
0.08496310512041876
0.0922672527270947
0.1012246285911351
0.11173988318968107
0.12414552006420912
0.1381501476445883
0.15407709456380128
0.17185506521448943
0.19166316386875593
0.21380317926971304
0.23798245901940718
0.26377885048580774
0.2898950537193373
0.3146613181474012
0.3369151769987505
0.3552228421798271
0.3672457483840234
0.37233734416135916
0.37003822994705804
0.3632949649017168
0.35569947468715174
0.34803915806490243
0.34267311489292457
0.34041955094118814
0.34358928327893007
0.3540221112306209
0.3702956670626779
0.39046556637780994
0.4108481938399443
0.42715102125675547
0.4345787612712485
0.42748392060684415
0.40369059136408514
0.36450942199900743
0.31573006342011756
0.26455127674153345
0.21455043889824624
0.16830422104340287
0.126925122884715
0.0915067810659647
0.06311629598834019
0.04092493706985659
0.02388677890954652
0.01118784696021381
0.0022896413200921015
-0.0031282693131273543
-0.005663496479376999
-0.006214926423266096
-0.005244102051817308
-0.0032052542375705212
-0.0007361908432997735
0.002111697604736866
0.004830759811829141
0.007328262898500637
0.009347303394616733
0.010445994415975006
0.010598767265177866
0.009454736035809154
0.006910890043178525
0.003138949399269711
-0.0018265702079745853
-0.008218836920593157
-0.01628251148573423
-0.026503291336713683
-0.03853969666604633
-0.05256205030880097
-0.06940517803279893
-0.09021832152075931
-0.11661922175738229
-0.14994568464459127
-0.19221565754205533
-0.24624511094593682
-0.3152450545947724
-0.4010077289458484
-0.5021437256820696
-0.6076624696449946
-0.6914620776100118
-0.7228741445602075
-0.6909804304504273
-0.6185872474055882
-0.5358931394947593
-0.46085088511409955
-0.40111822226088284
-0.3579791686635171
-0.32804198224629405
-0.3066947604853457
-0.2904707627795844
-0.27588400157431736
-0.2619515656685177
-0.24602214405731393
-0.22651992777368682
-0.20338059559575228
-0.17568610317392103
-0.14458377594239755
-0.11231698856641938
-0.07979863190958071
-0.04626243460187148
-0.009909476992782645
0.029745377817065485
0.06866651810762513
0.10517037521830537
0.13993145290839282
0.17348242844982498
0.20539925835358788
0.23011299078549963
0.2446921716619905
0.24890054437685283
0.2435221900499206
0.2302644778604536
0.21111165610015034
0.18764518615482909
0.16104776718893757
0.1321276436045024
0.10184849404960215
0.07380772431028891
0.04807853507199874
0.023298730213358276
-0.0018321388465183564
-0.027421744531428777
-0.05044747202643113
-0.07050243695491809
-0.08865940798294965
-0.10596035494020399
-0.12203121268066777
-0.1350931078028035
-0.14456042514499745
-0.1510600646184458
-0.15561175571059715
-0.15857107710753046
-0.1600188132365765
-0.16014642507901614
-0.1595807306513896
-0.15924380678334146
-0.15982015785730838
-0.1615671292331098
-0.16438716714442814
-0.16844262431959217
-0.1742784770285901
-0.18234562729623396
-0.19225899591262968
-0.20348358757279225
-0.21588352505171016
-0.2296674398592564
-0.24471110015437175
-0.25986672617222534
-0.2736554533438392
-0.28533386950604106
-0.2943578548044017
-0.29985598127775454
-0.30089775485219433
-0.2966166615976269
-0.2874694175960469
-0.2744139131881049
-0.2582963113184476
-0.2401461200739202
-0.22081184347836047
-0.2012549811978446
-0.18223891099400738
-0.16415460673395985
-0.14726643565303446
-0.131673590281609
