# vtk DataFile Version 2.0
00004093.nii_L_ICA_labeled
ASCII
DATASET POLYDATA
POINTS 281 float
112.83202326941323 86.7145727064805 34.655763138966286
112.78977627704491 86.83190595011419 34.382929464719794
112.74376643372781 86.9394773303275 34.106701758970125
112.69368653927417 87.03737211971611 33.82759792919837
112.63921913728095 87.12564417919812 33.54611671162248
112.58003550329325 87.20431494380377 33.262746931626786
112.51579536259382 87.27337326485167 32.97797658926118
112.44614813601464 87.33277621155379 32.69230163612308
112.3707364270375 87.38245106766826 32.406234200814154
112.28920101635595 87.42229833437572 32.12031015443127
112.20118792800223 87.45219563512185 31.835095593413286
112.10635753944855 87.47200272001491 31.551191893444337
112.00439655190648 87.4815675302728 31.26923851884582
111.89503345604568 87.48073329829461 30.989912558438018
111.77805572087746 87.46934662800903 30.713924641953543
111.65332762884456 87.44726567299831 30.44201079942107
111.5208080434696 87.41436837893932 30.174919842585602
111.38056661861799 87.37056060842241 29.913396321364317
111.23277966550549 87.31575682036724 29.658176302501857
111.07774660037076 87.24988828401546 29.409968341052913
110.91599113382155 87.17306113922415 29.16931766530306
110.7481251135384 87.08535610328842 28.93670495684
110.57488837264285 86.98690188646353 28.712480852069334
110.39712949533241 86.87787151487152 28.496850590073322
110.21578440564069 86.75847568207399 28.28986512026111
110.03184574423616 86.62888845257521 28.091473213804694
109.84639152273697 86.48946722553858 27.901329874376703
109.66049295829484 86.34050210400254 27.719017141719736
109.47522191154599 86.18229207645447 27.54399723701318
109.29163664689791 86.01514071259578 27.375635977209154
109.11077438847681 85.8393559716697 27.21322300022909
108.93364883468503 85.65525102985812 27.05599111124074
108.76125142959067 85.46314303031183 26.903138583677713
108.59455546214687 85.26335322162264 26.753851183535453
108.43452138286403 85.05621149531252 26.607320129148917
108.28210186316086 84.84206453989175 26.462756088550027
108.13824745962063 84.62128462718582 26.319400872286447
108.00391572396897 84.39427687926367 26.176537296067213
107.88007963131463 84.16148727024385 26.033499089052835
107.76773012329058 83.92341307689816 25.889682311831777
107.66787107963216 83.68061466687982 25.7445586378276
107.58154432061585 83.43371836205809 25.59768358334884
107.50980924970904 83.18343919111103 25.448706501398153
107.45357545697262 82.93061190310567 25.297404417514915
107.4137563150579 82.67614879905553 25.143663904548692
107.39116592832431 82.42105537333202 24.98749588055656
107.38649171887509 82.16641962920603 24.82903389210586
107.40043759041984 81.91342393411672 24.668508223502908
107.43301288057532 81.66323782251916 24.506296294317856
107.48418415061974 81.41702389777649 24.34281150123487
107.55366647290283 81.1758982564667 24.178494126208438
107.64101952430764 80.9409363445996 24.013772728312116
107.74516503845743 80.7129395248733 23.849024263557506
107.86503400803736 80.49261303055684 23.684523203903773
107.99940984547433 80.2804997457493 23.52042854033637
108.14699189527732 80.07699166507986 23.35677282022497
108.30645134122864 79.88235384131157 23.19346064855081
108.47647600571068 79.69675697043428 23.03027447206501
108.65580518178369 79.5203137624175 22.866889186192026
108.843255106402 79.35311467829294 22.702895439347753
109.03773139258382 79.195261667211 22.537822691889644
109.23822943213179 79.04689790269441 22.371159045559192
109.4438267201344 78.90823470000117 22.20236719167254
109.65366929589436 78.77957506954519 22.030897842246112
109.86697255995645 78.66141230678453 21.856175058948534
110.08293881630811 78.55427183520287 21.67766348058276
110.30077890050657 78.45876782596761 21.494882182696553
110.51970503846502 78.37571747179427 21.307383299200332
110.73888623563651 78.30609672159999 21.114790616906795
110.95741552850981 78.25104839483978 20.916822677313828
111.1742727967911 78.21188332618426 20.71332270043077
111.38828698693852 78.19006878846217 20.50430013576156
111.59810128025258 78.18719743991659 20.289984177853537
111.80214379958859 78.20493557657214 20.070884059743207
111.99860335537056 78.24495032475002 19.847846880033373
112.18541901463783 78.30880714482129 19.622109310258743
112.36014010039028 78.39811942792575 19.39534634900213
112.5202222112639 78.51381838685911 19.16973336987374
112.66307426152142 78.65618045667351 18.94785497302433
112.78589172038838 78.82507864929707 18.73271329516672
112.88645956566839 79.0190110203537 18.527376363283906
112.96282815773503 79.23583191134497 18.33490608987715
113.01353167549543 79.47264649182019 18.15817582936283
113.0382898664788 79.72566721688676 17.99924219246734
113.03666568016585 79.99128588214803 17.86016578695985
113.00987961543375 80.26537758151358 17.741591204259812
112.95855298306462 80.5443856965183 17.644474367451107
112.88460013515524 80.8248770145382 17.56849383692328
112.78942145292704 81.1039131211456 17.513667122829528
112.67494091097181 81.378962936174 17.479420511399407
112.54316829525654 81.64796843307775 17.464992478337727
112.39600445795172 81.90924350741601 17.469678664005617
112.23536484979635 82.16146457842551 17.49272919348701
112.063157176786 82.40363941554313 17.533401081734084
111.88131481532884 82.6351327463305 17.590905072508868
111.69173970155731 82.85562889646745 17.664448982240664
111.4962463943024 83.06503859049806 17.75332956383306
111.29658860596481 83.26348999735376 17.856902057745693
111.09447401365071 83.45131704011858 17.974573175733973
110.89157011757457 83.62910980714598 18.1057100246808
110.68947554440061 83.7976048279273 18.24974340922645
110.48972836119368 83.95767881607925 18.406130903866796
110.29381062392135 84.11032781356948 18.574343390273324
110.10315458458176 84.25665570423297 18.753844146055982
109.91914806724029 84.39786381474285 18.944067658553937
109.7431392268694 84.53523534698672 19.144401894060593
109.57643971915364 84.67011776854577 19.354169012701327
109.42032409039402 84.8039063853992 19.572601387758688
109.27602813375658 84.93802904137983 19.79881661058826
109.14473199278943 85.07392874576325 20.031785737749374
109.02751248484199 85.21302935435703 20.27030324288483
108.925428419125 85.35673354828555 20.513007508597667
108.83941198583405 85.50637618437273 20.758327610160407
108.77026587657802 85.66319233760471 21.00449125559798
108.71865427024385 85.8282888193122 21.249528600599795
108.68506916477563 86.00260509534333 21.491282423764982
108.66980299620988 86.18687645615053 21.727431746378407
108.67294017178868 86.38161116735006 21.955516994573824
108.69456493927265 86.5871993531132 22.172808607454012
108.73400805244354 86.80344680720576 22.376827672653185
108.7905744469352 87.02998783327024 22.56503062302748
108.86350548996926 87.26626251196691 22.73471741478611
108.95138633436778 87.51117156399049 22.883815648201555
109.05267346723963 87.76341642352054 23.010499093968544
109.16587468860251 88.02159566078485 23.11279281597909
109.28894838678252 88.28394135294978 23.189996224454838
109.41998354090546 88.54872287197948 23.241559213844905
109.55714276297306 88.81420935226296 23.266967881447464
109.69845882796066 89.07872928363886 23.266947533123822
109.84219829343145 89.34078254675252 23.242200010344686
109.98678244300635 89.59904284730685 23.19372544273821
110.13079569900019 89.85234346358297 23.122613439819222
110.27301413432606 90.09979251618752 23.03040167018739
110.41240229344814 90.34068297928442 22.918574513484113
110.5480855882578 90.5744763588776 22.7885886479085
110.67933607468301 90.80079634103689 22.64188702473809
110.80555147876781 91.01940864435856 22.479868011802136
110.92623138514092 91.23019853206094 22.303860563579356
111.04095531769487 91.43315050947106 22.11511170076506
111.14936463283945 91.62833273732224 21.91478467605247
111.25114755962893 91.81588507190591 21.703962112245723
111.34602663058317 91.99600846649687 21.48365021680698
111.43374809528407 92.168955495327 21.25478369940318
111.51407490922335 92.33502297340307 21.01823266366664
111.58678418848895 92.49454672554171 20.774811059479415
111.65166789947492 92.64789757984492 20.52528496643995
111.70853407081593 92.79547526321375 20.270378052656316
111.757237501401 92.93771936797211 20.010790431151623
111.79765313937261 93.0750813957984 19.747180880490728
111.82972295492267 93.20804531025239 19.480189612837883
111.85346006704229 93.33711674866048 19.210430911042593
111.86896579204732 93.46281794726582 18.938489914354403
111.87645032410364 93.58568251698799 18.664917268424375
111.8762464754112 93.70624970883064 18.39022116759492
111.86881378863826 93.82505917617964 18.11485894817295
111.85473866411715 93.94264363227599 17.839228744836248
111.83473585092838 94.05951714013462 17.563660863030634
111.80964907385362 94.17616167442903 17.288410416489796
111.78044138174516 94.29301735978025 17.0136550007727
111.74816114821749 94.4104834640197 16.73950338046294
111.71397786754092 94.52889624361175 16.465989893692853
111.67909568255074 94.64852744599135 16.193095385943888
111.6447657628441 94.7695721405127 15.92075501963096
111.61227022128196 94.89214380171956 15.648873771529185
111.58290138942219 95.01627537365883 15.377346072180947
111.5579411197675 95.1419203426037 15.106075240565259
111.53864000520359 95.26895312601695 14.834991073682433
111.52619990139061 95.39717152045985 14.564065459260595
111.52179694802888 95.5263071739517 14.293328373942675
111.52643149737196 95.65602689298083 14.022877923107844
111.54103927281993 95.78596592933319 13.752891393843358
111.56643806533562 95.91573977838665 13.483629175041287
111.60331746864254 96.04496419002226 13.215435459865112
111.65223702270772 96.17327495057462 12.948735632362315
111.71363059857484 96.30034680257387 12.684031858878763
111.78781575877262 96.42590879268931 12.42189739539041
111.87500748664772 96.54975483277771 12.162970873336056
111.97533305399243 96.67175116200268 11.907952218821919
112.08884578998463 96.79183922541453 11.657599722916244
112.21553704950067 96.91003566364944 11.41272926879581
112.35537611406583 97.02642276042934 11.174231303186607
112.50825793341724 97.14114560123497 10.943045858694514
112.6740057554397 97.25439758739333 10.72015425942565
112.85241261676394 97.3664004883542 10.506604731629073
113.04319925134405 97.47739465418243 10.303489278394713
113.24599874279642 97.5876239651274 10.111929106636667
113.46034233275603 97.6973187171811 9.933054423564606
113.68564378772594 97.80667797223478 9.767973069090997
113.92121874012003 97.91585236727931 9.617781679154675
114.16623131520086 98.02493160035937 9.483464340355614
114.41961997162682 98.13393969738733 9.365650746952895
114.68029546020438 98.24283738646457 9.26486274873628
114.94710578538208 98.35152793971866 9.181380022241703
115.21889758565109 98.45986065361238 9.115300941286032
115.49450842131014 98.56764398431551 9.066353194186535
115.77283714829609 98.67467067170956 9.033886986055483
116.05292602820818 98.78072806856052 9.01714926543638
116.3339539802689 98.88561283968266 9.015220083455082
116.61524903145504 98.9891388131609 9.027054401211814
116.89629031407677 99.09114260742804 9.051524171920493
117.17669732940301 99.19148239324001 9.087496120908847
117.45622228174616 99.29005602481202 9.133765595108377
117.73472805916383 99.38678967386818 9.18917705479059
118.0121661680059 99.48163604917713 9.252635020632182
118.2885586075351 99.5745765504857 9.32309864986435
118.563979746525 99.6656216527547 9.399589360786365
118.83853973130307 99.75481192678451 9.481195585451042
119.11237054105098 99.84221927745779 9.567073225442764
119.3856141182971 99.92794871052563 9.656444676752956
119.65841202778333 100.01214103775604 9.748597781664133
119.93089662513556 100.09497641104336 9.842884493702531
120.20318385042735 100.17667756100838 9.93871946161095
120.47536925298695 100.25751069627731 10.035575053251254
120.74752597781364 100.33778491067524 10.132974966253828
121.01970296831523 100.41785194607701 10.23048883283593
121.29192307964547 100.49810655255243 10.32772758288555
121.56418202948727 100.57898531272475 10.424337963545199
121.83644958922893 100.6609613554508 10.519993756261435
122.10867165983066 100.74453715184102 10.614385214857261
122.38077148393796 100.83023844944205 10.707208802698998
122.6526496740644 100.9186099450916 10.798157342188029
122.92418358717096 101.01021082540673 10.886910464054901
123.19522626936721 101.1056082415802 10.973126629454368
123.46560486690032 101.20537036569203 11.056435784847448
123.73511642421225 101.31006839089251 11.13642727522815
124.00352844310102 101.42024796853151 11.21265968398617
124.27057005277739 101.53644797108353 11.284640696684791
124.53592630958558 101.65918862858919 11.351831148169627
124.79923072024741 101.78896571765391 11.413646408436925
125.06005745959115 101.92624350518835 11.469459624944164
125.31791361511912 102.07144634352566 11.518607052152559
125.57223161832776 102.22494956943568 11.560395041343003
125.82236207026752 102.38706958997632 11.59411042619119
126.0675683364614 102.55805236229575 11.619034114581053
126.30702405373059 102.73806049918039 11.634457104889911
126.5398145697553 102.9271594766033 11.639699345247807
126.7649435369318 103.12530361761297 11.634131004709182
126.981345846015 103.33232274744002 11.617194762628674
127.18789013075292 103.54792389143721 11.58840989034516
127.38334038149438 103.77171481583987 11.547332752671846
127.56664519256724 104.00302692887064 11.49384710383027
127.73671512132142 104.24112141346195 11.427879126042816
127.89254947613385 104.48512505630302 11.34950436438018
128.03319357719081 104.73406768272663 11.258882910774028
128.15790829504365 104.98685302280926 11.156363120854287
128.26631276077663 105.24229785111362 11.042521853296444
128.3581320029448 105.49922778767177 10.917937701860675
128.43333078168104 105.75647317819129 10.783257603872064
128.49195069300197 106.01288436474171 10.63907739250787
128.5346034265151 106.26740372166968 10.48619877208596
128.56191655819936 106.51907463462535 10.325299539425073
128.57466115088891 106.76704962916578 10.157010256799715
128.57373400637078 107.0105975212082 9.981905257492796
128.56012335695 107.24910381833311 9.800492500677043
128.53486666487285 107.48206395252642 9.613208215309614
128.49901331893537 107.70907058544023 9.420416864751243
128.45359733378203 107.92979824493159 9.222415587297034
128.39961756728368 108.14398737638479 9.019441518393329
128.33802183796098 108.35142780256629 8.811680054765874
128.26969323647285 108.5519417494065 8.599273409328129
128.1954392615353 108.74536793151974 8.382329909504014
128.11598431423667 108.93154760125074 8.160933718303298
128.03196376857068 109.11031256993591 7.935154797077429
127.94392178318343 109.28147556286635 7.705058155397596
127.85231228337328 109.44482267556438 7.470712045751782
127.7574977739793 109.60009959324464 7.2321918638971425
127.65975822312879 109.74701826212772 6.989593170721928
127.55929808721955 109.88526533177051 6.74304262915147
127.45624728002285 110.01448582963323 6.492695799905831
127.35067293091558 110.13429276713669 6.2387460576971785
127.24258984217195 110.2442720217891 5.981429411694083
127.13197317262723 110.34398900858632 5.721028010862079
127.01877195005135 110.43299670891795 5.457872459362217
126.90292093354898 110.51084438895087 5.192343525869704
126.78435107654849 110.57708709949893 4.924873028783805
126.66297399358673 110.63118463429946 4.655934888597768
126.5387624364504 110.67282334855064 4.386077996881745
126.41169453901604 110.70165615661814 4.115881452965611
126.281772967541 110.71737380895756 3.8459621278834493
126.14903102737507 110.71972951687775 3.576969269568481
126.0135344025 110.708550038834 3.30957538665366
LINES 1 282
281 0 1 2 3 4 5 6 7 8 9 10 11 12 13 14 15 16 17 18 19 20 21 22 23 24 25 26 27 28 29 30 31 32 33 34 35 36 37 38 39 40 41 42 43 44 45 46 47 48 49 50 51 52 53 54 55 56 57 58 59 60 61 62 63 64 65 66 67 68 69 70 71 72 73 74 75 76 77 78 79 80 81 82 83 84 85 86 87 88 89 90 91 92 93 94 95 96 97 98 99 100 101 102 103 104 105 106 107 108 109 110 111 112 113 114 115 116 117 118 119 120 121 122 123 124 125 126 127 128 129 130 131 132 133 134 135 136 137 138 139 140 141 142 143 144 145 146 147 148 149 150 151 152 153 154 155 156 157 158 159 160 161 162 163 164 165 166 167 168 169 170 171 172 173 174 175 176 177 178 179 180 181 182 183 184 185 186 187 188 189 190 191 192 193 194 195 196 197 198 199 200 201 202 203 204 205 206 207 208 209 210 211 212 213 214 215 216 217 218 219 220 221 222 223 224 225 226 227 228 229 230 231 232 233 234 235 236 237 238 239 240 241 242 243 244 245 246 247 248 249 250 251 252 253 254 255 256 257 258 259 260 261 262 263 264 265 266 267 268 269 270 271 272 273 274 275 276 277 278 279 280

POINT_DATA 281
SCALARS curvature float
LOOKUP_TABLE default
0.12488500988990242
0.12257658300413292
0.12111136925095393
0.12048160457324095
0.12067112727573276
0.12165643578644572
0.12340125783954882
0.12584717775407325
0.12892298249967374
0.1325414229750549
0.1365989461941197
0.14097039656229762
0.14549944245163526
0.15000966926914266
0.15431715769508106
0.15822811549158516
0.16154661306253015
0.16408576616486537
0.1656676529273211
0.1661213491440081
0.16533116318649357
0.16327545109879538
0.16003116324117056
0.15572008186062575
0.15048189458539213
0.14451920848248168
0.13819672861992022
0.1319309645119634
0.12610111758659548
0.12103013871702731
0.11702888603415508
0.11444594730000918
0.11355013402320331
0.11444572637529014
0.11707481021919205
0.12128352179477934
0.12692100767472625
0.13381130798914287
0.1417205524021468
0.15036239557724865
0.15944513041752734
0.1687275252500778
0.17796102644450743
0.18683546098290668
0.19497626502037796
0.20199157168501464
0.20752197564348449
0.2112111205492491
0.21281690639691478
0.2121776322952472
0.20924467572596273
0.20408991773044374
0.19699050657103412
0.18838556385382144
0.17878398060645878
0.16868483912845272
0.15857885425029022
0.14897900805359032
0.140414721168691
0.13337015045648892
0.12824607272023653
0.12538627710045336
0.1250621670846856
0.12738101817353126
0.13234058936378287
0.13980136176781957
0.14957257730744206
0.16151321047882528
0.1755088094649545
0.19146415258691538
0.20926450502416524
0.22872642551244649
0.24962304984940892
0.2717150986154934
0.2946205347757376
0.3177076618407093
0.3400303463832842
0.360410488939609
0.3776595542488607
0.3905545555072619
0.3983380806903698
0.4006717906294342
0.3976978185583871
0.3900670486498636
0.3787723378563724
0.3652187399575261
0.3504211406181208
0.3350232116978334
0.3193941029664434
0.3040183639719524
0.2892445065810833
0.27507983554129994
0.2612952043479383
0.24774020960280074
0.23456418415176647
0.2219580395713897
0.20992884986075783
0.1984016456431303
0.18743747744831685
0.17734605648770535
0.16848901472668315
0.16112299798202312
0.1554263699838314
0.15159389171038776
0.14988662049831
0.15047845013586422
0.1533685657263919
0.15838366318270397
0.16525390070101803
0.17372649582452032
0.18351080049676763
0.19431987071414497
0.20587800966718123
0.21790428840623544
0.23011907718454053
0.24222972366154177
0.2540424935436679
0.2654148978768337
0.2760821610827354
0.28561300813712653
0.2935516633396802
0.29968748799163913
0.30391826454124654
0.30595393841808827
0.3053406236048528
0.3020327822797586
0.2964523183618675
0.2890175918131081
0.2799682263355525
0.2694621451290873
0.2579408078752276
0.24599546093128674
0.23404818466784413
0.22227109473090678
0.21075327234038085
0.19966060800195923
0.18917510065647228
0.17939995761295272
0.17034755123148215
0.16199814511605215
0.15434278761892983
0.14738249868459297
0.14109331999223515
0.13541139404080085
0.13026086390273667
0.1255261210026447
0.12106571721356102
0.11672128312262915
0.1123265149966652
0.10772361819715182
0.1027221935735237
0.0971111253260171
0.09072957631951797
0.08352515080923394
0.07549038198252148
0.06659672533175173
0.05681565902357491
0.04626641487291577
0.03534330353853021
0.024902022502551226
0.017413341827151128
0.018270508808880526
0.027203941037656103
0.03918129765554242
0.052029077977512335
0.06495587099066209
0.07754832910693407
0.0895630485217097
0.10081116830636493
0.1111301681231458
0.12038527298055814
0.12847682377957081
0.13540869946354436
0.1412477473297339
0.14611959882750622
0.15021418724796654
0.15375083573600973
0.15695895041860386
0.1600739823509431
0.16333889357943712
0.1669723407194425
0.17111421128096105
0.17576049423361462
0.18080884150769924
0.18612549073898293
0.1915341313399695
0.19673882695856115
0.20127833310749918
0.20462312969660806
0.20643205476713503
0.2065389837521772
0.20476377641742213
0.20089128631656955
0.1948183936380829
0.18679903755650482
0.1772280670588998
0.16644863497434745
0.15474499269290976
0.1424102714802785
0.12979737982733963
0.11722089442339341
0.10491267954803615
0.0930436805845041
0.08174309710640769
0.0711054563674597
0.06119981684981461
0.05203032915086407
0.043573955681946976
0.03578459395837094
0.028580795155233495
0.021861872697106505
0.01549642955875543
0.00939764041584502
0.0038443879752939935
0.004116430702765345
0.009864486983583508
0.016184301888198572
0.022755256324411773
0.029539647990273362
0.036538231085510034
0.04376389043467879
0.05120851597504806
0.05886858974515172
0.06674915549986553
0.07487228040234929
0.08327869271798345
0.09198452869604687
0.10099557192406937
0.11029776516574638
0.11986049990324243
0.12965084142728847
0.13961426439517294
0.1496681471772106
0.15970983690172447
0.16961190116955868
0.17922087790728053
0.18836426180518445
0.1968419207840414
0.20449486421765167
0.21117091412139716
0.21669158556633933
0.22082363001111235
0.22335488784256352
0.2242367800834389
0.22349709772207604
0.2211229026232922
0.21704639389725333
0.21132029354272994
0.20423578988204447
0.19614979110205766
0.18729966129879108
0.17786574102209898
0.16810465338817243
0.1583753574912936
0.14900065299521031
0.1402189180864732
0.1322119535896702
0.12513754199888322
0.11913991253678442
0.11432136061291721
0.11071901725649543
0.10831901053656771
0.10704358418177655
0.10677767747686305
0.10740265384460647
0.10878155123500512
0.11079457067185697
0.11333253737525216
0.11629664696902414
0.11960535556674777
0.12317960555382959
0.12694301481117007
0.13082637020700882
0.13476109691218036
0.13867472968692446
0.14249455760711202
0.14614431847898704
0.14954881793467895
0.1526336393208294
0.15532611427160986
0.157559065159112
SCALARS torsion float
LOOKUP_TABLE default
0.1317337460615971
0.13409935414846982
0.1353573769473043
0.13537003493766764
0.13399789290739694
0.13130607838309472
0.1269764667872389
0.12113582058314276
0.11399356596544993
0.10558664213299472
0.09621406734497343
0.08549157054620815
0.07347054515706677
0.060296750767529134
0.04593605577169892
0.030377643166933792
0.013700545214624375
-0.0042950836792582875
-0.023851416098867408
-0.0453447874075007
-0.06900693752516822
-0.09370370260423815
-0.11992915631779837
-0.14847693925241162
-0.18041326569525096
-0.21581031094947897
-0.25224201671651564
-0.2889460456755349
-0.32511314166504934
-0.3591907758890934
-0.387906982278766
-0.40601581542505316
-0.40976553810754435
-0.39861877400672957
-0.3747556107536247
-0.3425988379127935
-0.30634009803644086
-0.2686609932583105
-0.23167257558606283
-0.19675653175182345
-0.1655105096175616
-0.13868969453882646
-0.11555252721909902
-0.09576614463892041
-0.07881218730940774
-0.06524812848123611
-0.05522220156138152
-0.04860316540014567
-0.04564231835250134
-0.04627953355385292
-0.051049457657539064
-0.06027327730591003
-0.07346300727014075
-0.09035992248364116
-0.11135909803101864
-0.13689354473017223
-0.16729155109535926
-0.19959236400989663
-0.23105730072527295
-0.25896960201239705
-0.2795571836415513
-0.2891081674241446
-0.2844366421920139
-0.2656648893407072
-0.23598970488584797
-0.19994200877888127
-0.1619199786256796
-0.12615803825341673
-0.09568763898628545
-0.07033654654265588
-0.04939638085837564
-0.03207110476523802
-0.018170084340466283
-0.008151254875896472
-0.0013626736854630678
0.0027872389407715046
0.004565298451791668
0.004219591965905971
0.0018641434698103976
-0.002101591523646381
-0.006784331000461696
-0.011898630266303011
-0.016281688110018122
-0.01974293494446524
-0.021148362349382506
-0.02028535620402318
-0.016323642156013268
-0.009004703291952684
0.0010784147257570723
0.013348575193703619
0.028195475839492674
0.04650110018723558
0.06892072293650095
0.0932967793251104
0.11888326755149582
0.14649382334881897
0.1778370106324799
0.21431303520888348
0.2539965631411208
0.29511686753653177
0.33634729003768343
0.3767227249284328
0.41435078874326253
0.4454911136851304
0.46546923650118677
0.47152313241049837
0.4643926793359369
0.44687149095151957
0.42269435598976746
0.39479183740585966
0.36577956638539655
0.33791272416203616
0.3120158173112681
0.2883227141720519
0.26673564856711884
0.24726846332502583
0.22995386463266596
0.21397488483806862
0.19857103225979156
0.18362094928749448
0.16976722416400053
0.15729070904274411
0.1454370500149081
0.13360703332030674
0.12210071049977084
0.11232501249308842
0.10417015559193793
0.09680331853515266
0.0897837207228533
0.0835683732972379
0.07915696354764122
0.0762595542651282
0.07444567919656013
0.07363040786827421
0.07413762572886627
0.0764189836071571
0.08041643309195848
0.08604147657081242
0.0933693144053524
0.10237577978633428
0.11280345675553206
0.12449940225924348
0.13680927352885427
0.14932789583408368
0.16148246209648456
0.17234077338409237
0.18160674557982098
0.18954734437875415
0.1964154829521306
0.2020539617538466
0.20609623674906058
0.2094227711180401
0.21556279520064953
0.22719830467644092
0.24588707877815447
0.27434018870945115
0.3241833794732969
0.4284597868027849
0.6640016014408432
1.2569295954480983
2.5095386852078767
2.3498844031227897
1.1336677792936047
0.5921977925243118
0.36641838684946604
0.2564641592060983
0.19418355056632988
0.1521561418326179
0.12054002746987726
0.09447727719984728
0.07131846435020223
0.04966756553901375
0.02863380554774228
0.007339341169854496
-0.013532192907756469
-0.034372027022851984
-0.05492391673912507
-0.07458446714494257
-0.09325383339050043
-0.10863788456341925
-0.1203618495910267
-0.12817637569157764
-0.1321330250129206
-0.13266228920869905
-0.1296834606616552
-0.123490728644347
-0.11449090368857298
-0.10319725471933329
-0.0907078878028451
-0.07876336118173441
-0.06699767176981397
-0.054819936146911
-0.04185565073420338
-0.029115189563471457
-0.017654778015454446
-0.006894618145787783
0.004032632848288812
0.015697404882851224
0.027742493778230053
0.040034868300602294
0.052951734641430895
0.06705965757813358
0.08259622079209931
0.09960326364601155
0.11773441118238273
0.13673977345588656
0.1572295260462565
0.17816622835043025
0.19849484458472008
0.2158985793487363
0.23198235323838326
0.2661548881887923
0.39106861384156655
1.4724957305164101
1.3649069514114829
0.37581253402320797
0.22130438548301665
0.15598088944336042
0.11611933878889935
0.08635601473089431
0.061669824104722576
0.04030565786162973
0.02151965331678985
0.005724294242801375
-0.00781441790371445
-0.01817575117936667
-0.025045702332490448
-0.02944522366908013
-0.031542590684911616
-0.032015400005235346
-0.0308642417213454
-0.028139556466628197
-0.02430639813001576
-0.01980192640932075
-0.01475162655400458
-0.009643368452703412
-0.004690368698945742
-5.95349202436268e-05
0.003518219839467771
0.006109645095264898
0.007157955506747099
0.006526052156298592
0.004266286278764313
0.0003358657109277526
-0.005413509393321461
-0.013336860208540767
-0.023702167315740166
-0.035248847275307575
-0.04741634966635858
-0.06056980494379067
-0.07529601112804583
-0.09197597870507856
-0.10919214546691491
-0.12629927340308203
-0.14309427019791715
-0.15925597737429778
-0.17385749519705443
-0.18566477839172843
-0.19278688698008564
-0.19361501556579713
-0.18693345413809212
-0.17200478766211993
-0.15111880770875818
-0.12538250450818414
-0.09695168526716945
-0.06817101571973128
-0.04021671219815538
-0.015119003612961975
0.006522731091402997
0.023992556274475937
0.03684790211900401
0.045532476320797245
0.05126912775170106
0.05435254178079873
0.05541066944732795
0.054795791121169814
0.053009847422803735
0.05084763960297986
0.04839456667275422
0.04587202572599087
0.0433424503094357
