# vtk DataFile Version 2.0
00002245.nii_L_ICA_labeled
ASCII
DATASET POLYDATA
POINTS 244 float
100.96740790821114 76.2991529860142 31.236969862401267
100.853324701667 76.03269884598556 31.1596219427483
100.74356240142107 75.76319026857192 31.08672973264789
100.63823177713674 75.49090449267806 31.017719127414875
100.53748429413373 75.21606936943404 30.952049120478083
100.44138915227977 74.93893536495732 30.889124514526674
100.35003736886667 74.65971707389431 30.828385286241865
100.26356271010461 74.37859724687537 30.76929825272528
100.18210237643684 74.09575122798377 30.71133440850593
100.10574669110855 73.81136148052622 30.65397900490152
100.03465381968715 73.52558369625228 30.59675758349855
99.96905378098688 73.23855900454055 30.53921892296646
99.90907369907069 72.9504525285086 30.480961748245747
99.85492806121681 72.66141073038459 30.421633494212525
99.80692558886669 72.371573367976 30.360916455714804
99.76526534617761 72.08109981093175 30.298582962990025
99.73020116370708 71.7901442676467 30.234465735296343
99.70204534317386 71.49886231840199 30.16845377420277
99.68108557155195 71.20741697415002 30.10051770621645
99.6675341728334 70.91597321162047 30.03072204673791
99.66163741189985 70.62469431024502 29.959192992451406
99.66370063306472 70.33374762583793 29.88611637715339
99.67385835153493 70.04329289432766 29.811774401906735
99.69225890282412 69.75348667094111 29.736491986443212
99.7190482152647 69.46448572191413 29.66063226895022
99.75440392353427 69.17645641335258 29.58458757826568
99.7983036004234 68.88954938234446 29.508756428270907
99.8507796091062 68.603931119188 29.43351190790153
99.91188420670991 68.31979005806453 29.35919136484086
99.98158085108031 68.03732334843284 29.28606066121992
100.05974093868392 67.75673182750646 29.214280180520152
100.14625995390854 67.47824447655128 29.143903709024517
100.24109499041194 67.20213883578107 29.074869586987937
100.34396453945564 66.92864890144347 29.006938687186555
100.45466725614818 66.65805012814927 28.939743581941038
100.57305660736165 66.39067086935535 28.872761818976006
100.69882306881425 66.12680140394127 28.805310269856562
100.8316669668445 65.86675898495285 28.73657549149679
100.97133058367818 65.61092808790022 28.66559229826474
101.11746090138485 65.35969696689699 28.591281952408988
101.26961685170286 65.11345416475073 28.512508771084978
101.42733501281108 64.87265617724435 28.42805246900613
101.59010349789718 64.63786420096717 28.336569253051067
101.75718182627925 64.4095341368009 28.236881280513874
101.92776505491513 64.18820454050123 28.127793931948506
102.10090610624019 63.97441295318059 28.008212285592936
102.27551746965747 63.76875639420589 27.877068704304754
102.45035131964916 63.571616286037596 27.73372277395028
102.62408435350982 63.38337064770221 27.57765357839954
102.79532780944533 63.204302482564046 27.408576024475146
102.96262244302825 63.03467174913031 27.226328176134167
103.12456194650015 62.874517882886146 27.03113462977407
103.27980185030013 62.72380741490861 26.823384173324932
103.42702532124179 62.58250929632087 26.603533286443493
103.56491985918096 62.45062243938495 26.372093879222287
103.69244734780675 62.32797483161534 26.129883371460124
103.80848841442734 62.2145988355357 25.877588788109463
103.91194351811954 62.1106244132957 25.61594636563839
104.00200321988927 62.01611879022611 25.34589682751238
104.07760926955812 61.93148276076256 25.068248450393263
104.13791245579515 61.85713233138357 24.783994754449974
104.18216596999306 61.79358147673165 24.494226131890183
104.20939438278097 61.74166344103526 24.200075962336992
104.21891849346687 61.70217528283479 23.90291309175896
104.21014130584194 61.67600639628372 23.604266926501538
104.18250393862937 61.66416188861073 23.30586215568844
104.13556832833788 61.66769663915186 23.00966623858653
104.06920793868355 61.687544061976375 22.717870521717174
103.98366866147593 61.724418772731106 22.43280915810413
103.8794832270104 61.778847257740125 22.15691818837775
103.75757407091484 61.85102846595883 21.8926097015076
103.61924005766795 61.940782617399414 21.642132610707616
103.4660994944919 62.04754267306406 21.407435080927154
103.29999669532867 62.170390313917146 21.190053942727772
103.12288806317237 62.30813213956038 20.99105333882587
102.93672919675558 62.45939760941853 20.811019502516572
102.74336017456963 62.62278373127158 20.65018164240125
102.54449071584875 62.79687646905408 20.50840152336748
102.34167829527176 62.980263578156425 20.385119992356895
102.1362517101814 63.171721897192114 20.279706717680426
101.92935726203336 63.3702800054414 20.191721346007537
101.72203841607251 63.57490892417678 20.12017047633169
101.5151964861858 63.784882857605304 20.06445401651988
101.30966727212184 63.999575405416934 20.023917287455404
101.10621728989884 64.21845585884785 19.997841640311055
100.9056407289468 64.44117989181437 19.98582501293629
100.70865973401459 64.66740809752909 19.987168705106917
100.51615368828564 64.89700382410336 20.00166186871201
100.32888562250616 65.12978138049196 20.028646735028918
100.1478908556634 65.36574236542533 20.067968453631774
99.97408539177121 65.60483188579636 20.119051299623127
99.80859844566994 65.84709570621074 20.181532908875365
99.65266517803862 66.09260057995924 20.254964760485567
99.50745145403127 66.34137407682223 20.33864985285382
99.37430954838426 66.59347657124216 20.43190151953573
99.2546780786892 66.84894892622732 20.533874794899436
99.14975737737207 67.10773116131689 20.64340434755359
99.06078952409882 67.36973079604705 20.75921716603035
98.98887717640159 67.63477688536197 20.87984292138206
98.93498400401461 67.90262192824791 21.003639838093385
98.89975035339232 68.172922464712 21.128801661460198
98.88341894227824 68.44525568283294 21.253442108602883
98.88596217511714 68.7191586113784 21.37566176417865
98.90701214953543 68.99414292955845 21.49359750705323
98.94595510932027 69.26972238504891 21.605444940023403
99.00189991156891 69.54542829667865 21.709497176148194
99.07356572337484 69.82083466177991 21.804289313721405
99.15964690168711 70.09556695741956 21.888462201229938
99.25892660207231 70.36927421418548 21.960583784681138
99.36976115286976 70.64166654224907 22.01966401470074
99.49070767314332 70.91245422789943 22.064604396371166
99.62036037580228 71.18131611425719 22.094202949701454
99.75710640561037 71.44794373960254 22.10766276650302
99.89950704370113 71.71190829362476 22.103800380358226
100.04599880652559 71.9727048900618 22.08162697915468
100.1949858427646 72.22971578104836 22.040250765373102
100.3448404193738 72.48209987803297 21.978546476066956
100.49383398694118 72.72884579136864 21.895642115972024
100.640202953686 72.96876881794778 21.79093951441901
100.78215526838278 73.20045728222281 21.66399316120773
100.91793053697806 73.42234635130542 21.51475121514903
101.04589638810909 73.6328048280648 21.343655290957642
101.16466581406749 73.83025819940097 21.151695564484555
101.27321105653765 74.01332855658556 20.94039391285206
101.37092314411389 74.18092285031403 20.711673684912242
101.45771637521348 74.33241753773743 20.467812863174323
101.53394867244151 74.46760484972181 20.211162685972077
101.60036773132882 74.58668779816064 19.944012040846413
101.65801430891663 74.69021253302566 19.668462661674635
101.70811546708133 74.77897700593974 19.386353365089676
101.75195645337935 74.85385395387304 19.099208477538994
101.79089999595507 74.9159059466296 18.80831806700025
101.82629483619013 74.9663169443549 18.514730552688192
101.85937125473419 75.00611199855767 18.219242474923007
101.89130029100646 75.03640248270185 17.922500515343998
101.92312546778427 75.05834680093973 17.625010676647417
101.95576857038284 75.0728774310916 17.32715300544777
101.98998578058475 75.08112360767387 17.02923052208995
102.02639111510058 75.08404271941001 16.731466208626017
102.06545623929755 75.0825579273842 16.43402772681257
102.10743641695798 75.07761587459292 16.13702337652302
102.15248642359889 75.0700286348423 15.84052434641227
102.20057292931217 75.0605863482009 15.544555561725613
102.25151053081814 75.04999728062938 15.24910254988318
102.30503213164188 75.03887114643292 14.954126049479592
102.36075184030564 75.02773947250553 14.659556805034217
102.41820448306659 75.01703359977495 14.365304643769644
102.47690474065564 75.00709141598898 14.071271862775033
102.53636026652558 74.9981788536105 13.77735779390441
102.59608119942004 74.9904541196112 13.483463940542293
102.65564106275014 74.9840147719794 13.189506476706294
102.71468244627677 74.9789066539894 12.895418340494388
102.7729356113768 74.97513544946804 12.601152939967525
102.83025224087964 74.97266184396103 12.306689960865642
102.88659462351592 74.9714466983905 12.012031103207104
102.94203615379804 74.97146417014245 11.717198856000907
102.99678108790236 74.97268803325937 11.42223896661751
103.05113692368028 74.97511952775542 11.127214573910035
103.1055013201993 74.9788049991085 10.832204770592432
103.1603583811236 74.98383852593533 10.537306237286606
103.2162380154753 74.99033930299075 10.2426287416762
103.27370520173264 74.9984866252573 9.948298029614252
103.33337593255258 75.0085350489765 9.654465523832044
103.3958072903265 75.02073818494571 9.361289745597865
103.46154941685559 75.03540810502636 9.068952708019742
103.53114338874423 75.05291290269265 8.777665954093674
103.60504901563728 75.07362655866514 8.487655741613139
103.68363001941748 75.09791248511641 8.19915693706807
103.7671983267935 75.12614595584654 7.912424997576043
103.85604067597862 75.15872670453685 7.627747881290825
103.95026908351232 75.19593660252936 7.345380724580021
104.0499546925666 75.23802573111783 7.065584960418099
104.15511327831821 75.28518136529358 6.788614663167846
104.26576874195668 75.33756923863831 6.51474371866895
104.38178519179336 75.39515233176749 6.244154782212732
104.50306118553034 75.45786043796514 5.977033154778192
104.62950750160597 75.52556249354987 5.71355191680488
104.76105038951266 75.59806334315611 5.453869865682682
104.89755798145846 75.6750419146239 5.198067883846562
105.03897311490425 75.75618684560902 4.946249534810231
105.1853407709898 75.84121514933226 4.698576245870473
105.33660248767333 75.92972817558433 4.455100409505552
105.4928147643814 76.02140180495478 4.215957965203227
105.65413634239661 76.11596581812235 3.981376855477477
105.82061572705565 76.21310368505596 3.7514992780432985
105.99243047699018 76.3125976764485 3.526609475072324
106.16979632211425 76.41427635016852 3.3070713129301024
106.35283662191316 76.51797705421498 3.093211703023691
106.54178549990858 76.62362405376658 2.8855337565721
106.73683134914943 76.73117017200417 2.6845786748440044
106.93807772304552 76.84058801324751 2.4908813945436954
107.14567169846676 76.95190509098904 2.305129724560291
107.35968552009872 77.06516487811065 2.128044026260998
107.58004236530883 77.18039976141706 1.9602604355091333
107.80662966191483 77.29766044686995 1.8024780888304763
108.03927561647602 77.4170080954934 1.6554455240069557
108.27762172696006 77.53846712480244 1.5197105021033985
108.52121750413924 77.66205194950506 1.3957256854173714
108.76953226067668 77.78777060005997 1.283836061648024
109.02196077952584 77.91562581005807 1.184243610003352
109.27784332977113 78.04562247384054 1.0970017546223
109.53645214384241 78.17774072461604 1.0218180939293198
109.79709130170542 78.31198362328337 0.958307343552279
110.05909358958142 78.44836597768891 0.9059218915041752
110.32184385785868 78.58693916646162 0.8640790238202591
110.58477825157195 78.7277287287219 0.8318970268368254
110.8474205418299 78.87078533801002 0.8085076616922042
111.10936815457151 79.01617878115779 0.7930507389331191
111.37028635328814 79.16398556245905 0.7846563435710775
111.62993038406135 79.31423898807144 0.7823712824897728
111.8881079486513 79.46698913598951 0.7853660271923976
112.14466568872774 79.62229289056278 0.7928913268025898
112.39953830724555 79.78012514060619 0.8041617517313129
112.65267940164448 79.9404728208322 0.8185402561751796
112.90406246156707 80.10331683500432 0.8354862852635696
113.15373704882819 80.26854543423626 0.8544874395897173
113.40175516508488 80.43605302324787 0.875160755503951
113.64817800090721 80.60572520672379 0.8972161827860827
113.8931288259486 80.77736639453813 0.9204065277569138
114.13672550848233 80.95079157132928 0.9445706960038236
114.37908508658992 81.12581916068297 0.9696071532897008
114.62036548393733 81.30221904089176 0.9954250380295239
114.86071182798358 81.47978415091718 1.0219591746860877
115.1002612566586 81.6583249747538 1.0491456650545032
115.33915691268295 81.83765465364948 1.07688795294862
115.57752845144682 82.01761496886553 1.1050523961302545
115.81548630106973 82.19808440816155 1.1334568484711862
116.05312473998265 82.3789754946692 1.161853421627002
116.2905215568451 82.56023358888072 1.1899286098269481
116.52772868349449 82.7418469447869 1.2173016349214447
116.76477190445874 82.9238467521372 1.2435007634566344
117.00165325799207 83.10629218305864 1.2680060928140735
117.2383441563609 83.28927556705175 1.2902290869084667
117.47478293537415 83.47291734704501 1.309501678173767
117.71087238360788 83.65735455118534 1.325096227371173
117.94648246220873 83.84272026838049 1.336287091160317
118.1814415742008 84.02914798385765 1.3422925956734781
118.41552526369206 84.21676762014407 1.3422474718354587
118.64847429211868 84.40566544327375 1.335364013430897
118.87998368645106 84.59589368139451 1.3208583531003153
119.10969547302646 84.78746663466654 1.297939251196056
119.33718143810027 84.98035797512566 1.265773067732555
119.56202010957233 85.17445793362022 1.2237900767669039
119.783740154855 85.3696160400009 1.17141813210096
LINES 1 245
244 0 1 2 3 4 5 6 7 8 9 10 11 12 13 14 15 16 17 18 19 20 21 22 23 24 25 26 27 28 29 30 31 32 33 34 35 36 37 38 39 40 41 42 43 44 45 46 47 48 49 50 51 52 53 54 55 56 57 58 59 60 61 62 63 64 65 66 67 68 69 70 71 72 73 74 75 76 77 78 79 80 81 82 83 84 85 86 87 88 89 90 91 92 93 94 95 96 97 98 99 100 101 102 103 104 105 106 107 108 109 110 111 112 113 114 115 116 117 118 119 120 121 122 123 124 125 126 127 128 129 130 131 132 133 134 135 136 137 138 139 140 141 142 143 144 145 146 147 148 149 150 151 152 153 154 155 156 157 158 159 160 161 162 163 164 165 166 167 168 169 170 171 172 173 174 175 176 177 178 179 180 181 182 183 184 185 186 187 188 189 190 191 192 193 194 195 196 197 198 199 200 201 202 203 204 205 206 207 208 209 210 211 212 213 214 215 216 217 218 219 220 221 222 223 224 225 226 227 228 229 230 231 232 233 234 235 236 237 238 239 240 241 242 243

POINT_DATA 244
SCALARS curvature float
LOOKUP_TABLE default
0.08241054536768253
0.07744352904713395
0.07292493044483168
0.06893401234327745
0.06556191914467888
0.06289743070061803
0.06102513117620942
0.060015113340592986
0.059899079133263505
0.0606428218055186
0.0621684324540129
0.06435722893412293
0.06704424820799516
0.07006897140941117
0.07326834582659802
0.07649519576242544
0.07962761640796429
0.08256694954306537
0.08523797149606778
0.08759262309212557
0.0896218051790695
0.09134080707454477
0.09279895691231582
0.09405573500255157
0.09516041259779674
0.09613841914064054
0.0969769403167927
0.09761898424671303
0.09797663786494884
0.09794935860827865
0.09746552755763173
0.09651551772892038
0.09516338562732835
0.09358656087352446
0.09207004123830931
0.09102348810164625
0.09093766980041539
0.09229200187111664
0.09547844165113964
0.10066266604694787
0.10774233294255141
0.1164145234927598
0.12622120429058045
0.13660854044516949
0.14702348159887568
0.15693985361552387
0.1658976767318539
0.17358020254489695
0.17988320413141812
0.18481383495194179
0.18848355637961994
0.19112795246129188
0.19311587941536165
0.19484046758439283
0.1966906960865563
0.19900827810136842
0.20207286804842706
0.2061075014630721
0.21124734752818058
0.21758477357209796
0.22513700585170207
0.23383937216994571
0.24357438353064462
0.25412292611898607
0.26515355603079077
0.276232813748743
0.2867714900009762
0.29604661845166963
0.3032626949973541
0.3077278397297559
0.3088821496236456
0.3064605984142013
0.30049192205673
0.2913645570131353
0.27969025407577125
0.2662498285419242
0.2518307206921913
0.23717267510897388
0.2228903169485391
0.20945321249918913
0.1972418970593187
0.1864702165953241
0.1772875580962298
0.1697745020396236
0.16395176562272928
0.15983761258057846
0.15735155090060868
0.15645622096606074
0.15700830547241018
0.15891717674840894
0.1620130104344117
0.16614120723911047
0.17112191143984806
0.1767387561392042
0.18276781305022421
0.18894616429075134
0.19499606506747727
0.20063532366634027
0.20555336650045675
0.20941572950164852
0.21195285409030534
0.21302702081804767
0.21262095839581552
0.2108907513419223
0.20810798306302727
0.20468725417157832
0.20110655986393622
0.19791268937750456
0.1956511970351231
0.1948008223662559
0.19575528090611136
0.19883349371979758
0.20416367879430877
0.21175598742907645
0.22141333057190213
0.23276002499257745
0.2452463426005641
0.25809996510584116
0.2703770188990998
0.2809630127938125
0.2886982385961225
0.29248567570621054
0.29156401626477696
0.2855903390263555
0.27479621551276323
0.25986439194607336
0.24182170106588086
0.221771739952411
0.200816259430015
0.179881182651041
0.15965785526921508
0.14063424374745503
0.12316953926651827
0.1075430648559397
0.0938905187080373
0.08221482912608856
0.0724432741910974
0.06432629658666464
0.05753436792803198
0.051682261374441214
0.046367413267579295
0.04128237091793896
0.036218706486723685
0.03111632733728824
0.026064051430098434
0.021304598399867584
0.01727600160059867
0.014592880410781136
0.013768763021716991
0.014536831933033074
0.01603563845043263
0.01744629395372398
0.018262292215830738
0.01825593143403355
0.01741926412140798
0.015972763179029233
0.01452178888475553
0.014132189710710204
0.015915927811805473
0.02004272540614451
0.02581099756564828
0.032544988885057594
0.03977565271088336
0.04716218356000077
0.05445274194211146
0.06142973587117116
0.06792061680880214
0.07378411187993941
0.07890367993274891
0.08318001955629817
0.08655002784684093
0.08898043434075091
0.09046379523828892
0.09103303006762567
0.09077879953661963
0.08984160016297685
0.08839528760199791
0.08666085787044124
0.08487907995817769
0.08328843865259125
0.08213233157965875
0.08161332169564124
0.08190451565569867
0.08312689743740972
0.08531871574248052
0.08847646818995743
0.09254542603521132
0.097419554370096
0.10296412313284817
0.10901642290095201
0.11537124277297982
0.12180365833733284
0.12804680689798106
0.1338162341389062
0.13884188447111293
0.1428408857015395
0.14554418868085084
0.1467061443804511
0.14618104654801292
0.14390631511276072
0.1399218363231331
0.13437679536415176
0.12749343237747776
0.11955781868661891
0.11087751895695433
0.10179136179374688
0.09260922290135118
0.08362369770401958
0.07508835173185198
0.06719887107650041
0.06010207828314028
0.05387855483948148
0.0485212530559522
0.043953113741431744
0.04004177794799995
0.036590592356092445
0.03342228430367525
0.030391544286011277
0.027406556105594553
0.024435683350174157
0.021489599353054868
0.018597702279272762
0.0157809644498191
0.013037627877358769
0.010354521971217402
0.007803506102129995
0.005882237955762382
0.006079494568829802
0.009036476435559358
0.01373397872263948
0.0195513622275909
0.026252250691551102
0.033708275702193036
0.04181068346208473
0.05044738872690149
0.05949170857156521
0.06881990758434314
0.07830300886422917
0.08780696156102669
0.09720336773723026
0.10635602347500187
0.11512579752753684
0.12337336228979277
0.130958280726055
SCALARS torsion float
LOOKUP_TABLE default
-0.2024912591301971
-0.2262736670649747
-0.251843697228882
-0.27819759227880475
-0.3035263067857052
-0.3246434387121803
-0.33815997653488006
-0.3399770176770404
-0.32812926903018164
-0.3027023796260348
-0.26630629821124807
-0.2230021702715907
-0.17678806962042257
-0.13116098029794693
-0.08817920562479281
-0.0489241675135567
-0.013850695104093869
0.017676067914437283
0.04622345249188516
0.07208447838833142
0.09429798357992372
0.112964885214629
0.12675889604770316
0.13538398799425133
0.13675329014842655
0.13051127763255838
0.1158327389758145
0.09281229594687479
0.06170199847743444
0.02243888287603511
-0.023390997939681954
-0.07563806445830032
-0.13445265699688383
-0.19949426173112664
-0.2688734570528745
-0.3369568843338519
-0.396553404639444
-0.4369026847643391
-0.4523320830197973
-0.4424848839148374
-0.41462227577301436
-0.3776034588932797
-0.3395991892888085
-0.30534484780672555
-0.2771048923671105
-0.25491533691188134
-0.2384169512898103
-0.22616232279487486
-0.21674118481164165
-0.20877709127980396
-0.20121320918129323
-0.19269348866285513
-0.18165207291169236
-0.16753952410255157
-0.14986409215618915
-0.12886209715783326
-0.10541501415171733
-0.08010890466889849
-0.054908805882080254
-0.030324249893653815
-0.008089476783100243
0.011568122848613579
0.027805027763293303
0.04061161899726288
0.05021709716259003
0.05686820069755128
0.06095515104158538
0.06279899084019616
0.06275413965142586
0.06103300912605439
0.05807575272515632
0.05435143924847264
0.05025694464364137
0.04631457707089598
0.042860917237786345
0.04048182613674638
0.03941983310244946
0.04028703628388961
0.04320524232863584
0.048494438732289716
0.056329309006342136
0.06684879605372797
0.08009285430134078
0.09570369777139864
0.11328378577314599
0.13204667731466282
0.1512767470313927
0.1701227679598263
0.18796703293225622
0.20435642273829135
0.21896946800570039
0.23190203146823482
0.24274365746650925
0.2519647608341597
0.2589145717777756
0.2641200917413609
0.26730307948724874
0.2689073392247143
0.2692733758556046
0.26926152304534556
0.2692045473186088
0.2695773338841264
0.2709834192771634
0.2737250579007625
0.2778180999445029
0.2829093443754345
0.28830715966838605
0.2927002249438387
0.29470747637631095
0.29265684432074723
0.28565590740397223
0.273119183711649
0.2554596578035129
0.23365880801628816
0.20912714778297287
0.1831451126073594
0.1566534269736545
0.130634310111779
0.10524963696072359
0.08074731120979467
0.05686453717486439
0.03355651381219965
0.010527449744802655
-0.012422097820850606
-0.035581806405272066
-0.05934543009513674
-0.08406054231083711
-0.11051684205192899
-0.13919494453331152
-0.17115721968830003
-0.20739756074984486
-0.24868853229504176
-0.2946889572501209
-0.3437536975756197
-0.3946903848835211
-0.44171348645427483
-0.4813799578045659
-0.5067202317968802
-0.5184321472200425
-0.5175815198456979
-0.5118674001145217
-0.5098131589993783
-0.5219471866842279
-0.5630234686535103
-0.6508492050765439
-0.8155080110028963
-1.0675541552069876
-1.3145572642378867
-1.2995073054547168
-1.0057451168065275
-0.6697795536609503
-0.40897136704490683
-0.2026387727535362
-0.014797500085178762
0.20349921042204544
0.4959084290255126
0.8794818377050382
1.1671395399293791
1.0469817893293127
0.6933547040869364
0.40417881632121005
0.22302401821086754
0.11452183002665296
0.046491755385350095
0.003116094359779732
-0.02583987045151292
-0.04350658164328121
-0.05388410519733288
-0.05761800954773174
-0.05608669888697008
-0.049810967168502536
-0.039071748194270756
-0.02477635495014058
-0.006798639422234418
0.01380529307240585
0.03681058363831554
0.06083787157820862
0.08431222035792282
0.1062117418883245
0.12471848680979372
0.13775852183265222
0.14275391146632405
0.1387441714075428
0.12620207334167813
0.10661245324597085
0.08314796032273061
0.05805498317520993
0.03427068149732995
0.012965041800704439
-0.004866671691036433
-0.019254600637586446
-0.030507529761577758
-0.03910540844973664
-0.045824250739763026
-0.05126756630754249
-0.056126903063869034
-0.061201155552434265
-0.0669110323474465
-0.07349434941314568
-0.08135465414569476
-0.09073201692320738
-0.10206795502186207
-0.11538507304627209
-0.1311001793646448
-0.14934325324857964
-0.17027134432675153
-0.19394712721101096
-0.2197444084830127
-0.24726286667028488
-0.27444581650064315
-0.29844152055923284
-0.31484860212071303
-0.3185321799685709
-0.3054971420100277
-0.2733300024919081
-0.22696448975552866
-0.16813734260369873
-0.10442778323348884
-0.038042428778923526
0.023595191159821054
0.07490554733555012
0.10613270448027186
0.09954766081515476
0.0262010384370935
-0.18542412833558217
-0.7000196770615148
-1.7447156142014757
-1.9320453593069946
-0.9129216093048691
-0.36287496986164647
-0.1433842316467094
-0.049545584165392946
-0.008000504112684124
0.010307937614168202
0.017358199134507778
0.018963308133308363
0.018075307907122203
0.015977648530390114
0.013724819005592265
0.011542641662862686
0.009681454369752446
0.008142556414501666
0.006889720427335226
0.00587713639881261
