# vtk DataFile Version 2.0
00004097.nii_R_ICA_labeled
ASCII
DATASET POLYDATA
POINTS 261 float
85.40741612840154 81.7786472191338 36.80130942997221
85.51748511410227 81.96137143687768 36.590440132226085
85.64527595433641 82.13756047704398 36.38407223084809
85.79160084015055 82.3053568775676 36.18309949481112
85.95684606284537 82.46269021940448 35.9884398627947
86.14082514258679 82.60740527343417 35.80094039847417
86.34274300027192 82.73739609553613 35.62128621003145
86.56135417620455 82.8505800405841 35.44999038449209
86.79482255330085 82.94517109254812 35.28723368357785
87.0407758442596 83.019930700876 35.13275581321881
87.29666632710075 83.073988810976 34.98596010798898
87.55985491345751 83.10680594456217 34.84592748010851
87.82762533613003 83.11866389270318 34.711330954932194
88.09749723792342 83.10983811581556 34.580736366230745
88.36711834984065 83.0809513451082 34.45253361229439
88.63437161658608 83.03307583810576 34.32505122140621
88.89729601815432 82.96707989223333 34.19665220377512
89.15408888809495 82.88406091581906 34.065747652895496
89.40316366528977 82.78529727628431 33.93091814306329
89.64283204436575 82.67172976220874 33.790800960091765
89.8717310716897 82.54471021923936 33.64437623332
90.0884624254948 82.40537954462742 33.49080695974324
90.29164711846613 82.25484130819191 33.32949564653128
90.48033015433452 82.0943938404505 33.1603133581637
90.65320031572509 81.92497513905622 32.98316920381141
90.8097588740831 81.74782928691263 32.79857595705114
90.94909109358571 81.56382704873613 32.60701295377768
91.07103440105399 81.37398162652859 32.40938753709754
91.17507567487819 81.1790261066137 32.206566485560565
91.26148467299468 80.9797721272207 31.999681206687054
91.33001781771088 80.77679055187271 31.78974458719895
91.38115180005747 80.57072739409898 31.57785941326182
91.4151823578769 80.36213453483785 31.36500787977142
91.43217043909058 80.15152957317632 31.152092204459265
91.43273172597063 79.93951087531825 30.939905131711196
91.41720313065032 79.72667765122786 30.729102779827564
91.38591354580835 79.51369154267864 30.52020831512656
91.3390233449121 79.301306873133 30.313631783661325
91.27697365461157 79.09036252928372 30.109594450837104
91.20003349969014 78.88179918416218 29.908199305790827
91.10843294110566 78.67667368146152 29.70942475712601
91.00237803226356 78.47617035184821 29.513135178882685
90.88201217783097 78.2816370659655 29.31910486903607
90.7474346360044 78.09462593732864 29.127030398828527
90.59894806696207 77.91677207772511 28.936523359922127
90.43679182014874 77.74997038406738 28.747174848801592
90.26117565410597 77.59649558265149 28.558572671617164
90.07256042839366 77.45884060991763 28.370330183561613
89.87172253430424 77.33965219802903 28.18215351203209
89.65952634654228 77.24228379107431 27.99391055878592
89.43752714697996 77.16997412147332 27.80572061642343
89.20778249317303 77.12623643768872 27.618054784195998
88.97306269078236 77.11461641546678 27.431847723009955
88.73695792970754 77.13817298140675 27.248579527266777
88.50376082199928 77.19898888335503 27.07027180893453
88.27814958688867 77.29772562701861 26.89935620463056
88.06470910755826 77.4333715171243 26.738421069115688
87.86742473789533 77.60331119057007 26.58989606252297
87.68929068787362 77.80368671449926 26.455774732747216
87.53210986202775 78.029909704918 26.337443367928824
87.39650852335205 78.27719286286913 26.23563633962521
87.28213603220777 78.54099338229824 26.150499639828773
87.18813687601933 78.81738178576474 26.081879150515242
87.11298722589906 79.10288620051365 26.02911708691722
87.0549889344807 79.39472213878125 25.991389419654908
87.01255435856288 79.6907171555229 25.967939030000835
86.98386697225446 79.98911821018689 25.95774250225207
86.96720477832508 80.28860943925535 25.959780864786055
86.96110971535097 80.58821591954522 25.97322660090836
86.96397255443638 80.88723443551098 25.996994434627645
86.97436405061119 81.18520384930021 26.030079079823974
86.99097846458075 81.48185121373456 26.071501547294776
87.0126079019235 81.777057007808 26.12028589539012
87.03813797476282 82.070825370734 26.175461852920836
87.06648884900493 82.36328908854175 26.235947357414265
87.09671567079205 82.65465151124737 26.300698521592075
87.12797043863728 82.94517967801724 26.3686383652269
87.1595045387621 83.23518272282064 26.43866427972223
87.19067175496328 83.52500353090309 26.509604070198844
87.22095634848172 83.8149835191353 26.580274159519092
87.24995684091736 84.1054495443817 26.64946854834562
87.27739626206143 84.3966983872229 26.715950898994766
87.3031601464007 84.6889554928231 26.77855984932144
87.32722054779691 84.98240483941532 26.83605238983173
87.3497235642989 85.27711842949186 26.88736666529516
87.37091509955572 85.57309506266432 26.93144870414202
87.3911528747513 85.87024092567006 26.967338596042396
87.410889545059 86.16836125485399 26.99430235360109
87.43063476644403 86.4672010865581 27.011511598566017
87.45093500658943 86.76641419893032 27.01857241786911
87.47238100273582 87.06560531249464 27.01479942859627
87.49552536045664 87.36432565708265 27.000005300686233
87.52094802103967 87.66207240430099 26.97377352091466
87.54918746071988 87.95830170450324 26.935862321625724
87.5807168917002 88.25244644974559 26.886154289818048
87.61606631008027 88.54382018641739 26.824212106227293
87.65556409707807 88.83179091181593 26.75007594347026
87.69958893627032 89.1155823719283 26.663435592894754
87.74841719310128 89.39437563039944 26.56408302279228
87.80217735851446 89.66736668367118 26.451985526423258
87.86105393733877 89.93349345129755 26.326730887203684
87.92490417256681 90.19192884275996 26.188488509493013
87.99361904352538 90.44157255992783 26.037056794341073
88.06684195791009 90.6815005592008 25.872596497502
88.14410864876483 90.91075108914744 25.695262408641256
88.22480014540804 91.12846332505362 25.505358419226415
88.30814948530421 91.3339634626723 25.303378964660418
88.39329718212765 91.5266571252695 25.089853510889792
88.47927901289499 91.70630076412748 24.865554136229385
88.56509044915383 91.87272396672667 24.631211444909745
88.64971513326408 92.02620588566127 24.38777668907512
88.73213459670234 92.16702724028242 24.136068106812406
88.81144013279955 92.29598861702144 23.877103358492718
88.88669341251953 92.41371008613572 23.611652790627748
88.95719390614524 92.52137391653056 23.340681569002186
89.02216589320285 92.61990603025534 23.06489330716578
89.08108231546834 92.71058855859862 22.78507907300471
89.13344978597956 92.79464354695197 22.501910540072977
89.17880456020738 92.87329244299116 22.215990309468438
89.21694460996957 92.94788563332325 21.92793651449467
89.24755896565594 93.01964719108977 21.638268719006405
89.27052935825387 93.08983486658346 21.3475100226049
89.28583348062942 93.15964192251234 21.056155282308687
89.29330917045296 93.230216610067 20.76467967969675
89.29312116256325 93.30261020436356 20.47355539966355
89.28531672409486 93.37780122707818 20.18324632546029
89.2699719205841 93.45669131659938 19.894223172588294
89.24735826299585 93.5399779728104 19.606916574368928
89.217552712504 93.62836878888669 19.32180009900339
89.1808579391637 93.72229964366755 19.039271003824005
89.1374739501411 93.82215554652105 18.759738052240667
89.0875756197131 93.92822345492205 18.48360111781022
89.03145419125254 94.04054071311305 18.211154521199852
88.96917483105082 94.1592347155797 17.942779860214948
88.9009795887592 94.2841168380633 17.678685847575387
88.82693991049156 94.41504893003022 17.41913441144764
88.74708374148932 94.55182164421095 17.164363241909502
88.66149376280922 94.69407565501584 16.914502296222587
88.57004477364544 94.84156839740572 16.669807724563253
88.47271854408814 94.993898790254 16.430401526067786
88.36941625958434 95.15069994775924 16.196447285836996
88.25988624409956 95.3116791593449 15.968234037781523
88.14406141105499 95.47640581322744 15.745879269788587
88.0217064694049 95.64455656576457 15.52967016844545
87.8925827882596 95.81580683353229 15.319928111330057
87.75658263497186 95.98978942335322 15.1168890011153
87.61343312095813 96.16621677360051 14.92100136007318
87.46303141082062 96.3447532047528 14.732603823903967
87.30528903289216 96.52507802994394 14.552077986436087
87.14001641332051 96.70689689695166 14.379986458876012
86.96732777718766 96.88986117723553 14.216613937331521
86.78714819763385 97.07365345032315 14.062526230998158
86.59964007415526 97.2579217094916 13.918052663179127
86.4049506663023 97.44231017682402 13.783578395616342
86.20326239066237 97.62644832033936 13.659476912856132
85.99492420938229 97.80996559842428 13.545885943887276
85.78014749851043 97.99246741924895 13.443170636308926
85.55941761419986 98.17360169589904 13.351218033331364
85.33301253498665 98.3529719906924 13.270261575438731
85.10144589937909 98.53026437193101 13.200037016220232
84.86508583850494 98.70513177920536 13.140513264782392
84.62439208586727 98.87729845804323 13.09138520344568
84.37978783729669 99.04651174673991 13.052335180558702
84.13165393903583 99.21253128945094 13.023056965583717
83.88042010996747 99.37522695836111 13.00298566135249
83.62638514648113 99.53439277597239 12.991826223757236
83.36992691646505 99.68999890655401 12.98890573310618
83.11132061586508 99.84196189096369 12.993760442369668
82.8508313429379 99.99026381682306 13.0058504906528
82.58871634340537 100.13497471306805 13.024548840048155
82.32516403263267 100.2761049248525 13.049414586522822
82.06038831766102 100.41382101369568 13.07981936478505
81.79456082611655 100.54827082496281 13.115259750913028
81.52783483019255 100.67961832823403 13.15529265447738
81.26037775156043 100.80814879233431 13.199390313225534
80.99233299273436 100.93411490522092 13.247170656312708
80.72385338369646 101.05784457293746 13.298243386873322
80.4550959969806 101.17971723716441 13.352239633726864
80.18621924524123 101.3001074728229 13.408903619825065
79.91739360952525 101.41947113142174 13.467933940671434
79.64879492317735 101.53826822645597 13.529102681991198
79.38061431621166 101.65699044562938 13.592220641012625
79.11303994283973 101.77614887048065 13.657065824231076
78.84628672561034 101.8962821125254 13.723476120012457
78.58056042483518 102.01792014561627 13.79124913864471
78.31607423761518 102.14159252143973 13.860180108572592
78.05306095022148 102.26785067667632 13.930050797992383
77.79170937703303 102.39715074128635 14.000588772325225
77.53226319905356 102.53002951867505 14.07150653535701
77.27488737874063 102.66685450431461 14.142461839676871
77.0197883762157 102.80804890874455 14.213075648755693
76.76711857775716 102.95391029324888 14.282930774049435
76.51701282759036 103.10468151297732 14.35157574192662
76.26959691822464 103.26056793222251 14.418519507942982
76.02491446889364 103.42160114717242 14.483290409725152
75.78305909141797 103.58789000054698 14.545340626218003
75.54398854632889 103.75927699134681 14.604228645147277
75.30773668880127 103.9357322277645 14.659405284178405
75.07422051308237 104.11700574248053 14.710451905312278
74.84338611196715 104.30289255399417 14.756896945174114
74.61515355357486 104.49313354854117 14.798293755582565
74.38939705331336 104.68738528267768 14.834289688170998
74.16606563804177 104.88540965773852 14.864367784732885
73.94503121304396 105.08682862896796 14.888222137685673
73.72623917151455 105.29135064722408 14.905410908662281
73.50967199088717 105.4986961227735 14.915447737679704
73.29530712982336 105.70854126792369 14.91798351598771
73.08323225322242 105.92064226623502 14.912455685908396
72.87356128858919 106.13472863905893 14.898406408010832
72.66646596108785 106.35053905877545 14.875402428544643
72.46226849653281 106.56785879370229 14.842747332769129
72.26125270599651 106.78641160384576 14.800123640555599
72.06385902869918 107.00595025480601 14.74695472696678
71.87056532137693 107.22619461485398 14.68278941635946
71.68185922011662 107.4468360823067 14.607332817359735
71.49837651972167 107.6675388614098 14.520099252116438
71.32058113331478 107.88793147153933 14.421101892574674
71.14916137468173 108.10758860824487 14.30997230197084
70.9844912357712 108.32607845112852 14.18697214279843
70.82714158978037 108.54289016867418 14.052003750078207
70.67735247313774 108.75754162921011 13.905475220355765
70.53547742373044 108.9694732168229 13.747553871858981
70.40157663391614 109.17817901695092 13.57874756634353
70.27573093975546 109.3831001311251 13.399432845401723
70.15782331524996 109.58372555604289 13.210140635510772
70.04765339783982 109.77955754916194 13.011400735294844
69.94499497034657 109.97008143904071 12.80368006555495
69.84940696798792 110.15492470118082 12.587617483449717
69.76063861339999 110.3335444794443 12.363557065384278
69.67812396528063 110.50568819969371 12.132156875859302
69.60148689715346 110.6709359591602 11.893810796520757
69.53026145367745 110.82898568568078 11.648991296368264
69.46395358908872 110.97963162290915 11.39819397534461
69.4022149366207 111.12249066801643 11.141736724303858
69.34455644182462 111.25749293034761 10.880125250462395
69.29061974358531 111.38443283562817 10.61372640173309
69.24008929218742 111.50309253388855 10.342879480622999
69.19261248987047 111.61346809311443 10.068007059749064
69.1479570949764 111.71536500735627 9.789412602531542
69.10588999941717 111.8087233998353 9.507443534904
69.06621117011632 111.89354112637454 9.222445434131501
69.02882201020718 111.96959584624202 8.934677811352886
68.9935846760725 112.0369601113999 8.644483688568867
68.96044002004778 112.09553054528756 8.352142509803027
68.92936450917338 112.14515920212295 8.057925429627696
68.90031007137425 112.18589383668852 7.762140226330829
68.87330509873306 112.21750834363307 7.465048418957953
68.84833494357684 112.24000586977824 7.1669504901384515
68.82541283557359 112.25328242260244 6.868135601539251
68.80456909841429 112.25715431459899 6.568899209159107
68.78578029523068 112.2516645572785 6.269552142923413
68.76908628956409 112.2365401170713 5.970413040560635
68.7544479849123 112.21184236242826 5.671804576797007
68.7418671087153 112.17741670322569 5.374066883208571
68.73132353004529 112.13318581675584 5.077548102711291
68.7227703456109 112.0791849115891 4.782587508746068
68.71620809153903 112.01520010307581 4.489579442772338
68.71155960487005 111.94140134773777 4.198851704111853
68.70880620189396 111.85766047766121 3.9108061007789017
68.70789167619334 111.76404631172932 3.6258049529069893
68.7087528860049 111.660676290022 3.34419468611181
LINES 1 262
261 0 1 2 3 4 5 6 7 8 9 10 11 12 13 14 15 16 17 18 19 20 21 22 23 24 25 26 27 28 29 30 31 32 33 34 35 36 37 38 39 40 41 42 43 44 45 46 47 48 49 50 51 52 53 54 55 56 57 58 59 60 61 62 63 64 65 66 67 68 69 70 71 72 73 74 75 76 77 78 79 80 81 82 83 84 85 86 87 88 89 90 91 92 93 94 95 96 97 98 99 100 101 102 103 104 105 106 107 108 109 110 111 112 113 114 115 116 117 118 119 120 121 122 123 124 125 126 127 128 129 130 131 132 133 134 135 136 137 138 139 140 141 142 143 144 145 146 147 148 149 150 151 152 153 154 155 156 157 158 159 160 161 162 163 164 165 166 167 168 169 170 171 172 173 174 175 176 177 178 179 180 181 182 183 184 185 186 187 188 189 190 191 192 193 194 195 196 197 198 199 200 201 202 203 204 205 206 207 208 209 210 211 212 213 214 215 216 217 218 219 220 221 222 223 224 225 226 227 228 229 230 231 232 233 234 235 236 237 238 239 240 241 242 243 244 245 246 247 248 249 250 251 252 253 254 255 256 257 258 259 260

POINT_DATA 261
SCALARS curvature float
LOOKUP_TABLE default
0.24933470447013453
0.26122796031539147
0.2721127176255395
0.28131503949127024
0.28810940725655515
0.2918384002152924
0.2920647971757458
0.28862424077538357
0.28174035319489416
0.2720354128397522
0.2603757277876174
0.24777717992182224
0.23526767749206418
0.22379992978838786
0.2142137687929963
0.2070605912238987
0.2027320949477761
0.201241841331287
0.20219396853087673
0.20494009944126296
0.2086925697831488
0.21266860633162854
0.21615471555237126
0.21862234965605745
0.2197035673778069
0.2193093864492641
0.2174566805562703
0.21432766957848512
0.21017134506181612
0.2053665875704081
0.2002620812455751
0.19514376788332166
0.19022393486039316
0.18563696737180727
0.18144686873703703
0.1777234255489301
0.17454460766860191
0.1720655427522046
0.17048482152354563
0.17008209734629862
0.17123463753143903
0.17437232165874328
0.17993285123912373
0.1883037774343008
0.19979114501259188
0.2146425374180625
0.23297430634707283
0.2547682692688373
0.2798801245180006
0.30792099936264705
0.3379941862689214
0.36861244609910404
0.3976509940062269
0.422314802395761
0.43976725915890863
0.4476651926743022
0.4452632535179744
0.43334388396669543
0.4135345439838912
0.38797683137210043
0.35919112819827004
0.3292176839140293
0.29956015150352666
0.2711535238477899
0.24441187291904956
0.2194364926272141
0.19615515328769156
0.1744384161331249
0.15413240804984663
0.13509000829162832
0.11716958911990169
0.10022688698048308
0.08418841890099447
0.06903856186209033
0.05481106646689931
0.041739102913610424
0.03062262654552664
0.023669482334272268
0.024036870071207406
0.030970302576649067
0.0409263426552105
0.05184104402392789
0.0628325538036545
0.07344261316722864
0.08338336460729089
0.09248763142006794
0.10066255568206363
0.10792198407745578
0.11434233106858437
0.12005876083885693
0.12520389663539994
0.12996996642888192
0.1345685447250156
0.1392072641593472
0.14404418367204616
0.1491895171976656
0.15468332003831878
0.1605104506194785
0.16656684591200152
0.17264725528436203
0.17849087264343427
0.18380802843869684
0.18825813744815534
0.19156249844795945
0.1934715846782117
0.19377916744201706
0.1923469552196948
0.18909739354296473
0.18407229902871164
0.17737341651989558
0.1692656991802373
0.1600335400681112
0.15008122583927425
0.13982240668158438
0.1296217148879259
0.11978371791644209
0.11062471400969857
0.10251909264293606
0.0958161664791498
0.09077752747851965
0.0875893456504113
0.08625077861890004
0.08658567068370547
0.08829471648290481
0.09092588084205372
0.0940387102010014
0.09726014154065199
0.10028219653340377
0.10288810542189825
0.10495744547958612
0.10641224714611869
0.10721616420739989
0.10740920723406273
0.10708035568765673
0.10637904901386905
0.10547117379939251
0.10454489013587336
0.1037702752746392
0.10330727587482628
0.10328422290887032
0.10380110265573625
0.10493240356996725
0.10667154400502503
0.10898795398800322
0.11180283318908137
0.1150060216937403
0.11847957698434217
0.12208799098810533
0.12569051556593785
0.12913466204826912
0.13227701540260503
0.13497770302003115
0.13711794052351256
0.13863216395344005
0.13947859859690467
0.1396198483376216
0.13899391699759298
0.13759745648956287
0.13543866793224182
0.13256793430213365
0.1290380056516867
0.12492044674535474
0.12029950319435788
0.11526009058615125
0.10988298643913223
0.10422415108292757
0.09835193783740259
0.09233710656059245
0.08624226422244695
0.08011622321264325
0.07399969440772515
0.06792085968299533
0.06190031422383556
0.05595761096498812
0.050115868647709005
0.04441118170860142
0.038896088351255124
0.03367467301556205
0.028933146892071174
0.02498230961380715
0.022311832953973217
0.02150039157195104
0.022762715101603312
0.025793081549617555
0.02997830412528616
0.03480223728550441
0.03990365790964881
0.04504300732335707
0.050053841989390786
0.05481431261179887
0.05922078048017292
0.06320242855958486
0.06671481156719321
0.06972846372820876
0.07227594901600876
0.07438534111506537
0.07610249541363151
0.07746557446960282
0.07857297240551565
0.07955984100206527
0.0805819100586064
0.08181977930285819
0.08344924865576825
0.08559691137077491
0.0883678799141485
0.09182432176199605
0.0959804814276263
0.10081058807365492
0.10621344667252577
0.11206660265030916
0.11822048435592371
0.12450092143043111
0.13072440681914743
0.1366904702195627
0.14219859363480494
0.1470305208667547
0.15101155857210252
0.15397135150770677
0.15582969399867633
0.15657889018656168
0.15628813045532813
0.15499829522207892
0.15279577016294163
0.14983061903333603
0.14630882231648618
0.14243062160432854
0.13838114887853256
0.13432053824174345
0.1303770129169299
0.12664140694872297
0.12317529937871013
0.12000567195820389
0.11714052913009772
0.1145844251235611
0.11231674814487128
0.1103246951722652
0.10859852799300737
0.10712318064141227
0.10589266457401991
0.10490470960048694
0.10416641986724921
0.1036861832428185
0.10345571018039428
0.10347043177728261
0.10371191100620604
0.10415694397599944
0.10478461926134877
0.10556762350179408
0.10647622117329181
0.10747813063261555
0.10854261319899834
0.10964518000472182
0.11076229451563248
0.1118760196251958
0.11296979838874972
0.11403156496687918
0.1150497447542545
0.1160145895803779
0.11691486168771006
0.1177390765865071
0.118474516038885
SCALARS torsion float
LOOKUP_TABLE default
0.058977264926682205
0.06995786122586319
0.08318807900654984
0.0990243574071501
0.11774161828759462
0.13956267742863762
0.16449771083995415
0.1924054619766866
0.22316939996158333
0.2562048010677392
0.291156636558136
0.32672883594666535
0.36162723480909703
0.3919531422531051
0.4136429485749236
0.4233917003092959
0.41808979065604174
0.39624259694155267
0.3595112251063353
0.3127711190333558
0.26095521851770936
0.2077589936780605
0.15752520496776007
0.11058564320283774
0.06922804656601557
0.03265076313014638
0.001150795245276532
-0.025754480362925995
-0.046060221958565906
-0.05787664754740827
-0.061457353301501656
-0.05747571609103983
-0.04599292124262121
-0.02729110124839867
-0.0015834746189538214
0.029655726334113574
0.0655858573335524
0.10495385741496104
0.14433247875560615
0.1829368225587599
0.2166308662640125
0.24340563807660648
0.26189063054527023
0.27160075439732423
0.2729440250420402
0.26479520518032845
0.2498404485785783
0.23103484099077976
0.2101485246764355
0.18838251698145628
0.16627781333388353
0.14388714423939025
0.12080187204897234
0.09697462490533733
0.07287918709189292
0.049106248872273536
0.027427155150309624
0.007339150003939627
-0.011628505767961416
-0.02876930647470685
-0.04297487111350231
-0.05490639037657469
-0.06502277620099757
-0.07387514568660503
-0.08217952361463239
-0.09026505362382363
-0.09850547851645429
-0.10695440107171827
-0.11621458114139788
-0.12633585880558937
-0.13835687656679121
-0.15530047444720688
-0.179113162925864
-0.21298160136367109
-0.263781205855604
-0.3526254171623846
-0.519411962453612
-0.7416453439952189
-0.7043788514058926
-0.48069580363989595
-0.34391352206825926
-0.2782407842077455
-0.2452434904892848
-0.22799143760645862
-0.2175945767340684
-0.20884070104117647
-0.20049269042956006
-0.19194330314989702
-0.18241752187361812
-0.17214584103068825
-0.1609018783327325
-0.14815612694879796
-0.13349989501485257
-0.11691237281241393
-0.0986164052992394
-0.07903357731473776
-0.05947489416082177
-0.040086684731050336
-0.020511306611319006
-0.0005218987404396232
0.019187633425642357
0.03821179170359803
0.05672948735696851
0.07415769610314048
0.0911255305124063
0.10781586126728993
0.12489210719953206
0.1424780516948253
0.1611369215607077
0.18114961697658036
0.20261175521399674
0.22663464680180676
0.25435985181722015
0.2861847366905079
0.3227623594095443
0.364528838855961
0.410814521572863
0.45812116728590363
0.5015757454914277
0.5339654622978508
0.5470597765270556
0.5374480808189342
0.5056995737951803
0.4574961672970451
0.4007348163820317
0.3428573488445337
0.28732732846832143
0.23637021809355357
0.1915115406878955
0.1510362573343748
0.11357622416435784
0.07789635679192576
0.04445011071639501
0.012684875051219069
-0.01705189391286333
-0.04424990391341753
-0.06838460719342122
-0.08820714715820177
-0.1031825901215973
-0.11335634543051827
-0.11839501481478751
-0.11761261496744897
-0.11124939919641762
-0.10089033129101997
-0.08844620654880112
-0.07492621937172575
-0.061861632166334606
-0.04965731543949423
-0.0392075123292424
-0.03069115616923025
-0.024397751345052905
-0.020505998347911697
-0.01857003861263274
-0.018023441779150568
-0.01870607099152575
-0.0201666786922812
-0.02238925817811445
-0.025017944234210155
-0.02800294797234137
-0.03128510300236901
-0.034842115518188714
-0.038697876703831936
-0.04281509327477635
-0.04718409840268593
-0.05157094335034675
-0.05590398502122635
-0.059431728907390194
-0.06158807461109913
-0.06198377303868991
-0.060078244328917035
-0.054802575668102066
-0.044662172576998366
-0.027665958520910906
-0.0014516041100889553
0.038009665893912234
0.09524396221885799
0.17828174790053655
0.29711547459759813
0.46263393363883953
0.6771457033615188
0.896005482643713
0.9977044566170877
0.9081097350225874
0.7208717540828321
0.548531409989047
0.42507279472720283
0.3451149397477675
0.29416065887129617
0.2633525133778241
0.24481597709960048
0.23523708422409353
0.2299128662395328
0.22715969679343834
0.22592674309912675
0.2249821346853886
0.2243025116354011
0.22433276626680856
0.22478140979250583
0.22494364839738112
0.22373205852137248
0.22020920823240087
0.21315247822080882
0.20162256807062726
0.18550172685200056
0.16495163710165
0.1406236079660758
0.11388962135584778
0.08706695014637633
0.06139104419750926
0.03889166032879131
0.020405631306499052
0.005721464312758749
-0.005146930190263743
-0.012608771793522482
-0.016222102271960224
-0.01632593942457279
-0.012816862270118195
-0.005658645046292277
0.0038325187618285014
0.015022836970775113
0.027978375938962005
0.042750953993996456
0.05915187267774618
0.07537582729077785
0.09126204005886211
0.10591809777629016
0.1188934764643663
0.12996212561438922
0.13871172485251743
0.14480544190145722
0.14787861642403463
0.14763877459503771
0.1442707120362459
0.1375311855733269
0.1289082466350085
0.1188154092127918
0.10723941743202768
0.0942272373703722
0.08019229582007575
0.06638311563004948
0.05302704648345629
0.04107489908216867
0.03083834491282475
0.022603415335775034
0.01659572379777443
0.012648233266697149
0.010509578031307736
0.010045640924059289
0.01080383795319867
0.012644732449042012
0.014681562662879856
0.016646750284842173
0.018356720364068692
0.01967748890985904
0.02058093809118074
0.02101161753570845
0.021008174077578524
0.020737598508362102
0.020237045855659407
0.019655697880949813
0.019049466158626
