# vtk DataFile Version 2.0
00000680.nii_L_ICA_labeled
ASCII
DATASET POLYDATA
POINTS 280 float
113.16771367472326 83.92354957383856 43.63082132260712
112.88790826118398 83.99635900133562 43.55093692595729
112.60273310840671 84.06062469815504 43.483675490560415
112.31338567897795 84.11625231976491 43.427394856957065
112.02090835961904 84.16336029517262 43.38022560207391
111.72613476166333 84.20215016991865 43.34030601313646
111.42970810538537 84.2327915398422 43.30588882599809
111.13214160345173 84.2554276286935 43.275299124208395
110.83386239202923 84.27021017883764 43.24691472511342
110.53523908240685 84.27732271376352 43.219196516994984
110.23660352232886 84.27686575772896 43.1907157272017
109.93828255861143 84.26890351159969 43.16013359103804
109.64061846624996 84.25346195682093 43.12620786549316
109.3439848885392 84.2305283369464 43.08780300766854
109.0487980098145 84.20005197739364 43.04390315948777
108.75552245572607 84.16194606550263 42.993628167039
108.46467203002457 84.11608943992323 42.93624969502442
108.1768063012568 84.06232942009612 42.87120174034323
107.8925239498336 84.00048455431417 42.798086313772146
107.61245352745647 83.93034615627263 42.71667727774975
107.33724286987398 83.85167844504517 42.62692196400169
107.06755021151884 83.76421609487916 42.52893685498982
106.80404203582042 83.66766227442236 42.42298852951603
106.54739826734195 83.56168791413495 42.30946755568547
106.29832221486349 83.44593206708751 42.18886651079447
106.05755412875983 83.32000402476332 42.06176409578178
105.82590967972412 83.18346447591546 41.92880267849223
105.60427945772658 83.03586498052279 41.790697473573466
105.39365508229967 82.87676382063917 41.648221428108194
105.19518387774073 82.70572381448942 41.50218852714759
105.01017906649764 82.52236644978436 41.35346075188393
104.84012983579477 82.32642667004137 41.20294936849676
104.68676881540893 82.11776578982479 41.05162019963762
104.55212467352892 81.8964245579595 40.900517011377126
104.43787469920441 81.6630707720174 40.75071897735966
104.3461581699959 81.41850672462651 40.603350197610645
104.27856723421654 81.16421016007767 40.45946898202968
104.23639525650185 80.90207829530712 40.32003255237023
104.22033514759865 80.63438720864045 40.18579797324208
104.23029099822602 80.36363228276704 40.05722796505079
104.26558539592203 80.09228038935272 39.9344860460322
104.32461576690046 79.82257413962897 39.817332357948864
104.40595810464292 79.55647610156097 39.70537893496393
104.50722215605732 79.29543103754452 39.59784383462946
104.62638273823686 79.0405473883888 39.493899584804986
104.76146971593403 78.79261070439107 39.392635104461405
104.91065109063402 78.55215334554855 39.29310832161295
105.07227874237351 78.31952968337158 39.1943847873338
105.2449064716732 78.0949871362211 39.095562937149666
105.42728885337772 77.87872774048975 38.995788843403645
105.61836727963303 77.67095747903598 38.89426462540726
105.81724951370009 77.47192427971318 38.79025387743461
106.02318738091027 77.28194834415393 38.68308460241432
106.2355505020537 77.10144499173147 38.57214748071014
106.45380127035769 76.93094740092329 38.45689069508889
106.67751123628801 76.77122232280261 38.3367764313944
106.90618258776094 76.62295082025334 38.21144621088866
107.13940271549359 76.48706771571047 38.080587845819906
107.37675506000008 76.36465708956254 37.943999885919574
107.61778886734945 76.25695019793707 37.80160799397486
107.86198742834708 76.16531492677838 37.65348688802471
108.10873692968366 76.09123177681512 37.499890079816645
108.35729780725453 76.03625424194392 37.34128334107637
108.60677925413297 76.00195506752726 37.17837310682473
108.85611781913119 75.98987147986452 37.012122903536216
109.1040300249522 76.0017298403574 36.843754647775484
109.34908346832965 76.03842730050354 36.67480949931155
109.58969393322012 76.10079263387833 36.507014312251464
109.82403331800701 76.18970669580338 36.342353040532764
110.05041935324194 76.30471121542485 36.182814169668134
110.26705840875732 76.44537031010726 36.03046361404565
110.47228907278176 76.61059918904404 35.887257943771395
110.6647857527261 76.79857764624977 35.754819951061585
110.84313082721106 77.00765465006934 35.63476449090042
111.00667429148838 77.23519319764821 35.52792087274102
111.15463710091574 77.47898482411377 35.43510954132174
111.28671950554748 77.73654225418834 35.35660187100572
111.40295566959664 78.00542444061236 35.29224834360806
111.5034714237096 78.28345159904077 35.241695627257336
111.58845760873942 78.56867260440816 35.20440779538382
111.65853255483769 78.85924191211959 35.17938422407297
111.71429652010879 79.1536404342956 35.16557032293367
111.75640322196249 79.45060484610403 35.16180442155555
111.78555833416267 79.74910738827901 35.16682581383726
111.80249814266747 80.04833983084187 35.17930196305098
111.80796737623626 80.34769184244884 35.19785954989148
111.80270173333821 80.646724570544 35.22110727018412
111.78741820006567 80.94514248128259 35.247646345515825
111.76281172373281 81.24276573954734 35.27607229626602
111.72952286415591 81.53949986348202 35.3049696628082
111.68822009265551 81.83531818314516 35.332904373964716
111.63956012435753 82.13023250419796 35.358446947299406
111.58415862978454 82.4242624503986 35.380156669221776
111.52262061046092 82.71741232648029 35.39657708251646
111.45554644643374 83.0096448563588 35.40623785267144
111.38353668370902 83.30085434475318 35.40766413593454
111.30719531716133 83.59084040445019 35.39939441747051
111.22713307983317 83.87928442135835 35.38000221919743
111.14396912972727 84.1657302668801 35.348123847552884
111.05832479187025 84.44956753937176 35.30248181845652
110.970806844473 84.72999861919786 35.24183891904256
110.88202739330106 85.00614401275931 35.16544334204122
110.79253627304024 85.27699908655316 35.07270328483574
110.70282823465072 85.54150023858611 34.96332475735133
110.61333295797544 85.79845291453626 34.837082412686094
110.52437474364157 86.04694525706714 34.69457826770683
110.4361600622454 86.28610761808746 34.53649444207276
110.34878772070239 86.51516079267643 34.363653077629316
110.26224558623264 86.73359023982165 34.17717546594648
110.17642454972649 86.9411804253725 33.9783854155494
110.09114918139238 87.13783519088955 33.7685414489983
110.00619100731677 87.32363786108178 33.54889939283953
109.92129122041027 87.49874595501359 33.32061259810876
109.8361852859762 87.66358796028027 33.08487731023967
109.75062772173004 87.81860156976525 32.84272207820109
109.66440718843131 87.96426505112868 32.59505674556737
109.57736181572622 88.10108510233937 32.342678658517286
109.48939253540327 88.22957620994502 32.08627276617186
109.40047368208063 88.35024467253741 31.826414818841013
109.3106589372565 88.46357737682204 31.56357741711429
109.22008639160912 88.57003327421765 31.29813627259438
109.12898390152456 88.67003735385887 31.03037632300924
109.03767485446436 88.76397629590544 30.760497645888186
108.94658111852063 88.85219616540718 30.488622823021853
108.85621888359111 88.93500361699991 30.214808008095716
108.76719311326912 89.01266775011895 29.939054988287385
108.68019426515897 89.0854217300421 29.66132312050668
108.5959966018498 89.15346431810946 29.38154179363061
108.51545391540817 89.21696249491526 29.099625190192945
108.4394888014233 89.27605689276275 28.81549048630958
108.369078209431 89.33086859290346 28.529077393012212
108.30523688504415 89.3815069988335 28.240367554846898
108.24899799739711 89.42807889507947 27.94940293539846
108.2013911578676 89.47069868792713 27.656301924722353
108.16342269304461 89.50949867971805 27.361271222523516
108.13612572628136 89.54461964122035 27.06460634315118
108.12029498767392 89.57630331539725 26.76672710144429
108.11667832745752 89.60482775284925 26.46813371685994
108.12588452429038 89.63054699379559 26.169407567942187
108.14836850097937 89.65389965474834 25.871192510871484
108.18442352675412 89.67541458803211 25.574173009551068
108.23423035199286 89.6957108883618 25.27906084224888
108.29777662257855 89.7155098591547 24.986565856413428
108.37481940032906 89.73561859485864 24.69735527616134
108.46505779251137 89.75691755287345 24.412073204412128
108.56808215293253 89.78035814702213 24.131325802028886
108.68339569472437 89.80695051797434 23.855683757650937
108.81043228318892 89.83775087926796 23.58569045178901
108.94856726862467 89.87384666995715 23.321872901247048
109.09716849654976 89.91637523062504 23.064788013416756
109.25547787470072 89.96643345482194 22.814959174501464
109.42268509887707 90.02507766729805 22.572920499356492
109.59795508976802 90.09332709005643 22.33925251308839
109.7803981778682 90.1721059966891 22.114563052955013
109.96907077980836 90.26219396309345 21.89947381040563
110.16300387164218 90.36424621839903 21.69465310992476
110.36116605147217 90.4786680918269 21.500709745246777
110.56249185112259 90.6055159858298 21.318088420262775
110.76597728800147 90.74466235146417 21.147192655068714
110.97068874382218 90.89571073838549 20.988279377197326
111.17579950861375 91.0581157229947 20.841541693271438
111.38061625076428 91.2309491897715 20.706792427415294
111.58461936460596 91.41320418104696 20.583722197211408
111.78746215234045 91.60381508290483 20.471894502657694
111.98897038186733 91.8016735554568 20.370737728827386
112.18912937645483 92.005671950137 20.279577011516086
112.38806132407773 92.2147413230288 20.197675254812317
112.58600036622376 92.42787380312555 20.12427012849512
112.78327366087989 92.64410512415579 20.058526785640304
112.98026263544394 92.86256823028936 19.999660220534494
113.17738386392159 93.08247130336707 19.946907653892456
113.37506573041773 93.30309727873646 19.899539726212158
113.57372897022834 93.52380086643254 19.856866734986557
113.7737705288086 93.74400511582697 19.818241554765102
113.97554804429164 93.96320099884711 19.78306198913781
114.17936431999895 94.18095088420824 19.75077293002179
114.3854533772514 94.39689462448973 19.720868234171718
114.59397473302985 94.6107513029012 19.69288854528258
114.80501497573823 94.82231676215184 19.666416012608924
115.0185902803614 95.03146258469403 19.641070459010734
115.23464821059167 95.23813757809883 19.616508147483874
115.45307139542307 95.44236823652626 19.59242102517321
115.67368869713073 95.64425091005808 19.56853365219082
115.8963018220066 95.84392509752634 19.54459692575718
116.12066765942012 96.04159486134546 19.520387749665648
116.34654679283808 96.23747545298451 19.495710692349917
116.57370522297474 96.43178956994237 19.47039853029068
116.80192572570583 96.62475250256338 19.444313790351266
117.03101892612302 96.81655716123505 19.41735018778145
117.26083231190061 97.00736164207568 19.389435086360855
117.49125686899319 97.19728013228472 19.36053329721617
117.72223192307818 97.38637637393064 19.33065051371854
117.95374901231733 97.57465761856373 19.299830637594205
118.1858433159097 97.76208683376917 19.268170379015796
118.41859538091641 97.94857775147298 19.23580612956542
118.65212373471707 98.13400246614695 19.202912662781902
118.8865763782772 98.31819976254232 19.169700390665348
119.12212143865779 98.50098346857283 19.136409216585072
119.35893714111529 98.68215119062356 19.103301211755998
119.59720172620997 98.86149279969295 19.070651160847042
119.83709023963412 99.03879038443195 19.038738986116037
120.07875315632624 99.21384146740719 19.007831195121064
120.32230242701615 99.38647439643078 18.978156881584454
120.56781972059427 99.55653775980393 18.949899180355118
120.81534731505033 99.72391396013991 18.92317838598536
121.06488853552665 99.88852246144567 18.898040215485487
121.31640828691957 100.05032390916489 18.874441280046486
121.56983989013347 100.20931529708159 18.852235446023798
121.82507381288107 100.36555253900299 18.831149404861243
122.0819611757292 100.51915398925203 18.810786624642628
122.3403369844313 100.67026856168327 18.79064670391075
122.6000137492256 100.8190848541999 18.77012693956331
122.86078049205132 100.96582834660106 18.748530197047696
123.12239995649092 101.11075739677446 18.725076830545717
123.38460472432546 101.25415779498518 18.6989245170191
123.64709179442691 101.3963369611201 18.66918965557744
123.90951529989577 101.5376187309597 18.63496471625701
124.17147572478557 101.67833989131486 18.59532306029057
124.43251930280361 101.81884958471574 18.54939549646205
124.69212850359189 101.95949877686142 18.496332899149756
124.94971821476362 102.10064056472237 18.43534227887027
125.20463359813768 102.24262598992786 18.365700171072703
125.45614974343911 102.38579956379265 18.286763405144885
125.70347351683587 102.53049489277326 18.19797979768352
125.94574763499332 102.67703035708254 18.098898196421178
126.18205529841485 102.82570504731049 17.989174346077053
126.41142328410213 102.9767925090222 17.868567674864536
126.63282415342863 103.13053239494204 17.736935316851227
126.84518115538596 103.28711949106078 17.594230081206486
127.04737704206882 103.44669041942093 17.440501821183364
127.23826252587062 103.60931074457226 17.275896923750594
127.41662725860168 103.7749699815406 17.100627962208673
127.58122892883058 103.9435582764583 16.91499999489728
127.73091151643655 104.11483161393213 16.71947432367382
127.86449030791863 104.28842552074202 16.514563870736453
127.98083329120904 104.46383035210738 16.300878297323354
128.078887946609 104.6403892418016 16.07912296006037
128.15765686175033 104.81730012077824 15.850078780578569
128.2161914066274 104.99360875843993 15.61460050384121
128.25407093946833 105.16825518409557 15.373724410787059
128.27092437824066 105.3400947735505 15.128481510224027
128.266623273899 105.50793296423275 14.879942861769248
128.24102962626387 105.67048655939745 14.629181574076933
128.19484198235187 105.82665707312475 14.377317573221278
128.1287172076381 105.97537655353085 14.125386152992588
128.04353413056782 106.11570090156005 13.87435518349167
127.94019470787441 106.2467443523876 13.625126479993487
127.82008347460798 106.36796693418218 13.378457822792935
127.68454781136616 106.47895752899234 13.134982951293644
127.53494647330496 106.57945865379072 12.895210570587976
127.37264846974199 106.66937530600201 12.6595206180965
127.19900325675167 106.7487622220921 12.42816778424572
127.01531490010412 106.81780408070364 12.201288232064428
126.82280223060467 106.87676600755522 11.978920271579177
126.62264034895442 106.92603439946873 11.760987167926691
126.41590247431627 106.96604215529425 11.54733440741268
126.20356475141604 106.99725315568439 11.337742214123617
125.9865201317709 107.02016107931289 11.131929844966493
125.76558211634945 107.03527405923089 10.929565663436863
125.541490199329 107.04310172231426 10.73027682799305
125.31491722864953 107.04414711255704 10.53365752985426
125.08647744229268 107.03890142849248 10.339275999470026
124.85673475562137 107.02784013312758 10.146680322085574
124.62621086393456 107.01141947350419 9.955403530908413
124.39539279549122 106.99007346540014 9.764968488101571
124.16474012307219 106.96421261620388 9.574892193906253
123.93469156289605 106.93422332622714 9.3846898783732
123.70567140751622 106.90046861473056 9.193878242643335
123.47809578715362 106.86329002398229 9.001977869832498
123.25237842572042 106.82300991901802 8.808515413520704
123.02893616354216 106.77993507148987 8.613025187421517
122.80819402056446 106.7343606377155 8.415050717844299
122.59058968463731 106.68657434081359 8.214146574388852
122.3765774153035 106.63686086167353 8.009880595952076
122.1666312173014 106.5855061784444 7.801836790373207
121.96129627984229 106.53279153525482 7.589575041847079
121.76105975694055 106.47903293100049 7.372755540431286
121.56646083563489 106.42454485593359 7.151042426361712
121.37806109980569 106.36965354318735 6.924136918536999
121.196436638724 106.314697660859 6.69178887639627
LINES 1 281
280 0 1 2 3 4 5 6 7 8 9 10 11 12 13 14 15 16 17 18 19 20 21 22 23 24 25 26 27 28 29 30 31 32 33 34 35 36 37 38 39 40 41 42 43 44 45 46 47 48 49 50 51 52 53 54 55 56 57 58 59 60 61 62 63 64 65 66 67 68 69 70 71 72 73 74 75 76 77 78 79 80 81 82 83 84 85 86 87 88 89 90 91 92 93 94 95 96 97 98 99 100 101 102 103 104 105 106 107 108 109 110 111 112 113 114 115 116 117 118 119 120 121 122 123 124 125 126 127 128 129 130 131 132 133 134 135 136 137 138 139 140 141 142 143 144 145 146 147 148 149 150 151 152 153 154 155 156 157 158 159 160 161 162 163 164 165 166 167 168 169 170 171 172 173 174 175 176 177 178 179 180 181 182 183 184 185 186 187 188 189 190 191 192 193 194 195 196 197 198 199 200 201 202 203 204 205 206 207 208 209 210 211 212 213 214 215 216 217 218 219 220 221 222 223 224 225 226 227 228 229 230 231 232 233 234 235 236 237 238 239 240 241 242 243 244 245 246 247 248 249 250 251 252 253 254 255 256 257 258 259 260 261 262 263 264 265 266 267 268 269 270 271 272 273 274 275 276 277 278 279

POINT_DATA 280
SCALARS curvature float
LOOKUP_TABLE default
0.1999635358471754
0.18113440765685665
0.16239507726609978
0.1445002149881803
0.12808181417733316
0.11368334329898219
0.10184500905990533
0.09310696296668716
0.08787572761872453
0.08623741961717606
0.08788214289537832
0.09214831102752187
0.09822129751773591
0.10532216494404632
0.11279005914761646
0.12011986131791011
0.12697761469374896
0.13317318483028898
0.13861315602787375
0.14328230456460364
0.1472794677516797
0.1508923248058442
0.15450262350150162
0.15848384367933477
0.16317527903972479
0.16892458658959095
0.1761030828430559
0.18499964275960384
0.19572898202334899
0.2082011186247463
0.22217887133362083
0.2373100466694874
0.2530456273490848
0.26850788668397785
0.2824971503478515
0.29363312847825057
0.3007096955873197
0.3027388438050614
0.29924262355110665
0.29036204482903955
0.2768772099059933
0.26003023546625004
0.2411935705087294
0.22179012862443234
0.2029220944666696
0.1854207127839063
0.16988716595138031
0.15676992114478833
0.14639589597580394
0.13895701055523332
0.13449927710742937
0.13296226108613846
0.13414832267056004
0.13779051159608718
0.14361326822168538
0.15132982554310315
0.16065308350444554
0.17137226889383486
0.18331647341343638
0.19632736378500487
0.21019279850860909
0.22464773371855126
0.23940560853292725
0.2541416095589021
0.268444784036248
0.2818334455915162
0.29378240308882286
0.30375786145900874
0.3111915129057679
0.31575893152981716
0.31737108523844565
0.3160424966411196
0.3118136229384076
0.30471830921798937
0.2952359103389826
0.28391052599334504
0.2711204386771655
0.25702637319494703
0.24182261329030713
0.22594289623963937
0.20980579605583932
0.19361388803360818
0.1774607091770034
0.16151225060431976
0.14608077364246977
0.13150596877730059
0.11813150518390275
0.10637540146592335
0.09680409403136982
0.0901413480744116
0.08705168982222086
0.08788335138577286
0.09250763661694929
0.1003536879488042
0.11062954357269568
0.1225202042556523
0.13533603941795191
0.14851467231447163
0.1615060745770187
0.17367094089615756
0.18434221736670603
0.1930894476853282
0.1996378145563015
0.20369858601465854
0.20490638843215703
0.2031992480236557
0.19889579471384228
0.1924451491201965
0.18427677559334435
0.17478883287942493
0.16441985298250894
0.15365797533284853
0.14290059156758128
0.1324277719042572
0.12242566673205975
0.11301903678835333
0.1042890318114209
0.09626766257749435
0.08894448080827932
0.08232394676619234
0.07643681940990343
0.07137458277460194
0.06730844173179616
0.06444917358329307
0.0630597879010865
0.06339990528421906
0.06564937084235645
0.06982291620488469
0.07570518091699646
0.08295270302541609
0.09117721518951064
0.09998829236905774
0.10901576589904714
0.11792583730185238
0.1264024480485207
0.13412339761350586
0.14080074544368354
0.14623425273252785
0.150347886507265
0.15313940479368754
0.1546928950651686
0.1551640374368688
0.15480176445433394
0.15392500950337587
0.1529025993846095
0.1521753441491503
0.15214126838202277
0.15308957160058886
0.15516951618643968
0.15842925293083857
0.16282821110552187
0.16815819469127835
0.17397957788240564
0.1796801281827514
0.18468036264459733
0.18854393535670674
0.19084533263141687
0.19111005625476765
0.18892200529558068
0.18420911691460928
0.177171409515052
0.16812739265147816
0.15739433684004653
0.14532483988082828
0.13239035523245915
0.11907267610821606
0.10580141857718245
0.09296578410337578
0.08093332025652107
0.07007462900646254
0.06075863427722368
0.05329003392321399
0.04786771430083505
0.044492307747452775
0.042837889951308376
0.042284379872220175
0.04217372176748452
0.042025155016165286
0.041516174786814554
0.04041800144242128
0.03859091144883086
0.03608785055092308
0.033106535521476355
0.029880307766250436
0.026635253464082066
0.023591859936448516
0.020943977806346166
0.018833584492597488
0.017288463718441657
0.01621126804625821
0.015473091092814783
0.014976558379087842
0.01475821274373248
0.014986990890885668
0.015878767494382082
0.01757912739639738
0.02006369278079707
0.023163671145279858
0.026648999935813066
0.030271585464438904
0.033777900138790666
0.03690537473226407
0.03940850228540762
0.04114551909996839
0.04203257659971955
0.04197838421369976
0.04089248228364121
0.038791585908536694
0.03596045914677073
0.03291045758025043
0.03039709518000506
0.02946074305923117
0.031129671474158432
0.03569996508316567
0.04264412924214372
0.051192525846650155
0.06071420993489278
0.0707564587804807
0.08098223636412563
0.09114874809255616
0.10112321124838532
0.11082570980562545
0.12018969991040734
0.12916218065352716
0.13773849569867266
0.14603047571852656
0.15417067236226883
0.16222344376204145
0.17018254550569156
0.17805821682804993
0.18593661064906836
0.19387215293049467
0.2017859162721514
0.2094809038746085
0.21676380961115962
0.22352865555981774
0.22964210317438674
0.2348874445007624
0.2389885198009619
0.24174333557092081
0.24304748649981384
0.24281489877972667
0.2409907802461673
0.23759406788565726
0.23267670327818088
0.22632818202072535
0.21867477876661026
0.20997259386218012
0.20046263016839488
0.19032231864333438
0.17967650622525524
0.1686805235794198
0.15755475816442022
0.14649022917173773
0.1355801467823522
0.12486778299173802
0.11440983232023103
0.10430444644628621
0.09465641820498244
0.08553791305320985
0.07702010195725342
0.06918517640280683
0.06215188754929599
0.056085699027404845
0.05116575623374892
0.04758330480631904
0.045486586788192666
0.044933802988444266
0.04586493036091936
0.048101843594750504
0.05141793990018263
0.05558919301890476
0.06042642503255623
0.06578366483963882
0.0715469574538426
0.07763076904580532
0.08394772116058404
0.09041225207797343
0.09693489224397159
0.103416739392
SCALARS torsion float
LOOKUP_TABLE default
-0.16528263664168005
-0.19860863703815457
-0.2399950978810646
-0.29162656098440654
-0.3550149322487379
-0.42961352216761683
-0.5086603550211145
-0.5769596867005036
-0.6116172403686507
-0.5958652932340966
-0.5334398249176278
-0.44375983366094646
-0.3489705210066502
-0.26182539001593735
-0.18643802954488
-0.12292646266646086
-0.0707252334059798
-0.026565856669079478
0.012051036133452578
0.047200594727437935
0.07899635682039277
0.10451398380655035
0.1242496638589217
0.13857842592430183
0.14769610654662219
0.15109063256487118
0.14736344059639994
0.13694444640923262
0.12106946036461787
0.10098141227870064
0.07873206575472809
0.05655892681471893
0.03441632676698448
0.012418636342730266
-0.009846641963255647
-0.030906027391812314
-0.05035610141947942
-0.06863153015389654
-0.08604800360782687
-0.10311555455786355
-0.12010523610458367
-0.13764108978002945
-0.15627550841396462
-0.17616610054815912
-0.19755313124880175
-0.22009163604312743
-0.24254933549623237
-0.26264222015822897
-0.2767203582269783
-0.2803264485808523
-0.27026915031202603
-0.24667557772402252
-0.2146006658812256
-0.17777538937703383
-0.1388303204829309
-0.09990141496000698
-0.06306354674408687
-0.03215267899527986
-0.007162042228925967
0.013227908609780806
0.03041867159411824
0.0450933221144948
0.05668723527081299
0.06542751098471342
0.07190641686571439
0.07655572696065117
0.0794869012047585
0.08050181964486888
0.07959224233844807
0.07704550511816739
0.0727440701998366
0.06625124295643575
0.05731154380250241
0.04651995437341057
0.03506753001176495
0.02252564215271096
0.007769480628810645
-0.009724111249769312
-0.028422345266072735
-0.0478797708718184
-0.06936071210619685
-0.09503440987987277
-0.12685081893552907
-0.16506468132744487
-0.2113469698427936
-0.26859108740142706
-0.34003541971933277
-0.42656446099408196
-0.5216147008073068
-0.6068098821172678
-0.6544708143418901
-0.6452443308116796
-0.5837224600611333
-0.4945211897924156
-0.40178808404093325
-0.31926571266778586
-0.25209852709752323
-0.19793089409486694
-0.15282723769213363
-0.11386485769717085
-0.08030223963461239
-0.053049175454318795
-0.03005364571805244
-0.008628129763721194
0.012538168009625001
0.032067030195119084
0.04879801211423592
0.0633959527348795
0.07692134120142609
0.08965729365115005
0.1005567191268309
0.10882423255737948
0.11391973553909807
0.11509652495186909
0.11106145432923076
0.10065163935527253
0.0816946929878105
0.05378888652310044
0.016181020876231873
-0.03332210437394307
-0.09613295830651576
-0.17307222932385302
-0.25682267061696495
-0.3362637173973996
-0.3997623342178514
-0.4361703204304879
-0.4388538477955909
-0.4100436198543332
-0.3621758109117644
-0.30928654944723294
-0.26063606992155547
-0.2199104158705004
-0.18830434277530106
-0.16517830343146533
-0.1494941372548
-0.14078749914936445
-0.13824501924179233
-0.14081542145816517
-0.14797893353404243
-0.15923334916648585
-0.17409903727364373
-0.19254571660138958
-0.21306037635188005
-0.23530256340154995
-0.2570669657779301
-0.27578217923792053
-0.28958178607789703
-0.2960690743537723
-0.2948104353641702
-0.28562789360588287
-0.26905072941360725
-0.24620581996893418
-0.21859246175653477
-0.18859652967994434
-0.16031552832268606
-0.13405502812996367
-0.10865675947518809
-0.08313034495864008
-0.05774568481873533
-0.034781958258747164
-0.013232822935911943
0.008665681635848282
0.03255511103310815
0.05927356079316826
0.08921947800865357
0.12442333897671749
0.16756948001548794
0.22181883575074873
0.28987698391293615
0.37252429995760894
0.4659136957128524
0.5602486747787209
0.6312735721929624
0.6505244933669518
0.6084845254054145
0.5267253846420381
0.4443551869955453
0.37573948127952156
0.3220969853213369
0.28245321755537534
0.258567973540193
0.2548138330527916
0.2706589456708774
0.30065678652532535
0.34018547681016087
0.3825031557508996
0.4132090451147474
0.40842225216946704
0.3465930296775312
0.21967004951289723
0.04268796862834917
-0.15849344250628927
-0.3627064250742466
-0.52001837244056
-0.5918437906684699
-0.5683276418646751
-0.4860597580187594
-0.39063788501836183
-0.3035579917913343
-0.23266076060462254
-0.17313898215549559
-0.12126144907550493
-0.07492463128415633
-0.03137016044092216
0.014726179983128702
0.07280715429416164
0.15255212507269206
0.260333026429939
0.40390564478051133
0.595352669989083
0.8207815592992155
0.9955790689793009
0.9854376934306167
0.8078628531820504
0.6017355882465828
0.44191207060501914
0.3335726839252887
0.26261362811211914
0.21652325470672576
0.18640721370898372
0.1658035334499651
0.15164273039338322
0.1416130299317958
0.13462834129221876
0.12914251305563446
0.12321754756702732
0.11653356097971561
0.10850512577961215
0.0992566693016103
0.08893888922650327
0.07745379515071733
0.06467746071666423
0.050423310895585924
0.03473954190000065
0.019042909789780422
0.004149283012529107
-0.01016985904924557
-0.023815011706491026
-0.037011673130027414
-0.04851705240184154
-0.05805147491107991
-0.0657272659851514
-0.07153295819229437
-0.07562537500226174
-0.07815451017425537
-0.07917439243574341
-0.07950687272440167
-0.07939656289477963
-0.07893113972799487
-0.07844900613360327
-0.0781002382638152
-0.07909848054460829
-0.08171194454273646
-0.08592808630040455
-0.09191619501193879
-0.10022292221957584
-0.11220835911110645
-0.12881497586888932
-0.15083574585141754
-0.1793662617419531
-0.21595600720175792
-0.2626079896917824
-0.3202111357319916
-0.3872271764197126
-0.4577982189596839
-0.5196376833949415
-0.5580902708450544
-0.5608118659985235
-0.5280706878647032
-0.472104907816068
-0.4073921090760608
-0.3450604302817149
-0.29052671515699996
-0.2452138909009358
-0.20865781952510795
-0.17934460006129585
-0.1552271209930774
-0.13534660098782858
-0.11861319283160797
-0.104388062737279
