# vtk DataFile Version 2.0
00001026.nii_R_ICA_labeled
ASCII
DATASET POLYDATA
POINTS 258 float
82.25196922877899 83.87583420104329 33.07016869951575
82.47492567176444 84.07644353705906 33.07106925634141
82.71043996816627 84.26173568385161 33.08340484535988
82.95780763493659 84.4296763262129 33.10697475427228
83.21588785162943 84.57858939001073 33.14113669067716
83.48320197695283 84.70736659415252 33.18482563497583
83.7583522186068 84.81473425289664 33.23693641694038
84.03957980296752 84.90075654864226 33.29580629833284
84.32544760113937 84.9649901667502 33.35993080969913
84.61443796303087 85.00832115829711 33.4275152136135
84.90534188250622 85.03117549661086 33.4969272721672
85.19707939270212 85.03466206902287 33.56653312528877
85.48877809147923 85.01979390729069 33.634817963167336
85.77971891036012 84.98766318023446 33.70035588655632
86.06933258915754 84.93952515616736 33.76186661270228
86.35713776243094 84.87641019920329 33.81810821371179
86.64276827178837 84.79957630481664 33.8680258799376
86.92588395475138 84.71003195742377 33.910548716790665
87.2062168195883 84.60891885023807 33.94477244371885
87.48350710632049 84.49727138814832 33.96981196152116
87.75749716921814 84.37608377786749 33.98482133990215
88.0279711143476 84.24643959772722 33.9891517525159
88.29461303511101 84.10920736506336 33.98195533138794
88.55721800015898 83.9654868135356 33.962846722231056
88.81540648113055 83.81611674554293 33.93108221014358
89.06891222187765 83.66210116854495 33.886416812109175
89.31734348302612 83.50430114374244 33.8284366259675
89.56030378624648 83.3435724088062 33.75690498617991
89.79743310339951 83.18074350824054 33.671835061291844
90.02818077292147 83.01654061949695 33.57297572205487
90.2522106594951 82.85167242051477 33.46068702654746
90.46894976544118 82.68674279322866 33.33498086566391
90.6779361753852 82.52228810267958 33.19620521796994
90.87868636164484 82.35876102542107 33.04475183200731
91.07051936843904 82.19657061908542 32.88081850672832
91.25301066602577 82.03602233307352 32.70503333900878
91.42539952186239 81.87742622305906 32.51766130739406
91.58708189491217 81.72102605820373 32.319227635059555
91.73733725786616 81.5670649746165 32.11018972234098
91.87528148540305 81.4158144184695 31.89093809488513
92.00023525251625 81.2675086301755 31.66209874494087
92.11110504404347 81.12250204023806 31.424075170443864
92.20722600735942 80.98108963728349 31.17762937666785
92.28751028037195 80.84372142186639 30.923354864978943
92.35130120729129 80.7107979919808 30.662144995039984
92.39787218272933 80.58279408011666 30.394909601975094
92.42659820091708 80.46021526164705 30.122666557189124
92.43739798867907 80.34344247920258 29.846596853910366
92.43005654358329 80.23293173025996 29.567846085717647
92.40496965589253 80.1289486861257 29.28762010399238
92.36282102883145 80.0316417304509 29.00703683026542
92.30414304172875 79.94121456334436 28.727118204515463
92.23026836012939 79.85751540414651 28.448706233180825
92.14213127924481 79.78053891783351 28.172507016144536
92.04103171839127 79.7100906560756 27.89901531505014
91.92805296175774 79.64606590478559 27.628606280991058
91.804416912869 79.5882746775621 27.361471750225228
91.67101948907909 79.53671998914491 27.097775819649254
91.52894478236388 79.49128596656941 26.83750675511407
91.37890243594343 79.4521223183355 26.580711075982443
91.22164180075582 79.41936299969353 26.32735992320121
91.0578041721101 79.39322369073838 26.07742931689218
90.8878176022592 79.37414281892471 25.83099088581991
90.71214394470546 79.36252519387145 25.58810288702677
90.53116349437703 79.35885449043646 25.34888975826401
90.34511941776475 79.36382409008598 25.113618756958047
90.154293119115 79.37807241983039 24.882598549408986
89.9589570621044 79.40223723489785 24.656221149009472
89.75928647234623 79.43721201523867 24.435102414799676
89.55558856607094 79.48362018371961 24.219844166866793
89.34815871692084 79.54218158987685 24.011219808420023
89.1373277564833 79.61367206514382 23.810178228092347
88.92357895337815 79.6984767365438 23.617575610244547
88.70739270890483 79.79732139588236 23.434635945952202
88.48944286219137 79.91024082545893 23.26224610763402
88.27043509968377 80.03767791472994 23.101732921742894
88.05121852456737 80.17933981772111 22.953941214659835
87.83272058064698 80.33521537231783 22.820050177014313
87.61593836784628 80.50475931311918 22.700788686868098
87.40194136569617 80.6874722679537 22.5969398858606
87.19184525639854 80.88266193900118 22.509061943965435
86.98673921097091 81.0894388897704 22.43738136130045
86.78783352468399 81.30706347082156 22.382251870474448
86.59612666361679 81.53443365969306 22.343318814682664
86.4128735100483 81.77080089984388 22.320638430713693
86.23894878626353 82.01506275988942 22.31341688325361
86.07550433651767 82.26644328687905 22.321247372025518
85.92331481373593 82.52398749610818 22.34310188070955
85.78333888437238 82.78694829570796 22.378153933195012
85.65617416726161 83.05451353569566 22.425157831285066
85.54253828338248 83.32602146820996 22.482983109813908
85.44276071934604 83.60079742021 22.550195207030796
85.35728712577057 83.8782977283218 22.625459658582876
85.2860828601003 84.15798857592856 22.707200653560868
85.2293099795984 84.43946656463002 22.793962170489532
85.18651270032808 84.72234927062547 22.884118916067656
85.15760771987735 85.00638332648109 22.976169609981206
85.14178532068549 85.29133822189249 23.06855871718162
85.13864622463618 85.57708750007171 23.159795375907414
85.14726729603673 85.86353035278982 23.24847245751479
85.16692415081252 86.15062233387154 23.33320737637626
85.19670786612583 86.43833457212351 23.412726350622137
85.23566023517061 86.72664326940188 23.485868753678158
85.28293046740261 87.01552277897787 23.551467539198253
85.33745477046708 87.30490751028053 23.608675191399165
85.39846221393374 87.59471317796127 23.656420266460163
85.46492827663914 87.88479245705025 23.694162757994885
85.53609998628083 88.1749601093441 23.721089786936705
85.61113288606767 88.46497710950705 23.736822528713276
85.68933268720666 88.75455486566166 23.74087488765205
85.77003424816962 89.0433669083276 23.733025739617066
85.85266794378494 89.33105017151476 23.713111466173352
85.9367476921796 89.61721386633597 23.68105487903462
86.02185755146957 89.90146759682601 23.6369763940745
86.10767142190177 90.1833874555733 23.580902390298828
86.19391576332809 90.46260620171024 23.51318030875118
86.28038454298176 90.73869316789114 23.433889327332142
86.36690776089122 91.01134857477979 23.34354960368497
86.45334642447283 91.28015185396427 23.242247473860033
86.53957839406627 91.54488901412209 23.130589477026994
86.62547016451313 91.80521447075587 23.008757919483674
86.71087821404267 92.06096795004477 22.87728292091645
86.79561087028132 92.3119226078974 22.73645458190219
86.87943557198918 92.55796659338701 22.586699077845104
86.96205804144127 92.79900948678733 22.428385438890594
87.04310968132528 93.03497962288719 22.261830625477117
87.1221796055048 93.26592442521928 22.087461423906024
87.19873143066648 93.49180449650525 21.905498585206168
87.27225065339447 93.71278737378391 21.716410763945618
87.34203108110381 93.9288701933038 21.52037076795702
87.40747634984623 94.14028450773334 21.31785279222988
87.46779205651524 94.34709889045007 21.109089144006038
87.5223148934993 94.5495325266386 20.894519674218266
87.570253107461 94.747710859817 20.67447637851678
87.61092990803245 94.94182836671212 20.449409247960805
87.64363998341751 95.13204389380033 20.219759452246464
87.66774364946964 95.31852785420665 19.986021778562
87.6826957999713 95.5014677287621 19.74874654874209
87.68792620549976 95.68102328876138 19.508492030812043
87.68310006894588 95.8574217158533 19.26590225019353
87.66770972560546 96.0308318919205 19.021604688511225
87.64164519866102 96.20153370895112 18.776307491319034
87.60441467515366 96.36971810861012 18.53071271121604
87.55606502939243 96.53570509489748 18.285561706364675
87.49623228996462 96.69973845708694 18.041633316354275
87.424925395591 96.86213286396018 17.799701929920232
87.3419554273883 97.02317082386203 17.560600288264546
87.24725395517969 97.18314220521148 17.325170922716577
87.14080910286742 97.34231953711792 17.094264957943384
87.02249168195156 97.50093701354642 16.868818284681897
86.89247381781306 97.65919930695782 16.649655442624983
86.75062865634084 97.81725050720165 16.437799719674306
86.59732127965536 97.97518538790533 16.23399650443028
86.4325206017128 98.13303194765696 16.039299956897196
86.25679085822195 98.29076253731063 15.854310566568829
86.07028606361209 98.44828868168078 15.68000616908574
85.87375949792995 98.60548930227839 15.516771364320087
85.6675920462036 98.76220272445958 15.36538970922204
85.4526879987043 98.91828514953791 15.225978919805584
85.22962618338804 99.07358162928541 15.099061403182807
84.99939639089826 99.22800772254529 14.984478162311197
84.76269471896751 99.38149278824926 14.882506083509787
84.52052430133615 99.5340722374719 14.792740897888212
84.27363155902124 99.68581235061004 14.71524915910999
84.02295851662366 99.83688878555512 14.64947654573895
83.76926488162533 99.9875203451142 14.595273539313625
83.51337740357638 100.13800010969123 14.552067414304968
83.25602277644846 100.28866133367983 14.519507412234578
82.99790576196088 100.43986653861664 14.497059673322044
82.73967012759637 100.59198860988418 14.48419844408169
82.48190539502482 100.74540372598467 14.480439207843057
82.22512349295945 100.90043606557269 14.485106216073085
81.96979616489482 101.05741662881297 14.497735815004145
81.71625912855848 101.21654477440705 14.517541909697233
81.46483192289827 101.37803696519701 14.544006242998536
81.21565401642295 101.54193642323546 14.57631186144852
80.9688433807089 101.70829023238342 14.613833713319442
80.7243517358917 101.87699805227948 14.65577548422172
80.48209142307012 102.04794568776302 14.701437884935363
80.24185114270159 102.22091948723128 14.750053041605595
80.0033759515139 102.39568470502682 14.800904963384143
79.76633853452738 102.57195202428674 14.853275465691643
79.53038501125215 102.74941826392059 14.906487077825846
79.29514396904914 102.9277678109649 14.959900732696132
79.06025032794038 103.1066896067387 15.012928177556628
78.82536611196798 103.28589309661427 15.065037588346732
78.59019415143148 103.46511454273032 15.115768055519885
78.35448499239502 103.64412853149098 15.16470473689992
78.11805997987537 103.82276188508094 15.211532252435873
77.88078852316447 104.00088882152957 15.255944027432783
77.64263627671465 104.17846494219947 15.297771147272716
77.40360337652764 104.35549632621013 15.336788838348916
77.16379182793746 104.53208646850176 15.372920635592806
76.92334074099537 104.70840174632396 15.4060164441967
76.68246047079109 104.88469257279505 15.435971672767913
76.44141216369307 105.06127672962928 15.462669177723763
76.20050961281154 105.23855016960793 15.485883671943641
75.9601098755356 105.41694173910227 15.505452237028981
75.72063388647516 105.5969600087124 15.521032149518176
75.48254603266153 105.7791285303982 15.532265229992575
75.24636149954131 105.96398513925766 15.538704261386206
75.01269811148383 106.15212279468655 15.539714038235275
74.78215221956752 106.34400277226926 15.534740027120845
74.5555175196783 106.54018777787682 15.522890072140079
74.33347005423587 106.74096125671483 15.50351744838047
74.11695634661737 106.94670222330033 15.475579599559598
73.90671626343313 107.15742142611553 15.438404420781803
73.70372128869188 107.37313247549758 15.391020675882404
73.50871861483574 107.59351092526335 15.332814815511856
73.32242684700724 107.81808286239601 15.263223814429058
73.14551597144747 108.0462150534808 15.181755510787841
72.97823717345963 108.27704953855832 15.088419985291631
72.82084844278894 108.50970841672674 14.983167215681135
72.67326721929655 108.74324721083013 14.866294322047956
72.53517994117432 108.9767628235809 14.738292344036578
72.40629953027742 109.20940489366028 14.599543602037672
72.28591400138244 109.44045551925834 14.45085399115848
72.17358476651066 109.66923580476934 14.292648103942705
72.06849724782683 109.8952707274329 14.125754394608338
71.97014288260613 110.11807719999125 13.950615285001238
71.87784835136203 110.33734577594234 13.767875267304898
71.79110672164381 110.55278320685979 13.577994915202131
71.70950858879421 110.76411728673953 13.381342345233152
71.63262650407289 110.97119332085974 13.178360426510269
71.56024079386137 111.17377160296049 12.969277283768776
71.49216451904003 111.37167497963655 12.754350969778313
71.42828169940627 111.56475522892079 12.533822923340905
71.3686622827402 111.75274186089682 12.307769584522612
71.31335205752052 111.9354764683848 12.076378093464108
71.2625024343646 112.11274436628466 11.839769714469014
71.21639944405774 112.284220959405 11.597978396360793
71.17521699542753 112.44975450787442 11.351209394771388
71.13932473860865 112.6089746073665 11.099510143936534
71.10894626219252 112.76168566588981 10.843096807639485
71.0844018925068 112.90756087786848 10.582120154956073
71.06589956739157 113.04637407109568 10.316829503219907
71.05364042271557 113.17786222720265 10.047477011290956
71.04770807865557 113.30184600498086 9.774377963905083
71.04814347375283 113.41813547060987 9.49785180864239
71.05483656945563 113.526661126892 9.218266512743599
71.0676590469804 113.62731377022942 8.93596279764526
71.08630754948163 113.720153582477 8.651314960663692
71.11050176271567 113.80515260927297 8.36464153547182
71.13978775722117 113.88247735550492 8.076274114642185
71.1737543086035 113.9521809404145 7.786479673400833
71.211864276069 114.01448108318353 7.4955155393565125
71.25361080241801 114.06950885904939 7.203584807137687
71.29843381010886 114.11746948499407 6.9108637215965425
71.34576466248232 114.15857189789851 6.617493889388892
71.39504859772927 114.19295663137756 6.323581130355023
71.44569032225843 114.22090878396102 6.02921661348332
71.49713482674318 114.24247354160886 5.734453848673185
71.54879089394271 114.25795712103915 5.439345966084893
71.60008086863748 114.26744233510273 5.143920412847285
71.65042140082907 114.27110749524225 4.8482021151748
71.69922883619286 114.26910666154792 4.552210974098597
71.74588062729838 114.26150425035016 4.255963387914531
71.7898060403 114.248505100404 3.95948693652591
LINES 1 259
258 0 1 2 3 4 5 6 7 8 9 10 11 12 13 14 15 16 17 18 19 20 21 22 23 24 25 26 27 28 29 30 31 32 33 34 35 36 37 38 39 40 41 42 43 44 45 46 47 48 49 50 51 52 53 54 55 56 57 58 59 60 61 62 63 64 65 66 67 68 69 70 71 72 73 74 75 76 77 78 79 80 81 82 83 84 85 86 87 88 89 90 91 92 93 94 95 96 97 98 99 100 101 102 103 104 105 106 107 108 109 110 111 112 113 114 115 116 117 118 119 120 121 122 123 124 125 126 127 128 129 130 131 132 133 134 135 136 137 138 139 140 141 142 143 144 145 146 147 148 149 150 151 152 153 154 155 156 157 158 159 160 161 162 163 164 165 166 167 168 169 170 171 172 173 174 175 176 177 178 179 180 181 182 183 184 185 186 187 188 189 190 191 192 193 194 195 196 197 198 199 200 201 202 203 204 205 206 207 208 209 210 211 212 213 214 215 216 217 218 219 220 221 222 223 224 225 226 227 228 229 230 231 232 233 234 235 236 237 238 239 240 241 242 243 244 245 246 247 248 249 250 251 252 253 254 255 256 257

POINT_DATA 258
SCALARS curvature float
LOOKUP_TABLE default
0.26969952972204275
0.27599112058818787
0.27954812154712516
0.2799603442559992
0.27710575123078757
0.2712021399495148
0.2626609190340452
0.2521854011075423
0.24048439793245188
0.2283043341130452
0.21626350676253406
0.20484158715323741
0.19438280968127686
0.18512911920354505
0.1772043854617483
0.17067728625019316
0.16552391187098517
0.16171488615191368
0.15917496662400635
0.15778715093253118
0.15738718471512553
0.15778536385046382
0.15881526610035568
0.16027815007837837
0.16197470997277194
0.16370721718770015
0.16532642597599778
0.166725852446038
0.167821856262706
0.16855116964595732
0.16894299923857184
0.1691110241058969
0.1692241890042285
0.16948337337344338
0.17011201045330998
0.1713137675353745
0.17327964010172658
0.17611710641728084
0.17985519247949477
0.1844498375308655
0.18973031609317012
0.19543831469048664
0.20119156424648876
0.2065268614064925
0.21098305685278843
0.21410038518826066
0.21540641995260665
0.21451322066759698
0.21118971715675056
0.20550275043384858
0.19771597030362068
0.18825250864460588
0.1776701548496734
0.16652715204089796
0.15536736504653975
0.14467713272995802
0.13488183760750921
0.1263672950143177
0.11944119020399668
0.11437307491949814
0.11130532691530215
0.11030800150028494
0.1113609187088748
0.11434440933561078
0.11907664594985186
0.12537213989641513
0.13296993089556605
0.14157107414856984
0.15090656528200114
0.16069237928449542
0.17066023792989718
0.18055888762474906
0.1901371378777815
0.19911387122392007
0.20722887732189174
0.21423989235031107
0.22000266796998014
0.2243944518654333
0.22741367100453186
0.22908558939738483
0.22951477070411264
0.22883263066738896
0.2271410294829269
0.2245601934926525
0.22121339639567633
0.2172464668853425
0.21275219998975092
0.2078145225823138
0.20246880538934142
0.19674721475764548
0.19064456681962566
0.18413602785517869
0.17718748753051466
0.16987655802957813
0.16233033082793077
0.15476305264766965
0.1474625051507105
0.14072441157651178
0.13487696775543898
0.13017168151808614
0.12680484087270413
0.12482902893741414
0.12418532911959675
0.12470615285224591
0.12609466465373356
0.12805067429921585
0.13024630901981293
0.13239818492628883
0.1342697240563189
0.13567846782573098
0.13650674495650206
0.13671258839848888
0.1363134014214262
0.13536374440420812
0.13393500388875215
0.1321146374653424
0.12997091913448955
0.12758058324208824
0.1249980108745999
0.12227976948745606
0.11947569917881563
0.11664016383821998
0.11382645310172854
0.11109937056480869
0.10853745658600505
0.10623498576047634
0.10430465661391874
0.10287592408803461
0.10206238909900826
0.10196448435569842
0.10259858951861092
0.10394262964835158
0.10588649291902415
0.10828040908711563
0.11093616040070936
0.11366174618365577
0.11628747161776927
0.11868035290601131
0.12078419034626915
0.1226057462724292
0.12422262465894789
0.12576649950637156
0.1273795505506493
0.12919975681625379
0.13136245033177485
0.13396299529782438
0.13706255798276165
0.14064736373927114
0.14463754638887386
0.14890136692945463
0.15325566213189282
0.1574763108475811
0.16131622119282138
0.16450777069227723
0.16682989760490333
0.16805380872499906
0.16808456503165695
0.1668312200268482
0.1643688002197679
0.16078718504800824
0.1562517854220548
0.15090246104590577
0.14494260645597026
0.13857389367799045
0.13201409930405011
0.12546053829178547
0.11907823504251953
0.11298811985260546
0.10725426993609001
0.10186579334805296
0.09673456987656721
0.09171049021988577
0.0866048953416752
0.0812133822264338
0.07535679389500505
0.06890598749852024
0.06181417542248621
0.054125372827500816
0.04592719237608974
0.037368750613733466
0.028676545743763413
0.020233566724929212
0.012817965355444284
0.008761971109910725
0.01097510728232178
0.016137892539987674
0.02138468678465389
0.025930353818712698
0.029530221841463165
0.032114833829072494
0.03377698038966118
0.03468030438051772
0.03516857037751695
0.03569313898311705
0.03681671772523465
0.039101666706717574
0.04301281296615112
0.04875337795707437
0.056343784480842526
0.06559844091081533
0.076269205907989
0.08803778885275183
0.10054726231297742
0.11343820264717062
0.1262914166901936
0.13861978582232812
0.14988730538532408
0.159511854151743
0.1669768524499114
0.17185891934287856
0.17391641848043038
0.17317847105472567
0.16992799520962568
0.1646053010959389
0.15769258546520892
0.14965852394903237
0.1410654876871818
0.13242811847986646
0.12417577902478485
0.1166672989562417
0.11013571021352299
0.10471825534158831
0.1005092312634766
0.09751460529036121
0.09573186153752736
0.09507301935313658
0.09541537388017088
0.09663122490865696
0.09854244660628901
0.10097964835724636
0.1037667224352431
0.10671612641121492
0.10963752294418627
0.11233166358380861
0.11460154058421776
0.11626597123253793
0.117170006124877
0.1172093411658184
0.1163284819904247
0.11457258134893354
0.11201133445040584
0.10873926354219798
0.10485863130560688
0.10052800325541511
0.09591790867985359
0.0911926805464958
0.08650172943725527
0.08198901178807522
0.07779103597307532
0.07404098273700495
0.07084753304455
0.0683346188261661
0.0665878306299489
0.06569844058808942
0.06571432087667417
0.06665393726881928
0.0685204512122235
0.0712690664401305
SCALARS torsion float
LOOKUP_TABLE default
0.06697772648662402
0.07814369892184791
0.09089294652809879
0.10515703603589556
0.12081553797227462
0.13754038248114858
0.15484226109590535
0.17244363835689394
0.1900822067809021
0.20741771746865872
0.2237297979245558
0.23855781079551702
0.2516565885860279
0.2625602840368233
0.27076637306732354
0.2757411029510559
0.277380545052675
0.27575167160446384
0.2705807647697986
0.26134227285455286
0.24854347103162608
0.23278040422546992
0.21460613148578997
0.19437837181093634
0.17247646063804722
0.1499205179289606
0.1277404256732033
0.10580008655973812
0.08358924115736852
0.06102062647798988
0.039380797113843645
0.01881167345590804
-0.0002457165734114893
-0.01737044723824074
-0.032193702074204855
-0.04387771319185163
-0.05226861304850955
-0.057459722798922294
-0.059512364984592836
-0.05844307517059467
-0.05449488446161116
-0.04869016700702438
-0.042006188887792895
-0.03499561144619904
-0.028537976474600327
-0.022611016780403538
-0.01720167903867442
-0.012210242960466076
-0.007454201777970546
-0.0026979507905449595
0.003017251492686841
0.010308090547366469
0.01967787992138998
0.03170915023034945
0.04699063320136552
0.06613093793352232
0.08878970323395509
0.11312590168401185
0.13719669813836766
0.1572096377706699
0.1701029950160179
0.17359311124124568
0.16717050663943928
0.15231531551298808
0.13160245679030133
0.10788645470291199
0.08442189439124856
0.06270230717518813
0.0441002398519081
0.02880005205209703
0.01670895496948362
0.007729939583432596
0.0013778778990012573
-0.0024869374181322635
-0.004162333926248243
-0.0032542238686605373
0.00012925528796079344
0.005884826881223757
0.013991476129927582
0.024162082421078868
0.036237573758775427
0.05023175498386543
0.0661285476662399
0.08377085529346856
0.10188158403224457
0.12049136862116579
0.13866297940542066
0.1564303451900644
0.17383828061924306
0.19109521768511104
0.20864123578551116
0.2271073459813707
0.24718080124110875
0.26903533264630736
0.2930592859289187
0.31937582916721047
0.34708730479960964
0.37463035020641633
0.39913671739497597
0.4169293395638741
0.42411848347915093
0.41856038473851415
0.40000068537035
0.36991020053527096
0.33369255005701837
0.2939334288694429
0.2541323841054744
0.21563082343232984
0.1793892895538271
0.1456592770530512
0.11470106523244997
0.08740700778041682
0.06330398746276795
0.0430695227078176
0.026486623328363844
0.013741186855478281
0.004993298473600267
0.0007670585657204396
0.001777766961439945
0.008340257101819546
0.021136485005823595
0.04009194470091328
0.06372595481726732
0.09199566454558386
0.12342960484249246
0.1573695659254759
0.1914015319083291
0.22325212093203137
0.2500203437534929
0.26807822090764777
0.2768983228290049
0.27663200414349165
0.268865341544172
0.2565452527990164
0.24187775230812755
0.2274327779613101
0.2147464247388486
0.20495869253170074
0.19881135528925215
0.19587629623259611
0.19528737089404669
0.19624756931347306
0.19741063044308302
0.1981095978148086
0.19686935303666633
0.1930693125214372
0.1860472765033691
0.17542372398680947
0.16204911760650154
0.14699280158730854
0.13098139517145554
0.11515203844350189
0.09990047235829427
0.08638923176167129
0.0749219268910136
0.06638951844594905
0.061501922464845
0.06031410007486012
0.06290437749812619
0.06941531787000078
0.07954684990842788
0.09373457895193599
0.11115401606416289
0.1319493366683454
0.15450269116288456
0.17732174666332573
0.19932307996392187
0.21858370580335984
0.23381416293161988
0.24365075273142486
0.24722353950058187
0.24502189716966385
0.237040363995446
0.22598390275650987
0.21367912808404727
0.20282066845261942
0.19849690329699152
0.20324599766039397
0.2234371836964898
0.27216582969165565
0.38805394081733796
0.6832540133124909
1.5443879377745282
3.003304072712
1.7329637775897582
0.6951535221763319
0.3141352991252963
0.14077355403970251
0.03516101107288568
-0.04705114060500361
-0.1259263328856965
-0.20999280935866338
-0.30121615078985864
-0.38854131175537554
-0.44987581077724187
-0.4659262584712563
-0.43038262026807544
-0.3597285123970763
-0.27570937406038837
-0.1967806196945129
-0.13104437548492753
-0.0792694894191929
-0.039724782130467304
-0.010680252245055484
0.011664130171223057
0.029481499231628662
0.044728044749246
0.05754303390935635
0.06905262711553561
0.07936785411456118
0.08894262411803627
0.09800195795923596
0.10642204631782468
0.11436207106127733
0.12193315068231636
0.1289487772177858
0.13479563724321095
0.1384651585924466
0.13967030056270688
0.1368622636247924
0.1304969259552781
0.12008929822388066
0.10483458085789092
0.08461424100174054
0.06052699618263004
0.03580154605196899
0.011972561057248844
-0.00851267200567432
-0.024768173956428143
-0.036094253927627426
-0.04230805174139996
-0.04410974478065284
-0.042167602947431874
-0.0370001982696603
-0.029196892688991952
-0.018969578877994837
-0.007262855216113194
0.0059164834395130875
0.019753106305556326
0.0340066795626223
0.049230565341762164
0.06603446673641421
0.08457524406024494
0.10423058659903643
0.1252209113975625
0.14786987312986022
0.17224056408339888
0.19818374006629577
0.22510819887759126
0.25242677909507744
0.27908847835179834
0.3029628525765106
0.32166160322520315
0.3328187601641774
0.33569240182543186
0.33005799592067875
0.31697858180744476
0.298413974542468
