# vtk DataFile Version 2.0
00003622.nii_L_ICA_labeled
ASCII
DATASET POLYDATA
POINTS 213 float
103.292273486642 72.45407369578436 35.9810873713086
103.12868554157534 72.5169251859724 35.737647263394564
102.95549964287889 72.56643065551978 35.49778894861273
102.77429375445323 72.60246805555175 35.2614746072996
102.58644574199533 72.62471581118514 35.02866981888868
102.39333733913305 72.63299814400182 34.79927926393009
102.19622159666945 72.6269552719376 34.57325240344202
101.9963168329534 72.60613208033136 34.350577688988324
101.7948436410093 72.5698542825334 34.131327136110805
101.59308901539829 72.51767427462177 33.915577376998
101.39237559606026 72.4490036743673 33.703510359772785
101.19413236112565 72.36312785373637 33.49543207543184
100.99984879624613 72.2596150307514 33.29169849047153
100.8110756739809 72.13813827753377 33.09276610451525
100.62947619104195 71.99839346125938 32.89922938141166
100.45656555456212 71.84067883346225 32.71164176282215
100.29392554084446 71.66528730557859 32.530682398612036
100.14278604678267 71.47317381943193 32.3568762916672
100.00419774594562 71.26547341054628 32.190697816139675
99.8788509774546 71.04365522546132 32.03243125479676
99.76693082892338 70.80949843451285 31.882056872758834
99.6684858436763 70.56467261664143 31.739434194574436
99.58289443540515 70.31109638404398 31.60397163261121
99.50963650870544 70.0503406570993 31.475047921516662
99.4476590157465 69.78402762705807 31.351671279281526
99.39615732839121 69.51342153738442 31.23288931442129
99.35399083485098 69.2397282604336 31.11753857424101
99.32027627712294 68.96389428196117 31.004521042074796
99.29408730074577 68.68675006741148 30.89271458072854
99.27461698201917 68.4089893545208 30.781061623142854
99.26127788472404 68.13120324345094 30.668571977709863
99.2534984602244 67.8539023059234 30.554376084706657
99.25097687955578 67.57754032421178 30.437694382144812
99.25354147626092 67.3025293513882 30.317865585590816
99.26113708992675 67.02924300915194 30.19436249627481
99.27392506422777 66.7580806482159 30.06667935383991
99.29207908589882 66.48942329049642 29.934435776386056
99.31585167766694 66.22369348783097 29.79726225027023
99.34558293935287 65.9614172883876 29.65471284260707
99.38148315893913 65.70314572641229 29.506393390541554
99.42373449430748 65.44954876180059 29.351817087752593
99.47245917611473 65.20144399378587 29.190388926625406
99.5276585661082 64.95979590430201 29.021432606466533
99.58914198228666 64.7256676516161 28.84426620110384
99.65660452425671 64.50033304247043 28.658108755479546
99.72958732950046 64.28529450890919 28.462123150013706
99.80744210998226 64.08229669637745 28.255473556110985
99.88927192477976 63.89317926470761 28.037515478513924
99.97399794125853 63.72007788296758 27.807690740931992
100.06030857859453 63.56558868823764 27.565539073702663
100.14660665598163 63.4320428504639 27.31125125287798
100.2310447914089 63.32242053224796 27.045194297624462
100.31158174773081 63.239248941522035 26.768572401421658
100.38589097788412 63.18558418927557 26.483072921587215
100.45167886377247 63.16355907438952 26.191384624466316
100.5066493503049 63.175090025406824 25.896885124828223
100.5487447274177 63.22130591928916 25.603676017515713
100.57635403379389 63.30234868319694 25.316365530461766
100.58852931589375 63.417206598061945 25.039716371725902
100.58515748623067 63.563673560424576 24.778160456158854
100.56689307651993 63.73872877761845 24.535459934551298
100.53509613023591 63.93877065946148 24.31440324749037
100.49161923067864 64.16003619552511 24.11676328314689
100.43863126180017 64.39886964386186 23.9433473914593
100.37854047691184 64.65173344443777 23.793730907511552
100.31358809640818 64.91586777214789 23.667390011799036
100.24605327765252 65.18868834763649 23.562679932183777
100.17798686852827 65.46828919680348 23.47808856483618
100.11131914695527 65.7531428999172 23.411864946645856
100.04781007611196 66.04203104530185 23.361999439612486
99.98908767201989 66.33405513049834 23.326582175082628
99.93668262904089 66.62853016171005 23.303728926451694
99.89201457848571 66.92491145274201 23.29153806318569
99.8563126330525 67.22273636367494 23.288067176797053
99.83069868500851 67.52159984676436 23.291473630041764
99.81621474224674 67.82110760023404 23.299985487397514
99.81360174031752 68.12083987361193 23.311827584062115
99.82333605613714 68.42035528274016 23.325322913107176
99.84584363005027 68.71917788760612 23.33890525139511
99.88098571105246 69.01683735138944 23.351134355825224
99.92857763502643 69.31285964180297 23.360708050682536
99.98808824496123 69.60681747848892 23.366499257929295
100.05879506036388 69.89834177608853 23.36755260782622
100.1399091035779 70.18711127396877 23.36303028623009
100.23041167796545 70.47291397912865 23.352316098246195
100.32946432814563 70.75552602849268 23.334754810746084
100.43604742956586 71.03483352751843 23.309916695406706
100.54929635173016 71.31070212049043 23.27733726250348
100.66847192760028 71.58294676202087 23.23646834732517
100.79279478404912 71.8514194585347 23.186912819745146
100.92163360297604 72.11587550313973 23.12815389153372
101.0544344746681 72.3759782841551 23.059604680723428
101.19070354659758 72.63127390945021 22.98059843284303
101.32995672092606 72.8812336662336 22.89052310922174
101.47175944454423 73.12515421358725 22.788652708955414
101.6156847248073 73.36214510637707 22.674190768151913
101.76128677664198 73.5910813284524 22.546263607310888
101.90805364615754 73.81074029657252 22.404200462175854
102.05541921359742 74.01958439468845 22.24724233536215
102.20271002021227 74.215811377607 22.074721958403405
102.3491390123772 74.3976309140006 21.886419998615356
102.49377110294249 74.56285500380399 21.68212946135853
102.63558963439934 74.70964323431929 21.462387538263844
102.77348382443122 74.83614389190053 21.228023319326507
102.90632797747084 74.94088424961248 20.98038820551149
103.0331443141808 75.0231913085221 20.721380285125953
103.15305935110436 75.08280272790033 20.453026792914294
103.26547400192192 75.1203012061708 20.17751323984578
103.3700999830118 75.13700115044297 19.89691880051871
103.46675589904874 75.13435074808577 19.612988506673705
103.5556672528818 75.11461198735637 19.32719564645167
103.63701045717055 75.07978408015343 19.040578897821277
103.711203722187 75.03223647205824 18.753841311251385
103.77865731360163 74.97419335795453 18.467363144276813
103.8397208118681 74.90771956022556 18.181277870975464
103.89485737486986 74.83494631846732 17.89551815959866
103.94445983681514 74.75781085609445 17.609885264689364
103.98890146846527 74.67814028176467 17.32409652560945
104.02854066250313 74.59767105838901 17.03782458851036
104.06382921970973 74.51803831188525 16.750750532614276
104.09522613064203 74.44074690647804 16.462587067263634
104.12323687504603 74.36722335445543 16.1730926210811
104.14850891625544 74.29871263432636 15.882121558767759
104.17179283711238 74.23627502778203 15.589623161294883
104.19394847016744 74.18089279566885 15.295621316658185
104.2159915697632 74.13314957621188 15.000275650870186
104.23904020707931 74.09355188015053 14.70380551354812
104.264297185543 74.0622848921525 14.406521740662653
104.29301552612198 74.03933681883083 14.108794910377226
104.32646986624793 74.02452050768704 13.811047829857886
104.36584800603774 74.01741319788617 13.513742806131386
104.41234150260149 74.01757342382761 13.217383138297901
104.46687202113921 74.02433794468018 12.92247500137208
104.53042856213706 74.03717896590003 12.629584129950652
104.60357926876297 74.0554012855378 12.339230230197215
104.68692467123908 74.0784839900179 12.051987054133798
104.7807879941696 74.10593198950508 11.768396573851
104.88529304932148 74.13735568651889 11.488971245830802
105.0006001431549 74.1725668183452 11.214286907397762
105.12650394833588 74.21144145151042 10.944799624357918
105.26281117370462 74.25404785530296 10.680997056334663
105.40937223298953 74.30065277246807 10.423442410489404
105.5657494800424 74.35157229193881 10.172565848298296
105.73157679329594 74.40727994449651 9.928878180158101
105.90654588457618 74.46840492242154 9.693008237845524
106.09012473534393 74.53552685959613 9.465462299087301
106.28183243559576 74.609294152807 9.24685366373754
106.48121986584832 74.69042433596114 9.037940912024181
106.68760684622274 74.77940285136633 8.839276038073542
106.9003989759244 74.876763812189 8.65160655486056
107.11885941367804 74.98279619715524 8.47550763674948
107.34221707152565 75.09762061328207 8.311479853325594
107.56968213522599 75.22118075050187 8.159916811234188
107.80042381353833 75.3531251218333 8.020888942423426
108.0336839441309 75.4930150909084 7.894389868040685
108.26873054668653 75.64012071474279 7.779949081252277
108.50496546465824 75.79375012954348 7.677103419740768
108.74187849547839 75.95299525262352 7.584898101990026
108.97910178354046 76.11708193033637 7.502485804592974
109.21637626299447 76.2851524092075 7.428686833545045
109.45355014970919 76.45646578868927 7.362388911505983
109.69055402932095 76.63035105478227 7.302474444716561
109.92738356382786 76.8061892654868 7.247789011946796
110.1640738590498 76.98347781059057 7.197339587761685
110.40068529845645 77.16178133386298 7.150200481710714
110.63728753010705 77.34074403706481 7.105576534126585
110.8739502934327 77.52009156399598 7.0628569181977205
111.1107378115851 77.69960962477359 7.0215677204897196
111.34770619698473 77.87914419578082 6.9814027195686155
111.5849087843247 78.05858789515158 6.942226117549551
111.8223911287191 78.23787145531398 6.904023497538391
112.06019982776839 78.41695005025615 6.8669054834491705
112.29838764878757 78.59578878362768 6.831085407216086
112.53700432168942 78.77435795489143 6.79680916741996
112.77611405455049 78.9526122540422 6.764381337090947
113.01578265780405 79.13049051963095 6.734086339268065
113.25608195953555 79.30790712660044 6.706175861741252
113.49709780821568 79.484741923821 6.680875286530386
113.73890225901167 79.6608636708625 6.658270491849262
113.9815810642478 79.83611025276393 6.638399397263271
114.22519803159896 80.01032865397416 6.621137304841513
114.46980459709366 80.1833752093215 6.606241726780878
114.71543922073504 80.35512208487143 6.59335254377864
114.96209207380957 80.52550923500172 6.581941636836714
115.20973712749979 80.69450697684005 6.571385739234301
115.45829521786126 80.86216566197638 6.560934873214551
115.7076417459145 81.02860225257932 6.549759073604813
115.95761323865794 81.19397821249888 6.536930885293736
116.20797584723144 81.35853840419955 6.521515703627094
116.45844718092272 81.5225572159685 6.502528690717553
116.70867829101425 81.68634699603314 6.478968540091097
116.95826563460936 81.85023756282784 6.449935576791939
117.20673613633174 82.01455950606463 6.414488079706006
117.4535805934613 82.1796205031415 6.371858234220168
117.6982512109721 82.3456935948617 6.321364379988491
117.94014581977999 82.51301907469757 6.26235848102735
118.17870982631587 82.68175771131584 6.194490729149746
118.41332170435204 82.85204253431338 6.117347586793708
118.64344227312952 83.02392329909263 6.030794426280061
118.86852966796674 83.19740833049552 5.934731302264957
119.0880477767467 83.37246524702914 5.829109488391434
119.30157765887851 83.54900000717113 5.714090345764589
119.5086022144746 83.72691715553043 5.589691525737382
119.70877453616907 83.90606520688615 5.456179788279028
119.90169087232461 84.08629154761331 5.3137361681076705
120.08694863877653 84.26743039992728 5.162552288987802
120.264264222529 84.44929652719073 5.002952377027174
120.43322139936379 84.63171176947068 4.8351239914011686
120.59352660556029 84.81448440180046 4.659384724575013
120.74488446491289 84.99742206533833 4.476046969321623
120.8868593828553 85.18032707469489 4.285319751102985
121.01922569711371 85.3629963876448 4.087586395372274
121.141670054418 85.5452224668659 3.88316346127163
LINES 1 214
213 0 1 2 3 4 5 6 7 8 9 10 11 12 13 14 15 16 17 18 19 20 21 22 23 24 25 26 27 28 29 30 31 32 33 34 35 36 37 38 39 40 41 42 43 44 45 46 47 48 49 50 51 52 53 54 55 56 57 58 59 60 61 62 63 64 65 66 67 68 69 70 71 72 73 74 75 76 77 78 79 80 81 82 83 84 85 86 87 88 89 90 91 92 93 94 95 96 97 98 99 100 101 102 103 104 105 106 107 108 109 110 111 112 113 114 115 116 117 118 119 120 121 122 123 124 125 126 127 128 129 130 131 132 133 134 135 136 137 138 139 140 141 142 143 144 145 146 147 148 149 150 151 152 153 154 155 156 157 158 159 160 161 162 163 164 165 166 167 168 169 170 171 172 173 174 175 176 177 178 179 180 181 182 183 184 185 186 187 188 189 190 191 192 193 194 195 196 197 198 199 200 201 202 203 204 205 206 207 208 209 210 211 212

POINT_DATA 213
SCALARS curvature float
LOOKUP_TABLE default
0.20192514482193524
0.18971026943809496
0.18040869792282244
0.17401928684652768
0.1705200803556628
0.1697745380059056
0.17161062509619845
0.17577985514585348
0.18198600562866793
0.18981626172753643
0.19880127081999863
0.20837152287744398
0.21788781489493908
0.22667448013391162
0.2339259408412785
0.23879011448280324
0.24047734322784098
0.23842545178472224
0.2323539799300569
0.22231596467044368
0.20877893928086344
0.19240774878134995
0.1741144877200961
0.15482699071017103
0.13550557139765987
0.11705826065839622
0.10033323852389872
0.08614930007655448
0.07525847169005333
0.06820360060543375
0.06509357253240612
0.0653129883931777
0.067975637452072
0.07223638434284745
0.0775190896413939
0.08352115975668543
0.0900770124057503
0.0971213189779739
0.1046398302834616
0.11270718920340807
0.12148583189143179
0.13125050959611542
0.14231380745284405
0.15502886913327757
0.16965080073219177
0.1863687992241239
0.20523183417216465
0.22615979329612987
0.24893992480696048
0.2732759140099878
0.29869882180516416
0.3245915817536481
0.3500866802952577
0.37423898583106646
0.3958764089603455
0.4133968784289432
0.42518281730701346
0.43008178045026735
0.42740741549833783
0.4171464595806134
0.4001074408647911
0.3776335427436192
0.3513632037651239
0.32292372831608757
0.2938190172038383
0.26528713603778514
0.23832364246728177
0.21364069303346483
0.19177088956428348
0.17320854613285744
0.1583956128407277
0.14763505434184948
0.14092315573042713
0.1378024295974109
0.13743932910361878
0.1387877029856309
0.14075614440079656
0.1424434947306908
0.14320614902813197
0.1427693309158428
0.14108001026927922
0.13828624626307687
0.13470951352741942
0.13078643327398998
0.12698264637786233
0.12376107226643561
0.12148377489532328
0.12046267501634518
0.1209403553038321
0.12308983510499068
0.12703841691375267
0.13288737248332044
0.14068457215875538
0.1504263571768232
0.16207689272324255
0.17553801191497187
0.19062297271302034
0.20699389286217068
0.22414530796607401
0.2413540052315549
0.2576495511241352
0.27183360955241725
0.28260012808856144
0.28869874936068135
0.2891628531604125
0.28364239432722105
0.27238583460295046
0.25624907084153037
0.2363226028808669
0.21369997413284433
0.1896270794464668
0.16513192852388336
0.14106987074206112
0.11813929408842284
0.09704907298129581
0.07859719118406434
0.06391047666169083
0.05447270007446919
0.05142035659588967
0.05407362045340267
0.06028678326903744
0.0678766227349178
0.0753586476671428
0.08205280971423529
0.08773548334700554
0.09251911971748053
0.09667085242813638
0.10055634195164019
0.10449743230386567
0.10869320919412655
0.11316956622675063
0.11778956389353448
0.12234452349046279
0.12660271575654483
0.13032608267033635
0.13331567367310238
0.13552975720765587
0.13704158821365348
0.13802964245854443
0.13877080745860731
0.13959167697551267
0.14083882782116405
0.1428044449074422
0.14567906878035422
0.14951038122170787
0.1541657979724259
0.15936350400104007
0.16466141692769495
0.16949747782402616
0.1732464917477529
0.17528965023794882
0.1751111798506068
0.17232714197085913
0.16679739961919557
0.15856389598248924
0.14793179232688372
0.13532362165653744
0.12130971773012214
0.10647398045747579
0.09140624963904016
0.0766172278662137
0.06256973065513627
0.04968283144005108
0.03834465315951586
0.028854240103651868
0.021443256706777023
0.016260872176251513
0.01326248032659915
0.012114241958440904
0.012355139887179789
0.013628683658147718
0.015747636884637397
0.018523926314681922
0.021699846331623734
0.024983010470652867
0.028062118881783636
0.030646017421140637
0.03247251578460187
0.033342641825160196
0.03309622435811198
0.03166165240344868
0.02906112656856027
0.025483387453765778
0.021467108894669185
0.018312759712683303
0.018286838378821797
0.02273467656666915
0.030575622880894784
0.04024727145240211
0.050820075317326276
0.06168085601428582
0.07236608122428591
0.08250374778849794
0.09180202285802008
0.10004817675518261
0.10710250435086673
0.11293133968639996
0.1175672781859443
0.12112921279599947
0.12377958232995469
0.12569495503237973
0.12703880400006115
0.12795832455007275
0.12860756762136502
0.129108548597094
0.1295476678361372
0.12999382835240142
0.13050133775930717
0.1311095509015729
0.13184483027234165
0.13271534028780882
0.1337128521777483
0.134819036134108
SCALARS torsion float
LOOKUP_TABLE default
-0.1928224320663901
-0.20648100113722528
-0.2178978687685375
-0.22582074327564114
-0.2290442920634338
-0.22711762661954826
-0.22010023350469948
-0.20896374512704033
-0.19477278284578103
-0.17898039713021724
-0.16240995286615556
-0.14599816113508787
-0.13061192348950715
-0.11644933512280364
-0.10351738889683251
-0.09213020835093166
-0.08297869824974148
-0.07668145737525965
-0.07417195241433469
-0.0764139309330539
-0.08452555473679255
-0.09964342080450589
-0.12363157028338097
-0.1584526609212033
-0.20747825304447468
-0.27436880242130907
-0.36170882527757425
-0.46572451851053875
-0.5654532699243163
-0.617548275084752
-0.586800651528364
-0.4808029863692835
-0.3478915158927004
-0.22628989477485828
-0.1388423988499651
-0.08715442471188234
-0.06863086222620216
-0.07427686986229279
-0.0954743993611049
-0.12403748077923135
-0.15295968221015707
-0.1787384225211717
-0.19919921359619963
-0.21109708566501964
-0.214420622514507
-0.2102146573197151
-0.20109753189873003
-0.18866877763428355
-0.17488342273062282
-0.16038132819402814
-0.14573023166503246
-0.13059578522780144
-0.11502847065876803
-0.09893441674506999
-0.08143236461286563
-0.06179386378172104
-0.040413988458664674
-0.017168402636001084
0.007349641490714171
0.03294748945292486
0.05885264133353068
0.08511605657606872
0.1123148142136544
0.1411376265423462
0.17305341931681356
0.20973792527043883
0.25282140233150796
0.3040847442381068
0.3637239678191138
0.42826233152261295
0.49063631758073895
0.539216133056541
0.5626675740471795
0.5559321781610319
0.5246601273253563
0.47885831314797733
0.4302178311965279
0.384904340765971
0.3484637731400222
0.32070324039073556
0.3010768786589287
0.28809574436202035
0.2808173337141164
0.2770505765479491
0.2747033816672254
0.270820286919235
0.2630749217835266
0.2497162005378469
0.23029212990659273
0.2053491714268958
0.17670232401046027
0.14670346555932653
0.11768380155504592
0.09130958246660356
0.06846980931823422
0.04940566045397465
0.03403397428561271
0.02218177198270466
0.013305760724090256
0.006918706863596268
0.002618472915049199
0.00020139442546528781
-0.0004942645592503363
0.0005101922486422859
0.0033780686623313435
0.008306377958404384
0.01548342754273227
0.025644155421335545
0.040076094706398044
0.060243135806370314
0.08838278719604485
0.1280823403979689
0.18571835517338842
0.2706528872790403
0.3996545374513459
0.5928490109567959
0.8555566852117256
1.1093558828216927
1.16766961854645
1.002027309011299
0.780865694218222
0.6160701212758297
0.5198002125578263
0.47289705867302045
0.45687545407523117
0.4572936177591816
0.4624234885016007
0.4634296126058865
0.453685847648851
0.4306465111724837
0.39469694050035453
0.34937831554033644
0.3000009956279211
0.24835597825280886
0.19559224068368802
0.1430178135882235
0.0909064320545052
0.04010444575399237
-0.009290110451995234
-0.05540196393689176
-0.09730643729777254
-0.1317724928338106
-0.15736035004846902
-0.17192791233025292
-0.1756058417498987
-0.16990662431488082
-0.15686918356653684
-0.13902204798635828
-0.11849952873959729
-0.0970265668154697
-0.07623808296769391
-0.05699776431994196
-0.0399754497796528
-0.025033847572704087
-0.012256119856090649
-0.001203656911152966
0.008430630842975732
0.01715240189498926
0.0257173330110934
0.03494553271057105
0.046359342425194815
0.062036639599930624
0.08513754741424631
0.12191029263299302
0.18066175156083783
0.2689806438546382
0.3686300228531955
0.40674955183670847
0.31082467501552125
0.14060602698012709
0.005903077158201668
-0.049166513405444034
-0.04508948011091363
-0.014301005956710149
0.025574930501393967
0.06828485660183611
0.10962909187038204
0.1521517900397771
0.1971357733790655
0.2526378784062668
0.3284328007601068
0.4479834906721909
0.6552244170054309
1.0298635197818238
1.576471436106055
1.7683248648464822
1.283789173831941
0.7986255025527293
0.516656879178395
0.3593655896427782
0.26627847347182726
0.20704049359584106
0.16697855341724593
0.1382967648878918
0.11654578133965714
0.09953893667135348
0.08554996128687994
0.07395977274858588
0.06411929172206848
0.05594170056574199
0.04904673700262226
0.043250247681735465
0.03875632566430684
0.035561000050592984
0.03347572393545719
0.03232793844484268
0.03167614467530488
0.03131501093987382
0.030900469590484796
0.030376714831009444
0.029745045661019407
0.029021662620720062
0.0282373047728575
