# vtk DataFile Version 2.0
00004435.nii_L_ICA_labeled
ASCII
DATASET POLYDATA
POINTS 219 float
107.11625598914223 69.78708459823015 24.55170906763079
106.91081186212443 69.68729202640137 24.357229977621813
106.69690172421066 69.58900150371814 24.171301680986485
106.47502040400663 69.49208471090326 23.99420404861215
106.2456904442614 69.39638690476272 23.82616364612713
106.00946412993288 69.30172471067407 23.66734111362585
105.76691530143925 69.20788550196337 23.51782967175095
105.51859319812147 69.11462877486362 23.37772465452121
105.26513516116003 69.02167292568386 23.24692455752094
105.00715761191019 68.92870767864618 23.125284884616764
104.74526147240923 68.83538796581618 23.012616969109636
104.4800419668761 68.74132711800847 22.908673977869636
104.21213332950138 68.64611757007543 22.812999100245737
103.94212934303894 68.549320310799 22.725120212115964
103.67060309667235 68.45045224643073 22.644535185416405
103.39813694193056 68.34904491788527 22.570544677282964
103.12528162531108 68.2446184173794 22.502416138748234
102.85256905241235 68.13668111717685 22.439373817603432
102.58052203327873 68.02473621171427 22.380586651302224
102.30964003775183 67.90835189967552 22.325135910262016
102.04041652220296 67.78708941226431 22.27211542299348
101.77334884762905 67.66052239631159 22.2206128513264
101.50895861211816 67.52821927710733 22.169720707789235
101.24775342892431 67.38983832542277 22.118554387026624
100.99028660563694 67.24501826995545 22.066281618623602
100.73715294173836 67.09341394391822 22.012124908393087
100.48900232677123 66.93469207093973 21.955369721393478
100.24657831207402 66.76850038858164 21.895353295055667
100.01063046902571 66.59459350285586 21.83152527936574
99.7820156587757 66.41271360609284 21.763393796814604
99.561672595159 66.22264464133335 21.690540340710218
99.35062367290526 66.0242270866859 21.61261809851174
99.14997368114196 65.8173752433384 21.5293509025335
98.9609843473412 65.60204478564607 21.440497833758563
98.78484760802114 65.37840783496065 21.34595823441378
98.62286392970954 65.14672401079383 21.24567925204868
98.4763673114742 64.90740323528294 21.13969043524262
98.34669756298211 64.66102136389617 21.028112425729727
98.23534904339056 64.40827883251984 20.91111834084039
98.14343915065668 64.15016876092697 20.78908531394838
98.07214161517604 63.88779610982215 20.66245509198804
98.0226468376008 63.622416785400425 20.531764541367814
97.9958652572046 63.355466822638235 20.39770019413891
97.99237402777818 63.08849839868148 20.261073021221886
98.01291456692157 62.82317311818565 20.122760961284325
98.05749956972852 62.561183738465814 19.983759054518035
98.1261112165821 62.30425455305622 19.845096231049723
98.21830191418906 62.05404922651479 19.707814227389516
98.33311162086596 61.812049305305926 19.572888727807165
98.4694579148017 61.579621340669 19.4412068660362
98.62553471912653 61.357664211325876 19.313407032580923
98.79976148764106 61.14701012192913 19.18998690385873
98.98991730487448 60.9478527249767 19.071059063959893
99.19403459602563 60.76025581138899 18.95653255908407
99.41021490681385 60.58406774264788 18.846072309969852
99.63654149795978 60.41881346108633 18.739074600472104
99.87140171244828 60.26404023008275 18.634811095026812
100.11338806504773 60.119295106932135 18.532441165219897
100.36131915643395 59.98423039288229 18.431061585725676
100.61416462742766 59.8585535573894 18.329743182139357
100.87108282781739 59.742157306041484 18.22758622477959
101.13137852947317 59.63513430214541 18.123744988728127
101.39446357901298 59.53777743748441 18.017453478064304
101.65982398341505 59.45058252962629 17.908047517309303
101.92698708274669 59.374243853531105 17.79498364755084
102.19548730621395 59.30964103197479 17.677853965527927
102.46483218258231 59.25782020366134 17.556399613230404
102.73446720095161 59.22001537324634 17.43050950404831
103.0037374592865 59.19754350282044 17.30025926846954
103.27186529730268 59.19173119966447 17.165925921786243
103.53792141954298 59.203956233591725 17.027969152803966
103.80080330228681 59.235552357793985 16.887046707027963
104.05916629858528 59.28795667908785 16.744002326713506
104.3115779760666 59.36198390937037 16.599914665271807
104.55640780189427 59.45840757491888 16.456003100352277
104.79181468719656 59.577851664706486 16.313657927562566
105.01612155109181 59.720034484001665 16.174330461778414
105.22744209206674 59.88473624091014 16.039585603704637
105.42423404144635 60.070888248953125 15.910907946609411
105.6050324300123 60.27722401411063 15.78976703778172
105.76871088144571 60.50204127112195 15.677493389053543
105.91458998677639 60.74328007439829 15.575194896095162
106.04213446570861 60.998909299256155 15.483918787539308
106.15156162939664 61.26654877620826 15.404272072454562
106.24310536084138 61.54409014993303 15.336860068729138
106.3175206659515 61.82940529985306 15.281946903554427
106.37583683715089 62.12055377519303 15.239584286639472
106.41914589677637 62.415855640786624 15.209759490638268
106.44871326824982 62.713837216885324 15.192291784500611
106.46597534727248 63.01324876144743 15.186783567236855
106.47229931039338 63.313087334398304 15.192808256170288
106.46902793717953 63.612557677464984 15.209844807020124
106.45740135186183 63.91104661733509 15.23733350119478
106.43863309049262 64.20811982951514 15.27453275686421
106.41377390838294 64.50349500639601 15.320641646988452
106.38370312744107 64.79701970528382 15.374784840825154
106.34912162787036 65.08865629245315 15.43599404758596
106.31053975487913 65.37846608366078 15.503207930592495
106.26826105981925 65.66658846339278 15.575285858972741
106.2224106596122 65.95323560856903 15.650977195336079
106.17293768585039 66.23866590449919 15.728954329845287
106.11962289153578 66.52315577359204 15.807831173761247
106.06211331422797 66.80697895783246 15.886158281739203
105.99995345409158 67.0903799587546 15.96242882905766
105.93261875272917 67.37354634237724 16.0350830704108
105.859540016014 67.65658048354238 16.10250059429525
105.78014124431415 67.93947099747838 16.162999160304437
105.69392223634173 68.22206620331839 16.21490278528741
105.60043115584254 68.50404865115648 16.25648530451744
105.4993179774088 68.78491259396282 16.28600391400228
105.3903590095106 69.06394214695064 16.301706762114772
105.27343526943977 69.34016621473165 16.301742047005234
105.1487531846598 69.61242428977471 16.284588293443875
105.01667567830748 69.87931521486568 16.24874366139751
104.87773474057596 70.13913098229118 16.192656591791355
104.73286736452128 70.3901423390878 16.11548625308886
104.58316644611007 70.63040440777544 16.016450355381085
104.4299830459569 70.85798976241574 15.895285605659035
104.27485730861909 71.07115551674123 15.75233194641633
104.11941999237642 71.2682596630822 15.588231917960684
103.96531664039337 71.44824657799754 15.404388754574295
103.81414325482598 71.61020399111045 15.202246961039664
103.66727408052684 71.75408656674308 14.983896700123417
103.52597870573095 71.87987928775702 14.751158945777977
103.39117088907976 71.98838790392698 14.506185014533827
103.26356511629342 72.0805829224852 14.250874800933612
103.1437366137337 72.15752977898237 13.986881769310886
103.03190488879072 72.2207590544346 13.715825624318507
102.92817839510431 72.27174466365126 13.439020032497758
102.8325133910059 72.31199385326092 13.15757269129103
102.74474714061232 72.34299158519507 12.872398599842857
102.66459662354463 72.36619697348307 12.58425280969092
102.59164158154212 72.38304191109548 12.29375956358341
102.5254200080851 72.39484017145175 12.001407431427692
102.46541528754237 72.4028150408298 11.707585053981811
102.41108023266696 72.40809344536693 11.412598969027579
102.36186450641192 72.41170290515436 11.116689126029323
102.31727035646897 72.41457336878193 10.820038653985923
102.27680946669108 72.41754847064948 10.522796873331037
102.2401107408123 72.42137286435938 10.225076754027967
102.206928494289 72.42670679660351 9.926967473657992
102.17716395841381 72.43413187914778 9.628542471489679
102.15091366657873 72.4441808488829 9.329865089618758
102.12839385684791 72.45727315827283 9.03100195363346
102.11001693914318 72.47377440197648 8.732025109972183
102.09635524204207 72.49398271172583 8.433024128096482
102.08817862075432 72.51816781431198 8.134119538499995
102.08626664859624 72.54645839370731 7.835471817630002
102.09151201564949 72.57895267480603 7.537294145969023
102.10487955245783 72.61571203570304 7.239868244038459
102.12730878334989 72.65673910765577 6.943550492761172
102.15960172210823 72.7019706326269 6.648762206953493
102.20252076450744 72.75135847771716 6.356005172804515
102.25678101556555 72.80488875060821 6.065872648827048
102.32272241085785 72.86249373662952 5.778960879897359
102.4006100436688 72.92418346519136 5.4959193510767985
102.49062563777422 72.9900531581513 5.2174547476602395
102.59258516350096 73.06019315549894 4.944200374459773
102.70619549794549 73.13476697707328 4.676777966934712
102.83107766813262 73.2140069647501 4.415800223456767
102.9667530276076 73.2981894143152 4.161852463964845
103.11254296169439 73.38754780985074 3.915389406520461
103.26779813676858 73.48234045632854 3.676864013159606
103.43186336722104 73.58280870544112 3.4467038361417823
103.60408696100907 73.6891527319024 3.2253103437607025
103.7837550497722 73.80144331985245 3.0129544267783483
103.97024024680418 73.91970680737029 2.8099218834428275
104.16295605865967 74.04388353560248 2.616461571463567
104.36139888964604 74.17386744125355 2.432855435836895
104.56503934641819 74.30939809242385 2.2592223516378627
104.77342423192727 74.45017654163455 2.0956868591847115
104.98614601420368 74.5958581419589 1.942344794876019
105.20284103109056 74.74607628014799 1.7992851027386427
105.42315891764623 74.90043240814781 1.6665340865984617
105.64674371543391 75.05849862573479 1.5440035433631385
105.87326925836051 75.21987728588894 1.4316085329267616
106.10241917001743 75.384191982796 1.3292292259053287
106.33388948770798 75.55109844630731 1.2367369163717614
106.56735217045926 75.7202466228412 1.1538183464998155
106.80250761941724 75.89133515959057 1.0801786590998383
107.03907201036682 76.06408898854818 1.0154746108797075
107.27678838538245 76.23825972777071 0.959354888822792
107.51541339466446 76.41359256195454 0.911282427707844
107.75475315584303 76.58985405835473 0.8707408801897819
107.99465885267138 76.76681333623173 0.8371722516137501
108.23503397596546 76.94423860317852 0.8100253896143452
108.47582626676959 77.121885592879 0.7886246331234832
108.71703701892599 77.29950984346355 0.7723481519852323
108.95871113419842 77.47686188240803 0.7605868779527151
109.2009337849342 77.65368431761077 0.7527879864941467
109.4438081726507 77.82972892532027 0.7483902302496952
109.68745306361363 78.00475513049535 0.7469194050931871
109.93198974606621 78.17853655845812 0.7479749982716591
110.1775363987112 78.35086043901828 0.7512408264726573
110.42418650748118 78.52155267669801 0.7564583829228447
110.67200530674458 78.69048003141054 0.7634379973810115
110.92103159612215 78.85754577957498 0.7720565309027984
111.17127602923267 79.02269216581125 0.7822426617570842
111.42271534994904 79.18591117162411 0.7939559023642129
111.67528699406552 79.34725719005716 0.8071629003919571
111.9289079945684 79.50682021953217 0.8218425170016991
112.18347368059432 79.66473121046096 0.8379665594299505
112.43886301908036 79.82115630232572 0.8554911428543961
112.69493155797406 79.97631390200937 0.874325456973905
112.95153252561498 80.1304391489517 0.8943541380751542
113.20851365315374 80.28379051984597 0.9154239628646318
113.46572028589797 80.43664343017798 0.9373483348287288
113.7229927795756 80.5892957347128 0.9598897693527252
113.98017354904576 80.74205007187774 0.9827841261358005
114.23710405588808 80.89521607633459 1.0057373771682379
114.49362074280944 81.04911310377558 1.0284263770391795
114.74955833529961 81.20405897420872 1.050505929223716
115.00474846689046 81.36036603550387 1.0716178616420697
115.25901382019643 81.51834576340292 1.0913903362130313
115.5121637924896 81.67831010500332 1.109437014609552
115.76399273353466 81.84056757808051 1.125360552404947
116.01429375502067 82.00539391397777 1.1387821712353945
116.26283763341375 82.17306358302136 1.1493127234187142
116.509378119093 82.343835142967 1.15656520238412
LINES 1 220
219 0 1 2 3 4 5 6 7 8 9 10 11 12 13 14 15 16 17 18 19 20 21 22 23 24 25 26 27 28 29 30 31 32 33 34 35 36 37 38 39 40 41 42 43 44 45 46 47 48 49 50 51 52 53 54 55 56 57 58 59 60 61 62 63 64 65 66 67 68 69 70 71 72 73 74 75 76 77 78 79 80 81 82 83 84 85 86 87 88 89 90 91 92 93 94 95 96 97 98 99 100 101 102 103 104 105 106 107 108 109 110 111 112 113 114 115 116 117 118 119 120 121 122 123 124 125 126 127 128 129 130 131 132 133 134 135 136 137 138 139 140 141 142 143 144 145 146 147 148 149 150 151 152 153 154 155 156 157 158 159 160 161 162 163 164 165 166 167 168 169 170 171 172 173 174 175 176 177 178 179 180 181 182 183 184 185 186 187 188 189 190 191 192 193 194 195 196 197 198 199 200 201 202 203 204 205 206 207 208 209 210 211 212 213 214 215 216 217 218

POINT_DATA 219
SCALARS curvature float
LOOKUP_TABLE default
0.1398737777578084
0.1380462599848181
0.13577455205693495
0.1330923825293447
0.13003156357810028
0.12660602865713008
0.12281834115504041
0.11864464372288193
0.11406448112067297
0.10906082711488788
0.10363869403462626
0.09783868280207679
0.09175941098246958
0.08555858317044056
0.07946848136817462
0.07379945840888014
0.06894906096342708
0.06537851513625757
0.06356330299644541
0.06382203719503463
0.0662483318580269
0.07066665354739758
0.07673054765214952
0.08402931761182945
0.09221175298402763
0.1010131998429284
0.11024941155074156
0.11981525725460195
0.12964483951890968
0.13971163232684716
0.1499881814318121
0.1604485142104126
0.17103914606330053
0.18169272984527296
0.19231116013147892
0.20278507325428635
0.21298593479169026
0.22280068310071313
0.23211337686270372
0.24083254973214882
0.24885320712854464
0.2560722658019541
0.26234214348829643
0.2675060610901614
0.271285895030193
0.2732703544867424
0.2729467345915126
0.2698565184392619
0.26365448324602087
0.254171600669834
0.24158638298410653
0.22631473060535479
0.20912002887561462
0.19089319109991554
0.17263421765522727
0.15534889989373005
0.13998873822902777
0.1274396227690497
0.11841236662973297
0.11335735789503633
0.11230125471572835
0.11493629305705771
0.12067700331970632
0.1289168796486563
0.1391020569135752
0.15082087372146158
0.16375353048452757
0.17764536244375445
0.19223334200728565
0.20724523256874167
0.22236387891190465
0.2372285775130286
0.2514181644367895
0.26449536170182986
0.27599768459962953
0.2854713827629682
0.2925498044512266
0.2969210735793128
0.298405639456251
0.29694383480648434
0.29258603904929764
0.2855573391815158
0.27612521212554203
0.26470281599795603
0.25168794195950356
0.2375275918387845
0.22265054641779647
0.20746843477140017
0.19229887992093916
0.17735436260818255
0.1627793131489833
0.14865383543489258
0.1349630278291925
0.12163292569516865
0.1085385340954288
0.0955873524564334
0.08276093905425076
0.0702682462059833
0.05872429953660034
0.04953271896766487
0.045069635720781584
0.04755465155864922
0.056678448595030635
0.07027183645717544
0.08643090635356014
0.10402857015497412
0.12241676525366196
0.14120865374027575
0.16015135536739386
0.1790525560595348
0.197735011529656
0.21596675494950832
0.23343434008601785
0.24974983616574814
0.26439643882962804
0.276820033500424
0.2863780189359542
0.29247260522089363
0.29462480173592864
0.2926105918198563
0.2865162102592317
0.27667177497030027
0.26368909774475985
0.24827738953712933
0.23121090673537834
0.21318678593803606
0.1947956729316303
0.17652235182960058
0.15871021500310942
0.1415965545123161
0.1253369607409295
0.11005234065161808
0.09583077653881397
0.08278115367518515
0.07107165034804322
0.0609598904346705
0.05279348055207787
0.04699954895135375
0.043870792286803524
0.043417382013084725
0.04526710989849141
0.04890748617244258
0.053895964299585895
0.05997412060808021
0.06700242607010891
0.07490178747237312
0.08355104113876129
0.09275947266706985
0.10226080706467267
0.1117377735795364
0.12082940854226763
0.12919905695394682
0.1365405530288757
0.14263495796960457
0.14737038433564095
0.15071504931073676
0.1527157273318063
0.15356676991582224
0.15350926454765595
0.1528087177134235
0.1517101960661607
0.1504170007018146
0.14905405445249906
0.14767438294864213
0.14626964150380606
0.14479761425812476
0.1432022212796367
0.14143644586178789
0.13946757947539312
0.13728599133802602
0.1348919999281017
0.13229043038263985
0.1294810353142161
0.12645608375825085
0.12320229743249399
0.11969850201417807
0.11590657923506044
0.11178063360763572
0.1072782784550718
0.10236074394288397
0.09699812790923389
0.0911750028004267
0.08491155553616198
0.07825920654383411
0.07132016807642336
0.06424555003697283
0.057248567407322266
0.05058393251067123
0.04454739725207128
0.03944027176476324
0.035504267395776244
0.03283944644988052
0.031353138169969715
0.030758693551488928
0.030672680156062775
0.030735574774720463
0.03067442800101354
0.030313779791899732
0.02954549761350136
0.028316296568699956
0.026598472733138354
0.024396021056322128
0.021720143775470414
0.01860454280855881
0.015091617384616842
0.011262642357938108
0.00732536242470679
0.0042755184421173105
0.0054244239423473905
0.00975374889256987
0.014897163843554832
0.02035712783769641
0.025993806915633935
0.03173776517519976
0.03754491472860352
0.043381098165999055
0.04921979736224739
0.05503666595894784
0.0608074097897853
SCALARS torsion float
LOOKUP_TABLE default
-0.06659479271004792
-0.07257658001889124
-0.07913872390592058
-0.08646048640503888
-0.0948522109583142
-0.10474082645300456
-0.11661798560852667
-0.13122405355234348
-0.14919574571879748
-0.17160728005195797
-0.19936531688398207
-0.23412092659649578
-0.2767904851092373
-0.3291270814072549
-0.3917932194522002
-0.4640512658193006
-0.5404260130518503
-0.6085749368554232
-0.6489896917019544
-0.6451397448344071
-0.5950201551246543
-0.5137220490993646
-0.421613440200891
-0.33369461341096135
-0.2566881618453686
-0.1929418770885555
-0.14157790040214946
-0.10152057413935706
-0.07076577053622683
-0.04795715239045727
-0.03153722404520753
-0.020204705718236262
-0.012825032079795807
-0.008177467948485551
-0.005495641499030149
-0.0037613281443372826
-0.0025630057364176046
-0.0012452206313819788
0.0003674660656014754
0.002542541034996612
0.005249316566663818
0.008332087735710534
0.01153619357918791
0.014392607405655275
0.016540932555749826
0.017601155262274293
0.016917528079984607
0.013960072162090501
0.008092299649551597
-0.0013532465804648476
-0.015110327423160215
-0.034377275786795884
-0.060115713609294345
-0.09397722856150757
-0.1368767291870813
-0.1890024514475417
-0.24709258665650455
-0.3033567724479857
-0.343585188182836
-0.35299719955905345
-0.324989699772338
-0.26742860009146485
-0.19621392091091325
-0.12672254981479003
-0.06739273217779529
-0.020941466451075436
0.013346033455250516
0.03729151675257369
0.05309371109678209
0.06238041635207668
0.06670710436326045
0.0677051456745228
0.06638802462519379
0.06396237666973591
0.06100109422314051
0.058462056824423354
0.056662128188850996
0.05616654807259147
0.05712464282076133
0.05977423659631277
0.06408530824686882
0.0700768054507098
0.07750668017396352
0.0863374855187834
0.09607849600330703
0.10661658239832875
0.11739221223759287
0.12794402012559558
0.13725569181816932
0.14421738167779652
0.14685970313989932
0.1428934138792294
0.12951664807989555
0.1029746927761929
0.05861926734031142
-0.011337852736060585
-0.11935426883783673
-0.28814736982742595
-0.5507793670991303
-0.9138416899073389
-1.2096420955771718
-1.1360315761529851
-0.8111987647181891
-0.5258631936779921
-0.34499347672479797
-0.23799099529086146
-0.174804444677932
-0.1362882050023166
-0.11245426053354196
-0.0971223750265373
-0.08719398244750651
-0.08045955656445228
-0.07590297853751764
-0.07250727901131541
-0.06998061125344447
-0.06805070120576431
-0.06673422599619243
-0.06613178259516063
-0.06648667384829188
-0.06807788322485338
-0.07122464921059377
-0.07626294136376037
-0.08327723693639673
-0.09250258341532008
-0.10363892011111114
-0.11680139907177226
-0.1315765879662919
-0.14794273065349262
-0.16575002936551492
-0.18533682221674286
-0.20834000613617656
-0.23595724300780624
-0.2713143069847336
-0.3176488866490179
-0.3801215846570691
-0.46021533071154386
-0.5514714364527108
-0.6238172384931225
-0.630027806699121
-0.5421620417682197
-0.387265509202025
-0.21895562831827184
-0.07424701566934112
0.03262170911962307
0.10311490903923556
0.14204911746239268
0.15777854743369352
0.1564480945794645
0.14441659018752806
0.1249919579745651
0.10123906230387114
0.07476791073408107
0.04675089869503487
0.018490756608350097
-0.010015844173499563
-0.03844825863286568
-0.06567019716385727
-0.09030487812657516
-0.11103810231616762
-0.12667705014904826
-0.13596110393997793
-0.13810961569237945
-0.13330209988817907
-0.12162422032355422
-0.10495864133322694
-0.08410085327062838
-0.061772489747408725
-0.038826244327827025
-0.01783439926852143
0.0006007065165209351
0.015079385919188115
0.02537590379669658
0.031291211296812546
0.033145504999139076
0.03186575045446732
0.028085689558334338
0.022831386709511767
0.01715055766424958
0.012259010266428214
0.00941526434861118
0.009910872238356341
0.014919248880831706
0.0259108427851592
0.04392494278805203
0.07120980797975357
0.10902639487989807
0.16015185092760575
0.22460448474946518
0.30080325421004844
0.3781162606775837
0.4366498592243205
0.45300319883856616
0.4151782329740708
0.33622620645564866
0.23953111946175618
0.14712182236012117
0.06738819383141796
0.0031785365436402327
-0.04783662034830327
-0.08831409029602592
-0.12176556622581858
-0.15112542575028096
-0.1841357928235165
-0.2312724664541759
-0.32093296409622035
-0.5334017810546284
-1.2260046258509754
0.0
-1.520843114745289
-0.8100909629342703
-0.3807364675385911
-0.22234147546986477
-0.14645666446461472
-0.1034773083762567
-0.07649711941974087
-0.05828321595818635
-0.04557982883610633
-0.03640734527560496
-0.0296937413251236
