# vtk DataFile Version 2.0
00002619.nii_R_ICA_labeled
ASCII
DATASET POLYDATA
POINTS 218 float
78.71222769049723 73.06931784778425 35.17129155930869
78.8784053087637 73.1886958189765 34.951990376198815
79.05410642010176 73.2884685237457 34.730326644481025
79.2381934515953 73.36864832691042 34.507517308828966
79.42961814625995 73.42921430765556 34.28469500768015
79.62738811853032 73.47011428403023 34.06293789105831
79.83054375739844 73.49124696039313 33.843293295795476
80.03813026918823 73.49245667499294 33.62679927100657
80.24917472524609 73.47347355268698 33.41451890870001
80.46262876426586 73.43405228584642 33.207530729928564
80.67735151556235 73.37403542937201 33.006907112089486
80.89210260561153 73.29325200874158 32.81374387479931
81.10551282765842 73.19159433213478 32.62914317936617
81.3160567439628 73.06901167746744 32.45421976216563
81.52215003888784 72.92599008434784 32.289838739819295
81.72211330396658 72.76305716236499 32.13680626748378
81.91417585896318 72.58090165583461 31.99580060867757
82.09676930404052 72.38084785731562 31.867000761813756
82.26828949738416 72.16414988080004 31.75048297758407
82.42734575443305 71.93236215744274 31.645930789382874
82.57285232641414 71.68724105975672 31.552643356546284
82.7037178201198 71.43037982975532 31.46982408051301
82.81931376070372 71.16356214349544 31.39626660853472
82.91917151570748 70.8884419090941 31.33064633319281
83.00282589809753 70.60650975487961 31.27158724405032
83.07027597357944 70.31928133585052 31.2175157582613
83.12160462545157 70.0281156896518 31.166879766614016
83.15692328187907 69.73425208970086 31.118145149296826
83.17669931358242 69.43887176597785 31.06978323300243
83.18158375842279 69.14304436355675 31.02035173215101
83.17229021148884 68.84773661536508 30.96848618696998
83.14979991267452 68.55381105765292 30.912931708824765
83.11535797308365 68.26199006241909 30.852599614032698
83.07025915965346 67.9728788297954 30.786506303115388
83.01592677156196 67.68696089271563 30.713789671498052
82.95398160663204 67.40454681504028 30.633822709434764
82.88599660730914 67.12585790585455 30.54606526715549
82.81351566020011 66.85105331610929 30.450041707757645
82.73808152339201 66.58019406760847 30.34546363435138
82.66112038800507 66.31332539377262 30.232107768119675
82.58393154230632 66.05051638466894 30.109777917666694
82.50768316649146 65.79188309818495 29.978301365084583
82.43341281821596 65.53763459903499 29.83747492992638
82.36201081775025 65.28806852846142 29.68711622133207
82.29422992763176 65.0436123116531 29.527008603975908
82.23071539743185 64.80486043078879 29.356864341175807
82.17202312446906 64.57258761305332 29.176342997760653
82.11864487839433 64.3477714013971 28.985059812689514
82.071035257071 64.1316131950989 28.782607629248673
82.02963750938079 63.925557365453116 28.568593210885208
81.99495383905554 63.73139380604017 28.342611644288226
81.96744578711686 63.5510518682993 28.10452978464632
81.94763264231425 63.386724306563465 27.854410652621493
81.93610348732369 63.240864058526086 27.592607126780887
81.9335117834238 63.11613975228522 27.31988412885252
81.94034075406735 63.0148005565848 27.03771895320618
81.95724550342608 62.93946342025005 26.747952486738797
81.98446838668009 62.891572511386144 26.453187052875947
82.02237825064188 62.87277762984047 26.156324117307168
82.0707916601251 62.88310690596919 25.860578540776192
82.1295658983826 62.92261609768335 25.56919771154589
82.19808402202219 62.990005910934464 25.285146608447032
82.27573586686869 63.08405088466468 25.01119032939928
82.36154197320339 63.20258609570544 24.749429438815568
82.45458336786128 63.34385405523922 24.501791200688526
82.55367832990271 63.50557881921846 24.269483200343736
82.6576242678277 63.68574997826421 24.053423774017396
82.76515872778482 63.88260401379683 23.85432988183134
82.87489568835963 64.09437714755803 23.672488287101025
82.98537971653595 64.31949346436329 23.50794318997533
83.09508158344644 64.55659364544756 23.360593556631166
83.20238339373894 64.80447429192583 23.23017758819553
83.30556024270837 65.06208314275005 23.116331902082745
83.40288687192894 65.32833688484857 23.01832488306124
83.49260453687964 65.60227032756256 22.93537066093608
83.57297175301268 65.88293843790676 22.86653232771079
83.64226125357963 66.16940311402271 22.81076738585404
83.69910944354785 66.46059871041547 22.766653844274188
83.74233032461224 66.75548211895914 22.732738690635873
83.77089797135872 67.05301131335177 22.70751863834332
83.78447194026491 67.35210483176317 22.68920884455401
83.78295162406488 67.65177833148304 22.676077984682028
83.7664546784404 67.95113677379791 22.66640702931523
83.73562321103765 68.2494128817194 22.65844961085031
83.69122851707141 68.54597833391273 22.65055399077947
83.6341307949823 68.84032100756602 22.641145018281687
83.56516386406457 69.13199859549724 22.628692600387424
83.48525849341372 69.42064295622299 22.61176011283471
83.39521907652153 69.70587929220669 22.588964370151597
83.29572603268815 69.98727980631335 22.55895660236999
83.1873419328381 70.26432199994083 22.520421306124305
83.07048144801207 70.5363237149577 22.47203468986471
82.94549489999793 70.8024439967679 22.412556577603816
82.81269083339096 71.06167844559566 22.340890570979578
82.67231132641857 71.31281136469593 22.256046323606125
82.52452985142267 71.55434013725876 22.157084589877204
82.36970964265082 71.78481373441997 22.043606785313184
82.20822908857483 72.00265040035403 21.91541382278873
82.04056022686942 72.20625999425084 21.77261817525452
81.86740497024056 72.39450531696741 21.61596127668627
81.68944634247386 72.56615520051868 21.446172411296434
81.50759568163882 72.72084694616697 21.264614683287444
81.32271053011517 72.85821141332913 21.072484651559122
81.13571706942153 72.97851728510462 20.871167935473466
80.94751383067216 73.08233838638274 20.661946284652636
80.75896560842902 73.1702732903769 20.445858874802894
80.57091130928384 73.24339440986944 20.223894831799743
80.38414548538388 73.30272803975353 19.996782140335757
80.19943507040931 73.34932810003585 19.76505870572846
80.0175458199995 73.38419325188697 19.529075447878874
79.8391987084228 73.40842908118388 19.289089182365327
79.66510735345918 73.42305958756086 19.045229476846714
79.49597764140347 73.4290657506876 18.797541490558
79.33250141752058 73.42740597119324 18.54601847651861
79.17535168190985 73.41902497500539 18.290625637084137
79.02521902668133 73.404837319553 18.031297998986645
78.88265935114867 73.38584426499798 17.76803465492603
78.74820880977353 73.36302617653404 17.50083844506183
78.62232546016438 73.33739258325869 17.229752018761975
78.50541041653003 73.30998227062449 16.954849843657886
78.39773263102272 73.28188136985474 16.676269061096875
78.29937267555057 73.25419860984849 16.3942226863394
78.21031852180717 73.22804854465926 16.10895612639657
78.13049324888068 73.20458017212101 15.820739717429745
78.05949957702332 73.18487766804441 15.529942511102348
77.99683904444295 73.16998262916111 15.236952083503496
77.9419165357854 73.16091701742157 14.94217557034003
77.89387336378688 73.1585280007356 14.646070764240179
77.85171180977984 73.16351317935336 14.349102986326509
77.81434320197661 73.17647411825982 14.05173384375805
77.78050322541836 73.19774956828297 13.754420350602913
77.74883225105627 73.22743513076885 13.457588318746184
77.71791843872889 73.26547192886773 13.161629427001813
77.68628683202378 73.31158837543398 12.866897181831183
77.65246481739015 73.36522883392472 12.573685426638704
77.61499852988361 73.42573370134825 12.282258149982392
77.57242900241053 73.49235001084276 11.99287230553148
77.52341265987162 73.56416173250273 11.705759789659808
77.4667000103188 73.64022611384591 11.421172563144976
77.40113463066055 73.71961291414365 11.139410232072029
77.32558188607909 73.80144443116457 10.86086945805972
77.23925089943111 73.88487387818805 10.585962237027639
77.14143777655983 73.96920186001644 10.315208647095432
77.03156571235745 74.05388129214644 10.049233926318825
76.90931365840976 74.13854181670402 9.788713917210895
76.77464781676852 74.2230166897095 9.534328815939256
76.62764328008394 74.3073409565199 9.286817433427167
76.46850488519141 74.39174400242312 9.046955717515281
76.29779237998343 74.47661871894911 8.815362123925983
76.11608892849492 74.56248107279868 8.59266404986442
75.92399104528971 74.64994562194853 8.37951709868418
75.72236103156813 74.73962667518332 8.176328583066027
75.51202368392808 74.83211994615178 7.983490167966173
75.29378232828643 74.9279720013095 7.801371334183205
75.06847492659908 75.02761478910631 7.630221710652206
74.83695006804841 75.13132102575375 7.470141410979308
74.59996618274332 75.23923924527361 7.321219382063285
74.35819005894236 75.3514028375379 7.18356089123262
74.11227075929943 75.46765974232066 7.057091738906942
73.86276124739848 75.58775280438553 6.941724510086527
73.61012785890046 75.71134508473743 6.83737237453983
73.3547528233393 75.83805387888276 6.744006182174075
73.09699777387986 75.96741785847456 6.661445574737381
72.83717398005291 76.09898082151938 6.589527547763
72.57556765367478 76.23231179583017 6.528083646559475
72.31245089835939 76.36703306862275 6.476988165336746
72.0481269422563 76.50281352916977 6.435905466173273
71.78290213416136 76.63941750955695 6.404486757277128
71.51709497631714 76.7767076989267 6.3823282400348305
71.25103598328712 76.91465002878337 6.3689717612030154
70.98505924006929 77.05329886942106 6.363734339903209
70.71948377512211 77.19279963492502 6.365921390745582
70.45461353544691 77.3333750209353 6.374798797952397
70.19071623778615 77.47528737477577 6.389505077186892
69.92801575740219 77.61881670894952 6.409141328809231
69.66669586659128 77.7642458239319 6.432819506903183
69.40690405452959 77.91184694832046 6.459668252177657
69.14871192772043 78.06180569386491 6.488790932657949
68.89215594503656 78.2142623546111 6.519370261510115
68.63723578967152 78.36930033520261 6.550645478906401
68.38389891375621 78.52691392436782 6.58191213222294
68.13205099431339 78.68701867032841 6.612543977258181
67.88157739355402 78.84948509889503 6.641986542338473
67.63235423556749 79.01415834719567 6.669730699238094
67.38423294296275 79.18082871998114 6.695341587423072
67.13707940504648 79.34929755720188 6.718415117955932
66.89078077787795 79.51938589615614 6.738561175832183
66.64526158123628 79.69095790910505 6.755357089536583
66.40047575297635 79.86389652688356 6.76841666349956
66.156433268808 80.03814462256112 6.777301854236392
65.91319955460658 80.21369291863927 6.781533476832036
65.67090692968232 80.3905842259321 6.780543224163468
65.42973342874264 80.56887134617119 6.773797435626505
65.18991806724769 80.74862883524375 6.760701178549097
64.95175327529563 80.92992890157318 6.740630284486682
64.7156003910139 81.11283712719788 6.712873476450849
64.48182366967143 81.29734953860043 6.6768689526852985
64.25083223673809 81.48342287400092 6.632020711913133
64.02306991740117 81.67095669604211 6.577741403610688
63.79899747159236 81.85978119530063 6.513503283280895
63.5790408897907 82.04964945164056 6.438953760743434
63.363644599402015 82.24026543419818 6.353759492018502
63.15329405808423 82.43128372185869 6.257571938908939
62.94838371340775 82.62231261654345 6.150306159340594
62.74932954969046 82.81294054784338 6.031882408980528
62.55657705148306 83.00273589464057 5.902229751236517
62.3705837013161 83.1912526808856 5.761329862895844
62.191756179822356 83.37805488374539 5.609311617015744
62.02056829401512 83.56269632739956 5.446259644155442
61.85757810685686 83.74470557647817 5.272219249730943
61.703312650681625 83.92361997439953 5.0873578302003715
61.55832064145967 84.09896941631357 4.891882416564192
61.42321010823351 84.27025529288036 4.686002085894622
61.29868376850585 84.43692416892566 4.46991356171337
61.18534185256429 84.59844925278742 4.2439909514830845
61.08379099943179 84.75428384110617 4.00866291260267
60.99463749049353 84.90386113905677 3.76442126755669
60.9184411531774 85.046616534106 3.5118525289507
LINES 1 219
218 0 1 2 3 4 5 6 7 8 9 10 11 12 13 14 15 16 17 18 19 20 21 22 23 24 25 26 27 28 29 30 31 32 33 34 35 36 37 38 39 40 41 42 43 44 45 46 47 48 49 50 51 52 53 54 55 56 57 58 59 60 61 62 63 64 65 66 67 68 69 70 71 72 73 74 75 76 77 78 79 80 81 82 83 84 85 86 87 88 89 90 91 92 93 94 95 96 97 98 99 100 101 102 103 104 105 106 107 108 109 110 111 112 113 114 115 116 117 118 119 120 121 122 123 124 125 126 127 128 129 130 131 132 133 134 135 136 137 138 139 140 141 142 143 144 145 146 147 148 149 150 151 152 153 154 155 156 157 158 159 160 161 162 163 164 165 166 167 168 169 170 171 172 173 174 175 176 177 178 179 180 181 182 183 184 185 186 187 188 189 190 191 192 193 194 195 196 197 198 199 200 201 202 203 204 205 206 207 208 209 210 211 212 213 214 215 216 217

POINT_DATA 218
SCALARS curvature float
LOOKUP_TABLE default
0.25082578358255864
0.2433789785387959
0.2372884201102491
0.23278856829137742
0.230027518633818
0.22905452671210946
0.22983690628036071
0.23224071061120502
0.23604992332997454
0.24093395259712078
0.2464785474681724
0.2521958400131453
0.25753990607988614
0.26191856852188405
0.26479484698767863
0.26571571768354124
0.26436998895729424
0.2606793042240993
0.25477979638994974
0.24701091426249372
0.2378696585060254
0.22788167822799646
0.21759536501542437
0.2074723609859629
0.19790313616484356
0.189093217097557
0.1810709456381207
0.17370151340267434
0.16673082636570521
0.15986983683260028
0.1528803345785463
0.145649092318898
0.13822993786239868
0.13086591497279745
0.12395199772291776
0.11797014245113313
0.11338579018799255
0.11056603177372958
0.1096555870177065
0.11058638264880007
0.11316770018933035
0.11717034693661042
0.12243932092239897
0.12893409638874934
0.13675421812466954
0.1460752834858836
0.1571296694831844
0.17010354338446898
0.1851195767405702
0.2021436668281822
0.2210030039162442
0.2412816620902074
0.26234473491206356
0.2832881524970662
0.30302993549089907
0.320392000340666
0.3341303959862538
0.3432908289949904
0.34734305812290117
0.3464202079049918
0.34104770897130976
0.3321462577095964
0.32068091402823135
0.3076698498278939
0.29398873609251147
0.2803241221439445
0.26715145196173495
0.2548166072565376
0.2435489971664281
0.23350301651266434
0.22478034365202107
0.2174515223992315
0.21152797682932525
0.2069002451329807
0.20332812739728293
0.2004474959054677
0.19774802511118666
0.19463866702068788
0.19058272656178055
0.1852472353863186
0.17854401112156398
0.1706221851223225
0.16193463168882205
0.15321354641526733
0.14534264645187847
0.13926045064310982
0.13582349398276247
0.1356370066150734
0.13892036441268218
0.1455416588588456
0.1550240659086051
0.16673046162364333
0.17987528424426685
0.1936220740042516
0.20707329281789927
0.21927901647245956
0.22934202815042745
0.23644016607424218
0.23993322149149834
0.2395906056839031
0.2354891089025446
0.22807306514294584
0.2178953676784363
0.20576671905601138
0.1925248431572497
0.17893075315668638
0.1656490531387852
0.15321207474268397
0.1420441277995875
0.13244790583308583
0.12460260003150203
0.11855498844308754
0.11423902862118425
0.11146705603967859
0.10997001353279257
0.10943441503543573
0.10952900709278977
0.10995886736428134
0.11049852797276043
0.11100118594508845
0.11135837755178013
0.11149420278536208
0.11137117571290779
0.11096644143101109
0.11025884108599325
0.10920950495561944
0.10776016251940905
0.10584890915248565
0.10344323290479546
0.10055597360363187
0.09732405739089994
0.09402454032646912
0.09112754921235343
0.08925508326716579
0.08906746135021021
0.09107555276249454
0.09546901395827469
0.1019929342293846
0.1100824377339578
0.11902811920178374
0.1281053426724465
0.13665173239524595
0.1441251526789008
0.15015441288279893
0.15454985697003107
0.15732699693008895
0.15864533756857227
0.15879375384741715
0.15812783021984908
0.15697707281270099
0.15558557731205755
0.15408408785642247
0.152481960713375
0.15070230497441398
0.14863981405869414
0.14621219161087817
0.1433954086305769
0.14023201525372248
0.1368310299732713
0.1333365007156956
0.12986502428149874
0.1264984982837317
0.12323874356464021
0.12001135234479296
0.11664589049177795
0.11292527448037787
0.10862873124704947
0.10357872812481118
0.09767744952492538
0.09092467964667593
0.08344916503298369
0.07547591164087523
0.06732112617193457
0.05937048376078266
0.05203471433636871
0.04570437346759898
0.04068445684828362
0.03708894971819767
0.034830315840784734
0.03365778514191251
0.03324099456003653
0.03334928886399591
0.033873721649048415
0.03485081273672032
0.03636221980112654
0.03850766241517617
0.04136001949038406
0.044972332974549535
0.049359738297436964
0.05452059650650909
0.0604268548302975
0.06701863250267205
0.07417935799917441
0.08175154818702625
0.08953849394511008
0.09731518736542445
0.10486359095353752
0.11198066147202637
0.11851236223855438
0.12434133848629034
0.1294198162918534
0.1337507166941343
0.13741715264722057
0.14055732973407667
0.14334699388028338
0.1459718256837143
0.14862022541574965
0.15145012928833718
0.15457901899214616
0.158073928774098
0.16194463304956866
0.1661487414168076
0.17060190589464494
0.1751880890127897
0.17976522033036776
0.18418269275613305
0.18828380107979825
0.191914566098186
SCALARS torsion float
LOOKUP_TABLE default
-0.003600372666661232
-0.0037642063345930056
-0.0037065816975791954
-0.0032528504474269248
-0.0020766943886822765
8.080536851643873e-05
0.0034434741240723927
0.008133666281013988
0.014178617437894165
0.02159047591269942
0.030184673356595033
0.03999137667575106
0.051006235329968744
0.06347712478465124
0.07733085097264161
0.09292457782452568
0.11026519871442159
0.129696104912482
0.1509611682703953
0.17425235415437407
0.19927061865771156
0.22560562629802097
0.2523283027717996
0.2781318429117834
0.30123764111981627
0.3207302714227217
0.3357279691014625
0.34712431319163156
0.35576874045440887
0.3647030704232894
0.37565510624086645
0.3911726955200574
0.41173649267948353
0.4368522230839521
0.4632813670758144
0.48529902791382956
0.49503790328593866
0.484782819571061
0.4518563343110242
0.3990764580670555
0.3323996443586487
0.2588444954147103
0.1865990243753809
0.12020862813692773
0.0638211845959338
0.018569688862417753
-0.014156338742338717
-0.03539190069380293
-0.04614342315426839
-0.04860560255230593
-0.04494204551096257
-0.0369825991882707
-0.026593250195619388
-0.014667547838940111
-0.0028228564520533543
0.00860704264518897
0.018583863093618817
0.026597420476122263
0.03161358547528638
0.03337329211377089
0.03149847630600702
0.025546060418218296
0.015128068853409714
0.00029689748546239583
-0.019344930996846844
-0.04354452213649842
-0.07255542642031586
-0.10574970149616243
-0.14288816211186503
-0.18260281689306193
-0.2234732905515096
-0.2628659327674907
-0.29816149163911715
-0.3264629827165971
-0.34618207856396194
-0.3563512304494954
-0.35843735263763726
-0.35449485056716695
-0.349498307375511
-0.34598344648875745
-0.34740009503858166
-0.35525836814631745
-0.37122080294848053
-0.39338093019739007
-0.41746253523329274
-0.4353382118694009
-0.43699298831042926
-0.4151520587206994
-0.36992360165654203
-0.30877869056623974
-0.24227534009986412
-0.17899504904534563
-0.12360704115842841
-0.07782010064416195
-0.04123073915773378
-0.013430674598045372
0.006864115964689244
0.020187008926259655
0.027242177291453416
0.028545080836934286
0.024092336336196535
0.01398545895905477
-0.002027051553990051
-0.02375485814400167
-0.051245219862333005
-0.08418005203554237
-0.12205270822115949
-0.1638651860806891
-0.20789958694748856
-0.2514818837280442
-0.291418812217196
-0.3241237495430483
-0.34751763242215644
-0.3607051408269795
-0.3654780692422899
-0.3643369573326025
-0.360681503301987
-0.3572700126830829
-0.355954900526209
-0.35762889016864513
-0.36217715429567815
-0.3697162504843226
-0.37914531315726896
-0.39016651658032236
-0.4019422904497915
-0.4147151358936931
-0.42894189268362104
-0.4459357629615049
-0.46735775198096696
-0.4954701502679012
-0.5318328904411007
-0.5761162037222132
-0.6237421899458857
-0.6630285053483558
-0.6782761553217322
-0.6553886976380809
-0.5939391496318148
-0.5065971585804783
-0.4100905181528249
-0.31682503826998737
-0.2316206479833122
-0.155095165509167
-0.08658057092767374
-0.02510446268281781
0.030296043143807426
0.0803101205105216
0.12409523618887593
0.16090762097772457
0.18876442582886496
0.20626851620389813
0.2123247669351577
0.20666736403666752
0.19100463954162358
0.16637789762316987
0.1362954373888517
0.10198351196499911
0.06651375095743885
0.03107093455348653
-0.0011362055001219095
-0.02938340359954789
-0.052228551639901526
-0.06760073149088944
-0.07317524072054296
-0.06904783570085972
-0.05520429880506365
-0.03328895860394972
-0.0036397829167664104
0.031804522749645237
0.07386060388931806
0.12191139916022567
0.17825827039643216
0.24400294347246462
0.3221247499661548
0.41344014092223863
0.5156903959094
0.6196832102105378
0.7071042769048694
0.7595982450879485
0.7650241470866501
0.7311120522667102
0.6781822265972928
0.6207614339846511
0.5638164689945302
0.5027763039587002
0.433528627621404
0.35443575282119205
0.27113051140082484
0.18991054620870804
0.11947820295860634
0.06304674631235341
0.023440042226868574
-0.001430172903364853
-0.013639192045573456
-0.016858090654073652
-0.013996187553813884
-0.007617857607437503
5.829629537854378e-05
0.007890307552941038
0.014886461155819175
0.02065890822239088
0.024925440144969366
0.027367516056842525
0.027803473384710637
0.026404265325764297
0.023275027141168556
0.018950187778919762
0.01369202265166711
0.008298203114051618
0.0030722201106758635
-0.0013395697920679664
-0.0048030317402604755
-0.007127973877755333
-0.008430149309510063
-0.008908836284496758
-0.008801358123243378
-0.008405406613908498
-0.00786146144526872
-0.00730801061136726
