# vtk DataFile Version 2.0
00004075.nii_R_ICA_labeled
ASCII
DATASET POLYDATA
POINTS 295 float
83.33919850858231 83.76437961829966 39.3116014167565
83.55785980446358 83.96815845357483 39.28658852188226
83.78923792288926 84.15826468039641 39.26960515476163
84.03198348904505 84.33416250560997 39.25965776976287
84.28499864287913 84.4952170444966 39.255822967974964
84.5473215108877 84.64067033690336 39.25715692631895
84.81767588155225 84.77047917889176 39.26246373524388
85.0950339820591 84.88439675471415 39.27062942023738
85.37841210773226 84.98224386111664 39.28050973970349
85.66690945889498 85.06371138396051 39.29092926541943
85.95955055158328 85.12883194428068 39.30067630272839
86.25541481821976 85.17757194894905 39.308545597806535
86.55358820352015 85.20986167427438 39.31331344562306
86.85312667633937 85.22564990653004 39.313735314713625
87.1530357357276 85.22491238664745 39.308547559796175
87.45225116459939 85.20766889988272 39.29647608088872
87.74962089066833 85.17399193317287 39.27624384994973
88.04390102564986 85.12407617486716 39.246614307131644
88.33376939314145 85.05827325001074 39.20643646965191
88.61781992957938 84.97704520298332 39.154634566850014
88.89459172120729 84.88102691660403 39.090269527813284
89.16258020585677 84.7710061670579 39.01254544981849
89.42036202585179 84.64803580108031 38.920958766262395
89.66659798846177 84.51331264242512 38.81523573158794
89.90010561038974 84.36817171903391 38.69537077100828
90.11990591317766 84.21403732288529 38.56161660106832
90.32525032163804 84.0523661158821 38.414452632239374
90.51562898977939 83.88459055302667 38.25454442137003
90.69076346156521 83.71206717938064 38.08270208713491
90.8505853665226 83.53603466988847 37.899838147671794
90.99519965679683 83.35758606123414 37.70692193700156
91.12470900914954 83.17765011394765 37.50486646697155
91.23953020258288 82.99701817344005 37.29471328346702
91.34002588245511 82.81630790291025 37.07740842579807
91.42656958596123 82.63598751115765 36.8538608334493
91.49952094621663 82.45638815877956 36.624941978510726
91.55909820790224 82.27772716394409 36.3914579358639
91.60558080949077 82.10010462527796 36.15423725384172
91.63929017248019 81.92351292204025 35.91410605240435
91.66037976838895 81.74786933633519 35.67184670001778
91.668924318257 81.57302013551262 35.4282453979199
91.66480845261997 81.39875239587055 35.184112834210985
91.64818333795999 81.22478880106885 34.940297875177876
91.6189883370804 81.05082798186166 34.697666569615166
91.57714399665227 80.87655024927159 34.45712434465174
91.52257593576515 80.70163757571353 34.219612519635355
91.45524508748827 80.52579690007475 33.9860950881501
91.37518299544713 80.34878551781206 33.75753303761195
91.28252718130845 80.17043569850259 33.53484564697024
91.17754998746103 79.99067546071139 33.318860696392896
91.06067590149671 79.80954249593363 33.1102579731103
90.93248299573735 79.62718653994985 32.90951562485262
90.79368754513915 79.44386169757121 32.71686628063834
90.64511373274274 79.25991285256129 32.53226825101101
90.48764574277583 79.0757598242431 32.35540276118392
90.32217474242897 78.89188390377184 32.18569505363417
90.14961931803967 78.70880240782665 32.02229689230466
89.97082472460075 78.52705013783752 31.864204585397623
89.78656418360664 78.34717273136467 31.710295435309988
89.59753080148533 78.16973053028818 31.559373079937565
89.40433895965597 77.99530847660309 31.41020358845992
89.20747695112557 77.82460432758656 31.26153234391122
89.00749926858684 77.6582402010666 31.11210391720367
88.80485880615515 77.49692968697323 30.960737280795183
88.59996661795944 77.34151870442415 30.8062648857559
88.39325738807358 77.19292524515991 30.64756939936734
88.18520432743763 77.05203492419477 30.483696804964413
87.97628836640106 76.91991535287762 30.313733529719727
87.76705330663692 76.79794619579832 30.136730317460266
87.5581319740883 76.68724063820933 29.95213152570216
87.35023815316596 76.58921077913107 29.759397183306668
87.1442071323059 76.50539021248616 29.558154953686547
86.9410193642192 76.43744148393044 29.348231028001077
86.74182042986045 76.38713477975466 29.12970430658792
86.54785981465263 76.35607023916755 28.90305124174933
86.36056207030744 76.34594268782978 28.669026862942736
86.18149620840363 76.35835472472891 28.428764757078504
86.01236075057712 76.39475465981516 28.183799514348905
85.85500395779327 76.45645133438316 27.936081850269296
85.71114251959982 76.54405867522847 27.687990329203025
85.58247016600168 76.65782553842332 27.442199772178938
85.4705215682027 76.79744001500528 27.20160606983099
85.37666624598779 76.96209167525086 26.969243373876896
85.3020469860998 77.15044234890696 26.748189488421485
85.24710978789929 77.36022395050531 26.541118982959713
85.21211623383941 77.58900319954009 26.350478479599573
85.196980116688 77.83405624893359 26.178323974194413
85.20143045339775 78.09256797170116 26.026424740684693
85.22455875036788 78.36145067428258 25.895702911747
85.26547577052752 78.63786633110077 25.786873325277817
85.32315020099698 78.91912185534322 25.700288698057587
85.39645502127989 79.20271580737722 25.635997336695127
85.48420383138041 79.48636503652786 25.593805632813222
85.58517484012357 79.76801470924049 25.573331489992178
85.69812747507596 80.04583809390417 25.574050209827906
85.82181224698529 80.3182307651501 25.595331534795587
85.95497150042499 80.58380570662906 25.636462817593227
86.09633354339603 80.8413951478324 25.69665885531138
86.24464801224111 81.08999007144158 25.775188431510095
86.39858269566821 81.32887703801549 25.871111578153855
86.55679739025996 81.55762980280947 25.98338440171662
86.71799676967062 81.77601424750398 26.111022267628464
86.88090706685651 81.98402623280194 26.253029083276516
87.04426559134062 82.18170297418047 26.40864234495344
87.20683028422877 82.36969247900514 26.57660257515124
87.36744129129 82.54865094220469 26.755933701492854
87.5249284803462 82.71929800740676 26.9458347477101
87.67821364452067 82.8826933312014 27.145313136335
87.82631609190337 83.04002248492164 27.353402621635436
87.96814967708305 83.19244367197403 27.56936762347763
88.10277624618004 83.34134164841157 27.792291060265445
88.22933914017347 83.48814200975798 28.021248991678142
88.34678958963038 83.63429872295262 28.255415516682937
88.45426174883488 83.78135678898161 28.493768393055422
88.55094017470344 83.93084291342295 28.735209227050746
88.63592047217136 84.08430070906932 28.97854989095717
88.70815055559581 84.24336130405877 29.222404465622272
88.76700690338711 84.40943956573882 29.465160672790176
88.81174366647389 84.58393536078094 29.704995612379157
88.84172526804774 84.76811391298473 29.93982456148826
88.85647077410178 84.96304388471978 30.167297859561256
88.85570063027487 85.16953233610916 30.384816746130866
88.83938420179912 85.38805738157271 30.589574763965715
88.80778047772351 85.61870235246936 30.778630675793984
88.76146569856039 85.86110399771137 30.94900818205012
88.70133526432731 86.11443346814815 31.097795662254235
88.6284854882514 86.37747266304801 31.222003961703308
88.54442431477207 86.64843602233516 31.319101039900637
88.45089446519086 86.92511415134649 31.386995697809454
88.34973223485291 87.20496801981407 31.423823659121307
88.2428568361634 87.48508486202427 31.42780201448948
88.13240206515007 87.76229538239912 31.398636637880067
88.02038854752976 88.03324676338401 31.33590994389734
87.90883047257834 88.29443615227711 31.23984236277218
87.79959614143637 88.54265666212929 31.11198084098565
87.69442809364702 88.77460853098907 30.9537556655528
87.594761612269 88.98767919952053 30.767835747118077
87.50170116579494 89.17989141049034 30.55735908744042
87.4161096169599 89.34968883837524 30.325496038559056
87.33849734401815 89.4963303798186 30.075700579120994
87.268992406178 89.61999149993886 29.81148758048746
87.20752037047141 89.72128912075995 29.535986990909816
87.15380107984124 89.8013375353959 29.251986002891712
87.10741387136999 89.8616009145553 28.96185573736808
87.067854221706 89.9037594328671 28.667534222135505
87.03457800512184 89.92960200269638 28.37054836588475
87.00708650602452 89.94082064105488 28.072051722455754
86.9848272578969 89.93926860885132 27.772907667273618
86.96725720878533 89.92678650952762 27.473702280491437
86.95391054602823 89.90504321333493 27.1748017110465
86.94443115768331 89.87550946387154 26.876418143813144
86.93832966185434 89.83992924328376 26.578604278911634
86.9352492343737 89.7997719581244 26.28132345771679
86.93490926703396 89.7564357261955 25.984471961000427
86.93693124873727 89.71142059462832 25.687876318593876
86.94102746100188 89.66609027716436 25.39134969593019
86.94694439774169 89.62182539447663 25.094693136928058
86.95438444397126 89.57995693361364 24.79772407403107
86.9630758600384 89.5417519248918 24.50029687001887
86.97275276797227 89.5084241662763 24.202315656843624
86.98314377631088 89.48110052906645 23.903749396777343
86.99396906084306 89.46082226632036 23.604638933117965
87.00493322112546 89.44841545491305 23.305105698034897
87.01573178929313 89.44452078266099 23.005336720880074
87.02604770080097 89.44960022474808 22.705569775586422
87.0355496075367 89.46390840836617 22.406075216062522
87.04389097010277 89.48749419205193 22.10713371117608
87.05070947958151 89.52021714988386 21.809014990823517
87.05562806740375 89.56178195268662 21.511961815038834
87.05825582623915 89.61178113485721 21.2161813774102
87.05818790964427 89.66973500265671 20.921843521860662
87.05500438286158 89.73512488555177 20.62908419613685
87.04826852470774 89.80742176550277 20.338013130459345
87.03752691735717 89.88610988375677 20.048724368913547
87.02225896729102 89.97076078087831 19.761328554353568
87.00201499066878 90.06087317581924 19.475908436307055
86.9762947024915 90.15605112148931 19.192582056790712
86.9445848781524 90.25594610386916 18.911496126906943
86.90636237340794 90.36025527163159 18.632834560176267
86.86108253945787 90.46872680294246 18.356832279791206
86.80814770014872 90.58116719701991 18.08379780078113
86.74711069360323 90.69734062850884 17.814039654374042
86.67746357180478 90.81707456020416 17.54795127309108
86.59872044816132 90.94020754351494 17.285984061458084
86.51043000455391 91.06658128494493 17.02864576688739
86.41218839045182 91.19603323656435 16.776496508942355
86.30356586798194 91.32840963062479 16.530193632709633
86.18438541639664 91.46348412906762 16.290326319066594
86.0544602885312 91.60102963536943 16.057550813378423
85.91369400699803 91.7407855183908 15.83252730862405
85.76208656601342 91.88245520930168 15.615902307862358
85.59973744736062 92.02570608422627 15.40828985429178
85.42684483308982 92.17017154706446 15.210252681563377
85.2436995408697 92.31545603896213 15.022286419263693
85.05067299931476 92.46114361401237 14.84481081227684
84.84820287258883 92.60680734736582 14.678165734599073
84.63677645547595 92.75201890420487 14.522614015262409
84.41688641152622 92.89635240723766 14.378390520939403
84.18913955323677 93.03940991080566 14.245538401624255
83.95411347467616 93.18081960068443 14.124090230249928
83.71239130258067 93.32024606661741 14.014024721460073
83.46455430722285 93.45739656271599 13.915278658475264
83.2111774694197 93.59202604401646 13.827756829688198
82.952826808178 93.72394116744701 13.751340823349441
82.69005767779579 93.85300273296305 13.685896639724731
82.42340734538718 93.97912130018915 13.631302569896816
82.15339752246452 94.10225450470239 13.587461427093325
81.88057520509344 94.22244929806548 13.554143954001743
81.6054473434763 94.33978137763563 13.53119179533058
81.3285074833012 94.45437238497955 13.518440038362764
81.05023538970393 94.56638718531265 13.5157123449758
80.77109569486467 94.67603049480634 13.522815044908485
80.49153497732675 94.78354141614136 13.539531044738839
80.21198102134805 94.8891757185476 13.565680766035904
79.93283615838914 94.99323820396512 13.600922621997597
79.65446776992188 95.09604100789085 13.64491868780578
79.37720789955259 95.19790850505754 13.697296624618016
79.10134833287866 95.29917619661686 13.757632943438098
78.8271360508334 95.40018694937203 13.825451584277083
78.55476993604113 95.50128807203136 13.900225043469318
78.28440580490947 95.60283202469014 13.981395668621591
78.01615209142773 95.70517777173387 14.06835742979298
77.75004638739372 95.80867445170622 14.160409344562224
77.48609341276479 95.91367357869842 14.256855034818258
77.22425651886245 96.02052612690358 14.356965711578583
76.9644644708196 96.12958313789042 14.45998610538187
76.70661943852005 96.24119642329804 14.565139529113686
76.45062231775802 96.35575207958662 14.671635361856707
76.19632814151984 96.4735820635922 14.778636571864183
75.94360584068254 96.59503534674633 14.885308543472693
75.6923341762399 96.72046147925802 14.99080155457302
75.4424090067048 96.85020371879095 15.094251062290144
75.19375229060225 96.98459441200201 15.194779299911279
74.94632742643532 97.12397946379022 15.291469510226317
74.70012981885294 97.26863730107853 15.383425555172066
74.45520325222597 97.41880270404661 15.469767595385782
74.21164921928477 97.57468082286633 15.549614939914973
73.96962468307 97.73641813299768 15.622112606104917
73.72934124864621 97.9040933644714 15.686442574891418
73.49106145357376 98.07770944117915 15.741836981973055
73.25509143245546 98.25718570496578 15.787595905768013
73.02176947585636 98.44235213560202 15.823108086963687
72.79145153067289 98.63294896580311 15.847868227629078
72.5644958709414 98.82863322965737 15.861485100773404
72.34125670730855 99.02899840394798 15.863658789289323
72.1220556004986 99.2335666229973 15.854226627342383
71.90716608235824 99.44180793800527 15.833160236553873
71.69682199172334 99.65317181370182 15.800508038619157
71.491205549321 99.86709282091918 15.756403805034765
71.2904465636251 100.08300387058478 15.701049996095612
71.09462545303163 100.30034720015401 15.634699738308772
70.90377971819105 100.51858277544574 15.557638540655573
70.71791194421284 100.73719348944731 15.47016830608105
70.53700599952823 100.95568675068033 15.372579318368414
70.36105640729714 101.17358660412219 15.265101062141177
70.18996505805683 101.39045380663123 15.14811343619284
70.02367398674374 101.60587184683102 15.021891128884437
69.86212903325476 101.81944537304591 14.886688685724483
69.70528514055906 102.03079746423562 14.742740054318245
69.55312748163554 102.23955625552335 14.590229318167971
69.40566011272313 102.44535654191414 14.429322012542787
69.26284516562289 102.64788656582841 14.26027644797234
69.12470089447555 102.84682533282457 14.083272977727516
68.99126165851543 103.04186400856831 13.898490072898014
68.86257521444803 103.23270634101229 13.706109490323058
68.73869942666562 103.4190700821813 13.506321233090324
68.61974168658527 103.60064630715611 13.299267719245805
68.50572331218017 103.77723384427591 13.085239581079884
68.39670746634091 103.94861591488602 12.864480027386309
68.29275018069771 104.11460512308481 12.637254515879189
68.19389584834059 104.27504720487957 12.403850846483508
68.10017344304926 104.4298252166799 12.164578331226863
68.01159320696894 104.57886408487512 11.919766291238178
67.92814386784056 104.7221340095309 11.669761133406311
67.84979071976018 104.85965146487426 11.414921655531343
67.77649739508799 104.9914527516926 11.15559472274229
67.70816530500265 105.11765992178672 10.892162426171684
67.64467779672313 105.23842732038352 10.624994222897248
67.58590387726326 105.35393341070086 10.354441894517358
67.53169062118327 105.46438434134578 10.080842669740212
67.48186439215509 105.57000724736054 9.804515538909179
67.43623295061565 105.67104367688546 9.52575844652554
67.39458848956009 105.76774333480874 9.244846327457223
67.35671057992283 105.86035841668873 8.96203010829
67.32238570767007 105.9491208314787 8.677529188582769
67.29136433419094 106.0342875957625 8.391553230541781
67.26338994524036 106.11611000684309 8.104289112379128
67.23821277274064 106.19482127879466 7.8158986997261275
67.2155810607771 106.27064882701623 7.526525881413383
67.19524210818979 106.34381539187356 7.2362986037647845
67.17694255938373 106.41454054991937 6.945330898679764
67.1604282348044 106.48304231575055 6.653724795092068
67.14544336169054 106.54953861603421 6.3615720859915035
67.13172943278494 106.61424882589998 6.068956008089772
67.1190236639425 106.677395243723 5.77595283863122
LINES 1 296
295 0 1 2 3 4 5 6 7 8 9 10 11 12 13 14 15 16 17 18 19 20 21 22 23 24 25 26 27 28 29 30 31 32 33 34 35 36 37 38 39 40 41 42 43 44 45 46 47 48 49 50 51 52 53 54 55 56 57 58 59 60 61 62 63 64 65 66 67 68 69 70 71 72 73 74 75 76 77 78 79 80 81 82 83 84 85 86 87 88 89 90 91 92 93 94 95 96 97 98 99 100 101 102 103 104 105 106 107 108 109 110 111 112 113 114 115 116 117 118 119 120 121 122 123 124 125 126 127 128 129 130 131 132 133 134 135 136 137 138 139 140 141 142 143 144 145 146 147 148 149 150 151 152 153 154 155 156 157 158 159 160 161 162 163 164 165 166 167 168 169 170 171 172 173 174 175 176 177 178 179 180 181 182 183 184 185 186 187 188 189 190 191 192 193 194 195 196 197 198 199 200 201 202 203 204 205 206 207 208 209 210 211 212 213 214 215 216 217 218 219 220 221 222 223 224 225 226 227 228 229 230 231 232 233 234 235 236 237 238 239 240 241 242 243 244 245 246 247 248 249 250 251 252 253 254 255 256 257 258 259 260 261 262 263 264 265 266 267 268 269 270 271 272 273 274 275 276 277 278 279 280 281 282 283 284 285 286 287 288 289 290 291 292 293 294

POINT_DATA 295
SCALARS curvature float
LOOKUP_TABLE default
0.23123899533151587
0.2261495038504457
0.22027239343888053
0.21402206822453418
0.2077847448931928
0.2019401782212342
0.1968064845779907
0.19264611102095527
0.1896685036407059
0.18802036384362125
0.18774826787252213
0.18885802849650155
0.19133426377507354
0.1951082802667291
0.2000177964467077
0.20579535646402736
0.21211899758514371
0.21868275321003663
0.22514111503611473
0.23108928464357498
0.23608016244971097
0.23967944095480143
0.2415597229279223
0.2414802825268745
0.23939933224721174
0.23547491703446666
0.22993942531658873
0.22303437794212352
0.2150181099247111
0.20625703867908643
0.19718056925924135
0.18815179609616503
0.17941983481109589
0.17117323824789982
0.1635920168076418
0.1568591168242098
0.15113835698000078
0.14654405921282773
0.14315571174670194
0.14103736674370293
0.14020083629365795
0.1406042282740724
0.1421015802718309
0.14450071427517658
0.1475368770829935
0.15083150759989178
0.15390393056656496
0.15622705477737067
0.15729616996372386
0.15665189225992524
0.15396293792950705
0.1490513372312317
0.14190037546176013
0.1326637749135987
0.12166067652019104
0.10947344339080017
0.09684610445730456
0.08459517710435084
0.07368871723832496
0.06540601231731777
0.06124700405036529
0.062337002370056994
0.06837960468175831
0.07823824561135226
0.09073276364814462
0.10496737069062907
0.12032925873808664
0.13645756608778528
0.15319704269753548
0.17048564216407155
0.18826934767085476
0.20640577334706212
0.22469471811097683
0.2429710304125494
0.261132178295977
0.27897824183911835
0.2961762303258305
0.3122804351345642
0.32679226033162684
0.3392133005268204
0.3490198336814006
0.35594389973290946
0.3598667581213534
0.36067331381769296
0.3583299690551045
0.35304711111250137
0.34552798485343095
0.33649008320936624
0.32651650369941365
0.31602475494200816
0.30539248698807153
0.29495612556435247
0.2848747023394062
0.27523780841653667
0.26606795928388477
0.2572518952703208
0.24852803579931615
0.23959632349141152
0.2302817886509249
0.220531007858707
0.2103114280733601
0.19955408199354233
0.18824424835698897
0.17649337602236578
0.16456790225339393
0.15280731892932384
0.1416706081728819
0.13172380503259828
0.123599766847794
0.11800735719973779
0.11555981461236561
0.11669979207118603
0.12168446985062827
0.13030284938969594
0.14202308270266836
0.15621135959184576
0.17227079406623838
0.1896682320194631
0.20792511324161775
0.22660615462195202
0.24533578585800125
0.26372181408022616
0.2813149274632033
0.29763973717085046
0.31250603355247303
0.3260909357112998
0.33852444039386015
0.3497025499579545
0.3594523717803024
0.36785922610188126
0.37499145743294643
0.38067153836008294
0.38450962622943885
0.385925249976649
0.3842656927156776
0.3787333194247202
0.36916716480044065
0.35590788842796517
0.3393132878905502
0.3197218263822984
0.29768371123316034
0.27415007258189844
0.25000841415406033
0.22587946058326497
0.20215252139258086
0.17907328898510805
0.15685384117315268
0.13560629230359622
0.11536295506449068
0.0961645782499981
0.07814498545981721
0.06151559005394195
0.04682648553144479
0.035497762498078816
0.030123069758957607
0.03268903348179258
0.04103298043164572
0.05164680693659042
0.06262757085728841
0.07304531824639829
0.08236425241331671
0.09019751112021726
0.0963567232294061
0.10075843752111886
0.10337891870371696
0.10426249428516493
0.10356395894587181
0.10162253831149314
0.09886367345553246
0.09569498152207248
0.09247700414007852
0.08956714107607429
0.08729343148075859
0.08593129855540316
0.0856748841415408
0.08657422671953126
0.08861727856481481
0.09171563272265695
0.09573052746681629
0.10050446009474161
0.10587033035916879
0.11165609259703188
0.11769713192054344
0.123824585353012
0.12987293555158436
0.13569901156496508
0.1411629360548631
0.14613672893361204
0.15050783879941654
0.1541711732570075
0.15703549137920106
0.15902578730540673
0.1601106043001223
0.16035056886399754
0.15983479224580274
0.15863788321067618
0.15681845395237076
0.15445158960859995
0.1516776482607047
0.1486348703853803
0.14542634663703033
0.14211855931648537
0.1387626392971534
0.13540252136710626
0.1320694430965178
0.12878111554531194
0.12554885572797278
0.1223780023397699
0.119247316500904
0.11611380369176454
0.11292952283857471
0.10965416180684981
0.10625018069820405
0.10266376310831542
0.09882975370278745
0.09468808932968989
0.09020084773847929
0.08534737183685115
0.08013661985094296
0.07462004131453659
0.06887498051835733
0.0630059985565653
0.05716503873120056
0.05159803173508554
0.046703034977189556
0.043004192952659635
0.04108043064097493
0.04142225312336681
0.04414326153283703
0.048975696620672464
0.055438966252401925
0.06304571864652649
0.07139445365062458
0.0801740959122302
0.08909885259402256
0.097904313632305
0.10637007344597887
0.11434455052315401
0.12168629132488937
0.1282200110965487
0.13374921015813884
0.13812168875259148
0.141307931749753
0.14332449620004423
0.1442128448569731
0.14404477537746307
0.1429243688578022
0.14100134943152753
0.13844076346431233
0.13542588328915112
0.13215441237672423
0.128805512187245
0.1255175149028398
0.12240110990589548
0.11955278513625377
0.11705021712650422
0.11495157173289985
0.1132764285042952
0.11201561152754079
0.11114333130505853
0.11060754169208205
0.11034029259212995
0.11026772583347265
0.11031210064874769
0.11039648235393078
0.11043440084443898
0.11033246501903918
0.11001129721976469
0.10941788035472583
0.10851071961232998
0.10724666912248067
0.10558237745924504
0.10348910430652414
0.10096955196267121
0.0980404699809889
0.0947329655751861
0.09109455556102726
0.08717611434010647
0.0830321079482319
0.07871705503522283
0.07428850457198234
0.06980860521291254
0.06533583721310372
0.06091203125390542
0.056572657155973226
0.0523497285491623
0.048269608192029016
0.04436376812281273
0.04066606475454335
0.0372199727594504
0.03408992649896958
0.03136899316615526
0.029184059598830435
0.027693752973205612
0.0270670879993314
SCALARS torsion float
LOOKUP_TABLE default
0.11424615004024789
0.127777034189294
0.14214754617074396
0.15705369915072695
0.17216066048230813
0.1870453825063163
0.20103926803032934
0.21357937107025698
0.22392585630354853
0.23124385640223974
0.2354455588998824
0.23654232750826504
0.23470416359730972
0.23019608765743496
0.22295632456920045
0.21388590646872907
0.20374708920145257
0.19289981170798265
0.18169023363676637
0.1702669305568005
0.15892629931081792
0.147662247286272
0.13628448263250117
0.12495021492536139
0.11423679163272622
0.1038995356255582
0.09306649031196282
0.08103128241596325
0.06780388386401473
0.05425440245709655
0.04001275183868891
0.024262448543166205
0.006217621082477317
-0.014516788775686705
-0.0370933252154022
-0.06140201986237612
-0.08700905664937864
-0.11255051417905215
-0.1372371915353508
-0.15948333400474096
-0.1778316973500152
-0.1912278533928676
-0.19816205247829086
-0.19845492796715272
-0.19242813788731744
-0.18071106499436917
-0.16425569842024365
-0.14409130846147178
-0.12053441498672889
-0.09395960750226741
-0.06502077313197306
-0.03249159755191562
0.005745144139383084
0.0529847709112108
0.11227555338480814
0.1850818369956304
0.2790431081926278
0.404927309611128
0.5684140523307867
0.7460941742181346
0.8541035834982749
0.8087563445506128
0.6484427041190417
0.4709312300895635
0.3279418435659905
0.2252843894560839
0.15330342977487535
0.10260709210208444
0.06748847644050225
0.04231263795295995
0.023453887891533465
0.008488254259846699
-0.003916331900730965
-0.01369050920370683
-0.021208650656326544
-0.027088624137128595
-0.03192523289554559
-0.03593449489281096
-0.03869459483964705
-0.04007588156982347
-0.04026482359586472
-0.039420430368136083
-0.03748640738034071
-0.0345119265744042
-0.03058730747974678
-0.026473198614743725
-0.022518867085659
-0.018812122138783725
-0.015732448152342586
-0.013326125084767632
-0.012338253136778629
-0.01297390626461516
-0.015223484735124047
-0.019095533343930795
-0.024693332474672886
-0.03253620060218087
-0.04300415595639574
-0.05600459927383416
-0.07097072318521368
-0.08840357009331541
-0.10907006298688127
-0.1341893743063727
-0.165075474517199
-0.20174875061130387
-0.24572978892558084
-0.29851834669894917
-0.36067085061204407
-0.4311975294283719
-0.5037880799752189
-0.5673692562699623
-0.6083484163049884
-0.6149127544360268
-0.5850668234377362
-0.5303865591095488
-0.4671165504165197
-0.4074072561761708
-0.35627274945108
-0.3138032229290586
-0.2795944764934294
-0.25262676728326555
-0.23133071319957813
-0.2137490288946989
-0.19796858921990904
-0.18358550188696693
-0.170582387448932
-0.1578124851272687
-0.14415844955351956
-0.12913229171989327
-0.11302788424803367
-0.09682401333193785
-0.08023528101656953
-0.06413573351112799
-0.04870122660997457
-0.03442152447505393
-0.021696157472640643
-0.010856486878429092
-0.002824013257505401
0.0026443394565137746
0.006016601260347689
0.007506074124938788
0.0072639951579788605
0.005244549561130901
0.0013932814427169995
-0.0038900265246678794
-0.011142538842830256
-0.020850321987697536
-0.03404281951363075
-0.05289468723253904
-0.08006361869539864
-0.12156343195231163
-0.19056433195344463
-0.31283015079849974
-0.5404130655389306
-0.937308687616178
-1.2787549084824972
-1.0611079513913244
-0.6548369332518554
-0.39932045042312114
-0.2611880281620078
-0.18612588222588825
-0.14404336682748917
-0.12112997018633966
-0.1103060228989236
-0.10785907518114135
-0.11243671958956221
-0.1234657671040481
-0.13980528333201228
-0.15970529954240917
-0.18231329679106742
-0.20681451180216798
-0.2318437681309796
-0.25430040453764147
-0.26976720524061754
-0.27512182608389946
-0.26943403990510845
-0.25351895023652726
-0.22920458923627998
-0.19940986129164226
-0.16717598858408253
-0.13638862152096587
-0.10957055564052624
-0.08682794646218463
-0.06760074322931067
-0.05145604801426791
-0.038470084482507126
-0.029054100610690813
-0.022693185284956424
-0.018589279953683986
-0.01631295541684192
-0.01563095063747931
-0.016261616812293406
-0.018140160836658918
-0.020556293652331227
-0.02300937343846988
-0.025392691680419084
-0.027145293942252593
-0.028198044898457977
-0.02810746934966353
-0.02634435377052258
-0.02276570446002575
-0.017363394564035267
-0.00998613421426107
-0.0006857533684113391
0.010333642497275187
0.02318947694881727
0.036637724898806616
0.05021158656883863
0.0638590840840894
0.07737716524634934
0.09082212865717283
0.10351382907894331
0.11490791275651231
0.12511833363198965
0.13498088579442102
0.14497199485474577
0.15578106763304742
0.1682848831930544
0.18348579611936844
0.2036299855423817
0.23081349518198982
0.2677773719699862
0.3187305807237781
0.38872199656138506
0.48222501008805846
0.5974579074473757
0.717014450434341
0.8009945630251034
0.8039885007006954
0.7207782538340559
0.5924920371401904
0.4643771287939088
0.35826173143377615
0.2769118033232892
0.21602403035642298
0.1704065625405655
0.13599925899945
0.11054456324379444
0.09180827936926939
0.07785584009528775
0.06745463996571589
0.05986405677165132
0.05476550715418516
0.05182801658757946
0.05065045789676411
0.0507885539970376
0.05209824937508083
0.054367724146678245
0.057374028596700564
0.0610304817896789
0.06490664519948197
0.06877003405935404
0.07237125924443229
0.0754152977351791
0.07769933236984887
0.0789849135799552
0.07902358111040855
0.07765175540857291
0.0749797989682252
0.0709659331919335
0.06585036592005404
0.05992906450021261
0.053369961454438244
0.04688105730634402
0.04069908029746958
0.0347878305016934
0.029005138709631315
0.02338340735539732
0.018202312328619782
0.013568549715498531
0.00933360797139575
0.005049114883793816
0.0006155404251135604
-0.0037300147881169587
-0.007802352618012959
-0.011608741781149352
-0.014948791613240411
-0.01776834442933585
-0.019768017579584123
-0.020507234447499238
-0.019788739670539127
-0.017953081063268383
-0.014862701314734588
-0.010367165405366748
-0.004538067577833362
0.002995494409523801
0.011327608336480386
0.01997146188432182
0.029039041890364936
0.03896396073701005
0.04981154947696487
0.06200754959057575
0.07564515934382393
0.08976841221273675
0.10273562310278371
0.111371342817243
