# vtk DataFile Version 2.0
00000251.nii_R_ICA_labeled
ASCII
DATASET POLYDATA
POINTS 250 float
84.70774652885618 83.41971165211855 35.24089327154524
84.88386619340139 83.60339247328055 35.08216009739989
85.07673713567065 83.77226369704263 34.926466736496465
85.28481340142602 83.92530678304067 34.77401151241961
85.5059095876757 84.0623925227746 34.624724236243516
85.73839675313123 84.18299374841722 34.47853422526591
85.98040768329207 84.28716414228408 34.33519094988525
86.23037732806793 84.37475020570288 34.194425275458116
86.48676989423353 84.44576845091754 34.05589211518656
86.74815709504188 84.50025967257761 33.919211251655625
87.01321662327867 84.53811246930837 33.783988366148435
87.28063214393127 84.55946098252412 33.64979089801695
87.54915726299569 84.56403192048614 33.516190907879384
87.81752522734459 84.55204916669344 33.382733162781996
88.08443471141433 84.5231101983146 33.24895206368347
88.34859817887042 84.47748195321077 33.114381149905725
88.6086304328736 84.41501683078937 32.978532244490886
88.86310637910462 84.33580319935506 32.84091446367473
89.11062660966017 84.24016856751571 32.7010629358275
89.34963895478592 84.1282949360345 32.55848708986612
89.5786895766152 84.0007536130486 32.41275799407714
89.7964087066614 83.85831290751561 32.26350728823343
90.00147490122978 83.70185149862573 32.11041844985358
90.1925575478347 83.53231602680782 31.95321274523383
90.36882905106593 83.35110186731042 31.79179274128872
90.52956618359657 83.15957915463413 31.62611209111025
90.67431760655738 82.95919918775604 31.456212790510797
90.80274246281097 82.75137797590352 31.282171564911685
90.91510721023559 82.53765765650513 31.104207548635706
91.01179442003134 82.31942652481641 30.92254014927667
91.09324528794052 82.09793798191514 30.737369492876212
91.16019008931684 81.87435998629849 30.548921986863395
91.21354046863779 81.64971601052966 30.357420669137042
91.25392571677305 81.42488557301643 30.16298201832998
91.28236786045015 81.20063896325969 29.965772196376733
91.2995474325066 80.97765308138875 29.765844591553414
91.30623424522896 80.75652345333296 29.563244788074318
91.30304569473417 80.53780313726361 29.35795979170645
91.29051866095736 80.32202077944713 29.14994041105643
91.2690840383968 80.1097029776617 28.939101466777004
91.23906421730814 79.9014011054242 28.725325164380163
91.20066903035111 79.69771286523317 28.508466094963246
91.15402941989744 79.49928898774904 28.288368643875472
91.09916724879287 79.30686978856552 28.064863796704103
91.03605305372838 79.12127120036706 27.837800519275675
90.96460263078207 78.94339807429958 27.60705667202349
90.8846623510733 78.77428789514238 27.372544752569997
90.7961618929194 78.61495570326831 27.134292909541685
90.69886194567457 78.4667087344478 26.892350973611535
90.59280833090394 78.33058411047469 26.6469930675145
90.47783277254142 78.20801873503936 26.398530090600904
90.35406099811661 78.10012411991356 26.147510557281056
90.22163467897609 78.0080583843212 25.894612197349947
90.0806846948271 77.93313280579527 25.64066978117594
89.93167626548467 77.8760611462489 25.38669447161562
89.77498666407 77.83779048151219 25.133816351563382
89.61114824980125 77.81896325958778 24.883290451089717
89.44083771073319 77.81979524295603 24.636401022557536
89.26462918158488 77.84081688120064 24.394597681537117
89.08331992365439 77.8817496533719 24.159206287976172
88.89760982183223 77.94256725689465 23.931672902277906
88.70824707026573 78.02298955466364 23.713428343717172
88.51600846811944 78.12243011153201 23.505790284220673
88.32162264126097 78.24061299178557 23.31033355890611
88.12589060758688 78.37658060921419 23.128241962094194
87.9295872675297 78.52993107585858 22.961199101531797
87.73354954314176 78.69960489428325 22.810431416430674
87.53866053044062 78.88480456612787 22.677502837645633
87.34589693380656 79.08455225373955 22.56397106566857
87.15629450584326 79.29756703365368 22.47113256933537
86.97104818197697 79.52261369447929 22.40055916899331
86.79146640807227 79.75816153837023 22.353598756232735
86.6189000770627 80.00239685840023 22.331185766802246
86.45479233460627 80.25337797235213 22.33408316716173
86.30057454102673 80.50899176921672 22.362583008443742
86.15761165991535 80.76704991951932 22.41647620098681
86.02701135890622 81.02540468057225 22.494799134104603
85.90952985791591 81.28214443021561 22.59591116943062
85.80558316457322 81.53572771526686 22.717722017892378
85.71520196403644 81.78507520246755 22.857772461024854
85.63817646307719 82.02956417077631 23.013523513507256
85.5738921461199 82.26909778087428 23.182234566239593
85.52148774565916 82.5040225526234 23.36124186873387
85.48025263335185 82.73492188295351 23.548245816194278
85.44908962061558 82.96275146518971 23.74088990377394
85.42718498382052 83.1885530387998 23.937171273828895
85.41352511049725 83.41353169097904 24.135142277281375
85.40735746466889 83.63893070755893 24.333012862314675
85.40775155342929 83.86597869077626 24.5290859934747
85.41410178293978 84.09594217400559 24.721624797608655
85.42560233089011 84.32987651339052 24.909069493571874
85.44172931784851 84.56886279917845 25.089668815065796
85.4618686535846 84.8136531884937 25.26188970868315
85.48558902070842 85.06495500564282 25.42396782332914
85.51242380354768 85.32305139439241 25.574460072419466
85.54206917750783 85.58817697974564 25.71160175980205
85.57418560551599 85.86005012985804 25.834192558562446
85.60857886690685 86.13834650946646 25.94068643576454
85.64505326373347 86.42233349437245 26.030073389313166
85.68348314964955 86.71112537446047 26.10142635189104
85.72381037044421 87.00371154256052 26.15371470387805
85.76595193201489 87.29884888788906 26.186614194710792
85.8098737695074 87.59527335987873 26.199601525829955
85.85554263641379 87.89162449920853 26.19224795174091
85.90287678450028 88.18651334463553 26.164641760064896
85.95178979987736 88.4785299475055 26.11670895280602
86.00215608351847 88.76622308560475 26.048454412893044
86.05377559880273 89.04826019983857 25.960409815051918
86.1064137015876 89.32333468959555 25.853043136405145
86.15978557899814 89.59012256027195 25.726785978573226
86.21353518123571 89.84767443613771 25.58276407891304
86.26727986154525 90.09514926565254 25.422029768692937
86.32060078888676 90.33182780767525 25.245646137131757
86.37307422725918 90.55746442572044 25.055101734770574
86.4242926526248 90.77207185560468 24.85188505883982
86.47384850180323 90.97577309454995 24.63733741533902
86.5214065085347 91.16917766564353 24.41302488960361
86.56667906687461 91.35304154090952 24.1803627293342
86.60938808783133 91.52814416532044 23.94056054672411
86.64939558827638 91.69565684585254 23.694936394845616
86.68653760030625 91.85657755821624 23.444497600934422
86.72076377981553 92.01208612728058 23.190250229355495
86.75204708525963 92.16327790413163 22.9330347016009
86.78039794285903 92.31119934063699 22.673585784032987
86.80590961638985 92.456848455815 22.412560174973223
86.82863007558396 92.60106127534469 22.15048067301556
86.84872514124964 92.74459179636725 21.8878125139182
86.8662816704695 92.88802131898292 21.624907175422134
86.88144545563581 93.0317932580318 21.362039966564062
86.89431877742393 93.17620060260943 21.09939894659412
86.90495392023966 93.3214120498422 20.83710134778026
86.91340887933572 93.46746190570867 20.575190194582884
86.9196308627932 93.61430978458803 20.313662964246472
86.92354054527227 93.76182597734201 20.052467369694728
86.92499117919633 93.90983362759712 19.791524750743
86.92370190996117 94.0581374394143 19.53074971170043
86.91941289368529 94.20653022354728 19.27005780382807
86.91174526113387 94.3548284492355 19.009389929822213
86.90024835591579 94.50287582713945 18.748720873581618
86.88451305498764 94.65056480749573 18.48807060951063
86.86400572506362 94.7978293854632 18.227512695724183
86.83825506616003 94.94466289626007 17.967178117764952
86.80681126074285 95.09111257056456 17.707253658816853
86.76910785714584 95.23727276922058 17.44800078061693
86.72482215364126 95.3832992867341 17.18971653242211
86.6734992337742 95.52939144934096 16.932776161441282
86.6148067103141 95.67579845575166 16.677600234760806
86.54852531161633 95.8228031413846 16.424636400023225
86.47430097854021 95.97074351829356 16.174440294916124
86.39211965390523 96.11994895147339 15.927505379611459
86.30179296688621 96.27079619698169 15.684444298433242
86.20331366558852 96.42364643893143 15.445843787641365
86.09674528923884 96.57883962938298 15.212285176126175
85.98204617056248 96.73674428241476 14.984467521456052
85.85947361887393 96.89760688322174 14.762907165849484
85.72910852046881 97.06170404502731 14.548275875545206
85.59119645408538 97.2292052207676 14.34112327966457
85.44603695687485 97.40019540878488 14.141925199452187
85.29379981983026 97.57476316329536 13.951298756097392
85.13492266786596 97.7527929205283 13.76949876149318
84.96968755248739 97.93417720083514 13.596914307407499
84.79843037238622 98.11871104343702 13.433799764463535
84.62156012823111 98.30608748917072 13.280190674666597
84.43933799509148 98.49601587421488 13.136275084920259
84.25216662860169 98.68809063706715 13.001874113991493
84.06034162158785 98.88192397967104 12.87688478294004
83.86413015730834 99.0771122542561 12.761154042985932
83.66385408418661 99.2732318988686 12.654296668264289
83.4596853511988 99.4698933371876 12.55615346242576
83.25190389007469 99.66670346075526 12.466233101968957
83.04066789664735 99.86330074089528 12.384240957158536
82.82615621907468 100.05934501130223 12.309772083619752
82.60853017979188 100.2545281623871 12.242412027475849
82.38788890443638 100.44855129962633 12.181850006952141
82.16439198911532 100.64117367938266 12.127613882731751
81.93808196636324 100.8321248672717 12.079472512008408
81.70909966517792 101.02122058444982 12.036972656052694
81.47748820391699 101.20823924962046 11.999867164149446
81.24333654195937 101.39301594714752 11.967814857021533
81.00671169742972 101.57539228580801 11.940526611568846
80.76766182541061 101.75520855436123 11.917756384532856
80.52628417738386 101.93237866100799 11.89918103251733
80.28260438301677 102.10675111133583 11.884619361197597
80.03673335808121 102.27829442559897 11.873756278282157
79.78873030153767 102.44693018030421 11.86638241190002
79.53867740065125 102.61262444400651 11.862265332029326
79.28668241792376 102.7753988667971 11.86115116625994
79.0328067692894 102.9352192941139 11.86287477121547
78.77718288792887 103.09217890929953 11.867182699705596
78.51990479716329 103.24632669551384 11.873898588555774
78.26107881875582 103.39774606650347 11.882846210110285
78.00083747614988 103.54658408224952 11.893829399504533
77.73928292019382 103.69294791722999 11.906711581459124
77.47655729065085 103.83703577060399 11.921311172221184
77.21279147015557 103.97904228104333 11.937470857413798
76.94811595719851 104.11917733747555 11.955036899478166
76.68268712472195 104.25772265594712 11.97380892296918
76.41664536740669 104.39494519150587 11.993596559799013
76.15015217983779 104.53117604744608 12.0141495223895
75.88336688582405 104.66676012220839 12.035185996006339
75.61645585210223 104.80207398898986 12.056367500099531
75.34959206637907 104.93752005318515 12.077297222860654
75.08296133517175 105.07353423824193 12.097497419893935
74.81675111718974 105.21054666027771 12.116454003649595
74.55118013740648 105.34903658519728 12.133538455373776
74.2864723743936 105.4894518508137 12.148102222345477
74.02290000010834 105.63228245786479 12.15937563981765
73.76076136541359 105.77798333641041 12.166563866108717
73.50041211072534 105.92701119236351 12.168793480040685
73.24227716669212 106.07980954273584 12.165124431694379
72.98682664107851 106.23674386826171 12.15465294973947
72.7346801546326 106.39822521005195 12.136300049750822
72.48645104935125 106.5644719744995 12.109224485482226
72.2429789455036 106.73578201479462 12.072336184468536
72.00509013580995 106.91223939472404 12.024849643229041
71.77373917885572 107.09388130996761 11.965988726419946
71.55007547800594 107.28070994251974 11.894936213183572
71.33510667206772 107.47248557625169 11.81135468722365
71.12998807937822 107.66894866628876 11.7149008302259
70.93598705918373 107.86977009369579 11.605324656503468
70.75407532501252 108.0744326723982 11.48288741487754
70.58528090168454 108.28240424897524 11.347882234922114
70.43071669075532 108.49311512033492 11.200638908051028
70.29106000863362 108.70588087551185 11.041912154783867
70.16695508747702 108.92000999067139 10.872456996080556
70.05908521167504 109.13478185596841 10.692994964437428
69.96774443289135 109.34943244389054 10.504446772993713
69.89305206425404 109.56319448608215 10.307731849963536
69.83524776304424 109.77526025607416 10.103628168569935
69.79408249550575 109.9848367698709 9.893023401612448
69.76920418513839 110.19114036919913 9.676704336038298
69.76042582248179 110.39330615049475 9.455283370241103
69.76688504592434 110.59062306686093 9.229451037594531
69.78807359634624 110.78225727660958 8.999656869945968
69.82309921940524 110.96748907884435 8.766330788638067
69.87109736821277 111.14558528810792 8.52977529292442
69.931191468615 111.3157883988822 8.290190453561628
70.00231424488672 111.47746474525617 8.047734346038425
70.08360397929908 111.62979040353487 7.802434677797582
70.17390491734498 111.7722024558809 7.554345352987398
70.27236287162786 111.9037573131504 7.303381138925205
70.37779326107294 112.02390767727168 7.04954742531979
70.48927362267384 112.13161038377345 6.792730514689399
70.60563872441998 112.22618751469261 6.532932202147762
70.72581451912649 112.3066125553973 6.270121453931914
70.84862001923103 112.37190507280904 6.004353150671985
70.97280582445605 112.42118580285184 5.7357924234546145
71.09705394148331 112.45315964647885 5.464659632200416
71.21994955306367 112.46702902521646 5.1913974732960115
71.3400257690574 112.461900725498 4.91658475800175
LINES 1 251
250 0 1 2 3 4 5 6 7 8 9 10 11 12 13 14 15 16 17 18 19 20 21 22 23 24 25 26 27 28 29 30 31 32 33 34 35 36 37 38 39 40 41 42 43 44 45 46 47 48 49 50 51 52 53 54 55 56 57 58 59 60 61 62 63 64 65 66 67 68 69 70 71 72 73 74 75 76 77 78 79 80 81 82 83 84 85 86 87 88 89 90 91 92 93 94 95 96 97 98 99 100 101 102 103 104 105 106 107 108 109 110 111 112 113 114 115 116 117 118 119 120 121 122 123 124 125 126 127 128 129 130 131 132 133 134 135 136 137 138 139 140 141 142 143 144 145 146 147 148 149 150 151 152 153 154 155 156 157 158 159 160 161 162 163 164 165 166 167 168 169 170 171 172 173 174 175 176 177 178 179 180 181 182 183 184 185 186 187 188 189 190 191 192 193 194 195 196 197 198 199 200 201 202 203 204 205 206 207 208 209 210 211 212 213 214 215 216 217 218 219 220 221 222 223 224 225 226 227 228 229 230 231 232 233 234 235 236 237 238 239 240 241 242 243 244 245 246 247 248 249

POINT_DATA 250
SCALARS curvature float
LOOKUP_TABLE default
0.26269142437650495
0.25388667766929246
0.24406699023124723
0.2338515200691384
0.22381341232094218
0.214431370200814
0.20606469003250982
0.19898569095462887
0.19335468471367567
0.18925092833548418
0.18669250178181876
0.1856163952521685
0.18593873169978745
0.1874867364297931
0.1900909322987543
0.19349440078698796
0.19744773968543122
0.2016839337541287
0.20590689937020168
0.20980004119492804
0.21301584750089067
0.21524122999285142
0.21616920883501445
0.2155689032204528
0.21331815595819742
0.20933116977443178
0.2035883950128634
0.19623158416028857
0.18757189153344034
0.17797223526419065
0.16783377587573842
0.15757201181624397
0.14759599421613004
0.1382774256112183
0.12991377801956203
0.1227836953496709
0.11709162082457897
0.11302073635024831
0.11068694966515728
0.11017353733755512
0.11148347493560334
0.11456512601803166
0.11931790606315718
0.12558759515860396
0.13319618241798145
0.1419099210328857
0.15148898453396387
0.1616647019922971
0.17216264622459437
0.1826800321202186
0.19291354118715734
0.20257906357586894
0.2114193189812651
0.21921756049623234
0.2258548703697998
0.23126373125665017
0.23546371422195528
0.23858546148916962
0.24086486429448514
0.2425998251584401
0.24408036831538313
0.2456048771572535
0.24748555796061553
0.250013735413865
0.25342799877788513
0.2579263524749586
0.2635711631409493
0.27032578683760067
0.277986420848573
0.28618285337526134
0.2943402693958128
0.3017326435651527
0.30746232021167325
0.31046779762082516
0.3096703539848043
0.30429174071379894
0.2939682284201109
0.27886960824502605
0.2595868236854209
0.2370639599127084
0.21237686582613235
0.18668381496128209
0.16109324010595957
0.13664385284232636
0.1144188283043847
0.0959465162862199
0.08327983597769922
0.07867377212209514
0.08252150889011442
0.09309241292455613
0.10749631232514505
0.12358666054475334
0.13990972976417618
0.15555611967311725
0.1699448473635682
0.18269506437436173
0.19362914005105406
0.20264647565886176
0.209834869885852
0.2154310043017951
0.21972961224958923
0.2230568039596807
0.225664604093205
0.22770984337939196
0.22922823255542202
0.23015669021060386
0.23035378111094396
0.2295795929879082
0.2274881459468996
0.22371082795517516
0.21802659770161328
0.210274782473382
0.2004292788679512
0.18861112969183116
0.17509462706986265
0.16020114561896118
0.14438010106365518
0.12808494315967528
0.11175640259942039
0.09581465208267674
0.08067854523246602
0.06676766462516795
0.05450667656844238
0.04434089471608798
0.0366316147198161
0.03156860543151203
0.028820758074139072
0.02767724861646475
0.027289531675638138
0.0270846518988458
0.02687290381641322
0.026766500887175866
0.02707809902082757
0.028172193390221496
0.03029032398684314
0.03349209510640738
0.037598024838104566
0.04238684615119587
0.04761290963305347
0.05306702585498124
0.05859063849192431
0.06405970412179356
0.06939716394144972
0.07454900788668771
0.0794924482301717
0.08421808034552324
0.08874552198357907
0.09311633038840107
0.09736802886953184
0.10154624531363877
0.10566763713272181
0.10972210268428183
0.11366272494132784
0.11742661322321385
0.12093080175117131
0.12404362524191788
0.12661065105907274
0.1285018014946394
0.12959860672250245
0.12983962460725665
0.12918961499707957
0.1276546055349373
0.125304942960704
0.12221904702728696
0.11853595985618168
0.11439335780491972
0.10993025112447592
0.10528370331213958
0.10057464557226167
0.09591317382554428
0.09139363227704721
0.08709664878964057
0.08308008493737465
0.07938136473456034
0.07601352472976955
0.07297502924054372
0.0702399107701108
0.06777145679654357
0.06552141358759017
0.0634396938924856
0.061473229085042054
0.05956885742885702
0.05767846703324455
0.05576250211329548
0.053793271552353555
0.051749402035277545
0.04962063760121366
0.047396598280800506
0.04506939331482593
0.04262957867852359
0.04005858062052114
0.03733836876767989
0.03443436340121845
0.0313111145083484
0.027926053690311273
0.024229018749706635
0.02018678705241071
0.015781862057544914
0.011121934062016642
0.006905618004222551
0.006569225107844553
0.011680975017355578
0.018991335777150075
0.02739945965223566
0.03672224865643539
0.0468664357523943
0.0577684172883367
0.06935091659784341
0.0815177361107328
0.09415654966310097
0.10710644465341862
0.12018778606143654
0.133187725983248
0.1458618031756167
0.15797188768327514
0.1692682119289227
0.179483551389661
0.1883939644701002
0.1958506669787976
0.20178854430613816
0.20624137615117621
0.2092927180563114
0.21103976709663907
0.21163061381660114
0.21118989732722443
0.20984577084989012
0.2077039943581031
0.20479136448511434
0.20110044356045642
0.19669681370460249
0.19167860370915962
0.18617452160031428
0.18036931448673924
0.17448179054495638
0.16877767008950814
0.16353584560285028
0.15905226629593522
0.15559240840732547
0.15340972599206132
0.15267913418284013
0.15357334678133733
0.1561433443953606
0.16044398348480993
0.16641277392351433
0.17396261622852788
0.18292685058238833
0.19305874670471515
0.20404788866553034
0.21546457523830959
0.22679876853911
SCALARS torsion float
LOOKUP_TABLE default
0.09280825433723988
0.10313955385072951
0.11390642816547653
0.12498960741316291
0.13621188318817434
0.14723491407419242
0.15770684656202277
0.16723048861167372
0.175467580164874
0.18221091962571173
0.18742124621779982
0.19118570499654425
0.1936374773156519
0.1951954093030999
0.19585714324587256
0.19616422451046792
0.19571821498569625
0.19462326174293357
0.1925286250485952
0.18922030994161015
0.18473139232334818
0.1788438376345281
0.17207015409189447
0.1650040973870238
0.1576873018280263
0.1504391351827759
0.14363258771603302
0.13838768382984715
0.13466268009162594
0.1331708254702567
0.13380012270745315
0.13695296220901007
0.14227645443846598
0.14981389749299875
0.15895188815288508
0.16868890093863192
0.1776790397382537
0.18423333114499194
0.18711015437807713
0.1850578113173377
0.17796613497240055
0.16663982285438173
0.15194732806480882
0.13566651242132435
0.1186883048436014
0.10207771557810304
0.0865317452389868
0.0722831894983312
0.05939529360413483
0.047484692606763544
0.03652238629791346
0.0263408625783847
0.016789631104582512
0.0077495176117290555
-0.0009635067478486129
-0.009359759467518705
-0.017575508854020056
-0.025379783693028093
-0.03265014730615846
-0.03943241304326662
-0.045697164700270854
-0.05135003467645335
-0.055944568196854096
-0.05941324455352677
-0.06131183117686485
-0.06157283654851118
-0.06000949023229258
-0.056609517826331994
-0.05144203829286656
-0.044554205906151244
-0.03630426744751728
-0.026913955454992873
-0.016279082191385824
-0.004217666329105477
0.009301410833527207
0.02417970096371041
0.04096751202538503
0.060165516709073226
0.08316831857048938
0.11164328750547059
0.14895681084087745
0.19953195566707743
0.27104589772774657
0.3764807650701319
0.5319421689581306
0.7445444542167187
0.9644377583045447
1.0476899734855671
0.9148518262493711
0.6822493424293404
0.4770431324334063
0.3285278772184768
0.22684085474487714
0.15596248212085154
0.10556917174860724
0.06853120552213558
0.040402793304671086
0.01867822584432886
0.0020917610082074995
-0.009678273243004258
-0.017393773373832903
-0.02167297339563621
-0.022807806277578824
-0.02130761812790021
-0.01742453499046269
-0.012129364743815181
-0.0055406363951930205
0.002081520742520576
0.010826189584334144
0.020228644351746244
0.030329021213338334
0.041077519490421974
0.05264660946368644
0.06538995875642262
0.0796053445972627
0.09625435583236638
0.11632600005626179
0.14144734582130084
0.17448422461342025
0.2186416038742882
0.2792759337708384
0.3615558275593141
0.47293768679688264
0.6091400899031955
0.7422788743298216
0.8058523442174232
0.7439283988621519
0.5796624649923927
0.3749492746462043
0.1809314191514154
0.0045367854770638795
-0.15160319554389823
-0.2728440410016773
-0.3294428040016061
-0.3125215036929584
-0.24608538098939373
-0.16151256587233015
-0.08156495777970883
-0.015242581463849457
0.036967115430114536
0.0760649185744931
0.10611220076663085
0.1291314443630496
0.14755005695214163
0.1623494955301281
0.17465177023515466
0.18336958982759116
0.18890660817253105
0.19080037108889614
0.18920122561662248
0.18384594934801038
0.17469058234594362
0.16261071517746106
0.14830437326451412
0.1321565367495788
0.11458432617266799
0.09590688172231812
0.07706519323947994
0.057908570488871484
0.03928391005759975
0.020978836087075077
0.0034493951253889285
-0.013325768036103443
-0.029198550638379554
-0.04388388346534906
-0.05755087317300058
-0.07023370455584864
-0.0818992814389402
-0.09261010569791124
-0.10210459710059547
-0.11059357649700521
-0.11767077490491455
-0.12369798414489795
-0.1285063029842622
-0.13201322485391745
-0.13413772459958398
-0.13491702031160144
-0.13468907661007937
-0.13337290552752684
-0.1306284245818738
-0.12659602027357422
-0.12171188315512221
-0.11616578602785937
-0.10990411079086647
-0.10284874328131328
-0.0948100796722125
-0.08551447585518097
-0.07496536509636183
-0.06320926914046382
-0.050211270977806664
-0.036266155097141116
-0.021377217972033843
-0.006398938645586849
0.008467821467334075
0.020275953456439896
0.027341055238871308
0.024690375481855802
0.000691823273214529
-0.08633006498696182
-0.4007064979505038
-0.5036268976495782
-0.11667469868639305
-0.0015064154827904635
0.03464061723983185
0.04740747308458449
0.05017717926087028
0.04899151793363779
0.045316190253580704
0.040619532750614515
0.03498762877798411
0.028773831808414148
0.022109973696886005
0.014952331413389775
0.0075043937550555
-8.61113112742022e-05
-0.007882275260237166
-0.015646416157819323
-0.0234318972704309
-0.03014743161077794
-0.035798828195562515
-0.039587430904681614
-0.04137454071577512
-0.04043315979561113
-0.03646538890520434
-0.02982036335258163
-0.02061672740080576
-0.008672237998141253
0.006248372709618544
0.023974524576079115
0.04380810339698647
0.0658959159181315
0.08959850390400945
0.11506123562939953
0.14136389727597715
0.16812470396042617
0.19427547825346075
0.21852084339118152
0.23980389209696606
0.2567020892470836
0.2680258735697325
0.2729957306946217
0.2713998750645191
0.2640495387794053
0.2518635219381352
0.2365280474759374
0.21923768931586152
0.20116315458152817
0.18308815203203657
0.16552898085896237
0.148789874424869
