# vtk DataFile Version 2.0
00004828.nii_L_ICA_labeled
ASCII
DATASET POLYDATA
POINTS 255 float
115.6409983146393 85.81305703157597 39.78925260680559
115.45537728719137 86.04089561255122 39.72924405887175
115.25679203848267 86.2550672463121 39.661001534599066
115.04554020782054 86.45378049942887 39.58456381577474
114.82222459602833 86.63532116616727 39.50015095180591
114.58773677283503 86.79812818253846 39.408162498731244
114.34302901456816 86.94039839814127 39.30902437271762
114.08969947719427 87.06148840045448 39.20361285621859
113.82912405123892 87.16016974405564 39.09264485053206
113.56305659863025 87.23642350430065 38.9771287704413
113.29311346679718 87.29018388772494 38.85798144317251
113.02087694001844 87.32161952751214 38.736092420072524
112.74785731056761 87.33165452286772 38.61232118061438
112.47538673498983 87.32109641965621 38.48736669261052
112.20467452941081 87.29084966215066 38.361795277251666
111.93672259119867 87.24232991574827 38.236023681578025
111.67243745201668 87.17658924453725 38.11029977046103
111.41255395877481 87.09494129128669 37.98471604242576
111.15766884258446 86.99868917923642 37.859218811482414
110.90834924725037 86.88892449175475 37.73362414883539
110.66494321653715 86.76699585424973 37.60764111513588
110.42787782500976 86.63389364679941 37.480872413005805
110.19735739462648 86.49084750455127 37.35286433609249
109.97366174400574 86.33884085851709 37.22308227763895
109.75696055680254 86.17891846658439 37.090963104051205
109.54736602475231 86.01210177354233 36.95593243238015
109.34511489189603 85.83925409484395 36.81733382925942
109.15020299143866 85.66139396796589 36.67462230356984
108.96284074403955 85.4793575164079 36.52714477258907
108.78314302506872 85.29403336452208 36.37432201967649
108.61121140526514 85.10628992245853 36.21563079584501
108.44740939727578 84.91693065539509 36.05039695221456
108.29185952564511 84.72680769793558 35.87821556729382
108.14497149019405 84.53672856532675 35.698544633574876
108.00720673528303 84.34751088975915 35.51091781844478
107.87901201823887 84.15995028708038 35.315030299391246
107.76120613540914 83.97489275972318 35.11043735188034
107.65436074898935 83.79308820773471 34.897102564850826
107.55959195786724 83.61540190077086 34.674786090101705
107.47768540828771 83.44253425564081 34.44373882480624
107.40986126908568 83.2752726362982 34.20416388203772
107.35720212180739 83.1142628910806 33.956632755929334
107.32073285303271 82.96001215703338 33.70198772879721
107.30172706102385 82.81300681415144 33.441230875241295
107.30100603666797 82.67341258457188 33.175759438246864
107.31929118246396 82.54123089029392 32.90714286736049
107.35719749895058 82.41630671916248 32.63710634175036
107.41511388932138 82.29830661362512 32.36750792047174
107.49285728227915 82.18665714399499 32.10020537233865
107.59012037816413 82.08075707080464 31.836978470200556
107.70656818451025 81.9800355615375 31.579568270738598
107.84110993108423 81.88381741803134 31.32935779546427
107.99271399784611 81.79159382891166 31.087532720008856
108.16026008147809 81.70300519314259 30.85504441778461
108.34220664396854 81.61778603879209 30.632318651955007
108.53730991033245 81.53593247064669 30.419688979664254
108.74407890336114 81.45755240036692 30.21700090148665
108.96115062131089 81.3829297411935 30.023883661702833
109.18744294506719 81.31259846388912 29.839952074988332
109.42170842196005 81.2471298654827 29.6643953239154
109.66294771833297 81.18730405462198 29.49642944235847
109.91026362151081 81.1340717356643 29.335213191833578
110.16288204022838 81.0886647568968 29.179933854822057
110.4199595404305 81.0523619438464 29.029663656753772
110.6806999914313 81.02671020155205 28.88357435005349
110.94426145727861 81.01359086511683 28.74093523384934
111.20964603594985 81.0152913052672 28.60113111987773
111.47557120761056 81.03408627731902 28.463653545287826
111.74035583361575 81.07318830149075 28.328305345261054
112.0017342707843 81.13560255985217 28.19516355568643
112.25665839494751 81.22470414692252 28.06479891474672
112.50114560967138 81.34362506845014 27.938385546058313
112.73038029336998 81.49453178317076 27.81775538636231
112.93917430845408 81.67787487776458 27.70527990394836
113.1224763464414 81.892181409452 27.60366274979532
113.27725070510385 82.1331037974613 27.515030993876817
113.40231491888014 82.39525605027444 27.44080268789109
113.49851410343095 82.67296808449379 27.381440507035094
113.56824535454302 82.9611477297698 27.33654168096482
113.61475916416627 83.2557511557957 27.3050997652058
113.6415371269391 83.55385851319454 27.285789103867767
113.65178304017999 83.85351420501136 27.277256089049285
113.64836352713465 84.15345997368536 27.278176681270793
113.63392314271208 84.45295386171675 27.287185739662053
113.61074790690249 84.75162475411629 27.302991163315045
113.5807349055255 85.04934018147263 27.324428820672995
113.54563780002958 85.34615183068924 27.350276981072955
113.50700855809794 85.64223308428 27.3792993482272
113.46620216757884 85.93782857700879 27.410246931841456
113.42443547875408 86.23322622455107 27.441802485695902
113.38280976278926 86.52872951834553 27.472540813671426
113.34231769706219 86.8246247630279 27.500917581162593
113.30381725934194 87.12113901164626 27.525296124167607
113.2680750842135 87.41841480978691 27.543862015206095
113.23574433825786 87.71645894850566 27.55465304422864
113.20728555644855 88.01508439352448 27.55574556009257
113.1830646530043 88.31388636407853 27.545018850025045
113.16319306451463 88.61219460671003 27.52059714926385
113.14756623021432 88.90910163994437 27.48088034446831
113.13589532082887 89.2034871969593 27.424536840317707
113.12767292178222 89.49412039118984 27.350806649606014
113.12220955201805 89.7798475230373 27.259701190718257
113.118748945157 90.0596651437576 27.151711628133
113.11650982564747 90.33283360898885 27.02781752841243
113.11474065585294 90.59883989955898 26.889192786650288
113.11275117343153 90.8575871729581 26.737445027730296
113.10996005546222 91.1092001002549 26.57414009281172
113.10585759739274 91.3538401542669 26.400581188149715
113.10007254302937 91.59200176581085 26.218274350465943
113.09227302425793 91.824025998189 26.02828460816198
113.08225662555469 92.0504168318167 25.831712887575655
113.06982446752829 92.27147307866228 25.629291929068337
113.05492489446094 92.487617333177 25.421794899102597
113.0374870411602 92.69903600190521 25.20967699489437
113.01755956623506 92.90594897311391 24.993375917188672
112.99524952051392 93.10847867420848 24.773192744995743
112.97069024586561 93.3065714226889 24.549244275573308
112.9441782954469 93.50026297948891 24.321697667305166
112.9160432401345 93.68941796506618 24.090557786633443
112.88672404725038 93.87387326039328 23.855795365263177
112.85677364119917 94.05352834087994 23.61741804131298
112.82683548576153 94.22813758778267 23.37531914483373
112.79765394083677 94.39763864082887 23.12952637385281
112.77007160631793 94.561903550344 22.88002240332787
112.74502096975604 94.72088898970675 22.626859028644166
112.72347612550762 94.8746802719918 22.370189473902574
112.7065641627355 95.02333541488849 22.110169742208125
112.69529732926837 95.16717328389099 21.847153060577565
112.69096562014475 95.30640632047349 21.58146802018258
112.69454867045789 95.44154562570769 21.313668504969513
112.70737585941899 95.57299244195796 21.044321405840645
112.73037780700244 95.70135961387135 20.7741695944086
112.76485548393615 95.82717958886788 20.50404389173812
112.81158711600379 95.95110913530613 20.234891406889588
112.87179950363256 96.07372928953531 19.96782986738613
112.94604970466987 96.19566095397681 19.704012620857032
113.03520339490476 96.31745247946172 19.444790098587124
113.13967933371748 96.43960122330967 19.19153374723089
113.25967910987646 96.56251020746774 18.94563351809369
113.39548199457238 96.68650481395184 18.70866445685963
113.54660880997088 96.81176489315797 18.48186287448578
113.71261696240828 96.9383777557469 18.26650299636008
113.89288807335774 97.06633493298821 18.063776011418103
114.08626851123427 97.19550654694507 17.874336102231172
114.2917038131105 97.32571602280326 17.698798249941614
114.50796841114288 97.45673006060741 17.537435004785024
114.73365173946532 97.58828406860054 17.389999769206764
114.96762990427581 97.72012556016726 17.256389516859706
115.2085428671543 97.85200898447667 17.13576720160319
115.45538573889885 97.98372224635615 17.02757590213483
115.7070919581933 98.11509459474277 16.930761957997138
115.96287931645516 98.24598554818603 16.84456176810197
116.22195256298036 98.37631097144384 16.767826055534936
116.48376235794379 98.50600193432574 16.69978476317345
116.74776303872716 98.63504386669734 16.639396698956045
117.01356013920059 98.76343508659149 16.585883793299764
117.28082374484651 98.89119887925578 16.538518873113485
117.54927152535477 99.01838326070164 16.496596898139092
117.81870930831937 99.14502843600737 16.459687960022816
118.08894988976901 99.27119736402187 16.427289393589284
118.35986644308649 99.39693549358742 16.399136273380872
118.63135270414188 99.52228313757402 16.375016638773545
118.90332581515877 99.64726476072063 16.354796317794364
119.17573098399589 99.77187564443041 16.338480505966967
119.44852101292041 99.89609125498524 16.326042619711824
119.72167500240644 100.01984226659538 16.317607073170844
119.99517313333351 100.14304012612565 16.313184861753985
120.26901744636054 100.26554594140849 16.31289698766982
120.54320931788864 100.38721245332238 16.31670394669777
120.81776745537381 100.50785188512315 16.32460500065042
121.09271134146351 100.62728578621962 16.33643360685775
121.36807387306828 100.74532091000268 16.35198559974797
121.64389166624498 100.86179007098607 16.370914767438883
121.92020905910901 100.97654861646942 16.392783575289112
122.1970738053525 101.08949418085759 16.417042416493967
122.47453195797593 101.20058178248398 16.443042589648716
122.75262451370997 101.30982765194712 16.47005195658396
123.03137857428166 101.41732261883449 16.49726799115746
123.31079741170119 101.52324230636984 16.523834828983865
123.59085897938942 101.62783352700801 16.54884848744825
123.87149212555627 101.73144487358992 16.571407201964536
124.15258738059408 101.83449036623007 16.590531533193158
124.4339601060604 101.93748414440734 16.605353612151358
124.71535932575112 102.04103016753803 16.614829061808653
124.99644882731168 102.14578453677814 16.61817211371263
125.27678158948198 102.25252464580433 16.614353814100056
125.5558358465925 102.36200113885624 16.60266880975515
125.83292316967643 102.47510541070572 16.582152624807136
126.10731635889272 102.59259180061657 16.552249569237677
126.37805427077464 102.71537221402521 16.512094318802518
126.64419951523244 102.84410047869808 16.461309402138742
126.90461645242195 102.97947871418418 16.399364180423426
127.15814373560013 103.12201783968739 16.325982259786915
127.40368330796872 103.27199207317167 16.241157953608077
127.63998872048445 103.42964848377734 16.144823732827117
127.86612434829439 103.59485420989654 16.03738219273447
128.08124677284846 103.7673603529864 15.919317516370503
128.28447690159533 103.9468929419673 15.791094434966293
128.47550953888702 104.13285441826373 15.653615610821642
128.65388453882576 104.32478075092399 15.507587831834899
128.81948441752755 104.52209725800857 15.353896229034708
128.97226982697072 104.7242745591082 15.193393550715548
129.1122371482625 104.93083831495196 15.02689494888719
129.239505682007 105.14133933721405 14.85521331036819
129.3541500740726 105.35539587512935 14.67908858145516
129.45618868550116 105.57267596291453 14.499195019125237
129.54576484498574 105.79283472151515 14.316188916260485
129.6226330913412 106.01560873994369 14.13058642995474
129.6869471767986 106.24063010999966 13.942931991240377
129.73837213510004 106.46757821613889 13.753630637546992
129.77684999990376 106.69602851378379 13.563067126848336
129.80213804925432 106.92550819048043 13.371536960939137
129.81396179286375 107.15545477088563 13.179264736812339
129.81222836470107 107.38521026904243 12.986410432693672
129.79660266893873 107.6140125065645 12.793049563184837
129.7671569636412 107.84103392664106 12.599202660503494
129.72369036176005 108.0653248586039 12.40481517788077
129.66643324212933 108.28593689277288 12.209793632420013
129.59549438347617 108.5018365161446 12.013995899211224
129.511234748184 108.71201839794443 11.817260153654361
129.41419040976592 108.91554593110628 11.61941969516392
129.30483235101187 109.11142951838761 11.420290690132596
129.18408782596185 109.29900440127706 11.219744331428496
129.05263006196114 109.4774842996657 11.017637414682373
128.911506941257 109.64648520531973 10.813905682451153
128.76163772686505 109.80564926666594 10.60850051427001
128.60398464449491 109.95480283980368 10.401414003930222
128.43955909099063 110.09403712810544 10.192689757495872
128.2691969946449 110.223384222988 9.982368502260803
128.09383083584254 110.34328010689259 9.770561839602701
127.91415148683477 110.45395521573015 9.557353118934254
127.73091365023303 110.55603943806261 9.342887552153151
127.54466319642133 110.64993183736895 9.127274819625795
127.35595454461306 110.73631191777477 8.910659145007184
127.16520746538353 110.81570743038311 8.693155980351898
126.97280715896663 110.88875181755522 8.474882878669602
126.77907755614807 110.95605648730674 8.255939649854371
126.58428760434492 111.01816687251151 8.036401514333903
126.38869539248398 111.07572884566619 7.816336435741092
126.1925079538511 111.12920699367461 7.595770511790268
125.99594204979624 111.17921035973085 7.374726292673242
125.79919112813015 111.22619678970342 7.1531847475969625
125.60245281720418 111.27066434507171 6.931112285659096
125.40592585107218 111.31306258630619 6.708448431238615
125.20981714551749 111.35381338605099 6.485109008884013
125.01433477155021 111.39333699003319 6.261001171166808
124.81970999543546 111.43201205192977 6.036000640657969
124.62616153087704 111.47022434860607 5.8099949403527535
124.43394993024913 111.50833552810377 5.582834368971956
124.24330939015377 111.5467041985332 5.354397086349724
124.05452628317369 111.5856901578189 5.124526599566726
123.86786306766832 111.62564345842996 4.89309678319028
123.68361962948042 111.66692496175695 4.659967734552731
123.50211047577609 111.70990236557134 4.42500817757488
123.323627015403 111.754920725956 4.18812135821629
LINES 1 256
255 0 1 2 3 4 5 6 7 8 9 10 11 12 13 14 15 16 17 18 19 20 21 22 23 24 25 26 27 28 29 30 31 32 33 34 35 36 37 38 39 40 41 42 43 44 45 46 47 48 49 50 51 52 53 54 55 56 57 58 59 60 61 62 63 64 65 66 67 68 69 70 71 72 73 74 75 76 77 78 79 80 81 82 83 84 85 86 87 88 89 90 91 92 93 94 95 96 97 98 99 100 101 102 103 104 105 106 107 108 109 110 111 112 113 114 115 116 117 118 119 120 121 122 123 124 125 126 127 128 129 130 131 132 133 134 135 136 137 138 139 140 141 142 143 144 145 146 147 148 149 150 151 152 153 154 155 156 157 158 159 160 161 162 163 164 165 166 167 168 169 170 171 172 173 174 175 176 177 178 179 180 181 182 183 184 185 186 187 188 189 190 191 192 193 194 195 196 197 198 199 200 201 202 203 204 205 206 207 208 209 210 211 212 213 214 215 216 217 218 219 220 221 222 223 224 225 226 227 228 229 230 231 232 233 234 235 236 237 238 239 240 241 242 243 244 245 246 247 248 249 250 251 252 253 254

POINT_DATA 255
SCALARS curvature float
LOOKUP_TABLE default
0.24208512995251283
0.2510276200985211
0.2588465161362958
0.26514492459458905
0.2695636454305385
0.27183225326541427
0.2717448907025098
0.2693339173065524
0.2646806633898056
0.2580751144361073
0.24983750986127254
0.2403100972139743
0.22984658402836658
0.2187626311730545
0.2073297279459741
0.19579335235966033
0.18435342860342344
0.17319514791205023
0.16248793769796832
0.1523879870087645
0.1430260134252798
0.13454963200773887
0.12708105274638337
0.12075986172686934
0.11571056613714047
0.11203019984258289
0.10982944898751079
0.10913224316491241
0.10996791549396935
0.11230483717031088
0.11606846199642575
0.1211985191974594
0.12757055832595782
0.13507837393496355
0.143602867380502
0.15295698650995873
0.16293958469024883
0.17331463419016374
0.1838351910256325
0.19418202833042864
0.2039505219281561
0.21275092112482152
0.22028380149499033
0.2262782409211816
0.2306184886999693
0.23326886359066382
0.23436405409485858
0.23405891853263638
0.2324295856816769
0.22943898980774718
0.22498861128679118
0.21899020692665427
0.21134304216596297
0.20201707237945626
0.19117806183512215
0.17916507817854935
0.16648414615153678
0.15378277564539186
0.14189491301116422
0.1318868430445367
0.12507755949154503
0.12294178365643979
0.12681953281435002
0.13731643029495738
0.15437220603478624
0.17759893885440406
0.20661566808070767
0.24098089678467738
0.28025243545130424
0.3231997105445194
0.36753623979490035
0.40930629393622503
0.44274521515463433
0.46156249004644484
0.4613144329957815
0.4425361193708471
0.4093877043771908
0.3676207493175067
0.32274975587748417
0.27865063182887195
0.2372911368162006
0.19937694101828693
0.16492326983855346
0.13362951892898323
0.10506457305227981
0.07880979453405103
0.05458278017806654
0.0328266691682508
0.018338707626626958
0.025314636732099948
0.0441085747485999
0.06494999787968127
0.0862809875720434
0.10765719837711334
0.12866864196211333
0.14873331504950088
0.16704567840556567
0.1826309713505454
0.194478669554711
0.2017386224284607
0.20391106925651392
0.201138562456841
0.19399051701491193
0.18342249179376566
0.1704976461937598
0.1563126200185772
0.14178412855244646
0.12771184060414834
0.11470000269865264
0.1031566669413672
0.0933022459514966
0.08523332326584167
0.0788480827710928
0.07405282468779525
0.07065805028729888
0.06847863669871322
0.06730074406537262
0.06692403804836425
0.06721202728854689
0.06806519491524055
0.06944351994800804
0.07136534143606525
0.07383936003749217
0.07689859347430533
0.080589659609552
0.08498793545276598
0.09018091213699339
0.09623898106398451
0.1032415679428471
0.11119363938086695
0.12010296048762575
0.12985897093807397
0.14032084286209412
0.1512472329274381
0.16234756935567946
0.17324497862250604
0.18353707633458666
0.19277965813953687
0.20053679943660088
0.20636076779745444
0.2099281112384528
0.21101633892273786
0.2094640511383163
0.2052618795548105
0.19848528496738163
0.18946225648477605
0.17862915445235322
0.16644052720728547
0.15338996820014184
0.13992925756057348
0.12649222198198093
0.11343825562862586
0.1010463262257871
0.0895765731646783
0.07923616741628829
0.0702281105119255
0.06266349095419457
0.05659130817353891
0.051981000939680264
0.04867210655071729
0.04651785299885825
0.04533687180131224
0.044941414005934724
0.04511451040262249
0.04564209069807065
0.046306751522010005
0.04688301007487777
0.04716366289215308
0.04696090516381002
0.046108798689132466
0.04449636725684601
0.04204540414414514
0.03875282649132706
0.0347011747245991
0.03016221725693037
0.025654532307907218
0.02219400912116656
0.021325900151372482
0.024188586584011216
0.03037189756005751
0.03873127355916887
0.048500053143626626
0.05924647013823292
0.0707658594893729
0.08287789619348217
0.0954512957602614
0.10830816662499798
0.12127909625684494
0.13414938443915644
0.1465965189114107
0.15821389972946007
0.1685497970072615
0.17718518493560254
0.18375708117909612
0.18797860551205864
0.18975952405945054
0.1892531764658237
0.1867297931278907
0.18261835537709348
0.1773509670743079
0.17143432748725182
0.1653717202686875
0.15961340031540494
0.15453330887640404
0.15040935877237488
0.14739070277837363
0.14552477675355474
0.1447795052258498
0.1450225824163706
0.14609553967981373
0.14778255841112664
0.14987256884698133
0.15215908254360763
0.15445889527867598
0.15661630188977943
0.15849968954744048
0.16002740187755773
0.16112988191771072
0.16169468423841377
0.1615754414495989
0.16066104899820338
0.15885810958807506
0.1561137837893398
0.15239106458672
0.147711694006454
0.14217574721527168
0.13590405929561203
0.12900965262370842
0.12158672887637445
0.11377934412108436
0.10573480100219235
0.09759125148950375
0.08947011785548682
0.08147279504381881
0.07367873948737466
0.0661565758091259
0.05894922362353955
0.05210087240144396
0.04563907157218521
0.0396150362346832
0.034071386797307236
0.02909667094514906
0.02483009823312953
0.02149255559813752
0.019398321693653544
0.018806762083440048
0.019775955585647383
0.022032772329027558
0.025226426842310013
0.029041176679869704
0.03328666643860259
0.03784260094525626
0.04264132349609411
0.047638612937282165
0.0527986892308734
SCALARS torsion float
LOOKUP_TABLE default
0.013192570894261634
0.014910240515517087
0.016816161926933755
0.018861676222113096
0.02097617143154102
0.023001749725148412
0.02448577691495802
0.02519422064682762
0.02458980784639849
0.022356009456187292
0.017755863514515566
0.01024670261588962
-0.0003779178179284218
-0.014456970350930071
-0.03212089660176376
-0.053452147868839645
-0.07830073236070065
-0.10560387629479734
-0.13549252016381066
-0.1675615844870518
-0.20156491744642432
-0.2361532385929227
-0.269964628240334
-0.3008914493917463
-0.3262881216180453
-0.34383900136347717
-0.35133382341315605
-0.34760371864840633
-0.3329916915269769
-0.3087888960851217
-0.276842451828459
-0.2397117089353551
-0.2002360341512164
-0.16054646338599932
-0.12180342595810376
-0.08449742102256856
-0.049270993888313304
-0.017481847054439247
0.011545219856533867
0.03974282475370319
0.06826428379142373
0.09574926576691557
0.12192349355595852
0.14615256155244724
0.16759980154608045
0.18507163169938495
0.1960993718018886
0.19981128276792523
0.19525177180864856
0.18245986934339795
0.16059206186375605
0.13050239458720422
0.09366898430804327
0.04996413410000234
0.001828571710759435
-0.0522612629661121
-0.11392805550895786
-0.18554428090917438
-0.2691997181325957
-0.360019327777814
-0.4466413056177375
-0.5019764859727507
-0.5038716777634991
-0.4545076245543244
-0.37721616341491815
-0.29669304467779445
-0.22680606103433482
-0.169328502250956
-0.12278845214135936
-0.0837741049272614
-0.0513843374258252
-0.02346599045835067
0.0004638007027456077
0.02098071344117232
0.037458065882159435
0.049994761939345954
0.05930849267967096
0.06629456050941117
0.0711473692956815
0.07444067439953019
0.07665926796857514
0.07783257703105098
0.07916030118335828
0.08020032513607352
0.07897534084493274
0.0696292123777362
0.0334752690241591
-0.11700642434265932
-0.7308766613634885
-0.40338878228191194
-0.0759380835790431
0.023246829184402913
0.0654578843231987
0.08932358940099305
0.10525427933884796
0.11769195620229077
0.12660797609697744
0.13290847722888877
0.13683945852736368
0.13824369067071068
0.13867732548330872
0.13837007585778438
0.1384716636068906
0.13950931277934775
0.14163897684596116
0.1448543017254936
0.14879324282617742
0.15290847475717875
0.1549350682272043
0.1521367801135099
0.14091914457550966
0.11963069076682074
0.08659282566053789
0.03989538526140775
-0.01973017047403196
-0.08680663597865734
-0.15409231509633353
-0.21791792999361126
-0.2750808907746184
-0.3250387095654047
-0.36534116816639356
-0.39600248162043467
-0.4188021716698161
-0.43552137486032183
-0.4460283664433282
-0.4483551274073583
-0.4435186876202977
-0.4299622592665094
-0.40975365463070695
-0.38332067499573247
-0.35280228766585753
-0.32063069715316195
-0.28865121711232417
-0.2579759610249415
-0.22896284637255276
-0.2021147279880064
-0.17742773954027133
-0.15471437486273254
-0.13440353922389328
-0.1160065187525664
-0.09990339615204794
-0.08561454054925784
-0.07271133804885853
-0.06073202128179982
-0.04991603266491814
-0.0403083879078934
-0.0316641239110042
-0.024017018619048563
-0.017176334464726543
-0.01156107753438009
-0.007151210536873894
-0.0038711298821648126
-0.001991787686399962
-0.00202528603929142
-0.004837870849307465
-0.010504212657119198
-0.01818752971241875
-0.027104924139075694
-0.03420221561810446
-0.03741874002371275
-0.03413333510110657
-0.023406986783393587
-0.0060366319057708565
0.016595173998398924
0.04214408160505451
0.06877097989153724
0.09623263556078371
0.12320824584978825
0.15202569692514392
0.18404277219793572
0.22377506703706954
0.27551721635638077
0.34960038355884254
0.4617771700646051
0.63927328560353
0.9221378100071547
1.2920924891637129
1.4935527453035506
1.2680051093995865
0.9015408951875807
0.6364772253934817
0.4785162956220902
0.38071690445598755
0.3168225387874673
0.2717140565087505
0.23683804604286077
0.20875648361673227
0.18415418808227352
0.16196975123150295
0.14196050346719813
0.12369899016252868
0.10712796977883698
0.0917419460708701
0.07839743793348498
0.06741937153431511
0.05904739367236307
0.05376226340009031
0.05121500949644005
0.0512897686572077
0.05371333224887437
0.057785691522032646
0.06305205603508525
0.06745241135190476
0.07002966470616483
0.06902452382699623
0.06330651634601993
0.05273066039420594
0.037350678605495034
0.0176552633287664
-0.005735348734751024
-0.0322156074912438
-0.059230236099812435
-0.08631039233254167
-0.11177131077107325
-0.13480666944377925
-0.1549099753729934
-0.17090574265663314
-0.18293923424806116
-0.1910765142609657
-0.195626652353369
-0.1962393442769836
-0.1929001773142818
-0.18666832659658872
-0.177653257024322
-0.16751773565312097
-0.1568138534146479
-0.14523899951791047
-0.1325860557101428
-0.1189776623668972
-0.10576195928518826
-0.0925845762993377
-0.08068976425346387
-0.07014826112804202
-0.062101817289473914
-0.057632425230733274
-0.05749610030051056
-0.0631228527132022
-0.07698249716531749
-0.10224855427851749
-0.14472742559995355
-0.2095954583526015
-0.3066476185523098
-0.4411751486476528
-0.6054024607491666
-0.7516782163063722
-0.7983208079111945
-0.7147053619138876
-0.5673504495664206
-0.4268851859887935
-0.3193573470279671
-0.2438377742165007
-0.1905395246888555
-0.1526134407874292
-0.12474319170700557
-0.103586842890626
