# vtk DataFile Version 2.0
00003508.nii_R_ICA_labeled
ASCII
DATASET POLYDATA
POINTS 238 float
71.60492357196703 76.94433123637447 35.30291117217425
71.81498545766281 77.08875139444572 35.14486174980773
72.03762469513053 77.2306671258135 35.00252975991817
72.27142814381283 77.36886353121591 34.875218177685475
72.51506689654495 77.50227637283679 34.762014014020494
72.76733428630162 77.62998387585357 34.66186924712799
73.0271611775097 77.75118733575536 34.573668893713226
73.29361491124854 77.86518646802246 34.496283678558015
73.56588781332509 77.97135338884686 34.42860767020841
73.84327991967983 78.06910764546521 34.36958333652189
74.12521451569204 78.15780687017481 34.3182767443141
74.41110714727026 78.23695688180338 34.27369748155407
74.70045272891497 78.30600080133388 34.234985289280054
74.99277453100272 78.36434672833782 34.201357188058736
75.28762043705018 78.41123667748714 34.17213525541527
75.58446875102932 78.44608894677616 34.14661474238525
75.88278385709695 78.46819755370078 34.12418780525357
76.18197256158125 78.4767935897172 34.1042992493681
76.48135269953592 78.47093563435489 34.08644503951248
76.78013645355674 78.44996710902016 34.07011152837798
77.0774302024229 78.41310752963962 34.05483390222975
77.37221675192454 78.35963374262197 34.0401611812958
77.66335642432053 78.28892312927802 34.02564928144719
77.9495730168863 78.20042319813419 34.01085215597494
78.22954005149813 78.09390906655395 33.995321973181674
78.50187633155618 77.96933488762521 33.97860715080332
78.76518110998215 77.82686864723166 33.96024780589263
79.01808171979565 77.66691874625582 33.939776627063026
79.25927094417389 77.49012152312379 33.916720849934016
79.48753786031186 77.29731806506136 33.890605533897485
79.70179018989639 77.0895240306174 33.86095797758671
79.90106674286477 76.86789547388959 33.827313518157986
80.08454111414285 76.63369481289878 33.78922300540905
80.25152052948809 76.38826109298284 33.74626158865471
80.40137749371922 76.13295395399983 33.6980180190709
80.53371836918554 75.86922933829196 33.64415880806108
80.64824264628592 75.59853046516402 33.58439807474977
80.74475609725155 75.32228958581558 33.51851068112509
80.82317820659406 75.04191948417726 33.446342535403986
80.88353541349882 74.75879888053898 33.36781346201402
80.92595113725827 74.4742595767871 33.28291536380183
80.95054925320524 74.18958196039806 33.19167641740934
80.95763351346562 73.90599318999767 33.094219874245624
80.94758743662068 73.62464471770082 32.99071985640934
80.92077983653303 73.34663073945025 32.8813559358822
80.8776035176706 73.07299933236229 32.766314358189355
80.81834753195464 72.80481664556733 32.64573024087336
80.74351203950965 72.54307408218142 32.51978224709208
80.65357176182566 72.28876406137557 32.38859967280622
80.54897947983045 72.04291182863376 32.25225549347252
80.43012470783282 71.80664662286102 32.110745115733415
80.29758328728109 71.58105554106234 31.964074620123732
80.1520076422073 71.36723167823222 31.812232270605495
79.99406591594166 71.16634289257013 31.65517421130958
79.82444611914708 70.97968073508372 31.49283150937966
79.64404421286287 70.80843713421935 31.32521105507067
79.45387153472315 70.65374985087239 31.152383778286804
79.25499122722341 70.51679713653033 30.974471258276076
79.0485514562579 70.39876453803157 30.791677785219132
78.83579208677064 70.30085081830306 30.60431095166093
78.61810464014887 70.22396026134463 30.412854410499246
78.39690457456622 70.16907853198508 30.21789004755882
78.17368591874067 70.13713491055546 30.020143669498022
77.95002690298075 70.12899695251822 29.820495000016265
77.72759976178041 70.14545577652407 29.619988055903942
77.50818230354645 70.18719623675236 29.41983932032048
77.29366751612956 70.25475796150909 29.22144233611201
77.08604183979078 70.34840404300257 29.026351386430882
76.88738603272081 70.46814510995402 28.836267513270126
76.69978392716152 70.61352663950161 28.652968172657907
76.52524280071894 70.78360421255898 28.478227958431834
76.36556815724697 70.9768902842741 28.313704282890363
76.22223325499021 71.1913760076309 28.160812357968787
76.09626838619452 71.42462734018983 28.020612243686788
75.98819599160097 71.67394198183119 27.893731705571557
75.8980282853049 71.9365378844692 27.780342573103916
75.825321660137 72.2097314660544 27.680188523378
75.76927098920159 72.491076301943 27.592651993344173
75.72882055472647 72.77844799803943 27.51684074160943
75.70277282034424 73.07007742611209 27.451677067814227
75.68987809132041 73.36454229323762 27.3959732672598
75.68893478601034 73.6607356717545 27.348509537299638
75.69880978700546 73.95780940444705 27.308046318424136
75.7183082803648 74.25512987146989 27.27325429995412
75.74642515784718 74.55224939703626 27.242882457173103
75.78235070109794 74.84884094755596 27.215721682950658
75.82517416548933 75.14468792140862 27.190490194425184
75.87417487281188 75.43963665421379 27.16597224167646
75.92879316649295 75.73355454941922 27.140941216999444
75.98840709866744 76.02634756279758 27.1141872292732
76.05252611654873 76.31790581081273 27.08452736189208
76.12075319394609 76.60807939920562 27.050748081149973
76.19267727723934 76.89669334132489 27.011702442585676
76.26792484693262 77.18352201037875 26.966297970078944
76.34615818004616 77.46827073274783 26.9134662938707
76.42706228611836 77.75055472132314 26.85212729803372
76.51028556524803 78.02994136988306 26.78136593453524
76.59547647489964 78.30592005641695 26.700332557720582
76.6822719581983 78.57789703548804 26.608237623258393
76.77028500334777 78.84520317013859 26.504380838651365
76.8591009356645 79.10709139096882 26.388146824482863
76.94827253054171 79.36272471899235 26.258987297498663
77.03732015848084 79.6112632530698 26.116584323067286
77.12574060555129 79.85179077503585 25.96068224542557
77.21300931462393 80.08335841034396 25.79116618933099
77.2985904380658 80.30500600963167 25.608077016387682
77.38195111557778 80.51578928772724 25.41162448131724
77.46257945768791 80.71481354298444 25.202197062363613
77.54000577442292 80.90127305368429 24.980365525994277
77.61382455844239 81.07449287338162 24.746876129730826
77.68371348103234 81.23396712193995 24.50262997170099
77.74944756260687 81.37939049857414 24.248650639781374
77.8109048872059 81.51067841569402 23.98604197414999
77.86804942861944 81.62792691060629 23.715919362926822
77.9209566828003 81.7315288230233 23.439427181744453
77.96976520934012 81.82205896023741 23.157639521134346
78.01465399157556 81.90025358328779 22.871536232371263
78.05581825177045 81.9669853994257 22.58198583259006
78.09344267846424 82.02322689390385 22.28973400398796
78.12765922144163 82.06997138367203 21.995393544784342
78.1585613654255 82.10830873330126 21.699473202474852
78.18618243465856 82.13936718457136 21.402375177605293
78.2104537322394 82.16421885574172 21.104399699694984
78.23118669521546 82.18388097223398 20.80576853162759
78.24811252541552 82.1993802964614 20.506651980684477
78.2608803096357 82.21170197236901 20.207181213210653
78.26901947028277 82.22175088240745 19.907463997680274
78.27191820910492 82.23037383004785 19.607606378091532
78.2689436110815 82.23838513105672 19.30773383530079
78.2593882168442 82.24652827494211 19.00800402996686
78.24247570024686 82.25548835076945 18.708624278801377
78.21739660529914 82.26589760317175 18.40986635168452
78.18328114995873 82.2783502234492 18.112085863027023
78.13941368063034 82.29335630103333 17.815706781440454
78.08508074583142 82.31138165935258 17.521239173036868
78.01966597457856 82.33283538129689 17.229268125803536
77.94268117741781 82.35806840595228 16.94043994094068
77.85379013713533 82.38737325167692 16.655442106471956
77.75282314721973 82.42098533969639 16.374978877751484
77.6397793095896 82.45908589637125 16.09974573582992
77.51477042121408 82.50182614984108 15.830432305646081
77.37813731351777 82.54928101673678 15.56763498699877
77.230305965524 82.60150117349728 15.311897669871465
77.07178390368692 82.65851173210031 15.063697649031425
76.9031391235432 82.72031629815633 14.823442840516828
76.72497475203323 82.78690237537401 14.591477270581661
76.53790249475463 82.85824851483727 14.368095526820492
76.34248553896717 82.93435315994313 14.153604393521297
76.139393947187 83.01513725185913 13.94814504462588
75.92921406623505 83.10054702987895 13.751891001694231
75.71251017307826 83.19051858428709 13.56499143400766
75.48981212390608 83.28498630677663 13.387595190628288
75.261618367014 83.38388372407437 13.219860013349237
75.02847178669609 83.48707718680343 13.06180407835108
74.79085406947866 83.5944518431263 12.913491186150027
74.54923098582223 83.70587886756971 12.774958362165384
74.30404374627349 83.82122768957376 12.646242577172368
74.0557305147675 83.94034505316597 12.527323935970571
73.80473313732949 84.0630397566447 12.418070097002278
73.55146012502614 84.18912796049791 12.318345006045083
73.29630291880763 84.3184142324377 12.227950082890022
73.03963292414659 84.45069377100575 12.146616651123999
72.78179355955365 84.58576969479923 12.074044702974676
72.52311284051639 84.72341672388296 12.009768723270987
72.26388275608844 84.86342313341683 11.95326699595515
72.00436145329004 85.0055930106289 11.903954225863695
71.74477443554052 85.14974885232098 11.861176332426009
71.48531558359682 85.2957376721364 11.824222599722825
71.22615155846573 85.44344284200909 11.792361384300065
70.96742222187603 85.59276841520561 11.764803179064469
70.70924445468812 85.7436498217019 11.740763343607552
70.45171897756404 85.89605529813136 11.719493156507973
70.19493270512811 86.04997566466993 11.700288889164186
69.938960564064 86.20541668669405 11.682513027637873
69.68386844084947 86.36239485984083 11.66561432949985
69.42970527856035 86.52091721547251 11.649138067160546
69.17649871722412 86.68097166646993 11.632745360480666
68.9242570819709 86.84252905641476 11.61622017461259
68.67296188426998 87.00553148638906 11.59946693740282
68.42256388076528 87.16988762311449 11.582505642022223
68.17298086854218 87.33547029258867 11.565460380294494
67.92410074528777 87.50212092235006 11.548544817886642
67.67577215960499 87.66963309071893 11.532037511078883
67.42782117158143 87.83777323484694 11.516254667843137
67.18005403576454 88.00627926733065 11.5015229019235
66.93226416752137 88.17486495083558 11.488149502341248
66.68423958075587 88.3432257672465 11.476394916513573
66.43576559762684 88.51103983011231 11.466457074274782
66.18664383537386 88.67799195853928 11.45840264562259
65.93668924133834 88.84377353155382 11.452185571432727
65.68573626091467 89.00809397016926 11.447616231395932
65.43363212231729 89.17067426506688 11.444353899675082
65.18026406709109 89.33129147682025 11.44186591575049
64.92555000060247 89.48976635042082 11.439451817878401
64.6694383554773 89.64595760588348 11.436236421094527
64.41190490858169 89.79974078426227 11.4311294756623
64.15300972311057 89.95107929822836 11.422887784156963
63.89287247824117 90.09994624012162 11.410081998851991
63.63170891892473 90.24633026987271 11.391097591268759
63.36986621534964 90.39021965765039 11.364131625692153
63.107870373752384 90.53159146761529 11.327229486051905
62.846465488219245 90.67040886955193 11.278421527967602
62.586651927791486 90.80658056867664 11.215700304821723
62.32971249855183 90.93996736584447 11.137186447982398
62.07719803299758 91.07039023752054 11.041291647446815
61.830876232271784 91.19764994225234 10.926853928832141
61.59259695728898 91.32157982208703 10.793339582171765
61.36407954754672 91.44211248600463 10.640988173815867
61.146805032259735 91.55930324770047 10.470642373820755
60.94188258644654 91.67336548925617 10.283669812531222
60.750003499947 91.78467160075252 10.081780296591685
60.57147144142416 91.89372809576437 9.866830917154303
60.40628492808291 92.00113588887267 9.640664415229946
60.254240993558085 92.10754751341503 9.405001058463505
60.11503566915336 92.21362891176274 9.161382360327812
59.98839185692298 92.32003199093724 8.911134726098748
59.87406987067343 92.427375485866 8.655414348952323
59.77180262558822 92.53620528421325 8.395255319397817
59.68149914649445 92.64699288216222 8.131517981870113
59.60323726531325 92.76013266606896 7.864944992605643
59.53717650431395 92.87591169924056 7.596212365354062
59.483452921788626 92.99446863183346 7.325947619582709
59.44236041064453 93.11582839897865 7.054713416548062
59.41425658599929 93.23987868718845 6.783039463374449
59.39956593699274 93.36636636840953 6.511434396505778
59.398528975737385 93.4948631351034 6.240380419477922
59.411441827635464 93.62482716811492 5.97033517638005
59.438535973564676 93.75559866361219 5.701734959608193
59.47996248751767 93.88642203099754 5.434994785795556
59.53578254809641 94.01647085783908 5.170508866872029
59.60596413180167 94.14487294350727 4.908651634701587
59.690399540425894 94.27072993561762 4.649783323764217
59.78890185677217 94.39313400601758 4.394251905842359
59.90113583267174 94.51121042227773 4.142374095393635
60.02672614054445 94.62410764641133 3.894459577537365
60.16522157540176 94.73101797163396 3.6508015147255053
60.31609942788989 94.8311898348532 3.4116741446348433
60.4787708133774 94.9239394389126 3.1773294701725
LINES 1 239
238 0 1 2 3 4 5 6 7 8 9 10 11 12 13 14 15 16 17 18 19 20 21 22 23 24 25 26 27 28 29 30 31 32 33 34 35 36 37 38 39 40 41 42 43 44 45 46 47 48 49 50 51 52 53 54 55 56 57 58 59 60 61 62 63 64 65 66 67 68 69 70 71 72 73 74 75 76 77 78 79 80 81 82 83 84 85 86 87 88 89 90 91 92 93 94 95 96 97 98 99 100 101 102 103 104 105 106 107 108 109 110 111 112 113 114 115 116 117 118 119 120 121 122 123 124 125 126 127 128 129 130 131 132 133 134 135 136 137 138 139 140 141 142 143 144 145 146 147 148 149 150 151 152 153 154 155 156 157 158 159 160 161 162 163 164 165 166 167 168 169 170 171 172 173 174 175 176 177 178 179 180 181 182 183 184 185 186 187 188 189 190 191 192 193 194 195 196 197 198 199 200 201 202 203 204 205 206 207 208 209 210 211 212 213 214 215 216 217 218 219 220 221 222 223 224 225 226 227 228 229 230 231 232 233 234 235 236 237

POINT_DATA 238
SCALARS curvature float
LOOKUP_TABLE default
0.2381440931463208
0.22561686716544252
0.21234942890474154
0.19901166973014547
0.18616169249733636
0.17424126616973684
0.16358949566124995
0.1544587111948352
0.14703498600433096
0.14144377570570948
0.13777590427436798
0.13603941453390941
0.13620140458953736
0.13818711287839805
0.14188390391635503
0.14711471849908994
0.15366342818024012
0.16129545375943555
0.16973356078532917
0.17865872261934476
0.18773810848570766
0.19661953314508396
0.20496175106913617
0.21243652381599842
0.2187959623019594
0.22387163735049467
0.22760836071787038
0.23005738803482817
0.23133724616167847
0.23161431180936798
0.23109915413065973
0.23001543638619754
0.22854415289274127
0.2268102996944763
0.22488389049851568
0.22279297373664791
0.22053058262595507
0.21808167713305843
0.21543640092039457
0.21262114038650093
0.2096889061499988
0.20673872614395383
0.20389567471915745
0.20130908211569398
0.19913531694426823
0.1975139403130651
0.19658236185707267
0.196419651458775
0.1970890508953059
0.19859083666145008
0.20091286027268548
0.20398961740520097
0.2077360376724182
0.21205260022794353
0.2168322079288217
0.2219663338027299
0.22735694520639563
0.23296320236502605
0.23879606259414407
0.24492247128550151
0.2514525988016526
0.25852112258562493
0.26625791348568606
0.27473419314874364
0.2839142951279272
0.2935923119906699
0.3033460942259585
0.31251743296780604
0.32025662687845285
0.32556304668128433
0.3274560302269423
0.3251263141266666
0.31817305648133903
0.3066522078098826
0.2911390585962115
0.2724909691011529
0.25171002717794866
0.22975546625805204
0.20749070797913888
0.18556406693839814
0.1644279485477271
0.14439789162945416
0.12572753206236245
0.1086341413524354
0.09336418694572109
0.08033801915642075
0.07007748034946326
0.0632915275425426
0.060624374606164544
0.062083994840575606
0.06700375523181162
0.0743882007205843
0.083275334794361
0.09296416337813783
0.10298773615255205
0.11304136583943486
0.12293509560602324
0.13255765193412428
0.1418505379893757
0.1507771337165418
0.15931189674794344
0.16740633638884195
0.17498994601758674
0.18194160307020427
0.18809645829431237
0.19325926901749396
0.19719136118754105
0.1996283200196885
0.20031337989711293
0.19907843489237181
0.19581804386369106
0.19054442160887103
0.18334994007179534
0.17444266762451122
0.16409148035038404
0.1526235422858115
0.14036955432391304
0.12767398199449967
0.11487115551044721
0.10229777759010504
0.09032036433653466
0.07934866464777703
0.06991372566006022
0.06268964203347467
0.05842791663153687
0.0576628898093282
0.06042066228365218
0.06617857560873967
0.0740922346770205
0.0833848893789528
0.0934271984144946
0.10372614194186044
0.1138726942723737
0.12351165709491904
0.13232364608887623
0.14002785199340306
0.14641479186442904
0.15133806739483402
0.1547556279933758
0.15669928863710825
0.1572944167223605
0.15672899719004185
0.15524162710546205
0.15307862792955115
0.15047889308066445
0.1476530636274849
0.1447687302133955
0.1419513824787081
0.13927569523052055
0.13677613129856228
0.13445160097491227
0.1322743189760237
0.1301949937661682
0.12814870311113763
0.1260589920454767
0.123841626396172
0.12140439081500425
0.118651036177163
0.11548794783930226
0.1118213751467668
0.107566467369205
0.10264845247607284
0.0970153273412596
0.09066533522223773
0.08363250591469375
0.07601093458335106
0.06793344342239857
0.059602472083279456
0.05126333504619021
0.043231846851071024
0.035878087053552395
0.029623400276110094
0.02489867273358297
0.021950147148976452
0.020605568502906547
0.0202144406324204
0.02001133660048287
0.0194481492693835
0.018263449514702004
0.0164837071559704
0.014419705071449504
0.012742711897925271
0.012389420795172534
0.013869015680193504
0.016708229233962965
0.02006483367346578
0.023271255198708773
0.025873761922562563
0.02759581417150626
0.028345137117266942
0.02827549921359759
0.027923251313873902
0.02839797639423221
0.03121084699400149
0.037564085136885104
0.04775909852884174
0.06136186134301369
0.07787152936475397
0.09679526338815625
0.11764076052358573
0.13978532527684318
0.162400413759574
0.18443327720560918
0.2045547230450566
0.2213208895959261
0.23330819112531356
0.23958595409277816
0.2398640148891682
0.2346146462658252
0.2248864809771675
0.2121873118296577
0.19806393804049088
0.1838900569421063
0.17076769769006753
0.15951169762473086
0.1506707039809003
0.14447813085525113
0.14088823919708615
0.13961584499242075
0.14023311437756086
0.14222022417684155
0.1450483942150289
0.148267609875081
0.15151225529871573
0.15451896090138484
0.15713703476905494
0.15929995872424152
0.16102554255114318
0.16236863140409138
0.1634115955829255
0.16423426948833278
0.1649015448273887
0.16545784506090302
0.16591690735264622
0.1662738588877306
0.16650150932055938
0.16656523018930966
0.166424809412592
SCALARS torsion float
LOOKUP_TABLE default
0.13105770260764313
0.1470439626699203
0.1642133754295473
0.1824403613451692
0.20151196552354675
0.220779712332433
0.2393827953542643
0.25597363259883693
0.26896826423936354
0.2767906254830254
0.27802369110095854
0.2721262588431202
0.25942313914619985
0.241111788540968
0.2190561467428791
0.1953655344478955
0.17198409052468636
0.15031281317431386
0.13140381814144605
0.11566321806121761
0.10328311770175765
0.09416090747336783
0.0880610396406198
0.08475188453335486
0.08373650578269216
0.08476023657863944
0.0871698588581457
0.09070355521174579
0.09475566161137917
0.09906529206873313
0.10281800854701201
0.10568539475285604
0.10714105190152153
0.10699839031983555
0.10512765264210708
0.1014978378058246
0.09645082631908274
0.09008780441242319
0.08314131660262991
0.0758082422094236
0.06899572734089687
0.06301886117967338
0.058814498178906896
0.05682481383353098
0.05750335427757566
0.06113995593117467
0.06743991585451403
0.0760696709449319
0.08610154767204975
0.09645913099267675
0.10624071178925872
0.11395515226114936
0.11939262900256067
0.12172064483582777
0.12116882798513469
0.11744046835208002
0.11103592117635157
0.10240470297978167
0.09191324799909026
0.08048427098071415
0.06839271222526248
0.05659113274156852
0.04532862691055308
0.035310383240366824
0.026758579395524267
0.019945676466659856
0.014950230951323753
0.011647966215744592
0.009957144528049423
0.009561390141639325
0.010333801650094508
0.012046102277062733
0.014673106293916742
0.01813438287805977
0.02255295249151935
0.02818348735094971
0.035434522565622684
0.04493076042460943
0.057528591778931465
0.07476253176958288
0.0986538976082597
0.13220255576706616
0.17973641567164297
0.2469040691453775
0.34059288178867697
0.46556959791722546
0.6130776570346269
0.7448543438879377
0.7959922020336964
0.7356354365548612
0.6059982176210346
0.46724689107237943
0.3520937165272605
0.2655593520439386
0.2031699086436156
0.15889980507320867
0.12731922503984613
0.10479877374262905
0.0884475949455742
0.07656226068000238
0.06754263031737645
0.060549183687578036
0.054584727079101836
0.049157305382575456
0.043821366031626015
0.03829084319071514
0.03241319580254755
0.02603577153602276
0.01947069652245082
0.012852201010617275
0.006701809686780939
0.0014511995431630191
-0.0022212081141635013
-0.003460081004932366
-0.0014185561135904312
0.005282324414527572
0.018046940051421545
0.039118542415855016
0.07147610858580364
0.11913886659606861
0.18775793370006522
0.2817619603898698
0.402478161284542
0.5346868342921046
0.637036057352397
0.6580148714707984
0.5872024589255022
0.4681612266980201
0.3487968564176512
0.25181198627112134
0.1799310828692937
0.12919246115904007
0.09444157431173737
0.07104602853335376
0.05590534442959702
0.04663530703550812
0.04170996051106546
0.03975576402734147
0.03987570373983553
0.04139036812657161
0.043763383705847786
0.0465751388296861
0.04937110754603532
0.05186915628762419
0.05369105412225118
0.05467368506189248
0.05463728858423812
0.053525635606857434
0.05145972646631326
0.048501626685153454
0.045039685474550395
0.04117441596760815
0.03734234185179782
0.03363184708170634
0.03027693466951514
0.027342768194242344
0.024897223932848572
0.022998587677348317
0.021721529468555913
0.0211806589717703
0.02173151798454505
0.023738951641004265
0.02802944288697564
0.03558937190059921
0.047725449835094046
0.0665776110837671
0.09479360339659054
0.13686192065238906
0.19897144733509714
0.28945409341452605
0.4168659154908351
0.5777560294305423
0.7334961862870443
0.7958869076475195
0.7037360617099362
0.5101695246684435
0.29380550258853777
0.08993714608478447
-0.11909508678456289
-0.3637047148561135
-0.6910041050945284
-1.0707431367526503
-1.2555444521937988
-1.0597955459519401
-0.761390997549119
-0.5567221280609481
-0.45248566216858305
-0.41910233230879096
-0.44222140989046516
-0.5183858643310173
-0.6565839206645354
-0.8506885443608475
-1.0367383290454224
-1.0705809794510805
-0.9115580540847216
-0.6869672845356279
-0.4998719292965691
-0.36814223011726
-0.2787736895947179
-0.21858597651452855
-0.1773141696452721
-0.14906341095069947
-0.1300192856186095
-0.11793829224732985
-0.11156204203353054
-0.11000618817412848
-0.11262068712510678
-0.11901861213945328
-0.1288492505714871
-0.14189545986788726
-0.15742499491670606
-0.17475970706435232
-0.19251373947261866
-0.20843112330069902
-0.21910241557852256
-0.22087659604269036
-0.2110598973865481
-0.18879061301066535
-0.1565707840156161
-0.11734831262292506
-0.07610550917180584
-0.03511110635383665
0.00260253878170963
0.036698219230698645
0.06609991468611814
0.09092034606559687
0.11101437259644792
0.12620782564470226
0.13720229586834856
0.14400058379571715
0.14753357036664463
0.14809413032440075
0.14650220546948112
0.14321224685956274
0.13867938710167588
0.13325638312239443
0.1271755642383101
0.120660648832661
