# vtk DataFile Version 2.0
00000408.nii_L_ICA_labeled
ASCII
DATASET POLYDATA
POINTS 268 float
102.03833169379566 73.71603070750051 36.534965210445165
101.80603146725437 73.8785306280237 36.437076818641344
101.56273498635612 74.02131089945168 36.33523152439307
101.31008524831928 74.14350889680819 36.22946019317731
101.04984921165695 74.24451295402525 36.11979081259455
100.78386061254342 74.32394229381995 36.00623925514665
100.51397588152126 74.38161576732078 35.88880355895878
100.24204419034152 74.41749228390532 35.76745834737626
99.96991356862888 74.43145325920783 35.64212316132493
99.69940518504795 74.42395793557444 35.512795646146095
99.43228735232344 74.39531400746391 35.37943661437283
99.17032952157972 74.34581066193168 35.242009455398524
98.91532248025682 74.2757649249485 35.10050726431394
98.66887346027764 74.18596360588276 34.95506048539287
98.43264345410438 74.07697612841058 34.80581396008284
98.20834146265804 73.94935469126311 34.6529802818334
97.99726516153717 73.80423199761167 34.496962212069846
97.8008659169354 73.64244190788801 34.33819336063408
97.62035888412346 73.46505103030292 34.17724048223405
97.45653488784671 73.27340929555288 34.01478233947653
97.31041938637944 73.0685677167297 33.85153739594607
97.1823617009097 72.85197181569411 33.68830055005329
97.07264853932037 72.62494144791293 33.52587474434288
96.98170423586957 72.38862555759772 33.365103089794644
96.90916612049924 72.14443533885905 33.20675751339554
96.85494878153635 71.89352120308273 33.051614517783676
96.81885379218603 71.63699656036874 32.90041725633499
96.80022909072696 71.37601305627071 32.75375307876319
96.79870019841103 71.11156064681066 32.612208919106465
96.813716630261 70.84460876358305 32.47624997115555
96.84444758129445 70.57609028834219 32.34613909947484
96.89029338566426 70.30684765018653 32.222104704595445
96.95045105667255 70.03767927579398 32.104167398279046
97.02392645108185 69.76929722783798 31.992120963867904
97.10990809531211 69.50234224184995 31.885693049397847
97.20743160933486 69.23736227681826 31.7843935753611
97.31539617190752 68.97478070086699 31.68752508634373
97.43283153912861 68.71495214015616 31.59430750260558
97.5587511967457 68.45814672119015 31.503817025382183
97.69202439565503 68.20449103205003 31.414981821659694
97.83164137867699 67.95407378055918 31.326696177360795
97.97665464294839 67.70696333366067 31.23778888268897
98.1260546940419 67.46314769528118 31.147065606929655
98.27888814339168 67.22261351339755 31.05335192416102
98.43426240548955 66.98538048694517 30.95549505427743
98.59133086517248 66.7515136700786 30.852383945734957
98.74929507416512 66.52116582386331 30.74292077104815
98.90739601502497 66.29450607743043 30.626203975426026
99.06494495710352 66.07182458827967 30.501372385708134
99.22131321941154 65.85350979423498 30.367665329968755
99.37593817977877 65.64005636494993 30.22442725111218
99.52832508368851 65.43206967068848 30.071108148845074
99.6780450307304 65.23026893865753 29.907260239951135
99.82472783238906 65.03549144742074 29.732530351501357
99.96803088694806 64.84873743294251 29.546600342640918
100.10766413903816 64.67108072286663 29.349317818699213
100.24334244599002 64.50375550709938 29.14058405265614
100.37477705000687 64.3481610472274 28.920385620925536
100.50166026068067 64.20587051699081 28.688821988569778
100.62364146709504 64.07864006359338 28.44613603696407
100.74030274183289 63.96841229181766 28.19275765611977
100.8510327999117 63.87765615402071 27.929213438866604
100.95527577998857 63.8084496243672 27.656658608640193
101.05223972317243 63.763327029067426 27.376487260591222
101.14089927591628 63.74513909597513 27.09059891591079
101.22030594783178 63.75593068642972 26.80165665162454
101.2892437139911 63.79796005106344 26.512896150470493
101.34653119216587 63.87267653617426 26.228251634552336
101.39116286032831 63.980409052919235 25.952068830659375
101.4222354287694 64.12067481138702 25.688945409469852
101.4390938440247 64.29192133093588 25.44345118363796
101.44143144919943 64.49150120840909 25.219761004227927
101.42938937597138 64.715781966798 25.02120353346244
101.40333769310904 64.96079534443784 24.85042426547346
101.36389219787273 65.2223500497643 24.70928437968691
101.31174951040943 65.49632090514443 24.599207026651076
101.24793053481119 65.77852089374379 24.52054871615047
101.17356769650571 66.06508380624041 24.473028969967217
101.0897059170893 66.35249638308929 24.45641371885957
100.99770914212908 66.63761622292562 24.469178136806292
100.89879396398024 66.91775473263989 24.51000796533227
100.79430648488402 67.19082614903262 24.576732308368527
100.68544121699664 67.4551372559423 24.667477072559635
100.57344522191705 67.70981416612008 24.77950471234568
100.45938188424266 67.95439485668189 24.910402914855077
100.3441909307363 68.18880981840383 25.05789263591145
100.22869374854886 68.41366205559513 25.21938412417548
100.11354450697847 68.62976864928861 25.392651902179452
99.99926297786779 68.8382178608483 25.575618732314258
99.8862466382317 69.04030941511284 25.766350851045647
99.77478360119393 69.23749531235532 25.963047055289408
99.66506680212316 69.43133075259114 26.164014710231474
99.55721080006029 69.6234374093144 26.367635351126786
99.45126885766874 69.81547488219805 26.57232412380865
99.34724680381464 70.00911520019227 26.77648525701988
99.24511292974118 70.2060154474958 26.978466059948932
99.14480507087025 70.40778192116385 27.176514756160827
99.04623877453083 70.61592117958334 27.36874899461597
98.94931957965953 70.83179635721625 27.553117779317304
98.85395632218759 71.05660203236502 27.72732932979144
98.76003855521984 71.29106726136993 27.889129849712933
98.66748668883343 71.53560057999316 28.036118726482094
98.57626517685367 71.79031304929791 28.165584115559252
98.48632755106527 72.05452471355267 28.27539030249469
98.39767675902266 72.32720704523089 28.363331482315555
98.31033999943166 72.60681274274025 28.427655547160132
98.22437475683428 72.89140853459547 28.46710196901269
98.13987712266638 73.17883373010655 28.48078136852667
98.05697726455432 73.46677490742513 28.468300951215767
97.97584611180618 73.7528971784494 28.42968402784817
97.89670948618729 74.03489080849161 28.365217165519265
97.81982993160157 74.31057262148019 28.27560812929882
97.74552993240347 74.5778439505519 28.161649707794997
97.67415697600575 74.83479247031764 28.024441796895967
97.60608406357237 75.07966111831064 27.865227907172912
97.54170287623668 75.31082684210858 27.685330630084472
97.48133681062731 75.52706919816725 27.486475581840423
97.42535191351735 75.72710078994935 27.270133266233
97.37390270336495 75.9104424224213 27.03841625953434
97.32719625409823 76.07639060677589 26.792982830166082
97.28520472443152 76.22503968502991 26.535881728694783
97.24782105503269 76.35669205844934 26.2689790714778
97.21492269905008 76.4716152655379 25.993875401136844
97.1861504560547 76.57087892454267 25.712284604634718
97.16114504077157 76.65550362799715 25.425592094734313
97.13951163275927 76.72662647676665 25.134976069526058
97.12083776922724 76.78547111134152 24.841418343050837
97.10466802627649 76.83351275777616 24.545748829662926
97.09060044720874 76.87212486103891 24.24858949884606
97.07827119906956 76.90268536755158 23.950413671305657
97.06737163964732 76.92655506028356 23.65156901504062
97.05766621608275 76.945043690383 23.352299869119587
97.04898969720185 76.95945356585293 23.052773604673337
97.04125758445191 76.97104325021735 22.753098166867858
97.03447936519683 76.98099232162767 22.453340142669177
97.02875926052286 76.9904182684971 22.153543024766332
97.02429981819049 77.0003684331264 21.853741665088748
97.02142436524444 77.01183793675769 21.5539757782216
97.02052100279401 77.0257012586722 21.254299555791896
97.0220711771528 77.04273942947886 20.954790825967045
97.02662888585829 77.06363960336824 20.655558502133086
97.03486319820283 77.08905583719692 20.356756012174763
97.04736776948897 77.11938822975168 20.058562744288484
97.06479335602636 77.15497320728436 19.761199194153622
97.0878796390775 77.19611543205156 19.464941645869956
97.11714976662833 77.24281747829622 19.170059702005762
97.15314001827412 77.29504172210132 18.876852860873477
97.19644371493672 77.35273437788527 18.58566773469786
97.24732036259759 77.41555906851211 18.296779569564357
97.3060840099103 77.48320661976 18.010488504663893
97.37303778478818 77.55533071130849 17.727103288125296
97.4481818510981 77.63141360492833 17.446824190657967
97.53156909006744 77.71097577095605 17.169860861456456
97.62332559702034 77.79355580430177 16.89644952270105
97.72328780044312 77.87859405174058 16.626693631389237
97.83139288460995 77.96558566083067 16.360727054057595
97.94759326597064 78.05403923003954 16.098684237391847
98.07187147631166 78.14347532776806 15.84071304613726
98.20407425377672 78.23342042090555 15.586892307490169
98.34414678341379 78.32343931410176 15.337354845023038
98.4920485146711 78.41312130620817 15.092252374054926
98.64783577369592 78.50207015859944 14.851812528624237
98.81142516156302 78.58993242045287 14.616204923618305
98.98279357462798 78.67638943687254 14.385662544343258
99.16193089034273 78.76116161425851 14.160462165414955
99.34886883217048 78.84400157489317 13.940955115513397
99.543566755312 78.92472624187955 13.727490349099043
99.7459000856718 79.00322895801402 13.5203941078002
99.95575834056852 79.07945380465824 13.320045180896951
100.17305932996479 79.15339273012248 13.126903657750557
100.39755163945935 79.22515333054127 12.941314267208883
100.62893043535736 79.29492501696298 12.763591237346251
100.86689738844244 79.36295975039397 12.594082469278852
101.11112381946067 79.42958470991083 12.43313263984776
101.36110824774514 79.49522166143574 12.280850929942666
101.61639388151083 79.56032662992443 12.137388075784944
101.87656509839373 79.62540665647423 12.002974935357129
102.14103295601588 79.69100030555902 11.877494168404553
102.40927711761344 79.7576513784822 11.760898602093324
102.6808076281059 79.8259231697116 11.65318396945999
102.9550831671828 79.89633740624431 11.55415320402834
103.23158663242098 79.96937121097756 11.463574611033165
103.50984160800303 80.04547646602857 11.381262194664897
103.78939450508413 80.12507021785929 11.307043890565117
104.06979876764653 80.20842655049982 11.240572680531724
104.35066233730903 80.29578254415843 11.181595694520757
104.63162765520882 80.38733771440322 11.129921496615427
104.91237162405356 80.48317235201755 11.085282131987425
105.19261721165151 80.58328031597776 11.047399945989833
105.47212783830183 80.68761697438805 11.016055471778888
105.75069423163659 80.79612369016158 10.991111184695686
106.02816085486981 80.9086170274623 10.97232996415261
106.30440476148003 81.02489524747124 10.959519201024786
106.57932755367395 81.14474700050697 10.952520980474016
106.85283518509641 81.26798751960142 10.951253604554996
107.12488072409904 81.39435741131774 10.955515877384789
107.39541850397356 81.52363602538524 10.965151992751649
107.66440566786518 81.65562870777941 10.980010871791919
107.93177721556039 81.79020302766652 10.999995239748614
108.19751302732368 81.92718715569941 11.024835023873408
108.46156868903508 82.06648416050054 11.054303529704791
108.72388986730203 82.20804475949288 11.08815555984646
108.98442058050995 82.35185780217313 11.12609651901206
109.24313533989464 82.49791386893521 11.167718755724612
109.49999573676939 82.64625912287046 11.212605661852127
109.75494821208603 82.79699638281332 11.260314653773115
110.00798893635928 82.9502009663519 11.31028953998954
110.25911621646836 83.10597270560265 11.361953102061241
110.50832434159173 83.26443930733491 11.414703719347788
110.75561392456079 83.42573742742489 11.467899058622582
111.00102702838058 83.5899482582228 11.520871305385219
111.24458849065172 83.75717368317792 11.572950343918329
111.48630081278252 83.92754105655202 11.623434500911126
111.72619862973744 84.10109818822816 11.671653975638538
111.9642950557645 84.277892030061 11.716950936421489
112.20057474219558 84.45797402545195 11.75866253497857
112.43498752343572 84.64140136509387 11.796105872435408
112.66749457174454 84.82814581291925 11.828712781248726
112.89800264683878 85.01820618290877 11.85589417182208
113.12636578022797 85.21159287540608 11.877039086569013
113.3524104167705 85.40828119757273 11.89159740794456
113.57594149756775 85.60820879964895 11.899103372713355
113.79670683083445 85.81132393154444 11.899073519151015
114.01438174152885 86.01758721317285 11.890976182069373
114.22863910238765 86.22689799990034 11.874418586300953
114.4391202398829 86.43913549295306 11.849054646338404
114.64541633668533 86.65417124497189 11.814534753117881
114.84703806194969 86.87187482882915 11.77045201416244
115.04353433632869 87.09204546766466 11.71657930372516
115.23443180826901 87.3144580290339 11.652720755684733
115.41921802851088 87.53886621691882 11.578680561546534
115.59729738650185 87.76500349356174 11.494205384308046
115.76815514042156 87.9925404164189 11.399234086484942
115.93127330979642 88.22111789641065 11.2937416565295
116.08610003696515 88.45034759978945 11.177697264679791
116.23198067572848 88.67980101409982 11.05099585443663
116.36841467230019 88.90900246087953 10.91375852704566
116.49488938079222 89.13744351681116 10.766112248046882
116.6108674148545 89.36457340916631 10.608181544905104
116.71567456042335 89.5897629361247 10.439999364150637
116.80898776077615 89.81239530012506 10.261939046800649
116.89037015357022 90.03179340141266 10.074271179995971
116.95930639876103 90.24719433655586 9.87722367642181
117.01552397209156 90.4578512411608 9.671215580247612
117.05886887553486 90.66301776302386 9.456731225455846
117.08911625447215 90.86185914311048 9.23419326205328
117.10621736490162 91.05355683942297 9.004117460237916
117.11040562997209 91.23740526936555 8.7671423736252
117.10184810683711 91.41262110669292 8.523827117144359
117.08080155799686 91.57841844930422 8.274739692363628
117.04788051085056 91.73425034049843 8.02055755257941
117.00364446985172 91.87951319502442 7.761868903057547
116.94859125045058 92.01347783367353 7.499187956902453
116.88361301927819 92.13579426972997 7.233115732095606
116.80949247970045 92.24599536855806 6.964153578910034
116.7270118208893 92.34357203888918 6.69275747994409
116.63699298429188 92.42800986077347 6.4193586514621925
116.54038645459845 92.49899330956924 6.144390063151775
116.43807975402727 92.55607198646864 5.86824718410956
116.33096106231648 92.59871404977072 5.591322514679468
116.21995090358392 92.62634990820297 5.314028444995891
116.10603992167349 92.63860721360436 5.036808182264591
115.9902010711362 92.63496877911035 4.760141593697138
115.87343920026433 92.61485877938922 4.484572615396863
115.75681199328697 92.57766552158222 4.210731907815314
115.64140396404842 92.52311325975762 3.9392990888363517
115.52832134986282 92.45083918874876 3.671049274690719
115.418690531101 92.3605970419264 3.4068391491124
LINES 1 269
268 0 1 2 3 4 5 6 7 8 9 10 11 12 13 14 15 16 17 18 19 20 21 22 23 24 25 26 27 28 29 30 31 32 33 34 35 36 37 38 39 40 41 42 43 44 45 46 47 48 49 50 51 52 53 54 55 56 57 58 59 60 61 62 63 64 65 66 67 68 69 70 71 72 73 74 75 76 77 78 79 80 81 82 83 84 85 86 87 88 89 90 91 92 93 94 95 96 97 98 99 100 101 102 103 104 105 106 107 108 109 110 111 112 113 114 115 116 117 118 119 120 121 122 123 124 125 126 127 128 129 130 131 132 133 134 135 136 137 138 139 140 141 142 143 144 145 146 147 148 149 150 151 152 153 154 155 156 157 158 159 160 161 162 163 164 165 166 167 168 169 170 171 172 173 174 175 176 177 178 179 180 181 182 183 184 185 186 187 188 189 190 191 192 193 194 195 196 197 198 199 200 201 202 203 204 205 206 207 208 209 210 211 212 213 214 215 216 217 218 219 220 221 222 223 224 225 226 227 228 229 230 231 232 233 234 235 236 237 238 239 240 241 242 243 244 245 246 247 248 249 250 251 252 253 254 255 256 257 258 259 260 261 262 263 264 265 266 267

POINT_DATA 268
SCALARS curvature float
LOOKUP_TABLE default
0.2605436970024255
0.2604072401080908
0.25911198523836776
0.2569446574061304
0.2542400300223923
0.25135115413544107
0.24860898134933623
0.24629981294627948
0.24463716520013806
0.243713740805501
0.2435341459869686
0.24400600957264545
0.24494962717273888
0.24614491703639294
0.2473495858027827
0.24826391020068192
0.24855754251685583
0.24795968507978225
0.24637902859991143
0.24381485177413753
0.24033367547139106
0.2360739159055148
0.23118480867905442
0.2257903076481674
0.22003528198390368
0.2140779678950628
0.20800268536893615
0.20177808687726106
0.19529448101246596
0.18837931483701054
0.18082225796649634
0.1724355203938915
0.1631371068164393
0.15290994206114522
0.14175522084075104
0.12975692252817736
0.11714774144652797
0.10429608497099416
0.09176919378014653
0.08036376301275816
0.07111519390990464
0.0652667873496567
0.06377894313188709
0.06672125508752441
0.07316571897576894
0.08179872346784109
0.09152060272777417
0.10157706665962492
0.11151231239074243
0.12109960240333069
0.13028523594887056
0.13915859835301464
0.14795265807097216
0.15700164850977835
0.16666250299856242
0.17723740221751919
0.18903960829793992
0.20239734471691706
0.21754831561070304
0.23465423981981628
0.25384629126718533
0.27515074595702366
0.29820107206595314
0.3222791424468008
0.34644523340244443
0.3696245907770083
0.3904629158403744
0.40766406687294415
0.4201173991506624
0.42703306916050576
0.4281793267060395
0.42447045183433413
0.4172629220933883
0.4077764077863379
0.3969134653569078
0.3851539277933446
0.37248669601637646
0.3587635773667112
0.3438568545540921
0.32752092222695817
0.3094405961730059
0.28944945831083413
0.2675419838385994
0.24389800656937446
0.2189651768015634
0.19328623318175533
0.16726115594730318
0.1410966679464999
0.11495632277157587
0.08911691475833147
0.06401151007798346
0.04089265042324631
0.025705178842539953
0.03244552247432997
0.05360527655636163
0.07839733588111511
0.10426270554848367
0.1303570725360654
0.1561556166228001
0.1812802886018789
0.20524642133845894
0.22731511398649623
0.24658524691780426
0.2624762882956819
0.27469822115893394
0.2833072982711442
0.2887516569987684
0.29160253841592937
0.29238508777836264
0.29162053831384027
0.289892929100656
0.28761069061955674
0.28495547185712955
0.2819344746343969
0.27833594553762475
0.27373728675184866
0.26771213994742504
0.26002523960788315
0.2505760842559287
0.23931930758688724
0.2263558252810787
0.21186616606557207
0.19605587588425472
0.17924452622640757
0.16184649953761385
0.14423923427577842
0.12670002150626872
0.10943731805940375
0.09263765966698864
0.07648302727255535
0.061132014193613214
0.04675187620503665
0.033716462065492024
0.023028914192602445
0.017581906280354557
0.02044464685288987
0.028437712343832598
0.0378824246742125
0.047482141964877274
0.05684029808489173
0.06576540220607174
0.0741010052730128
0.08172474602427163
0.08850719102789063
0.0943124041289913
0.09911812875847804
0.10291325286600979
0.10565786187180704
0.10735749923093604
0.10807152319093982
0.10793920664219034
0.10715189828112806
0.10593336635876895
0.10450337342663994
0.10304629244175591
0.10171478761840573
0.10065965615142933
0.10002498288687416
0.09990358174990906
0.10032766691064023
0.10129593826452322
0.10276963253822612
0.10466677716848591
0.10687480424937353
0.10924484099106133
0.11162421124173852
0.11387096217357671
0.11585732913935931
0.11745208742497652
0.1185215123657098
0.11898607076569533
0.11883656226324239
0.11809148802163241
0.11681985643513282
0.1151232111523933
0.11310501474662195
0.1108633407985799
0.10851637731554092
0.10619543790579754
0.10399247986375144
0.10195375527625211
0.1000808210752215
0.09834152853104307
0.0966704441148065
0.09498981600200393
0.09324628468726787
0.09139590641121094
0.08940267271055101
0.08724794391056256
0.08494019585459624
0.08251143663683737
0.08000937157201886
0.07748900264812024
0.07500218559693599
0.07257586857670191
0.07021885487473921
0.06790967536583416
0.06560250026237785
0.06324073850247516
0.060764281716826546
0.05812740627184248
0.055297499847057154
0.052273868496617304
0.04911494164473379
0.045937065768063993
0.042941974185364995
0.04042488013159824
0.038706080486560115
0.038088307250068704
0.03877160918323622
0.04076513840946943
0.04391596396586223
0.04797712832167187
0.05269148570543112
0.05784218915916013
0.06325978226517497
0.06881395546441332
0.07441244146767215
0.07999936967754084
0.08553780245942978
0.09100254103199083
0.0963782363187095
0.10163933422447656
0.10676340707996904
0.11173827786735678
0.11655576046014086
0.12121450512579812
0.12572181913633568
0.13008673178095861
0.13430471900327198
0.13837088419451862
0.14230199840589655
0.1461334101695059
0.14989685881083542
0.15362327015923244
0.1573335427500092
0.16102067749743565
0.16465680520234482
0.1682137818125786
0.1716583969594332
0.17493704734520255
0.17797052664365312
0.1806592945224587
0.18288182958438728
0.18450941466639015
0.1854533413278161
0.18569421547888149
0.18524448049567432
0.18413055221268518
0.18240931789021925
0.18020704768533388
0.17767850456452342
0.17503211492736118
0.1725242368596963
0.17038815512304034
0.1688210826656625
0.16800127433380146
0.16806977604654016
0.16913721876991683
0.17126432993849397
0.1744534473546105
0.17864090516475203
0.18372083195326805
0.18954409808764114
0.19591413925378948
0.20258236606985522
0.2092681384329036
0.215660025358957
SCALARS torsion float
LOOKUP_TABLE default
-0.07256504212534101
-0.08066748647115493
-0.0890881298102729
-0.09753975454614949
-0.10576937873226518
-0.11339954273986112
-0.11995067054226057
-0.1250585382337285
-0.12783662440776283
-0.12809051997111096
-0.12549527104855335
-0.11997782802774645
-0.1120001913254632
-0.10224990160051997
-0.09095541966893152
-0.07795819566406441
-0.06344855969763362
-0.04879441873267498
-0.03455418732534286
-0.020887021922040727
-0.008127222279905887
0.0037437225913172657
0.01421575083076062
0.023185765140205615
0.029618745042588268
0.03294890013633446
0.033154531610535526
0.030233720204324917
0.023773252596932224
0.013233355262333912
-0.0018663690340137967
-0.02028184074325007
-0.04266070805100983
-0.07027641103985813
-0.1054091745238035
-0.1511915694151376
-0.21124822319876854
-0.29225728397609835
-0.4009375048907763
-0.5405570298853931
-0.6997346154525264
-0.8286081322018307
-0.8498353871806049
-0.7432383588975143
-0.5756566419707774
-0.417332711831991
-0.29226724002304694
-0.1974126548869572
-0.12464838997562286
-0.06774244788306898
-0.023459458452890176
0.01213689945590096
0.03931007477276494
0.059166368424015146
0.07354516283180192
0.0840491879729584
0.09141177216391005
0.09426057453273572
0.0930170037327242
0.08898930192414496
0.08321327224637899
0.07609085960554647
0.0679817693815938
0.05919339403482326
0.05034908670552653
0.04142103944131104
0.03269351566495843
0.02433378192407073
0.016222203200529587
0.008381729126183648
0.0011314642716159764
-0.004710494323318687
-0.00918007959935773
-0.012252328096120809
-0.013850076989136012
-0.01365557103067363
-0.011755449362075062
-0.008498619373561554
-0.0038842826216760303
0.001812525434757435
0.008715410260908368
0.016646139072481844
0.02589674351478043
0.036701728644226043
0.0491114230036601
0.06464465224778558
0.08575183584545604
0.11765850858919186
0.17056129429805317
0.2704130468509564
0.5008821956661698
1.1947904404263074
2.960707070134976
1.9032182262949369
0.7277745496702184
0.36787348880464144
0.23186285774604073
0.16948990032684405
0.13695265068793194
0.11816803712605178
0.10649819947562987
0.09913042472033652
0.09442743588610678
0.09005364076595669
0.0850823245222789
0.07973649477786363
0.07362812450256517
0.06625343624755112
0.05734652899869019
0.04737539224050236
0.03727303513785897
0.027193683242328064
0.0183021974901366
0.010666692062303754
0.004682134593639542
0.0004195507346564153
-0.001840819929955537
-0.0018365476633851055
-2.8067375185045033e-05
0.0029828464989462514
0.007178647849146073
0.011894217170870428
0.017279634396763652
0.02233490651963183
0.026575442510646745
0.029623933504132414
0.03067769315882686
0.0282621132940259
0.019012087170329012
-0.0036495556399000545
-0.050131515343564755
-0.14816227616559127
-0.3763523846579829
-0.926412624150454
-1.6334764235744792
-1.1274863018291266
-0.4685073859949222
-0.16603337164052187
-0.02733197343750031
0.04429604010799339
0.08626163475214468
0.11285981379911715
0.12875237231870984
0.13729786056308899
0.14153921060718136
0.14309480149546658
0.14293436249585056
0.14307393533633223
0.14375252037193795
0.14503382711326046
0.14655640041953855
0.14851067827848902
0.1506698719376381
0.15235451262633262
0.1531675676324498
0.1525119496933557
0.14950198547572263
0.14343244058746937
0.1344143921419332
0.12283404159255634
0.10861191657801803
0.09128405262474061
0.07144665106369409
0.05025674472421304
0.028273869314590718
0.006334078276682954
-0.014928468283874556
-0.03596305097506322
-0.05757932532459792
-0.08032360326092702
-0.10258182920641355
-0.12407760159416581
-0.14494500418120107
-0.16499115933428216
-0.18408411697829816
-0.20139910071444353
-0.21650307842542946
-0.227867809140298
-0.23412623530996254
-0.23500108520734075
-0.2306155744863041
-0.22060455033121373
-0.20480205844114366
-0.1833659198570561
-0.1596533069435911
-0.13460462064720438
-0.10869522387017837
-0.08244959298975675
-0.05603064473779669
-0.03110926747973086
-0.007777243550190229
0.01179625516544603
0.026395249006438044
0.035752839207791494
0.03954323669699467
0.03687812530334966
0.02644202497643981
0.007203344366324177
-0.018451226880283104
-0.049951547908226576
-0.08844001899805648
-0.13557805109342266
-0.19374962060769485
-0.2620949849273196
-0.3426360036796153
-0.4328296258077735
-0.52408249760093
-0.6016463782082081
-0.6456958584145492
-0.6408069475783302
-0.5886244167694612
-0.508410107298829
-0.4229674378286901
-0.3447412891249281
-0.2776635307971855
-0.22164786874987938
-0.17529919664942709
-0.13712683820158328
-0.1052769970549708
-0.0793411997610573
-0.058374691077272875
-0.04108839922258714
-0.026548628473579805
-0.014342976706180652
-0.00489934800719222
0.002196614437646007
0.007413031977226186
0.011084062627164222
0.013531837814474834
0.015064722972591711
0.015807430422642484
0.01573418314163047
0.01490906576802463
0.013483555154934287
0.011555606813932631
0.009066040649108844
0.005859714176627752
0.0019728881849913338
-0.0024901022390884826
-0.007520184342206277
-0.013133307971685519
-0.01936997399479446
-0.02632474103166188
-0.03416020206718205
-0.04291596550365347
-0.051948541149328065
-0.061214893392556674
-0.07091651352942181
-0.08124685988979041
-0.09227633101933107
-0.10389743507163643
-0.116032842972804
-0.12795748643704402
-0.13917552727380714
-0.14957077701528365
-0.15888541179114177
-0.1664311479380605
-0.17139436955587486
-0.17337440717266586
-0.17238881394492694
-0.1685288479948105
-0.16240509677823836
-0.1546215458740194
-0.14562354836315258
-0.13596838040866463
-0.1259794269561493
-0.11601909251404217
-0.106279373148223
