# vtk DataFile Version 2.0
00001684.nii_L_ICA_labeled
ASCII
DATASET POLYDATA
POINTS 238 float
102.7588772249992 79.7162381635831 35.751421964169346
102.60686708900117 79.71286673411069 35.49294210817969
102.43266782129137 79.70291618529515 35.249029070490266
102.23890784097736 79.68573991533928 35.02075382688959
102.02840750016173 79.66077496289935 34.80857220801915
101.80412131649472 79.62761944603673 34.612215340281146
101.5687290414895 79.58589004654905 34.43106913463564
101.32465101377188 79.53522262231142 34.264249944823014
101.07403148090171 79.47524163507524 34.11073468497715
100.81875807806148 79.40551484293688 33.96948077668283
100.56052474741328 79.32550880182714 33.83949953104971
100.30091452081966 79.23478153447529 33.719701541353835
100.04138563253909 79.13275603854837 33.609173584852705
99.78336595464069 79.0187914671882 33.50709778999412
99.52833444801955 78.8921245026311 33.412786598823935
99.27776773647444 78.75221171946849 33.325506954235394
99.03323653828438 78.5984392978007 33.244681880460604
98.7964014962478 78.43029249862796 33.1697990029107
98.56900045734099 78.24742233409178 33.10039685494437
98.35281011257672 78.04971440523518 33.03604822073677
98.14958163404748 77.83734877346777 32.97634168459523
97.9609736164707 77.6108230677203 32.92086681770973
97.7884243609533 77.3709919470892 32.86918737475219
97.63310048206283 77.11900099800778 32.82084042461708
97.49584817675091 76.85622090227098 32.77533149189611
97.3771656372637 76.58416935477986 32.73213467166572
97.27722040620209 76.30442111709691 32.69070001906963
97.19589495778641 76.01852964413618 32.650463124561156
97.1328483092586 75.727969311697 32.61085426188099
97.08758084604848 75.43410090921026 32.57130499043496
97.05949376874227 75.13815768661561 32.53125142290266
97.0480689877624 74.84124779893511 32.49012006264433
97.05254937166039 74.54438314135193 32.44734826446618
97.07224499608 74.24846374697083 32.40237121535209
97.1065273881155 73.95431285561071 32.35460766451311
97.15494387747877 73.6627363804613 32.30340915618621
97.21678749155534 73.37445783247433 32.248160857737666
97.2915009752721 73.09019971627019 32.18818731464316
97.3785636562846 72.81069672245957 32.122760605143775
97.47753446420197 72.53675245732504 32.05105550271695
97.58779832281263 72.26913739718326 31.97228611511726
97.70876850528707 72.00868874248205 31.885616903582676
97.83981553166305 71.75630060115994 31.79020099898605
97.98022027169924 71.51290070586147 31.68523045035083
98.12914857155826 71.27941811078871 31.56998857829705
98.28563481260588 71.05673159523242 31.44390870441176
98.44858058135324 70.84560138483229 31.30662972698844
98.61677403833532 70.6465939224579 31.158036304895248
98.78892968829518 70.46001517817086 30.998271174058615
98.96374256720352 70.28586863922537 30.827714979945394
99.13994505519705 70.1238514069188 30.646934540382745
99.31635388888685 69.97338950007591 30.45661247811852
99.4918980434493 69.83370628699119 30.25747102992435
99.66561157157919 69.70394810193577 30.050170579898296
99.83662510518498 69.58318966735085 29.83532165193707
100.00416885963192 69.4704878811235 29.613473595538593
100.16750246151287 69.36504579553865 29.38501206674428
100.32579529185107 69.2662981291284 29.150101455836097
100.478334134436 69.17364483316328 28.908984917849274
100.62420210883232 69.08683505990102 28.661647080810287
100.76238392421018 69.00579067774515 28.408023197220885
100.89182029469177 68.93059250698965 28.148067403063973
101.01104678191975 68.8617065763925 27.88156709426312
101.11858767707612 68.79972774238088 27.60849079370173
101.21265530841217 68.74557364334399 27.32886657129353
101.29115024494685 68.70048147050274 27.04291247430701
101.3517181272907 68.66598330937055 26.751197968920305
101.39183629457992 68.643861163907 26.454811037532895
101.40898791168999 68.6360422408816 26.15552260716657
101.40093215938438 68.64442152094675 25.85589276551879
101.36604406637886 68.6706235468457 25.559246645634385
101.30343976797292 68.71589849077172 25.26954621469396
101.21370575711916 68.78058072056548 24.99087908893996
101.0986795203356 68.86416671419448 24.726911387615274
100.96088558752172 68.96568243512158 24.48071143891997
100.80365190360929 69.08353487516156 24.254206346373472
100.63043678145903 69.21597734706776 24.048338546403922
100.44449841715998 69.36136709595996 23.863337370089283
100.24881506116168 69.51823119333523 23.698874051360175
100.04602316675806 69.6853315497713 23.55427596338878
99.83841487702911 69.86172144713657 23.42878291109683
99.628040241518 70.0466696112295 23.321530577570332
99.41674371534823 70.23957311358677 23.23146864372083
99.20619657721666 70.44010762349029 23.15778724102501
98.99801277395076 70.6480981072143 23.099703403663433
98.79369641985298 70.86335942213945 23.05619455111933
98.59485303115433 71.08598769112163 23.026620784284678
98.40300178039078 71.31597021217044 23.009990848487583
98.2197112376118 71.55337199430964 23.005374125290036
98.04680376946204 71.79839229590294 23.011955492492014
97.88585725640247 72.05096872385634 23.028484353667864
97.7386266892455 72.3110739033978 23.053759183338798
97.60688966400697 72.57855955805589 23.086417465578016
97.49242632509078 72.85311893297926 23.12491902620842
97.3966612505989 73.13415207020043 23.167489290550055
97.32089111528953 73.42088208130721 23.212259613570783
97.26607617467752 73.71230538908489 23.25726186280206
97.23276479361202 74.0072248862774 23.300495689389308
97.22105275791513 74.30430777139215 23.340004092793905
97.23058869991674 74.60215779249698 23.37394345960033
97.26062356487068 74.89938680225745 23.400636496431403
97.31009863393527 75.1946707201763 23.418597410158583
97.37784563221823 75.48675401890785 23.426463111473844
97.46235016090563 75.77452371168344 23.42317081157993
97.56217460009546 76.05694275352968 23.40775148907911
97.67590846539858 76.33302541570559 23.379339844744337
97.80221781429141 76.6017810722915 23.337120210732422
97.93990229427985 76.86210738504124 23.280216219552642
98.0876503680809 77.11294559478422 23.208025304027398
98.24431597246766 77.35302741686229 23.119853258204007
98.4087743262455 77.58090341547727 23.015062546612782
98.57988179100462 77.79492691901514 22.893125089784967
98.75643299655728 77.99327114580755 22.75370190822025
98.93712560569462 78.17399224511279 22.59674331836722
99.12054322147814 78.33514839062316 22.42259232348065
99.3051697978972 78.47497090517008 22.2320641146126
99.48944066159648 78.59206421169193 22.026468036003248
99.67182694132445 78.685592377572 21.80755096823803
99.85093378831239 78.75540192486507 21.57736015389567
100.02558646903074 78.8020487648538 21.338055219607455
100.19488026966029 78.82672391058512 21.091713025580336
100.3581859048326 78.83110823011157 20.84017020020321
100.51511595720036 78.8171970286762 20.584926705657605
100.66545532351601 78.78711161350937 20.32710884060993
100.80908018074707 78.7429629779566 20.067484700625553
100.946011921755 78.68697661948991 19.806523998041882
101.07624921465172 78.62118082570159 19.544420864449343
101.19972765224475 78.54744863661145 19.28115586062196
101.31636778840434 78.46760851772225 19.016554448993976
101.4261079589293 78.38343521442827 18.75034746166765
101.52874444086574 78.296564799962 18.48217926451913
101.62401663216797 78.20861343432098 18.211656858305155
101.71173657953437 78.12115856519696 17.93843426844507
101.791633599735 78.03572051741261 17.662192055605885
101.86342202332355 77.95380469399495 17.382677836796216
101.92692624705342 77.87684653064888 17.099773281374354
101.98211092903234 77.80615621096943 16.81351093728566
102.02906245188045 77.74292638422038 16.52405467568644
102.0680665078248 77.6881697045951 16.231706976253616
102.09963453546797 77.64267751637944 15.936883697795434
102.12451083861589 77.60699150242252 15.640075366083908
102.14365916753081 77.58139411875912 15.341802379896246
102.15823188205935 77.565919460591 15.042572878094186
102.16952582977352 77.56038945857921 14.742850508863313
102.1789412189101 77.56446549213234 14.443038188853704
102.18794409571211 77.57761613127322 14.143472978141757
102.19800435652877 77.59925369924329 13.844433981501906
102.21057163919633 77.62874594511354 13.546162091827608
102.22704694436042 77.66545273643878 13.248882942502085
102.24875783056306 77.70875706865819 12.952830944973211
102.27695401855257 77.7581037279198 12.658275730207917
102.31277836112592 77.81300399791894 12.365539873370691
102.35716357815954 77.87301573977562 12.074991006537838
102.41091238023213 77.93782683726913 11.78706859749868
102.47464716250744 78.00723324218464 11.502273218056324
102.54879917605726 78.08114159084973 11.22115678773412
102.63364798875833 78.15958594040134 10.944327961805566
102.72923183548775 78.24267884147902 10.672399107239931
102.83539263213957 78.33060766294922 10.405972017060773
102.9518556202864 78.4236406338275 10.145653495865028
103.07821986774672 78.52209155331371 9.892031739444903
103.21398644305032 78.62629451475387 9.645669898056784
103.35860903327055 78.73659383593588 9.40712479321775
103.51147977271249 78.8532937505175 9.176914873712334
103.6719290005324 78.97660250668403 8.955476040239502
103.83932156094764 79.10667226294125 8.743236966932841
104.01303722706461 79.24355650791182 8.540580716551057
104.19248410244747 79.38719828058588 8.34783611242887
104.37710995624765 79.53742407517576 8.165267652462113
104.56643445737642 79.693978171946 7.9931242014188735
104.75998248570765 79.85642910495253 7.831460578880661
104.95735909002497 80.02428035473451 7.680281666591864
105.15822958475809 80.19696608357633 7.539504740238918
105.3623131209117 80.37386859167259 7.40895172594597
105.5693770072541 80.55434205831301 7.288352987729602
105.7792381507268 80.73774352140003 7.177385771038077
105.99173627756623 80.92343421510529 7.075622297695956
106.20672318736571 81.11080680675558 6.982535762193064
106.42407407661835 81.29931758358474 6.897587972399854
106.6436688470076 81.48848746591209 6.820207419020163
106.86538555609631 81.6779100609299 6.749803682565137
107.08910911843017 81.86725362262709 6.685823979961915
107.3146873168471 82.05626585382046 6.627635571552289
107.5419699566003 82.24477160711682 6.574666764412199
107.77080081557634 82.43266279421165 6.526382681876266
108.0010192393879 82.6198890200495 6.482288372303559
108.23247229742837 82.80644164007217 6.441959505452196
108.46499811522057 82.99235373238743 6.404980663547959
108.69845403758424 83.17767408235636 6.371012152909687
108.93272060430517 83.36245286465405 6.339782592156524
109.16770642792237 83.54672834319477 6.311083399362574
109.403359003173 83.73051000251081 6.284784009514609
109.63965852987694 83.91377547834463 6.26078856993896
109.87663090378997 84.0964548731954 6.2390680578455004
110.11434702461611 84.27842591864305 6.219652036947481
110.35291973416295 84.45951226060188 6.202618836934148
110.59250280142358 84.63947985766546 6.188098562037853
110.83327700238888 84.81804749626549 6.176249938144975
111.07543369551922 84.99490272118084 6.16724556304935
111.3191714562077 85.16970197000722 6.161285554332074
111.56467665565064 85.34209091569942 6.158577177771735
111.81210742871475 85.5117237242605 6.159323851646633
112.06158190738259 85.6782794436097 6.163719260688915
112.31316562244916 85.84148325949272 6.171936817821641
112.56684151816462 86.00116484977032 6.184079307086445
112.82253304128973 86.15723687722705 6.200215989337973
113.08009538330357 86.30972687299234 6.220355314752672
113.33932151055582 86.4587885275407 6.244436850759088
113.59995181658296 86.60470653498977 6.2723250451365535
113.86169136929736 86.74787960583272 6.303825910348291
114.12420383330029 86.88885944402845 6.338620979170458
114.38714387510015 87.02828821012336 6.376321914972597
114.65016144737871 87.16688900892275 6.416460794816355
114.91290599747771 87.30545022934723 6.458482795462182
115.1750204866735 87.44482019686382 6.501746624805649
115.43615767389277 87.58586273116133 6.545494293131448
115.69596909072764 87.72943938567228 6.588884473688397
115.95409781462878 87.87639513232526 6.630976117477799
116.21016804912804 88.02754353635551 6.670716900121434
116.46376834663272 88.18365776591767 6.706922515376122
116.7144850158522 88.3453586359858 6.73834574597047
116.9618475314746 88.51318004558446 6.763617873271967
117.20533422878546 88.68750914511735 6.781273266950396
117.4443643439441 88.86855490871497 6.789764424947961
117.67829218207785 89.05631625346841 6.787486374981965
117.90640370493345 89.25055302076572 6.772811440540295
118.12791731901522 89.4507623117788 6.7441368121812255
118.34199070656042 89.65616423137747 6.699945287722569
118.54773632753734 89.86570181101145 6.638879161184704
118.74424885253147 90.07806011151216 6.559824081066666
118.93064643037015 90.29171003943299 6.4619958514807845
119.10608923727925 90.50497241703661 6.34495714926577
119.26988571674418 90.71610302903593 6.20875495268755
119.42158978424318 90.92342929087626 6.053976564833492
119.5609987432435 91.1254612660931 5.881620282302902
119.68788637651072 91.320795430811 5.6926618507846625
119.80270045310233 91.50855310866591 5.4888768867366755
119.90577354376 91.6879827159279 5.27173483782043
LINES 1 239
238 0 1 2 3 4 5 6 7 8 9 10 11 12 13 14 15 16 17 18 19 20 21 22 23 24 25 26 27 28 29 30 31 32 33 34 35 36 37 38 39 40 41 42 43 44 45 46 47 48 49 50 51 52 53 54 55 56 57 58 59 60 61 62 63 64 65 66 67 68 69 70 71 72 73 74 75 76 77 78 79 80 81 82 83 84 85 86 87 88 89 90 91 92 93 94 95 96 97 98 99 100 101 102 103 104 105 106 107 108 109 110 111 112 113 114 115 116 117 118 119 120 121 122 123 124 125 126 127 128 129 130 131 132 133 134 135 136 137 138 139 140 141 142 143 144 145 146 147 148 149 150 151 152 153 154 155 156 157 158 159 160 161 162 163 164 165 166 167 168 169 170 171 172 173 174 175 176 177 178 179 180 181 182 183 184 185 186 187 188 189 190 191 192 193 194 195 196 197 198 199 200 201 202 203 204 205 206 207 208 209 210 211 212 213 214 215 216 217 218 219 220 221 222 223 224 225 226 227 228 229 230 231 232 233 234 235 236 237

POINT_DATA 238
SCALARS curvature float
LOOKUP_TABLE default
0.3191178842641197
0.307084564590044
0.29062715120223026
0.2713399321392599
0.2508780275880928
0.23070431628841487
0.21196635936475858
0.19552266623671888
0.18200476019533143
0.17187149658725412
0.16543540985596888
0.16276235244385903
0.16371998381478217
0.16796435464797138
0.1749570459838318
0.18398327164522044
0.19426418649005908
0.20496845860833807
0.21524761534899464
0.22426698737744652
0.23131915777892362
0.23584991737139802
0.237565399831411
0.2364269611394994
0.23269713934798597
0.22683984473255187
0.21943569199397
0.2110897092341997
0.2023568480195852
0.19371386542316416
0.18555262609439743
0.17819138093657774
0.17185737228145503
0.16671467083852726
0.16288761230627397
0.16048313995635566
0.1595466424354659
0.160097416664492
0.16210154949610686
0.16545915328305816
0.16995025747914963
0.17523164704913802
0.18083474163734223
0.18615374497722517
0.190504139260348
0.1931896177552938
0.1936083386862309
0.19138897170004043
0.18644296792962492
0.1790443335534012
0.16972689092536664
0.15926046364140337
0.14846530713464315
0.13817134922470675
0.1291746949004497
0.12221905155499366
0.11801144339295551
0.11718438646876732
0.12013048266451817
0.12707763600906058
0.13806076240771512
0.1529388512275637
0.17159632129378874
0.19382105598974383
0.21932428138812832
0.24766382534196202
0.2780215799018269
0.30902374393402254
0.33861107018911474
0.3640838676650879
0.3825741056071103
0.391654236647366
0.3903701781361096
0.37954760355970735
0.36134455023004247
0.3386022055471033
0.3139612959676952
0.28949419834638396
0.26661929553887026
0.2461344930227424
0.2284396774693779
0.21371457524962134
0.20198577231916906
0.19322338884204623
0.18734824007194498
0.18419079520736775
0.1836122202056871
0.18536975735487943
0.1892002775615711
0.19481486705705145
0.20180808465370736
0.2097306922719848
0.2180575553710866
0.2261861795278893
0.233496537741215
0.23939434049459302
0.2434071236425264
0.24524439793296934
0.244892027529221
0.24259527161079447
0.23885220633392656
0.2343187467471738
0.22976042638932473
0.22594633113256354
0.22356133362835007
0.22316680963480817
0.22515680850291905
0.22974648614530346
0.23688965115659136
0.24632224671937306
0.25752697426282595
0.26970315273633205
0.28177939420195397
0.29244549811076803
0.3002590192744466
0.3038785725693421
0.3022812247832823
0.29506240223172286
0.2824621029510716
0.2653541679260867
0.2449399309973334
0.22255187398950027
0.19939028058407482
0.17647388878538203
0.15463574188317944
0.13458116066311313
0.11701720157191793
0.1027435638155075
0.09266143058893744
0.087444521884941
0.08726558040883096
0.09142113017395177
0.09853052058886609
0.1071411212235682
0.11594945141572933
0.12389556137703095
0.13015619563198008
0.1341394733691178
0.13549433993561197
0.1341330307623227
0.13024338737619678
0.12427593930621784
0.11692015318369119
0.10905022946137234
0.1016873719952612
0.095883897676944
0.09256052585131545
0.09223653519669123
0.09486576853518403
0.09987321481366228
0.10641353707710853
0.11361328438534832
0.1207442884427816
0.1272708133797152
0.1328589192752769
0.13734796999019763
0.1407562940771987
0.14321294516588345
0.14491055304309902
0.1460602492785564
0.14687663988708674
0.14751852546331537
0.14805883103844122
0.14848197493194984
0.14869979117631146
0.14857340069888977
0.14794742745525077
0.14667189657645335
0.1446312436188691
0.1417477340928343
0.13801209729847316
0.13346394860117247
0.1281862946038327
0.12229309173604863
0.11591571184763685
0.10919349584732164
0.1022558302593505
0.09521964057051358
0.08817855103702364
0.08121252662702096
0.07438531843735524
0.06775852495402451
0.061385438864188804
0.05531932380705719
0.04962608845547423
0.044384933427194365
0.0396918627929041
0.03563336162379045
0.03229658276642424
0.029746035345179733
0.02803218643007826
0.027181972694741627
0.027212457926511092
0.028131511509889347
0.029945346863415646
0.03262087916919471
0.03607604348283082
0.04015664210801325
0.04464421738087459
0.04927732126141961
0.053757561599929705
0.0577759184529443
0.061020741000325444
0.063203452732241
0.06408833909229425
0.06349542927901132
0.06132514387719142
0.05755024577032299
0.05223711793719549
0.04553134614782342
0.037746524642648376
0.0294162340304161
0.021775770192866157
0.018055509899534843
0.022206781422771
0.03217910146780901
0.04480377208617749
0.05877430021916447
0.0735787150265948
0.08895182824026626
0.10472380124428052
0.1207492966185574
0.13690997069181307
0.15306940054432647
0.16909165453930794
0.18480010272602457
0.19997671542988596
0.2143333220419795
0.22750411399383239
0.23905660537571735
0.24851819433801964
0.25544490000519565
0.2595062784639778
0.2605793693078001
0.25876590536380495
0.2543210918900046
0.24774421898519716
0.23953998804768
SCALARS torsion float
LOOKUP_TABLE default
-0.106431122089222
-0.1254655922894106
-0.1469992015855906
-0.17130591143790636
-0.1987280105329311
-0.2293018950143084
-0.2626750542636441
-0.2972919418452169
-0.33040169798343433
-0.3573827835165071
-0.37319540260159445
-0.3739617390268113
-0.35917458547077713
-0.3318352397158867
-0.29709308639791593
-0.26038551882947236
-0.22558837601227477
-0.19494892961493057
-0.16955719507154005
-0.14949588234077
-0.13459032824790662
-0.12419497716142529
-0.11761141280665093
-0.11431717655374757
-0.11368371943160469
-0.11532535900264818
-0.11880729945308742
-0.12389915701662352
-0.13041172961304
-0.13820292071016366
-0.14723299449095284
-0.1572886600296566
-0.1683520381325182
-0.18005511334497445
-0.19200306328853992
-0.20356492632161302
-0.21368540636775682
-0.22161244083369083
-0.2261595675022311
-0.22689291050676827
-0.2235884940904205
-0.2167006256651442
-0.20717951055182407
-0.19610351417217253
-0.1849319433360079
-0.17483432665923432
-0.16719334347930787
-0.16299154247157538
-0.16328869327191803
-0.16877539368530367
-0.17983310094963315
-0.19636311046671526
-0.21748270093851266
-0.24128882933711995
-0.26382480408231557
-0.2790077500388866
-0.2798040979623437
-0.2607779554375649
-0.22285102218563593
-0.173224312692504
-0.12113055438567011
-0.07466774754286734
-0.036732076962351305
-0.008125209203701465
0.012906013809100815
0.027761259062872537
0.03816366370236483
0.045467074133443454
0.050631896529039884
0.05467928051386366
0.05813169062430906
0.061863406048473055
0.06626976573401552
0.07204247287334992
0.07951981460710866
0.08923882657564107
0.10146219885319523
0.1162982449089246
0.1339457872274721
0.15457280811103993
0.1781090176405648
0.20362326423143318
0.23017890355878284
0.2562161775301754
0.28020239552249765
0.3004686174429135
0.31586265048326095
0.32574243676779346
0.3302078717914708
0.3297719315252273
0.3254143163217908
0.3181961385550424
0.30899314986724025
0.2987749246936066
0.2882016088653139
0.27795318873151137
0.2685704824662017
0.2604241614138052
0.25381554750052415
0.24860218856473593
0.24445157961228678
0.2406250560982134
0.23598884843179432
0.2292835505764616
0.2193150751565668
0.20518270998642654
0.1866313679458324
0.16402889503477588
0.13912870374771644
0.11316007435950913
0.0881475706220369
0.06492782202886492
0.044707916631590315
0.027705562461261782
0.014622087144411024
0.005594492271495091
0.0009366545865793134
0.0009089886082711098
0.005813764921429964
0.016367374411979548
0.032903269247342784
0.057013456218869406
0.09005465420720213
0.13542996214488132
0.1966314691951619
0.2785680197263962
0.3839982003114198
0.5079232515545262
0.6266483955760622
0.6970226960967786
0.6862675381783164
0.6082280634588184
0.5060119841449717
0.4128451684064676
0.3407425320386959
0.2910337577350451
0.26060681339374747
0.24648598262282315
0.246858523708397
0.2603737561207802
0.2875206763219277
0.3284215586537044
0.38403650332081
0.45244794788237624
0.5272397703559506
0.5920628431460553
0.6237491466092496
0.6044977890568463
0.5361980763868077
0.43985619146531885
0.3368205454150829
0.2420779814245928
0.15918431897326374
0.08903340124214333
0.029372031387135553
-0.02080158402527521
-0.062283947266132705
-0.0963844498153964
-0.12332753153012707
-0.14272319629721605
-0.1532845198318788
-0.1552833422551945
-0.14931632523322708
-0.13624227992276525
-0.11791672212488494
-0.0952917126591679
-0.07049225432057166
-0.04397130425314929
-0.017582306323353877
0.008720534219209744
0.03346904281824304
0.05683655722021533
0.0780359955504774
0.09696813291640725
0.11317360943939073
0.12606058600720513
0.1356463493656874
0.14101475735217953
0.14248513432838544
0.13897993133329162
0.13107434601224358
0.11781521965101294
0.10044985502865585
0.07932030270982195
0.05498036262383127
0.028385926975249415
0.002520321237022208
-0.016732573009790558
-0.0236255186802765
-0.01152740554553627
0.022643121831187184
0.07456624173418024
0.13337639525900097
0.18194844409131705
0.21100905251739904
0.21508468037564274
0.20099494532282278
0.1743700715079574
0.14340403700505225
0.11131469107278676
0.08051255167208385
0.051513243689217655
0.023592968262990444
-0.0033965447993847524
-0.0315423029222254
-0.06152008935969901
-0.09688689033689904
-0.14067634630581927
-0.20163499964960882
-0.2958922362980276
-0.462543395541213
-0.8015926946811557
-1.530682609561963
-2.350296805697464
-1.6860125772140402
-0.8987683244977701
-0.5347774725442465
-0.3690252367232663
-0.28537008147705184
-0.23977757847258568
-0.21283368933962307
-0.19649204654983302
-0.18575094117137197
-0.1783297808087409
-0.17208875424371986
-0.1660517054406655
-0.15914080905508357
-0.1508994251275344
-0.14108142196767354
-0.12975438215651722
-0.11753113966566574
-0.10478747108033842
-0.09236307776943985
-0.08055360062731376
-0.069827818393586
-0.060279344901933846
-0.051936994791335116
-0.0447452109355331
