# vtk DataFile Version 2.0
00001356.nii_L_ICA_labeled
ASCII
DATASET POLYDATA
POINTS 288 float
100.02737994040916 71.4653226447296 37.53243390456892
99.80695129366214 71.27415374600963 37.46274555103951
99.58741316894884 71.08570864399952 37.3834767938445
99.36939858647798 70.89954556656892 37.29512516086971
99.15349793626423 70.71521934474104 37.19814829009148
98.9402707221363 70.5322861083909 37.092963759738495
98.73025350369856 70.3503057301425 36.97995780994167
98.52397486497856 70.16884604743271 36.85947543881483
98.32195910997386 69.98748381492828 36.73183628554123
98.12473693421524 69.80580802115422 36.597331896736065
97.93285172499621 69.62342290028158 36.4562310840969
97.74686526829632 69.43995169084945 36.30878441253381
97.56736153085997 69.25504170689024 36.15522916663595
97.39494821390723 69.06837081823592 35.995794660874566
97.23025622311145 68.87965426962221 35.8307083974221
97.07393598913103 68.68865099614389 35.66020430826472
96.9266508655175 68.49516945922237 35.4845316279919
96.7890671020536 68.2990721927672 35.30396462666407
96.6618403378975 68.10027824052344 35.118812887452776
96.5456003752535 67.89876270398454 34.92943063346021
96.44093588191352 67.69455117214399 34.736226128884354
96.34837993863755 67.48771025976059 34.53966968227558
96.26839885358511 67.27833524117852 34.34029900869251
96.20138573296155 67.06653541197579 34.13872256121283
96.14765863660014 66.85241877805672 33.93562158983192
96.10746481992372 66.63607770688382 33.73175118934354
96.08098952608046 66.41757665104663 33.527942225145175
96.0683692181854 66.19694570476244 33.32510240240468
96.06970767984185 65.97418178815623 33.12421657799276
96.08509028886344 65.74925602294056 32.926348897997435
96.1145938192071 65.52213004581017 32.732642707724494
96.15829035992462 65.29277875188438 32.54431857095539
96.2162439816408 65.06121920568047 32.36266695893663
96.2884993165283 64.8275450889614 32.18903076992925
96.37506186499954 64.59196350789256 32.02477366386752
96.47587037507036 64.35483283057457 31.871224648610493
96.5907680462943 64.11669119413843 31.72960300606254
96.71947976913401 63.87826185488493 31.600940522072758
96.86160145076764 63.64043309346602 31.486011831746776
97.01660494063242 63.40422179855013 31.3852704216741
97.18385868668162 63.170727151769384 31.298792202948217
97.36266618353599 62.94107864328081 31.226246009350017
97.55231517637603 62.716381889522 31.166920719012218
97.75212416671506 62.49767659879874 31.119799054174493
97.96147684301165 62.28591953466539 31.08363618168965
98.179841304873 62.0819893133488 31.05702225618469
98.4067785144991 61.88670851161643 31.038428326736483
98.64194165307555 61.70087746154956 31.02624639410222
98.88515286765995 61.525441835311064 31.018856048693568
99.13613796477595 61.361218336151204 31.01449654840099
99.39467854810637 61.20914382088099 31.01141676840157
99.66056765238716 61.07033830402672 31.007819959293233
99.93352436828727 60.946110439443174 31.001813293456298
100.21311966992971 60.83800309723602 30.9913756777218
100.49867298399101 60.74782926141568 30.97433351219127
100.78911313776875 60.67768377575863 30.94835374076545
101.08280490488765 60.62991134918609 30.9109707364729
101.37735606662801 60.60701177096522 30.859664701002874
101.66935851111926 60.611810603936725 30.79178823947179
101.95421767607547 60.64665365456288 30.705098604477307
102.22604731493598 60.713377301639596 30.597854397643566
102.4782580056592 60.81218184055051 30.469603173832272
102.70402920152878 60.941778114911685 30.321116977449773
102.89733896597217 61.09903015156661 30.154605912542138
103.05390279731309 61.27928563793257 29.973434468131035
103.17191446083706 61.47703437036121 29.781588978268214
103.25139540277024 61.6869753154682 29.582912901854925
103.29294538485487 61.904489727610176 29.38081328937262
103.29945001352986 62.12546900125052 29.17827350133844
103.27291945252114 62.346767685536896 28.977684562203144
103.21593997529965 62.56584788205236 28.78101412778257
103.13110076192548 62.78076040899839 28.589851450879188
103.02067288847036 62.989986170034115 28.405554659018406
102.8868084187492 63.19235521153585 28.22929345012453
102.7315171091882 63.386973021614665 28.06209807776663
102.55667288216668 63.57316557158267 27.904897897796143
102.36404650486541 63.75045100563282 27.758543877570425
102.15534245184647 63.9185306323884 27.623815665839345
101.93216619002546 64.07724282477619 27.50147497053905
101.69611615007031 64.22659848692211 27.392211182794878
101.44886696189177 64.36685770302196 27.296502910944483
101.19196659399577 64.49837520494738 27.214822675207934
100.92693677270142 64.62167005213794 27.147539139087208
100.65526893189626 64.73742860784736 27.094902244296836
100.37837651830621 64.84644287588682 27.057172687694706
100.09770008091714 64.94975520259224 27.03426669207233
99.81457766892886 65.04850585736646 27.026005832035487
99.53025873137835 65.14392767647904 27.032134698208182
99.24592017449591 65.23735590571067 27.052269419015442
98.9626672230315 65.33020868552723 27.085907323640367
98.68157093362352 65.42398939357787 27.13255905409578
98.40360468942559 65.52022156880395 27.19137817801941
98.12971249857829 65.62043658999416 27.261555448462214
97.86081949795918 65.72616131375483 27.342195721796134
97.5978501819105 65.83889330809467 27.43231566559366
97.34174760205583 65.96007256243911 27.530848264130572
97.09349007067394 66.09104955881526 27.636645973342446
96.85410306104029 66.23304995003149 27.74848356124946
96.62466456131888 66.38713557100235 27.865064457105106
96.40630330576276 66.5541645081236 27.985033080423356
96.20018898952083 66.73475260222594 28.106994426888292
96.00751505965735 66.92924213967761 28.229538602726617
95.82947598500076 67.1376822929645 28.35126769057075
95.66724050320302 67.35982026417034 28.47082658553909
95.52192198928915 67.5951036388356 28.586935507859327
95.39455017790426 67.84269553378303 28.69842173904072
95.28605064783153 68.10150488416235 28.804242527429984
95.19723424923329 68.37022719287161 28.903493963960983
95.12879185738933 68.64738462319845 28.99541287213744
95.08128780690863 68.9313607445611 29.079375772678954
95.0551540316777 69.22043189318111 29.15489508306582
95.05069166785115 69.5127972469305 29.221606750383465
95.06807858784023 69.80660439483 29.279248434653685
95.1073707575289 70.09996726549768 29.327637933082194
95.16848838227415 70.3909812155046 29.36665693837883
95.25119472869243 70.67774152120757 29.3962388536045
95.35508476611875 70.95836437489275 29.41635554286863
95.47958698285105 71.23100542056224 29.42700092396454
95.62396235211185 71.4938781815551 29.42817524626653
95.78729156843191 71.74528039972023 29.419872347838858
95.96846151534629 71.98362883933844 29.40206795837301
96.16617091950539 72.20748891768697 29.37470844662189
96.378956915835 72.41558730399451 29.33770065787182
96.60522060112157 72.60681629500453 29.290901730762577
96.84324118879283 72.78024158640463 29.234110647715585
97.09118369487231 72.9351135786834 29.167060307672102
97.34711093913603 73.07086818993996 29.089412011465587
97.6089994497736 73.18710924115197 29.000756422820448
97.87474529556974 73.28358930926944 28.900620000320956
98.1421582375041 73.36020278104394 28.788479623170172
98.40895116318069 73.41699322787417 28.663786177088728
98.67273355123973 73.45416536379517 28.525997222699324
98.93101445672326 73.47209549469376 28.374621244910234
99.181219164801 73.47135000638666 28.209274558717492
99.42072735702011 73.45271398582847 28.029746210140644
99.64687085334192 73.417151745944 27.836002585487048
99.85704993428497 73.36590935755635 27.628304882113472
100.0491771473055 73.30072415914131 27.407455712719855
100.22144090776756 73.2234107633419 27.174458763807245
100.372327587099 73.13587009285916 26.930505108696604
100.50125213002413 73.0402549227608 26.67716394973284
100.60826901103196 72.93865271170507 26.416062255698865
100.69390434546709 72.83298041340731 26.148747652206236
100.75917821796257 72.72496518089694 25.876649196646568
100.80544474428271 72.61610432501183 25.601002200441616
100.83438388890848 72.50765294319105 25.32283234285813
100.84780142235088 72.4006184334101 25.042929323585263
100.84748368731407 72.2957980822891 24.76186195028944
100.83516666344552 72.19382617886966 24.48001229913219
100.81262637307924 72.09517296669897 24.197610747134597
100.78150703769028 72.00020809302927 23.914757071775124
100.74335497330063 71.90922274412874 23.631453897086306
100.69962145363006 71.82245275764433 23.34763277497595
100.6516609407333 71.74011598284143 23.063172525941983
100.60076741149527 71.66243820990331 22.777911962674995
100.54822243698302 71.58954402518765 22.49169002147685
100.49520481143122 71.52161797292673 22.204335492003953
100.44285014494601 71.45885955510336 21.91568740674643
100.39229688400924 71.40156223558262 21.625587068565217
100.34461521810192 71.34990979892714 21.33394662873408
100.30085699345103 71.30416529056531 21.040711156602015
100.26206592598064 71.26463261391439 20.74587971090986
100.22927228306813 71.23164534269905 20.449520991635854
100.20348869301309 71.2055646150476 20.1517859657071
100.18575099568618 71.18681199512521 19.85291585838856
100.17698752804745 71.17574994809792 19.55326922691209
100.17812464687131 71.17277957630618 19.253311427643364
100.19005133242851 71.1783067674291 18.953628933643444
100.21359135001894 71.19272117943916 18.654934726063278
100.24948498676802 71.21638243411404 18.358067848412762
100.29837072685402 71.24960519585711 18.063987841289677
100.36079672915369 71.29266656551509 17.773774530088776
100.43715265671514 71.34575744880459 17.488601620688573
100.5275860822913 71.40892438062022 17.20967317924001
100.63209739299725 71.48213645324917 16.938224571327716
100.75049401925183 71.56524926718791 16.67546960614362
100.88239300128593 71.65800306598699 16.422556483634185
101.02723262118178 71.76002660455387 16.180524201326996
101.18429364709807 71.87084703940815 15.950263419816569
101.35275855957373 71.98992596945828 15.732521659589418
101.53168679232058 72.11663418113937 15.52782051164252
101.72005141847717 72.25027060206901 15.336420995553057
101.91685847032569 72.39014365064638 15.158438490646263
102.12113665004522 72.53555883529839 14.993811345282124
102.3319639432604 72.68583364782894 14.84232273083306
102.54848715241143 72.84030816105498 14.703624835676282
102.7699350121775 72.99835322784992 14.577265402592767
102.99562557872684 73.15937619348134 14.462715156615017
103.22496834688502 73.32282292587348 14.35939206699803
103.4574661873446 73.48817902054157 14.266695396615633
103.69271053748528 73.65496460013806 14.184025093737155
103.93034832665214 73.82272085589682 14.11068677210902
104.17011124316025 73.99102891532974 14.046039175945689
104.41179247310507 74.1594991024665 13.989452997369552
104.65523766568867 74.32776950880188 13.940316591389902
104.90033589824297 74.49550512724002 13.898039803664842
105.14701087305433 74.66239748132472 13.862055478170232
105.39521255832376 74.82816490851236 13.831819189922587
105.64491317753722 74.99254984974975 13.806822310697074
105.89609146395702 75.15532911739703 13.786566445035595
106.1487210486627 75.31632690084693 13.770562978341186
106.40277536462288 75.47540570631963 13.758371161536843
106.65821716815243 75.63247460364857 13.749576185390463
106.91499476507478 75.78749224179921 13.743787769363005
107.17303775077409 75.94047205932834 13.74064086833788
107.43225253426101 76.09148893050943 13.739797773602211
107.69251987652929 76.24068306872715 13.740949022472673
107.95369591690823 76.3882580445483 13.743811389996518
108.21561421973921 76.53447654933713 13.748125192841366
108.47808724357532 76.67965628541698 13.75365264080739
108.7409071737265 76.82416585861283 13.760176911447886
109.00384747329271 76.96841813219359 13.767500371798667
109.26666634523149 77.11285890613607 13.77544103979861
109.52911056729987 77.25795394372986 13.783828474192914
109.79091902926662 77.40417602486352 13.792500171208708
110.05182621696663 77.55199218771288 13.801298411426998
110.31156596695804 77.70185124019368 13.810067050456002
110.56987571532476 77.85417176413756 13.818648157220265
110.82650135637614 78.0093309254255 13.826878714237377
111.08120206822052 78.16765549146129 13.834587712668622
111.33375518161786 78.32941497198367 13.841593604943233
111.58396092157291 78.49481699653252 13.847701900653496
111.83164602490938 78.6640060539192 13.852702862034402
112.07666669842591 78.83706422465639 13.856369321950226
112.31890992500715 79.01401467550382 13.858454906609547
112.55829302467346 79.19482726912399 13.858692522921112
112.79476185806215 79.3794250934134 13.856792803449737
113.02828708013794 79.56769217876801 13.85244248332457
113.25885901400187 79.75948123378981 13.84530274549289
113.48648103123163 79.9546213527356 13.83500859484097
113.71116165717692 80.15292536934409 13.82116914303148
113.93289721693385 80.35420439227384 13.803354623573252
114.15168491883843 80.55825038753407 13.781126417406396
114.36750170610749 80.76485416603663 13.754025795523974
114.5802915685539 80.97381066498444 13.721567280719727
114.78996346317982 81.18491407536918 13.683248718984888
114.99638537474239 81.39795672070883 13.638556662255459
115.19937917234749 81.61272751379953 13.58697372338191
115.39871627843866 81.82901030469152 13.527987184596777
115.59411566636845 82.04658086320237 13.461097790442507
115.78524496819523 82.26520226813246 13.385828800078814
115.97172348171362 82.48462082948843 13.301736688224489
116.15312732257539 82.70456356785166 13.208424617511925
116.32899668376903 82.92473750477322 13.10555666818693
116.49884484519126 83.14482936952676 12.99286804030853
116.66216855957228 83.36450466251557 12.870169722282807
116.81845972589731 83.58340763174623 12.73735191551145
116.96721858590384 83.80116334236827 12.594388230371989
117.10796733469378 84.0173816076077 12.441338282004459
117.24026066671928 84.23166134131054 12.278344113070963
117.36369149435113 84.44359387557492 12.105620139747135
117.4778947444473 84.65276544278571 11.923442109305993
117.58255079047481 84.85875979156322 11.73213780777736
117.67738793297815 85.06116063973684 11.532078443502286
117.76218147137196 85.2595533232451 11.323669069629263
117.8367488458044 85.4535253645328 11.107338705872744
117.90094451709403 85.64266618203052 10.883532533935398
117.95465694875031 85.82656708874742 10.652707311761912
117.99780725344343 86.00482176769319 10.415328842005383
118.03033069926146 86.1770165709105 10.171861199717537
118.05222228367116 86.3427588198195 9.922792310713188
118.06350133546206 86.50166029471553 9.668611635207345
118.06421495617533 86.65334023543964 9.409812281260356
118.05444677259928 86.79743255693987 9.146893718147833
118.0343207849067 86.93359062947893 8.880360517581575
118.00400468986099 87.06149186901247 8.610719736902741
117.96371254030687 87.1808421522561 8.338477185767871
117.91370621460229 87.29137915219165 8.064132515462202
117.85429554340459 87.39287437059046 7.788173547347691
117.78583709884255 87.48513367129334 7.511070291804686
117.70873157874232 87.56799572390248 7.233269017794949
117.6234200455176 87.64132882378752 6.955187051263724
117.5303782694554 87.70502590850471 6.67720899001811
117.43011000011995 87.75899800764012 6.399684696350846
117.32314076252005 87.8031670539146 6.122929023321652
117.21001272369206 87.8374587156137 5.847223131686998
117.09128056455964 87.86179536210565 5.572817255183483
116.96750767933295 87.87609000122765 5.299935116805457
116.83926286609446 87.88024128565728 5.028779715867582
116.70711857430938 87.87412941680589 4.759539731358462
116.57165124057664 87.85761347770512 4.492395960653149
116.433441574633 87.83052331852151 4.22752935140238
116.29307978492253 87.79266424892094 3.9651267712233
116.15117186840504 87.7438489989789 3.7053796811167032
116.00833380639037 87.68385022631 3.4485018452477973
115.86520170969301 87.61242374238502 3.1947309412897766
115.72243699845372 87.5293131537638 2.944334272519252
115.580731393765 87.4342562699542 2.69761424792825
LINES 1 289
288 0 1 2 3 4 5 6 7 8 9 10 11 12 13 14 15 16 17 18 19 20 21 22 23 24 25 26 27 28 29 30 31 32 33 34 35 36 37 38 39 40 41 42 43 44 45 46 47 48 49 50 51 52 53 54 55 56 57 58 59 60 61 62 63 64 65 66 67 68 69 70 71 72 73 74 75 76 77 78 79 80 81 82 83 84 85 86 87 88 89 90 91 92 93 94 95 96 97 98 99 100 101 102 103 104 105 106 107 108 109 110 111 112 113 114 115 116 117 118 119 120 121 122 123 124 125 126 127 128 129 130 131 132 133 134 135 136 137 138 139 140 141 142 143 144 145 146 147 148 149 150 151 152 153 154 155 156 157 158 159 160 161 162 163 164 165 166 167 168 169 170 171 172 173 174 175 176 177 178 179 180 181 182 183 184 185 186 187 188 189 190 191 192 193 194 195 196 197 198 199 200 201 202 203 204 205 206 207 208 209 210 211 212 213 214 215 216 217 218 219 220 221 222 223 224 225 226 227 228 229 230 231 232 233 234 235 236 237 238 239 240 241 242 243 244 245 246 247 248 249 250 251 252 253 254 255 256 257 258 259 260 261 262 263 264 265 266 267 268 269 270 271 272 273 274 275 276 277 278 279 280 281 282 283 284 285 286 287

POINT_DATA 288
SCALARS curvature float
LOOKUP_TABLE default
0.11966308398461836
0.11285820921020329
0.10696923450959608
0.10205114798779912
0.09815009751081644
0.09530114199387575
0.09352854722950411
0.09284244240092741
0.09322794777112062
0.09464156087794354
0.09701438205102537
0.10024777847317201
0.10421683577769907
0.10878121880721606
0.11377034961264497
0.11901058438745815
0.12431904311352251
0.12950421678792987
0.13439201007256263
0.1388373461487879
0.14272874507134461
0.1460125740379031
0.14870473836456993
0.15087733744528656
0.1526873515952711
0.15435314465416597
0.15615848326204276
0.15842738226855788
0.16146216995711843
0.1654842003317078
0.1706108285978643
0.17681879559430336
0.18391011886779057
0.19151584327022936
0.19902218177010655
0.2056821590800442
0.21080540140185205
0.21387296211453874
0.21449380945147745
0.21234792664243413
0.207370573984878
0.20000991368700696
0.19110973954121854
0.1815593886626283
0.1721660295625877
0.16378798264064212
0.15746523508081148
0.15429465076714485
0.15520695735493287
0.1607080973941244
0.1710024206650924
0.18614505154774308
0.20612551907311044
0.2308595773312427
0.26020525098103175
0.2938922421263793
0.33139626511647285
0.3717774839516593
0.4131541745403438
0.4524792535027556
0.485511845469219
0.5078228755348461
0.5160566310590025
0.5096133171936282
0.49109008488661915
0.46467611405742665
0.4343807564571053
0.4034454729305299
0.3743424354167835
0.3483619647288645
0.325742628526905
0.3061617693415051
0.2893554874658629
0.275171075931411
0.26330146339147165
0.2531782547691421
0.24416444925792263
0.23583978058920224
0.22804153241123412
0.2206330088940593
0.2133208186413392
0.2057872904482884
0.19787272944025114
0.18967686635096176
0.18139596737873137
0.17318333744409184
0.16518870952292936
0.1576717364216042
0.15109272265450002
0.14597304108210235
0.14279684676085033
0.14188010217481117
0.14340336542805962
0.14740554854485352
0.1537228320761649
0.1619996933854907
0.17175957790138693
0.18247612269998642
0.19363266140417126
0.20473642450707807
0.21535576268087162
0.2251598343059967
0.23389440871183081
0.2413615450299425
0.2474437871207204
0.25218095476934177
0.25578001527167366
0.2584792572807399
0.26043988747323765
0.26178978445833156
0.26273719963660197
0.2635699544432147
0.2644758939947101
0.26541880395297346
0.2662415663577476
0.2668705511461753
0.26738550549426077
0.26780826876715497
0.26795810479797577
0.267575596144999
0.26657734632835894
0.2651694175196948
0.26358578718633546
0.261932060392479
0.2602626230194383
0.25877467987950725
0.25788677806125393
0.25798336904909824
0.25927660890403836
0.26181198786185306
0.265566920368244
0.2704779813898927
0.2762566298679667
0.2823629966470842
0.2880204107595798
0.29234455973177836
0.2944456215702494
0.29353089713826347
0.28910550638943927
0.28094162156966307
0.2692251099439398
0.2544069182569739
0.2371647465792266
0.21836804305429083
0.19881652927919408
0.1791327218069186
0.15976958329467653
0.14109750507390192
0.12346765990357887
0.10718119613860344
0.09249143331760584
0.07970464806687812
0.06922792624744437
0.06161585289564105
0.05750452635639905
0.05713635990587281
0.0601999178505159
0.0659301779034533
0.07352889820326006
0.08235741438817219
0.09198709412742145
0.10209941629087203
0.11247598122095158
0.12298775706940533
0.13355999271010055
0.14410829835928768
0.15448761148036488
0.1645487574568208
0.1741686507795169
0.18322374815682066
0.19154943459605403
0.19891570752447055
0.20508328544580992
0.20987938085615115
0.21315910584549772
0.21479969679106853
0.21472019858083854
0.21289161719594496
0.2093917966996364
0.20434394985566692
0.19794081064462546
0.19043354511911562
0.18206221241876716
0.1730623004678642
0.1636358167748269
0.1539823085226875
0.1443000901390825
0.13475085642640547
0.12545019315185604
0.11648113405566247
0.10790836925479975
0.09979207765461201
0.09219335703930641
0.08515352415099593
0.0786969832168263
0.07281757712281856
0.06748462492643713
0.06267064209173806
0.05833342329825756
0.054398243768295135
0.05075579858191076
0.04728436419174307
0.0438717784664918
0.04040305058108595
0.036756069607170844
0.03282808641242574
0.028575602979858884
0.024000647341458105
0.01915437468113332
0.014199111521020632
0.00968823237697774
0.007489436916735679
0.009799775497173473
0.014737506316302504
0.020411697484122318
0.02617584483464508
0.03174983663944013
0.03695599017687236
0.041675588238477876
0.04582495036313599
0.049347737156165646
0.05223860330180369
0.05451536394027842
0.05624042554725987
0.05751356860820133
0.05845706901345849
0.059228294258274215
0.059999380786637524
0.060949379618633025
0.06224851149577068
0.06404023324748771
0.06642831954601745
0.06947686053066944
0.07319087152733013
0.07752244822876929
0.08240070472215692
0.08772720096714877
0.09339660314967138
0.09930092019016709
0.10532823639376411
0.11136314763883833
0.11726684242133038
0.12289501438705058
0.12814195627229716
0.13295697015822225
0.137290645912054
0.14106627501457492
0.14420649057469737
0.14669774921502368
0.14861488942975715
0.15003927537519063
0.1510243662011908
0.15161591346134917
0.1518899988950987
0.15196115356230055
0.15192968604669993
0.1518493689438101
0.15174476464369377
0.15163094470251287
0.1515167060379328
0.15139261412823002
0.1512188655529213
0.15093750900366346
0.15048876258813973
0.1498219587989658
0.1488904376488397
0.14766466064996162
0.14613179277787597
0.14429525575957003
0.1421836184075379
0.13984134699634612
0.13734286758470468
0.13478540179563672
0.1322716328119403
0.12990258061039042
0.1277811006780087
0.126007367157842
0.12467502777321327
0.12386577341391562
0.12363621853607883
0.12402961531257611
0.12507376233288067
0.12678030962566925
0.1291473737863257
0.13216387779211758
0.1358089273858023
0.14005183888219458
0.144850883684259
SCALARS torsion float
LOOKUP_TABLE default
0.20464106037376406
0.22161768485667352
0.23821665480938964
0.2535167351968313
0.2663856999142766
0.27558930363676587
0.27974164313039185
0.27808306431464574
0.27027814498410063
0.2567379425705937
0.23863258778027363
0.21693011409513613
0.19323587635506118
0.16946432636021144
0.14723559991514903
0.12722478889946975
0.11053971365912431
0.09730360407310513
0.08811598097861145
0.08373850357786047
0.08381463805494593
0.0881801109381565
0.09664283532194337
0.10873087884458836
0.12378941763195947
0.14122744772007476
0.15792346211297048
0.1724655419824143
0.1827639899871905
0.18651680672348253
0.18360896163448914
0.17316433138998222
0.15618508533929726
0.13310558202674286
0.10422783164953726
0.07144267657927064
0.03858310530367046
0.005791322337253488
-0.028683659637991077
-0.06702618068974858
-0.11014061137129448
-0.15353764320918437
-0.19784057320227402
-0.24478863656459382
-0.29590257910900625
-0.3502074480363582
-0.39803365273818553
-0.42991876909473886
-0.43861530207523813
-0.4235307018502026
-0.3900954066744727
-0.34635867579803026
-0.2997948892710835
-0.25592285423039923
-0.2180254384531964
-0.18650456829773204
-0.16105188451625171
-0.1405375525984785
-0.12377750004157737
-0.11002498025080525
-0.0982166075776905
-0.08743844226949328
-0.07719351271244755
-0.06750454931245904
-0.058134434995821646
-0.04841365138093602
-0.03822694302947356
-0.028262286586332893
-0.018519979671185103
-0.00823870675218703
0.0033104922972443116
0.015987808607838334
0.028565959475962056
0.04106589625831151
0.054299652894708214
0.06903967378877222
0.08541426386261916
0.10206132394613238
0.11888453870680404
0.13656330065472125
0.15630952401119544
0.17905374256492976
0.20436257424209953
0.23206418042474658
0.262478302484571
0.2968151766571123
0.33560555375211976
0.3778844628603007
0.4204190252814011
0.45837133827112914
0.486524524874888
0.49983863453220734
0.49513087902780406
0.4721639467239836
0.434679081493204
0.3892844709422968
0.3414242290453799
0.2946850576144648
0.250916873692354
0.21059549939786146
0.17471768047859254
0.1427832763450151
0.11395944728475564
0.08777570960597383
0.06360110736574492
0.04248427181298627
0.024276895966651408
0.008487082094108199
-0.005147975896397073
-0.01682984034692388
-0.0256354129804993
-0.03139766564174931
-0.03413178946378914
-0.0338088750967952
-0.030670153284634644
-0.02524353260043271
-0.017622993895483406
-0.007494602491153665
0.005684549209275832
0.021990823652096574
0.03946413414377591
0.05761245229406761
0.0768552929448395
0.09789729260081809
0.12117769260758483
0.14419577565142938
0.16551631942255535
0.18466180853437172
0.20138773607445126
0.21550563762053374
0.22544692559658397
0.23025581767284448
0.2302916223925852
0.22663974120685773
0.21993105852874267
0.21101768787581784
0.20019795033918591
0.18903142008061907
0.17847190508243246
0.16873881806908644
0.16042540407911773
0.1537566942102967
0.15055015138998867
0.1512068488483442
0.15596668091639393
0.16550346372618588
0.18118275384113608
0.2062459482590386
0.24372534188926462
0.29713832835394244
0.3709793667869582
0.46891051656019056
0.5899299084136135
0.7132610682055645
0.7882297340295145
0.7692808373424646
0.6661539878745997
0.5333407950018005
0.41270402860628974
0.31607450730215075
0.24151805067593324
0.18460045498117736
0.14159061767955405
0.1099571579840236
0.086460230223516
0.06806157861524273
0.05319081932813511
0.04114446583535299
0.0316286484258199
0.02410521433834651
0.01777520325198066
0.012216836303140246
0.007386259340243953
0.0034129121189932637
0.00017291830735746813
-0.002399695624494569
-0.004375537198869147
-0.005672532769757265
-0.006134663478478182
-0.005766809013788612
-0.00460072701692081
-0.002564886431183162
0.0004940139068010211
0.004791363887470065
0.010477843657600816
0.017307901596611996
0.025530863134684185
0.035403666641861405
0.04725487827587142
0.06142322675155637
0.07734092613463754
0.09501141759799099
0.1142164401385144
0.13438919647435482
0.15485061631787597
0.1750620640836861
0.19408818699978728
0.20990491980082304
0.21922800457765718
0.21977957701192857
0.21404150374861464
0.2037264407022181
0.18775083563427522
0.16194217519244197
0.12324829288622756
0.07403219689142214
0.012144399911614059
-0.07804396149157322
-0.24010317687935862
-0.5976424784538232
-1.497441356838966
-2.6444801098908823
-1.5765920737387529
-0.6864177432348072
-0.3499531868935104
-0.2117218403047408
-0.14871793749416118
-0.11930882325732653
-0.1068500291487972
-0.10454702658454125
-0.10896324971253125
-0.11838726283727118
-0.13197757089931
-0.14836105197550456
-0.16713325925057407
-0.18728194933271736
-0.2074339421722129
-0.22580349883329504
-0.23893068964332909
-0.2449257256169117
-0.24253445575635837
-0.23156737861982005
-0.21313765933867607
-0.18968483878377987
-0.16354971413294572
-0.13655448006959478
-0.11003808416113355
-0.0850044979948418
-0.06349906395724449
-0.04557149720104159
-0.030513324178128787
-0.01760077013467379
-0.00650188890839442
0.0018880348066814393
0.007665307059132783
0.011423514418734933
0.013779205295422038
0.014939694963893194
0.014963120313153859
0.013877618032372007
0.011843169646640965
0.009143259539280617
0.005803846355022882
0.0022843462428628744
-0.0012790385397519386
-0.004884360697887964
-0.008482113770002561
-0.012075596917592612
-0.015421232444791539
-0.01842946450682625
-0.02118335377832024
-0.023877123767463804
-0.02656261234910241
-0.02940749469880559
-0.03251630856517653
-0.03600460614600726
-0.040098360970605554
-0.044884534890425584
-0.050564741132346845
-0.0572875025978204
-0.065038530028528
-0.07352902180501446
-0.08269414702691981
-0.09239812332015414
-0.10247040676502898
-0.11255285524277422
-0.12172675153325441
-0.12953688810242828
-0.1358063238376025
-0.14042218113469518
-0.1431861572645868
-0.14411155738908807
-0.14320911963265437
-0.14082588922145559
-0.13736483660230692
-0.13299888095684542
-0.12799609438434578
-0.12252781571498
