# vtk DataFile Version 2.0
00000947.nii_R_ICA_labeled
ASCII
DATASET POLYDATA
POINTS 235 float
77.38021493226267 72.28331134133408 32.59773956896661
77.54690135074343 72.40322857572947 32.3790702419651
77.71801415234528 72.5092303324702 32.15666737787961
77.89292734547108 72.60044369572238 31.930696499253408
78.07088734786758 72.67613291425333 31.701397782131075
78.25107220861146 72.7353633954076 31.46902014710253
78.43252150016028 72.77749022950518 31.23391786485711
78.61419096694014 72.80169788113349 30.996470829504837
78.79490539390143 72.80721061849734 30.757134378910237
78.97337077455121 72.79344046065202 30.516451507949157
79.14820850892276 72.76003000611146 30.275037040214066
79.31797081177861 72.70681563103199 30.033555638998656
79.4811953924936 72.63395494913334 29.792695825920845
79.63644867408105 72.54192810155799 29.5531287514572
79.78244574670546 72.43167008593565 29.315445322531865
79.91810221154738 72.30447974325331 29.0801016205778
80.04256940005374 72.16193994188836 28.847379629606667
80.15526836588184 72.00585233056333 28.617362063123792
80.25589035658678 71.83814376118153 28.389930393499863
80.34437423189453 71.66077505471819 28.16478453450733
80.42086905568674 71.4756650688182 27.941477895291676
80.48568878815895 71.28463330899336 27.719461716849146
80.53926759543583 71.08936228233773 27.498131835941756
80.58211956780859 70.89137538987954 27.276873254690955
80.61476652588742 70.69202465438084 27.055095644017364
80.63780613818972 70.49249805282243 26.832271170547706
80.65184746472622 70.29379199592766 26.60796880890209
80.65745910947612 70.096713042467 26.381867762819162
80.65517957895062 69.90187542320113 26.153773379553336
80.64549989177597 69.70969785267724 25.923623819572143
80.62882185125723 69.52041204053883 25.691486113149633
80.60558005435696 69.333998932932 25.45759423935877
80.57607892850235 69.15025619873057 25.222298287240996
80.54054016387381 68.968787080805 24.986073033320796
80.49909656829529 68.7890171601813 24.749510036678856
80.45178924811304 68.61021986465794 24.513309676634325
80.39855419211624 68.43155059654272 24.278277325245043
80.33927383583146 68.25209459191686 24.045301812472662
80.27375755434865 68.07093322594547 23.815338110680063
80.20176188907094 67.88720575646673 23.58938547688731
80.12302680499468 67.70018218735444 23.36844383073125
80.03730815891025 67.50933373007516 23.153455435473262
79.94441001531189 67.31439095715228 22.94523191406696
79.84421126537096 67.11538052142978 22.7443728444702
79.73668164066748 66.91263241983327 22.551188815413628
79.62188416266025 66.7067542688754 22.36564649404942
79.49996511702797 66.49857826994196 22.187349356563494
79.37113588431755 66.28909620518824 22.015555891361295
79.23565275789569 66.07939623618913 21.849230088332085
79.0938000982281 65.87061386002867 21.687110047622028
78.94588031777185 65.66390112746707 21.52778154910351
78.79216379019765 65.46045551574387 21.369739828952646
78.633017667624 65.2614602514114 21.211409300808572
78.46884527535511 65.06810294335381 21.05124006661228
78.3000472944245 64.88170268729334 20.887673122358706
78.12715675686366 64.70361792322318 20.71919953361911
77.95083811817021 64.53523728138337 20.54442911694404
77.77185826454513 64.3782216105142 20.361964244930444
77.5912100598741 64.23435049571697 20.170543154442967
77.41012971012684 64.10548073849353 19.969125289256286
77.23013571289383 63.993758337768156 19.7568079832353
77.05310960212448 63.901523857201184 19.532969946372436
76.8813486317599 63.83126361544423 19.29738815353
76.71759276606684 63.785506153783516 19.050380331947373
76.56500294967177 63.76665124607865 18.79295486697578
76.42706313274213 63.776727220360954 18.52693551776031
76.30761667640367 63.817425128824965 18.254983762803562
76.21005835006171 63.88894608385098 17.980691240041573
76.13746788478402 63.99059477940992 17.708180119329587
76.09204269065626 64.12034982582992 17.441786851292154
76.07470354217462 64.2749236419659 17.18550736124184
76.08567166106319 64.45064092710746 16.942841746958912
76.12371428533915 64.643164561292 16.7161682527959
76.18726778552946 64.84852766877972 16.50713054821488
76.2743910423936 65.06311252843649 16.316637117983195
76.38287075427745 65.28375773227829 16.14492893948244
76.51044448675971 65.50785278878338 15.991789447030506
76.6550299831998 65.73332618109083 15.856845556209292
76.81456992219918 65.9585633878888 15.739487152573423
76.9871263121659 66.18237548484078 15.63901656824235
77.1709029813099 66.40393948960853 15.554740115777188
77.36421940383717 66.62274559417276 15.485994675521754
77.5655616380299 66.83851949536864 15.432331576128533
77.77329374438229 67.05130505585551 15.392986305200182
77.9859530657646 67.26131728683525 15.367440109662747
78.20213367565361 67.4689322232485 15.35534416602448
78.42039262891745 67.67471718507747 15.356205031439897
78.63932898395466 67.87934820063303 15.369590519902848
78.85755872915037 68.08357779539922 15.395155232385177
79.073674441152 68.28821607111017 15.432639976641738
79.28628898181626 68.49407827521902 15.48165885978087
79.49403623200205 68.70193210304328 15.54185633066064
79.6955703376749 68.91246291247668 15.612887681341515
79.88959566254714 69.12623010913319 15.694381298331884
80.07489691529221 69.34363371291232 15.785931277853942
80.25037177491485 69.5648938279008 15.887093492084453
80.4150603765118 69.79004766878997 15.997383564627254
80.56816700235602 70.01896408196988 16.116277139961902
80.7090698234293 70.25137378781702 16.24321055680853
80.83731721602244 70.4869101886702 16.37758117817199
80.95261241324016 70.72515402588591 16.518746900301238
81.05478912986635 70.96567665152652 16.666024057354267
81.14378288256663 71.20807658375684 16.818684875561612
81.21959564972535 71.45200830781624 16.975955346984748
81.28222609017912 71.69720358913618 17.137019200213352
81.3318009199513 71.94346833383042 17.300972783474233
81.3684044126082 72.19069946616835 17.466869521861863
81.39211594119988 72.43887462990853 17.633698106782116
81.40300370202135 72.68804285452431 17.800377078424653
81.40112356798976 72.93831149304894 17.965748657503614
81.38647687070518 73.18983549895064 18.128557733077837
81.35911628714335 73.44278949556785 18.28746028494314
81.3191441320008 73.69734372204839 18.44104016628597
81.26664291810562 73.95364897840983 18.587776711067782
81.20173781065206 74.21180360825021 18.726057939724278
81.12461712775391 74.47182105262277 18.8541949949763
81.03555426952012 74.73359536438889 18.970449598862317
80.93492809328042 74.99686714855275 19.07307787150778
80.82323955034731 75.26119482985308 19.160391934883435
80.70111969636804 75.52593699127931 19.23083757761088
80.56932507439245 75.79025230152119 19.283080168009025
80.4287171238737 76.05312071871074 19.31608647245497
80.28022658565612 76.31338558099762 19.32918739497143
80.12480764009729 76.5698106517398 19.32210747797188
79.9633888484704 76.82114105657143 19.29495631160427
79.79683024770777 77.06615712666466 19.24818261891946
79.62588987489026 77.3037051167175 19.182488504645896
79.45120115294769 77.53267646151544 19.098687207949137
79.27332067401396 77.75212745288012 18.997859413928015
79.0926917778466 77.96115446988394 18.881035381238515
78.9096871123009 78.15889757716977 18.749218882157365
78.72463321529354 78.34446661446323 18.60330824718005
78.53785143051354 78.51691493531315 18.444109906229965
78.34971240716025 78.6754362686026 18.272521482312634
78.16063275324709 78.81906060628181 18.089249751997396
77.9711282402903 78.94667999067158 17.894907676497468
77.78186031376381 79.0571166026024 17.69010082688288
77.59365524244926 79.1492764967338 17.47551945076738
77.40753969877824 79.22190958997874 17.251820773687946
77.22476814790795 79.27376413300388 17.01974901953499
77.04683092672248 79.30366431413675 16.780183334809625
76.8754342221157 79.31061700199567 16.534179439554638
76.71244115316466 79.29394292594634 16.282992928109092
76.55976780510376 79.25341563953835 16.02806946263534
76.41923823222992 79.18938090989813 15.770990229814245
76.29242944733163 79.10280667498742 15.513371390154811
76.18057270056629 78.99521021784545 15.256742867997719
76.08421893004883 78.8688485366795 15.00238118046321
76.0034534135093 78.72619503323641 14.7512146056129
75.93786398215278 78.56987638946069 14.503771986557643
75.88663781484357 78.4025028147787 14.260184558739336
75.84868251475207 78.22654393044023 14.02023135587003
75.82274234810548 78.04425960925214 13.783408583572497
75.80749443038252 77.85767847216775 13.54900464444673
75.80166977882361 77.66860561618256 13.316172326384406
75.80394286276008 77.47869326534398 13.083958566916314
75.81308139820963 77.28942671504372 12.851384200283208
75.82794944659464 77.10217957724568 12.617473692756423
75.84749666518404 76.91826154747767 12.381277438943163
75.87074709044926 76.73896258147276 12.1418885715391
75.89675075237257 76.5654663730029 11.898543019800476
75.9246566968198 76.39894322080917 11.650583817927659
75.9536703988696 76.24050809631284 11.397508082237556
75.98304925269255 76.09119121643006 11.13899163707635
76.01209815484088 75.95189889734286 10.874904205883391
76.0401628656177 75.82338695143108 10.605303431164055
76.0666267862665 75.70618455452382 10.330439898002346
76.09090718826644 75.60056771018459 10.050722643624328
76.11243898809741 75.50657929170632 9.766664916105524
76.13066509903567 75.42401454108939 9.478849722221405
76.14502367306959 75.35244263386573 9.18788785592729
76.15493489916015 75.2912419760335 8.894383619150718
76.15978851514083 75.23964404031271 8.5989117920589
76.15893279221453 75.19677972336122 8.302007166428112
76.15166671310034 75.16172447679705 8.004165709901672
76.13723554648541 75.13353844333172 7.705855414400324
76.11480055379214 75.11131953426315 7.4075356295049355
76.083513761838 75.09418181969318 7.109679569697843
76.04251407120843 75.08131646254493 6.812790865802245
75.99091987346708 75.07202497455737 6.517427552003612
75.9278810560299 75.06572462235832 6.224216917580074
75.85262050743815 75.06196529396914 5.933861794117767
75.7644796033315 75.06044270573322 5.647135899876659
75.6629624250689 75.06100841563182 5.3648672033753755
75.5477709510098 75.06367326220611 5.087911075552375
75.41882682121884 75.06860488449553 4.8171166550836695
75.276254778433 75.07612117647489 4.55330421038525
75.1204109301358 75.08666606791 4.297215753642758
74.95183766270497 75.10078469631156 4.04950010622912
74.7711991579268 75.1191021054406 3.8107256247120906
74.57925544112042 75.14229082681511 3.581381393646018
74.37682534997116 75.17104175782046 3.3618951789354306
74.16475724530646 75.20603612962249 3.152655744367632
73.94390895621477 75.24791882260153 2.9540345863422033
73.71513749809054 75.29727453992855 2.7664019715604575
73.47929539363665 75.35460473513113 2.590135016150232
73.23723205085318 75.42030663053986 2.425614756490071
72.98979584177947 75.49465341928718 2.273212706901066
72.73783492441956 75.57777878557171 2.133267032201804
72.48219366379324 75.66966631439045 2.0060512799846997
72.22369966704551 75.77016347680582 1.8917650558158432
71.96316372904013 75.87894020003102 1.790427802864367
71.70134391848744 75.99555203220895 1.7019208370604832
71.43893142953524 76.11945294936446 1.6259543171569486
71.17653280172523 76.25002493334787 1.5620623760492045
70.91465658479352 76.38661239390991 1.5096139342619295
70.65370684123485 76.52855569044094 1.4678349377918438
70.39398431115595 76.67522065961087 1.4358375881902619
70.13569411115441 76.82602163696302 1.4126534085966864
69.87895862089391 76.9804375489781 1.3972663181808165
69.62383310916108 77.13802055132464 1.3886429377273595
69.37033065670337 77.29841162071344 1.3857834278531573
69.11841522666838 77.46130058469372 1.3876651797664805
68.86803526054783 77.62645530063486 1.3933367438760373
68.61913367691157 77.79370743731495 1.4019156987387977
68.37165533718408 77.96294019117772 1.412591489644331
68.12555375808788 78.13407902134834 1.4246313885673192
67.88079651155697 78.30708432429991 1.4373833652688286
67.63736929781565 78.48194605221207 1.450272854020615
67.39526141749207 78.65865562028299 1.4628037167623096
67.15448248634625 78.83722453803942 1.4745549818020494
66.91505382057802 79.01767010929952 1.485169503952915
66.67700615438345 79.20001149829956 1.4943454985424482
66.44037740894497 79.38426689095766 1.5018275725260377
66.20521064770345 79.57045145502833 1.5073981526602642
65.97155244704253 79.75857607292394 1.510869798174628
65.73945242233432 79.94864753625814 1.5120772148226507
65.5089657698072 80.14067202434633 1.510866469547528
65.28013801333667 80.3346375557246 1.507112947910325
65.05302025493424 80.53053316645162 1.5006948760332823
64.82766340228864 80.72834215614968 1.4914991191384765
64.60411781556664 80.92804209948424 1.4794201855838505
64.38243295810595 81.12960488990613 1.4643598023003102
64.16265702764443 81.3329968287498 1.4462270493653826
63.9448365724747 81.5381787724869 1.42493870218621
LINES 1 236
235 0 1 2 3 4 5 6 7 8 9 10 11 12 13 14 15 16 17 18 19 20 21 22 23 24 25 26 27 28 29 30 31 32 33 34 35 36 37 38 39 40 41 42 43 44 45 46 47 48 49 50 51 52 53 54 55 56 57 58 59 60 61 62 63 64 65 66 67 68 69 70 71 72 73 74 75 76 77 78 79 80 81 82 83 84 85 86 87 88 89 90 91 92 93 94 95 96 97 98 99 100 101 102 103 104 105 106 107 108 109 110 111 112 113 114 115 116 117 118 119 120 121 122 123 124 125 126 127 128 129 130 131 132 133 134 135 136 137 138 139 140 141 142 143 144 145 146 147 148 149 150 151 152 153 154 155 156 157 158 159 160 161 162 163 164 165 166 167 168 169 170 171 172 173 174 175 176 177 178 179 180 181 182 183 184 185 186 187 188 189 190 191 192 193 194 195 196 197 198 199 200 201 202 203 204 205 206 207 208 209 210 211 212 213 214 215 216 217 218 219 220 221 222 223 224 225 226 227 228 229 230 231 232 233 234

POINT_DATA 235
SCALARS curvature float
LOOKUP_TABLE default
0.17274032221222066
0.177454702250796
0.18257491901431655
0.18813116234946486
0.194113756046517
0.2004757698342411
0.2070726265234902
0.21368089665472373
0.2199463267301513
0.22540746218237798
0.2295225932176872
0.23171617771808167
0.23148231571087724
0.22843941982690918
0.2224729684030717
0.21371410029143742
0.20258792041149537
0.18969092889543598
0.17577589089705561
0.1616001980732505
0.14791034317267657
0.13532938599775704
0.12433413187028665
0.11518278158411557
0.10790102166333086
0.10225294342587081
0.0978042441920443
0.09402767670164848
0.09041505787112857
0.08657540947110332
0.08231635750397048
0.07772124561761193
0.07319737657695775
0.06951522424788666
0.06773615102810872
0.06890277573669076
0.07352711075185608
0.08122483214720257
0.09094169997240512
0.10133815010198885
0.11108745578877006
0.11901308710603123
0.12416152684589195
0.12589462857163508
0.1239932689960705
0.11871954849661603
0.11076305186097994
0.1012246622419414
0.09157390853071477
0.08365611467879215
0.07950422972179262
0.08080656433683578
0.08797226490088597
0.10017818760656641
0.1162444203785756
0.13517579432558596
0.1563383445261562
0.17944149347219387
0.20433891991759098
0.23095653356775664
0.259185985852899
0.2887995370065469
0.3192837255207943
0.34974625166436407
0.37876268026212984
0.4044534512866667
0.42452457627243284
0.43698498569478755
0.44044356741075613
0.43478133589363194
0.42110907529651936
0.40137619163420407
0.3778884469923578
0.3527508829411703
0.32752164801621986
0.3032091378296455
0.28035634923102465
0.259249469691353
0.2399189698210746
0.22225876664605007
0.2061274998541511
0.1914350086724347
0.1781609842458691
0.16632851902746293
0.1560747363313716
0.14763605692694773
0.14127869234080315
0.13724180130964603
0.13566047688972488
0.1364751263876762
0.1393451911942027
0.1437228946978215
0.1489435765212951
0.15431613333201114
0.15922200759272856
0.16317488250331927
0.16586213328853422
0.16714776237248782
0.1670566414367262
0.16573095679660435
0.1633959124876711
0.16032031943192032
0.15679809696731653
0.15312891399661394
0.14962076045367412
0.14658367826868254
0.14432518082133225
0.14314235881937223
0.1432989893749832
0.14501171190518894
0.14842508469525445
0.15358883085141456
0.16044301834412247
0.16882841137129168
0.17847998644065668
0.18902413148417224
0.19999048273122602
0.21080732415733652
0.22083465558363477
0.2294190661256951
0.23598375505916816
0.2401080571979968
0.24162515824583464
0.2406266509133835
0.23747268188275353
0.2327125479942822
0.22702910441255533
0.2211288717767379
0.21568483135109265
0.21127477091215457
0.2083559688771384
0.20727165944499698
0.2082362771337201
0.21132189557756673
0.2165037921603971
0.2236681512343829
0.23260510374663504
0.2429777414217627
0.2543236365961168
0.26599417605173437
0.2771454575211185
0.2867178890305499
0.29350899589504675
0.2962913401716744
0.2940987708276473
0.28638989223489564
0.2732092869310593
0.255200833708404
0.23346091252148216
0.2092481961759852
0.18384690899705763
0.15838870875406705
0.1338973036777612
0.11136375530915116
0.09197821843337223
0.07733286763531222
0.06928439076434924
0.06887736241089781
0.07501487565203109
0.08515359223001977
0.09691734041221445
0.10871455047699549
0.1195081249967645
0.12860587866758388
0.13554000938877267
0.14003369020511658
0.1419920085920402
0.14151221401134795
0.13886404352228207
0.13448797598361542
0.12896789250193597
0.12301319886554071
0.11741812656670285
0.11301214981278782
0.11055263046646387
0.11058093719420198
0.11330190748718995
0.11848787602039443
0.12559904855974544
0.13390841564091369
0.14265550395074594
0.15112454819933108
0.15870199850125272
0.16494160004286718
0.16955998739944958
0.1725042180893661
0.17389465495669976
0.17405858329749738
0.17341626262584822
0.17243997452417453
0.17155712051199218
0.17109564878702863
0.17123808586348155
0.17199606079562463
0.1732358942607237
0.1746905545834466
0.17601261705353777
0.17681332120214818
0.17670043386916212
0.175335791150629
0.17244108228837066
0.16786331593301093
0.16154715662000882
0.15357624896729685
0.14412525261397077
0.1334607245401217
0.12189225222451043
0.10975857200478292
0.09740127628542858
0.08514262750218361
0.07329226587949918
0.06213914336190547
0.05196892781366011
0.04306842272912296
0.03575148524295265
0.03033334265554803
0.027024762980434186
0.02574985523813988
0.026058999146917255
0.027327587045702918
0.029044226212874186
0.030886283331218303
0.03269041285560104
0.03438906407648223
0.03596767711320391
0.03743747402450156
0.03881725287164046
0.040128664134588994
0.04138744538119875
0.042606265411105494
0.04378964475613498
0.04493940629920546
0.04605234550878309
0.04712427497503059
0.048150145584561
SCALARS torsion float
LOOKUP_TABLE default
0.0801164195178043
0.08402600114592554
0.08775500733276768
0.0912544967959104
0.09451439330636076
0.09757295644758156
0.10058802045260361
0.10376334879966666
0.10744067498708881
0.11201278214862473
0.11789180188643643
0.1256006262619323
0.13551145386998967
0.14822532514473707
0.16397348262708386
0.18338973729432173
0.20653621039376105
0.2339518530193177
0.26522395867708076
0.2999841542672871
0.33600485725196194
0.3699279076126072
0.3959756219048605
0.4076988458640617
0.39950734805471366
0.3686842761700601
0.31756740914273607
0.2489842194971102
0.16774936360246748
0.07316614254569721
-0.03455536754058968
-0.16116048659593274
-0.3047295159570097
-0.4565948596980476
-0.5800485541683932
-0.6287634093164549
-0.5818077622179844
-0.4728729716394385
-0.3492037814911945
-0.23661137697420748
-0.14266532599631773
-0.06303337294465464
0.007405400282963918
0.07596249022933767
0.14678803397226034
0.22783407904284422
0.3253964180042374
0.4486617673634132
0.5983654731384469
0.7566487821215844
0.8641653003524894
0.8526041123056775
0.7297948413459908
0.5714272886017318
0.4335378101650398
0.33061715584685314
0.2577296676544041
0.20658762541762982
0.17046995968978154
0.14443669751145274
0.12546814728233927
0.11147576477398986
0.10114146724924776
0.09364271483191934
0.08838649602825911
0.08503158904404273
0.08321351934060026
0.08251872205997704
0.08243789066777857
0.08239884453344362
0.08169104126022173
0.07977591900194773
0.07612888504875504
0.07028054397528999
0.061700898962927325
0.049832466292489254
0.03471253277603692
0.015517191388063942
-0.008150754120084144
-0.0374585954462876
-0.07216338376244044
-0.11320365962941624
-0.1602519130687096
-0.21294525273170917
-0.26933149585763183
-0.3253531633645276
-0.3750014189108333
-0.41037684389064605
-0.4247111529279139
-0.4151528627932806
-0.3841984276365363
-0.33936236556372057
-0.28740381873234444
-0.2357128594915577
-0.1874928256109025
-0.1465454346692519
-0.11327996526475495
-0.08952722304876957
-0.0748807541230399
-0.06972928216587007
-0.07357932469393975
-0.08555548155691617
-0.10513984669047781
-0.1303424305782115
-0.16039932343171023
-0.19232855097125626
-0.2246015526783062
-0.2536755626481922
-0.2775357250849623
-0.2933860275122068
-0.30038922320884887
-0.29809607056815624
-0.28788978210193666
-0.27097430473045603
-0.24941384288223659
-0.22458435956018036
-0.1978275841711816
-0.16994092804176208
-0.1414138588355255
-0.11284819968352212
-0.08421904020063085
-0.05641519941369729
-0.02929639866018288
-0.0037162809512697463
0.020421361428913303
0.042100905499899643
0.06105283377636642
0.07633235036976882
0.08731345664941813
0.0932496210437718
0.09352468155743097
0.08821183222750946
0.07761693141455564
0.06276158808922228
0.044937476122596125
0.02535528259845503
0.005689922651878776
-0.013502713047124863
-0.0311548197393152
-0.0472601751670443
-0.061179225550617104
-0.07323515471600923
-0.08340002187011003
-0.09219783891233027
-0.1000868973756377
-0.10790047058130627
-0.11687220577800392
-0.12844276175138802
-0.1446960258207624
-0.1683917540001949
-0.20388569453201585
-0.25769535100706653
-0.3402611797118468
-0.4665848848556508
-0.6519337407240169
-0.8796353208853379
-1.0424048863643245
-0.9977608311139954
-0.7897739418768183
-0.5689013781806361
-0.40392214873957694
-0.2921731013267446
-0.22011956231847607
-0.17448088501852338
-0.14813432071399696
-0.13624301056419202
-0.13639214514228784
-0.1475509877039856
-0.1689208816180518
-0.20087895548760226
-0.24229967135027272
-0.29211190665614434
-0.34477696302829697
-0.39231655931954557
-0.4219899858868005
-0.42361771651332225
-0.39398850961218335
-0.3401540864411988
-0.27450910403432555
-0.20700475436115873
-0.14416010008655286
-0.08778440208457089
-0.03819070062432966
0.005761084013114656
0.044990639396402896
0.08027120892559313
0.11169726645941856
0.1386034677368846
0.16026003425664806
0.17517120161775948
0.18243361506523084
0.1811594801206421
0.17194965025948208
0.15627872678391594
0.13592947413567813
0.11342908476860486
0.09040197736496294
0.0689462942896641
0.049695196540930076
0.033722326096779984
0.020946755443923964
0.011584445891893233
0.005486221657199674
0.002660072361801725
0.0032906173025752735
0.007556700910816956
0.016280383713072145
0.03008691587727318
0.050950830282767944
0.08068576102904358
0.12344682344225438
0.18409120612343652
0.26995480656453397
0.38775995738421254
0.5356870112292933
0.6876256298916232
0.776904803130434
0.7496610641205566
0.6261075386278624
0.4787905938579598
0.3519426496686927
0.25664896615642946
0.1895919928081788
0.14304036859866281
0.11156347286943324
0.09000447856045465
0.07553266068795762
0.06553729310289179
0.05860852544662761
0.053507500284760104
0.0495559349651048
0.04625297038989399
0.04330702900001511
0.04061310513304778
0.0380989721290137
