# vtk DataFile Version 2.0
00000645.nii_L_ICA_labeled
ASCII
DATASET POLYDATA
POINTS 248 float
107.62557901207317 71.95353490892205 33.63621868965507
107.42963002837789 71.83221640022016 33.444193306316826
107.22992064992447 71.7040736470293 33.260659007168
107.02704560852868 71.5695750435524 33.085325560243916
106.82156333619177 71.4291769898176 32.917822618601114
106.61398363970247 71.28326508418101 32.75778037409972
106.40485013463709 71.13238738023998 32.60450577512589
106.19463838864502 70.97699367017007 32.45733473595
105.98379333684606 70.81746832318166 32.31558620432412
105.77274959916207 70.65425580347132 32.17840186892617
105.56190976673608 70.48771576775881 32.044951095082226
105.35167354357752 70.31812540822217 31.914419297262434
105.14243365622025 70.14575175343938 31.78594758001723
104.93457819345238 69.97080277996443 31.658715026404177
104.72853225232356 69.79339128714419 31.531949915854977
104.52471402854535 69.61361406463094 31.404917566719938
104.32354983211184 69.4315144287109 31.27696689822572
104.12555808352393 69.24703252206335 31.147491198691558
103.93118164486478 69.06013683071099 31.0160170558894
103.74095379524184 68.87070454543885 30.88212931261611
103.5554313438001 68.67858192143142 30.74550312322911
103.37511562313266 68.48362945983197 30.60594795303185
103.20069811254831 68.28559930537283 30.46326772191051
103.03267026038738 68.08434950844664 30.317462032935417
102.87179473478923 67.87961407733269 30.16847970381019
102.7186651537847 67.67123606543245 30.01642070022889
102.57408729825909 67.4589973403134 29.86136278374628
102.43882536702486 67.24275551018444 29.703460899948197
102.31372423445703 67.022401735824 29.54289299104757
102.19979355322018 66.79785224756905 29.379849033099017
102.09788638384276 66.56918092062261 29.214595241338785
102.00930384312242 66.33643453117777 29.047369303106162
101.93498978610982 66.09990834162001 28.878516276458313
101.8761136315771 65.85996868217407 28.708399349726868
101.83407589974655 65.61710958364998 28.537441810952544
101.8098073217658 65.37207083052434 28.366163303249515
101.80435491779612 65.12571774230166 28.195145553490736
101.81858923066598 64.8790803228011 28.02504681557007
101.85326826389115 64.6333396331343 27.856602526188052
101.9085364821192 64.38975209934017 27.690554524495887
101.98429577197119 64.14959028338123 27.527634464897904
102.08007460357355 63.91407631747387 27.368509715670186
102.19503151412474 63.68431015123075 27.21372983606369
102.32807666064768 63.46124299942519 27.063701342007555
102.47786540079173 63.24562536082538 26.918638739358226
102.64277323731889 63.03792200600886 26.77850349749518
102.82123976479318 62.838447506977154 26.64308686714358
103.01190712519131 62.64750237373698 26.5120624955701
103.21316663614648 62.46505184485363 26.384823274338792
103.423756352276 62.291170191117835 26.26071248887218
103.64250167063213 62.12590802325046 26.138946949970276
103.8682913657268 61.96926727038779 26.01864655973511
104.10023766612308 61.82145361431924 25.898887677689995
104.33744632922266 61.68261123468933 25.77869905203418
104.57919030332059 61.553156876858644 25.657079052852893
104.82472892090865 61.43351270901984 25.53304175353382
105.07338881595037 61.32437138031687 25.405590160481953
105.32445858993441 61.22647771104781 25.273808457660135
105.57721069345479 61.14087103785048 25.13680340323169
105.83082684977994 61.06852892339614 24.99388589215003
106.08439788395157 61.010900226437656 24.844364921472117
106.33689276121791 60.96905524030049 24.68794801229688
106.58712968553162 60.94444755118362 24.524412944981012
106.83377718056147 60.93836086748619 24.35385482242869
107.07542861175243 60.951752976849285 24.176703325504434
107.3105479821941 60.985540836630676 23.993581001625586
107.53747801176054 61.04047077810438 23.80532989747911
107.75472374728508 61.116546828008026 23.61306694408866
107.96077642981382 61.213629844315 23.417960810256215
108.1540722643711 61.331447469734826 23.221223438715192
108.33335250026543 61.46908293026231 23.02408839365206
108.49748074464445 61.625423312741326 22.827698881135497
108.64512976577541 61.79948439024249 22.633140121657732
108.77543562464784 61.98971888166434 22.44135942055044
108.88741983373387 62.1946916555132 22.253219191666947
108.97996974913892 62.4129794211269 22.06954860388989
109.05245394444042 62.642803582800134 21.89100699149458
109.10358542069378 62.88268019254467 21.71839663879952
109.13274685675914 63.130711660730164 21.552338694800323
109.13889757237443 63.38509545445426 21.39360577319321
109.12098673034448 63.64384966703969 21.243054805226986
109.07837785661738 63.904777161127946 21.10150581292484
109.01026107065744 64.1655383182293 20.969983245093026
108.9158637128954 64.42351747889818 20.84971189247799
108.79521234603843 64.67594653300414 20.74181199372694
108.64853336384331 64.91990302443206 20.64755995413193
108.47665427905103 65.15243046172836 20.56820355776254
108.28109401527068 65.37072000811723 20.50485336106643
108.06407192506019 65.57233552955651 20.458361693229616
107.82840951354876 65.75544041278184 20.42921586373299
107.57732659391563 65.91896773820186 20.417477876736623
107.31417420188109 66.06268603725202 20.422789634896517
107.04217450906856 66.18715702749392 20.444437133830565
106.7641862333878 66.29344262938224 20.481597458710894
106.48272815116746 66.38342484706722 20.533036269635172
106.1997689629636 66.45916752156408 20.597593771254328
105.91683838030485 66.52275635199301 20.674306981030444
105.63508679158299 66.57660477849308 20.76205346986701
105.35535725647429 66.62298630805807 20.859970841606057
105.0782613494634 66.66420544716885 20.967252809329924
104.80426920752645 66.70250522229661 21.08324408795597
104.53373785059875 66.74010415354431 21.207310583755334
104.26706365002111 66.77918581827822 21.33903281212465
104.00456887925606 66.82184684817334 21.477844963338683
103.74680555200914 66.87029050021712 21.623452442879653
103.49425087169067 66.92643674981272 21.775278695057246
103.24775322704001 66.99245045153792 21.932965059618137
103.0081084796369 67.07002217198796 22.095851657593663
102.77645642728353 67.16094447681951 22.263319785803546
102.55402317000201 67.26663877808211 22.434554717792302
102.34206970876546 67.38809393147383 22.608593796048403
102.14207675290152 67.52616916267947 22.784379339202708
101.9553751046918 67.68111705196118 22.960706232794063
101.78313173927612 67.85272343884128 23.136315052030355
101.62648014736048 68.04055269287134 23.309913957703376
101.48641425110631 68.24388204861451 23.480188011756976
101.36342863408305 68.46149818542114 23.64593185784858
101.258094974455 68.69227613169171 23.80593859505607
101.17082500587678 68.93496768182486 23.959039381791154
101.10159045970056 69.18809816197064 24.10425718285568
101.05082674124576 69.45048082241675 24.240402910236366
101.01827356671481 69.72060076029284 24.36662244727467
101.0041800759055 69.99717989968752 24.48178143107788
101.00839366877284 70.27876814657256 24.584953494625307
101.03098881003869 70.56394838129647 24.67503970302597
101.07190675697005 70.85119321834927 24.750978581477458
101.13100360075249 71.13888608622264 24.811725961145335
101.20829927437275 71.42526127162203 24.856002549106574
101.30330131878478 71.70844588775225 24.88290155709809
101.41580463221298 71.98632358145258 24.891106992184564
101.54507774145839 72.25667722621942 24.87968365151051
101.6901604951926 72.51718457007524 24.847810254770433
101.84985336934625 72.76540786682345 24.79476776810492
102.02267620646165 72.99877699331816 24.719942998175853
102.20655483375566 73.21510227189665 24.6234380490737
102.39920905038187 73.41235140490585 24.505557801536366
102.59809989309255 73.58888743074695 24.367004118970627
102.80053775349343 73.74358149320709 24.208850311398205
103.00381151043644 73.875875334037 24.03247151964371
103.20529023059017 73.98567157479566 23.839368860554465
103.40254888998632 74.07358517735433 23.63128117014719
103.59347024943592 74.14070779607803 23.409949033584112
103.77625212201121 74.18844165340629 23.177002468544085
103.94933392804214 74.21832728564023 22.93387972289193
104.11151289959881 74.2322280418262 22.681952324413277
104.26197116981756 74.23220246280711 22.422472214662296
104.39991605453145 74.22010926033754 22.156394183725638
104.52499836725941 74.19805663902946 21.88465324375753
104.63702675631977 74.16805817187898 21.608014871058597
104.73582332754034 74.13202747983028 21.327083572128984
104.82173015866059 74.09196533823626 21.042480637438025
104.89479555528557 74.04967810164959 20.754628338009205
104.95568924431353 74.00698212296467 20.464015882705862
105.00487338258519 73.96555933196599 20.171008745814945
105.04314085351005 73.92698251837385 19.875989999746075
105.07140358016463 73.89266197424082 19.579319866059652
105.09055956847442 73.86394166601343 19.281329062431446
105.10185935627213 73.84182562020587 18.98237441609454
105.10643715151954 73.82727814335274 18.682776568547308
105.10562888904624 73.82093805672163 18.382858698168047
105.1008072263903 73.82317770618019 18.08291844036431
105.0933084152159 73.83432925179967 17.78323125931777
105.08454914982686 73.8542504318532 17.48403318723711
105.07586482514395 73.88272719907741 17.185524366667014
105.06858300730049 73.9194701585943 16.887881871925693
105.06392737219738 73.96383424439158 16.591226788273925
105.06308704455472 74.01524374902426 16.29567519849676
105.06719485624089 74.07302347865286 16.00133067298509
105.07722035760746 74.13637534981179 15.708278132195751
105.09418410237272 74.2046059473831 15.416644340852114
105.1189319587428 74.27694122696676 15.126562220542741
105.15219563340415 74.35264101159848 14.838195923248065
105.19479703943259 74.43105813929927 14.551791973236242
105.24721893357304 74.51152396311484 14.267596257492693
105.3099042533465 74.5934695890609 13.985913178239953
105.38336091794017 74.67641074158266 13.707140542844018
105.46763849177624 74.75991465926296 13.431618288310897
105.5628051527565 74.843655857282 13.159737135460851
105.66895520443934 74.92739452945612 12.891952537940035
105.78572837210913 75.0109829082578 12.628580064759927
105.91284327204217 75.09436258915248 12.369970870095743
106.05002553691651 75.1775555720066 12.116496193163323
106.19666981680886 75.26066402998502 11.868346975805256
106.35232980552918 75.34385253723431 11.62577678428383
106.51650786658927 75.42734615797846 11.38899547287137
106.68857325080415 75.51140654876949 11.158086347877589
106.86809765682067 75.59634452808538 10.933255587237282
107.05449337344734 75.68247401174872 10.714553129822379
107.24727214652214 75.77011970971112 10.502073322500975
107.446032381551 75.8596227553963 10.29597431178486
107.65026179853476 75.95125595365317 10.096256820529538
107.85963506532298 76.04531849387563 9.90310215469892
108.07374326523022 76.14201609662999 9.716552680559005
108.29224242865746 76.24150972145671 9.53668331673833
108.51487446457614 76.34394095718551 9.36366111752603
108.74129668936902 76.44930104202393 9.197450339239097
108.97128714683662 76.55757939947266 9.038157025814149
109.20461132101414 76.66866516168582 8.885795811848398
109.44103515481264 76.7823574184106 8.740288518508063
109.68041038093446 76.89844356828569 8.601657853545547
109.9225458458593 77.01660436590419 8.469735578148512
110.16728248156743 77.13649685055908 8.344334473038066
110.41451933309989 77.25777736546594 8.225334090253297
110.66409136523625 77.38005289074817 8.112379204131974
110.91587018606116 77.50296201737028 8.005151784636281
111.16975270778278 77.6261662568896 7.903359115744475
111.42556751209378 77.74935823760622 7.806507838871252
111.6831736428716 77.87228832463123 7.714174551719293
111.9424223512925 77.99476071084504 7.625918505573973
112.20311874373937 78.11665770831382 7.54119936642251
112.46508709504191 78.23792100627323 7.459547883055958
112.72812637384389 78.35856789881595 7.380465172783247
112.99201724981715 78.47869106548075 7.303447868894661
113.25654785822888 78.59843810375342 7.228055492539632
113.52148185353072 78.7180248326819 7.153833527469393
113.78658628476613 78.83770905353482 7.080380868898368
114.05162064896102 78.95779650737228 7.007334626564142
114.31634471460009 79.07860971862205 6.934360335826788
114.58051115333964 79.2005053782901 6.861166394948215
114.84387138531247 79.32384708564683 6.787492349020346
115.10618567965078 79.44898251594407 6.713116127889925
115.36718089393356 79.57630537115563 6.63781901662366
115.62661992046067 79.70613160349411 6.561428513338926
115.88423916100908 79.83879689858937 6.483769064829781
116.13975704776922 79.97463213750484 6.4046627709250945
116.39293384667845 80.11387068560808 6.323964430913364
116.64347278682011 80.2567894042582 6.241488335648226
116.89111187364935 80.40357148039011 6.1570649478571395
117.13560263005745 80.55434155859587 6.070520887236854
117.37662465198132 80.70926470111822 5.9816156185808715
117.61396465532735 80.86832980044373 5.890158053542881
117.84736810737674 81.03153238372086 5.795902295496425
118.07654404360045 81.1988514094105 5.6985430148251925
118.30132321072445 81.37010312697326 5.597831180611379
118.52146743072282 81.54512665828831 5.493433133579704
118.7367523563134 81.72369811668494 5.384989916813233
118.94704737555354 81.90548902836319 5.272193357399428
119.15214318362767 82.0901840520903 5.15464176296216
119.35188666170929 82.27739006051415 5.031959775726799
119.54618240418665 82.46665953679798 4.9038176639876045
119.73483983336237 82.6575451154785 4.769783949962398
119.91776913011535 82.84953512494637 4.629534292514159
120.09488715072618 83.0421043786925 4.482771078572329
120.26598537833608 83.23470687643814 4.329075295584352
120.43103920535756 83.4267768485928 4.168270553646329
120.58991119980314 83.61773795279979 4.000088564888199
120.7424540680007 83.80698984473077 3.82428959913165
120.888652708763 83.9939723552679 3.64083864638997
LINES 1 249
248 0 1 2 3 4 5 6 7 8 9 10 11 12 13 14 15 16 17 18 19 20 21 22 23 24 25 26 27 28 29 30 31 32 33 34 35 36 37 38 39 40 41 42 43 44 45 46 47 48 49 50 51 52 53 54 55 56 57 58 59 60 61 62 63 64 65 66 67 68 69 70 71 72 73 74 75 76 77 78 79 80 81 82 83 84 85 86 87 88 89 90 91 92 93 94 95 96 97 98 99 100 101 102 103 104 105 106 107 108 109 110 111 112 113 114 115 116 117 118 119 120 121 122 123 124 125 126 127 128 129 130 131 132 133 134 135 136 137 138 139 140 141 142 143 144 145 146 147 148 149 150 151 152 153 154 155 156 157 158 159 160 161 162 163 164 165 166 167 168 169 170 171 172 173 174 175 176 177 178 179 180 181 182 183 184 185 186 187 188 189 190 191 192 193 194 195 196 197 198 199 200 201 202 203 204 205 206 207 208 209 210 211 212 213 214 215 216 217 218 219 220 221 222 223 224 225 226 227 228 229 230 231 232 233 234 235 236 237 238 239 240 241 242 243 244 245 246 247

POINT_DATA 248
SCALARS curvature float
LOOKUP_TABLE default
0.13834897442157265
0.1314882039956583
0.12363742246093605
0.11495823522922073
0.10561969997536629
0.09579497102522286
0.08568299745296734
0.07548866290303882
0.06546915017630937
0.05594981698296453
0.04740348009999065
0.040524521198693174
0.036168079803442915
0.03502848055076622
0.037130521734067244
0.04164611294561065
0.04756674871839569
0.05415037225638869
0.060943898855121366
0.06772819106740456
0.07442592981556793
0.0810619264994679
0.08771937904451782
0.09451911271511917
0.10160554899326436
0.10911085437677008
0.11715761326455443
0.12582470043072433
0.13515912732785992
0.14517249431941784
0.15579941008006212
0.16693617295403848
0.17838035299734917
0.18985964727491034
0.20100553738248325
0.21135702965641834
0.22038179316684886
0.2274948696988455
0.23218976363023938
0.2340931375899249
0.23294969268661728
0.22867491660960362
0.22146208212472435
0.21170945678867592
0.19999125694532605
0.18698481222775734
0.17336656243394652
0.15982004089445365
0.1470042600260956
0.1355849608476752
0.12623924500483835
0.11957912304735177
0.11618912231834054
0.11638220801020076
0.12024821524074876
0.12748252676533656
0.13759975104197988
0.14997247012044984
0.1639662617444648
0.17895293984589652
0.1943260028265058
0.20947749962048484
0.22380338884811363
0.23673420889935845
0.24785509145200688
0.25684771226382425
0.26351223936937457
0.26786524774038384
0.27010517574584203
0.2705736973530417
0.2697809137022289
0.2682818469014105
0.2666304330419924
0.265349429462385
0.2649003872604186
0.2656881810504947
0.26799952113048825
0.27213537863728926
0.27820650923636064
0.2862095233917901
0.29596266617629974
0.3071136978044051
0.31909858858214957
0.33112716942517206
0.34214552336886284
0.35089638209772456
0.35602159364500596
0.35626565155508944
0.3507316272900179
0.33917809013022476
0.32212916693156124
0.3005792993023746
0.2757512792736842
0.24894010099291558
0.2214190746241684
0.19423751468604855
0.16835829747197023
0.1446598073837033
0.12417448898396215
0.10822625407558795
0.09843443981939293
0.09605387675539497
0.10116514323451176
0.11224843067391464
0.12743214361154506
0.14490610131971332
0.1633577270289107
0.1817168027156605
0.1990971169450251
0.2147621528206149
0.22813470605667055
0.23879293150343917
0.2465695897037486
0.2515535443636774
0.25403659728918504
0.2545190890138976
0.2536411064636641
0.25201545394737523
0.25022001421612705
0.24876601087794437
0.24808774635254022
0.24850663642317772
0.25028023256450904
0.25353760456467356
0.25833360568374847
0.2646124028874621
0.27222628174684027
0.28092890150267447
0.29038693633519336
0.3002059580848524
0.30986857161173786
0.3187775396783851
0.3262516621949344
0.33155655560514236
0.33406498471470053
0.3333853616485736
0.3293314566194203
0.322023274375619
0.3117843515123797
0.29912071482728064
0.28462876690626077
0.2690239789766184
0.2529534545610145
0.23691613531681013
0.22127108899438605
0.20631281809889326
0.19227107322711204
0.17930503759291774
0.16753495830592882
0.15704601891535322
0.147856660551666
0.13997276778416667
0.13330792151447887
0.12773713532018555
0.12309896289101883
0.11919539770287144
0.11578942964494654
0.11261069711485937
0.10944994586650354
0.106163805531069
0.10272366515499778
0.0992337132838906
0.09589752627455844
0.09301342406495684
0.09092485428213189
0.0899459339374652
0.09030659480312896
0.09208781423722487
0.09518417323829943
0.09935348155203642
0.10424398991941747
0.10946371874029996
0.11462040965330507
0.11935644150547735
0.12337281401666675
0.12641952759487995
0.12835268928548704
0.12909701402487533
0.12865418263353828
0.1271317882814383
0.12470084541944357
0.12156408056484425
0.11796413113721885
0.11413511527006118
0.11031044859931477
0.1067008707971152
0.10348353874454107
0.10077919691759062
0.09864094483274222
0.0970568684493268
0.0959417269175435
0.09516809280453493
0.09457408668279088
0.09399331931745812
0.093267385438921
0.09227189780107427
0.09090568640745549
0.08910085229988515
0.08682224297511514
0.08406360729184667
0.08085382568785321
0.07723210874690022
0.07323355244402147
0.06890222341562627
0.06427403209373425
0.05937101973714701
0.054227735730989206
0.04886222962409936
0.04329981177020717
0.03756845878128601
0.031701884645831374
0.025748401890544406
0.0197942536460744
0.014021612982409982
0.008932093801657374
0.0064073068528777795
0.00887652845183245
0.013728461382433261
0.01911102264565297
0.024553037474660703
0.02990989621342639
0.03512191359794473
0.04015597157684
0.04497954168541371
0.0495606807439265
0.05387766375081149
0.057907234426300046
0.06163450291056018
0.06505160210288985
0.06815680079993382
0.07097241622047104
0.07352985514112965
0.07587422640116519
0.07806919484015411
0.0801895102401219
0.08230910955732658
0.08449110181316181
0.08679054956526935
0.08926106628558053
0.09193606159245002
0.09483521579327837
0.0979547689486634
0.10126985352424792
0.10474302894807376
0.1083155963060208
0.11192058512448601
0.1154838952100578
0.118930371464049
SCALARS torsion float
LOOKUP_TABLE default
-0.034395559229878234
-0.0406825117050181
-0.04860584223538845
-0.059147652878746244
-0.07352119975814674
-0.09433529030858848
-0.1250638123283568
-0.17122414547771905
-0.24182356336788238
-0.34875187381153555
-0.5040482627910636
-0.7018851592229138
-0.8733079545921097
-0.8963530376198242
-0.7401842463771839
-0.5206305794353523
-0.3315008917538688
-0.1932388393905284
-0.09736377686075005
-0.030837481246274202
0.014540192700801757
0.045110112392621575
0.06407982783736785
0.07377700293621597
0.07623794368723782
0.07292872215291053
0.06538692171558051
0.05525764780860508
0.04347708272109083
0.031483307611000586
0.0196855303061353
0.009347705295717951
0.0006597001234028767
-0.006139177962029719
-0.010967057704298854
-0.01421157782818013
-0.01611512118862986
-0.017218094522233322
-0.018208756956321934
-0.019552813694959342
-0.022223756670333467
-0.0267648321926107
-0.03444677521919645
-0.046018568447808654
-0.0628591809566495
-0.08610536717236755
-0.11674018565821687
-0.15629972267779232
-0.2043627466319435
-0.25992930501308276
-0.31707438305259605
-0.3662915970297498
-0.3952851874932633
-0.3947347302402591
-0.36387277948977037
-0.3116035820275305
-0.25035547074912007
-0.1909446910564594
-0.13811300571349697
-0.0946238420204944
-0.05997304908773332
-0.0335822939381565
-0.014496996844861686
-0.0017058854210579809
0.005416874902553606
0.00781020179967046
0.0061172340470226775
0.0008919938249681075
-0.007322828383397819
-0.018140327889591842
-0.030182543849746116
-0.04322395806743957
-0.05585469440268207
-0.06783381920251878
-0.0778430080023256
-0.0854233881780186
-0.09013289013366649
-0.09155591658554821
-0.08981357091034503
-0.0850176212848641
-0.07743950095532624
-0.06737094852343622
-0.05510237161745817
-0.04140785967300531
-0.026363155574621537
-0.01076784902872153
0.005482391662679337
0.02186334918211791
0.03863554025038248
0.0555203651573601
0.07314034822319904
0.09272992262871889
0.11592044513311109
0.14482013035334546
0.1825775091327208
0.23387782809260754
0.30545760091582264
0.40549180596276035
0.5400025128745815
0.6983665057280678
0.8295837584764278
0.8553202598969091
0.7563928062790605
0.5994008398566181
0.45095143892111467
0.3335463809943652
0.24774351196803968
0.18532942195426885
0.14029692892401352
0.1079316490809377
0.08460601972248209
0.06835304232808631
0.05740056902540521
0.050589701450934485
0.04705665918032589
0.04574006728825884
0.046155354547006276
0.04749410103059488
0.04950055366355037
0.05160032656540262
0.05359494716565023
0.05520196097122664
0.05626953503440928
0.05688401196647934
0.05715770566009923
0.057293467602564756
0.05760603198036332
0.058298382063285435
0.05964106832172717
0.06178821352271194
0.06489758727179311
0.06912650228421877
0.07456315032517209
0.08142608500566101
0.08957858336776114
0.09904633692378945
0.10979047921259782
0.12187044949579677
0.13527912921295085
0.15009060011072145
0.16645284570334115
0.1842329481586282
0.20361578842728983
0.22484758507885647
0.24819373969505926
0.27338796376506264
0.30035186966561667
0.3289623500465173
0.35830608588371016
0.3877400432124403
0.4154739503527695
0.4398945365573113
0.45896158266305526
0.4724504352987311
0.4804874551812978
0.4831627501985441
0.4821475030560936
0.4794168458266696
0.47799087515807703
0.4793720081298769
0.48632214007779123
0.4981251035703244
0.514238960311355
0.5305005715570891
0.541376631516818
0.5399356068137241
0.5215317393873239
0.4853942683978992
0.43512353316660246
0.37713159532415497
0.31715656630802447
0.25959477042870316
0.20645024980031643
0.15949391889661427
0.11782388567626882
0.08156374339993097
0.04922059862912322
0.02028846751938001
-0.006265082011881822
-0.03101294841628665
-0.0544244117610458
-0.07701574881262781
-0.09898587495584674
-0.12004571891052458
-0.13933638602578344
-0.15576863538105806
-0.1674914770478712
-0.17318102361636264
-0.17208355126433408
-0.16367589669200497
-0.14882212057192115
-0.12816269867015612
-0.10378120133566027
-0.07696143391688653
-0.04894462135029607
-0.020736976016840714
0.00751896363543701
0.03528145112235467
0.06252347103658756
0.08741768861944489
0.109950952434026
0.12933072182707142
0.14511432045450723
0.15692957725314888
0.16391727088377628
0.16622275644771425
0.16286718860881672
0.15385647879221212
0.1381277776299709
0.11202109009923045
0.06837582778783376
-0.009440118245981887
-0.15725089940532955
-0.5055825069086733
-1.500361593347301
-3.014899978720773
-1.4971468098647147
-0.5414556525365728
-0.2258318197589431
-0.10435580270034596
-0.05222650790164388
-0.03065548487389082
-0.023950791763295107
-0.025554072052597528
-0.032326768372450666
-0.04234499812372979
-0.05488774193516006
-0.06910455562986283
-0.08492319476311784
-0.10173443515680425
-0.11954459682961426
-0.13748878917287724
-0.15530685101251024
-0.17166409450277426
-0.18561448407860154
-0.19702519179958758
-0.2057881390338913
-0.21123800309203486
-0.21233766970569742
-0.20933334265018735
-0.20279923852856832
-0.19326175977670704
-0.1818857861967126
-0.16920310157678195
-0.1562723510602589
-0.143520927227196
-0.13137055869663086
-0.120009284833286
