# vtk DataFile Version 2.0
00004433.nii_L_ICA_labeled
ASCII
DATASET POLYDATA
POINTS 271 float
106.07256914453181 71.16157788326082 32.27883340233219
105.90103097053016 71.25102273210655 32.049568764377845
105.72318645646291 71.34593091619857 31.827410473983765
105.5392009919988 71.44501347653366 31.612179918838923
105.3493857915769 71.54691115261643 31.403421738486166
105.15390197623464 71.65041324025825 31.2007709518558
104.95284994477429 71.75435802240342 31.00387415157989
104.74630708408665 71.85760898715387 30.812368803387866
104.53440741303862 71.9590833102358 30.625831110232916
104.3172342854243 72.0577284823575 30.44389805173414
104.09488508657498 72.15251500459048 30.266215915168516
103.86746113065631 72.24240562584261 30.092456530171237
103.6351296701633 72.32639566707344 29.922276448447697
103.3981413424237 72.4035500326247 29.75531498044812
103.15678312364437 72.47293317784612 29.591230742996565
102.91141630551209 72.53364264500861 29.429675024850763
102.66248389920044 72.5848154704784 29.270287224949865
102.41049178218047 72.62552282839803 29.112704396651743
102.15610358989247 72.65511638957277 28.956504137139845
101.90003590404145 72.67291123347755 28.801265820334073
101.64309238379347 72.67828811323923 28.64655140685309
101.38616236252098 72.67067713214979 28.491909228848854
101.13023990244045 72.64945838490428 28.336869798797153
100.87637714558736 72.61437606875833 28.180971631395263
100.62569979720095 72.56511344069843 28.02376499935665
100.37940746089318 72.50141998567182 27.864822379632376
100.13884150269274 72.42297386306326 27.70372638678657
99.90524435576599 72.32993222571434 27.540171339009596
99.67995218887144 72.22236442502684 27.373898891734353
99.46447093021207 72.10025629406897 27.204695748602234
99.26004398053482 71.96410296175085 27.032528886599767
99.06790067587734 71.81443106544991 26.8574604152084
98.88947391570404 71.65163255501717 26.679614230069518
98.72555841593734 71.47671255093381 26.49933249247382
98.57707626177236 71.29049924204588 26.316999630189553
98.44480905435974 71.09389810732884 26.133093819650647
98.32893810737527 70.8880946378126 25.948195203568712
98.22978866276006 70.67406680237313 25.762905956397415
98.1472684765835 70.45288269751822 25.577865808262622
98.08097574957229 70.22558744681952 25.39370293911994
98.03059433051136 69.99305048966461 25.211042199611168
97.99561235486648 69.7560802516607 25.030488560979755
97.97526293459903 69.5154226068498 24.852586410992373
97.96888583259438 69.27167337000168 24.677865579141667
97.97586708190974 69.02532451965838 24.50684676355066
97.99556965060675 68.77679747329798 24.340020673242854
98.02728137510688 68.52646472581684 24.177808018835176
98.070444445162 68.274633163423 24.020634410167368
98.12456767316593 68.02158142689852 23.868903868316817
98.18923459223274 67.76757902694284 23.722997218842536
98.26417310937293 67.51290362023191 23.583308819822335
98.34908576867737 67.25787030097308 23.450134016270855
98.44377417122283 67.00283225734162 23.323734774857364
98.54813494334894 66.74819427115037 23.204340428206528
98.66212837781485 66.49442512265276 23.09212067621662
98.78577272846195 66.24206790781155 22.98717014562441
98.91913542698649 65.9917463386116 22.889493860297573
99.0623831407031 65.74418751119765 22.79904128941557
99.21558704588901 65.50016669792494 22.715565126682804
99.3788574077478 65.26053385560282 22.638729753879726
99.55231025360364 65.02620818268001 22.568093197097905
99.73603852436267 64.79816796780499 22.503094017402617
99.9300969429854 64.57744487495575 22.44304760388393
100.13448851895157 64.3651201333553 22.38714506974212
100.34919163692788 64.16236385792155 22.334470062693384
100.57407522881647 63.97037872072315 22.283980597900058
100.808855350135 63.790350936427345 22.234530322566297
101.05317680134851 63.62356524895018 22.18489522264359
101.30653872751512 63.47136417004665 22.133765781678377
101.56828010902822 63.33519091081367 22.079748312441343
101.83755649704007 63.21668841524106 22.02133550679131
102.1131002342886 63.117168034623 21.957078420224562
102.39343453358875 63.03817696312694 21.885478044801662
102.67673230113627 62.981644228674725 21.80490200878676
102.96065250087126 62.94859828598627 21.714153750979822
103.24242726359583 62.94082480743121 21.6118236282375
103.5189509479495 62.95885801977881 21.49723067672141
103.78655585524369 63.003799036166754 21.36962599909433
104.0416929318899 63.075200015663896 21.229229581975456
104.28066665055297 63.172547932657 21.076520818313185
104.49994968033704 63.29469269142109 20.91251728754738
104.69697481751078 63.43942538659138 20.738919547815257
104.86935007466879 63.60464658509717 20.557542207935498
105.0159020386791 63.78759689055122 20.370556479230782
105.13589615159667 63.98569710049732 20.180089285479802
105.22937320873042 64.19636106157759 19.988230772620366
105.29654690769704 64.4173297850206 19.796935374135437
105.3384552664627 64.6464088266033 19.607976494436755
105.3558388708983 64.88183956644288 19.423000024537977
105.34970721404649 65.12203794594376 19.243510304359337
105.32133053898993 65.36559838990989 19.07081435628757
105.2717624249346 65.61133252283088 18.90615779817178
105.20203499100526 65.85817722117166 18.750709894955538
105.11306041188014 66.105155342834 18.6056365943068
105.00583339440207 66.35133790557502 18.47200659664985
104.88139631472497 66.59583536908279 18.350782258261493
104.74070378042285 66.83776615086552 18.242922737479585
104.58472893765378 67.07624439646595 18.149329674128175
104.41444809708607 67.3103612008887 18.070873874733586
104.23085816363862 67.5391689197241 18.008402522948387
104.0352747157671 67.76184114150148 17.962324371318815
103.82897271391869 67.97757314102999 17.933003905699906
103.61327149829363 68.18562246303735 17.920686030648973
103.3896099177305 68.38541875338716 17.925332651467674
103.15955266596971 68.57671496638834 17.94644278189161
102.92457153002756 68.75942950429594 17.98345911695931
102.6860729812918 68.93365663322164 18.03578825157869
102.44545480053121 69.09991490202341 18.102411080170263
102.20397103326509 69.25892199724578 18.18230458927951
101.96274816223104 69.41156871518675 18.274471987390374
101.72280112097813 69.55890727152449 18.377935071298353
101.4850640221355 69.70209860152363 18.49181043992936
101.25038727013087 69.8424264437937 18.61520583624471
101.01957054243267 69.98121694810483 18.747315337086004
100.79341185717 70.11981425719064 18.887441152476715
100.57273103174138 70.25957292152002 19.03495141711764
100.35839773699576 70.40184093449179 19.189262336406482
100.15135695246126 70.54794421584413 19.349815329793426
99.95265019092194 70.69916995439539 19.516049710370076
99.76343039570256 70.85674540585507 19.687372303360977
99.58508982975584 71.02189721431836 19.8631609703547
99.41893506462664 71.19559129163979 20.042603894858203
99.26643282054951 71.3786813114562 20.224792988608613
99.1291130725706 71.57182861498805 20.408657107465743
99.00880627183811 71.77562982395746 20.59292533027203
98.90679158165753 71.99008830525987 20.776111980231434
98.82442181581379 72.21504297641812 20.956567607744844
98.7630703616056 72.45012377730417 21.132416213108975
98.72312983323002 72.69434686181684 21.301847097747142
98.70537999482939 72.94678801009307 21.462792379033814
98.70946682153141 73.20604222315319 21.613503992327495
98.73515260938258 73.47074417323941 21.752128402345804
98.78159522911267 73.73939097803473 21.877093471286077
98.84755547707644 74.01048337772895 21.987118587180912
98.93198745368706 74.28260349623001 22.0807726487553
99.0330847418707 74.55437860203624 22.157368152201524
99.14936632695662 74.82454530411823 22.21603033781166
99.27928849729018 75.09189517449647 22.256007721945434
99.42104400429443 75.35536357886734 22.27706781013496
99.57302028057357 75.61393134530694 22.278896991947153
99.73371576143593 75.8665542884501 22.261078467526133
99.90146383344377 76.1123707132445 22.223765285925126
100.07474020040425 76.3505252499999 22.167059895127082
100.25208607911763 76.58018830534624 22.091138138689615
100.43210911236469 76.80046185887319 21.996095629428563
100.61341823566818 77.01067820362823 21.882533418719685
100.79472468127165 77.21018107504565 21.75105359405634
100.97481800731074 77.39836472411348 21.60233810669863
101.15253857120473 77.57460644510483 21.437053203485885
101.32683089368582 77.73851317453179 21.25616265492184
101.49675678429819 77.88983093638502 21.060732173918215
101.66146839848246 78.02836696784331 20.851817216511616
101.82019339839651 78.15399284394266 20.63046882718587
101.9722748328913 78.26674075266514 20.397808198992543
102.11723975941807 78.36690214167321 20.15506275333461
102.25466723882242 78.45477605920458 19.903335477064395
102.38422801533255 78.5307578241533 19.64368382769066
102.50559223765218 78.5952146834931 19.377044816685757
102.61865351846572 78.64879282713203 19.10441408220136
102.7233144266631 78.69210234068095 18.82665051439906
102.81951451636795 78.7257651035177 18.544522029375525
102.90723413124212 78.75041844144813 18.258718006870158
102.98641208713109 78.76663393219849 17.969830808385797
103.05714884333436 78.7751098085431 17.67843269030284
103.11952960995008 78.77648123955235 17.38501177194819
103.17364612026964 78.77134299952492 17.089994578279853
103.21961437390773 78.76026132647928 16.793758822608304
103.25750707502142 78.74372902122093 16.496633899898328
103.28753848251779 78.72228567219894 16.198924295265957
103.30993149908079 78.6964159077219 15.900893319943421
103.32491980240255 78.6665511873933 15.602770223308594
103.33276246804355 78.63307819486174 15.304755282435293
103.33372269486749 78.59632955858439 15.007023824290629
103.32824389941804 78.55666337012619 14.709715394971688
103.3167411892132 78.51436637504345 14.412941094883807
103.29967720833655 78.4696954736584 14.116781583030209
103.27750097583453 78.42285434678149 13.821295861648087
103.25084574278075 78.37407947619756 13.526493262963633
103.22031796544216 78.3235567248978 13.232360538061045
103.18656269625927 78.27145728092827 12.938855357713456
103.150232056748 78.2179263813029 12.645915170856224
103.11207556616093 78.16314495587037 12.353438261828808
103.07281864467538 78.10727444572235 12.061312895722976
103.03319803269325 78.0504814779183 11.769414449535342
102.9939673053732 77.99293972116477 11.4776100479642
102.95586086360555 77.93485609757218 11.18576424998191
102.91959154669033 77.87644283083593 10.893750568383627
102.88586272358391 77.81793076849654 10.601452797832868
102.85534748129085 77.75957289242423 10.30877196766932
102.82862227079104 77.70163330660763 10.015638554818567
102.80623245664331 77.64438563904625 9.722007018394693
102.78872032149131 77.58812020822508 9.427855369679305
102.77647430857338 77.53310500609217 9.133202192326676
102.76983008007456 77.47959120857456 8.838093990105037
102.76908915690449 77.42780965356938 8.542603336134157
102.77458618328468 77.37798228798736 8.246827546835814
102.78644442050924 77.33022970191793 7.950897052061302
102.8048409833369 77.28464109162391 7.6549598743925396
102.82993847563608 77.24124316684632 7.35918566191476
102.86196942303226 77.20001775066176 7.063770701511766
102.9010508771072 77.16084183757573 6.768926782326331
102.94736421125549 77.1235476147798 6.474887881142287
103.00113546822891 77.08791562684802 6.181914441746532
103.06263029762322 77.05367436003482 5.890297837343847
103.13220295921235 77.02051225125341 5.600377309009508
103.2102056855269 76.98807691753166 5.312529011633209
103.29700202041751 76.95599911398035 5.027170748870376
103.39302836700492 76.92390918935673 4.744788148906976
103.49875038409377 76.89144511098912 4.46593580405111
103.61465084416572 76.8582674191736 4.1912446598191435
103.74130210469473 76.82406625934276 3.921472119324345
103.87913171862101 76.78859939638937 3.657407504526746
104.02853551671177 76.75169683675801 3.3999212119338815
104.18987917473439 76.71326847667711 3.149976730285522
104.36348135103457 76.67331563528192 2.9086352631617527
104.5496125456199 76.63194470575823 2.6770734794147706
104.74816681019905 76.58940922730426 2.4562997788770726
104.95901694922829 76.5460689666636 2.2474047281950056
105.1820105738371 76.50240730319467 2.051599803307924
105.41660154987167 76.45903008213729 1.869788930492259
105.66211994817968 76.41662418740056 1.7027810220025095
105.9179069734809 76.37597608466872 1.5514872791591063
106.18302957049914 76.33792009890999 1.416469943673661
106.45642231070762 76.30330070096936 1.2980384598556576
106.73707180001043 76.27303366305509 1.1966048926258965
107.02382207040495 76.24799327396784 1.112248792752249
107.31546198811 76.22897199628433 1.0447697626272998
107.61084602421226 76.21679851078089 0.9940664294998897
107.90880913251247 76.21224944314028 0.9598854264755957
108.20818058018658 76.21590112716463 0.941599002535862
108.50786478018993 76.22832144233142 0.9386510175578501
108.8067902924148 76.25012937153006 0.9505929566662353
109.1039687786514 76.28158412806322 0.9764705830401792
109.39849076627024 76.32296378392356 1.0154581863104208
109.68951683122263 76.37448955357026 1.066711048859637
109.97627740266257 76.43632433423853 1.1293522165669547
110.25819772735805 76.50834191897376 1.2022485914235503
110.53478475179229 76.59043505296002 1.2843563474577147
110.80566707621033 76.68242444417972 1.374605158125862
111.07053700843078 76.78416273701569 1.471965379893865
111.32935229039676 76.8952287088724 1.575239000111444
111.58212267564112 77.01528048721933 1.6833249049891974
111.82896919477251 77.14395061893259 1.7951305377147861
112.07010106942744 77.28087327076365 1.9095821061723284
112.30578262361814 77.42572205567043 2.0256236595454586
112.5364294937454 77.57805241365033 2.142202149784696
112.76244700927579 77.73751255693345 2.2583149728438787
112.98426429676891 77.90377020843351 2.372987289560095
113.20231658935886 78.07651260679533 2.485273248562751
113.41699426521298 78.25551322561574 2.594209825022672
113.62873432371035 78.44042381307685 2.6989408544475015
113.83789253507061 78.63097701651344 2.7986215712653864
114.04477350063647 78.82691371208765 2.8924447616246742
114.24960979054191 79.02801400493891 2.9795887740359275
114.45258927352307 79.23400513401221 3.0593347683777483
114.65383693583051 79.4445870368693 3.131072005784077
114.85339802966045 79.65948158985242 3.19421575296934
115.05123253114577 79.87844829136849 3.2481229769958304
115.24728498405524 80.10113476702624 3.292440456818611
115.4414390954506 80.32721415158261 3.3268180996446546
115.63352191715927 80.55637403602447 3.3508899805817864
115.82333248365968 80.7882767199798 3.364384948904485
116.01067919378482 81.02254480305115 3.367234469249599
116.19533784924084 81.25882331144193 3.359330411467465
116.37705147908197 81.49676331162159 3.3405228774732603
116.55560491742425 81.7359863889875 3.310865880155353
116.7307923889345 81.97612061481087 3.270453666254119
116.90240687460425 82.21680313874195 3.219376519560112
117.07025685666325 82.45767597605897 3.157766968738402
117.23416933526363 82.6983893215087 3.0857974661003054
117.393992165168 82.9386050088179 3.00367785556247
LINES 1 272
271 0 1 2 3 4 5 6 7 8 9 10 11 12 13 14 15 16 17 18 19 20 21 22 23 24 25 26 27 28 29 30 31 32 33 34 35 36 37 38 39 40 41 42 43 44 45 46 47 48 49 50 51 52 53 54 55 56 57 58 59 60 61 62 63 64 65 66 67 68 69 70 71 72 73 74 75 76 77 78 79 80 81 82 83 84 85 86 87 88 89 90 91 92 93 94 95 96 97 98 99 100 101 102 103 104 105 106 107 108 109 110 111 112 113 114 115 116 117 118 119 120 121 122 123 124 125 126 127 128 129 130 131 132 133 134 135 136 137 138 139 140 141 142 143 144 145 146 147 148 149 150 151 152 153 154 155 156 157 158 159 160 161 162 163 164 165 166 167 168 169 170 171 172 173 174 175 176 177 178 179 180 181 182 183 184 185 186 187 188 189 190 191 192 193 194 195 196 197 198 199 200 201 202 203 204 205 206 207 208 209 210 211 212 213 214 215 216 217 218 219 220 221 222 223 224 225 226 227 228 229 230 231 232 233 234 235 236 237 238 239 240 241 242 243 244 245 246 247 248 249 250 251 252 253 254 255 256 257 258 259 260 261 262 263 264 265 266 267 268 269 270

POINT_DATA 271
SCALARS curvature float
LOOKUP_TABLE default
0.13566034878417543
0.12381345796025112
0.11309124933375174
0.10377575746839449
0.09607791275138429
0.09020305580723013
0.08630783328413763
0.08445514131563546
0.08454449715804536
0.08634473524939573
0.0895460198572495
0.09381771912457072
0.09884224690068158
0.10435007675971715
0.1101319555629592
0.11602237590435255
0.1218850280099409
0.12763636420120753
0.13331606789852218
0.13901179315103515
0.144794969264702
0.1507127755661047
0.1568119823861359
0.16311923332373324
0.16961805004970204
0.17629675273759826
0.1831185483031376
0.18992904172946284
0.19644178339403215
0.20231783620903573
0.20728652795871233
0.21107637101289642
0.21345146305333537
0.21430250082164765
0.21351848494728423
0.2110109497769597
0.20684457874526485
0.20127612244888585
0.19464625166354696
0.18729217125127348
0.17952772967068376
0.17167953019959037
0.1640644065107482
0.15694729653430178
0.15054389190549722
0.14502705245562839
0.14049022003649442
0.1369799133868027
0.13448586343536217
0.1329468004980918
0.13227693146847422
0.1323179620654746
0.13292520697551938
0.13396593821241026
0.1353334160273367
0.1369517645023153
0.1387377574288599
0.14066821997405582
0.1427878639638523
0.1451910540558435
0.14798397859773676
0.15127334319350744
0.15523219501486546
0.16010428459506243
0.1661223194711327
0.17349488351147205
0.1823969049171643
0.19296177638065443
0.20522437378817524
0.2191541658895141
0.23479491868010813
0.2520772301469028
0.2707161296883913
0.2901576601285718
0.30962188841419386
0.32815095612300926
0.34461043503480226
0.3579879821677657
0.367499589664957
0.3722899119856117
0.37174642940911384
0.3662232700284185
0.356640527931536
0.34417945358758106
0.33000792989188577
0.315165416331622
0.30046701980133195
0.28650074228149813
0.2738631736900588
0.2630073881769475
0.254113769559787
0.2471876595566995
0.24213775570763887
0.23882254229916908
0.23696769218952105
0.23626627252660912
0.23642227657983514
0.2370257461672557
0.23748770741448483
0.23715451781615923
0.23549954215239505
0.23210440399873072
0.2266677276446405
0.21906995272524446
0.2093690964984011
0.1977110084086284
0.1843976806158182
0.17002166541673555
0.15527817658234686
0.14088101516874285
0.12758575520031537
0.11625731276203773
0.10783325188643195
0.10321441166253582
0.1029891361340033
0.10721383139062665
0.11541855447792879
0.12683922932455152
0.14067975701235347
0.15617622637028075
0.17265464445962042
0.1895750527055506
0.206507052378305
0.22295175928623606
0.23823037317801948
0.2516933129290978
0.2628857971524815
0.27145816014561597
0.27733623269228075
0.2805579755718892
0.28135712524256973
0.2799674106685402
0.2767952509024658
0.2724873914738268
0.26762061375470453
0.26263706527590486
0.257833433620747
0.2534138162641278
0.24945994152424109
0.24598264694864877
0.24305196298760207
0.2406616577842829
0.23866439597411132
0.23682523743129646
0.23493333735180114
0.232829776900143
0.23036075229899747
0.2274413979442435
0.22401654707497973
0.21998441141323422
0.21521575926685982
0.2096653293746207
0.2034211059531983
0.19660753222250935
0.18935181054025108
0.18178466797257337
0.17403862747286386
0.16623660863830006
0.1584957676521391
0.15094077884110843
0.14368763531104942
0.13679707848404837
0.13030319803529247
0.124211560325492
0.11850879327458497
0.1131582959333563
0.10809169393628192
0.10324420091810053
0.09853108632978737
0.09385580740036946
0.08911644491306638
0.08421224887358747
0.07905776387013314
0.07359788549469692
0.0677941001823883
0.061611631679725186
0.05501457220433687
0.04801261410100235
0.04066234709047264
0.03304938310786447
0.02532428408439211
0.01781006497464121
0.011501046693636946
0.009624639658563684
0.0141172538854392
0.021077709656654994
0.028528041523593166
0.035883497115434884
0.04288532017001569
0.049386908885237356
0.055279384833045786
0.06049068014983442
0.06504357202205069
0.06896831811004338
0.07228462628406399
0.07501155851998861
0.07723676095145116
0.07909425205595148
0.08073984803344009
0.08234163846230308
0.08408940560467582
0.0861797793567851
0.08882542441433196
0.09221725504377525
0.09648814681431335
0.10171448667475749
0.10789527836793004
0.11498582207421251
0.12287422748952684
0.13139796726812095
0.1403783356545677
0.1496082628271496
0.15886559631818395
0.16792247409970215
0.17654525216886766
0.1844880026148598
0.1915172199573898
0.19746644755617898
0.20231505377247216
0.20608932217754622
0.2087671081076175
0.21031328211538747
0.21081562834034942
0.21043410604174778
0.20931785699416267
0.20766448699838605
0.20562731101146103
0.2032508942053833
0.2005059380944714
0.19740204223369773
0.19397040648815758
0.190187200407992
0.1860018023802653
0.18134073001860349
0.1761076670805571
0.1701949968147895
0.1635945767974449
0.15639348861364707
0.14869526063249458
0.1405884253340087
0.13219617214845983
0.12372423908678581
0.11543236177459386
0.10761906478375911
0.10063330511986886
0.09481498337028285
0.09045258427565493
0.0877474626624982
0.0867712651161649
0.08745867093342209
0.08954916273301591
0.09270496526556551
0.09657402979762399
0.10081050517853515
0.10509463299966529
0.10919298756586304
0.11296373109428841
0.11631308775445419
0.11919834846653653
0.12160606424435079
0.12354778197588658
0.12505668458162247
0.12617841339879493
0.12695718485088064
0.127428998026113
0.12761590349339688
0.1275378672448129
0.12720796257621084
0.12663871093127851
0.12584197393896338
0.124828856638757
SCALARS torsion float
LOOKUP_TABLE default
-0.2368385569661831
-0.275320788268881
-0.3190369636747925
-0.36625576827724143
-0.41309505720353984
-0.4536732791034834
-0.48046855481677614
-0.4878959405980683
-0.4746311926261094
-0.44552918256162505
-0.40814083950646524
-0.36938823747062743
-0.3340407560382361
-0.304187689865352
-0.2805928937110151
-0.26277556813006203
-0.2503105839354364
-0.2421236495739443
-0.23562333484015147
-0.2300426303963703
-0.22476699659686777
-0.21963932858042962
-0.21337578486368905
-0.2049593637111331
-0.19480926795860093
-0.1833010190841647
-0.17043278786711866
-0.15625727141223086
-0.14115838120554586
-0.12571235616605497
-0.11013176156387035
-0.094600014010041
-0.07993069234087863
-0.06571314306606994
-0.05118540154037887
-0.035882198150840004
-0.020645260880854204
-0.005845291330893327
0.008916198468485154
0.02389024667630415
0.03921995057088945
0.05422515825268339
0.06859879900260363
0.08109591268759765
0.0904802234998493
0.0958938430248678
0.09662463021103739
0.09188016885005601
0.08049572952556663
0.06225310377591066
0.03908472612750659
0.013358984841848793
-0.014594832602666183
-0.045655767437156686
-0.07946341679058874
-0.1131050621081758
-0.14524880514204036
-0.17556123657268644
-0.20285314132042834
-0.22732898516884184
-0.24908822110723544
-0.268643471415299
-0.28428687623350113
-0.29355179115328434
-0.29703876564767884
-0.2954301840666437
-0.2898374441595886
-0.28009813942942835
-0.26701907171341777
-0.2521303532404716
-0.2355077100049469
-0.2177643761722748
-0.1995251256745949
-0.18146038927666552
-0.1632427880425447
-0.14438062180094313
-0.12568267772935554
-0.10788427704915794
-0.09009739365751007
-0.0714609329450012
-0.052182204530960376
-0.033798126549081535
-0.016061216473767546
0.0008058494536848796
0.01706126719488199
0.03265004140135115
0.047687123762355094
0.061717039426463276
0.07359688608621204
0.08317980129285674
0.09066768335385826
0.09588528190016297
0.09835944399144514
0.09767102018679247
0.09441460566173869
0.09012603256421785
0.08480018090351928
0.07896594316572397
0.07292358798696995
0.06812156720049159
0.06592578365738344
0.06664448079722872
0.07097667637720176
0.0795688752215804
0.0936199378164164
0.11475977709726884
0.1441329705376066
0.18285502342121593
0.2333042256639123
0.2972253800180845
0.37578000722749577
0.46369132011730074
0.5464877176826244
0.5996747744625408
0.6010605042997116
0.5504205825859422
0.4697460781420374
0.38362656896135733
0.3070631015318012
0.2455611418336096
0.1988472553263123
0.16514176540370204
0.14138545103700859
0.1250308617045357
0.11471295314062932
0.10926523919963489
0.10755542123281324
0.10891066524216432
0.11198613831945531
0.11640749014621352
0.12145991233407237
0.12705841884713642
0.13239530656204834
0.13646592928470397
0.13903753853640283
0.1401123592671555
0.1395254400411639
0.13674113978367636
0.1317095945400965
0.1254897785822664
0.11844596051355115
0.11045637629013833
0.10166823916840674
0.09229827901466427
0.08332071802069481
0.07480886762997235
0.06734905833159015
0.061301858310366684
0.05649842281634341
0.05275852432618504
0.05016271899650459
0.049150126435598136
0.04985814785292505
0.05203219294073438
0.05544180742995799
0.060068935720970766
0.0656229336478598
0.07209357179805483
0.07902677876489657
0.08608440511820817
0.0929426812386392
0.09924584699984501
0.10456780884221854
0.10817520906842888
0.10948507245726193
0.10895946181269617
0.10698840631211745
0.10309338744959125
0.09642801131868879
0.08672935265021961
0.07490512576499239
0.06102389044443649
0.04552852499127158
0.028844606183487057
0.01008379859012485
-0.012673335214155503
-0.04228869623620035
-0.08103044954646353
-0.13622542407927898
-0.22707861520703057
-0.407276695023311
-0.84224524220665
-2.019074261229343
-2.861129007588188
-1.3467103445654025
-0.6164207984296005
-0.34923874177345743
-0.23346717736069927
-0.1750781104211045
-0.1395826640477907
-0.11537162658520919
-0.09597621985808089
-0.07803148240485344
-0.05949205406662536
-0.03877216991360445
-0.015459896038170329
0.010585570893291067
0.0394713933955885
0.06823619919762917
0.0952085653790853
0.1199100245328808
0.14144686676185594
0.15835846992696584
0.16600742348819192
0.1642753207628794
0.15469570263056936
0.1393381783698013
0.12004831372875
0.09784480387529222
0.07424007568787167
0.051423474275912325
0.030031161185496064
0.009929019781677016
-0.00907548202572071
-0.027393991333263115
-0.04468415833433732
-0.0614718433291296
-0.07672347990112574
-0.08989945538951674
-0.10166246927528211
-0.1128797459065033
-0.12369499791248224
-0.13272395489535443
-0.1398047487290034
-0.14535772130357116
-0.14941981281798358
-0.151908178511999
-0.15294302653978573
-0.15278915967525392
-0.15191545736502907
-0.15025289109867915
-0.14853120914211518
-0.14714947342667886
-0.14635879517897066
-0.14659166126460652
-0.14842016353529003
-0.1531040927573094
-0.16100743501040304
-0.1726017520018537
-0.18872564664964186
-0.2102227028118314
-0.23765724959989593
-0.2713250498630173
-0.3105170009420733
-0.3528653280302099
-0.39327124346078074
-0.42465595117664184
-0.43962641155239385
-0.433237294642547
-0.40497100806746683
-0.3627021581688647
-0.3138883163394507
-0.26370369309608155
-0.21549843713965586
-0.1715549676577563
-0.13515415929222166
-0.10560380256841469
-0.08167657154398049
-0.06229986201307917
-0.04681697876763035
-0.034797366545851076
-0.025798229069637434
-0.019363236889949512
-0.015211941077444672
-0.01245452604575956
-0.010645351268446788
-0.00953849167250976
-0.00881546804054989
-0.00839956556252158
-0.008039905518288207
-0.00768742523250301
