# vtk DataFile Version 2.0
00001756.nii_L_ICA_labeled
ASCII
DATASET POLYDATA
POINTS 229 float
109.74525481758369 73.89915801911675 33.905891148377634
109.58973955738765 73.93498247207764 33.65191350795473
109.41894876686182 73.96904909418157 33.40769929626795
109.23318259732879 74.00102222450008 33.17438294491756
109.03288681870772 74.03054987216066 32.95307587841322
108.81882390255727 74.05729670262627 32.744679215463115
108.59202363433361 74.08095501079917 32.54981806802283
108.3537141378551 74.10124941763522 32.36879815556941
108.1052437922253 74.11793482684702 32.20158842614355
107.84799702374025 74.13078390725003 32.04784218763687
107.58333050746162 74.13957069333632 31.90692914004323
107.31257727746937 74.14409470150292 31.777867545405602
107.03692556759378 74.14411846090466 31.65953091252711
106.75744253082901 74.13936958429731 31.550642622126638
106.47507556874656 74.12952842512328 31.449825117258065
106.19066579594696 74.11421783726544 31.35564235612606
105.9049699877011 74.09299593604062 31.266635149519036
105.61868823927797 74.06535139606484 31.181349108228822
105.33249461989453 74.03070211464579 31.098357296934992
105.04706904901501 73.98839695583972 31.016279347093327
104.76312875469748 73.93772136418879 30.933799504372775
104.48145785459722 73.87790724002863 30.849685877994443
104.2029337817264 73.80814763972246 30.7628115866081
103.92854840694062 73.72761712170929 30.672179519975433
103.65942195567955 73.63549791757589 30.576949732770622
103.39680713623522 73.53101185091903 30.476468851819106
103.14208212792647 73.41345711275432 30.37029692760861
102.8967310141626 73.2822480480094 30.25822900872241
102.6623123513729 73.13695496638 30.140306757787446
102.44041760697326 72.97734058850358 30.016817300845315
102.23262386558355 72.80338902587538 29.888276640030025
102.04044498103505 72.6153250129733 29.755398127472247
101.8652859518356 72.41362121629062 29.61904884125777
101.70840416845998 72.19899379969627 29.480197550898033
101.57096463094884 71.97234120630142 29.339857970657267
101.45380850795782 71.73484989255041 29.199050025270815
101.35758099191001 71.4878595409598 29.05873121096629
101.28276208374241 71.2328222719531 28.919765687144388
101.22964205427907 70.9712871781861 28.782901486561915
101.19833571908549 70.70486592250761 28.64875520670904
101.18879886779546 70.43520178352894 28.51780629188976
101.20084491149991 70.16394328449704 28.390398400244386
101.23416039666768 69.89272207243627 28.266746743296473
101.288318669113 69.6231350545461 28.146948702517125
101.36279104586076 69.35673017137832 28.03099579718551
101.45695671934807 69.09499526340367 27.918785752877127
101.57011178167681 68.8393498893066 27.81013339241736
101.70147898746677 68.59114027544243 27.704780550420818
101.85021818067979 68.35163795038 27.60240460080838
102.0154379429729 68.12204297985157 27.502626062583246
102.19621444992781 67.90349829660943 27.405016210588666
102.39169612946188 67.69720098921754 27.309109727195267
102.60077421042747 67.50412268571468 27.214374108471077
102.82244312641411 67.3253149300593 27.120259528462586
103.0556769182252 67.16185387755736 27.026186305889226
103.29945316072005 67.0149413055169 26.931544261788634
103.55264824514988 66.8858281218016 26.835699406677463
103.81400515388592 66.77577885483704 26.738020307961065
104.0821859368288 66.68630901787739 26.637876392028584
104.3556494389646 66.61912499140533 26.534664350396522
104.63256546641107 66.57613193472814 26.42784578084227
104.91071345423417 66.5594076608574 26.31700506697366
105.18737648288689 66.57112330866914 26.20192984919128
105.45918487154613 66.61365364744105 26.08268363220773
105.72214726618542 66.68877699680799 25.95980615250439
105.97167223320903 66.79775921384119 25.834365156092726
106.2029031436841 66.94072312547412 25.70802863555291
106.41107066029919 67.1164976056374 25.583009377242096
106.59263917606468 67.3219160642998 25.461779531130603
106.74532377135641 67.55285731538258 25.346759532626965
106.86848968805239 67.80450283579374 25.24000838791485
106.9634211154565 68.07182245008504 25.142855232683605
107.03203623031833 68.35057434686422 25.056142721020013
107.07720426227357 68.63712444401219 24.980028400025258
107.10194419818374 68.9287036646822 24.914250044637747
107.10916895592283 69.22329037632278 24.85826121459604
107.10162503520803 69.51945444537905 24.811284206343775
107.08181032718878 69.81623301726508 24.772380173962976
107.05194660803704 70.11301659884835 24.740493675495795
107.01398025035856 70.40945415952643 24.71448131381775
106.96958166613203 70.7053748691243 24.693133839735854
106.92031007883699 71.00074568172646 24.675073704457755
106.86746600460484 71.29560909011752 24.65888315335994
106.81218876364551 71.59004631055767 24.643046288989098
106.75547925600911 71.88413877315199 24.62592355614499
106.69824278880806 72.1779367373234 24.605788955626934
106.64127361405498 72.47141465280501 24.58084454487128
106.5852872630941 72.76443452462269 24.549230246060446
106.53093617999882 73.05670925166567 24.509069026940992
106.47881684512012 73.3477710184531 24.458527623928035
106.42947006687949 73.63695171435751 24.395891980454056
106.38337331496173 73.923381889646 24.319650842762545
106.34092495484227 74.2060125224715 24.228575885904966
106.30242314195797 74.48366009941982 24.121786265465225
106.26806886874711 74.75502137524695 23.99867994655517
106.23786353300363 75.01887275111923 23.859253234365866
106.21167050749862 75.27403347198356 23.70376811422253
106.18918792595048 75.51944657965974 23.532782396548537
106.16995197308815 75.75421387485382 23.347080790769994
106.15334969284805 75.97760909544665 23.147601504405184
106.13863758700109 76.18907351665314 22.935370874398537
106.12496481003026 76.38816997253961 22.711427094984156
106.11139313669001 76.57465501114748 22.47686954271307
106.09693360504095 76.74835259998316 22.23274025264172
106.0805677087377 76.90916699220904 21.980053180107802
106.06127609348668 77.05706825801468 21.719796426761317
106.03807066192151 77.19208324311259 21.452937880653355
106.0100302181045 77.31429321737404 21.18043127911314
105.97634049699774 77.42383750518691 20.90321877086572
105.93633639777649 77.52092166974138 20.622226846697593
105.88954455028015 77.60582770340011 20.338353271213556
105.83572051721478 77.67892329335308 20.0524448608255
105.77487722152686 77.74066678815153 19.76526773504965
105.7072994872954 77.7916052800133 19.477474398003057
105.63354411457765 77.83236463376326 19.189573009050317
105.55442486567058 77.863632520058 18.901904962892264
105.4709868201499 77.88613675594449 18.614634858323786
105.38447345452695 77.90062318341597 18.327755369276023
105.29629200432602 77.90783602475335 18.041106328736173
105.20797969562217 77.9085041020475 17.75440608726819
105.12117258706661 77.90333368014156 17.467291863683478
105.03757636891946 77.89300840849482 17.1793657948788
104.95893664264037 77.87819507441719 16.890243625759993
104.88700679955058 77.85955345186704 16.599602683133195
104.82351033524506 77.83774820410693 16.307226057796317
104.77009883503126 77.813460380248 16.013038877092324
104.72830582926368 77.78739673025582 15.717133409283374
104.69950256640811 77.76029491990904 15.41977990969354
104.68485981886872 77.73292424048164 15.121422620863346
104.68532287301058 77.70608149043673 14.822662538903163
104.70160225739392 77.68058347864685 14.52423123933043
104.73418124174118 77.65725714101258 14.226961413519351
104.78333669658828 77.6369290904575 13.93175953647822
104.84916765434103 77.62041510833104 13.639584517834711
104.93162527735174 77.6085099817065 13.351433710205852
105.03053778205157 77.60197707132542 13.06833502755718
105.14562685928641 77.60153664386905 12.79134221350424
105.27651336836048 77.60785249639048 12.521528925752209
105.42271363488939 77.62151593410563 12.259977538787519
105.58366285738742 77.64304811160606 12.00778405341037
105.75860841266874 77.67283013229914 11.765966281901527
105.94668007806234 77.71112482370944 11.535465632214764
106.14688375648083 77.75806387479835 11.317100973810108
106.35810960913501 77.81364118753127 11.111520295504976
106.57916148591374 77.87771964951861 10.919166236818775
106.80879750237465 77.95004685805316 10.740257863878602
107.04577511263702 78.03027707200118 10.574790852536642
107.28889565687935 78.11799611781095 10.422557362576114
107.5370418606687 78.21274538461327 10.283180356930743
107.7892055370253 78.31404150520531 10.156156813682049
108.04450425046326 78.4213905404761 10.04090310926319
108.3021878648148 78.53429634485916 9.936796923494517
108.56163734488887 78.6522640923611 9.843212832016382
108.82235750568861 78.77480053454097 9.759548471380599
109.08396648647658 78.90141235615216 9.685242443381432
109.34618264574384 79.0316046445602 9.619782857993863
109.60881066771758 79.1648801884639 9.562709232171633
109.87172677660044 79.30074115019852 9.513607591894742
110.13486405771096 79.438693127793 9.47210141449553
110.39819786850178 79.57825218219399 9.437839109690005
110.66173197470752 79.71895434849526 9.410479943344656
110.92548593563336 79.86036692213287 9.389679781240728
111.18948408815457 80.00210085399172 9.375077826926958
111.45374691760762 80.14382251771715 9.366286053251715
111.71828462911091 80.28526435006789 9.362881686749855
111.98309339172265 80.4262324141345 9.364404163471328
112.24815348229697 80.56661091101876 9.370355883312309
112.51342934110912 80.70636229534703 9.380207256572715
112.77887058964777 80.84552372303008 9.39340458040338
113.04441391654073 80.9841994074688 9.40938029046402
113.30998520895032 81.12255004480387 9.427564169096607
113.57550206335497 81.26077949554464 9.447394699426775
113.84087647762918 81.3991199102041 9.468329799861863
114.10601799352114 81.53781581828561 9.489856146336487
114.37083731177307 81.677108121974 9.511496969816895
114.63525045985192 81.81721882328314 9.532817460118741
114.89918351132229 81.95833703395007 9.553428148411511
115.16257746607157 82.1006074130534 9.572985345429824
115.4253931007247 82.24412115425328 9.591189448606192
115.68761480750177 82.3889109570318 9.60778057956291
115.94925325015335 82.53494941292888 9.622532602503727
116.21034566970933 82.68215205741843 9.635245669656308
116.47095405621499 82.83038377317095 9.64573809371898
116.731160473698 82.97946913174204 9.653838049830044
116.99106023728712 83.12920504113502 9.659375403641253
117.25075298203663 83.27937553923276 9.662174083164963
117.51033253907454 83.42976731835935 9.662044923419987
117.76987624657131 83.58018520324163 9.65877919016123
118.02943437437997 83.73046672966332 9.652142636285854
118.2890204597561 83.88049464192238 9.641870279594663
118.54860266884134 84.03020708980014 9.62766178935193
118.80809683740162 84.17960415633792 9.609177854502805
119.06736067325122 84.32875113824879 9.586037372041403
119.32618956462836 84.47777730552298 9.557816070308434
119.58431305251865 84.626871201471 9.524046282124823
119.84139231589562 84.77627164653485 9.484218669877981
120.09701782064427 84.92625582113475 9.437785623938476
120.35070766369839 85.07712413149952 9.384167344456454
120.60190629305305 85.22918319049158 9.322760236752812
120.84998435839084 85.38272724181397 9.252948393630554
121.09424012617576 85.53801895913567 9.174117661880373
121.33390332391204 85.69527040129228 9.085672366411293
121.56814216978783 85.85462491168532 8.987053863720746
121.79607384572837 86.01614128415824 8.877759870782375
122.01677877720762 86.17978088751056 8.757363427095957
122.22931763602843 86.34539927630082 8.625529623617792
122.43275052694399 86.51274251927731 8.482029174934713
122.62613595856321 86.68145099694149 8.326725747051427
122.80859920784039 86.85105956743745 8.159639086902885
122.97931113993377 87.02101658014507 7.980898481067327
123.13750121693721 87.1906971137651 7.790743070994946
123.28246888554364 87.35941879172638 7.5895198708270515
123.41358760333297 87.52645812981503 7.377675302117714
123.5303060264266 87.69106561119379 7.155745682024688
123.63214707902212 87.85247873316648 6.924347436518899
123.71870525141107 88.00993212358496 6.684167137515425
123.78964267745128 88.16266490475206 6.435952189955707
123.84468417556927 88.3099249125906 6.180502251287502
123.88361205136809 88.45097067144218 5.918662360299725
123.90626105985078 88.58507144411402 5.651317937436397
123.91251461662421 88.71150663418899 5.379392196270707
123.90230289637971 88.8295654950225 5.103845783487262
123.87560390805038 88.9385483131875 4.825678184228558
123.83244815270798 89.0377702002643 4.545929908446161
123.7729271199867 89.12656817712309 4.265683930927065
123.69720549605871 89.20431221839249 3.9860646342917496
123.60553584624097 89.2704202908891 3.7082323802884405
123.49827431164665 89.3243770834818 3.433371997399734
123.375894569733 89.3657552905048 3.16267411690505
LINES 1 230
229 0 1 2 3 4 5 6 7 8 9 10 11 12 13 14 15 16 17 18 19 20 21 22 23 24 25 26 27 28 29 30 31 32 33 34 35 36 37 38 39 40 41 42 43 44 45 46 47 48 49 50 51 52 53 54 55 56 57 58 59 60 61 62 63 64 65 66 67 68 69 70 71 72 73 74 75 76 77 78 79 80 81 82 83 84 85 86 87 88 89 90 91 92 93 94 95 96 97 98 99 100 101 102 103 104 105 106 107 108 109 110 111 112 113 114 115 116 117 118 119 120 121 122 123 124 125 126 127 128 129 130 131 132 133 134 135 136 137 138 139 140 141 142 143 144 145 146 147 148 149 150 151 152 153 154 155 156 157 158 159 160 161 162 163 164 165 166 167 168 169 170 171 172 173 174 175 176 177 178 179 180 181 182 183 184 185 186 187 188 189 190 191 192 193 194 195 196 197 198 199 200 201 202 203 204 205 206 207 208 209 210 211 212 213 214 215 216 217 218 219 220 221 222 223 224 225 226 227 228

POINT_DATA 229
SCALARS curvature float
LOOKUP_TABLE default
0.21558783090233635
0.21928191426586255
0.22107761314970167
0.22069265591469306
0.21793089574497956
0.21272409823026303
0.20513932841653282
0.1953723680495532
0.18371816710063285
0.17055657014000164
0.15632245928934466
0.14152027479996135
0.12670812159993486
0.1125599221795208
0.09991761489726506
0.08986047122509716
0.08363616304950927
0.08230264332242405
0.08616052014210789
0.09455084911024833
0.10629302965678694
0.12021608727772597
0.13537615678822842
0.15105876272289065
0.16670375558771264
0.18186273250118357
0.1961557070463987
0.2092705983168683
0.2209498131983426
0.23101671721209688
0.2393598380977195
0.2459442617915322
0.2507898178361962
0.2539873270776607
0.2556586608874332
0.25597813162555877
0.2551320290914054
0.2533334429067018
0.2507930192541747
0.24771285668686613
0.244272425565515
0.24062501826888283
0.23689530222370372
0.23316624978745704
0.22950365620364307
0.22594967525114593
0.22255850449146047
0.21939262207594068
0.21655427681490194
0.2141814731278195
0.2124666359792619
0.21165955034874132
0.21205005836624247
0.21398098517708214
0.2178304466630486
0.22401015007003303
0.23292170593125697
0.24492453487023147
0.26031639287678493
0.27928270863170257
0.3017917015964987
0.32749878537140664
0.3555383771822395
0.38433560521755616
0.41136955300692457
0.4333043684226542
0.44643881706509714
0.4478277396069819
0.4364804187404022
0.41360703225810797
0.3821440481376256
0.3457715900592838
0.3076120670554821
0.26991460378481796
0.23397304264122123
0.20037645511549765
0.1692470705739848
0.1404635981520408
0.1137755820517282
0.08896349054594975
0.06597689417944415
0.04536297949045401
0.03000590719203685
0.028361781645985434
0.041773225639866
0.06083894743986792
0.08153785541858025
0.10257560721070569
0.12323371648084203
0.14288453259744816
0.1608838962051173
0.17660397279028592
0.18949141333321526
0.19915923644318476
0.2054162811052468
0.20836860065387405
0.2083389088257989
0.20583310456018097
0.2014716612424947
0.19591401746268167
0.1898049530138208
0.18371893583593482
0.17812710531456352
0.17335505445594937
0.1695612146263762
0.16671449948849704
0.1646008357390791
0.16284279596989218
0.16094881030516847
0.1583712803010994
0.15458883217816233
0.14916829916714383
0.14183991497862702
0.13252902236648448
0.12140147281281709
0.10888321995462627
0.09572064126441301
0.0830960632561877
0.07279153232181618
0.06714708193279456
0.06808816023542051
0.07556571655619694
0.08767375057767421
0.10219493086885512
0.11745460776647895
0.132298649256046
0.14598338639765196
0.15803829376852596
0.16825750266741296
0.17663862430062768
0.18336809962170803
0.18875512037952452
0.19317181635276787
0.1969850836602794
0.20048475542579616
0.2038460439675769
0.20709302698214718
0.21010343867313974
0.21262726736291196
0.21431956034987196
0.21481954200370026
0.21378517459936613
0.2109936691604808
0.20633924091520872
0.19989866129596703
0.1918747068592614
0.1826117718419824
0.17250733855218958
0.16197728149578047
0.15140438067359427
0.14110090954634377
0.13131239135335052
0.12218639188347363
0.11381505618002558
0.10621236488069055
0.09936338782421389
0.09320534565629929
0.08766066693363125
0.08262277053583905
0.07796727309433371
0.07355020191558474
0.0692112524906532
0.06479458241962127
0.06015072850415459
0.055172873926798593
0.049788704835987685
0.043991324416782655
0.03781980483354985
0.03137576909437844
0.024811865943618255
0.018361343234122692
0.01244087913297697
0.00811094701872177
0.007684151411961836
0.010812955553908227
0.014759680301877446
0.018422101808702164
0.02147502434494583
0.02385291066291305
0.02559374630509591
0.026834185211191526
0.027763003394691274
0.028613569620032836
0.02961258896434483
0.030941795935061155
0.03270458364907199
0.03492061639237882
0.03755783166076111
0.04056956482259023
0.04393737141383946
0.04768571962205687
0.05189174265291241
0.056660635876045806
0.062112056606773956
0.06833603301329631
0.07538582036878644
0.08324413784531028
0.09184109304142579
0.10104316570988373
0.11067941345410441
0.12054470104849241
0.13041712719207338
0.14007528274485734
0.1493028317103558
0.15791911098343664
0.16577150531442575
0.17277003871962565
0.178863826098651
0.1840672993476779
0.18842713686723483
0.19202691118350207
0.19496264196544927
0.19734262282708467
0.19927359352526408
0.20086867553372978
0.20223554630737434
0.20348855766448398
0.20473233280804745
0.20606912975518182
0.2075815211693511
0.20933206407423405
0.21135093797039967
0.2136296140745539
0.21612027680578189
0.218730232094133
0.2213327281562232
0.22376726953770368
0.2258594103052671
0.227429884667437
SCALARS torsion float
LOOKUP_TABLE default
-0.021042257295662177
-0.02401892226312003
-0.027482407664300428
-0.031774550035795435
-0.03722218902184103
-0.0446812538381765
-0.054930322488493846
-0.06928369500148858
-0.08917541793913751
-0.11655047323404687
-0.15422354763759988
-0.2056576529713503
-0.275949291372853
-0.36966935562228526
-0.48866260293299685
-0.6193451950453956
-0.7228702798249821
-0.7430474366077954
-0.6645240141831611
-0.5304431077857188
-0.3941155902476694
-0.28070910555884043
-0.193142119262722
-0.12715070752164537
-0.07672716433597004
-0.038421455523303505
-0.008650084425094729
0.013718289249692218
0.030325535539116186
0.04123634271080006
0.04719742881518812
0.04834264855421773
0.04514415549542967
0.03813201116753274
0.027788036558619247
0.015029841642847347
0.00042531379244381117
-0.015045033880177784
-0.030947749485682612
-0.0466080735604911
-0.06166590961185837
-0.07563741036501194
-0.08843980375764421
-0.09999488570990904
-0.11047757578873019
-0.12012848881956167
-0.1291738915645746
-0.13790003219845118
-0.14638574484216252
-0.1546802594635845
-0.1626107535058616
-0.16976560572770927
-0.17572865634911425
-0.1795874366109453
-0.1809010684654593
-0.1786212752947739
-0.17276200466337904
-0.16290749464796328
-0.14970590389663635
-0.13350584266644017
-0.1150952156969607
-0.09518995967210755
-0.0741037467104214
-0.0524801863661021
-0.030280605537757438
-0.008257796064654382
0.013218044757928529
0.03307311383681057
0.050560117241105346
0.06527658238582441
0.07663935442564279
0.08486989204212363
0.09013441776661639
0.09249124100467014
0.09175323054540029
0.08684549644187677
0.07644447789842497
0.0562527319524343
0.019514483062355314
-0.05328282220680942
-0.210972368243359
-0.6134699058844423
-1.6070027546035601
-1.8646136427813513
-0.8272301385225063
-0.3468286692118935
-0.15769767464759207
-0.07278443133516437
-0.0298711997976597
-0.006575621407440601
0.007921573060013324
0.018126041853838572
0.02754855672276175
0.03761387776158857
0.04977902493974312
0.06466214336073428
0.08241967997725945
0.1033256392117783
0.12655437056423607
0.1519382805923317
0.17759082379328664
0.2025065563021718
0.2238652209753923
0.23995243627890292
0.24824438144012512
0.24773367403237517
0.2379388938892224
0.2194566078042816
0.19362760145037794
0.16129803407180665
0.12371925075927566
0.07997622639371403
0.02918816790777519
-0.032968412208107034
-0.11161105852732833
-0.21786713193302076
-0.3650121832698712
-0.5693006512138239
-0.8175852894781228
-1.0144652075078697
-1.0095775607202622
-0.8204399410752842
-0.601126337525084
-0.4328435349428082
-0.3205703976083888
-0.24861270416168788
-0.2031534271845631
-0.1747548554826955
-0.15717410843651383
-0.14657329102921243
-0.1398844884385037
-0.13530025209585064
-0.13104345747314547
-0.1262249950564937
-0.12009439736029286
-0.11252298174702313
-0.1037794286053834
-0.0942597605563501
-0.0847796860961265
-0.0757969760551236
-0.06805065316635432
-0.06173689366203525
-0.05715795148655575
-0.05415559626684669
-0.052471310820938935
-0.05163566997984915
-0.05088564323053409
-0.04945651136867717
-0.04619641408268359
-0.04025060207249166
-0.03055507421642115
-0.016513494208516895
0.002177213430546816
0.02532065149381753
0.05181430377322015
0.0803406819365123
0.10842520191104274
0.13405269647840548
0.15452675621510595
0.16832760436994476
0.17418912113126875
0.17200710415839257
0.1623897811304494
0.1459587017405571
0.12367649241565234
0.0949787801303368
0.05865863171648026
0.00967904353907913
-0.06195853661000125
-0.18228021559976668
-0.4198869769493836
-0.988786128366074
-2.2858980109329465
-2.365281170191775
-1.083327854213474
-0.5312690374794743
-0.33058088775972816
-0.25787397074180546
-0.241540295116467
-0.2539213209843493
-0.281077389300445
-0.31215400832091195
-0.3352713676880406
-0.3399289531442647
-0.3183191217082237
-0.27117901388968324
-0.20463469323779307
-0.12877861272967558
-0.051860844507046304
0.019304832862804957
0.08053620720639047
0.12861920527573642
0.1618498118942019
0.18001501374603535
0.1843463407603562
0.17769911963013113
0.16319806480248875
0.14429160926473675
0.12344078340009097
0.10255175175640162
0.0826036352544841
0.06416523420777462
0.04736924055439875
0.03222548009359146
0.01863594727938051
0.00657052414327201
-0.003971467613050431
-0.012964170849463197
-0.020316677929761696
-0.026079777586697002
-0.030235762785419243
-0.033017403142315875
-0.03457870956751599
-0.03526985083506714
-0.03533176327155363
-0.035074263538921006
-0.03469004529556839
-0.03430582402564607
-0.033977170913274415
-0.033632614099443084
-0.033205813220058805
-0.03258589550140127
-0.03170496233004687
-0.030566493160937066
-0.029188986253028272
-0.02765030202719703
-0.026015849563153354
-0.02432974216246347
-0.0226322469916748
