# vtk DataFile Version 2.0
00000656.nii_R_ICA_MCA_radius_pt3d_curvature_torsion
ASCII
DATASET POLYDATA
POINTS 100 float
78.3933 71.4105 28.7289
78.85 71.0821 28.4058
79.1456 70.8432 28.1881
79.5747 70.457 27.8596
79.9848 70.04 27.5298
80.3737 69.595 27.1997
80.7387 69.1257 26.8695
81.0767 68.6354 26.5387
81.3844 68.128 26.2064
81.658 67.6077 25.8713
81.8939 67.0787 25.5318
82.0283 66.7234 25.3022
82.1932 66.1901 24.9516
82.3109 65.6608 24.5922
82.3788 65.1407 24.223
82.395 64.6353 23.8433
82.3584 64.1506 23.4533
82.2688 63.6925 23.0536
82.1274 63.2673 22.6458
81.9365 62.8812 22.2324
81.7832 62.6486 21.9551
81.5178 62.3414 21.5392
81.2141 62.0892 21.1272
80.8784 61.8975 20.7233
80.5173 61.7708 20.3321
80.1383 61.7131 19.9582
79.7492 61.7275 19.6062
79.3579 61.8158 19.2801
78.9723 61.9787 18.9833
78.7221 62.1283 18.803
78.3627 62.4126 18.5601
78.0278 62.7653 18.3508
77.7231 63.1817 18.1744
77.453 63.6555 18.0288
77.2207 64.1793 17.9109
77.0284 64.7451 17.8163
76.8772 65.3441 17.7398
76.7672 65.9674 17.6754
76.7164 66.3917 17.636
76.6729 67.0347 17.5772
76.6667 67.6772 17.5123
76.6952 68.3103 17.4341
76.7551 68.9252 17.3356
76.8426 69.514 17.2098
76.9537 70.0694 17.0506
77.0839 70.5848 16.852
77.2286 71.055 16.6095
77.3307 71.3413 16.4214
77.4886 71.7277 16.0978
77.648 72.0615 15.7233
77.8039 72.3429 15.2983
77.9516 72.5738 14.8245
78.0868 72.7575 14.3052
78.2054 72.8986 13.7448
78.3039 73.0026 13.1489
78.3789 73.0755 12.5235
78.4145 73.1103 12.0937
78.4444 73.1465 11.4348
78.4443 73.1699 10.7654
78.4122 73.1873 10.0931
78.3468 73.2051 9.42508
78.2472 73.2297 8.76867
78.1126 73.2667 8.13073
77.9428 73.3212 7.51769
77.7378 73.3977 6.93544
77.5817 73.4628 6.56692
77.3191 73.5837 6.04685
77.0234 73.7343 5.56895
76.6963 73.9159 5.13554
76.3397 74.1287 4.74783
75.956 74.3723 4.40602
75.5479 74.6455 4.10933
75.1182 74.9466 3.85604
74.6697 75.2733 3.64361
74.3618 75.504 3.52306
73.8887 75.867 3.371
73.4046 76.2478 3.2497
72.912 76.6431 3.15473
72.4134 77.0497 3.08161
71.911 77.4647 3.02588
71.4065 77.8851 2.98322
70.9014 78.3087 2.9495
70.397 78.733 2.92086
70.0615 79.0153 2.9028
69.5599 79.4368 2.87483
69.0607 79.8547 2.84312
68.5642 80.2678 2.80499
68.0703 80.6752 2.75808
67.579 81.0762 2.70039
67.09 81.4703 2.63022
66.603 81.8573 2.54613
66.1176 82.2366 2.4469
65.7947 82.4853 2.37181
65.3112 82.8517 2.24512
64.8283 83.2101 2.10086
64.3457 83.5604 1.93835
63.863 83.9025 1.75696
63.3799 84.2363 1.55616
62.8961 84.5617 1.33546
62.4114 84.8787 1.09438
LINES 1 101
100 0 1 2 3 4 5 6 7 8 9 10 11 12 13 14 15 16 17 18 19 20 21 22 23 24 25 26 27 28 29 30 31 32 33 34 35 36 37 38 39 40 41 42 43 44 45 46 47 48 49 50 51 52 53 54 55 56 57 58 59 60 61 62 63 64 65 66 67 68 69 70 71 72 73 74 75 76 77 78 79 80 81 82 83 84 85 86 87 88 89 90 91 92 93 94 95 96 97 98 99

POINT_DATA 100
SCALARS radius float
LOOKUP_TABLE default
1.85296
1.89314
1.8417
1.80468
1.76857
1.82763
1.8069
1.94868
1.95599
1.9557
2.01728
2.06897
2.13114
2.26047
2.2213
2.30675
2.21174
2.24947
2.13526
2.02495
1.97152
2.02495
2.08749
2.25156
2.25156
2.34151
2.29152
2.27525
2.5108
2.70826
2.86132
2.79923
2.72995
2.71468
2.78013
2.77121
2.62926
2.56028
2.44921
2.48433
2.46908
2.36184
2.45191
2.34226
2.56491
2.43376
2.51535
2.40489
2.37163
2.33712
2.39897
2.11719
2.19805
2.17086
2.17086
2.12329
2.11822
2.11822
2.12942
2.26881
2.23046
2.12942
2.01693
2.12836
2.30624
2.36751
2.36189
2.24783
2.20634
2.21436
2.29602
2.33711
2.15824
2.26748
2.24808
2.17423
2.22366
2.25393
2.09847
2.12032
2.13172
2.15371
2.24303
2.22066
2.15409
2.11249
2.2627
2.18389
2.23242
2.19335
2.20283
2.19156
2.2813
2.26754
2.26876
2.26876
2.33355
2.35331
2.28708
2.34974
SCALARS curvature float
LOOKUP_TABLE default
0.0990406
0.0915641
0.0870633
0.0812625
0.0768832
0.0741892
0.0734939
0.0751318
0.0792522
0.0857546
0.0943623
0.101054
0.112073
0.123698
0.135302
0.146434
0.156807
0.166325
0.175316
0.184492
0.191093
0.202282
0.215683
0.231763
0.250402
0.27049
0.289469
0.303568
0.308855
0.30632
0.293111
0.269931
0.240065
0.207794
0.176484
0.148239
0.124315
0.105754
0.0969842
0.0903708
0.0926492
0.103821
0.122743
0.147855
0.177381
0.208732
0.237732
0.252951
0.265176
0.261492
0.243342
0.215668
0.184048
0.15293
0.12512
0.102189
0.0901155
0.0774823
0.0721434
0.0741473
0.0823882
0.09533
0.111662
0.130199
0.149463
0.16177
0.177679
0.188722
0.19343
0.191118
0.182136
0.167738
0.149638
0.129583
0.115967
0.0961295
0.0777358
0.061149
0.0463367
0.0332066
0.0216836
0.0118227
0.00556212
0.00714033
0.0135414
0.0200919
0.0260588
0.031328
0.0359324
0.039939
0.0434188
0.0464156
0.0481605
0.0504284
0.0523141
0.0538396
0.0550278
0.0559091
0.0565073
0.0568438
SCALARS torsion float
LOOKUP_TABLE default
-0.0368468
-0.0186936
-0.00271744
0.0279335
0.0631518
0.0975539
0.127622
0.147932
0.153046
0.146115
0.132445
0.122075
0.107202
0.0946004
0.0848502
0.0778236
0.0730995
0.070382
0.0692659
0.0691446
0.0693973
0.0700048
0.0704535
0.0705228
0.070205
0.0695513
0.0690763
0.0694403
0.0708528
0.0722699
0.0754903
0.0810093
0.089707
0.102699
0.122018
0.150909
0.193254
0.25025
0.292047
0.339837
0.342205
0.301588
0.248453
0.203512
0.171224
0.149376
0.134668
0.127859
0.121497
0.119501
0.120828
0.125489
0.135224
0.153835
0.183919
0.226981
0.261416
0.309337
0.323776
0.288132
0.228052
0.171527
0.128074
0.096792
0.074428
0.0629059
0.0493852
0.0398866
0.0330023
0.0279269
0.023654
0.0197417
0.0159649
0.0126354
0.0108633
0.00872846
0.00706851
0.00538285
0.00314397
-0.000764274
-0.0102016
-0.0461545
-0.215948
-0.124688
-0.0292874
-0.00907934
-0.00157363
0.00234796
0.00472967
0.00634301
0.00744126
0.00809148
0.00829516
0.00825877
0.00795769
0.00752783
0.00695093
0.00628249
0.00572385
0.0052692
