# vtk DataFile Version 2.0
00000521.nii_L_ICA_MCA_radius_pt3d_curvature_torsion
ASCII
DATASET POLYDATA
POINTS 83 float
113.966 84.5069 25.8261
113.869 84.7702 25.2768
113.805 84.9305 24.9018
113.703 85.1468 24.3297
113.588 85.3326 23.7507
113.454 85.4863 23.17
113.297 85.6063 22.5931
113.112 85.6907 22.0253
112.897 85.7377 21.4719
112.651 85.745 20.938
112.375 85.7107 20.4281
112.071 85.6326 19.9466
111.743 85.5087 19.4971
111.515 85.3999 19.2166
111.161 85.1964 18.8263
110.802 84.944 18.4735
110.447 84.643 18.1585
110.105 84.2948 17.8801
109.786 83.9014 17.6361
109.498 83.4662 17.4235
109.25 82.9933 17.238
109.049 82.4877 17.075
108.899 81.955 16.929
108.806 81.4013 16.7945
108.773 80.833 16.6656
108.784 80.4493 16.5799
108.852 79.8718 16.4475
108.978 79.2982 16.3054
109.162 78.7355 16.1485
109.397 78.1911 15.972
109.678 77.6719 15.7719
109.999 77.1848 15.5453
110.351 76.7363 15.2901
110.725 76.3325 15.0055
111.112 75.979 14.6925
111.502 75.6807 14.3531
111.885 75.4418 13.9914
112.133 75.3172 13.7406
112.485 75.184 13.3547
112.808 75.1166 12.9642
113.097 75.1155 12.5779
113.345 75.1801 12.2048
113.55 75.3088 11.8545
113.711 75.4989 11.536
113.826 75.747 11.2579
113.898 76.0488 11.0275
113.927 76.3995 10.8505
113.919 76.7939 10.7306
113.895 77.0783 10.6833
113.834 77.5334 10.661
113.749 78.0178 10.6955
113.644 78.527 10.7832
113.525 79.0569 10.9185
113.397 79.6037 11.0945
113.263 80.1645 11.3029
113.127 80.7367 11.5345
112.992 81.3184 11.7792
112.859 81.9076 12.0269
112.729 82.5027 12.2676
112.601 83.1019 12.4916
112.517 83.5027 12.6274
112.391 84.1042 12.8052
112.265 84.7035 12.9458
112.136 85.2973 13.0436
112.003 85.8818 13.094
111.864 86.4527 13.0936
111.72 87.005 13.0397
111.567 87.5337 12.9308
111.407 88.0333 12.7661
111.24 88.4981 12.5457
111.066 88.9226 12.2704
110.886 89.3015 11.9417
110.765 89.5263 11.6939
110.581 89.8182 11.281
110.398 90.0524 10.8208
110.219 90.2255 10.3161
110.046 90.3349 9.76952
109.883 90.3784 9.18356
109.732 90.3543 8.56049
109.595 90.2614 7.90231
109.474 90.0987 7.21078
109.372 89.8651 6.48753
109.288 89.56 5.73399
LINES 1 84
83 0 1 2 3 4 5 6 7 8 9 10 11 12 13 14 15 16 17 18 19 20 21 22 23 24 25 26 27 28 29 30 31 32 33 34 35 36 37 38 39 40 41 42 43 44 45 46 47 48 49 50 51 52 53 54 55 56 57 58 59 60 61 62 63 64 65 66 67 68 69 70 71 72 73 74 75 76 77 78 79 80 81 82

POINT_DATA 83
SCALARS radius float
LOOKUP_TABLE default
1.777
1.79294
1.85796
1.94709
1.94077
2.04491
2.0091
2.06757
1.90201
1.91342
1.88774
1.86759
1.91992
2.00359
1.91366
1.67306
1.67306
1.81835
1.76605
1.97165
1.86004
2.01543
2.11585
2.08756
2.11997
2.20411
2.19054
2.19506
2.24303
2.20532
2.1764
2.25153
2.1341
2.13497
2.30026
2.19872
2.25742
2.27087
2.27359
3.1921
2.41465
2.38649
2.4834
2.41859
2.39069
2.31247
2.33531
2.23554
2.2105
2.08081
2.07292
2.04975
2.18891
2.20135
2.21835
2.37323
2.00157
2.27101
2.12836
2.12706
2.19681
2.10747
2.07271
2.25999
2.36751
2.44194
2.53871
2.74054
2.55655
2.75161
2.65866
2.64054
2.60875
2.65156
2.69333
2.7798
2.7403
2.75
2.66178
2.74054
2.59061
2.57035
2.54607
SCALARS curvature float
LOOKUP_TABLE default
0.0871792
0.0826197
0.0827461
0.0877248
0.0974725
0.110406
0.124975
0.139879
0.154042
0.166655
0.177155
0.185222
0.190817
0.193215
0.194986
0.194982
0.194277
0.193693
0.193094
0.19202
0.190514
0.188587
0.186052
0.182543
0.177794
0.173906
0.167314
0.160526
0.154336
0.149476
0.146646
0.14645
0.149467
0.156395
0.167861
0.18441
0.206896
0.225792
0.260813
0.304467
0.357114
0.417548
0.480505
0.534633
0.563482
0.553144
0.503384
0.430083
0.377481
0.302469
0.237061
0.18225
0.136771
0.0987422
0.0666111
0.0395382
0.0198878
0.0224855
0.0405679
0.0603591
0.0733883
0.092677
0.111808
0.130891
0.14998
0.169018
0.187783
0.20584
0.22246
0.236691
0.247526
0.25413
0.255785
0.253665
0.245995
0.233588
0.217682
0.199609
0.180625
0.161855
0.144133
0.127913
0.113378
SCALARS torsion float
LOOKUP_TABLE default
0.363309
0.393173
0.382967
0.324244
0.241426
0.163628
0.100468
0.0484419
0.0037579
-0.0335709
-0.0674659
-0.100526
-0.131159
-0.150538
-0.179391
-0.207319
-0.226588
-0.235331
-0.235089
-0.232711
-0.228578
-0.221752
-0.213192
-0.20494
-0.198337
-0.195454
-0.1928
-0.191133
-0.189511
-0.186338
-0.179866
-0.169426
-0.154503
-0.133793
-0.10815
-0.0791849
-0.051105
-0.0329505
-0.00535271
0.0229496
0.0486531
0.0724134
0.0940336
0.111409
0.121993
0.124625
0.120509
0.111322
0.103478
0.0906846
0.081005
0.0757591
0.0756877
0.084642
0.114975
0.222666
0.724573
0.585854
0.215924
0.12625
0.102523
0.0832143
0.07136
0.0624096
0.055648
0.049405
0.0425718
0.0343589
0.0242982
0.0121323
-0.000434204
-0.0116703
-0.0184025
-0.0271183
-0.0318407
-0.0322041
-0.0288588
-0.0241055
-0.0197388
-0.01579
-0.0123871
-0.0098562
-0.00804394
