# vtk DataFile Version 2.0
00000981.nii_R_ICA_MCA_radius_pt3d_curvature_torsion
ASCII
DATASET POLYDATA
POINTS 166 float
83.1735 82.0744 51.0881
83.5977 81.9804 50.7918
84.0245 81.877 50.4811
84.4512 81.7643 50.156
84.8751 81.6423 49.8166
85.2928 81.5109 49.4633
85.7012 81.3698 49.0965
86.0967 81.2182 48.7171
86.4759 81.0553 48.3265
86.8354 80.8797 47.9262
87.1719 80.69 47.5184
87.4822 80.4843 47.1056
87.7636 80.2609 46.6905
88.0133 80.0178 46.2763
88.2291 79.7532 45.8658
88.409 79.4656 45.4622
88.5512 79.1537 45.0682
88.6542 78.8168 44.6864
88.7169 78.4545 44.3189
88.7385 78.0673 43.9673
88.7183 77.656 43.6325
88.6563 77.2229 43.3147
88.5528 76.7705 43.0133
88.4086 76.3026 42.727
88.2247 75.8235 42.4539
88.0029 75.3384 42.1914
87.7452 74.8531 41.9364
87.4542 74.3739 41.6857
87.1329 73.9074 41.4359
86.7848 73.4607 41.1839
86.4137 73.0409 40.9267
86.0238 72.655 40.6617
85.6197 72.3099 40.3872
85.206 72.0121 40.1021
84.7878 71.7671 39.8063
84.3698 71.5798 39.5008
83.9572 71.4541 39.1874
83.5546 71.393 38.869
83.1667 71.3983 38.5491
82.7978 71.4705 38.232
82.4518 71.6094 37.9224
82.1321 71.8132 37.6253
81.8416 72.0792 37.3458
81.5826 72.4037 37.0889
81.357 72.7821 36.859
81.1658 73.2094 36.6598
81.01 73.6799 36.4943
80.8896 74.1879 36.3642
80.8044 74.7273 36.2702
80.7538 75.2922 36.2118
80.7366 75.8767 36.1874
80.7514 76.4753 36.1943
80.7965 77.0825 36.2286
80.8696 77.6934 36.2856
80.9683 78.3033 36.3598
81.0899 78.9079 36.4448
81.2316 79.5034 36.5338
81.3901 80.0863 36.6194
81.5623 80.6535 36.6943
81.7449 81.2024 36.7511
81.9346 81.7306 36.7828
82.1284 82.2363 36.783
82.3234 82.7177 36.7461
82.5166 83.1737 36.6675
82.7058 83.6034 36.5434
82.8888 84.0061 36.3716
83.0638 84.3816 36.1507
83.2293 84.73 35.8808
83.3846 85.0519 35.5633
83.5289 85.3483 35.2003
83.662 85.6203 34.7952
83.784 85.8695 34.3517
83.8952 86.0977 33.8741
83.9958 86.3069 33.3671
84.0865 86.4993 32.8353
84.1676 86.677 32.2834
84.2393 86.8426 31.716
84.3017 86.9981 31.1375
84.3543 87.146 30.5518
84.3963 87.2883 29.9628
84.4264 87.4271 29.3739
84.4431 87.5643 28.7883
84.4444 87.7016 28.2088
84.4279 87.8405 27.6382
84.391 87.9821 27.0789
84.3307 88.1275 26.5332
84.2442 88.2774 26.0032
84.1286 88.4321 25.4911
83.9812 88.5917 24.9988
83.8 88.7563 24.5282
83.583 88.9253 24.0812
83.3292 89.0982 23.6595
83.0381 89.2744 23.2647
82.7097 89.4528 22.8984
82.3452 89.6327 22.5619
81.946 89.813 22.2563
81.5144 89.993 21.9824
81.0532 90.1717 21.7406
80.5655 90.3486 21.5311
80.0549 90.5233 21.3538
79.5249 90.6956 21.208
78.9794 90.8656 21.093
78.4219 91.0335 21.0074
77.8561 91.1998 20.9498
77.2853 91.3654 20.9184
76.7125 91.5309 20.9112
76.1405 91.6973 20.9263
75.5717 91.8654 20.9612
75.008 92.0362 21.0136
74.4509 92.2104 21.0808
73.9015 92.3886 21.1602
73.3604 92.5712 21.249
72.8278 92.7585 21.3441
72.3034 92.9504 21.4427
71.7865 93.1466 21.5415
71.2762 93.3466 21.6375
70.7714 93.5498 21.7276
70.2711 93.7553 21.8089
69.7741 93.9624 21.8783
69.2796 94.1704 21.9332
68.7868 94.3786 21.9708
68.2955 94.5862 21.9886
67.8052 94.7928 21.9841
67.3165 94.998 21.9553
66.8298 95.2013 21.9
66.3466 95.4026 21.8167
65.8684 95.6017 21.7039
65.3975 95.7985 21.5608
64.9365 95.993 21.3865
64.4881 96.1853 21.1808
64.0554 96.3755 20.9438
63.6418 96.5638 20.6759
63.2506 96.7505 20.3779
62.8852 96.9359 20.0511
62.5487 97.1203 19.697
62.2441 97.3043 19.3175
61.9742 97.4882 18.9148
61.7411 97.6725 18.4913
61.547 97.8577 18.0494
61.3932 98.0443 17.5918
61.2808 98.2325 17.1212
61.21 98.4225 16.6401
61.1807 98.6146 16.151
61.1922 98.8087 15.6562
61.2431 99.0045 15.1579
61.3318 99.2015 14.658
61.4561 99.3993 14.1578
61.6135 99.5968 13.6586
61.8012 99.7931 13.1615
62.0164 99.9869 12.6671
62.2559 100.177 12.1759
62.5166 100.361 11.6881
62.7953 100.538 11.2036
63.0888 100.706 10.7223
63.3941 100.863 10.2438
63.7085 101.007 9.76794
64.0294 101.137 9.29412
64.3545 101.251 8.82195
64.6816 101.348 8.35104
65.009 101.427 7.88102
65.3351 101.487 7.41157
65.6584 101.526 6.94238
65.9777 101.545 6.4732
66.2918 101.543 6.00379
66.5997 101.519 5.53396
66.9007 101.473 5.06354
LINES 1 167
166 0 1 2 3 4 5 6 7 8 9 10 11 12 13 14 15 16 17 18 19 20 21 22 23 24 25 26 27 28 29 30 31 32 33 34 35 36 37 38 39 40 41 42 43 44 45 46 47 48 49 50 51 52 53 54 55 56 57 58 59 60 61 62 63 64 65 66 67 68 69 70 71 72 73 74 75 76 77 78 79 80 81 82 83 84 85 86 87 88 89 90 91 92 93 94 95 96 97 98 99 100 101 102 103 104 105 106 107 108 109 110 111 112 113 114 115 116 117 118 119 120 121 122 123 124 125 126 127 128 129 130 131 132 133 134 135 136 137 138 139 140 141 142 143 144 145 146 147 148 149 150 151 152 153 154 155 156 157 158 159 160 161 162 163 164 165

POINT_DATA 166
SCALARS radius float
LOOKUP_TABLE default
1.7635
1.5979
1.64247
1.63964
1.6611
1.7209
1.7209
1.66747
1.66882
1.69729
1.54959
1.49856
1.573
1.59609
1.48487
1.48553
1.45374
1.35001
1.37237
1.37084
1.39339
1.31888
1.38987
1.51461
1.55977
1.777
1.67804
1.72166
1.80254
1.87511
1.91064
2.01376
2.27995
2.15072
2.25436
2.2999
2.31554
2.3878
2.10575
2.37539
2.24022
2.31825
2.27964
2.23912
2.2565
2.40514
2.36184
2.43995
2.37324
2.30561
2.30561
2.36934
2.37562
2.28283
2.19458
2.25323
2.24776
2.18165
2.37144
2.26455
2.42803
2.42539
2.89074
2.73985
2.53358
2.67809
2.82478
2.79508
2.72636
2.67107
2.61539
2.66671
2.50483
2.52351
2.53712
2.62213
2.48526
2.60399
2.49786
2.40901
2.38106
2.30688
2.51923
2.46679
2.50025
2.39722
2.56025
2.65054
2.38868
2.3724
2.29869
2.30427
2.28603
2.32072
2.25229
2.19604
2.25038
2.15955
2.18373
2.17808
2.21341
2.19295
2.13799
2.22497
2.25999
2.19615
2.25999
2.25999
2.20612
2.25024
2.27735
2.32911
2.24335
2.31051
2.21513
2.26882
2.1285
2.13195
2.02482
2.10477
2.05085
2.14373
2.15251
2.27788
2.23307
2.26882
2.1187
2.10116
2.10037
2.06899
1.9741
1.86567
1.79522
1.95311
1.76127
1.74769
1.94393
1.74098
1.77452
1.83433
1.86101
1.70422
1.81385
1.66988
1.52035
1.60341
1.61602
1.73158
1.82712
1.76824
1.85456
1.83717
1.84776
1.94613
1.94967
1.98481
1.9536
1.91008
1.95325
1.96398
1.90968
1.98727
2.08112
2.05562
2.20334
2.03085
SCALARS curvature float
LOOKUP_TABLE default
0.0663245
0.0612728
0.0579516
0.0565384
0.0571734
0.0598301
0.0643769
0.0706836
0.0786517
0.0881924
0.0992245
0.111665
0.125277
0.139554
0.15373
0.166798
0.177534
0.184638
0.186948
0.183819
0.175367
0.16268
0.147369
0.131069
0.115352
0.101731
0.0916184
0.0863507
0.0868934
0.0933742
0.105171
0.121357
0.141003
0.163227
0.187281
0.212521
0.237916
0.261938
0.282648
0.297864
0.305702
0.305579
0.298117
0.284547
0.266416
0.245363
0.222738
0.199524
0.17657
0.154497
0.13366
0.114223
0.0963166
0.0802248
0.0667888
0.0579283
0.0564653
0.0641463
0.0799611
0.101823
0.128062
0.157322
0.187872
0.21696
0.240836
0.255525
0.258045
0.247903
0.227828
0.20191
0.173927
0.146529
0.121227
0.0987111
0.0791609
0.0625583
0.0490318
0.0390815
0.0335703
0.0333642
0.0380859
0.0463004
0.0568514
0.0691832
0.0829622
0.0977634
0.113068
0.128208
0.142396
0.154716
0.164233
0.170226
0.172282
0.170343
0.164851
0.156679
0.146719
0.135761
0.124485
0.113382
0.102753
0.0928164
0.0837526
0.075679
0.0686114
0.0624585
0.0570886
0.0523244
0.0479503
0.0437343
0.0394564
0.0350746
0.0308407
0.0274068
0.026073
0.028228
0.033833
0.0416842
0.050655
0.0600614
0.0694797
0.0785337
0.0868918
0.094349
0.10088
0.106612
0.111727
0.116438
0.120972
0.125529
0.13026
0.135226
0.140352
0.145429
0.150231
0.154589
0.158255
0.160897
0.16213
0.161573
0.158917
0.154129
0.147387
0.138941
0.129136
0.118433
0.107293
0.0961281
0.0852608
0.0749828
0.0656097
0.0575503
0.0512725
0.0471928
0.0454671
0.0458646
0.0478599
0.0508212
0.0542699
0.0578943
0.0614953
0.0649412
0.0681328
0.0709927
0.073486
0.0756411
SCALARS torsion float
LOOKUP_TABLE default
0.0579538
0.0586223
0.0517295
0.0360396
0.0108067
-0.0203762
-0.0528507
-0.0791042
-0.0959807
-0.106732
-0.112269
-0.109659
-0.101613
-0.0901595
-0.0764443
-0.0607637
-0.0430632
-0.0234319
-0.0017718
0.0227222
0.050122
0.0780128
0.108705
0.14518
0.187245
0.233571
0.277114
0.30066
0.287831
0.243649
0.188716
0.138606
0.0979269
0.065386
0.0407026
0.0210442
0.00390318
-0.0114283
-0.0250284
-0.0373807
-0.0480046
-0.0544022
-0.0560857
-0.0530764
-0.0466092
-0.037086
-0.0243947
-0.0101083
0.00467376
0.0214582
0.0423921
0.0705597
0.112544
0.179889
0.284263
0.414941
0.486634
0.427003
0.315201
0.225003
0.165145
0.126897
0.100981
0.0818452
0.0671457
0.0550204
0.0443336
0.035586
0.029254
0.0249305
0.0226743
0.0234937
0.0282018
0.0385916
0.0594868
0.0991632
0.170736
0.279792
0.385217
0.388279
0.289504
0.183638
0.107627
0.0573256
0.0258088
0.00635125
-0.00579505
-0.0132
-0.0172773
-0.0189389
-0.0188051
-0.0174701
-0.0150274
-0.0115033
-0.00717856
-0.00191065
0.0046543
0.012379
0.0211855
0.0317223
0.044395
0.0584717
0.0741578
0.0914136
0.109387
0.127415
0.144898
0.161975
0.17978
0.200524
0.230014
0.27962
0.360114
0.472923
0.559414
0.511143
0.369441
0.243224
0.158869
0.102925
0.0634785
0.0334386
0.00885234
-0.0125577
-0.0290705
-0.0414746
-0.0509869
-0.0585103
-0.0646196
-0.0695724
-0.0733656
-0.0755922
-0.0766401
-0.0769473
-0.0762488
-0.0744127
-0.0715051
-0.0674838
-0.0623393
-0.0561932
-0.049121
-0.0409518
-0.0312316
-0.0194925
-0.00667333
0.00763169
0.0246207
0.0454961
0.0719607
0.10681
0.152156
0.204843
0.257727
0.294982
0.302733
0.278897
0.235217
0.189765
0.152361
0.12346
0.101394
0.0834476
0.0684523
0.0557222
0.0464687
0.0405428
