# vtk DataFile Version 2.0
00000536.nii_R_ICA_MCA_radius_pt3d_curvature_torsion
ASCII
DATASET POLYDATA
POINTS 88 float
76.681 67.1308 30.661
77.1692 67.3959 30.3074
77.6532 67.6178 29.9181
78.1301 67.7904 29.4969
78.5965 67.9085 29.0485
79.0483 67.9679 28.5782
79.4809 67.9653 28.0916
79.7564 67.9282 27.7609
80.1462 67.8185 27.2599
80.5034 67.6444 26.758
80.8227 67.4073 26.2608
81.0987 67.1099 25.7734
81.3268 66.7566 25.3
81.5024 66.3527 24.8444
81.6218 65.905 24.4089
81.6687 65.586 24.1304
81.6884 65.0827 23.731
81.6461 64.5574 23.3529
81.5416 64.0191 22.9945
81.3757 63.4767 22.6532
81.1506 62.9395 22.3254
80.8699 62.4164 22.0068
80.5385 61.9161 21.6924
80.2924 61.5992 21.4828
79.8913 61.1547 21.1643
79.4596 60.7533 20.8367
79.007 60.4015 20.4958
78.5443 60.1047 20.1384
78.0828 59.8673 19.7623
77.6342 59.6926 19.367
77.2098 59.5827 18.9532
76.8203 59.5385 18.5234
76.5851 59.5455 18.2298
76.2754 59.6097 17.7822
76.0244 59.7366 17.3305
75.8382 59.9235 16.8808
75.7212 60.1667 16.4392
75.676 60.4621 16.0119
75.7033 60.8051 15.605
75.8017 61.1906 15.2242
75.9054 61.4687 14.9874
76.1141 61.9139 14.6611
76.3811 62.3884 14.3728
76.698 62.8877 14.1248
77.0553 63.4079 13.9185
77.4421 63.9457 13.7537
77.8467 64.4983 13.6292
78.2569 65.0635 13.5423
78.5277 65.4463 13.5036
78.921 66.0283 13.4715
79.2887 66.618 13.466
79.6203 67.214 13.482
79.9063 67.8142 13.5137
80.1384 68.4163 13.5553
80.31 69.0177 13.6009
80.4164 69.6146 13.6447
80.4497 70.0081 13.6703
80.4422 70.588 13.6992
80.3662 71.151 13.7125
80.2236 71.6913 13.7058
80.0182 72.203 13.6751
79.7553 72.6801 13.6166
79.4418 73.1164 13.5273
79.086 73.5062 13.4046
78.8298 73.7379 13.3032
78.4244 74.0399 13.1206
78.003 74.285 12.9006
77.5761 74.4715 12.6429
77.1537 74.5992 12.3479
76.7453 74.6698 12.0165
76.3594 74.6859 11.6498
76.0033 74.6521 11.2497
75.7853 74.6044 10.9654
75.4911 74.5 10.5142
75.239 74.3626 10.0354
75.0307 74.2 9.53143
74.8666 74.0204 9.00462
74.7454 73.8318 8.45726
74.6651 73.642 7.89147
74.623 73.4583 7.30914
74.6147 73.3424 6.91258
74.6297 73.1828 6.30635
74.6747 73.045 5.68765
74.7469 72.9337 5.05769
74.8436 72.853 4.4175
74.9622 72.8065 3.768
75.1008 72.7974 3.10997
75.2575 72.8282 2.44407
LINES 1 89
88 0 1 2 3 4 5 6 7 8 9 10 11 12 13 14 15 16 17 18 19 20 21 22 23 24 25 26 27 28 29 30 31 32 33 34 35 36 37 38 39 40 41 42 43 44 45 46 47 48 49 50 51 52 53 54 55 56 57 58 59 60 61 62 63 64 65 66 67 68 69 70 71 72 73 74 75 76 77 78 79 80 81 82 83 84 85 86 87

POINT_DATA 88
SCALARS radius float
LOOKUP_TABLE default
2.02328
1.86504
1.91906
2.02683
2.02271
2.11449
2.11683
2.16695
2.21634
2.06384
2.017
2.03007
1.88438
1.86132
1.90373
1.93891
2.04029
2.12479
2.36464
2.37388
2.46602
2.31825
2.17336
2.15237
2.10453
2.13401
2.17596
2.25723
2.2573
2.30101
2.3288
2.56464
2.76855
2.45336
2.53882
2.56832
2.6681
2.52847
2.56313
2.52523
2.52621
2.52026
2.64814
2.58277
2.67344
2.67344
2.7339
2.66436
2.64899
2.75245
2.8149
3.00691
3.09831
2.81018
2.75005
2.95296
2.83994
2.83811
2.69553
2.66873
2.6636
2.63259
2.70162
2.6432
2.70173
2.55701
2.96031
2.57113
2.65591
2.58194
2.49163
2.6771
2.48805
2.53622
2.41713
2.5
2.52707
2.37324
2.2929
2.34302
2.29019
2.29019
2.35657
2.30127
2.40597
2.28471
2.3094
2.34062
SCALARS curvature float
LOOKUP_TABLE default
0.12398
0.129684
0.135817
0.142457
0.149539
0.156818
0.164058
0.168743
0.175318
0.180987
0.185228
0.187411
0.186969
0.183906
0.178619
0.174072
0.16602
0.156918
0.147319
0.137837
0.129214
0.122235
0.117629
0.116278
0.11749
0.123071
0.133237
0.148065
0.167365
0.190596
0.217151
0.246328
0.266434
0.295372
0.319231
0.333522
0.334628
0.32167
0.297106
0.265219
0.242079
0.207278
0.174452
0.144745
0.118802
0.097463
0.0817985
0.0732117
0.0720427
0.0772079
0.0894475
0.106822
0.127497
0.149735
0.17178
0.192272
0.204448
0.219668
0.230632
0.237279
0.240321
0.241146
0.241302
0.241749
0.242329
0.243681
0.245527
0.246983
0.246534
0.242953
0.235453
0.223754
0.213894
0.196864
0.178202
0.1591
0.141221
0.125997
0.114209
0.10581
0.101911
0.0982714
0.0967382
0.0964906
0.0967794
0.0970238
0.0968869
0.0962831
SCALARS torsion float
LOOKUP_TABLE default
-0.107783
-0.0917484
-0.0759729
-0.0602413
-0.0443317
-0.0285036
-0.0138241
-0.00440922
0.0095835
0.0236958
0.0383269
0.054265
0.0716906
0.088506
0.10492
0.115883
0.132801
0.15097
0.171385
0.194381
0.217615
0.239603
0.258013
0.265119
0.26372
0.247641
0.22146
0.190786
0.159901
0.131324
0.108226
0.0890071
0.0772529
0.0604159
0.044664
0.0292744
0.0139676
-0.0012959
-0.0166728
-0.0327775
-0.0441283
-0.0626327
-0.0857886
-0.118577
-0.164567
-0.228564
-0.308146
-0.376582
-0.39177
-0.35591
-0.286442
-0.222227
-0.175179
-0.143336
-0.123909
-0.113439
-0.109631
-0.107164
-0.108513
-0.11326
-0.120989
-0.1298
-0.137639
-0.144465
-0.1487
-0.153508
-0.155844
-0.156059
-0.156151
-0.157565
-0.160846
-0.166766
-0.172001
-0.18188
-0.194864
-0.212389
-0.232021
-0.246695
-0.249849
-0.244812
-0.235799
-0.213029
-0.182733
-0.150978
-0.120842
-0.0948916
-0.0765698
-0.0645624
