# vtk DataFile Version 5.1
vtk output
ASCII
DATASET POLYDATA
POINTS 75 float
74.6694 72.294 31.7437 75.0475 73.0689 31.6111 75.5014 73.6696 31.4584 
76.0971 74.2343 31.3125 76.4915 74.6508 31.2129 77.2033 75.249 31.1389 
77.8926 75.7501 31.0283 78.2644 75.9495 31.0148 78.9783 76.0085 31.0013 
79.7103 75.9091 31.0108 80.4591 75.6239 30.9409 80.9317 75.4375 30.8789 
81.6474 75.0835 30.7673 82.2279 74.6563 30.6 82.5602 74.3592 30.4782 
82.8292 73.9367 30.2689 83.1236 73.2194 29.8798 83.2502 72.4316 29.3935 
83.2593 71.637 28.9274 83.2283 71.0085 28.4022 83.063 70.4591 27.8596 
82.6586 69.9764 27.2202 82.3305 69.7037 26.5394 82.0575 69.538 25.65 
81.8431 69.4824 24.7238 81.6453 69.53 23.9935 81.3244 69.9322 23.1752 
81.1124 70.4412 22.5941 80.9508 70.829 22.3206 80.7524 71.3399 22.0616 
80.4752 72.0229 21.7527 80.2943 72.7038 21.5202 80.1195 73.5786 21.248 
79.928 74.4962 21.0256 79.7804 74.9415 20.8393 79.5204 75.7408 20.3726 
79.4191 76.1954 20.0585 79.2971 76.815 19.5701 79.2372 77.2966 19.0331 
79.254 77.5424 18.4849 79.3487 77.7954 17.7489 79.4248 77.9923 17.2346 
79.514 78.1481 16.5272 79.5179 78.3427 15.7475 79.5357 78.5875 14.8942 
79.5696 78.7484 14.1937 79.606 78.8978 13.2863 79.5776 79.1018 12.4287 
79.4659 79.229 11.8794 79.2981 79.5595 11.0225 79.1553 79.815 10.3495 
78.8901 80.0746 9.42836 78.5792 80.2708 8.64248 78.1396 80.5955 7.85384 
77.6586 81.0324 7.14094 77.1295 81.4549 6.49861 76.6186 81.8429 5.9153 
76.023 82.2475 5.4535 75.492 82.616 5.12017 74.8137 83.249 4.76201 
74.2397 83.7888 4.56444 73.6875 84.3285 4.41989 72.9583 84.8973 4.33987 
72.4911 85.1709 4.31647 72.0238 85.5608 4.30882 71.4437 85.9854 4.33133 
70.7575 86.5321 4.39838 70.0428 87.1512 4.40392 69.3936 87.8226 4.47402 
68.7893 88.2955 4.50376 68.3057 88.8532 4.51395 67.8404 89.4133 4.4918 
67.2694 90.0878 4.35912 66.6863 90.6719 4.09942 66.2467 91.0593 3.89634 

LINES 2 75
OFFSETS vtktypeint64
0 75 
CONNECTIVITY vtktypeint64
74 73 72 71 70 69 68 67 66 
65 64 63 62 61 60 59 58 57 
56 55 54 53 52 51 50 49 48 
47 46 45 44 43 42 41 40 39 
38 37 36 35 34 33 32 31 30 
29 28 27 26 25 24 23 22 21 
20 19 18 17 16 15 14 13 12 
11 10 9 8 7 6 5 4 3 
2 1 0 
CELL_DATA 1
FIELD FieldData 2
Length 1 1 double
58.204771642 
Tortuosity 1 1 double
0.68124049371 
POINT_DATA 75
FIELD FieldData 7
MaximumInscribedSphereRadius 1 75 double
1.5308352484 1.567531281 1.5831578063 1.5385356767 1.5511855191 1.5294000877 1.5868553789 1.610234272 1.5520937728 
1.5438193731 1.4864446832 1.4185826384 1.3632772519 1.3996023699 1.448465323 1.4422029467 1.473415577 1.5779944817 
1.7453446707 1.8155442991 1.8052257185 1.7120264477 1.6144981427 1.6014854993 1.747305146 1.9554513821 2.1146601378 
2.1983309552 2.1985326386 2.2013769864 2.2329995195 2.2863040503 2.3321781972 2.3557763151 2.3837656317 2.442622155 
2.4649968756 2.4802598468 2.4391512199 2.2983763962 2.183014811 2.121837524 2.0560373178 2.0616528725 2.0291999691 
1.986726633 1.9129987264 1.8215630415 1.8137013184 1.8108203142 1.8739411463 1.9117069866 1.9469877339 1.9968164288 
2.0280243141 2.0443983594 2.0579663397 2.038826818 2.0690236539 2.1638644447 2.2257804676 2.1883552844 2.186165111 
2.180915733 2.1611363118 2.1830259878 2.1764041873 2.1603441525 2.0965043945 2.0620784081 2.0512303121 2.0689641544 
2.1139553726 2.1163079441 2.1195801364 
Curvature 1 75 double
0 0.24078087008 0.20572111609 0.075381688285 0.19331087215 0.095819691073 0.26169245212 0.74292020591 0.30483068465 
0.32767190356 0.055156069186 0.12867765104 0.25293960915 0.16644022154 0.5861102675 0.2503558771 0.24348459646 0.13840304037 
0.19909649608 0.2401717826 0.35035863914 0.29089847383 0.25905339916 0.14486288896 0.14885204052 0.45511966071 0.29862078895 
0.36385950959 0.24872781452 0.0668274079 0.18428718326 0.076043975969 0.067324331403 0.24851042442 0.17655463775 0.15592862032 
0.10042844712 0.24462833658 0.50719249683 0.18767020073 0.056488911542 0.23160850993 0.15807875018 0.044753985416 0.074668268969 
0.0767786286 0.11166627968 0.22529939198 0.18457414218 0.019190453922 0.13180388248 0.10803508817 0.1896967453 0.15370451936 
0.089783393659 0.030781408248 0.20183433192 0.11965748838 0.19863245776 0.13634457786 0.079464507973 0.17363088715 0.18993551055 
0.29385545597 0.11612673761 0.075983333045 0.089443963618 0.11939088997 0.16794709642 0.25951022023 0.066862873046 0.14713295924 
0.20034633896 0.090639458004 0 
Torsion 1 75 double
0 0 -0.30931755735 0.79378467684 0.4962657494 -0.34239117755 0.91660524921 0.14326470277 0.2182298311 
0.40394736555 1.7595441973 0.14409678349 0.071953131046 0.27530714005 0.047131437292 0.096297900959 -0.088590093885 0.38129916313 
-0.12109988538 -0.37457385944 0.46765050756 0.81660972937 0.15256130519 -0.54041576188 -0.37182317159 0.14641494444 -0.093731305589 
-0.27025248203 0.10568253975 0.72118356095 0.29545540482 -0.15734606275 -1.9011181858 -0.44122818875 -0.99947389406 -0.27479017784 
0.61844349038 0.095679566841 -0.10435766791 -1.0402561633 -1.2899851482 0.59387351105 1.1281673402 2.8040373976 0.64214250903 
1.0318439548 -0.50149667037 0.31159021618 0.73760894892 -7.219880489 0.21886118663 1.2142596757 0.41788156188 -0.063494108455 
-0.77508842457 1.2090248141 0.14741776738 1.102088429 -0.035178302328 -0.50258352143 -0.95026967902 -0.50926407495 0.2455553775 
0.023811683007 -0.8549757639 1.6484021484 -0.27816490819 -0.69181879265 -0.50560716897 -0.017619374084 2.9352718358 0.45559726267 
0.31281660497 0 0 
FrenetTangent 3 75 double
-0.50958931694 -0.84249010112 0.17472594989 -0.50958931694 -0.84249010112 0.17472594989 -0.65742958955 -0.72993890592 0.18701745479 
-0.69951175747 -0.69325923477 0.17342126328 -0.73203452025 -0.67151255763 0.1148753503 -0.78255156755 -0.61398384 0.10313529143 
-0.83058638164 -0.54834742108 0.097166704361 -0.97255761857 -0.23140317211 0.024171274077 -0.99960539094 0.027954350844 0.0027598328451 
-0.96713980398 0.25116314348 0.039467390575 -0.92818359424 0.35837537959 0.10021129024 -0.90236487242 0.41033333237 0.13177326497 
-0.84229081723 0.50762929847 0.18126961837 -0.76025945608 0.6033298868 0.24082899977 -0.60465691841 0.72360141878 0.33285281696 
-0.4009198267 0.81112940481 0.42583139999 -0.23499385933 0.84020866996 0.48869957745 -0.073262710446 0.85447070011 0.51430768798 
0.01258074047 0.82048422163 0.57153072273 0.12250585439 0.73528754878 0.6665917313 0.34127397986 0.61825632187 0.70801920252 
0.43391924791 0.4474765412 0.78197111927 0.34596443147 0.25227350666 0.90369612702 0.25746539471 0.11689891422 0.95919039527 
0.24147591481 0.0046929316383 0.97039546524 0.30620410074 -0.26552401781 0.91418600113 0.30398548655 -0.51983772782 0.79834927238 
0.28876103244 -0.69311020746 0.66046597676 0.32579944508 -0.81334887854 0.48199411133 0.33850442179 -0.84972803564 0.40419923536 
0.29800322879 -0.88722041785 0.35218461888 0.21248515881 -0.92946759092 0.30156268787 0.19329067194 -0.94580058232 0.26095971841 
0.23182547926 -0.93177745338 0.27937022843 0.27855495674 -0.85044967815 0.44625383025 0.23762115361 -0.82456271101 0.51345157801 
0.16423504556 -0.79027241321 0.59033580505 0.12003081569 -0.72653780849 0.67656146515 0.032977398814 -0.55647171734 0.83021185186 
-0.080700276458 -0.36089362347 0.92910885149 -0.12747316103 -0.33579587832 0.93326937232 -0.12888631231 -0.27505107771 0.9527513963 
-0.060829738521 -0.22896883796 0.97153127287 -0.012869621223 -0.25980576037 0.96557513417 -0.032199427585 -0.25246231624 0.96707082251 
-0.042885646648 -0.18935691089 0.98097134597 -0.00439516517 -0.19633715654 0.98052659499 0.096472271859 -0.22806692349 0.96885426106 
0.18567192322 -0.3041185045 0.93436495661 0.1862989606 -0.35140439551 0.91750076191 0.23665274907 -0.29877166209 0.92451661439 
0.30999911509 -0.2452914388 0.91854921408 0.4122545586 -0.28614014671 0.86496820482 0.47974979585 -0.39687376511 0.78251603686 
0.53269613274 -0.45322666043 0.71471702403 0.57769243382 -0.45026189974 0.68083454197 0.6448059682 -0.46187768579 0.60901089214 
0.71268067351 -0.48898736534 0.50296880036 0.70486289464 -0.58371632169 0.40304287062 0.69436209779 -0.65031590425 0.30814039305 
0.70516292893 -0.67591330413 0.2142112251 0.74974261155 -0.64855356128 0.13139366261 0.81559048789 -0.57431759505 0.070508553168 
0.81509769792 -0.5786904177 0.027076619194 0.78938567835 -0.61379541966 -0.011199715134 0.79221098666 -0.60766961973 -0.056030222822 
0.76805503002 -0.63914586303 -0.039799957636 0.72579989378 -0.68672744896 -0.040248292371 0.73725540891 -0.673057475 -0.058720502202 
0.72569154265 -0.68750421566 -0.026640915597 0.64713724279 -0.76232989896 0.008155620805 0.63996300917 -0.76243373332 0.09561458671 
0.65866059957 -0.71833892509 0.22395402045 0.68890827862 -0.6544004268 0.311713755 0.68890827862 -0.6544004268 0.311713755 

FrenetNormal 3 75 double
0.80783764808 -0.53837994333 -0.2398861625 0.80783764808 -0.53837994333 -0.2398861625 0.75339121619 -0.64126990392 0.14551489856 
-0.69253415687 0.71749515182 0.074814094138 0.57599271359 -0.52000622701 0.63073442728 0.4563092341 -0.67832526956 -0.57589644169 
0.49575361818 -0.64857932299 0.57755797271 0.23213319646 -0.97209723686 0.033780781542 -0.027263238162 -0.98914648703 0.14438124198 
-0.24559094697 -0.88273775157 -0.40057352472 -0.20505248643 -0.26784358151 -0.94138902355 -0.4297500268 -0.87972926306 -0.20344861311 
-0.52953837043 -0.71646559357 -0.45416535258 -0.64615384969 -0.66407614257 -0.37614901223 -0.78223750197 -0.46080647565 -0.41923964807 
-0.89948831479 -0.26038264389 -0.35088694805 -0.94135718398 -0.071486437133 -0.32975193931 -0.98185477616 -0.15224001841 0.11306712754 
-0.27682812375 0.55209280206 -0.78648568189 -0.89645094016 0.37018890488 -0.24358958639 -0.83068236721 0.55087613612 -0.080636762477 
0.17037891609 0.81152174428 -0.55893066073 0.53755696026 0.73612131211 -0.41128813299 0.46642725236 0.85431830399 -0.22931605639 
-0.28477232922 0.95630389914 0.066238757486 -0.1802844306 0.92676116579 0.32956223337 0.25557657507 0.85178692063 0.45731789395 
-0.25496599049 0.60926863428 0.75085556199 -0.032579995577 0.49984857161 0.86549982631 -0.41925065726 0.24836605803 0.87323718863 
0.72936524543 0.4496501629 0.51559777906 0.88633446687 0.31326005386 0.34099758283 -0.17794649489 0.22777077699 0.95731683267 
-0.52362997285 -0.36156808139 -0.77141439839 0.175484896 -0.41175344199 -0.89423942783 0.75807308108 -0.17308030623 -0.62878327851 
0.40495301029 -0.49169067855 -0.77087828876 0.37815212727 -0.59665410867 -0.70781695603 0.33859761974 -0.77532194061 -0.53312994693 
0.7157096994 -0.6697473966 -0.19798497654 0.42572378054 0.83133552207 0.35726812401 -0.10035141127 -0.95221516652 -0.28847161197 
-0.97148817421 0.23703606931 -0.0049627823655 0.40120066254 0.88317487242 0.24298183697 0.45114557729 -0.86706719103 -0.21133422421 
-0.12083897033 -0.97368321508 -0.1932328645 -0.71544687839 0.68567877972 0.13409092154 -0.99471692526 -0.056408410374 0.085769049447 
0.10751594133 0.95147775944 0.28832342197 -0.93145516152 -0.36024160484 0.051159243673 -0.63626638855 -0.7667804025 -0.084928776944 
-0.9114412118 -0.35156801957 0.21371674021 -0.57831448611 0.65141847687 0.49112760373 -0.27570298925 0.77849062341 0.56386187226 
-0.80228771144 -0.0016232843705 0.59693533403 -0.80677307219 -0.18820233173 0.56008668287 -0.62106999285 0.14782803025 0.76968755833 
-0.36160763825 0.35830976137 0.86072877892 0.293152617 0.75710954372 0.58382076185 -0.20445134159 0.23227683575 0.95091909251 
0.056642983294 0.35484716382 0.9332068703 -0.5534627514 -0.50575107752 0.66173622418 -0.56538657002 -0.76506467363 0.30824352647 
0.56512951473 0.80454066177 0.18260053433 -0.49951445089 -0.65280353078 0.5695022946 0.44167999243 0.50760195661 0.73976958435 
0.29581649094 0.40922834612 -0.86314817061 0.55920835784 0.55492782847 0.61590674433 -0.66318367124 -0.7043566053 -0.25311892615 
0.67953413662 0.72226611512 -0.12870515188 0.33374436627 0.27366301677 -0.90206610137 0.0018468944578 -0.12290584283 -0.99241661754 
-0.20077059876 -0.45462879534 -0.86775793003 -0.52521199108 -0.74703462405 -0.40754341474 -0.52521199108 -0.74703462405 -0.40754341474 

FrenetBinormal 3 75 double
0.2961706643 0.018906774725 0.9549478894 0.2961706643 0.018906774725 0.9549478894 0.013711679411 0.23656310774 0.9715193698 
-0.17629447728 -0.067766809877 -0.98200199427 -0.36381019096 0.52788673862 0.7674488492 0.42355038307 -0.40360707735 0.81099099878 
-0.25368210953 0.52788253199 0.81054637111 0.015679848736 0.038464711564 0.99913693171 0.0067659628571 0.14424902585 0.98951828699 
-0.065769950049 -0.39710343401 0.91541421027 -0.31052969777 -0.89433042168 0.32209378084 0.032443049902 -0.24021444597 0.97017754481 
-0.10067419459 -0.4785285243 0.87228158182 -0.067013147779 -0.44158342876 0.89471409594 -0.14998167066 -0.51386610974 0.8446579898 
-0.17373561555 -0.52370790277 0.83399398587 -0.24212504672 -0.53753053888 0.80773534126 0.17491075952 -0.49669185563 0.85011965438 
-0.9608370907 -0.14832120539 0.2340788439 -0.4258732529 -0.56772563383 0.70449952247 -0.43988507076 -0.56061983832 0.70157431638 
-0.88469492552 0.37576216366 0.27589433688 -0.76898707833 0.62807920814 0.11906041184 -0.8462607097 0.50643348953 0.16543255998 
-0.92768211316 -0.29233684146 0.23226077596 -0.93473877248 -0.26572680998 0.23590822301 -0.91775456318 0.065021370241 0.39178920757 
-0.922826858 -0.38521418924 -0.00078649069778 -0.94487738118 -0.29768272915 0.13635148439 -0.84240349169 -0.46505544471 -0.27217602857 
-0.61580874823 0.10322141807 0.78110493818 -0.41141374567 0.19482847864 0.89038227396 -0.96486981562 -0.23147728104 -0.12427593195 
0.81979790113 0.032546887491 -0.57172729637 0.94425218419 0.32740563212 0.034545111101 0.60733960113 0.53864602774 0.58395125285 
0.89946645811 0.36566349221 0.23927035168 0.917928958 0.34080300387 0.20312493847 0.94035320123 0.2986889958 0.1628518981 
0.69371975002 0.64899477447 0.31234386683 -0.89582914437 0.44285706255 0.03698332393 0.98656875724 -0.13278998948 0.095125737516 
-0.22915163162 -0.94413302722 -0.23685936046 -0.91589977685 0.39051646777 0.092868117113 0.89186930935 0.42948488345 0.14181632463 
0.99174531235 -0.12682648372 0.018875340173 -0.69865330939 -0.70092533982 -0.14348247725 0.035090445512 -0.97201006664 -0.23230387639 
-0.97671196332 0.046925563589 0.20936029278 0.31254436382 -0.8641417343 -0.39443007452 0.73427553355 -0.56814021885 -0.37155905662 
0.27050964137 -0.90345560913 -0.33255450119 -0.70398759511 -0.70269323636 0.10307124475 -0.83296338161 -0.4862546286 0.26406143425 
-0.26938681896 -0.89139382948 -0.36448289746 -0.12405104553 -0.87283681406 -0.47198223921 -0.44553038881 -0.87453752169 -0.19153797484 
-0.60110412871 -0.79530212589 0.078538875746 -0.6459333115 -0.29336051986 0.70477639183 -0.68997168498 -0.72328189266 0.02832627186 
-0.70677918483 -0.64592932711 0.28851081136 -0.36271889838 -0.5688533429 -0.73813337211 -0.12308607759 -0.29126507717 -0.9486909256 
-0.12745342061 -0.13353547851 0.98281427623 -0.35686911349 -0.44396253559 -0.82191343998 -0.42109445127 -0.61080102071 0.67052335992 
0.56796485327 0.65117181028 0.50337977606 -0.40062516984 -0.46953223109 0.78679028798 0.12900341172 0.22555577563 -0.96565144428 
0.1077271651 0.075296828634 0.99132499489 0.68544006811 0.58648246215 0.43152083914 0.76840349809 0.63528651497 -0.077247058386 
0.72516024522 0.5265945757 -0.44366741102 0.49955755232 0.1170442304 -0.85833728805 0.49955755232 0.1170442304 -0.85833728805 

SiphonLabel 1 75 int
0 0 0 0 0 0 0 0 0 
0 0 0 0 0 0 0 0 1 
1 1 1 1 1 1 1 1 1 
1 1 1 1 1 1 1 1 1 
1 1 1 0 0 0 0 0 0 
0 0 0 0 0 0 0 0 0 
0 0 0 0 0 0 0 0 0 
0 0 0 0 0 0 0 0 0 
0 0 0 
