# vtk DataFile Version 5.1
vtk output
ASCII
DATASET POLYDATA
POINTS 88 float
77.1478 72.302 32.8553 77.5812 72.4413 32.3479 78.0237 72.5716 31.7895 
78.49 72.7185 31.1615 78.9174 72.7798 30.5763 79.3394 72.7542 30.0118 
79.7453 72.5296 29.3063 80.1786 72.144 28.6127 80.4788 71.5056 27.949 
80.5926 70.8306 27.2797 80.6428 70.3034 26.6739 80.6285 69.692 25.9846 
80.5586 69.0824 25.2689 80.4421 68.5771 24.5565 80.2984 68.1429 23.8764 
80.0708 67.5825 23.0874 79.8314 67.1474 22.682 79.4683 66.4685 22.0765 
79.0481 65.9031 21.6605 78.5942 65.173 21.1556 78.2643 64.7527 20.8123 
77.7525 64.3228 20.3341 77.1434 63.9407 19.6747 76.5862 63.7593 18.9788 
76.2361 63.6918 18.2714 76.0969 63.7803 17.7824 76.0217 64.1364 17.1279 
76.0681 64.714 16.5339 76.4382 65.4328 16.0188 76.9232 66.2069 15.7245 
77.52 66.8896 15.5336 78.1255 67.4176 15.3269 78.7971 67.9207 15.2977 
79.4568 68.585 15.5303 80.0669 69.2055 15.8548 80.5711 69.9784 16.1463 
80.7756 70.463 16.3149 81.0759 71.168 16.684 81.2919 71.8371 17.1463 
81.3949 72.5288 17.7065 81.4167 73.2699 18.2357 81.2993 74.1255 18.6199 
81.0287 74.8709 18.9933 80.6855 75.5141 19.2941 80.2476 76.2493 19.4228 
79.773 77.0368 19.3131 79.4426 77.5021 19.102 78.8675 78.1771 18.6558 
78.488 78.6302 18.3408 77.8778 79.0883 17.7182 77.2812 79.2747 17.062 
76.9137 79.3114 16.5581 76.3295 79.2616 15.7615 76.1085 79.1009 15.3409 
75.835 78.6287 14.525 75.7866 78.1606 13.9228 75.8272 77.7841 13.4778 
75.9312 77.234 12.8442 75.9528 76.6332 12.0837 75.9707 76.2978 11.5153 
76.0068 75.8931 10.6772 76.0662 75.5996 10.0184 76.1058 75.3933 9.48203 
76.1354 75.2283 8.90653 76.123 75.1265 8.34837 76.0498 75.1461 7.36877 
75.9739 75.1097 6.39012 75.885 75.082 5.76338 75.7048 75.0767 5.20338 
75.2995 75.1642 4.41954 74.6847 75.1004 3.69804 74.0514 75.14 3.18126 
73.6247 75.2144 2.84544 73.0861 75.4519 2.33149 72.5481 75.6601 1.96705 
71.6933 75.9848 1.62346 71.2601 76.1756 1.54046 70.6422 76.576 1.42704 
69.8003 77.0606 1.4028 69.0779 77.5118 1.42911 68.2433 78.0356 1.48996 
67.6193 78.4635 1.4648 67.0626 78.8906 1.42152 66.3295 79.4669 1.48565 
65.5927 80.0777 1.51326 64.9031 80.66 1.49215 64.2991 81.2024 1.47812 
63.9469 81.5373 1.42624 
LINES 2 88
OFFSETS vtktypeint64
0 88 
CONNECTIVITY vtktypeint64
87 86 85 84 83 82 81 80 79 
78 77 76 75 74 73 72 71 70 
69 68 67 66 65 64 63 62 61 
60 59 58 57 56 55 54 53 52 
51 50 49 48 47 46 45 44 43 
42 41 40 39 38 37 36 35 34 
33 32 31 30 29 28 27 26 25 
24 23 22 21 20 19 18 17 16 
15 14 13 12 11 10 9 8 7 
6 5 4 3 2 1 0 
CELL_DATA 1
FIELD FieldData 2
Length 1 1 double
71.069331187 
Tortuosity 1 1 double
1.0122881454 
POINT_DATA 88
FIELD FieldData 7
MaximumInscribedSphereRadius 1 88 double
1.3167703026 1.2768079931 1.2604579387 1.3275926787 1.342257348 1.3950192426 1.4701773074 1.6046772992 1.633116279 
1.5548824722 1.5298486768 1.5880348788 1.6845689106 1.7374681388 1.7991274558 1.882619796 1.9260226364 1.9710118265 
1.9687819011 2.0071342731 2.0185618296 2.0540525603 2.1582291098 2.2734506123 2.3897005395 2.436296036 2.4000550977 
2.3507033554 2.2072540069 2.0525161566 2.0192079716 2.1051074264 2.1030933578 2.01393119 2.0510003353 2.1837572196 
2.2815152935 2.371602426 2.4154248478 2.4374331226 2.4512412088 2.4621509341 2.5357791607 2.5929257316 2.6375075182 
2.606019589 2.5104874209 2.4408177416 2.3868561478 2.1949666061 1.9782501508 1.8919237566 1.996613989 2.0500647844 
2.071224352 2.0780519364 2.0731400291 2.1048928665 2.1033184214 2.0848965175 2.0753175507 2.1157574773 2.1570169985 
2.184583732 2.1772873937 2.0903480307 2.010088793 1.9626444007 1.9244443667 1.8695827789 1.8330388739 1.8185045091 
1.8203468944 1.8144702576 1.8656857998 1.9430350984 1.9551355657 1.9924635336 2.0351855535 2.0559185386 2.0666459065 
2.0818247149 2.1297947311 2.1020187629 2.0758409227 2.0813091285 2.0831214147 2.1238968469 
Curvature 1 88 double
0 0.062398293964 0.041135764889 0.13374369623 0.16951357107 0.34197004503 0.20095463429 0.32678881301 0.20654848166 
0.10524391134 0.091198337536 0.066601596923 0.11611369819 0.07654296782 0.080676695329 0.30409132962 0.025084477549 0.20217466789 
0.078884603995 0.12438095906 0.24597343088 0.18089802536 0.22780745488 0.28836647512 0.49118135509 0.5796711946 0.40678627995 
0.43965713658 0.28208888672 0.19790607869 0.15897560905 0.27769859122 0.35470855991 0.12026165811 0.20708043493 0.22519335556 
0.198591191 0.18309570198 0.18832096732 0.12126231423 0.26978812156 0.214460884 0.16711211698 0.30168226376 0.3037732385 
0.32505776073 0.17296393775 0.029774070315 0.33359860557 0.2998928371 0.24032509367 0.13554103648 0.42538854701 0.31133880077 
0.29787439813 0.20726612155 0.077398819138 0.12277319784 0.16684557288 0.10583982408 0.064431676954 0.082351284261 0.15351260749 
0.2090084041 0.2693235124 0.058227155061 0.078915028782 0.28647652342 0.26989186907 0.31240799671 0.24477519469 0.13123473341 
0.29705205173 0.2178028557 0.24806639739 0.26578623881 0.26089382561 0.16160972088 0.072895674248 0.033587460153 0.11865477276 
0.082683783747 0.16026733964 0.050258169679 0.057023595676 0.036352491947 0.14399674994 0 
Torsion 1 88 double
0 0 -1.4334824935 -0.34167993387 0.63325651264 -0.066957307889 -0.1228262552 0.40715291179 0.77423967358 
0.52199335904 -0.3884551647 0.8848583436 0.13347659051 -0.76147202705 -0.82441392552 -0.060354141475 -0.4325159873 -0.1027248232 
-1.4001919955 -0.18792126212 0.29815028341 0.41923561107 0.44231302079 -0.099452383893 -0.37582087994 -0.14393230383 0.36527021839 
0.11970646718 -0.13238696 0.84294365744 -0.40622388078 -0.88509077382 -0.23133029068 -0.22965491982 -0.10721527012 0.78737155296 
0.47100914931 -0.53755914438 -0.51837834637 -1.1485929849 0.31099334067 0.45720569445 -1.1885366022 -0.38119629824 0.073396974085 
0.26671224095 0.25183154271 2.7736074951 0.12880899279 -0.12198013272 -0.17016342149 -0.25322618663 -0.18472016661 -0.22105053514 
-0.16681530234 -0.26490511174 -0.34663101619 0.62260637522 0.4596328036 0.38498221561 0.0034533038025 -0.50305349531 -0.43325471627 
0.14061192835 0.13690600504 -0.012508988326 1.1126452273 0.34987056733 -0.45378920308 -0.042830989025 0.88449274141 2.0028648385 
-0.28183248619 -0.67746299045 0.29177157179 0.81565777579 0.2800839865 -0.69350317919 0.86826820394 0.31086518382 -0.17591925934 
-1.8313263699 -0.17245738076 1.2768600703 -0.15524548134 1.3760397737 0 0 
FrenetTangent 3 88 double
-0.62313237725 -0.1917798029 0.75823910979 -0.62313237725 -0.1917798029 0.75823910979 -0.59793104091 -0.18235744747 0.78052817481 
-0.58753083721 -0.13684059381 0.79754759558 -0.59401960509 -0.024987593402 0.8040623912 -0.53883881532 0.1628210363 0.82652407178 
-0.48176039825 0.35031704799 0.80323401606 -0.39607312952 0.55301662812 0.73300660645 -0.21602440653 0.68529204067 0.69549139087 
-0.093221590073 0.68299216027 0.72445251339 -0.020830724564 0.66012473249 0.75086711106 0.045212435456 0.65528140922 0.75403057657 
0.10233264067 0.61213593604 0.78410307133 0.15305511413 0.55269229083 0.81921020727 0.204857365 0.54873320239 0.81050930445 
0.28765063968 0.61321670618 0.73567817744 0.37179986455 0.68744746014 0.62384361042 0.43754154143 0.6950006354 0.57055369276 
0.48188982063 0.71419763476 0.50764548582 0.4808165046 0.70573515568 0.5203396765 0.57993080233 0.58584481593 0.5660972674 
0.62564153322 0.45322697556 0.63494722657 0.6221469288 0.30055119162 0.72291229081 0.53701725355 0.14728235557 0.83061445757 
0.37849487523 -0.016243971998 0.92546083807 0.17210982755 -0.3569481134 0.91813193584 0.018446268938 -0.59877958988 0.80070140371 
-0.23717526424 -0.73820057011 0.63151232159 -0.4497152101 -0.78519786121 0.42570006877 -0.57593274585 -0.77561028202 0.25832181998 
-0.68624553718 -0.69104862888 0.22697765356 -0.77015121181 -0.62179675585 0.14225296256 -0.74695958706 -0.65499909735 -0.1141383273 
-0.67172466866 -0.67966719538 -0.29468368301 -0.59035731845 -0.73822454078 -0.32634761212 -0.46779837433 -0.83002772906 -0.30367523765 
-0.36065028322 -0.84990606455 -0.38417581216 -0.30606223888 -0.81451383692 -0.49284187667 -0.18419964428 -0.78581333945 -0.5903963809 
-0.069155331733 -0.7941445796 -0.60378135677 0.051856687526 -0.86683092137 -0.49589821306 0.2139807921 -0.88297056943 -0.41782196463 
0.36951089525 -0.83589577521 -0.40588169615 0.47584106475 -0.83970503614 -0.2616691296 0.51401825782 -0.8577127955 -0.01067665973 
0.52848700493 -0.82241032156 0.21057717969 0.56677573323 -0.71380266396 0.41140129453 0.57424511454 -0.67861409641 0.45795792011 
0.60353072176 -0.55567835375 0.57181486083 0.6444076197 -0.34420174213 0.68283525128 0.63231987936 -0.14628560824 0.7607707217 
0.59052929693 0.0081424892236 0.80697512312 0.54601803069 0.14273283547 0.82552507402 0.33537533448 0.42928084209 0.83859486263 
0.18590717151 0.54303257457 0.81887370609 0.0058066471787 0.62774732679 0.77839551422 -0.10117662984 0.64826921146 0.75465907471 
-0.069318559127 0.63509172107 0.7693201175 -0.024288780131 0.57576654171 0.81725329281 -0.033909382238 0.46540483194 0.88444813087 
-0.057742208482 0.42199173623 0.90475898001 -0.076267206341 0.38471837778 0.9198777544 -0.058874939404 0.31619129893 0.9468668354 
-0.014764070887 0.22905270401 0.97330205024 0.05548202257 0.053295587658 0.99703627091 0.075956238504 0.0085539629308 0.99707446038 
0.10205242875 0.039717497727 0.99398582594 0.22105134374 0.027081453254 0.97488609505 0.39879363877 -0.055993555696 0.91532964303 
0.5609128451 -0.013030727955 0.82777229981 0.70982219397 0.013759153593 0.70424650417 0.77649686887 -0.083486714942 0.6245659141 
0.72945868635 -0.23572359731 0.6421249182 0.73780688366 -0.30543930316 0.60195334912 0.84371381813 -0.32277358154 0.42891048967 
0.88738642339 -0.35519111462 0.2939125851 0.8602478481 -0.48387224357 0.16075226822 0.85237051459 -0.51672345286 0.080382704154 
0.85816560552 -0.513371708 -0.0011326622464 0.84659203792 -0.53012802939 -0.047394026779 0.8373117877 -0.54634159455 -0.020489808067 
0.80904113395 -0.58587792439 0.046898841016 0.78922890582 -0.61396659925 -0.012757320094 0.77705431439 -0.62756246719 -0.048496827367 
0.76704736865 -0.64158095312 -0.0034949721172 0.75450043158 -0.65597937307 0.020497825751 0.73589479238 -0.67519311628 0.050725834468 
0.73589479238 -0.67519311628 0.050725834468 
FrenetNormal 3 88 double
-0.56571842947 -0.55891489488 -0.60628112195 -0.56571842947 -0.55891489488 -0.60628112195 -0.80144785381 0.15137421213 -0.57859068911 
0.01876613463 -0.98763698625 -0.15563102386 0.088447324181 -0.99548646029 0.034406078406 -0.45754093475 -0.88037903333 -0.12485612001 
-0.011133737684 -0.91898973906 0.39412421821 -0.56753162946 -0.77498862316 0.27802964508 -0.96978496672 -0.23329501409 -0.071348123446 
-0.60971129202 0.53607141365 -0.58384893582 -0.99250978546 -0.1040794998 0.063967049947 -0.945308512 0.27213646996 -0.17981534657 
-0.54948607017 0.69185362967 -0.46840539472 -0.66404105518 0.67145188612 -0.32894048346 -0.73301627668 -0.46274022879 0.49855653519 
-0.59713799123 -0.48572689926 0.63835381941 0.13313640493 -0.70455876044 0.69704494171 -0.79660089586 0.0052606360257 0.60448270316 
0.81865114151 -0.57351961443 0.029758366423 -0.63920650602 0.688338275 -0.3429365274 -0.57409733598 0.78691152049 -0.22623551389 
-0.006274696727 0.81681670938 -0.57686314795 0.053910407474 0.90473878364 -0.42254159717 0.70054030539 0.47067997818 -0.53638012516 
0.53633302947 0.81873720713 -0.20497869926 0.48211136912 0.84330900412 0.23748379174 0.49919371499 0.69939455521 0.51152017659 
0.86755162478 0.13157491842 0.47962716685 0.44865752663 0.21352952137 0.86782000859 0.75040329141 -0.37620835218 0.54347233231 
0.62089046283 -0.71908688635 -0.31210428231 0.30524442572 -0.16344705494 0.93814226043 -0.37967175326 0.27928963001 0.8819561567 
-0.23682033369 -0.1798996749 0.95475244777 -0.69995879426 0.66958112172 -0.24843270269 -0.87552322573 0.48219812814 0.030725338341 
-0.12994111209 -0.36209453935 0.92304000561 -0.62486493055 -0.21869099947 0.74947852893 -0.873667127 -0.14429509346 0.4646339174 
-0.83185813108 0.37998231412 -0.40450647797 -0.6007878103 0.36957815108 -0.70884835984 -0.95459732215 -0.27976759566 0.10234278169 
-0.91420993867 -0.24881741835 -0.3198594697 -0.28573972311 0.13378175741 -0.9489232066 -0.022043591255 -0.00076569463993 -0.9997567173 
-0.13755190309 -0.32772252229 -0.93470713185 -0.25342256909 -0.62618839809 -0.73733648464 0.50735026643 -0.14403684738 -0.8496170277 
-0.17933808039 -0.79338159327 -0.581707401 -0.14329083117 -0.93150222836 -0.33432220427 0.37331411028 -0.80293966892 -0.46467672971 
-0.013650469512 -0.99970525958 0.020076320821 0.45547207964 -0.87760398453 -0.1495206708 0.72204840953 -0.68888716907 0.063879281368 
0.83862582683 -0.52196660887 0.1557484568 0.95486945811 -0.23464786886 0.1821117668 0.96795008147 -0.11111635972 0.22522387616 
-0.90728319058 0.28049493154 -0.31330465282 0.035842503945 0.81747041766 -0.5748542695 0.13764477273 0.87869874701 -0.45710220798 
0.81716561197 0.54059648516 -0.19998950686 -0.25191645896 0.88519932626 -0.3911013302 -0.21604756513 0.92199625342 -0.32131971351 
-0.58463838244 0.78769795374 -0.19424184787 -0.25384054163 0.96651736637 -0.037538779134 -0.048846843289 -0.99873067415 0.01228928042 
-0.98889378467 -0.10447810278 0.10570434564 -0.95667752459 0.20023729198 0.21136021584 -0.75631385596 0.54438472849 0.36281485453 
-0.67302612182 -0.58942988183 0.44677539519 -0.5982303941 0.53958639731 0.59242460737 -0.058876503426 0.97723488016 0.20382724634 
0.46885796635 0.85583395451 -0.21845010805 -0.63001574942 0.0085389584256 0.77653540916 -0.41001524228 0.12820351214 0.90302345516 
-0.16586092606 0.34887008021 0.92237726573 0.46719582554 0.87430979618 0.13156914874 -0.25975140056 -0.28494353689 0.92267892069 
0.27880181535 0.46419755238 0.84070814206 0.077815393532 0.03519343005 0.99634641918 0.19914452484 0.33967876285 -0.91921694735 
0.53550665278 0.70188693075 -0.46966728784 0.065299676304 0.06324757174 0.99585927567 0.31162877655 0.45051397048 -0.83661500586 
0.10616112901 0.13229030985 -0.98550955785 0.64032111923 0.74262184367 0.19621840275 0.24072538803 0.19087253098 -0.95164014442 
0.24072538803 0.19087253098 -0.95164014442 
FrenetBinormal 3 88 double
0.54006360641 -0.80674323516 0.23978459822 0.54006360641 -0.80674323516 0.23978459822 -0.012641516314 -0.97150996354 -0.23666132513 
0.80898414541 -0.076471140193 0.58283515439 0.79957349857 0.091555052084 0.59354855979 0.70732526049 -0.44544592018 0.5488796845 
0.8762322515 0.18093044349 0.4466332008 0.72182679753 -0.30588436213 0.62080659739 0.11336037272 -0.68989003137 0.71498333583 
-0.78712252892 -0.4961342041 0.3664546029 0.12037610507 -0.74391047531 0.65734830802 -0.32302887305 -0.70466163259 0.63174704648 
-0.82921233067 -0.38292055433 0.40715937879 -0.73186310815 -0.49364318721 0.46977951706 0.6486297851 -0.69624949067 0.30743462496 
0.7487879065 -0.62292427356 0.22645533884 0.91871625565 -0.17610491938 -0.35347913512 0.41711438747 -0.7189898765 0.55593987558 
0.31239799821 0.40124430259 -0.86105197309 -0.60019207889 -0.16771496416 0.78207490641 -0.57800736443 -0.19379399003 0.79268617756 
-0.78008544409 0.35692544306 0.51387832024 -0.7810421672 0.30185545313 0.5466776184 -0.46995292308 0.86992428744 0.14958604283 
-0.75437955362 0.57393860214 0.31860001577 -0.85903831988 0.40176855018 0.31723051092 -0.86629404366 0.39026946957 0.31180822799 
-0.4371522302 0.6616252407 0.60922078797 -0.77230994659 0.58126539743 0.25625745676 -0.32433990271 0.5068490566 0.79869121777 
0.37889589053 -0.073251910496 0.92253566964 -0.56008298627 0.76593332258 0.31567894108 -0.54580283534 0.70212070546 -0.45730272238 
-0.70192741723 0.71111785977 -0.040115962491 0.40191531805 0.081765816916 -0.91201887497 0.12092874835 0.28024798697 -0.95228005525 
-0.92360526233 0.38281487172 0.020151758973 -0.71824071487 0.53734668159 -0.44202807522 -0.45030683121 0.6013953122 -0.65996017776 
0.55066286406 0.47428665134 -0.68689342878 0.79772482158 0.33468812945 -0.50161635245 -0.20725871068 0.37695233908 -0.90274623284 
0.16637874359 0.48925263955 -0.8561249724 0.8318221515 0.52630589363 -0.17627823063 0.85749595376 0.51412855799 -0.019300651303 
0.83772367734 0.46501528079 -0.2863211991 0.78392746457 0.31364605373 -0.53580209339 0.64252490659 0.72023350016 0.26158258669 
0.7769095963 0.24853010809 -0.57848445489 0.75113684331 0.11759574515 -0.64958808744 0.67882850945 0.57783077877 -0.4531042329 
0.80690074615 -0.022871244935 -0.59024409528 0.70314258499 0.45764460448 -0.54419842077 0.60511939261 0.58408255145 -0.54099731402 
0.51200121695 0.65777388377 -0.55243847772 0.29696902333 0.74220864408 -0.60077926714 0.22986067381 0.7532597056 -0.61624985725 
-0.41476758487 -0.71970903788 0.55676453851 -0.99906224534 0.015329895412 -0.040492273781 -0.98990104068 0.10623960847 -0.093856674004 
-0.57350344374 0.72779008978 -0.37605237033 -0.96473903774 -0.26156055241 0.029405211758 -0.97460617231 -0.22348595295 0.014029886699 
-0.81115965382 -0.57189753668 0.12228337394 -0.96565352202 -0.25100549964 0.067152919173 0.99591397005 -0.049637387428 -0.0754419912 
0.10804806539 -0.99373379052 0.028614142505 -0.18948460985 -0.9793730759 0.070170940119 -0.51860677296 -0.83696474783 0.17474846474 
0.48209192023 -0.80771443873 -0.3393888123 -0.37185057284 -0.8418177983 0.39124154425 -0.62736446343 -0.19504347576 0.75390441874 
-0.49805846273 0.46041571214 0.73481639864 -0.24232448887 -0.95217326064 -0.18613146917 -0.34645994601 -0.93775320556 -0.024175013513 
-0.43015751625 -0.8672536764 0.2506702455 -0.20420994205 -0.038079288422 0.97818621303 -0.45386530575 -0.80734382642 -0.37709710975 
-0.43106999577 -0.72178260009 0.54148733776 -0.52652320543 -0.84718693034 0.071046598897 0.50916640541 0.76559075238 0.39321796941 
0.24225001218 0.40509479651 0.88159692459 -0.6106174633 -0.78679397537 0.090008632033 0.54687667541 0.63498229281 0.54564034832 
0.63274651238 0.75556148294 0.1695838924 -0.14393735797 -0.13492167883 0.9803459479 0.63285870628 0.71251802268 0.30299822647 
0.63285870628 0.71251802268 0.30299822647 
SiphonLabel 1 88 int
0 0 0 0 0 0 0 0 0 
0 0 0 0 0 0 0 0 0 
0 0 1 1 1 1 1 1 1 
1 1 1 1 1 1 1 1 1 
1 1 1 1 1 1 1 1 1 
1 1 0 0 0 0 0 0 0 
0 0 0 0 0 0 0 0 0 
0 0 0 0 0 0 0 0 0 
0 0 0 0 0 0 0 0 0 
0 0 0 0 0 0 0 
