# vtk DataFile Version 5.1
vtk output
ASCII
DATASET POLYDATA
POINTS 97 float
104.765 71.9224 31.5754 104.243 71.8611 30.9427 103.986 71.8124 30.6568 
103.502 71.6617 30.0735 103.073 71.4691 29.5417 102.523 71.1151 28.8871 
102.121 70.7571 28.448 101.613 70.2509 27.992 101.241 69.8608 27.6482 
101.005 69.5342 27.3099 100.678 68.9342 26.7565 100.575 68.1731 26.3622 
100.627 67.324 25.9579 100.661 66.5261 25.6499 100.712 65.903 25.4742 
100.827 65.2727 25.2745 101.042 64.6498 25.1345 101.42 63.9835 24.9805 
101.839 63.2276 24.8186 102.534 62.5492 24.7106 103.074 62.0898 24.6255 
103.592 61.6218 24.4478 104.178 61.0092 24.0846 104.685 60.5214 23.6121 
105.263 60.1658 23.1124 106.022 60.1082 22.4905 106.498 60.1778 21.6762 
106.63 60.2519 21.0493 106.665 60.4841 20.3033 106.459 60.9372 19.6857 
106.178 61.4334 19.4038 105.698 62.0952 19.1837 105.109 62.7026 19.0601 
104.408 63.3054 19.1232 103.859 63.7971 19.2257 103.131 64.3269 19.443 
102.458 64.787 19.7299 101.75 65.3346 20.1294 101.232 65.978 20.4813 
100.714 66.7698 20.752 100.382 67.3757 20.9505 100.167 67.932 21.1475 
100.032 68.4341 21.2974 99.9414 69.0916 21.3925 99.9273 69.9482 21.4705 
100.003 70.7951 21.559 100.084 71.5283 21.5067 100.291 72.4352 21.2764 
100.652 73.2655 20.9619 100.993 73.9182 20.5763 101.529 74.6097 20.1241 
102.129 75.2286 19.6826 102.623 75.6694 19.2526 103.285 75.9656 18.742 
103.818 76.0899 18.2824 104.163 76.1499 17.9677 104.761 75.8539 17.2223 
105.172 75.5618 16.5227 105.261 75.3288 16.2496 105.401 74.9148 15.5493 
105.508 74.5863 14.8671 105.451 74.2323 14.1104 105.335 73.9554 13.3384 
105.123 73.8124 12.4891 105.057 73.7719 11.6665 105.074 73.8135 10.9041 
105.184 73.9034 9.94695 105.393 73.9869 9.27006 105.636 74.0452 8.73847 
105.948 74.2367 7.96915 106.407 74.5326 7.20523 106.966 74.8533 6.54413 
107.641 75.2458 5.97021 108.186 75.598 5.65347 108.617 75.9495 5.39627 
109.126 76.3615 5.21607 109.522 76.6306 5.06583 110.015 77.0028 4.90652 
110.75 77.5212 4.64377 111.359 77.9339 4.40465 111.708 78.2348 4.32154 
112.254 78.597 4.28986 112.774 78.961 4.25629 113.38 79.3022 4.25306 
113.907 79.6219 4.25216 114.403 79.896 4.24796 114.93 80.1844 4.24638 
115.455 80.4813 4.24457 116.3 80.953 4.25725 117.006 81.3656 4.24763 
117.744 81.7968 4.25242 118.258 82.0923 4.25752 118.944 82.5234 4.18286 
119.534 82.8925 4.00414 120.188 83.3139 3.80378 120.724 83.6817 3.70794 
121.442 84.2419 3.34812 
LINES 2 97
OFFSETS vtktypeint64
0 97 
CONNECTIVITY vtktypeint64
96 95 94 93 92 91 90 89 88 
87 86 85 84 83 82 81 80 79 
78 77 76 75 74 73 72 71 70 
69 68 67 66 65 64 63 62 61 
60 59 58 57 56 55 54 53 52 
51 50 49 48 47 46 45 44 43 
42 41 40 39 38 37 36 35 34 
33 32 31 30 29 28 27 26 25 
24 23 22 21 20 19 18 17 16 
15 14 13 12 11 10 9 8 7 
6 5 4 3 2 1 0 
CELL_DATA 1
FIELD FieldData 2
Length 1 1 double
74.762222379 
Tortuosity 1 1 double
1.134605311 
POINT_DATA 97
FIELD FieldData 7
MaximumInscribedSphereRadius 1 97 double
1.4520070173 1.4581287138 1.4439083063 1.4296833336 1.4731643183 1.530748506 1.521030218 1.4679233506 1.3912696636 
1.3435163118 1.3016150882 1.3008310883 1.3546419272 1.3874864574 1.3474286665 1.3524270828 1.3947531899 1.4390300488 
1.4841378638 1.4401825477 1.3760392348 1.3442072335 1.2865815814 1.1931224582 1.2538498443 1.4256013997 1.4140066803 
1.418082617 1.4191078359 1.3974705536 1.3294645142 1.3308761991 1.3542184429 1.4852522363 1.6017881136 1.6173618756 
1.7080477889 1.7327170269 1.7529931753 1.8229912283 1.8906561887 1.9310803218 1.9598138904 1.9702227706 2.0097106047 
2.041214553 1.9593087228 1.9109757968 1.9278349289 1.9217264154 1.8930257819 1.9593926964 2.0818259583 2.1117746595 
2.0928448447 2.0585900941 1.9735706926 1.9695234563 1.9161081029 1.8164959774 1.7412304309 1.645854473 1.6322437871 
1.6402504085 1.5709362668 1.5290750491 1.5462577524 1.5437494016 1.5311635019 1.5736998747 1.672418977 1.657651187 
1.6325947918 1.6587212724 1.6839205823 1.6858009914 1.6970272876 1.7055479888 1.7299854498 1.7798273298 1.7803706018 
1.7789179282 1.7721839581 1.7863324098 1.7973396975 1.8060225951 1.8052008951 1.8010104099 1.7922207937 1.794064851 
1.8018010782 1.7991658578 1.7819930793 1.7796675946 1.8086113843 1.7972601758 1.7803989741 
Curvature 1 97 double
0 0.10927995025 0.13821267728 0.10762105294 0.14653163505 0.19030807559 0.16372957517 0.027745375206 0.2949668531 
0.14266224505 0.43306115738 0.19763460323 0.085857795412 0.13369784274 0.15048612565 0.26035918444 0.24852916384 0.019369242571 
0.32649690121 0.081178005594 0.18687525952 0.20748099771 0.21669573443 0.21563374363 0.42618110625 0.40455666108 0.41310539066 
0.34717836788 0.5949636178 0.63822232603 0.30256654507 0.21652646173 0.26248620099 0.087047292299 0.16776029227 0.11822671103 
0.10583421379 0.23183215922 0.16570559433 0.088186924102 0.19602256363 0.18815862948 0.30635058179 0.17119843625 0.12359449021 
0.22192327464 0.24451114503 0.21068025763 0.18180496224 0.17510137998 0.10013325357 0.13716674747 0.31113853106 0.21831200861 
0.091652709959 0.63964712693 0.15552920754 0.6362803562 0.30968561576 0.11308295428 0.26057265077 0.14218361826 0.23694866403 
0.2340683939 0.18336294617 0.11568380072 0.2223810489 0.20057591074 0.1873282876 0.19880323814 0.16857292292 0.1742464987 
0.21896019649 0.15077492632 0.25534947121 0.14970508447 0.12361259916 0.056429907737 0.040843594115 0.28525850084 0.32226415535 
0.037921333758 0.16307909738 0.048932769942 0.069356856954 0.010949768198 0.024640307797 0.021880435313 0.035222568192 0.020746891542 
0.0096163745374 0.1535032653 0.20934487175 0.016483915802 0.1501921665 0.29302230693 0 
Torsion 1 97 double
0 0 -0.41344042151 0.57510858949 0.21402348334 0.24938454609 0.18812830534 -9.2078180896 0.28025229274 
1.7586823946 -0.091049377695 -0.37777617715 0.80527953534 -0.97519285122 0.27292513557 -0.049045202098 -0.32256089111 -2.5384074147 
-0.08523353001 -2.255171308 -0.43223633002 0.26780378419 0.80231216677 0.40674371097 -0.527395073 -0.63496284188 0.24690998701 
0.54283532712 0.12503237868 -0.0027667773266 -0.69638051503 -0.017562528454 0.32111714109 0.096838319697 -0.053954995468 0.7779849117 
1.4421702964 0.47849158518 0.28533272424 -1.3076545962 0.31072565651 1.1356978931 0.021984065482 -0.76133176258 0.62339132187 
0.04843424868 -0.47008831921 0.020493376231 -0.062510582532 -0.49668093573 0.68079761853 -0.50823593012 0.021528263848 0.48391968597 
-0.47503144374 0.11765823884 0.047643290333 0.22463717674 1.5451088931 -1.1733138032 0.0059388822281 0.93479274364 0.6151313811 
0.50273781749 0.0080297618095 0.62350205893 0.21313406566 -0.42885142903 0.046924047098 0.64892444927 0.056777945569 -0.25471240061 
-0.47642616422 0.23807336779 0.86671082165 1.0311885261 -0.42010994062 0.14559077169 0.88821310198 0.92210889675 0.71994009 
-2.9245179501 -0.072619069082 -1.3972543012 -0.13937717893 -5.939599984 0.4160618528 0.35705905308 0.099261228482 0.87958700337 
8.9045220876 -0.32670239396 -0.12639376898 14.061841681 -0.56718524241 0 0 
FrenetTangent 3 97 double
0.64388104453 0.090942866145 0.75970164907 0.64388104453 0.090942866145 0.75970164907 0.63903672487 0.17195394835 0.7497092129 
0.61631100444 0.23172877685 0.75263704386 0.59949704101 0.33494925598 0.72691972991 0.5893161249 0.44080630767 0.67704970574 
0.59038589615 0.56056642694 0.58069766197 0.59107393498 0.60182678807 0.53706249222 0.52402951332 0.6169832119 0.58713268126 
0.40077483134 0.66012370231 0.63530798217 0.25062046112 0.79446864298 0.55318076593 0.028742222945 0.89551924242 0.44409365124 
-0.047939589536 0.91679793341 0.39646354821 -0.056860076055 0.94510529808 0.32178083737 -0.12553545974 0.95036376543 0.28469204716 
-0.24634485675 0.93543165337 0.25353862314 -0.40903689882 0.88967776361 0.20288492388 -0.47982675553 0.85648889782 0.19024471763 
-0.6068845707 0.78108526628 0.14695892163 -0.73080327357 0.6729679081 0.11419619085 -0.73903560531 0.64814185633 0.18368045121 
-0.67433351738 0.66032452853 0.33052356098 -0.62037273713 0.62459490411 0.47436154227 -0.64446132147 0.50105958948 0.57758886148 
-0.74552385226 0.230401154 0.62538747505 -0.65204203799 -0.006311149587 0.75815654721 -0.38757305264 -0.091453313375 0.91729134976 
-0.11787962165 -0.21622484445 0.96920132658 0.1119076396 -0.44623214758 0.88789275854 0.34917120089 -0.68023988069 0.64447899671 
0.51630054961 -0.78575127259 0.34062982856 0.63080048739 -0.74897202419 0.20280939841 0.72872639198 -0.68395068279 0.034195162545 
0.74864634304 -0.65550764256 -0.099188626377 0.76657534319 -0.61281218295 -0.19189442839 0.78344771819 -0.55376328814 -0.2820565432 
0.74955133327 -0.54707501061 -0.37266839357 0.65677019858 -0.63777246026 -0.40236699067 0.55207981011 -0.76492490936 -0.33180983454 
0.49921347622 -0.8214421735 -0.2757148178 0.40715487968 -0.86467838192 -0.2942043504 0.2998154742 -0.90654972297 -0.29711661215 
0.18678440592 -0.96117288468 -0.203121322 0.068675012585 -0.99118271073 -0.11331626804 -0.035875986636 -0.994616517 -0.09721572763 
-0.098413273407 -0.99488340063 -0.022843965524 -0.17037819169 -0.97107031609 0.16731321826 -0.29786155283 -0.91086944496 0.28564899716 
-0.39361442925 -0.83129451559 0.39245013624 -0.48464879036 -0.74232057279 0.46268317153 -0.58230061776 -0.67163564782 0.45807373547 
-0.62339156987 -0.60392675146 0.49664416787 -0.69540317277 -0.44320453968 0.56567142699 -0.74880102748 -0.26356568123 0.60813662356 
-0.74095359033 -0.15549725434 0.65330573307 -0.65560114569 0.16414164779 0.73705132605 -0.54280923003 0.31659080149 0.77789999627 
-0.41239422938 0.43276023041 0.8016542787 -0.1927269703 0.54321359733 0.817175197 -0.15511297667 0.46740409335 0.8703294652 
-0.031435725244 0.42829679276 0.9030911651 0.1035204894 0.37943287891 0.91940970121 0.19222564041 0.24605007145 0.95000456078 
0.16311133945 0.10760416621 0.9807222004 0.031085161621 -0.00065432316676 0.99951652542 -0.073170648236 -0.076025291833 0.9944175236 
-0.19041986462 -0.1036329279 0.97621744064 -0.34818172121 -0.10926379255 0.93103754632 -0.3863997324 -0.17389289432 0.90579054318 
-0.43205883042 -0.27319191128 0.85947155082 -0.54849178807 -0.33207128614 0.7673887016 -0.65459937342 -0.37804266421 0.6546628173 
-0.72422859793 -0.44230872706 0.52901410936 -0.73212043829 -0.52786658495 0.43053052426 -0.73021643769 -0.59281989664 0.3396299814 
-0.76693784885 -0.57736664417 0.28009658013 -0.7806581029 -0.56281949258 0.27167470465 -0.77993899948 -0.56555860919 0.26802726852 
-0.78571451942 -0.54453107228 0.2934937909 -0.77420236026 -0.57685097671 0.26048734334 -0.7991398401 -0.59233483747 0.1025424609 
-0.82539281724 -0.56229309712 0.050528904386 -0.84715682824 -0.53062105108 0.027687696234 -0.86368029664 -0.50403021912 0.0031437892984 
-0.86494633772 -0.50184582193 0.0043132211675 -0.87641621723 -0.48152892573 0.0049505423022 -0.87382866108 -0.48622578663 0.0028205474781 
-0.87197568031 -0.48950019857 -0.0069259326534 -0.86877197957 -0.49520934307 -0.0017187350795 -0.86351720146 -0.50431111683 0.0028879430547 
-0.86475128151 -0.50215394849 -0.0068288461525 -0.85422076326 -0.51754405164 0.049548382814 -0.8354253131 -0.52396303364 0.16591348835 
-0.8174728045 -0.519342858 0.24904057853 -0.81602016977 -0.54116035109 0.20311710151 -0.77151943374 -0.57107697115 0.28040837432 
-0.77151943374 -0.57107697115 0.28040837432 
FrenetNormal 3 97 double
-0.43510988891 -0.77320741613 0.46133466834 -0.43510988891 -0.77320741613 0.46133466834 0.46194879255 -0.86513005855 -0.19532868414 
0.27789926267 -0.95823799938 0.067468039515 0.0904841382 -0.93076197715 0.3542523996 0.090673340445 -0.86882670718 0.48674274337 
-0.14214245846 -0.6360108124 0.75847595085 0.72586336579 -0.68723779316 -0.028750475784 0.77892167638 -0.06834498763 -0.62338590353 
0.77965307842 -0.60991992243 0.14191111843 0.69058788457 -0.54716979796 0.47296256289 0.98152258989 -0.10936551328 0.15701143285 
-0.17819506821 -0.39840240566 0.89973442795 0.37180934861 -0.27907290467 0.88536778921 0.94068929502 0.20519398924 -0.27018341365 
0.85218247209 0.08446127787 0.51638292653 0.91208656291 0.4054452206 0.060928440503 -0.418170638 -0.41387793695 0.80860272744 
0.7868489934 0.5643884576 0.24966844115 0.66094824406 0.73945294157 -0.12789357245 -0.28441015083 -0.053018908475 -0.95723553081 
-0.49695786902 -0.074753498369 -0.86454889446 -0.19598948487 0.46217217908 -0.8648612598 0.48739444595 0.85121890794 -0.19460992991 
0.21856323017 0.97097272504 -0.097170374307 -0.71129778802 0.35127841341 -0.60881765171 -0.91776237618 0.13175800609 -0.37463588816 
-0.66373814262 0.74311292783 0.085057948064 -0.68216265661 0.61521860676 0.39517107159 -0.42676986347 0.49685715197 0.75564572001 
-0.55569468307 -0.0047279946302 0.83137300009 -0.66817742748 -0.39142529645 0.6327125435 -0.2880256153 -0.26081370524 0.9214214324 
0.2435894954 0.1328251315 0.96074015331 -0.33684263298 -0.63815097464 0.69231522746 0.070668490637 -0.37153413718 0.92572584999 
0.57720576203 0.26457021273 0.77255168812 0.67226932881 0.73691978609 -0.070733149254 0.33117260091 0.56638494436 -0.75467397147 
0.85674102723 0.51551885394 0.015333737229 0.90078523232 0.32688330933 0.28589030645 0.85817600082 0.39232672962 -0.33107958085 
0.61760355073 0.27567992444 -0.73659108968 0.91263183894 0.10829647798 -0.39417635572 0.9912574056 -0.047775971395 0.12298866779 
0.11931256068 0.010993705494 -0.99279587595 0.51764834176 -0.23268410113 -0.82334579817 0.80398322023 -0.40069775031 -0.43937716655 
0.210171629 -0.49698344842 -0.84192359413 0.8463147783 -0.53162463161 0.033564074675 0.76561532329 -0.64254475576 0.031135407513 
0.059640028989 -0.67004341754 -0.73992221588 0.46412646837 -0.87796537473 -0.11731761218 0.0020833144277 -0.91846512617 -0.39549648773 
-0.2203133005 -0.86269858397 -0.45520676933 -0.35702220495 -0.92747499654 -0.11101925943 -0.83549302347 -0.29784217276 -0.4617807357 
-0.58590293022 -0.79982620996 0.13036790333 -0.3981080558 0.71788166566 -0.57110059535 -0.34321524093 0.80061824487 -0.49113513861 
-0.99805103321 0.035279931692 -0.051472920396 -0.61774538324 0.74900279938 -0.23955259967 -0.49227231397 0.86162784442 -0.12355333513 
0.80184532435 0.56470707313 -0.19532024314 0.70101461646 0.71282769534 -0.021335047929 0.91749080672 0.38574775473 0.097001491241 
0.97022134773 0.13177407205 0.20323909648 0.93300054569 -0.13679508237 0.33286196417 -0.35974787534 0.93269844739 0.025594382675 
0.69203605881 0.51066088556 0.51020736301 0.75173666576 0.2060215826 0.62645597839 0.55283617779 0.35127542761 0.75563068657 
0.32310164959 0.46007821321 0.82700263709 -0.49576937429 0.84635967894 0.19464845589 0.27132613497 0.20460114212 0.9404895008 
0.46099058154 -0.7993328854 -0.38542784287 -0.23555016512 0.66762840976 0.70624954952 0.25290881013 -0.67654241183 -0.69161224595 
0.079345992002 -0.55925450168 -0.82519004835 -0.22005506354 0.63119495077 0.74375311975 0.47025103497 -0.50970964241 0.72045821846 
-0.56115791066 0.80731874005 -0.18258765368 0.48574916506 -0.75229252205 0.44508842932 -0.50129251358 0.85960603937 0.098910428721 
0.49600014413 -0.85611798778 -0.14507187193 0.32284306613 -0.57990695201 0.74798414533 -0.48612981344 0.87350672422 -0.02576445673 
0.16278042226 -0.30325493091 0.93890307328 -0.3017790532 0.53217240961 -0.79102587158 -0.0025014897133 0.010009433807 0.99994677548 
0.45046632677 -0.78160849229 0.43147219289 -0.22536290931 0.28270620846 -0.93235656205 -0.13431078753 -0.098091039141 -0.98607239105 
-0.54476200982 0.8375608661 -0.041546940122 0.01627860087 0.32974446768 0.94392986667 -0.36572569763 0.037461744927 -0.9299684574 
-0.36572569763 0.037461744927 -0.9299684574 
FrenetBinormal 3 97 double
0.6293620461 -0.62759834826 -0.45828345835 0.6293620461 -0.62759834826 -0.45828345835 0.61500843679 0.47114946825 -0.63228379802 
0.73683970144 0.16757598435 -0.65496988011 0.79524582272 -0.14659856003 -0.58829664596 0.80279813793 -0.22545498888 -0.55198296869 
0.79450614543 -0.53033529725 -0.29581152339 0.35178683545 0.4068276451 -0.84305236468 -0.34449106118 0.78400298399 -0.51639638832 
0.48116588811 0.43844541949 -0.75910803069 0.67843773344 0.26348583933 -0.68578236658 0.18917528951 0.43137509311 -0.88211577408 
0.98282669552 -0.027514949847 0.18246811807 0.92656610128 0.16998320337 -0.33553087866 -0.31518962321 0.2338891621 -0.91975614229 
0.46162673864 0.34326944869 -0.81796506024 -0.02805204403 0.20997059324 -0.97730518918 0.77129735005 0.30843446828 0.55674821651 
0.11207042172 0.26715440428 -0.95711480234 -0.17051097915 -0.017987269592 -0.98519158752 -0.61068587685 -0.75967172477 0.22352098423 
-0.54617504864 -0.74725058147 0.37856226005 -0.7594246433 -0.62950622129 -0.16430498626 -0.5891657315 0.15609503053 -0.79279132328 
-0.62962234723 0.064243874877 -0.77424054686 -0.26248168975 -0.93624977739 -0.23353739932 -0.086598785969 -0.98705426361 -0.13499826282 
-0.73861767704 -0.63326928959 -0.23111454742 -0.7225861818 -0.64990994481 -0.23555524513 -0.83423435323 -0.53889393693 -0.11681767258 
-0.65164189681 -0.6185245215 -0.43907887062 -0.39449926554 -0.53462804292 -0.74735746816 -0.62128825078 -0.68131319866 -0.38705714664 
-0.61659777066 -0.74341590983 0.25911382484 -0.54671682234 -0.46607355857 -0.69561207161 -0.61742662502 -0.74519031503 -0.25194395626 
-0.32404676681 -0.79417349194 0.51408380408 0.34162385132 -0.22404356227 0.91274181805 0.7652010139 0.30675393695 0.56601186427 
0.12954040845 -0.24387100449 0.96111717066 -0.15103267591 -0.38141656744 0.91198165162 0.41670689106 -0.15571556446 0.89560484028 
0.7639878532 0.012135279392 0.64511649735 0.40297254149 -0.076345967892 0.91202216201 -0.12697113621 -0.091953470152 0.98763499832 
0.98796727703 -0.100429864 0.11762015956 0.83845779027 -0.053670758244 0.54231723524 0.51467414637 0.098783435479 0.85167620369 
0.89492768839 -0.24891139054 0.37033437892 0.22105846747 0.40784239392 0.88588810562 0.27342122688 0.3688384381 0.88836875185 
0.77963197571 -0.43164139917 0.45371762691 0.54863562467 0.18096004193 0.81624286494 0.6627915819 -0.29488123658 0.68829672037 
0.63438933361 -0.48121903237 0.60496149984 0.6653737919 -0.33592804327 0.66665588335 0.085495891853 -0.90058886543 0.4261808864 
0.69760214731 -0.41592861988 0.58339920058 -0.8968647004 -0.4353905164 0.077902550658 -0.92636022306 -0.37489177038 0.036233929369 
-0.053906681336 -0.902949159 0.42635300629 -0.77953457252 -0.54316249587 0.31193004555 -0.84895068883 -0.44391082445 0.28675060221 
-0.57483803525 0.81824645736 0.0058282295414 -0.71246910125 0.70133889712 0.022617054221 -0.39096889367 0.91946659794 0.041527093066 
-0.14970240999 0.98584776218 0.07545447802 0.090991597241 0.98455499038 0.14957272531 -0.84928011456 -0.31596656079 -0.42295202975 
-0.5782830279 0.81522490122 -0.031576891382 -0.36612667722 0.92048018361 0.13662901522 -0.51562759899 0.85655666362 -0.020949013283 
-0.60917834989 0.76986429174 -0.19029111995 -0.46713209197 -0.070937735791 -0.88133730563 -0.62702957075 0.77891138314 0.011444414142 
0.44642358779 -0.16647731534 0.8791992287 -0.57886876413 0.48734641196 -0.65376175222 0.5724790746 -0.47162890557 0.6706965667 
0.61347934564 -0.62507624629 0.48262074013 -0.59345300941 0.51849386187 -0.615611599 -0.37448562066 0.62396756387 0.6858753525 
0.061874845857 -0.17906123227 -0.98189030882 -0.21534404336 0.39050897739 0.89505847941 -0.052556265329 0.083851030379 -0.99509137454 
0.076496339034 -0.12334002601 0.98941171819 -0.35730514806 0.65714368345 0.66369813204 0.010063576053 -0.023884872947 -0.99966406221 
-0.46169356403 0.81757323983 0.34411197371 0.3926380656 -0.6867024341 -0.61178028446 -0.50431318179 0.86346401701 -0.0099048473402 
-0.22200294947 0.37003996649 0.90210038999 0.46852795725 -0.80760470177 -0.35812874634 0.53294010788 -0.84607380731 0.011573849402 
-0.18700953603 -0.16963133975 -0.96760148926 -0.57779415857 0.77357227228 -0.26026880314 0.52057898292 -0.82004128597 -0.23775998791 
0.52057898292 -0.82004128597 -0.23775998791 
SiphonLabel 1 97 int
0 0 0 0 0 0 0 0 0 
0 0 0 0 0 0 0 0 0 
0 0 0 1 1 1 1 1 1 
1 1 1 1 1 1 1 1 1 
1 1 1 1 1 1 1 1 1 
1 1 1 1 1 1 0 0 0 
0 0 0 0 0 0 0 0 0 
0 0 0 0 0 0 0 0 0 
0 0 0 0 0 0 0 0 0 
0 0 0 0 0 0 0 0 0 
0 0 0 0 0 0 0 
