# vtk DataFile Version 5.1
vtk output
ASCII
DATASET POLYDATA
POINTS 98 float
110.597 86.2417 43.2071 109.976 86.1601 42.7194 109.29 85.9171 42.1098 
108.829 85.5586 41.666 108.605 85.3445 41.3179 108.268 84.9486 40.6127 
108.083 84.5078 39.8067 108.043 84.0958 39.3053 108.117 83.7227 38.8567 
108.243 83.1829 38.4031 108.409 82.6571 37.9704 108.589 82.1592 37.5571 
108.768 81.5864 37.1889 108.907 80.9261 36.9485 109.197 80.1365 36.6229 
109.516 79.4086 36.2407 109.827 78.7536 35.9419 110.206 78.1646 35.6458 
110.581 77.429 35.0984 111.195 76.9632 34.5485 111.738 76.7309 33.9765 
112.225 76.5852 33.2905 112.66 76.6941 32.7997 112.948 76.9538 32.3323 
113.15 77.5901 31.6788 113.224 78.3112 31.2883 113.091 78.9297 31.0063 
112.812 79.5838 30.7349 112.545 80.4548 30.633 112.211 81.3774 30.704 
111.867 82.0832 30.9407 111.431 82.8449 31.3135 111.182 83.5556 31.8721 
111.012 84.0217 32.3798 110.978 84.7674 32.9002 111 85.4392 33.2226 
111.001 86.3357 33.6057 110.931 87.232 33.9459 110.908 87.85 34.116 
110.854 88.5647 34.1888 110.765 89.5313 34.0782 110.725 90.4707 33.83 
110.719 91.174 33.5197 110.72 91.6458 33.0521 110.742 91.9694 32.6623 
110.699 92.2037 31.6911 110.711 92.2224 30.9362 110.724 91.9757 30.1176 
110.87 91.6423 29.3318 110.981 91.2654 28.599 111.09 90.8578 27.8539 
111.257 90.5783 26.9397 111.345 90.4877 26.4289 111.461 90.3739 25.7133 
111.548 90.2079 24.9534 111.755 90.1498 23.9883 111.951 90.1695 23.2759 
112.113 90.1458 22.4017 112.325 90.1296 21.5582 112.638 90.136 20.7149 
112.934 90.1982 19.899 113.219 90.2359 19.3003 113.545 90.2485 18.8021 
113.858 90.2512 18.4042 114.3 90.3592 17.7254 114.713 90.5398 17.1706 
115.348 90.8436 16.5268 116.054 91.1303 16.0004 116.791 91.5523 15.6653 
117.416 91.8709 15.4523 118.272 92.3429 15.2805 119.139 92.7574 15.1909 
119.767 93.1477 15.1216 120.23 93.5102 15.066 120.948 94.0101 14.999 
121.516 94.4395 14.9256 122.265 95.0676 14.7475 122.784 95.5564 14.7107 
123.327 96.0494 14.6709 123.799 96.4558 14.63 124.186 96.7526 14.5627 
124.686 97.1105 14.4192 125.123 97.4122 14.2448 125.519 97.764 14.0169 
126.144 98.1288 13.6492 126.828 98.5492 13.2314 127.451 99.0713 12.7417 
127.735 99.4936 12.1279 128.029 99.7415 11.4688 128.327 100.072 10.5918 
128.54 100.499 9.79385 128.6 100.994 8.96717 128.578 101.288 8.15625 
128.48 101.405 7.44659 128.34 101.535 6.48651 128.337 101.614 5.82544 
128.306 101.623 5.24455 128.255 101.566 4.54325 
LINES 2 98
OFFSETS vtktypeint64
0 98 
CONNECTIVITY vtktypeint64
97 96 95 94 93 92 91 90 89 
88 87 86 85 84 83 82 81 80 
79 78 77 76 75 74 73 72 71 
70 69 68 67 66 65 64 63 62 
61 60 59 58 57 56 55 54 53 
52 51 50 49 48 47 46 45 44 
43 42 41 40 39 38 37 36 35 
34 33 32 31 30 29 28 27 26 
25 24 23 22 21 20 19 18 17 
16 15 14 13 12 11 10 9 8 
7 6 5 4 3 2 1 0 
CELL_DATA 1
FIELD FieldData 2
Length 1 1 double
77.186735691 
Tortuosity 1 1 double
0.70831105497 
POINT_DATA 98
FIELD FieldData 7
MaximumInscribedSphereRadius 1 98 double
1.708340531 1.768563507 1.7168883999 1.555327617 1.4621641434 1.3860635571 1.2991317512 1.2038060179 1.0992903598 
1.0033598101 0.96850518167 0.98671388601 1.0437726197 1.1249522785 1.2133422906 1.3140753717 1.3956678054 1.4962960461 
1.6286048481 1.7100654723 1.7151393614 1.6369824345 1.5920532843 1.5610513653 1.4900961194 1.4504345329 1.4371064828 
1.4458512835 1.4488668895 1.4847214938 1.562219489 1.6996141386 1.7699788366 1.8236532401 1.9717612461 2.0712178654 
2.205481234 2.2661070344 2.2733838527 2.3427741245 2.4497674648 2.4786522071 2.4768325733 2.3857999773 2.3482161469 
2.1306574719 1.9204790647 1.785000613 1.7742461678 1.9118726537 2.1379225037 2.1481900899 2.1144253609 2.0819300885 
2.0638082265 2.0330305657 2.0334620238 1.9613885222 1.9314612683 1.8972224968 1.8459776324 1.7985434345 1.7437140185 
1.6916011867 1.6979517612 1.7519976386 1.8641913675 1.8775387256 1.8641529104 1.8672188297 1.8960390557 1.8903113067 
1.9311675959 1.9550537885 2.0011992981 2.1104666313 2.2717519527 2.2509893025 2.2060111501 2.178138849 2.1440234532 
2.1192158323 2.1145917496 2.0962203353 2.0769821265 2.05863319 2.0792173605 2.0405083709 1.8930221746 1.803737014 
1.8386299512 2.0222208828 2.0540691962 1.9955310723 1.9323711631 1.8991612692 1.9144370911 1.9596982508 
Curvature 1 98 double
0 0.19305011206 0.30672897405 0.34630677176 0.1701037739 0.21726788549 0.2944347189 0.30497014094 0.28326255551 
0.089232492466 0.045327089875 0.17201636655 0.32050562392 0.17215086114 0.1081325443 0.07752016915 0.15241984793 0.23585531409 
0.39481321964 0.27442507076 0.21545207443 0.47606431444 0.5186295633 0.49265975001 0.3783894769 0.39046196056 0.25561947095 
0.33049740587 0.20160621317 0.27397877802 0.14190252202 0.30508531357 0.19430128578 0.37268836515 0.21316380353 0.060208713151 
0.087733034905 0.12577597102 0.25281447455 0.25606039759 0.15739368644 0.18517750047 0.524566275 0.17942440199 0.63860606908 
0.25292448649 0.40250408383 0.21926237323 0.095499583958 0.030638789044 0.2278711233 0.16001328867 0.031441390899 0.097995008631 
0.20679793021 0.1197563183 0.12362889677 0.071828869674 0.12723964512 0.073220141239 0.12563855167 0.22548250747 0.15810501562 
0.23540317234 0.18023213003 0.18026177936 0.15337715495 0.2840504497 0.11300916116 0.14527425771 0.10149557367 0.12849176536 
0.16173783548 0.079491772874 0.058645347273 0.1082511074 0.1654587678 0.025062577647 0.042839280806 0.1624341663 0.17479434108 
0.15018881381 0.25706303328 0.27665368776 0.026580343083 0.15357309027 0.4685062055 0.29468503912 0.099640877876 0.1558302084 
0.1855901617 0.23377662066 0.27001149449 0.036354816975 0.17113870586 0.18489225443 0.1510242878 0 
Torsion 1 98 double
0 0 -0.5876956508 -0.65869810192 0.50303344965 0.73611737179 -0.11772764516 0.10893416546 0.55919423739 
-2.1212216464 2.2652097824 0.35456678407 -0.26907357451 -1.2221541161 -0.28318241228 -0.36164820256 -1.2373630562 0.5450926952 
0.047563268872 -0.80879580662 0.75574247689 -0.24623398869 -0.49829949319 0.2665566817 -0.11520072284 -0.52751575961 0.80856297354 
0.24766248475 -0.62611763714 -0.085672162521 0.98258047881 0.0050801435703 0.32787059094 0.39627644388 0.51711891279 2.0750659499 
-0.5637346537 0.26737336189 0.10746571112 -0.22012087514 -0.23460892683 0.33655666292 -0.045036708178 0.69297168703 -0.011691917705 
-0.35629288804 -0.18007511835 -0.60133353741 1.2717682664 -0.50848589072 -0.088634920723 -0.2649849758 -3.8813268717 -0.033732378549 
0.048007474988 -0.19179309354 -0.38993387107 -0.51134064866 -0.3565586 -0.035391180916 0.48056171417 0.00070734140919 -1.0418128992 
0.14973422312 1.1188006694 0.58383614763 -0.41309681423 -0.036885642765 0.6907360386 -0.0031347532127 0.031920219725 -0.38675256534 
0.10304284455 0.55757544355 -0.21373616024 0.62398203912 0.39906554723 4.1235532008 1.4723688481 0.43369604495 0.38068399957 
1.4048867734 -0.34525518227 -0.52544111508 3.9109786367 -0.98321544103 -0.48652424824 -0.7295110027 2.4241126279 -0.12063649117 
-0.94666804765 -0.36035346809 0.038534122192 -3.8435460992 0.49198094998 0.53660696642 0 0 
FrenetTangent 3 98 double
0.75248469412 0.18682584533 0.63155592677 0.75248469412 0.18682584533 0.63155592677 0.68681711813 0.36039807485 0.63118576813 
0.57403012752 0.4797840852 0.66354852445 0.41863546548 0.45512418395 0.78587933185 0.28928412223 0.46368833318 0.83744123752 
0.14282861056 0.54077500047 0.82895258421 -0.027748284884 0.63675630457 0.77056566318 -0.15410491607 0.7027461395 0.69454988177 
-0.20646202996 0.75228248966 0.62565524527 -0.25181777905 0.74601267239 0.61648430538 -0.26098431099 0.77971917449 0.56914426849 
-0.22529874503 0.87366507347 0.43121898715 -0.26595015234 0.89798281808 0.35056721882 -0.34178919325 0.85167690758 0.39727395142 
-0.37840964449 0.83042312137 0.40890534412 -0.44748755358 0.8067868382 0.38581068815 -0.4325893635 0.76047528997 0.48429719793 
-0.5196277613 0.63088471021 0.57616965567 -0.65882611272 0.39747191793 0.6387207744 -0.61711663418 0.22641701949 0.75359298902 
-0.6166842485 0.024637376612 0.78682497249 -0.57559506266 -0.29358575014 0.76321538975 -0.32317480697 -0.59090897379 0.73917834711 
-0.15904668481 -0.78257883427 0.60189244903 0.039739718037 -0.89300445735 0.44828985485 0.28444527782 -0.87915712084 0.38232661536 
0.32829424392 -0.91749348201 0.22456313118 0.31761873689 -0.94807729038 0.016364273212 0.3785880567 -0.9094737681 -0.17183872807 
0.44059745163 -0.829031082 -0.34435642973 0.36622734205 -0.78638187822 -0.49747469839 0.25517880349 -0.71652234636 -0.64921452958 
0.12722242853 -0.75635845645 -0.64166684427 0.0076375621654 -0.859519496 -0.51104589191 -0.013610236995 -0.91188144245 -0.41022798097 
0.035347309255 -0.9267881479 -0.37391749977 0.058358542144 -0.94602418832 -0.3187985503 0.057092220362 -0.98218410693 -0.17903870661 
0.08463536875 -0.99616064067 0.022379283843 0.066117636494 -0.98058990146 0.18458576137 0.026711995991 -0.94643190799 0.32179669484 
0.0037408100063 -0.83382167816 0.55202120917 -0.019756541153 -0.67998636011 0.73295854531 0.014402812288 -0.37926541282 0.92517582417 
0.017805191451 -0.14497763452 0.98927471445 -0.015866446451 0.14341214118 0.98953585768 -0.092850527926 0.33856559864 0.93635042312 
-0.15117625681 0.4188218869 0.89539598303 -0.13057100119 0.46482661567 0.87572109202 -0.15195405749 0.37812585248 0.91319811875 
-0.17043201429 0.24772101037 0.95372282636 -0.16225281084 0.16220437174 0.97332613607 -0.13431284648 0.18458451383 0.97359571513 
-0.166378773 0.12703621112 0.97784451983 -0.23323141024 0.02227967917 0.97216599672 -0.22028192766 0.00249073088 0.97543306721 
-0.21272374753 0.022705979905 0.97684852752 -0.29708251875 0.005536637966 0.95483575692 -0.34445443881 -0.038782123756 0.93800164523 
-0.37904103539 -0.065203063472 0.92307987412 -0.4864798688 -0.040061405324 0.87277283474 -0.58092361187 -0.013899318536 0.81383939823 
-0.57197015968 -0.083833530262 0.81597921275 -0.55933063215 -0.18879480541 0.80715907069 -0.62978402948 -0.29108917183 0.72016607131 
-0.71499976597 -0.31499118942 0.62414412218 -0.79106260404 -0.38863605179 0.47242139636 -0.82832833409 -0.45030300103 0.3333157335 
-0.8598956425 -0.45897213385 0.223436936 -0.88120885275 -0.45343282936 0.13367732456 -0.87664679917 -0.47202991417 0.09315658664 
-0.81949516942 -0.56535678185 0.093804991933 -0.80474271599 -0.58771346492 0.083558627343 -0.80735093906 -0.58344921385 0.088155975701 
-0.7712623808 -0.61924187376 0.14728829468 -0.74445434888 -0.65564690288 0.12615411675 -0.73334077621 -0.67780189538 0.052876238163 
-0.74726857135 -0.66186195737 0.059400603201 -0.77027535136 -0.63030112731 0.096934885362 -0.7899472485 -0.58366438944 0.18793409771 
-0.78778099019 -0.55485435797 0.26746542382 -0.7354909174 -0.57699997671 0.35513960254 -0.73866559841 -0.51838719195 0.43086871892 
-0.76256170543 -0.45733082821 0.45754579988 -0.70677272199 -0.50961047415 0.49068267147 -0.52993763387 -0.55139546635 0.64430516365 
-0.37286002173 -0.43232137274 0.82101987483 -0.33931631583 -0.33137571675 0.88037183744 -0.26772611019 -0.3968863227 0.8779544275 
-0.14443113011 -0.48849970451 0.86052756339 -0.020738039256 -0.43394200274 0.90070209947 0.076282156549 -0.26039085092 0.96248513617 
0.13945493487 -0.14508988458 0.97954134498 0.086808715489 -0.1270370312 0.98809201981 0.027283081705 -0.070302633304 0.99715253257 
0.064263773135 0.037122268212 0.99724224974 0.064263773135 0.037122268212 0.99724224974 
FrenetNormal 3 98 double
0.36554625949 -0.91613631348 -0.16453020177 0.36554625949 -0.91613631348 -0.16453020177 0.36025928815 -0.92302852913 0.1350243671 
0.6997295244 0.13346204513 -0.7018308024 0.8624258343 0.07190022681 -0.50105093325 0.95587693622 -0.093202884673 -0.27859020999 
0.58966116686 -0.71916732868 0.3675568822 0.99913674122 -0.0061739937718 0.041081067979 0.27358051714 -0.64511466698 0.71342888019 
0.96601507633 0.055081660697 0.25254877343 0.9591960902 0.27702288982 0.056578963099 -0.10791552933 -0.60944698962 0.78544802843 
-0.26905267247 -0.48117842568 0.83431288022 0.92172445291 0.34337785134 -0.18032105844 0.40773537068 0.5152611988 -0.75382873685 
0.55998876731 -0.14636460834 0.81546917901 0.85633284035 0.51092208735 -0.075184354765 -0.58827697172 0.16897793553 -0.79080760103 
0.73319925139 0.67548160036 -0.078380261207 0.053660757166 0.8716956399 -0.48710084635 -0.5010911132 0.62532923133 -0.59822324321 
0.25195595023 0.95310992225 0.16762957752 -0.5572129132 0.82391957968 -0.1032971228 -0.71288092892 0.66571635919 0.2205051253 
-0.39150801714 0.60966195522 0.68922693859 -0.97161997597 0.070164802686 0.2259015776 -0.9431842585 -0.18518691904 0.27587906687 
0.27908965186 0.32134404929 0.90490163455 -0.25185394217 -0.067711321962 0.96539358227 -0.33344491004 -0.3072107116 0.89131143303 
-0.29810823571 -0.49694813609 0.81496872936 0.67423470176 -0.14420299829 0.72430177566 0.17228421612 -0.62700378447 0.75972653181 
0.68142138565 0.53673853468 -0.49757073927 0.38507110785 0.47417692181 -0.79175532125 -0.54073929208 0.35181084459 -0.76408778791 
-0.87419814477 0.15263361315 -0.46095616257 0.35590133009 0.31807536386 -0.87872766324 -0.22197036922 0.16235498431 -0.96144163331 
-0.074489525165 -0.028722575408 -0.99680806794 0.33056236599 -0.15301824646 -0.93129691207 0.19809267898 -0.31051616062 -0.92969834061 
0.030829361823 -0.55166650626 -0.83349482081 0.38341942916 -0.68220400111 -0.62256505059 -0.1848250365 -0.91033717693 -0.37030518519 
0.26504101371 -0.9533508496 -0.14448328148 0.0011009218739 -0.98965733051 0.14344739851 0.81380339509 -0.51602673343 0.2672834535 
-0.42935743114 -0.8437212188 0.32215943456 -0.21065006917 -0.87612232837 0.43363142654 0.21174662732 0.91492973538 -0.34360870936 
-0.033442909528 0.96587171372 -0.2568528848 -0.4413216044 0.87031424061 -0.21860549874 -0.63665258481 -0.76896954901 0.057959632109 
0.53412377841 0.84519448722 -0.018922687668 0.55017899219 0.82736140109 0.11303180324 -0.82710972869 -0.53057019437 -0.18543129604 
0.96975413251 0.12736581224 0.20821832858 0.92970221922 0.22967284324 0.28793084004 -0.11422919695 0.99345403977 -0.00087259592679 
0.91810466785 -0.15133400785 0.36630839049 0.85006091648 -0.25246404737 0.46223191481 0.80182368776 -0.18177468724 0.56924224793 
-0.50856127392 0.8167442157 -0.27256983836 0.27050227807 0.87884661146 0.3930103702 0.58252034013 0.436327771 0.68577556794 
0.67131453378 -0.060037953707 0.73873692262 0.17740844321 0.59332817184 0.78516745015 0.49014348517 -0.29431484061 0.82044996102 
0.072517569939 0.32343556444 0.94346734851 0.36085159585 -0.46253306866 0.80984522359 -0.47450314886 0.88023919625 -0.0050714007764 
-0.56850184156 0.82263770587 -0.0085358671327 0.5820773595 -0.75360607992 0.30539126356 -0.52435082544 0.6408582528 -0.56067540671 
-0.43700880636 0.3469060175 -0.829867169 -0.18062632826 0.37967059024 0.90731712893 0.66552917581 -0.73159222022 -0.14779627687 
0.59338119768 -0.70483771505 -0.38871911413 0.32958956512 -0.52360569323 -0.78562573569 0.050553412835 -0.3674431498 -0.92867103116 
-0.10262379744 -0.30992760828 -0.9452053924 -0.65870857975 0.48624881916 -0.57416469138 0.42715934553 -0.8544547122 -0.29570599983 
-0.63330540393 0.6720595955 -0.38374492237 -0.7002061363 0.60286304764 -0.38244935936 -0.7534312257 -0.042594578677 -0.6561456317 
0.12564356251 -0.90020102184 -0.41695541186 -0.94066747837 0.12253890493 -0.316431528 -0.5047102025 0.83396481177 0.22309259112 
-0.9516842103 0.30674070493 0.014398048641 -0.41917557631 -0.81411667545 -0.40187793542 -0.51328170907 -0.83782542954 -0.18598504445 
-0.25530463638 -0.96103240398 -0.10600123177 0.99017384034 -0.098150355327 -0.099610610114 -0.4342366584 -0.8993240663 -0.051524249446 
-0.19387126853 -0.97980417131 0.04896648981 -0.19387126853 -0.97980417131 0.04896648981 
FrenetBinormal 3 98 double
0.54785282448 0.35466936524 -0.75767204256 0.54785282448 0.35466936524 -0.75767204256 0.63126499312 0.13465348883 -0.76378854823 
-0.42528579261 0.86717651842 -0.25910785496 -0.28454529932 0.8875203291 -0.36241086914 -0.051127091029 0.88108248874 -0.47019109796 
0.79492118874 0.43630350929 -0.42159168811 0.030916096639 0.77104039479 -0.63603530136 0.94942370704 0.29995821354 -0.092842310648 
0.15552589011 0.65653413194 -0.73808849815 -0.12857164034 0.60557692422 -0.78533172746 0.95929214943 0.14357010752 0.24319991011 
0.93640329716 0.07194902396 0.3434708183 -0.28230223056 0.27516996501 -0.91901411359 -0.8467183799 -0.095667873976 -0.52336950907 
0.73703373156 0.53756380172 -0.40964184067 -0.25777694998 0.29673829944 -0.91950933965 -0.6832251804 -0.6269958458 0.37427204307 
-0.43864090946 0.38171860055 -0.81356318903 -0.75037902179 -0.28664051673 -0.59562449398 -0.60669164828 -0.74679226411 -0.27244551414 
-0.74580073532 0.30161975365 -0.59397540977 -0.59850153985 -0.4847307846 -0.6378338132 -0.62238157534 -0.45568444542 -0.63639049403 
-0.90632534146 -0.12602645958 -0.40335060049 -0.23318528493 -0.44454464299 -0.86487263992 -0.17173915816 -0.43907694303 -0.88188270175 
-0.90240337745 -0.23440075184 0.36155833818 -0.91415968506 -0.31074849692 -0.26028338762 -0.86341506548 -0.28014111412 -0.41956570508 
-0.8467616934 -0.25641765759 -0.46609507556 -0.64131513383 -0.60067381904 0.47739487036 -0.95142100414 -0.30571552369 -0.036552584732 
0.72074915807 -0.37394335233 0.58368400731 0.92285530261 -0.19074192727 0.33459768026 0.84108012665 0.21142697214 -0.49787835462 
0.48428108718 0.34317154463 -0.80480129197 0.93269958926 -0.062179562714 0.35525368145 0.97338051838 0.094632125405 -0.20874656232 
0.99362375424 0.082698196176 -0.076634478873 0.94146533677 0.12259225671 0.3140289131 0.97981924854 0.088579667714 0.17918672569 
0.99951766207 0.020136407357 0.023642510625 0.92336299494 0.268730815 0.27419797345 0.98266589687 -0.1656622194 -0.083209159246 
0.96407273388 0.26477092564 0.02145042482 0.99987351392 0.0033654021377 0.015544459476 0.57367483263 0.7868225631 -0.22761247901 
0.89039201238 -0.33574206171 0.30737490512 0.9688022306 -0.1278510191 0.21231192832 -0.96543944928 0.14115388414 -0.21909415957 
-0.98480175686 -0.07567122073 -0.15633095038 -0.88255836457 -0.46501920861 -0.069626638273 0.7593639085 -0.61205750543 0.22079869683 
-0.82887266406 0.51914167607 -0.20847548281 -0.80181430882 0.56122787519 -0.20522447779 0.5170738526 -0.84763734292 0.11893513292 
-0.11968930496 0.99159587955 -0.049112950733 -0.2177056743 0.97325214139 -0.073379211364 -0.93182768265 -0.10744774421 -0.3466297046 
0.11580894768 0.98632985283 0.11722503596 0.2018261022 0.96677659704 0.15687331157 0.14002332275 0.98324197023 0.1167420107 
-0.64359581036 -0.5708772419 -0.50978780642 -0.78356733055 0.43816110619 -0.4404964058 -0.51385029877 0.8514018853 -0.10522689841 
-0.19522328601 0.94719374718 0.25438528632 -0.58544530126 0.70492815219 -0.40041241174 -0.27135131266 0.8429744847 0.46450240393 
-0.50529267367 0.82748656545 -0.24483728868 -0.30538022793 0.76188045628 0.57121019488 -0.079606226076 -0.048648920956 -0.99563855453 
-0.07234171299 -0.060323412543 -0.99555399776 -0.11651226807 0.29439898004 0.94855370535 0.27063014071 -0.49888647474 -0.82332958909 
0.46279330497 -0.70441161036 -0.53816971307 -0.64277667348 0.65266942754 -0.40107451475 0.13886044107 -0.073194357199 0.98760334344 
0.29914617918 -0.255230376 0.91943951332 0.5459364447 -0.57319941289 0.61106123377 0.61108730721 -0.7241004158 0.319766932 
0.60734625025 -0.77206315744 0.1872138169 0.15860680119 -0.6562264188 -0.73770642527 0.52144801011 -0.034378249332 0.85259023495 
-0.13199966202 -0.58239541006 -0.80211699619 -0.10091425139 -0.61388379228 -0.78291953829 0.38923963357 -0.83315589271 -0.39286609182 
0.9193416663 -0.052310141963 0.38996736999 -0.0030220765003 -0.93550753665 -0.35329380964 -0.82072549699 -0.38338484526 -0.42358673139 
-0.27099227391 -0.81687096817 -0.50920036218 0.90766831494 -0.38588648203 -0.16501470551 0.85482332662 -0.47983867537 -0.19756499156 
0.95675068005 -0.23529905203 -0.17106283154 0.10963581903 0.98702993899 0.11726843878 0.90038556072 -0.43159444335 -0.055064312543 
0.97891986327 -0.19648339138 -0.055768971753 0.97891986327 -0.19648339138 -0.055768971753 
SiphonLabel 1 98 int
0 0 0 0 0 0 0 0 0 
0 0 0 0 0 0 0 0 0 
0 0 0 1 1 1 1 1 1 
1 1 1 1 1 1 1 1 1 
1 1 1 1 1 1 1 1 1 
1 1 1 0 0 0 0 0 0 
0 0 0 0 0 0 0 0 0 
0 0 0 0 0 0 0 0 0 
0 0 0 0 0 0 0 0 0 
0 0 0 0 0 0 0 0 0 
0 0 0 0 0 0 0 0 
