# vtk DataFile Version 5.1
vtk output
ASCII
DATASET POLYDATA
POINTS 93 float
105.437 73.3244 34.0162 104.867 73.7287 33.7433 103.974 73.97 33.4993 
103.015 73.8914 33.3702 102.296 73.6106 33.2859 101.59 73.2681 32.929 
100.907 72.7663 32.4196 100.545 72.272 32.1612 100.287 71.5993 31.9909 
99.9023 70.7193 31.734 99.5798 69.9675 31.4541 99.3194 69.2547 30.9971 
99.1984 68.5582 30.4661 99.1838 67.9603 30.1137 99.2175 67.3895 29.7905 
99.3172 66.6735 29.1076 99.3703 66.2829 28.7625 99.606 65.5411 28.3132 
99.967 64.9083 27.9505 100.342 64.3297 27.478 100.719 63.9122 26.8702 
101.227 63.6039 26.2354 101.787 63.5006 25.7043 102.232 63.4916 25.2941 
102.756 63.5822 24.8427 103.277 63.8454 24.3682 103.827 64.4539 23.8901 
104.184 64.8689 23.6831 104.627 65.6406 23.504 104.934 66.4405 23.423 
105.124 67.2106 23.4188 105.276 67.7896 23.3986 105.384 68.2874 23.351 
105.466 68.9579 23.2445 105.473 69.8561 23.1455 105.513 70.6647 22.9457 
105.482 71.6232 22.7162 105.393 72.4197 22.526 105.169 73.2027 22.2061 
105.035 73.5788 22.0539 104.758 74.2534 21.5556 104.401 74.9205 21.0508 
104.191 75.2173 20.7375 103.74 75.6441 20.181 103.282 75.9956 19.797 
102.633 76.3363 19.2607 102.013 76.6109 18.6033 101.798 76.7127 18.1214 
101.489 76.809 17.3785 101.181 76.8262 16.5334 100.828 76.7762 15.7218 
100.434 76.8038 14.8451 100.176 76.7523 13.9836 100.058 76.6175 13.0433 
100.004 76.4227 12.1737 100.199 76.2085 11.294 100.524 76.1024 10.6104 
100.922 76.0527 9.95544 101.441 75.9844 9.25941 102.15 75.9475 8.60151 
102.501 75.9453 8.26276 103.119 75.9732 7.841 103.93 76.0814 7.43078 
104.472 76.1835 7.21403 105.151 76.398 6.99877 106.088 76.688 6.83213 
106.76 76.9202 6.77291 107.246 77.1374 6.74317 107.977 77.4952 6.76189 
108.875 77.8441 6.73908 109.33 78.0429 6.74035 110.08 78.4156 6.76023 
110.923 78.752 6.81948 111.801 79.1341 6.92089 112.411 79.4359 6.97872 
113.234 79.9128 7.07946 113.891 80.2934 7.13818 114.679 80.7831 7.255 
115.476 81.2355 7.34978 115.93 81.4708 7.31492 116.458 81.7942 7.26983 
116.914 82.102 7.22379 117.574 82.6313 7.04901 118.022 83.0277 6.9249 
118.425 83.3677 6.81781 118.899 83.7238 6.65415 119.446 84.1545 6.39753 
119.953 84.4606 6.1644 120.564 84.754 5.81456 121.225 85.278 5.29579 
121.625 85.7412 4.79754 122.123 86.2574 4.11965 122.333 86.4362 3.85813 

LINES 2 93
OFFSETS vtktypeint64
0 93 
CONNECTIVITY vtktypeint64
92 91 90 89 88 87 86 85 84 
83 82 81 80 79 78 77 76 75 
74 73 72 71 70 69 68 67 66 
65 64 63 62 61 60 59 58 57 
56 55 54 53 52 51 50 49 48 
47 46 45 44 43 42 41 40 39 
38 37 36 35 34 33 32 31 30 
29 28 27 26 25 24 23 22 21 
20 19 18 17 16 15 14 13 12 
11 10 9 8 7 6 5 4 3 
2 1 0 
CELL_DATA 1
FIELD FieldData 2
Length 1 1 double
72.397822777 
Tortuosity 1 1 double
0.95819225199 
POINT_DATA 93
FIELD FieldData 7
MaximumInscribedSphereRadius 1 93 double
1.3025187163 1.3006581981 1.2968462125 1.4342672451 1.4728830999 1.4844932788 1.5578787211 1.5303730626 1.4149326395 
1.3562315506 1.38288545 1.3536258967 1.3591946803 1.4638479276 1.5684530928 1.6864546217 1.7746364614 1.828461983 
1.7992736148 1.7891272003 1.8326356068 1.9509849937 2.0436060378 2.0786776473 2.1246944741 2.1620897292 2.1270843061 
2.1070982241 2.0597933877 2.0744223682 2.0951841946 2.0920864046 2.0776262294 2.0422149575 2.0748506067 2.0726462281 
2.0936598685 2.1367042347 2.1396413884 2.1469579218 2.1401401408 2.1215006621 2.1059440973 2.0975687374 2.1012026261 
2.1835956936 2.2189895952 2.1235526322 2.0223826493 1.9319069093 1.8197561433 1.7496933047 1.7089405864 1.6148667333 
1.5671267699 1.5574775956 1.5563004655 1.6015880387 1.6462073985 1.6110033757 1.6102417656 1.6108650857 1.6859688121 
1.7487186697 1.7613593859 1.7492757794 1.7643367349 1.7862028233 1.7941744658 1.793634167 1.7933173745 1.8133478715 
1.8827267401 1.9551232589 2.0132584395 1.9887716666 2.0119697059 2.0513963748 1.9876340447 1.9681332278 1.9393675157 
1.9176138379 1.9748353701 1.9753607391 1.9802196366 1.9738550687 1.958466642 1.9451133283 1.8706889095 1.8034729485 
1.6970680509 1.5537853109 1.485937277 
Curvature 1 93 double
0 0.42491853115 0.38525690029 0.33731127602 0.40823840946 0.21477307873 0.37687893039 0.43867555585 0.060592052549 
0.073777901164 0.25176554746 0.20413886328 0.21146776523 0.11006468447 0.30738827515 0.050080242607 0.34147299256 0.23027465031 
0.17921806968 0.30860725302 0.23469277356 0.32671610134 0.17234542409 0.22998939034 0.31915333985 0.40754681295 0.21987303683 
0.33150325539 0.21052233152 0.18568825521 0.044905080041 0.12986845542 0.18894075172 0.15290363482 0.1597855769 0.086972167014 
0.085868467683 0.25305478903 0.093337274804 0.36799021232 0.094371931233 0.22827703239 0.22890186799 0.21651495898 0.18519417284 
0.15991831134 0.47334966146 0.11227592135 0.12810168237 0.10821714664 0.093442243048 0.16913941287 0.20111059344 0.1081527527 
0.30520024798 0.28846801847 0.16569329459 0.11678367131 0.20325309111 0.053172543839 0.28316078174 0.18503401754 0.13695320726 
0.20871250204 0.14485934082 0.10688938054 0.14725501043 0.12801121375 0.10879913172 0.067138651868 0.080096997793 0.10458337132 
0.054423280397 0.064304628078 0.083440413317 0.0329490939 0.067352362287 0.048517815225 0.24613612652 0.12564460065 0.077706597685 
0.20648360524 0.063335768711 0.039427915588 0.15346966469 0.12735155693 0.17123363559 0.19156801661 0.23906334173 0.22910226656 
0.095595635979 0.10380112432 0 
Torsion 1 93 double
0 0 -0.18148325853 -0.88112371987 -0.30188095019 1.3913872141 0.2848540407 -0.0041447660299 0.71419342034 
0.62348331403 0.31288270833 0.98870078365 0.40432152691 -2.7663296137 -0.19943271454 -2.104534962 -0.38813661466 -1.0299836769 
-0.6742986787 0.40648769283 0.61561908734 -0.13016450964 -0.40645412661 -0.28984444139 -0.021399785556 0.33167519554 0.22618415077 
-0.37564899246 -0.13975972849 -0.067879199555 0.35185436451 0.7434867491 0.76997610134 0.14091126702 -0.13128176201 0.88577706877 
-1.1771791274 0.023774196352 -1.427846859 0.0012097235969 0.94531670186 0.17797337185 1.1006152428 0.057610663198 -1.1722491393 
-1.1336745101 0.036578940001 2.2690005365 0.38921283319 0.93678864944 1.1834107053 0.15894507559 0.080913078316 -0.65390655255 
-0.3476197314 -0.3101252376 0.098906583609 0.24273126222 -0.24760927132 1.0009257318 -0.01983807487 -0.2947521432 -0.48592799026 
0.19960034734 0.51867296499 -0.9525622533 0.064231386891 1.0244428435 0.38091196227 -0.19500768008 0.65426449698 0.045201294233 
-1.6177497177 0.019904217422 0.078974166914 -0.7641672701 0.35381214788 2.3507833815 0.45764134245 1.5944400995 -1.7636479108 
-0.0032450129961 1.8531252466 3.202889081 0.77370537577 -0.27584049816 -0.005502423824 1.2653559768 0.20211200037 -0.48977584475 
-1.824384508 0 0 
FrenetTangent 3 93 double
0.87050998568 -0.3841824526 0.30759747714 0.87050998568 -0.3841824526 0.30759747714 0.9766859443 -0.085816465304 0.19677423738 
0.97034247723 0.20785615152 0.12341514151 0.88131919949 0.38568484045 0.27299024242 0.75410076965 0.45837042943 0.47034942186 
0.63929434454 0.60902391314 0.46945991763 0.44675381482 0.83979418082 0.30847489818 0.37060568381 0.89551012936 0.24640015288 
0.38050774763 0.87847015363 0.28897066145 0.33501609363 0.84168589764 0.42347262807 0.21633824432 0.7994348826 0.56044770721 
0.086194139206 0.82289672262 0.56161513003 -0.014127990896 0.86566721176 0.50042050153 -0.081367825508 0.78516064543 0.61392347881 
-0.10066611657 0.72890972158 0.67716833266 -0.20438403745 0.80139857879 0.56212763956 -0.35014472032 0.80651151032 0.47637995187 
-0.447263617 0.73634077678 0.50769825423 -0.4554981543 0.60348779593 0.6544645992 -0.52378083028 0.4296407446 0.7355694885 
-0.65378551798 0.2518901975 0.71352352791 -0.72743605576 0.081265231298 0.68134627537 -0.7456778044 -0.062880882026 0.66333295312 
-0.72555099465 -0.24565810143 0.64282801072 -0.63840025328 -0.5195887678 0.56786673523 -0.59332126706 -0.66891942707 0.44779088215 
-0.53984597328 -0.80045949618 0.26044369852 -0.42587979059 -0.89264064371 0.14771284701 -0.30157755183 -0.95204093378 0.051662758724 
-0.24526393424 -0.96929819669 0.017510238863 -0.23413071568 -0.97028636133 0.061050675533 -0.15922196468 -0.97876445457 0.12910657782 
-0.05600484064 -0.98997414919 0.12967128347 -0.027222461384 -0.98465205312 0.17239278375 -0.005176908734 -0.97172338931 0.23606536018 
0.066153422165 -0.97044425192 0.23208118978 0.185440841 -0.93509049955 0.30202227093 0.27522753608 -0.89036204625 0.36263649841 
0.31585139654 -0.80671238443 0.49945272461 0.35378655094 -0.74912188301 0.56004596309 0.40887042112 -0.69577307131 0.59052926428 
0.5046156504 -0.55214039135 0.66370477896 0.59722981986 -0.51135629042 0.61792498454 0.69305185983 -0.43333234347 0.57610953792 
0.68698981849 -0.33290995705 0.64592255711 0.57105571426 -0.25748426681 0.77948522985 0.38887768372 -0.14710447685 0.90946930679 
0.36166112272 -0.066507973919 0.9299343642 0.37049504445 0.018390034528 0.92865237235 0.40427767442 0.012142133747 0.91455570118 
0.35116203909 0.012853806149 0.93622646938 0.20336941437 0.10072798514 0.97390695362 0.093246896401 0.17835538636 0.97953783616 
-0.078002032822 0.2269523403 0.97077717222 -0.30964500666 0.19089312576 0.93149330883 -0.4728801758 0.10184528208 0.87522104514 
-0.56049369143 0.07207152819 0.82501667661 -0.67077719459 0.057450544827 0.73943044982 -0.72816728062 0.026853429414 0.68487320342 
-0.78648671076 -0.020843188924 0.61725538902 -0.86125561686 -0.082053251721 0.501503765 -0.89846431867 -0.13963223516 0.41625077416 
-0.91579773795 -0.23741251527 0.32395956654 -0.93113788877 -0.29073542666 0.22012529112 -0.94278878903 -0.30599708773 0.1323445563 
-0.9298618306 -0.36090701119 0.071436022167 -0.90413507188 -0.42716836863 0.0081827035293 -0.91741004199 -0.39793654479 0.0023067664599 
-0.92683479456 -0.37517914608 0.014760485986 -0.90346681616 -0.42836463293 -0.01585728101 -0.91268603967 -0.4061398467 -0.045327893281 
-0.91935427136 -0.38395061963 -0.085846638967 -0.90425775392 -0.41586495556 -0.096820727161 -0.87453458383 -0.47521027161 -0.096770137173 
-0.86158168903 -0.49906169176 -0.09281390488 -0.85205416174 -0.5131191431 -0.10350096834 -0.85394633116 -0.50771375933 -0.11402807585 
-0.8754852816 -0.4814204958 -0.041950303027 -0.86712017748 -0.49307506982 0.070566091904 -0.83930434107 -0.53808297402 0.077684851386 
-0.79000252657 -0.59282204574 0.15639063303 -0.75138906357 -0.627942952 0.20273658817 -0.74067748787 -0.64101202498 0.2012472181 
-0.76117743821 -0.60443326173 0.23509432079 -0.7532300631 -0.58018190582 0.30989260754 -0.76621323394 -0.53514343161 0.35572290864 
-0.80087514781 -0.42929237725 0.41750096103 -0.72940071598 -0.46880450368 0.49819367003 -0.59916445342 -0.55765953839 0.57447175474 
-0.50609751004 -0.55190626298 0.66277053889 -0.51831350134 -0.50862049336 0.68750004223 -0.51831350134 -0.50862049336 0.68750004223 

FrenetNormal 3 93 double
-0.47414526859 -0.82218720736 0.31495152058 -0.47414526859 -0.82218720736 0.31495152058 -0.15018221825 -0.92811366312 0.34066160578 
0.19876313751 -0.97660735169 0.082044474543 0.33622188215 -0.10592205074 -0.93580733334 0.65619518864 -0.5555183069 -0.51069294601 
0.45937030383 -0.79207402608 0.4019921158 0.65399830818 -0.54183229437 0.52792421584 -0.71481378721 0.44439453738 -0.53995809538 
0.1953536038 0.22906932815 -0.95360589993 0.36413069152 0.29886729508 -0.88209250049 0.87621437326 0.094217949823 -0.47262178328 
0.69843328127 -0.45190477225 0.5549531768 0.97210320507 -0.10529433819 0.20959117595 0.19418998338 0.61665032231 -0.76291063065 
0.029247397816 -0.67816353817 0.73432881274 0.66493011447 -0.30777691023 0.68054486729 0.93056469299 0.24141479703 0.27526032757 
0.031469992386 0.58024436709 -0.8138342055 0.027945234711 0.74448850369 -0.66705017183 0.65077061947 0.75900919529 0.020065948619 
0.51714984923 0.83710998628 0.17833368811 0.13294418311 0.99083872837 0.023758336021 0.10779691947 0.97103730891 0.21322844287 
-0.26089937962 0.96257336246 0.073375987872 -0.34821788335 0.85291941283 0.38893801682 0.19860612671 0.41744114568 0.88673473842 
-0.51818864197 0.5598490524 0.64656752924 -0.70826474307 0.43049794722 0.55949313773 -0.76637864172 0.27428740919 0.58088741997 
0.40927930466 -0.11990056967 -0.90449671319 -0.55785636115 0.082650796853 -0.82581179823 -0.8292669226 0.061634948327 -0.55544352029 
-0.91812699111 0.10209545847 0.38290905652 0.28742615277 -0.17288406271 -0.94207075507 -0.99571660692 0.026801529443 0.088487946787 
-0.99778767111 -0.062800541578 0.021814109324 -0.69474903422 -0.34212330547 -0.63267323581 -0.96002519733 -0.23452563543 0.1528049306 
0.015039320317 -0.52207700503 -0.85276574724 -0.92767108707 -0.35748606457 0.10784279227 -0.29707883099 -0.71332114173 -0.63475752609 
-0.68436796431 -0.72446977045 -0.082365290849 -0.72869649885 -0.024018202012 0.68441547216 -0.36378486508 -0.90017783863 -0.23945862019 
0.39687241832 -0.5727116313 -0.71728214181 0.72627227242 -0.28414424359 -0.62593181349 0.24055049738 -0.93671372094 -0.25436757501 
0.35493653033 -0.91251784599 -0.20330086126 -0.56986220952 -0.78502081895 0.24289787151 -0.13683983798 0.9894607291 0.0473531868 
0.78493797139 -0.54915761217 -0.28687679946 0.88167728691 -0.45139773278 -0.13742361001 0.62763443945 -0.77425876255 0.081230407079 
0.99467758157 -0.04803798343 0.09115295318 0.89735914909 0.38261734642 0.21988752526 0.73881218956 0.58710119997 0.3308605893 
0.81248482584 -0.14504488754 0.56465067819 0.73113318571 0.21859563146 0.6462663651 -0.32871947526 0.86312937653 -0.38334212649 
0.59521884 0.24107511531 0.76654896862 0.38920307789 0.5280282152 0.75478948596 0.28903723031 0.52553428484 0.8001694789 
-0.022133379024 0.83519834238 0.5495032688 0.22352396136 0.021909730446 0.97445215501 0.0083229143756 0.3752394188 0.92689055863 
-0.32571708084 0.89784240004 0.29628939897 -0.16514408946 0.36707569288 0.91541404043 0.34729419085 -0.80346139932 -0.48356646368 
-0.30957412594 0.78582888597 0.53538474253 -0.39901535252 0.82689692865 0.39626786122 0.34333817631 -0.82222078016 0.453951413 
-0.29750767798 0.53567309355 0.79028065798 -0.34975502045 0.85147472093 -0.39072013678 -0.48080888947 0.82354442921 0.30099399482 
0.080910067182 0.045490514967 -0.99568276779 -0.35330346334 0.41784129463 0.83700974624 0.49313638163 -0.71964841955 -0.48879715768 
0.14145551163 -0.17229757024 -0.974835312 -0.49721524693 0.86528671972 -0.063685876653 -0.53976365764 0.8076544746 -0.23738037737 
-0.44140204797 0.37291211218 -0.81614997925 -0.64342077793 0.76538437849 -0.014016265106 0.6709018004 -0.72165846361 0.17058674078 
0.2467752019 -0.6051619736 -0.75688901792 -0.38791544328 0.011349497293 -0.92162508526 0.5078427353 -0.84347866477 -0.17504141874 
0.026315860687 -0.72174988541 -0.69165351035 -0.65421458085 0.69088677519 -0.30769911613 -0.78960277456 0.29293277312 -0.53918257468 
-0.025012100996 -0.75873560507 -0.65091833313 0.68076553122 -0.73195555457 -0.028272913458 0.68076553122 -0.73195555457 -0.028272913458 

FrenetBinormal 3 93 double
0.1319038631 -0.42001433209 -0.89788046629 0.1319038631 -0.42001433209 -0.89788046629 0.15339448339 -0.36227139359 -0.9193636766 
0.13758158324 -0.055080857929 -0.98895773774 -0.33201101574 0.91653026301 -0.22302681994 0.027201169519 0.69375497124 -0.71969725319 
0.61666981846 -0.041335341186 -0.78613594535 0.61048934621 -0.034110095834 -0.79128961798 -0.59303682579 0.023981312716 0.80481812846 
-0.90390863669 0.41930589322 -0.084449656234 -0.86900693697 0.44971456463 -0.20635831424 -0.43063457379 0.59331850334 -0.68009338877 
0.71046570782 0.3444169867 -0.61369000097 0.23412765441 0.48942147565 -0.84003027363 -0.97758351425 0.057141411072 -0.20264582851 
0.99449028286 0.093727441479 0.046949377189 0.71839759751 0.51286810336 -0.46996936118 0.10699545313 0.53968331407 -0.83504125259 
-0.89384836325 -0.3480211702 -0.28269483301 -0.88979800814 -0.28555095526 -0.35597774743 -0.54968285644 0.48919717092 -0.67715204002 
-0.55237716274 0.48559056754 -0.67755536365 -0.6731735504 0.10786369424 -0.73157555625 -0.65752903828 0.23050496604 -0.71730260313 
-0.63679452564 -0.11447540822 -0.76248810681 -0.68643238729 0.050556775875 -0.72543407012 -0.78008043206 0.61505259123 -0.11482521298 
-0.66336027652 0.21408791067 -0.71702127586 -0.56301639203 0.13365701869 -0.81556627178 -0.56719904597 0.13558937115 -0.81234276305 
0.87882652062 -0.21467384399 0.42612097738 0.79622803787 -0.22740541504 -0.56063150903 0.53569089692 -0.19550262305 -0.82147062476 
-0.39230891658 -0.097609944636 -0.91463982675 0.957415868 0.023904709848 0.28772108117 -0.092312720267 -0.23459610542 -0.96769986514 
-0.0065945525966 -0.23301082784 -0.9724517808 0.69493558978 -0.092506224111 -0.71309685496 -0.051004155467 -0.3901963005 -0.91931791193 
0.94868947193 0.2768586817 -0.15276634519 0.11942123171 -0.55769177691 -0.82141247336 0.86288420249 0.0840998335 -0.49835536627 
0.52631125278 -0.41265547367 -0.74344598005 -0.33513870984 -0.85903310193 -0.38696792496 0.62236620371 -0.04362268845 -0.78150967335 
0.6087177284 0.74911437569 -0.2613242799 0.3826538351 0.92356044804 0.024741489591 0.88933098749 0.31769116748 -0.32888100704 
0.86210283131 0.40359369439 -0.30641611918 0.7334783461 -0.61919635048 -0.2803665375 -0.90434198217 -0.14429149021 0.4016784101 
0.51044843361 0.8356199475 -0.2029327474 0.42577698745 0.88661939966 -0.18061006922 0.77290363354 0.60721719736 -0.18413920956 
0.067321553763 0.97272040555 -0.22199734462 -0.31443048102 0.90397111721 -0.28977524368 -0.4801467358 0.80308139034 -0.3528730545 
0.16035968835 0.9867966738 0.022739721413 -0.12450791132 0.97412287973 -0.18863296428 -0.60142823181 -0.50426835385 -0.61967532571 
-0.16478223905 0.9702826136 -0.17719611575 -0.32674106964 0.84525349324 -0.42283188808 -0.33048350575 0.83923569655 -0.43181488865 
-0.40102944617 0.49606353069 -0.77012749388 -0.28813064884 0.95655259939 0.044585354123 -0.33328670597 0.87496351974 -0.35122472968 
-0.17107121102 0.25224027031 -0.95242295583 -0.39403959384 0.82630661412 -0.40243033925 0.19428216554 -0.44282760317 0.87530460642 
-0.21246440678 0.4916437433 -0.8444793103 -0.15663479995 0.3643421615 -0.91799800043 -0.22163729306 0.39875232112 0.88987274187 
-0.25744301365 0.75208793271 -0.60670160392 0.24492721396 -0.31944817789 -0.91540347471 -0.063340930648 0.30975760018 -0.94870340762 
0.50112927888 -0.86537162009 0.0011853202878 -0.38623874515 0.74974488827 -0.5373101844 0.1661089179 -0.47363793221 0.86491325378 
0.46207776394 -0.85938806922 0.21894356934 -0.02965798411 -0.090309845477 -0.99547201658 0.064987821599 -0.24116584074 -0.96830554078 
0.42551173904 -0.71379169137 -0.55627437588 -0.14637000265 -0.14097660159 -0.9791329941 0.035883606077 0.26136687957 0.96457229956 
0.59975904102 -0.51811139519 0.60979478096 0.5311930731 -0.81440784934 -0.23361030374 0.39371694951 0.046532243408 0.91805321959 
0.59825285048 -0.5429412102 0.58932874455 -0.19994468669 -0.55036151863 -0.81063205036 0.13239870151 -0.7766635241 -0.61584442367 
0.86211351059 -0.34600543129 0.37018986532 0.51759965787 0.4533720987 0.72563374666 0.51759965787 0.4533720987 0.72563374666 

SiphonLabel 1 93 int
0 0 0 0 0 0 0 0 0 
0 0 0 0 0 0 0 0 0 
0 1 1 1 1 1 1 1 1 
1 1 1 1 1 1 1 1 1 
1 1 1 1 1 1 1 1 1 
1 1 1 1 0 0 0 0 0 
0 0 0 0 0 0 0 0 0 
0 0 0 0 0 0 0 0 0 
0 0 0 0 0 0 0 0 0 
0 0 0 0 0 0 0 0 0 
0 0 0 
