# vtk DataFile Version 5.1
vtk output
ASCII
DATASET POLYDATA
POINTS 101 float
85.3754 77.6454 31.0502 85.7242 77.9 30.8965 86.137 78.2026 30.6585 
86.73 78.5312 30.3371 87.5158 78.7849 29.954 88.1212 78.8772 29.5507 
88.8786 78.9991 28.9923 89.4645 79.0105 28.6672 90.0522 78.9778 28.3336 
90.6859 78.7789 27.8454 91.1552 78.4773 27.2903 91.5884 77.9843 26.7149 
91.931 77.5028 26.1946 92.1171 77.1924 25.693 92.2361 76.8272 25.2565 
92.311 76.3119 24.6437 92.2983 75.7272 23.8798 92.0051 75.1592 23.2263 
91.549 74.5672 22.6358 90.8721 74.0445 22.1925 90.3592 73.7744 21.9239 
89.8583 73.5635 21.607 89.0507 73.3542 21.1537 88.5134 73.2223 20.7691 
87.9565 73.1483 20.3889 87.1545 73.2245 19.8723 86.5344 73.5676 19.4303 
85.9154 74.1527 19.0045 85.3577 74.8938 18.6707 85.0556 75.4338 18.565 
84.6857 76.3353 18.6078 84.5374 77.2766 18.8191 84.6566 78.2059 18.8736 
84.7988 79.1541 18.9291 84.9696 79.8932 19.0351 85.0847 80.5504 19.1929 
85.351 81.4668 19.447 85.5929 82.0556 19.6675 85.9693 82.769 19.852 
86.5979 83.4706 19.7231 87.1829 84.0909 19.3083 87.4568 84.5133 18.9493 
87.8907 85.163 18.4499 88.0933 85.5205 18.0697 88.3648 86.0802 17.4465 
88.5293 86.6239 16.8389 88.623 87.0245 16.3743 88.7574 87.3839 15.8714 
88.853 87.6362 15.4177 88.9581 88.1765 14.6194 89.0076 88.7614 13.8425 
89.039 89.2263 12.991 89.1477 89.3741 12.528 89.2885 89.5064 11.8275 
89.3643 89.552 11.3528 89.4215 89.6362 10.7688 89.3419 89.7794 10.2286 
89.0972 90.0174 9.52963 88.7086 90.2942 8.75562 88.3955 90.5058 8.26465 
88.0617 90.6877 7.91771 87.6072 91.0291 7.46296 87.1479 91.3848 6.98646 
86.7582 91.7023 6.67799 86.1361 92.2876 6.32614 85.526 92.7342 6.26182 
85.0691 93.0806 6.20213 84.6699 93.4304 6.13165 84.2034 93.77 6.09204 
83.5839 94.2782 6.07191 83.0411 94.7069 6.10559 82.4943 95.1103 6.19716 
82.0583 95.4469 6.2573 81.4786 95.8523 6.42096 81.0326 96.1524 6.55017 
80.6084 96.4131 6.65154 80.0537 96.6519 6.7911 79.4873 96.9346 6.86193 
78.652 97.2825 7.10379 78.0825 97.4816 7.26165 77.2692 97.6852 7.50098 
76.8272 97.7918 7.65455 76.0396 97.9773 7.90273 75.1898 98.1933 8.13216 
74.6267 98.3409 8.16466 73.822 98.6376 8.17938 73.1441 98.9819 8.16987 
72.5025 99.4328 8.10849 72.1732 99.7644 8.05124 71.6849 100.372 7.90737 
71.2817 101.113 7.65699 70.9384 101.793 7.27811 70.7163 102.421 6.86882 
70.6543 102.967 6.42965 70.736 103.557 5.87672 70.9234 104.082 5.29666 
71.2622 104.644 4.61112 71.5687 105.355 4.03443 72.0068 106 3.42404 
72.4302 106.519 2.78554 72.5258 106.571 2.67724 
LINES 2 101
OFFSETS vtktypeint64
0 101 
CONNECTIVITY vtktypeint64
100 99 98 97 96 95 94 93 92 
91 90 89 88 87 86 85 84 83 
82 81 80 79 78 77 76 75 74 
73 72 71 70 69 68 67 66 65 
64 63 62 61 60 59 58 57 56 
55 54 53 52 51 50 49 48 47 
46 45 44 43 42 41 40 39 38 
37 36 35 34 33 32 31 30 29 
28 27 26 25 24 23 22 21 20 
19 18 17 16 15 14 13 12 11 
10 9 8 7 6 5 4 3 2 
1 0 
CELL_DATA 1
FIELD FieldData 2
Length 1 1 double
75.548067762 
Tortuosity 1 1 double
0.77733318972 
POINT_DATA 101
FIELD FieldData 7
MaximumInscribedSphereRadius 1 101 double
1.2938360136 1.2908921924 1.2907916659 1.3592850253 1.3897982488 1.4274755567 1.5386947251 1.5661996428 1.595170345 
1.5963997565 1.481241224 1.3353006375 1.2790241054 1.3127897906 1.3338620291 1.2628407417 1.2385311462 1.3739596032 
1.423324052 1.3325516736 1.2741620413 1.2831062176 1.3067692971 1.3556926403 1.4042087418 1.4866421448 1.5131149132 
1.5353466911 1.5270092447 1.5186143977 1.5201699208 1.5130899168 1.418420995 1.4364815965 1.460390994 1.476696011 
1.5614040138 1.701379814 1.8354857559 1.7717562114 1.7016752872 1.6482013097 1.6028112595 1.5887798116 1.5985175905 
1.6416415598 1.685646775 1.6772720157 1.6350933237 1.6645807789 1.7178603966 1.7779700323 1.7788825823 1.7856173153 
1.7765302654 1.7645767862 1.7905385692 1.8067484568 1.8266198206 1.8051891802 1.7396928563 1.6829189462 1.6597526197 
1.6876126533 1.7431250884 1.7679589243 1.7573511625 1.7451652161 1.7485335487 1.7089026814 1.7331410681 1.7880209393 
1.8107269351 1.8212362166 1.8370090841 1.8450079163 1.8580163704 1.8732873263 1.8591111368 1.8828147971 1.8645076907 
1.871214036 1.8973848204 1.887536375 1.8731522524 1.8494420356 1.8657721061 1.8880976147 1.8872887496 1.8908029829 
1.8033327 1.6462105648 1.5272296681 1.4546605042 1.3850776643 1.3955127485 1.5131345564 1.6970119104 1.8095958163 
1.7841984763 1.7649080406 
Curvature 1 101 double
0 0.18271687873 0.17502797579 0.21295934186 0.25027917061 0.056296113953 0.21150318845 0.098259898779 0.32291490938 
0.31555457149 0.25900973719 0.092718004099 0.33048118295 0.28515460569 0.16328343228 0.13157189324 0.34764517342 0.19914041145 
0.30509410664 0.20229867163 0.19168003986 0.16477382412 0.13618952354 0.13420726006 0.23495573715 0.39650788398 0.27035534821 
0.20246436724 0.27423884853 0.30879997192 0.30162298594 0.34504608509 0.022363864191 0.1305720535 0.14809779351 0.13149774002 
0.15181157204 0.19017880887 0.50935980326 0.34179595138 0.29352561381 0.067268556581 0.25336132597 0.084236386835 0.13402089918 
0.06998262218 0.17463913935 0.19911255115 0.15190324397 0.078831643909 0.15147180417 0.367071344 0.19984061577 0.16094351865 
0.14358027249 0.46438559033 0.2860183256 0.14571257567 0.13687218489 0.33127354914 0.20691504123 0.02256225824 0.20655364531 
0.22834847349 0.39890857032 0.037768895529 0.13645144364 0.19785657529 0.10464154812 0.10193739415 0.13279946555 0.053637599085 
0.19968886433 0.030445619529 0.10061857094 0.25578170585 0.20492346223 0.20960532468 0.072537691099 0.12122533168 0.071689030522 
0.043150413228 0.051424964252 0.27100736695 0.14499615084 0.14925264223 0.20393521536 0.28914264471 0.19106667614 0.24477571891 
0.20357841092 0.17573187139 0.30275808693 0.27088965083 0.1944217886 0.1585720494 0.20604603549 0.15726031776 0.12214537742 
0.52706290833 0 
Torsion 1 101 double
0 0 -0.83580287085 0.54585190747 0.53154695154 0.74581234729 0.14200181226 2.3922096452 0.26713020075 
-0.17617304435 -0.39889994429 2.7990839594 -0.40058528697 -0.54960475319 1.2282688712 -0.51800699369 -0.1630757493 0.0036094226997 
0.24447897116 1.0399511205 0.18642733126 -0.12841437889 0.12504286936 -0.61971319392 0.29942759632 0.015128061864 -0.21849142708 
-0.26339754345 -0.17631203378 0.1781096393 0.73093250887 0.39704658913 -6.1462692966 -0.70257608548 0.011023835573 0.38968257251 
0.54892241814 0.6696619948 0.21329218522 0.70508631776 0.59770925872 1.3229725459 0.093876544461 1.360096189 0.017494672087 
-2.1157926005 0.3845206264 1.1282098053 0.68232925119 -0.95611555054 -1.1989813547 0.08205716964 1.3150295471 0.88506599079 
0.41738083759 -0.1102540982 -0.21930471811 -0.057625823454 -0.11905199726 0.45071266741 1.3491593087 1.2277623844 0.14420890635 
-0.61343745847 -0.21856015034 1.537500341 -0.4090871306 0.31108040666 0.65335822697 -0.73620973314 0.032825538001 -0.31971689491 
-0.15036620165 -5.790020093 1.6319301179 -0.29907531441 -0.82893134581 -0.22616729348 -1.3537021077 0.50496170265 0.99218861015 
-0.92046158515 0.75219683329 -0.28843595151 -1.2698498053 0.075357865139 -0.071422957404 0.058310506573 0.40300106503 0.40920574755 
0.21426584557 -0.44312596431 -0.038364419364 0.022259715498 0.026339826428 -0.77412499172 -0.04637877806 0.81308410374 -0.95212335232 
0 0 
FrenetTangent 3 101 double
-0.74542313591 -0.54535925755 0.38331139907 -0.74542313591 -0.54535925755 0.38331139907 -0.76622152525 -0.48090754073 0.42618365937 
-0.83351260544 -0.35197971221 0.42587206855 -0.85085082679 -0.21159521669 0.48091614116 -0.81035674898 -0.12737845905 0.57192365535 
-0.83263143508 -0.082622817852 0.54762976844 -0.87193308536 0.015762948609 0.48937125386 -0.81959015912 0.15542883254 0.55146518393 
-0.68998522999 0.31308946653 0.65260659539 -0.54683092736 0.48145695785 0.68496360094 -0.46766199026 0.58742190656 0.66047540951 
-0.37856389548 0.56691454992 0.73164012337 -0.25515811829 0.56504630337 0.78461264948 -0.14008782954 0.63647809555 0.75846623781 
-0.035267439978 0.62384990378 0.78074804209 0.16514176835 0.62226986779 0.76518521156 0.40309479443 0.62411473558 0.66932457264 
0.59751779711 0.58792532284 0.54526717937 0.74494223646 0.49637498553 0.44572742576 0.80101172837 0.37998943657 0.46258862839 
0.83059292095 0.26670561511 0.4888594016 0.82973779385 0.21055050748 0.51691747626 0.81006293853 0.15239406106 0.5661926225 
0.83460892691 -0.0013869929111 0.55084118889 0.80548700436 -0.23747174269 0.54295290516 0.69816851304 -0.52296975482 0.48894106285 
0.61005756782 -0.68756770256 0.39380251185 0.53592583893 -0.79858124351 0.27395527497 0.42218083091 -0.90565030518 0.039507856815 
0.26835171322 -0.95429350684 -0.13157226461 0.015399861172 -0.98994377634 -0.14062063846 -0.13762366028 -0.98878808839 -0.057946910066 
-0.18157525573 -0.97889879171 -0.093742104212 -0.19727345237 -0.96330351574 -0.18201516848 -0.22830213523 -0.94185933096 -0.24653424859 
-0.30651665299 -0.90782050064 -0.28619832296 -0.41290132859 -0.86969851761 -0.27043849822 -0.57875093706 -0.8148750279 -0.032031886634 
-0.64723866915 -0.70499731897 0.28993255319 -0.5517079951 -0.66975785232 0.49703390971 -0.45812922794 -0.69388681551 0.55555260576 
-0.42975963368 -0.68009129765 0.59395495125 -0.32927397648 -0.63702805953 0.69697482005 -0.25505424128 -0.64547480904 0.71993722289 
-0.17786705781 -0.65042052802 0.73845544651 -0.18234959872 -0.60734013676 0.77323126044 -0.19852446545 -0.52800250902 0.82571265407 
-0.1341932436 -0.53004851637 0.83728175883 -0.079594729746 -0.57940720298 0.81114238709 -0.0417362804 -0.54139525494 0.83973166001 
-0.096137323239 -0.42048035571 0.90219392901 -0.20403455266 -0.22912230275 0.95177354014 -0.17930274383 -0.14725282044 0.97271122792 
-0.12376918826 -0.12069572043 0.98494351671 0.019551912523 -0.19824575248 0.97995731761 0.2426503553 -0.28527187166 0.9272220685 
0.37607667294 -0.30572171559 0.87470027363 0.45960187513 -0.31987642901 0.82851987697 0.57280643454 -0.34840748033 0.74196025244 
0.63564097006 -0.42198272465 0.64644499942 0.61772360127 -0.47128043945 0.6295333985 0.63455529685 -0.50313153507 0.58668410039 
0.6708447591 -0.59856709672 0.4378181585 0.74218096159 -0.62155168177 0.25068092697 0.79913878575 -0.59392871302 0.092875642496 
0.77050455381 -0.62657779937 0.11714518298 0.7784100872 -0.61990160384 0.098993624523 0.78751010979 -0.61477737842 0.043319764079 
0.77853797232 -0.62753191013 -0.0090734462559 0.7914452252 -0.60443066371 -0.090983670362 0.79283759635 -0.59701626231 -0.12239333455 
0.79500704634 -0.58075906081 -0.17516480685 0.80205090775 -0.5516109637 -0.2289971312 0.82047454709 -0.52873092137 -0.21740545155 
0.87006922759 -0.44397944085 -0.21415367216 0.89385590384 -0.41578795837 -0.16775576544 0.89367306624 -0.40200550211 -0.19934900791 
0.90073358365 -0.35071167127 -0.25628174911 0.92555136722 -0.26959140471 -0.2658479662 0.92885145889 -0.22959053747 -0.29072865774 
0.92719697526 -0.22025487799 -0.30297451673 0.93445041094 -0.22913983461 -0.27257543119 0.95320303684 -0.24531494138 -0.17670469744 
0.95057999257 -0.30874059374 -0.032816512731 0.91789290613 -0.39681509242 -0.0032241757619 0.85558391488 -0.51561905695 0.045969040775 
0.77508832269 -0.62471441493 0.094710040719 0.64805444929 -0.74472502043 0.15940537851 0.53585563074 -0.81037106443 0.23697569692 
0.43307303679 -0.82413727204 0.36502808335 0.34711155367 -0.80339064403 0.48381509112 0.19245230044 -0.79537613688 0.5747511748 
-0.013092933754 -0.75302075914 0.65786648447 -0.16689250529 -0.69164096456 0.70269457648 -0.30075523163 -0.6214448082 0.72343115844 
-0.33870653353 -0.66813925037 0.66247100032 -0.38192136045 -0.69530176324 0.60884442386 -0.45052016492 -0.608700726 0.65308116431 
-0.4834248783 -0.53153074495 0.69553968558 -0.4834248783 -0.53153074495 0.69553968558 
FrenetNormal 3 101 double
-0.32158631353 -0.2094749719 -0.9234189077 -0.32158631353 -0.2094749719 -0.9234189077 0.50794793397 -0.85952190955 -0.05666553956 
0.40904062834 -0.91128418292 0.047401501316 -0.17598398308 -0.74767553621 -0.64032095878 -0.5812766064 0.051903682361 -0.81204896072 
0.46004246999 -0.65373037 0.60083069924 -0.086505254715 -0.98871824192 -0.12228278293 -0.42766211296 -0.80647627942 -0.40829049446 
-0.68690106838 -0.56751242422 -0.45397860148 -0.47390708598 -0.85243435161 0.22083421394 -0.79419285889 -0.60725821717 -0.02225220368 
-0.58038292832 0.47036492351 -0.6647649925 -0.56640969109 -0.74501252487 0.35232995844 -0.9898972872 -0.1069567306 -0.093078561333 
-0.91785668118 0.28882745156 -0.27224587424 -0.96827070067 -0.045252743201 0.24577233256 -0.85653479522 -0.00026673495129 0.51608921072 
-0.78189790127 0.27642888126 0.55876895547 -0.63352832834 0.73572064425 0.23949319576 0.053643213823 0.7240531565 -0.6876550241 
-0.40844960095 0.88847198107 0.20925215013 0.47438914889 0.22194833883 -0.85187667553 -0.25961251568 0.9590434402 0.1133005804 
-0.075900586609 0.99016877634 0.11749423522 0.26745316282 0.96325866854 0.024526377205 0.39360241962 0.85085159835 0.34803547642 
0.43451279481 0.7059069776 0.55936926097 0.37366669316 0.51533968502 0.77123161986 0.42897161719 0.23798472255 0.871404971 
0.78891912119 0.13933109894 0.59849266085 0.86674662534 0.08333423571 -0.49173742244 0.99048142771 -0.13723960499 -0.010575073768 
0.66880938939 -0.1928142018 0.71799490544 -0.51365443828 -0.056574328724 0.8561299337 0.92554096587 -0.28852932395 0.24520348636 
0.71540532105 -0.41804710324 0.55984984244 0.67131073032 -0.089943745566 -0.73569832539 0.46879431735 -0.30029937444 -0.83069379059 
-0.1394942673 -0.26438342246 -0.95427603728 -0.75285139741 0.14344750552 -0.64236873101 0.47790065562 0.33470825385 0.8121461372 
-0.55828585434 -0.31685654104 -0.76675865645 -0.88347754271 -0.052649930092 -0.46550554925 -0.96682822119 0.15961609079 -0.19941387682 
-0.91817569701 -0.16026184761 -0.3623113711 0.56266408202 -0.70937640992 -0.42449292086 -0.27163696636 -0.77983620933 -0.56397592601 
-0.64349098419 0.68915575959 0.33314215028 -0.75209556207 0.56896324311 0.33261553406 -0.12595507172 -0.83090773678 -0.5419664684 
0.70426625492 -0.66925473292 -0.23686946752 -0.20215777629 -0.94140927466 -0.26996446261 -0.37638575534 -0.90324392626 -0.20611689123 
-0.78549825198 0.61843920335 -0.022922650336 -0.8998642379 0.42367243616 0.10366301261 -0.90777510821 0.27032624588 0.3207305313 
-0.920378256 -0.014140737739 0.39077347071 -0.75080248896 0.35837691365 0.55485278257 -0.77432647044 0.066954718593 0.62923412403 
0.19676872551 0.89828406783 0.39289668126 0.77979263628 0.2635700809 -0.56785055857 -0.36436476213 0.4746960903 0.8011878319 
-0.060668312005 0.54409705915 0.83682599514 -0.41182629091 -0.12786297389 0.90224728652 0.45227732012 0.49224339808 -0.74373494119 
0.6191421363 0.69193679178 -0.37133070334 -0.55312448917 -0.60271176309 0.57514505136 0.4706972961 0.64534256521 0.60164526838 
-0.14553575612 -0.19458233156 0.97002941189 -0.14968044139 -0.33596890943 0.92990357423 0.31835629729 0.57697661571 -0.75216171991 
-0.084211172526 -0.3916338206 0.91625947689 -0.42580072547 -0.79697045377 0.4284061601 -0.52841878319 -0.55627812084 -0.64134876771 
-0.41231790779 -0.8935982257 0.17741520213 0.045247732923 0.45590395472 -0.88887807192 -0.0021268699303 -0.44805271817 0.89400460746 
-0.38306571531 -0.91951935232 -0.088004650277 -0.20940507239 -0.94946846324 0.23379297033 0.23720289979 -0.23421546135 0.94280321489 
-0.33160255324 -0.10649388764 -0.93738935271 -0.15529171348 0.42661024883 -0.89100402879 -0.16195654415 0.079211116944 -0.98361358102 
0.2753070855 0.88703718752 -0.37063598939 0.38383462131 0.88987061544 -0.24657913792 0.48528853661 0.76799416383 -0.41794736577 
0.62650666896 0.74038986318 -0.2435410525 0.70518235785 0.50770810246 -0.49492456484 0.7790482733 0.36635956828 -0.50878723903 
0.31496164637 -0.24108276272 -0.91797508835 0.83501313185 0.029906538331 -0.54941666211 0.88084721647 -0.1181315405 -0.45842460708 
0.92865145801 -0.25308498757 -0.27120925242 0.84617230544 -0.46629640479 -0.257992427 0.89627436888 -0.4434223633 -0.008298398573 
-0.20304384644 0.73940228337 0.64191701938 0.8183577647 -0.56054670509 -0.12679889735 0.12776207158 -0.76795449107 -0.62763265746 
0.64124442912 -0.75590269179 -0.13197235567 0.64124442912 -0.75590269179 -0.13197235567 
FrenetBinormal 3 101 double
0.58388919446 -0.8116055177 -0.019232582736 0.58388919446 -0.8116055177 -0.019232582736 0.39356507799 0.17306075312 0.90286018027 
0.37140611323 0.21370872738 0.90354085624 0.49505808574 -0.62945115524 0.59892297912 0.073752601547 -0.99049519733 -0.1161026177 
0.30835988572 0.75220347866 0.58232646133 0.48192274854 -0.14895558917 0.86345972511 0.38128347487 -0.5704716371 0.72745104512 
0.22822643286 -0.76151469736 0.60663667961 0.69020867188 -0.20385012613 0.69430333093 0.38800768775 -0.53495136357 0.75051786978 
-0.72100279719 -0.67628746241 0.15096434885 0.78362899162 -0.3545123592 0.5101436961 0.021880603613 -0.76384284487 0.64503127639 
-0.39534202975 -0.72621622178 0.56241859743 0.18756344677 -0.78149369855 0.59505256286 0.32227741354 -0.78133266007 0.53446846776 
0.17778682216 -0.76021765855 0.62486875222 -0.20905243726 -0.46078954781 0.86253699695 -0.59624040171 0.57563448008 0.55959121572 
-0.37852915759 -0.3734777821 0.84689434001 -0.29409204151 0.95205431499 0.08427604897 -0.52573698493 -0.23877129218 0.81644895291 
-0.54558870963 -0.13987090694 0.8262984263 -0.52882841404 0.12545879364 0.83940490801 -0.59802831261 -0.05053902567 0.79987995612 
-0.66259217856 -0.17013522083 0.72940085792 -0.75707113113 -0.31095499121 0.57458706551 -0.79859044426 -0.35094272548 0.48897086393 
-0.55280555192 -0.26440640626 0.79025013388 0.49851091437 -0.1143097758 0.85931376308 0.0025038959278 -0.058850718573 0.99826365427 
-0.72091915439 0.06767450909 0.68970699116 -0.83501036103 0.26238460682 -0.48364451312 -0.30207955169 -0.17219706705 0.93760125563 
-0.62788754411 -0.033144503245 0.77759801559 0.61551149153 -0.48531908174 0.62097583906 0.66729247026 -0.49578117615 0.55580732679 
0.74941540853 -0.65808828145 0.072776090039 0.35893322718 -0.72859263818 -0.58336927072 -0.74948553946 0.63756683734 0.17826933014 
0.70966440104 -0.66111856672 -0.24351320014 0.33323577229 -0.76904046463 -0.54546373283 0.013803068933 -0.74691697963 -0.66477402238 
0.35400098754 -0.74247510189 -0.56869501835 0.80632360418 0.35766334357 0.47108298421 0.94170133011 -0.33625709967 0.011391566811 
-0.75359904899 -0.49407783731 -0.43356148819 -0.65423003944 -0.58358214599 -0.48105606156 0.99115760745 -0.12838812596 -0.033512479879 
0.70339651496 0.61261274303 0.36047048397 0.95786331739 -0.24749050077 0.145761165 0.9089468022 -0.4030719744 0.10653025028 
-0.60636101802 -0.7765085285 -0.1713499956 -0.43573165602 -0.88385535494 -0.17011065657 -0.34214785984 -0.91953449094 -0.19336794455 
-0.1070990287 -0.95201589911 -0.28669762102 -0.47440672312 -0.87706616508 -0.075453317547 -0.2689076156 -0.93494881855 -0.23142904088 
-0.74648685577 -0.12254106896 0.65401915918 0.10169069201 0.84168020046 0.53031447586 -0.68159951244 -0.72216499518 0.1178975164 
-0.73911207886 -0.58794202176 0.32869060519 -0.52874050949 -0.77286775505 -0.35086878862 0.39600811459 0.63635298451 0.6619912781 
0.15161051285 0.35864151674 0.92108116627 -0.29686871781 -0.50245450758 -0.81203967403 -0.39783398851 -0.45341123554 0.79758784411 
-0.61048994205 -0.75388422056 -0.24281806489 -0.59262991907 -0.72234926778 -0.35637243772 0.51967087063 0.55737740128 0.64751263985 
-0.6007264558 -0.71368190663 -0.36025804843 -0.41881748239 -0.246096405 -0.87408722442 0.21816302882 0.64109146388 -0.73580338936 
-0.27013604371 -0.066064113829 -0.96055299216 0.44606531566 0.78693834431 0.426325904 -0.44871363597 -0.79852384937 -0.4012676599 
-0.20479176997 0.17744149556 -0.96258757867 -0.31544283521 -0.16071749073 -0.9352356419 -0.28455184353 -0.94468582226 -0.16309183171 
0.17419964337 0.96961169579 -0.17177789041 0.32044798832 0.87492778661 0.36306260479 0.25529208442 0.96620193463 0.035773917088 
0.14353984258 0.34328453756 0.92819827616 0.10071542267 0.22509569122 0.96911729601 0.18019767156 0.37989729195 0.90730747089 
0.082021252034 0.24810229802 0.96525528433 0.28765130441 0.43314792698 0.85418944059 0.32548814245 0.45725201438 0.82763401602 
0.84453946392 0.51252010531 0.15516518787 0.42692697145 0.59470082567 0.68122264275 0.43251623471 0.59449284269 0.6778701695 
0.37072232819 0.60737774521 0.70260745086 0.50610208574 0.55154368731 0.66306880472 0.32594255067 0.64589701817 0.69034664885 
-0.91872252643 0.082910828385 -0.38610194764 0.42944923261 0.44982535438 0.78309035696 0.88357706742 -0.19932216588 0.42374784969 
0.5959076851 0.38221222863 0.70626329589 0.5959076851 0.38221222863 0.70626329589 
SiphonLabel 1 101 int
0 0 0 0 0 0 0 0 0 
0 0 0 0 0 0 0 0 0 
0 0 0 1 1 1 1 1 1 
1 1 1 1 1 1 1 1 1 
1 1 1 1 1 1 1 1 1 
1 1 1 1 1 1 1 0 0 
0 0 0 0 0 0 0 0 0 
0 0 0 0 0 0 0 0 0 
0 0 0 0 0 0 0 0 0 
0 0 0 0 0 0 0 0 0 
0 0 0 0 0 0 0 0 0 
0 0 
