# vtk DataFile Version 5.1
vtk output
ASCII
DATASET POLYDATA
POINTS 75 float
82.7083 82.9672 30.9074 83.3933 82.9489 30.1843 84.0606 82.7654 29.5275 
84.5786 82.6336 29.1466 85.2865 82.362 28.7358 85.7816 82.1664 28.4181 
86.5518 81.8514 27.9644 87.2952 81.5651 27.6328 87.5791 81.3552 27.4871 
88.0595 80.9194 27.2546 88.5137 80.4114 27.0312 89.0308 79.8714 26.789 
89.6286 79.1868 26.5867 90.2057 78.4567 26.3581 90.659 77.7923 26.0301 
90.9866 77.2583 25.7005 91.2466 76.7824 25.3801 91.4561 76.1685 24.9552 
91.4949 75.6134 24.3522 91.4942 75.0301 23.622 91.4626 74.6988 23.2185 
91.1896 74.4026 22.6089 90.7615 74.2301 21.7283 90.2526 74.4484 20.9675 
89.7728 75.0567 20.4071 89.5373 75.6595 20.062 89.2049 76.5035 19.8257 
88.922 77.2639 19.7478 88.6692 77.8579 19.8059 88.187 78.6313 19.9558 
87.8269 79.3549 19.9986 87.4205 80.2471 19.9592 87.1628 80.8716 19.8782 
86.9847 81.6076 19.7321 86.5989 82.4958 19.5534 86.195 83.2528 19.2893 
85.878 83.9873 18.9192 85.6964 84.6752 18.3236 85.7398 85.2142 17.5659 
85.8946 85.5773 16.9568 86.161 85.9059 16.1265 86.4571 86.0122 15.2068 
86.6415 85.9887 14.6214 86.7769 85.91 14.188 86.9464 85.6783 13.2764 
86.9897 85.6012 12.3553 87.0105 85.5806 11.464 87.0611 85.5435 10.9849 
87.1195 85.5451 10.3948 87.1732 85.5785 9.4246 87.1257 85.6688 8.91948 
87.0343 85.8229 8.40219 87.0392 86.1653 7.59843 86.9279 86.4215 6.75176 
86.8561 86.5551 6.39508 86.6121 86.6967 5.47247 86.2557 86.8346 4.71166 
85.6688 87.1756 4.09286 84.9703 87.6585 3.76701 84.3224 88.2197 3.73475 
83.9303 88.5235 3.67793 83.4396 88.895 3.63419 82.828 89.4824 3.37873 
82.4362 89.7674 3.29259 81.8831 89.988 3.24003 81.1319 90.5531 3.17314 
80.6587 90.9547 3.17331 79.8351 91.4725 3.21741 79.3472 91.7984 3.25428 
78.6796 92.2477 3.30708 77.9339 92.8113 3.34988 77.5211 93.1034 3.34973 
76.6488 93.5549 3.30514 75.8541 93.9092 3.2394 75.1656 94.2019 3.29097 

LINES 2 75
OFFSETS vtktypeint64
0 75 
CONNECTIVITY vtktypeint64
74 73 72 71 70 69 68 67 66 
65 64 63 62 61 60 59 58 57 
56 55 54 53 52 51 50 49 48 
47 46 45 44 43 42 41 40 39 
38 37 36 35 34 33 32 31 30 
29 28 27 26 25 24 23 22 21 
20 19 18 17 16 15 14 13 12 
11 10 9 8 7 6 5 4 3 
2 1 0 
CELL_DATA 1
FIELD FieldData 2
Length 1 1 double
58.48119341 
Tortuosity 1 1 double
0.90160901964 
POINT_DATA 75
FIELD FieldData 7
MaximumInscribedSphereRadius 1 75 double
1.4463125773 1.4571045137 1.5058614838 1.5334270741 1.5346842198 1.5286031581 1.4957649329 1.4784771314 1.4751763006 
1.4325944905 1.4331105349 1.4990205532 1.5938034233 1.7062863832 1.8520187984 1.9673229707 2.0066012889 2.0657812439 
2.0337668614 2.0403691292 2.0702504885 2.0394531815 2.0745099346 2.0507038773 1.973202084 1.9236888422 1.9624914056 
2.0963974471 2.179413773 2.0959938236 2.0532580564 2.0996859983 2.1875634404 2.3013235256 2.3257570771 2.2460039549 
2.2056550552 2.1389275364 2.007825454 1.9735365785 1.9874783139 2.0317022853 2.0807977135 2.1026055292 2.0571766431 
2.0400075044 2.0293968257 1.9914236055 1.9387967761 1.8587790771 1.7794976261 1.6444388711 1.4545476547 1.3360642133 
1.3432851714 1.4746383185 1.6675735318 1.682004662 1.5502061891 1.3724863493 1.2869783457 1.1459018698 1.1803538086 
1.2230231857 1.134246063 1.0895901019 1.1752341606 1.2716576311 1.3051309158 1.3251163812 1.4066779308 1.4182649183 
1.3465621313 1.3019419455 1.2416695369 
Curvature 1 75 double
0 0.18449217619 0.17556308171 0.20883659542 0.057029980692 0.051161824673 0.11787353016 0.40277896768 0.19623725081 
0.14596541091 0.04358072366 0.12165569394 0.05554189715 0.17694726473 0.13550674566 0.098820424738 0.21791051526 0.4020025845 
0.09680888236 0.083994096858 0.6500893413 0.28730372867 0.4626873453 0.51568261632 0.34258462456 0.28442075275 0.18396768909 
0.26297144424 0.2180634921 0.16858871518 0.11117781179 0.10468959331 0.2326972026 0.1941220429 0.14934338152 0.17530048402 
0.32847039541 0.37515458961 0.22658679853 0.20966799709 0.26688617469 0.18742264341 0.24878841894 0.19509261548 0.22554067403 
0.071582953694 0.14252138852 0.14848749442 0.068765212665 0.27742010993 0.25471139728 0.29314554794 0.19361412502 0.13822085932 
0.31635744202 0.19736272664 0.43928112788 0.42693007607 0.40084962198 0.1384349965 0.079800699812 0.33654841515 0.2578438653 
0.48787263208 0.34889420724 0.11836005752 0.18819705451 0.042072371867 0.0061584585248 0.066810192946 0.077308517521 0.19589544786 
0.070646755495 0.1798565548 0 
Torsion 1 75 double
0 0 -0.089674638496 0.53968148597 1.5701976024 -0.94587728035 1.7148101197 0.083967052554 -0.54990883715 
0.13858754347 0.90724347647 0.46444818272 2.2680901156 0.12592323396 -0.10708949682 -1.0375665853 0.6836279899 0.26206849494 
0.034385892043 2.9180291293 0.28996378039 0.54912872558 0.0018620649216 0.23014391476 -0.028712012103 -0.55358840949 -0.17426343429 
-0.60441466661 -0.78566655215 -0.16951554042 0.25472740624 -0.89369742832 0.020948197807 -0.11983736491 -1.1546398759 -0.29836855925 
-0.040818930295 -0.16893019852 0.026489453703 0.62742573876 0.1451689471 0.019097608021 0.58814061235 1.5454984285 0.5112313162 
1.1531022191 -0.38821344391 -1.029567489 -0.69204131741 0.14712960875 1.2764424915 0.67117343212 0.50662974611 -0.50513291467 
0.16223031634 1.5123719811 0.14933915162 0.091473331979 0.037693845545 -0.30177607679 1.9826332505 0.22333391527 -0.20013050604 
0.064104690311 0.19890899111 -2.2716770014 -0.26051865005 2.1501664365 6.034855804 0.68962373002 1.6504786412 0.12320938847 
1.0347279853 0 0 
FrenetTangent 3 75 double
-0.69614057785 0.10388774493 0.7103489511 -0.69614057785 0.10388774493 0.7103489511 -0.73776020302 0.19629284083 0.64589395683 
-0.80965858826 0.26643604425 0.5229386243 -0.81177277324 0.31526840642 0.49155955544 -0.8072728467 0.32574884817 0.49213640273 
-0.83712353324 0.33254546164 0.43432442488 -0.83071270656 0.40121007817 0.38593635789 -0.71450638235 0.60369951174 0.35359232048 
-0.66549616612 0.6721133155 0.32462061551 -0.64635715564 0.69730746404 0.30981402154 -0.65022663306 0.71414316002 0.25923902612 
-0.62204381348 0.74900381337 0.22815517016 -0.56580746738 0.76578984103 0.30565966242 -0.49600658946 0.76125484954 0.41769428685 
-0.43946954155 0.75531812422 0.48616977823 -0.33506704074 0.77771402544 0.53187495977 -0.15751193847 0.74159793812 0.65209085825 
-0.021749955374 0.64921811183 0.76029124861 0.0221238349 0.62770948754 0.77813323742 0.24766385263 0.51012712303 0.82367040401 
0.40947518085 0.27376172617 0.87027845748 0.49562808539 -0.024201094549 0.86819762036 0.53570208996 -0.44785415626 0.71585607878 
0.4276034831 -0.72398012426 0.54130217154 0.3422199822 -0.87185687235 0.35035849913 0.35222565764 -0.9184684205 0.17986897075 
0.36777568134 -0.92981523764 0.013589409896 0.46925209824 -0.87302546039 -0.13277429645 0.48730415244 -0.86607964317 -0.11153795179 
0.42861071729 -0.90348728006 -0.0018941480305 0.40003308661 -0.91362472352 0.072549253518 0.30128993292 -0.94052100918 0.15698601089 
0.32225706494 -0.92827685935 0.18561372927 0.42049271526 -0.87611654907 0.2358085428 0.406443064 -0.84079981476 0.35757475753 
0.27856402436 -0.7945802357 0.53948524851 0.075441510475 -0.66976101719 0.73873456555 -0.12017459026 -0.54687208477 0.82854631177 
-0.25504286106 -0.41880299413 0.8715257834 -0.2977647482 -0.23023855368 0.92645904557 -0.3036933335 -0.052341131553 0.95133104918 
-0.29818928073 0.095238215429 0.94974356285 -0.21568030669 0.21954475202 0.9514631402 -0.11376009221 0.16511180486 0.97969216253 
-0.035337886184 0.053792395695 0.99792665661 -0.051921729248 0.041961778404 0.99776918332 -0.10131648381 0.033053252439 0.99430500985 
-0.071640073347 -0.022375028693 0.99717955153 -0.0041897084184 -0.083541652117 0.99649547852 0.13091118317 -0.23044368821 0.96423958054 
0.061168105252 -0.35115003401 0.93431906569 0.060492930161 -0.34036707614 0.93834474415 0.14323349606 -0.30501959499 0.94151325656 
0.23461223805 -0.20443768665 0.95034853082 0.33190789044 -0.15450571883 0.93057247709 0.54259088831 -0.27542499791 0.79355919656 
0.71594661603 -0.45888456781 0.52616099857 0.77333837114 -0.59969942365 0.20568997301 0.76716118574 -0.63807978817 0.0657107223 
0.79103743256 -0.60509595423 0.090103642913 0.73914370786 -0.64297122409 0.20063545082 0.73092681805 -0.63547763009 0.24882557808 
0.87441195109 -0.46789917289 0.12835148539 0.85393854957 -0.51446215973 0.078215342236 0.78413857994 -0.6191130915 0.042727829023 
0.81548998975 -0.57810109985 -0.027842323289 0.83986433921 -0.5403137835 -0.051854672732 0.82868388063 -0.55601065624 -0.064305335106 
0.81160659491 -0.5816191193 -0.05489931839 0.80402744805 -0.59385502895 -0.029598435165 0.86512795532 -0.50064566573 0.030125376524 
0.89873153344 -0.43444668835 0.059478616164 0.91657285255 -0.39977184507 0.0087565896798 0.91657285255 -0.39977184507 0.0087565896798 

FrenetNormal 3 75 double
0.067450126201 -0.97563252216 0.20878616378 0.067450126201 -0.97563252216 0.20878616378 0.64800558377 -0.062242026375 0.75908806706 
0.1922153829 -0.72149557878 0.66520476275 -0.52204829433 -0.014548279429 -0.8527918421 0.34410385699 -0.41767963904 0.84091394015 
0.46183773697 0.0041774552773 0.88695459499 -0.43774367127 -0.89906789042 -0.0075767190286 -0.45154794256 -0.7839620275 0.42603755117 
-0.62331733073 -0.73968825948 0.25364696726 0.75155518455 0.6519595433 0.10056618951 -0.15634027835 -0.45969170226 0.87420893169 
-0.75992186792 -0.5073248531 -0.40637451703 -0.49821438102 -0.022142438891 -0.86677110182 -0.55175263082 0.095124550927 -0.82856523834 
-0.75627405614 -0.019085724501 -0.65397651879 -0.93929423029 -0.2314655139 -0.2532786308 -0.71306852999 0.37141066228 -0.59463214804 
-0.56564640518 0.6190601284 -0.54480152507 -0.97611741916 -0.15468563012 0.15253570023 -0.79055427869 0.59786948768 -0.13257453806 
-0.22521196902 0.95472668747 -0.19436183073 -0.2610640868 0.94923521794 0.17549371386 0.085422125511 0.87215541073 0.48171360788 
0.62873156478 0.6684371191 0.39735178025 -0.13791052178 0.3222282927 0.93656265961 0.044918129578 0.20855319251 0.97697898008 
-0.22943193737 -0.076567435629 0.97030841175 -0.7683965111 -0.47777110259 0.4257952269 0.5281248735 0.39402609014 -0.75221510107 
0.31173457711 0.14985271097 -0.9382780603 0.40526085451 0.1053330244 -0.90811265478 0.88260716246 0.21276598929 -0.41920786082 
-0.94655742253 -0.31874458779 0.049304498822 -0.41729722005 -0.41753430344 -0.80717292793 0.58150912448 -0.063813842796 -0.81103324939 
0.56491138529 -0.31871659412 -0.76111422231 0.71554596203 -0.47961114417 -0.50790464324 0.89733177253 -0.41686072092 -0.14499251485 
0.41764670788 -0.8606320142 -0.29134818263 0.074142189503 -0.97312689724 -0.21800682927 -0.024553209631 -0.99772833933 -0.062731975788 
-0.044085662835 -0.99532210299 0.085967235755 -0.85332549126 -0.51604880452 -0.074358841512 -0.62126747478 0.75768851751 -0.19983702162 
-0.36288447278 0.92970438847 -0.062965144908 0.83182017652 -0.55105184882 0.066460919686 -0.076081063576 0.99626364545 -0.040870778295 
-0.80607885404 0.59011991079 -0.044669586557 -0.72060123535 0.69117161886 0.054914960533 -0.55460565828 0.78915814265 0.2638976879 
0.83768475883 0.52703638134 0.14323720734 -0.76827485645 -0.61603813935 -0.17392744411 -0.68776393285 0.65339788878 0.31630992967 
-0.30848665226 -0.94275976032 -0.12664919939 -0.93378037776 0.086067704204 0.34734213163 -0.58354914669 0.5559367356 0.59194994671 
-0.34335071606 0.42477670931 0.8376604521 0.032734008405 0.36177149144 0.93169194086 -0.32922703532 -0.47959288028 -0.8133881167 
-0.22262994446 -0.14754374025 0.96367357157 0.43721331081 0.23142008371 -0.86907379762 -0.61776291058 -0.46114706937 0.63695554532 
-0.48230817037 -0.80950026841 0.33479567535 0.5104226639 0.85734689152 0.06652076202 0.36780393922 0.51908976509 0.77153488454 
-0.54461997543 -0.78276264781 0.30111745143 0.48148941392 0.69749303513 0.53072724654 0.46134093778 0.61345650385 0.64096463008 
0.5327013314 0.77536101 -0.33918224555 -0.35328733927 -0.43709507569 -0.82712511189 -0.46817230352 -0.82764025449 -0.30955823905 
-0.36213582779 -0.8118464989 -0.45799880399 -0.055958914891 -0.10655448895 0.99273095083 -0.055958914891 -0.10655448895 0.99273095083 

FrenetBinormal 3 75 double
0.7147298625 0.1932576471 0.67217014623 0.7147298625 0.1932576471 0.67217014623 0.18920530182 0.97856785702 -0.081279166901 
0.554532431 0.63910559701 0.53295198548 -0.26170697929 -0.94889102614 0.17639523096 0.47948210247 0.84819302464 0.22508999616 
0.29313835438 0.94307797388 -0.15707908956 0.34394313109 -0.17523527495 0.9224942932 0.5344016141 0.14474266462 0.83274514462 
0.41059756221 -0.033540571301 0.91119957857 -0.13186065342 0.29784401034 -0.94546375583 0.7434803582 0.52790442873 0.41055312823 
-0.18862727472 -0.42616285735 0.88476266323 -0.65699645387 -0.64270960143 0.39405586891 -0.67048228731 -0.64143773966 0.37284196188 
-0.48468141501 -0.65508035106 0.57961509608 -0.073867632624 -0.58445240226 0.80805876169 -0.68317147245 -0.55864713203 0.4703085382 
-0.82436101542 -0.44190542053 0.35376336097 0.21611413637 -0.76292408213 0.60929592562 -0.56007727016 -0.61832224127 0.55135384048 
-0.88408689917 -0.11641077921 0.45259130041 -0.82837089734 -0.31363483232 0.46414959701 -0.84007519383 -0.19690503869 0.50547213024 
-0.64950125535 0.17042475608 0.74101519675 -0.92944401217 -0.36882858012 -0.0099652755932 -0.93483658879 -0.33603768603 0.11471366891 
-0.90116704019 -0.35997368188 -0.24148895218 -0.43516579601 -0.097781997486 -0.89502481024 0.69542704937 0.3076515756 0.64940875189 
0.84800613586 0.40156556101 0.34587670311 0.82203234086 0.39267648075 0.41239303103 0.36087251641 0.26486008588 0.89421482979 
0.013395146305 -0.19158277624 -0.98138504671 0.80563571579 0.24100808677 -0.54117113333 0.70473482522 0.53757182307 0.46299607035 
0.77670921914 0.51678039984 0.36008444459 0.69448006071 0.56691562885 0.44306220222 0.42468077171 0.7260565145 0.54082176351 
0.87208048162 0.28968360021 0.39440974297 0.9517557935 0.0037749534988 0.306833276 0.95245341045 -0.042409513524 0.30171830252 
0.9534881264 -0.016235566295 0.30099302184 0.47467632263 -0.82794548928 0.2986446978 -0.77529695356 -0.63138435388 0.016383878444 
-0.93116383801 -0.36435714378 -0.013333362713 0.55261137155 0.83341530407 -0.0062930890228 -0.99194084595 -0.079788666216 -0.098423202907 
-0.58745602471 -0.80700548262 -0.06031227118 -0.69333707961 -0.71784579517 -0.063096025269 -0.82175107297 -0.56931988587 -0.024495747236 
-0.54271788963 0.77390329264 0.3263908484 0.63725532587 -0.71038529289 -0.2987614187 -0.71166350074 -0.69284503723 -0.11619301231 
0.92184222247 -0.26345638464 -0.28424927486 -0.13375858243 -0.98423591336 -0.11570785836 -0.60420652207 -0.78426743942 0.14092218471 
-0.60789039208 -0.78037792168 0.14655910265 -0.63314788827 -0.71378007064 0.29940234189 0.55052091178 0.60236604579 -0.57799815967 
-0.56982075087 -0.7823616369 -0.25142510016 0.51235837066 0.73009091889 0.45216827638 -0.29002581429 -0.61928310333 -0.72963927044 
-0.052750057707 -0.35465430978 -0.93350830311 -0.10128009543 -0.016881759693 0.99471470707 -0.4998469263 -0.58927480491 0.63475054514 
-0.19587026055 -0.23039478196 -0.95318051044 -0.25059097352 -0.4707063642 0.84595489401 -0.31693463854 -0.5608237406 0.76487199378 
0.23984166989 0.24603760736 0.93911738837 0.47825507701 0.67548804534 -0.56123790135 0.17991196497 0.25370361948 -0.95040315568 
0.24726356995 0.39007862952 -0.88696075999 -0.39593282993 -0.91040024867 -0.12003575054 -0.39593282993 -0.91040024867 -0.12003575054 

SiphonLabel 1 75 int
0 0 0 0 0 0 0 0 0 
0 0 0 0 0 0 0 0 1 
1 1 1 1 1 1 1 1 1 
1 1 1 1 1 1 1 1 1 
1 1 0 0 0 0 0 0 0 
0 0 0 0 0 0 0 0 0 
0 0 0 0 0 0 0 0 0 
0 0 0 0 0 0 0 0 0 
0 0 0 
