# vtk DataFile Version 5.1
vtk output
ASCII
DATASET POLYDATA
POINTS 85 float
118.147 87.421 41.2805 117.465 87.576 40.708 116.649 87.5945 40.1678 
115.751 87.6556 39.8672 114.885 87.5828 39.5978 114.314 87.4906 39.3093 
113.772 87.2672 38.8978 113.361 87.0691 38.6554 112.816 86.666 38.298 
112.313 86.2924 37.9854 111.691 85.8304 37.6049 111.301 85.5268 37.3438 
110.666 85.0033 36.827 110.093 84.6065 36.3008 109.659 84.2163 35.6731 
109.375 83.8743 35.1442 109.17 83.3747 34.4063 109.099 83.0199 33.809 
109.101 82.84 33.4189 109.192 82.6476 32.579 109.416 82.6403 31.8511 
109.784 82.7367 31.2358 110.166 82.898 30.6138 110.531 83.1267 30.0189 
110.853 83.3576 29.4364 111.252 83.8543 28.8358 111.758 84.5862 28.4638 
112.111 85.1375 28.2194 112.34 85.6223 28.042 112.764 86.3826 27.8008 
113.116 86.9526 27.7003 113.491 87.7718 27.6713 113.8 88.4088 27.6348 
114.164 89.3296 27.6445 114.423 90.1111 27.6524 114.576 91.04 27.6551 
114.715 91.6195 27.716 114.928 92.448 27.6572 114.957 93.3575 27.4486 
114.831 94.0767 27.0797 114.544 94.6389 26.4948 114.339 95.0643 26.0209 
114.187 95.3957 25.519 114.047 95.7141 24.9154 113.969 96.0235 24.2807 
113.849 96.2503 23.7508 113.65 96.4458 22.9423 113.424 96.6865 22.1094 
113.289 96.8541 21.6642 113.137 97.0815 21.1086 112.972 97.2964 20.4715 
112.896 97.5209 19.7551 112.792 97.7841 19.0992 112.756 98.0914 18.2108 
112.749 98.3504 17.4463 112.83 98.6786 16.5683 112.974 99.0956 15.7803 
113.271 99.468 15.0754 113.567 99.8394 14.5052 114.03 100.221 13.7356 
114.532 100.551 13.1145 115.155 100.889 12.5506 115.611 101.057 12.28 
116.021 101.233 12.0524 116.612 101.495 11.7871 117.431 101.824 11.5634 
118.218 102.104 11.5118 119.162 102.349 11.4772 119.924 102.465 11.4192 
120.83 102.713 11.5243 121.685 102.903 11.7365 122.274 102.961 11.9521 
123.176 103.044 12.2616 123.804 103.139 12.5213 124.438 103.293 12.7847 
125.103 103.454 13.0179 125.995 103.699 13.3217 126.88 103.901 13.6451 
127.459 104.1 13.8426 128.248 104.431 14.0068 129.078 104.892 14.0188 
129.6 105.221 13.9469 130.167 105.73 13.7432 130.759 106.445 13.4437 
130.805 106.491 13.4343 
LINES 2 85
OFFSETS vtktypeint64
0 85 
CONNECTIVITY vtktypeint64
84 83 82 81 80 79 78 77 76 
75 74 73 72 71 70 69 68 67 
66 65 64 63 62 61 60 59 58 
57 56 55 54 53 52 51 50 49 
48 47 46 45 44 43 42 41 40 
39 38 37 36 35 34 33 32 31 
30 29 28 27 26 25 24 23 22 
21 20 19 18 17 16 15 14 13 
12 11 10 9 8 7 6 5 4 
3 2 1 0 
CELL_DATA 1
FIELD FieldData 2
Length 1 1 double
65.49321439 
Tortuosity 1 1 double
0.8169328254 
POINT_DATA 85
FIELD FieldData 7
MaximumInscribedSphereRadius 1 85 double
1.4899821803 1.6062573307 1.6276965208 1.6835717211 1.765690896 1.8422641869 1.9138898877 1.9141265021 1.8341269043 
1.7947553804 1.7838742694 1.7801236422 1.7158502256 1.6747844169 1.684764426 1.7649701303 1.8969615683 1.9544184412 
1.9719008741 2.0123500471 2.0234929567 2.0169768742 1.9567479817 1.9568202392 2.049551794 2.1187920491 2.1199587743 
2.1839621947 2.2320329758 2.3533414097 2.4469460609 2.47913292 2.4550118522 2.4065166779 2.3895766668 2.357160462 
2.3073164013 2.2924889785 2.3384763636 2.3413065176 2.1638449149 2.0907353158 2.0748623559 2.077098371 2.0155858176 
1.9652623922 1.9650737562 1.9807435457 1.9313894594 1.9146316196 1.9319569457 1.9404357761 1.8440428695 1.7829773054 
1.7776593984 1.7061120337 1.6941117729 1.6990266491 1.719528435 1.755297892 1.7730862871 1.8337300404 1.8487827127 
1.8627398524 1.8499856819 1.8601530541 1.8839082771 1.9547335455 1.9898143985 1.9781306148 1.9905266037 2.0219081905 
2.0455983859 2.0579976069 2.0542579968 2.0778091066 2.154891105 2.1885889487 2.1448137907 2.0913082745 1.9970171212 
1.9182985805 1.8062114161 1.5063603509 1.4880869388 
Curvature 1 85 double
0 0.20430679272 0.27930442033 0.15801657847 0.23008706129 0.36733711569 0.21689375003 0.26204422804 0.031341309716 
0.0080088398003 0.049223868483 0.10382600951 0.11971620955 0.23195428029 0.13851778271 0.25041272609 0.17136289943 0.26422838075 
0.35726052267 0.35813374088 0.38119886687 0.1151972324 0.13423690003 0.064783223644 0.35882763927 0.40763127171 0.061595538321 
0.19972349731 0.11045380763 0.16300321235 0.21572059283 0.036571822838 0.11400902919 0.062011124941 0.18028033312 0.16127475449 
0.23618433213 0.30227186137 0.36115986566 0.45384341371 0.057050095832 0.2423318358 0.16234223719 0.13607512552 0.16193919975 
0.2312677938 0.054117430166 0.11382089642 0.071523866919 0.093796625036 0.19714256108 0.12244182766 0.14281930326 0.036243554821 
0.11276961916 0.16122087572 0.22683788744 0.12594230186 0.15700811576 0.13954034564 0.16285107511 0.2817818664 0.11199805124 
0.13841297585 0.18145468337 0.22013338168 0.10103577693 0.12621369916 0.25776090803 0.14643829181 0.21071193593 0.026110262364 
0.097895010006 0.11756978617 0.076774529892 0.036670415164 0.049142222566 0.12976749609 0.18371764899 0.23004634581 0.17948695268 
0.31508024197 0.17108860091 0.35349062799 0 
Torsion 1 85 double
0 0 0.046343468008 -1.694689435 0.0054622089127 0.63352217067 0.40361481302 -0.51877893748 5.6217905869 
-2.0940960979 -0.46717875452 -0.71037864263 0.557973711 0.44388904117 0.46877311207 -0.23498352266 -0.78470840904 -0.59386099562 
0.046885427 0.39399154227 0.026677788744 -1.8356552198 -0.38372439817 2.3863533248 0.38649052951 0.13982084644 -3.1313832619 
0.23001829347 0.47524569378 -0.99105917269 -0.43304740277 0.23909220859 -0.19812853336 -0.70520970834 0.38580849907 1.1883845766 
1.0458635158 0.16789663812 -0.20367535082 -0.10943420621 -3.6741643922 0.056619583705 -0.45663193835 0.025640340256 -0.37498409905 
-0.28152623304 1.5889174717 0.45172238524 2.1978238283 -1.0692125734 -0.65230131866 -0.38570812693 0.2661889916 -1.3749828034 
-0.62754908489 0.40961124836 0.087595751621 -0.19696036994 -0.019585879394 -0.58929395354 0.21045654084 -0.1756682754 -1.5337440124 
0.87254677206 0.16334007933 0.2249009712 1.4684616427 -0.41811843169 0.087917141792 1.0672949126 0.26253617532 5.5203402408 
-0.48671642331 -0.92664134828 -0.75673895182 1.2899303627 -0.29591099169 -0.66899873593 -0.26093893624 -0.024539286409 0.34459185626 
0.29575259439 1.19582558 0 0 
FrenetTangent 3 85 double
0.79922567002 -0.092566179554 0.59386011045 0.79922567002 -0.092566179554 0.59386011045 0.89697841666 -0.04168556252 0.44010457157 
0.95156673603 0.0063114666032 0.30737747523 0.92690718569 0.10644392983 0.35987881143 0.82294326237 0.23348890583 0.51792597712 
0.77499481035 0.3423850824 0.53118311276 0.74758487787 0.47015530151 0.46911708863 0.7143949631 0.52985299248 0.45705102894 
0.71961207156 0.53448754254 0.44326237528 0.71194351582 0.53824590393 0.45102968549 0.67021882533 0.54060940786 0.50847634586 
0.65558211151 0.49960158082 0.56622465109 0.58457909772 0.45714543664 0.67028749673 0.46460317399 0.47364965488 0.74819776474 
0.30656311657 0.52670599507 0.79284289132 0.1714177296 0.53100138855 0.82985148511 0.061104959954 0.47531656197 0.8776903496 
-0.071861030748 0.28897182124 0.95463672608 -0.19565262144 0.12394030956 0.97280977143 -0.40296369261 -0.06057759742 0.91320896685 
-0.51024180851 -0.17537955997 0.84195920732 -0.5045144919 -0.2635492689 0.82219639401 -0.47726021472 -0.3195243664 0.81861276971 
-0.46057829091 -0.46495184169 0.75610014075 -0.50038925432 -0.67884978709 0.53737655395 -0.51670546136 -0.77174538929 0.37070813359 
-0.46150584257 -0.82165343421 0.3345115713 -0.44553485204 -0.84859150932 0.28529133518 -0.49176141069 -0.84335674469 0.21661051713 
-0.46176414276 -0.88317369934 0.082329176173 -0.42474830278 -0.90439791571 0.040660660885 -0.39661521789 -0.91784895203 0.015800955365 
-0.34398102506 -0.93892655274 -0.0096944812518 -0.23393747559 -0.9722329777 -0.0060244992764 -0.18995878223 -0.98092038089 -0.041362633058 
-0.24262936298 -0.97011793222 -0.001479799928 -0.13615004404 -0.97916787052 0.15064344275 0.055942171346 -0.94101511738 0.33370798962 
0.25057455052 -0.77657119251 0.57805672524 0.32158756567 -0.6458944453 0.69238847704 0.27778000325 -0.58876160768 0.75907709695 
0.2218066242 -0.49407289211 0.84065081856 0.15500208013 -0.44671737378 0.88114581263 0.15255593282 -0.4133435987 0.8977047158 
0.22116228665 -0.29348338822 0.93002943169 0.24291623221 -0.24913904327 0.93750810196 0.26014791305 -0.29383723799 0.9197732008 
0.25786192142 -0.35465434466 0.89873662733 0.24195997546 -0.33732515615 0.90976211688 0.16701483919 -0.30446536658 0.93776696681 
0.12254487296 -0.33237001943 0.93515395754 0.08501741398 -0.34526462581 0.93464665916 0.024393649342 -0.32402781133 0.94573301061 
-0.042582393884 -0.3363288122 0.94078141447 -0.12193623257 -0.40522460874 0.90604887929 -0.25273065236 -0.45230477377 0.85530556469 
-0.37320210584 -0.46748676196 0.80135904287 -0.4429704377 -0.43920513557 0.78158559366 -0.52559020512 -0.38753635239 0.75734438128 
-0.63710250058 -0.37851439802 0.67143670904 -0.74169541319 -0.34765759759 0.57360448821 -0.81986187532 -0.32529344653 0.47118009194 
-0.83485447307 -0.36590676023 0.41125448521 -0.87820544934 -0.36861929246 0.30475400895 -0.92323894909 -0.35011616862 0.15826721504 
-0.95587566326 -0.2898856331 0.047623902793 -0.97696360723 -0.20671753192 0.05300917042 -0.97672979221 -0.21269030956 -0.027599732513 
-0.95595299523 -0.23761148455 -0.17232136643 -0.94604991222 -0.16266690902 -0.28023033435 -0.93954199545 -0.089038625523 -0.33065535223 
-0.93170000256 -0.10844592667 -0.34666206342 -0.90886760687 -0.17893586874 -0.37675141414 -0.91106301571 -0.22061133398 -0.34827405979 
-0.9178980533 -0.23923460141 -0.31659117049 -0.9174581614 -0.23110762656 -0.32382060934 -0.91219353848 -0.25004396085 -0.32462434597 
-0.90538588899 -0.35063455924 -0.23944059363 -0.8940299211 -0.43730383839 -0.097343993679 -0.86278203367 -0.50413160487 0.038190147295 
-0.77693909352 -0.59808297459 0.19662756792 -0.65907643804 -0.6955578359 0.28603766489 -0.61306239847 -0.73206112006 0.29705388751 
-0.61306239847 -0.73206112006 0.29705388751 
FrenetNormal 3 85 double
-0.41377934465 -0.80137276609 0.43195872917 -0.41377934465 -0.80137276609 0.43195872917 -0.42741839938 0.17244044906 0.88745580363 
-0.040143140107 -0.98867931641 0.14457433246 0.37350837027 -0.35499572966 -0.85701197732 0.51733496207 -0.68474601255 -0.51331027197 
-0.30226140454 -0.53733052435 0.78734614429 0.52368024081 -0.85170188393 0.019050099389 -0.33786333728 -0.31079598187 0.88839981032 
-0.3501014397 -0.27200120559 0.89635055981 0.63310184849 -0.21406732669 -0.74387984855 0.57521161746 0.054553874721 -0.81618347808 
-0.027554055659 0.76517106174 -0.64323714157 0.75545199721 -0.0053839011884 -0.65518187819 0.87567196895 -0.37139924931 -0.30864413231 
0.94714882343 -0.25148446472 -0.19915991133 0.89247647864 0.27304693177 -0.3590697817 0.71366483101 0.59395723015 -0.37134528101 
0.43380738104 0.87089870272 -0.23096884152 0.66846691842 0.74267498235 0.03982272676 0.77112363519 0.51494994546 0.37442608472 
0.025483706252 0.97547407607 0.21863418677 -0.14147097111 0.96463716536 0.22239852414 -0.86252724154 0.3485650062 -0.36680947923 
-0.010008041781 0.85449561549 0.51936218788 0.18653132897 0.52156703978 0.83257064945 -0.39483461278 0.59898818765 0.69664824668 
-0.78265117579 0.55463374972 0.28255714591 0.78242735268 -0.21421061103 0.5847403286 0.38801855558 0.010451132671 0.92159230376 
-0.61410308116 0.38529015448 0.68878799538 0.67151746967 -0.34486262567 -0.65584606223 -0.70613975681 0.31604078848 0.63362833259 
-0.93895883915 0.34401968628 -0.0025988118785 -0.97130042541 0.23397814464 -0.042775126217 0.58335951439 -0.14665551663 0.79886409132 
0.078236533739 -0.018046731654 -0.99677146842 -0.81305569143 0.023557662688 -0.58170910184 -0.60260684074 -0.29831286693 -0.74018540172 
-0.48614757876 -0.61729591012 -0.61855176907 0.63898547354 -0.3915933556 -0.66208172339 0.38553829297 -0.65542102889 -0.64944861193 
0.43217711665 -0.72300939727 -0.53896229116 0.93305882126 -0.22687800602 -0.27915516554 -0.87676298362 -0.47578962563 -0.070077833114 
-0.17801046206 -0.94977189371 -0.25738225524 -0.41900000973 0.84470207408 0.33304263674 -0.26697639395 0.89354594162 0.36096988141 
0.70495591379 0.70516684382 0.076005802309 0.10871018027 -0.92229433732 -0.37088441874 0.97478639685 -0.091760437794 -0.20339985881 
-0.50379580728 0.79099617362 0.34715247065 0.90843951879 -0.3584567106 -0.21504982522 0.98024589448 -0.17797931005 -0.086263268811 
0.94867774845 0.2817316247 0.14365869709 0.4972998799 0.76506915316 0.40909903487 0.96753235804 -0.12078689956 0.22201725394 
0.49838436203 0.62752752842 0.59818243769 0.55561180327 -0.8186741265 -0.14514888447 0.83575922573 -0.068891665893 0.54475724408 
0.74101959117 -0.061068316822 0.6687007 0.66999474139 -0.34379450062 0.65796077987 -0.029611337584 0.84592214179 0.53248370746 
0.31770270577 0.28982567972 0.90281009416 0.36393975849 -0.1016035943 0.92586422429 0.21879952653 -0.1404689433 0.96560615323 
0.29109826703 -0.91282834136 0.28636727842 0.17459969296 -0.917084784 -0.3584277419 -0.13470734185 0.5082308363 0.85062056705 
-0.073330610843 -0.37513228024 0.92406622806 -0.070444087228 -0.7409112517 0.66789830639 0.34243299646 -0.24233936195 -0.90775066873 
-0.33283904156 0.63704693675 0.69526208928 -0.16973608804 0.98379429073 -0.057779355621 0.33952476452 0.077683947608 -0.93738366668 
-0.12029255835 0.9280420908 -0.35251606787 0.041299794506 -0.86489317324 0.50025406131 -0.16289273923 0.94822425998 -0.27264758991 
0.028244779086 0.51294700008 -0.85795548111 -0.15439684461 0.50471979173 -0.84936420116 -0.23202349116 0.32771100463 -0.91584419908 
-0.56132777896 0.51663846065 -0.64652596664 -0.74970929699 0.57748010437 -0.32319142789 0.49501601426 -0.062901311448 0.8666040449 
0.49501601426 -0.062901311448 0.8666040449 
FrenetBinormal 3 85 double
0.4359185501 -0.59095955206 -0.67877965903 0.4359185501 -0.59095955206 -0.67877965903 -0.11288592434 -0.98413749314 0.13685818455 
0.30481022816 -0.1499112227 -0.94054098801 0.036531718478 0.92878830835 -0.36880579146 0.23479549387 0.69036644555 -0.68429909171 
0.554996475 -0.7707453295 -0.31293857192 0.40850441339 0.23142578372 -0.8829304904 0.61277092132 -0.78908913566 -0.043013183698 
0.59965610844 -0.80021147894 -0.0086104928781 -0.30383956247 0.81514816233 -0.4931683219 -0.46897582166 0.83950303328 -0.27440177808 
-0.75462101023 0.40609297792 0.51539851009 -0.29590464413 0.88937565931 -0.34849874922 0.13169090141 0.79857285331 -0.58731499592 
0.094488950852 0.81199529479 -0.5759648248 -0.4172549545 0.80217385797 -0.42710116429 -0.69781709125 0.64906777356 -0.30292298111 
-0.8981353731 0.39753079896 -0.18794178742 -0.71754583875 0.658082571 -0.22815630397 -0.4929387403 0.85507713591 -0.1607933144 
-0.85965334733 0.13301254397 -0.49325833554 -0.85173416733 -0.0041136438993 -0.52395800036 -0.16813519871 -0.88113938496 -0.44195468006 
-0.88756266091 0.23163986706 -0.39821538763 -0.8454683066 0.51684696921 -0.13435978916 -0.75968486542 0.21359355133 -0.6142122598 
-0.41769545641 -0.1314041009 -0.89903474235 -0.43509324677 0.48374193992 0.75939950104 -0.77949491049 0.53725243136 0.32209860217 
-0.64004006295 0.26749899747 -0.72027286786 0.60716815398 -0.25126515771 0.75379881488 -0.58656884744 0.24014895641 -0.77347622196 
0.0057751858772 0.0082087768885 -0.99994963034 0.042996989496 -0.0041551063352 -0.99906656134 -0.78968812706 0.12762196442 0.6000877404 
0.96695917029 -0.24196180084 0.08027733134 0.56604205511 -0.20168122834 -0.7993253868 0.79607503978 -0.15968713878 -0.58375041649 
0.83718153724 -0.12602754586 -0.53220685019 0.69876963458 0.65534342858 0.28678561403 0.87988550076 0.47305712572 0.044927289654 
0.87408509958 0.48285545325 0.053158724252 0.32461606741 0.86543050463 0.38164702335 0.45608481439 -0.77638347584 -0.43498889702 
0.95885323088 -0.10863172075 -0.26229683735 -0.87488896208 -0.47371736633 0.10080258362 -0.92792600374 -0.33946329372 0.15400650572 
-0.66071505893 0.61397069815 0.43185135489 0.96417709316 0.18863958859 -0.18648763669 0.14797812 0.94809327738 0.28146334289 
-0.85508627557 -0.51366839838 -0.070514096652 0.40927946445 0.8673529413 0.28317696797 0.19627260692 0.92915517686 0.31328536687 
-0.31336443534 0.89861572529 0.30707085328 -0.85896704514 0.50046199391 0.10822849907 0.0028902435147 0.88364637527 0.46814605624 
-0.78251723041 0.62262776076 -0.0012065034631 0.70361403865 0.36996151622 0.60667599353 -0.15893851923 0.91927662537 0.36009586662 
-0.21210933324 0.92357864374 0.31939336183 -0.031542995454 0.87231848323 0.48791956638 -0.57179513296 0.42261081821 -0.7031716876 
-0.44953642737 0.88437170816 -0.12571269734 -0.31032731259 0.92401110754 0.22338404646 -0.31584269831 0.92611400186 0.20629165152 
-0.039541311608 0.28759474777 0.95693560167 0.12270720178 -0.34091547478 0.93205127632 -0.16689171658 0.8345443363 -0.52505514537 
-0.2842120554 0.89600030956 0.3411846316 -0.31627076083 0.65160570425 0.68948010271 0.00069406477714 -0.96609717773 0.25817777104 
0.14544166404 0.7631583593 -0.6296316709 0.38098468945 0.011434526532 -0.92451063704 0.23385276498 -0.97226325838 0.0041280396404 
0.37814397278 -0.28549025061 -0.88062617078 -0.39568276316 0.4455884467 0.80304799801 0.37599056353 -0.19582842087 -0.9056943887 
0.42364917617 -0.78354373265 -0.45451138001 0.42056166557 -0.74432740429 -0.51875292836 0.44919067436 -0.79903493191 -0.399713542 
0.28509080927 -0.61268381444 -0.73711720506 0.059617269593 -0.42745295176 -0.9020697064 -0.61572204866 0.67832878571 0.40094440671 
-0.61572204866 0.67832878571 0.40094440671 
SiphonLabel 1 85 int
0 0 0 0 0 0 0 0 0 
0 0 0 0 0 0 0 0 0 
1 1 1 1 1 1 1 1 1 
1 1 1 1 1 1 1 1 1 
1 1 1 1 1 1 1 1 1 
0 0 0 0 0 0 0 0 0 
0 0 0 0 0 0 0 0 0 
0 0 0 0 0 0 0 0 0 
0 0 0 0 0 0 0 0 0 
0 0 0 0 
