# vtk DataFile Version 5.1
vtk output
ASCII
DATASET POLYDATA
POINTS 80 float
104.26 73.9126 30.9173 103.486 73.4769 30.7477 102.786 72.8786 30.5377 
102.373 72.2909 30.278 102.086 71.7556 30.1709 101.797 71.0063 29.9613 
101.5 70.2491 29.6216 101.397 69.7466 29.3597 101.35 69.2554 29.0741 
101.362 68.7896 28.802 101.422 68.1923 28.3654 101.514 67.7207 28.0528 
101.702 66.964 27.5616 101.946 66.2126 27.0103 102.146 65.5466 26.4274 
102.271 65.0354 25.9081 102.435 64.4998 25.4117 102.556 64.0808 25.0273 
102.763 63.4963 24.4763 102.874 63.0988 23.9331 102.936 62.7518 23.3133 
102.939 62.5045 22.7179 102.925 62.4322 22.3173 102.81 62.4456 21.5907 
102.645 62.5577 20.7496 102.249 62.8801 20.038 101.734 63.3413 19.3419 
101.316 63.7547 19.0303 100.653 64.3657 18.7113 100.065 65.0318 18.4361 
99.7229 65.3676 18.2777 99.0333 66.0202 18.1625 98.2658 66.6339 18.0111 
97.5638 67.3301 17.9357 97.0471 68.0394 17.977 96.8651 68.6227 18.0301 
96.7424 69.4472 18.2009 96.9017 70.3876 18.4621 97.057 70.911 18.4791 
97.351 71.3668 18.5856 97.8173 72.0443 18.5214 98.1885 72.3921 18.4632 
98.8102 72.9495 18.224 99.5417 73.3779 17.863 100.317 73.7035 17.5101 
101.057 73.8482 17.059 101.701 73.6273 16.5176 102.265 73.5219 15.896 
102.711 73.5488 15.3054 102.971 73.5667 14.7687 103.21 73.7137 14.188 
103.549 73.9278 13.3828 103.73 74.1116 12.7139 103.896 74.2479 12.1216 
104.136 74.3891 11.4233 104.458 74.6091 10.596 104.679 74.718 10.1133 
104.894 74.8557 9.55083 105.218 75.0124 8.90886 105.683 75.2023 8.14877 
106.261 75.4779 7.41688 106.858 75.88 6.85712 107.537 76.3296 6.40577 
108.221 76.7308 6.10165 108.864 77.0947 5.92189 109.508 77.5698 5.80514 
110.198 78.0669 5.72718 110.915 78.6556 5.6792 111.673 79.2935 5.67682 
112.274 79.7582 5.713 112.895 80.2688 5.71982 113.568 80.8548 5.75502 
114.021 81.1657 5.74799 114.603 81.5817 5.74083 115.226 81.9595 5.72692 
115.772 82.3561 5.61178 116.291 82.7419 5.3911 116.907 83.3065 5.00524 
117.484 83.9184 4.54257 117.983 84.4679 3.96478 
LINES 2 80
OFFSETS vtktypeint64
0 80 
CONNECTIVITY vtktypeint64
79 78 77 76 75 74 73 72 71 
70 69 68 67 66 65 64 63 62 
61 60 59 58 57 56 55 54 53 
52 51 50 49 48 47 46 45 44 
43 42 41 40 39 38 37 36 35 
34 33 32 31 30 29 28 27 26 
25 24 23 22 21 20 19 18 17 
16 15 14 13 12 11 10 9 8 
7 6 5 4 3 2 1 0 
CELL_DATA 1
FIELD FieldData 2
Length 1 1 double
61.949301439 
Tortuosity 1 1 double
0.93386597891 
POINT_DATA 80
FIELD FieldData 7
MaximumInscribedSphereRadius 1 80 double
1.3927626197 1.360027626 1.4008997203 1.3779973144 1.3589608383 1.3274574452 1.3027556257 1.2789237329 1.2472584368 
1.2112167523 1.1966590542 1.1760204953 1.0901725706 1.0343607538 1.0977248165 1.2639772228 1.5186340228 1.6842045518 
1.8600899456 1.9236371441 2.0076385423 2.1032738624 2.1184855621 2.1569691902 2.2981721227 2.3391852135 2.3538842917 
2.340943544 2.396925395 2.4866441064 2.5331514266 2.6365157316 2.6267576049 2.5751689176 2.4483761079 2.2867022541 
2.0937150391 1.9581221405 1.9599289406 1.9424298171 2.0033554518 2.07023374 2.2353789595 2.3931210726 2.6076046948 
2.6638301902 2.4812075766 2.2389652712 2.0512023596 1.9523372036 1.8667413084 1.8729098484 1.8487704291 1.7848318084 
1.7822181384 1.8436191066 1.8591535296 1.8598187111 1.8449460897 1.8613341665 1.9408237044 1.947235701 1.9484785041 
1.9655616654 1.9132324909 1.8569111576 1.826582865 1.8497686295 1.837550445 1.8235275854 1.8189787086 1.8012813268 
1.7974455993 1.7753344982 1.783657846 1.7995148731 1.7676772203 1.7548381754 1.8007207393 1.8325221688 
Curvature 1 80 double
0 0.2107694407 0.3205508035 0.3040738298 0.20316774788 0.1648152575 0.23818554495 0.18851310058 0.19215547796 
0.18407602835 0.13942668 0.061749852757 0.079121057073 0.095977565391 0.10950037891 0.091562343084 0.018684684282 0.063510553599 
0.26680604712 0.2053361044 0.21121143356 0.41956608097 0.4071154123 0.14769915888 0.46422604729 0.17526246475 0.3761495788 
0.18723863147 0.1116074312 0.097684634638 0.27482449122 0.091026346297 0.13239486454 0.21752130646 0.4504471506 0.26346075237 
0.34802313755 0.34886108402 0.60651386658 0.402825615 0.32733537059 0.24267293304 0.25532864819 0.13329772795 0.26078263436 
0.53488522733 0.2189692389 0.23411268557 0.29791855968 0.33890376104 0.016566555506 0.16414789139 0.063056897678 0.092334456466 
0.080227618977 0.095748309819 0.11607826294 0.14904258331 0.097392714633 0.14865661062 0.23433692801 0.16966414171 0.16713504695 
0.159883333 0.1930766943 0.065595318072 0.084112986626 0.05286778065 0.074352242478 0.062548553358 0.050065107316 0.17489126558 
0.028234389805 0.10379162361 0.24351240442 0.23548157174 0.17608465239 0.10186202895 0.16895451586 0 
Torsion 1 80 double
0 0 0.42178418646 0.25545631909 -1.510162476 0.13661452025 0.36684257106 0.23651437717 -0.38353541884 
-0.10922586508 0.89615958316 -1.2118544467 -0.92521001167 -0.53592547618 -0.018556619782 0.29824607381 3.0448589875 -2.9291438571 
-0.19876580121 -0.10262835868 0.5837836653 -0.13977583131 -0.26591062385 -0.56541320322 -0.061481286132 0.18403153746 -0.11187241697 
-0.041650467255 0.81909021422 1.8147860338 0.022900007502 -1.2817794761 0.069059574773 0.5346440261 -0.042987303805 -0.25773039374 
0.68563505557 -0.49985503233 0.0354936377 0.4248469698 -0.33837602306 0.37543179385 -0.55161903819 0.18853426311 0.020612412653 
0.17819113369 1.3832487042 -0.55730188856 0.30086694938 0.72041808254 4.8628485326 -0.2800253369 -2.6446151537 -1.0044395015 
0.032597215383 0.80718076427 0.46398008895 0.10792328904 -0.62895836354 -0.49361799467 0.076796971274 0.52740455466 0.058581766092 
-0.77495042455 -0.25745123219 0.836997082 -0.16433028521 1.1654053214 0.34970510763 0.54184285595 1.5018508129 0.10574178088 
1.4050059989 1.5037609049 -0.0094024319291 0.011958886085 0.49494096596 -0.57035228621 0 0 
FrenetTangent 3 80 double
0.80099681962 0.56200562181 0.20628566602 0.80099681962 0.56200562181 0.20628566602 0.65762871813 0.70041362559 0.27739001816 
0.51004218866 0.81763060693 0.2670901653 0.39890465396 0.89034626127 0.21945070536 0.3429161403 0.88253842537 0.32176769331 
0.27570745263 0.86739317056 0.41426379063 0.13171959169 0.86820003356 0.47841263664 0.031313364055 0.86357548666 0.50324631351 
-0.056886579057 0.83072767471 0.55376479447 -0.11559760069 0.81339213713 0.57011439727 -0.18738634111 0.82194532876 0.53785893661 
-0.22909238959 0.80072152939 0.55349951166 -0.23744304143 0.75843861225 0.60695277701 -0.19785062631 0.7155547414 0.6699526414 
-0.19433883021 0.70402930377 0.68306307067 -0.21432018462 0.71783148249 0.66240834929 -0.2326100589 0.7114146474 0.66316043305 
-0.21150889555 0.65281853912 0.72738706484 -0.12423754686 0.5349757685 0.83568292975 -0.047795584067 0.43885574034 0.8972854737 
0.010918814227 0.30554810033 0.95211403618 0.11330024336 0.051794972561 0.99220982442 0.17501354532 -0.078575560737 0.98142556529 
0.32891285667 -0.25451723098 0.90941591797 0.4922613338 -0.42337747627 0.76054604846 0.57273798908 -0.53728929756 0.61910532755 
0.66823964636 -0.63353885852 0.38997985816 0.66421169933 -0.67778414534 0.31532756113 0.64870074866 -0.69843266448 0.30228984745 
0.70916755455 -0.67948625234 0.18809522178 0.74771989689 -0.64977161678 0.13679108825 0.74156853487 -0.66104068273 0.11446101461 
0.65499552146 -0.75541048165 0.01832678609 0.47453079247 -0.877899842 -0.064127953365 0.20901862953 -0.96577755199 -0.15357386686 
-0.020138310901 -0.97113089588 -0.23769566993 -0.20657267026 -0.96122022981 -0.1827112523 -0.41434348722 -0.9029668423 -0.11388747216 
-0.55688096209 -0.83001587251 -0.03093938338 -0.6298925771 -0.77120708846 0.092059589496 -0.7215120524 -0.65782411379 0.21607358367 
-0.7608806465 -0.55423775176 0.33746282211 -0.82343602649 -0.41202029488 0.39011842675 -0.8518815723 -0.26443487774 0.45207519531 
-0.81173915189 0.044679603945 0.58230857995 -0.70716544056 0.19098397242 0.68076586427 -0.63963720036 0.04967563747 0.7670701291 
-0.53024830844 -0.033632522489 0.8471750615 -0.4036370335 -0.13358577021 0.90511435034 -0.37449124589 -0.23379709223 0.89727098828 
-0.32228756526 -0.24669199225 0.91393314101 -0.25742023795 -0.23771413033 0.93660387216 -0.29408175725 -0.20087310247 0.93443347369 
-0.3376550509 -0.21688597672 0.91594188664 -0.3732008262 -0.22596111021 0.89981260271 -0.37601285463 -0.21272393169 0.9018663216 
-0.39839279571 -0.21772537656 0.89099878829 -0.4793536058 -0.21064354317 0.8519679679 -0.55527390523 -0.24772440978 0.79391656171 
-0.62731114807 -0.36182285752 0.68961216875 -0.69443595548 -0.46357325864 0.55032584676 -0.76782777166 -0.47904551843 0.42538912108 
-0.82608773739 -0.4762719451 0.30123758805 -0.82255127295 -0.53619507739 0.18948414805 -0.8026816723 -0.58479395286 0.11712457321 
-0.78958445306 -0.6095548117 0.070705891001 -0.76842900295 -0.63939643264 0.02625013063 -0.77637772061 -0.62997187643 -0.019315016106 
-0.78151723193 -0.62327809386 -0.027481519439 -0.76280597081 -0.64615321687 -0.024760275317 -0.78178659856 -0.62323883021 -0.019572297378 
-0.81833210282 -0.57463621953 0.011215377851 -0.8350616642 -0.54996275048 0.014594179246 -0.8300403874 -0.55011531579 0.091684756739 
-0.7810698956 -0.57381678027 0.24630087469 -0.70951949677 -0.59403661577 0.37908123513 -0.63541293232 -0.62627485828 0.45169703046 
-0.56791125282 -0.61305306107 0.54922013186 -0.56791125282 -0.61305306107 0.54922013186 
FrenetNormal 3 80 double
0.59554767694 -0.78316130253 -0.1788332707 0.59554767694 -0.78316130253 -0.1788332707 0.73468602878 -0.51484591786 -0.44178062427 
0.35826261098 -0.48423698014 0.79822456028 0.81085261428 -0.23071984428 -0.53785350363 0.077064945704 0.31495171498 -0.94597379 
0.90744047486 -0.092705304746 -0.40982619617 0.89756899655 0.10038261593 -0.42929387004 0.99934680239 -0.017962837271 -0.031357694789 
0.49109020018 0.50620535333 -0.70893339288 0.86216139884 -0.20286521753 0.46424500629 0.96140075014 0.04115238873 0.27205712366 
0.64558907292 0.5505528717 -0.52925068199 -0.35034591746 0.51590753344 -0.7817270336 -0.57779333424 0.46697480803 -0.669394795 
0.73831029802 -0.35349544999 0.57440305594 -0.8970695357 -0.41295750523 0.15726521228 0.93006226301 0.36209595463 -0.062215002667 
-0.43372583915 0.60423924613 -0.66841366674 -0.53279631433 0.67452807547 -0.5110185543 -0.57755750094 0.72077454352 -0.38329021709 
-0.18075597798 0.93708784365 -0.29865305911 -0.5208599559 0.85351170734 0.014922190784 -0.29989221782 0.94519001562 0.12915297932 
-0.67238421286 0.61308079108 0.41476669816 -0.44411901048 0.62929401639 0.63776746975 -0.35751345377 0.51591278384 0.77847166284 
-0.4239708898 0.10643941408 0.89939943058 0.57724002662 0.73305308964 0.35975980799 -0.64775880656 -0.71521880266 -0.26243207284 
-0.19724104659 0.064928868117 0.97820254121 -0.57364663112 -0.73586039464 -0.35977635025 0.48887812884 0.64930815192 0.58257797676 
0.59073001692 0.52702810965 0.61096597184 0.87676439894 0.46493507165 0.12296165219 0.80049801387 0.078770904994 0.59413641053 
0.97724453706 -0.069331290933 0.20046517623 0.47533680835 0.064630514857 -0.87742681471 0.76279776176 -0.41280085242 0.49772987745 
0.10716047805 -0.034858750536 -0.99363046423 0.75377649981 -0.63558010292 -0.16690991913 -0.070161810409 -0.24099710019 -0.96798642452 
0.3438228452 -0.78540689804 -0.51470560093 0.46198889412 -0.886010881 0.039382489379 -0.033045981173 -0.83431735293 -0.55029311982 
-0.22826988334 -0.94202549507 -0.24592849978 -0.39281454507 0.69444017549 -0.60286779301 -0.34493507428 0.8732456691 -0.34418279435 
-0.84664601569 -0.032059250457 -0.53118991762 -0.3076947376 0.95147970656 0.0032119238168 0.48569734026 0.77484674922 0.40461167665 
-0.9449045714 0.14229613857 -0.29480020334 0.2728861121 -0.94769897421 -0.16552892227 0.87635779827 -0.44686648149 0.17974247445 
0.49118567466 0.78949393974 0.36801623895 0.80170593584 -0.56664442597 0.19021484421 -0.89771231986 0.32481976004 -0.29766544015 
0.91720460126 -0.099172366712 0.38587635468 0.87603980772 -0.056582514237 0.47890779319 0.60377094676 0.53642883363 0.58966494749 
0.27585116741 0.72486552763 0.63124963389 0.48262752492 0.26718480921 0.83407610559 0.516146108 -0.069214526384 0.85369932912 
0.31551296642 0.052027801557 0.94749389227 -0.32788733461 0.71939088861 0.61234520101 0.21203978253 -0.096266135066 0.97250807805 
-0.48823276433 0.69383413311 0.52936090105 -0.12994094075 0.19606618782 0.97194310631 0.3914583059 -0.50599842565 0.76858700743 
-0.35719028545 0.48312071587 -0.79938068145 -0.45611328168 0.5105254686 0.7289200369 0.5733071598 -0.70610040335 -0.41562136724 
-0.56597006934 0.80908079349 0.15832293019 0.54444193461 -0.82991061735 -0.12178401805 -0.33233886597 0.35587679755 -0.87344294784 
-0.23764075013 -0.091605556995 -0.96702393756 -0.64871076464 0.34048971372 -0.68061817394 -0.71227806133 0.24949226708 -0.65605912234 
-0.44668343051 -0.33090513332 -0.8312494846 -0.44668343051 -0.33090513332 -0.8312494846 
FrenetBinormal 3 80 double
0.061049647392 0.26609783026 -0.96201085508 0.061049647392 0.26609783026 -0.96201085508 -0.16661605025 0.4943221965 -0.85316156609 
0.78198776676 -0.31143978178 -0.53990776524 -0.4282442235 0.3924944439 -0.81397481321 -0.93619950591 0.34918669071 0.039989250652 
-0.31707599272 0.48891186746 -0.812667214 -0.42073726434 0.48595476348 -0.76604707574 -0.018040004901 0.50389950914 -0.86357387809 
-0.86924929244 0.23161966827 -0.43675851092 0.49326961903 0.54519623511 -0.67782457035 0.20148190191 0.5680777741 -0.7979302512 
-0.72851316114 0.23608593317 -0.6430645428 -0.90602347663 -0.39825907194 0.1432172176 -0.79183962554 -0.5195343499 0.32105150163 
0.6458562711 0.61594131723 -0.45109419284 0.38643641984 -0.56052124101 0.73244988347 -0.28438837427 0.60230865767 -0.74588707823 
-0.87586864515 -0.4568620015 0.15534229309 -0.83707414211 -0.5087364765 0.20123140433 -0.8149496397 -0.53655353561 0.21901458437 
-0.98346736393 -0.16883936649 0.065461533774 -0.84608980682 -0.51849305323 0.12368101128 -0.93778191316 -0.3169254102 0.14185685646 
-0.66311070192 -0.74789900571 0.030516786352 -0.74862345928 -0.65172122378 0.12174712603 -0.73766884592 -0.66719877863 0.10339469791 
-0.61131371622 -0.7663544649 -0.19747499714 -0.47499133692 -0.056936983638 0.87814657646 0.39949451463 -0.025571028698 -0.91637888194 
-0.6768879886 -0.73080960241 -0.087977132931 0.33443160496 0.19054218857 -0.92295675737 -0.45942821336 -0.37606401002 0.80467482695 
-0.47118883048 -0.38935379266 0.79144469811 -0.078132680438 -0.11457419675 0.9903373353 -0.56170645563 -0.24712115368 0.78956759882 
-0.21115767383 -0.22824976488 0.95042857786 0.85520912678 -0.26810178359 0.44355245812 -0.49644642134 0.11935802426 0.85982243096 
0.82365054848 -0.556649368 0.10835707222 0.18723335614 -0.035742963961 0.98166496875 0.68883791897 -0.71357398566 0.12772818163 
0.55031490339 -0.27560210274 0.78816050908 0.32942278609 0.21265934112 0.91992207966 0.52269087414 -0.48372383653 0.70200106842 
0.53756154034 -0.33255330345 0.7748779844 -0.58788925221 -0.69374200171 -0.4160628104 -0.68693816785 -0.48474151095 -0.54142554531 
0.045025054328 -0.99891994569 -0.011475477838 -0.86162700378 -0.27720247112 -0.4251560847 -0.78984454193 0.5873256634 -0.17661869863 
-0.057324307397 -0.95859004267 -0.27896066725 0.92696709268 0.21297569469 0.30882578026 0.38146157009 0.87175704438 0.30745198995 
-0.80294813009 0.57416007543 -0.16004533161 0.46689263837 0.79237344175 0.39262653126 -0.22962343942 -0.92154253964 -0.31310129942 
0.0043473839446 0.97095854808 0.23920827362 -0.052672344737 0.97592403229 0.21165516128 -0.57195413628 0.80676931229 -0.1482961319 
-0.7282766349 0.58622025437 -0.35490696869 -0.53369408459 0.84481483865 0.038190476161 -0.37951773116 0.87505699278 0.30040231545 
-0.46693748849 0.87775745065 0.10729044535 -0.46464965208 0.44155587232 -0.76754746592 -0.55744171317 0.80544947944 0.20127064487 
-0.37173264495 0.38345420491 -0.84544527523 -0.62660371795 0.74345830544 -0.23374671919 -0.49396156701 0.58915280544 0.63945362785 
0.51151335875 -0.61491364565 -0.60019604482 -0.45835327552 0.56731804681 -0.68415093991 0.24521136766 -0.33614815321 0.90932711621 
-0.10005223688 0.1232131682 -0.9873236881 0.079088537838 -0.093751481603 0.99244932509 0.44786586546 -0.75546333088 -0.47821681511 
0.5774570911 -0.81384441057 -0.064811907262 0.27523885546 -0.72882594217 -0.62694203757 0.2981784177 -0.73860233587 -0.60461245493 
0.691339802 -0.71740346881 -0.085915895575 0.691339802 -0.71740346881 -0.085915895575 
SiphonLabel 1 80 int
0 0 0 0 0 0 0 0 0 
0 0 0 0 0 0 0 0 1 
1 1 1 1 1 1 1 1 1 
1 1 1 1 1 1 1 1 1 
1 1 1 1 1 1 1 0 0 
0 0 0 0 0 0 0 0 0 
0 0 0 0 0 0 0 0 0 
0 0 0 0 0 0 0 0 0 
0 0 0 0 0 0 0 0 
