# vtk DataFile Version 5.1
vtk output
ASCII
DATASET POLYDATA
POINTS 92 float
112.1 86.9567 34.2211 111.892 87.1688 33.8843 111.533 87.45 33.4251 
111.069 87.7005 32.823 110.569 87.891 32.2775 110.185 88 31.8398 
109.439 88.0107 31.2079 109.013 87.8698 30.8577 108.546 87.7029 30.65 
107.914 87.4004 30.4551 107.366 87.1319 30.2773 106.767 86.6532 29.958 
106.252 85.9817 29.6374 105.949 85.3798 29.3198 105.977 84.496 28.9396 
106.168 83.7057 28.6284 106.479 82.8195 28.4935 106.955 81.957 28.4849 
107.301 81.3122 28.4894 107.777 80.5106 28.4628 108.407 79.8262 28.2366 
108.804 79.5047 28.0628 109.239 79.2057 27.8314 109.829 78.8412 27.3772 
110.276 78.595 27.022 110.878 78.3579 26.5746 111.497 78.1781 26.1075 
111.967 78.2217 25.5812 112.392 78.5025 25.006 112.706 78.8879 24.3494 
112.794 79.4722 23.7212 112.623 80.088 23.2052 112.383 80.906 22.7834 
112.199 81.4972 22.5646 111.902 82.4006 22.38 111.422 83.2384 22.3684 
111.113 83.7581 22.4828 110.787 84.3593 22.6996 110.471 84.8753 22.9127 
110.097 85.485 23.3422 109.819 86.0382 23.8337 109.612 86.7875 24.4274 
109.677 87.3212 24.6389 109.886 87.9697 24.778 110.288 88.8565 24.765 
110.655 89.6526 24.3891 110.84 90.0955 23.8994 111.014 90.438 23.3936 
111.165 90.7847 22.7533 111.316 91.1008 22.0798 111.325 91.3627 21.4036 
111.37 91.5647 20.681 111.338 91.5876 20.0957 111.319 91.6857 19.5768 
111.277 91.8926 18.8796 111.173 92.0624 18.1523 111.158 92.2698 17.3773 
111.192 92.4315 16.8905 111.239 92.7171 16.0016 111.384 93.0305 15.1432 
111.579 93.3201 14.3796 111.825 93.5288 13.8048 112.283 93.7129 13.0298 
112.827 93.8734 12.4767 113.469 94.1543 11.9553 114.021 94.4312 11.494 
114.859 94.797 11.0972 115.658 95.2204 10.8008 116.181 95.4217 10.6313 
116.737 95.6291 10.4495 117.142 95.7932 10.331 117.764 96.0623 10.2374 
118.488 96.423 10.0944 119.39 96.7814 9.92921 119.993 97.0883 9.86383 
120.789 97.6021 9.77793 121.341 98.0423 9.64877 122.024 98.4087 9.55355 
122.907 98.7549 9.47829 123.513 99.0512 9.44089 124.016 99.3676 9.42169 
124.584 99.7033 9.30634 125.095 99.9894 9.15984 125.822 100.434 8.98691 
126.606 100.936 8.82264 127.212 101.376 8.63812 127.922 101.926 8.37525 
128.584 102.473 8.01031 128.961 102.885 7.64379 129.367 103.503 7.03154 
129.492 103.951 6.4174 129.615 104.296 5.94522 
LINES 2 92
OFFSETS vtktypeint64
0 92 
CONNECTIVITY vtktypeint64
91 90 89 88 87 86 85 84 83 
82 81 80 79 78 77 76 75 74 
73 72 71 70 69 68 67 66 65 
64 63 62 61 60 59 58 57 56 
55 54 53 52 51 50 49 48 47 
46 45 44 43 42 41 40 39 38 
37 36 35 34 33 32 31 30 29 
28 27 26 25 24 23 22 21 20 
19 18 17 16 15 14 13 12 11 
10 9 8 7 6 5 4 3 2 
1 0 
CELL_DATA 1
FIELD FieldData 2
Length 1 1 double
70.123450238 
Tortuosity 1 1 double
0.86948090841 
POINT_DATA 92
FIELD FieldData 7
MaximumInscribedSphereRadius 1 92 double
1.1539072569 1.1438209015 1.1036428331 1.1097720398 1.1382806723 1.2091782626 1.272017087 1.2546861486 1.1721717874 
1.0535674268 0.98684380519 0.93584222821 0.99188066758 1.08805845 1.0942446146 1.0842035839 1.1118545164 1.2268342024 
1.3824273741 1.5946488329 1.6320749079 1.6123711518 1.568506591 1.4836181088 1.4428978761 1.4418716001 1.5421002342 
1.5930274419 1.5853051077 1.5924634718 1.6023596986 1.5197995087 1.4754529757 1.4962163943 1.5638396137 1.5403156468 
1.5084597048 1.4825431293 1.5455558705 1.6204161796 1.7253346708 1.8450229344 1.8114862416 1.7514868124 1.7239068731 
1.7006308808 1.596445859 1.5520576608 1.5757182538 1.6136933461 1.656406198 1.6992213049 1.6561976614 1.5738988543 
1.4637834481 1.426859982 1.3867943681 1.3511794284 1.3011146856 1.2874413664 1.3021630494 1.3642906106 1.4352222645 
1.4718454149 1.5049139919 1.5606517613 1.5045122606 1.4779643281 1.4938857917 1.5140885559 1.5046932237 1.5244253471 
1.550836425 1.5914475521 1.6240379528 1.6347451537 1.5919160016 1.556800917 1.5797798682 1.6075015069 1.6151631295 
1.6209046849 1.6107438433 1.6184486695 1.6684565255 1.667686202 1.5884790151 1.5983201302 1.6619173582 1.7041329993 
1.6832786803 1.6313926831 
Curvature 1 92 double
0 0.1949228019 0.18234328615 0.13580371011 0.10347034559 0.29305344856 0.34251848939 0.49136826497 0.25183543941 
0.022146255813 0.32356892185 0.26432869114 0.23164800295 0.55609972453 0.21312603314 0.27077337679 0.22226680115 0.022189449355 
0.067286020526 0.31690506242 0.22260991132 0.20250530925 0.24605778491 0.06916407312 0.15087486613 0.099441709836 0.47548825136 
0.45077584644 0.2604241918 0.43646138338 0.40917909414 0.25069980437 0.15041492956 0.1838929798 0.28397924043 0.25458007717 
0.18857475426 0.085654047414 0.27624030018 0.18265584811 0.17719199743 0.58140802449 0.39959107231 0.29499727211 0.41972075582 
0.49207365434 0.20489622673 0.17441468796 0.075188352283 0.27119484419 0.14666835117 0.39445324638 0.26763508892 0.1659814802 
0.13390519377 0.15957107779 0.15842986694 0.02670461088 0.12254720347 0.089302699094 0.19847413062 0.22142552728 0.28136028476 
0.1981260925 0.051455493094 0.2705554912 0.12004187848 0.15266264115 0.01726899657 0.078333402498 0.22841595118 0.086253961143 
0.091677330101 0.14063995808 0.12591166832 0.16059740486 0.2520550847 0.14592276687 0.10412504939 0.17163504446 0.22770773452 
0.11895658464 0.079117375993 0.036116383509 0.1029141996 0.061847827063 0.12954969085 0.27206778601 0.21146163491 0.36907646033 
0.066925319406 0 
Torsion 1 92 double
0 0 -0.26738878605 0.24302787082 0.85304802688 -0.24849905592 0.5395042232 0.3252907646 -0.93753302992 
-3.6013398594 0.31284459005 0.063286972223 0.061574711343 0.089249295771 0.5270152555 0.12402377621 -0.24643662216 5.3220739751 
-0.4197799482 0.055146466655 -0.01775348313 -0.82009388046 -0.15293018109 2.3742739502 0.0073193207701 -1.7712666901 0.1244279907 
-0.027190588001 -0.3060632525 -0.0056325454961 0.1600834788 0.70911686342 -0.066838797092 -0.63263952071 0.089299549737 0.65075589681 
0.032208103743 0.41935591012 0.38428858851 0.95587654353 1.2038487913 0.060850975304 0.11826195548 0.60240993188 0.22175051591 
-0.064765638097 -0.32048094484 0.33066594124 1.3009814899 -0.19514262406 0.1835701668 0.39554641567 0.24165457655 -1.0168194514 
-1.0572843081 -0.41372195669 -0.26616408536 -0.86639096995 0.056241612267 0.45598850161 0.44324613163 -0.2973973663 -0.6592202756 
-0.78543395719 1.0238658024 -0.084983340238 -0.26988170536 0.5000573161 2.1889598719 1.1834340536 -0.15705685964 -1.9476130926 
-0.84481585443 -0.5795809 -0.96428920158 -0.73389888131 -0.1842791473 -0.25759314326 -0.58714446009 -0.99215536561 -0.59144206312 
0.045754489364 0.39136611237 -1.5187188985 -0.23885961929 -0.54858673113 0.25009650772 0.1828007365 -0.1427654559 -0.14155621107 
0 0 
FrenetTangent 3 92 double
0.51780066514 -0.45061782185 0.72720426966 0.51780066514 -0.45061782185 0.72720426966 0.56957637245 -0.36816408333 0.7348727534 
0.61717154192 -0.28219750189 0.73448203366 0.65230473907 -0.22088030671 0.72505890622 0.72408921387 -0.076726368722 0.68542532394 
0.7635127509 0.084844143521 0.64019508787 0.81401432313 0.28058524106 0.50857900492 0.87160512037 0.37212113411 0.31910872081 
0.86585021415 0.41893865333 0.27348457253 0.78744087205 0.51319026657 0.34142733242 0.64589113483 0.66715458523 0.37111912018 
0.49813512365 0.77518957902 0.38851321105 0.16511998167 0.89270411146 0.41930270811 -0.12006391153 0.91759757066 0.37894505601 
-0.27791871863 0.92830242596 0.24701374818 -0.40917638011 0.90939546697 0.074663073947 -0.47844836659 0.87811240142 0.0024022865464 
-0.49401097412 0.86935458233 0.013257738773 -0.59175953723 0.79469631707 0.13519768391 -0.68826028951 0.67412233253 0.26806128902 
-0.74680224178 0.55680833494 0.36366315433 -0.73220201959 0.47365187805 0.48942221132 -0.71483013588 0.4211906096 0.55822607179 
-0.74567375472 0.34370505367 0.57082176518 -0.77205393236 0.26365876752 0.57828780018 -0.73559798112 0.092047681672 0.67113548146 
-0.61477278221 -0.22283869248 0.75656945708 -0.46699989354 -0.42066985088 0.77778401629 -0.24276391215 -0.58442295514 0.77428385781 
0.050401977585 -0.72284192835 0.68917282831 0.23376010823 -0.81368764058 0.53222987079 0.26418621919 -0.87800788076 0.3991338158 
0.29632884576 -0.92208977872 0.24887678707 0.40524956604 -0.9084569009 0.10236624657 0.50131651628 -0.86279683102 -0.065294554819 
0.4775173536 -0.84259941251 -0.2490048334 0.47302428027 -0.82226393425 -0.31643333059 0.46983902972 -0.76663443484 -0.43763332766 
0.40227381977 -0.71769868295 -0.5684051147 0.27473024465 -0.73871506373 -0.61548626897 0.093168407295 -0.84331976352 -0.52927443197 
-0.2162845327 -0.93604495254 -0.27756233127 -0.36835569255 -0.92656651349 -0.076082717185 -0.40690288451 -0.89001103737 0.20569490986 
-0.34340805635 -0.76991598861 0.53786641214 -0.27215214863 -0.59604713333 0.75542108975 -0.23582173526 -0.50082598061 0.83280336594 
-0.20109281024 -0.4412249283 0.87457546519 -0.10836218756 -0.39132397001 0.91385074646 -0.037196435788 -0.3145504435 0.94851169927 
-0.010261527164 -0.16949628399 0.98547740247 0.046059150591 -0.10875668047 0.99300077497 0.049212070766 -0.2429181233 0.96879768655 
0.098926260446 -0.25442597609 0.96201923977 0.076499531461 -0.24284193565 0.96704478489 -0.014791162891 -0.2807535638 0.95966590953 
-0.056223915623 -0.30868651623 0.94950066141 -0.10328463089 -0.3225446733 0.94090234283 -0.19288760775 -0.34190959375 0.91972398059 
-0.29524293519 -0.33337518463 0.8953728807 -0.44772436052 -0.24987291678 0.85854902158 -0.58951554526 -0.20285144757 0.78187128871 
-0.71435315375 -0.2659071578 0.64729665158 -0.72646216395 -0.33924705655 0.59763212679 -0.79181786604 -0.36613910558 0.48884212419 
-0.84154821035 -0.40582373684 0.35651606453 -0.86145444775 -0.40707815812 0.30361753512 -0.8946725754 -0.33880919464 0.29115170007 
-0.89552654782 -0.34609951676 0.27972723617 -0.90514404765 -0.38179198742 0.18694686772 -0.89449469138 -0.4185165731 0.15723589011 
-0.90111379109 -0.39852125923 0.17080615166 -0.9057279598 -0.40048723741 0.13880502694 -0.85871824353 -0.50395919175 0.092887627167 
-0.80942644007 -0.5728455162 0.12913888911 -0.82779854069 -0.54049773772 0.1503721103 -0.90577802339 -0.41212361762 0.098591562255 
-0.91597883131 -0.39519868999 0.069287632597 -0.87444148473 -0.48307397223 0.044627649962 -0.84935572189 -0.51692944821 0.10667147355 
-0.84781142948 -0.48873313304 0.20580501623 -0.84061348753 -0.49625136676 0.21703351255 -0.83276668737 -0.52151026852 0.18581357389 
-0.81058156412 -0.54919402764 0.20333088285 -0.77111685434 -0.5801833861 0.26223278867 -0.73537783895 -0.58814519246 0.33660758543 
-0.65291383263 -0.60226882617 0.45932100778 -0.48257120566 -0.63508311444 0.60315376913 -0.31019234894 -0.62365213585 0.71752262689 
-0.18188261145 -0.57951928631 0.79440299121 -0.18188261145 -0.57951928631 0.79440299121 
FrenetNormal 3 92 double
-0.851284401 -0.35569139124 0.38574408979 -0.851284401 -0.35569139124 0.38574408979 -0.18724632804 -0.92868386764 -0.32013292024 
-0.71002234509 -0.60200418419 0.36532072442 0.089541989212 -0.9274412874 -0.36309074706 -0.48437985027 -0.76403481689 0.42617714536 
0.030819664482 -0.9949897316 0.095108266111 -0.45531110491 -0.23542734402 0.85864181323 0.0089775847026 -0.66297311362 0.74858937582 
0.45358534074 -0.42668118816 -0.78243434379 0.61637201412 -0.65132881602 -0.44255656547 0.67294126906 -0.72710117334 0.13591884392 
0.85219958571 -0.35497643656 -0.38437949427 0.97243408318 -0.21832789589 0.081883354551 0.98016771267 0.048947457757 0.19202968889 
0.44755269677 -0.10239947017 0.88837544548 0.72775113626 0.27589484109 0.6279015212 -0.54068099404 -0.29674890868 0.78714938092 
0.6778681213 0.39465797863 -0.62027404429 0.50293088986 0.49503719184 -0.70851866504 0.48212628071 0.70113141211 -0.52532750966 
0.17329330768 0.69085904662 -0.70191395998 -0.26352417495 0.46560422991 -0.84484774386 0.13263043635 0.86543543854 -0.4831466331 
0.43980780753 0.897442126 0.034157325983 0.15284489282 0.9602125401 -0.2337312914 -0.3169584882 0.82882164322 -0.46107700061 
-0.34958886963 0.93686797531 -0.0081252121759 -0.83579382449 0.49718766084 -0.2329229762 -0.7861619941 0.5861416616 0.19592669948 
-0.92985989611 0.21784176903 0.29648867983 -0.19538796692 0.49691669218 0.84551602197 -0.23238726574 0.34369585199 0.90987324395 
-0.17031131985 0.2053881271 0.96374777384 -0.70955513851 -0.24194864407 0.66180991156 -0.03178499088 -0.09377414773 0.99508598803 
0.3712133467 -0.063390274273 0.92638130614 -0.64016201069 -0.56752782673 0.51778834088 0.22518586025 -0.37527031667 0.89914599358 
0.65530103632 -0.20784609238 0.72620971743 0.90249846755 0.41893132899 -0.099965282265 0.74284832813 0.41282947519 -0.52701820255 
0.74543316071 0.025275374749 -0.66610101212 0.45956109876 -0.11033512842 -0.88126599613 -0.070792722241 -0.19377762278 -0.97848792705 
-0.28427022001 -0.460622524 -0.840843227 0.02048109105 -0.78846380211 -0.61474007325 -0.58165616578 -0.61377476553 -0.53381330257 
-0.082679890507 -0.88198267511 -0.46397262474 -0.93320075011 -0.27678895889 -0.2291816577 0.44488706543 -0.85512984127 -0.2661361561 
-0.44422330714 -0.88216741168 -0.15635316171 0.12325562311 0.98707858591 0.1023909987 -0.21270222723 0.94517368606 0.24779924478 
-0.80084975621 -0.59417690471 -0.074789530618 0.9632018392 0.26863711347 -0.0087360305432 0.82269493441 0.54207137808 0.17126489999 
-0.85745194523 -0.47226493555 -0.20430857123 0.93407936646 0.29361587419 0.20318822698 0.9696491982 0.077108105622 0.23202321541 
0.95158823621 -0.18647717596 0.24434829969 0.71621255226 -0.67505592602 0.17702846304 0.79693513792 0.011853033233 0.60394858353 
0.29568114775 0.72367301332 0.62359444245 -0.44886252498 0.89275599611 -0.038847973999 0.5158544866 0.027583736732 0.8562320282 
-0.0087217622238 0.67011443559 0.74220655755 0.47276279326 -0.86117538412 0.18674126242 0.23263600254 -0.90976352525 -0.34381800193 
-0.025474993546 0.66742932842 0.74423727149 0.099725746328 0.23679048906 0.96642901437 -0.42791923445 0.69961104142 -0.57221457471 
0.41522822019 -0.90659033853 0.075362346302 -0.2390469959 0.75307185795 0.61297578298 -0.50061191899 0.86372085539 0.058086061398 
-0.49603927288 0.54930291363 -0.67246661541 0.55862082664 -0.76930192634 0.31002793128 0.41980643342 -0.84104005957 0.34119521781 
-0.36238023546 0.88899434803 0.27994573424 -0.46425914173 0.85996449423 0.21195404688 0.010067521292 -0.21792721497 -0.97591309756 
-0.023382290835 -0.3532635115 -0.93523160763 -0.17733347258 0.630774645 0.7554311264 -0.20503598355 0.60229188634 0.77149512577 
-0.49233758399 0.45105636108 -0.74441377104 -0.51597368499 0.32813963971 -0.79126198774 -0.40779133982 -0.012646241122 -0.91298756605 
-0.65787341601 0.15038758627 -0.73796080004 -0.84410075715 0.15347264687 -0.51375096929 -0.82884351876 -0.19224702055 -0.52541365085 
0.98278820281 -0.080562069878 0.16624410161 0.98278820281 -0.080562069878 0.16624410161 
FrenetBinormal 3 92 double
0.084837136861 -0.81879619737 -0.56778116152 0.084837136861 -0.81879619737 -0.56778116152 0.80032591398 0.044737922765 -0.5978937612 
0.33906866166 -0.74696421075 -0.57190638267 0.752649161 0.30176903178 -0.58519628494 0.49098978708 -0.64059648994 -0.59039407692 
0.64505691803 -0.05288577608 -0.76230221513 0.3606556245 -0.93050840307 -0.063887653961 0.49012642973 -0.64960950744 -0.5811915095 
-0.21110126795 0.80151953714 -0.55946642996 -0.0047342616216 0.5589333804 -0.82919904911 0.36052002767 0.16195259536 -0.91858405522 
-0.16005394313 0.5225637244 -0.8374424692 0.16464308527 0.39422366654 -0.90414620235 0.1576575789 0.39448554435 -0.90527633522 
0.84997515814 0.3574478346 -0.38700552462 0.55041164016 0.31125860841 -0.77470323677 0.69191850906 0.37531146489 0.61675771673 
-0.54447035509 -0.29743518637 -0.78427312993 -0.62998505547 -0.35127758587 -0.69262030547 -0.54208119625 -0.23232267162 -0.80757300161 
-0.64207152342 -0.46117052796 -0.61242624287 -0.62804077235 -0.74757380874 -0.21609763709 -0.68660545016 -0.2713300059 -0.67450202646 
-0.50053945295 0.27652209055 -0.82036320583 -0.61690450174 -0.092064825808 -0.78163476355 -0.59869268154 -0.55188939837 -0.58050423343 
-0.70699508378 -0.26948342059 -0.65386285835 -0.28872094203 -0.75884208269 -0.5837798482 -0.56834408767 -0.5611486096 -0.60174515865 
-0.36444507714 -0.65577779033 -0.66116206444 -0.95245984387 -0.3016392292 -0.042825474053 -0.93605651555 -0.33312958838 -0.11323814302 
-0.9397783087 -0.32797279951 -0.096179900601 -0.57645840668 -0.34083267573 -0.74264984516 -0.86467997829 -0.49677765409 -0.074434518463 
-0.79635282899 -0.53479706728 0.28251419183 -0.60534339869 -0.042357860114 -0.79483657524 -0.85354707808 -0.52100271856 -0.0036814067593 
-0.63934053972 -0.66461161769 0.3866976492 0.33169234049 -0.52801192809 0.78178231948 0.66294495193 -0.34406918036 0.66492134109 
0.63051598221 -0.35097151203 0.69229227492 0.80815696512 -0.35958400343 0.46645649765 0.91072412566 -0.41271126259 0.015842369503 
0.89513202872 -0.4416517416 -0.060682701795 0.96203624303 -0.15183098367 0.22678981347 0.77850126139 -0.610289992 -0.14656708934 
0.97607669646 -0.16561136269 0.14087994596 0.34262807284 -0.87764082786 -0.33519036527 0.89481390478 0.41208126997 0.17174720597 
0.8958573293 -0.43937645305 -0.066241814961 -0.9913055059 0.11767688684 0.058868873653 -0.97587700794 -0.21826013964 -0.0051552715372 
0.59063801349 -0.76303422505 -0.26253668015 -0.25766264504 0.93212761763 0.25445641237 -0.5682906531 0.79204548953 0.22295666871 
0.51148316975 -0.82563821699 -0.23813126992 -0.34180114421 0.89986368532 0.2709563169 -0.15024913716 0.93656402331 0.3166591654 
0.085506946702 0.9241684095 0.37229197271 0.53533398638 0.6941635414 0.48120110226 -0.13177939079 0.97913778184 0.154671899 
-0.63424934418 0.6368600735 -0.43833436574 -0.52036060383 -0.2964762487 -0.8008287432 -0.32698412143 0.93015122041 0.16703320478 
-0.54011160006 0.62149315188 -0.56747310214 0.18544965828 0.30440816508 0.93431477205 0.38136789738 -0.23987216962 0.8927596928 
-0.44427832139 0.65935818495 -0.60651756535 -0.41324209433 0.89340088574 -0.17625501083 0.12947731805 -0.57912716113 -0.80488965415 
0.12481770971 0.13883358393 0.9824183301 -0.35001913745 0.52200838062 -0.77781350849 -0.10950198535 0.0033789073311 -0.99398083392 
0.31428311738 -0.60837021923 -0.72877417523 -0.051887841367 0.34064166165 0.93876030501 -0.057695154085 0.35043650209 0.93480774879 
-0.17223050121 0.23131589786 -0.95751219828 -0.14076767778 0.16462261698 -0.97626013689 0.52772483617 -0.82782345615 0.19030192521 
0.52978207644 -0.79771223891 0.28807314241 -0.5117829658 0.5965382873 -0.61823965232 -0.51425663813 0.60437697133 -0.60849698985 
0.31711390904 -0.70351551449 -0.63600683138 0.37302808655 -0.74546067324 -0.55239336645 0.54122606843 -0.80865648156 -0.23054075057 
0.37537460712 -0.78399989472 -0.49440678537 0.23370696021 -0.75704397786 -0.61013561799 0.46561693276 -0.75769327339 -0.45727647588 
-0.032342913826 0.81096679938 0.58419755754 -0.032342913826 0.81096679938 0.58419755754 
SiphonLabel 1 92 int
0 0 0 0 0 0 0 0 0 
0 0 0 0 0 0 0 0 0 
0 0 1 1 1 1 1 1 1 
1 1 1 1 1 1 1 1 1 
1 1 1 1 1 1 1 1 1 
1 1 1 1 0 0 0 0 0 
0 0 0 0 0 0 0 0 0 
0 0 0 0 0 0 0 0 0 
0 0 0 0 0 0 0 0 0 
0 0 0 0 0 0 0 0 0 
0 0 
