# vtk DataFile Version 5.1
vtk output
ASCII
DATASET POLYDATA
POINTS 103 float
72.4738 76.0081 37.6509 72.8962 75.5529 37.3374 73.221 75.1623 37.1226 
73.7462 74.5832 36.7529 74.2275 73.905 36.2935 74.6533 73.2617 35.6737 
75.1053 72.6784 35.1113 75.3541 72.3079 34.8479 75.8385 71.6668 34.3363 
76.2896 71.1107 33.6625 76.5416 70.7661 33.236 76.7327 70.3566 32.7308 
76.9788 69.9426 32.2176 77.1589 69.473 31.6917 77.2618 68.8664 30.9575 
77.2999 68.3413 30.3297 77.292 67.7967 29.5527 77.163 67.2138 28.8171 
76.8837 66.6074 28.1843 76.5028 65.9109 27.6453 76.0942 65.2252 27.1791 
75.5887 64.7933 26.603 75.0771 64.474 26.0243 74.5285 64.1707 25.4524 
73.8771 63.907 24.8218 73.4869 63.7541 24.325 73.0546 63.5688 23.6457 
72.5745 63.4957 22.791 72.1433 63.4836 22.1134 71.7453 63.5064 21.4945 
71.2692 63.6441 20.6425 70.987 63.7989 19.9337 70.7673 64.2152 19.1442 
70.7001 64.5218 18.7327 70.7558 65.128 18.0155 70.9608 65.7913 17.4377 
71.1709 66.2384 17.1658 71.6299 66.8753 16.9788 71.9906 67.3064 16.976 
72.6818 67.9319 17.1269 72.9922 68.1867 17.2294 73.5652 68.5242 17.6102 
74.1942 68.8587 18.1428 74.7992 69.1806 18.8416 75.1964 69.4538 19.3466 
75.5917 69.8288 20.0743 75.8681 70.1988 20.7971 76.0348 70.5914 21.521 
76.0176 70.8652 21.9466 75.9083 71.237 22.3977 75.779 71.8569 22.9978 
75.737 72.3496 23.1977 75.6413 73.1316 23.2823 75.5261 73.5706 23.2804 
75.3214 74.289 23.2307 75.0064 75.0945 22.9035 74.7552 75.6811 22.1711 
74.6633 75.9991 21.451 74.6542 76.1411 20.6253 74.6574 76.1382 20.1203 
74.6383 75.9808 19.1445 74.6735 75.7982 18.5025 74.6572 75.5689 17.7324 
74.6244 75.3455 16.7966 74.5173 75.1116 15.873 74.4246 74.7875 15.0024 
74.4118 74.5106 14.0557 74.3811 74.3694 13.3683 74.3421 74.3248 12.405 
74.3355 74.3362 11.7524 74.3323 74.2871 11.0469 74.3055 74.2907 10.1526 
74.2072 74.3464 9.32361 74.0745 74.45 8.51922 73.8056 74.6037 7.59231 
73.5092 74.86 6.77312 73.2387 75.0701 6.16976 72.7525 75.3281 5.40722 
72.1328 75.6014 4.7217 71.5098 75.9266 4.23195 70.8675 76.1889 3.79632 
70.3119 76.5102 3.44339 69.8141 76.8449 3.16963 69.1139 77.3671 3.01487 
68.3375 77.8883 2.96465 67.676 78.2364 3.03806 66.9919 78.6975 3.21505 
66.1524 79.1385 3.40083 65.2995 79.6238 3.53651 64.5944 80.0526 3.69628 
63.9093 80.4646 3.88156 63.113 80.9658 4.17808 62.5108 81.3311 4.36109 
61.8135 81.78 4.55033 61.2249 82.2631 4.66396 60.7273 82.8282 4.69713 
60.1349 83.4223 4.80572 59.4986 84.0528 4.84545 59.0415 84.4405 4.69574 
58.4719 84.9442 4.46618 58.1928 85.1532 4.31406 57.4713 85.6724 3.90366 
56.8518 86.2104 3.47931 
LINES 2 103
OFFSETS vtktypeint64
0 103 
CONNECTIVITY vtktypeint64
102 101 100 99 98 97 96 95 94 
93 92 91 90 89 88 87 86 85 
84 83 82 81 80 79 78 77 76 
75 74 73 72 71 70 69 68 67 
66 65 64 63 62 61 60 59 58 
57 56 55 54 53 52 51 50 49 
48 47 46 45 44 43 42 41 40 
39 38 37 36 35 34 33 32 31 
30 29 28 27 26 25 24 23 22 
21 20 19 18 17 16 15 14 13 
12 11 10 9 8 7 6 5 4 
3 2 1 0 
CELL_DATA 1
FIELD FieldData 2
Length 1 1 double
82.936866644 
Tortuosity 1 1 double
1.1302062646 
POINT_DATA 103
FIELD FieldData 7
MaximumInscribedSphereRadius 1 103 double
1.6074427617 1.6338288354 1.6367073242 1.6473567449 1.6143970609 1.6480920614 1.7293407357 1.7483289659 1.7498430116 
1.7635063042 1.7825928735 1.7976036483 1.7970810537 1.7947920444 1.8123739106 1.8265023354 1.8389707304 1.9130024657 
2.0138435433 2.0623693388 2.0587918415 2.0509011742 2.0676876506 2.0715229725 2.0420347089 2.0105512489 2.0103528882 
2.0396998605 2.0517494244 2.0798383099 2.1835274416 2.3116484838 2.373258164 2.3865768021 2.42242678 2.4550557829 
2.4837793879 2.4689382228 2.4543935885 2.4350310699 2.4595626211 2.4558886268 2.513339755 2.6131057547 2.6799533526 
2.6824849792 2.7274702583 2.8190610532 2.8521798732 2.8864769312 2.8977671278 2.797903907 2.5828958897 2.4849806687 
2.4247230139 2.3629843174 2.2068303288 2.0957473874 2.0301379143 2.0196610328 2.0783276528 2.1094641903 2.1518608386 
2.1926501554 2.2691288523 2.2229951296 2.1892898472 2.1889867371 2.1975139143 2.206376493 2.2241755773 2.1914732632 
2.174111036 2.1672047509 2.1499434667 2.1248720956 2.0801849578 2.057344288 2.0429700631 2.0082991127 1.9853953484 
2.0042064806 2.0560633697 2.0378085627 2.0108847088 2.008813661 1.9028697159 1.8820226516 1.9534991189 2.0258664 
2.0877908102 2.170978001 2.190586336 2.2001459134 2.2055219122 2.1760704364 2.0839515032 1.9877195747 1.9074426228 
1.8610276453 1.886014963 1.9915271303 2.100128311 
Curvature 1 103 double
0 0.1340920425 0.080912798434 0.13633642718 0.18078577079 0.066830333113 0.18135709946 0.078978875129 0.19780493301 
0.05906013629 0.22749211162 0.10379590272 0.16440034357 0.17563149897 0.069270817718 0.11487192263 0.14949249213 0.2102122881 
0.1827228804 0.079444847983 0.36538977059 0.14172484668 0.05476048718 0.10020364952 0.1750656556 0.13154172826 0.17924822141 
0.090573406537 0.060102054957 0.14628705866 0.16164527516 0.34525503016 0.26408595041 0.27520030098 0.24867161076 0.30673457786 
0.475563059 0.35421523456 0.28867355562 0.14897471796 0.52627681844 0.1542160783 0.16483593531 0.095493938754 0.1956743631 
0.13818480723 0.15431373113 0.36813702463 0.34908823595 0.15923451587 0.56711457816 0.42804043051 0.28183869262 0.10916833273 
0.3773045406 0.54737920678 0.33816539857 0.33206495559 0.26501214753 0.20999693061 0.16673738643 0.10060804248 0.064321037622 
0.082345137579 0.11488135447 0.11731932582 0.10378870348 0.18829208441 0.08721749286 0.12835894842 0.097209496706 0.12520759123 
0.09037860612 0.13588941462 0.15225226682 0.092548177387 0.17592353273 0.1699994381 0.20990630856 0.10945121447 0.16962296072 
0.13821498804 0.33691942924 0.14457316924 0.221039363 0.19673894736 0.12038209475 0.066628364916 0.066659052102 0.044399230666 
0.088634018332 0.062446864575 0.050108489795 0.16926980704 0.25324842232 0.13132572502 0.097216549898 0.40202267877 0.074142315076 
0.24022624015 0.040117857301 0.098332833063 0 
Torsion 1 103 double
0 0 -1.305131042 0.25476261631 0.47425588156 2.5979576573 0.10791070677 -2.0021355771 -0.28679884778 
-2.2772849791 -0.036536840245 0.47003077937 0.63542410049 0.26561885135 0.33588239473 -0.42092989087 -0.43833361007 -0.20983419906 
-0.21606618434 2.4370130672 0.11401781172 -0.22340731949 -0.67407125583 1.1252642673 0.47433642258 -0.5969074349 -0.61186112336 
-0.75212398614 1.4952419985 0.5040700451 -0.5577217343 -0.15263688816 0.51430302856 0.13635053295 -0.27259189323 0.077076323822 
-0.077587728438 0.0073409944945 0.23392046253 -0.38508384809 -0.068449244341 -0.67323526892 -0.45528808194 -0.12850498035 0.18242168323 
-0.19440434927 -0.29503209366 -0.28500614289 -0.71474472054 -1.0037409247 0.23176597486 0.69801914231 0.66070453702 -1.1969904644 
-0.22568164822 -0.18642515408 -0.12628404324 0.24294993129 0.43811369173 -0.1299671113 -0.15857818036 1.4725732992 0.1598145781 
-1.1289870986 -0.83167252949 -0.86500493262 -0.23898662498 0.23567935617 0.9790294511 0.39124764275 -0.24721372809 -0.13329148159 
-0.29366236332 0.2481640689 0.12892678175 -1.2676810871 0.034327177013 0.50995554003 -0.041640851813 -0.31467547566 0.15340459075 
-1.1135704991 -0.27517915814 -0.86178438677 0.42955236031 0.45378675682 -0.83069487815 -1.2969072253 -0.67838709588 -0.084359705043 
0.082478017207 -0.44175679869 -1.255503932 -0.083553812099 -0.13750069414 -0.72244155552 -0.073679322964 -0.045592993938 -0.39696228317 
0.22836294588 -1.3627132075 0 0 
FrenetTangent 3 103 double
-0.59961743391 0.67877868998 0.42393209713 -0.59961743391 0.67877868998 0.42393209713 -0.60033048671 0.68492028079 0.41290133892 
-0.5556456588 0.69407270939 0.45773461299 -0.46947061468 0.68389578239 0.55846566661 -0.4580175638 0.64006289431 0.61687875841 
-0.48560404466 0.66086281959 0.57223163622 -0.49868227282 0.68808688349 0.52711709471 -0.48543119988 0.62128209817 0.6151138957 
-0.44327091531 0.56775344269 0.69366196664 -0.34670179122 0.59006529024 0.72912332374 -0.31664518822 0.59646705635 0.73753838915 
-0.2982868059 0.61835077493 0.72709511109 -0.16835148239 0.64014862632 0.74957822447 -0.079347094626 0.63707019941 0.76671089701 
-0.017099512055 0.60572796531 0.79548805065 0.072374022099 0.59607331721 0.79966155431 0.21973807438 0.6399773405 0.73630440873 
0.35254575473 0.695781394 0.62577930821 0.41935936015 0.73417775978 0.53396698784 0.51332347713 0.62759196601 0.58534377251 
0.59395186547 0.43868751227 0.67436966723 0.62961084704 0.36975167291 0.68328170009 0.67004353655 0.31657594305 0.67143229845 
0.65489714666 0.26193583303 0.70887188311 0.5578060769 0.22941272972 0.79763536783 0.5059359175 0.14328068295 0.85058773403 
0.51055268854 0.047710970073 0.85852176185 0.53879791429 -0.0069328973661 0.84240651855 0.50864676422 -0.093396194282 0.85589463145 
0.43090646893 -0.16626685867 0.88694698079 0.29874388899 -0.33991181673 0.89174662637 0.20052829921 -0.50518649512 0.83938966301 
0.007883454515 -0.62880535466 0.77752278236 -0.14232363126 -0.69292927875 0.70681892917 -0.28457703857 -0.76133250849 0.58257078595 
-0.49417315551 -0.80058654507 0.33890127799 -0.60286553368 -0.78552757297 0.13964089804 -0.70206870899 -0.70521576605 -0.098844580874 
-0.73796677597 -0.64850109864 -0.18668519657 -0.75620630418 -0.50698258556 -0.41366735845 -0.72738468268 -0.40666299869 -0.55275376878 
-0.66240905663 -0.35237748599 -0.6610932983 -0.59811323651 -0.35516815036 -0.71841223631 -0.49458334501 -0.40454310492 -0.76924130876 
-0.38087042302 -0.42241449635 -0.82249845844 -0.26150241445 -0.45008207612 -0.85383992176 -0.11176731218 -0.49844523804 -0.85968622916 
0.11536468538 -0.58897586979 -0.79987399894 0.16290129727 -0.67703914701 -0.71769154988 0.12404535382 -0.80564291812 -0.57926871025 
0.10481710947 -0.97061700658 -0.21660101595 0.1698543697 -0.98321769713 -0.066576671168 0.26615816521 -0.96297366168 0.042913377938 
0.31429280586 -0.92155275697 0.22794856505 0.30792358437 -0.75703637843 0.57626295033 0.19658419812 -0.51834890481 0.83226742453 
0.062520273215 -0.28467451091 0.95658331486 0.0044019816172 -0.1039369442 0.99457414716 0.01065906801 0.10757412126 0.99413992612 
-0.0097422582578 0.20563041269 0.97858122901 -0.012871717867 0.28002987498 0.95990498905 0.027806322233 0.25640151396 0.96617031215 
0.072872344865 0.2382001361 0.96847835108 0.10572700268 0.29532177057 0.94952980613 0.05504522097 0.31350026363 0.94799135458 
0.025827897519 0.24777508759 0.96847324469 0.041928986865 0.11173567924 0.99285300928 0.028193097808 0.020530237416 0.99939164425 
0.0072048236203 0.027763560389 0.99958855297 0.018688819449 0.028450283931 0.99942048677 0.072372064124 -0.034297297706 0.99678783084 
0.13938686035 -0.096128551727 0.98556106087 0.22359895638 -0.14329366523 0.96409046889 0.30064096075 -0.21802615864 0.92848242141 
0.3541475776 -0.29133638989 0.88865212609 0.46416566858 -0.28716436363 0.83790623602 0.58268685181 -0.27992509029 0.7629665632 
0.68575891635 -0.33029716996 0.64856648708 0.75583367773 -0.35097697702 0.55274823673 0.77368945965 -0.37688166724 0.50927873402 
0.75773486232 -0.47182399738 0.45079928341 0.78095054444 -0.55863891498 0.27935427295 0.81148361234 -0.57341498859 0.11264811475 
0.8556839054 -0.51731488061 -0.013797403557 0.84625229579 -0.50897497883 -0.15748499228 0.84298340463 -0.49909358766 -0.20071016484 
0.8652835494 -0.47357214483 -0.16435876243 0.85118537201 -0.49942694285 -0.16141930256 0.83700313937 -0.50622983936 -0.20774285652 
0.8204034542 -0.50571001134 -0.2668249553 0.81610566415 -0.50563905497 -0.27982260635 0.82350998783 -0.5159329198 -0.23589091168 
0.79535172034 -0.57647320714 -0.18733468021 0.71617526807 -0.69117547533 -0.096795907467 0.68232391412 -0.7256446271 -0.088735288271 
0.7057108111 -0.70335992427 -0.085188426551 0.72984204127 -0.67966247256 0.073413337985 0.72735962372 -0.63147029115 0.26868801458 
0.72409226471 -0.60799419532 0.32562777929 0.73605896054 -0.53571153456 0.41379990135 0.70552009305 -0.55621254845 0.43916853172 
0.70552009305 -0.55621254845 0.43916853172 
FrenetNormal 3 103 double
-0.21629377597 -0.64746452964 0.73075761052 -0.21629377597 -0.64746452964 0.73075761052 0.31660502374 0.67764173004 -0.66374915793 
-0.81761565521 -0.35625025659 -0.45231669771 -0.43992009622 0.36722676114 -0.81952108871 0.88892448621 0.33427392298 0.3131680096 
-0.044011517856 -0.67224560506 0.73901883113 0.48214469327 0.72556882402 -0.49100547488 -0.26216859051 0.56774914933 -0.78033873003 
-0.87774499723 -0.11791814184 -0.46439103315 -0.93791700411 -0.22676550424 -0.26246733033 0.94812586445 0.22211245395 0.22742779723 
-0.87235731767 -0.48574084355 0.055213614449 -0.95296602163 0.088721340638 -0.28980042329 -0.99190525815 -0.12694859473 0.0028307491004 
-0.53996379467 0.6640161509 -0.51722495279 -0.90721890044 -0.29376979943 0.30108665134 -0.86155255405 -0.22675996866 0.45421042834 
-0.54649053483 -0.38976131448 0.74123829709 -0.60449616234 -0.21299323538 0.76760554414 -0.41468703489 0.77854188852 -0.47107026113 
-0.31104306462 0.89828065991 -0.31039340841 -0.74583179521 0.5339264949 0.39831825379 -0.48266853928 0.87299653589 0.07005804387 
0.63703977298 0.31328417721 -0.70429635236 0.79837253787 0.11434212599 -0.59120822812 0.2199810727 0.93206728827 -0.2878522152 
-0.60124389661 0.73358934472 0.31678454839 -0.08558476014 0.99434197961 0.062922781321 0.46471044281 0.86663991441 -0.18160248646 
0.84533451766 0.41833890822 -0.33226813138 0.43385101803 0.88065022658 0.19033778545 0.57483709762 0.75447347115 0.31675241519 
0.95151754635 0.24381512411 0.1875327818 0.74106550661 0.39879093414 0.54017377367 0.66226421433 0.28324819517 0.69366891984 
0.60293281655 -0.034771279028 0.79703386182 0.3175626665 -0.075691042384 0.94521152075 0.40089005444 -0.50613190779 0.76362140892 
0.18308266212 -0.45865857377 0.86954761315 -0.038851572805 -0.59629219495 0.80182677277 -0.32279407042 -0.50805444993 0.79855160385 
-0.5842051545 -0.30943412295 0.7503031794 -0.60956179371 0.7835881381 0.12010016433 -0.86384783685 0.13137584947 0.48632016301 
-0.92441685953 0.15493194132 0.34849614541 -0.94993926018 0.27671193616 0.14507207294 -0.94703952218 0.31549935882 -0.059802157279 
-0.78558758651 0.43870426731 -0.43633783901 0.30657334393 0.72613533308 -0.61541877031 0.17494815032 0.59238933944 -0.78642737441 
-0.14821268933 0.20012213757 -0.96849580731 -0.76760351348 -0.089633760435 -0.6346263744 -0.29450940492 -0.12362910953 -0.94761809485 
-0.21326687711 -0.30251915203 -0.92897761102 0.17020126502 -0.55209066476 -0.81622755851 0.48542813782 -0.68604690581 -0.54194018677 
0.39546614357 -0.87293899339 -0.28562920563 0.097676315 -0.98978313568 -0.10386857951 -0.16460419333 -0.98044495478 0.10785708222 
0.5237578703 -0.83259649246 0.18016873772 -0.98613052456 -0.1624185629 0.034158438953 -0.24396276347 0.93905727931 -0.24218504539 
-0.98226885319 -0.15104217323 0.11105927223 0.11422466158 -0.95216790308 0.28342373054 0.76868846307 0.59263852971 -0.24061924247 
-0.35209991632 0.90896899102 -0.2231614265 0.02245224024 0.99337058294 -0.11274210327 0.42843737863 0.90305191272 -0.030637485578 
0.065339699865 -0.9974913601 0.027234356095 -0.32712840406 0.94475146467 -0.02077684419 -0.81123097017 0.57938703805 0.078835101204 
-0.58583491731 0.79441113275 0.16033839784 -0.93266313169 0.25583771886 0.25433549574 -0.36043972352 0.87534710509 0.32225867143 
-0.85682908397 0.27967880249 0.43315550129 -0.88442268766 -0.20199747861 0.42070598782 -0.78328050247 0.056860943982 0.61906258771 
-0.44864952768 0.50983085164 0.73402050655 -0.62137506546 -0.65063159534 0.43654502078 0.19185070065 0.9054555248 0.3786074501 
0.035422952496 0.71953515186 0.69355200214 -0.11890451458 0.30610716833 0.94454227958 -0.30221968642 -0.24681553109 0.92073088074 
-0.28740559724 -0.49722786702 0.81863451609 0.45207212699 0.52954963504 0.71777989386 -0.53101307815 -0.83172031697 -0.16206919875 
0.12063285626 0.51495913882 -0.84868415758 0.36098295551 0.33378393926 0.87079250555 0.10713245885 -0.22069842793 0.96944047789 
0.34907963283 0.073390521854 0.93421477255 -0.38345020665 -0.11152972463 -0.91680262846 0.1970984323 0.65011502558 -0.73382740579 
0.4024785344 0.73334818761 -0.54791556382 0.54463537101 0.64020633084 -0.54176393992 -0.38012207179 -0.45584447018 0.80480620621 
-0.11010716143 0.0098988347847 -0.9938704272 -0.12177225596 -0.23492696485 -0.96435514146 0.4361305189 0.12305763735 -0.89142974394 
-0.13530169402 -0.58817317913 -0.79733666851 -0.11440022453 -0.70095354108 -0.70397210305 0.7086719387 0.55812467453 -0.43160274671 
0.7086719387 0.55812467453 -0.43160274671 
FrenetBinormal 3 103 double
0.77050368944 0.34648112919 0.53504662571 0.77050368944 0.34648112919 0.53504662571 -0.73441443727 -0.26774221682 -0.62365819137 
-0.15087260256 -0.625578795 0.76543362158 -0.76555055411 -0.63042133905 0.12845732511 -0.0057592599481 0.69179508219 -0.72207090731 
0.873070271 0.3336857506 0.35553076061 -0.72031415752 0.0092909837695 -0.69358574964 -0.8340408745 -0.54006430906 -0.1127224988 
-0.18186427765 -0.81470935931 0.55061242664 0.010467156707 -0.77485505699 0.63205227576 -0.028163272748 0.77129314044 -0.6358566832 
0.38732117388 -0.61781724811 0.68431290811 -0.25201892786 -0.76311090933 0.59510352046 0.099136256834 -0.76027995851 0.64198628277 
-0.84151453174 -0.43837904076 0.31571681851 0.41438613346 -0.74725892798 0.51950767747 0.45764874661 -0.73417226879 0.50154631339 
0.75964438138 -0.60330288371 0.24282924935 0.67729027512 -0.64468356481 0.35448693136 -0.7513545574 -0.00092304899804 0.65989808081 
-0.74193894186 -0.025399264027 0.6699861819 -0.21754336246 -0.76039871017 0.6119384667 -0.56397937933 -0.3710211862 0.73774693431 
-0.4065587964 0.91282125506 0.038305370139 -0.22683401717 0.96658971527 -0.11937609052 -0.83404866467 0.33274797675 0.44004728033 
-0.61468831859 -0.67791617229 0.40322194179 -0.83807640248 -0.10599982317 0.53515603434 -0.72479146904 0.49011469029 0.48421577501 
-0.31579925315 0.89294338543 0.32081605654 -0.85001493101 0.33002293143 0.41055996126 -0.79331627515 0.41899449457 0.44169322058 
-0.30749343105 0.73834816395 0.60024143364 -0.65617520442 0.60067862081 0.45674861314 -0.69312482248 0.5832180308 0.42359734302 
-0.62631055483 0.59820744062 0.49988293319 -0.7319201467 0.61418018383 0.29508575134 -0.58854625316 0.49648888732 0.63805336193 
-0.64952734846 0.60751842587 0.45720409648 -0.65317882758 0.62241808793 0.43122284612 -0.60557040177 0.75927984393 0.23828262021 
-0.46895477303 0.88322173372 -0.00088877817656 0.52028355341 0.50975014938 -0.68517137218 -0.095677738343 0.90503329355 -0.41443999318 
-0.019778540842 0.89306331625 -0.44949607617 0.17097335815 0.84903276093 -0.49991147383 0.30103855461 0.8074729093 -0.50730985539 
0.6079005949 0.67870906186 -0.41208115229 0.93780379192 -0.11977258231 0.32585054302 0.97673225343 -0.003789327483 0.21442888355 
0.98338515968 0.13361795014 -0.12288153286 0.61800836498 0.15889854952 -0.76994604471 0.91783660937 0.23957790004 -0.31650969702 
0.92506068521 0.24335710134 -0.29161627169 0.93606335019 0.34941639861 -0.041153187112 0.85188859369 0.5105429031 0.11675516275 
0.91635023038 0.39615393051 0.058002746637 0.99520850079 0.097603565266 0.005795170533 0.98630210575 -0.16478925657 0.0072565220005 
0.85181147075 0.51429487079 -0.099589176966 0.16547177223 -0.94615193259 0.27823661342 -0.96938587698 -0.22897530392 0.088664151208 
0.17273540864 -0.95939926885 0.22296977719 0.98781300234 0.078494179242 -0.13440288774 -0.63725039851 0.74195495672 -0.208362117 
-0.93560599006 -0.33523555796 0.11071834556 -0.9988682881 0.027018936455 0.039142305811 -0.90313153075 0.42904050191 0.0166639098 
0.99783706793 0.065116597308 -0.0090008120153 -0.94479507581 -0.32655053413 0.026963185525 -0.58022977981 -0.81433061806 0.014108405778 
-0.79835377673 -0.59972514847 0.054415011466 -0.28309537172 -0.95604078737 -0.076439671621 -0.88300521993 -0.43154610386 0.18457990632 
-0.37473112246 -0.91482395867 -0.15057792167 0.048443179724 -0.93634056139 -0.34773497299 -0.21667414977 -0.95833646329 -0.18612774094 
-0.57310410046 -0.79434015524 0.20143338304 0.20641821536 -0.67341940034 -0.70985761362 -0.6038194504 -0.19521911154 0.77284640764 
-0.65160040889 -0.50955988925 0.56193026827 -0.61317041966 -0.7708572917 0.17262987076 -0.50015758321 -0.78120249902 -0.37358405679 
-0.4303522705 -0.69652692881 -0.57414907535 -0.2819358861 -0.67861745848 0.67822599565 -0.086047024063 0.24320136739 -0.96615164677 
0.48655122355 0.71452537323 0.50271403191 -0.38101806822 -0.79947545969 0.4643966204 -0.53660821924 -0.83368072645 -0.1304916296 
-0.4528593405 -0.85957618379 0.23674290271 0.43236267642 0.85550585422 -0.28490744011 0.53196194219 0.55782046912 0.63706578647 
0.45324019053 0.36038739875 0.81528783415 0.43642330145 0.33527945993 0.83493855205 -0.62445278986 -0.51540827911 -0.58686712215 
0.69989189458 0.71076496115 -0.070459250004 0.67268277254 0.69488721717 -0.25422360815 0.52984728769 0.76557304634 0.36491062255 
0.67630159233 0.53328732388 -0.50815429389 0.66718048176 0.47082617279 -0.57722865467 -0.0050479301612 0.61573082481 0.78794039735 
-0.0050479301612 0.61573082481 0.78794039735 
SiphonLabel 1 103 int
0 0 0 0 0 0 0 0 0 
0 0 0 0 0 0 0 0 0 
0 0 0 1 1 1 1 1 1 
1 1 1 1 1 1 1 1 1 
1 1 1 1 1 1 1 1 1 
1 1 1 1 1 1 1 1 1 
1 0 0 0 0 0 0 0 0 
0 0 0 0 0 0 0 0 0 
0 0 0 0 0 0 0 0 0 
0 0 0 0 0 0 0 0 0 
0 0 0 0 0 0 0 0 0 
0 0 0 0 
