# vtk DataFile Version 5.1
vtk output
ASCII
DATASET POLYDATA
POINTS 88 float
114.095 81.0637 34.288 113.589 81.2231 34.0211 112.834 81.3256 33.6588 
111.952 81.3241 33.4668 111.13 81.2499 33.1694 110.309 80.9441 32.806 
109.614 80.528 32.5866 109.168 80.1999 32.4055 108.548 79.5684 32.0979 
108.244 79.2384 31.853 107.938 78.547 31.4124 107.695 77.6948 31.0709 
107.654 76.9569 30.8967 107.76 76.1811 30.7445 107.989 75.4223 30.6967 
108.275 74.7592 30.7441 108.505 74.3803 30.7251 108.823 73.8 30.6158 
109.481 73.1623 30.485 110.049 72.6418 30.2439 110.527 72.2917 30.0894 
111.057 71.9282 29.8419 111.878 71.5786 29.4065 112.617 71.2493 29.0231 
113.051 71.1437 28.8266 113.664 71.1682 28.465 114.375 71.3947 27.8692 
114.92 71.7359 27.3158 115.17 72.3586 26.7336 115.259 72.9736 26.4214 
115.249 73.921 26.1909 115.022 74.7575 26.1806 114.721 75.6852 26.3621 
114.375 76.4952 26.6192 114.126 76.9771 26.7431 113.802 77.5082 26.8065 
113.499 77.985 26.8067 113.069 78.535 26.6687 112.605 79.1748 26.3668 
112.272 79.5542 26.1529 111.891 80.0341 25.79 111.711 80.4183 25.3368 
111.526 80.9469 24.5146 111.396 81.3341 23.6462 111.164 81.6256 22.876 
111.028 82.031 21.9914 110.956 82.29 21.2576 110.843 82.5808 20.5236 
110.77 82.8321 19.6956 110.722 83.1088 18.8439 110.773 83.5234 18.0666 
110.938 83.919 17.3086 111.154 84.3052 16.4555 111.472 84.6151 15.7036 
111.768 85.0165 14.9809 112.197 85.3762 14.2729 112.813 85.6803 13.5812 
113.632 85.8765 13.0846 114.391 86.0226 12.6213 114.824 86.1546 12.4306 
115.603 86.3433 12.1269 116.41 86.6316 11.9139 117.321 86.983 11.7355 
118.181 87.3291 11.7515 119.021 87.7272 11.8644 119.833 88.099 12.0718 
120.725 88.4846 12.2087 121.586 88.877 12.3383 122.309 89.1639 12.4938 
122.772 89.4293 12.5778 123.374 89.7683 12.6203 124.171 90.2614 12.6483 
124.973 90.8551 12.6598 125.684 91.4512 12.7107 126.38 92.0771 12.7281 
126.929 92.6305 12.5932 127.551 93.3038 12.339 128.079 93.7999 12.0077 
128.473 94.1495 11.7342 128.837 94.4644 11.3901 129.258 94.8141 10.9415 
129.526 95.0241 10.6411 129.821 95.3556 10.1905 130.028 95.7685 9.66499 
130.158 96.2432 8.86733 130.081 96.4904 8.15085 129.915 96.7317 7.31577 
129.738 97.0146 6.44198 
LINES 2 88
OFFSETS vtktypeint64
0 88 
CONNECTIVITY vtktypeint64
87 86 85 84 83 82 81 80 79 
78 77 76 75 74 73 72 71 70 
69 68 67 66 65 64 63 62 61 
60 59 58 57 56 55 54 53 52 
51 50 49 48 47 46 45 44 43 
42 41 40 39 38 37 36 35 34 
33 32 31 30 29 28 27 26 25 
24 23 22 21 20 19 18 17 16 
15 14 13 12 11 10 9 8 7 
6 5 4 3 2 1 0 
CELL_DATA 1
FIELD FieldData 2
Length 1 1 double
70.359604777 
Tortuosity 1 1 double
0.97081523221 
POINT_DATA 88
FIELD FieldData 7
MaximumInscribedSphereRadius 1 88 double
1.4775537752 1.4308109512 1.3751794185 1.3861336256 1.4441207093 1.4665091772 1.5079934053 1.5657081281 1.6034317734 
1.6112522016 1.595635938 1.585970266 1.6230619451 1.7071466379 1.7481007062 1.7349411188 1.6866805467 1.5921797917 
1.5067835334 1.5126024451 1.4958848037 1.5214720047 1.6096698657 1.6448729055 1.5843503519 1.5429315262 1.5681732211 
1.7206012109 1.8080625853 1.8146377092 1.8441547283 1.8409421141 1.8511191085 1.8616415227 1.851682373 1.8440715633 
1.8393591361 1.8461572976 1.8672996992 1.8783080953 1.8131867673 1.6932343978 1.5770891643 1.6297673776 1.6305991295 
1.576447941 1.5968677604 1.6673758187 1.6994821445 1.7528961512 1.7164832065 1.6463968148 1.6106596109 1.6118617824 
1.6222004939 1.6766805576 1.7411095093 1.7437105823 1.7795261805 1.7947267896 1.8094745084 1.7682934344 1.8058538333 
1.7949992669 1.815227339 1.8164965691 1.8231569704 1.7758614176 1.7397668708 1.7038267416 1.6560203245 1.6235053442 
1.6132018877 1.62027382 1.6295477556 1.6332459177 1.5878132803 1.594435252 1.6087943354 1.6421445138 1.7086184807 
1.7319897118 1.7082266676 1.628278437 1.6345059519 1.6488193332 1.7117307936 1.7432112429 
Curvature 1 88 double
0 0.21677101906 0.30539766615 0.17656473643 0.28047768029 0.24372190226 0.14573833933 0.20345735582 0.23335242587 
0.41720235777 0.22486171183 0.29885520057 0.24664738749 0.25973049125 0.22461188006 0.3022754343 0.23070575032 0.3792496682 
0.1903272264 0.16460647875 0.17941190788 0.2417844406 0.020007112453 0.24182026689 0.46345615948 0.31850447839 0.21965514262 
0.57117581523 0.40856265584 0.32689755142 0.37721207148 0.21883598988 0.13973791435 0.12509776414 0.24154297618 0.17276792224 
0.34500885724 0.22336092731 0.13270715216 0.22282870101 0.5183800246 0.20654615571 0.16291588677 0.16538056861 0.16490417835 
0.11569112139 0.081435445969 0.12195600859 0.040028338353 0.23672462854 0.15186081259 0.071271190258 0.16533653323 0.12906106211 
0.17627736433 0.2077276339 0.32461386535 0.041858602899 0.24478541262 0.09690317832 0.17968739011 0.071932043131 0.20855509013 
0.12864757136 0.1167674962 0.095285215913 0.020492539019 0.090108571253 0.2210908837 0.15478491341 0.063986421448 0.088203604243 
0.07739925065 0.053587442943 0.23142538953 0.12094309227 0.19756820125 0.08098980628 0.24081496012 0.10396265454 0.072863118212 
0.27463712267 0.28287250761 0.25105086953 0.38042541164 0.12107400089 0.034405311489 0 
Torsion 1 88 double
0 0 0.016823662887 -0.23269056013 0.56268595968 0.11778950683 -0.73861176232 -0.56178994021 0.55235705282 
0.6894974547 0.49927046466 -0.3671804333 -0.01181116211 0.33593368404 -0.78562920818 -1.2580054136 0.21612701783 0.039978403207 
-0.63585362772 0.03290359891 0.068112682135 0.34290945724 -2.9219065679 -0.93099783478 -0.43921388822 -0.13710139508 0.026426788891 
0.22768163529 0.49941006806 -0.20402642724 0.031829366002 0.34507686013 -0.83766509401 -1.1809433188 -0.34535762901 0.063508968978 
-0.20337034613 -0.22644798359 -0.025027850016 -0.79952347706 0.031952093394 0.63996621383 0.76643073996 0.5800842801 0.4214426062 
0.97773342225 0.09380962874 -0.32336912538 -3.0738894746 0.27957578362 0.98703360136 0.029494995421 -0.54854674601 0.032090238208 
0.36312346436 -0.15339828218 0.0010490356885 1.5798950023 0.19927786693 0.50145876105 -0.23868862427 0.84760068455 -0.087418650499 
-0.077563078134 0.51163617276 0.33819314789 3.8381062459 -0.72085064827 -0.69285458305 -0.84383441085 1.6070981228 0.49418554885 
0.083530687848 -1.8083613001 -0.049733473339 -0.57634305583 -0.24449494852 0.74432456306 0.048925049996 -0.43530260244 2.8967923554 
0.2763776905 -0.4689972932 -0.55847801759 0.013111766656 0.4783924426 0 0 
FrenetTangent 3 88 double
0.87971951826 -0.1827643673 0.43896555132 0.87971951826 -0.1827643673 0.43896555132 0.94556725293 -0.058338588746 0.32015493009 
0.96025381263 0.042696487649 0.27584347966 0.90717732556 0.20974122363 0.36474363476 0.85293228625 0.40616170658 0.32793167455 
0.80362835224 0.52405849776 0.28203574666 0.70365990037 0.63316856331 0.32242877515 0.63982916978 0.6663519012 0.38287566816 
0.44439090856 0.74380736033 0.49926679351 0.3026507511 0.85017702627 0.43081497984 0.1673065177 0.93783080632 0.30410838175 
-0.041724933444 0.97669129542 0.21055437155 -0.2116198157 0.96915120177 0.12634477316 -0.34075740071 0.94015122733 0.00025222978927 
-0.44329196185 0.8960445629 -0.024420849009 -0.49245468428 0.86264986741 0.11542785703 -0.61823960647 0.77116084202 0.1519563909 
-0.70993087843 0.67054180925 0.21534119414 -0.73805938508 0.61427428296 0.27916921281 -0.7761052918 0.54946370287 0.30943531679 
-0.80724256365 0.42628208234 0.40821934021 -0.82620549668 0.35957469281 0.4336940368 -0.85072047732 0.31536792289 0.42049701864 
-0.88048214583 0.068152128048 0.46915506853 -0.80105748782 -0.15181515606 0.5790155953 -0.69990329939 -0.31634537407 0.64036003608 
-0.47079639405 -0.57093247606 0.67259710312 -0.21673779593 -0.79126318851 0.57177556289 -0.047701331276 -0.94355380354 0.32776638452 
0.13089693657 -0.98248123738 0.13265221521 0.28561922434 -0.95385988363 -0.092590394141 0.33942075741 -0.91202410373 -0.23022941529 
0.4038610082 -0.87745650781 -0.25877859835 0.4860571811 -0.85936877278 -0.15885127975 0.52775177042 -0.84771371308 -0.053474568446 
0.57754238904 -0.80910637934 0.10858939074 0.57610519115 -0.76664899404 0.28346451043 0.57206048322 -0.7318473337 0.37033266626 
0.56793075287 -0.68340393832 0.45870874967 0.42678404221 -0.65746776506 0.62096015913 0.22625417567 -0.56692894291 0.79208624637 
0.16193364372 -0.4700281228 0.86766990198 0.20021481693 -0.37490177055 0.90518654957 0.20098216024 -0.38016992074 0.90281615107 
0.11775380202 -0.37711444353 0.91865049861 0.1171735325 -0.34837373406 0.93000328209 0.11198190587 -0.32583015787 0.93877300823 
0.068527047688 -0.29916387889 0.95173789317 -0.0017503373795 -0.39062270677 0.92054920416 -0.12385865073 -0.46313768132 0.8775890398 
-0.20787657706 -0.42703421531 0.88001653829 -0.2920182168 -0.38054966448 0.87744362436 -0.35122621575 -0.40679849289 0.84330014322 
-0.40829864731 -0.42870842243 0.80591643682 -0.55920184854 -0.35523434723 0.74906732083 -0.74378315747 -0.25938915564 0.6160388629 
-0.84008748204 -0.18223608588 0.51092370421 -0.85890929592 -0.20039219233 0.47129374134 -0.89925601463 -0.23799705153 0.36700956882 
-0.91416943794 -0.27494743525 0.29782234063 -0.91654434505 -0.34114203477 0.20873086897 -0.92705094966 -0.36516884786 0.085019111289 
-0.91380109693 -0.40019982843 -0.069337238053 -0.89279824809 -0.41589532473 -0.17303862888 -0.89863959438 -0.39935157409 -0.18156321124 
-0.90524232474 -0.40196642426 -0.13769287299 -0.90675041785 -0.38882755509 -0.16314659705 -0.89175982245 -0.41515785169 -0.18002326862 
-0.8651705184 -0.49084380375 -0.10272455601 -0.85873513634 -0.51058952764 -0.043270080746 -0.8268359799 -0.56207075142 -0.020462960426 
-0.78553005103 -0.61797545612 -0.032386332992 -0.75434227752 -0.65545802923 -0.036640145574 -0.72425342491 -0.6861411315 0.068317817367 
-0.67301446153 -0.70500764313 0.22364203027 -0.66050654099 -0.67135641832 0.33617208226 -0.66357185518 -0.60849743323 0.43520485608 
-0.6409423475 -0.56223012939 0.52258031802 -0.60470910968 -0.51170766591 0.61031316332 -0.593714896 -0.48167760663 0.64458459921 
-0.51944150349 -0.49975331289 0.69312852394 -0.37806002105 -0.56141136409 0.73613035582 -0.20714784493 -0.54501619219 0.81243284066 
-0.031486255921 -0.43011971289 0.9022226157 0.14790856161 -0.29701389952 0.94334818646 0.18820254913 -0.28805939435 0.93893641202 
0.18820254913 -0.28805939435 0.93893641202 
FrenetNormal 3 88 double
-0.26779968766 -0.9532796222 0.13979016126 -0.26779968766 -0.9532796222 0.13979016126 -0.30893492777 -0.47013167871 0.82676200631 
0.2557025091 -0.53084425377 -0.80797314626 0.28742020779 -0.94202117625 -0.17316387512 0.16950913835 -0.80964585654 0.56190767836 
0.59138881859 -0.6501408346 -0.47704943185 0.69213892649 -0.71339894241 -0.10957032171 0.38668025365 0.15141027628 -0.90969957111 
0.87542797218 -0.47884567881 -0.065823107007 0.46806258218 -0.52633170502 0.70985375639 0.80001961898 -0.30940753232 0.51403850848 
0.97920934909 -0.0018963256052 0.20284342384 0.76525670013 0.083893840685 0.63823507143 0.62846764563 0.22758827273 0.74379566852 
0.70990212383 0.33430860369 -0.61990058241 -0.34723623873 -0.073125892467 -0.93492224188 0.78525286146 0.61437628232 0.076939764058 
-0.04337870538 0.26355089359 -0.96366966042 0.67103450604 0.62496052786 0.39891982944 -0.10120237102 0.37580995406 -0.92115414483 
0.27032198607 0.88186049137 -0.3863264133 -0.067352922192 -0.82734574053 0.5576402151 0.40524478572 0.90301643701 0.14261128333 
-0.12671539116 0.91977585785 -0.3714237216 -0.46085220606 0.77371665746 -0.43471574408 -0.51701777249 0.84296731229 -0.14865642718 
-0.77306370879 0.63432274034 -0.0026764220337 -0.48083327728 0.59625224232 0.64287061139 -0.51781292703 0.30396367229 0.79967234448 
-0.74787922635 -0.01002154081 0.66375916681 -0.20037680547 -0.15391939954 0.96755255892 -0.55707588928 -0.39212137786 0.73205688209 
-0.76515165844 -0.16894082292 -0.62129054229 -0.50102058475 -0.12508322296 -0.85634838763 -0.17806464555 -0.048859486763 -0.98280503283 
-0.30249962804 -0.33565215021 -0.89209394634 0.32447622611 -0.1037967507 -0.94018158524 -0.63308418958 -0.6810469934 -0.36793939948 
0.51231420863 -0.14267513481 -0.84686360032 0.73054388176 -0.15409261512 -0.66525266086 0.62354504739 -0.54042618224 -0.56491691019 
0.31720438721 -0.80781599484 -0.4968044839 -0.90759167473 -0.41897057732 0.027221449284 0.87996251459 0.47502512719 0.0041353910673 
0.46856320364 -0.79453130809 -0.38622341289 -0.80473152951 0.51545246803 0.29447566726 0.58450822255 -0.74240242336 -0.32739697549 
0.83458411678 0.53986637608 0.1096067881 0.53966747859 0.77462208249 0.32972661687 0.99010465333 -0.11647584106 0.078269750838 
0.52971085861 -0.80547581107 -0.26573506364 0.93410505086 -0.31047279976 0.1762225711 -0.25175926711 0.90854341636 0.33341585448 
0.89144558149 -0.37731288189 0.25091784392 0.80503776173 -0.44848516066 0.38829790478 0.66636059657 -0.36005291419 0.65293602621 
0.11607188987 -0.98045490578 -0.15885683526 0.25269113703 0.63461284205 0.73035178508 0.41131470827 -0.74560042078 0.5243092821 
0.032217305041 0.68314812048 0.72956883893 0.056237489509 0.40679275374 0.91178780441 0.051536932593 0.10049538339 0.99360184304 
-0.25489982891 0.43215758992 0.86502363823 -0.10345509593 -0.18455787973 0.97736146443 0.253568818 -0.13511793586 -0.95783401378 
-0.37284921974 0.90689845647 -0.19626168499 0.13229926961 -0.62970914207 0.76548239669 -0.36043160624 0.89220873384 -0.27212613342 
0.13148855219 -0.024362344353 -0.99101828279 -0.38541194031 0.69923099386 -0.60210767599 -0.54527451509 0.8099866539 -0.2158641325 
-0.51821587389 0.62831364753 0.58023639008 -0.43317912825 0.53891448506 -0.72244516792 -0.24338231304 0.16167813439 -0.9563604083 
-0.38464796619 0.075356554194 -0.9199822454 0.058716284236 -0.49255521221 -0.86829819814 0.011528267899 -0.58998525889 -0.80733171208 
-0.34243782198 -0.39986506128 -0.85020248814 -0.29045867254 -0.57182865324 -0.76723252726 -0.11300267218 -0.74320162454 -0.65945564018 
-0.8465430059 0.41144080091 -0.33775939144 -0.91442309308 0.35062160952 -0.20222485945 -0.77078523517 -0.42049575627 -0.4786161721 
-0.76536100367 -0.57017637142 -0.29853214153 -0.85331651 -0.52052399181 -0.030094978093 -0.072460405505 0.94934217417 0.30577594081 
-0.072460405505 0.94934217417 0.30577594081 
FrenetBinormal 3 88 double
0.39290825454 -0.24053097085 -0.88756293049 0.39290825454 -0.24053097085 -0.88756293049 0.10228284605 -0.88066611933 -0.46256394765 
0.11193231066 0.84639316407 -0.52066281762 0.30727662479 0.26192503241 -0.91486411737 0.49373390312 -0.42368178517 -0.75942121239 
-0.066638852891 0.55016323588 -0.8323939435 0.16064386401 0.30026574796 -0.94023083844 -0.66415134942 0.73010278181 -0.16078841081 
0.19011203517 0.46632330695 -0.86394443541 0.83025293858 -0.013189400641 -0.55723074008 0.57617457284 0.15729067888 -0.80204894112 
0.19851468605 0.21464043748 -0.95630612359 0.60794673822 0.23174937238 -0.7594030497 0.6992230061 0.25361239692 -0.66840701662 
-0.54729444647 -0.2921333579 -0.78430025504 -0.79806978294 -0.50048757238 0.33555448358 -0.034025469277 0.16689140022 -0.98538800884 
-0.70293416176 -0.69348007076 -0.15801568181 0.070576453589 0.48175869884 -0.87345722293 -0.62242963952 -0.7462281941 -0.23606106453 
-0.52467653586 -0.20150846148 -0.82710874295 0.55932822308 0.43151485017 0.70777600479 -0.33474069534 0.29172656324 -0.89601578065 
-0.45683082265 -0.38648112343 -0.80121029743 -0.38199757248 -0.6150729163 -0.68975587149 -0.49277580545 -0.4351226433 -0.75355178379 
-0.42511558134 -0.5212204609 -0.74000403623 -0.84960231125 -0.13559435839 -0.50969606894 -0.85416295611 -0.13157623554 -0.50308382865 
-0.65080154793 -0.18609187764 -0.7360890967 -0.93716102913 -0.25779864399 -0.23509373585 -0.75793139731 -0.12022004512 -0.64116077369 
0.50143716021 0.44891989849 -0.73961591323 0.7160494329 0.4958220444 -0.49135904381 0.83052456365 0.52819902613 -0.17673352249 
0.75824716544 0.48237381871 -0.43860772351 0.75021196166 0.63362098646 0.18896152544 0.52148941739 -0.023968165234 -0.85292104828 
0.64419625238 0.71596289219 0.26908795111 0.53306755494 0.73755786477 0.41454478406 0.74833189285 0.62171626587 0.2312320542 
0.93442970403 0.35567805985 0.018282395164 0.36904116172 -0.82698991395 -0.42414184323 -0.43043250829 0.79361323067 0.43000685566 
0.87554700976 0.47592509595 0.083142869444 -0.58196007482 -0.78290771782 -0.21994994134 0.8036231645 0.58538307971 0.10731476814 
-0.54660167925 0.78679429938 0.28667287054 -0.84187644513 0.49736760075 0.20945052126 0.065968250599 0.87859937775 0.47298131393 
0.82230999932 0.41091422066 0.39364421536 0.20536093838 0.87108472233 0.44613707704 -0.90180786024 -0.095204237176 -0.4215195564 
0.19651206031 0.82088006292 0.53622656821 0.19800882499 0.82016438548 0.53677079467 0.052442063318 0.89614684339 0.44064800587 
0.52988710015 -0.074149758814 0.84482037994 -0.44544585602 0.74639768888 -0.49443753841 0.14885842571 0.62244470919 0.76837735072 
-0.40404985334 0.67654456862 -0.61565506794 -0.39595935186 0.84743245608 -0.35365862645 -0.37137646844 0.92550115639 -0.07434465831 
-0.31621769792 0.8081335996 -0.49691694751 -0.43841570609 0.89048833114 0.12174646098 0.35798007479 -0.9067863385 0.22268543368 
0.20376406172 -0.12632570372 -0.97083573468 -0.40037555243 0.67251730743 0.62243062924 0.27359363349 -0.17778507655 -0.9452719134 
0.4839325725 -0.87090690461 0.085617923202 0.33768565544 -0.50037421145 -0.7972415234 0.13790564 -0.1673263007 -0.9762089651 
-0.3382230728 0.47257623296 -0.81380394264 0.49327839117 -0.52909918703 -0.69045671775 0.64515271541 -0.70927464958 -0.28409055822 
0.63174162177 -0.7051848076 -0.32189580682 0.74852087965 -0.55377786387 0.36475549374 0.74802372425 -0.53070544376 0.3985125342 
0.6869710658 -0.72388204452 0.063761590101 0.74159331997 -0.64122324972 0.19716006642 0.79670133572 -0.46436841898 0.38681901854 
-0.11638498019 -0.76220935025 -0.63678209993 -0.14457187598 -0.7495877315 -0.64592352911 0.6024781254 -0.72535554675 -0.33298564416 
0.64283057624 -0.6999256661 -0.311244136 0.49997399048 -0.80052327726 -0.33043681907 -0.97945356711 -0.12558352468 0.15779571665 
-0.97945356711 -0.12558352468 0.15779571665 
SiphonLabel 1 88 int
0 0 0 0 0 0 0 0 0 
0 0 0 0 0 0 0 0 0 
1 1 1 1 1 1 1 1 1 
1 1 1 1 1 1 1 1 1 
1 1 1 1 1 1 1 1 1 
1 1 0 0 0 0 0 0 0 
0 0 0 0 0 0 0 0 0 
0 0 0 0 0 0 0 0 0 
0 0 0 0 0 0 0 0 0 
0 0 0 0 0 0 0 
