# vtk DataFile Version 5.1
vtk output
ASCII
DATASET POLYDATA
POINTS 79 float
101.677 68.7075 30.2293 101.067 68.4013 29.8346 100.358 67.9953 29.3106 
99.896 67.6976 28.9958 99.2796 67.2824 28.6082 98.5579 66.7419 28.2102 
97.8792 66.2299 27.8459 97.2408 65.7164 27.4493 97.0245 65.3826 27.2353 
96.7577 64.8587 26.7897 96.6388 64.3179 26.3461 96.6227 63.7841 25.9943 
96.6324 63.271 25.7052 96.6363 62.6067 25.3568 96.7314 61.8261 25.0337 
96.8394 61.3606 24.8755 97.2581 60.6575 24.6347 97.7458 60.0591 24.1914 
98.2163 59.5395 23.6545 98.7387 58.9811 23.2517 99.4612 58.4588 22.8648 
100.139 58.0514 22.5738 100.941 57.8901 22.2278 101.704 57.9446 21.846 
102.305 58.151 21.3535 102.903 58.5901 20.7008 103.217 59.0573 20.261 
103.47 59.6121 19.8882 103.613 60.1381 19.6214 103.65 61.0257 19.2759 
103.646 61.8601 19.2511 103.625 62.6546 19.1351 103.573 63.4031 18.9557 
103.476 64.2127 18.7002 103.375 64.994 18.3613 103.394 65.7802 17.8131 
103.308 66.4232 17.2802 103.259 66.669 17.0953 103.044 67.1812 16.6128 
102.906 67.7186 16.0154 102.789 68.2772 15.3697 102.648 68.6234 14.8963 
102.487 68.8773 14.5212 102.312 69.2464 13.9637 102.155 69.6211 13.4804 
101.965 70.0036 13.0245 101.594 70.4695 12.3294 101.35 70.7269 11.8087 
101.036 71.1112 11.1864 100.886 71.4165 10.7429 100.794 71.7108 10.1996 
100.795 72.1066 9.36153 100.839 72.3599 8.81293 101.012 72.6397 8.0373 
101.412 72.8863 7.23868 101.849 73.0716 6.63912 102.337 73.2566 6.12352 
102.815 73.4496 5.70178 103.577 73.6871 5.25673 104.322 73.8709 4.94832 
104.793 73.9314 4.76368 105.641 74.1143 4.48776 106.534 74.4237 4.25706 
107.408 74.6829 4.1256 108.258 74.928 4.0069 108.824 75.1191 3.95021 
109.423 75.2502 3.9326 110.291 75.4351 3.86306 111.015 75.589 3.79297 
111.83 75.8228 3.74937 112.786 76.0222 3.75458 113.658 76.1714 3.77744 
114.241 76.3492 3.76612 115.159 76.6933 3.66043 115.671 76.9364 3.65541 
116.446 77.4104 3.52534 117.012 77.7983 3.42288 117.779 78.243 3.15267 
118.537 78.6736 2.69284 
LINES 2 79
OFFSETS vtktypeint64
0 79 
CONNECTIVITY vtktypeint64
78 77 76 75 74 73 72 71 70 
69 68 67 66 65 64 63 62 61 
60 59 58 57 56 55 54 53 52 
51 50 49 48 47 46 45 44 43 
42 41 40 39 38 37 36 35 34 
33 32 31 30 29 28 27 26 25 
24 23 22 21 20 19 18 17 16 
15 14 13 12 11 10 9 8 7 
6 5 4 3 2 1 0 
CELL_DATA 1
FIELD FieldData 2
Length 1 1 double
60.968540497 
Tortuosity 1 1 double
0.8042851261 
POINT_DATA 79
FIELD FieldData 7
MaximumInscribedSphereRadius 1 79 double
1.7519299122 1.838079124 1.9092921705 1.9800939371 2.0401146728 1.9803610846 1.8923618727 1.7479000763 1.6826142952 
1.6556722269 1.6806936571 1.6874360187 1.6760464251 1.6904915212 1.7140307794 1.7118553559 1.6526076934 1.539537409 
1.4862264178 1.501398029 1.5619922576 1.6314400401 1.7326671899 1.8656561053 1.9737002482 2.1073891527 2.1586643614 
2.239015085 2.317783241 2.4240365465 2.425828188 2.413989834 2.3892186869 2.367271471 2.4022318389 2.4398172877 
2.4488549863 2.4492931596 2.3687771678 2.3939101054 2.4439153669 2.4471911375 2.4471011502 2.4407769708 2.4866951685 
2.5082975103 2.5144610112 2.5234135079 2.4778436088 2.3991643552 2.3560636957 2.3458971863 2.4064611152 2.4945848588 
2.5668182055 2.540213582 2.536233242 2.5464773398 2.5630936883 2.5892278731 2.5892561318 2.5954604011 2.6047767452 
2.6001416429 2.6098487346 2.6349166153 2.6124790799 2.5955886609 2.6246812005 2.6623421864 2.6426109665 2.608329728 
2.590473762 2.5305695804 2.536051511 2.567952946 2.5569117723 2.4755266457 2.2973388657 
Curvature 1 79 double
0 0.074771135413 0.083831241819 0.059240717883 0.086767838784 0.011828327537 0.058911293971 0.42650573922 0.30087901326 
0.28194746226 0.26393003898 0.13249021432 0.047805574177 0.17591124335 0.180955937 0.4448740468 0.31547498353 0.15778257316 
0.1951091048 0.20771701201 0.10718378871 0.38014771493 0.29389273672 0.36099811419 0.27186551952 0.32465721283 0.24780009331 
0.26073530624 0.28477371034 0.39476197509 0.14323740243 0.12641046673 0.10322488102 0.12055678153 0.26925975749 0.16374192711 
0.12931084655 0.33402543268 0.19442856649 0.046029518093 0.17519219586 0.20324644077 0.1442164426 0.11008200668 0.11028803715 
0.19212378593 0.15852344953 0.122144064 0.21073279272 0.27380273287 0.20670727718 0.092613998225 0.22239898594 0.27743042093 
0.19332110956 0.16649087922 0.13641376593 0.24094066821 0.1584712058 0.16034990164 0.142924797 0.14432085571 0.112330839 
0.013431274977 0.079260726997 0.21234868009 0.066290517428 0.019850792121 0.10285486299 0.10179502718 0.044614203574 0.1799946584 
0.13641025257 0.16788327836 0.23006776776 0.063561253149 0.204474025 0.19999424669 0 
Torsion 1 79 double
0 0 0.68757216474 0.08436320788 -0.053811583051 -0.78488476622 2.6506479738 -0.37166338501 -0.42036046213 
0.87882031911 0.56178986851 0.87456802786 -0.95583188421 -0.26472857369 -1.057719775 -0.65946182096 -0.83395230818 0.008407981187 
-0.36080104955 -0.41819637826 -1.2518536863 -0.2263300077 -0.55702313976 -0.14523328812 0.38913756227 0.27934996094 0.13942653142 
-0.37299970953 0.56736993139 0.28205657762 -0.363121787 0.261991493 -0.24504669303 -1.005616906 0.19255259994 1.3254040745 
-1.1188023341 -0.89137445892 -1.0569735844 2.013356181 0.45254432949 0.0013340513807 -1.1709574742 -1.6628467277 -2.036077936 
-0.79137244942 -0.66611152429 1.0838713311 1.2396281842 0.35117980227 -0.34945448395 0.32967738555 -0.20410120657 -0.25227289255 
-0.29743812939 -0.40448424224 0.33785875199 0.22076247235 0.58328637579 0.18148257238 -0.67170173978 0.3265996026 0.68575251235 
-2.2825421833 1.5831986944 0.52823208484 1.9366661022 2.7757496041 0.68228481867 0.55219356223 -0.21333116008 -0.32592824986 
0.26690161362 -0.35272513897 -0.3520938756 -0.30078586403 0.066448403514 0 0 
FrenetTangent 3 79 double
0.75031062377 0.40504399966 0.52246849302 0.75031062377 0.40504399966 0.52246849302 0.7303452815 0.43898301796 0.52334470451 
0.73283194768 0.48468679235 0.47753120294 0.73426291294 0.52444061546 0.43106845806 0.73301995502 0.55087715155 0.3990189337 
0.71794427 0.55901705823 0.41479627985 0.63330498787 0.62787221756 0.45243924537 0.40768861713 0.72384754678 0.55662799111 
0.26793993389 0.73948157682 0.61755581883 0.100485609 0.79969205758 0.59194193585 0.0051401531346 0.85285831026 0.52211711468 
-0.010114287784 0.87932478354 0.47611513967 -0.061965971929 0.90510415769 0.42065030851 -0.15032860885 0.92223154297 0.35621663424 
-0.39239310849 0.87045846607 0.29720314138 -0.52476863579 0.75352096021 0.39601015317 -0.54165982859 0.63206945796 0.55415957125 
-0.57031681139 0.61917325039 0.53978071533 -0.68108084265 0.5911860682 0.43200453532 -0.77265443521 0.51294495503 0.37402218765 
-0.8660568004 0.33294638787 0.37295082957 -0.90497182508 0.061793687172 0.4209602547 -0.83124827372 -0.15895325678 0.53269143938 
-0.67396223045 -0.36276636282 0.64356466492 -0.54048620947 -0.53718967951 0.64753525432 -0.39836321812 -0.71793653113 0.57085364474 
-0.30071854251 -0.82073612849 0.48575772313 -0.11626756409 -0.91139791381 0.39476030226 -0.018838625288 -0.97747780151 0.21019575103 
0.015719126904 -0.99616525714 0.08606793542 0.046470036875 -0.98110041209 0.1878364104 0.091589309685 -0.95912586223 0.2677479762 
0.11541904644 -0.93051195784 0.34760025897 0.045671154676 -0.86938531841 0.49201962742 0.037455997431 -0.79695675405 0.60287393411 
0.11727275095 -0.77260604181 0.62396074079 0.2534781603 -0.72601476876 0.63925845931 0.22815874832 -0.67859187314 0.69818096169 
0.15208889973 -0.6536191774 0.74138447348 0.1766379213 -0.61882501395 0.76541142326 0.2785518348 -0.55461477402 0.78409905482 
0.28671603961 -0.53213005961 0.79663762922 0.25126356866 -0.56278583042 0.78748887493 0.27643391044 -0.60325118904 0.74811248892 
0.3652601026 -0.55235799271 0.74932349846 0.39880755726 -0.46884121076 0.78812464202 0.39187967808 -0.45035239906 0.80225496856 
0.3430470144 -0.51027714129 0.78862918091 0.20507882841 -0.50822196541 0.83645269323 0.05867844478 -0.44612288886 0.89304602801 
-0.029427415755 -0.42380360012 0.90527594452 -0.15039680882 -0.36920768034 0.91709677171 -0.32634666445 -0.29975790059 0.89646140778 
-0.49633854006 -0.25621210698 0.82945970962 -0.61860740648 -0.24757458336 0.74567533305 -0.69106205019 -0.270365294 0.67032518272 
-0.78838039635 -0.27367887057 0.55095936915 -0.86761847841 -0.2426292337 0.43401524267 -0.91103997617 -0.18305067205 0.36945718734 
-0.93011398736 -0.17160163331 0.32471656867 -0.92659677805 -0.26206006251 0.2697089812 -0.93432700508 -0.30062018582 0.19146945307 
-0.95062106102 -0.27802979447 0.13790950557 -0.94902734804 -0.29244586878 0.11756915629 -0.9619999899 -0.26606459193 0.061364911342 
-0.97592709354 -0.21024771421 0.057984538958 -0.97450769845 -0.20742812848 0.085488696138 -0.96725890799 -0.24353636974 0.071415975332 
-0.97116623119 -0.23747313809 0.021039488557 -0.98217651313 -0.18735440976 -0.015087153519 -0.97562062036 -0.21932735088 -0.0077406906531 
-0.94199070966 -0.32750822128 0.073429339506 -0.92266321492 -0.3789305668 0.071443805727 -0.8698435611 -0.48479955116 0.091332219943 
-0.83249927364 -0.53490179406 0.1443088012 -0.82532852432 -0.51538167693 0.23068279959 -0.80088111905 -0.45986640914 0.38355223751 
-0.80088111905 -0.45986640914 0.38355223751 
FrenetNormal 3 79 double
0.66106744611 -0.45386717725 -0.59749009792 0.66106744611 -0.45386717725 -0.59749009792 0.016061747279 -0.77698098365 0.62931913313 
-0.1417366846 -0.57768829643 0.80385753987 0.041365726941 -0.66836775268 0.74267989323 -0.13384933206 -0.45832795295 0.87864659782 
0.6009180386 -0.19694661495 -0.77466737491 0.74923421914 -0.64385551536 -0.1552358213 0.66875546429 0.17837007821 -0.72176883015 
0.95995482239 -0.25935153972 -0.10594110542 0.80689307535 -0.41357817142 0.42175426622 0.51220887628 -0.4506752906 0.73111821855 
-0.35795200974 -0.4477710012 0.81937261927 0.76219896144 -0.22918611942 0.60541429273 0.84397669094 -0.067938196826 0.53205990882 
0.919775906 0.37355572099 0.12028468752 0.20934543332 0.56516517013 -0.79797419759 -0.10775207 0.60159761229 -0.79149845502 
0.42420335789 -0.34071283995 0.83902697921 0.73133830549 0.57800401211 0.36201608377 0.63087036989 0.55474387997 0.54245903444 
0.30343738238 0.94292904677 -0.13715162316 -0.038635377956 0.97337444888 -0.22594134157 -0.49084856586 0.65968667505 -0.56910559315 
-0.60064849734 0.77625023677 -0.19146005472 -0.60045607895 0.78539334723 0.15036551257 -0.48144743119 0.69340635085 0.53609327883 
-0.69725149193 0.5367061457 0.47517035911 -0.89221151567 0.27047173852 0.36166787245 -0.13152614336 0.21082887783 0.96863411972 
-0.17777302046 -0.087491536871 -0.98017446619 -0.41392163697 -0.19004871972 -0.89025297673 -0.54803740085 -0.2730453645 -0.79063343984 
-0.038155301007 -0.35383383992 -0.93452971421 0.56548697328 -0.38352093239 -0.73016174747 -0.82408003117 -0.36587743727 -0.43246479987 
-0.77410762989 0.32246025453 0.54477221075 -0.75760315369 -0.55990061899 -0.33548287343 0.82287510757 -0.24888931486 -0.51081372955 
0.85701484219 -0.286441474 -0.4283419688 -0.7678206134 -0.57317840031 -0.28621325451 -0.91095844156 -0.41119444229 0.032769625822 
0.95141717699 0.060730601843 -0.30185617325 0.072676791301 0.82226279742 0.56444838204 -0.81223224322 0.26942896105 0.51738459392 
-0.67857918972 -0.70902333269 -0.19187547256 0.13679095928 -0.81939802406 -0.55666427191 -0.072996578722 0.85403151788 0.5150744276 
0.8864601978 0.45353937448 -0.092143114308 0.74758366649 -0.47025854083 -0.46901552893 0.93751960994 -0.28270017128 -0.20282404722 
0.99220237318 -0.12212108117 -0.024917708503 0.83565519356 -0.54315548885 -0.081624214616 0.92957158046 -0.27379153239 0.24684990094 
0.86812883011 -0.14579948693 0.47444161279 0.75386544413 0.080389585209 0.65209232992 0.55531140873 0.39504503324 0.73182556736 
0.60246138768 -0.16224456496 0.78148383061 0.49036406772 -0.27295902469 0.82766928899 0.23492224017 -0.96682872117 0.10026846463 
0.055239232323 0.80871304841 0.58560381876 -0.10269484091 0.8662761461 0.48889611201 0.29413416688 -0.34695360799 0.89056627253 
0.27376576572 -0.54189788022 0.79460618732 -0.14890440202 0.74474122851 0.65052900136 0.25906560532 -0.81838447511 0.51296380286 
-0.033707198248 -0.11726886438 -0.99252800375 -0.075831748938 -0.054083492173 -0.99565281184 -0.1710259646 0.83338677905 0.52556312269 
0.20054325587 -0.76603012951 0.61072108462 0.15558021352 -0.85539101206 0.49406579891 -0.20442359036 0.92102626922 -0.33154427624 
-0.24570143756 0.52382835696 -0.81561918566 -0.19767645256 0.62388171148 0.75610556814 -0.36412854075 0.50603108822 -0.78188422645 
-0.55095146445 0.82670538165 -0.11406443692 0.059256930553 -0.48533874203 -0.87231583825 -0.31130262644 -0.22742632314 -0.92269601837 
-0.31130262644 -0.22742632314 -0.92269601837 
FrenetBinormal 3 79 double
-0.0048784788907 0.79369008042 -0.60830276729 -0.0048784788907 0.79369008042 -0.60830276729 0.68288929562 -0.45121442905 -0.57451522952 
0.66548331963 -0.6567761761 -0.35465054041 0.67760375686 -0.52749084166 -0.5124515203 0.66690786609 -0.69747390736 -0.26222899667 
-0.35135955381 0.80542656988 -0.47732012787 0.19383724413 0.43729458464 -0.87818025999 -0.62173637536 0.66650494688 -0.4113575517 
0.081822556793 0.62121153916 -0.77935954014 0.58208780037 0.43525361476 -0.6868246381 0.85884553086 0.26367496099 -0.43915813673 
0.93368520386 -0.16213900064 0.31928495825 0.64437020532 0.35813431335 -0.67566770835 0.51488314647 0.38062236214 -0.7681288713 
-0.0063191091664 0.32055917107 -0.94720741482 -0.82510142918 -0.33584891395 -0.45432712726 -0.83366307433 -0.48843475838 -0.25775446707 
0.70341328236 0.70748798342 -0.068341111454 -0.035681489475 0.56250368421 -0.82602447697 0.070765105453 0.65509289475 -0.75222709277 
-0.39733030774 -0.0056138724366 -0.91765849366 -0.4237137045 -0.22073450679 -0.87848902903 -0.26094825699 -0.73453887093 -0.62638538797 
-0.43011195585 -0.51559299445 -0.74105841167 -0.58934468235 -0.30754599387 -0.74705308181 -0.78071449164 -0.061276177075 -0.62187628406 
-0.65069863623 -0.19580275933 -0.73365697996 -0.43639484969 -0.31015944507 -0.84460680425 -0.99113368413 -0.0093985012614 -0.13253561168 
0.9839459651 0.00010692997719 -0.17846659721 0.90912563165 -0.03637946582 -0.41493025961 0.83142432345 -0.074322333988 -0.55064488107 
0.99258380841 0.094599735971 -0.076343128243 0.82349172958 0.31157802001 0.4741102285 0.56523371316 -0.48061796998 -0.67046045107 
-0.62209684072 -0.54689970599 -0.56026443074 0.60148672784 -0.39926664323 -0.69195365729 0.52040382677 0.69106235511 0.50161008606 
0.49233578668 0.70052355629 0.51659676755 0.61583321638 -0.53714255419 -0.57639164297 0.30424265493 -0.7234096924 -0.61976997657 
0.11224646079 0.8444817308 0.52369011675 -0.96518635665 -0.084593150181 0.2475061532 -0.51367604211 -0.75066373155 -0.41550076521 
0.63727179502 -0.43839087763 -0.63379657438 0.90677492562 0.32981024431 -0.26264888543 -0.91711603268 -0.26040906884 0.30180341195 
-0.31065586045 0.73069779996 0.60792570393 0.63171301692 0.72150352643 0.28349836969 0.34294871496 0.8491495635 0.40166055036 
0.12111349167 0.89748367676 0.42409264563 0.5282624323 0.75410065887 0.39021916779 0.1714483345 0.91388368944 0.36799737876 
-0.0006228851595 0.95556154477 0.29479102118 -0.22138601762 0.96552801112 0.13690833043 -0.46266886877 0.87797609848 -0.12286369831 
-0.12448544898 0.94803827821 0.29279138657 -0.082348387999 0.93092664899 0.35580095165 0.33884761013 0.17814228973 0.92382228904 
-0.36309309789 0.56261539685 -0.7427161756 -0.36176260248 0.42531184128 -0.82960090231 -0.20129118077 0.8883978263 0.41259079336 
-0.14619132622 0.79312427828 0.59125457744 -0.27780311686 0.59986324807 -0.75032627028 -0.086261414127 0.50936871108 0.85621404135 
0.21547652511 -0.97058946631 0.10735900059 0.2111499266 -0.97675408747 0.03697514172 -0.18751086462 0.49614162606 -0.84775182839 
-0.12891297032 0.5973310216 0.79156623015 -0.10547082166 0.48291256106 0.86929360066 0.07984610724 -0.32187905269 -0.94340790467 
0.22865761847 -0.7863473898 -0.5739106865 -0.33108399529 0.68350803625 -0.65053835586 0.33284017939 -0.71337362787 -0.61669723693 
-0.058287590626 -0.17446570624 -0.98293655651 0.56153489929 -0.70627758889 0.431103844 0.5115467798 -0.85837063865 0.038983827199 
0.5115467798 -0.85837063865 0.038983827199 
SiphonLabel 1 79 int
0 0 0 0 0 0 0 0 0 
0 0 0 0 0 0 0 0 1 
1 1 1 1 1 1 1 1 1 
1 1 1 1 1 1 1 1 1 
1 1 1 1 1 1 0 0 0 
0 0 0 0 0 0 0 0 0 
0 0 0 0 0 0 0 0 0 
0 0 0 0 0 0 0 0 0 
0 0 0 0 0 0 0 
