# vtk DataFile Version 5.1
vtk output
ASCII
DATASET POLYDATA
POINTS 110 float
107.881 82.9806 38.6361 107.566 82.4982 38.2693 107.296 81.9883 37.8995 
107.058 81.2859 37.6288 106.954 80.4174 37.4054 106.96 79.8013 37.2057 
107 79.0294 36.6554 107.023 78.4013 36.1099 107.359 77.6725 35.5198 
107.677 76.9959 34.8759 108.092 76.5411 34.2557 108.65 76.1891 33.612 
109.315 75.9568 32.9384 110.071 75.8322 32.4487 110.94 75.8644 31.9973 
111.539 75.9854 31.6056 112.108 76.2817 31.1348 112.76 76.672 30.6511 
113.374 77.1426 30.0974 113.654 77.5463 29.6875 113.865 78.0671 29.1969 
113.949 78.6135 28.8176 113.896 79.4328 28.4427 113.685 80.0057 28.2516 
113.296 80.8071 28.0898 112.991 81.5351 28.148 112.732 82.1417 28.2253 
112.208 82.7774 28.4074 111.693 83.1438 28.5754 110.932 83.6305 28.8962 
110.293 84.0563 29.2734 109.692 84.6078 29.8363 109.3 85.0385 30.4709 
108.94 85.5781 31.1672 108.682 86.2029 31.6703 108.669 86.4709 31.8438 
108.734 87.2102 32.1167 109.031 88.0937 32.3441 109.312 88.6624 32.4533 
109.81 89.4425 32.3924 110.2 90.1458 32.116 110.53 90.457 31.9605 
110.98 90.8486 31.6276 111.602 91.2698 31.0221 111.985 91.4427 30.6131 
112.263 91.4909 30.1915 112.605 91.2991 29.3609 112.706 91.1178 28.687 
112.758 90.8948 28.0935 112.745 90.5934 27.2145 112.718 90.3665 26.4115 
112.608 90.1082 25.5264 112.453 89.9181 24.9269 112.299 89.7766 24.126 
112.217 89.7002 23.2035 112.133 89.6344 22.257 112.148 89.7512 21.3802 
112.29 89.829 20.4773 112.482 89.826 19.8358 112.786 89.7573 19.0696 
113.059 89.6794 18.6715 113.451 89.6687 18.1621 113.963 89.7224 17.5153 
114.492 89.8443 16.9022 115.157 90.0419 16.3085 116.021 90.2885 15.993 
116.534 90.4997 15.8678 117.353 90.9298 15.7498 118.133 91.3184 15.7125 
118.87 91.7101 15.6723 119.612 92.1877 15.6199 120.25 92.7951 15.5758 
120.978 93.3916 15.5985 121.501 93.7707 15.6873 122.096 94.2728 15.7934 
122.454 94.5627 15.8756 123.189 95.0438 15.9894 123.998 95.4365 16.0068 
124.669 95.8597 16.0164 125.422 96.3138 15.8935 126.16 96.864 15.6915 
126.728 97.53 15.4817 127.056 98.0064 15.4024 127.52 98.5226 15.2371 
127.777 98.853 15.0724 128.216 99.3592 14.7196 128.538 99.7742 14.5007 
128.8 100.305 14.1385 128.974 100.753 13.8251 129.17 101.217 13.4456 
129.285 101.609 13.1032 129.377 102.206 12.5889 129.429 102.653 12.079 
129.417 103.191 11.3911 129.308 103.735 10.6242 128.989 104.21 9.8084 
128.586 104.554 9.04818 128.268 104.763 8.56534 127.894 104.902 8.11602 
127.406 104.996 7.55012 126.825 105.022 6.99536 126.222 104.987 6.37849 
125.645 104.989 5.90263 125.23 104.946 5.51731 124.747 104.906 5.11204 
124.18 104.789 4.65932 123.62 104.659 4.22428 122.936 104.456 3.67926 
122.306 104.243 3.20199 121.733 103.968 2.73003 
LINES 2 110
OFFSETS vtktypeint64
0 110 
CONNECTIVITY vtktypeint64
109 108 107 106 105 104 103 102 101 
100 99 98 97 96 95 94 93 92 
91 90 89 88 87 86 85 84 83 
82 81 80 79 78 77 76 75 74 
73 72 71 70 69 68 67 66 65 
64 63 62 61 60 59 58 57 56 
55 54 53 52 51 50 49 48 47 
46 45 44 43 42 41 40 39 38 
37 36 35 34 33 32 31 30 29 
28 27 26 25 24 23 22 21 20 
19 18 17 16 15 14 13 12 11 
10 9 8 7 6 5 4 3 2 
1 0 
CELL_DATA 1
FIELD FieldData 2
Length 1 1 double
85.787325614 
Tortuosity 1 1 double
0.95700941944 
POINT_DATA 110
FIELD FieldData 7
MaximumInscribedSphereRadius 1 110 double
1.6164037273 1.6347901861 1.6193738067 1.5758825366 1.5174977085 1.5355560631 1.544032676 1.5302267227 1.4938482454 
1.6385195198 1.7179397334 1.6788474017 1.6206079132 1.515942775 1.4534402739 1.4314068538 1.3912035515 1.5380681271 
1.7998183387 1.9460502509 2.0882731884 2.138505268 2.191422321 2.1834893534 2.1490821959 2.0822539809 2.03119216 
1.9185736977 1.8938815944 1.9262614491 1.9240736608 1.9902956706 2.0712680495 2.1875144088 2.1907759451 2.1623558902 
2.102448407 2.1235195206 2.1855471255 2.1933842656 2.152678181 2.1103595039 2.0267910864 1.9695840441 1.9979144143 
2.0184689628 1.9188878448 1.834178718 1.8082286016 1.7940628636 1.8092480937 1.873616583 1.884575514 1.8374231659 
1.8354981296 1.8963728495 1.8906286331 1.8380502276 1.8224311865 1.7980950486 1.7266636333 1.6531857123 1.5787808311 
1.5602103854 1.6020841759 1.6210447958 1.6143086237 1.6190635465 1.5682997842 1.4829708686 1.4551374123 1.4641139669 
1.5682421914 1.6093916761 1.5504905668 1.5402236636 1.5343296226 1.5323029896 1.5453391713 1.5176332084 1.5191893981 
1.5407045626 1.5510339569 1.5767955085 1.5744731805 1.5928273471 1.6031438711 1.591884088 1.5921559042 1.6024171631 
1.5972082068 1.599090682 1.6149832196 1.6316966388 1.653157207 1.5907712876 1.5918233315 1.617641905 1.6375319024 
1.6977576986 1.8107693816 1.9262011292 1.9375760117 1.9503831644 1.9471441477 1.9464865812 1.9836351778 1.9933294745 
1.9889034464 1.9796538178 
Curvature 1 110 double
0 0.11197288588 0.36102340193 0.26576779403 0.17899236523 0.39257170849 0.10898189195 0.35475203538 0.077720894919 
0.25171951556 0.21498851512 0.17306803866 0.25431546241 0.20833293858 0.1971512761 0.31859633464 0.097233425111 0.11885908028 
0.32649506427 0.24491801414 0.30997252378 0.32961686676 0.39159579725 0.20332884718 0.30980747795 0.059779484612 0.4062920934 
0.34938810293 0.11689324023 0.12896888797 0.21622091401 0.25652096601 0.1119289231 0.26228754866 0.49935377497 0.46118260104 
0.29177056361 0.18738209064 0.33484588012 0.31074184141 0.4453206102 0.31611541582 0.24054346973 0.20481276473 0.48643721786 
0.51878482411 0.29891881354 0.17017392438 0.12944107137 0.065352768576 0.09995508501 0.1589030673 0.19128249658 0.1528231164 
0.014018411689 0.24991441269 0.16230365131 0.20657440244 0.15588147807 0.3602822202 0.27253375088 0.1129022087 0.11418986603 
0.16913613819 0.40857000611 0.20916167261 0.17630769472 0.096076047726 0.031525627847 0.098057568224 0.21479292391 0.11489156335 
0.16012917261 0.10044278489 0.072403975485 0.16509739132 0.18853102181 0.1309589537 0.18194209324 0.13546405043 0.24141633516 
0.19055416518 0.24664088623 0.26797684035 0.19897150996 0.15488640561 0.37779826591 0.12770948928 0.11767412227 0.17608856212 
0.15511249757 0.19743263158 0.13723757663 0.12394520612 0.23580338913 0.16415190095 0.12148767978 0.26010683278 0.1596402893 
0.17433920238 0.095866466001 0.14464207535 0.15340087713 0.08930506262 0.14628455516 0.035443818807 0.060731561701 0.048282466615 
0.1249565197 0 
Torsion 1 110 double
0 0 -0.10384139632 -0.78153988969 -1.9478829899 -0.29093673484 1.2286583057 0.049409776402 -0.7498721663 
0.2502265733 0.059650608107 0.40338031733 0.010567444839 -0.81253739237 -0.38545266851 0.25941938348 0.97361782618 -0.29266022522 
0.019898704162 0.46615209045 0.33079883402 -0.26953648645 -0.08130772464 1.2283203542 0.25987327439 -5.1501156274 -0.15716459683 
0.090383896496 1.8725863808 0.78823945305 -0.14158584509 0.0056571457361 1.9899940453 -0.61867862256 0.18287344342 0.27630754579 
-0.56932081582 0.62856707002 0.57182086081 -0.42587434315 0.021196810351 0.98512779447 -0.39203489136 0.39040081042 0.065277921762 
0.21939588499 0.4473213466 -0.43936434191 1.0740210989 0.080419001441 -0.43835508034 0.60543342609 0.67884915838 0.23437197152 
-0.20985726892 0.36580918412 1.0006590114 0.19414772623 -0.4436471186 -0.70854904972 -1.2242091303 -0.12099122583 0.68153639514 
0.64057486665 -0.1317944142 -0.89514187311 0.27910765409 0.6910182191 -1.4836120541 0.23112015894 0.27338274739 0.53204820045 
-0.48042629602 -0.51665582894 2.8073820807 0.53712200666 0.40041732398 -0.22061682911 -0.04983846881 1.1283666661 0.48301525074 
0.72946583726 0.88859489288 0.29458925606 -0.76322841 -1.6498006088 -0.2492010079 -0.14462670376 0.30918806611 0.85224466107 
-0.60841022795 -0.21139443956 0.68887686073 0.1265863565 -0.068010927096 0.02682562568 -0.13313320458 -0.43480122631 -0.17127826454 
0.01861828796 -0.41980802948 -0.063930702561 -0.10283662725 -0.4973487968 -0.39313123208 0.0066805619197 0.11614819977 -0.7146684516 
0 0 
FrenetTangent 3 110 double
0.42792377582 0.7257212292 0.53871136944 0.42792377582 0.7257212292 0.53871136944 0.34774966506 0.82899997421 0.43798311978 
0.20319971493 0.93403006063 0.29376473868 0.063217350045 0.95979197919 0.27350123097 -0.028891895399 0.87942637139 0.47515735886 
-0.035449232309 0.78694636819 0.61600224474 -0.19873261739 0.75155318498 0.62902556143 -0.33025930616 0.7092887604 0.62276660561 
-0.39668875641 0.6122252788 0.68397239603 -0.5440415881 0.45146038294 0.70724979537 -0.64700879508 0.30911570473 0.69701298423 
-0.75955464228 0.19076344162 0.62184085965 -0.86430039715 0.049152293936 0.50056855224 -0.86366510846 -0.090111819824 0.49594600548 
-0.77327216159 -0.27615204005 0.57078035608 -0.72047158625 -0.40495478123 0.5629674223 -0.68458071901 -0.46549624168 0.56094784797 
-0.56601133657 -0.55396936501 0.61053182514 -0.35556485358 -0.66953157519 0.65215113641 -0.20986047109 -0.75786740291 0.61773423273 
-0.019909594435 -0.87521540584 0.48332349564 0.173197522 -0.91236328529 0.37093915139 0.38963388234 -0.89202784984 0.22906713612 
0.41252403504 -0.90886312488 0.061577112253 0.38723528303 -0.91726259352 -0.093156696525 0.5251484081 -0.83304501282 -0.17394009337 
0.69974442429 -0.67442035015 -0.23561606902 0.79196402891 -0.52977483202 -0.30353188346 0.77286622359 -0.5040135072 -0.38554919918 
0.67492636836 -0.53178809541 -0.51154258754 0.53977527055 -0.53386600339 -0.65086845654 0.41536136969 -0.53587743412 -0.73505803048 
0.34686176897 -0.65330506032 -0.67296315753 0.23526818008 -0.77463155361 -0.58702200946 -0.04709629059 -0.91323504761 -0.40470197334 
-0.2086192769 -0.93458623995 -0.28814329317 -0.36164270309 -0.90823178731 -0.21054589956 -0.49994248075 -0.86550461334 -0.030972249358 
-0.50399621887 -0.84220859646 0.19150063029 -0.54688358429 -0.7702921845 0.3279760597 -0.67333357565 -0.60714304767 0.42189953256 
-0.65360334514 -0.4954912091 0.5720936365 -0.64983916907 -0.38408263282 0.65588839409 -0.60970873417 -0.203904623 0.76594919166 
-0.44146391767 0.10228783663 0.8914296427 -0.27434720335 0.23143179019 0.93336645456 -0.11447720483 0.3018522266 0.94645665662 
-0.024982475295 0.33540436901 0.94174295069 0.022531592877 0.29960788592 0.95379633152 0.07763943829 0.2754104037 0.9581864261 
0.16881485293 0.28497537617 0.94355210795 0.20961169534 0.22531779942 0.95146982424 0.13438762301 0.12432128109 0.98309927568 
0.08821423281 0.07555196094 0.99323217343 0.037796937428 -0.02794122821 0.99889472883 -0.086825426845 -0.1083025359 0.99031909301 
-0.21112170228 -0.047320547863 0.9763136753 -0.33221718192 0.048003659801 0.94198056917 -0.44108581928 0.11214867023 0.8904302195 
-0.58921473938 0.078503819282 0.80415368012 -0.61589403335 -0.029331503313 0.78728279709 -0.63322258172 -0.10681903054 0.76656301548 
-0.69098047639 -0.18498512504 0.69880360958 -0.83393036124 -0.24227028002 0.49584802513 -0.9079809623 -0.30187723452 0.29058683277 
-0.88910082561 -0.42798111892 0.16227101942 -0.88685500258 -0.45395462919 0.086101097762 -0.88833809056 -0.45693643954 0.04543706736 
-0.86079349427 -0.50608835066 0.053936458363 -0.78497901175 -0.61708723208 0.054875305169 -0.75018475329 -0.66112403809 0.011740621404 
-0.78645778312 -0.61364678012 -0.070155431833 -0.77828291069 -0.61309206564 -0.13562385476 -0.76050535726 -0.63172599572 -0.15017945238 
-0.80852961294 -0.57032375529 -0.14495060936 -0.86785126244 -0.49132097732 -0.073742006499 -0.87550222271 -0.48294943802 -0.015990570509 
-0.84954978465 -0.52316804823 0.06753041319 -0.81634188102 -0.549529601 0.17777275078 -0.71292282788 -0.66419324008 0.22491861045 
-0.6051111719 -0.77181442856 0.19530222097 -0.61242132581 -0.76758119816 0.18910109443 -0.62170945172 -0.72976764563 0.28445832917 
-0.57790334259 -0.69402330907 0.42937090386 -0.57440140052 -0.69551294019 0.43165354292 -0.46567809135 -0.75411568193 0.4630911935 
-0.3440468551 -0.77266843096 0.53349344634 -0.30688928002 -0.75773635533 0.57589459593 -0.26794764429 -0.73646217419 0.62115016373 
-0.15673205242 -0.7464755596 0.64669104112 -0.097972003826 -0.71065252526 0.69668821923 -0.025829806182 -0.63495486613 0.77211730915 
0.066821520757 -0.59525830208 0.80075117119 0.22167679198 -0.52786568714 0.81988853891 0.37663110966 -0.42737139131 0.82188971348 
0.4684012152 -0.35929419919 0.80716044256 0.5707726793 -0.28680006296 0.76939214478 0.63746915604 -0.17239359218 0.75094175838 
0.68812410276 -0.077270846934 0.7214668637 0.71080473934 0.0057023036012 0.7033662675 0.73375598494 0.020090107905 0.6791160005 
0.75473303198 0.031458578255 0.65527735219 0.74861332767 0.069520957546 0.6593518955 0.76938669812 0.1143551527 0.62846400678 
0.77431694711 0.16945993533 0.60968565322 0.76868483284 0.20620435034 0.6054778226 0.76570440607 0.24249870011 0.5957274066 
0.74807673088 0.30321408376 0.59029011861 0.74807673088 0.30321408376 0.59029011861 
FrenetNormal 3 110 double
0.87101388735 -0.49025068577 -0.031449533332 0.87101388735 -0.49025068577 -0.031449533332 0.35717029941 -0.54904622323 0.75563061212 
0.84367083337 -0.31928507276 0.43159769141 0.89374762374 0.067501206338 -0.44346225566 0.10741383195 0.47533475839 -0.8732234171 
-0.14591225854 0.60570884084 -0.78219333476 0.97448981235 0.083238766079 0.20842483885 -0.18121664367 0.59986637326 -0.77930793804 
0.65756481354 0.70942177695 -0.253632132 0.68372825635 0.72711452204 0.061807307885 0.47068612988 0.88109206012 0.046166532608 
0.63442400908 0.42814686126 0.64358095209 0.28178216688 0.8716905986 0.40094177975 -0.35795528778 0.80236603729 -0.47757382063 
-0.46519257934 0.85876779824 -0.21474108325 0.10497193269 0.73875832531 0.66574546948 -0.718597029 0.56012610946 -0.41216143854 
-0.80004449085 0.54778122675 -0.24467231204 -0.9148069556 0.39231729408 -0.095996743461 -0.7263056356 0.54380563443 0.42042306748 
-0.72271273201 0.3466405088 0.59793533484 -0.92241174186 -0.018260266529 0.38577602459 -0.63242590548 -0.078343078836 0.77064897073 
0.16749598166 0.14212173831 0.97557496259 -0.084643391638 -0.13598161498 0.98708890007 -0.76674624185 -0.55183768435 0.32798684538 
-0.6553173294 -0.73729008846 0.16420268951 -0.059384640693 -0.56160847888 0.82526927781 0.3993650824 -0.085831333934 0.91276531106 
0.71316260437 0.29216994953 0.63720940068 0.64456255409 -0.23520860951 0.72747235265 0.75082381643 0.65816257643 -0.055548354286 
0.31188582419 0.75701864369 -0.57415155297 0.90786322939 0.39080311206 -0.15184625224 0.49266102523 0.33120943847 -0.80472692393 
0.89874020198 -0.067017304444 -0.43332981695 0.86123870364 -0.23895567662 -0.44851764733 0.37238270312 -0.18253709107 -0.90995128046 
-0.28430406356 -0.047593507288 -0.95755211739 0.81311965962 -0.58199180756 -0.011043327067 -0.17626756961 -0.42236155721 -0.88912342163 
-0.077408626442 -0.70817054167 -0.70178514409 0.059305721204 -0.88592105272 -0.46002904233 -0.38986937685 -0.76421586857 -0.51378592354 
-0.51726913392 -0.84079223922 -0.15969049303 -0.95164255141 -0.20486993955 -0.22892086453 -0.53285143232 -0.82273206352 0.19794267534 
-0.95776907419 0.26190146641 -0.11868455 -0.29898182057 0.91239631905 -0.27954038698 -0.99227791465 -0.071901019708 0.10106821193 
-0.96932377357 -0.12550236575 0.21133049514 0.38902442773 0.8735361371 -0.29256556841 0.72392000939 0.66514989203 -0.18307222929 
0.049437329343 0.99555852782 -0.0801197114 0.46106815314 0.88733408394 0.0073743907053 0.94484454798 -0.32407135709 0.047397633477 
0.82260628456 -0.54810759206 0.15131744161 0.68358355913 -0.6758680717 0.27552834219 0.82900283174 -0.32916083495 0.45211442103 
0.33007045701 0.9318200631 0.15088029498 0.11670496597 0.98488474073 0.12799218097 0.27492113585 0.89479803164 0.35178807773 
0.56585451234 0.46315655624 0.68212511703 0.48292531452 0.11450370757 0.86814286932 -0.015512501636 0.71724827229 0.6966450159 
-0.19375745945 0.67312012526 0.71369975751 0.18556604131 -0.17927905523 0.96613884337 -0.4562312248 0.86706782981 -0.20011608638 
-0.50852800821 0.85089219985 -0.13183978571 -0.61511976554 0.78687820718 0.049501122227 0.47218273117 -0.52319221655 0.709445821 
0.23664265053 -0.40428943064 0.88348758465 -0.61664204288 0.78701219122 -0.019089311569 0.15893209466 -0.40534445153 0.90024244784 
0.57103525416 -0.70092789733 -0.4273392344 0.41446035561 -0.63411187353 -0.65278231094 -0.48107701407 0.8742616581 -0.065049671066 
0.012839890706 -0.14848819717 -0.98883082097 -0.52814862624 0.5856751078 -0.61485258129 -0.69360731194 0.71510643214 -0.086785295635 
-0.47396970963 0.54633791758 0.69055600364 0.54462274222 -0.58305171323 -0.60285717077 -0.48746395622 0.076238961977 -0.86980831915 
0.049201412521 -0.55479381918 -0.83053178097 -0.1291405333 0.59771617293 0.79123833279 -0.80465413936 0.14301168015 -0.57626328649 
-0.92841635253 0.19506242387 -0.31621784761 0.10976375738 -0.62923413302 -0.76942597007 -0.91378929434 -0.010020340882 -0.40606491884 
-0.98481520645 0.16761940475 -0.045196728793 -0.27323474932 -0.65394569536 -0.70547700124 -0.84674350489 -0.3966604178 -0.35452214301 
-0.90809552451 -0.36879562658 -0.198374152 -0.90080727377 -0.43279880252 -0.035092051266 -0.74038352964 -0.67210718927 -0.010205644514 
-0.87283431956 -0.32980864897 0.35970335787 -0.67403863496 -0.69877281176 0.23955891996 -0.23044147963 -0.97269239883 -0.027680710192 
-0.55475462883 -0.6969219802 0.45447448256 0.30759013531 -0.90180743739 -0.30353196624 -0.63473018092 0.37677721802 0.67465289254 
0.41022662634 -0.80210589901 -0.43398184503 -0.64929062992 0.27811360218 0.70786616121 -0.064655228732 -0.96485170519 0.25471727149 
-0.21155915825 -0.8387114519 0.50180257373 0.31588693663 -0.94549964912 -0.079030733083 -0.20093980889 -0.78965560143 0.57971305344 
0.46043476154 -0.8777266353 -0.13264910121 0.46043476154 -0.8777266353 -0.13264910121 
FrenetBinormal 3 110 double
0.24128002432 0.48268308711 -0.84190319354 0.24128002432 0.48268308711 -0.84190319354 0.86689073571 -0.10633573025 -0.48702480923 
0.49691991384 0.16014021404 -0.85289255541 -0.44409317908 0.27247558392 -0.8535445533 -0.99379450949 0.025809393066 -0.10819587859 
-0.98866220962 -0.11761043203 0.093353208521 0.1042830399 0.65439981508 -0.74892318005 -0.92633110644 -0.37022937296 -0.069576523664 
-0.64050491531 0.34914316603 -0.68399744377 -0.48634804603 0.51719241533 -0.70425675975 -0.59986180594 0.35794449666 -0.71557078692 
-0.14346749488 0.88334567103 -0.44622584347 -0.41663369273 0.48758543079 -0.76725277045 -0.35489518505 -0.58999034071 -0.72523155302 
-0.43086660144 -0.43157608771 -0.79252511145 -0.68549368105 0.53874647279 -0.48974549645 -0.12234193508 -0.68525323092 -0.71795575103 
-0.19889690681 -0.62693992555 -0.75325052288 -0.1915773183 -0.63072546372 -0.75198638321 -0.65455229461 -0.36043367154 -0.66456667239 
-0.69086171919 -0.33739939396 -0.63943078899 -0.34519443341 -0.40897408027 -0.8447372401 -0.66949451963 -0.44513894136 -0.5946666386 
-0.89541555528 -0.39213420119 0.21085955425 -0.91808732255 -0.37435055085 -0.1302970961 -0.36921450416 -0.038873856823 -0.92853081434 
-0.28445902772 0.039503376673 -0.95787397124 -0.60767297238 -0.63555845035 -0.47623420165 -0.49313824774 -0.85942036668 0.13494925691 
-0.18940300159 -0.79488247066 0.57644458608 -0.54146262212 -0.8121970207 0.21715024385 0.51355479673 -0.52882643522 0.67572484945 
0.88454177171 -0.010736445717 0.46633741308 0.34703492643 -0.49721110581 0.7952030408 0.86894594402 -0.23728054215 0.43431657887 
0.38567349748 -0.34936691457 0.85393132765 0.35704684659 -0.34353341196 0.86862094391 0.78191344685 -0.46645683045 0.41355699361 
0.81557281147 -0.5370470539 -0.21545637862 0.19938596835 0.26064436773 0.94462148461 0.71801924752 -0.6730438579 0.17737058811 
0.75286823002 -0.50297410034 0.42450734106 0.75775450231 -0.26004695638 0.5984844983 0.69011385182 -0.61187989912 0.38645292155 
0.73317273032 -0.5316066299 0.42408977653 0.13823916363 -0.95103503319 0.27644583426 0.83842967543 -0.48166086092 0.25502645825 
-0.28645117637 -0.90493730785 0.31469698507 -0.95399276637 -0.27886927346 0.11013505359 0.096729818157 -0.95863410794 0.26770130627 
0.1786420091 -0.95028321629 0.25504674359 -0.89706350489 0.43147016867 0.095449262659 -0.67666815116 0.73628787862 -0.00061075004127 
-0.99487396166 0.056170444945 0.084087344573 -0.88655938869 0.46027981842 0.046421321336 0.31580076852 0.93981291555 0.13046669449 
0.52796451342 0.83506816086 0.15464358793 0.64988095966 0.73545767948 0.19172047351 0.34379878563 0.93759043324 0.052216611363 
-0.73748185354 0.35432826639 -0.57495390714 -0.77913701658 0.17070943261 -0.60316150326 -0.7234967388 0.43350452972 -0.53723951051 
-0.44983847337 0.86675631404 -0.21535747015 -0.26710165332 0.96342826011 0.021510332958 -0.4187241746 0.6280326832 -0.65593064758 
-0.41467790972 0.60310982317 -0.6813961934 -0.42314707693 0.8728025063 0.24323309046 0.052043312615 -0.19850055096 -0.97871805178 
0.020828467995 -0.14091502957 -0.9898025709 -0.07372669225 0.0051024571574 -0.99726543096 -0.46288908425 0.53775915688 0.70466217784 
-0.57051241118 0.6782239199 0.46317156989 0.11844113258 0.068774485891 -0.99057648276 -0.62958096451 0.66077086947 0.40866816268 
0.14212179111 -0.42828833384 0.89239593208 0.27396496109 -0.59708109089 0.75394785695 0.045395644772 -0.049258435691 -0.99775389849 
0.52735215995 -0.83919392789 0.13286553649 0.23376261869 -0.59582034686 -0.76834442301 -0.10319853834 -0.21787641118 -0.97050498769 
-0.63968209604 0.32529581566 -0.69641183815 0.57299754654 -0.2662138312 0.77511548026 0.61307116147 -0.67943123572 -0.40313390691 
0.81462073852 -0.45884143739 0.35476412968 -0.80832280293 0.39874443777 -0.43314791885 0.36834173162 -0.64098143312 -0.67339971127 
0.14026702339 -0.60409779555 -0.78446861987 0.94539456703 -0.17291622728 0.2762771995 0.30527558938 -0.67640450823 -0.67028632373 
-0.074659713949 -0.64395494723 -0.76141181567 0.95694527442 -0.2594764264 -0.13010659442 0.53137393429 -0.66294255478 -0.52739824708 
0.41339739081 -0.71390289229 -0.56519488467 0.37337066759 -0.73078246618 -0.57144670067 0.55675958571 -0.60466984382 -0.56955521566 
0.13696916515 -0.87300282559 -0.46808707983 0.46892479903 -0.65533371761 -0.59215475293 0.73520731741 -0.15540253095 -0.65978803703 
0.46768848712 -0.71297192772 -0.52243517233 0.63257009982 0.43210048554 -0.64276297281 -0.24232158797 -0.92608601952 0.28921433654 
0.51194937784 0.59635265123 -0.61828096356 -0.13416319742 -0.95802905005 0.25333885551 0.63550280106 -0.23660956457 -0.73495040907 
0.59638577111 -0.51753882054 -0.61357768966 0.55618258785 0.25201226043 -0.79192850029 0.61099914545 -0.56359419051 -0.55591513084 
0.47789228397 0.37102179599 -0.79621717629 0.47789228397 0.37102179599 -0.79621717629 
SiphonLabel 1 110 int
0 0 0 0 0 0 0 0 0 
0 0 0 0 0 0 0 0 0 
0 0 0 0 1 1 1 1 1 
1 1 1 1 1 1 1 1 1 
1 1 1 1 1 1 1 1 1 
1 1 1 1 1 1 1 0 0 
0 0 0 0 0 0 0 0 0 
0 0 0 0 0 0 0 0 0 
0 0 0 0 0 0 0 0 0 
0 0 0 0 0 0 0 0 0 
0 0 0 0 0 0 0 0 0 
0 0 0 0 0 0 0 0 0 
0 0 
