# vtk DataFile Version 5.1
vtk output
ASCII
DATASET POLYDATA
POINTS 72 float
108.022 80.2384 28.7858 107.533 80.0241 28.4129 106.854 79.6033 27.9354 
106.271 79.2812 27.6551 105.767 79.0787 27.4197 104.972 78.662 27.1202 
104.199 78.0953 26.9469 103.581 77.5753 26.8127 102.976 76.8453 26.6194 
102.539 75.9941 26.4457 102.262 75.3059 26.3181 101.993 74.5682 26.0876 
101.822 73.9834 25.8963 101.713 73.5987 25.7822 101.513 72.9863 25.6008 
101.408 72.4506 25.4406 101.284 71.8534 25.2123 101.267 71.314 25.0257 
101.244 70.7876 24.7922 101.275 70.259 24.5446 101.329 69.5126 24.1146 
101.466 68.8972 23.64 101.616 68.416 23.2232 101.801 67.8253 22.6983 
101.95 67.2857 22.2773 102.059 66.9268 21.968 102.195 66.4209 21.5732 
102.339 65.8244 21.0725 102.398 65.2575 20.4571 102.477 64.7631 19.8663 
102.699 64.2104 19.2411 102.939 63.9033 18.7169 103.256 63.6277 18.1347 
103.567 63.3416 17.4135 103.917 63.1742 16.6974 104.325 63.1625 15.9099 
104.62 63.262 15.2348 104.939 63.5553 14.4242 105.035 64.0353 13.6082 
105.008 64.5361 12.9276 104.939 65.0607 12.3324 104.821 65.3516 12.0405 
104.514 65.8972 11.5547 104.051 66.6318 11.0642 103.672 67.3309 10.9438 
103.145 68.1601 10.926 102.639 68.8266 11.0338 102.075 69.475 11.4249 
101.694 69.9636 11.9687 101.394 70.1624 12.6581 101.158 70.5326 13.5275 
101.127 70.6494 13.7112 100.941 71.1965 14.4433 100.891 71.7445 15.0256 
101.068 72.3819 15.4359 101.348 72.9882 15.6636 101.684 73.8756 15.7656 
101.965 74.7586 15.6492 102.102 75.2485 15.4582 102.333 75.7915 15.1335 
102.553 76.332 14.4871 102.79 76.781 13.8459 103.112 77.1237 13.1088 
103.48 77.2456 12.3218 103.763 77.0767 11.4332 103.791 76.8342 10.4965 
103.866 76.729 9.723 104.035 76.6161 8.91726 104.255 76.5225 8.11616 
104.371 76.471 7.28439 104.489 76.421 6.40165 104.488 76.4275 6.0879 

LINES 2 72
OFFSETS vtktypeint64
0 72 
CONNECTIVITY vtktypeint64
71 70 69 68 67 66 65 64 63 
62 61 60 59 58 57 56 55 54 
53 52 51 50 49 48 47 46 45 
44 43 42 41 40 39 38 37 36 
35 34 33 32 31 30 29 28 27 
26 25 24 23 22 21 20 19 18 
17 16 15 14 13 12 11 10 9 
8 7 6 5 4 3 2 1 0 

CELL_DATA 1
FIELD FieldData 2
Length 1 1 double
54.98248025 
Tortuosity 1 1 double
1.3612564287 
POINT_DATA 72
FIELD FieldData 7
MaximumInscribedSphereRadius 1 72 double
1.7176428602 1.7399097024 1.8115243698 1.8912097781 1.9176118302 1.928665382 1.8914030061 1.8479942607 1.8002375641 
1.7459959813 1.7588634769 1.7881302688 1.8355532485 1.8511021878 1.8509536458 1.8374515834 1.8147287896 1.817768189 
1.8042835552 1.8155944924 1.7566256005 1.6854205108 1.692174709 1.7496920948 1.7959788313 1.8013691648 1.8265700626 
1.9088571823 2.0585429624 2.2377941973 2.3406809498 2.3410772124 2.3371836286 2.3901366232 2.4998204844 2.6069844206 
2.602313735 2.5762513745 2.5366013445 2.5612586188 2.6010075318 2.5801783703 2.6053120698 2.6733449047 2.625784804 
2.6407606963 2.6466529748 2.6803219375 2.6029888113 2.1943568671 1.7515451156 1.6475969329 1.4378398705 1.50394795 
1.630708358 1.7366925215 1.8195469576 1.9096680118 1.981133201 2.0660000598 2.0302494255 2.0735136852 2.2259692643 
2.4084410033 2.5463070293 2.7059833819 2.7372574654 2.7304656129 2.6928558785 2.6036520931 2.5454220538 2.5571571202 

Curvature 1 72 double
0 0.17577899572 0.17903020843 0.17342838797 0.16727026633 0.21401483811 0.07497947476 0.20366071193 0.22289314987 
0.10610022164 0.15277462847 0.087339968947 0.053072472671 0.072744209879 0.18892467554 0.12022225016 0.26796990636 0.14788008911 
0.16348656769 0.11759605447 0.21177578313 0.11121916146 0.017387136755 0.08535327881 0.083895181235 0.090236792504 0.059457363 
0.20933572021 0.070512901534 0.19712403373 0.28972557114 0.16684742756 0.12372903385 0.18208646209 0.23113997319 0.19926201123 
0.23511609612 0.33878689271 0.18832203417 0.12572347708 0.33396866013 0.21371578419 0.17073375585 0.42122243938 0.16782611036 
0.18546695875 0.34861552906 0.34137793039 0.53920262915 0.2184989833 0.31759425467 0.16033441539 0.20534131907 0.49508608627 
0.36893325134 0.28236478888 0.25563304055 0.32305939496 0.30638746775 0.44216983084 0.10876140855 0.22006920279 0.30656091536 
0.38591436163 0.29921120574 0.15521900068 0.13615186273 0.078435264104 0.16687064812 0.0084690946153 0.25633688447 0 

Torsion 1 72 double
0 0 1.1540964347 0.32270021697 -0.40985452837 -0.10218482744 -1.5094191627 0.072166913259 0.11758822709 
-0.85591172834 -0.13148134908 1.4166960914 2.7885883064 0.66614487148 -0.51183185274 0.47304393578 -0.076829654575 -0.54513199511 
0.18833332902 -0.21758501557 0.22842978621 0.068297701053 -5.1175628681 -0.083660633912 -0.1248316633 0.40802673522 0.6740551134 
0.18595596054 3.3366936503 -0.61170739001 -0.30668698967 -0.19328142995 0.064154384019 0.26913985452 -0.3454802423 -0.19151216429 
-0.36645220413 -0.20053995687 0.19382579685 -0.74560641052 -0.13916169885 0.47066804176 0.90152583304 -0.037004466482 -0.83433180747 
0.30089974291 0.2877073635 -0.2421295053 0.039211085007 1.5669026928 0.62012041288 0.50274696301 -0.44560109219 0.052980625211 
0.48360046712 0.55432687779 -0.10274033985 -0.51528031176 0.16466843885 0.19306721637 -1.7197070626 0.11579099785 0.39084303576 
0.53835687607 0.71864811728 1.2371760332 0.49378471606 -1.2474022059 -0.18030254334 0.085292209732 0 0 

FrenetTangent 3 72 double
0.74011210611 0.40242662212 0.53878278016 0.74011210611 0.40242662212 0.53878278016 0.76523823384 0.45064075604 0.45971007653 
0.82820206216 0.39962587591 0.3929128447 0.84609126079 0.40336382967 0.34846405744 0.82072536101 0.51491777845 0.24752689395 
0.77643650876 0.60638029342 0.17160794744 0.68735222351 0.70260660881 0.18409474218 0.54014995955 0.81977914753 0.19026342389 
0.41432319666 0.8931814619 0.1748232388 0.34788471707 0.90929468125 0.22838433895 0.30256290621 0.9080658942 0.28960666354 
0.26575895828 0.91950515635 0.28962465976 0.28410373425 0.91927665249 0.27242522711 0.24701503827 0.9287735814 0.27633893204 
0.18786644845 0.92907144445 0.31864156769 0.11599923335 0.93302288012 0.34060605255 0.035292988865 0.92975695463 0.36647838989 
-0.0071787957554 0.90984491685 0.41488636056 -0.058858125541 0.88151094061 0.46848071747 -0.11604523852 0.82733854199 0.54958569811 
-0.19927479906 0.76042158709 0.618100772 -0.22866285617 0.73136508219 0.64250946667 -0.22042081875 0.74802099537 0.62600259835 
-0.21770268305 0.75738331873 0.61561030718 -0.21488306768 0.75736543705 0.61662213874 -0.19321826565 0.76158385815 0.61859253861 
-0.12512039554 0.71595966515 0.68683815015 -0.085491754356 0.65813368417 0.7480315593 -0.18426595684 0.64135357245 0.74478966981 
-0.30633991051 0.57019922958 0.76225238459 -0.40666906027 0.42568176829 0.80834108368 -0.40457783536 0.36196792702 0.83981902511 
-0.40168951532 0.27554642588 0.87333825089 -0.44775878844 0.10573740604 0.88788043583 -0.43272322313 -0.05397891984 0.89990937787 
-0.37112433805 -0.23738099942 0.89772879358 -0.22453657734 -0.41840593218 0.88006806632 -0.038163649143 -0.54769757701 0.8358055396 
0.058409907363 -0.62541827839 0.77810041754 0.15314901887 -0.66883497815 0.72746487889 0.34871203692 -0.68637481715 0.63819238925 
0.43131137182 -0.71740583181 0.54708260165 0.47535086775 -0.80939296495 0.34485443424 0.5083351964 -0.85765936878 0.077561170983 
0.56787455405 -0.82162901061 -0.049439455726 0.60565496128 -0.74398159157 -0.28226487435 0.54014437515 -0.65002968023 -0.53451423631 
0.43432523567 -0.43860365465 -0.78675817364 0.30712631265 -0.32634768646 -0.89396343081 0.22480344857 -0.40898285587 -0.88441869786 
0.18821341597 -0.57642594546 -0.79517849534 0.13638555487 -0.63410094042 -0.7611274386 -0.081356749003 -0.76415440472 -0.63988211816 
-0.31063303348 -0.8457378101 -0.43386020224 -0.37384968163 -0.90568506171 -0.1999274482 -0.32896012289 -0.94431260157 0.0076777642062 
-0.28481640123 -0.93542208394 0.20944006891 -0.30433953246 -0.85223126228 0.4255341638 -0.29570530121 -0.71136978716 0.63758246584 
-0.27091386482 -0.58654737666 0.76326132666 -0.33188872072 -0.46981497189 0.81799985895 -0.39724274155 -0.26760570886 0.87782993163 
-0.36211080235 0.02610839546 0.93176934834 -0.16392718254 0.21692045035 0.96232707384 -0.0587236911 0.19892126665 0.9782544954 
-0.1512952843 0.13518272917 0.9792013923 -0.23374098963 0.12388313661 0.96437446992 -0.20064597122 0.086706306603 0.975819251 
-0.13462941485 0.05860380662 0.98916152094 -0.097713428945 0.036204956247 0.99455582395 -0.097713428945 0.036204956247 0.99455582395 

FrenetNormal 3 72 double
0.16583859735 -0.88566079702 0.43370786509 0.16583859735 -0.88566079702 0.43370786509 -0.53154879698 0.039494471371 0.84610641362 
-0.39987135549 0.9125921029 -0.085314434772 0.10277656485 -0.76491532027 0.63587855014 0.22917617095 -0.69358431409 0.68294881354 
0.57320486571 -0.79269280563 0.20754348421 0.72611384239 -0.6586140983 -0.19744912613 0.82018401048 -0.56343649266 0.099184210912 
0.89523930089 -0.43455957506 0.098511775271 0.32858249822 0.10989762033 -0.93805972886 0.93443025136 -0.22271097383 -0.27792072157 
0.29664259295 -0.36385012989 0.8829588071 -0.95870992459 0.2686179974 0.093379076745 0.96875300605 -0.23010613986 -0.092567692345 
-0.057092436285 0.33419899064 -0.94077175148 0.97414277853 -0.1738073365 0.14434977252 -0.09713360864 0.36816195725 -0.92467390755 
0.97606541291 0.096559367575 -0.19486559021 0.11310808782 0.47216110536 -0.87422562937 0.63838822552 0.48602471938 -0.59685881552 
0.70672031166 0.54846835897 -0.44691034928 -0.19704046603 0.61156493612 -0.76626587009 -0.24171893721 -0.66365827717 0.70790511125 
0.28108570206 0.65266814798 -0.70357310687 -0.37432551623 -0.64702367611 0.66425956557 -0.57186960779 0.42489328655 -0.70173417099 
-0.65836517903 0.45798212436 -0.59733379681 0.54795441687 0.658098649 -0.5163836996 0.96912166741 -0.0077727833427 0.24646049905 
0.51088170726 0.77413985524 -0.3737744851 0.64970437189 0.75680004525 -0.071679290222 -0.72320330807 0.43543312877 -0.53607365685 
0.38598165469 0.91575573749 -0.11139834601 0.15453309791 0.98719234476 -0.039633270066 -0.38953243583 0.91141180995 -0.13263858456 
-0.26014226561 0.95463825738 0.14488546922 -0.79754391536 0.59783301554 0.080742730983 -0.79267136919 0.52588324506 0.30841354224 
-0.51746544587 0.64757676777 0.55935126903 -0.94474817294 0.1168023254 0.30628109066 -0.84425516163 0.065644120357 0.53190607396 
-0.50658055948 0.30919946694 0.80484273396 -0.027678748512 0.37801872091 0.92538410054 -0.43355911538 -0.17706751775 0.88355734824 
-0.38427230629 -0.31775089395 0.86681553055 0.01577547685 -0.34342946195 0.93904597278 0.45100379326 -0.31264862744 0.83597034291 
0.18349469375 -0.81204458789 0.55399754931 0.75776112731 0.65215224253 0.022260424363 0.5059841193 0.82468137486 -0.25274631741 
-0.58132546452 0.5871986973 -0.56325695219 0.76555178199 0.55509252018 -0.32527336678 0.76945604283 0.35990922359 -0.52763884327 
0.63397184438 0.15574705742 -0.75751076206 -0.19839627184 0.28865741036 -0.93665138593 -0.21976703404 0.068645801565 -0.9731342172 
-0.18914685515 -0.15935180059 -0.96893264515 0.48141568179 -0.52308468031 -0.70329322373 -0.28078726381 -0.57322271843 -0.76978843039 
0.42212039682 -0.78499803663 -0.45342303986 0.41756568544 -0.85073618322 -0.31919718811 0.19619729071 -0.95918934028 -0.20362326146 
-0.35629096946 -0.92758099687 -0.11247328271 -0.96055516158 -0.25724321061 -0.10563953875 0.4917657377 0.85855898926 -0.14506178405 
0.98786908208 -0.014388807045 0.15462095236 0.91462106128 0.36454763084 0.17485233517 -0.9052474216 0.36438884982 -0.21851286416 
-0.71265324004 0.68785956168 -0.13774825905 -0.86052932854 0.49893911259 -0.10270850331 -0.86052932854 0.49893911259 -0.10270850331 

FrenetBinormal 3 72 double
0.65171437764 -0.23164146093 -0.72222614433 0.65171437764 -0.23164146093 -0.72222614433 0.36313402747 -0.89183131574 0.26976023126 
-0.39266301493 -0.086457000989 0.91560960222 0.52303590329 -0.5021973454 -0.68864451653 0.52334325683 -0.50378614578 -0.68724912139 
0.26188266418 -0.062777827829 -0.96305576917 -0.017481668299 0.26939083649 -0.96287224931 0.18851050411 0.10247667054 -0.97670994765 
0.16396000382 0.11569292045 -0.9796592598 -0.87807161752 0.40137974002 -0.26054661543 -0.18787174649 0.35470572863 -0.91590832126 
0.91726514604 -0.14873920272 -0.3694608253 0.012662886137 -0.28770611334 0.95763502633 -0.022387142197 0.29056978317 -0.95659187587 
-0.98053386034 0.15854742435 0.11582772969 0.19388147129 0.31505446347 -0.92905901865 -0.99464539762 -0.0029628625758 0.10330418402 
-0.21735863131 0.40355732656 -0.88876133443 -0.99183783026 0.0015336762879 -0.1274965345 -0.7609165369 0.28158641498 -0.58456403821 
-0.67884899318 0.34776640017 -0.64670130305 -0.95335636199 -0.30181690718 0.0042663316126 0.94497969187 0.0047203414609 0.32709494084 
-0.93466377371 0.019869502299 -0.35497722883 0.90205635917 -0.088079267217 0.42253564058 -0.7972652341 -0.48934213191 0.35342951834 
-0.74222650024 -0.52692896261 0.41406000857 -0.83212806524 0.36574064848 -0.41688926717 0.16385741027 0.76720608636 -0.62011738417 
-0.80321587411 0.27491875729 -0.52845428986 -0.64226513572 0.49603298645 -0.58433446911 -0.559726496 -0.82424341683 0.08560980955 
-0.83045993011 0.29234499557 -0.47420534375 -0.88069948849 0.11946076934 -0.45836397717 -0.81302834735 -0.40793968781 -0.41541559613 
-0.89139930859 -0.17976667841 -0.41604232235 -0.55991698359 -0.68376323493 -0.46793248449 -0.6084534792 -0.65074893523 -0.45421381192 
-0.85370826109 -0.43531173531 -0.28580744927 -0.28982109608 -0.73417776375 -0.61399246207 -0.40698051227 -0.72427926924 -0.55658458727 
-0.74655651983 -0.62427923411 -0.2300626014 -0.87936081298 -0.44942727435 0.15728854269 -0.74405767355 -0.48277065082 -0.46185568864 
-0.72791021801 -0.47324426918 -0.49617192203 -0.79557099131 -0.57319071528 -0.1962630931 -0.71052067701 -0.69261262664 0.12429045401 
-0.88186806668 -0.38498106629 -0.27221001373 0.57573561815 -0.68424749916 0.44758670432 0.83273253841 -0.39068357216 0.39233004718 
0.79160369779 0.56827002322 -0.22457240783 0.62875229584 -0.53831987832 0.56114370626 0.63349702252 -0.53528814345 0.55870218 
0.70822794286 -0.51036301853 0.48779377843 0.90602170772 -0.31050196207 -0.28759902067 0.91841585804 -0.32180967114 -0.23011051097 
0.93973564622 -0.3155828394 -0.13154613904 0.82195887385 -0.0091811112994 0.56947284122 0.91308098618 -0.40665555571 -0.030238579486 
0.86511273741 0.19934958596 0.46026046337 0.84586569584 0.23563072537 0.47852835429 0.89649586023 0.091339991664 0.43353451826 
0.86135504404 -0.37270879508 0.34518928456 0.22463672981 -0.94168542986 0.25053321298 -0.86874506464 0.47255348019 -0.14824041631 
0.034991622218 0.99071620153 -0.13136587992 -0.32989917253 0.92290735901 -0.19851584988 -0.37452409791 -0.92720158678 0.0053775058149 
-0.68847678256 -0.72347413033 -0.050841937619 -0.49994135709 -0.86588045541 -0.017597624838 -0.49994135709 -0.86588045541 -0.017597624838 

SiphonLabel 1 72 int
0 0 0 0 0 0 0 0 0 
0 0 0 1 1 1 1 1 1 
1 1 1 1 1 1 1 1 1 
1 1 1 1 1 1 1 1 1 
0 0 0 0 0 0 0 0 0 
0 0 0 0 0 0 0 0 0 
0 0 0 0 0 0 0 0 0 
0 0 0 0 0 0 0 0 0 

