# vtk DataFile Version 5.1
vtk output
ASCII
DATASET POLYDATA
POINTS 101 float
86.3401 85.6544 36.7692 86.9053 85.6502 36.4438 87.6021 85.4909 36.0505 
88.3778 85.1915 35.6961 88.9716 84.8522 35.4381 89.6519 84.5032 35.265 
90.2086 84.1464 35.1534 90.6969 83.7126 35.0544 91.3213 82.9999 34.936 
91.774 82.2177 34.7274 91.9973 81.6564 34.5295 92.2156 80.7989 34.1815 
92.2776 79.9355 33.8007 92.2521 79.4634 33.6127 92.2036 78.8948 33.3045 
92.1545 78.29 32.8951 92.0617 77.8443 32.5235 91.8539 77.1792 31.8974 
91.5277 76.8147 31.5348 91.2501 76.5005 31.1112 90.8117 76.2528 30.6317 
90.3578 76.0408 30.1486 89.8395 75.9503 29.6121 89.1511 76.1227 28.9807 
88.6466 76.5248 28.3453 88.5051 76.8324 28.0501 88.346 77.5324 27.6815 
88.2834 78.3024 27.4153 88.407 79.2142 27.1287 88.5484 79.6835 27.0678 
88.9032 80.4062 27.1173 89.2247 81.1655 27.2018 89.4941 81.8607 27.3089 
89.8126 82.6536 27.4606 90.1691 83.4865 27.6572 90.4661 84.2366 27.8045 
90.6403 85.0221 28.0482 90.6704 85.8035 28.1675 90.5327 86.6387 28.185 
90.4865 87.4695 28.1257 90.374 88.2576 27.9481 90.1057 88.9576 27.6895 
89.6509 89.6435 27.1408 89.1639 90.2302 26.5292 88.8935 90.5547 25.8766 
88.5846 90.7093 25.0361 88.3318 90.5934 24.2959 88.2084 90.2021 23.4933 
88.0973 89.7186 22.7534 88.0813 89.4361 22.0805 88.1128 89.2603 21.3102 
88.1767 89.1082 20.6323 88.3342 88.9707 19.9656 88.511 88.8573 19.174 
88.6321 88.7919 18.5439 88.6232 88.6849 17.9316 88.4696 88.5676 16.9618 
88.1745 88.478 16.037 87.8302 88.4833 15.3647 87.3618 88.5336 14.5078 
86.901 88.5688 13.8354 86.2121 88.7808 13.2012 85.6177 89.0629 12.8902 
85.0263 89.4015 12.6694 84.3681 89.884 12.5996 83.6354 90.5202 12.6411 
82.9028 91.1065 12.7061 82.1782 91.7186 12.8279 81.4878 92.304 12.9442 
80.8334 92.8223 12.9864 80.0568 93.3414 13.1189 79.4129 93.7679 13.204 
78.7142 94.2214 13.2772 78.2636 94.4799 13.3095 77.6379 94.887 13.3934 
77.1962 95.1665 13.4812 76.5007 95.6027 13.5653 75.7046 95.9588 13.5719 
75.0205 96.2824 13.5294 74.4165 96.7881 13.411 73.7075 97.2594 13.3709 
72.8609 97.6904 13.4043 72.1437 97.9617 13.4175 71.6637 98.1742 13.3931 
70.8377 98.6923 13.2448 70.0957 99.2526 13.0252 69.284 99.6429 12.8826 
68.552 99.9998 12.6037 67.8738 100.582 12.1705 67.6256 101.037 11.8324 
67.4307 101.538 11.3052 67.1606 102.025 10.6333 66.7986 102.553 9.9059 
66.4673 103.037 9.18561 66.3777 103.773 8.63683 66.5045 104.102 8.22275 
66.8275 104.461 7.63289 67.1312 104.797 6.91821 67.3596 104.942 6.21276 
67.6749 105.172 5.31158 67.6785 105.182 5.28496 
LINES 2 101
OFFSETS vtktypeint64
0 101 
CONNECTIVITY vtktypeint64
100 99 98 97 96 95 94 93 92 
91 90 89 88 87 86 85 84 83 
82 81 80 79 78 77 76 75 74 
73 72 71 70 69 68 67 66 65 
64 63 62 61 60 59 58 57 56 
55 54 53 52 51 50 49 48 47 
46 45 44 43 42 41 40 39 38 
37 36 35 34 33 32 31 30 29 
28 27 26 25 24 23 22 21 20 
19 18 17 16 15 14 13 12 11 
10 9 8 7 6 5 4 3 2 
1 0 
CELL_DATA 1
FIELD FieldData 2
Length 1 1 double
79.692588989 
Tortuosity 1 1 double
0.92108436342 
POINT_DATA 101
FIELD FieldData 7
MaximumInscribedSphereRadius 1 101 double
1.2947066039 1.2794387526 1.2877599956 1.3241620021 1.3765009469 1.4222659516 1.4308105988 1.4246042585 1.4005374679 
1.4426270533 1.4795556955 1.4826666167 1.4829011378 1.517276615 1.5842786518 1.6716608319 1.7216135616 1.7289562243 
1.6664089793 1.5774841459 1.4480587758 1.3984527349 1.4434759822 1.6065364188 1.7968225118 1.8296225997 1.8249216248 
1.8523559831 1.9487573096 1.9720288268 1.9079480186 1.9365781023 2.0134335161 2.1064188305 2.2296150404 2.2464915677 
2.2226896952 2.2366709491 2.2887119526 2.2553186657 2.2277418891 2.2116918762 2.0518353283 1.933503672 1.8899594516 
1.8441835848 1.8732320822 1.8574835318 1.9087936672 1.9010263781 1.9254361698 1.9374415127 1.9767436551 2.0062209427 
1.9839960383 1.9576487385 1.8723490258 1.8040934314 1.6831103515 1.5616760537 1.6368382733 1.7666949623 1.7835467163 
1.7644362186 1.6981843238 1.6326872573 1.5591444891 1.5637799625 1.610298129 1.6743129878 1.7292064697 1.7473690169 
1.756493847 1.7482477828 1.6982465541 1.6704927656 1.6359109146 1.6752007772 1.682282059 1.6513732547 1.6567787313 
1.6383053553 1.6117860652 1.6128789457 1.69129334 1.7269179324 1.6529424589 1.5706163576 1.4657327198 1.3162216724 
1.1180427456 1.023274278 1.1033930409 1.3037085408 1.2271511899 1.0865477832 0.89925818025 0.89566470387 0.99097240173 
1.20710236 1.2127905475 
Curvature 1 101 double
0 0.26100337391 0.19109606626 0.1794815497 0.19195422032 0.15082691138 0.23453987951 0.15704930994 0.23323304548 
0.21460287911 0.17067225269 0.17886333156 0.16721580916 0.20790106385 0.14281100277 0.20538106251 0.11548848122 0.45349852378 
0.25492917086 0.37447060215 0.080939380157 0.26328218906 0.37071061602 0.34655179386 0.52113267088 0.48022330303 0.23998327822 
0.23486096607 0.32624237141 0.38422202834 0.084361894826 0.064133859438 0.043340685135 0.049064306641 0.048777828263 0.23238288379 
0.27998894906 0.29636861191 0.16914631993 0.20853810365 0.30616209237 0.36930039341 0.1258154052 0.37292168774 0.31580290129 
0.38323056261 0.41864547991 0.13969129579 0.25935075914 0.24318103114 0.070146648077 0.19633349168 0.079383233579 0.065420882659 
0.34243868915 0.1883373028 0.15691927447 0.2234712985 0.059859330353 0.11272940353 0.32847580746 0.3676368207 0.20432773368 
0.33414266704 0.17093926503 0.050104091677 0.067864090802 0.0018777841047 0.096190785336 0.13627299191 0.036607207103 0.02969723141 
0.088846070868 0.11745600729 0.087333305364 0.095048914493 0.19960338621 0.082285764786 0.35300723514 0.1827820344 0.15800414813 
0.12937873833 0.13017125765 0.23546528932 0.12123150235 0.22563523141 0.19639305144 0.29059838995 0.4295458032 0.3260723681 
0.16983631782 0.074158476751 0.040823490805 0.47512186005 0.59146985152 0.36255690175 0.15140841003 0.29040226925 0.055276051005 
0.44723981295 0 
Torsion 1 101 double
0 0 -0.13334000454 -0.38515362903 -0.10989636143 1.3105429807 0.16924609489 0.52659797272 0.2963164098 
0.037248494785 -0.16342900225 -0.30379532088 0.51387164635 0.85526729149 -0.4771179474 -0.43428296125 -1.6627708269 0.23361312178 
0.089345339814 -0.47007724497 1.5631143034 -0.086504054044 0.28647990891 0.33983873379 -0.37626666148 -0.37009354098 0.66227810153 
-0.087933659544 -0.28026553627 -0.15221920785 -2.5839490936 0.6008007901 0.88844437903 0.00022755728303 2.6006483795 -0.56252396067 
-0.40136760479 -0.2608312985 -0.26913818963 0.93041847637 -0.14447570137 -0.22421247921 -0.99837524191 0.14157024691 0.45248036199 
-0.22231616438 -0.11757714537 0.1991699286 -0.29905069604 0.049726090685 2.0090151186 -0.30509816186 -1.8661567423 -3.7214099394 
0.13007788178 0.59691294532 0.12332129028 0.21417816383 0.01686919425 0.8400667535 0.13323808581 0.04726623086 0.15184781702 
0.031774943374 -0.023866428642 -1.0715304251 0.39799429959 42.979220028 0.74056165224 0.24420816652 -1.5112916242 1.4475265007 
0.44691076919 -0.34103861428 -1.160157957 1.0276531061 -0.010793430174 -3.4017419779 -0.25316092803 -0.52638139803 -0.40813747206 
-0.99845669764 -0.95167233175 -0.030174405943 0.51544614628 -0.31411040872 -1.2899994253 -0.27872466506 0.38237116429 1.0633402932 
1.3362452098 0.8924979891 -6.0271098482 0.63029227028 0.4728330352 0.12926872906 0.99244300843 -0.14899306316 -5.0283257612 
0 0 
FrenetTangent 3 101 double
-0.86349620574 0.11186344409 0.49179352633 -0.86349620574 0.11186344409 0.49179352633 -0.85912167357 0.26761527064 0.43622473213 
-0.83991892806 0.39174099188 0.37559977313 -0.84325018057 0.45551818832 0.28536347538 -0.85172647493 0.48595643162 0.19598050531 
-0.78734605459 0.59574368313 0.15866837848 -0.69006916991 0.71106366324 0.13488145747 -0.5756000927 0.79884638133 0.17472547703 
-0.43394159938 0.86232982757 0.2609251939 -0.27893785175 0.89625616665 0.3448457026 -0.14828206768 0.91066158736 0.38562663513 
-0.025126896442 0.91972743047 0.3917525912 0.064038483564 0.90078510844 0.42951747466 0.070780612621 0.85099398322 0.5203838443 
0.10774177496 0.79783033519 0.59317658937 0.19732797243 0.72931348589 0.65510572474 0.3503928472 0.67558207742 0.64870155642 
0.50259180126 0.56494028823 0.65440350858 0.55842884149 0.43823123305 0.70435120172 0.64163353075 0.33051321683 0.6921469683 
0.67470605088 0.20993431599 0.70760110788 0.71769648616 -0.048681693128 0.6946523206 0.65100195138 -0.31353467097 0.69129767062 
0.4832776361 -0.53088003525 0.69613871794 0.2416815467 -0.8103028659 0.53385325277 0.13712271676 -0.90940023629 0.39266852532 
-0.034434911933 -0.94943878882 0.31205804447 -0.18294126996 -0.95339604521 0.23993430919 -0.384257492 -0.92318351423 0.0088531853079 
-0.41375076831 -0.90668641048 -0.082036910989 -0.3736354713 -0.91962939987 -0.12115404027 -0.36269431659 -0.91813618126 -0.15962075484 
-0.37613092636 -0.90601686947 -0.1940591623 -0.37414507645 -0.90622835387 -0.19688989923 -0.28506071669 -0.92885637106 -0.23657182787 
-0.12603118215 -0.96642886444 -0.22390040442 0.066180287782 -0.99425747011 -0.084096686238 0.10971789901 -0.99364955918 0.024950674757 
0.09657163153 -0.98484221368 0.14408238662 0.23844395935 -0.93195446912 0.27313979156 0.41099833361 -0.78771753548 0.45889154936 
0.47982238619 -0.64832963391 0.59113379492 0.43710713717 -0.52588131397 0.72964799338 0.34653554176 -0.28658500714 0.89318651578 
0.33474257174 -0.023088516738 0.94202671462 0.22567010156 0.3042129992 0.9254876857 0.13114458927 0.48909122067 0.86231715428 
0.078843766012 0.47514963693 0.87636549629 -0.010237334011 0.30260592029 0.9530607819 -0.064130537243 0.22037789719 0.97330409257 
-0.1589382753 0.20784320254 0.96516310943 -0.22033496026 0.16542598543 0.96129430906 -0.20355708316 0.12218220946 0.97140929663 
-0.089081770556 0.13690021554 0.98657121848 0.1011660215 0.13969052892 0.98501370154 0.22913540362 0.10566398102 0.96764254243 
0.37123410726 0.048908486897 0.92725034242 0.46906452374 -0.032126380087 0.88257938355 0.51868444524 -0.047685869509 0.85363487752 
0.65405216484 -0.1406150306 0.74326521433 0.76904670354 -0.29610689327 0.56646965986 0.82335762896 -0.43095134381 0.36927381994 
0.82036389272 -0.53907924332 0.19077906838 0.77914165992 -0.62664757355 0.015845893297 0.76667539321 -0.63961204833 -0.055724941252 
0.76858357383 -0.63211721169 -0.098524721407 0.75711081619 -0.64074621812 -0.1273871892 0.76980003416 -0.63180357823 -0.090731174036 
0.80568832049 -0.58410964245 -0.09839845436 0.82574771012 -0.54967652941 -0.12647700283 0.83233463367 -0.54552150765 -0.098108828748 
0.84751107655 -0.5250438042 -0.077807318392 0.84693938367 -0.5237694899 -0.091428670716 0.83346378071 -0.53607473425 -0.13402240688 
0.83949070778 -0.52834524198 -0.12691200426 0.88186866844 -0.46843578312 -0.053624329598 0.90853722214 -0.41722364003 0.022012500645 
0.83621522481 -0.53836438235 0.10444084266 0.79856425767 -0.59414064203 0.096395144441 0.86499676015 -0.501763793 0.0037014805401 
0.91188419731 -0.40954995731 -0.027130115363 0.9271436915 -0.37460566017 0.0086703332013 0.86698475374 -0.48496934339 0.11463931587 
0.80894386667 -0.55640106736 0.18980956989 0.83661317348 -0.51191089706 0.19500161906 0.87408786547 -0.42309903104 0.23865794218 
0.76729743869 -0.51102242708 0.38744124664 0.58256443053 -0.65219639772 0.48503457927 0.32501227694 -0.70102475844 0.63476870425 
0.28670922151 -0.6091500655 0.73941464687 0.34341404778 -0.55157291156 0.76015400743 0.36540356885 -0.53330136635 0.76293504607 
0.23260309234 -0.67384066039 0.70130917991 -0.025890932248 -0.74154625954 0.67040197239 -0.3466586302 -0.53040581202 0.77362618149 
-0.39043117766 -0.43271303741 0.81260256139 -0.33439651178 -0.30263028163 0.89252108409 -0.31296377259 -0.21625913944 0.92481655568 
-0.31579386092 -0.23750447988 0.91862171727 -0.31579386092 -0.23750447988 0.91862171727 
FrenetNormal 3 101 double
-0.075007852108 -0.99273238945 0.094107518642 -0.075007852108 -0.99273238945 0.094107518642 0.021725544091 -0.83254215464 0.55353551059 
-0.30798044811 -0.91389680869 0.26446297782 0.38144098184 0.13305509447 0.91476724865 -0.34055960655 -0.79764179706 0.49778179755 
-0.58647719605 -0.80310917853 0.10516722813 -0.68217552436 -0.70129031715 0.20695034437 -0.76334562101 -0.44828699065 -0.46512604409 
-0.81407621621 -0.251225084 -0.52360850964 -0.90748468935 -0.12855370445 -0.39993184878 -0.97366068665 -0.066142899455 -0.21819712219 
-0.95388136078 -0.13931716271 0.26589674261 -0.2050652689 0.43309395917 -0.87771171692 0.07808379034 0.51536446262 -0.85340634656 
-0.67337209322 0.49751387303 -0.54685461524 -0.72614772319 0.55767906108 -0.40212379802 -0.93416946994 0.30197951042 0.19009412593 
0.45823440098 0.46779271312 -0.75577193075 -0.68624827971 0.72107904897 0.095437433623 -0.3854709725 0.91910895043 -0.081552845454 
-0.1962024335 0.9752176214 -0.1022506528 -0.10047307925 0.97987602171 0.1724764982 0.53160275483 0.83839782756 -0.12036442083 
0.6763119374 0.73131665686 0.088193597945 0.40918019299 0.58395950654 0.70111544298 0.6238880417 0.38719401547 0.67885529077 
0.99014019378 0.010012115639 0.13972170272 0.67966347992 0.053689149104 0.73155657972 0.61218874568 -0.24761044704 0.75094207911 
-0.75404439351 0.29080816822 0.58893774027 -0.59496081133 0.13739627057 0.79192417428 0.2622303989 -0.26491335741 0.92793110249 
0.40069727796 -0.34789370993 0.84759168119 -0.5252921669 0.38206271421 -0.76032639163 -0.81064150844 0.10192523786 0.57660349521 
-0.74971876876 0.2405930763 -0.61647119917 -0.83886822088 -0.0098035298072 -0.54424626668 0.7580557456 0.0674149918 -0.64869615803 
-0.48318819616 -0.17294464253 -0.85826529565 -0.82607554944 -0.34251715296 -0.44752786119 -0.37170095577 -0.60442737607 -0.70463178082 
-0.31162291845 -0.75576375002 -0.57594471164 0.46352097677 -0.56350779303 -0.6838181566 0.033504210531 -0.94779799797 -0.31710632747 
0.060190561665 -0.99713436391 -0.045827465599 0.53413706771 -0.83311175527 0.14360500035 0.097350902597 -0.8719791128 0.47976580599 
0.49423988464 0.74482167901 -0.44829410314 0.33599104558 0.89873678849 -0.28174847346 0.99548292888 0.082546931503 0.046901411604 
0.97947382094 0.15595126094 0.12771154335 -0.1575923333 0.96652957666 -0.20244810183 -0.58675268954 0.77904234461 -0.2209395995 
-0.94270592855 -0.33132029932 -0.039145772871 -0.93261715334 0.3580496738 0.045007514726 -0.96230429118 0.17422260891 0.20884667515 
-0.80416437871 0.51619259882 0.2947284393 -0.44412911185 0.85520110062 0.26717112402 -0.85371191993 -0.082940988636 0.51409799667 
-0.52669969286 0.62060737119 0.5808906303 -0.34346632178 0.55597583705 0.75691594938 -0.060556646661 0.58024854544 0.81218502698 
0.094237462721 0.4565080512 0.88471447361 0.32800778085 0.42910928884 0.84159141746 -0.5114836394 -0.66093564406 0.54913437429 
0.33029559999 0.260185076 0.90730840559 0.64437830999 0.76454363467 -0.015799503139 -0.3151420394 -0.25260150661 -0.91481034858 
-0.33045236376 -0.58109500545 0.74372698615 -0.17729238553 -0.040075644562 -0.98334193074 -0.28881469808 -0.27577978087 -0.91680509523 
-0.50522349386 -0.75305580108 -0.4214928015 0.44401701638 0.60215583253 0.66351883358 -0.010927455751 -0.25848459636 0.96595357246 
-0.13965659602 0.015920664609 -0.99007200123 -0.41454851222 -0.71614291684 -0.56150588036 0.15153587333 0.27996662191 -0.94797445626 
0.53830660148 0.76942652743 -0.3438150981 -0.48926114698 -0.54745060549 0.67891189753 -0.41076046605 -0.70383965654 0.57955636258 
-0.4082713934 -0.89826824095 -0.16256886732 0.25170690763 0.6054964897 -0.75499512158 0.45315333633 0.6715222237 -0.58626782006 
0.51836247942 0.52276938602 -0.67676621442 -0.54686009396 -0.7596989862 0.35185435624 0.22813545321 -0.076202435933 -0.97064277865 
0.64035743577 0.64313599836 -0.41990289599 0.8127841026 0.4680709149 -0.34683082503 0.6475898122 -0.32417748539 -0.68959146826 
-0.36705518366 -0.78276749601 -0.50253909234 -0.93911737166 -0.1920204023 0.28493284709 0.43534660501 -0.62654102411 -0.64646707466 
0.61736814261 0.65947919226 0.42888666505 0.7951522699 -0.42171670954 -0.43576127016 0.80936592598 -0.58600200633 -0.039095350576 
-0.53509060889 -0.61159911496 -0.58277316587 -0.2455321316 -0.88635869495 -0.39253310209 0.39386266016 0.85650603038 0.33357101921 
-0.83304665234 0.53286931127 -0.14860542429 -0.83304665234 0.53286931127 -0.14860542429 
FrenetBinormal 3 101 double
0.49874655366 0.044373109188 0.86561128828 0.49874655366 0.044373109188 0.86561128828 0.51131003387 0.48503157389 0.70944092185 
0.44686042325 0.10645007441 0.88824779414 0.37872405566 0.88022697183 -0.28595203744 0.39822250851 0.35723089193 0.84486976722 
0.19008074292 -0.010252383574 0.98171492797 0.24174593006 0.050797223377 0.96900905434 -0.2932370989 -0.40110252187 0.86782992042 
-0.38597228208 -0.43962850868 0.81101921791 -0.31411019318 -0.42449832604 0.84919724313 -0.17319727389 -0.40782421478 0.89648319234 
0.29913038734 -0.36700433487 0.88081146084 -0.97665106774 -0.03187178908 0.21245442087 -0.99443100644 0.10103816702 -0.029971023379 
-0.73141078335 -0.34050947474 0.59083971059 -0.65861305438 -0.39635325674 0.63963500567 -0.067470393921 -0.67260481113 0.73691961162 
-0.73309120515 0.67971497577 -0.02376629227 -0.46606923046 -0.53665481599 0.70340676773 -0.66311276687 -0.21447552481 0.71713437212 
-0.71153099019 -0.069843925163 0.69917485376 -0.68906960033 -0.19357963437 0.69836237804 -0.54184404616 0.44585321894 0.7124745166 
-0.5559180603 0.4281849315 0.71246949034 -0.87986453483 0.048995512324 0.4726921198 -0.76939006491 0.15189471554 0.62045702785 
-0.13578156543 0.31379251715 0.93973274002 -0.71034501885 0.29690647728 0.63816651271 -0.69106520641 0.29397494036 0.66030872698 
-0.51012484191 0.30553291532 -0.80400390753 -0.71163063984 0.36797286819 -0.59847957418 -0.89425278899 0.29469792284 0.33684578617 
-0.8354443235 0.24104646613 0.49389207678 0.76425362358 -0.18104765412 -0.61898153912 -0.51146919027 0.35614194899 -0.78202441111 
0.64964444806 0.090167741534 -0.75487208817 0.54029647185 0.10656441212 -0.83469979548 0.64289460194 0.090087581911 0.76063838871 
0.87017417054 0.013265171396 -0.49256567902 0.51063065406 -0.11892378825 -0.85153594623 0.83241742488 0.11903206023 -0.54121400517 
0.82015951766 0.092140327488 -0.56466673857 0.77076952115 0.63710894737 -0.0025562578694 0.9374383106 0.13981412205 -0.31884388829 
0.94038529707 0.072041520747 -0.33239361056 0.81472117817 0.46192992363 -0.35049985377 0.98657179083 0.021028663724 -0.16196881438 
-0.86574280071 0.46847997716 -0.17611335557 -0.94180954247 0.31733553538 -0.11087354825 -0.070007231797 0.97191542149 -0.22467621362 
-0.12397442775 0.96565025106 -0.22836360019 -0.96260955832 -0.19609900763 -0.18689038883 -0.78376386445 -0.61495083787 -0.08688884731 
0.32151200666 -0.93353371136 0.15857124369 -0.34639671099 -0.92319390554 0.16650024442 -0.14651763712 -0.97902073811 0.14160147017 
-0.464225042 -0.85507494457 0.23095876157 -0.76336610128 -0.5172996938 0.38687623631 0.046286110691 -0.9954129044 -0.08373019589 
-0.54295782452 -0.77141033438 0.33184770122 -0.53907147354 -0.77666696619 0.32586863924 -0.5642828257 -0.69108072233 0.45165509833 
-0.5640233897 -0.70780927417 0.42530418204 -0.53418083967 -0.65052135768 0.53988220357 -0.38806356188 -0.39250541658 -0.83387419308 
-0.54789059736 -0.7298846189 0.40875950927 0.10751653653 -0.070123566975 0.99172722042 0.55506162037 0.73281424481 -0.39356051656 
-0.49159695434 -0.56669614454 -0.66120187103 0.5354513323 0.83441575712 -0.1305458349 0.47308046648 0.79142390484 -0.38709569241 
0.16270893146 0.3965299032 -0.90348759786 -0.29247661367 -0.60255611755 0.74255205586 -0.55246603241 -0.80362279257 -0.22129548188 
0.52512035452 0.84888034358 -0.060421648018 0.22462676298 0.51740432909 -0.82573335744 0.38935458785 0.86460576265 0.31758444562 
0.10473824804 0.34372461462 0.93321127763 -0.35059757049 -0.5893171744 -0.72786441837 -0.28819514996 -0.50283479783 -0.81492375203 
0.042209951667 0.15932043109 -0.98632414561 0.27757558963 0.70217134685 0.65567308295 0.20733907144 0.56023445007 0.80196500573 
0.27732681174 0.64585603758 0.71130852533 -0.031975546827 -0.4010045933 -0.915517821 0.42886433568 0.90287341233 0.029916264633 
-0.034597615919 0.57029129981 0.8207136153 -0.00082876457348 0.59627969731 0.80277632982 0.68919841481 0.63519543924 0.34861482901 
0.88491147266 -0.12732338707 -0.44801834857 -0.011196161754 -0.81172377588 -0.58393420659 0.82277187931 0.56836255838 0.0032306130431 
-0.75150008511 0.33320558124 0.56940465638 0.60585685381 0.52178938457 0.60056083026 0.47408289567 0.61259393006 0.632435044 
0.74916055408 -0.66234881281 0.0072466800497 0.90988622655 -0.35040430438 0.22208979764 -0.86424873849 0.46864635338 -0.18287895857 
-0.45421086779 -0.81218342703 -0.36612916905 -0.45421086779 -0.81218342703 -0.36612916905 
SiphonLabel 1 101 int
0 0 0 0 0 0 0 0 0 
0 0 0 0 0 0 0 0 0 
0 0 1 1 1 1 1 1 1 
1 1 1 1 1 1 1 1 1 
1 1 1 1 1 1 1 1 1 
1 1 1 1 1 1 0 0 0 
0 0 0 0 0 0 0 0 0 
0 0 0 0 0 0 0 0 0 
0 0 0 0 0 0 0 0 0 
0 0 0 0 0 0 0 0 0 
0 0 0 0 0 0 0 0 0 
0 0 
