# vtk DataFile Version 5.1
vtk output
ASCII
DATASET POLYDATA
POINTS 110 float
82.6453 81.2064 42.3181 82.9445 81.5577 42.054 83.5104 82.0378 41.6491 
84.0632 82.4032 41.2369 84.8125 82.803 40.7807 85.4718 83.1077 40.4392 
86.2719 83.3061 39.9608 86.9711 83.2435 39.5626 87.722 83.1973 39.0024 
88.1532 83.1769 38.5839 88.7313 83.1338 38.079 89.3493 82.9917 37.5665 
89.9295 82.7097 36.9483 90.3186 82.5135 36.4121 90.6415 82.2013 35.7618 
90.8443 81.9446 35.15 90.9717 81.621 34.4893 90.9872 81.2918 33.7347 
90.9723 80.895 32.977 90.8546 80.5551 32.3191 90.6416 80.2927 31.8094 
90.0811 79.9674 31.1496 89.6144 79.7114 30.6154 89.081 79.4152 30.0656 
88.5334 79.1836 29.5591 88.014 79.0255 29.1043 87.3011 78.9226 28.4734 
86.6704 78.808 27.8795 86.3259 78.8194 27.3969 85.8797 78.8606 26.8493 
85.3785 78.9462 26.312 84.959 79.1171 25.8442 84.3626 79.5746 25.2275 
83.804 80.1395 24.8079 83.4163 80.8088 24.6658 83.1602 81.3995 24.7478 
82.9658 82.1605 25.0422 82.8462 82.9486 25.1105 82.8688 83.5388 25.3789 
82.9313 84.0893 25.7205 83.0668 84.6474 26.0913 83.3735 85.2373 26.5878 
83.5045 85.5798 26.8164 83.841 86.1758 27.2701 84.3702 86.8197 27.745 
85.0169 87.4096 28.1502 85.5669 87.9253 28.3327 85.9578 88.5046 28.4173 
86.4127 89.3119 28.3597 86.8394 90.0255 27.8838 87.0967 90.5628 27.2362 
87.1537 90.7874 26.7836 87.2341 91.1052 26.0123 87.3861 91.3975 25.094 
87.5192 91.6324 24.4943 87.6831 92.146 23.7371 87.6906 92.6053 23.0808 
87.5985 93.0373 22.1933 87.5265 93.2624 21.763 87.3453 93.6662 20.9519 
87.1837 93.9787 20.3411 86.9669 94.3678 19.7863 86.6779 94.665 19.3851 
86.3451 95.1123 18.96 85.9179 95.6399 18.4946 85.4284 96.2863 18.1222 
84.9925 96.7909 18.0567 84.4938 97.3001 18.1069 83.8968 97.9124 18.1575 
83.1971 98.4528 18.124 82.6133 98.9428 18.148 81.9545 99.45 18.2016 
81.2421 100.002 18.3666 80.7979 100.367 18.4467 80.2836 100.8 18.5768 
79.6959 101.328 18.6965 79.18 101.77 18.7357 78.6649 102.267 18.7432 
78.2175 102.666 18.7553 77.6157 103.125 18.7821 76.9547 103.559 18.8031 
76.4185 103.844 18.8304 75.7812 104.269 18.8437 75.0372 104.853 18.8152 
74.4196 105.5 18.7547 73.6795 106.105 18.6362 73.1164 106.456 18.5297 
72.3319 106.92 18.3655 71.6119 107.431 18.1774 71.3158 107.751 18.1213 
70.9558 108.177 17.9701 70.611 108.673 17.755 70.1536 109.28 17.3214 
69.7823 109.958 16.696 69.6469 110.638 16.0268 69.5046 111.184 15.4656 
69.4805 111.865 14.8257 69.4887 112.399 14.2496 69.6468 112.916 13.5548 
69.8952 113.338 12.7508 70.2132 113.644 11.879 70.6086 113.736 11.0378 
70.9571 113.871 10.1267 71.2866 113.95 9.19496 71.5694 114.013 8.45778 
71.8859 113.992 7.67006 72.2135 114.002 6.80343 72.6468 113.849 5.97413 
73.0334 113.642 5.14143 73.3303 113.45 4.4299 
LINES 2 110
OFFSETS vtktypeint64
0 110 
CONNECTIVITY vtktypeint64
109 108 107 106 105 104 103 102 101 
100 99 98 97 96 95 94 93 92 
91 90 89 88 87 86 85 84 83 
82 81 80 79 78 77 76 75 74 
73 72 71 70 69 68 67 66 65 
64 63 62 61 60 59 58 57 56 
55 54 53 52 51 50 49 48 47 
46 45 44 43 42 41 40 39 38 
37 36 35 34 33 32 31 30 29 
28 27 26 25 24 23 22 21 20 
19 18 17 16 15 14 13 12 11 
10 9 8 7 6 5 4 3 2 
1 0 
CELL_DATA 1
FIELD FieldData 2
Length 1 1 double
86.778836772 
Tortuosity 1 1 double
0.71446262828 
POINT_DATA 110
FIELD FieldData 7
MaximumInscribedSphereRadius 1 110 double
1.7376810681 1.7402422985 1.7305209425 1.7557662951 1.7960731863 1.7884273373 1.8391546694 1.7848830318 1.7083998835 
1.7103458415 1.7533291812 1.8159410902 1.889624436 1.8863651156 1.9081063355 1.9635212955 2.0329755428 2.0691707094 
2.0925935837 2.109480053 2.1375498647 2.0035858375 1.9742697128 1.9870819074 2.0727867294 2.1407329194 2.2944132831 
2.3258631567 2.2647184414 2.1959121531 2.1716608007 2.18404356 2.2251484241 2.373850727 2.4206677183 2.3532668187 
2.2108897602 2.2214279721 2.1804971503 2.1534468615 2.1597178594 2.1849241795 2.1436566758 2.1206248633 2.2271464058 
2.3393846482 2.3782723012 2.4138245279 2.4944695801 2.4341223323 2.3133495654 2.2370090447 2.1261227531 2.0691128907 
2.093876782 2.1552357824 2.160079821 2.1457004868 2.0405486819 1.8534407492 1.82026922 1.8682274688 1.944565489 
2.0360300911 2.091150188 2.1259269449 2.0444839477 1.9297293661 1.8771335827 1.8500827621 1.8647175967 1.8404698691 
1.7836571025 1.7807501472 1.7964505793 1.8196302437 1.818559951 1.8051771728 1.8108807264 1.7767289303 1.7398337305 
1.7294880817 1.7116365692 1.7091525535 1.7530859118 1.7626550737 1.7351369215 1.6648378768 1.5553797809 1.5144566344 
1.4462049783 1.3772475462 1.3379762331 1.3983532367 1.5046607695 1.5449920227 1.5785782626 1.546987231 1.4507884315 
1.337692932 1.40292808 1.5633967064 1.7889925053 1.973331279 2.0206925419 2.1120258344 2.1203148617 2.2114276188 
2.3973859415 2.5254643423 
Curvature 1 110 double
0 0.20805625595 0.14525025876 0.11865541659 0.083783457026 0.2167297281 0.33306271691 0.14501577328 0.17004997637 
0.083329650882 0.15421137216 0.22339938345 0.15787665369 0.26710385732 0.17992466004 0.19136055137 0.20338362418 0.095157523206 
0.17549681522 0.29346953289 0.39149480674 0.022086418203 0.06840213255 0.1063513155 0.10800197769 0.14150280818 0.042372553467 
0.34030352882 0.1148712085 0.12208360819 0.21814563477 0.28237494758 0.24951963626 0.47428345779 0.46889749479 0.38008815365 
0.35985384667 0.54996065621 0.21967771853 0.16188938443 0.27919723621 0.20099832563 0.20511103896 0.18394581778 0.15943771461 
0.22759079034 0.3414436096 0.24624553958 0.50809034002 0.35033285715 0.42769380705 0.1057691089 0.11260612939 0.09763935383 
0.2803495809 0.19598606226 0.21091330466 0.082913792167 0.076178122429 0.043450879238 0.22008962185 0.33878740973 0.24224712777 
0.079254576443 0.20283633959 0.44300109961 0.26103907632 0.014499809677 0.19706380851 0.097784134469 0.066908164768 0.13407663211 
0.068601370129 0.085776400185 0.069589945702 0.12951946411 0.10813173072 0.060917640596 0.11460061817 0.091806939372 0.13607511788 
0.15118329959 0.10656977859 0.16055806632 0.14528665381 0.1617849423 0.036891109555 0.095530084389 0.3285344409 0.28385139899 
0.19417108242 0.23799493183 0.21661898998 0.25205236754 0.050143231858 0.18615498883 0.090378474848 0.24324827986 0.19392990849 
0.16066726171 0.25129533765 0.087359536941 0.06375893631 0.029349199288 0.12791633175 0.045879356523 0.2260932253 0.079438638977 
0.051230539685 0 
Torsion 1 110 double
0 0 0.12723626985 -0.67300430739 1.3214166258 -0.1017428828 0.10329711534 1.1499882603 -0.15228433455 
0.69769364786 0.9863524256 0.68995526873 -0.072807370874 -0.0029099994416 0.20049437103 0.012608304226 0.093400943325 -0.24839621024 
0.27476855598 0.023998739133 0.036006923346 2.659412653 0.76577297269 0.57881276161 0.51642101626 0.31525220395 -2.6695468508 
-0.30346568024 -1.9513605006 1.1343514015 0.08434475602 -0.34451760789 -0.0056717302195 -0.081844975091 -0.064808469993 0.69159604879 
-0.12424569844 -0.34804027565 0.32707897539 0.45425831092 0.11093397628 0.071183666591 0.0037997916942 0.37341397202 0.67744880902 
1.0824677285 0.095663288309 -1.0394600396 -0.024547231271 0.23170578815 -0.051685592174 -1.9370748258 -0.85587385432 -1.8270217957 
-0.58064024026 -1.3458488665 -0.23654341482 1.2193638879 -0.33113613114 2.7039484077 -0.78668248608 0.14455201381 0.83910135725 
-0.76773559293 -0.26912405667 -0.17300588012 -0.21808198893 5.8737129192 0.1603559793 0.099904686911 0.1012060446 0.39887751553 
0.14288504644 0.043525001746 1.6340882922 -0.22666332157 -0.61113084838 0.4909150244 -0.20393601442 0.051754346589 0.093049596711 
0.089010473442 -0.02292067401 0.20975018474 0.45799734229 0.015534584571 -2.5834390777 -1.421175555 0.50116581894 0.79661348073 
0.28320291278 0.042427081146 -0.67670455863 -0.12259692968 1.1812211287 0.24278588554 0.38977442201 0.10379101557 0.32978065925 
-0.046340785004 0.088316813276 0.56824891515 -0.90778774355 1.25349638 0.21972718832 0.76991620482 0.18889414425 1.540025095 
0 0 
FrenetTangent 3 110 double
-0.62975902005 -0.60516157486 0.48701441969 -0.62975902005 -0.60516157486 0.48701441969 -0.68929827508 -0.5209682996 0.50344802987 
-0.74740028453 -0.43923402731 0.49846392441 -0.79789883344 -0.39900559643 0.45183181121 -0.83494982637 -0.28782297708 0.46905940062 
-0.86063514944 -0.077958065921 0.50321931552 -0.83263408319 0.062465298329 0.5502895329 -0.76954902644 0.043349278458 0.63711469608 
-0.73698987511 0.046357135574 0.6743121977 -0.7564791539 0.11709701685 0.64344974812 -0.70434136822 0.24928437193 0.6646506894 
-0.61292745944 0.30239433562 0.72998465412 -0.48298873232 0.34488622796 0.804844938 -0.35497933223 0.38414449434 0.85230433599 
-0.22975699943 0.4037961878 0.88552829426 -0.091348789325 0.41710698595 0.90425503093 -0.0003729428733 0.43277746404 0.90150070856 
0.082800206972 0.4600678512 0.88401453496 0.24411101158 0.44458511737 0.86183170482 0.5087766106 0.38657789257 0.76922291534 
0.61185380227 0.34622438991 0.71117058184 0.63503398658 0.35061231976 0.68833337644 0.67522970627 0.32969463342 0.65982292508 
0.71703234545 0.26186737765 0.64597994713 0.74101650464 0.15697441558 0.65288097898 0.73379592933 0.11881858766 0.66889885433 
0.66970377986 0.070829368197 0.73924288826 0.60833102806 -0.040512748634 0.7926487731 0.65521835647 -0.087643494837 0.75033827249 
0.66380928952 -0.18495653329 0.72467117229 0.62964978216 -0.38952469438 0.67216937173 0.62155174126 -0.55014610489 0.55768512282 
0.57229308572 -0.74638819434 0.33968409939 0.45458365418 -0.88969392459 0.042407804635 0.30574258048 -0.91722774143 -0.25537177767 
0.19361656737 -0.95524375406 -0.22365597502 0.068179269232 -0.96916597851 -0.23678871035 -0.065654851588 -0.87993155656 -0.47054213014 
-0.14860670039 -0.83194789774 -0.53458277568 -0.29378215632 -0.76264752939 -0.57624716098 -0.34746418216 -0.74019658523 -0.57565411258 
-0.37365031625 -0.750301301 -0.54537454917 -0.4878644816 -0.6986763851 -0.52329681492 -0.61303809061 -0.64317772477 -0.4588101065 
-0.69090934403 -0.63837577754 -0.33929433387 -0.64085144043 -0.7458040173 -0.18189502216 -0.52069940972 -0.85357787149 -0.01664157474 
-0.47991184341 -0.82786225771 0.29039405094 -0.37680521376 -0.68915635108 0.61893566277 -0.22863573946 -0.55425130492 0.80033192466 
-0.10211035812 -0.40303855807 0.90946874354 -0.12829441918 -0.33684498147 0.93277864495 -0.17469828887 -0.32300788489 0.9301324713 
-0.18823698191 -0.47439297539 0.85995240772 -0.099362477988 -0.56416598382 0.81966080831 0.047422939063 -0.49938795877 0.86507960991 
0.11075592682 -0.4434768442 0.88941633296 0.17905237504 -0.4446777466 0.87761150213 0.21045014356 -0.43983536593 0.87307249868 
0.26795497683 -0.49679941899 0.82546378944 0.39486968473 -0.53580012729 0.74632175077 0.48795997577 -0.58427787084 0.64847084106 
0.49887633408 -0.6398735754 0.58453760427 0.53640501739 -0.68699059033 0.49021789656 0.60073062334 -0.74720607436 0.28426361115 
0.67774523643 -0.73521249986 0.011134386027 0.69739522375 -0.71380772223 -0.064175054142 0.74737750838 -0.66432627988 -0.0098718699626 
0.77977984187 -0.62602748728 0.0057431162897 0.77897293876 -0.62516994127 -0.048617951595 0.78515451065 -0.60651768299 -0.1251746565 
0.77303925727 -0.61284391972 -0.16380670554 0.75778596491 -0.63100778671 -0.16610118752 0.74275339318 -0.64804639612 -0.16838427895 
0.74672134315 -0.65638095018 -0.10756990253 0.73918282195 -0.67267162961 -0.033490811342 0.73213898077 -0.68099243895 -0.014893318162 
0.77374653538 -0.63284644062 -0.028664988931 0.815889335 -0.5773845003 -0.030850151535 0.85674117569 -0.51458303844 -0.034624477284 
0.85535049863 -0.51720393295 -0.029590813327 0.80738930799 -0.58995197003 0.0088982248041 0.74085646223 -0.66991699328 0.048403765156 
0.7317371388 -0.67472282566 0.096487658457 0.7986072365 -0.58584323257 0.13789194559 0.84326404416 -0.51011485425 0.16937705658 
0.82335975218 -0.53377461981 0.19277804269 0.76126727406 -0.62209429582 0.18295033356 0.64655858105 -0.73500312801 0.20428510245 
0.57917436312 -0.7576070589 0.30097940362 0.53119164568 -0.730256522 0.42960545578 0.44546170348 -0.69100414484 0.56927773762 
0.26076340639 -0.69870883194 0.66618947309 0.15790414968 -0.6969288747 0.69954015119 0.09646103406 -0.71130504494 0.69623300837 
0.0092121734938 -0.70687900444 0.70727449335 -0.10031617118 -0.63428187417 0.76656582881 -0.22397517472 -0.5174911982 0.82585590807 
-0.29610942804 -0.3805503096 0.87607115492 -0.37591182886 -0.20937461871 0.90269184441 -0.38800675655 -0.11820321117 0.91404527116 
-0.3432611613 -0.10865520838 0.93293398525 -0.34335420944 -0.079540987116 0.93583177881 -0.36565986353 -0.025448906125 0.93040056824 
-0.36280834798 0.0062312360625 0.9318429451 -0.40809828071 0.076834821356 0.90969896312 -0.43431365823 0.19046107822 0.88039549292 
-0.39396600021 0.22965484203 0.88997159742 -0.39396600021 0.22965484203 0.88997159742 
FrenetNormal 3 110 double
0.73837455103 -0.66107704713 0.13334226692 0.73837455103 -0.66107704713 0.13334226692 0.33190924726 -0.84477931464 -0.41974297033 
0.66389553738 -0.52223817706 0.53526629061 0.60121364551 -0.47257377825 0.64437270004 0.088568078071 -0.91149806865 -0.40165528303 
0.10383351203 -0.99431598582 0.023544046524 -0.52538477004 0.22521888715 -0.82051648142 -0.6294521014 0.11666396943 -0.76823145619 
0.60905415119 -0.38705124553 0.69227478233 0.047747900646 -0.97132766167 0.23290064761 -0.57719336706 -0.74615822874 -0.33180674299 
-0.6873920259 0.25150447975 -0.68134990966 -0.79176168665 -0.5645552313 -0.23321840056 -0.8739788874 0.187292929 -0.44842196994 
-0.88666072534 -0.46201448046 -0.019374673804 -0.95718937734 0.21368427118 -0.19526271575 -0.45507905988 -0.80281573237 0.38521416007 
-0.9958084895 0.072779883929 0.055394410712 -0.9697217317 0.1183636334 0.21361136054 -0.85976044509 0.27408854559 0.43091466237 
-0.69277378139 0.66846384592 0.2705930053 -0.5659927639 -0.39524212313 0.72348866979 -0.60874461867 0.75423477626 0.24608919426 
-0.40286318923 0.91197497805 0.077478320653 -0.088331577315 0.9866299624 -0.13696295029 0.58538253773 -0.61025504803 -0.53377529062 
0.55706021307 0.61037406426 -0.56314067575 -0.66443703545 0.52025571977 0.5365234496 -0.53196842751 0.65169362277 0.5406523968 
0.21795678164 0.97472129056 0.049124811113 0.15007737111 0.90990739624 0.38671089065 -0.039034798654 0.68926741245 0.72345471083 
0.32718915362 0.58765264083 0.74000785907 0.29304725363 0.19435218954 0.93613595891 0.59229171861 -0.026772683656 0.80527867442 
0.2847313448 0.27287011047 -0.9189504688 0.47848405134 -0.17649921775 0.86017500472 0.43147636934 -0.45022968658 0.78174252285 
0.94786398188 -0.27393800678 0.16282456908 0.81732174956 -0.51302239789 0.26228453434 -0.51964548503 0.66301420377 -0.53886986879 
0.82538326145 -0.53722211704 0.17359397651 0.87005824749 -0.34070523126 -0.35625635624 0.77801219046 -0.39046084223 -0.49217614955 
0.20415556785 0.27793535041 -0.93865459308 -0.61407278083 0.64022533602 -0.46154754789 -0.33535555342 0.222421557 -0.91545906723 
-0.099824929998 -0.27732452844 -0.95557631264 -0.4848941071 -0.42256805944 -0.76571139474 -0.60999418057 -0.55914502253 -0.56148369829 
-0.22991969187 -0.87993082862 -0.41576275945 0.58777835877 -0.78338451634 -0.20205271719 0.58620715739 0.72487296313 0.36182918062 
-0.12199495763 0.88011784315 0.45881348332 -0.99143746847 0.12627188066 -0.033273987948 -0.5447168036 -0.73887414463 -0.3966719076 
-0.87827799278 0.37517173607 0.29643538226 -0.91589785655 -0.40107792682 -0.016358881084 -0.93345722166 0.17493856411 0.31313593554 
-0.48827287858 0.66858254875 0.56088053233 -0.91328294779 -0.14053367177 0.38231471902 0.17349272294 0.79302013929 0.58396860684 
-0.73290319185 0.048509470669 0.67860131346 -0.16933035462 0.48143654096 0.85996865526 -0.31780284728 0.10307106582 0.94253790675 
-0.26197427463 -0.22729288918 0.93792719438 0.085940251501 0.17218896074 -0.98130792057 -0.55043030538 -0.6107847132 -0.56918231969 
0.31253581062 0.39721049734 0.86287031927 -0.47088443372 -0.6344038966 0.61302491472 0.11504121403 -0.055764860953 0.99179423237 
0.23355867719 0.5150507 -0.82472608831 0.26789626422 0.068757078979 0.96099118399 0.30296487731 0.54954624045 -0.77859566703 
-0.24273812871 -0.11835288929 -0.96284515602 0.50826673891 0.58976732267 -0.62756627318 -0.65759822579 -0.71235019672 0.24519741163 
-0.61676360289 -0.76286979966 0.19399053306 -0.57635302803 -0.80784283953 -0.12331720766 -0.49920334799 -0.84425640532 0.19500548565 
0.49161366348 0.82839035481 -0.26848729194 0.50784997676 0.68719191491 -0.51947634516 0.6576916507 0.70893667144 -0.25465759069 
-0.58747556439 -0.6961275996 -0.41264855061 -0.53858009742 -0.79789917614 -0.27071827308 -0.30162294309 -0.70992413944 -0.63642070711 
0.5655694259 0.74360324067 -0.35663068426 0.5360508437 0.76250934604 0.36225542117 0.36698434241 0.064909282002 -0.92795973918 
0.7178548327 0.29901322555 -0.62870941628 0.094346723315 -0.45292065882 -0.88654473808 0.74668166045 -0.064099050032 -0.66208595343 
0.95735618645 0.098244642444 -0.27169306669 -0.86746931062 -0.43636272015 -0.2389237778 0.95652802137 0.25966811429 0.13276526184 
0.4679452879 -0.62203071297 -0.62777782667 0.84157443359 -0.46507872882 -0.27468936769 0.48100649617 -0.79568244168 -0.36813340334 
0.40090444831 -0.88201786992 -0.24762895726 0.41464681947 -0.90918000903 -0.038206364331 -0.83122252773 0.4733010524 -0.29164228635 
-0.34031911617 -0.91140210977 -0.23136355262 0.93913600827 -0.041239566519 0.34106136709 0.15035411378 -0.98811211869 0.032063708034 
-0.47361250253 0.85996190454 -0.19014920507 0.49321674408 -0.81996184473 0.29051646517 -0.61577823018 -0.77611596881 -0.13587190362 
-0.83401008796 -0.49626829737 -0.24113264027 -0.83401008796 -0.49626829737 -0.24113264027 
FrenetBinormal 3 110 double
0.24126043823 0.44357254884 0.86315513951 0.24126043823 0.44357254884 0.86315513951 0.64397526315 -0.1222290488 0.75521912057 
0.025209722704 0.73098615286 0.68192647272 -0.043584447346 0.78579167604 0.61695367559 0.54315235707 -0.29381831922 0.78654708206 
0.49852356146 0.072513862852 0.86383794682 -0.17518940301 -0.97230372794 -0.15470660522 -0.10763060874 -0.99222495347 -0.062492349675 
0.29308525194 0.92089214858 0.25701884325 0.6522725103 0.20690785949 0.72919799094 0.41322034561 -0.61733718468 0.66943539373 
-0.38963076392 -0.91940369939 0.053709453174 0.37394560567 -0.74988724524 0.54574151704 -0.33188940639 -0.90407652675 0.2692490589 
0.40130347538 -0.78961462661 0.46418128149 -0.27467052008 -0.88338032269 0.3797305767 0.89045095888 -0.41011043206 0.19724736588 
-0.038853287741 -0.88489584742 0.46416566143 -0.0070411001663 -0.88788181854 0.46001771619 -0.044253108042 -0.88058673744 0.4718142222 
-0.38170592407 -0.65824369235 0.64885732562 0.52572238596 -0.84903160444 -0.052548145199 -0.41652710958 -0.56783038927 0.70998156033 
-0.56882850345 -0.31579600366 0.75941228442 -0.66565161481 0.043821800013 0.74497488383 0.34477647632 0.78324384426 -0.51735699647 
-0.49110158446 0.78894023999 0.36931359503 -0.43411609762 -0.85304906262 0.28956952626 -0.53637533265 -0.75340164577 0.38037805231 
-0.71543837504 0.1253374905 0.6873415781 -0.76224532436 -0.14261501581 0.63138183595 -0.7823999728 -0.47143366172 0.40694051797 
-0.75194938778 -0.31236042815 0.58051966473 -0.84111652492 -0.41312461433 0.34907168969 -0.74546092758 -0.397462569 0.53508084594 
0.93885072622 0.11424216881 0.32482001283 -0.87544537229 -0.17194572467 0.45169687613 -0.89973195073 -0.15170262062 0.40922943654 
-0.28190409797 -0.48251493644 0.82928247037 -0.49565835242 -0.39392482173 0.77404523931 0.78053648986 0.1118980823 -0.61501350162 
-0.42323505631 -0.38527957988 0.82001934882 0.070617940802 -0.62910353226 0.77410713221 0.13740935544 -0.65868258292 0.73976747968 
0.69351624527 -0.71779405657 -0.061700161266 0.46067781707 -0.18408662882 -0.86826727564 0.78511704701 -0.47109815143 -0.40206685292 
0.87161895683 -0.48758095552 0.050450033742 0.78923731271 -0.58864230133 -0.17494200555 0.75870468452 -0.61657305713 -0.21024953488 
0.96783800817 -0.25155845754 -0.0028164490492 0.7987847914 0.52234486503 0.29849405188 -0.7911015589 0.60846125071 0.062715467708 
-0.9745173518 -0.018544192181 -0.22354427745 -0.084728059621 -0.81594862268 -0.57188198175 0.83727813105 -0.45241205227 -0.30706459619 
-0.46514609756 -0.81398676716 -0.34794345922 0.35926503221 -0.80087339717 -0.47909335034 -0.29046230807 -0.88087533151 -0.37375165274 
-0.83053580683 -0.55334231068 -0.063423661031 -0.099960939151 -0.83256742111 -0.54482960634 -0.85545037094 -0.17244833528 0.48833004671 
-0.46257465849 -0.76694761148 -0.4447651589 -0.82679918258 -0.54430027175 0.14191661585 -0.73356940261 -0.65655116924 -0.17554627232 
-0.6870450305 -0.63859261081 -0.34665343427 0.71151540746 0.67884423654 0.18142857397 0.37209318575 0.4308278403 -0.82215207422 
-0.5424617639 -0.67105395161 0.50539274702 -0.41408816787 -0.45463638274 -0.78856626146 -0.60852108713 -0.79311195963 0.025990498466 
0.589797127 0.5992871653 0.5412894258 -0.59497228759 -0.77272351925 0.22114777819 0.5971010635 0.52729005119 0.6045126317 
0.61926200962 0.74508834499 -0.24770531202 0.44189781381 0.44686394331 0.7778424894 -0.17758684149 -0.16972476344 -0.96935876661 
-0.14463387273 -0.132419981 -0.98058451522 0.046279370305 0.1183937728 -0.99188766221 -0.12957845204 -0.14978457406 -0.98019080089 
0.16337542769 0.21510349089 0.96282862329 0.30035130507 0.4239386101 0.8544384989 0.13628424332 0.22049947393 0.96581912749 
0.34559111815 0.24526612815 -0.90576559078 0.268622338 0.14193171445 -0.95273156133 0.44489251738 0.48558269297 -0.75251584453 
0.047010030625 0.40266471874 0.91413958524 -0.36485837034 -0.17770251633 0.91394758344 0.66879331164 0.67494976622 0.31170229287 
0.38631786947 0.58019189519 0.717032683 0.84198226309 0.51145702546 -0.17169036009 0.49399430024 0.72000318305 0.48740645023 
0.12438479869 0.70862822298 0.69453183041 0.47176612283 -0.56910255673 -0.67346789476 -0.27522611293 0.65315970747 0.70543106205 
0.88370942249 0.33674896467 0.3250504444 0.53074394817 0.61756641756 0.58045032637 0.8476248414 0.31478931335 0.42712974194 
0.86694569031 0.27789555415 0.41373811891 0.82870882222 0.35993607796 0.42858803969 -0.39814553402 -0.87293419836 -0.28189717819 
0.87541685745 -0.39691339106 0.27587150213 0.011464939087 0.99597817723 0.088859583894 0.91852409042 0.151613964 0.36513929019 
-0.80253429838 -0.51032018816 -0.30905016661 0.76824022066 0.56723803064 0.29672879867 0.65741069166 -0.601139402 0.45435955129 
0.38628741095 -0.83724335206 0.38704729114 0.38628741095 -0.83724335206 0.38704729114 
SiphonLabel 1 110 int
0 0 0 0 0 0 0 0 0 
0 0 0 0 0 0 0 0 0 
0 0 0 0 1 1 1 1 1 
1 1 1 1 1 1 1 1 1 
1 1 1 1 1 1 1 1 1 
1 1 1 1 1 1 1 1 1 
1 1 0 0 0 0 0 0 0 
0 0 0 0 0 0 0 0 0 
0 0 0 0 0 0 0 0 0 
0 0 0 0 0 0 0 0 0 
0 0 0 0 0 0 0 0 0 
0 0 0 0 0 0 0 0 0 
0 0 
