# vtk DataFile Version 5.1
vtk output
ASCII
DATASET POLYDATA
POINTS 105 float
74.9136 74.1267 38.3825 75.419 74.1779 37.8673 76.2044 74.0911 37.3048 
76.9401 74.0636 36.9188 77.6566 73.9961 36.5393 78.4548 73.886 36.2005 
79.0881 73.7008 36.0388 79.5204 73.5482 35.9523 80.0185 73.2833 35.8158 
80.7741 72.7778 35.5634 81.3493 72.4161 35.3198 81.7498 72.1166 35.1006 
82.2842 71.6666 34.7927 82.8465 71.113 34.3791 83.2421 70.6431 34.0008 
83.5809 70.0826 33.4464 83.8179 69.5512 32.8155 83.946 68.9889 32.0901 
83.8456 68.4502 31.5105 83.786 68.1031 31.1941 83.6212 67.5125 30.6442 
83.2587 66.8854 29.9907 82.9343 66.392 29.5431 82.6521 65.9225 29.1689 
82.2313 65.4761 28.9354 81.8716 64.899 28.5342 81.3693 64.3954 28.1904 
80.6687 63.9966 27.8487 80.0981 63.8014 27.3833 79.7634 63.7875 27.094 
79.237 64.1091 26.3609 78.9714 64.4941 25.788 78.8645 64.9149 25.2881 
78.9586 65.6348 24.6816 79.2452 66.4021 24.2683 79.6385 67.0215 24.1455 
80.0074 67.8103 24.1039 80.5427 68.6006 24.1218 80.8162 68.9 24.2011 
81.2294 69.436 24.4258 81.6021 69.9814 24.7543 81.9225 70.3918 25.0542 
82.2453 70.9132 25.3559 82.6713 71.5985 25.7651 83.0103 72.4296 26.1289 
83.0877 72.6964 26.1888 83.1133 73.5186 26.4217 83.0762 73.7055 26.4879 
82.8346 74.608 26.5794 82.7337 74.7891 26.6174 82.2253 75.6477 26.5519 
81.8222 76.2298 26.3146 81.4563 76.5363 26.0998 80.7957 76.9174 25.4962 
80.2644 77.0289 24.6863 79.8315 76.8842 23.8429 79.465 76.4911 23.0814 
79.2986 76.1278 22.2529 79.1308 75.8886 21.3736 78.9304 75.6024 20.6577 
78.7281 75.2961 19.9364 78.5838 75.1155 19.4217 78.3422 74.9038 18.4929 
78.1692 74.7984 17.633 77.9244 74.7029 16.7699 77.7456 74.645 16.2567 
77.4142 74.6415 15.3942 77.1638 74.6784 14.7545 76.71 74.7308 13.9595 
76.2119 74.8596 13.2038 75.8759 75.0146 12.702 75.4012 75.1894 12.1284 
74.742 75.3696 11.4489 74.1248 75.6171 10.9225 73.5313 75.9547 10.5935 
73.0551 76.2595 10.3556 72.3456 76.6846 10.058 71.6711 77.1242 9.75797 
71.2679 77.3959 9.61392 70.4567 77.783 9.46519 69.9086 78.01 9.46861 
69.0232 78.4035 9.5631 68.2545 78.8057 9.66537 67.6542 79.2082 9.71591 
67.1196 79.5467 9.75098 66.3502 80.0579 9.83087 65.7083 80.5188 9.97273 
65.391 80.7282 10.04 64.6726 81.1477 10.168 64.0677 81.479 10.2243 
63.4979 81.773 10.2523 62.9852 82.0232 10.2761 62.4761 82.2798 10.2805 
61.7678 82.5826 10.2278 60.9414 82.935 10.1142 60.1955 83.2803 9.76108 
59.609 83.6379 9.27748 59.1645 84.0208 8.80026 58.7499 84.4468 8.1124 
58.4344 84.9192 7.5228 58.2602 85.5037 6.7435 58.2335 86.0926 5.98486 
58.369 86.4123 5.40667 58.5679 86.7615 4.73724 58.8726 87.0451 4.07989 

LINES 2 105
OFFSETS vtktypeint64
0 105 
CONNECTIVITY vtktypeint64
104 103 102 101 100 99 98 97 96 
95 94 93 92 91 90 89 88 87 
86 85 84 83 82 81 80 79 78 
77 76 75 74 73 72 71 70 69 
68 67 66 65 64 63 62 61 60 
59 58 57 56 55 54 53 52 51 
50 49 48 47 46 45 44 43 42 
41 40 39 38 37 36 35 34 33 
32 31 30 29 28 27 26 25 24 
23 22 21 20 19 18 17 16 15 
14 13 12 11 10 9 8 7 6 
5 4 3 2 1 0 
CELL_DATA 1
FIELD FieldData 2
Length 1 1 double
80.187629368 
Tortuosity 1 1 double
1.0041448603 
POINT_DATA 105
FIELD FieldData 7
MaximumInscribedSphereRadius 1 105 double
1.7513013533 1.8712823362 1.9573364831 1.9609684 2.0360896806 2.1398596755 2.157205476 2.1446726444 2.1354105063 
2.1307263237 2.0973008084 2.0645239498 2.0185216371 2.0282754281 2.0941872712 2.135408413 2.1994880588 2.3465345505 
2.3902212783 2.3955468805 2.3887545405 2.2843501261 2.1377350136 2.0662743764 2.020968824 2.0978889256 2.1729983617 
2.3234927873 2.4658411179 2.5551747805 2.598553061 2.6478407469 2.7143277131 2.7685194554 2.8443697092 2.8405580944 
2.9388763045 2.9694231683 2.9732600687 2.9604558011 2.9853758926 2.9743459461 2.9644543942 3.0047202168 3.0059043635 
2.9946150283 2.8750208268 2.843703541 2.660952315 2.6211834992 2.4212146021 2.3295879162 2.2693024046 2.2187543987 
2.2249439119 2.2980644033 2.4392714245 2.6072850355 2.640062018 2.5727006649 2.5377142714 2.5287719573 2.5232251391 
2.4835733383 2.4387273277 2.4192403521 2.4066457833 2.3916108774 2.3912352006 2.4183949025 2.3984064451 2.3706747812 
2.362331116 2.3504838873 2.2805086251 2.2648888387 2.2501060983 2.2210873283 2.1784277054 2.1285018243 2.1342257127 
2.2159492181 2.3112855617 2.3179711657 2.3132443309 2.2940617639 2.2867192902 2.3061221022 2.3232523233 2.3381890074 
2.3425132663 2.3397528063 2.3359836576 2.3501944633 2.3891890674 2.2628484917 2.1787469829 2.1966068727 2.1587420891 
2.0930577933 2.0940230542 2.1683435363 2.1937966115 2.1858256047 2.2031607509 
Curvature 1 105 double
0 0.28223379246 0.16642681366 0.061053868765 0.11355436536 0.27377704599 0.13287843149 0.29662061829 0.13566689043 
0.094088762313 0.16077890109 0.080880588554 0.11781810525 0.13259816849 0.25055393317 0.17842560523 0.1648113961 0.32951678292 
0.12951206989 0.11741691275 0.20946541321 0.11224926512 0.084436336151 0.4669170011 0.34444469466 0.27632350524 0.30394801218 
0.37713136378 0.38429900855 0.64699710456 0.3182569005 0.33160493649 0.39620962643 0.32428666242 0.44503871746 0.21649977911 
0.18869476689 0.33338243479 0.26881011091 0.20864694131 0.12364551964 0.1809959159 0.015296971801 0.18831955964 0.31971344753 
0.44523540929 0.42535481737 0.43215546557 0.45070581543 0.4112630878 0.3100988673 0.42858539807 0.38989685556 0.39685361666 
0.30137422797 0.30648897386 0.25150437536 0.15798567111 0.15519240022 0.025662945149 0.090912741671 0.14276362437 0.12028997586 
0.088000665383 0.080772504732 0.14581371482 0.071638884512 0.18204266419 0.11567046502 0.14339361838 0.14549298145 0.10182522233 
0.15697074696 0.31373457138 0.10125466711 0.079856034296 0.042785753087 0.10284785738 0.26967595761 0.23754776903 0.12139519367 
0.07211242684 0.14838041376 0.044174129138 0.048610746612 0.11367060626 0.065022954867 0.09564011735 0.099510956015 0.067652408785 
0.037212097715 0.0636744553 0.14743889022 0.068422147508 0.31799100487 0.26828927472 0.185876493 0.22498849001 0.15631559607 
0.24652879973 0.15466592991 0.34386160017 0.082539129523 0.20725376688 0 
Torsion 1 105 double
0 0 -0.65760799994 0.42204835785 0.17809886453 0.11745708147 1.9098059041 0.40295933693 0.49137704759 
-0.079975588071 -0.67314563135 -0.18146751848 0.26898178307 0.25897004981 0.15011508468 -0.032024955286 -0.79657311428 -0.38824032548 
-1.1367501916 1.0400161748 -0.20787206734 -1.2916599498 2.8539856124 0.058026790451 -0.33341697048 -0.081499641207 0.87475129369 
0.1107512758 0.077743294495 0.20808621221 0.15502593718 -0.029103572416 -0.14238943378 -0.10944120088 -0.30606669707 -0.71190105588 
0.1224565679 -0.76000948775 -0.88208208583 0.5674500603 0.8535122041 -0.080551970306 -0.94958284192 -0.46568477253 0.85237702754 
0.68312044244 -0.88380358894 0.045856081007 0.053745781741 -0.79225034253 0.72201655648 -0.047240946459 -0.56288256505 0.062920880778 
0.34501521014 -0.28484309685 -0.98429643592 -1.1153941193 -0.37683677788 -2.1734410331 0.19885469517 0.25942121737 -0.149173626 
-0.81104802489 1.0513978072 0.42390538285 -1.3121350469 0.067912852596 1.0493652866 -0.36315552914 -0.8414890917 0.64728095784 
0.25433032957 0.035112189551 0.14889503221 -0.54535314128 -0.61791373824 -1.9818073937 0.081166439706 0.57397978532 0.98382478382 
1.4848023649 0.34818866931 2.3093660206 -0.11310834699 -0.36132463743 -1.7190443932 -0.78504729094 -0.35916835434 0.55630441665 
-0.17156526119 1.2650214029 0.063605888641 -1.1138143344 -0.159209839 -0.4207487705 0.078016362342 -0.056068748999 -0.035436084432 
0.22628655184 0.51919660127 0.15019519974 -0.49634055095 0 0 
FrenetTangent 3 105 double
-0.76744358239 0.02116150343 0.64076714851 -0.76744358239 0.02116150343 0.64076714851 -0.84684495526 0.063642597888 0.52801822079 
-0.88313231714 0.057776225488 0.46555259443 -0.89852708185 0.10531452832 0.426096155 -0.92657494358 0.19109413688 0.32394737966 
-0.93055467714 0.2950709858 0.21679738513 -0.89128085186 0.39999808252 0.21358833556 -0.82372919892 0.50614721952 0.25550968479 
-0.79973913848 0.52109516957 0.29812268387 -0.77055829972 0.52218119643 0.36546778904 -0.71416447714 0.57258234433 0.40263948956 
-0.6636679614 0.60734845761 0.4366608387 -0.59496293105 0.63572394296 0.49180705467 -0.46722971881 0.65546894568 0.5933437883 
-0.33643576467 0.63802601444 0.69262816948 -0.20507584248 0.61440895551 0.76186976198 -0.01625842495 0.64472987425 0.76423756311 
0.1259604969 0.69742635485 0.70550012954 0.17314794853 0.72343813146 0.6683240665 0.29436856681 0.67977039677 0.6717584049 
0.40060776983 0.65351172636 0.64221167714 0.43213258915 0.68593242291 0.58545549498 0.53880933208 0.7019865413 0.46572459619 
0.54387048938 0.71318580208 0.44223399065 0.54894106734 0.68817567256 0.47442380663 0.72785477528 0.54604573594 0.41480294159 
0.78532024715 0.36694796216 0.49861939642 0.75630760802 0.17465362184 0.63047197751 0.62775822843 -0.22429749996 0.7453926738 
0.47057449357 -0.41989382281 0.77604692098 0.26754065137 -0.57869431902 0.77041215268 0.0080940515128 -0.71780218751 0.69620004736 
-0.20660905841 -0.80693481564 0.55332531145 -0.41590530166 -0.84821440871 0.32795593745 -0.47348582553 -0.87485907824 0.10214091363 
-0.49684535154 -0.86774160131 0.013008074546 -0.5944983862 -0.80091349267 -0.071478990319 -0.61136259952 -0.74363795044 -0.27062588675 
-0.54323130909 -0.74745523138 -0.38237471401 -0.51822161567 -0.71462969582 -0.4698412018 -0.50161349091 -0.72680075233 -0.4691956651 
-0.47149273291 -0.7598273431 -0.44761256851 -0.40995759879 -0.81261701357 -0.41423224942 -0.33350785697 -0.8795041259 -0.33947754249 
-0.090947125105 -0.96169898006 -0.25858014655 0.010858417698 -0.95870839994 -0.28418356505 0.24539912104 -0.95941575255 -0.13892690581 
0.29943242047 -0.94737776373 -0.11320599964 0.50549935998 -0.86252497661 0.022826777875 0.52643661198 -0.83203685445 0.17486899787 
0.61072677536 -0.7057385473 0.35909039072 0.69262429421 -0.46397863673 0.55226389682 0.62292665096 -0.25743482753 0.73870812713 
0.50372830905 0.017373789981 0.86368740994 0.4270383051 0.28731832975 0.85737183495 0.28966604571 0.41115442218 0.86431801039 
0.18149325752 0.32714110987 0.92738281832 0.21415538702 0.30557621537 0.92777187218 0.25071882925 0.36898502754 0.8949805127 
0.25247596582 0.35461887042 0.90027848104 0.2498342203 0.25390857058 0.93440531899 0.22251580868 0.17018516139 0.959960273 
0.23417526888 0.11264067319 0.9656469449 0.2924786792 0.10591525626 0.95038843675 0.34738840076 0.041765577712 0.93679076401 
0.36106246917 -0.020682196123 0.93231225462 0.43992205271 -0.055746910318 0.89630400508 0.52059889363 -0.099131495237 0.84802696809 
0.54321209414 -0.18484852497 0.81899428789 0.58471864332 -0.23781313214 0.77559591433 0.65664028313 -0.20557728133 0.72564558841 
0.70621715884 -0.23665102917 0.66727326858 0.75969649586 -0.36714259596 0.53671924543 0.78052447675 -0.46873219789 0.41360810903 
0.79480529872 -0.4892852309 0.35900487455 0.7963341661 -0.49758812794 0.34388653774 0.78924155394 -0.5209147343 0.32518549956 
0.8599217643 -0.46643312976 0.20730338814 0.9070353902 -0.4097392416 0.096956458372 0.91590953666 -0.39647992914 -0.062557065457 
0.89602773865 -0.43101543714 -0.10658322813 0.8581230058 -0.50443167941 -0.095778847968 0.83564436917 -0.54564175227 -0.063036231221 
0.83555689648 -0.54444293883 -0.073665182401 0.81675051359 -0.56253948258 -0.1283274292 0.80691446073 -0.56386004887 -0.17592867402 
0.84384914147 -0.51245375794 -0.15909045356 0.86345774969 -0.48987647409 -0.1202570357 0.88095060394 -0.4689641244 -0.063235144048 
0.89262072078 -0.44877981331 -0.042719176151 0.89559417734 -0.44418299081 -0.024749549408 0.90806843734 -0.41726685256 0.036056717213 
0.91515469588 -0.3907062142 0.099199479786 0.8821638523 -0.39145122071 0.26182604816 0.77320959736 -0.40790106961 0.48555497728 
0.64757362795 -0.46517165002 0.60354265168 0.51807557072 -0.48781812993 0.70258890906 0.42352676526 -0.52107953942 0.74101362518 
0.27245586622 -0.58799106388 0.76159983572 0.10331507328 -0.60333617727 0.79076637057 -0.067214396049 -0.56085227316 0.82518298132 
-0.22990590008 -0.45986949562 0.8577081812 -0.32407712117 -0.40723783968 0.85389189097 -0.32407712117 -0.40723783968 0.85389189097 

FrenetNormal 3 105 double
0.45882710635 -0.67993041147 0.5719897919 0.45882710635 -0.67993041147 0.5719897919 0.51004417208 0.37849263795 0.77239773792 
-0.088281385752 -0.9951247048 -0.043968384392 0.33961703851 -0.44815625096 0.8269318242 0.10245132514 -0.70050169555 0.70625852244 
-0.067171748797 -0.71961837475 0.69111312452 -0.45067860898 -0.83342024525 -0.31984290865 -0.56575916271 -0.76335538733 -0.31177736038 
-0.046971145914 0.44074976859 -0.89640021918 -0.61786393666 -0.47121026897 -0.62944820136 -0.63791898185 -0.76918267305 -0.037648214766 
-0.70963000906 -0.32657048383 -0.62432120686 -0.7731366109 -0.28538327114 -0.56640636423 -0.78722924829 -0.0029435739752 -0.61665342455 
-0.7806782553 0.22235989446 -0.58403556316 -0.94208653536 0.087132222907 -0.32385326248 -0.94799923452 -0.25292237186 0.19320384357 
-0.00069618763088 -0.71110205031 0.70308846482 -0.97560659947 0.21896122316 0.015739943622 -0.91521660919 0.40290720154 -0.006659219517 
-0.6916182628 -0.24405774837 0.67977937158 0.20822787029 -0.70755134652 0.67528678802 -0.71650002564 0.091107420981 0.69161199462 
0.76197172292 -0.19891418964 -0.61630531284 -0.83542289891 0.43333820691 0.33806297993 -0.65458608099 0.73349683622 0.18302856013 
0.16078792215 0.65687765845 -0.7366539119 -0.054215045491 0.97712328336 -0.20564731452 0.52759841064 0.82667320293 -0.19557947912 
0.70866388387 0.70385070543 -0.048884395838 0.85952125933 0.50470144301 0.080620457596 0.83929719309 0.3833645211 0.3855020955 
0.72107280062 0.25667396886 0.64356234345 0.61181398577 0.0058357354568 0.79098014578 -0.61111110532 0.40980595295 0.67720181474 
0.80216556552 -0.45347519501 0.38844646091 0.47604075254 -0.42220252688 0.77144684082 -0.56061376003 0.16562835997 0.81134422931 
-0.49422285266 -0.083480954883 0.86531768853 0.34200045197 -0.67668481701 0.65202250673 -0.5287768669 0.68684537836 -0.49863659238 
-0.10674240734 -0.45466817254 0.88424143273 -0.69235659159 0.57289867071 -0.43866782784 -0.37217142755 0.45367425877 -0.80973334836 
-0.97302203738 0.030529930917 0.22868327026 -0.95811193662 -0.091314711784 0.27144638573 -0.28270364997 0.066255114753 -0.9569163527 
-0.88722504527 -0.32011628611 0.33220066589 -0.07981455234 -0.073086481473 -0.99412675422 -0.12793786041 -0.28085746915 -0.95118399161 
-0.60984509853 -0.70846936231 -0.35519025671 0.099424117996 -0.69693115681 -0.71021250864 0.35995151563 -0.74407438732 -0.56283941985 
0.32721419751 -0.92913669118 -0.17215074223 0.20401138984 -0.95434155461 0.21820071026 0.92374428075 0.11632519305 -0.3649177349 
-0.0018485326933 0.9431565538 -0.33234364437 -0.52965612981 -0.76172610747 0.37314571062 0.078351969798 -0.92921092526 0.36114820393 
-0.097093907417 0.93501003636 -0.34107038137 0.095088751889 0.95390905113 -0.28463248487 0.44575009574 0.85794295752 -0.25542265718 
-0.96187412843 0.17118634121 0.21329181335 -0.95579598218 0.001022305036 0.29402890224 -0.29053533328 0.95464189504 0.065177237951 
-0.093166884434 0.99395207469 0.058130928576 -0.89683798324 0.024263446604 0.44169323854 -0.47288444533 0.79350251522 0.38305882017 
0.049448825874 0.98081334203 0.18857359761 -0.81086381993 -0.20029448226 0.54989270399 -0.71571338877 -0.47328774697 0.51356893763 
-0.31264841533 0.74136641912 0.59382388045 -0.22831656278 0.62222620882 0.74880310644 0.09382675638 0.74198765493 0.66381538075 
-0.51220071868 -0.22357790926 0.82925469084 0.59333747905 0.75306178815 -0.28433884573 -0.15101769091 0.34863804649 0.92501090241 
-0.47919708324 -0.59785021843 0.64260817901 -0.20554407829 -0.22991500714 0.95125744222 0.16193710967 0.22239853947 0.96141315893 
0.44222778544 0.8449443208 0.30083829634 0.43088663828 0.80894667473 -0.39992747142 -0.50472326408 -0.71752357476 -0.48001494389 
0.36701270171 0.4533521693 0.81226441961 0.30541549652 0.23280262781 0.92332243066 -0.58071012638 -0.81176639285 -0.061733884964 
-0.53138960898 -0.75696909364 -0.38029314318 -0.27456074564 -0.25644035702 -0.92674416116 -0.30228809518 -0.45489777945 -0.83766933677 
-0.45080839611 -0.88856243963 -0.085021061336 0.13733941015 0.32897221544 -0.93429929246 -0.24046622082 -0.58991803146 -0.77082599385 
0.085200960433 -0.053048858915 -0.99495055903 0.27999897186 -0.011065022083 -0.9599365297 0.58801575359 0.17446137426 -0.78981054844 
0.74599028859 0.54852975794 -0.37764215069 0.71287149666 -0.20766516334 -0.66984282423 0.52492632339 0.80783809247 0.26804844965 
0.95306606965 0.056305658661 -0.29748065429 0.9887077986 0.14905777572 -0.015448899355 0.8307015862 -0.48956067013 -0.26507588527 
0.89395296169 -0.44816030653 -0.00066478767812 0.85330996819 -0.51553888282 0.077985629977 0.85330996819 -0.51553888282 0.077985629977 

FrenetBinormal 3 105 double
0.44778123489 0.73297123158 0.51209875937 0.44778123489 0.73297123158 0.51209875937 -0.15069361063 0.92341374408 -0.3529851172 
0.46074256081 -0.079929529366 0.88392735165 0.27804559039 0.88773015317 0.36691392017 0.36188755147 0.6875902889 0.62948947148 
0.35993881289 0.62855589096 0.68946467851 0.050072292842 -0.38132955405 0.92308208557 0.037239450339 -0.40137706064 0.91515554882 
-0.59850732814 -0.7308895031 -0.32800840297 -0.1564738397 -0.71083590266 0.68573191335 0.28814661578 -0.28373839085 0.91458408764 
-0.23657998068 -0.72420961753 0.64772705873 -0.21972458116 -0.71722483009 0.6612939222 -0.4024506187 -0.75521639059 0.51737965063 
-0.52664260931 -0.73721020221 0.42328321467 -0.26536175066 -0.7841617251 0.56095769017 0.3178570669 -0.72135543463 0.61531554666 
0.99203501377 -0.089052532856 -0.089085228001 -0.13495017966 -0.65474670881 0.74370370196 -0.27518303932 -0.61284418462 0.74074037304 
0.60098052656 -0.71649022252 0.35420921462 0.87744092646 -0.16990527726 -0.44858624291 0.44307134518 -0.70633868199 0.55206290349 
-0.35157358299 0.67216006789 -0.65161097203 0.027060756901 -0.58192116488 0.81279485315 -0.2043146805 -0.40474244343 0.89131311323 
-0.59784559336 0.65868120885 0.45685852471 -0.65196589703 0.1213515616 0.74847462723 -0.57232816088 0.51604461732 0.63728990985 
-0.52569491694 0.57296017491 0.62877777655 -0.43548272598 0.64061637393 0.63242822267 -0.54361264518 0.58119847175 0.60555233335 
-0.66133706473 0.53195364179 0.52882758041 -0.67283462074 0.52962086539 0.51652232486 -0.63431410987 0.25822601368 -0.72867340824 
-0.33117231487 0.2034324479 0.92137947503 -0.64804079403 0.42459698957 0.63226618266 -0.558523038 0.64774211307 -0.5181526522 
-0.67870723934 0.65904598266 -0.32405998828 -0.78388905332 0.17720625352 0.59507637813 0.6846743246 -0.0020230280463 -0.72884633263 
-0.87538600702 0.46469265278 0.13326693947 0.59378204527 0.10696121896 -0.79748490917 0.86617604322 -0.14370859212 -0.47863023588 
-0.21203003376 0.27240226701 -0.93853091036 -0.28618807047 0.26933218762 -0.919541495 0.92728524074 0.27410157521 -0.25497138816 
-0.35095860814 0.00096754868796 -0.93639047369 0.85912748431 0.50070852894 -0.1057872145 0.84053340055 0.47836571247 -0.25430266945 
0.50507599592 -0.0020653145909 -0.863072403 0.71441334802 0.54681878837 -0.43658078388 0.69454826608 0.61650678481 -0.37083970981 
0.79949275144 0.36932798502 -0.47371740507 0.88091863347 0.08173355818 -0.46615661174 -0.25057949986 0.90411309612 -0.34610608731 
-0.98339045165 0.058603833173 0.17178128633 0.82073251085 -0.57131122323 -0.0012774337543 0.96488395027 -0.020423168774 -0.26188137904 
-0.96271940867 -0.00129948154 0.27049889375 -0.96360831858 0.15996237047 0.21417527496 -0.86706030185 0.48473796271 0.11504581901 
-0.14128023395 -0.97877848123 0.14843375683 0.030170559644 -0.99437463432 0.10153237881 -0.89157754522 -0.29481263329 0.34376589726 
-0.92787597501 -0.10784952469 0.35695189455 -0.046370457725 -0.99815007246 -0.039321921386 -0.71088472575 -0.60043876041 0.36621878938 
-0.83813807598 -0.061937152924 0.541930212 0.024575875823 -0.95043518167 -0.30994998269 0.23786105966 -0.85658431574 -0.45791421284 
-0.63522302615 -0.62799054372 0.44957711691 -0.60887829765 -0.69140498934 0.38887833492 -0.61804375329 -0.47931664544 0.62311914786 
-0.32547651361 -0.84297857702 -0.42831315386 -0.11748417708 0.43046950898 0.89492651652 -0.59522384576 -0.77916580529 0.19649229324 
-0.17579736827 -0.651931938 -0.73761780993 -0.36747575812 -0.88275299115 -0.29276052297 -0.36726842113 -0.8906977913 0.26790175701 
-0.039609056499 -0.31669352331 0.9477005513 0.27921606663 0.30191713806 0.91152862264 0.21668621314 0.43293763736 -0.87499262122 
-0.40883535748 -0.70572919519 0.57861900551 -0.48953035967 -0.79331725496 0.36194994122 -0.10800371371 0.15197752702 -0.98246528137 
0.074456093901 0.40544905629 -0.91108032184 0.42315140488 0.83322228933 -0.3559262636 0.36407134045 0.75706053937 -0.54250474541 
0.00019708065331 0.095149724335 -0.99546295316 0.42314176814 0.8333539177 0.35562943061 0.34291064397 0.69129233318 -0.6360245281 
0.39399578544 0.91898556722 -0.015259367651 0.37866543736 0.92013233129 0.099844776827 0.23745397889 0.89620307202 0.37474746378 
-0.15539268228 0.69478805449 0.70222693884 0.47266471443 0.8478848106 0.24016539237 -0.73829359615 0.27545186504 0.61566942098 
0.13203358601 0.80690531142 0.57573513924 -0.10854899643 0.78343298162 0.61192309866 0.55264554613 0.66766389595 0.49880639771 
0.38469647697 0.76659793024 0.51413639625 0.40845577204 0.75390782078 0.51457446502 0.40845577204 0.75390782078 0.51457446502 

SiphonLabel 1 105 int
0 0 0 0 0 0 0 0 0 
0 0 0 0 0 0 0 0 0 
0 0 0 0 0 1 1 1 1 
1 1 1 1 1 1 1 1 1 
1 1 1 1 1 1 1 1 1 
1 1 1 1 1 1 1 1 0 
0 0 0 0 0 0 0 0 0 
0 0 0 0 0 0 0 0 0 
0 0 0 0 0 0 0 0 0 
0 0 0 0 0 0 0 0 0 
0 0 0 0 0 0 0 0 0 
0 0 0 0 0 0 
