# vtk DataFile Version 5.1
vtk output
ASCII
DATASET POLYDATA
POINTS 84 float
77.9334 68.6868 33.1685 78.3286 69.0352 32.7773 78.7601 69.4253 32.2747 
79.3281 69.8109 31.7055 79.9519 70.0886 31.125 80.5674 70.2109 30.4116 
81.2042 70.0823 29.6997 81.6673 69.9154 29.1719 82.1864 69.6317 28.6415 
82.5287 69.2452 28.1228 82.9154 68.6999 27.4338 83.1305 68.1608 26.7795 
83.2366 67.4926 26.0878 83.1624 66.9795 25.6179 82.7037 66.4414 25.1579 
82.4294 66.0408 24.704 82.1029 65.6184 24.0351 82.0081 65.5245 23.8433 
81.6537 65.344 22.9433 81.4433 65.3173 22.1244 81.3612 65.594 21.2444 
81.6445 66.0081 20.3974 82.1468 66.5433 19.7686 82.7631 67.1311 19.3936 
83.3601 67.7277 19.1644 83.7452 68.1581 19.0421 84.433 68.7277 19.0049 
84.7838 69.0928 19.0304 85.428 69.7784 19.1761 85.9483 70.3961 19.4984 
86.3307 71.0469 19.7914 86.61 71.8268 20.0366 86.7484 72.6412 20.1849 
86.7569 73.4621 20.3166 86.6887 74.2137 20.4642 86.443 74.9093 20.5245 
86.2032 75.4951 20.4391 85.814 76.0713 20.3884 85.4569 76.4587 20.3367 
84.7285 77.0154 20.1852 84.1303 77.3284 19.9446 83.7324 77.4463 19.7442 
83.0074 77.3677 19.2177 82.5634 77.2429 18.7883 82.1336 77.0533 18.2078 
81.7806 76.7987 17.4525 81.5064 76.5255 16.6165 81.321 76.4541 16.0275 
81.0708 76.321 15.1809 80.9444 76.1329 14.5115 80.7542 75.9378 13.6069 
80.595 75.8292 12.7321 80.4189 75.7901 11.8813 80.1966 75.8609 10.94 
80.1045 75.9943 10.3728 79.9633 76.1785 9.46257 79.8277 76.3642 8.67545 
79.6523 76.5688 8.05636 79.4214 76.7998 7.42499 79.1746 77.0244 6.93064 
78.8641 77.2968 6.40682 78.6017 77.5301 6.00693 78.119 77.9539 5.39059 
77.5807 78.4086 4.80899 77.1949 78.724 4.47686 76.6763 79.0849 4.13579 
76.0424 79.4618 3.83008 75.2508 79.9696 3.55593 74.6281 80.4332 3.38032 
74.0925 80.6961 3.26162 73.5685 80.9585 3.22929 72.9358 81.2736 3.24321 
72.0866 81.7015 3.37034 71.4886 82.0811 3.49018 70.8746 82.575 3.61135 
70.3435 82.9289 3.72883 69.4656 83.2913 3.88576 68.6803 83.6225 4.05566 
68.0832 83.9771 4.17482 67.2683 84.4143 4.29061 66.4717 84.9885 4.33375 
65.9331 85.4288 4.29775 65.2041 86.0076 4.08985 64.8591 86.3332 3.91943 

LINES 2 84
OFFSETS vtktypeint64
0 84 
CONNECTIVITY vtktypeint64
83 82 81 80 79 78 77 76 75 
74 73 72 71 70 69 68 67 66 
65 64 63 62 61 60 59 58 57 
56 55 54 53 52 51 50 49 48 
47 46 45 44 43 42 41 40 39 
38 37 36 35 34 33 32 31 30 
29 28 27 26 25 24 23 22 21 
20 19 18 17 16 15 14 13 12 
11 10 9 8 7 6 5 4 3 
2 1 0 
CELL_DATA 1
FIELD FieldData 2
Length 1 1 double
65.452940059 
Tortuosity 1 1 double
0.78948152615 
POINT_DATA 84
FIELD FieldData 7
MaximumInscribedSphereRadius 1 84 double
1.6324988168 1.6050664981 1.6020520358 1.6231296016 1.7055833866 1.79596919 1.7108640019 1.6432154257 1.5989249123 
1.5885463555 1.5973253826 1.6349134815 1.7667561444 1.7858971685 1.6576943366 1.642770332 1.6948346854 1.7193434521 
1.8735609079 2.0978989951 2.2580669981 2.3305686081 2.3124398165 2.3037422004 2.3892635887 2.4542416013 2.4570353153 
2.4730197781 2.4493850171 2.4716766102 2.4423647313 2.3647328469 2.3126440246 2.3206284193 2.3523000024 2.3266770266 
2.3561605314 2.3900535919 2.4182757815 2.4678882044 2.5102888445 2.5189238215 2.40340612 2.375619343 2.3862052002 
2.4321949354 2.4538446994 2.3738314526 2.2873665595 2.2304366023 2.1885184316 2.2001428452 2.2017165472 2.1632539602 
2.1385528359 2.0576466834 1.9620548019 1.9207946497 1.9216448081 1.9172511515 1.9208818007 1.9418963686 1.9646127985 
1.9829251336 1.973218361 1.9248991455 1.9062611034 1.9640523908 1.9937105496 2.0139714661 1.981239804 1.9785914232 
2.0266504695 2.0891253506 2.1432836533 2.2105387582 2.2333613138 2.2265159243 2.2492502083 2.2706603101 2.2154251745 
2.1866382042 2.1662313201 2.16675139 
Curvature 1 84 double
0 0.10470370318 0.1301187202 0.15310001837 0.23457877182 0.27928780466 0.11888607065 0.18765840988 0.34069238578 
0.090611223255 0.1833709492 0.17338566977 0.27206609081 0.63734278858 0.2587011611 0.1989288997 0.18855832623 0.40059454113 
0.21584403065 0.42927040228 0.44304764382 0.3587026779 0.31920240012 0.16848131021 0.10695368792 0.30364827283 0.20959737075 
0.14263055595 0.25769363556 0.1881237481 0.23545386296 0.24065746713 0.18878494146 0.13133745121 0.36437064553 0.32389639592 
0.32258103062 0.24921309639 0.25405328184 0.29891603935 0.35727786659 0.57490258178 0.23494584401 0.24882431815 0.24483928672 
0.1286799349 0.24293934941 0.050800265875 0.19502859954 0.078322041176 0.098619817636 0.091062612528 0.13220968295 0.21936703616 
0.041193750246 0.03990142496 0.17316867535 0.10752854962 0.18221931309 0.11849712878 0.088427146659 0.12052234649 0.084425671709 
0.13633884338 0.17400011751 0.15963663319 0.12847524538 0.10266616027 0.26008403113 0.23776791927 0.11582431901 0.13633042921 
0.12384672832 0.14744456456 0.12906476597 0.24278501424 0.036964986931 0.17497120701 0.076387799305 0.16202773782 0.13509897934 
0.20548810919 0.20596093695 0 
Torsion 1 84 double
0 0 -0.20461476604 0.77493153605 -0.097467700531 -0.20556601984 -0.19777964791 0.84762168358 0.34146749084 
0.49441214809 -0.14434956318 -0.037766876163 0.3658199178 0.23284882516 0.58501053683 -0.88411397171 0.24713794091 0.30641546058 
0.10567057612 0.31016215463 0.21150481142 -0.21158460603 -0.11857634365 -0.50644069992 1.2728819381 -0.22925087616 -0.67773701791 
0.57071370359 -0.43190198456 -1.0169039581 -0.20033486778 0.16657425754 0.54467054194 -0.71998371393 -0.63130531084 0.08463170832 
0.48482678065 -0.65485669437 -0.52272418459 -0.083087913724 0.063539329415 -0.17052371174 -0.88401765881 -0.27216154295 -0.097977759277 
-1.1663502855 -0.27653842545 1.0455680488 -0.12842368703 -0.11568406828 -0.035269053625 -0.28980215453 0.57171128786 0.30929907066 
2.2562945216 -0.82012884459 -0.19341128061 -0.12436726191 0.10440020932 0.16416299413 0.099481092187 -0.13817931819 -0.06968750069 
-0.39815418049 -0.28169290038 0.41086455108 0.76019536713 -0.70588483153 0.43337456222 0.87098951483 -0.069060765232 0.54103253446 
0.92116095365 0.14013376275 -0.63532581718 -0.036508384299 5.9105374421 0.37260784555 -0.07250797717 -0.051716472863 0.85314380053 
-0.12824508607 0 0 
FrenetTangent 3 84 double
-0.58059090718 -0.51862813502 0.6276456453 -0.58059090718 -0.51862813502 0.6276456453 -0.60279672656 -0.46778420965 0.64638536467 
-0.6681090158 -0.37183080331 0.64449375227 -0.67509251285 -0.21789619331 0.70482008203 -0.660018194 0.0033214431043 0.75124227224 
-0.65336293637 0.17549611281 0.73642242481 -0.64940852615 0.29794254856 0.69964191121 -0.56897507776 0.44274166953 0.69299868322 
-0.43121068958 0.55112130614 0.7143687053 -0.32920063722 0.59310697015 0.73474557665 -0.17488319045 0.65744779402 0.73292446257 
-0.019232216234 0.71291343855 0.70098826737 0.35498532262 0.70022838152 0.61940748659 0.48829589954 0.62526146878 0.60878174262 
0.39620194059 0.5427725061 0.74055521664 0.38701869764 0.47433970369 0.79070751431 0.37061637428 0.22635699101 0.90078078118 
0.3101267398 0.1137685803 0.9438633987 0.16796733761 -0.14346270269 0.97529760916 -0.10753671916 -0.36923210243 0.92309452851 
-0.40862654623 -0.49378915338 0.76759143933 -0.59622348591 -0.59853729824 0.53504266882 -0.67407758812 -0.65799602886 0.33564956606 
-0.6708781616 -0.70162776465 0.24008534351 -0.72722348769 -0.67783281491 0.10811417108 -0.7432883746 -0.66891913094 0.0083419685754 
-0.68286287785 -0.72103647505 -0.11749336875 -0.64359765467 -0.72033197896 -0.25865788022 -0.53921103694 -0.75774839605 -0.36751710971 
-0.39729347224 -0.85892836054 -0.3231098395 -0.24651219697 -0.94089683423 -0.23226037993 -0.088180856194 -0.98181649053 -0.16810864202 
0.037353151922 -0.98390350267 -0.17475308142 0.20992341334 -0.96778545589 -0.13900889146 0.35427493514 -0.93496161998 0.018331380108 
0.47353461094 -0.8747912239 0.1024953015 0.61019531406 -0.78781260863 0.083743491594 0.74712068585 -0.64981970895 0.13980352868 
0.81185733758 -0.53227185415 0.23994652884 0.85026788856 -0.36783987933 0.37648152791 0.8391123935 -0.029354823618 0.54316543097 
0.76719220782 0.13350942034 0.62736859257 0.63687370761 0.22918511618 0.73611552291 0.48601047836 0.27579654728 0.8292949291 
0.3503820675 0.29481227628 0.888998385 0.29910091585 0.22429341017 0.92748644642 0.28771046984 0.13506443162 0.94814570866 
0.2361746002 0.20139857685 0.95061042045 0.19180447476 0.23220090614 0.9535689711 0.19001440877 0.1651967253 0.96778332617 
0.19003866583 0.083718216989 0.97820067759 0.21697598142 -0.017268660426 0.97602418866 0.2022573321 -0.13135511609 0.97048328429 
0.15257300166 -0.20770844768 0.96621875366 0.15737467351 -0.21027529065 0.96489248846 0.20844811745 -0.26157252729 0.9424060671 
0.29336054151 -0.31448994757 0.90279325737 0.36602470828 -0.34915230686 0.86262308081 0.44133778377 -0.39366919428 0.80637802927 
0.47793385781 -0.42179805988 0.7704969982 0.52432556381 -0.46234810262 0.71506428741 0.56641060496 -0.4873685942 0.66456819062 
0.61170374981 -0.50983141047 0.60488879587 0.68789451413 -0.51440194794 0.51204665158 0.76146353774 -0.4874215462 0.42730962661 
0.80305191573 -0.49839162381 0.3266701853 0.79736848385 -0.54763865181 0.25356539196 0.82818190072 -0.5194547589 0.21043168197 
0.88870564288 -0.44062839006 0.12668426178 0.89460426084 -0.4466323972 0.014237916036 0.89071321499 -0.44659011718 -0.08477756715 
0.86371988752 -0.4819353802 -0.1473982538 0.80090489041 -0.57722043769 -0.15927310765 0.79264920821 -0.58687157584 -0.16519378378 
0.87828046857 -0.44650647598 -0.17104205753 0.90814791644 -0.3787115614 -0.17845143633 0.88052211542 -0.4367864379 -0.18411521373 
0.86316749606 -0.4840584738 -0.14362892357 0.84403354434 -0.52979026469 -0.083244528143 0.79624605689 -0.60495791266 -0.0042592016274 
0.77077355204 -0.61961001119 0.14829553437 0.73858079484 -0.6219467591 0.26015502752 0.73858079484 -0.6219467591 0.26015502752 

FrenetNormal 3 84 double
-0.55179714625 -0.31620291914 -0.77170954596 -0.55179714625 -0.31620291914 -0.77170954596 0.69945053691 -0.69961365458 0.14597835708 
0.43375645209 -0.89840930928 -0.068673526638 -0.22743985054 -0.84737750996 -0.47981503728 0.048495267276 -0.99771616876 0.047017610056 
-0.18559408041 -0.98020580205 0.068930566137 0.079935514956 -0.8882057801 0.45243873137 -0.72284158953 -0.67109130931 -0.16473157263 
-0.84857376247 -0.51674607587 -0.11356083267 -0.93833214014 -0.29253123879 -0.18427769564 -0.85959742554 -0.46493962571 0.21195143419 
-0.96223642063 -0.20361121103 0.18067524889 -0.93275221261 0.2206933914 0.28507496708 0.67246120372 0.17502861688 -0.71913900795 
0.21209197082 0.73064511971 -0.64897974157 -0.2511309243 0.87934007554 -0.40459151055 0.21768113685 0.92166499432 -0.32116749665 
0.56694621523 0.77482472436 -0.2796759474 0.43697871288 0.89767741529 0.056787873389 0.92707367712 0.29814303535 0.22725564386 
0.68296314294 0.39247741342 0.61605423897 0.48339100297 0.26445489842 0.83450389151 0.13564121096 0.33641163636 0.93189520485 
-0.3823622867 0.60468256957 0.69868309823 0.50986963972 -0.42799908806 0.74622364685 -0.51599185842 0.5812061439 0.62924702648 
-0.15745784905 -0.011784896191 0.98745538734 -0.33551010211 -0.038219948959 0.94126096641 -0.8005608724 0.59666270946 -0.055640818869 
-0.76512658445 0.50443606148 -0.40015693129 -0.78037011249 0.33482242106 -0.52812539599 -0.98722075529 0.10863008454 -0.11659624801 
-0.94281386181 -0.092661219834 0.32018107427 -0.9022135241 -0.13695784715 -0.40896614168 -0.19952613148 -0.094726625921 -0.97530312683 
-0.85624574211 -0.42994692735 0.28633698467 -0.77134373698 -0.6148874383 -0.16414102975 -0.57586413771 -0.7378415957 -0.35209412741 
-0.22203425966 -0.66155506449 -0.71627207414 -0.15750092825 -0.86030151149 -0.4848450958 0.20363018674 -0.90898503152 -0.36370449478 
0.55757800344 -0.62229120522 -0.54941826143 0.76263197725 -0.32730308899 -0.55791142237 0.87322614612 -0.19193643151 -0.44792466329 
0.93392229546 -0.03815897897 -0.35543359206 -0.0084690428076 0.97256805163 -0.23246432042 0.46572466313 -0.88479772356 -0.015281575273 
0.65253356435 -0.75775817784 -0.0015783911427 -0.34775796812 0.92464831749 -0.15520916394 0.26125792862 0.94169210158 -0.21203839405 
-0.3092873429 0.95073049096 -0.021280814882 -0.22006940921 0.97323926881 0.066142125615 0.42614302409 0.90403350521 0.033549135168 
0.18391441954 -0.9546200194 -0.23425649371 -0.42959219423 0.86519838074 0.25861614146 -0.73339550483 0.59568368127 0.32755455326 
-0.87415918801 0.29405773766 0.38649160526 -0.75032047447 0.43760842442 0.4954977825 -0.69185714244 0.42298997657 0.58516081053 
-0.52414196094 0.56694704862 0.63548898404 -0.56762178868 0.43618852257 0.69824428232 -0.61697941305 0.28384211587 0.73400957564 
-0.54110576864 0.28813107611 0.7900538147 -0.68127315513 -0.21428920938 0.69996215815 -0.59194146385 -0.25423969891 0.76483166702 
-0.11872514929 0.403385282 0.90729524037 0.27873855908 0.70686118669 0.65011697289 -0.55120953758 -0.82285422879 0.13812662253 
-0.088749510923 0.10575558977 0.99042378785 -0.026127756378 -0.02047306034 0.99944894524 0.094444832726 -0.00061654487205 0.99552990585 
0.50217253871 0.79830867268 0.33245451493 0.5617779061 0.81639689311 -0.13379722393 -0.52229691377 -0.7934147675 0.31256829747 
-0.46589777643 -0.87960209406 -0.096121891547 0.2453828872 0.13615422863 0.95981730798 0.40382312824 0.8946445975 -0.19114896092 
-0.42695658701 -0.54788673099 -0.71939433054 0.41626110335 0.74505519274 -0.52117123252 0.32062617053 0.42795772996 -0.84501540823 
0.063336256991 -0.15709062129 -0.98555114289 0.51748083572 0.27567854912 -0.81007093653 0.51748083572 0.27567854912 -0.81007093653 

FrenetBinormal 3 84 double
0.59869366783 -0.7943806213 -0.1025929852 0.59869366783 -0.7943806213 -0.1025929852 0.38393365685 0.54010986616 0.74891673744 
0.60455411939 0.23367192109 0.76151936943 0.70179855619 -0.48422371334 0.5224999349 0.74968272798 0.067464172857 0.65834974956 
0.73394257997 -0.091638965631 0.67300118075 0.75622673823 0.34974380617 0.55299221553 0.39213186218 -0.59465642907 0.70186632205 
0.30656143076 -0.65516318501 0.69049351204 0.10563964801 -0.75009972423 0.65283280285 0.48011262815 -0.59295323811 0.64645055628 
0.27153488299 -0.67104165584 0.68990717017 0.062918443934 -0.67895113278 0.73148248694 -0.55620413876 0.76053473223 -0.33499832401 
-0.89333141565 0.41419284841 0.17436532379 -0.88721462259 -0.041986629431 0.45944241904 -0.90291662172 0.31511291764 0.29231049136 
-0.76314703321 0.62185477135 0.17579319967 -0.88364957873 0.41664578602 0.21347063265 -0.35912428382 0.88021496523 0.31024403905 
-0.60546320376 0.77597277785 0.17686310222 -0.64097635923 0.75618563152 0.13165332351 -0.72609976386 0.67369758566 -0.13751616629 
-0.63539088284 0.37693165153 -0.67394432713 -0.45954210847 0.59779549651 0.65685736267 -0.42576377749 0.46340761167 -0.77716059551 
-0.71337599892 0.69279688067 -0.10548538432 -0.68790626563 0.69257568221 -0.2170803863 0.2614454957 0.26421767433 -0.92835083527 
0.50669439181 0.088240191225 -0.85759807717 0.57467749588 0.051059707168 -0.81678557898 0.13273777502 0.15567878357 -0.97884871121 
-0.33122011416 0.15279985525 -0.93109904963 0.37675312536 0.21126727024 -0.90189978549 0.91360746121 0.34186786264 -0.22010854437 
-0.20641754132 -0.22335163813 -0.95263101166 0.18080519385 0.035563069446 -0.9828757551 0.33195056208 0.18254896746 -0.92546458539 
0.53998930634 0.5282343892 -0.65527092039 0.50223298905 0.35295202577 -0.78942187214 0.50440572768 0.41579382728 -0.75676307724 
0.31705344398 0.77131633627 -0.55185887967 0.11306789035 0.91670435281 -0.38323463011 0.035635833784 0.94185809481 -0.33411587299 
-0.070862915665 0.95479296922 -0.28870197974 -0.95418390127 0.061675368722 0.29279554546 0.83685316735 0.44597150996 -0.31746840568 
0.7200149343 0.62067798186 -0.3103825659 -0.91775565325 -0.30184139569 0.25810140019 -0.94638196263 0.29313141723 0.13577611365 
-0.93178680234 -0.29850091073 0.20656853895 -0.95104725362 -0.22914431919 0.20736924161 -0.88175625579 0.40677912302 0.2388234713 
0.97102881803 0.21344277763 -0.10744866322 -0.88920400291 -0.45520991214 0.045827689188 -0.64705518762 -0.75943450333 -0.067666973745 
-0.38702106751 -0.90256640742 -0.18864934005 -0.55049532106 -0.82860819058 -0.10180062866 -0.57144960851 -0.81615197432 -0.085681385006 
-0.70487901965 -0.70757150927 0.049881127892 -0.63473475417 -0.77199339685 -0.033734063976 -0.54636565637 -0.82577569996 -0.13992520463 
-0.57708151038 -0.81058769783 -0.099621857551 -0.2503358255 -0.83034376658 -0.49785660965 -0.26415636291 -0.83533371283 -0.48211928414 
-0.58396229294 -0.76738914743 0.26476770354 -0.53526471642 -0.44770433301 0.71627684143 0.10140406797 -0.2303859189 -0.96780139666 
-0.44980640793 -0.89143837539 0.054880035274 -0.44609478458 -0.89448328971 -0.029984789477 -0.44464608648 -0.8947384462 0.041628964249 
-0.042552288704 -0.36116693155 0.93152979034 0.2072605624 0.017682738055 0.97812595306 -0.31450463684 -0.16147681006 -0.93542080008 
-0.10752990492 0.16411009423 -0.98056371365 -0.3391969937 -0.91544501708 0.2165775154 0.24820895503 0.093960905867 0.96413881927 
0.26953654029 0.68228111797 -0.6795899716 0.33813321318 0.40523454346 0.84938265518 0.51302151579 0.67147457531 0.53472499386 
0.6339531923 0.7690292392 -0.081837517259 0.43210183308 0.73292807724 0.5254564106 0.43210183308 0.73292807724 0.5254564106 

SiphonLabel 1 84 int
0 0 0 0 0 0 0 0 0 
0 0 0 0 0 0 0 0 0 
0 1 1 1 1 1 1 1 1 
1 1 1 1 1 1 1 1 1 
1 1 1 1 1 0 0 0 0 
0 0 0 0 0 0 0 0 0 
0 0 0 0 0 0 0 0 0 
0 0 0 0 0 0 0 0 0 
0 0 0 0 0 0 0 0 0 
0 0 0 
