# vtk DataFile Version 5.1
vtk output
ASCII
DATASET POLYDATA
POINTS 86 float
77.3577 67.8915 34.6447 78.2069 68.0389 34.2322 78.6516 68.0158 33.9201 
79.1072 68.008 33.6083 79.6013 67.949 33.2486 80.1368 67.8581 32.8253 
80.6811 67.6873 32.3615 81.2186 67.418 31.8674 81.9135 66.9827 31.3343 
82.4849 66.5275 30.6747 82.8191 66.2288 30.1144 83.1725 65.9083 29.4381 
83.3466 65.6378 29.0109 83.5004 65.3726 28.6199 83.599 65.0202 28.107 
83.6359 64.5076 27.2766 83.5886 64.2598 26.861 83.3242 63.7792 26.0931 
82.8825 63.4207 25.3916 82.3481 63.1846 24.6752 82.0716 63.0723 24.3531 
81.6035 62.8747 23.8099 81.1789 62.7674 23.2597 80.5177 62.8761 22.6008 
80.1547 63.1675 22.2181 79.9826 63.4603 21.994 79.8163 64.0484 21.5858 
79.7306 64.6483 21.2369 79.7408 65.1693 21.0029 79.8032 65.9947 20.7104 
79.7807 66.8629 20.5749 79.7702 67.403 20.501 79.7803 68.2091 20.5625 
79.7481 69.1411 20.4846 79.7765 69.9111 20.3351 79.7257 70.623 20.1391 
79.5732 71.5555 19.8592 79.463 72.0098 19.6898 79.3691 72.6007 19.519 
79.191 73.2757 19.3124 78.9194 74.053 18.8096 78.6846 74.4335 18.2694 
78.2957 74.7184 17.5675 77.9162 75.0185 16.7267 77.6761 75.2162 16.0941 
77.5129 75.3859 15.6395 77.3265 75.5626 15.0392 77.1216 75.7707 14.4591 
76.9555 75.9539 13.7749 76.7664 76.1295 12.8665 76.6179 76.2052 12.3773 
76.4346 76.3257 11.83 76.1577 76.3951 11.2193 75.8558 76.4241 10.6178 
75.5917 76.5393 10.1162 75.2106 76.6089 9.64649 74.889 76.6848 9.24443 
74.3243 76.8114 8.66201 73.6999 76.9594 8.16626 73.0021 77.1019 7.71259 
72.71 77.169 7.56988 72.0053 77.3434 7.33913 71.6485 77.4718 7.24336 
70.9666 77.7561 7.05948 70.2776 78.1024 6.8982 69.3578 78.4018 6.8298 
68.7666 78.6228 6.81136 68.1252 78.8969 6.84128 67.4426 79.2346 6.95773 
66.9147 79.4646 7.05465 66.3914 79.751 7.18176 65.6424 80.2575 7.26623 
64.9715 80.7406 7.24056 64.3855 81.1473 7.24998 63.6353 81.6507 7.24544 
63.0528 82.0969 7.23581 62.3265 82.5239 7.07431 61.7306 83.0111 6.81671 
61.3431 83.3027 6.62663 60.8138 83.5823 6.31676 60.4144 83.8115 5.97176 
59.902 84.1488 5.46041 59.505 84.4062 5.00438 59.1895 84.68 4.61342 
58.9208 84.9543 4.17618 58.6394 85.2127 3.78307 
LINES 2 86
OFFSETS vtktypeint64
0 86 
CONNECTIVITY vtktypeint64
85 84 83 82 81 80 79 78 77 
76 75 74 73 72 71 70 69 68 
67 66 65 64 63 62 61 60 59 
58 57 56 55 54 53 52 51 50 
49 48 47 46 45 44 43 42 41 
40 39 38 37 36 35 34 33 32 
31 30 29 28 27 26 25 24 23 
22 21 20 19 18 17 16 15 14 
13 12 11 10 9 8 7 6 5 
4 3 2 1 0 
CELL_DATA 1
FIELD FieldData 2
Length 1 1 double
60.814232067 
Tortuosity 1 1 double
0.51901075503 
POINT_DATA 86
FIELD FieldData 7
MaximumInscribedSphereRadius 1 86 double
1.4852546357 1.5016746199 1.5047916523 1.5034577901 1.4723054168 1.4655488516 1.4809860379 1.502166063 1.5058830631 
1.5415110446 1.5253103236 1.5294134045 1.5839408389 1.6489257728 1.7204177563 1.8177854375 1.8527132565 1.9048515565 
1.8764907072 1.8749590565 1.8351535234 1.7830882463 1.7979507013 1.8564244131 1.8497123332 1.8318080697 1.7696629086 
1.7639429008 1.7853469581 1.8548419749 1.9798070759 2.0811712391 2.111781099 2.1095079684 2.030727992 1.9954861063 
2.0090062851 1.9778795352 2.0136023148 2.0695645492 2.0837876774 2.0075685599 1.9210639433 1.8919946775 1.8345104214 
1.8056528447 1.7638836947 1.7397050907 1.7348810216 1.7557390591 1.7639935914 1.7436982816 1.7222881148 1.7334710934 
1.7513625974 1.7429208613 1.7458325415 1.7384688737 1.7578826503 1.7472298992 1.7541476099 1.7629908588 1.7460316742 
1.7031388901 1.6741918032 1.719037939 1.7383028061 1.7526201544 1.7529570177 1.7808168192 1.7811085387 1.7947350646 
1.7972519265 1.8016890977 1.7956021528 1.8072256232 1.8490776649 1.8444675293 1.8007833716 1.7393975269 1.6715465445 
1.6563130822 1.6466612117 1.6425986279 1.6300699622 1.603632901 
Curvature 1 86 double
0 0.34247737115 0.056451019171 0.14976895794 0.081994968502 0.15251108282 0.16469569029 0.15461427603 0.18625502106 
0.19633705311 0.078512179467 0.23185129731 0.06647427005 0.28147016892 0.16103374622 0.18645346845 0.26433997063 0.2636398719 
0.1842689634 0.097304374285 0.017719263362 0.17632094888 0.37002101153 0.52021962641 0.6246670166 0.37626125046 0.18389344396 
0.27781622052 0.13464626628 0.24044470418 0.027912643237 0.31957218193 0.19154822408 0.15080418047 0.17127675617 0.10402454808 
0.12614438666 0.18478085221 0.14371566044 0.32363268473 0.45433465979 0.32323153094 0.090283994982 0.078786377781 0.092799319966 
0.13103716117 0.098214469435 0.17596573946 0.089488650437 0.13267879181 0.11796849839 0.22918099078 0.10678824169 0.25477434832 
0.3614291567 0.057539248926 0.1411472197 0.16134463878 0.11395161629 0.21240877026 0.25211449151 0.20157664804 0.083607253717 
0.10161915932 0.23159883346 0.074575262532 0.12903019354 0.16662546029 0.073859010097 0.1646376223 0.19736746581 0.14761034727 
0.061781285711 0.029673102937 0.077265915266 0.27145184215 0.24137916169 0.094879383625 0.3003462321 0.27039835232 0.10311762452 
0.09954022095 0.16650916894 0.1962138873 0.10969517569 0 
Torsion 1 86 double
0 0 1.6455905869 0.23441491697 -0.020268225885 -0.22157684958 -0.53194175483 0.10796581566 0.54913881694 
0.22746320878 -1.6040202071 -0.3103785965 2.514004154 0.39052091541 0.25403811073 -0.37285744742 0.18269341442 0.41367424896 
0.10280815794 -1.3784283213 -6.8042710122 -1.1018955106 0.18343627323 0.36336274233 0.44977602138 0.55359017708 -0.61978767304 
-0.13701365168 -1.5479554282 -0.23185835404 2.8757610918 -0.073191386279 -0.47436536411 0.1013451469 0.72404174588 0.020120076269 
-0.21614063293 -0.38437392828 -2.1019331263 -0.16716492131 0.26356837565 0.25239191074 -1.8652757196 -0.60630706353 0.21892368512 
0.49920595323 0.48405240085 0.3015423856 1.4207932051 1.0715631416 -0.63297911124 -0.45693741411 0.83317401576 -0.8647907344 
-0.46652327475 2.2270985589 -0.17745275875 -0.069521200631 0.19209856288 0.14528247593 0.5464265537 1.0389447918 0.56805080511 
-1.585697313 -0.053170157673 1.6601704013 -0.20188981605 -0.35458700122 -0.49895210544 1.2338361674 0.74357822885 0.3565271025 
-0.054499503179 -2.4838614097 1.6866877142 -0.39252569339 -0.42773778493 2.5010169147 -0.61763577795 -0.96966342352 -0.4571447473 
-0.60093003913 0.43430183387 0.74417117368 0 0 
FrenetTangent 3 86 double
-0.86947562472 -0.08350858177 0.48686595156 -0.86947562472 -0.08350858177 0.48686595156 -0.82161429689 0.028218688258 0.56934493304 
-0.81516023882 0.057279477261 0.57639643175 -0.79068947546 0.11510919207 0.60129861741 -0.75948260154 0.18406447104 0.6239442671 
-0.7161809565 0.29135558381 0.63418984645 -0.70332553823 0.40210370092 0.58621310202 -0.64795281436 0.45570796906 0.61031745616 
-0.53395676822 0.44451113739 0.71923571825 -0.44520229905 0.40092017694 0.80066092989 -0.38826332198 0.43510922858 0.81236171255 
-0.31793362358 0.51935469953 0.79321428824 -0.22470971939 0.54971675346 0.80456014876 -0.084471100992 0.53942932008 0.83778317107 
0.0071238414598 0.52090804042 0.85358307405 0.2188538635 0.51145184715 0.83097532724 0.38509347558 0.45765141965 0.80141012793 
0.53592949346 0.32652659267 0.77856275426 0.59499654596 0.25564184955 0.76198842186 0.6294857341 0.26192937579 0.73153312479 
0.61817386158 0.21110347322 0.75716339086 0.66814591417 -0.00086854508746 0.74402975949 0.67623251808 -0.26415970262 0.68769850443 
0.53627461752 -0.58539973948 0.60804332052 0.29787555923 -0.77550013674 0.55665940137 0.1760910219 -0.83012434937 0.5290420745 
0.059657184318 -0.88561111217 0.46058004555 -0.050198866885 -0.93016539609 0.36369274077 -0.022809643072 -0.96927884102 0.24490457027 
0.023190855062 -0.98886041697 0.14702809254 0.00030602945323 -0.99995690564 0.0092786430055 0.012705916583 -0.99987444013 0.0094690898198 
0.0021771816209 -0.99119525714 0.13239041546 0.014739499319 -0.97377454802 0.2270371705 0.11796970049 -0.95386132635 0.27610092331 
0.17735961122 -0.93624117487 0.30330847463 0.18256658275 -0.9349295233 0.30426342093 0.20170341236 -0.93861071044 0.27986723225 
0.26800952502 -0.86566144335 0.42284886187 0.3090108526 -0.70665442142 0.63651537426 0.4047807207 -0.43182881656 0.80602508729 
0.42221494887 -0.3214115228 0.84760201154 0.370106384 -0.29731194394 0.8801288954 0.33153725617 -0.30200302604 0.89379931754 
0.30032887599 -0.29757621084 0.90622898044 0.30061113392 -0.29562322106 0.90677442473 0.26990152047 -0.284710414 0.91983321826 
0.21259959455 -0.21473677874 0.95325208012 0.23128550533 -0.17216381779 0.95753153205 0.30000910851 -0.17744744042 0.93728701085 
0.36510017173 -0.15068961533 0.91869173526 0.42973092814 -0.07304264573 0.89999783406 0.4534856999 -0.11550162805 0.88374775468 
0.54651737706 -0.15652170827 0.82269053198 0.62233884535 -0.12882033705 0.77207492015 0.66136819062 -0.15110106155 0.73468400393 
0.73018681241 -0.16863619642 0.66210954701 0.79964456868 -0.17568343856 0.57419847893 0.84280563417 -0.17848917298 0.50776005961 
0.91322334438 -0.22127077176 0.34214378386 0.92214573716 -0.26304889611 0.28364153026 0.90153689719 -0.35821763554 0.24271660141 
0.88561781995 -0.40737946536 0.22298665473 0.9200087473 -0.36923381293 0.13134038332 0.94411073282 -0.32513199184 0.054259672431 
0.92788920662 -0.37275585803 -0.0086423686055 0.90323919472 -0.41735966179 -0.099849235513 0.8940730653 -0.41928411341 -0.15758866122 
0.88155676444 -0.43308157131 -0.1878776827 0.84037060663 -0.52368584833 -0.13975112084 0.8199183626 -0.5714725381 -0.033956102091 
0.81614773319 -0.5777469325 0.010552705627 0.82652088074 -0.56289796695 -0.0030186933028 0.81437231266 -0.58027823948 0.0086545458818 
0.8269527665 -0.55177587445 0.10813189331 0.79591535821 -0.55033561186 0.25228843987 0.73832990168 -0.5847098743 0.33612991414 
0.77022953576 -0.47991599649 0.42003225894 0.74592118863 -0.40862690714 0.52595211864 0.66401353212 -0.41254788783 0.62361067134 
0.62507086812 -0.40881787524 0.66494688112 0.58036009613 -0.43265218427 0.68992336261 0.50702372845 -0.47567389408 0.71879154508 
0.48698334445 -0.47162020957 0.73513372944 0.48698334445 -0.47162020957 0.73513372944 
FrenetNormal 3 86 double
-0.25005943372 -0.77558468882 -0.57960216535 -0.25005943372 -0.77558468882 -0.57960216535 0.2388377945 0.9239224298 0.29887096152 
-0.23709767757 -0.94091083782 -0.241808781 -0.50707122148 -0.67349250034 -0.53785372392 -0.34685702137 -0.92600194194 -0.14903224571 
-0.40037538199 -0.91581305536 -0.031400655088 0.14082292867 -0.72948967702 0.66933826566 -0.7174965808 -0.096239612265 -0.68988157938 
-0.68383199877 0.27324092644 -0.67654504179 -0.64366902445 0.47831304542 -0.59741678713 -0.6390619122 -0.76225009451 0.10283319404 
-0.46335671547 -0.815020506 0.34791109356 -0.97377534998 -0.15684665344 -0.16480502138 -0.92285929813 0.27471415496 -0.26993119295 
-0.99368030999 0.099311638509 -0.052312904712 -0.96955015562 0.018076019968 0.24422480061 -0.87119967418 0.46678282199 0.15206881603 
-0.53206078823 0.8466324329 0.011173235708 -0.78720077731 -0.0059162799348 0.61666841482 0.044929295126 -0.95216424628 0.30226578791 
0.19939653437 0.88963891297 -0.4108328451 -0.32086179424 0.90189631071 0.28918982298 0.23213850788 0.96235134435 0.14139166594 
0.56642747869 0.78368916297 0.25493373106 0.93461676929 0.35562547572 -0.0046920751875 0.78861867746 0.44061469337 0.42888142132 
0.80214492528 0.31715841644 0.50593878851 0.54535449403 0.27954212931 0.79021811785 -0.46306534857 0.2273490931 0.85666964042 
0.32415864198 0.14655977388 0.93458087264 0.14800274153 0.0092217485225 0.98894395587 -0.28200453493 -0.012668693273 -0.95932942543 
0.54607635468 -0.109729845 -0.83051789624 -0.80657529266 -0.14577547129 -0.57287503806 -0.96038463726 -0.18028703296 -0.21250396294 
-0.71852455217 -0.33378895226 -0.61016997901 0.68579150629 0.34284487426 0.64198707316 -0.96707178793 -0.23612991533 -0.09494640637 
-0.13170439316 -0.46770592074 -0.87401666147 -0.15492190158 -0.69773203654 -0.69940632653 -0.48854579504 -0.84724415799 -0.20856735817 
0.79983466294 -0.30795476809 -0.51519741145 0.76598873235 -0.43838010548 -0.47019585816 0.38545909713 0.90806195766 0.16384372279 
0.43799512891 -0.80097402803 -0.40816770262 -0.46990147963 0.78143944996 0.41054230658 0.72364815856 -0.57021388964 -0.38883089213 
0.37573350517 -0.88258302939 -0.28261551502 -0.90256668837 -0.40535370503 0.14512665803 -0.36197040349 0.88788882755 0.28395573054 
-0.69135870071 -0.70476434955 0.15915513988 -0.52061709835 -0.83441352714 0.18086432107 -0.056007099776 0.98591450206 0.15759377969 
-0.79653816495 -0.40044581783 0.45295706062 0.24350039923 0.96928518524 -0.034551197485 -0.73131251787 0.087730866971 0.67637659346 
-0.62805373542 0.21590345534 0.7476190229 -0.59800470512 -0.14636915241 0.78801424091 -0.45305978272 0.27399952101 0.84832841268 
-0.30429587675 0.18806573622 0.93382830234 0.093612214881 0.86316953042 0.49616037224 0.35193279591 0.93337870562 0.070338460777 
0.26908845705 0.84145477442 0.46855657597 -0.3574669341 -0.65328462751 0.66741035839 0.19906373895 0.6935767014 0.69233300305 
0.20799042205 0.49822833716 0.84172947459 0.27013364508 0.37217514082 0.88798281422 -0.3618667363 -0.88347015432 0.29754487323 
0.47014575988 0.76945311243 0.43232496138 0.2352976752 0.5847598792 -0.77633168667 0.10482108593 0.20817386078 -0.9724588339 
-0.22050954837 -0.29451623489 0.9298579066 -0.36814551628 -0.53648734624 -0.75937487854 0.57640862083 0.80702823412 -0.12829080699 
-0.2404278848 -0.52084980235 -0.81909090802 0.56137433977 0.51486651823 -0.64789761464 -0.15909277124 -0.63531192855 -0.75569057396 
-0.22331912945 -0.81985237484 -0.52722921949 0.53781053354 -0.09628921462 -0.83754893419 0.74733820522 0.33950770756 -0.57115682918 
0.51560363352 -0.42332474341 -0.74494902827 0.51368617384 0.85188081987 0.10210574688 0.79540343619 -0.063053747261 -0.60279150513 
-0.83360633984 0.00022327009694 0.55235895968 -0.83360633984 0.00022327009694 0.55235895968 
FrenetBinormal 3 86 double
0.42600753236 -0.62569537895 0.65346987317 0.42600753236 -0.62569537895 0.65346987317 -0.51759680744 0.38153774302 -0.7658475668 
0.52848696894 -0.333775159 0.78057393429 0.34305820168 -0.73017650325 0.59089199044 0.55034206152 -0.32960684767 0.76712641806 
0.57165058476 -0.27640255322 0.77253947312 0.69677980025 0.5533149418 0.45644329893 -0.25564781809 -0.88491139893 0.38932763727 
-0.49725644001 -0.85308220287 0.15807209753 -0.62248301173 -0.78133196677 0.045113831687 0.6639664639 -0.47922307189 0.57401548951 
0.82717517203 -0.2569285326 0.4997689105 0.035596485516 -0.82049413055 0.57054559147 -0.37575969576 -0.7959573743 0.47461195659 
-0.11202094637 -0.84781602478 0.51832354345 0.10988849879 -0.85912179902 0.4998342248 -0.30448997155 -0.75674895123 0.57846078695 
-0.65550812022 -0.42023077927 0.62746728719 0.16215439093 -0.96675345481 0.19772129655 0.77571197555 -0.15740473374 -0.61114211178 
-0.7603302565 0.40494188241 0.50785822129 -0.67128886955 -0.43195172224 0.60231965207 -0.69915756067 0.064027662389 0.71209491207 
-0.62575510065 0.20769795586 0.75185910458 -0.19432355948 0.52166086583 0.83072756984 -0.58912862226 0.34169029336 0.73223985814 
-0.59414185108 0.33926906267 0.72930923751 -0.83670099175 0.23800952473 0.49323718081 -0.88603058815 -0.093866491467 -0.45402519604 
-0.94571843541 0.025986697249 0.32394649634 -0.98898690327 0.0010706186244 0.14799918557 0.95932893314 0.0095188333845 -0.28213009384 
0.83773257949 0.074103463771 0.541029391 0.59094758179 -0.17467868101 -0.78757114852 0.2524767282 -0.24009405622 -0.93734217119 
0.67250727597 -0.10971507564 -0.7319129497 -0.70452782256 0.091455883633 0.70375874316 0.15520273979 -0.25150069052 -0.95533214759 
0.95437144096 0.17855373755 -0.23936105674 0.93835574138 0.11751397311 -0.32508301822 0.77296544185 -0.30935612154 -0.55391625339 
0.42661346546 0.89546551794 0.12705297034 0.52562584263 0.84819130572 0.065490323393 -0.86110645812 0.29020277966 0.41746618362 
0.84732687512 0.51950842646 -0.11021869871 -0.82995514674 -0.54950823217 0.095995610154 0.63520588147 0.77058166357 0.052128571006 
0.90201205396 0.41825268928 -0.10695299164 0.36315339469 -0.89780175633 -0.24914176339 -0.88259388272 -0.42445946308 0.202144014 
0.62347815643 -0.69325309335 -0.36149016171 0.7377595586 -0.54627725344 -0.39660054974 -0.88950206563 -0.12096267415 0.4406292168 
0.25854537 -0.90285331136 -0.34352611229 -0.74390988509 0.20950310364 0.6345916265 -0.1666556859 -0.98461757255 -0.052479693026 
-0.2690273674 -0.96174192548 0.051737262756 -0.054396106802 -0.97350469986 -0.22210282061 -0.29054344992 -0.94502162812 0.15006207414 
-0.27097443175 -0.95690674803 0.1044142371 -0.37534516469 -0.43097986033 0.82059269271 -0.25174298436 0.022007214465 0.96754387618 
-0.37851351266 -0.35495891847 0.85482845468 -0.16062781802 -0.6609732119 -0.73301645086 -0.26273285292 -0.6428378856 0.71953519777 
-0.30945371959 -0.78282922426 0.53983034472 -0.33344680373 -0.82903351999 0.44890606123 -0.26398071722 -0.20900076236 -0.94161184268 
-0.042668905887 -0.46944889004 0.88192806062 0.48827476646 0.61952321663 0.61463707706 0.56280229088 0.79377753929 0.23058794309 
-0.53411461007 -0.76122839501 -0.36776747265 0.42583108453 0.62875051183 -0.65064635658 0.067459900744 0.10946503604 0.99169882912 
0.50827507728 0.65135157002 -0.56338049136 0.22666625955 0.6572999184 0.71873446004 0.65540708451 0.50447310764 -0.56209290802 
0.59739018126 0.31228627856 -0.73864893661 0.39288854699 0.90760808607 0.14793968953 0.023908914066 0.84530394342 0.53375051014 
0.58603694673 0.80849496381 -0.053819982933 -0.6319087542 0.29514599131 0.71664507965 0.33205468298 0.87735886127 0.34638290383 
-0.2606677817 -0.88180175101 -0.39303686787 -0.2606677817 -0.88180175101 -0.39303686787 
SiphonLabel 1 86 int
0 0 0 0 0 0 0 0 0 
0 0 0 0 0 0 0 0 0 
0 1 1 1 1 1 1 1 1 
1 1 1 1 1 1 1 1 1 
1 1 1 1 1 1 1 1 1 
0 0 0 0 0 0 0 0 0 
0 0 0 0 0 0 0 0 0 
0 0 0 0 0 0 0 0 0 
0 0 0 0 0 0 0 0 0 
0 0 0 0 0 
