# vtk DataFile Version 5.1
vtk output
ASCII
DATASET POLYDATA
POINTS 63 float
101.279 72.2935 30.4773 100.465 71.8769 30.2783 99.9219 71.3092 29.9495 
99.5128 70.8365 29.6471 99.0461 70.1653 29.1992 98.7617 69.6795 28.9103 
98.3666 69.1049 28.531 98.1363 68.7166 28.2662 97.8236 68.1116 27.732 
97.6261 67.7652 27.4059 97.3422 67.255 26.7727 97.1715 66.8053 26.1577 
97.177 66.2656 25.3962 97.333 65.9562 24.9565 97.7291 65.4559 24.2293 
98.0036 65.1952 23.909 98.5913 64.8981 23.3494 99.272 64.9209 22.8017 
99.9601 65.1805 22.2371 100.535 65.5799 21.7198 101.042 66.1147 21.1707 
101.431 66.7733 20.6463 101.826 67.5039 20.1371 102.154 68.2837 19.6874 
102.363 69.1326 19.3062 102.453 69.8223 18.8394 102.512 70.6194 18.2547 
102.493 71.3444 17.6768 102.423 71.9884 16.9841 102.425 72.7026 16.3501 
102.549 73.2831 15.7206 102.67 73.6968 15.1732 102.695 74.323 14.4924 
102.692 74.6367 13.9934 102.754 75.1258 13.1416 102.796 75.4406 12.4605 
102.848 75.6731 11.8145 102.99 75.9359 10.864 103.162 76.0142 10.2848 
103.422 76.0709 9.62973 103.708 76.1654 9.09718 104.024 76.2552 8.63151 
104.431 76.3165 8.14703 104.804 76.3878 7.73545 105.251 76.5631 7.29497 
105.949 76.863 6.747 106.578 77.2171 6.42162 107.281 77.6226 6.15553 
107.789 77.8927 6.00816 108.232 78.1576 5.90411 108.812 78.5326 5.77732 
109.411 79.0339 5.66412 109.921 79.4543 5.48634 110.318 79.7114 5.39368 
110.863 80.1451 5.3045 111.572 80.7415 5.25563 112.327 81.3605 5.12425 
112.814 81.8238 4.94681 113.41 82.3085 4.69397 114.075 82.9143 4.3438 
114.515 83.3715 4.0849 114.94 83.8747 3.74969 115.256 84.257 3.474 

LINES 2 63
OFFSETS vtktypeint64
0 63 
CONNECTIVITY vtktypeint64
62 61 60 59 58 57 56 55 54 
53 52 51 50 49 48 47 46 45 
44 43 42 41 40 39 38 37 36 
35 34 33 32 31 30 29 28 27 
26 25 24 23 22 21 20 19 18 
17 16 15 14 13 12 11 10 9 
8 7 6 5 4 3 2 1 0 

CELL_DATA 1
FIELD FieldData 2
Length 1 1 double
48.550393246 
Tortuosity 1 1 double
0.48585888066 
POINT_DATA 63
FIELD FieldData 7
MaximumInscribedSphereRadius 1 63 double
1.5275066334 1.5920961649 1.567847352 1.5943053399 1.7004993396 1.7454165947 1.7181155287 1.6993754141 1.6448533035 
1.6269272141 1.5917554734 1.5967342429 1.612838956 1.6186142031 1.6540498741 1.6427358823 1.5863543857 1.4734338714 
1.4150638996 1.476934482 1.6265433762 1.7982276832 1.8708122207 1.8183622398 1.8274656122 1.8265406905 1.8119624274 
1.7746006211 1.8223659206 1.841358661 1.8779780263 1.8820282669 1.8329227102 1.7804465973 1.6679306007 1.5506076903 
1.4905716058 1.5491868627 1.6470757326 1.7114153116 1.7250229783 1.7211641946 1.7420444806 1.7781341881 1.7969916475 
1.8128883902 1.8873412367 1.9693516322 1.9713273709 1.9455558355 1.8964665311 1.8790913979 1.8676347764 1.8792244703 
1.8378182364 1.7919401023 1.7344224264 1.7433199064 1.8216918968 1.9074101924 1.9119002167 1.9273457997 1.9487048775 

Curvature 1 63 double
0 0.42145059949 0.091971780119 0.13165864067 0.094646600377 0.096397034003 0.10153803585 0.20656609328 0.055193766409 
0.20510189617 0.15143659033 0.26740855532 0.37585964084 0.18356228293 0.24609513959 0.32954619729 0.45788394575 0.29043546055 
0.22166753998 0.18436576992 0.20478461994 0.063419121162 0.10796689287 0.16924339615 0.23043032898 0.0675652344 0.093262357079 
0.16944340868 0.12866471435 0.19250276618 0.12973073472 0.21837977622 0.24636707984 0.10245615229 0.1021668818 0.1244695844 
0.1198483694 0.24380365721 0.15515068138 0.2080806945 0.17153156585 0.19973494693 0.080000494035 0.25744702478 0.15146278372 
0.25895158223 0.1301514525 0.1019910691 0.1269416622 0.063524219179 0.17013743284 0.16211224828 0.22600690616 0.19782059633 
0.097333164137 0.085832954292 0.17186547801 0.12739538084 0.084115282822 0.076466468462 0.14407102623 0.057763002801 0 

Torsion 1 63 double
0 0 -0.83425387751 0.46985643344 0.66368826651 0.57369196246 -0.50339380302 -0.43261568623 -0.28433859205 
0.53743115716 0.87264835447 0.14118245254 0.0061900485771 0.31265895653 -0.59430401619 -0.67331112835 -0.16804215054 -0.2790315502 
-0.23723726748 -0.10118299244 0.16344667854 0.7554740795 -0.27363325352 -0.76899354799 -0.36035652945 0.71011839514 -0.57544401764 
-0.33257384635 0.56018892703 0.59294142892 1.2505073186 -0.40684353832 -0.80345930344 -0.85507738035 0.3047787074 -0.50106422258 
-0.43508147671 -0.15680643903 -1.258851977 -0.184733591 1.0399067847 0.06105221884 -3.2678268833 0.19538329644 0.43219768569 
0.0016491169912 0.61171770171 -0.33616563813 -0.83672800228 -0.95556280679 -0.63716368655 -1.5000179846 -1.2345419968 -0.64150179649 
0.6208640458 0.52921299833 -0.25339207926 -0.44558531047 1.098356573 -0.423268096 -0.35279415263 0 0 

FrenetTangent 3 63 double
0.77222314055 0.55993175806 0.30024631141 0.77222314055 0.55993175806 0.30024631141 0.61640377014 0.67322145714 0.40843513782 
0.53916045217 0.70423688953 0.46190519616 0.4802668746 0.73985344982 0.47112694886 0.47661782389 0.74377017857 0.4686591207 
0.47504928925 0.73139823786 0.48926965003 0.39184615199 0.71688601771 0.57665503621 0.36958611976 0.68922309025 0.62319951215 
0.35058869139 0.62374964862 0.69858710646 0.27740371933 0.58566990002 0.76160222211 0.09701037296 0.58091551128 0.80816220915 
-0.10915456904 0.57377811721 0.81170435028 -0.36236174004 0.53132836629 0.7657572308 -0.45989993054 0.52189838639 0.71841083523 
-0.63754832974 0.41246656005 0.65069460124 -0.74352746593 0.16081237195 0.64908111083 -0.76631454511 -0.15806900641 0.62271679532 
-0.70597947713 -0.36843745181 0.60485272751 -0.60673903306 -0.52382222413 0.597894659 -0.48746571841 -0.64914781736 0.58393859659 
-0.41217864094 -0.73097647713 0.54385858257 -0.37458560597 -0.78277443615 0.49694044504 -0.28201560078 -0.85461796284 0.43599924141 
-0.16814130957 -0.86332259639 0.47581781659 -0.081616712859 -0.81371616372 0.57550388104 -0.020729725282 -0.7945359201 0.60686320548 
0.047640128009 -0.73210995279 0.67951853193 0.036072883216 -0.71487194368 0.69832431666 -0.069563804446 -0.71396401557 0.69671820816 
-0.15753267517 -0.63730483642 0.75433812162 -0.090500333802 -0.64351176419 0.76006729895 -0.014054219735 -0.62299792036 0.7820972255 
-0.037161659029 -0.51056888057 0.85903342734 -0.060155577777 -0.46359658078 0.88400198911 -0.065594132676 -0.38043430269 0.92247880794 
-0.11549996788 -0.29433994406 0.94869581782 -0.19620052471 -0.21339426458 0.95706229784 -0.32839968648 -0.10266843019 0.93894240471 
-0.41518345888 -0.11487202299 0.90245615617 -0.5099600775 -0.15622897441 0.84589197118 -0.60077233449 -0.12561390125 0.78948955023 
-0.65264027494 -0.11086869301 0.74951237778 -0.67874589111 -0.20411140118 0.70543784362 -0.72211805697 -0.29977254023 0.62344361086 
-0.77250903015 -0.3806354522 0.50827792679 -0.81055923351 -0.46207733851 0.35983088 -0.83677420178 -0.46702179938 0.2858313736 
-0.8493225623 -0.47775458584 0.22450332043 -0.83274626576 -0.52080404615 0.18787443248 -0.79211543678 -0.5886919179 0.16122952772 
-0.75393855231 -0.62647156542 0.19776257748 -0.77909229315 -0.58224081867 0.2324022974 -0.79662097589 -0.58456233418 0.15388924014 
-0.77002190525 -0.63236359913 0.084749890475 -0.76604874593 -0.6358289204 0.094291584177 -0.7408579062 -0.64588546254 0.18428654888 
-0.72078989577 -0.63117754746 0.2864905404 -0.7113226094 -0.61508732534 0.34012898666 -0.66998382435 -0.64413110976 0.36907558649 
-0.60817883192 -0.67507855706 0.41759723443 -0.56725733651 -0.67788086894 0.46765012745 -0.56725733651 -0.67788086894 0.46765012745 

FrenetNormal 3 63 double
0.62976935087 -0.61207208286 -0.47828687008 0.62976935087 -0.61207208286 -0.47828687008 0.68570090481 -0.20391510659 -0.69873664456 
0.83264124108 -0.36330951044 -0.41798895114 0.68871920843 -0.65070029123 0.31977333056 -0.70155945098 0.6430571802 -0.3070696985 
0.86201476692 -0.27508192439 -0.42574696299 0.55830049118 0.3129037112 -0.76836959145 -0.58478805484 0.6937339343 -0.42042378537 
0.38910145512 0.58149149479 -0.71447022269 0.8952759422 0.13005674067 -0.42610589239 0.99320949718 -0.0041127329268 -0.11626684883 
0.9939508396 0.072962648101 0.082086420586 0.92967637836 0.2644933673 0.25640805402 0.81900875841 -0.063293580925 0.57027938439 
0.55211189639 0.83367630138 0.012501135149 0.2569095277 0.96485514844 0.055245245159 -0.14572198145 0.98676361047 0.071152520496 
-0.41228572021 0.90820482518 0.072003336264 -0.66265501805 0.74874355453 -0.016474726306 -0.70875714588 0.68476841851 0.16957452986 
-0.23436420244 0.6619005671 0.71201198016 -0.60146334691 0.61303762536 0.51227601174 -0.76603092909 0.47418793051 0.43398435713 
-0.54448288033 -0.3210405635 -0.77490086438 -0.78887611884 -0.30015221154 -0.53626776803 -0.89368793409 -0.2573932342 -0.36751952254 
-0.33824367925 -0.65192359028 -0.67866548895 0.61913348575 0.56450572469 0.5459001865 0.81894909505 -0.43967621824 -0.36879154386 
0.29698540745 -0.75908818646 -0.57929680903 -0.83641596488 0.463377478 0.29272793954 -0.18155759418 -0.76758240551 -0.61469837379 
0.86762753531 -0.44300320662 -0.2257667356 -0.083318937769 -0.88018326409 -0.46726371165 0.2252756694 -0.90624815596 -0.35772217235 
0.65918258684 -0.73718178007 -0.14846326257 0.72189394383 -0.69197504985 -0.0062979560704 0.84513535453 -0.47584138749 0.24355945162 
0.73342743077 0.5446473783 0.40674738733 0.85325729498 0.032797456916 0.52045779405 0.72110535071 -0.51145193499 0.46735852551 
0.52698876731 0.64432883463 0.55418696483 0.12657343042 0.91370800339 0.38615651134 0.48445305792 0.42418976079 0.76509364232 
0.23158182343 0.57643044051 0.78364392827 0.2639532621 0.26023546851 0.92876594272 0.44115477502 -0.26582041971 0.85715924363 
-0.18913633081 0.67247789509 0.71554240194 -0.40678686006 0.8057314792 0.43048952822 -0.53035310891 0.79457458575 0.29559568256 
-0.11555395122 -0.16987702849 -0.97866699114 0.60711669174 -0.60832057949 0.51122929804 -0.41652981676 0.71533630473 0.56106762773 
-0.14857342929 0.3069053619 0.94007182435 0.020370868341 -0.17063390451 -0.9851239 -0.44932391187 0.27265566137 -0.85074491626 
0.37847322175 -0.70463840515 -0.60020224791 -0.64278340011 0.37351031626 -0.66881951541 -0.73832924839 0.62998776514 -0.24080144671 
-0.65865822739 0.13554661147 -0.74013272838 -0.4774691923 -0.19196019264 -0.85742314807 -0.4774691923 -0.19196019264 -0.85742314807 

FrenetBinormal 3 63 double
-0.084035622824 0.55843011353 -0.82528408587 -0.084035622824 0.55843011353 -0.82528408587 -0.38711840734 0.7107682456 -0.58732260279 
-0.12654868812 0.60996442769 -0.78225879764 0.5431478446 0.17089764124 -0.82206107749 -0.52976389712 -0.18243734393 0.828291512 
-0.17680134163 0.62400845549 -0.7611535542 -0.73127091745 0.62302945767 -0.27762770063 -0.72210042999 -0.209056835 0.65944386323 
-0.85187301113 0.52230644006 -0.038837553694 -0.34860889808 0.80004750635 -0.48825794797 -0.064217460603 0.81395347176 -0.57736978061 
-0.012124707019 0.81575432833 -0.57827144775 -0.066300836061 0.80481887766 -0.5898057081 0.34309868484 0.85065621546 -0.39833063598 
-0.53731236828 0.36722630809 -0.75923662816 -0.61738513262 0.20783147876 -0.75871053403 -0.62572128147 -0.036218313918 -0.77920543611 
-0.57585889138 -0.1985392647 -0.79307546778 -0.43903994444 -0.40619375556 -0.80140536567 -0.50994164523 -0.33120888306 -0.79388928336 
-0.88044431315 0.16601514737 -0.44413599525 -0.70563975662 -0.10700024301 -0.70044520262 -0.57763640519 -0.21159854478 -0.78839218619 
0.82174624614 -0.38936750141 -0.41608419316 0.60910851357 -0.49776968049 -0.61742381221 0.44820994517 -0.54996490312 -0.70473147396 
0.93985192007 -0.19751113759 -0.27868928734 -0.78445680182 0.41266377468 0.46296450743 0.56963431851 0.54492220325 0.61528573491 
0.94179781483 0.13276923836 0.30885142922 -0.54057194089 -0.60924044698 -0.58017932959 0.98327987821 -0.1506347967 -0.10232223181 
0.49582403237 0.73693118886 0.45944635357 0.99470561528 -0.10176262527 0.014321558137 0.9720845038 0.18434755533 0.14514715398 
0.74305994013 0.60821626126 0.27916823766 0.66360717896 0.68966181439 0.28981389511 0.42178179007 0.87351826964 0.24303488261 
-0.53824427472 0.83076088717 -0.14187828971 -0.10905369287 0.98717619216 0.11657811843 0.34507923045 0.85008121142 0.39784702928 
-0.54437442139 0.75666933714 -0.36208839192 -0.72338315022 0.35139183321 -0.59434047274 -0.49381246083 0.85451709811 -0.16108936205 
-0.59126953024 0.72307994011 -0.35714946846 -0.52280245255 0.84779834522 -0.088969441047 -0.32433223661 0.84334461721 0.42846056636 
-0.49282718426 0.56526457197 -0.66151139834 -0.37557703251 0.2820636966 -0.88282612315 -0.30212367448 0.14863732193 -0.9416093839 
0.64670236098 -0.76070702173 0.05568557622 -0.15628346479 0.53939012009 0.82742599487 -0.43806156248 0.38285878414 -0.8133395471 
-0.6204773981 0.7112843154 -0.33027627999 0.64245960697 -0.75273212673 0.14366627579 0.49923700287 -0.71308545042 -0.49221088505 
0.58070642029 -0.32419071789 0.74678004249 0.28434072149 -0.69437570944 -0.66105425514 -0.077405400797 -0.43383237455 -0.89766245032 
0.44304384422 -0.7251869124 -0.52708262558 0.67100095722 -0.70966809987 -0.21477640337 0.67100095722 -0.70966809987 -0.21477640337 

SiphonLabel 1 63 int
0 0 0 0 0 0 0 0 0 
0 0 0 0 0 1 1 1 1 
1 1 1 1 1 1 1 1 1 
1 1 1 1 1 1 0 0 0 
0 0 0 0 0 0 0 0 0 
0 0 0 0 0 0 0 0 0 
0 0 0 0 0 0 0 0 0 

