# vtk DataFile Version 5.1
vtk output
ASCII
DATASET POLYDATA
POINTS 111 float
73.9669 69.3075 42.3277 74.496 69.7342 42.0297 75.0147 70.043 41.6408 
75.6974 70.2623 40.9908 76.4182 70.2764 40.3427 76.8615 70.1749 40.0067 
77.4264 70.0663 39.5262 78.194 70.0414 38.9202 78.5686 69.9596 38.5388 
79.1402 69.7968 38.1586 79.6762 69.3521 37.829 80.1781 68.9246 37.5222 
80.7293 68.2586 37.1417 81.1574 67.4962 36.6646 81.424 66.802 36.1271 
81.5342 66.3452 35.7513 81.5477 65.7847 35.3621 81.416 65.0467 34.9056 
81.2181 64.5875 34.6703 80.7612 63.8519 34.3218 80.2749 63.1997 33.9388 
79.9399 62.7747 33.5887 79.623 62.3687 33.1714 79.4306 62.1714 32.8374 
79.1163 61.7131 32.3116 78.8628 61.3825 31.905 78.4889 60.9829 31.3269 
78.0662 60.6614 30.6327 77.7843 60.5568 30.0818 77.6451 60.5107 29.2491 
77.7252 60.5286 28.2766 77.7758 60.6374 27.8088 77.9006 60.9611 26.9967 
77.9502 61.2619 26.4423 78.1698 61.8574 25.7345 78.4032 62.508 25.3788 
78.7733 63.3734 25.0569 79.2204 64.1773 24.8516 79.5303 64.6685 24.8689 
80.0393 65.3255 25.0699 80.4705 65.8447 25.3288 80.7967 66.3125 25.6048 
81.1662 66.8852 26.0203 81.555 67.6309 26.3772 81.8058 68.2721 26.712 
81.9768 69.012 27.0644 82.0267 69.7991 27.4801 81.9536 70.3335 27.7954 
81.8828 70.8625 28.0155 81.6661 71.5702 28.2521 81.5436 72.1281 28.3579 
81.2518 73.0501 28.3122 80.7154 73.8188 28.0134 80.3548 74.1405 27.7912 
79.9675 74.6206 27.2694 79.5648 74.9126 26.5111 79.1693 75.0604 25.6921 
78.8263 74.9556 24.8674 78.5888 74.747 24.186 78.5114 74.5318 23.6369 
78.3575 74.2468 22.8735 78.2226 74.0186 22.1663 78.1113 73.8194 21.2482 
78.0027 73.6934 20.6832 77.8916 73.4932 19.9568 77.8884 73.3554 19.4102 
77.9367 73.1896 18.4446 77.9472 73.1612 17.5774 77.9652 73.2059 16.7776 
77.9466 73.1816 15.8682 77.8941 73.2016 15.2278 77.7883 73.1979 14.2383 
77.7136 73.2538 13.2845 77.6405 73.4116 12.5667 77.4872 73.7079 11.6377 
77.15 74.0872 10.9424 76.6899 74.5068 10.307 76.0804 74.9769 9.76597 
75.5248 75.3541 9.41836 74.8203 75.8053 9.13282 73.9855 76.3094 8.93924 
73.2683 76.7164 8.83462 72.5485 77.1746 8.71207 71.8853 77.5723 8.66256 
71.4478 77.886 8.66162 71.003 78.2199 8.6011 70.5995 78.4867 8.60394 
70.0759 78.8087 8.65146 69.3072 79.1814 8.79239 68.5963 79.5306 8.90209 
67.9404 79.9108 8.84245 67.3935 80.1298 8.79292 66.5577 80.5958 8.85446 
65.9229 80.9678 9.00694 65.211 81.355 9.20989 64.6145 81.7257 9.24947 
64.2641 81.9834 9.17146 63.6007 82.5594 8.96069 63.2602 82.9532 8.85157 
62.7271 83.497 8.65517 62.1237 84.0203 8.39287 61.5417 84.3251 8.12856 
61.059 84.5153 7.88139 60.4395 84.9093 7.3976 59.9556 85.4888 6.78113 
59.7711 85.923 6.27859 59.7208 86.4503 5.58253 59.7339 86.8304 5.13321 
59.8882 87.4352 4.52796 60.1336 87.9382 4.01237 60.3403 88.3205 3.58451 

LINES 2 111
OFFSETS vtktypeint64
0 111 
CONNECTIVITY vtktypeint64
110 109 108 107 106 105 104 103 102 
101 100 99 98 97 96 95 94 93 
92 91 90 89 88 87 86 85 84 
83 82 81 80 79 78 77 76 75 
74 73 72 71 70 69 68 67 66 
65 64 63 62 61 60 59 58 57 
56 55 54 53 52 51 50 49 48 
47 46 45 44 43 42 41 40 39 
38 37 36 35 34 33 32 31 30 
29 28 27 26 25 24 23 22 21 
20 19 18 17 16 15 14 13 12 
11 10 9 8 7 6 5 4 3 
2 1 0 
CELL_DATA 1
FIELD FieldData 2
Length 1 1 double
85.253975175 
Tortuosity 1 1 double
0.88376741715 
POINT_DATA 111
FIELD FieldData 7
MaximumInscribedSphereRadius 1 111 double
1.2490793724 1.2625099618 1.2320415016 1.274329594 1.3538589964 1.399118656 1.5222796873 1.7822037418 1.8745224337 
1.9348728425 1.8641097709 1.8955466447 1.8813897359 1.8264325406 1.8756369004 1.8439722568 1.7417765999 1.6869847644 
1.652319656 1.6361261127 1.6336141375 1.589601305 1.5730267661 1.5773473822 1.6977297029 1.8015233462 1.9272742637 
2.0603048635 2.1000154594 2.0805852811 2.062802391 2.0734685368 2.0755408442 2.0708186994 2.0365007306 1.962461003 
1.8993693038 1.8077512582 1.7765654606 1.6944831706 1.6615773746 1.625368377 1.6437182404 1.7092133452 1.6861710556 
1.7486194618 1.9613669408 2.0387127109 2.0168012257 1.9764803026 1.9811222121 2.0114153845 2.0621151802 2.1153475527 
2.1695618989 2.1302660196 2.1501908732 2.1379250996 2.1429421306 2.1382863255 2.1717108566 2.2000601449 2.184602676 
2.1613934026 2.1434663177 2.1714046546 2.0811774162 1.9430346758 1.9478960872 2.0698775543 2.1375754839 2.1699017347 
2.1375559771 2.1334085904 2.1454205798 2.0903253086 2.0991710746 2.111853274 2.1073381968 2.1018511341 2.0980183981 
2.0907870337 2.0803845583 2.0995727897 2.0929025337 2.0348253493 1.9855181489 1.9353108424 1.9097600149 1.9559129668 
1.893776521 1.8493392167 1.8706144304 1.8818914704 1.8609418045 1.8110771476 1.8114312404 1.7837543151 1.8054024433 
1.8625429449 1.8645651828 1.8170218335 1.7453811221 1.6598573775 1.5266563518 1.4436738146 1.4153185759 1.4015272297 
1.3677169145 1.4259341324 1.5201899744 
Curvature 1 111 double
0 0.27914024255 0.29124369157 0.22516837095 0.27850327719 0.099962642603 0.14546467076 0.23585805961 0.35507863295 
0.53611056434 0.018051866998 0.19211056572 0.18908194211 0.18497399982 0.15092024367 0.28722801081 0.2303713947 0.32337539921 
0.20014536017 0.10548079225 0.17725877434 0.1636856346 0.39554463294 0.28543441691 0.061493647324 0.11533127151 0.18172881368 
0.2974458481 0.4514712912 0.2873847194 0.29076268231 0.22659447432 0.17631516641 0.32293033776 0.43381766445 0.17652923198 
0.15386667867 0.3391583763 0.32141687619 0.16905805666 0.16915271249 0.14247576132 0.19702323501 0.13209425148 0.1664766415 
0.18053716549 0.23806635251 0.23040217991 0.25904796594 0.22026850273 0.32288350911 0.41880277138 0.33271068448 0.46163450735 
0.40088682031 0.18787575908 0.31660341201 0.21264571905 0.30728522573 0.081888265619 0.056922460451 0.13583331271 0.088310574336 
0.092535636897 0.21594166745 0.1224710101 0.15459751794 0.1068710987 0.10885912085 0.10870683578 0.052064688096 0.069847628001 
0.18804043504 0.12507471209 0.33870876267 0.18339302981 0.21277531101 0.17111642397 0.18472633305 0.14464814426 0.082013085607 
0.062682161078 0.10169855577 0.15694347917 0.19880891385 0.24790122212 0.14282866445 0.17805571514 0.031672830045 0.29382816997 
0.21398689261 0.25399524674 0.16640145337 0.064921186281 0.25878112483 0.43516121981 0.14610983824 0.19919569065 0.11580131664 
0.12462966706 0.29664418218 0.18157590737 0.29987857603 0.29375867344 0.30602177175 0.28770566559 0.1317039876 0.24360073987 
0.18539387024 0.065648519763 0 
Torsion 1 111 double
0 0 -0.29243651046 -0.54140656993 -0.0063164812744 2.2475030218 -0.049947671016 -1.0994482383 0.56224222466 
0.42088628813 1.5008757687 0.39670350908 0.52806096432 0.085726904299 -1.0366823336 -0.17282531327 0.0933484745 0.058459977427 
0.50006214377 1.5545449901 0.40073245993 -0.48662184134 0.12703889433 0.54296502872 1.822721973 0.45396916117 0.30220926665 
0.86087142081 0.4006301159 -0.44295164165 -0.5340899306 -0.23511928018 0.53719864208 0.0054350121152 -0.077347477643 0.69740632228 
-0.30797802815 -0.015019855131 0.079912127431 -0.75946382084 -0.33774872956 -0.36418121316 0.072355440668 0.48184557503 0.078941546726 
0.27293380383 -0.62632290354 0.0067830250881 -0.032466007469 -0.011198248311 0.71238029432 0.23772685878 -0.79625542411 -0.014625205486 
0.60061007906 0.18329787822 -0.044616220347 -0.71261987851 -0.33450732115 0.71662406824 1.4781489342 -0.20865669623 -1.3611282935 
-2.0773687252 -0.58926062044 -1.4403157096 -0.19104268617 0.1073292283 0.35863650737 0.31394323421 -1.1057138622 -0.67211395679 
-0.28539238536 -0.96702574193 -0.14080336362 -0.17617405967 -0.015709584758 0.058197847129 0.085719554464 -0.078407941645 0.14891722872 
-0.16908701685 0.59072189605 1.3371341331 0.96177426301 0.24011733251 -0.38023588814 -0.29482676599 -2.7071749019 0.44773666428 
1.611117811 0.17519630953 -0.63732554461 -2.0043381392 -0.090028117611 -0.1859563871 -1.9700250326 -0.20157775826 0.48645748423 
0.46089887145 -0.036434891125 -1.6330844607 -0.51313840953 0.10445522734 0.28295721067 -0.12900789863 -0.99287302699 0.32217472769 
0.62478104825 0 0 
FrenetTangent 3 111 double
-0.72120955507 -0.50626407883 0.47281440351 -0.72120955507 -0.50626407883 0.47281440351 -0.71775903665 -0.31553739604 0.62069164406 
-0.72873745735 -0.12116904674 0.67398796752 -0.76244106569 0.057262034473 0.64451895298 -0.7671164678 0.15982899298 0.62127853482 
-0.77269744026 0.077439629868 0.63003314956 -0.7546199024 0.07054100535 0.65235938674 -0.76366455341 0.19740900494 0.61469190221 
-0.76439996154 0.41919369972 0.48986665626 -0.6930256752 0.58235675109 0.42494238194 -0.6319379942 0.65618853976 0.4123966195 
-0.5067226258 0.73911294763 0.44378399154 -0.36442170216 0.76411531397 0.53228245316 -0.24839227101 0.75880229977 0.6020966281 
-0.096765554925 0.79550128035 0.59817567682 0.076044628464 0.83554342354 0.54413638167 0.23186684971 0.84226367118 0.48665148948 
0.44174980251 0.80604952983 0.39387976268 0.5152914639 0.75813914399 0.39962450573 0.53319782809 0.69941814595 0.47593521959 
0.49933266963 0.63653140042 0.58778793908 0.46730168587 0.55347955392 0.68941244388 0.42428678319 0.54903116103 0.72010104141 
0.42159439981 0.58576743267 0.69219554815 0.45564898556 0.53020449057 0.71502950997 0.47831222174 0.43302319576 0.76400806963 
0.47202228918 0.28543301338 0.83410008595 0.28960640175 0.10358863016 0.95152379254 0.032703908365 0.015659271634 0.99934240458 
-0.090001647542 -0.087266282743 0.99211103176 -0.12878579702 -0.31752080295 0.93946514474 -0.11530792989 -0.41292486491 0.90343629396 
-0.17128410981 -0.57037569721 0.80332640798 -0.26653123995 -0.73310342432 0.62571596382 -0.34155796908 -0.85805104844 0.38351864626 
-0.42298572043 -0.86407057124 0.27288299367 -0.5007193152 -0.85663101219 0.12435222693 -0.57384501982 -0.80455056159 -0.15297152372 
-0.597161557 -0.74703947 -0.29211317175 -0.55927291156 -0.72884635132 -0.39496431048 -0.48650986707 -0.72763325534 -0.48358866298 
-0.44454301823 -0.77288940631 -0.45279517507 -0.38150860655 -0.82719657123 -0.41254940998 -0.26376677985 -0.8635784767 -0.42972002563 
-0.12812293145 -0.88597998652 -0.44567250074 0.015340782695 -0.87493984567 -0.48398856065 0.1199461151 -0.88674744766 -0.44642120641 
0.21312668311 -0.91652276432 -0.33847162278 0.25045781928 -0.93453401202 -0.25281823734 0.26936552096 -0.9622457918 -0.039054478318 
0.43273180586 -0.88337401662 0.17998202955 0.59602143932 -0.72451156844 0.34618121132 0.56444907078 -0.60509341131 0.56147948322 
0.4672192335 -0.4566378412 0.75709185033 0.43816183304 -0.24140782086 0.86587324251 0.40969260928 -0.023868013428 0.91191133551 
0.35303822577 0.19062041103 0.91598464509 0.23520805192 0.31647106637 0.91897945378 0.16251106905 0.35138020939 0.92202066185 
0.18230660842 0.32398879494 0.92832944652 0.14496027094 0.25161753825 0.95690915676 0.1433222835 0.21197713355 0.96670803136 
0.16275193225 0.24164688933 0.95661830916 0.086453978479 0.25566303007 0.9628925821 -0.02924611079 0.19677218447 0.98001294503 
-0.031854383982 0.10528206972 0.99393208219 -0.017072127084 -0.0098058344519 0.99980617526 0.00030797996711 -0.011917485684 0.99992893682 
0.045779146306 0.0027981882316 0.99894766625 0.09666920534 -0.0099790572452 0.99526653875 0.092455856078 -0.026760966331 0.99535710444 
0.087385605196 -0.12632036622 0.98813304827 0.13138050912 -0.2635358241 0.95566104411 0.26855855644 -0.36990613724 0.8894075283 
0.45693678859 -0.4578243756 0.7626307182 0.58704564379 -0.48831417417 0.64569859797 0.68832770809 -0.50057451507 0.52500487725 
0.77045505045 -0.50650773773 0.3871032509 0.82142002282 -0.50980324961 0.25567517049 0.85079690286 -0.49942170501 0.16347045803 
0.84896305515 -0.51112577244 0.13420944726 0.84561066015 -0.52333043266 0.1052039433 0.83925224625 -0.54238003424 0.038465122012 
0.8048747339 -0.5907903879 0.056065856779 0.81483814293 -0.57703441678 0.055408326822 0.8432421086 -0.53557841101 -0.045809518071 
0.87362032995 -0.46963533214 -0.12739769979 0.8885069112 -0.43348013463 -0.15050063665 0.88178357699 -0.4705474143 -0.032293253766 
0.89214157368 -0.44444107713 0.08096629839 0.89603846754 -0.44390819447 -0.0077832875775 0.861973608 -0.49118731196 -0.12544530153 
0.84894065063 -0.47864160265 -0.22405800125 0.85437305908 -0.49493962688 -0.15837121475 0.83275597228 -0.55260755825 0.033799071135 
0.75436516064 -0.62029049177 0.21487882686 0.70104066672 -0.67723079349 0.22338405484 0.66309621399 -0.71170344497 0.23190864022 
0.69937679758 -0.65665314532 0.28227423146 0.77028453553 -0.53812191971 0.34217909616 0.83133797079 -0.38651117207 0.39935734898 
0.76233130614 -0.40402189829 0.50558608108 0.60053174554 -0.52984028108 0.59885799581 0.40480546197 -0.61390893909 0.67767864986 
0.15105073091 -0.61855925863 0.77108243415 0.025418468577 -0.62077432828 0.7835771403 -0.11521547085 -0.67800499444 0.72597150274 
-0.2458341804 -0.68139533285 0.68939535545 -0.32991015961 -0.64596446549 0.68839610393 -0.32991015961 -0.64596446549 0.68839610393 

FrenetNormal 3 111 double
0.047937316585 -0.71738980136 -0.6950207814 0.047937316585 -0.71738980136 -0.6950207814 -0.08295811217 -0.84632231865 -0.52617153532 
0.17706155333 -0.98409258926 0.014525222547 0.21251273677 -0.9186625883 0.33301259071 -0.46541606301 0.52785540529 -0.71046221532 
0.24097659306 0.95401568132 0.17828169113 -0.49807253474 -0.70881701197 -0.49950194562 0.52653372739 -0.36052586356 0.76992424019 
-0.30687103275 -0.90475540199 0.2953774396 -0.40393949668 -0.80191075399 0.4401954403 -0.67476998481 -0.72758491025 0.12371607004 
-0.84662364962 -0.32949716235 -0.41792345699 -0.79123401043 0.047346223696 -0.60967784594 -0.93743103083 -0.031749285221 -0.34672041377 
-0.89290726467 -0.33489865725 0.30093106531 -0.952643202 -0.10025943474 0.28708705201 -0.91610831207 0.020855336489 0.40038808111 
-0.88081085011 0.30629415038 0.36104866676 -0.53196344856 0.64854219125 -0.54443357315 0.14880847071 0.47626660991 -0.86661765233 
0.3902236429 0.44048723011 -0.80851500211 0.14749323708 0.72005814424 -0.67805752995 0.20699017731 -0.83297683045 0.51313221145 
-0.60072778351 0.75223238543 -0.27068906228 -0.42692888136 0.83501105387 -0.34711420337 -0.090117789308 0.88959007062 -0.44778152074 
0.14684037315 0.90746276109 -0.39363592576 0.88563152638 0.34804643718 -0.30744182708 0.95843031102 0.2830718139 -0.03580065784 
0.11110932849 0.98905548996 0.097077056473 0.23545201762 0.910474024 0.3399991162 -0.4732022549 0.82250536379 0.3155385119 
0.60221929656 0.58470494842 0.54355500379 0.19590185844 0.59444310171 0.77991016193 0.45830768649 0.20419781637 0.86501867974 
0.69145864194 -0.11315679088 0.71349876465 0.24705452381 -0.0037453321482 0.96899434196 0.25921045762 -0.35561503827 0.89796875403 
0.01237223618 -0.37271097788 0.92786499812 -0.71203170958 0.17835428189 0.6791175117 -0.51337245425 -0.20978609709 0.83212890629 
-0.22538043149 0.58573520365 -0.77853576174 -0.88395174955 0.19595461998 0.42453632517 -0.92986868595 0.34609290998 -0.12475545897 
-0.95658624838 -0.0082154580901 0.29133358141 -0.96501916232 -0.13966001111 0.22188532547 -0.042457720521 0.44467441937 -0.8946854211 
-0.89467903008 -0.043875097865 -0.44454966981 0.45562699121 0.34419565564 -0.82093446482 -0.3594887199 -0.062845632555 -0.93103076573 
-0.61954101493 -0.43642441195 -0.65245893624 -0.55678777791 -0.68355118091 -0.47195884719 0.67477094114 -0.05357833974 -0.73607984519 
0.11020119264 -0.81954698996 -0.56231523933 0.087295811748 -0.94728199968 -0.30827950683 0.16860343226 -0.98045339839 -0.10141013865 
0.3716026968 -0.92706046257 0.049702459426 0.9059181451 -0.41392527158 -0.089320680322 -0.94963019362 0.30944694412 0.049447792047 
0.15393474553 0.92310440586 -0.35239516172 0.53032616983 0.79671287555 -0.28983227482 -0.98613809975 -0.051931788038 0.15759041089 
0.61616439979 -0.78213824315 0.092742660253 0.98445476908 0.12639927428 -0.12195093727 0.58050052697 0.8014965485 -0.14360508673 
-0.26136987058 0.95895565691 -0.10995380319 0.11726514952 0.99303122621 0.011741741185 -0.46113954867 -0.88726629338 -0.010432702987 
-0.72743837803 0.68545343177 0.031416540897 -0.57931473099 -0.8136829152 0.048109832323 0.41706668556 0.90876327001 -0.01430730149 
-0.13410369455 0.98140685922 0.1373199759 -0.52130406786 0.80159744124 0.29271763021 -0.77651632238 0.46323094413 0.42712936387 
-0.78570735821 0.19417713945 0.58733226182 -0.67564742211 0.14384250152 0.72305594234 -0.60726996437 -0.0017734411389 0.79449357787 
-0.40843946208 0.074024736067 0.9097788436 -0.31230705795 -0.026964371052 0.94959845422 -0.31347946873 -0.23268732351 0.92064500876 
0.52600123642 0.79288787208 -0.30765487415 -0.25358563697 -0.22040863125 0.94186748537 0.41273448671 0.68150301138 0.60432101482 
0.1629376435 0.12915542154 -0.9781463088 -0.30730961061 -0.34894501562 0.88532377089 -0.18901436283 -0.37521177755 0.90746332853 
-0.28378527861 -0.70439178831 0.65061365203 -0.048158697257 0.23808209358 -0.97005033714 0.11496404637 0.28083023743 -0.95284712614 
-0.44283255839 -0.89580562804 -0.037836516832 0.29475686953 0.58168046171 0.75813338426 0.18190112443 0.06869657276 0.98091424795 
-0.14079024892 -0.61346742868 0.77706873554 0.013593160994 0.32594030251 -0.9452926241 0.20049424886 0.2441051372 -0.94879646825 
0.61113629244 0.54408550103 -0.57487685606 0.64901266181 0.73571304349 0.19367210031 -0.49065531168 -0.64724072461 -0.58338392978 
-0.39323894745 -0.68328417672 -0.61521204804 -0.46642210312 -0.84133497741 -0.27314076502 -0.16097077416 -0.85522518237 -0.49262389031 
0.64528255269 0.53438936421 -0.5459289648 0.7823740779 0.54398281028 -0.30327133784 0.90348995056 0.15437653913 -0.39984221063 
0.94813896878 -0.13002832995 -0.29004332313 0.82873754753 0.45143499386 0.33075749972 0.87841265117 0.27169843423 0.39315540833 
0.96646946362 -0.2267338526 0.12053437676 0.36724772881 -0.75960252333 -0.53678032028 0.36724772881 -0.75960252333 -0.53678032028 

FrenetBinormal 3 111 double
0.69105628667 -0.47859017477 0.54165732088 0.69105628667 -0.47859017477 0.54165732088 0.6913319875 -0.42915578133 0.58127910543 
0.66150655672 0.1299224302 0.73859951093 0.611164428 0.39087096115 0.68825717117 -0.44149769323 -0.83416027483 -0.33053959335 
-0.58725543626 0.28958104827 -0.7558266131 0.42716806182 -0.70185640277 0.57002196173 0.373602307 0.9116198695 0.17137832339 
0.56702986522 0.075460616754 0.82023339804 0.59711665236 0.13341573036 0.79098163466 0.38123462473 -0.20009197553 0.90256487979 
-0.16266707227 -0.58748929407 0.79271416851 -0.49106574277 -0.64333981849 0.58734003288 -0.24397610977 -0.65054673372 0.71921109913 
0.43971927871 -0.50499564586 0.74271552669 0.29442850434 -0.54019925316 0.78835057095 0.32708305452 -0.53866219763 0.7764404113 
0.17038004082 -0.50642674584 0.84528255204 -0.67192975573 0.067956342706 0.73749056865 -0.83280016521 0.53290184219 0.14986497731 
-0.77355826773 0.63308670528 -0.028439937346 -0.87170802417 0.4185410999 0.25484989366 0.88155305689 -0.068661373105 -0.46706511723 
-0.67925274543 -0.30170010465 0.66902373253 -0.78109905403 -0.1471045142 0.60683154968 -0.87355377773 0.14532865579 0.46452489623 
-0.86927145549 0.30828449864 0.38642955964 -0.36302194361 0.93173659007 0.0090551196705 -0.28344627939 0.95897087307 -0.0057507659202 
-0.98972441647 0.11896988555 -0.079320525531 -0.96331540312 0.26498602098 -0.042495209161 -0.87337489502 -0.39112399885 -0.290238368 
-0.7797394902 0.57688099928 0.24334058456 -0.9437073487 0.33044934268 -0.01482133372 -0.82054385517 0.47122356696 0.32350599945 
-0.5856347213 0.49048709321 0.64533277044 -0.82960486357 0.51591596355 0.21350992694 -0.77686023961 0.47564307879 0.41261583793 
-0.80202556232 0.55047121381 0.23181121662 -0.42452874455 0.66103914127 -0.61871043207 -0.70693484315 0.65310002235 -0.27148386388 
0.86694011676 -0.24404146539 -0.43457864319 -0.27033402969 0.52663803456 -0.80596023037 0.25645918336 0.36667684988 -0.89430239574 
-0.26177712628 0.46365069797 -0.84646368288 -0.26173016019 0.46365434081 -0.84647621083 0.99187210438 0.12626806732 0.015687693783 
0.39258941667 0.39756885978 -0.82934465191 0.85421011797 0.090418643031 0.5120054134 0.89342603297 0.26482723165 -0.36284495448 
0.65491382259 0.17083348447 -0.73614115872 0.57857222043 0.088548124001 -0.81081034496 0.47548020304 0.79434962397 0.37805720655 
0.87724676402 0.34615691995 -0.33258608176 0.89464722059 0.21066342138 -0.3939889257 0.89650702648 0.1952983654 -0.39766028207 
0.85864745203 0.32283549625 -0.39812283969 0.35212140903 0.85352910536 -0.38405543819 -0.2679415007 -0.88361447319 0.38396980998 
-0.97111708596 0.20714612387 0.11841490075 -0.83530872942 0.54948813307 -0.017947651019 0.083608440155 -0.97589383861 0.20159574523 
0.77061873906 0.57434009913 -0.27618872088 -0.15288726973 0.95846733826 -0.24076096909 -0.81373447954 0.56469814075 -0.13766701363 
-0.96471295678 -0.26328641036 -0.0030293807781 -0.99295388976 0.11744287713 -0.015803272649 0.887327573 -0.46110356556 -0.0057688842134 
-0.68464419659 -0.7281110925 0.033414982448 0.80935128788 -0.58122330642 -0.084439095675 -0.90416109984 0.4164530823 0.095181593631 
-0.98710686104 -0.14451208168 0.068820804529 -0.84319702956 -0.53664738108 -0.032068017192 -0.56999886214 -0.80534870834 -0.16283351966 
-0.41698047736 -0.86757828443 -0.27098930215 -0.44595736692 -0.86073143434 -0.24548609905 -0.39677217222 -0.86569163665 -0.30520457661 
-0.48946523988 -0.85905194841 -0.14984501617 -0.47721425761 -0.85986834422 -0.1813642273 -0.42175259664 -0.83452655442 -0.35452810494 
0.050837292147 0.33178195709 0.94198529855 -0.46972006148 -0.82313139505 -0.31908896929 -0.3539857492 -0.49130188676 0.79581187817 
0.57063822783 0.79642048859 0.20021592915 -0.49152782632 -0.7384230887 -0.46166193045 -0.50320603825 -0.75655263376 -0.41762638258 
-0.39528905215 -0.53223572162 -0.74864658009 0.45632905741 0.86914434336 0.19066174701 0.45742867355 0.83649238409 0.30172752605 
0.089346168075 -0.0020989833898 -0.99599842195 -0.33201423546 -0.68161085331 0.65205305927 -0.47319497043 -0.86834083485 0.14856215703 
-0.50938971085 -0.62814005617 -0.58818550842 0.51948234031 0.80547978555 0.28520240737 0.5160615727 0.79689244479 0.31407464817 
0.23967819358 0.56498732143 0.78952117777 -0.29550727303 0.0092070617143 0.95529612247 0.56529706891 0.27305246899 -0.77838394964 
0.59685444224 0.31926381032 -0.73609469106 0.43487027495 0.050796213641 -0.89905927983 0.53194509885 0.3452520837 -0.77319817027 
-0.049612567729 0.7424246178 0.66809002388 -0.16508308464 0.65065503815 0.74121224794 0.14084902272 0.77413416064 0.61715302326 
0.2796715441 0.77490455991 0.56683926333 -0.55905990624 0.64097244844 0.5259337806 -0.46380665103 0.68300013788 0.56426430165 
0.074177703135 0.69591102912 0.71428671268 0.86964843027 0.075722624552 0.48782957256 0.86964843027 0.075722624552 0.48782957256 

SiphonLabel 1 111 int
0 0 0 0 0 0 0 0 0 
0 0 0 0 0 0 0 0 0 
0 0 0 0 0 0 1 1 1 
1 1 1 1 1 1 1 1 1 
1 1 1 1 1 1 1 1 1 
1 1 1 1 1 1 1 1 1 
1 0 0 0 0 0 0 0 0 
0 0 0 0 0 0 0 0 0 
0 0 0 0 0 0 0 0 0 
0 0 0 0 0 0 0 0 0 
0 0 0 0 0 0 0 0 0 
0 0 0 0 0 0 0 0 0 
0 0 0 
