# vtk DataFile Version 5.1
vtk output
ASCII
DATASET POLYDATA
POINTS 71 float
79.9153 69.1314 25.5901 80.3786 69.7474 25.1125 80.9585 70.2467 24.8355 
81.3189 70.4802 24.6347 81.8729 70.8175 24.4117 82.4951 71.0737 24.1911 
82.9884 71.199 24.0791 83.9029 71.1334 24.1661 84.697 70.8301 24.0889 
85.2896 70.1345 23.7007 85.6437 69.5733 23.4136 85.7855 68.7991 23.0915 
85.8187 68.4063 22.9506 85.7919 67.7491 22.5958 85.6348 66.9379 22.114 
85.4192 66.2729 21.5954 85.0837 65.7696 21.1944 84.7551 65.4179 20.8807 
84.311 65.0586 20.4228 83.8707 64.7967 19.9777 83.3466 64.6208 19.5521 
82.5934 64.6574 18.9807 82.0333 64.8613 18.5424 81.5875 65.2549 18.0975 
81.2185 65.6735 17.6247 80.8492 66.3501 17.2414 80.6449 67.0872 17.0199 
80.5012 67.946 16.7779 80.4843 68.5955 16.6644 80.523 69.1416 16.592 
80.5988 70.0219 16.4102 80.645 70.7931 16.2568 80.7426 71.5664 16.0948 
80.8097 72.4809 15.8069 80.8029 72.9598 15.5328 80.7906 73.5819 14.9513 
80.8364 74.0919 14.1871 80.8498 74.2848 13.5962 80.8291 74.5667 12.6767 
80.7605 74.7562 12.1396 80.6503 75.0572 11.2763 80.4716 75.2636 10.692 
80.1059 75.6306 9.88533 79.7131 75.9154 9.17634 79.319 76.1479 8.42819 
78.7248 76.3976 7.71597 78.1817 76.7027 7.20455 77.4623 77.1124 6.73423 
76.879 77.4195 6.47761 76.1109 77.9538 6.17137 75.4639 78.4536 6.0358 
75.1475 78.6818 5.95756 74.4257 79.1608 5.85106 73.8487 79.6408 5.7935 
73.1769 80.3552 5.71494 72.7488 80.8393 5.67239 72.42 81.1654 5.66543 
71.8988 81.6886 5.6352 71.2529 82.2929 5.65927 70.6765 82.7576 5.65388 
69.9058 83.3623 5.73229 69.5212 83.694 5.75446 68.8556 84.1463 5.7457 
68.1413 84.5885 5.63499 67.357 85.1042 5.49799 66.833 85.4333 5.32984 
66.4235 85.7006 5.17491 65.8558 86.1754 4.9118 65.5129 86.5129 4.69115 
64.9897 86.9482 4.31428 64.4336 87.341 3.84345 
LINES 2 71
OFFSETS vtktypeint64
0 71 
CONNECTIVITY vtktypeint64
70 69 68 67 66 65 64 63 62 
61 60 59 58 57 56 55 54 53 
52 51 50 49 48 47 46 45 44 
43 42 41 40 39 38 37 36 35 
34 33 32 31 30 29 28 27 26 
25 24 23 22 21 20 19 18 17 
16 15 14 13 12 11 10 9 8 
7 6 5 4 3 2 1 0 
CELL_DATA 1
FIELD FieldData 2
Length 1 1 double
53.861478697 
Tortuosity 1 1 double
0.66681982193 
POINT_DATA 71
FIELD FieldData 7
MaximumInscribedSphereRadius 1 71 double
1.1704419904 1.2411189975 1.2025525623 1.2032664925 1.1901309657 1.2266809554 1.2742654274 1.2422914083 1.2311732344 
1.1384561122 1.2031663464 1.2364612107 1.2446715701 1.2837863085 1.2589723156 1.277601099 1.3044234571 1.3258407466 
1.3436434506 1.3777350938 1.4271123491 1.5594008019 1.6753363549 1.7432639818 1.8327438887 1.9193160401 1.9061746585 
1.9040152143 1.90627605 1.9239402132 1.9354874392 1.9261497748 1.8457450647 1.8284742707 1.8129509645 1.7482043467 
1.6324474675 1.5017951275 1.3671129896 1.3263591319 1.3661275835 1.3831825601 1.4145605705 1.3747681997 1.3994108836 
1.4558606526 1.5237282598 1.5408113491 1.5806194017 1.6366196809 1.6707377171 1.6688003564 1.676816422 1.7292180505 
1.8190534127 1.8589969471 1.8767229514 1.8936781299 1.8926845242 1.9444799459 1.8989498258 1.8543049856 1.8275252766 
1.9169070321 1.9920739918 1.9749642794 1.9570012031 1.9499798901 1.9646229284 1.9764241929 1.9746827904 
Curvature 1 71 double
0 0.3348519668 0.24077419153 0.18887628064 0.21449486296 0.27729509505 0.64021658562 0.40031546545 0.66639840189 
0.15362882445 0.45913594547 0.15954387157 0.32705252042 0.15945024088 0.16522016691 0.29211404475 0.21124358154 0.22934737644 
0.16655389767 0.25572140131 0.36571868405 0.28943072512 0.41223121345 0.15636121007 0.38946025981 0.34198775378 0.11912293117 
0.21626263173 0.172366643 0.10044886242 0.031327097937 0.082134326812 0.12712848158 0.30686859605 0.33371972803 0.273472515 
0.36091771078 0.059205521434 0.13948992526 0.0049369576675 0.20642309446 0.17266859819 0.10242704744 0.083386547096 0.22292836359 
0.19270502972 0.19554877855 0.1796826831 0.15211332943 0.17691308642 0.075953525317 0.13367922591 0.14410162576 0.14090361645 
0.041335223589 0.14956128876 0.044291920241 0.094499567343 0.10025426737 0.10247039656 0.078763481499 0.19396878248 0.15478427199 
0.033918114482 0.15408837472 0.077688478837 0.18097315298 0.17697837513 0.16303858072 0.1497213934 0 
Torsion 1 71 double
0 0 0.47997917585 -0.099262314638 0.16838480727 -0.48437675398 0.39813424184 0.90896168157 -0.035174360045 
-0.91556865633 -0.071842486493 0.91487544772 0.17573240541 -0.32267257604 -0.45370591667 -0.15547863715 0.93758482328 0.37836681207 
-0.86109183161 0.22908113727 0.29112073681 0.36339397399 0.30173705574 -0.514690313 -0.08075927639 0.34383594282 0.49586908159 
-0.046298717405 0.71151420832 1.3427957943 1.8776930753 0.94937874243 0.15998588988 -0.28905840743 -0.38978308074 0.073893094599 
0.27240602274 4.3424125929 0.17677228674 10.319934438 0.31790184509 0.088813279287 -1.2434251537 0.79998637689 0.57043666772 
0.26744789213 -0.36226625316 0.3454071631 0.1913634292 -0.44464404725 0.52297598769 1.2680201075 0.82736429622 0.17648492755 
-2.8817345526 -0.38887097006 -1.3325070692 -0.58331260578 0.022893417656 0.85128683347 2.0701395133 -0.15266312243 -0.67029622554 
-0.1029571011 -0.035746350834 -2.4278701323 0.17273598107 1.1365684604 0.6706608839 0 0 
FrenetTangent 3 71 double
-0.61241601149 -0.65473731573 0.44301882156 -0.61241601149 -0.65473731573 0.44301882156 -0.73214129865 -0.57059830829 0.37200361474 
-0.78946691109 -0.49283470656 0.36586329183 -0.84611468795 -0.42692108185 0.31910550717 -0.91063762309 -0.31145361268 0.27154330513 
-0.99894516836 -0.042340939528 0.017770634702 -0.97745432926 0.21107311688 -0.0055833271596 -0.78290993757 0.56392791578 0.26274956795 
-0.55291288676 0.73399250329 0.39438857078 -0.32008862435 0.86193503375 0.39320639637 -0.13805989117 0.92060591188 0.36527280417 
-0.0054663832028 0.90426592904 0.4269347119 0.1081980187 0.86380246586 0.4920756941 0.20455909451 0.81033795545 0.54909741832 
0.34754214935 0.73678473767 0.57996784805 0.51196876231 0.65902437034 0.55097628417 0.59302143201 0.54561320825 0.5921417129 
0.62796130946 0.44107786548 0.64118243145 0.70337591588 0.3193207239 0.6350563725 0.78540386301 0.085701233869 0.61302207993 
0.78452944545 -0.14368873167 0.60321397332 0.68615510981 -0.40763570495 0.60251497685 0.55368283666 -0.55188907017 0.62358140657 
0.46908854748 -0.69579512896 0.54389803561 0.34950069038 -0.86143442884 0.36848336764 0.20497473721 -0.93993150787 0.27297274153 
0.10309406784 -0.96813219326 0.22823599532 -0.018068595933 -0.98796636427 0.1536098594 -0.078790853375 -0.98143692697 0.17485296626 
-0.07220235474 -0.97746364794 0.19837247016 -0.090814370933 -0.97572672118 0.19927397125 -0.093837031595 -0.96199590531 0.25643418196 
-0.040087890471 -0.92665891052 0.37375958127 0.013693428145 -0.7895194098 0.6135728087 -0.019037643299 -0.64363196648 0.76509833346 
-0.03880410847 -0.46009087529 0.8870234651 0.0045538095808 -0.29986715619 0.95397009988 0.058259313273 -0.30736141031 0.94980777838 
0.11968309331 -0.32818538646 0.93700069866 0.185086994 -0.32510091349 0.92738999385 0.34025557491 -0.35841798816 0.86934612756 
0.41770169078 -0.35891295611 0.8346896354 0.45355828415 -0.29814179318 0.83987877342 0.54062556963 -0.26378147438 0.79883873669 
0.64606181334 -0.31520961319 0.69515971768 0.72068557791 -0.40807041162 0.56043807592 0.78711446599 -0.43306599455 0.43920913218 
0.80038169256 -0.49826910804 0.33334222983 0.78291287601 -0.57210071626 0.2444344473 0.78557673903 -0.59369452064 0.17434449593 
0.81766468716 -0.55700346016 0.1455046554 0.80036161187 -0.59093182321 0.10109832124 0.72044347772 -0.68905344611 0.078527344379 
0.67424416388 -0.73476650745 0.074249491606 0.68199375669 -0.72999660321 0.044603532812 0.70711421159 -0.70642245563 0.030932280266 
0.71919218409 -0.69480083507 0.0037949869001 0.75268116901 -0.65828476658 -0.011498864969 0.78249205069 -0.62121438654 -0.042413164946 
0.7750833294 -0.62824520948 -0.067481769837 0.80130350834 -0.59817048739 -0.010235015328 0.83690513118 -0.54253122655 0.07245460387 
0.83451484571 -0.5334368959 0.13794944863 0.82441990581 -0.532314162 0.1922848196 0.80901230268 -0.51682691418 0.27998041877 
0.7538550653 -0.57245525093 0.32248647446 0.6937051556 -0.61883158989 0.3685384925 0.66337088048 -0.59199153791 0.45769541615 
0.67334313725 -0.51662274934 0.52887612386 0.67334313725 -0.51662274934 0.52887612386 
FrenetNormal 3 71 double
0.71888670021 -0.22811905327 0.65663049715 0.71888670021 -0.22811905327 0.65663049715 0.32404793408 -0.77215047928 -0.54660458631 
0.42716585873 -0.01311658109 0.90407814067 0.47598689463 -0.87463277522 0.091945552623 0.41285704253 -0.71281133986 0.5669647751 
0.042595151813 -0.70987525512 0.70303824591 -0.17519025963 -0.82547819109 -0.53655766603 -0.60639339087 -0.59730030449 -0.52489942061 
-0.81061360278 -0.58338118607 -0.050714679634 -0.92691646502 -0.37073823436 0.058129411362 -0.86402351745 -0.29223387809 0.40995453624 
-0.60911833531 0.33558417702 -0.71858062437 -0.94829197113 0.23824770266 -0.20971497243 -0.55629314445 0.55780463934 -0.61594798625 
-0.93683378602 0.29887291113 0.18170701791 -0.80618411764 0.59007704336 0.043315717272 -0.22710433242 0.81889214272 -0.52710462035 
-0.36108155752 0.89496599815 -0.26202284438 -0.58601946337 0.76614304629 0.26382953053 -0.13483950502 0.99027308849 0.034314983529 
0.15108343767 0.98775953261 0.038793048413 0.52474423334 0.85097941585 -0.021852308206 0.83272468502 0.36894494066 -0.41285497419 
0.25524474135 0.69639107472 0.67073809573 0.6187727883 0.50753378256 0.59960795193 0.96535108423 0.24016244479 0.10207489549 
0.79409182255 0.21828854206 0.5672462338 0.91831606833 0.044364242252 0.39335405509 0.19035969485 -0.18698290331 -0.96374300539 
-0.95958721505 0.12231625456 0.25343857359 0.98372491897 -0.11904551424 -0.13458621528 -0.47438982877 -0.18324665501 -0.86103133148 
-0.35673941084 -0.33613414472 -0.87163686791 -0.0089372815625 -0.61370247145 -0.7894867963 0.26889367656 -0.74033883554 -0.61611248916 
-0.10176658643 -0.88125682555 -0.46155169732 -0.92223550417 -0.37007356221 -0.11192512409 -0.91967335504 0.35357872175 0.17083034732 
-0.0080852811193 -0.94407537723 -0.32963056645 -0.98240347562 -0.037179511198 0.18303304357 -0.75303459832 0.44983722045 0.48019305372 
-0.81610659292 -0.5520102151 0.17104020412 0.10759385292 -0.91717497886 -0.38368427251 -0.83196761501 -0.026870759591 0.55417312264 
-0.33140519156 0.70458344641 0.62748128742 -0.47410177838 0.29970973009 0.82788983653 -0.47416068966 0.030582983247 0.87990699595 
0.35467340193 0.84186144921 0.40678751 -0.0083486427006 0.3832017268 0.92362694674 -0.31702292543 -0.62815313943 -0.71057729922 
-0.3625588179 -0.30189941474 0.88170734767 0.5145176224 0.76360531028 0.39010068746 0.69248362581 0.72091596303 -0.027324022909 
0.64716627062 0.6362904788 0.41989313493 -0.59681591241 -0.52024631706 0.61086376245 0.18526756076 0.14287703026 -0.97224589747 
-0.32069443951 -0.32709737542 0.88891078487 -0.5998532625 -0.67846250788 -0.42410457304 -0.059655709041 -0.14259736548 0.98798137014 
0.46298767498 0.63736310391 -0.61596321854 -0.54370382183 -0.72098971939 -0.42960444442 -0.12371006228 -0.31643890608 -0.9405116901 
0.5322749376 0.71580815493 -0.45199787182 0.068288497426 -0.24370232023 -0.96744294934 0.42206228035 0.17925519268 -0.88866810869 
0.65348706272 0.70423233344 -0.27750942218 0.63965392723 0.29411321097 -0.71016918583 -0.22640125766 -0.74177205516 -0.63128178233 
0.0071340757424 -0.71077156938 -0.70338672231 0.0071340757424 -0.71077156938 -0.70338672231 
FrenetBinormal 3 71 double
-0.32885945498 0.72061136885 0.61038570916 -0.32885945498 0.72061136885 0.61038570916 0.59913442167 -0.27964478884 0.75022445764 
-0.44076220963 0.87002408433 0.2208772674 0.23984664053 0.22968652199 0.94324847768 0.016975919688 0.62840802104 0.77769864166 
-0.017152366013 0.7030536018 0.71092997499 -0.11786181376 -0.52348246902 0.84384518573 -0.13906503932 -0.57027857408 0.80959450516 
0.19285467754 -0.34773754018 0.91754328318 0.19588042127 -0.34586291963 0.91761086599 0.48415165779 -0.25900601443 0.83577093557 
-0.79306050983 -0.26398179805 0.54897052566 -0.29838821397 -0.44394068539 0.84491487241 -0.80541511923 -0.17946136711 0.56488946125 
-0.039457721582 -0.60648432241 0.79411576919 -0.29657234342 -0.46636462366 0.83339599406 -0.77249543906 0.17810638837 0.60953171456 
-0.68940895166 -0.066978942536 0.72126910278 -0.40229778712 -0.55772673229 0.72601472614 -0.60411843198 -0.10961071445 0.78932022109 
-0.60140447627 0.060701351978 0.79663542589 -0.50382006198 0.33116033254 0.79780836001 -0.002217057224 0.74786234361 0.66385013344 
-0.84546203737 -0.17580844564 0.50426712544 -0.70354069099 0.018444087681 0.71041559087 -0.16150121141 0.24259175712 0.95659113423 
-0.59899064311 0.12276061579 0.79129011157 -0.3954353607 0.14816975762 0.90646378771 0.97854748888 -0.042649176527 0.20155857645 
-0.27199117023 -0.17205682439 -0.94679314134 0.15504203894 0.18380840874 0.97065773321 0.8752993213 -0.20244639192 -0.43916575064 
0.93334342757 -0.16827685611 -0.31710084502 0.99986629857 0.0053271077661 -0.01545984796 0.96298170224 0.19400077401 0.18716287249 
0.99405120746 -0.10817945225 -0.012625492376 0.38660178177 -0.87927541032 -0.2782333825 -0.38833847666 -0.8834653649 -0.26207284591 
0.99277922289 0.031875291784 -0.11564333257 -0.025024303002 -0.94494818905 -0.32626171131 -0.56317407387 -0.81803607553 -0.11684152369 
0.3993686599 -0.75263949695 -0.52348682994 0.88470811327 0.26438897351 -0.38391408543 -0.1247151997 -0.96420811864 -0.23398466383 
-0.68758616358 -0.63577123779 0.3507423568 -0.50580609084 -0.86235295375 0.022529572179 -0.39449012384 -0.90084323026 -0.18127056212 
-0.48331762246 -0.20735765311 0.85053329125 -0.62207534008 -0.7251601251 0.29523730155 0.5313808915 0.50294179542 -0.68167726863 
-0.44718627319 -0.77369495846 -0.44879900659 -0.30772212544 -0.26020474714 0.91520521364 -0.03778390395 0.074064314251 0.99653743229 
-0.35576765682 -0.2350587291 0.90453124227 -0.42272364794 -0.44322537031 -0.79047832898 0.68239682202 0.69321963937 0.23190754382 
-0.61637462538 -0.64051472003 -0.45806464021 0.2713800311 0.32611315748 -0.90554021845 -0.61979624634 -0.77055738094 -0.14864028963 
0.42998633154 0.44617959449 0.78487930546 0.24959735908 0.34980836546 -0.90295917172 0.5331844164 0.77815569582 -0.33194591603 
0.1423670014 0.45062596843 0.88128762245 0.56184383954 0.81071006658 -0.16456210961 0.40909965243 0.83711260692 0.36315280215 
-0.068243676506 0.41994262254 0.90498121218 0.33108308696 0.72838511963 0.59986590754 0.71321914266 0.31515113394 -0.62609761006 
0.73929569489 0.47739366462 -0.47490753257 0.73929569489 0.47739366462 -0.47490753257 
SiphonLabel 1 71 int
0 0 0 0 0 0 0 0 0 
0 0 0 0 0 0 0 1 1 
1 1 1 1 1 1 1 1 1 
1 1 1 1 1 1 1 1 1 
1 1 0 0 0 0 0 0 0 
0 0 0 0 0 0 0 0 0 
0 0 0 0 0 0 0 0 0 
0 0 0 0 0 0 0 0 
