# vtk DataFile Version 5.1
vtk output
ASCII
DATASET POLYDATA
POINTS 102 float
86.2141 84.5608 39.8834 86.7528 84.2703 39.7848 87.5145 83.9437 39.5381 
88.2749 83.5189 39.2875 88.9173 83.0579 39.0795 89.4363 82.6351 38.7397 
89.8516 82.2402 38.3411 90.186 81.8772 38.0014 90.4636 81.5517 37.7521 
90.8395 81.0824 37.3195 91.2812 80.5063 36.6559 91.5309 80.1011 36.0615 
91.6905 79.544 35.2873 91.5975 79.1152 34.6758 91.3826 78.6239 33.8689 
91.0089 78.3534 32.9923 90.459 78.1399 32.2091 89.9276 78.0292 31.5501 
89.3304 77.8787 30.8506 88.8263 77.8497 30.1388 88.2629 78.1104 29.4023 
87.7616 78.4683 29.0103 87.2097 79.1048 28.7257 86.804 79.6694 28.686 
86.435 80.5689 28.7579 86.1861 81.4019 28.8694 85.899 82.1828 28.9638 
85.7324 83.0484 29.0688 85.7386 83.6135 29.1297 85.7959 84.1808 29.2504 
85.7675 84.9503 29.3156 85.653 85.8178 29.3204 85.6021 86.7045 29.2749 
85.6709 87.5022 29.2537 85.7369 88.4522 29.2372 85.719 88.9588 29.1436 
85.7004 89.7822 28.8262 85.7468 90.5017 28.3821 85.831 91.0514 27.9674 
85.8249 91.6276 27.434 85.8268 91.9884 26.9634 85.841 92.4877 26.3744 
85.8508 93.0603 25.7601 85.8219 93.7344 25.0862 85.7997 94.2565 24.5457 
85.7076 94.8412 23.9192 85.6802 95.3398 23.3019 85.5985 95.8401 22.6738 
85.5257 96.1734 22.25 85.4469 96.7248 21.627 85.278 97.3286 20.8638 
84.9677 97.8218 20.2327 84.7155 98.3014 19.7492 84.2781 98.7888 19.0969 
83.7139 99.3283 18.4825 83.0538 99.7958 18.0139 82.3678 100.227 17.6595 
81.7215 100.547 17.4829 80.9243 100.869 17.3745 80.106 101.14 17.4637 
79.579 101.308 17.5705 78.771 101.625 17.8645 78.3538 101.803 18.0988 
77.6608 102.083 18.4643 76.9717 102.428 18.8608 76.3118 102.862 19.2205 
75.9826 103.067 19.407 75.4069 103.617 19.6907 74.9448 104.084 19.9399 
74.3185 104.683 20.2939 73.7969 105.444 20.5634 73.4154 106.057 20.689 
73.0314 106.558 20.7067 72.4923 107.335 20.632 72.2052 107.781 20.5126 
71.9032 108.335 20.3384 71.6786 108.861 20.1509 71.313 109.644 19.7508 
71.1138 110.404 19.2238 70.977 111.16 18.615 70.9092 111.591 18.2008 
70.8109 112.074 17.398 70.7412 112.539 16.6281 70.687 113.028 15.8446 
70.6734 113.312 15.1722 70.734 113.433 14.3629 70.884 113.576 13.4382 
70.9787 113.601 12.9101 71.0813 113.601 12.3239 71.2762 113.728 11.4875 
71.4035 113.821 10.9436 71.5265 113.89 10.494 71.8368 114.001 9.67141 
72.0714 114.006 8.99005 72.3159 114.012 8.39931 72.531 114.024 7.81951 
72.8123 114.026 7.19963 73.0931 114.006 6.43537 73.1965 113.973 6.02856 
73.4205 113.803 5.22547 73.6307 113.528 4.33356 73.6502 113.516 4.2806 

LINES 2 102
OFFSETS vtktypeint64
0 102 
CONNECTIVITY vtktypeint64
101 100 99 98 97 96 95 94 93 
92 91 90 89 88 87 86 85 84 
83 82 81 80 79 78 77 76 75 
74 73 72 71 70 69 68 67 66 
65 64 63 62 61 60 59 58 57 
56 55 54 53 52 51 50 49 48 
47 46 45 44 43 42 41 40 39 
38 37 36 35 34 33 32 31 30 
29 28 27 26 25 24 23 22 21 
20 19 18 17 16 15 14 13 12 
11 10 9 8 7 6 5 4 3 
2 1 0 
CELL_DATA 1
FIELD FieldData 2
Length 1 1 double
79.092595023 
Tortuosity 1 1 double
0.66231403666 
POINT_DATA 102
FIELD FieldData 7
MaximumInscribedSphereRadius 1 102 double
1.4228065987 1.3582968451 1.3334291222 1.3374725654 1.3322343551 1.3091803072 1.3025589469 1.3294344174 1.3508304372 
1.3867953247 1.4039424487 1.3599127835 1.3862408014 1.475510823 1.6201227478 1.6838101762 1.725190694 1.7639112602 
1.785426885 1.7443870455 1.7358222782 1.7423682881 1.750602506 1.7219297659 1.6838843584 1.6670859657 1.750767641 
1.8844471193 1.9346573032 1.9711757063 2.007450885 2.0991476313 2.2388273851 2.2991505464 2.2717587367 2.2009980904 
2.1094354238 2.1151774285 2.1874424219 2.2163026716 2.1974871813 2.1724395883 2.164389384 2.1548325231 2.1165153747 
2.1210115711 2.1681362962 2.1418902432 2.0770592726 2.097331754 2.1281667096 2.0945698843 2.075456255 2.0318818158 
1.9920595841 2.0034812314 2.0796601929 2.118997864 2.0965263162 2.0287486394 2.0389238912 2.0631560785 1.9964259599 
1.8905034475 1.821763704 1.8129842152 1.8446111793 1.8840021129 1.9467131398 1.924367986 1.8646999236 1.8439668531 
1.8325559183 1.8373159586 1.838624771 1.8337643132 1.8402707934 1.8320025111 1.7858654828 1.7258037066 1.6979101559 
1.7133236791 1.7861428959 1.8551540794 1.9064650607 1.9335793673 1.937812879 1.9454361656 1.9491270438 1.9455225565 
1.9553074514 1.9703167626 2.039628172 2.0379162154 2.0417936145 2.0361113935 2.0315950382 2.0304115846 2.0429015048 
2.0708514159 2.0977639831 2.0949087629 
Curvature 1 102 double
0 0.21133825591 0.11381191031 0.12965442246 0.28321089502 0.21220528919 0.084388271355 0.14975395739 0.1614417357 
0.13718436313 0.19568551687 0.19810401543 0.34285148052 0.13799530622 0.29765393704 0.21564353616 0.1212741929 0.047613693268 
0.17522833231 0.343802676 0.40323916953 0.40528747218 0.36325343625 0.3248906793 0.12154455387 0.073911246771 0.18787664347 
0.27687220539 0.234843627 0.27355533176 0.14970415081 0.1057405476 0.17273909559 0.021574578537 0.26809363898 0.26714790255 
0.23309854185 0.14902342406 0.22259054465 0.24835442065 0.075103778977 0.059272741887 0.061071405748 0.020482012181 0.098514115777 
0.12318941739 0.083980337959 0.049662868008 0.10175644317 0.10426856788 0.21587510645 0.14080668593 0.22923626112 0.13574515593 
0.19491302826 0.13564199495 0.2440444037 0.17135013458 0.27682784375 0.12383680384 0.20322696647 0.21507659333 0.042660306772 
0.088898007136 0.13427933454 0.046154858573 0.34191107818 0.042014481153 0.042414688339 0.23483771405 0.14181605706 0.25600274021 
0.14841564495 0.19715067646 0.14262208567 0.16427265033 0.15579069542 0.23616872164 0.1051663404 0.11567864261 0.34360692379 
0.029711016828 0.0254924341 0.19666061636 0.35165090776 0.096675597135 0.14158947805 0.086704243744 0.21759716029 0.025734265715 
0.080911906045 0.14013351038 0.15112734102 0.089456904762 0.061695550843 0.11206681301 0.10614279816 0.18847700877 0.19506075594 
0.11036526277 0.29446951679 0 
Torsion 1 102 double
0 0 -0.86624442852 1.2058553556 0.22302930001 -0.39317392134 -2.9591581465 0.14929729144 0.54866482275 
-0.10000734663 -0.51582630947 -0.23420059197 0.18211589828 1.1268103433 -0.20248654019 -0.35890080743 0.35835851302 -1.1802004445 
-0.68429618138 -0.55353073983 -0.055352653642 0.053417694771 0.14901090142 0.45409097639 -0.083433796125 -0.5321542734 0.015756542922 
-0.4359893722 -0.92792454539 -0.051040484548 -0.35929480524 -1.4563837984 -0.31311811596 -9.830913944 -0.458086781 -0.61662067366 
-0.29341322493 0.72531657952 -0.17000909335 -0.61830826113 -1.1061463735 -0.76294058667 -0.49930825102 1.4783776835 -0.52321826611 
-0.090044516143 0.67064452576 0.96755082955 -0.0040762421912 0.44159336959 0.50055276739 0.29171295111 0.10611808999 0.60789046796 
-0.026698774824 0.067960421913 -0.086103202432 0.21108145538 0.14686355449 0.82333625298 0.025721802879 -0.24807960608 -2.703065316 
0.38125408319 0.17132411333 0.89203748488 -0.062064726181 -5.5331774176 0.50815328509 0.23544409388 1.4727156597 -0.026734513266 
-0.76350778231 -0.2310133925 -0.85187771689 0.66968786938 -0.15052868715 -0.25261292681 0.49530691738 0.79975236911 0.0058333106097 
-6.3797946682 3.4971169942 -0.033036826411 -0.21087293652 -1.1052669094 0.55710925572 -0.23843841358 -0.098535648028 0.15227103976 
-0.23904143906 0.66075081511 0.21975179739 -1.349217819 -0.25238721608 0.43698475563 0.26027335865 -0.85473111012 -0.48019658813 
-0.17409749716 0 0 
FrenetTangent 3 102 double
-0.87851606451 0.41686836629 0.23330299951 -0.87851606451 0.41686836629 0.23330299951 -0.86053476439 0.42477220265 0.28115564217 
-0.81496349996 0.51463330768 0.26643395495 -0.74502671419 0.56698986909 0.35136545574 -0.64681031159 0.56602174258 0.5111318888 
-0.57813692769 0.58444385459 0.56937076995 -0.55972895725 0.62970031011 0.53868452165 -0.52938751409 0.64385018045 0.55245434658 
-0.47494238632 0.60732365115 0.63685768617 -0.39763759728 0.56436054016 0.72345111925 -0.23765126552 0.55870860146 0.7945857881 
-0.0391478759 0.5792567704 0.81420454295 0.17917284297 0.53538758006 0.82538308164 0.30354155864 0.39284000909 0.86806638539 
0.47116626207 0.24696040476 0.84676614951 0.59039897582 0.17702679918 0.78745829206 0.63214793754 0.14629841271 0.76091113771 
0.61213270402 0.099739944153 0.78443960648 0.58844200616 -0.12776254453 0.79838132343 0.63745453879 -0.37032585967 0.67565558433 
0.65880239143 -0.62197928587 0.42322709861 0.60993092899 -0.76507183112 0.20651720291 0.46760996935 -0.8837207188 -0.019457844841 
0.33425190233 -0.93724921868 -0.099194596009 0.31288272734 -0.94215781319 -0.12017925769 0.26387113729 -0.95756337665 -0.11595000046 
0.11073053284 -0.98723582221 -0.11447349228 -0.05525797878 -0.98587567334 -0.15810032413 -0.02147092709 -0.99023983561 -0.1377100841 
0.086854078264 -0.99531044217 -0.042585124199 0.093860307723 -0.9953183727 0.023056009962 -0.010585320462 -0.99916102474 0.039562578656 
-0.076905045779 -0.99680653717 0.021502125132 -0.03291748794 -0.99661270457 0.07536282949 0.026247445385 -0.95508158972 0.29517829965 
-0.016178280742 -0.89662434896 0.44249637296 -0.084912622842 -0.8252552498 0.55834005692 -0.052998254339 -0.76384465192 0.64322043871 
0.0030332049863 -0.68228779634 0.73107739852 -0.011783554972 -0.63014628484 0.77638702175 -0.014878104525 -0.66506973378 0.74663303651 
0.010647271189 -0.69541319799 0.71853122387 0.029961485675 -0.70143072571 0.71210760873 0.070918156395 -0.68640807271 0.72375035255 
0.072264908974 -0.65502991387 0.75213934538 0.068141163767 -0.62420776957 0.77828108175 0.11436590541 -0.61704842017 0.77857028382 
0.10996622098 -0.64162269136 0.75909666853 0.1360125228 -0.63425038271 0.76106967202 0.2607530692 -0.59692752611 0.75873932643 
0.35535110414 -0.6146291907 0.70424182688 0.41964978663 -0.58841961176 0.69112691821 0.52338200952 -0.53661008316 0.66190701065 
0.63768478956 -0.52452665563 0.56411869025 0.74136594558 -0.49490644408 0.45325946911 0.82285267163 -0.46409065969 0.32792276588 
0.8992729633 -0.39974077238 0.17752592027 0.93878829877 -0.34431341281 0.011171564794 0.94163677961 -0.30740490222 -0.13719475713 
0.90451232744 -0.32883603867 -0.27152220751 0.86082738089 -0.34812726184 -0.37119217378 0.82712355733 -0.34078759264 -0.44691211397 
0.81430916102 -0.36787491168 -0.44896396251 0.77897946718 -0.45000447798 -0.43667717998 0.76183793763 -0.49262213725 -0.420626184 
0.71295493325 -0.59534934789 -0.37047863247 0.67074321845 -0.65686237184 -0.34443484051 0.66433365606 -0.65048434902 -0.36814522285 
0.60848373573 -0.72144377415 -0.33055472178 0.5340133096 -0.81255127371 -0.23364548522 0.56328904688 -0.81950407316 -0.10544441067 
0.58528461836 -0.8100216054 0.036151269715 0.55508120125 -0.82150992704 0.13040820447 0.49207131845 -0.83530975162 0.24520080832 
0.41977091409 -0.86061582544 0.28832755798 0.38044085822 -0.84366301125 0.37881060816 0.2992819688 -0.81797512447 0.49127079997 
0.17458726577 -0.78816602291 0.59018099509 0.12945020106 -0.75108734205 0.64738740338 0.10854708232 -0.59692672392 0.79491887459 
0.091109817365 -0.51416933032 0.85283579952 0.067811681196 -0.52187889895 0.85031993433 0.041101947249 -0.46855664932 0.88247679647 
-0.030559292504 -0.26374516094 0.96410819918 -0.11921734857 -0.14917284523 0.98159802671 -0.16506306751 -0.1135869753 0.97972046155 
-0.17425328151 -0.022001574827 0.98445503939 -0.20392344438 -0.086774932362 0.97513349853 -0.22464675355 -0.15381540187 0.96222380882 
-0.24126850256 -0.15567442055 0.95789090426 -0.31956637858 -0.13216839112 0.93830104235 -0.33975812978 -0.07293476422 0.93768061376 
-0.35243784202 -0.008401800266 0.93579750869 -0.36543208519 -0.014164974832 0.93073022117 -0.38233665884 -0.011123183365 0.92395614295 
-0.3762231944 0.012317104337 0.92644719058 -0.31140302953 0.043587642288 0.94927776264 -0.25786725799 0.15964155448 0.95290033652 
-0.24051783575 0.24644668745 0.93883715357 -0.22657527679 0.28293313011 0.93199382393 -0.22657527679 0.28293313011 0.93199382393 

FrenetNormal 3 102 double
0.064969629333 0.5880991614 -0.8061751197 0.064969629333 0.5880991614 -0.8061751197 -0.41764907171 -0.90433874159 0.087981210326 
-0.47643525491 -0.8567345843 0.19752290991 -0.4260862467 0.00075565389207 -0.90468223115 -0.62940510422 -0.017702091163 -0.77687569839 
-0.67229760202 -0.73662537883 0.073477789664 0.03364724622 -0.63224858478 0.774034618 -0.54029237249 0.24619411563 -0.80465682726 
-0.49913199357 0.41011626692 -0.76332948364 -0.70982105742 0.31041151486 -0.63229641616 -0.96124483089 -0.25296274091 -0.10962767349 
-0.99834709965 0.011638303568 -0.056281600117 -0.83006576484 0.53260737682 -0.16528825789 -0.54336444624 0.81975757072 -0.1809768046 
-0.87361587315 0.26305682798 0.40938540697 -0.55807798539 0.79437142022 0.23983954836 -0.43080575745 -0.74988046706 0.50208135244 
0.40014205668 0.8165599077 -0.4160724115 -0.018921679186 0.98499001836 0.17157107502 -0.32130759835 0.66926192139 0.66996261674 
0.21704593994 0.6957829294 0.68467304249 0.12415269842 0.34964140021 0.92862101997 0.77540016732 0.39952635565 0.48901254755 
0.84236603288 0.24987997528 0.47747195164 -0.93206386418 -0.28024196449 -0.22961139872 0.96455393238 0.26160996716 0.034582316329 
0.99163699836 0.11743162275 -0.053533890755 0.65069442122 -0.15565704803 0.74321440621 -0.73474206876 0.10904024896 -0.66952544127 
-0.76611942047 -0.039407513025 -0.64148895665 0.79078312634 0.060462729723 -0.60910286932 0.98547895396 -0.0037187100367 0.16975689232 
-0.87144766828 0.077680232175 0.48429819634 -0.53326354229 -0.046260728815 -0.84468333678 0.074968194073 -0.2925678847 -0.9533015277 
0.38036898814 -0.41479957078 -0.82659588006 0.58163189076 -0.49603576669 -0.64471145624 -0.78938603206 -0.36245875463 -0.49547284848 
0.063872282336 -0.72945575412 -0.68103937796 0.29721844605 0.73914093132 0.60442690127 -0.14156074021 0.74059531702 0.65687071273 
-0.76567871071 0.4564951168 0.45315374907 0.039743021676 -0.71102809352 -0.70203955903 -0.97393468064 -0.20437515295 -0.098397330786 
0.71137331631 -0.4947227473 -0.49919676295 -0.99271876799 -0.12008793687 -0.0093986751702 -0.97683711248 -0.21252528461 -0.024945121481 
0.56620322945 0.66813302753 0.48271333159 -0.80897270159 -0.51455770079 -0.28424204588 -0.96500528325 -0.18379025657 0.1870453017 
0.12330809665 0.77765455709 0.61648074028 -0.66707470969 -0.71628876385 -0.20479682243 -0.72878212524 0.12060964424 0.67404000449 
-0.74391631397 -0.2293365031 0.62768884502 -0.5674250139 -0.10163153704 0.81712904995 -0.4880840558 -0.28168390149 0.82609208574 
-0.35888913821 -0.4423658625 0.82189478047 -0.10148593627 -0.24542590741 0.96408854817 0.090083386994 -0.16258107836 0.98257436174 
0.37606289097 0.3148421242 0.8714649384 0.40440925687 0.025195278104 0.91423101616 -0.56132950611 -0.46151094822 -0.68696202969 
0.50641659406 0.82826001589 0.23984907618 0.29947317104 0.87883600133 -0.37143384687 -0.15083164108 -0.76640446113 0.62439892537 
0.41310752312 0.78353468287 -0.46412883457 0.69868862159 0.40376380678 0.59060054046 -0.30066606426 -0.68350894116 0.66514317644 
0.57430286131 0.68780045911 -0.44396706178 0.17766365051 0.37802238013 -0.90858940529 -0.50818277076 -0.24298741328 -0.82626108978 
0.34646890874 0.20953471014 -0.91436015908 0.26571501498 0.026561939497 -0.96368563037 0.78189924564 0.30023044813 -0.54634718603 
0.8554986481 0.26905482395 -0.4424156019 -0.082393334049 -0.43890292045 -0.89474888372 0.78277955293 -0.083929590025 -0.61661332733 
0.70254309065 -0.32025070297 -0.63550978987 0.29157291976 -0.59518522462 -0.7488256011 0.035039264278 -0.79684940733 -0.60316106638 
0.99425371171 0.095298019359 -0.048763144461 0.79594697155 0.54217663414 0.26928222347 0.24748850345 -0.85092522852 -0.46333108694 
0.34460676049 -0.90819975638 -0.23752764711 0.99104747542 0.041966666081 0.12674265425 0.173677391 -0.98117119814 -0.084494045984 
-0.08222827822 -0.99593339147 -0.036812905514 0.32729986988 0.93270524005 0.15144546993 0.010532801243 0.98702211831 0.16023856609 
0.86488230373 -0.48220897273 0.13947439662 0.93502282282 -0.20455597288 0.28963628013 -0.20148520463 -0.96819758486 -0.14831435868 
0.93577809485 0.0078850338624 0.35250132403 -0.89260899155 0.28894071486 -0.34606711994 0.90031635183 -0.22953204716 0.36979116532 
-0.86653856716 -0.35862779303 -0.34712680348 -0.84837729804 -0.46279530515 -0.25705342966 0.13800572415 -0.97005651105 0.19986191601 
-0.43886283137 -0.89033133131 0.12128287479 0.81101288425 0.58469778308 0.019662249168 0.81101288425 0.58469778308 0.019662249168 

FrenetBinormal 3 102 double
-0.47327420346 -0.69308018407 -0.54373834405 -0.47327420346 -0.69308018407 -0.54373834405 0.29163191213 -0.04171350286 0.95562064205 
0.32991505211 0.034035432744 0.94339686649 -0.51321117048 -0.82372441832 0.2410236029 -0.43068043328 -0.82420023228 0.36770686898 
0.46235660173 -0.34030637973 0.81879053533 0.82799236545 0.45137484035 0.3327001597 -0.65408945272 -0.72446214709 0.21753525066 
-0.72477374585 -0.68041357303 0.10835306626 -0.58141070482 -0.76494566615 0.27716370644 0.13975067471 -0.78984463685 0.59717267064 
-0.042077457554 -0.81506204907 0.57784370181 -0.52809839839 -0.65550707188 0.53983567902 -0.78269892087 -0.41674242945 0.46228578473 
-0.12164563152 -0.93263694101 0.33969203199 -0.58307633426 -0.58106416092 0.56779083237 0.64404610425 -0.64519459046 -0.41100919215 
-0.68204097175 0.5685788078 0.45993287791 -0.80831799154 -0.11606634285 0.57719202057 -0.70029503656 -0.64416398397 0.30763553685 
-0.7203266405 -0.35920451432 0.59338153652 -0.78266874816 -0.54075501338 0.30824283636 -0.42437659818 -0.24375475851 0.87205970014 
-0.42272347042 -0.24315406647 0.87302976325 0.18265090204 0.18385618398 -0.9658341222 -0.0027810837836 -0.12096530404 0.99265284002 
0.066293382616 -0.10758831403 0.99198283357 -0.75732643291 -0.061806473016 0.65010509452 0.67800670475 0.086806060143 -0.72991206062 
0.63680248325 0.088341222718 -0.76594936236 0.6048572474 0.075402886388 0.79275602489 -0.16946734873 0.040785019736 0.98469152524 
-0.48442189813 0.018506998151 -0.87463873435 0.84530848419 -0.067993102963 -0.52993443415 0.9968404293 0.047150713839 0.063921582399 
0.92469329839 0.15493899743 0.34775884027 0.80900815208 0.27000424227 0.52211446927 0.61160516465 -0.53400842589 -0.58375861763 
0.99795347147 0.048761314045 0.041366689932 -0.95473679261 0.23787884175 0.17858139177 -0.98981776042 -0.095920934189 -0.10516641834 
-0.64313509279 -0.55498891195 -0.52760265355 0.99876063279 0.049335456321 0.0065735184976 0.21545731119 -0.69790741118 -0.68301053614 
0.69908925594 0.57112626909 0.43021970781 0.099328895473 -0.77197379996 -0.62784569975 0.18085821896 -0.7576834765 -0.62706144362 
-0.8168973823 0.37672082429 0.43676090409 0.57189488696 -0.57702411093 -0.58307753659 0.027796406264 -0.78096009511 -0.62396208991 
-0.92656392445 -0.13222839249 0.35212916116 0.61555291266 -0.37509034549 -0.6931102686 -0.44152903194 -0.83516640998 -0.32794691886 
-0.1998665229 -0.81992472574 -0.53644833595 -0.35833697595 -0.86298241134 -0.35616845647 -0.29101105695 -0.83980595332 -0.45829960234 
-0.25001344752 -0.80281987929 -0.54127028135 -0.32920682684 -0.90620880471 -0.26534593916 -0.32435344715 -0.93758712611 -0.12540024828 
-0.2010824496 -0.89036020604 0.4084416139 -0.3089164503 -0.93710864233 0.16247467252 0.02785330285 0.81906743396 -0.5730207083 
0.283624441 -0.42267410074 0.86075767846 0.55091452109 0.15856624032 0.81935946805 -0.62996251701 -0.41224705195 -0.65817899946 
0.5666016568 0.17785543204 0.80456821203 -0.24887294942 -0.63679401127 0.72976410042 -0.68429577759 -0.33118822297 -0.64965656291 
0.54765296205 0.080308213757 0.83284261656 0.82659870098 0.44368852556 0.34622980783 0.65150266398 0.51900885451 -0.55332999898 
0.73307653815 0.54768622772 0.40328474454 0.78821341706 0.56957519534 0.23303155586 0.3827523837 0.46056410722 0.80086285712 
0.30317394806 0.43237703768 0.84919706459 0.92112761977 0.30918756423 -0.23648881204 0.54560652 0.56909798776 0.61517558929 
0.68989310216 0.52557949692 0.49780889909 0.94774884748 0.28569626004 0.14194988232 0.99347359345 0.093324746454 -0.065579804984 
-0.0562010492 0.85237796034 0.51989735025 -0.60155631023 0.65854909629 0.4521538382 0.96801863132 0.23744667158 0.080987700067 
0.93824959913 0.32497952643 0.11864230751 -0.06010095896 0.98792016944 0.14283421701 0.97087092221 0.15620844725 0.18168261724 
0.98126158803 -0.087364812462 0.17173551002 -0.92265379423 0.35004434905 -0.16179904107 -0.97438334151 0.046131985795 -0.22011120751 
0.44019099306 0.86211367081 0.25098188825 0.15365432142 0.96989090641 0.18894967362 0.91867737839 -0.23931977947 0.3142577248 
-0.010340440762 0.99993361579 0.0050832363275 -0.2640238234 -0.95724219338 -0.11823199183 0.20796429004 0.97323754249 0.097772899876 
0.32797411426 -0.93339937594 0.14559733984 0.4281169389 -0.8853929201 0.18109462627 0.95627344278 0.18304354524 0.22811436427 
0.86576589557 -0.38285003686 0.32229685595 -0.539371621 0.76031397879 -0.36194047594 -0.539371621 0.76031397879 -0.36194047594 

SiphonLabel 1 102 int
0 0 0 0 0 0 0 0 0 
0 0 0 0 0 0 0 0 0 
0 0 0 1 1 1 1 1 1 
1 1 1 1 1 1 1 1 1 
1 1 1 1 1 1 1 1 1 
1 1 1 1 1 1 0 0 0 
0 0 0 0 0 0 0 0 0 
0 0 0 0 0 0 0 0 0 
0 0 0 0 0 0 0 0 0 
0 0 0 0 0 0 0 0 0 
0 0 0 0 0 0 0 0 0 
0 0 0 
