# vtk DataFile Version 5.1
vtk output
ASCII
DATASET POLYDATA
POINTS 89 float
102.305 70.7471 32.098 102.006 70.4689 31.3766 101.717 70.1464 30.7936 
101.361 69.9093 30.1158 101.09 69.5506 29.3138 100.955 69.2828 28.8177 
100.739 68.7528 28.0753 100.629 68.4546 27.5598 100.532 68.1183 26.9734 
100.395 67.7051 26.0836 100.362 67.4811 25.59 100.326 67.278 25.0945 
100.22 67.0014 24.448 100.209 66.7055 23.9552 100.227 66.334 23.4866 
100.234 65.8009 22.9623 100.24 65.0331 22.5594 100.199 64.0727 22.3151 
100.273 63.4064 22.2662 100.457 62.5991 22.1802 100.904 61.777 22.2297 
101.428 61.1412 22.1302 102.182 60.557 21.9672 102.703 60.1847 21.8244 
103.194 59.8769 21.6492 103.686 59.6401 21.4715 104.14 59.4064 21.1687 
104.67 59.1444 20.6534 105.303 59.1422 20.135 106.01 59.4164 19.5534 
106.44 60.0703 18.9825 106.498 60.7664 18.6151 106.479 61.4635 18.397 
106.297 62.3872 18.2011 105.923 63.2089 18.1194 105.405 63.9938 18.3124 
104.959 64.5459 18.4218 104.437 65.3664 18.4353 103.972 66.2212 18.4198 
103.565 67.0468 18.4028 103.172 67.7784 18.3228 102.855 68.5119 18.1986 
102.617 69.3277 17.9375 102.385 70.0489 17.6018 102.274 70.4486 17.3539 
102.1 70.9687 16.9387 101.992 71.6562 16.2853 101.949 72.1921 15.5723 
102.046 72.6257 14.7702 102.161 72.9255 13.9167 102.301 73.1952 13.1297 
102.466 73.38 12.3735 102.598 73.5841 11.5058 102.688 73.8014 10.8457 
102.881 73.9912 10.0633 102.997 74.0256 9.39179 103.06 74.0145 8.59336 
103.202 74.0587 7.81425 103.586 74.0306 7.07507 103.951 74.0701 6.392 
104.215 74.1561 5.86675 104.772 74.3358 5.06196 105.466 74.5686 4.41203 
106.234 74.7206 3.79763 106.762 74.8668 3.48293 107.591 75.1437 3.19309 
108.294 75.4154 3.01945 109.277 75.4649 2.96272 109.975 75.586 3.01732 
110.552 75.7158 3.04015 111.432 76.0709 3.0518 112.098 76.45 2.96533 
112.564 76.6852 3.00252 113.168 76.9812 3.05908 113.698 77.2706 3.12951 
114.404 77.5616 3.20115 115.171 77.792 3.32227 115.686 78.0237 3.42195 
116.524 78.4679 3.55533 117.265 78.8465 3.58558 118.139 79.2181 3.56968 
118.706 79.5538 3.48186 119.509 80.0568 3.36069 120.229 80.5284 3.1877 
120.81 80.9638 3.01819 121.228 81.4016 2.84181 121.737 81.9002 2.62974 
122.1 82.2772 2.35269 122.404 82.4934 2.11369 
LINES 2 89
OFFSETS vtktypeint64
0 89 
CONNECTIVITY vtktypeint64
88 87 86 85 84 83 82 81 80 
79 78 77 76 75 74 73 72 71 
70 69 68 67 66 65 64 63 62 
61 60 59 58 57 56 55 54 53 
52 51 50 49 48 47 46 45 44 
43 42 41 40 39 38 37 36 35 
34 33 32 31 30 29 28 27 26 
25 24 23 22 21 20 19 18 17 
16 15 14 13 12 11 10 9 8 
7 6 5 4 3 2 1 0 
CELL_DATA 1
FIELD FieldData 2
Length 1 1 double
69.181814276 
Tortuosity 1 1 double
0.82248173442 
POINT_DATA 89
FIELD FieldData 7
MaximumInscribedSphereRadius 1 89 double
1.4413205578 1.5409776543 1.6088192463 1.5940358202 1.5899313676 1.5873731015 1.5663736126 1.4970916146 1.4672877505 
1.4308819663 1.402662378 1.391026592 1.4004529276 1.3965701366 1.4180351224 1.5283402156 1.5187453843 1.3257213322 
1.2242490605 1.2445127144 1.2741485076 1.309748378 1.3320332187 1.32908178 1.3248939602 1.3355029748 1.312293765 
1.3071289419 1.3448963026 1.5072904558 1.5650660202 1.5299449713 1.5401350008 1.631471618 1.7886205088 1.9782958296 
2.0888080609 2.1156074955 2.1260339399 2.149849661 2.1878762074 2.1447767099 2.0832503036 2.0545820102 2.0406033532 
2.064007314 2.0311192799 1.9905123511 1.958872579 1.9774547673 1.9945911367 2.0159291732 2.0249546283 1.9817090998 
1.972668028 1.9751123892 1.9920702422 2.0334642701 1.9634592336 1.9281034867 1.9345282586 1.9792541977 2.0053611402 
2.0089248805 1.9777767544 2.0016251233 1.9284292663 1.6717798946 1.5470469814 1.5106005936 1.4830119068 1.5014845278 
1.504532197 1.4744766632 1.4839250487 1.5438050383 1.6015029869 1.6107655347 1.6722247005 1.8051098473 1.9198145979 
1.9509925421 1.9601802412 1.986654033 1.9241411026 1.7758511787 1.5777170733 1.4747317879 1.401035049 
Curvature 1 89 double
0 0.17176306638 0.21202510527 0.20944551448 0.12786235579 0.16091267992 0.13709203642 0.063159990204 0.10187807869 
0.10249347184 0.069914927098 0.13334559914 0.29517053644 0.2380111392 0.18686090414 0.37038651271 0.26016281047 0.2824558726 
0.1559544038 0.36296636255 0.29585833141 0.25381296318 0.077406452932 0.14990616876 0.18530015976 0.38450837688 0.26620672295 
0.44571719991 0.33698362478 0.54035365206 0.52804457303 0.27566939897 0.22498862801 0.27985695628 0.36274934853 0.12804578389 
0.21222225438 0.078178858534 0.041488335059 0.096954635255 0.12519876953 0.22344684346 0.14214299822 0.19394624486 0.20171821062 
0.20257735199 0.19448784172 0.23871317732 0.17365069496 0.047808310918 0.12001542775 0.073336234917 0.11054186679 0.17530957374 
0.25886467388 0.15093451126 0.15372554401 0.39131311702 0.10671019368 0.1431606816 0.18113944303 0.22091906952 0.11790188742 
0.1930068317 0.26878404748 0.12281491809 0.41678388701 0.21514853255 0.096037543971 0.21429997524 0.21405046701 0.29590941987 
0.029343367189 0.085511799507 0.16143562564 0.14440264258 0.19115108187 0.09446390258 0.11668465163 0.099055659165 0.21951444687 
0.030544193621 0.08065352756 0.085654586192 0.24740072519 0.047642048448 0.3008812653 0.35134634421 0 
Torsion 1 89 double
0 0 0.78651523131 0.57883544659 0.99630678487 0.069924543585 -0.12356116207 0.16152973464 0.22524313325 
0.19508416991 -3.1113984384 -1.8955757877 -0.054016159972 0.75552305783 0.24950371986 0.029705707549 -0.31893245671 -0.74356820134 
-0.031047480009 -0.26813174728 -0.42005340622 0.19182734324 -1.3127186072 0.62935166893 -1.2907473939 -0.30832106914 1.3546052783 
0.26587447659 -0.48431520238 -0.14642773046 0.14670651778 0.36396027864 -0.47001614428 0.33739875016 0.043953936058 -2.5887752395 
-0.4574487797 -0.74686456342 0.83131434034 -0.49386351084 -0.16036343174 0.39517062596 0.34468670009 0.22367985183 -0.29448775727 
-0.21043728641 0.081840681501 0.066186032733 0.31546216627 -0.81009840812 0.55461724656 1.8057677369 1.061268819 1.1828362035 
0.64608958787 0.63301415749 1.2018133037 0.022375358803 -2.524577355 0.6960288149 0.46041319951 0.22132353613 0.016242030222 
-0.24897508074 -0.00064248947115 1.6261682737 -0.12152238189 -1.3402948137 -0.87499867208 -0.21740676476 0.10144318111 0.33343543059 
1.532214507 0.34246648053 -0.27746119227 -1.0259662864 -0.58372019571 -1.5760752195 -0.75786106761 0.7402926718 0.34628085887 
1.9030657883 0.21877619525 0.62056207403 -0.037925011807 2.783051606 -0.6934125944 0 0 
FrenetTangent 3 89 double
0.37945741149 0.38702217944 0.84037248021 0.37945741149 0.38702217944 0.84037248021 0.42361358559 0.36750854672 0.82794262977 
0.36547830246 0.34763999463 0.86346513802 0.27107187153 0.41834934683 0.86689322553 0.23179866625 0.52679362641 0.81777616345 
0.21165770497 0.53748145308 0.81628101995 0.16112354864 0.49245486833 0.85529375347 0.13982036792 0.44823651056 0.88291239391 
0.11049054085 0.41580068767 0.90271901969 0.064129857846 0.39560525641 0.91617893581 0.11435764695 0.38474320547 0.91591211065 
0.091468982654 0.44713799728 0.88977583503 -0.0066035098908 0.57025512511 0.82144110315 -0.019116155555 0.67335891252 0.73906856754 
-0.007755892571 0.81429708302 0.58039650819 0.019373306467 0.9362965666 0.35067565409 -0.020009457852 0.98394986129 0.1773197453 
-0.1721272205 0.98097584312 0.089769789853 -0.36101895013 0.93232379926 0.020920109598 -0.55393152208 0.8320730257 0.02853679659 
-0.71556065527 0.68292257496 0.14693435691 -0.78571872649 0.58920328157 0.18837615514 -0.80298404052 0.53989953352 0.25243835758 
-0.8345193588 0.46239605959 0.29961195546 -0.81518331829 0.4052295041 0.4138420068 -0.71697472293 0.36121995924 0.59621085844 
-0.7368841425 0.16742730515 0.65495790554 -0.76372997267 -0.15494975138 0.62666346901 -0.60929132327 -0.49735017628 0.61758148089 
-0.28427920718 -0.78725235255 0.54719198256 -0.02577336009 -0.92158308847 0.38732459896 0.119061117 -0.96200087408 0.24572091627 
0.30020547551 -0.94203870409 0.14979904027 0.48452481709 -0.87268507153 -0.060468731984 0.57502889982 -0.79798646593 -0.18044213634 
0.57510651128 -0.81482178575 -0.072924331727 0.50756884502 -0.86161063138 0.00099370581961 0.46024377764 -0.88762652918 0.017170027185 
0.45656021033 -0.88796986678 0.055337961897 0.43304138811 -0.89275300459 0.12436731474 0.32836619432 -0.91662670446 0.2279717682 
0.27391650692 -0.89653008001 0.34814302072 0.261577771 -0.85611084685 0.44570313844 0.2435890942 -0.78674422349 0.56718416761 
0.17251342627 -0.7376628996 0.65275766125 0.081998615774 -0.66477419602 0.7425304676 -0.030351978511 -0.53872112048 0.84193723742 
-0.11607520266 -0.40230643302 0.90811677733 -0.14510414173 -0.3244913212 0.93469255401 -0.18643271294 -0.27758732758 0.94243732901 
-0.1752504135 -0.22930683741 0.95744747474 -0.1383660535 -0.26332554154 0.95473268217 -0.18509146234 -0.26688688127 0.9457867324 
-0.20556055469 -0.14913037575 0.96721506884 -0.12124859436 -0.015731719227 0.99249750195 -0.12910801439 -0.020813974467 0.9914120733 
-0.32699776549 -0.010038238793 0.94497179594 -0.46614858272 -0.0071090197801 0.88467788526 -0.45991383077 -0.091708393823 0.88321505805 
-0.51760965825 -0.16758241378 0.83904491911 -0.63740711152 -0.21024524824 0.74128881671 -0.74192109477 -0.19523424468 0.64143330039 
-0.79897755667 -0.18373996447 0.57260325654 -0.87852056155 -0.27390451764 0.3913795321 -0.90546898324 -0.32420107111 0.27389703519 
-0.9735946483 -0.18551079854 0.13303835697 -0.99488291027 -0.10102677441 0.0012592493273 -0.97943616113 -0.1927800514 -0.059503428931 
-0.94861366566 -0.31564006681 -0.022437948655 -0.90246822842 -0.4285366871 0.043673842343 -0.87824124275 -0.47668645539 0.038240590691 
-0.89298026359 -0.443246785 -0.078221074039 -0.88424341423 -0.45640979393 -0.099013556637 -0.90026966812 -0.42285039809 -0.10349910866 
-0.93558357266 -0.33119632302 -0.12244335089 -0.92861176616 -0.33479706677 -0.15997222208 -0.88425990648 -0.4414845808 -0.1522359442 
-0.88320697017 -0.45997466097 -0.091480922091 -0.90687093417 -0.42133139533 -0.0080600287583 -0.8957273597 -0.43989937078 0.064506128913 
-0.84569385848 -0.51783634791 0.12902486007 -0.83151012084 -0.53181729154 0.16050323164 -0.80192471528 -0.55890454675 0.21105084373 
-0.72845205662 -0.63694407566 0.25230902815 -0.67460811818 -0.68183042731 0.28286243172 -0.65604215857 -0.65888415628 0.36807656104 
-0.64691391645 -0.5753239941 0.50050443206 -0.64691391645 -0.5753239941 0.50050443206 
FrenetNormal 3 89 double
-0.27977467737 -0.81778371969 0.50294723153 -0.27977467737 -0.81778371969 0.50294723153 -0.28153412156 0.92215222394 -0.26528063307 
0.83873211541 -0.5252901916 -0.14352230903 0.63531989876 -0.7543350427 0.16537009889 0.029336860259 -0.8440762571 0.53542004149 
0.45181362078 0.68679030113 -0.5693711745 0.98259862882 0.001098691779 -0.18573833076 0.052896678304 0.88701685135 -0.45869711885 
0.98774281221 0.054818831474 -0.14614729776 -0.20457535627 0.90378280056 -0.37593293687 -0.97664352246 -0.12527747825 0.17456512675 
0.68997844846 -0.67273138088 0.26713709933 0.36377621472 -0.76380540731 0.53316804609 -0.17656690812 -0.72985907457 0.66040128575 
-0.010150597755 -0.58044817256 0.81423392483 -0.20066480451 -0.33996342121 0.91878099048 0.65619471384 -0.12088598138 0.7448456733 
0.94618097245 0.1899974752 -0.26199718852 0.81205508244 0.30326003719 0.49859792712 0.60556716461 0.42618962064 -0.67204971275 
0.6510410058 0.72822078715 -0.21410299842 0.24015015356 0.5711901651 -0.78490107596 0.1769862747 0.62045398886 -0.76401093335 
0.42649127528 0.88638849256 -0.180057303 -0.41741828986 0.084320832475 -0.90479388178 -0.49882820542 0.33158733526 -0.80076229967 
0.28036425081 0.95728480313 0.070722645389 -0.1241181673 0.987899288 0.093003641388 -0.60734823738 0.79343932073 0.039776410982 
-0.83164697393 0.48645684648 0.26781158912 -0.4786101567 0.35153671225 0.80458328211 -0.86263392066 0.022313444792 0.50533635245 
-0.87279468917 -0.20791978433 0.44158667761 -0.38068415657 -0.27258633711 0.88361544903 -0.76841901699 -0.45107676015 -0.45394049255 
0.4778531243 0.40694489591 -0.77849357305 0.79327634973 0.46686283954 -0.39083464793 0.88614647683 0.45812730386 -0.06974091376 
-0.34452285843 -0.23380139113 -0.90919794848 0.77173919897 0.29592712578 -0.56289052666 0.6650267562 0.052962900202 -0.74493915506 
-0.10148579649 -0.38691074241 -0.91651552661 0.39569534969 -0.32607007336 -0.85854731815 -0.20162537621 -0.61310025631 -0.7638424467 
0.84726583147 -0.22685978521 -0.4802866318 0.36863713682 -0.67196943205 -0.64231125146 0.71978792289 -0.59622758337 -0.35555311121 
0.12318412067 -0.9130691137 -0.38875502058 0.97315561239 -0.21737319398 0.075611167217 0.41875823688 -0.89020771902 -0.17936486846 
-0.9751252735 -0.093627021556 -0.20090963597 -0.21959978638 0.94816616719 0.22968860054 0.79355641237 -0.60827707516 -0.016346872077 
-0.32566839232 -0.92156919979 -0.21130619548 -0.80975537335 -0.57673052585 -0.10806542413 0.81255026566 0.57086350661 0.11780035062 
0.90581846264 -0.28836346116 0.31038593236 0.12935318719 0.98867393197 0.076102622821 -0.28130328031 0.95846921822 -0.046959793481 
0.80160830174 0.24790465605 0.54402887064 0.69232004622 0.26604335807 0.67075620401 0.54359926621 -0.73517310739 0.40499424681 
0.42167825848 0.50768530503 0.75129426816 0.29632092294 0.33016244118 0.89620682494 0.087452890017 0.48898321835 0.86789826835 
0.22685079219 -0.85140294638 0.4729183238 -0.066687369896 0.66597915818 0.74298355 -0.11639824395 0.78082878542 -0.61380604157 
-0.30819312784 0.93765544233 -0.16068374972 -0.34046517984 0.64751407202 -0.68176901357 0.15736975343 -0.21257109168 0.96439011385 
0.25565756283 -0.64253206409 0.72235154681 -0.42251238485 0.69144597701 0.58599125038 0.43530840708 -0.87691712204 -0.20377181308 
0.23179596202 -0.83764329497 0.49459512975 -0.36149036794 0.91353020489 0.18651348112 -0.32358130813 0.81428412144 -0.48190923066 
0.14419283278 -0.080719407323 -0.98625189696 0.34072276407 -0.72184622174 -0.60236702284 -0.36963237106 0.6561791458 -0.6578760057 
-0.48470956793 0.84648083212 0.22028807416 -0.27549604823 0.14389135237 -0.95047209645 -0.58871272625 0.67916663399 -0.43834918641 
-0.68431511781 0.65889178293 -0.31236907326 0.66517003319 -0.72764470897 -0.16757686131 -0.35175774707 -0.16455103575 -0.92151475518 
0.41341641186 -0.81612193041 -0.40377204598 0.41341641186 -0.81612193041 -0.40377204598 
FrenetBinormal 3 89 double
0.88189466648 -0.42596199411 -0.20203508804 0.88189466648 -0.42596199411 -0.20203508804 -0.86098203727 -0.12071762081 0.4941024059 
0.40367567305 0.77667023166 -0.48355899562 0.72311041115 0.50592733407 -0.47026467646 0.9723213085 -0.10011866647 -0.21111022161 
-0.86664033371 0.48931867926 -0.097476982484 -0.092407449434 0.87033728837 -0.48370845326 -0.98876296762 0.11083833279 0.1003128 
-0.11025414872 0.90780211712 -0.40464717822 -0.97674781031 -0.1633191064 0.1388905488 0.18190590595 -0.91448248714 0.3614305218 
0.71802727376 0.58949139143 -0.37004963662 0.9314629672 0.30234151559 -0.20240145428 0.98410299235 -0.11787071815 0.13284500084 
0.99991840242 0.00042373935576 0.012767495812 0.97946838194 -0.088168087278 0.18129555195 0.75432626835 0.13126023763 -0.64324383471 
-0.27406894633 0.039841619222 -0.9608844145 0.4585104805 0.19699158151 -0.86658089991 -0.57135652442 -0.35498857329 -0.73995596817 
-0.25321642403 -0.057543390338 -0.96569674372 -0.57006489682 -0.57147291124 -0.59029206765 -0.56911553242 -0.56881046176 -0.59376945808 
-0.34883037697 -0.022479420073 -0.9369162416 -0.40154467855 -0.91031810166 0.10041327059 -0.48694729505 -0.87153312051 -0.057553033794 
-0.61514034773 0.2357411784 -0.75234862225 -0.63349128596 -0.0067506527913 -0.77372037539 -0.50979623571 -0.35085160177 -0.78550044659 
-0.47702058983 -0.37893729023 -0.79300560336 -0.87764916214 -0.16464067235 -0.45013930865 -0.49161689286 -0.27213310797 -0.82719792202 
-0.38484555738 -0.26331054533 -0.88462503564 -0.7876009615 -0.40511412559 -0.46429222553 0.28084511513 0.39968407104 -0.87257014885 
0.66400970797 0.4128696031 0.62340179544 0.33628336345 0.19916377417 0.9204603688 0.054037826961 0.047312980702 0.99741736255 
0.82027847367 0.39603841378 -0.41267032901 0.46571854694 0.33973402687 0.81712118197 0.67075707672 0.39622016086 0.62697250989 
0.95638401301 0.21571715984 -0.1969663083 0.88034212665 0.400939553 0.25346639794 0.94868939114 0.071704968528 -0.30797213613 
0.50237409227 0.63591515505 0.58586021114 0.92594972238 0.32639293909 0.18995989298 0.69353017488 0.59522451493 0.40586164312 
0.98557202666 0.066740748885 0.15554244661 0.1786419383 0.92057279832 0.34732230114 0.88875439948 0.36121391523 0.28220582001 
0.13571290858 -0.96884072744 -0.2071947183 -0.96572810307 -0.17787798787 -0.18902024328 0.57966315301 0.74750945977 0.32437668936 
0.92286778934 -0.35842759524 0.14087122618 0.57410366111 -0.81678296601 0.057188921406 -0.56841286615 0.8207811129 -0.056790653345 
0.26937960967 0.95746840576 0.10338702948 -0.8751989784 0.14991103387 -0.4599493778 -0.84222783898 -0.27004875157 -0.46661112184 
-0.29917281339 0.9541799705 0.0060176098182 -0.33823827072 0.94075388238 -0.024020928431 0.39249576675 0.64915644638 0.65156962882 
-0.42874504109 0.84172160274 -0.32815001634 -0.37469391983 0.90331006728 -0.20889085377 -0.41530460198 0.80980804989 -0.41440681692 
0.025537793218 0.4906106058 0.87100462375 -0.075899865304 0.73909766048 -0.66930849294 0.16479155038 -0.5942577384 -0.78721120754 
0.071757294169 -0.14551157926 -0.98675086574 0.26388360695 -0.63014429645 -0.73026269769 -0.45158286087 0.85298508441 0.26170472968 
-0.37043954893 0.62504786553 0.68708784474 -0.19898962042 0.55999335789 -0.80424534197 -0.0045951482204 -0.22850361466 0.97353221965 
-0.26637194025 0.4343532042 0.86045527684 0.08369529042 0.23102703054 -0.96934081185 0.33671880676 -0.37687230527 -0.86289495925 
0.44626659612 -0.88425544304 0.13761699255 0.24797803693 -0.54901537999 0.79817855505 0.24707166439 -0.61312109098 -0.75035866121 
-0.22329024272 0.12375668724 -0.96686387349 0.48238246896 -0.83454517381 -0.26616067799 0.10165666221 -0.47577136409 -0.87367472903 
0.032717285228 -0.40020477616 -0.91584153454 0.32008235476 0.075102902041 0.94440819579 0.66773885132 -0.734026311 -0.12381518971 
0.64077238947 -0.054289009196 0.7658090156 0.64077238947 -0.054289009196 0.7658090156 
SiphonLabel 1 89 int
0 0 0 0 0 0 0 0 0 
0 0 0 0 0 0 0 0 0 
1 1 1 1 1 1 1 1 1 
1 1 1 1 1 1 1 1 1 
1 1 1 1 1 1 1 1 1 
1 1 1 1 0 0 0 0 0 
0 0 0 0 0 0 0 0 0 
0 0 0 0 0 0 0 0 0 
0 0 0 0 0 0 0 0 0 
0 0 0 0 0 0 0 0 
