# vtk DataFile Version 5.1
vtk output
ASCII
DATASET POLYDATA
POINTS 89 float
76.2156 68.3621 33.8981 76.5938 68.8328 33.4462 77.0967 69.2535 32.9677 
77.6467 69.5996 32.4397 78.071 69.845 31.9772 78.2971 69.9515 31.7513 
78.8227 70.0875 31.0946 79.357 70.1011 30.511 79.8301 69.8541 29.9171 
80.3139 69.4236 29.3039 80.6227 68.9642 28.6928 80.9335 68.4218 28.0618 
81.1449 67.7017 27.5508 81.2906 66.9783 26.916 81.3897 66.1913 26.3927 
81.3998 65.3885 26.0831 81.3689 64.5087 25.9502 81.2189 63.691 25.8631 
80.9526 62.7799 25.778 80.7297 62.0727 25.8574 80.4323 61.4339 25.9334 
80.1933 61.0682 25.923 79.6783 60.3555 25.6641 79.4792 60.1189 25.5428 
78.9751 59.7369 25.0937 78.3462 59.5497 24.4283 77.8697 59.7777 23.6218 
77.5981 60.2112 22.9964 77.3462 60.9935 22.532 77.2859 61.4215 22.3781 
77.2696 62.277 22.2215 77.3976 63.0306 22.1895 77.564 64.0021 22.2136 
77.6517 64.832 22.1657 77.6637 65.4945 22.0662 77.6779 66.4645 21.8534 
77.6632 66.8159 21.7913 77.5856 67.5065 21.6272 77.6182 68.4113 21.4005 
77.6807 69.2151 21.1138 77.8206 70.0663 20.7024 77.8501 70.7228 20.293 
77.8629 71.3103 19.7849 77.8631 71.6456 19.5135 77.8997 72.2795 18.9427 
77.9639 72.8209 18.1393 78.001 72.957 17.7609 78.0167 73.1597 16.9993 
78.003 73.2548 16.4497 77.9634 73.2494 15.8114 77.9652 73.3014 14.8652 
77.9752 73.2846 14.1758 77.9934 73.3205 13.3311 77.9982 73.3353 12.8776 
78.0394 73.4026 12.1582 78.068 73.5417 11.1965 77.9083 73.6453 10.2654 
77.6567 73.782 9.34844 77.2808 73.8923 8.56041 76.8164 73.9637 7.75831 
76.5245 74.0212 7.26463 75.974 74.2744 6.53509 75.4213 74.5457 5.86049 
74.7239 74.83 5.3134 74.2141 75.1105 5.05817 73.6362 75.5039 4.83076 
73.1481 75.853 4.72717 72.4596 76.3944 4.58854 71.8814 76.8698 4.51351 
71.2933 77.3247 4.48907 70.6511 77.7652 4.58628 69.9191 78.3151 4.80547 
69.5506 78.5953 4.89523 69.0608 78.9661 5.01026 68.4302 79.4342 5.11881 
67.6661 79.9813 5.21632 66.9687 80.6136 5.35868 66.4908 81.0366 5.49772 
65.8919 81.5784 5.51757 65.1077 82.1889 5.50496 64.533 82.5177 5.45965 
64.0437 82.8349 5.38754 63.3733 83.3805 5.13551 62.8644 83.8223 4.86884 
62.1537 84.3562 4.44679 61.5947 84.7052 4.05748 61.0998 85.1959 3.64126 
60.8112 85.6029 3.24085 60.4397 86.0585 2.74356 
LINES 2 89
OFFSETS vtktypeint64
0 89 
CONNECTIVITY vtktypeint64
88 87 86 85 84 83 82 81 80 
79 78 77 76 75 74 73 72 71 
70 69 68 67 66 65 64 63 62 
61 60 59 58 57 56 55 54 53 
52 51 50 49 48 47 46 45 44 
43 42 41 40 39 38 37 36 35 
34 33 32 31 30 29 28 27 26 
25 24 23 22 21 20 19 18 17 
16 15 14 13 12 11 10 9 8 
7 6 5 4 3 2 1 0 
CELL_DATA 1
FIELD FieldData 2
Length 1 1 double
68.889246909 
Tortuosity 1 1 double
0.75966426025 
POINT_DATA 89
FIELD FieldData 7
MaximumInscribedSphereRadius 1 89 double
1.8907060181 1.8617586731 1.7907761378 1.7699230716 1.7516141216 1.7403665803 1.7098472613 1.6999970416 1.5992530696 
1.5268278656 1.5095786604 1.508074624 1.5193040276 1.4455778009 1.4574800806 1.5129112595 1.5805985184 1.5306085531 
1.5160493388 1.5567993829 1.6192680142 1.6740785018 1.7905443415 1.857047534 1.9986900602 2.2011696915 2.3006603721 
2.3695428857 2.3321057745 2.325966614 2.3274913932 2.3536614954 2.334191004 2.2700460883 2.2325716085 2.186655355 
2.1791927078 2.1202511278 2.1420155614 2.2382966644 2.3927648442 2.5098018103 2.5188082409 2.5265014229 2.5799271931 
2.5750847917 2.532353639 2.4448771178 2.3938700437 2.2920858118 2.1329942305 2.0702016483 2.0595090642 2.0508504095 
2.019192092 1.8950959232 1.7914313746 1.8646259649 1.9712310263 2.0294735294 2.0587010849 2.13565625 2.1843129913 
2.1745756908 2.1781044808 2.1941120234 2.1795641947 2.1279462132 2.0865839501 2.0622193205 2.0458044647 2.0343733421 
2.024285221 2.0017646069 1.9877598059 2.0638693921 2.0651072349 1.9964761637 2.0043444607 2.0203167799 1.9900232746 
1.9865480268 1.9566163825 1.9806443749 2.0067135537 1.9969750911 1.9297675069 1.7996011267 1.6823879512 
Curvature 1 89 double
0 0.20423073933 0.14460494075 0.10495905552 0.13015120163 0.32769580972 0.1928588392 0.43626254917 0.22549950644 
0.22519609558 0.077525910597 0.2972849985 0.14075565069 0.14628794951 0.26488989574 0.25749996564 0.1770267781 0.11601333159 
0.23416466602 0.17872992288 0.34116233172 0.39843339468 0.17948472505 0.57144927288 0.38621592013 0.54676896791 0.40102896029 
0.49087958024 0.33408655429 0.30134277764 0.28732803193 0.075878846786 0.11438858225 0.16836609182 0.080617240002 0.10203962838 
0.16755644154 0.17611679088 0.11672859126 0.1440265354 0.17725129373 0.20317713887 0.059933576492 0.10521167821 0.272461884 
0.36438772816 0.18752032105 0.14757042283 0.30865141788 0.11353984886 0.098265702473 0.087681800753 0.022507028732 0.12944046011 
0.067738356416 0.21087158026 0.10776629012 0.19306169135 0.10320307026 0.032766337679 0.26848317774 0.053171977632 0.2289266077 
0.3061141594 0.19429931246 0.21710870475 0.062756523146 0.074580362617 0.098185526776 0.21986210605 0.13787044275 0.062099314535 
0.012271066976 0.068655249402 0.043694575085 0.13032280515 0.081661275818 0.26236363491 0.091916599829 0.18444009141 0.12421922084 
0.26041656567 0.12054337888 0.10879013082 0.13542702817 0.24501667724 0.27448005135 0.082373370814 0 
Torsion 1 89 double
0 0 0.82036175887 -0.15813258794 1.5615592455 -0.098367049023 -0.093941535983 0.1068252659 0.29871762498 
0.32444062791 -1.3784528826 0.25493657929 0.55434974633 -0.38029862017 -0.088698820305 0.23439892031 0.79938604479 -0.93383603106 
0.1646459138 1.7623990281 0.92388124408 0.23221134825 -0.66695079087 -0.077177216444 0.04859109183 0.025158603157 -0.43481178605 
-0.070785233918 0.33133916894 0.18228556554 0.079209886987 -2.177617017 -0.14941609497 -0.16951642383 -0.18283775956 -0.69680286543 
-1.2523065162 -0.052966724356 0.59088928282 0.56108663141 0.055857663752 -0.23859607044 1.8788364297 1.1735823502 0.098614669474 
0.25707891668 0.98754508453 -0.61273090717 -0.27312151524 -0.49663781263 0.43170388781 -0.30264137105 -1.1832448332 -0.37798852689 
-2.7363591928 -0.025797807587 0.13344569964 -0.24633282561 -0.26177127727 1.0086310794 -0.053605219536 -2.0658704466 0.38957523586 
0.4429143211 -0.053732839803 -0.15631754524 1.4447570525 -0.96807816167 -0.25413015839 0.2901937859 0.72608117067 0.80830791626 
1.3572377516 0.1052050961 -0.87498498345 -0.44121479554 -1.2129796049 0.19569161894 1.5370264813 -0.34650065484 -0.71835671689 
0.15936387882 0.86116727307 0.49357552863 -0.87159528807 0.24994335222 0.65818993193 0 0 
FrenetTangent 3 89 double
-0.56440701477 -0.5710980426 0.5960635431 -0.56440701477 -0.5710980426 0.5960635431 -0.63964745099 -0.46581751376 0.61144515888 
-0.6452177987 -0.39170924331 0.65594044009 -0.64374675491 -0.34830979407 0.68137390829 -0.63471025764 -0.20474191967 0.74513330027 
-0.64695544211 -0.091331817846 0.7570384105 -0.64283499978 0.1489697 0.75137952563 -0.56864609442 0.40262002324 0.717313555 
-0.46388950704 0.52084585938 0.71660736531 -0.36194015277 0.58519058305 0.72563855143 -0.29326754708 0.70899305088 0.64134468084 
-0.19023253152 0.76895249395 0.61034715204 -0.12758884374 0.78710599772 0.6034776179 -0.060717224498 0.88416753268 0.46320750513 
0.01197481 0.96703935244 0.25434522749 0.10511753313 0.98621602923 0.12778203287 0.23303470922 0.9676797368 0.096388543346 
0.28938396489 0.95720717333 0.0033687078733 0.35846591527 0.92737824691 -0.10710637113 0.47020823945 0.88067978582 -0.057509359205 
0.56140769859 0.80288253737 0.20050193801 0.57253904286 0.76109253467 0.30485602843 0.64121695823 0.56411563525 0.52020607699 
0.67117787943 0.33717524265 0.66017657479 0.60037265287 -0.022136418432 0.79941394575 0.42850550148 -0.37891883978 0.82024602898 
0.30531476084 -0.70905880381 0.63562450358 0.22390582936 -0.86790179964 0.44341024544 0.057948889896 -0.97033388756 0.2347212662 
-0.068760602341 -0.99084845433 0.11615214211 -0.16821101754 -0.98574071377 0.0045054187174 -0.13969995728 -0.99010814213 0.013030304276 
-0.066363587699 -0.99296638659 0.098049116921 -0.015719838588 -0.98206077165 0.18790829537 0.00033914977907 -0.97903497223 0.20369194418 
0.086251023924 -0.97359077935 0.21138059333 0.027436297832 -0.97091249463 0.23785747271 -0.053245786837 -0.95634882002 0.28733572807 
-0.11202059068 -0.91559316476 0.38618718764 -0.098236943904 -0.8740173319 0.47586049047 -0.02730807276 -0.80449039644 0.59333756934 
-0.010736191089 -0.76392420385 0.64521666514 -0.028706230304 -0.75452897873 0.65563859907 -0.055672016158 -0.64895076693 0.75879083331 
-0.074157676144 -0.49596506361 0.86517009585 -0.044316590871 -0.28456826963 0.95763089951 -0.001475315647 -0.22146757577 0.97516661978 
0.044714437173 -0.07526407768 0.99616059836 0.023884092445 -0.029407649683 0.99928211245 -0.007209833451 -0.021494257681 0.99974297456 
-0.018396357027 -0.012410083011 0.99975375162 -0.017720318348 -0.039057507506 0.99907982735 -0.039079047776 -0.069787255884 0.99679615115 
-0.041185397179 -0.12173793119 0.99170743628 0.068518499869 -0.12689763388 0.98954646464 0.21550065871 -0.12591759415 0.96835129244 
0.34221392723 -0.1347210136 0.92991390811 0.46488410228 -0.10051970208 0.87964683876 0.50224444071 -0.085571849692 0.86048124925 
0.55516448512 -0.20475631104 0.80614344105 0.59276706976 -0.28184331554 0.75444784213 0.68156966649 -0.30291985177 0.66610986566 
0.77600908147 -0.36303574818 0.51576637252 0.79537045635 -0.49278156541 0.35291948935 0.7951614353 -0.55386215997 0.24689066319 
0.78686481716 -0.59548788142 0.16198130321 0.77317601312 -0.62063822832 0.13041105124 0.7800225262 -0.62220450162 0.066531321861 
0.80763422518 -0.58774552012 -0.047771978113 0.79745420099 -0.57476366427 -0.18361243846 0.77900861884 -0.58763725914 -0.21869618982 
0.78274903567 -0.59365727294 -0.18674846572 0.79047764081 -0.59183014031 -0.15774087738 0.80277007991 -0.58437294841 -0.11861052212 
0.77193124733 -0.62295364639 -0.1266921617 0.73255171456 -0.65772827034 -0.17538958889 0.74032804875 -0.66331009666 -0.10924328767 
0.7682914914 -0.64008751588 -0.0040194855718 0.82207683065 -0.56829715965 0.035043156777 0.85100777643 -0.51668830514 0.093909316798 
0.7828889842 -0.58241083198 0.21882061422 0.72653565551 -0.60829640538 0.31956442931 0.71449005437 -0.57160276976 0.40345289167 
0.72703438102 -0.50555240676 0.46458344012 0.67130081425 -0.53484882727 0.51311981911 0.54238367748 -0.62146963369 0.56532772867 
0.46843996937 -0.61216679192 0.6370367446 0.46843996937 -0.61216679192 0.6370367446 
FrenetNormal 3 89 double
0.74170599814 -0.66780908509 0.062475901018 0.74170599814 -0.66780908509 0.062475901018 0.31451582813 -0.88443076952 -0.34476369848 
-0.34356284608 -0.61809281944 -0.70705433833 0.64227101582 -0.73000162532 0.23363554795 -0.30807514318 -0.81727325134 -0.48698474185 
0.37199595446 -0.90444841617 0.20878714605 -0.24585590061 -0.96913556376 -0.0181971203 -0.26766860559 -0.91513590061 0.30146276882 
-0.87586495109 -0.39101591886 -0.28278461528 -0.36952139348 -0.80471046095 0.46464504065 -0.44693641341 -0.69469558015 0.56360082797 
-0.63051181362 0.3808412766 -0.67632445981 -0.32457001518 -0.60808357168 0.72449201175 -0.39096858477 -0.44804998322 0.80398680229 
-0.208708857 -0.24634379596 0.94644352563 -0.95290514498 0.063134040937 0.29662413512 -0.96531485606 0.21818121324 0.14340218566 
-0.10246256651 0.027477149393 0.9943572943 -0.93252063186 0.36107643544 0.0053924886593 -0.6681876561 0.31267059555 -0.67510173672 
-0.029876735597 0.26179358457 -0.96466133941 -0.34919668288 0.56278736612 -0.74922096688 -0.12273799934 0.74458601743 -0.6561455983 
-0.061822410314 0.91292779473 -0.40341149115 0.36865991265 0.89472823539 -0.25209373971 0.45176992146 0.8760419152 0.16868461957 
0.17323322444 0.69771607082 0.69511332492 0.5754950497 0.48491284368 0.65853244552 0.56996387834 0.22518826365 0.79020973374 
0.80334667318 0.014040617515 0.59534610417 0.021604051972 0.00088291560082 0.99976621537 -0.61293449481 0.076132233196 -0.78645736575 
-0.68971940664 -0.025357638256 -0.72363259344 -0.053727035179 -0.18683037859 -0.98092192112 -0.80217086702 0.12135699142 0.5846318335 
-0.75607750272 -0.20213216961 -0.62248646242 0.99611342842 0.0066316066193 -0.087829718915 0.36643781602 -0.28638276981 -0.88527297267 
0.56445164639 -0.37847794285 -0.73358624965 -0.70994888157 -0.27353281994 -0.64896254281 -0.13870325893 -0.58476781994 -0.79925465449 
-0.43687435057 0.58399599255 0.68417065306 0.6265491921 -0.52464931053 -0.57634990313 0.094359227446 -0.75998772164 -0.64305131922 
0.10798503744 -0.86645133537 -0.48744365328 -0.64697809315 -0.72222679993 -0.24455632573 -0.44748735442 -0.87193651065 -0.19870024918 
-0.20443005943 -0.97674586061 -0.06462100728 0.71064647465 0.70353944976 0.0037189653789 0.15731314709 -0.98734433569 -0.020093196444 
0.10445720977 0.99442705647 0.01426606744 -0.74870194679 -0.66174973148 -0.0391495563 0.60802306357 0.78996467156 0.07914399442 
-0.47809306077 0.87394710109 0.087427053872 -0.98439791698 -0.16972959284 0.046396189017 -0.91365260599 0.32401833079 0.24546086627 
-0.93857945491 -0.095620346244 0.33154993018 -0.7777221436 -0.52117443359 0.35146191419 -0.27271645135 0.92863306911 0.25152805035 
-0.35210366463 0.82023550481 0.45081784126 -0.49784345846 0.60812395571 0.61833416965 -0.6893877338 0.039429327739 0.72331865772 
-0.24214006715 0.58359960257 0.77509979471 0.1263028646 0.7042207646 0.69865635408 -0.11153215658 0.26661713746 0.95732746752 
0.5374268172 0.79023728506 0.29444430622 0.12788012457 0.3539831662 0.92646780397 -0.30094492873 -0.27979389103 0.91167292842 
-0.16424763374 -0.30202194684 0.93904497147 0.34822352892 0.1898870369 0.91797782497 -0.095992297242 0.23290629866 -0.96775003741 
-0.32925141976 -0.14039317921 -0.93374689173 -0.23849208009 -0.060199848359 -0.96927679534 -0.34842614765 -0.29828145432 -0.88860980956 
0.61850914439 0.68994173083 0.37606760876 0.0094880526755 -0.24776540821 0.96877359551 -0.043818956705 0.11454407069 -0.99245128591 
-0.57275067611 -0.68463676953 -0.45080944625 -0.51854363293 -0.77268388828 -0.36615858522 0.42468492487 0.57191644208 -0.70182212695 
0.47528391995 0.33289535863 -0.81442364629 0.43010442218 0.039901642043 -0.90189691483 -0.21120121121 -0.7259621068 -0.65450215269 
-0.073920230475 -0.73034316558 -0.67906896559 0.63231951997 0.77444945609 -0.020001615357 0.79715087595 0.1682195744 -0.57987296519 
-0.53915265563 -0.76928943621 -0.34279465758 -0.53915265563 -0.76928943621 -0.34279465758 
FrenetBinormal 3 89 double
0.36237678459 0.47736574197 0.80050297587 0.36237678459 0.47736574197 0.80050297587 0.70137788124 -0.028218040423 0.7122308684 
0.68239179584 -0.6815608082 0.26422774588 0.41602651091 0.58802883805 0.69364546264 0.70868370589 -0.53865125914 0.45565581971 
0.66563328177 0.41669120645 0.6191128917 0.72547780062 -0.1964288358 0.65961933968 0.77781433317 -0.020576692939 0.62815719595 
0.13291769145 -0.75883209076 0.637578815 0.85583483545 -0.099965271689 0.50749746687 0.84512838563 -0.12135445906 0.52060648005 
-0.75250676863 -0.51349000389 0.41238523139 0.93721683308 -0.10343364152 0.33305568544 0.91839914219 -0.13228373557 0.37288608037 
0.97790450297 -0.064417583108 0.19887975777 0.28446808062 -0.15294455391 0.94640682296 0.11773721994 -0.12646297948 0.98495942143 
0.95171337247 -0.28809622279 0.10602935009 0.043674463381 0.097945877503 0.9942329437 -0.57656696731 0.355865443 0.73547965212 
-0.82699986496 0.53557795909 0.1709604431 -0.74179560599 0.32250354139 0.5879887284 -0.75748016211 0.35688263156 0.54667960571 
-0.73871391198 0.22994716208 0.63358192754 -0.70967777652 0.4460620627 0.54533117437 -0.7824876825 0.29828019659 0.54657291468 
-0.93636165383 -0.10211707626 0.33585555819 -0.78655681762 0.10773114787 0.60804800175 -0.81962375731 0.087990866359 0.56610467574 
-0.59152861491 0.13424679367 0.79502936809 -0.98551424065 0.16826902769 0.021147477479 0.7776858151 -0.11785478337 -0.61750710363 
0.72102913557 -0.11564923382 -0.68318536312 0.99843191674 -0.025515689863 -0.049826270231 -0.5970944524 -0.16359402123 -0.78531217432 
0.64877389802 -0.10613001636 -0.75354419172 0.083697594304 0.23934274495 0.96732092045 0.92891776448 0.058153620662 0.36569104888 
0.81782988827 0.13580722888 0.55920539199 0.69736797203 -0.40158871991 -0.59363659897 0.98995741076 -0.10412395877 -0.095616557591 
-0.8994584682 -0.27453322469 -0.34000878301 0.77885304276 0.3942450015 0.48781022598 0.99398036339 0.035798953391 0.10354454174 
0.99138280737 0.057277736613 0.11781082349 0.7612196705 -0.63040411594 -0.15210280684 0.89428904224 -0.43666787639 -0.097817557996 
0.97785938146 -0.20075567836 -0.059060881292 -0.70314375358 0.71004748628 0.037701843831 0.98752245142 0.15712784501 0.010499917539 
-0.99435922351 0.10469393102 -0.016997512524 0.66266989157 -0.74870675434 -0.017516015998 -0.79295698634 0.60916792152 0.01156119398 
-0.87734302773 -0.47052772566 -0.094195918604 0.16206775193 -0.97728647582 -0.13654738355 -0.34467141114 -0.93763366023 -0.045218774319 
0.044251947216 -0.98625909267 -0.15916898972 0.42312059605 -0.84750988151 -0.32046210687 -0.82059506392 -0.36099595773 0.44306394524 
-0.75353527045 -0.53412411454 0.38327017423 -0.63307115862 -0.74212505683 0.22016200432 -0.24537184478 -0.95220002705 -0.18195539638 
-0.58238998391 -0.72637218382 0.3649730911 -0.59281820448 -0.5111158807 0.62235611425 -0.59605274084 -0.78876613123 0.15023022455 
-0.30334168138 -0.14463476895 0.94184107361 -0.62116465327 -0.69964570148 0.35305858711 -0.54863194265 -0.73114768461 -0.40549482709 
-0.56634766101 -0.75055842358 -0.34045907194 -0.49275467652 -0.79598344421 0.35157244675 0.61962169962 0.77487876969 0.12502736359 
0.52810742255 0.79237667653 -0.30535512561 0.56415124489 0.80381158444 -0.18873343533 0.48390021536 0.75467637512 -0.44306224213 
-0.14686247884 -0.36865859885 0.91789010769 -0.68064525441 -0.71134086407 -0.17526041412 0.67081612925 0.73952645087 0.055734631945 
0.28580561097 0.34865522487 -0.89261116221 0.2351641666 0.28283908343 -0.92989239573 0.30891500294 0.63713795885 0.70613507373 
0.40148478657 0.74160522044 0.53743061241 0.53586950585 0.79270634044 0.29062093961 0.66700675453 0.38242553928 -0.63941590246 
0.68261029024 0.4593643701 -0.56835514174 -0.3866875243 0.33788277838 0.85808390418 0.26527424936 0.76516512544 0.58664461426 
0.69991314391 -0.18288133368 -0.69041727149 0.69991314391 -0.18288133368 -0.69041727149 
SiphonLabel 1 89 int
0 0 0 0 0 0 0 0 0 
0 0 0 0 0 0 0 0 0 
0 1 1 1 1 1 1 1 1 
1 1 1 1 1 1 1 1 1 
1 1 1 1 1 1 1 1 1 
1 0 0 0 0 0 0 0 0 
0 0 0 0 0 0 0 0 0 
0 0 0 0 0 0 0 0 0 
0 0 0 0 0 0 0 0 0 
0 0 0 0 0 0 0 0 
