# vtk DataFile Version 5.1
vtk output
ASCII
DATASET POLYDATA
POINTS 104 float
115.038 82.0002 36.1585 114.793 82.3295 35.3672 114.456 82.5643 34.5873 
113.876 82.8278 33.9138 113.159 82.9677 33.3072 112.536 82.9518 32.7951 
111.748 82.8826 32.221 111.103 82.7036 31.8318 110.556 82.4482 31.6299 
109.828 81.9765 31.3897 109.396 81.4719 31.2378 109.066 81.0279 31.0782 
108.65 80.2629 30.7277 108.381 79.663 30.4422 108.197 78.9157 30.0838 
108.182 78.0951 29.7574 108.243 77.4126 29.5112 108.306 77.0709 29.4118 
108.51 76.4367 29.2396 108.762 75.9393 29.1649 109.16 75.3148 29.0295 
109.586 74.7664 28.8997 110.214 74.184 28.7783 110.878 73.5758 28.6162 
111.429 73.0782 28.3979 111.858 72.6399 28.1166 112.198 72.3513 27.9252 
112.892 71.9476 27.5731 113.577 71.7342 27.1319 114.244 71.688 26.6044 
114.83 71.8657 26.2112 115.26 72.1856 25.9855 115.835 72.9348 25.7618 
116.207 73.591 25.7375 116.412 74.2365 25.6878 116.51 74.9411 25.6131 
116.547 75.8739 25.5524 116.611 76.6803 25.6235 116.671 77.6407 25.6759 
116.699 78.2764 25.7159 116.561 78.9724 25.7354 116.453 79.7873 25.6504 
116.436 80.6334 25.4344 116.407 81.0537 25.2832 116.253 81.8086 24.9641 
116.04 82.6219 24.4918 115.854 83.2828 23.9617 115.643 83.9834 23.4827 
115.484 84.5913 23.0088 115.228 85.2243 22.3755 115.053 85.6999 21.8181 
114.879 86.0468 21.3133 114.767 86.4304 20.7944 114.688 86.9834 19.9711 
114.653 87.3732 19.3125 114.57 87.5949 18.8766 114.489 87.8814 18.3392 
114.506 88.0328 17.947 114.629 88.376 17.0482 114.753 88.5824 16.5388 
115.04 88.8939 15.8844 115.385 89.2365 15.1762 115.851 89.4252 14.5505 
116.517 89.6849 13.9011 117.104 89.9324 13.4517 117.629 90.1598 13.026 
118.243 90.4283 12.651 119.07 90.8073 12.2496 119.55 91.0117 12.0832 
120.149 91.2601 11.9199 120.806 91.5258 11.8142 121.66 91.8483 11.8694 
122.448 92.186 11.9246 123.045 92.4394 12.013 123.673 92.7094 12.0555 
124.21 92.9263 12.1292 124.613 93.0936 12.2289 125.299 93.3559 12.3932 
125.809 93.5441 12.4966 126.368 93.7901 12.643 126.905 94.0257 12.7696 
127.334 94.2037 12.8545 127.796 94.4481 12.9498 128.583 94.7882 13.1343 
129.121 94.9813 13.2279 130.036 95.3087 13.3074 130.854 95.6579 13.2672 
131.736 96.0878 13.2312 132.468 96.5296 13.1869 133.198 97.047 12.9294 
133.767 97.5106 12.6351 134.087 97.7954 12.401 134.457 98.1594 12.0219 
134.758 98.5747 11.6599 135.202 99.1542 11.0724 135.612 99.7346 10.4713 
135.89 100.301 9.82419 136.07 100.686 9.27073 136.107 101.062 8.62774 
135.963 101.507 7.78707 135.752 101.891 6.96948 135.522 102.108 6.52902 
135.176 102.398 5.94382 134.814 102.712 5.21107 
LINES 2 104
OFFSETS vtktypeint64
0 104 
CONNECTIVITY vtktypeint64
103 102 101 100 99 98 97 96 95 
94 93 92 91 90 89 88 87 86 
85 84 83 82 81 80 79 78 77 
76 75 74 73 72 71 70 69 68 
67 66 65 64 63 62 61 60 59 
58 57 56 55 54 53 52 51 50 
49 48 47 46 45 44 43 42 41 
40 39 38 37 36 35 34 33 32 
31 30 29 28 27 26 25 24 23 
22 21 20 19 18 17 16 15 14 
13 12 11 10 9 8 7 6 5 
4 3 2 1 0 
CELL_DATA 1
FIELD FieldData 2
Length 1 1 double
78.416035991 
Tortuosity 1 1 double
0.85978944006 
POINT_DATA 104
FIELD FieldData 7
MaximumInscribedSphereRadius 1 104 double
1.3414709777 1.4223373171 1.5277910078 1.5334536407 1.5567075677 1.5817763495 1.6621638321 1.6943769122 1.659383221 
1.6048542825 1.5903999389 1.5971291645 1.5968935397 1.6148685421 1.6411152495 1.7114842763 1.7528802716 1.7665580741 
1.774236214 1.7476117391 1.7441983194 1.7237681906 1.6561628199 1.6581528936 1.6932872332 1.6750063638 1.6793299243 
1.6878604958 1.6666113227 1.6612082154 1.6476641312 1.6694064974 1.6979270106 1.7183112554 1.7037526977 1.7474751764 
1.877615895 1.9083548328 1.8834437455 1.8434562876 1.8177288486 1.882603361 1.9238532952 1.9065296524 1.8644659359 
1.9133954312 1.9061278292 1.8621963229 1.8840092171 1.8473908779 1.8082691749 1.776638856 1.7706979793 1.7505120275 
1.7163115568 1.6594556363 1.5882247334 1.595888991 1.6646748423 1.7376384098 1.7515187205 1.8030479186 1.8581362658 
1.8103408094 1.7866110988 1.7740863042 1.7752423945 1.8024873938 1.7893329765 1.7668791684 1.7580774483 1.8035229405 
1.8668889607 1.8719811331 1.8403932261 1.8434057316 1.8399356661 1.8237076818 1.8255805948 1.8323963354 1.8084639377 
1.7847562101 1.7462494743 1.7324004782 1.7468013246 1.7498974419 1.7646730634 1.7925492863 1.835602591 1.8586223396 
1.8599006177 1.8754538608 1.8394731009 1.7789404513 1.6816360738 1.6183176357 1.5445695362 1.5889221522 1.7111577398 
1.854975521 1.7995613326 1.7725011614 1.748719429 1.7902824393 
Curvature 1 104 double
0 0.16871636409 0.32864765552 0.22436765647 0.19249309937 0.087955687307 0.21079716039 0.36449121848 0.1858599129 
0.36409467717 0.137624551 0.2229449868 0.091511019233 0.21364161423 0.24786511371 0.1318133536 0.2029227182 0.24380991685 
0.31558828457 0.16414167536 0.12576919251 0.21305108046 0.042433447346 0.12845299479 0.21454121235 0.15043934047 0.24019821496 
0.28509819334 0.26621407608 0.40131679913 0.54763993496 0.40736260257 0.28502351617 0.29876248647 0.24775307778 0.1279923231 
0.18136622859 0.042302657517 0.025596020141 0.36266750238 0.18982441998 0.21793030458 0.16019340883 0.20910373569 0.1435571237 
0.1606066711 0.091113916379 0.088523195676 0.16591791911 0.10475164115 0.15755111627 0.1709696168 0.1234683873 0.075670750208 
0.21969979412 0.074333055604 0.41129413002 0.12377794338 0.12890715539 0.24410912296 0.045722131016 0.30165891328 0.17782067047 
0.14403601466 0.036062609615 0.17497715117 0.10962065847 0.14233192266 0.10353356145 0.14337820286 0.25929005605 0.049301918021 
0.094391889492 0.11016563956 0.10766685511 0.19212244555 0.047071736137 0.052014231186 0.12837862125 0.036797583428 0.069324422596 
0.18106412029 0.11757091067 0.11031639505 0.10367975454 0.15092907059 0.054402482271 0.098488244895 0.27144702304 0.13884176231 
0.19624677246 0.24481568564 0.21410185137 0.08505150698 0.041774542638 0.16516897937 0.14851143803 0.31359658488 0.24287882453 
0.097165793511 0.28969777198 0.07299697806 0.09690848354 0 
Torsion 1 104 double
0 0 -0.023898330235 -0.82802473874 -0.25975306334 0.3593381717 0.16835289339 -0.10084243381 -1.054851572 
-0.28230825915 -1.5862964167 0.075297870869 0.57551077013 0.29379745675 0.16646184855 0.25578183486 -0.33069122914 0.13941640622 
-0.12645467164 -1.087061375 0.67391450992 -0.019381040305 -2.9441342551 -0.42684303995 0.21502008292 0.45232310206 -0.69083754056 
-0.33048565522 0.51429157578 0.27772501092 -0.037725302035 0.094769420895 -0.2788693877 -0.6125469951 0.19526913869 1.462305857 
0.37213946307 -0.19346521219 -3.5796624617 -0.40463946524 -1.305139285 0.29785591988 1.5587296588 -0.012736897168 -0.78974572299 
-0.046154730825 0.43668623125 1.1845591753 -0.034623741026 -0.09823055077 -0.21320922936 -0.16136437886 0.78336255433 2.1389036673 
0.27526434963 4.395583396 -0.00099230688467 -1.4529333097 -0.32438647208 -0.02671544722 3.2278786465 -0.25074553796 -0.92263326082 
-0.22354018834 -0.12417942698 -0.011665164492 0.15861850984 0.15349664807 -0.15538826558 0.0017497975675 -0.10970414482 -1.8416422793 
0.33209979951 -0.21020327258 -0.82056065128 -0.0032956418447 4.0699874006 1.5991524681 -0.0030801962018 -2.8830281548 1.8447652037 
0.57263175742 0.99356182815 1.1360205627 0.93506523549 0.34861021515 1.0968968322 -1.4133265738 -0.11733233047 0.049054654842 
-0.17093276901 0.72701230232 0.5936143672 -1.1209290575 0.87043851495 -0.37734829039 0.36725160269 0.30413131696 0.031352048603 
0.4812624906 0.13562475687 -0.59870682358 0 0 
FrenetTangent 3 104 double
0.32914668677 -0.3190702834 0.88873877649 0.32914668677 -0.3190702834 0.88873877649 0.5123233545 -0.27850706078 0.8123783586 
0.69499256476 -0.21610791696 0.68577161152 0.76562221125 -0.070878025832 0.63937386176 0.79141163351 0.047755901192 0.60941529374 
0.82153771484 0.14225632572 0.55212219743 0.85172524752 0.31031030539 0.42222223662 0.83186051394 0.47420726582 0.28833236793 
0.74058096193 0.62355838046 0.25042920155 0.60653866339 0.75538176174 0.24801057203 0.49435274454 0.80090309548 0.33788991643 
0.41410523332 0.82503759986 0.38448642961 0.2903087772 0.86336203061 0.41270669728 0.11550125616 0.91027498026 0.39756624622 
-0.028626834347 0.93411759478 0.35581571562 -0.1138930855 0.94134833644 0.31763449836 -0.25493919537 0.93154361058 0.259292322 
-0.36669365451 0.9089511805 0.19835199827 -0.49501073393 0.85404540079 0.15990880742 -0.56519891806 0.8046537012 0.18188623965 
-0.67300123348 0.72203800812 0.16040715248 -0.72597662522 0.66901273765 0.15931069174 -0.72032643174 0.65591887891 0.22561085086 
-0.67849324664 0.64803804699 0.3459676342 -0.66362529169 0.62713495083 0.40780292503 -0.76142091614 0.50991790854 0.40027729765 
-0.80811765967 0.36164339461 0.46492999824 -0.80325239883 0.1541870138 0.57533637861 -0.80307980611 -0.084261768203 0.58988369992 
-0.78791388775 -0.38587306061 0.47988924409 -0.65498044079 -0.69661084847 0.29280359967 -0.55293797223 -0.82054047615 0.14482032271 
-0.4045910129 -0.91302155829 0.051939834182 -0.21776581927 -0.97188363383 0.089555849914 -0.081808245773 -0.99325956465 0.082114847362 
-0.05817749511 -0.99828815509 -0.0060115285218 -0.069802139405 -0.99513168233 -0.069574392952 -0.054531501886 -0.99684385979 -0.057694319465 
0.082512547081 -0.99559778483 -0.044460436635 0.16060831202 -0.98609171564 0.042756267967 0.073590016908 -0.98130389875 0.17784028709 
0.034279418844 -0.95986998866 0.2783424623 0.14343942529 -0.91882232994 0.36768282158 0.20461207453 -0.87387939143 0.44098606349 
0.2183615645 -0.80697931149 0.54872818223 0.2284168345 -0.78216417769 0.57969384062 0.22271258391 -0.78808889584 0.57385973654 
0.24208236297 -0.72396362896 0.64596655755 0.25633099076 -0.65865052651 0.70744180475 0.25126526288 -0.59260146267 0.76530338697 
0.22129905549 -0.5664354153 0.79383729337 0.11611803007 -0.56837645961 0.81453348811 0.065098353653 -0.53565382123 0.84192469268 
0.093703479855 -0.48555439561 0.8691700563 0.14752840187 -0.45778680924 0.87673633889 0.061713141923 -0.42535975739 0.90291780629 
-0.10060521245 -0.35591249104 0.92908820354 -0.16156692083 -0.35879242866 0.91932808248 -0.30721664613 -0.38691754551 0.86943242712 
-0.38544208098 -0.39934493529 0.83184014382 -0.49189823959 -0.32217541977 0.80885049347 -0.64210848904 -0.2543068609 0.72320447233 
-0.71940205907 -0.29111586135 0.63064429964 -0.74517960876 -0.31807562258 0.5861188011 -0.77045150925 -0.33564796787 0.5419823923 
-0.81850572471 -0.36796774574 0.44118943404 -0.84881252055 -0.37887302079 0.36874454446 -0.88753325395 -0.37244542162 0.27123630111 
-0.90785135991 -0.37153082107 0.19434700228 -0.93142804739 -0.36259487456 0.03109259515 -0.92602659915 -0.37229158682 -0.062239151978 
-0.91557703316 -0.39077606775 -0.094935563515 -0.91512046009 -0.39113955284 -0.09779771844 -0.91886438382 -0.38380140982 -0.091568127515 
-0.91251801641 -0.37281392104 -0.168287403 -0.90736699703 -0.35813018158 -0.22006341298 -0.9158716435 -0.34514620927 -0.20506883446 
-0.9054866717 -0.36783436911 -0.2116406489 -0.89265295911 -0.39209519561 -0.2223332008 -0.90114968312 -0.38596698416 -0.19737967411 
-0.88894956944 -0.4212992545 -0.17965411534 -0.88766728259 -0.41535687541 -0.19881011409 -0.91058367638 -0.36648286103 -0.19112216219 
-0.93559994939 -0.33502747925 -0.11139714021 -0.93132145638 -0.36358501679 -0.021125350945 -0.90829268346 -0.41635008023 0.040706410551 
-0.87902608463 -0.47476434366 0.043725970998 -0.82396008718 -0.54052335463 0.1700713904 -0.75580347595 -0.57071182688 0.32101264212 
-0.69650636309 -0.58618256616 0.41384645137 -0.6113614692 -0.57510503834 0.54359115965 -0.52928640868 -0.61478216855 0.58472111542 
-0.47655391903 -0.63598726504 0.60697327863 -0.45730164328 -0.62112380869 0.6364592849 -0.37576513239 -0.62701208046 0.68239022285 
-0.28617104079 -0.59508800701 0.75098362121 -0.15183848594 -0.53032309073 0.83408782129 0.062743460042 -0.48339045117 0.87315344009 
0.18809364663 -0.43936205764 0.87839726912 0.30191673826 -0.4104836179 0.86043563536 0.44976926684 -0.39564471276 0.80073270688 
0.43871851548 -0.37439942643 0.81691562212 0.43871851548 -0.37439942643 0.81691562212 
FrenetNormal 3 104 double
-0.72089596058 -0.69280272203 0.018259309142 -0.72089596058 -0.69280272203 0.018259309142 -0.83479431662 0.060558830293 0.54722123224 
-0.62250423718 -0.65814939343 0.4234711922 -0.10403458878 -0.99447037506 0.01433448491 -0.43728998045 -0.6523872002 0.61900598868 
-0.15388227787 -0.87711402292 0.45496289449 -0.11538628422 -0.67493310226 0.72880128491 0.36672873379 -0.85962473392 0.35574619134 
0.60645503622 -0.78073353836 0.15055706931 0.69459132172 -0.35167333812 -0.62758964224 0.78601768874 -0.24586744202 -0.56720842196 
0.89578274341 -0.29443260091 -0.33299057063 0.95680304977 -0.25477814597 -0.14005720362 0.94131018392 -0.22810512535 0.24880351573 
0.95184821678 -0.08322069094 0.29505811091 0.81989288633 -0.091500130412 0.56515783731 0.95774528689 0.20633689878 0.20037227761 
0.77947477431 0.18377358307 0.59887089291 0.74108278963 0.51106699082 -0.43543866366 0.81290936858 0.58078009789 -0.043276279508 
0.73428696928 0.62617988103 0.26214767468 -0.0079737803727 0.2234467586 -0.97468352038 -0.12650765974 0.19557107077 -0.97249563922 
-0.48540167352 -0.041995088169 -0.87328210099 0.74225675975 0.61982717 0.25469429113 0.5431555937 0.83888318469 -0.035454244785 
0.091682793402 0.85693527149 -0.50720430387 -0.13444924648 0.89405162751 -0.42731146425 0.080309712141 0.96561320835 0.24726803675 
-0.17324443823 0.88674165159 0.42857392357 -0.50154747949 0.69059788535 0.52108030722 -0.40249919276 0.41522196737 0.81583400128 
-0.90098534254 0.38824201768 -0.19363250819 -0.96295788068 0.19899825298 -0.18196652259 -0.9203083103 0.10690938396 0.37630173746 
0.25020640084 -0.020410344531 0.96797736276 -0.45531918281 0.093838120463 -0.8853693291 -0.91246655468 0.026284181603 0.40830616991 
-0.98630329014 -0.075186194228 -0.14680891001 0.43866200832 0.032507016783 -0.89806399344 0.61024756732 -0.096733158612 -0.78628277522 
-0.43198006185 -0.26537660175 -0.86195619692 -0.90455105933 -0.27245060797 -0.32796043555 -0.27101191216 -0.48348179314 -0.83234481988 
0.037078034685 -0.55503079129 -0.83100303253 -0.33630505113 0.49538974114 0.80092940822 0.54426767358 -0.38785227022 -0.74387049678 
-0.51846721814 -0.65926819585 -0.54457064708 0.48540459945 -0.54519912527 -0.68347661894 -0.37112354677 -0.78922462179 -0.48927682287 
0.92872693928 0.37072180501 0.0056227707458 0.89236074847 -0.3003977262 -0.33682859245 0.51694431889 -0.70357217517 -0.48760103107 
-0.88409683941 -0.44202293125 -0.15161961217 0.87396335606 0.47535075773 0.10114202583 0.81672139812 -0.49848368032 -0.29065474072 
0.99409254067 -0.074184072913 0.079225904264 0.96677046435 0.12947308142 0.22043500277 0.8920097608 0.20123708919 0.40474957761 
0.91164292785 -0.025467329607 0.41019335345 0.72773182389 -0.66213806405 0.17882834405 0.69164361275 0.21470823507 0.68958646067 
0.51326425481 0.38893649056 0.76504131329 -0.63131542789 0.053351451366 -0.77368886069 0.48605228652 0.24083223701 0.84009107149 
0.3334429905 0.32108535151 0.8864084663 0.42192627513 -0.065155936285 0.90428586317 0.30437662118 -0.032014677591 0.95201362012 
0.21197536988 -0.0067725748856 0.97725154121 0.068645898564 -0.091146337304 0.99346871406 -0.37667513785 0.92207222467 0.088874366458 
-0.070167950885 -0.077213722363 0.99454235694 0.066054269548 0.0938387026 -0.99339374438 0.047908528997 -0.33887294229 0.93961156966 
-0.19421634091 0.032818862664 0.98040957522 0.39638696623 -0.9032311928 -0.1644712296 0.29819841903 -0.24283287875 -0.92309798824 
-0.4166146704 0.67556006668 0.60831801939 0.22179943093 0.047310320238 -0.97394391319 0.35918661026 -0.40984384856 -0.8384587043 
-0.42667271311 0.90435578454 -0.0095399608101 0.32145926988 -0.86807215321 0.37830500212 0.40260656816 -0.6818304033 -0.61074974614 
0.10795626146 0.028938801766 -0.9937343666 -0.13730998102 0.40426014959 -0.90427855253 -0.40463215504 0.89907231019 0.16715800956 
-0.4749531096 0.8639719487 -0.16724836486 -0.30144336546 0.16397614417 -0.93927829825 -0.53610690023 0.25785382526 -0.80380395391 
-0.50265604575 -0.013001192387 -0.86438872544 -0.58852312408 -0.12879397303 -0.79815577736 -0.70499711862 0.7021170008 0.10005388508 
-0.090385375281 -0.65131087956 -0.75340866872 -0.86232761689 0.13474304357 -0.48809363175 -0.8842095883 0.022128990717 -0.46656587073 
-0.41246903169 -0.63091863301 -0.65712325816 -0.9277097617 -0.21469414453 -0.30538667679 -0.97746282697 -0.20645865985 -0.044059546859 
-0.84080793697 -0.53426611373 -0.087187916872 -0.95054888405 -0.060675074594 0.3045904699 -0.88983138047 -0.12134618906 0.43985817797 
0.68362035005 -0.45098658888 -0.57382428814 0.68362035005 -0.45098658888 -0.57382428814 
FrenetBinormal 3 104 double
0.60989464058 -0.64669818509 -0.45805019898 0.60989464058 -0.64669818509 -0.45805019898 -0.20160166014 -0.95852305406 -0.2014704084 
0.35982469291 -0.72120506387 -0.59193702893 0.63482236412 -0.077491796817 -0.76876237385 0.42713592608 -0.75637974254 -0.49542364269 
0.54899547144 -0.45873099807 -0.6986915226 0.5111263133 -0.66945710978 -0.53905201049 0.41655506378 -0.19019144535 -0.8889933031 
0.28939959894 0.040374351285 -0.95635651506 -0.38685106385 0.55292337379 -0.73798509275 -0.37120285149 0.54598849128 -0.75106924476 
-0.16152440169 0.48230944666 -0.86098052552 -0.015771424557 0.43553886214 -0.90003175596 0.31716651379 0.34549603774 -0.88319753761 
0.30523020258 0.34712913408 -0.88675582192 0.56107398801 0.32479383555 -0.76138357243 0.13315394134 0.29941874655 -0.94478486552 
0.50789254765 0.37421253539 -0.77589312305 -0.45360850104 -0.097041147391 -0.8859019943 -0.14045832655 0.12339732187 -0.98236681512 
0.088836853202 0.29421059026 -0.951602933 -0.68767314799 -0.70886776125 -0.15688256309 -0.6820012051 -0.72905581444 -0.057896249211 
-0.5513910859 -0.76044927656 0.34305213623 -0.093039641198 0.47171605099 -0.87682814302 -0.35386464856 0.19041724971 -0.91570796737 
-0.58184200048 -0.36725467405 -0.72566100272 -0.58026630429 -0.42059250128 -0.69741878665 -0.59043473403 0.24594935715 -0.76869742979 
-0.59091291247 0.2545412038 -0.76552642374 -0.56519974169 0.19444250191 -0.80171152259 -0.72955739918 0.39281553536 -0.55985887194 
0.15662542834 -0.12513900191 -0.97969827263 0.15902882753 -0.12586460031 -0.97921802189 -0.38254414768 -0.044786391403 -0.92285110079 
-0.966443033 0.054810375374 0.25096550901 0.88758780022 -0.030122117592 -0.45965264596 -0.40550105042 0.074909685581 -0.9110199982 
0.14281981457 0.055965052032 -0.98816517522 0.88418358533 0.16299209245 0.43778186946 0.78878540554 0.16638916529 0.59171972223 
0.90123146173 -0.090691036578 -0.42374165275 0.4015127798 -0.28554542936 -0.8702018705 0.94057771738 0.050795324017 -0.33575793756 
0.97516329222 0.20180488486 -0.091276185032 -0.91363267362 -0.37789972679 -0.14989040725 0.80880888006 0.47800262421 0.34255172864 
0.82011454886 -0.20308153506 -0.53494861143 0.83586888805 0.51859174476 0.17996056306 0.89394243702 -0.16108383781 -0.41823308871 
-0.29747773077 0.7360137659 0.60810421484 0.43612945061 0.76596958573 0.4723152507 0.85354014289 0.46697021117 0.2311018095 
0.45781266519 -0.75422321441 -0.47069619336 -0.4630587683 0.75131411168 0.47021663378 0.5737226211 0.7553695104 0.31663742165 
0.040726058093 0.93157019169 0.36127325689 -0.19811864967 0.92439424183 0.32595135576 -0.33156676399 0.8998880191 0.2833108436 
-0.14262389107 0.91644696397 0.37387616656 0.47795660305 0.67659159249 0.56016185391 -0.33064452398 0.94298907432 0.038023735612 
-0.46799624158 0.87405947257 -0.13038234651 0.21482127733 -0.94656300422 -0.24056246142 -0.41250169292 0.91068121496 -0.022407098234 
-0.46782918967 0.87264192836 -0.14011393279 -0.31858362059 0.92315217494 0.21516165691 -0.3458895714 0.92750173495 0.14177776998 
-0.36176283787 0.92839591836 0.084903874541 -0.35739268758 0.92747900361 0.10978690596 0.024301814409 0.10574396847 -0.99409639118 
-0.3959736797 0.91724157448 0.043275154911 0.39773279599 -0.91553489726 -0.060037279243 -0.3916542059 0.85898871169 0.32976563828 
-0.35998733679 0.92732556448 -0.10235435905 -0.13986602768 -0.23646603435 0.96152031123 0.26880631601 -0.90659047382 0.32532580169 
-0.080784303999 0.6389964579 -0.76495583076 0.39239738408 -0.91870729353 0.044734793899 0.24272253217 -0.82647293176 0.50796482697 
0.1664904168 0.068172964758 -0.98368358123 -0.32971310745 0.2718996191 0.90407956724 0.093516413418 -0.63308578701 0.76841204227 
0.33615201965 -0.94176384189 0.0090931726778 0.33732227023 -0.83927329698 -0.42642000303 -0.10619425726 0.13535727444 -0.98508943146 
0.041625547797 -0.16778346122 -0.98494468064 0.47981420586 -0.82519472081 -0.29804697718 0.37596608526 -0.77961491485 -0.50084936585 
0.51207009857 -0.81007466824 -0.28559279757 0.5290346741 -0.8078776562 -0.25972294127 -0.4720539803 -0.35926954006 -0.80504064324 
0.87448661865 -0.41390136128 0.25290080454 0.2174081144 -0.77204243827 -0.59723042899 0.27744183037 -0.77869516419 -0.56272539665 
0.86485572977 -0.49780713377 -0.064904732155 0.34102737756 -0.82016086455 -0.45938707428 0.20156805332 -0.85071058151 -0.48545012761 
0.50760495785 -0.72216390246 -0.46991116687 -0.072822401702 -0.90984709416 -0.40850356553 -0.07686170004 -0.91035178017 -0.40663486742 
0.58325747417 0.81020748339 0.058090900182 0.58325747417 0.81020748339 0.058090900182 
SiphonLabel 1 104 int
0 0 0 0 0 0 0 0 0 
0 0 0 0 0 0 0 0 0 
0 0 0 0 1 1 1 1 1 
1 1 1 1 1 1 1 1 1 
1 1 1 1 1 1 1 1 1 
1 1 1 1 1 1 1 1 1 
1 1 0 0 0 0 0 0 0 
0 0 0 0 0 0 0 0 0 
0 0 0 0 0 0 0 0 0 
0 0 0 0 0 0 0 0 0 
0 0 0 0 0 0 0 0 0 
0 0 0 0 0 
