# vtk DataFile Version 5.1
vtk output
ASCII
DATASET POLYDATA
POINTS 99 float
113.499 84.4557 33.2852 113.062 84.2463 32.868 112.356 83.9804 32.357 
111.763 83.7071 31.9517 111.244 83.3215 31.5919 111.054 83.1473 31.4135 
110.677 82.6457 31.0815 110.372 82.2464 30.7268 110.04 81.7504 30.2465 
109.843 81.3717 29.7419 109.739 80.9481 29.218 109.71 80.5326 28.7035 
109.676 80.1954 28.2587 109.729 79.7056 27.7435 109.9 79.0723 27.1963 
110.026 78.6248 26.801 110.239 78.1291 26.31 110.702 77.5772 25.6893 
111.094 77.1973 25.2322 111.428 76.9617 24.7461 111.649 76.8572 24.3551 
112.189 76.7783 23.5264 112.883 76.7149 22.8589 113.573 76.7621 22.3079 
114.315 76.9976 21.7546 114.645 77.3312 21.3782 114.903 77.7819 20.9574 
115.037 78.3288 20.5885 115.087 79.2079 20.1353 114.982 80.0384 19.9082 
114.741 80.7958 19.6613 114.354 81.6138 19.4893 113.967 82.1564 19.4057 
113.317 82.7841 19.3445 112.652 83.4418 19.4942 111.994 84.0315 19.7342 
111.584 84.4541 19.9514 111.124 85.0727 20.2729 110.853 85.5103 20.7579 
110.711 85.7683 21.0141 110.666 86.3637 21.5306 110.724 87.1158 22.0466 
110.832 88.0342 22.2755 110.873 88.4404 22.2936 110.938 89.2844 22.1501 
111.019 89.8936 21.9551 111.068 90.7085 21.3876 111.282 91.2626 20.8533 
111.386 91.7527 20.1652 111.428 92.0391 19.6523 111.47 92.3072 19.2161 
111.55 92.655 18.6063 111.651 92.9549 18.1369 111.765 93.3243 17.5402 
111.902 93.668 16.9907 111.998 94.1112 16.1847 112.118 94.5614 15.4728 
112.196 94.8682 14.9598 112.386 95.2805 14.2517 112.724 95.7477 13.4469 
113.074 96.2002 12.6608 113.348 96.4314 12.2297 113.947 96.7547 11.5601 
114.594 97.0966 10.9502 115.34 97.3944 10.5265 116.156 97.679 10.2313 
116.831 97.8668 10.0125 117.236 98.0049 9.95249 117.833 98.2565 9.86918 
118.498 98.5059 9.88212 119.206 98.6836 9.93073 120.009 98.8248 9.94153 
120.865 98.9925 10.1436 121.463 99.2398 10.211 122.265 99.6197 10.3173 
123.147 99.9008 10.5957 123.839 100.218 10.749 124.469 100.549 10.8832 
125.008 100.942 11.0081 125.535 101.358 11.1162 126.106 101.86 11.2478 
126.835 102.525 11.3037 127.386 103.121 11.3581 127.808 103.612 11.3121 
128.185 104.055 11.1969 128.611 104.632 10.8541 128.883 105.175 10.4101 
129.128 105.66 9.98304 129.359 106.289 9.47142 129.494 107.063 9.00779 
129.462 107.609 8.63427 129.452 108.292 7.99189 129.382 108.812 7.51459 
129.262 109.351 6.97423 129.09 109.659 6.52362 128.895 110.031 5.73139 
128.773 110.326 4.97916 128.594 110.594 4.32721 128.449 110.783 3.83915 

LINES 2 99
OFFSETS vtktypeint64
0 99 
CONNECTIVITY vtktypeint64
98 97 96 95 94 93 92 91 90 
89 88 87 86 85 84 83 82 81 
80 79 78 77 76 75 74 73 72 
71 70 69 68 67 66 65 64 63 
62 61 60 59 58 57 56 55 54 
53 52 51 50 49 48 47 46 45 
44 43 42 41 40 39 38 37 36 
35 34 33 32 31 30 29 28 27 
26 25 24 23 22 21 20 19 18 
17 16 15 14 13 12 11 10 9 
8 7 6 5 4 3 2 1 0 

CELL_DATA 1
FIELD FieldData 2
Length 1 1 double
74.266804086 
Tortuosity 1 1 double
0.75847867632 
POINT_DATA 99
FIELD FieldData 7
MaximumInscribedSphereRadius 1 99 double
1.5914176186 1.5902908109 1.5912762372 1.5672418186 1.5404439847 1.5022943055 1.418711503 1.3657009652 1.3317390946 
1.3143242034 1.3057901741 1.3116731507 1.3435775853 1.3908389863 1.5296059685 1.6263679941 1.7143679602 1.810043267 
1.8839633823 1.8541847821 1.8011287897 1.7585896729 1.8189494677 1.9480652929 2.0625650097 2.0614446295 2.0810575072 
2.0988978649 2.1811495426 2.0995033458 2.0452868223 2.0600475153 2.0593351243 2.0901272231 2.1758832272 2.2819717036 
2.3165214445 2.413907987 2.4320116622 2.4530606184 2.4208916775 2.5006444006 2.4491056172 2.3909843402 2.3168060226 
2.2866562641 2.2267500616 2.1440623553 2.110789166 2.1067611052 2.0910135156 2.0756564477 2.0390028339 2.0141788227 
2.0243784352 2.0366485427 1.9404575396 1.8780174919 1.8999198376 1.9019359244 1.8744257531 1.8709058559 1.8276402928 
1.8397686923 1.8639128238 1.8745396391 1.843960161 1.833822777 1.793383231 1.7826861362 1.7898296817 1.8231995365 
1.8772630624 1.8307516122 1.8471591997 1.8293551489 1.8094507721 1.8054897078 1.7699620571 1.644465884 1.5485392007 
1.4728783968 1.3842019082 1.2828901348 1.2101612839 1.1679797811 1.176560056 1.2447231661 1.4417420364 1.6255291975 
1.6349021087 1.7244335164 1.8554507309 1.948406708 1.9696278421 2.0130765055 2.0767166268 2.0490303716 2.0305221498 

Curvature 1 99 double
0 0.17278687434 0.085752930588 0.24730896926 0.24627020062 0.38847325749 0.19424562367 0.11613814823 0.29077152628 
0.231933416 0.16309991026 0.057790775312 0.27709735707 0.20580586511 0.016318521159 0.1570500485 0.26339488516 0.097966754566 
0.30829219246 0.31843369904 0.22396997311 0.23508487712 0.1629882916 0.21769934926 0.5127167787 0.32402455366 0.3706599521 
0.23038798425 0.29597046198 0.21169759395 0.19726542668 0.23456696447 0.24607092735 0.24713554095 0.12562338809 0.14300281625 
0.17636986197 0.49087728285 0.10018234187 0.55417527052 0.19522517982 0.39527052737 0.29438956551 0.33923053566 0.19972840329 
0.3818440193 0.30692899476 0.28647882414 0.16825867957 0.078023185195 0.074246380567 0.12956336231 0.035941630493 0.069441336609 
0.15047008222 0.080727786953 0.036761695278 0.13582725803 0.13083376905 0.021890986339 0.18848242426 0.22854453032 0.086064980526 
0.24714370055 0.17792829472 0.081271386325 0.29748184285 0.1299316564 0.22336474026 0.17008933791 0.11628868179 0.25443162332 
0.30264365899 0.068191687282 0.23546616207 0.17283771252 0.072864002166 0.20547276095 0.067553417403 0.073016342114 0.132544049 
0.096427534329 0.19560512005 0.20155018998 0.37835372159 0.30939206787 0.048023537487 0.12124161695 0.21812313575 0.26325440377 
0.20088732521 0.10827608016 0.098427448459 0.34884821594 0.24101896273 0.11053289929 0.12966950929 0.046077796808 0 

Torsion 1 99 double
0 0 -1.8680600454 -0.70720688751 0.59194581604 0.25035701803 -0.82035268126 0.18920395919 0.3792865351 
0.6589603865 -0.47150823922 -0.63360238613 0.03155451423 -0.089457682785 -4.9376280835 0.41256750509 0.092817492833 -1.8996627641 
-0.27830825311 0.45026172531 1.4115775355 0.17424008255 -0.91421198745 -0.93347022241 -0.21811764697 0.11799256981 0.19836189542 
0.19815969102 -0.26103937147 -0.31573113789 0.20537254923 -0.25126215891 0.57254763878 0.39679946555 0.061745579337 0.92320481931 
-1.3165945401 -0.099375489408 -0.43447936845 0.031087103812 1.5597992892 0.24088710539 0.19182387036 -0.19352128768 0.16230629722 
-0.28637161737 -0.1262038122 0.55103711254 -0.24089530066 1.1039934238 -0.67629575276 -0.44655181313 -0.78518930847 0.40278511928 
0.28162978017 0.5647297061 -2.1933012132 -0.25338090791 -0.048277489212 0.54814825308 -0.0010444081216 -0.18086686415 -0.46620680202 
0.024569270511 0.11989423685 -1.1419888689 -0.56944613411 -0.28295472267 0.86349146029 1.116834472 -0.22930074759 -0.82575231072 
-0.37499993636 4.2502542768 0.050248206168 -0.08470388933 1.1427127217 -0.064248187678 -0.60071397133 -0.77654693927 0.10061995134 
-0.34878109794 -0.49155666705 0.14126316798 0.2916579286 0.2039568906 -1.4578203037 0.74702200837 -0.47863698935 -0.95872982498 
-0.49747668814 0.64706089744 -1.0229163552 -0.51602691315 -0.98137964735 0.0015046708382 0.12127265714 0 0 

FrenetTangent 3 99 double
0.73883698174 0.30716182212 0.59980957766 0.73883698174 0.30716182212 0.59980957766 0.77392443831 0.321196775 0.54577797273 
0.7403697003 0.43863224584 0.50936672427 0.67427496692 0.53235174584 0.51181528669 0.55646808202 0.66302086311 0.50074605217 
0.51548063306 0.68149588055 0.51946422565 0.46134653441 0.64881331448 0.6051451546 0.37295855788 0.6161127274 0.69376294312 
0.22503677011 0.59930593148 0.76823879919 0.098644725555 0.62544566436 0.77400706654 0.051401732101 0.61647710721 0.78569322145 
-0.01485228518 0.65259147005 0.75756437538 -0.14356637345 0.71892100829 0.68010387461 -0.20280139067 0.73802556025 0.64357584507 
-0.25325523218 0.70499856114 0.66244910459 -0.40441602644 0.62724156912 0.6655942394 -0.5145990388 0.56076970203 0.64863330977 
-0.54227838924 0.45916834413 0.70363241847 -0.50776587016 0.31146736876 0.80321970798 -0.52474994461 0.12656028216 0.8417956941 
-0.63473067308 0.073187460092 0.76925975349 -0.75046680863 0.0088091603247 0.66084942902 -0.78221405368 -0.1545181613 0.60354396034 
-0.70140966929 -0.37215497673 0.60788580271 -0.46532942301 -0.62077940142 0.63095282142 -0.29435211495 -0.74933130788 0.59317739628 
-0.11157363598 -0.86092542782 0.49634537521 0.029989732465 -0.92871188921 0.36958739533 0.2048537245 -0.93789299136 0.2799851573 
0.35966324387 -0.9017542389 0.23975329745 0.48755645964 -0.85808339486 0.16118804588 0.66026819742 -0.74534794328 0.092208193363 
0.71448095996 -0.69799972611 -0.048097195517 0.71135392366 -0.67086526327 -0.20956000054 0.69299519371 -0.65703988133 -0.29674274353 
0.59616784737 -0.71307210961 -0.36893368546 0.48185231651 -0.69644211147 -0.53177695554 0.37582744597 -0.63411143603 -0.67576358111 
0.16037575425 -0.7317017058 -0.66248941967 -0.0073928623913 -0.79375972548 -0.60818652057 -0.090042896879 -0.90960150472 -0.40560742022 
-0.10962957042 -0.97713214883 -0.1821925383 -0.084248440087 -0.99146207192 0.099524671709 -0.097908180984 -0.96925079245 0.22575847589 
-0.080591748103 -0.87871792455 0.47048887257 -0.14782289467 -0.77047643993 0.62009228936 -0.19402365973 -0.63718509474 0.74588871456 
-0.10160946358 -0.54014987955 0.83541224825 -0.076015481967 -0.50296322267 0.86095856064 -0.10012659614 -0.50481664771 0.8574000332 
-0.142394039 -0.50934636929 0.84869913028 -0.16839663901 -0.52408121671 0.8348541491 -0.18295659867 -0.51936980869 0.8347346194 
-0.14669867198 -0.49666451849 0.85545534993 -0.1212354399 -0.50348587608 0.8554553996 -0.13658579229 -0.52077171392 0.84269872631 
-0.1864402836 -0.49854407948 0.84657771142 -0.28850986814 -0.48121990016 0.82776171914 -0.35042776476 -0.46876260799 0.81084030427 
-0.40813012748 -0.44706523475 0.79596637801 -0.57819115966 -0.36707391309 0.72866434332 -0.6539329349 -0.34899770557 0.67124683847 
-0.75346219802 -0.34601367241 0.5590789342 -0.86037833986 -0.32081875702 0.3960106532 -0.90563851949 -0.28695089826 0.31221475623 
-0.92937652992 -0.28047221989 0.2399887487 -0.92372129009 -0.35951782455 0.13223430743 -0.92821975238 -0.36841694472 0.051740179085 
-0.95398213046 -0.29679915253 -0.042759301017 -0.97773245002 -0.20630481019 -0.038439322031 -0.97537306295 -0.18159474019 -0.12518281997 
-0.9466535132 -0.27027300344 -0.17549823237 -0.90685045449 -0.40616836817 -0.11247003998 -0.91047461057 -0.35745377868 -0.20799706638 
-0.90546863074 -0.34414760888 -0.24837266768 -0.88126013989 -0.43205445444 -0.19159727097 -0.83549675681 -0.51740507926 -0.18503284388 
-0.78465811446 -0.59573896871 -0.17148389013 -0.75654649743 -0.63271575847 -0.16525182665 -0.74019664746 -0.66385807255 -0.10677725694 
-0.71114883107 -0.70036562831 -0.061280720873 -0.66662109224 -0.74537439594 -0.0057731505501 -0.64450277267 -0.75346480744 0.13002676638 
-0.58338042607 -0.74085826923 0.33286078681 -0.45413290543 -0.72896988425 0.512216958 -0.35824277595 -0.71236247208 0.60349136021 
-0.31071319579 -0.72694186142 0.61238291948 -0.20956714641 -0.80291144211 0.55804554229 -0.066061087028 -0.84274140406 0.53424980922 
0.026212856925 -0.77047144223 0.63693535217 0.048677121435 -0.73101479289 0.680623178 0.1287423973 -0.71499169075 0.68717703491 
0.21844467449 -0.63383230394 0.74198283988 0.25043657853 -0.46474868682 0.84928804197 0.18542598545 -0.38993548435 0.90197977913 
0.1952106532 -0.36509881985 0.91027229587 0.25488036406 -0.35935824288 0.89771802549 0.25488036406 -0.35935824288 0.89771802549 

FrenetNormal 3 99 double
-0.671917829 0.26783879628 0.69049895747 -0.671917829 0.26783879628 0.69049895747 0.036341219516 -0.88293563688 0.4680854376 
0.381573983 -0.89808210361 0.21874604153 0.70980340855 -0.27593047277 -0.64810608345 0.40839081999 -0.74311276614 0.53009466602 
0.27229813451 0.44451673464 -0.85338068795 0.78081336191 0.026965039734 -0.62418216931 0.65128749679 0.35871618262 -0.66869073334 
0.94902576207 -0.31341333889 -0.033498983999 0.99510544706 -0.057416127235 -0.080427219042 -0.49844804452 0.69757238707 -0.51472547218 
0.77239908615 -0.47364399761 0.42315601762 0.78770739739 -0.33300377578 0.51829098141 0.44315253919 0.6552510386 -0.61176948553 
0.82189205892 0.51798154301 -0.23704127189 0.88164563125 0.46090130703 0.10134577479 0.803132231 0.58016597351 0.13559521641 
-0.12024428167 0.78642616985 -0.60586730568 -0.26884997961 0.82850149323 -0.49122801648 0.39216873033 0.91363682179 0.10710483101 
0.77273336595 0.060559057748 0.63183522035 0.40598247525 0.79516280811 0.45043794066 -0.018161134007 0.97399885236 0.22582384463 
-0.55975862416 0.81559151539 -0.14656316964 -0.80911544669 0.5873473886 -0.018847785811 -0.75627332095 0.56210582318 0.33479502321 
-0.78754732173 0.38121463675 0.48419481282 -0.63829100872 0.26675295022 0.72209933647 -0.94435646641 -0.26459626269 -0.1953962183 
-0.75596456143 -0.13099071539 0.64137275772 -0.84535489085 -0.41778855964 0.33290813741 -0.73247524111 -0.61196171291 0.29829998842 
0.071839463875 0.0048074001526 0.99740462217 -0.14000789648 -0.427448049 0.89313266334 0.58334762248 0.26917085645 0.76632408379 
0.80257770745 0.51712851753 0.29740060501 0.45304626582 -0.32145928582 0.83151248252 0.34414532296 0.77257783574 -0.53356113465 
0.96693908717 0.25127805186 -0.043452760009 0.72952826992 0.41168678502 -0.54617075574 0.13890659353 0.39181124411 -0.90949926183 
-0.058846899157 0.18935635908 -0.98014346488 -0.11798765642 -0.089251248949 -0.98899601996 0.33967090432 -0.2457721849 -0.90786546904 
-0.25502565915 -0.43813433709 -0.86197460278 0.80936335386 -0.45457577822 -0.37187608591 -0.6219222833 -0.50811772327 -0.59584314449 
-0.42735838548 -0.73462547477 -0.52696320761 0.2569432677 0.82441534285 0.50430100104 0.69402493883 -0.65291272678 -0.30337164584 
0.79106072793 0.45680856839 0.40687695508 -0.78381015483 -0.44239056466 -0.43581214931 0.97850166175 -0.013988078294 0.20576401923 
-0.87542692544 -0.3374594615 -0.34604741014 0.5284826768 0.6967727031 0.48498851588 -0.38583558573 -0.75552941526 -0.52943951823 
0.97557537774 -0.19582208857 0.099530859453 0.95742924764 -0.15362252217 0.24439590106 0.92417881337 -0.31353528583 0.21814936504 
0.89682555206 -0.35935343142 0.25800976823 0.79844637803 -0.43830580636 0.41276070734 0.62505094639 0.25064901166 0.7392471761 
0.62994641238 -0.13636463988 0.76457321593 0.44650010854 -0.099830469369 0.88919712688 0.39558790083 -0.8368986733 0.37829991191 
0.12251805463 0.37890886629 0.91728806672 -0.33727874296 0.92697490388 0.16419676341 0.1445116346 -0.22889867673 0.96266389942 
0.25667748989 -0.88196910534 0.39528111946 0.18844874083 -0.78254618303 -0.59338734693 -0.13923896945 0.066790690098 0.98800380217 
-0.14159803253 0.83807141772 -0.52686458979 -0.42087435773 0.85879021752 0.29213718916 0.065885866253 -0.62188316765 0.78033350461 
-0.13397409733 0.78706406737 -0.60214707099 -0.38871161944 0.89316207898 -0.22619632531 -0.52523450525 0.85092195931 -0.00778033817 
-0.4282382179 0.720892484 -0.54490921744 -0.65361673963 0.72368693259 0.22150029636 -0.022679127862 0.18336146011 -0.98278391934 
-0.70187744752 0.7022552597 0.11918724298 -0.18484294133 0.17280640849 -0.9674559588 -0.10984343841 -0.077052878078 -0.99095775542 
-0.39900102798 -0.095545925863 -0.91195896603 -0.73798762587 -0.014306687516 -0.67466256955 -0.18806907359 -0.57808166687 -0.79400982991 
-0.87212446748 0.47422868266 0.12044114645 -0.66340683374 0.5360196557 0.52208648868 -0.95476954565 -0.10217893801 -0.27923928686 
0.23296197637 -0.6149031066 -0.75340751726 -0.98862602376 0.061819790748 0.13710178195 -0.78932642009 -0.49336363631 -0.36545331428 
-0.62161447367 -0.67650377842 -0.39488996429 0.4676495383 -0.71003935999 -0.52644849377 0.72370558561 -0.56673293693 -0.3937816699 
-0.96933688723 0.069427933496 0.23572390864 -0.69446479989 -0.71404341173 -0.088660294765 -0.69446479989 -0.71404341173 -0.088660294765 

FrenetBinormal 3 99 double
0.051442642671 -0.91318891487 0.40427671251 0.051442642671 -0.91318891487 0.40427671251 0.63223435493 -0.34242852226 -0.69499814934 
0.5534022067 0.03240814858 -0.832283431 -0.20379497099 0.80028994302 -0.56391809414 0.72357460696 -0.09048067124 -0.68429016966 
-0.81248596473 0.58135035686 0.043569710828 -0.42129546525 0.76046970326 -0.4941618777 -0.6608528661 0.70123306216 -0.26748024581 
0.22070014731 0.73661691502 -0.63928629383 -0.0058623672322 0.77815236893 -0.62804818555 -0.86539436609 -0.36516946899 0.34313823754 
0.6349638268 0.59142686509 -0.49702635937 0.59908743311 0.61013200961 -0.51849125193 -0.8732052582 0.16113456747 -0.45994372288 
-0.51025016498 0.48442971615 -0.71061425489 -0.24320497209 0.62780410889 -0.73940066433 -0.30027728651 0.59071548521 -0.74892507418 
-0.83155003535 -0.41315652133 -0.37124954894 -0.81847022521 -0.46537442335 -0.3369467859 -0.75554032492 0.3863292027 -0.52906385679 
-0.00034323086046 0.99547787329 -0.094993083867 -0.52151490768 0.60633201078 -0.60031965966 -0.62274500997 0.16568154219 -0.76468181562 
-0.44124229003 -0.44307014492 -0.78038073283 -0.3588881748 -0.51928410324 -0.77559222412 -0.58430086125 -0.35005661624 -0.73215631458 
-0.60606974829 -0.33687209511 -0.720553018 -0.76921076704 -0.25755987729 -0.58478859897 0.25734376991 -0.22437815072 -0.93990884109 
-0.54695514704 -0.41192320293 -0.72880679334 -0.21832042321 -0.29857261579 -0.92908050561 -0.16590939889 -0.26449821431 -0.95000777154 
-0.69595693063 -0.71608188866 0.053578721984 -0.68874769271 -0.60599336956 -0.39799328115 -0.42363098665 -0.70416308081 0.56981676245 
-0.021281946982 -0.47339862997 0.88059117409 -0.75004494938 -0.64158577987 0.16062459642 0.86041718227 -0.032033957366 0.50858243976 
0.19826350937 -0.63361814556 0.74780988658 0.68391070249 -0.44772702538 0.57602661551 0.98620344503 -0.1382354933 0.091069827037 
0.9922290057 -0.096731241073 -0.078260253326 0.98943474432 -0.095064054704 -0.10946100779 0.93543447919 -0.012203870989 0.35328940075 
0.96356986426 -0.18945477491 -0.18878560578 0.56840069777 0.44690817554 0.69079210288 0.75866164593 -0.57949247997 -0.29769274876 
0.89835423262 -0.41056487847 -0.15619268002 -0.96343230363 0.25955218957 0.066564684334 0.71295445088 0.56468143533 0.41572927195 
-0.59493433452 0.7293094048 0.33787709256 0.59773255989 -0.72775646105 -0.33628309539 -0.095191286092 0.85443509729 0.51076343209 
0.46055097205 -0.79965334235 -0.38528863754 -0.84024283897 0.51089115553 0.18161001835 0.91240080125 -0.39745707273 -0.097737675486 
0.11615809488 0.84445693226 0.52287645438 0.0095546719401 0.86303390917 0.50505562057 0.15196678128 0.82580702461 0.54309194019 
0.17068605163 0.81914454598 0.54760248773 0.16786412455 0.82045399776 0.54651337884 -0.42624292495 0.90298154713 0.054233702326 
-0.18831418874 0.92826678466 0.32071567287 -0.24573718761 0.94186474747 0.22913758334 0.15273861574 0.46611135217 0.87144197893 
-0.34820768504 0.88190895501 -0.31778609654 -0.1816095476 0.10707222514 -0.97752417404 -0.34281843409 0.9010407042 0.26570880793 
-0.15503148373 0.36611577442 0.91756442759 0.092338119245 -0.58741790636 0.8039986785 -0.17105524683 0.98110262157 -0.090430904459 
0.2894773275 -0.47390801049 -0.83163337743 -0.022068715303 0.31226049861 -0.94974015015 -0.40828303435 0.69676977683 0.58975998674 
0.40271267673 -0.51194977992 -0.75876868863 0.26885654679 -0.12486171981 -0.95505272534 0.16147409654 0.090685186901 -0.98270153812 
0.44824510275 -0.3541314836 -0.82077233151 -0.020556140476 0.27558663354 -0.96105642524 0.67200787216 -0.72503174721 -0.15077926016 
-0.040439939768 0.12777142447 -0.99097884658 0.7221145383 -0.64385942182 -0.25297359251 0.75667073094 -0.65295760807 -0.033102371603 
0.70743583324 -0.66483080627 -0.23986358807 0.49913682319 -0.68439624966 -0.53147361664 0.91449009674 -0.39794634663 0.073120230878 
-0.37796325638 -0.49665147403 -0.78133289331 -0.71831259497 -0.26079905068 -0.64498904725 0.28991558681 -0.52853229845 -0.79787377574 
0.97213250316 0.16813068192 0.16337218276 -0.14229941318 -0.67955550623 -0.71969103854 0.6003242438 -0.49535765315 -0.62787864893 
0.75224821057 -0.37496566277 -0.54177798168 0.84769418393 0.52901112026 0.039519680877 0.66473109546 0.72578515846 0.17711147473 
-0.14926084528 -0.92837633199 -0.34035068131 0.67287044944 -0.60083580073 -0.43155729497 0.67287044944 -0.60083580073 -0.43155729497 

SiphonLabel 1 99 int
0 0 0 0 0 0 0 0 0 
0 0 0 0 0 0 0 0 0 
0 1 1 1 1 1 1 1 1 
1 1 1 1 1 1 1 1 1 
1 1 1 1 1 1 1 1 1 
1 1 1 1 1 1 1 0 0 
0 0 0 0 0 0 0 0 0 
0 0 0 0 0 0 0 0 0 
0 0 0 0 0 0 0 0 0 
0 0 0 0 0 0 0 0 0 
0 0 0 0 0 0 0 0 0 

