# vtk DataFile Version 5.1
vtk output
ASCII
DATASET POLYDATA
POINTS 98 float
80.861 67.7339 44.3656 81.148 67.951 43.4874 81.3823 68.0886 42.8546 
81.8453 68.2094 42.296 82.5324 68.1701 41.6637 82.9767 68.1136 41.305 
83.56 67.9662 40.6528 84.2915 67.99 40.0328 84.9703 67.7177 39.3992 
85.3411 67.3343 38.618 85.4539 66.8426 37.8945 85.3985 66.1428 37.2015 
85.0551 65.5159 36.64 84.5752 64.8165 36.149 84.1995 64.1108 35.69 
83.7661 63.3396 35.2635 83.4639 62.7793 35.1002 83.0875 62.0865 34.9652 
82.5734 61.2802 34.7467 81.9639 60.6524 34.3883 81.382 60.0482 33.9266 
80.7809 59.6228 33.5641 80.1229 59.2552 32.9274 79.5377 59.0352 32.2228 
79.0509 58.984 31.5422 78.6764 59.1508 30.7545 78.4596 59.3892 29.8714 
78.4849 59.7173 29.1179 78.7115 60.2967 28.4173 78.8219 60.6189 28.1908 
79.0755 61.4133 27.8699 79.2598 62.2124 27.7398 79.4543 63.0304 27.6793 
79.7784 63.8474 27.6882 80.1034 64.7238 27.6314 80.4565 65.5675 27.5752 
80.7372 66.4319 27.5132 80.9046 67.2538 27.4115 80.9773 67.9427 27.3712 
81.0472 68.86 27.2784 81.1125 69.6733 27.1951 81.1332 70.5829 27.0343 
81.1162 71.2374 26.7983 81.0953 72.0664 26.3176 81.0718 72.6641 25.8626 
80.9885 73.2736 25.1565 80.9168 73.6283 24.4852 80.871 73.8682 23.8235 
80.8496 74.095 23.0954 80.8134 74.2706 22.1946 80.6893 74.3377 21.5581 
80.5721 74.4434 20.6643 80.4864 74.5975 19.7057 80.3441 74.6921 19.034 
80.0478 74.7624 18.2032 79.6303 74.8465 17.3051 79.2359 74.9345 16.5774 
78.6399 75.0713 15.881 78.163 75.2496 15.4402 77.7604 75.3911 15.1713 
77.2412 75.6316 14.8571 76.6339 75.8363 14.6067 75.8036 76.2191 14.3024 
75.2598 76.4769 14.2239 74.6235 76.8025 14.1415 73.8353 77.277 14.0935 
73.0479 77.8074 14.2022 72.5644 78.1622 14.287 72.091 78.5294 14.3871 
71.4629 79.0451 14.5257 70.8721 79.5129 14.6503 70.4058 79.8909 14.7627 
69.86 80.2313 14.9321 69.1886 80.6933 15.0335 68.4458 81.275 15.1015 
67.8607 81.8657 15.1822 67.4172 82.3224 15.2015 66.8654 83.1003 15.1701 
66.3256 83.9012 15.0863 65.8157 84.6521 14.9026 65.3521 85.3129 14.691 
65.0834 85.8251 14.441 64.7697 86.4563 14.0547 64.4599 87.1837 13.509 
64.2946 87.639 13.0981 64.1239 88.3073 12.4043 64.014 88.8663 11.6833 
63.9569 89.219 11.1951 63.952 89.5685 10.6489 63.9853 90.1118 9.90778 
64.0319 90.3413 9.48022 64.1026 90.6524 8.73212 64.1458 90.8831 7.92249 
64.1942 91.0146 7.3034 64.2849 91.1048 6.68194 64.5527 91.256 5.74002 
64.8312 91.3091 5.04999 65.0711 91.2252 4.57739 
LINES 2 98
OFFSETS vtktypeint64
0 98 
CONNECTIVITY vtktypeint64
97 96 95 94 93 92 91 90 89 
88 87 86 85 84 83 82 81 80 
79 78 77 76 75 74 73 72 71 
70 69 68 67 66 65 64 63 62 
61 60 59 58 57 56 55 54 53 
52 51 50 49 48 47 46 45 44 
43 42 41 40 39 38 37 36 35 
34 33 32 31 30 29 28 27 26 
25 24 23 22 21 20 19 18 17 
16 15 14 13 12 11 10 9 8 
7 6 5 4 3 2 1 0 
CELL_DATA 1
FIELD FieldData 2
Length 1 1 double
79.47538079 
Tortuosity 1 1 double
0.62762830961 
POINT_DATA 98
FIELD FieldData 7
MaximumInscribedSphereRadius 1 98 double
1.7170877792 1.8648761922 1.979289389 1.9367681004 1.8708564467 1.9094385062 2.0659817783 2.0470260895 1.7798116614 
1.6150762498 1.5882626893 1.6507039576 1.5694579504 1.4371651971 1.4170027216 1.5304528825 1.6885859788 1.899161207 
2.1508643497 2.2430917534 2.4069251136 2.514575563 2.5697007113 2.5502856116 2.481268309 2.3539222199 2.2673366817 
2.1700285622 2.1062255406 2.1014004437 2.1156527387 2.1861766761 2.2701218685 2.2987044262 2.3580475158 2.3490112261 
2.3587163987 2.4208845032 2.3972542206 2.356538117 2.3413159417 2.3826544956 2.4166493495 2.4571727701 2.4738994304 
2.4846569595 2.4635047483 2.3655890103 2.2558050515 2.1726150514 2.1155927351 2.0688278392 2.0314965717 1.9992679651 
2.0249497764 2.0705636456 2.1311418618 2.1727456162 2.194431395 2.1900920485 2.1635536612 2.1296395224 2.1311090981 
2.1255496135 2.0876041659 2.0704225282 2.0681306544 2.066870189 2.0715177154 2.0799076014 2.0896372105 2.104976169 
2.1005812889 2.0212770868 1.9325975731 1.8736536101 1.8561359513 1.8669910791 1.9568764894 1.9610778039 1.8988348093 
1.865511071 1.8452932243 1.9031431919 1.9820912393 1.9219009758 1.8640013925 1.8924492079 1.9255069648 1.8626557237 
1.8443592106 1.8232700928 1.8898831794 1.8987103424 1.8928211036 2.036571927 2.1273622135 2.1500818951 
Curvature 1 98 double
0 0.058878463566 0.4796556142 0.29909675546 0.11383799645 0.24031376117 0.25870153713 0.33243690522 0.4057019705 
0.34155750983 0.28996319781 0.36162008848 0.17425955921 0.10258015017 0.078735363196 0.24431598283 0.11218997471 0.099128134032 
0.26660625303 0.1205832772 0.19577853921 0.29133037937 0.18674467471 0.21363651363 0.36129619986 0.23102384148 0.34824330974 
0.40782956881 0.39006565912 0.34074368048 0.26338708562 0.10249019984 0.19377590597 0.082085133426 0.044547580695 0.090438597875 
0.14188431618 0.1486064237 0.063577568968 0.0050504023704 0.10646593289 0.22035875836 0.21818179926 0.14735113272 0.25777974934 
0.26761300115 0.19287598998 0.080175727973 0.13104708213 0.2244815955 0.081192490252 0.062288357085 0.14456338357 0.18448123667 
0.098486286864 0.071138474832 0.24517030942 0.20812262811 0.25953802632 0.17665285804 0.24411075797 0.13692615557 0.24609290991 
0.050616649531 0.11343040848 0.1862999659 0.061428548834 0.059952242818 0.03850068103 0.022875952621 0.035150697973 0.22112885073 
0.19018186804 0.091134706331 0.14390903249 0.091436736074 0.21018776421 0.061083423173 0.1197905437 0.066548980887 0.26726695283 
0.13348204264 0.1297286383 0.13613143804 0.13825339849 0.12651980149 0.055137823862 0.16606515541 0.098289358388 0.21674622404 
0.15168980214 0.14721630909 0.09862016291 0.14703221445 0.16184442535 0.15460129924 0.38518857651 0 
Torsion 1 98 double
0 0 0.28524797147 0.64365700323 0.7883726743 0.67677056276 0.57537209971 0.70843797885 0.19820926267 
-0.40806956892 0.17883929506 0.13243009311 -0.81449769817 -0.385359754 0.10842995199 -0.036339729138 0.65411442419 0.59972910074 
0.20435543917 0.093945896826 0.48789917421 0.30230042162 -0.28830032916 0.10986412331 0.2918138899 0.2533296082 -0.35851697007 
-0.45104739896 -0.3406068395 -0.15322084301 -0.1220984113 1.5617390548 0.42481856463 0.58693487837 -0.84320670869 -0.2756897816 
0.37563198814 0.24445788548 -1.4852964573 4.4003716976 -0.43588124141 -0.28639810297 -0.1294963727 0.28452623659 -0.072138361456 
-0.22102321567 -0.32571862403 0.052562766158 1.0840925762 0.23128946612 -0.83253376435 -1.0999816573 -0.30749373002 0.052890348729 
0.56029219163 -0.010749027236 0.26871002651 -0.048107593368 0.087406381912 -0.081561950254 -0.12874803689 0.1344084496 -0.18995344801 
2.6995222005 -0.57732219521 -0.053926135246 1.1009549359 0.16670486048 0.71419444512 0.86707050493 -4.1927504536 -0.5703633095 
-0.68808284139 -1.3222584651 0.07739598432 -0.26880778688 -0.1095133138 1.6692262126 0.18210896691 -1.5586230509 0.028009842502 
0.50712137614 -0.085673352009 -0.11029091967 0.094343674241 0.2117200929 -0.89560051757 -0.56195037567 0.10823016262 0.50574029438 
0.65640689473 -0.12262763896 -1.0603609985 -0.90074017994 -0.04437184336 1.134801772 0 0 
FrenetTangent 3 98 double
-0.31835175987 -0.21668925976 0.92287481366 -0.31835175987 -0.21668925976 0.92287481366 -0.49653374254 -0.18393760144 0.84830489878 
-0.69383966209 -0.049115485878 0.71845263752 -0.7507379622 0.063505249799 0.65754056556 -0.70584321508 0.14005449575 0.6943846873 
-0.71702249724 0.067406788433 0.69378315295 -0.74100450998 0.13052733772 0.65869183257 -0.55838303088 0.34881943893 0.75268412355 
-0.26772427405 0.4844146377 0.83286623888 -0.030993019152 0.64343369896 0.76487417776 0.21339721473 0.70987211742 0.67122515273 
0.43733391985 0.70443909645 0.55902111047 0.4503833575 0.73963065595 0.5001013138 0.42524943998 0.77624694095 0.46540691923 
0.4508960086 0.81610625032 0.36147389617 0.46605268762 0.86070950127 0.20487568618 0.50053780627 0.84259734561 0.19872497997 
0.58798559837 0.75041002273 0.30192339078 0.62707222603 0.64843522299 0.43163895204 0.66771603157 0.58116439657 0.46519162218 
0.70245891073 0.44244384347 0.55748984216 0.6471764678 0.30591406404 0.69826871972 0.60483751417 0.15300646686 0.78151174179 
0.50483452647 -0.067773182228 0.86055150727 0.32522939262 -0.22286450928 0.91899796119 0.1098694607 -0.32514013261 0.93926172911 
-0.14537710536 -0.52379973074 0.83934458914 -0.25212826588 -0.67465605355 0.69373665533 -0.28096506526 -0.86173571063 0.42245733173 
-0.25566308765 -0.93023727092 0.26323944501 -0.22654929705 -0.96730708119 0.11398432652 -0.30218164354 -0.95277603675 0.030067891586 
-0.35777971631 -0.93343255283 0.026407270135 -0.36607283624 -0.92858383904 0.061014198646 -0.34717927461 -0.93556078505 0.064750048392 
-0.25571369962 -0.96222847512 0.093417693738 -0.15631288766 -0.9833752666 0.092408691111 -0.088097942606 -0.99271098684 0.082241407536 
-0.077476785183 -0.99187163936 0.10093561707 -0.049378191283 -0.98889943655 0.14014170904 -0.0022599036816 -0.9692906548 0.24590754229 
0.022989821601 -0.90020012083 0.43486918787 0.026016114029 -0.8359218824 0.54823149156 0.063658775955 -0.71924325249 0.69183574928 
0.091758449517 -0.57105141535 0.81576998472 0.080230218152 -0.40606452729 0.91031572093 0.045837283259 -0.31797048384 0.94699192968 
0.034295775553 -0.23972051835 0.97023598823 0.10242923072 -0.15515546473 0.98256553698 0.1548076721 -0.110861479 0.98170480142 
0.10785983576 -0.13808897394 0.9845291723 0.13692018139 -0.14933497442 0.97926090974 0.2786576486 -0.10471718261 0.95466445757 
0.38031918654 -0.082265232651 0.92118931162 0.44478890643 -0.094329656252 0.89065411056 0.56624945798 -0.12852394088 0.81415179663 
0.67272279959 -0.1975278924 0.71304050841 0.74882006742 -0.27233068465 0.6042387813 0.79760386513 -0.33055584528 0.50454029321 
0.84293717664 -0.33311907117 0.42247911268 0.87175046208 -0.35624791603 0.33636075006 0.87877390606 -0.4096774802 0.24478722241 
0.88981307891 -0.4399074603 0.12130173527 0.86911893923 -0.48815876063 0.079581994788 0.84266785825 -0.53745690426 -0.032418462961 
0.81423555746 -0.56714497815 -0.12396382835 0.78894375346 -0.59524125809 -0.15249786406 0.7693725046 -0.61666924202 -0.16668831728 
0.7674937471 -0.61927649532 -0.16568032628 0.76911732869 -0.6153915653 -0.1724869736 0.79519655572 -0.56446433383 -0.22145530837 
0.8208763561 -0.54111797302 -0.18262898804 0.80089368417 -0.59107275183 -0.095928664659 0.74699367805 -0.65954706135 -0.083654759727 
0.69907873513 -0.71180773479 -0.06796080321 0.62760184683 -0.7784970499 0.0076331612169 0.56767123297 -0.82107258028 0.059909841992 
0.55468843238 -0.81995895562 0.14137911471 0.55320083799 -0.80218218522 0.22466102144 0.50229050564 -0.8046487175 0.3166144175 
0.40660591047 -0.79831293407 0.44426128897 0.35393861555 -0.77124343013 0.52906618481 0.2981457496 -0.74215665244 0.60026045617 
0.20858495923 -0.69737471384 0.68568274244 0.14818656602 -0.64802869567 0.74706060748 0.1096276513 -0.59844153714 0.79363058453 
0.04947124879 -0.5610154811 0.82632573814 -0.018130148788 -0.56977893946 0.82159799042 -0.056899951912 -0.55067345617 0.83277916649 
-0.090322845945 -0.41603588337 0.90485132881 -0.068901086114 -0.32774857567 0.94224917696 -0.062006171055 -0.24526070309 0.96747218165 
-0.10970597852 -0.1748339367 0.97846701163 -0.22103269712 -0.14882266209 0.9638445736 -0.31523121565 -0.11791124878 0.94166141372 
-0.40710002291 0.024194482111 0.91306308565 -0.40710002291 0.024194482111 0.91306308565 
FrenetNormal 3 98 double
0.78921243261 -0.59990065698 0.1313885001 0.78921243261 -0.59990065698 0.1313885001 0.86801201571 -0.1086663416 0.48450672522 
0.41938634206 -0.83858586246 0.34769073525 0.46436151278 -0.65722470334 0.59365316033 -0.68455281763 -0.38690561178 -0.6178118544 
0.44381015478 0.81164697468 0.3798180288 -0.19643476982 -0.98015183568 -0.026753695453 -0.82471378503 -0.33156964184 -0.45815799174 
-0.86486994538 -0.50180490519 0.013849718633 -0.69193224083 -0.56604357053 0.44813441103 -0.96676384573 0.054408017847 0.24981479979 
-0.68313744076 -0.14404145713 0.71594364001 0.8445304315 -0.53465719932 0.030166694988 -0.45243464801 -0.26304234457 0.85212183064 
-0.10187788099 -0.35527575337 0.92919321803 -0.12895681674 -0.16300594118 0.97816113323 -0.60720213398 0.50531528879 -0.61315742465 
-0.47786595569 0.62342659269 -0.61885653581 0.32244760626 0.288338896 -0.90160314012 -0.72544779357 0.64817139665 0.2315153113 
0.26111771132 0.56846322786 -0.78017119878 0.25418720843 0.77694645033 -0.57597141977 0.21168244288 0.91517191447 -0.34300278475 
0.52401984043 0.816267768 -0.24312576533 0.91625358344 0.31463835124 -0.24795580001 0.87025414059 0.48800693892 0.067133883749 
0.60476106745 0.62437271166 0.49439131084 0.12156157603 0.68913663049 0.71436229446 0.05216164036 0.42582670994 0.9032999371 
-0.27531958129 0.33107143537 0.90254685908 0.10198294665 0.092825878755 0.99044577581 0.83265456887 -0.2484650575 0.49492573599 
-0.29207323542 0.08500026772 -0.95261124266 0.92989774514 -0.36753646556 -0.014392013971 -0.93617876927 0.34169584988 -0.082542462708 
-0.88592198701 0.19455682566 -0.42105804175 -0.81814875879 0.18132614857 0.54566788099 -0.5701390446 -0.017449150425 -0.82136288994 
0.95018784901 -0.10411600854 -0.29377356649 -0.61890681575 -0.079831986151 -0.78139695892 -0.26434912514 -0.23658138572 -0.93495924401 
0.015330780415 -0.43461556172 -0.9004855805 -0.076271606211 -0.54847837376 -0.83267887904 -0.26723593466 -0.68021037147 -0.68256780306 
-0.023162926375 -0.82022841101 -0.57156699749 0.20498706667 -0.88701790037 -0.41373850065 0.62827165419 -0.72784648834 -0.27479850427 
-0.1027060994 -0.96651253398 -0.23517010611 -0.86443830588 -0.50262404807 0.010746237795 0.96833915935 0.21400603166 -0.1285328397 
0.70353733304 0.71030043905 0.022550106437 -0.97771004109 -0.17922269743 0.10937230127 -0.89293713107 -0.39420916844 0.2173991984 
-0.92110608158 0.055902788376 0.38527712717 -0.83116826766 0.32698268032 0.44971283905 -0.79053052739 0.19488778382 0.58058611504 
-0.40205662894 0.71141587813 0.57640082883 -0.60045690147 0.10718414755 0.79244120791 0.032700310939 0.85893153911 0.51104530208 
-0.53505671051 -0.43685856384 0.7230967513 0.19427481566 0.88158122737 0.43019976237 -0.19852145534 0.15263788005 0.96813785658 
0.3488381404 0.82711662559 0.4406699893 0.31482838401 0.67010514525 0.67219207295 0.18343551447 0.2299552369 0.95575729192 
0.53186527394 0.64318352182 0.55084869759 0.52021006778 0.51494149411 0.68133453092 0.63633639378 0.76274961251 0.11527802291 
-0.63930854781 -0.72032433472 -0.26910487453 0.41138116907 0.27015183504 0.87050762188 -0.40355709316 -0.76526967068 0.50150174844 
0.027266595049 0.35655021938 -0.93387819005 0.40386525043 0.65146527438 -0.64225061757 0.66138237351 0.72441249019 0.19442196394 
0.057023551425 0.15023933634 -0.9870037773 0.72193197809 0.57827465702 -0.38001663129 0.36452959772 0.18544384381 -0.91253972691 
0.053835890329 -0.13419129677 -0.98949198723 -0.084555156349 -0.32236273655 -0.9428322712 0.65930245696 0.11946869654 -0.74232573766 
0.38019231322 -0.29431302393 -0.87683159666 0.59636256575 -0.24966212577 -0.76290268916 0.57059316716 -0.36555913319 -0.73538422456 
0.77409968079 -0.31076064362 -0.55154102892 0.4585192412 -0.62428382185 -0.6324791026 0.60081852236 -0.59617034022 -0.53253922732 
0.83761815933 -0.42732910879 -0.34027290804 0.56638186288 0.67132015939 0.47805944085 0.39343370381 -0.77899991469 -0.48823053327 
-0.088917202288 -0.90156781263 -0.42340194893 -0.29459163296 -0.89569133039 -0.33309579771 0.34447502112 -0.91503199307 -0.20988904564 
0.71618000584 -0.69651734092 -0.044156460912 0.96916874174 0.076823419459 0.23411559594 0.77349944863 -0.60681666145 0.18295393509 
0.31105661703 -0.93622256478 0.16349645316 0.31105661703 -0.93622256478 0.16349645316 
FrenetBinormal 3 98 double
0.5251627302 0.77017203692 0.36199328772 0.5251627302 0.77017203692 0.36199328772 0.0030631849949 0.97691278269 0.21361655348 
0.58540722527 0.54255084585 0.6024424954 0.46985199537 0.75101449558 0.46391414063 0.18213400452 -0.91142129983 0.36896940064 
-0.53750468367 0.58024608 -0.61188495787 0.6421259202 -0.1492145875 0.75193703824 0.089752791647 -0.87657662051 0.47281906133 
0.42464537047 -0.71661307266 0.55330101521 0.72129689231 -0.51535206539 0.46275592037 0.1408165308 -0.70222599248 0.69788921767 
0.58486090619 -0.69499468921 0.41823450645 0.28969498022 0.40876420097 -0.86544130156 0.78387869156 -0.57293054695 0.23934240178 
0.88674330378 -0.4557957078 -0.077049243705 0.87530853519 -0.48229474138 0.035025000437 -0.61706358909 0.18624224032 0.76455631247 
-0.65262321787 0.21959982083 0.72516126082 -0.70908953212 0.70455123493 -0.028277072102 -0.16697544727 -0.4920587208 0.85439886194 
-0.66209441893 0.69360868214 0.28379213604 -0.71871516096 0.5502461256 0.42506201744 -0.76769924113 0.37289326632 0.5211415231 
-0.68596305128 0.57368434413 0.44759464426 -0.23389145561 0.92267768935 0.30653004512 -0.48019416113 0.81002044526 0.33657160587 
-0.78302589263 0.57947610737 0.22600418681 -0.96002818749 0.26444264769 -0.091738570457 -0.95829942887 0.27583179318 -0.074692881126 
-0.92673378797 0.15827294297 -0.34075528133 -0.96864590775 0.23600925177 0.077619188874 -0.46408256081 0.17459363964 0.86841489955 
0.88695371906 -0.34853783697 -0.30304203742 0.035789134504 0.051468440369 0.99803313447 0.055098668396 -0.089274652941 -0.99448186162 
0.3869789875 -0.19043109847 -0.90221020831 -0.55335241 0.0096908662496 -0.83289086768 0.81681100772 -0.11924941826 -0.56444605935 
0.30189468256 0.073147165365 0.95053095312 0.78391080337 -0.1253186274 -0.60809464229 0.96442440495 -0.067118361509 -0.25569648546 
0.99961814473 0.027368886878 0.0038090361531 0.99674761294 -0.02015142777 -0.078026380552 0.96152613874 -0.14143194224 -0.23550900246 
0.9955118612 0.033550481389 -0.088490109134 0.97547086814 0.21979727954 0.012072336678 0.77664256386 0.60756420304 0.16640933621 
0.99412034328 -0.091583812669 -0.05776805632 0.49219373017 -0.85046801708 -0.18560572167 -0.1958414081 0.97052107184 0.14048128695 
-0.7024254244 0.6902207774 0.17376363715 0.15917267192 -0.97240849962 -0.17054550822 0.3535720504 -0.91303529131 -0.20335526055 
-0.083191963644 -0.99504136082 -0.054514103097 -0.33364972583 -0.94031071605 0.067034451825 -0.23328745486 -0.97236842212 0.00875300319 
-0.62112358033 -0.67444064236 0.39916828267 -0.28057087538 -0.9562152251 -0.083261198487 -0.6022945824 -0.39111308373 0.69589639441 
-0.056313699745 -0.83557541827 -0.54648191882 -0.4497870917 -0.30968041892 0.83772884054 -0.43398808026 -0.89936980147 0.052804416474 
-0.29418469778 -0.3497992482 0.88943569163 -0.38146475341 -0.55916019058 0.73608730676 -0.50622356 -0.81133264762 0.29236457071 
-0.23267958087 -0.51445265188 0.8253476126 -0.3270309454 -0.61686554639 0.71591037039 0.056053038405 -0.19476158392 0.97924766138 
0.047306752769 0.31245715731 -0.9487531797 -0.4891053756 -0.7404803896 0.46093895928 -0.45255288126 -0.30942260254 -0.83633339208 
0.570454679 0.76161885503 0.3074380895 0.44211103374 0.47563220909 0.76046816864 -0.067629882169 -0.20055976148 0.97734435135 
0.71276730892 0.68611798585 0.14561893019 0.29142776269 0.2440097628 0.92494815789 0.7381514368 0.5398614625 0.40457639285 
0.83031466318 0.55647102976 -0.030291139636 0.82874559328 0.50257935472 -0.24615997609 0.55948594101 0.58160783349 0.59051486843 
0.83073788799 0.52542963682 0.18384302602 0.72047147522 0.58553598902 0.37157564366 0.7652009864 0.56175619568 0.31447961306 
0.59771397757 0.64582995507 0.4750175472 0.87624245908 0.43626656917 0.20462315003 0.79183260937 0.53520897981 0.29419800589 
0.54401141046 0.70897916947 0.44877624998 -0.82394349509 0.47400548914 0.31054132279 0.91759049482 0.29986309806 0.26097855514 
0.99193523712 -0.11869971765 0.044439423848 0.95313609213 -0.30052938594 -0.034837882619 0.93674553352 0.32025558414 0.14122381616 
0.68923928901 0.69591428235 0.20162468624 -0.10888754219 0.98587523423 0.12725378455 0.54984350833 0.78604737567 0.28249183978 
0.85878597587 0.35057372439 0.37361037382 0.85878597587 0.35057372439 0.37361037382 
SiphonLabel 1 98 int
0 0 0 0 0 0 0 0 0 
0 0 0 0 0 0 0 0 0 
0 0 1 1 1 1 1 1 1 
1 1 1 1 1 1 1 1 1 
1 1 1 1 1 1 1 1 1 
1 1 1 1 1 0 0 0 0 
0 0 0 0 0 0 0 0 0 
0 0 0 0 0 0 0 0 0 
0 0 0 0 0 0 0 0 0 
0 0 0 0 0 0 0 0 0 
0 0 0 0 0 0 0 0 
