# vtk DataFile Version 5.1
vtk output
ASCII
DATASET POLYDATA
POINTS 95 float
102.896 72.2276 34.738 102.104 72.0392 34.4926 101.171 71.7207 34.3536 
100.505 71.3876 34.1054 99.7291 70.9222 33.7913 99.0374 70.4212 33.4964 
98.5891 69.9725 33.3664 98.2252 69.2399 33.1163 97.9786 68.5576 32.7985 
97.7467 67.7398 32.3588 97.7613 67.0275 31.9795 98.0433 66.1982 31.5393 
98.3197 65.7181 31.2161 98.6754 64.9807 30.69 99.0167 64.4318 30.2532 
99.3206 64.0173 29.9853 99.7782 63.4747 29.8241 100.342 62.7458 29.5037 
100.863 62.1624 29.0229 101.312 61.8709 28.6156 101.798 61.5596 28.17 
102.208 61.3094 27.5241 102.609 61.316 26.8441 103.043 61.7265 26.0902 
103.333 62.4494 25.5492 103.383 63.2078 25.2453 103.374 64.0526 25.0888 
103.149 64.9243 24.9284 102.664 65.7189 24.7939 102.257 66.2681 24.7293 
101.708 66.9312 24.6447 101.391 67.3909 24.6513 101.101 68.0486 24.5579 
100.922 68.751 24.4868 100.799 69.4462 24.4631 100.689 69.8733 24.4398 
100.384 70.7386 24.4296 100.23 71.4323 24.4379 100.136 72.0834 24.3835 
100.143 72.9792 24.2037 100.265 73.5416 23.9917 100.583 74.1483 23.6571 
101.08 74.8059 23.1885 101.743 75.2233 22.6491 102.29 75.3624 22.1775 
102.689 75.2871 21.8157 102.993 75.2571 21.3404 103.245 75.1932 20.6561 
103.504 75.1388 19.7682 103.631 75.2379 18.8152 103.725 75.4596 18.0371 
103.876 75.8027 17.3398 104.022 76.1436 16.7557 104.239 76.7501 16.0848 
104.415 77.2634 15.3357 104.535 77.7854 14.5863 104.629 78.1543 14.0828 
104.79 78.5114 13.533 105 79.0241 12.7302 105.275 79.4258 12.0122 
105.67 79.8056 11.3572 106.252 80.1814 10.6837 106.982 80.549 10.2406 
107.468 80.7581 9.9925 108.071 81.0405 9.82435 108.814 81.4709 9.69792 
109.609 81.7992 9.6317 110.196 82.0487 9.65402 111.081 82.435 9.63388 
111.809 82.6993 9.6581 112.52 82.8931 9.69223 113.424 83.2372 9.82917 
114.268 83.5678 10.0879 114.647 83.7375 10.1719 115.482 84.0801 10.3602 
116.309 84.4101 10.4576 116.733 84.5698 10.5091 117.609 84.8199 10.5547 
118.355 85.0339 10.5193 119.084 85.4072 10.334 119.899 85.8714 10.1609 
120.501 86.3072 9.96472 120.991 86.8241 9.72596 121.45 87.6322 9.46799 
121.678 87.9931 9.18995 122.014 88.587 8.66379 122.43 89.2439 8.17071 
122.767 89.8304 7.75443 122.952 90.3643 7.32146 123.104 90.7853 6.96971 
123.305 91.2653 6.51613 123.515 91.6909 6.02479 123.748 92.1582 5.3772 
123.895 92.5575 4.52856 123.869 92.7515 3.6344 
LINES 2 95
OFFSETS vtktypeint64
0 95 
CONNECTIVITY vtktypeint64
94 93 92 91 90 89 88 87 86 
85 84 83 82 81 80 79 78 77 
76 75 74 73 72 71 70 69 68 
67 66 65 64 63 62 61 60 59 
58 57 56 55 54 53 52 51 50 
49 48 47 46 45 44 43 42 41 
40 39 38 37 36 35 34 33 32 
31 30 29 28 27 26 25 24 23 
22 21 20 19 18 17 16 15 14 
13 12 11 10 9 8 7 6 5 
4 3 2 1 0 
CELL_DATA 1
FIELD FieldData 2
Length 1 1 double
75.337050429 
Tortuosity 1 1 double
0.76181046039 
POINT_DATA 95
FIELD FieldData 7
MaximumInscribedSphereRadius 1 95 double
1.3744180299 1.5257910989 1.6182700278 1.6058310152 1.6344729513 1.6719671143 1.5944017695 1.4727714103 1.422223399 
1.4058506197 1.30804629 1.2693535512 1.2845115568 1.3791740563 1.4095425516 1.4465397928 1.4654743848 1.5341255669 
1.6195655121 1.4932027622 1.2655794339 1.1328335695 1.0560343689 0.96530053637 0.95802776589 1.0817972329 1.2964494425 
1.4691723979 1.5815477973 1.6181810604 1.6888853269 1.6487068948 1.6165711895 1.6517000368 1.754395809 1.8327578037 
1.9181660439 1.9603578291 1.9981159809 1.9974108501 1.9716641417 1.896692952 1.8494935727 1.856246401 1.8700128451 
1.7440332168 1.6486355792 1.5280492023 1.4575394566 1.456630433 1.4860222103 1.5167866456 1.5689338547 1.6585442184 
1.6795557592 1.6452277217 1.6696805845 1.7035252485 1.6958433511 1.710341633 1.7854477501 1.852901412 1.8808590528 
1.8733834894 1.7982772286 1.804713171 1.812816454 1.8206396835 1.901690277 1.8952611183 1.8908820243 1.9281665942 
1.9590836803 1.9483556818 1.9717249292 1.9306179565 1.8881827282 1.8184403386 1.7920696949 1.7715081161 1.7440723125 
1.7452011792 1.7539868435 1.7201984529 1.6830303123 1.6155902538 1.4848926039 1.3859788383 1.3358232509 1.3058542942 
1.2905835038 1.3298615276 1.4291112201 1.6008013216 1.7412781718 
Curvature 1 95 double
0 0.19501970243 0.25432534244 0.083898918001 0.088430620036 0.26122668637 0.44559935135 0.19273206919 0.10372640395 
0.30230841816 0.31102727429 0.22597289969 0.093860057402 0.10525187649 0.19402882614 0.41070210417 0.13939934097 0.24087182936 
0.30514998972 0.011885675377 0.36316690221 0.41805806259 0.51338250667 0.46456388429 0.4143655329 0.25367631499 0.27116362951 
0.32225845059 0.12520238952 0.069257680111 0.19789799197 0.37134105662 0.23011863644 0.13880572792 0.13940405809 0.14339795536 
0.15363590924 0.17447679175 0.2421626531 0.33415403199 0.39265399151 0.18688509872 0.34126222295 0.3192688049 0.52767319796 
0.50574210153 0.34263033992 0.089825979949 0.23557919542 0.19600463952 0.24243419216 0.097808985995 0.25231513475 0.149414365 
0.067276659116 0.038693270592 0.16435500452 0.02954126909 0.12943215181 0.18605853828 0.18321803253 0.30883246323 0.10473904006 
0.30657894969 0.17128191717 0.17404115912 0.14996589541 0.070735189873 0.094507396824 0.11040186545 0.15884523564 0.14391296729 
0.13350331532 0.047197045817 0.10716567373 0.028823696357 0.15143062524 0.11327023552 0.32817470156 0.06579716462 0.15198339508 
0.24991760104 0.28130667632 0.42677145808 0.1318418631 0.1141280757 0.046851076615 0.24700767142 0.026053542938 0.099898432404 
0.14167705439 0.11819659117 0.25176365639 0.31754672773 0 
Torsion 1 95 double
0 0 -0.26764984442 1.2623845897 1.0272692641 -0.79903818441 -0.51436953095 -0.76526019046 1.0007768916 
0.11662120974 -0.22205869766 -0.64522802771 -0.65131197221 1.3840562948 0.7555162348 0.1206135136 0.78202582547 0.6445498302 
0.32973870939 -21.656318288 0.58995880487 0.50558478127 0.022980305964 -0.14873539785 -0.020988427799 -0.19238845956 -0.47116532051 
0.094136163872 0.36111126616 0.70943759064 1.4821856757 0.065941859346 -0.99969297719 -0.86001423525 0.18223256007 0.91385159333 
0.95737356309 0.32976601362 -0.074329498374 -0.12344610672 -0.079604125115 0.13064017223 0.13745885566 0.15076419997 0.72904089468 
0.61508209523 -0.42525669185 1.8067194563 0.36324811238 0.77017550425 0.22793029191 -0.41049195723 -0.11333765379 0.047573814617 
1.4374793489 3.6643550922 0.28411216327 0.65534897819 -0.51944525899 -0.12679742419 -0.33732272748 -0.067325236387 -0.60449853416 
-0.44850148482 0.022275200805 0.095242355137 -0.79245134654 -0.88590034059 0.04490032288 -0.4990664701 0.024461624087 0.10976745484 
-0.64469339728 0.10463755829 0.094777294371 0.24206184753 0.5427764118 1.8395409228 0.28380968333 1.4424509101 -0.034866154327 
0.44925604664 -0.55338693111 -0.29292546362 1.3603338387 -0.19875917742 -3.9210030483 -0.17445203791 -6.5788188476 0.20953715644 
0.36192431069 0.72828866885 0.094578160829 0 0 
FrenetTangent 3 95 double
0.93823847245 0.27570913614 0.20902880438 0.93823847245 0.27570913614 0.20902880438 0.90353484994 0.36837645116 0.2189145157 
0.82801136437 0.45842006809 0.3228749319 0.78923568935 0.51955100746 0.32737406326 0.73859808549 0.61536411971 0.27531775874 
0.54761081958 0.79651547529 0.25629180226 0.3717216244 0.86153882235 0.34579457998 0.27388678472 0.85849966806 0.43354855449 
0.12426503843 0.8748019659 0.46827312615 -0.1674775511 0.87053085371 0.4627389141 -0.34572495274 0.81065433131 0.47256090844 
-0.3917926682 0.75457976972 0.52641036869 -0.3979459747 0.73440510789 0.5498073651 -0.47554405994 0.71003521544 0.51933403498 
-0.58746726656 0.73843215135 0.33105916175 -0.60051260894 0.74777704303 0.28322093923 -0.57666033844 0.69730483421 0.42570978642 
-0.61415990962 0.55379677801 0.56224259362 -0.66671053728 0.43018509275 0.60863605336 -0.58951449036 0.36953481908 0.71827340417 
-0.51544281974 0.15484526167 0.84281768166 -0.48830477765 -0.24375782523 0.83793828339 -0.38780355733 -0.60710640567 0.6935634168 
-0.19547731306 -0.85188523375 0.48588081728 -0.024743234652 -0.9608546577 0.27594582641 0.13308891605 -0.97462873398 0.17996158292 
0.38694749614 -0.90798817843 0.16071435241 0.5489082241 -0.82685735589 0.12250173277 0.61631552892 -0.7816054916 0.096166648624 
0.60983944661 -0.79061876987 0.054934598224 0.47595025986 -0.87682925529 0.068130809586 0.32389386529 -0.93925322152 0.1135612165 
0.21071380799 -0.97530741008 0.066144893751 0.20249743877 -0.97842388263 0.041006014048 0.30617645234 -0.95165577965 0.024642586825 
0.28242765611 -0.95928791243 0.0011489672689 0.18088416093 -0.98292643763 0.033712587319 0.056015311087 -0.98717917689 0.14946423532 
-0.085142720438 -0.96224213412 0.25853586306 -0.32263222018 -0.85744089888 0.40087847963 -0.4779110193 -0.74142824373 0.47104693717 
-0.61869806089 -0.57309753855 0.53737502804 -0.72365613272 -0.33279303001 0.60462434681 -0.74922269011 -0.050553956238 0.66038599178 
-0.64032642288 0.095809335906 0.76210408955 -0.431403452 0.072870845584 0.89921126631 -0.30789531717 0.071430645462 0.94873501915 
-0.20513950031 -0.023761958328 0.97844425224 -0.12471118362 -0.18080627745 0.97557993558 -0.15333527772 -0.35332204538 0.92284983874 
-0.20038661522 -0.46131992709 0.86430846884 -0.22468048359 -0.58709596649 0.77771267601 -0.21251400702 -0.60510695274 0.76725704465 
-0.16076233226 -0.56101861883 0.81204284484 -0.13764516519 -0.57394917425 0.80723983665 -0.19523457158 -0.5565846562 0.80752522099 
-0.22508648837 -0.52702614048 0.81949955461 -0.2637909024 -0.49703864273 0.82666011604 -0.3903708319 -0.45540744301 0.80013416028 
-0.53851981168 -0.41661246345 0.73241413676 -0.69915085075 -0.39620703409 0.59515382385 -0.80375306967 -0.38115189233 0.45684158958 
-0.86080958243 -0.38837621716 0.3288932604 -0.86762560036 -0.45952388687 0.18990422583 -0.89109665669 -0.43985601677 0.11168452416 
-0.92223721839 -0.38551279236 0.029298463124 -0.91805008876 -0.39646207494 -0.0013629602879 -0.92739604479 -0.37407361451 -0.0023467054064 
-0.9521913756 -0.30305418245 -0.038597237487 -0.94397810293 -0.31448540193 -0.10002136347 -0.91276432474 -0.3523680564 -0.20663504134 
-0.89590886268 -0.36649445259 -0.25105602164 -0.90222295792 -0.38082466662 -0.20240135251 -0.91546839076 -0.37036039569 -0.15732387874 
-0.92558563329 -0.36216360119 -0.11013065616 -0.9513146375 -0.29992105836 -0.071048006602 -0.96141289841 -0.27504208717 -0.0060900787656 
-0.92019285841 -0.36645779281 0.13767276208 -0.86119873516 -0.46726853776 0.19999213029 -0.82441890035 -0.52361045126 0.2148617511 
-0.72192799838 -0.62947149042 0.28737711793 -0.55698138397 -0.77767659868 0.29153189497 -0.47116336464 -0.80178302448 0.36762625786 
-0.41159797614 -0.6970530032 0.58711516483 -0.42245916051 -0.70265287476 0.57254449197 -0.43924278345 -0.72511967998 0.53034632731 
-0.34758951493 -0.74723858669 0.56640623556 -0.2635185861 -0.74530220502 0.61243985661 -0.28028667076 -0.7156976207 0.63970016251 
-0.29907768002 -0.66025484893 0.68892385339 -0.29302564973 -0.58988202956 0.75244611754 -0.21485186777 -0.4894875164 0.84512759167 
-0.065497077186 -0.3215968931 0.94460868683 -0.065497077186 -0.3215968931 0.94460868683 
FrenetNormal 3 95 double
-0.024046531543 -0.55072466314 0.83434052384 -0.024046531543 -0.55072466314 0.83434052384 0.38455662409 -0.47166720696 -0.79350251969 
0.52417336017 -0.83730864364 -0.15542369114 0.54470683533 -0.83844495527 0.017450516643 0.3521208307 -0.70040528534 0.62084084664 
0.83133690176 -0.48319715286 -0.27458963426 0.7214206964 -0.033647677521 -0.69167912546 0.76375014919 0.079827072312 -0.6405570608 
0.99213782306 -0.11661059008 -0.04543688304 0.98586266612 0.14545007788 0.083180997744 0.79513366265 0.52050653916 -0.31118387042 
-0.86876514356 -0.11505444732 -0.48167374798 0.78381269245 0.58360495833 -0.21223316367 0.66635281686 -0.094671896036 0.73960202512 
0.38589768926 -0.10396100805 0.91666519637 -0.43457883779 -0.0078920792566 -0.90059921654 -0.041781127561 0.49522223746 -0.86776106902 
0.42595913708 0.83236832051 -0.35457269007 -0.097425944334 0.75930508508 -0.64340032107 -0.57792539834 0.42829163875 -0.69467150951 
-0.0043442517285 0.98305363344 -0.18326669436 -0.1409360586 0.96962014951 0.19993447191 -0.34566396062 0.79332307038 0.50115360153 
-0.68319133752 0.47373046289 0.55572389266 -0.34616077011 0.26718891247 0.89932352704 -0.99109262497 -0.13000120669 0.028898010241 
-0.92118192047 -0.37286185233 0.11134589564 -0.76188912436 -0.43463150174 0.48022954914 -0.7793235632 -0.62290307678 -0.068165539535 
0.46801141621 0.41520247967 0.78011038653 0.72347920995 0.34630724675 -0.5972010747 0.92117473474 0.34044997423 0.1884964804 
0.73737025258 0.20300146952 0.64426354389 -0.94822838556 -0.20636542947 -0.24140471895 -0.86269044787 -0.26642249355 0.42986538134 
0.94319173136 0.27790681315 0.18209107912 0.6080054382 0.084814269728 -0.78938959125 0.79615989734 -0.046169893121 -0.60332226781 
0.767608461 -0.22877897983 -0.59869644144 0.8131211787 -0.46786787024 -0.34631431497 0.67537837948 -0.65303293996 -0.34265437961 
0.54589053096 -0.80551078855 -0.23055562832 0.18835634326 -0.93803847701 -0.29087059597 -0.012722527591 -0.99580021264 -0.090664622605 
-0.70805881632 0.31094447125 -0.63400808231 -0.89546343278 -0.15579847731 -0.41697970578 -0.8680983877 0.38700009005 -0.31086350634 
-0.6703986216 0.73177173727 -0.12278360105 -0.092798651965 0.98107163378 0.16996134734 0.39129336846 0.83584871948 0.3850278145 
0.27821246398 0.81908964903 0.50168712534 0.10473135766 0.77894584642 0.61828368171 -0.3035244269 -0.70547486162 -0.64045151409 
-0.97982703589 0.18967919168 -0.062934759766 0.60733459094 0.59490045113 0.52653408997 0.84046800172 -0.51930046778 -0.15472738044 
-0.92819300194 -0.1397920652 -0.34484189081 0.85018560187 -0.52462938192 -0.044141295911 0.9169856989 -0.11478438821 0.38204943691 
0.83963406087 -0.33834261588 0.42489871513 0.64050376199 0.022818421903 0.76761595248 0.59391544417 -0.46845686748 0.65407385553 
0.23416595093 0.271522776 0.93351041212 -0.17501836532 0.63973801591 0.74840085702 0.43864177118 -0.77171233893 0.46049263025 
-0.0068070411883 0.091958932213 0.9957395337 -0.069304146415 0.16386407876 -0.98404547607 0.28781789977 -0.71753162015 0.63427851189 
0.29167892625 -0.93939609825 0.18016207865 -0.29299036118 0.65919492684 0.69254508639 -0.21621229034 -0.012430628552 0.97626724055 
0.0050248598724 0.55674219088 -0.83067014132 0.34726117516 -0.91980163395 0.18268724753 0.18301968814 -0.03504828737 -0.98248430588 
0.33331119164 -0.91764898332 0.21638852313 0.27930461187 -0.74136859278 -0.6102143422 0.0027117146956 0.012661664728 -0.99991616091 
-0.35862399885 0.64813975901 -0.67179139637 -0.22961819525 0.70871183496 0.66708546634 -0.54179414006 0.6203195411 -0.56715322156 
-0.69153280275 0.64158218229 -0.33189559516 -0.75403607292 0.62064826882 0.21500076081 -0.064424674372 -0.38439259495 -0.92091899442 
-0.66356383225 -0.21237999483 -0.71734076862 0.62494808391 0.23170721059 0.74548753241 -0.72206893903 0.63619062001 0.27180497109 
-0.88673879229 0.065628488631 -0.45758847858 0.50889505077 -0.64675528008 -0.56809632545 0.34541990276 -0.69697025434 -0.62842466163 
0.18102639029 -0.74811687706 -0.63839688617 -0.30317300906 -0.68905274653 -0.65824952645 -0.56946860868 -0.64022046059 -0.51558051318 
-0.63222775078 -0.71901404262 -0.2886293084 -0.63222775078 -0.71901404262 -0.2886293084 
FrenetBinormal 3 95 double
0.34515262296 -0.78783679633 -0.51008121825 0.34515262296 -0.78783679633 -0.51008121825 -0.189052844 0.80114220717 -0.56782936351 
0.19909663222 0.29793502053 -0.93359265988 0.28355156533 0.16455031943 -0.94473366732 0.57487719444 -0.36160674281 -0.73400052784 
-0.094875423888 0.3634330875 -0.92677669633 -0.58427323468 0.50657545478 -0.63403950654 -0.58452693588 0.50656288699 -0.63381566939 
0.014857330953 0.47023769599 -0.88241473752 0.0051062138838 0.47012796938 -0.88258349123 -0.49823359538 0.26816505706 -0.82453064625 
-0.3028954118 -0.64604322245 0.70063009087 -0.47673542387 0.34648865799 -0.80787928895 0.57430982101 0.69777304687 -0.42811330808 
0.7113122972 0.66626576278 -0.22388557165 -0.671212217 -0.66390301174 0.32970737139 -0.81591494131 -0.51819002664 -0.25644084083 
-0.66435413671 0.021728038722 -0.74710205017 -0.73892167707 -0.488258716 -0.46432551233 -0.56433580393 -0.82462736412 -0.038920569626 
-0.85691296353 -0.098124913875 -0.50603524998 -0.86121743568 -0.020466761155 -0.50782441865 -0.85447342103 -0.045390728149 -0.51750831351 
-0.70358952267 -0.22331815209 -0.67460417026 -0.937848865 -0.073269446721 -0.33922130624 -0.0047696081986 -0.18220460247 -0.98324907001 
-0.041176505824 -0.19113217132 -0.98070025413 -0.34383822314 -0.35693468689 -0.86854643261 0.11318106135 -0.032933454714 -0.99302841596 
-0.63957889557 -0.4500320673 0.6232254606 0.5000491805 0.33352923098 0.79919276096 -0.21570783969 0.043556869861 0.97548599528 
-0.64178251903 -0.08698194767 0.76193788398 0.2446583661 0.010000770795 -0.96955776954 -0.4025185352 -0.15287358171 -0.90255664467 
-0.174997077 -0.050343860247 0.98328099686 0.77305259035 0.16328551028 0.61296617744 0.60248792751 0.15279271477 0.7833662512 
0.6352385125 0.14747967221 0.7581040684 0.48450221801 0.21423062555 0.84815260409 0.56166280112 0.15437661326 0.81283624373 
0.56499224567 0.15070361921 0.8112164825 0.66396060842 -0.096605459588 0.74150097481 0.6621959664 -0.076329771447 0.74543294002 
-0.29771594649 -0.94558664698 -0.13126731602 0.10971008232 -0.98509729181 0.13246517846 -0.38936571875 -0.91930875836 -0.057146687314 
-0.71308027148 -0.68113544458 -0.16604527263 -0.98784387981 -0.06933642211 -0.13912918348 -0.90740167093 0.42014336885 0.010087477758 
-0.93938438849 0.3409927737 -0.035789648731 -0.96878791436 0.22036718103 -0.11352657182 0.92882222147 -0.36898617232 -0.033741451347 
-0.11872005842 -0.80577907243 -0.5801944796 -0.78243114915 0.56273954777 0.2666940161 0.50546711085 0.64849097499 0.56917699813 
0.29630022596 -0.83827300193 -0.45771667038 0.45563011554 0.69117045601 0.5609675557 -0.082145247094 0.88285253869 0.46241058953 
0.070788814514 0.84377623194 0.53200621628 -0.3177153109 0.91787760936 0.23781857677 -0.035290907767 0.79703914476 0.60289564068 
-0.45185525361 0.88059031113 -0.14278492122 -0.46539702341 0.61609501571 -0.63547819964 -0.11636212873 0.45933294074 0.88060950741 
-0.38656458349 0.91810862196 -0.087432151306 0.39036005151 -0.90330857786 -0.17791189774 -0.23895069089 0.58755195941 0.77310106863 
-0.090856965752 0.16029077671 0.98287938155 -0.15186174447 0.68305269226 -0.714406768 -0.34657399353 0.93577894414 -0.064840070241 
0.44420947825 -0.74546626289 -0.49694867977 -0.25574090489 0.094538497314 0.96211177214 0.35835934377 -0.92822669368 0.099868843355 
-0.17942933145 0.16357832798 0.97007589684 0.13034337066 -0.60034987165 0.78904412889 0.27509613843 -0.96134880898 -0.011427252115 
0.15695200151 -0.66755040175 -0.72783413656 -0.45344484005 0.52857132783 -0.7176350942 0.16368441143 -0.58398267292 -0.7950922281 
0.024542776485 -0.4383354265 -0.89847632467 -0.3481398263 -0.10007414391 -0.93208574019 0.87969002788 -0.45758749392 0.12945709811 
0.62471605275 -0.68484439731 -0.37512398604 -0.65648164492 0.67274862032 0.34123473407 -0.53449249244 -0.26355823782 -0.80302853673 
0.30475538283 -0.66130733857 -0.68541721644 0.81950215502 0.16196367147 0.54971264043 0.89561402008 0.044826111695 0.44256767476 
0.93690020137 -0.066216861279 0.34326861195 0.90676463053 -0.42100534879 0.023073818861 0.7934382009 -0.59204707003 -0.14119521318 
0.77200919945 -0.61611220153 -0.15622916213 0.77200919945 -0.61611220153 -0.15622916213 
SiphonLabel 1 95 int
0 0 0 0 0 0 0 0 0 
0 0 0 0 0 0 0 0 0 
0 1 1 1 1 1 1 1 1 
1 1 1 1 1 1 1 1 1 
1 1 1 1 1 1 1 1 1 
1 1 1 1 1 0 0 0 0 
0 0 0 0 0 0 0 0 0 
0 0 0 0 0 0 0 0 0 
0 0 0 0 0 0 0 0 0 
0 0 0 0 0 0 0 0 0 
0 0 0 0 0 
