# vtk DataFile Version 5.1
vtk output
ASCII
DATASET POLYDATA
POINTS 116 float
90.7411 90.584 37.2843 91.1445 90.534 36.5376 91.4247 90.4537 36.1456 
91.8388 90.1404 35.5793 92.1876 89.6849 34.9991 92.4338 89.1641 34.5478 
92.6242 88.7219 34.1767 92.781 88.2786 33.8715 93.0023 87.5716 33.2295 
93.0148 86.97 32.6764 92.9425 86.3509 32.2464 92.6581 85.592 31.6915 
92.3462 84.9719 31.1862 92.1135 84.5284 30.9051 91.8442 84.0735 30.4905 
91.3953 83.6997 29.915 91.076 83.3695 29.4553 90.6996 82.9499 28.9661 
90.2516 82.4253 28.4604 89.864 82.0597 28.1865 89.4292 81.6107 27.8496 
88.9536 80.9829 27.4255 88.5075 80.4663 26.9778 88.015 79.8552 26.3812 
87.4227 79.3694 25.8133 87.0244 79.0051 25.4472 86.7425 78.7591 25.2554 
86.2236 78.2748 24.857 85.7253 77.9902 24.3787 85.3704 77.8417 23.7738 
84.9783 77.9554 22.9696 84.769 78.3554 22.1889 84.7884 78.9138 21.6994 
85.0008 79.5955 21.3277 85.215 80.1076 21.1752 85.3049 80.6507 21.1375 
85.3893 81.3898 21.139 85.4394 82.1737 21.2013 85.5824 82.858 21.5603 
85.6833 83.5325 22.1837 85.7479 83.8711 22.6447 85.7913 84.2035 23.1299 
85.9433 84.59 23.7507 86.1995 85.0848 24.4271 86.4494 85.7851 25.0774 
86.7089 86.4217 25.6337 87.045 87.0371 26.1223 87.4 87.6806 26.4143 
87.8758 88.4586 26.5495 88.3904 89.235 26.4294 88.8824 89.5906 26.0962 
89.3135 90.2728 25.5832 89.4829 90.747 25.1487 89.6289 91.4344 24.4465 
89.7236 91.8733 23.7587 89.7688 92.1895 23.0006 89.7643 92.4202 22.2467 
89.8041 92.7704 21.4285 89.8635 93.2035 20.6938 89.8691 93.5011 20.1136 
89.814 93.9203 19.2132 89.8293 94.217 18.7199 89.8766 94.54 18.0858 
89.9227 95.0583 17.3046 89.9153 95.517 16.7078 89.8745 95.8278 16.2503 
89.7655 96.2353 15.8494 89.6111 96.7682 15.3693 89.305 97.2977 14.7915 
88.8917 97.8857 14.1767 88.4871 98.3263 13.7223 87.9248 98.8281 13.2851 
87.2821 99.4145 12.9481 86.6835 100.043 12.7916 86.1697 100.524 12.7306 
85.4778 101.06 12.7178 84.6745 101.569 12.7554 83.9095 102.008 12.9351 
83.1147 102.481 13.2631 82.5352 102.756 13.4724 82.0418 102.926 13.6211 
81.1275 103.206 13.891 80.2916 103.457 14.2052 79.6682 103.692 14.4894 
79.168 103.926 14.693 78.335 104.248 14.9794 77.4751 104.547 15.1926 
76.5891 104.801 15.3834 75.7192 105.186 15.5967 75.0457 105.581 15.6702 
74.6599 105.813 15.6773 73.925 106.246 15.5595 73.1705 106.772 15.3554 
72.5836 107.106 15.1549 72.0385 107.478 14.9879 71.6335 107.863 14.8139 
71.1788 108.505 14.6037 70.8656 109.037 14.3754 70.5852 109.573 14.0647 
70.3835 110.118 13.6347 70.2052 110.554 13.2031 70.0717 111.066 12.721 
70.0077 111.523 12.2855 70.1077 112.167 11.5636 70.3796 112.615 10.8323 
70.6698 113.139 10.1743 71.1197 113.482 9.46983 71.5405 113.714 8.71165 
71.9434 113.965 8.10007 72.3469 114.133 7.53825 72.8366 114.317 6.9456 
73.3324 114.471 6.23594 73.85 114.511 5.45794 74.3508 114.559 4.66175 
74.867 114.652 4.03267 75.2105 114.699 3.61106 
LINES 2 116
OFFSETS vtktypeint64
0 116 
CONNECTIVITY vtktypeint64
115 114 113 112 111 110 109 108 107 
106 105 104 103 102 101 100 99 98 
97 96 95 94 93 92 91 90 89 
88 87 86 85 84 83 82 81 80 
79 78 77 76 75 74 73 72 71 
70 69 68 67 66 65 64 63 62 
61 60 59 58 57 56 55 54 53 
52 51 50 49 48 47 46 45 44 
43 42 41 40 39 38 37 36 35 
34 33 32 31 30 29 28 27 26 
25 24 23 22 21 20 19 18 17 
16 15 14 13 12 11 10 9 8 
7 6 5 4 3 2 1 0 
CELL_DATA 1
FIELD FieldData 2
Length 1 1 double
90.431232863 
Tortuosity 1 1 double
1.0444040861 
POINT_DATA 116
FIELD FieldData 7
MaximumInscribedSphereRadius 1 116 double
1.6087858308 1.5639358726 1.524129632 1.4717033862 1.4647037495 1.4528032385 1.4328048303 1.4307968467 1.3773996852 
1.3243770341 1.3805878382 1.4604854579 1.4719124608 1.4779042405 1.5183149912 1.5129159541 1.5734412622 1.6400276765 
1.7359451168 1.7414946733 1.7424087872 1.8047890619 1.8840307015 1.8504810935 1.8428331262 1.8171667821 1.6928259444 
1.4504188645 1.2164417855 1.1739359931 1.2331802248 1.4116166865 1.5503830559 1.7187815033 1.7633816164 1.7013982609 
1.6369831369 1.6780870522 1.7353751335 1.7884670467 1.7967764253 1.8240823001 1.8600067736 1.8870155099 1.8374786749 
1.7875789581 1.7337172791 1.7425961028 1.8198618645 1.9154809346 1.7937871993 1.6720528568 1.6176061866 1.64802808 
1.7309243842 1.7678824757 1.7624595414 1.7233765036 1.6931613335 1.6892634666 1.7143789134 1.7025653428 1.7080843372 
1.7690080116 1.8029685137 1.7678993793 1.6435341601 1.5038060197 1.3966276259 1.4329477782 1.5445940537 1.6635272439 
1.724108821 1.7356866781 1.7966042952 1.8096223323 1.8115378156 1.8471396933 1.8239980807 1.7897342881 1.8044819048 
1.8297054658 1.8655606738 1.8877110091 1.9265541359 1.9753626035 1.9409178753 1.8771119761 1.8043972132 1.7609457643 
1.7389119491 1.6906894887 1.7119683387 1.6973120739 1.584802347 1.5026263279 1.4560391881 1.4679732172 1.4714587173 
1.447858012 1.4588529749 1.4935280738 1.535605522 1.5827658473 1.7144050741 1.8704400597 1.8597435242 1.8511913894 
1.8599171705 1.8721372403 1.9333060905 2.0034514826 2.0505119749 2.111909321 2.1595159854 2.1815088546 
Curvature 1 116 double
0 0.24549182537 0.41094930899 0.24091331314 0.26341105617 0.043341808444 0.16681631101 0.18420215604 0.23878066689 
0.22421747878 0.23129984838 0.10059994967 0.16620713504 0.2573706074 0.38052506429 0.10462555701 0.10904839383 0.1055409871 
0.25248380924 0.068029402008 0.13314943405 0.11999753562 0.083157087637 0.17076928088 0.075888437348 0.23186486109 0.077928705022 
0.34377017463 0.44584070098 0.43490338272 0.43425847972 0.57888328918 0.4286893593 0.33539687529 0.54849648972 0.13380388999 
0.12008774643 0.55089942522 0.32083499428 0.25542348949 0.086959730068 0.2078262176 0.14444498546 0.20327266171 0.054665465522 
0.13278598978 0.28309590216 0.27743586361 0.30356566957 0.65092593785 0.41412197156 0.28509755762 0.14776059069 0.23062497389 
0.2234486741 0.14375278484 0.1417721196 0.14986137588 0.11251321708 0.090587554818 0.1710807768 0.12585086862 0.14052889579 
0.10787132496 0.13256782714 0.40232546286 0.074643026252 0.2360765339 0.092197712441 0.13785545442 0.18447558974 0.17435965739 
0.22528549186 0.13649467381 0.14855324734 0.12024561645 0.18139722826 0.14999958695 0.11144951045 0.1847015974 0.045702317094 
0.073537903712 0.10416178295 0.1343280426 0.10239003915 0.092971675748 0.06365058347 0.14200520328 0.19337026746 0.12813845397 
0.2345124457 0.12312669989 0.13706007806 0.12871456056 0.25923276403 0.27612058558 0.16726448217 0.19380841993 0.27996205294 
0.16015794571 0.14567955001 0.12855290876 0.27549227125 0.29174297721 0.13357414837 0.31030789968 0.15709879685 0.11939387303 
0.13468566465 0.087864588531 0.11939222958 0.14947650185 0.029108246821 0.15888378812 0.039973525038 0 
Torsion 1 116 double
0 0 0.56198111511 0.25727982889 -0.12926628725 0.26437463102 0.51652777043 -0.33974464748 -0.80586256861 
0.019629190624 0.57967266948 -0.36167359903 -0.023571268751 -0.60995907582 -0.2380757301 1.6924789371 0.73415514687 1.1139132384 
0.096875325241 -0.98981657444 -0.33905234374 -0.21090458153 -0.39015711571 -0.41154729835 0.48278182249 0.10088279951 -4.5889464659 
0.35958982033 -0.097549070976 -0.25692288786 0.087449466416 0.071470563626 0.05624107732 -1.3424596151 -0.47543838965 0.68325701282 
2.2211327223 -0.074910197027 -0.32747449918 0.082772634045 -0.19064153796 0.70043559338 1.4968029593 0.20298667805 -2.1201791148 
0.8522582067 0.11296349401 -0.074051469754 -0.55028743464 0.19543582326 0.52459485116 -0.55802276299 -0.85186213073 -0.21090714572 
0.18201051509 0.2688377973 -0.079792970048 -0.37843017616 -0.38882865643 0.58652625411 0.55773830333 0.65929132084 -0.43782749433 
-1.1273539861 1.6170655016 0.29166116439 -2.3106747402 -0.028910347336 0.82476498286 0.22534257307 0.51958810407 0.54688666681 
-0.14064627178 -1.0409236061 -0.27933998558 0.49129697071 0.4173369868 -0.14211025424 -0.79048611927 0.04325939209 1.8317238733 
0.89365887396 1.0858689716 1.1103983237 0.47137408685 -0.076914562413 0.14684607119 0.4977385863 0.54848132385 0.94849414037 
-0.20890027932 -0.13910102757 0.43301275147 0.93111859905 -0.10826481137 0.066649680948 1.2893435401 0.030534221123 0.21573083129 
0.31817816533 -0.57943523143 0.73810864921 0.29334515413 -0.059695078439 0.016927307918 0.43406923803 0.68878288933 0.3397028123 
0.1588177756 -0.36833250721 -0.22770900824 -0.19208017348 4.7730701529 0.19705210051 0 0 
FrenetTangent 3 116 double
-0.51225303532 0.097689610592 0.85326055094 -0.51225303532 0.097689610592 0.85326055094 -0.55675340542 0.31558413735 0.76839592516 
-0.4837032181 0.48742315624 0.72694557125 -0.38640148772 0.63397609362 0.66990163681 -0.32593993862 0.71895198988 0.61389835695 
-0.29745734947 0.75880322583 0.57942798492 -0.2459852965 0.7482238873 0.61615927193 -0.13077809986 0.73206883734 0.66855987465 
0.038164180534 0.7782408953 0.62680507672 0.20607545526 0.7960802161 0.56902477651 0.32428039791 0.74995080175 0.57655530392 
0.38065732471 0.74355359222 0.54975272318 0.40413123904 0.72322779664 0.56001740669 0.48612279139 0.56088986061 0.67013968392 
0.52297912438 0.47933693096 0.70478999857 0.49867451884 0.53738995619 0.68009981565 0.51514727066 0.59000037736 0.62170961409 
0.57679968036 0.61454619974 0.53817757025 0.62838608103 0.62237585737 0.46666821761 0.56819625303 0.67199511096 0.47494798546 
0.53946653355 0.66980546311 0.51023181081 0.52119994795 0.62619486386 0.57985395293 0.56122176205 0.56746615542 0.60250501761 
0.61713590757 0.52963227188 0.58192175434 0.63530819148 0.57002650335 0.52101179192 0.64888270262 0.59182910117 0.47821496552 
0.65734642757 0.4968875562 0.56656723401 0.59035431961 0.29959791555 0.74948173181 0.46827501896 0.021860868841 0.88331229417 
0.33951864744 -0.29000497293 0.89477606345 0.11845874168 -0.5980830991 0.79263114567 -0.1517739807 -0.81183696499 0.5638132679 
-0.31090009733 -0.870231089 0.38215046934 -0.27280988839 -0.9468115945 0.17065336013 -0.13465116009 -0.99049879019 0.027950164753 
-0.087882647632 -0.99525714916 -0.041711476754 -0.12543765208 -0.95361456377 -0.27365061522 -0.14396681947 -0.8019374654 -0.57980156646 
-0.11085342292 -0.67845094776 -0.72623400506 -0.092682255038 -0.57599611453 -0.81218130713 -0.14650255845 -0.53914795177 -0.82937113916 
-0.2519167833 -0.54382745687 -0.80049336752 -0.27269314029 -0.64393565349 -0.71483237574 -0.27219291897 -0.71430156441 -0.64473582958 
-0.34306025009 -0.7211621628 -0.60185945183 -0.42280005363 -0.77020361941 -0.47752120298 -0.48843875295 -0.83566533237 -0.25117929232 
-0.53735177861 -0.84331835313 -0.0081988594454 -0.63662073449 -0.71591063323 0.28668101723 -0.56755441684 -0.63812284345 0.52027033415 
-0.37268282187 -0.71779493814 0.58811388443 -0.19051858776 -0.70163578303 0.68659296216 -0.1333435403 -0.62390271329 0.77004214469 
-0.085461462574 -0.46122162719 0.88315963961 -0.025334180849 -0.34005007023 0.94006602376 -0.021018029804 -0.34654261743 0.93779872933 
-0.056953907104 -0.44963149884 0.89139652665 -0.04319577729 -0.48526718908 0.87329827667 0.030091903113 -0.43552362317 0.8996741916 
0.025419999865 -0.4567957425 0.88920834074 -0.048589930443 -0.48118425083 0.87527180659 -0.056643269499 -0.51012713855 0.85823181166 
-0.022924604228 -0.57819491264 0.81557654792 0.036864221813 -0.58915580356 0.80717808957 0.13271075521 -0.63606981983 0.76013356705 
0.20028555173 -0.7149682548 0.6698552772 0.29357888634 -0.67738871198 0.67450424044 0.4028713059 -0.625830911 0.66785506041 
0.48277366035 -0.60715208694 0.63110691344 0.59759041333 -0.58241134333 0.55107415568 0.66989842979 -0.60496187145 0.43041518079 
0.68744168106 -0.67286524381 0.27326964487 0.70140874823 -0.69944609293 0.13711648693 0.76348912237 -0.64412675887 0.046744823595 
0.81962906802 -0.57273369536 -0.013575899748 0.8498823419 -0.51364120891 -0.11778248358 0.83101629656 -0.48604427858 -0.27050485044 
0.83074816176 -0.45207716049 -0.32478259298 0.88258295003 -0.3665294991 -0.29445451705 0.91651497333 -0.29282501397 -0.27249553182 
0.91163474323 -0.27628570757 -0.30428326067 0.88416783065 -0.29455311428 -0.3626095836 0.85657424858 -0.35780795013 -0.37182526474 
0.87391348747 -0.36488078587 -0.32114985369 0.90476048978 -0.33180586127 -0.26704555148 0.93098193414 -0.2946884878 -0.21547931099 
0.91843998137 -0.33437504257 -0.21133227754 0.88039212319 -0.44513768392 -0.16359141719 0.85873575801 -0.50823515369 -0.065344674383 
0.85711205429 -0.50812528958 0.084661776921 0.82743016327 -0.5323377905 0.17881778913 0.81601594508 -0.5230050326 0.24613759008 
0.81781327988 -0.51056625824 0.26552501804 0.7529280265 -0.60005933703 0.27023726418 0.6170564298 -0.73702106663 0.27575588803 
0.52229794122 -0.79891514186 0.29822718975 0.44465408991 -0.79954758927 0.40374050183 0.34538836628 -0.77404683111 0.53062074939 
0.27939329579 -0.72146866784 0.6335789987 0.23042522614 -0.70054118617 0.67538600936 0.14643220273 -0.71831795392 0.680130081 
-0.022530692341 -0.68930075552 0.72412487621 -0.20044001884 -0.58872703092 0.78308638215 -0.31471308033 -0.54387027006 0.77792082271 
-0.41664300466 -0.48801904933 0.76697197743 -0.48457085715 -0.32030148943 0.81400125324 -0.49332605733 -0.28915615752 0.82037681447 
-0.54340366338 -0.28182275127 0.79075179133 -0.59480275882 -0.2346814548 0.76885258202 -0.59087636263 -0.2028917496 0.78083292837 
-0.55979585168 -0.10668296748 0.82173435421 -0.54260675765 -0.047133360514 0.83866343242 -0.57894839163 -0.080455224097 0.81138506071 
-0.62991428095 -0.10212514351 0.7699210698 -0.62991428095 -0.10212514351 0.7699210698 
FrenetNormal 3 116 double
0.61791391657 -0.64808409089 0.44516222082 0.61791391657 -0.64808409089 0.44516222082 -0.15175490557 -0.94809716699 0.27943194266 
-0.59158236448 -0.79419316728 0.13887951284 -0.44826389566 -0.7638474844 0.4643237022 -0.80579181045 -0.55087991593 0.21732665838 
-0.34278297524 -0.65131412638 0.6769710043 -0.38664725384 0.50717814849 -0.77024296608 -0.99101876722 -0.077546400262 -0.10894199755 
-0.63193105811 -0.4671114339 0.61844162709 -0.97167017298 0.23523971039 0.022789330662 -0.79869561429 0.54365195613 -0.25792996396 
-0.35661057964 -0.43048462317 0.8291633637 0.028096405352 0.60213705293 -0.797898215 -0.51898664912 0.802264453 -0.29499933133 
0.72686144799 -0.68266959524 -0.075064366817 -0.16978774001 -0.70885956568 0.68460955258 -0.22758474989 -0.6051653628 0.76287617952 
-0.68614888994 0.0069729187085 0.7274277141 0.77782501374 -0.49428438483 -0.38816387636 0.76144133539 -0.64820422991 0.0061942777447 
-0.14631391017 0.67132263525 -0.72657976788 0.62938617859 0.17684702481 -0.75670216599 -0.73961258275 0.670585167 0.05734772212 
0.16763254649 -0.81107058275 0.56041398908 -0.49195772148 -0.22131788057 0.84201899979 0.69433839946 -0.20351397783 -0.69027258953 
-0.11620700433 0.80966992919 -0.57526562378 0.53880330213 0.54510099302 -0.64230515258 0.18566154275 0.974941144 -0.12255430343 
0.53676488376 0.84091594683 0.068875466816 0.5687095775 0.6952206982 0.4395879858 0.73453232958 0.28904867227 0.61393250595 
0.47890722311 0.20386841336 0.85386506058 -0.69078231359 0.31623824057 0.6502408557 -0.57356525189 0.10091126895 0.81292054816 
-0.5430560447 0.012764812789 0.83959942346 0.28544028383 -0.29885625471 0.91060901785 -0.27176893556 -0.53133671899 0.80238577799 
0.018395003669 -0.73201320598 0.68104206193 -0.76455662144 -0.48137601966 0.42863772618 0.93893693649 -0.33967264041 0.054953859348 
0.75961785579 0.40138013942 -0.51173694105 -0.21155245882 0.76493892223 -0.60836995523 0.79327379133 0.21266778988 -0.57051652311 
0.86667919549 0.0040408623802 -0.49884951992 0.24463209808 0.41037056254 -0.87849367555 0.28186526612 0.12132433619 -0.95175226672 
0.11448061222 -0.063307005768 -0.99140628021 0.35063949814 -0.59981129526 -0.71922065628 -0.7970352206 0.58426926548 -0.15285379463 
-0.85183452276 0.01323772539 -0.52364368464 -0.88388460897 -0.18171582077 -0.43096097097 -0.15212039365 -0.75488897676 -0.63796709837 
-0.33062090869 -0.82304889094 -0.4618228425 -0.52629917885 -0.79495897765 -0.30174392818 0.4243815264 0.84621523651 0.32221125609 
0.19153498241 0.87134030373 0.4517526155 -0.72073193963 -0.59019965918 -0.36360670167 -0.85792657317 -0.47310634361 -0.20033068335 
0.6114751012 0.71079467671 0.3476623767 0.4922486752 -0.77403303688 -0.39820107932 -0.14975909086 0.8542275511 0.49786293862 
-0.64634826817 0.63093753278 0.42912905514 -0.73794143116 -0.56071190732 -0.37555905151 -0.50406279533 0.6170230464 0.60432049327 
-0.46724274495 0.5312445803 0.70672725516 -0.83028532891 -0.53037396277 -0.17125925439 -0.88908134869 -0.094334540319 0.44792337504 
-0.8746206899 -0.2977682043 0.3825869121 -0.7144131902 -0.074746079263 0.69572035856 -0.27598493895 0.33527932445 0.90078859233 
0.047921863297 0.4174881147 0.90741785805 -0.45506799729 -0.29139476662 0.84142867068 -0.53115284442 -0.58510869463 0.61280051512 
-0.49236665857 -0.71633646331 0.49440585034 -0.033830508348 -0.27622715046 0.9604967767 0.28497922311 -0.045616925685 0.95744761657 
-0.53765581441 -0.80277456094 -0.25783566381 -0.45287804119 -0.83099390654 -0.3230334458 -0.32029591032 -0.94532313592 -0.061438575178 
0.27329298518 -0.14546525593 0.95086844704 0.46525186732 0.6254384235 0.62639243161 0.12148466357 0.84013428953 -0.52859800611 
-0.48474600779 -0.70314927954 -0.52019457765 -0.36429947454 -0.27802488852 -0.88881272168 -0.36112900594 -0.82984900766 -0.42536627223 
0.36347665176 0.9241766964 0.11739743381 0.19036533742 0.64764358183 -0.73777966171 0.011326885553 0.14631804285 -0.98917275134 
0.042875420681 -0.093410764277 -0.99470404011 0.4779316334 0.50034982128 -0.72196357951 -0.29184780355 -0.74034701605 -0.60556680506 
0.36747744531 0.81838784687 0.44181631848 0.65804332956 0.68093547171 -0.32141228941 0.70974870155 0.67259355374 0.20946286574 
0.6700369352 0.16814090163 -0.72303467598 0.4869148182 -0.16256285375 -0.85818837 0.68969838057 -0.17407146863 -0.70286219677 
-0.0028302318659 -0.66047257361 -0.75084483703 0.94153885491 0.33581343886 0.027090939065 0.98677766053 0.057777599206 -0.15143182528 
0.93057684602 -0.27919113225 -0.23681014617 0.74424476382 -0.61130511793 -0.26908322936 0.2017966119 0.76249258028 0.61472204487 
0.62829669685 -0.76433576697 -0.14503136236 -0.20702386493 -0.86212295235 -0.46247717174 0.52201523019 0.65599991275 0.54512770423 
0.46557527882 -0.88499668209 0.0045312730486 0.79442580497 -0.025415042322 0.60682923135 -0.55881597756 -0.59514894092 -0.57751401831 
-0.078608041538 -0.9803681991 -0.18082856522 -0.7952343313 0.35036812141 -0.4948176814 0.71047774695 0.43846699006 0.55042535345 
-0.033877481236 -0.98676081554 -0.1586045686 -0.033877481236 -0.98676081554 -0.1586045686 
FrenetBinormal 3 116 double
0.59647231245 0.75527726771 0.27161927281 0.59647231245 0.75527726771 0.27161927281 0.81669828835 0.038966834591 0.57574776735 
0.64502829616 -0.3628717126 0.67250473407 0.80607280697 -0.12087734811 0.57934039785 0.49443170876 -0.42383883078 0.75887939153 
0.89107741366 0.0027519519959 0.45384300108 -0.88881670495 -0.42770473481 0.16454034404 -0.027908629847 -0.67680261022 0.73563532758 
0.77408438372 -0.41969991327 0.47396766734 -0.11571508835 -0.55760072471 0.8220045317 -0.50688020206 -0.3768505613 0.77527808895 
0.85318749149 -0.51167474504 0.10129195253 -0.91426939883 0.33819007032 0.22302229194 -0.70309138078 -0.2043876506 0.68109338461 
0.44515757983 0.55154177572 -0.70543348287 0.84999755741 -0.45686994991 -0.26224797668 0.82633435796 -0.53448520876 -0.17747419663 
0.44328526884 -0.78885001539 0.42569217005 -0.010917012494 0.60690298984 -0.79470093731 0.31202581752 0.35812546289 -0.8799920693 
-0.82919726174 0.31731145739 0.46015795129 -0.57638845622 0.7593451931 -0.30194573229 -0.37148803646 -0.47780508186 0.79605209787 
0.76879295064 -0.24830257023 -0.58932438662 0.59528237175 -0.79125734197 0.13982387732 -0.31119997633 0.7799489572 -0.54298637082 
-0.74457478221 0.31230972168 0.58997544987 -0.60097652112 0.78301085331 0.16037837965 -0.86385664213 0.22138624203 0.45248186006 
-0.77240568848 0.45689986436 0.44117113046 -0.81396372338 0.39870388431 0.4224905557 -0.66138257883 0.50731805342 0.55245042953 
-0.82096833138 0.44848135052 0.35337724474 -0.66962269975 0.059507812343 -0.7403136229 -0.80801730607 0.093429451587 -0.58170350753 
-0.83508488944 0.096437889869 -0.54160221642 -0.95015221928 0.036113747882 0.30968783864 -0.95153307906 0.273088983 -0.14144683386 
-0.99366651472 0.06213676653 0.09362627718 -0.63785826969 0.66068570723 -0.39576662826 -0.31134294543 -0.77067631562 0.555988837 
0.5995987387 -0.7369841795 0.31198665311 0.93855421176 -0.014673766816 -0.34481976765 0.54463538891 -0.66674259369 0.50875004365 
0.36218342992 -0.69275450657 0.62362998382 0.87257965323 -0.4882441869 0.014911831514 0.82582053521 -0.53567140835 0.17628552382 
0.83555206627 -0.53367253845 0.13056173351 0.68685222774 -0.35734909445 0.6328788525 -0.20643846793 -0.50142662682 -0.84021098355 
0.36808349612 -0.69612871612 -0.61637598143 0.42714244198 -0.68897502746 -0.58554482818 0.97932573033 -0.20220790567 0.0057512423487 
0.93988624479 -0.33145909814 -0.082150551499 0.84992196914 -0.50240041162 -0.15882843822 -0.90523950559 0.40475670199 0.12928050789 
-0.97983192588 0.19646269455 0.036493926507 0.6918667473 -0.64512023493 -0.32425342939 0.51289031227 -0.76582606465 -0.38788395981 
-0.79085524859 0.53489118257 0.29738762346 0.86909738259 0.41150282449 0.27447252142 -0.98709865501 -0.10032743125 -0.12478241788 
-0.76269809149 -0.51730887555 -0.38817927368 0.67385716092 -0.58180546244 -0.45543268498 -0.85340995648 -0.46335487968 -0.23873353693 
-0.86114453784 -0.45453227666 -0.22766311606 0.47374857265 -0.50975287395 -0.71813250686 -0.21732249373 -0.77423295289 -0.59441926985 
-0.044364869786 -0.73668204799 -0.67478242308 -0.36400479609 -0.80945046222 -0.4607498862 -0.68925206365 -0.72222497096 0.057642727834 
-0.72465676714 -0.6107012672 0.31924368762 -0.54857896948 -0.65258275573 -0.52268237121 -0.36737040692 -0.49269517349 -0.7888538839 
-0.29288780169 -0.39854508595 -0.86912516365 -0.52588544536 -0.81232460867 -0.25213732073 -0.47770153573 -0.87274283461 0.10060411226 
-0.14416558872 0.38881775328 -0.90996540471 -0.12628862234 0.41845579645 -0.89941421508 -0.23960557903 0.14358857851 -0.96019346312 
-0.30697400409 -0.95000319321 -0.057104235453 0.042284124821 -0.72254082326 0.69003392055 0.50151972363 0.40761237269 0.76310557621 
-0.036007281946 0.610281167 -0.79136614336 0.22066796095 0.90144718747 -0.37242263522 -0.05346474887 0.47382414422 -0.87899499486 
0.15605359417 -0.18463684557 0.97033834872 0.43436246125 0.61839326748 0.65491909347 0.51229347017 0.84869786078 0.13140525686 
0.51334259972 0.85620273254 -0.058277406514 0.29485704791 0.68283712051 0.66842560405 0.49894171697 0.42231745371 -0.75677284 
-0.44287895236 -0.26374879722 0.8569100335 0.0088523063412 0.41982814986 0.90756044496 -0.33985017742 0.066466975363 0.93812792203 
0.52749916216 0.57746275491 0.62312229989 0.75179565052 0.57818420168 0.31702733128 0.63641418925 0.60872869741 0.47373658574 
0.96017257618 0.20798783817 -0.18657353273 -0.24578201695 0.62965973412 0.73696663383 0.069479915666 0.69331166593 0.7172806112 
0.36540265675 0.66851834688 0.64773769254 0.63712128388 0.52887289197 0.56068701944 -0.92748789992 0.35044285464 -0.13021521086 
0.65700218219 0.42145965741 0.62507590721 0.84990129059 -0.39262064503 0.3514496057 -0.69579415103 0.69717489272 -0.17267793244 
0.69853569585 0.3706167961 0.61212014513 -0.12287114591 0.97174003231 0.20155394093 0.58188471995 -0.77758129868 0.23828029004 
0.82489355692 -0.16582200893 0.54041991184 -0.27051851115 -0.93542537159 -0.22759417678 -0.40005016051 0.89513890293 -0.19668811233 
0.77592545707 -0.12599026938 0.61811498695 0.77592545707 -0.12599026938 0.61811498695 
SiphonLabel 1 116 int
0 0 0 0 0 0 0 0 0 
0 0 0 0 0 0 0 0 0 
0 0 0 1 1 1 1 1 1 
1 1 1 1 1 1 1 1 1 
1 1 1 1 1 1 1 1 1 
1 1 1 1 1 1 1 1 1 
1 1 1 1 1 1 0 0 0 
0 0 0 0 0 0 0 0 0 
0 0 0 0 0 0 0 0 0 
0 0 0 0 0 0 0 0 0 
0 0 0 0 0 0 0 0 0 
0 0 0 0 0 0 0 0 0 
0 0 0 0 0 0 0 0 
