# vtk DataFile Version 5.1
vtk output
ASCII
DATASET POLYDATA
POINTS 106 float
118.854 81.9797 34.7949 118.429 82.6588 34.4842 118.05 83.1902 34.3133 
117.582 83.8376 34.1282 117.005 84.3921 33.9821 116.393 84.6999 33.7754 
115.689 84.9219 33.6222 114.893 85.069 33.4595 113.969 85.0412 33.1548 
113.241 84.6853 32.8674 112.799 84.2956 32.6034 112.368 83.7204 32.2589 
111.94 82.9592 31.8588 111.66 82.2365 31.509 111.529 81.5342 31.1224 
111.445 80.927 30.7032 111.434 80.3446 30.2342 111.401 79.9036 29.8264 
111.381 79.2841 29.2249 111.453 78.7548 28.7044 111.732 78.1508 28.1094 
111.929 77.8862 27.875 112.279 77.4864 27.2675 112.838 77.0718 26.5957 
113.605 77.0712 26.0752 114.313 77.3446 25.4599 114.897 77.8172 24.8615 
115.179 78.5812 24.4352 115.078 79.5142 24.2459 114.756 80.3341 24.2291 
114.373 80.9399 24.4803 114.009 81.699 24.8846 113.684 82.3234 25.242 
113.27 83.0344 25.6392 112.956 83.5356 25.8581 112.669 84.2936 26.1347 
112.48 85.0126 26.3667 112.277 85.752 26.4611 112.019 86.5037 26.5439 
111.837 87.2906 26.5132 111.632 88.2388 26.3165 111.535 89.0683 26.0832 
111.571 89.8875 25.7168 111.55 90.4034 25.379 111.613 91.073 24.7991 
111.652 91.6211 24.0892 111.644 91.9808 23.3617 111.774 92.2335 22.8067 
112.061 92.594 21.9917 112.364 92.9537 21.1338 112.517 93.2401 20.4437 
112.724 93.5865 19.7129 112.906 93.9059 19.0364 113.041 94.1166 18.4902 
113.19 94.4481 17.8383 113.398 94.8882 17.194 113.581 95.2779 16.568 
113.682 95.6334 16.0998 113.785 95.9299 15.749 113.988 96.3253 15.1832 
114.35 96.7748 14.4195 114.641 97.1236 13.877 114.984 97.4577 13.3902 
115.459 97.8672 12.9102 115.857 98.1801 12.5792 116.532 98.6413 12.0921 
117.137 99.04 11.7348 117.944 99.5173 11.4816 118.551 99.8195 11.3457 
119.313 100.249 11.2873 119.712 100.484 11.2895 120.528 100.857 11.4246 
121.13 101.097 11.4691 121.544 101.277 11.4954 122.366 101.649 11.6683 
123.202 101.994 11.8705 123.635 102.147 11.961 124.263 102.398 12.0572 
125.078 102.753 12.2732 125.843 103.04 12.4803 126.765 103.294 12.6605 
127.578 103.634 12.8445 128.078 103.881 12.9005 128.611 104.212 12.9664 
129.211 104.502 12.925 129.755 104.844 12.8999 130.38 105.343 12.8299 
130.94 105.822 12.7266 131.569 106.464 12.5591 131.955 106.91 12.4173 
132.365 107.458 12.216 132.775 108.175 11.9142 133.071 108.954 11.4998 
133.248 109.483 11.0511 133.329 109.961 10.6682 133.259 110.697 10.0573 
133.108 111.309 9.45384 132.944 111.835 8.79062 132.718 112.318 8.0761 
132.481 112.666 7.41965 132.119 113.042 6.76118 131.711 113.26 6.16129 
131.174 113.524 5.36569 130.742 113.658 4.83041 130.237 113.799 4.25081 
130.012 113.843 4.03983 
LINES 2 106
OFFSETS vtktypeint64
0 106 
CONNECTIVITY vtktypeint64
105 104 103 102 101 100 99 98 97 
96 95 94 93 92 91 90 89 88 
87 86 85 84 83 82 81 80 79 
78 77 76 75 74 73 72 71 70 
69 68 67 66 65 64 63 62 61 
60 59 58 57 56 55 54 53 52 
51 50 49 48 47 46 45 44 43 
42 41 40 39 38 37 36 35 34 
33 32 31 30 29 28 27 26 25 
24 23 22 21 20 19 18 17 16 
15 14 13 12 11 10 9 8 7 
6 5 4 3 2 1 0 
CELL_DATA 1
FIELD FieldData 2
Length 1 1 double
82.69559215 
Tortuosity 1 1 double
0.81076093536 
POINT_DATA 106
FIELD FieldData 7
MaximumInscribedSphereRadius 1 106 double
1.378723792 1.437676779 1.5202191366 1.48982959 1.468181125 1.4694230987 1.5179979543 1.6130831882 1.7247503349 
1.6679343611 1.6062903728 1.5813539225 1.5787603111 1.615271634 1.5962236316 1.6014429344 1.603194657 1.6444648066 
1.6655057357 1.7506227814 1.6760086437 1.555591564 1.3481005127 1.2562456751 1.1740581671 1.2164441647 1.4283463031 
1.5603837595 1.6053366553 1.6925828089 1.6695285262 1.6905848953 1.7977886444 1.8870199563 1.9337869865 1.9799998819 
2.0410429413 2.0125889384 2.0774435339 2.0534228213 2.018971743 2.0509110883 2.0869859302 2.0921876167 2.1522819497 
2.2579920932 2.3039596592 2.3217840502 2.3007839264 2.1775867523 2.0670792487 2.0020768875 2.0201133904 2.0777181764 
2.1597331303 2.2127299867 2.2339033579 2.2232402215 2.2120269537 2.162313458 2.1176593843 2.1001775631 2.0719906032 
2.0696574953 2.0950629295 2.1480595737 2.160841382 2.1303349324 2.10194759 2.0181733578 1.9949732503 2.0013489694 
2.0013651088 2.0318414578 2.055700309 2.0962319806 2.0854078492 2.0496791194 2.0406357554 2.0786989556 2.0807409106 
2.0366189222 2.0268492132 2.0017739506 2.0004564444 2.0012096692 1.9793242372 1.8591405078 1.7605415516 1.7471940334 
1.7514737094 1.8085210369 1.9117052622 1.9201008879 1.9259344563 1.9327130623 1.9143170893 1.9230064517 1.9463065696 
1.9425559941 1.933239868 1.929880108 1.9225728207 1.8715616259 1.8842619463 1.8768012804 
Curvature 1 106 double
0 0.16759420657 0.038675334192 0.22402981544 0.41714150314 0.24392862434 0.15329140195 0.26755168413 0.45407957738 
0.35121486376 0.26296981859 0.13624299966 0.1433238141 0.22030135974 0.14319823711 0.16624949441 0.11813393569 0.054564469975 
0.15016145915 0.27175894616 0.30588903853 0.40242197184 0.19249351167 0.5797707942 0.32957521363 0.25395882169 0.54311796249 
0.58171954814 0.35661315907 0.50654143597 0.18411928208 0.042522152925 0.055911513002 0.13025640317 0.25692585768 0.12535285042 
0.23403577502 0.083586095125 0.21939812881 0.18202827013 0.12787565196 0.24135024435 0.23248261913 0.22599796968 0.22716523437 
0.24196071558 0.31191624745 0.13002547007 0.019684337962 0.12941947479 0.085266424757 0.014387737413 0.10531504017 0.15285357501 
0.17867646803 0.056645030627 0.17129754657 0.13421657468 0.18525293016 0.15051300645 0.061447810054 0.15267454834 0.20078107321 
0.11946039724 0.091023715612 0.091648514379 0.22618212198 0.11624788945 0.18015542853 0.11032393035 0.26057439592 0.12149009641 
0.057821276506 0.19285677283 0.048495429147 0.080992152093 0.11578027133 0.12724480625 0.05959219894 0.11833085603 0.13509672842 
0.16895347077 0.15923800541 0.30536944354 0.17461205584 0.16827526723 0.079539081164 0.11961219692 0.10230365952 0.13231154732 
0.16631160828 0.20294284967 0.26682131659 0.18135557037 0.26353583501 0.14455824358 0.13951095416 0.11351689816 0.13837762709 
0.17409758113 0.24286276042 0.028910101518 0.13141094816 0.053023454165 0.19902525407 0 
Torsion 1 106 double
0 0 -2.6921082745 -0.79584599117 0.062038717059 0.62911022409 -1.1068965643 0.14323061807 -0.037925835899 
-0.2634552619 0.14890762552 0.1359948964 -0.50393923508 -0.49339999936 -0.39780523988 -0.21033985984 -0.69391660739 2.5153996481 
0.18374954618 0.18192129227 -0.74517899653 -0.17674253087 0.43594732504 -0.34296606824 -0.64407887614 0.17938314949 0.00015694737909 
-0.050407439973 0.29785602466 0.42903859181 1.3312882566 -3.1376512455 -1.3732789488 -1.4383041027 -0.31058877574 1.2031286821 
0.55902730842 0.10300179911 0.040318471292 0.059131114265 -0.39926032186 0.56506969371 0.075296752125 -0.13598180425 0.46541978926 
-0.6816779932 -0.55115041457 0.025042637497 6.6364743261 0.3442288825 0.5782585244 -6.6218715757 0.33267717682 0.76417353742 
0.3615362999 1.7408794049 0.79029502517 2.4588495665 0.37650140453 -0.48563919042 -0.67051369778 -0.16796090257 -0.10166120008 
0.48457190213 -0.023965736461 -0.29552146184 0.17995468532 -0.2024313221 -0.33889132716 1.4759643548 0.55497858479 1.5614860011 
4.8018695747 0.36255063189 2.5638728846 1.4099851727 1.3675730818 0.75195447564 2.0115332625 0.4777142999 -0.40875828447 
0.069947085093 -0.51915731656 -0.010970352922 0.53512625388 -0.60139438096 -0.28886794605 0.067027417826 -0.12263540523 0.13386367378 
-0.112821667 -0.61080286215 0.080900556862 0.75080777261 -0.33326672988 -0.90855307648 -0.12668597 0.23192414581 0.61316524787 
-0.26474849999 -0.43561286922 -0.56997214628 0.21590330173 0.5543008087 0 0 
FrenetTangent 3 106 double
0.52514651132 -0.79073733484 0.31457210453 0.52514651132 -0.79073733484 0.31457210453 0.56685761001 -0.78864038834 0.23815706552 
0.64218099841 -0.73901457638 0.20361979563 0.78724952554 -0.5706919022 0.23355713925 0.89920917557 -0.36190348948 0.24586321984 
0.9513292424 -0.23413843189 0.20037930848 0.96287012747 -0.066773992644 0.26157666473 0.91963439407 0.21359623123 0.32961982836 
0.78361672688 0.49950199801 0.36938134676 0.60765257884 0.67177060782 0.42365386094 0.48946265272 0.761754058 0.42444913324 
0.39206563781 0.8210465193 0.41493029389 0.24828265983 0.86057376803 0.4447117163 0.13828218736 0.84348792479 0.51904350241 
0.063671029798 0.79965992583 0.59706783784 0.032410138134 0.7590071857 0.65027507641 0.036262669318 0.72393057751 0.68891910829 
-0.032527149467 0.71504171507 0.69832465964 -0.21548762254 0.69593670813 0.68500889251 -0.36828926875 0.67238365551 0.64207728065 
-0.45426324798 0.55186159083 0.6993523333 -0.51401699675 0.46066946282 0.72358149028 -0.7242881126 0.22674602511 0.65114742574 
-0.78398049249 -0.14500963133 0.60361145965 -0.67168927427 -0.38791221992 0.6311557878 -0.4743436626 -0.67784231746 0.56171868618 
-0.10003108468 -0.93535035431 0.33928379977 0.23277169042 -0.96587912763 0.11355549717 0.43891546674 -0.88662774744 -0.14575476161 
0.44251418264 -0.80838410634 -0.38819625806 0.39944159023 -0.8030858243 -0.44215333857 0.43379428406 -0.78443099529 -0.44327252649 
0.47240624514 -0.78573323422 -0.39931895046 0.40600467942 -0.8503962676 -0.33464367369 0.29125102075 -0.90450647877 -0.31151384042 
0.25358114177 -0.9439616272 -0.21126535662 0.29327066727 -0.94935291134 -0.11278903072 0.27496636316 -0.96090277888 -0.032547636945 
0.21614949378 -0.96808190238 0.12687326994 0.16313294125 -0.95894052597 0.23199291182 0.034961012571 -0.93919257218 0.34160655726 
-0.010295537726 -0.88446604262 0.46649096599 -0.028068150436 -0.79045059321 0.61188237319 -0.057167920284 -0.68534515717 0.72597096666 
-0.018639198738 -0.53389144483 0.84534756486 -0.085957601925 -0.42933875387 0.89904367252 -0.26725653043 -0.39365502696 0.87955083235 
-0.30771138693 -0.37625821066 0.87392417363 -0.26237550638 -0.37167851872 0.89051343189 -0.22564555041 -0.39629650848 0.8899624503 
-0.24260104277 -0.41487963553 0.87693763864 -0.23141625003 -0.38701191685 0.89256276835 -0.21129366352 -0.40300713757 0.89047191692 
-0.23052897413 -0.49768804848 0.83615967284 -0.24930643084 -0.52963677463 0.81075963793 -0.20991973978 -0.55041388502 0.80807070113 
-0.19167635954 -0.61125138278 0.7678749379 -0.25737325473 -0.58216005733 0.77126433562 -0.33750801253 -0.50488977555 0.79446501246 
-0.39234671336 -0.47968920614 0.78483267136 -0.45663590603 -0.49184290311 0.74133272421 -0.55676345261 -0.50638761223 0.65847250817 
-0.62618506091 -0.51859476358 0.58219562063 -0.68976532267 -0.49763091397 0.52591565209 -0.72813610642 -0.4890500062 0.48025816179 
-0.79762906518 -0.49484335699 0.34484478599 -0.85138403601 -0.46933342015 0.23424637447 -0.87506072883 -0.46781064923 0.12418501251 
-0.86706111842 -0.49643117295 0.041965550761 -0.88983129847 -0.44509712325 -0.10044307416 -0.91183394979 -0.3939914807 -0.11545371867 
-0.92237530741 -0.38090037333 -0.064332712301 -0.90347357795 -0.40317885358 -0.14554142359 -0.89866242075 -0.38871737958 -0.20323546035 
-0.9100302856 -0.35740358574 -0.21001799015 -0.92214700704 -0.35107607946 -0.16245148147 -0.90412557924 -0.37989903243 -0.19553429911 
-0.89917450451 -0.36543071361 -0.24071893151 -0.93029501613 -0.29821592437 -0.21358474997 -0.92794594412 -0.31777131702 -0.1947760634 
-0.90037728302 -0.40276358992 -0.16462757624 -0.86823497838 -0.48545423618 -0.10248027566 -0.8770218287 -0.48007506239 -0.018990694079 
-0.87392245776 -0.48339659525 0.050865209368 -0.80971839129 -0.5831069717 0.065896785726 -0.76658328652 -0.63229780377 0.11202478376 
-0.71784146992 -0.67672679638 0.16353735694 -0.66810108898 -0.71567911085 0.20357884272 -0.60379851557 -0.7534722693 0.26020548032 
-0.51574964106 -0.79614579799 0.31647144592 -0.39168280124 -0.82990824899 0.3972869007 -0.28871208508 -0.79912995502 0.52729180433 
-0.19418918458 -0.75656784622 0.62441625111 -0.0073450007033 -0.77360855089 0.6336212283 0.12111020286 -0.73739456193 0.66451604857 
0.18199198601 -0.65733031687 0.73129732089 0.2228309976 -0.57621934465 0.78633174511 0.27747320937 -0.49786234857 0.82167006758 
0.37033994796 -0.44775972516 0.81385474839 0.48436602854 -0.3737797174 0.79099827639 0.53938639531 -0.27494529416 0.79590665393 
0.57192544778 -0.23476825017 0.78599309851 0.63182038941 -0.18584255166 0.75250617374 0.66877093019 -0.16953644165 0.72388040302 
0.66877093019 -0.16953644165 0.72388040302 
FrenetNormal 3 106 double
-0.53590104789 -0.020126599389 0.84404086801 -0.53590104789 -0.020126599389 0.84404086801 -0.28836659125 0.080851769157 0.95410046666 
-0.76366872177 -0.59375952629 0.25349498681 -0.47849786298 -0.8042823536 -0.3523771996 -0.43732563011 -0.76017670566 0.48049731468 
-0.24906414344 -0.96706428468 0.052475915868 0.071554943315 -0.87114847282 -0.48577796203 0.24551475116 -0.967660325 -0.057931013977 
0.60830088204 -0.73766753312 -0.29294478573 0.77297759617 -0.62274187619 -0.12123609803 0.79764873773 -0.58779864382 0.13508976839 
0.89394787997 -0.44648786877 0.038804264405 0.93037872672 -0.084019697289 -0.35684186321 0.42788550589 0.42176215874 -0.7993939425 
0.80238547496 0.31472234046 -0.50707730968 -0.5124424702 0.57121322093 -0.64118497407 0.79509002344 0.39672527408 -0.45873839116 
0.99801921744 0.060880121179 -0.015850945333 0.97650072559 0.15600014074 0.14869528917 0.90255695953 0.09288059781 0.42043326386 
-0.24130698219 0.67945495507 -0.69290107835 0.84836546821 0.39765811216 0.34949114177 0.49062232953 0.83302593532 0.25565117026 
-0.33893586186 0.91460654951 -0.22049340386 -0.48124311514 0.87619064781 0.026363095813 -0.62414949836 0.70892725079 0.32841978744 
-0.80620647147 0.2760360662 0.52329266717 -0.81896847742 -0.13170347388 0.55852021267 -0.35498507606 -0.32012606043 0.87835351722 
0.74777350994 0.093686599213 0.65731088456 -0.59190063244 -0.59422265462 0.54456687198 -0.88312411392 -0.27262385891 -0.38179579748 
-0.45963984494 0.16694994209 -0.87227227961 0.87386183313 0.46842732265 -0.13015890282 0.89484405561 0.3727298901 -0.24561462732 
-0.10729947383 0.18960680141 -0.9759795509 -0.92530520431 -0.2521947933 -0.28321028425 0.55751156602 0.18693157112 -0.80884945539 
0.11341592733 -0.10416998439 -0.98807157726 0.80354179853 -0.0072985507555 -0.59520358633 0.7219354736 -0.21263135929 -0.65848088583 
-0.41670175921 -0.42028330977 -0.80605308969 0.61077974796 -0.49812778792 -0.61548095534 -0.13294698608 -0.71545811958 -0.68588977104 
-0.25789540449 -0.81431637125 -0.51997962254 0.98604026884 -0.16582211297 0.015086917334 0.95848990351 -0.2027042548 0.20051955008 
0.19691554217 -0.92378740204 -0.3283916946 -0.96445647258 0.071025235922 -0.25451744217 0.68970699204 0.58018831496 0.43322717402 
-0.96244125239 -0.010625186438 -0.27128203242 -0.17461627755 -0.88604428805 -0.42945858384 -0.2320294445 0.90567969641 0.35483323463 
0.41073628853 0.72923048507 0.54728292586 -0.3736112968 -0.71978158622 -0.58508893943 -0.60980337332 0.7197402888 0.33183393823 
0.68627116571 0.47584541796 0.55009365141 0.56952955181 -0.73617705147 -0.36562198853 0.76284439527 -0.64118066196 -0.083401362862 
0.64891198797 0.46037470116 0.60577913995 0.86120189553 -0.035326109345 0.50703388558 0.66829869416 0.19773005411 0.71713295914 
0.68619058483 -0.012029464344 0.72732233108 0.72401456207 -0.4688813132 0.50591820291 0.49328566429 0.11259997188 0.86254883904 
0.40437974002 -0.014535648759 0.9144756644 0.49263969421 -0.56207658629 0.6643613797 -0.068986931032 0.37450232801 0.92465604938 
-0.090962468452 0.2405648854 0.96636140509 0.18747759155 -0.557331263 0.80884733785 0.29648070279 -0.43737156428 -0.84900253688 
-0.34174369725 0.88224550532 -0.32381184928 -0.1796598379 0.047905525174 0.98256165369 0.16139968411 -0.72385646701 0.67080694476 
0.41428842147 -0.80182688432 -0.43062599947 -0.088659132544 0.6005735746 -0.79463887377 -0.28944119216 0.20794042227 0.93433643677 
0.32535486806 -0.92616780985 0.19067615957 0.36662068668 -0.73711622501 -0.56766974812 -0.34887969794 0.92444045489 0.15392466251 
-0.079183565382 0.52371453364 -0.84820578295 -0.49185789769 0.86927788904 0.049312879718 0.26797299033 -0.45597222191 -0.84869300062 
-0.46515063214 0.86209358147 0.20107099794 -0.55763594596 0.7296121246 -0.39586399104 -0.41351669632 0.35261284782 -0.8394451271 
-0.66464804751 0.59620694174 -0.45031128741 -0.63964809851 0.41265152764 -0.64851293496 -0.7306319588 0.39257999172 -0.55862142 
-0.81859509463 0.34894042871 -0.45622653173 -0.81814590022 0.11658420723 -0.56306785433 -0.32022521876 -0.43842542648 -0.83978506458 
-0.95639512281 0.2875856885 0.051018044238 -0.99631893716 -0.048458067956 -0.070713443653 -0.76278512504 -0.4975257816 -0.41307015102 
-0.13706283446 -0.75341517506 -0.64310135546 -0.64516815707 -0.69186330516 -0.32416541468 -0.42790508451 -0.82978060108 -0.35827558209 
-0.90820106289 0.0093742583033 0.41842914889 -0.56499689545 -0.82395201984 -0.043377149825 -0.02328259465 -0.94970000332 -0.31229445156 
-0.69120614133 -0.65390542181 0.30763902468 -0.76799886068 -0.28134372748 0.57534638002 -0.72587774028 -0.35944019469 0.58643350229 
-0.72587774028 -0.35944019469 0.58643350229 
FrenetBinormal 3 106 double
-0.66108335973 -0.6118246377 -0.4343263798 -0.66108335973 -0.6118246377 -0.4343263798 -0.77169758262 -0.60951565141 -0.18158609988 
-0.066435296896 -0.31828773278 -0.94566340232 0.38894469999 0.16565219119 -0.9062457569 0.013005837632 -0.53958988173 -0.84182754037 
0.18149304396 -0.099829174115 -0.97831202128 0.26030944607 0.48645819164 -0.83402483181 0.30658618398 0.13420188307 -0.94233474221 
0.12615412107 0.45425143319 -0.8818961238 0.18238415295 0.40114437065 -0.89767433663 0.35239580415 0.27243991897 -0.89531764629 
0.21712144883 0.35571223788 -0.90902534633 -0.26972420303 0.5023479673 -0.82152016047 -0.89319204571 0.33263313454 -0.30259406355 
-0.59339999119 0.51136469514 -0.62159681387 -0.85810972357 -0.31244767289 0.40746061653 -0.60540637049 0.56438778854 -0.56120366242 
-0.053848177038 0.69642584426 -0.71560562971 -0.0033789735834 0.70095367491 -0.71319879989 0.22305593318 0.73435237751 -0.6410714752 
-0.85756389959 -0.48351809542 -0.17548335967 -0.12673815288 0.79350593687 -0.59521909307 -0.48445480668 0.50463257048 -0.71459744549 
-0.52009332715 -0.37744809765 -0.76618265749 -0.5632393656 -0.28603156877 -0.77520794546 -0.62083451373 -0.19481259135 -0.75935009107 
-0.58311654706 -0.22118726193 -0.78169769586 -0.52450736232 -0.22300606666 -0.82168139878 -0.82543249805 -0.33378217884 -0.45524789759 
-0.49499088476 -0.58115226726 0.64594586946 -0.70007146586 0.044188183408 -0.71270424941 0.17864579069 0.55708549181 -0.81101259934 
0.75203959503 0.59560977282 -0.28228610667 0.26744288526 -0.23958721053 0.93331252626 0.3382705412 -0.20722079743 0.91795020675 
0.9613445935 0.27015867047 -0.053205876726 0.24042170158 0.18742154616 -0.9524025249 0.78330987029 0.20426070905 0.58711430731 
0.96975059875 0.2279606208 0.087279617296 0.57245805217 0.28351331329 0.76935816087 0.69107662351 0.26963905023 0.67060262677 
0.90898495355 -0.20268635618 -0.36423151325 0.79130289928 0.35644994963 0.49677273979 0.98947305561 -0.13572654375 -0.050213320324 
0.96599303342 -0.2277032557 -0.12250994544 0.14260392314 0.88779009979 0.43759897146 0.099353167134 0.89663075167 0.43148840465 
0.93088021335 0.071039388665 0.35835099226 0.031349739302 -0.92564058607 -0.37710303534 -0.68803223086 0.71156910876 0.14241156115 
0.12186701664 -0.90981426315 -0.3967195947 0.95705573236 -0.2552396831 0.13746646621 -0.94948266158 -0.13164169014 -0.28487390329 
-0.88212929516 0.4696056921 0.036309786249 0.89345447699 -0.44877539493 -0.018432103953 -0.76424704693 -0.42310574546 -0.48673193795 
-0.70163527584 0.63241037726 0.32827588158 0.78063762231 0.34515651021 0.52102964032 0.55150409797 0.57790455378 0.60155594639 
-0.65190282127 0.74696278358 0.13064957545 -0.22319261738 0.86996702504 0.43970721041 -0.4933470515 0.83932973967 0.22832931238 
-0.37018205087 0.85493553159 0.36338751497 -0.0051685161229 0.72973542301 0.68371009854 -0.4759065706 0.86495741963 0.15925325207 
-0.44750966497 0.86886061423 0.21169868398 -0.18014259604 0.68102573511 0.70975530517 -0.47907152306 0.80056305359 -0.35998510109 
-0.48982736373 0.83407711061 -0.25374106349 -0.4159956886 0.70090685127 0.5793765381 0.28400359309 -0.80837913623 0.51562111207 
0.18009730055 -0.27669075507 -0.94393177105 -0.38917584277 0.91386644138 -0.11571642371 -0.40786762007 0.57002685374 0.71324146719 
-0.014490794363 -0.47889072291 0.8777549159 0.37654276731 -0.7183710517 -0.58494322499 -0.31429402357 0.90135315273 -0.29796268358 
-0.29262505064 0.093132065099 0.95168114313 0.011851374052 -0.60640492518 0.7950676774 0.13114602993 0.21078718044 -0.96869473179 
0.42784426045 -0.75066941985 -0.50343292593 0.065144691334 0.093220899994 -0.99351196923 0.39877711625 -0.74941128049 0.52854474194 
-0.14104760633 0.15206047642 -0.97825517339 0.18275195918 -0.35728477044 -0.91594176356 0.49127793223 -0.68982872287 -0.53177281466 
0.20723560746 -0.43194690146 -0.87776721135 0.38012004022 -0.56349101771 -0.73347571738 0.3187542837 -0.52740922394 -0.78755013626 
0.25279315415 -0.4943606432 -0.83168694571 0.42097727869 -0.54558264349 -0.72465006034 0.90227553508 -0.41130823041 -0.12932284563 
-0.21817178934 -0.58728150475 -0.77942382855 0.085408585212 -0.63180821903 -0.77040492466 0.6352095495 -0.45685594741 -0.62272905146 
0.97370051681 0.016805609254 -0.22721108041 0.73082446293 -0.4350821001 -0.52592696315 0.8601778053 -0.25218492411 -0.44327971679 
-0.19498500534 -0.89410477675 -0.40318419598 0.66795812633 -0.42590115268 -0.61027874748 0.84173644173 0.1499166065 -0.51865670125 
0.44174127311 -0.71922984368 -0.53625840748 0.10478905252 -0.94143945796 -0.32048557139 0.16076986375 -0.91763835 -0.36344588251 
0.16076986375 -0.91763835 -0.36344588251 
SiphonLabel 1 106 int
0 0 0 0 0 0 0 0 0 
0 0 0 0 0 0 0 0 0 
0 0 0 1 1 1 1 1 1 
1 1 1 1 1 1 1 1 1 
1 1 1 1 1 1 1 1 1 
1 1 1 1 1 1 1 1 1 
0 0 0 0 0 0 0 0 0 
0 0 0 0 0 0 0 0 0 
0 0 0 0 0 0 0 0 0 
0 0 0 0 0 0 0 0 0 
0 0 0 0 0 0 0 0 0 
0 0 0 0 0 0 0 
