# vtk DataFile Version 5.1
vtk output
ASCII
DATASET POLYDATA
POINTS 80 float
72.4743 70.9966 29.1356 73.4194 71.1102 28.8846 74.3635 71.1599 28.7784 
75.0952 71.2232 28.773 76.0337 71.106 28.7644 76.9732 70.8879 28.7104 
77.7436 70.7242 28.637 78.5924 70.4615 28.5133 79.2322 70.0089 28.5006 
79.879 69.2974 28.3612 80.2832 68.5616 28.1741 80.4754 67.9592 27.9385 
80.6088 67.3534 27.7242 80.6838 66.7131 27.4517 80.673 65.964 27.0816 
80.7116 65.3055 26.6403 80.756 64.618 26.2587 80.8043 63.7998 25.9002 
80.6568 62.8565 25.6494 80.4638 62.1889 25.5087 80.1509 61.4349 25.3314 
79.8556 60.9367 25.1032 79.4495 60.3947 24.625 78.8932 60.0843 23.9451 
78.7452 60.0359 23.7156 78.3015 60.0998 22.9471 78.0492 60.258 22.5058 
77.6816 60.7723 21.9325 77.4979 61.3736 21.5202 77.4652 62.2938 21.1987 
77.5471 63.117 21.0294 77.8481 63.7799 20.8144 78.2911 64.5879 20.8324 
78.6573 65.2563 20.9625 79.0748 66.1221 21.1182 79.4286 66.9843 21.2928 
79.7216 67.8547 21.3195 79.7952 68.8215 21.3554 79.7367 69.8152 21.3638 
79.6185 70.5902 21.1882 79.3422 71.3818 20.8843 79.113 71.908 20.5624 
78.8191 72.4136 20.1606 78.5262 72.9445 19.5476 78.3083 73.4128 18.8465 
78.1313 73.6089 18.1688 78.0222 73.7069 17.7164 77.7924 73.7323 16.9629 
77.504 73.7384 16.1664 77.2619 73.7841 15.4173 77.0307 73.8937 14.7287 
76.9266 73.9128 14.3015 76.7132 73.9614 13.4261 76.5402 73.9825 12.6953 
76.3511 74.0379 11.9853 76.2329 74.1509 11.1697 76.1369 74.2461 10.3991 
75.9652 74.3326 9.62973 75.8363 74.3772 9.25905 75.5848 74.5169 8.61808 
75.326 74.6514 8.07833 74.8283 74.8311 7.24877 74.2395 74.9365 6.65882 
73.5913 75.0605 6.13106 72.9195 75.2849 5.61914 72.13 75.6528 5.143 
71.6674 75.8539 4.89533 71.041 76.1268 4.63259 70.4438 76.4975 4.34915 
70.0152 76.7845 4.217 69.4262 77.1954 4.02776 69.0804 77.413 3.97476 
68.4976 77.7618 3.92507 67.8991 78.198 3.85583 67.3943 78.5548 3.80816 
66.7272 79.1709 3.75805 66.0504 79.8738 3.72636 65.7111 80.1902 3.67575 
65.1017 80.7836 3.53715 64.8966 80.9917 3.51341 
LINES 2 80
OFFSETS vtktypeint64
0 80 
CONNECTIVITY vtktypeint64
79 78 77 76 75 74 73 72 71 
70 69 68 67 66 65 64 63 62 
61 60 59 58 57 56 55 54 53 
52 51 50 49 48 47 46 45 44 
43 42 41 40 39 38 37 36 35 
34 33 32 31 30 29 28 27 26 
25 24 23 22 21 20 19 18 17 
16 15 14 13 12 11 10 9 8 
7 6 5 4 3 2 1 0 
CELL_DATA 1
FIELD FieldData 2
Length 1 1 double
61.460783429 
Tortuosity 1 1 double
1.1544349687 
POINT_DATA 80
FIELD FieldData 7
MaximumInscribedSphereRadius 1 80 double
1.0207090593 1.1345557851 1.2094403454 1.2540930513 1.2949755273 1.3117400904 1.3909730833 1.547282636 1.546912855 
1.5514047341 1.5983732439 1.6120201846 1.6344611501 1.6694939399 1.6995900848 1.743616491 1.8131161552 1.8198591609 
1.7842118213 1.7596129382 1.8072945706 1.7741324629 1.715300165 1.6534165564 1.6400026914 1.6831224047 1.7473232372 
1.8263600346 1.8466954528 1.853888094 2.0055811077 2.0832105515 2.0022314092 1.9752837059 2.0360598723 2.1603366108 
2.2434817739 2.2632972508 2.3188429895 2.3667398271 2.3243417795 2.2516080028 2.1794886269 2.1322933855 2.056530591 
1.9497265193 1.8878108809 1.9298017293 2.0593472693 2.07068568 2.0190417229 1.9976075362 1.9553129694 1.9528897543 
1.9064336787 1.8440703591 1.9082459198 1.9757155515 1.9749226281 1.9718550781 1.9970599963 2.071163567 2.0709266607 
1.9843665487 1.9688212187 2.0395556109 2.0212386957 2.0033278645 2.0484666409 2.0602013436 2.0611332198 2.0265861501 
1.9681922321 1.9552493821 1.9820027071 2.0040487954 1.9990353782 2.0263208411 2.0683073563 2.0509853692 
Curvature 1 80 double
0 0.1664527086 0.13038259732 0.25297101762 0.11948293214 0.047219853215 0.11990025233 0.41082062203 0.29008320125 
0.26909515751 0.30394187869 0.13531573064 0.17067958785 0.17344524038 0.17912133549 0.10627902701 0.11158247766 0.27452263111 
0.16047992795 0.14340620867 0.2917380434 0.35932569147 0.43650682538 0.32711485362 0.43497122906 0.32656589449 0.51374237421 
0.37960996172 0.40024254054 0.20656026371 0.41897223029 0.38344827437 0.17720941022 0.059285174109 0.066788591153 0.18193406161 
0.26679466325 0.14069068528 0.27747007626 0.2596033612 0.22997907614 0.19653382382 0.24293193751 0.17586332225 0.37942419907 
0.11313541552 0.29476176564 0.069763127252 0.075248117986 0.12169011637 0.23214793021 0.015581406479 0.032242673129 0.073608299878 
0.16733659223 0.030414708645 0.12177448333 0.19340229838 0.17410863456 0.11341179714 0.12387463286 0.27519295156 0.12423550622 
0.13618285766 0.17028958893 0.063866521508 0.13836956548 0.18266693248 0.21243604882 0.030775300983 0.23778690813 0.11020268359 
0.12988332781 0.031899169062 0.17314903645 0.066553916528 0.12936825402 0.085969213128 0.14381781595 0 
Torsion 1 80 double
0 0 0.57633752245 0.41031714902 0.65261755786 -0.0080084708459 -1.6547177187 0.20904999035 0.53063919906 
0.11495125645 -0.015533040478 -0.50509150537 0.37995277252 0.59521246126 0.77985639312 0.60668286427 1.1862789218 0.25732309307 
0.55554458822 1.3122171745 0.53983859848 -0.16048310547 0.022616921267 0.16597135262 -0.35123775813 -0.31415540534 0.17160430601 
0.30023483073 -0.031829182064 1.0564224684 -0.28807660102 -0.71430195103 -0.48821575449 -1.3284625694 -1.1544607792 0.52986831641 
0.27714531162 -1.0423640639 0.028073898664 0.025092259173 -0.19833553457 -0.40721160963 -0.49862881614 0.64369735364 0.16345108652 
0.82271378962 0.30885459259 2.155383185 -0.37421903641 0.38588940809 0.2004582519 -6.2903175432 0.44434578609 1.5986720637 
0.38598424673 4.7274122731 0.2834548486 0.77878372652 0.46415952965 -1.3871096662 -0.10359662224 0.15890496843 1.1614495225 
0.18100723214 -0.35599241605 -0.87397322834 1.1749952036 -0.26564949003 -0.54609840983 0.76121566861 -0.09996615323 0.81878446236 
0.39067257841 1.5948347412 0.052778881251 0.30042712187 -0.19060376341 -1.7019266291 0 0 
FrenetTangent 3 80 double
-0.97906731362 -0.084625740641 0.18510991175 -0.97906731362 -0.084625740641 0.18510991175 -0.99553725009 -0.067175320326 0.066280163065 
-0.99944527912 0.032228240945 0.0083949111826 -0.98390168065 0.17567574401 0.032795057238 -0.97339583756 0.21733755069 0.072559854401 
-0.96039838676 0.25291862015 0.11690641677 -0.89827257239 0.4316636595 0.082297452939 -0.73869528595 0.66836150074 0.087305090618 
-0.57805596253 0.79599972687 0.17954313968 -0.39113153808 0.87758425167 0.27723997031 -0.24489053594 0.90860000168 0.33834104445 
-0.15388289943 0.92035046301 0.35954843694 -0.041841655751 0.90682813525 0.41941865596 -0.017161902789 0.86625115182 0.49931394039 
-0.052535839732 0.85200497943 0.52089106401 -0.055155802835 0.89608202201 0.44044846151 0.053099361513 0.94373273272 0.32641842319 
0.20118175779 0.95184243124 0.23134797693 0.32806703736 0.92186847394 0.20622932806 0.41947398452 0.86361377813 0.27966554764 
0.48716871869 0.72248179135 0.4905983089 0.55619642035 0.4926336347 0.66929637975 0.58453304037 0.29774669552 0.75476355902 
0.5099645879 -0.0133474486 0.86009183504 0.49246800759 -0.15717873812 0.85601992137 0.45378545418 -0.49233211205 0.74275692728 
0.34730849777 -0.70276391016 0.62088621659 0.1270782162 -0.89340474897 0.43090495645 -0.02716776678 -0.96223033868 0.27087762507 
-0.24199686958 -0.93937938667 0.24290714896 -0.44818278167 -0.88603221648 0.11865540683 -0.47877250877 -0.87355162239 -0.087660982608 
-0.44877960644 -0.87853638917 -0.16361747383 -0.40153128529 -0.89956289808 -0.17192794806 -0.34766799066 -0.93134977729 -0.10823382376 
-0.19558712695 -0.98011723668 -0.033404762301 -0.0076990385827 -0.99971568604 -0.022567053087 0.098981631901 -0.99067097197 0.093667827158 
0.23407517812 -0.92965902966 0.28450465649 0.32737762895 -0.85355377884 0.40530215235 0.38338594645 -0.75609277436 0.53041392575 
0.37502179193 -0.66237076954 0.64855502406 0.29556953397 -0.5782599999 0.76043015662 0.24983175077 -0.4203729795 0.87227900033 
0.23797454251 -0.2446626786 0.93995121726 0.26927247033 -0.097997164256 0.95806518177 0.31702240384 -0.019257039945 0.94822252761 
0.32443897626 -0.031690256566 0.94537562816 0.31106981394 -0.1020536433 0.94489185876 0.28606135678 -0.10980731156 0.95189876273 
0.23652251977 -0.050430477422 0.97031637345 0.23370933901 -0.042149072334 0.97139250592 0.24338770062 -0.051419286648 0.96856516773 
0.19631477566 -0.10760853367 0.97461834188 0.13272773733 -0.1289652274 0.98272647154 0.17009681855 -0.11546162734 0.9786397115 
0.25340817645 -0.11052923508 0.9610242371 0.34695990772 -0.16809056238 0.92269409084 0.38796394637 -0.20851096976 0.89777901056 
0.47413035824 -0.19692078421 0.85815069081 0.60020910916 -0.15749546368 0.78418378216 0.73505186506 -0.1362839246 0.66417275431 
0.76924324454 -0.20301086129 0.60584768789 0.78530017888 -0.31833834159 0.53100313494 0.80562323719 -0.36613480873 0.46574295651 
0.84243267484 -0.36663405602 0.39482484386 0.82313916652 -0.43294832164 0.36742028159 0.7967431795 -0.51087943759 0.32280412973 
0.79804280668 -0.54735944462 0.25204229228 0.81133544507 -0.54546797759 0.2102367261 0.84994664337 -0.51841633499 0.093995782042 
0.82996876468 -0.55151497315 0.083564849354 0.8090376365 -0.58147237507 0.085720357957 0.76781149925 -0.63746519741 0.064059532569 
0.71302164875 -0.69979737994 0.043402251611 0.70489150771 -0.7070137344 0.057092396351 0.7143897445 -0.68508981449 0.14247539802 
0.7056603573 -0.69444953647 0.1406531245 0.7056603573 -0.69444953647 0.1406531245 
FrenetNormal 3 80 double
0.20351610311 -0.39408812511 0.89625651765 0.20351610311 -0.39408812511 0.89625651765 0.042243746698 0.31082357674 0.94952839347 
-0.032292276665 -0.99944951648 -0.0076074223851 -0.17346384318 -0.89465717004 -0.41170237212 0.035157306601 0.45459492952 -0.89000416507 
-0.27831468544 -0.85081517915 -0.44570670491 -0.37671837099 -0.85286183914 0.36153831374 -0.61072034186 -0.60885579772 -0.50627589477 
-0.80173551914 -0.51307723496 -0.30654837842 -0.7987903424 -0.1740889593 -0.57587066529 -0.90638141421 -0.33844427809 0.25284027093 
-0.83530379964 0.073207342535 -0.54489287691 -0.90481519067 0.14364593376 -0.4008432567 0.42489643567 0.45837043231 -0.7806148639 
0.089649579867 -0.51548133512 0.85219830202 -0.023606200726 -0.44216692792 0.89662208044 -0.8003020015 -0.1552839732 0.57914039236 
-0.90847321994 0.092978621692 0.40746948912 -0.92589060218 0.35709064157 -0.12334044952 -0.4809872343 0.47272975926 -0.7383616019 
-0.051311620794 0.58447995972 -0.80978410349 -0.2826884264 0.86948798683 -0.4050652964 0.29070658808 0.79162017174 -0.53742644459 
0.17385593362 0.9808437913 -0.087861091541 0.093637247755 0.98741692242 0.12743581581 0.14350391393 0.86301345835 0.48437010374 
0.62188773586 0.66817096407 0.40841548301 0.63053444621 0.40811517925 0.66020323584 0.70028510796 0.17505209751 0.6920675767 
0.91817901531 -0.30264130341 -0.25564729084 0.26102462661 -0.0027598695458 0.96532819674 -0.044638079634 -0.075498317661 0.99614629743 
-0.86578943891 0.47279728728 -0.16392489931 -0.86949946139 0.31547309434 0.38006238091 -0.3206286692 0.22656994606 -0.91970827768 
-0.98037484239 0.19455309445 0.031847477985 -0.97806778622 0.012225973228 -0.20792770649 -0.36089380416 -0.12346005388 -0.92439887344 
-0.74636936772 -0.35935634957 -0.56017477715 -0.22253147199 -0.48652177228 -0.84485283279 -0.49179912295 -0.65323205011 -0.57569220194 
0.39746298077 -0.51715798904 -0.75800448105 0.59091361982 -0.51478461982 -0.62114240646 0.019576218872 -0.89846853978 -0.43860124793 
0.2045295646 -0.93342998864 -0.29474754198 -0.33075125815 -0.94371122243 -0.0035684579652 -0.85575210763 -0.43683996988 0.27723486613 
0.54366170958 0.82411555824 -0.15895122587 -0.085146720581 0.98722713449 0.13465742052 0.57211822361 -0.7773323873 -0.26160102804 
-0.00919659184 0.99849118965 0.054136557836 0.23618587906 -0.96667520256 -0.098768837653 -0.48155564208 0.86041835553 0.16668658329 
0.87677142856 0.4642853177 -0.12534355122 0.79064253228 -0.58415121546 -0.18344411584 -0.97939615041 -0.12951588679 0.15494778359 
-0.96545278524 0.033446314878 0.2584226451 -0.32483280049 0.90137945286 0.28635421019 -0.85858914591 0.27241561276 0.43429760816 
-0.84593509524 -0.37212674076 0.3819888787 -0.79453630092 -0.23015306263 0.56190891992 -0.63515914273 0.20431885303 0.74486688053 
-0.013131651933 0.94296043406 0.33264572673 -0.1642389959 0.7198342375 0.67443622586 -0.56869484676 -0.25765873078 0.78115180965 
-0.3584593579 0.16571185974 0.91872001626 0.5010622255 0.85823126267 -0.11124633006 -0.13347270649 0.3722070841 0.91850254391 
0.60259399189 0.72289421184 -0.33808939561 -0.35451373753 -0.17314923735 0.91887939987 -0.26635352218 -0.26886123482 0.92561840822 
0.55528935309 0.80266923418 -0.21765990637 -0.43921317888 -0.50118970486 0.74558746183 0.62169349037 0.76548737199 0.16591047994 
0.64191187627 0.67643714227 0.36108438855 -0.37450076274 -0.43931416113 -0.816548986 0.35645601049 0.18108000503 -0.9165965003 
0.075884255079 0.27143735646 0.9594599217 0.075884255079 0.27143735646 0.9594599217 
FrenetBinormal 3 80 double
-0.0028967535503 0.91516830893 0.40306150294 -0.0028967535503 0.91516830893 0.40306150294 -0.084386311341 0.94809080814 -0.30659871164 
0.0081451160807 -0.0078742931836 0.99993582424 -0.042985787433 -0.41076341253 0.91072808291 -0.22641666724 -0.86377534065 -0.45014181508 
-0.013261770874 -0.46059277297 0.8875124917 0.22625130863 0.2937569887 0.92871802875 -0.28521910622 -0.42730261165 0.85794087181 
-0.15189292783 -0.32114823025 0.93476860917 -0.45711060895 -0.44669778986 0.76909750729 0.34424026113 -0.2447478449 0.90641995512 
-0.52781399714 -0.38418187131 0.75750688062 -0.42374372747 -0.39626831672 0.81450148839 -0.90507927169 0.19875987715 -0.37593353561 
0.99458681792 0.09146861846 -0.049300643644 0.99819866996 0.039056595895 0.045541163976 0.59724129479 -0.29198530246 0.74702571505 
0.36633633315 -0.29214886959 0.88342896093 -0.18734623504 -0.15048186088 0.97069902532 -0.76986547965 0.17520792488 0.61368503836 
-0.87179914952 0.36932808973 0.32181206479 -0.78149395107 0.036093527475 0.6228679328 -0.75750300617 0.53355825268 0.37617121984 
-0.84244301495 0.19433811432 0.50251613297 -0.86527875701 0.017397287153 0.50098902888 -0.87948018071 -0.11321158136 0.46227453919 
-0.70187780373 0.24427535559 0.66910171072 -0.76568755972 0.18780296854 0.61518501761 -0.71334611516 0.20849349744 0.66907980205 
0.31366353144 0.16116640275 0.93575668829 -0.85498440835 0.4636154597 0.23251315448 -0.87680347096 0.48084047984 -0.0028471479299 
0.22137188691 0.068092129064 -0.97280930796 -0.28765137505 0.30209819453 -0.90884177242 0.8810926312 -0.28505026202 -0.37738855754 
-0.024715262243 0.038978145296 -0.99893436221 0.20814449393 0.020471264219 -0.97788383614 0.92733936542 0.05769437055 -0.36974729336 
0.62301009456 -0.081222549832 -0.77798542369 0.91831564946 0.18639343265 -0.34921892306 0.78176009027 -0.040144803777 -0.62228575108 
0.83748542345 0.54204481183 0.069322344675 0.75063955697 0.63293930808 0.18954705957 0.96809135311 0.12665244229 -0.21623665485 
0.94949237718 0.26239022467 -0.17209182338 0.90448656262 -0.31592037677 -0.28652813751 0.40888277751 -0.8993330902 -0.15496730987 
-0.77406155842 0.5655345032 0.2846039871 -0.94656516249 -0.12234230182 0.29840702799 0.76866744329 0.61943257421 -0.15954199335 
-0.97158248252 -0.021728118713 0.23570186363 0.94318406231 0.25251239269 -0.21596600693 -0.84194215405 -0.50698748548 0.18465399753 
-0.43901295075 0.87912430705 0.18549415578 0.59771877492 0.80133346842 0.024432324879 0.10885886683 -0.98483209111 -0.13511291363 
-0.060705976528 -0.99330993764 -0.098235188192 -0.87983093499 -0.39907473586 0.25814120367 -0.33512483472 -0.93931512786 -0.073337819258 
0.2441192701 -0.90705231027 -0.34301878725 0.091984193245 -0.96032533377 -0.26327582781 -0.23721639716 -0.969371187 0.063622973271 
-0.63882109424 -0.26384125907 0.7227000758 -0.5969331464 -0.61684631052 0.51300238589 -0.16600412937 -0.89417966891 -0.41579483973 
-0.40226120506 -0.91548842074 0.0081776769499 -0.26716766032 0.27567163539 0.92337781581 -0.58939404692 -0.77489617807 0.22836499439 
0.0028565095894 0.42168898121 0.90673603848 -0.46481695911 -0.82005123439 -0.33385800498 -0.45458388076 -0.81176236672 -0.36659972085 
0.052967763781 0.22705359475 0.9724407854 -0.39057635134 -0.64085782883 -0.66087166455 -0.15479892008 -0.087562579946 0.98405797031 
-0.2820448041 -0.2296005653 0.93152257562 0.60239284612 0.55419729988 -0.5744460042 0.60215148056 0.70559335163 0.37356608063 
-0.70447501018 -0.66637947358 0.24424036771 -0.70447501018 -0.66637947358 0.24424036771 
SiphonLabel 1 80 int
0 0 0 0 0 0 0 0 0 
0 0 0 0 0 0 0 0 0 
0 1 1 1 1 1 1 1 1 
1 1 1 1 1 1 1 1 1 
1 1 1 1 1 1 0 0 0 
0 0 0 0 0 0 0 0 0 
0 0 0 0 0 0 0 0 0 
0 0 0 0 0 0 0 0 0 
0 0 0 0 0 0 0 0 
