# vtk DataFile Version 5.1
vtk output
ASCII
DATASET POLYDATA
POINTS 109 float
79.1082 75.7099 31.5951 79.7896 75.0717 31.5046 80.0578 74.8086 31.4329 
80.4563 74.3011 31.2681 80.9203 73.6953 31.0671 81.3492 72.9658 30.7319 
81.6277 72.4411 30.3925 81.9026 71.8776 30.0178 82.2084 71.295 29.5389 
82.458 70.5807 29.0434 82.7584 69.8387 28.6609 83.0105 69.0815 28.2034 
83.1279 68.5996 27.8961 83.2288 67.7527 27.4257 83.2618 66.9178 26.9831 
83.1422 66.0993 26.506 82.9655 65.5134 26.1412 82.6591 64.7899 25.6373 
82.2127 64.1315 25.2229 81.6157 63.522 24.8707 81.027 62.8953 24.4956 
80.5288 62.4254 24.1029 79.8533 62.1481 23.6612 79.0613 62.0005 23.1282 
78.2999 62.049 22.5381 77.7095 62.27 22.0087 77.2146 62.6816 21.3001 
76.8965 63.1444 20.6101 76.7421 63.7331 19.9768 76.7529 64.2032 19.6258 
76.8979 64.8531 19.2421 77.1565 65.4814 18.9718 77.6425 66.2424 18.6714 
78.1365 66.701 18.5787 78.7242 67.1208 18.5151 79.5088 67.5245 18.5132 
80.3119 67.9074 18.7136 81.1717 68.1277 19.0103 81.8351 68.3891 19.2107 
82.5283 68.7915 19.4937 83.2603 69.2963 19.9269 83.8366 69.7343 20.3621 
84.2308 70.0434 20.8092 84.5824 70.4105 21.2927 84.9421 70.9533 21.8255 
85.1152 71.3292 22.1778 85.1883 72.1251 22.6779 85.188 72.797 22.9887 
85.0507 73.6043 23.2531 84.9108 74.4576 23.3443 84.7335 75.4123 23.2129 
84.436 76.0581 22.9956 84.1296 76.5169 22.9087 83.6218 77.0969 22.6246 
83.0944 77.5174 22.3043 82.5582 77.8604 21.9363 82.0395 78.1145 21.5567 
81.6806 78.2842 21.2901 80.9499 78.383 20.735 80.3713 78.2914 20.2733 
79.9519 77.949 19.9071 79.6841 77.6524 19.5099 79.3548 77.2285 18.9738 
79.097 76.7999 18.3919 78.8834 76.3169 17.6598 78.8415 75.8466 17.0647 
78.8001 75.538 16.6082 78.8848 75.0401 15.7913 78.9343 74.7446 15.1894 
79.0439 74.4749 14.2659 79.2595 74.3558 13.46 79.4619 74.2524 12.5187 
79.5138 74.246 11.7839 79.4224 74.2942 10.8556 79.3111 74.4358 10.175 
79.2411 74.7466 9.41896 79.182 75.1845 8.6492 78.9322 75.6761 7.85634 
78.5108 76.2504 7.17422 78.0535 76.8612 6.68248 77.6408 77.3514 6.34735 
77.0664 78.0307 6.01572 76.3184 78.5758 5.85092 75.9521 78.814 5.78805 
75.4253 79.3177 5.72619 74.6933 79.9475 5.80219 73.9825 80.4727 5.91583 
73.219 81.0041 5.98457 72.5891 81.5347 6.0608 72.2193 81.808 6.10433 
71.3723 82.2974 6.21786 70.808 82.5832 6.34039 70.4512 82.8235 6.41177 
69.6342 83.254 6.5133 68.8745 83.7334 6.56196 68.1716 84.1934 6.58159 
67.5148 84.6567 6.56661 66.7935 85.1514 6.53911 66.3205 85.5431 6.45082 
65.6062 86.0502 6.22933 64.9011 86.4666 6.00848 64.0771 86.8854 5.67658 
63.4606 87.2472 5.43075 62.7544 87.7638 5.13595 62.0591 88.2728 4.74181 
61.3638 88.7064 4.50201 60.7226 89.1772 4.15864 60.1721 89.7259 3.71355 
59.9765 89.941 3.48776 
LINES 2 109
OFFSETS vtktypeint64
0 109 
CONNECTIVITY vtktypeint64
108 107 106 105 104 103 102 101 100 
99 98 97 96 95 94 93 92 91 
90 89 88 87 86 85 84 83 82 
81 80 79 78 77 76 75 74 73 
72 71 70 69 68 67 66 65 64 
63 62 61 60 59 58 57 56 55 
54 53 52 51 50 49 48 47 46 
45 44 43 42 41 40 39 38 37 
36 35 34 33 32 31 30 29 28 
27 26 25 24 23 22 21 20 19 
18 17 16 15 14 13 12 11 10 
9 8 7 6 5 4 3 2 1 
0 
CELL_DATA 1
FIELD FieldData 2
Length 1 1 double
87.359701132 
Tortuosity 1 1 double
1.3701184529 
POINT_DATA 109
FIELD FieldData 7
MaximumInscribedSphereRadius 1 109 double
2.0390534888 1.9095154272 1.875253339 1.8114161553 1.7965012179 1.7431347309 1.6665419548 1.6205062246 1.651300775 
1.6956176771 1.7086133799 1.7308844669 1.7374887658 1.7063067099 1.7057138737 1.6997757802 1.7196037335 1.7974325038 
1.8560402671 1.8804664363 1.9021344223 1.9276909651 1.9397279493 2.0431398769 2.1169114462 2.1279575376 2.1292287833 
2.2053697759 2.2897349282 2.2939706563 2.2696061966 2.2545802657 2.2458663707 2.164523645 2.0742918373 2.0302043341 
1.8869865701 1.8369769738 1.903265114 1.9515159502 2.0400899263 2.1551220604 2.1428117609 2.1775707361 2.2735780368 
2.3394370173 2.4531705519 2.5542744715 2.645975832 2.6306339842 2.5948649212 2.5215233323 2.4748369621 2.3977856046 
2.3476719143 2.3483316704 2.3802050595 2.4309574685 2.5580454311 2.6403940854 2.5887109411 2.4966812876 2.4171197357 
2.3565297111 2.353798899 2.3221534332 2.2918041774 2.17455333 2.1251096201 2.1212311439 2.1281882117 2.0787994367 
2.0206382853 1.9561163926 1.9167875451 1.9139982981 1.9974508279 2.0044012488 1.9838921389 2.037391917 2.0673049444 
2.1027737078 1.9954729752 1.9451926366 1.9183721883 1.965461977 2.0496893072 2.0231443372 1.9999351563 2.0340297645 
2.1240672871 2.1581043008 2.1416285575 2.1076389388 2.1090252486 2.0755723087 2.0404149704 2.0176858154 1.95584642 
1.8650078358 1.8196138329 1.8152416908 1.8471248744 1.9151459674 1.872633693 1.8349012077 1.749008045 1.6795622392 
1.6651888942 
Curvature 1 109 double
0 0.14356964531 0.26868016158 0.019124202289 0.19698982364 0.1857297895 0.04986683801 0.12185521706 0.15271199682 
0.15736323339 0.10356212097 0.10456251047 0.1487647336 0.074651716635 0.17516918405 0.15433927521 0.11831481129 0.21056578982 
0.20485881607 0.029696527789 0.14169311829 0.39320720781 0.1969785344 0.22418222302 0.26302534177 0.31474132055 0.20374110124 
0.27783536329 0.36705727235 0.30093701055 0.28337701158 0.21127409999 0.38533601997 0.19450743268 0.21060672808 0.2543399383 
0.23203097248 0.15387606165 0.19936377569 0.14690485405 0.10583577263 0.2494718386 0.15910945205 0.19960913411 0.17312671279 
0.42430905882 0.17842676815 0.2491395634 0.24186663962 0.26321459086 0.34383193686 0.3216211078 0.3422011968 0.24098495361 
0.16596780375 0.1577308466 0.025888921805 0.36926858997 0.28076473298 0.63872089903 0.36679592237 0.079096214325 0.14604232586 
0.13790302502 0.24539318244 0.11699432012 0.22570259271 0.11257058829 0.21587726649 0.22081235116 0.066593756279 0.20283166343 
0.21577311401 0.2008206458 0.26118786308 0.15072420263 0.21594747624 0.23329019883 0.20367028227 0.12678613025 0.14997857419 
0.31521857197 0.09040201602 0.33370675679 0.20290013156 0.095565098073 0.066941559432 0.10657736887 0.09861970186 0.15758975457 
0.1147769751 0.23201798089 0.17649976327 0.10466966708 0.040137173922 0.066361445158 0.021905326722 0.19240846724 0.16814853196 
0.094532669386 0.11080202996 0.067511218422 0.11407236264 0.11136726791 0.17876064621 0.16571000949 0.20028415952 0.23180593914 
0 
Torsion 1 109 double
0 0 -0.37707413837 3.0433946194 0.29488237988 0.22630162709 -0.049017734098 -0.40652734532 -0.97484198787 
-0.41766333775 0.034947391666 -0.99118491149 -0.25546151755 0.8723345162 0.10118480346 0.11826511964 -0.50154739095 -0.17123906888 
0.064532511256 -1.4424976832 -1.3635631782 -0.087886203857 0.47394361529 0.10539899627 0.33650304066 0.24791257711 -0.27639033811 
-0.23445704477 0.055012360884 0.13925917325 0.20838869037 0.11280309584 0.012458959037 0.29603961195 -0.67483023882 0.038675486156 
0.43329921721 0.49386419139 0.63675441441 0.48823265962 0.59244697192 -0.28321811119 -1.6201114425 0.064755000311 -0.2407779691 
-0.24567567768 -0.20614336547 -0.30608440154 -0.39925585523 0.59233977286 0.87102653408 -0.022199353108 -0.44689859238 0.26779548758 
-0.18377135692 0.073216609139 3.6435041556 -0.014108770966 -0.033330755977 -0.42011179274 -1.1948781735 1.7046720677 -0.35548097806 
0.70296190017 0.038238813731 0.23994189855 0.015891593239 -0.75700374368 0.48226176903 0.14522965491 -1.8060524316 -0.16732427616 
0.26534202456 1.0164327527 0.24674007601 -1.0777840446 -0.13692763882 0.36807031241 0.073621109564 -0.12170274082 -0.74888931145 
-0.2274632464 1.6707483238 -0.34255601143 -1.1375059969 -1.0749130206 -1.4540463397 -0.39866669203 0.0071743967972 0.42108561737 
1.4187237182 0.75966920307 0.22867511284 -0.72656528934 0.47016714327 0.12718340202 -3.3736918915 0.48545849674 0.97257781607 
0.2313777969 -0.53669929656 -0.42068726447 0.64717490435 0.92459753967 0.19337786654 -0.16055932367 0.25356060502 0 
0 
FrenetTangent 3 109 double
-0.71980707578 0.68318838646 0.12300976488 -0.71980707578 0.68318838646 0.12300976488 -0.63732326119 0.73670102282 0.22603243953 
-0.59275937061 0.76513344112 0.2514103137 -0.52729052652 0.78848499394 0.3166324604 -0.44490138198 0.78871803782 0.42424829656 
-0.3912893999 0.76940078516 0.50489111432 -0.37644925865 0.74302163302 0.55335775817 -0.32392200706 0.7563979557 0.56827516747 
-0.30772178475 0.81485951257 0.49123444297 -0.30603167562 0.83052638408 0.46537139884 -0.24597216692 0.82481803313 0.50909027228 
-0.14040437937 0.8545105613 0.50009830121 -0.06981068444 0.87669620087 0.47595193006 0.045741763305 0.87298084771 0.48560491207 
0.1780935187 0.84397950879 0.50594593321 0.2938407009 0.79650484297 0.52842944431 0.41313830185 0.75848242654 0.50400511126 
0.57578470275 0.69964649151 0.42304463477 0.63717708752 0.66427652612 0.39082228184 0.63030041562 0.6359637704 0.44527684513 
0.72343233995 0.46055862444 0.51432616399 0.80978989964 0.23447402152 0.5378310624 0.80930814321 0.051645280883 0.58510947206 
0.76125814154 -0.15174250457 0.63044448942 0.61533460275 -0.35869645216 0.70192605156 0.44210317865 -0.4754843293 0.76056520563 
0.26922209481 -0.59910621224 0.75404987244 0.098861738121 -0.72885127154 0.67749699682 -0.11552268483 -0.83059050879 0.544769599 
-0.2706130538 -0.85701295215 0.43851724592 -0.44414193005 -0.82874058765 0.34048051978 -0.6074914028 -0.75603460052 0.24365114063 
-0.77145580888 -0.62645112754 0.11142225875 -0.85673122381 -0.51413685382 0.040925611738 -0.8904810108 -0.44118811844 -0.11134008064 
-0.90501185496 -0.32827387852 -0.27053614004 -0.91041569509 -0.28789664834 -0.29708379628 -0.85548938485 -0.41857679303 -0.30484648719 
-0.7766855543 -0.49438409491 -0.39031258813 -0.71431613046 -0.51475199695 -0.47411269482 -0.6429312192 -0.49497809136 -0.58449648113 
-0.54396447079 -0.4932524758 -0.6788259347 -0.46237254356 -0.59144745391 -0.66060694836 -0.38540791881 -0.66451201672 -0.64022223935 
-0.16752014885 -0.79722606286 -0.5799720721 -0.043412896485 -0.87447146017 -0.48313040245 0.086403151605 -0.9285202002 -0.36108826236 
0.16111408027 -0.96506620265 -0.20661432102 0.17272266466 -0.98472612664 0.021939385284 0.27838451861 -0.93845394985 0.20446575218 
0.46628831423 -0.85288367373 0.23487155448 0.59388242136 -0.75767559606 0.27061293529 0.66303057413 -0.64075869643 0.38706427207 
0.71907603753 -0.51614201539 0.46532469545 0.74069940088 -0.41924662867 0.52497301062 0.75048277841 -0.36248269263 0.55261369586 
0.78339232048 -0.19309977784 0.59076979274 0.78979929781 -0.004303017472 0.6133502696 0.72984947733 0.31737801396 0.60546753562 
0.56805214523 0.52822889264 0.63110300053 0.45182890145 0.54518732372 0.70613130923 0.38536079782 0.5595278138 0.73377495262 
0.28272166584 0.54674683037 0.78812204838 0.15450793719 0.57637295846 0.80244720082 0.06348531137 0.5940307377 0.80193335004 
-0.028736915562 0.53482030704 0.844477015 -0.082249345007 0.48639093156 0.86986142974 -0.097343516457 0.34583228384 0.93323323519 
-0.18046678904 0.21573970856 0.95962915556 -0.23089599245 0.12289700177 0.96518566485 -0.1496731029 0.064642182045 0.9866201653 
0.023758418136 -0.025143026834 0.99940150379 0.12412826666 -0.1162683207 0.98543079464 0.11949769853 -0.29818349579 0.94699889276 
0.075784522245 -0.43923332251 0.89517081866 0.16750826218 -0.50399753213 0.84730600712 0.34604829895 -0.54952120583 0.76044527688 
0.46605612127 -0.62859506515 0.62262343024 0.53411278813 -0.67601511485 0.50766829135 0.59132783508 -0.70056502871 0.3994246262 
0.70742260184 -0.65500097407 0.26556917438 0.80689687358 -0.56722108883 0.16485651883 0.76483549852 -0.63530922436 0.10681221678 
0.74308548171 -0.66914445427 -0.008346627751 0.77660028915 -0.62166952935 -0.10207344009 0.80874143287 -0.57959342326 -0.10004378279 
0.79260595799 -0.60413246187 -0.082460680728 0.77591126242 -0.62395629863 -0.092952946421 0.84229919519 -0.52793096436 -0.10872425052 
0.86720592296 -0.47635618067 -0.14504715208 0.85416737566 -0.48791573256 -0.17982305825 0.86121918366 -0.49214444059 -0.12686751866 
0.86319379315 -0.49813200179 -0.082225204475 0.84073163893 -0.54002739195 -0.039252098599 0.82729495338 -0.56176067903 -0.0028283573272 
0.82085945652 -0.57056955232 0.025300960695 0.80058519107 -0.59416997734 0.077623384721 0.78059442182 -0.59092697631 0.20366064245 
0.81099181982 -0.52764883096 0.25274291164 0.83652293914 -0.45693218622 0.30239436089 0.82916048686 -0.44934908147 0.33253314123 
0.78858903023 -0.52367155002 0.32232816988 0.75013693129 -0.54893008196 0.36874157542 0.77444767659 -0.52496890449 0.35304170511 
0.77889857228 -0.52707348636 0.33986843644 0.67889354133 -0.58080163298 0.44919152113 0.5916497278 -0.60570212355 0.53204843494 
0.5916497278 -0.60570212355 0.53204843494 
FrenetNormal 3 109 double
-0.2530355837 -0.093215634891 -0.96295578237 -0.2530355837 -0.093215634891 -0.96295578237 -0.74543014385 -0.51504152391 -0.42316206031 
-0.74462297256 -0.40171122217 -0.53307102971 -0.70546118091 -0.19855328741 -0.68036836662 -0.43117866641 0.22655668781 -0.87335961943 
-0.87055531401 -0.13158979464 -0.47414931318 -0.0080564440014 0.5946484125 -0.80394549518 -0.76442889091 -0.56315613308 0.31385289629 
0.44600079745 -0.33252059945 0.83097132298 -0.69099550262 0.14247849918 -0.70867841271 -0.92514112157 -0.043095236136 -0.37716933307 
-0.84765659956 -0.36475499357 0.38526884624 -0.95986055967 -0.1889597562 0.2072725658 -0.96912264982 0.15668829931 -0.19039450219 
-0.95931821254 0.26338343807 -0.10167463613 -0.82364655837 0.49151925589 -0.28286952466 -0.88822706349 0.21351039628 0.40677511522 
-0.80632465385 0.40028073432 0.43544906284 0.6980897548 -0.28253461401 -0.65790948172 -0.031753745577 0.59418901458 -0.80369839778 
-0.50516807914 0.86090775073 -0.060357738073 -0.15482958667 0.96958091969 -0.1895801658 0.1422950269 0.94921778239 -0.28060243568 
0.30450032799 0.94202659778 -0.1409448095 0.73460278526 0.58387806948 -0.34560837354 0.85311656391 0.48477565701 -0.19283332375 
0.75096616636 0.62078756092 0.22510580001 0.73154012336 0.51477731721 0.44704961872 0.84230196261 0.20877629822 0.49693043889 
0.78550162627 0.066777410789 0.61524626983 0.88513959148 -0.34698945847 0.31004228631 0.7167870884 -0.38957980127 0.57831120371 
0.61956719684 -0.69970650895 0.35573485904 0.46055304106 -0.72689083813 0.5094316498 -0.039839162025 -0.16815714162 0.98495482987 
0.17878534699 -0.87061168688 0.45833512888 -0.17270949352 0.91705284274 -0.35942386465 -0.51344426213 0.76206026906 0.39451126221 
-0.56495884512 0.27275518059 0.77873366101 -0.59347124124 0.086539130718 0.80018926803 -0.50152727672 -0.30470638097 0.80970637401 
-0.78911529414 0.57577158949 0.21397226289 -0.48401962417 0.79259244763 -0.37083987836 -0.90802280736 0.39657054217 0.1350051347 
-0.78835218066 0.46156922916 -0.40676121489 -0.52135819841 0.43234696698 -0.73570491985 -0.8059818177 0.14789598072 -0.57316671957 
-0.005672584997 0.20844033513 -0.97801863401 -0.082452505909 -0.036651111554 -0.99592082029 -0.76110995134 -0.34539315593 -0.54901294138 
-0.72362589168 -0.21500974011 0.65584783338 -0.28487683691 -0.51259251349 -0.80999635981 -0.4740916987 -0.75956633138 -0.44530444582 
-0.18750583557 -0.78886694626 -0.58526105519 -0.19001353196 -0.88022408595 -0.43485677664 -0.0039000337401 -0.83858041381 -0.54476387482 
-0.12973898673 -0.98037906783 -0.14840713828 0.059400561001 -0.99473852176 -0.083467638551 0.30367621069 -0.94403098178 0.12878767214 
0.75006016296 -0.016685566609 -0.66115909114 0.78758870782 -0.61553195964 -0.028712958405 0.88474142442 0.0018801501232 -0.46607840216 
0.86613411212 0.20754099634 -0.45468498399 0.89755040795 -0.42136305605 0.12983235413 -0.25682520737 0.78621505147 -0.56205578523 
0.96027031066 0.24938113822 -0.12525964378 -0.15820567721 0.85537907997 -0.49325205854 0.22387333935 0.92126434337 -0.31804518164 
0.72160023374 0.69202463829 -0.019874674 -0.77814459877 0.57219362842 -0.25900856164 -0.8053444757 0.5709244307 -0.15957935293 
-0.9410188969 0.33694491205 0.030847397442 -0.36939599561 0.91631429062 0.15464384641 0.36927945254 0.8987496105 0.23639336615 
0.14654567632 0.89291029965 0.4257177017 -0.96844905924 0.076737455097 0.23710289462 -0.74968244538 0.32538352844 0.57628273487 
-0.40187814575 0.47653515979 0.78192595395 -0.65213421691 0.052692778334 0.75627008023 -0.27041922704 0.29436379049 0.91663700585 
-0.65417594689 -0.46452626301 0.59688288758 -0.55862049126 -0.64205283008 0.52508219369 0.58417149447 0.75384069135 0.30077878436 
-0.19880104349 -0.23264390995 0.95202676237 -0.47499935007 -0.68423378564 0.55335318198 -0.34102472921 -0.32349983205 -0.88263808706 
0.60717533247 0.76965127778 0.19742093671 -0.62380866275 -0.78082713425 0.034230668983 -0.50512523316 -0.84351346632 0.18257472706 
-0.17727054628 -0.56754341766 0.80403334663 0.45130534294 0.86737303306 -0.20973199317 -0.49126983297 -0.74216390997 -0.45590205303 
0.36587393409 0.72941790985 -0.57800153732 0.22640614597 0.41647601361 -0.8805043936 0.35664331218 0.52909892924 -0.76997394174 
-0.39480842143 -0.59889372801 -0.69674429521 0.42313342451 0.46883896629 -0.77533742896 -0.21180654468 -0.55664257293 -0.80329759967 
-0.49469059301 -0.84908763073 -0.18528737824 -0.072679788665 -0.63953813965 -0.76531602378 0.39688529106 0.89211747559 0.2158899615 
0.53406039683 0.84308658628 0.063122900574 0.29998302966 -0.21446424371 -0.92952421705 -0.50707563413 -0.18140577197 0.84259494846 
0.52452930489 0.25042889314 -0.81372868807 0.7173945569 0.39442261459 -0.5742611347 0.55294177516 -0.17538829545 -0.81455161844 
0.55294177516 -0.17538829545 -0.81455161844 
FrenetBinormal 3 109 double
-0.64641377386 -0.72426823347 0.23996824571 -0.64641377386 -0.72426823347 0.23996824571 -0.19532783054 -0.4381824182 0.87740709309 
-0.30687612694 -0.50318874318 0.80785402856 -0.47359183152 -0.58212370369 0.66094082241 -0.78495077422 -0.57148571638 0.23928300822 
-0.29837233579 -0.62506524278 0.72129563391 -0.92640220713 -0.30710278144 -0.21786884186 0.55742533499 -0.33274209591 0.76063111528 
0.84047045865 0.47479893188 -0.26110416009 -0.65488153805 -0.53844758577 0.53028706236 -0.28915670196 -0.56375350363 0.77367330887 
0.5116296507 -0.36981819221 0.77554471518 0.27165083165 -0.44237764627 0.85469751593 -0.24229936173 -0.46190173889 0.85319271147 
-0.21906908883 -0.46725555458 0.85655179705 -0.48504019358 -0.35212051376 0.80046683529 0.20092144542 -0.6157253603 0.76191394098 
0.13532379199 -0.5918362279 0.79461773871 -0.32661300247 0.69203387831 -0.64374921972 -0.77570167314 0.4924322265 0.3947118146 
-0.47058565781 -0.21615642063 0.85546802423 -0.56592235999 0.070247942349 0.82146035148 -0.56988810713 0.31035200426 0.76086081434 
-0.57250815906 0.29926593755 0.76333105952 -0.28587073048 0.72830162377 0.62277979276 -0.27701427364 0.73410300024 0.6199644161 
-0.60296706432 0.50566248691 0.61703822303 -0.67459276949 0.4514201343 0.58407572942 -0.52648068633 0.51626724088 0.67548961718 
-0.55655706827 0.51094968173 0.65511422859 -0.13880147538 0.43907556762 0.88766367299 -0.34230171693 0.52596507608 0.77858222002 
-0.14488762386 0.34346729995 0.92792121989 -0.23216913345 0.45529441573 0.85953736887 -0.45327299785 0.88151926801 0.13216417651 
-0.38599137566 0.36643082751 0.84660445697 0.37591846588 -0.27591593558 -0.88462178557 0.067178137099 0.4940218767 -0.86685032343 
-0.27853375571 0.82534173417 -0.49115167593 -0.37086972319 0.85296035106 -0.36730680355 -0.57888672302 0.81372643466 -0.052339769182 
0.28530633899 0.65206523588 -0.70243236051 0.74292437999 0.14828054906 -0.65274516037 0.16418074624 0.6333684431 -0.75623349426 
0.59197790412 0.3890815485 -0.70581705111 0.85223291967 0.21994491469 -0.47468229916 0.58560037989 0.34055398501 -0.73559171989 
0.98691948756 0.15874461 0.028108252822 0.98151335466 0.17020914057 -0.087523614425 0.58584443478 -0.0027842153003 -0.81041874755 
-0.50886223765 -0.47577331866 -0.71742523816 0.75242863941 0.40395124242 -0.52026391029 0.57933368536 0.11174650412 -0.80739407963 
0.66915709207 0.33359610465 -0.66403495773 0.64440612598 0.22234617799 -0.73164398578 0.66087849794 0.40668069429 -0.63075385361 
0.60783572414 0.039615138134 -0.79307400241 0.6104823032 0.10235603242 -0.78538818434 0.6124544877 0.089870471717 -0.78538067128 
-0.33871302342 0.84893805949 -0.4056817212 0.41899244758 0.56911438984 -0.70749850894 -0.26216343649 0.82880944168 -0.49431289883 
-0.41216520897 0.81116868672 -0.41487974426 0.41295346291 0.70017668324 -0.5824277206 -0.9643704828 -0.17027441239 0.20247517474 
-0.27758804035 0.80732662973 -0.5207385071 -0.98397459771 -0.17818667531 0.0065954376547 -0.96974479516 0.17796640438 -0.16710173901 
-0.66837477564 0.68888190436 -0.28056528853 -0.58410446333 -0.8108580508 -0.036485577579 -0.57360111377 -0.81845383665 -0.033392806859 
-0.33751884874 -0.94118858602 -0.015654785267 -0.92094449987 -0.3832098621 0.070791452529 -0.92160348631 0.32145876947 0.21751154809 
-0.98629664449 0.098920600407 0.13203652478 -0.18451938042 -0.86028939933 -0.4752417781 -0.56411595074 -0.76951413487 -0.29936798486 
-0.78821675179 -0.61464012686 -0.030526490991 -0.53800045788 -0.73500138476 -0.41270870079 -0.7597399773 -0.6500450749 -0.015380750597 
-0.26759501663 -0.59597741144 -0.75710226003 -0.19199109915 -0.51577940999 -0.83493174456 -0.27160693154 -0.16764963918 0.94769366001 
-0.63898522047 -0.70577794701 -0.30590092765 -0.41384490854 -0.38124942343 -0.82666877818 0.47920708344 0.74794339517 -0.45928340793 
-0.055802428233 -0.20654510191 0.97684451674 -0.093938624293 0.031424891621 -0.99508191173 -0.18809722116 -0.098863183273 -0.97716196528 
-0.46532681054 -0.67154989257 -0.5766209337 0.25830521053 0.097991119225 0.96108072437 0.13021316715 0.45495777864 -0.88094151381 
0.34789759961 0.46884328041 0.81188252759 0.49184404883 0.73138098556 0.47241008202 0.43403756518 0.63598684151 0.63806906322 
0.41269366727 0.56194011115 -0.71687324436 0.42428935515 0.65356871231 0.62675871067 0.58805640567 0.5839129684 -0.55967428839 
0.31236754854 0.025237007231 -0.94962603591 0.5430902509 0.61822645134 -0.568198059 -0.39366858241 -0.047029913043 0.91804860138 
-0.30480622359 0.12236468336 0.94452106929 0.58932568774 0.80788665869 0.0037921594043 -0.37829234397 -0.83156454663 -0.40668821876 
0.34378194022 0.81208306808 0.47152419675 0.15636051058 0.71210972766 0.68443489574 0.58669071314 0.77612104941 0.23114957015 
0.58669071314 0.77612104941 0.23114957015 
SiphonLabel 1 109 int
0 0 0 0 0 0 0 0 0 
0 0 0 0 0 0 0 0 0 
0 0 0 0 0 1 1 1 1 
1 1 1 1 1 1 1 1 1 
1 1 1 1 1 1 1 1 1 
1 1 1 1 1 1 1 1 1 
1 0 0 0 0 0 0 0 0 
0 0 0 0 0 0 0 0 0 
0 0 0 0 0 0 0 0 0 
0 0 0 0 0 0 0 0 0 
0 0 0 0 0 0 0 0 0 
0 0 0 0 0 0 0 0 0 
0 
