# vtk DataFile Version 5.1
vtk output
ASCII
DATASET POLYDATA
POINTS 89 float
105.977 71.9778 36.1337 105.458 72.4808 35.4506 105.06 72.7657 34.9861 
104.552 72.965 34.4804 104.081 73.0262 34.0506 103.463 73.1122 33.5714 
102.778 73.1989 32.9191 102.117 73.1136 32.4153 101.641 72.8745 32.1503 
101.228 72.4998 32.0221 100.62 71.7384 31.9042 100.209 70.9269 31.7374 
99.9274 70.3386 31.6334 99.7527 69.4602 31.469 99.6601 68.6308 31.3238 
99.5003 67.725 31.1098 99.4153 66.9266 30.7001 99.4327 66.377 30.28 
99.5087 65.9518 29.9721 99.6048 65.5483 29.6489 99.798 65.0215 29.2056 
100.162 64.4542 28.7216 100.728 63.8271 28.2692 101.31 63.3929 27.9501 
101.87 63.1629 27.6706 102.52 63.0091 27.2442 103.099 62.8882 26.6976 
103.746 62.9096 26.1126 104.248 62.9976 25.6321 104.681 63.1206 25.2687 
105.275 63.4314 24.8669 105.754 63.7699 24.6101 106.209 64.4869 24.2854 
106.309 64.9646 24.1137 106.332 65.7591 23.875 106.203 66.3965 23.7398 
106.034 67.23 23.5916 105.888 68.0773 23.3857 105.744 68.9854 23.0712 
105.578 69.4591 22.8583 105.411 70.0852 22.4573 105.156 70.7444 21.8309 
104.907 71.1349 21.1578 104.625 71.4431 20.3969 104.273 71.904 19.691 
103.982 72.319 19.1682 103.721 72.7081 18.6738 103.491 72.9821 18.2276 
103.225 73.2946 17.6429 103.015 73.5576 17.0492 102.85 73.761 16.1793 
102.763 73.9521 15.5791 102.801 74.2421 14.8307 102.842 74.3541 14.5398 
103.003 74.6933 13.7759 103.172 75.0135 12.9028 103.377 75.2425 12.2807 
103.603 75.4591 11.7345 103.868 75.6356 11.2109 104.298 75.8501 10.6137 
104.843 76.0945 10.0001 105.569 76.3734 9.45399 106.306 76.6588 8.92289 
107.096 76.9161 8.43473 107.858 77.0881 8.20694 108.82 77.2584 8.06002 
109.742 77.5424 7.87505 110.62 77.8258 7.63629 111.161 78.0023 7.5648 
111.867 78.2298 7.52964 112.762 78.5829 7.5322 113.637 79.0002 7.56862 
114.391 79.415 7.68872 114.874 79.6492 7.73309 115.563 79.9924 7.7742 
116.363 80.3459 7.78017 116.83 80.5668 7.80355 117.411 80.8749 7.83657 
118.215 81.3167 7.80355 118.867 81.7077 7.68324 119.65 82.271 7.46332 
120.014 82.6224 7.39479 120.542 83.2177 7.19149 121.057 83.765 6.83627 
121.479 84.2783 6.40332 121.792 84.6864 5.91959 122.079 85.1021 5.4379 
122.325 85.3994 4.96459 122.53 85.6848 4.50735 
LINES 2 89
OFFSETS vtktypeint64
0 89 
CONNECTIVITY vtktypeint64
88 87 86 85 84 83 82 81 80 
79 78 77 76 75 74 73 72 71 
70 69 68 67 66 65 64 63 62 
61 60 59 58 57 56 55 54 53 
52 51 50 49 48 47 46 45 44 
43 42 41 40 39 38 37 36 35 
34 33 32 31 30 29 28 27 26 
25 24 23 22 21 20 19 18 17 
16 15 14 13 12 11 10 9 8 
7 6 5 4 3 2 1 0 
CELL_DATA 1
FIELD FieldData 2
Length 1 1 double
68.035958733 
Tortuosity 1 1 double
0.77930453719 
POINT_DATA 89
FIELD FieldData 7
MaximumInscribedSphereRadius 1 89 double
1.4226114066 1.4543606065 1.5160480821 1.5834725148 1.5470206637 1.4687389204 1.4399447761 1.5358966571 1.5928705855 
1.5521862635 1.4366652687 1.3339311706 1.3084565732 1.2902898289 1.2731666453 1.3953130661 1.4689940223 1.4814689666 
1.51228965 1.55496436 1.614750063 1.6338055761 1.5589309488 1.5307402217 1.4916202241 1.389577895 1.3528795911 
1.3040188206 1.3130589722 1.3473860299 1.4188930504 1.4396571471 1.4356809956 1.429504881 1.4432226034 1.4375427015 
1.4696613124 1.5820861708 1.6331374128 1.6090642789 1.5849788941 1.6295378282 1.597649122 1.5308307462 1.442964396 
1.3688733889 1.3468706585 1.3392041466 1.3572587511 1.41459838 1.4658713335 1.4745689212 1.4883600216 1.5024424465 
1.5266908202 1.4846864406 1.4878925396 1.5192360991 1.543038764 1.5924105596 1.6899637132 1.700208317 1.7455569126 
1.8456766824 1.9277962986 2.061234283 2.1660893396 2.2248099779 2.2711363064 2.3311739057 2.3999102399 2.4043587235 
2.3284806369 2.2923807824 2.2667370354 2.2456118742 2.2173398987 2.173243527 2.1421578168 2.1450373264 2.1563764015 
2.1751907592 2.1858316155 2.1927667329 2.2092788798 2.1956129317 2.2091218673 2.2055478913 2.1788968695 
Curvature 1 89 double
0 0.12922447964 0.25627440871 0.26274698516 0.11385699942 0.11767869261 0.25147373228 0.48734547109 0.60943219368 
0.24565137385 0.22507944646 0.039907668648 0.31935646523 0.095859510693 0.093627630658 0.27607563459 0.27210601837 0.19889812536 
0.11872844725 0.14983632452 0.23561803512 0.2149124971 0.22035925605 0.31900733327 0.2669176922 0.22647363149 0.21195878743 
0.13446286544 0.17155222323 0.32388069259 0.24574035938 0.48188315173 0.48410164034 0.26137389254 0.32190957912 0.042160622341 
0.078558187595 0.10284879757 0.24194603687 0.25861510168 0.22685289246 0.3176503032 0.16128834226 0.21700872695 0.10567118671 
0.024542043577 0.17401632363 0.09930338503 0.14047372917 0.28284079522 0.11655328681 0.27369557478 0.14918877153 0.13185801506 
0.073577859261 0.14668185558 0.10646238577 0.15224237493 0.21611355949 0.12282926738 0.21227342759 0.021748820559 0.079771867737 
0.298565963 0.15831455057 0.13066804499 0.067322118022 0.16860734523 0.11807712011 0.095193575689 0.080780843368 0.12665645054 
0.10771941754 0.047307405502 0.079641986342 0.066461048458 0.078617987309 0.11106491462 0.15064669185 0.12065025412 0.22508668321 
0.20776131451 0.23597591188 0.18244946742 0.24122990163 0.051189672132 0.21226460924 0.084643827619 0 
Torsion 1 89 double
0 0 -0.13783757902 0.19920691774 1.5938050705 1.143224282 0.13066690014 -0.0069645532944 -0.048612813752 
-0.79317571987 -0.36905068718 -0.88103342737 -0.031762316388 -0.00072363034208 1.0911615253 0.30794262179 0.59811820241 0.59372703461 
-0.69877809009 0.65439406042 0.31582647167 -0.0045169731005 -0.6852293698 -0.67134470317 -0.96322725837 0.090491513613 0.48192211931 
0.25097997207 0.2069008504 -0.04739098648 -0.90850584783 -0.36731967888 -0.090946815735 0.17691527292 0.10996834698 5.0299272368 
0.34993358291 1.3223373746 -0.43522790178 -0.19606115881 0.45222185435 -0.009064151244 0.4827892912 0.23342210965 0.26359872583 
7.8382434825 -0.17275176812 -1.1018783323 0.16801075244 -0.17834237893 -0.44072389064 0.3243882276 0.021273649721 -0.32807836614 
-0.4330942196 -0.44382857797 0.49214146124 -0.26217555737 -0.37418682694 -0.19588177939 -0.027927458457 -0.20172027075 -0.44253350869 
-0.037807466548 -0.34459711046 -0.71786565872 -0.58169556458 0.091649525437 -0.422577739 -0.69204165005 0.33114127241 0.29641477749 
0.45791077052 0.37081046607 -0.42175256399 -0.81153787043 -1.7470412308 -0.33688633669 0.31492831697 1.3767005953 -0.27893334764 
-1.3719137314 -0.11574368858 0.18091674849 -0.0049224815082 0.24759487022 0.12222846024 0 0 
FrenetTangent 3 89 double
0.55017430235 -0.47263848676 0.68841927477 0.55017430235 -0.47263848676 0.68841927477 0.64106044234 -0.34267364801 0.68674324185 
0.70980620614 -0.18892195121 0.67858945326 0.76358603386 -0.10322070425 0.63740242791 0.75151678331 -0.09957137866 0.65215647275 
0.75878224932 -0.00078657455009 0.65134390257 0.80598575071 0.23013242782 0.54536779821 0.77311830407 0.53405958401 0.3421526686 
0.66020884939 0.73406165117 0.15898983447 0.53755658669 0.82974846475 0.15016791055 0.4367328682 0.883218192 0.17085089158 
0.29263936821 0.94060277637 0.17212965246 0.15221914255 0.97249332717 0.17631239677 0.14101588482 0.96944744415 0.20071415809 
0.13365533461 0.93065874713 0.34060321186 0.042664643992 0.85082256807 0.52371813585 -0.076527643535 0.79888507037 0.59659547779 
-0.16294341684 0.78490639567 0.59780548086 -0.23339040547 0.75044588407 0.61835256425 -0.36223521384 0.7110932396 0.60260439299 
-0.52256889678 0.67099012183 0.52601711428 -0.65827794349 0.6088706578 0.44265863957 -0.7872551113 0.45804010271 0.41283005467 
-0.8332548558 0.26407080305 0.48574989065 -0.77231189783 0.17256474302 0.61135565912 -0.73349490295 0.059554917823 0.6770808217 
-0.73147368829 -0.069636753623 0.67830447874 -0.73212450519 -0.16520608617 0.66083330575 -0.75939139627 -0.32086535199 0.56601248499 
-0.75730179614 -0.45847802249 0.46507192182 -0.61269604882 -0.69223580546 0.38133075067 -0.39431566415 -0.84865827099 0.35255396195 
-0.091401016447 -0.94770366771 0.30578360389 0.071608173596 -0.96507517199 0.25199639261 0.19478810006 -0.96313531322 0.18554774184 
0.1800364458 -0.96252169434 0.20282718284 0.15660501571 -0.94692696943 0.28072082862 0.20553267228 -0.91432155251 0.34895905096 
0.25516737542 -0.84428099 0.4712528201 0.24794401273 -0.75671953883 0.60489611183 0.28904633747 -0.60157471143 0.7446879087 
0.31622184219 -0.4155624189 0.85282566948 0.35750185983 -0.43364260998 0.82713149319 0.39173087048 -0.53405116262 0.74922378554 
0.39181233034 -0.57061209628 0.72172358516 0.39266372235 -0.52992470804 0.75166149626 0.38573570895 -0.45616351463 0.80194938167 
0.34103024329 -0.41251435615 0.84470721503 0.23728086693 -0.29499327071 0.92556834455 0.16372907166 -0.25569841731 0.95279122082 
0.033898036379 -0.33576897087 0.94133422403 -0.071420281213 -0.35981261774 0.93028706513 -0.17326140171 -0.38736416048 0.90549958247 
-0.18377439944 -0.36726835054 0.91177899121 -0.22876421904 -0.33566042362 0.91378280357 -0.32550414887 -0.33697413572 0.88345655294 
-0.39546071271 -0.31679158198 0.86212175375 -0.50514494508 -0.28425150512 0.81488015456 -0.60164965901 -0.28305311688 0.74692611471 
-0.70689243588 -0.2909274055 0.64472034932 -0.76890519469 -0.29670744591 0.56634750208 -0.79757441672 -0.28350974514 0.53244462079 
-0.88068843733 -0.24360195096 0.40625849632 -0.95929790263 -0.19046632827 0.20849487237 -0.95819317947 -0.23103259573 0.16878913038 
-0.9305941742 -0.2932823231 0.21904328772 -0.93138001228 -0.30180208941 0.20358480187 -0.94815473095 -0.30728461537 0.081109625385 
-0.93992567866 -0.34084193056 0.019144110386 -0.91670457143 -0.3990551693 -0.020191596817 -0.88727083266 -0.45329881964 -0.085268104417 
-0.87948756388 -0.46133584869 -0.11692245163 -0.89511769079 -0.44102341692 -0.065289090674 -0.90540651962 -0.42357963767 -0.02862384984 
-0.91059737008 -0.41275611624 -0.021090711478 -0.89165250978 -0.45016947723 -0.047992119947 -0.87934513617 -0.47618497611 -4.5419468618e-06 
-0.86442616106 -0.49444770515 0.091043280606 -0.81690888383 -0.54327695868 0.19367504148 -0.76707599907 -0.61185842402 0.19293439457 
-0.67123221915 -0.71245790291 0.20457527845 -0.63412606361 -0.69467430624 0.33957582908 -0.57848882022 -0.65469190834 0.48654824019 
-0.49224887693 -0.61709431038 0.61391013614 -0.42749779797 -0.58681496268 0.68767276543 -0.40822844869 -0.54612593356 0.73150256211 
-0.37970591109 -0.49100522959 0.78405183859 -0.37970591109 -0.49100522959 0.78405183859 
FrenetNormal 3 89 double
-0.63566696002 -0.77165638946 -0.021769991786 -0.63566696002 -0.77165638946 -0.021769991786 -0.51200293837 -0.85752413235 0.050053506704 
-0.2963109062 -0.95406233658 0.044327246508 -0.61799419932 0.1692616967 0.76774582229 0.631502435 -0.1774148795 -0.75480370635 
-0.31928101887 -0.87206541725 0.37089289428 -0.048245553939 -0.89272570466 0.44801024849 0.22234006098 -0.73341928152 0.64238699767 
0.55651462807 -0.62025306692 0.55279073954 0.82720912138 -0.48436773217 -0.2848033875 0.55175750203 -0.41299400907 0.72456856641 
0.95553117863 -0.28080518299 -0.090047853243 0.97898036992 -0.17285935417 0.10824545711 -0.71267432931 0.24012879566 -0.65911566651 
0.29775110052 0.29009783587 -0.90949850344 0.55721002804 0.41483462271 -0.71932553163 0.97426501607 -0.067319185218 0.2151181205 
0.63220188228 0.54823504994 -0.54750261192 0.94090306564 0.33478776177 -0.051172020134 0.93152232198 0.29867873005 0.20750224062 
0.79405119089 0.15834107021 0.58686524154 0.75233919211 0.55213564943 0.35934936293 0.47164224241 0.87856313604 -0.075368502559 
-0.10770618186 0.78420606379 -0.61108119583 -0.56797211628 0.24344091921 -0.78622146624 0.12793361107 0.99044601963 0.051474977894 
-0.23482314225 0.95964734519 -0.1547096142 0.29795568301 0.79474036905 0.52878176667 0.038202239396 0.84645004174 0.5310959572 
-0.059877103801 0.75788321651 0.64963663888 -0.70429869536 0.6971544167 0.13393680222 -0.89585004123 0.4405024524 0.058397714558 
-0.94999885208 0.17505219065 0.25857090246 -0.93560106608 0.022579355088 0.35233622844 -0.029545474488 0.18332385462 0.98260848219 
0.43983014746 -0.10566473523 -0.89184326264 0.17302472916 -0.2535287866 -0.95172769082 -0.86300411097 -0.33747844793 -0.37594175298 
0.52005442372 -0.29104432418 -0.80301718396 -0.26773847583 -0.6535988858 -0.70790155039 -0.1314142766 -0.79546183149 -0.59158326763 
-0.14654231855 -0.90956245258 -0.38887207887 -0.31178907344 0.77942914084 0.54339468906 -0.16674394933 0.75961221846 0.62863799832 
0.89832798121 0.067833959815 -0.43405689957 -0.16948128169 -0.84500276714 -0.50719465562 0.46574164901 -0.6540602076 -0.59606204477 
0.66355524046 -0.53086285847 -0.52714236061 0.56745369087 -0.73123898292 -0.37853118575 0.49976267797 0.85421546382 0.1433638974 
0.94921253902 0.30560833397 0.074827147268 0.9971370116 -0.048980607984 0.057607986833 0.74958734405 0.54449382333 0.37635792803 
-0.14629761508 -0.90702668163 -0.39484124232 0.97342585411 -0.068805481865 0.2184214097 0.89228512332 0.19967251027 0.40491745745 
0.79121402292 -0.59419970795 0.14459279721 0.85740169894 -0.057589085742 0.51141550999 0.76759607807 0.053766929533 0.63867470454 
0.66376091062 0.042085118167 0.74675986526 0.4857860242 0.30479812674 0.8192130618 0.60196740982 -0.43094195845 0.67225312641 
0.45686661514 -0.21023673969 0.86433408429 0.25623093755 -0.27669202943 0.92616803416 -0.27399961049 0.91081792566 -0.3087635337 
-0.26464009753 0.12560666792 -0.95613209535 0.18582633759 0.086754588062 0.97874522411 0.091006879465 -0.017992263362 0.99568771527 
-0.25687600992 0.74308385054 0.61793293049 -0.36513329604 0.81611553767 0.44792086946 -0.28998354954 0.40444586548 0.86737136389 
0.38864628121 -0.55439490495 -0.73593502258 -0.094600918619 0.33099702195 -0.93887786088 0.31657656247 -0.62868658221 -0.71030448503 
-0.24600673391 0.50030586121 0.83016548478 -0.45268421629 0.88521621564 0.10709459322 -0.079915385801 0.14758483962 -0.98581552342 
-0.22268995009 0.21420021769 -0.95106648184 -0.53053342935 0.57606497289 -0.62183874707 -0.4492545955 0.72697322094 0.51930746621 
-0.5162123654 0.25123689199 -0.81878252174 -0.12274157376 -0.34316323868 -0.93122150839 -0.58946111513 -0.076763991866 -0.8041410842 
-0.49609755022 -0.38063115001 -0.78038910058 -0.86839996372 0.47798017324 -0.13197142491 -0.067663657485 -0.78100699811 -0.62084595381 
-0.92381163425 0.15640938738 -0.34943979163 -0.92381163425 0.15640938738 -0.34943979163 
FrenetBinormal 3 89 double
0.54151246798 -0.42562809757 -0.72498618579 0.54151246798 -0.42562809757 -0.72498618579 0.57174688488 -0.38370188088 -0.72517471429 
0.63904224945 -0.23253721051 -0.73317900212 -0.18713508088 -0.98015099053 0.065456071192 0.19085910769 0.97908605397 -0.070450691473 
0.56772275726 -0.48938868942 -0.66195889718 0.58996553813 -0.38740144798 -0.70842133079 0.59401429713 -0.420566901 -0.68576271158 
0.50439641545 -0.27647716951 -0.81801261043 -0.16357868325 0.27731820221 -0.9467505633 0.71051253387 -0.22217464706 -0.6676903215 
-0.03636436221 0.19082679657 -0.98094993087 0.13574523178 0.15612934475 -0.97836437985 -0.68717524735 -0.050098049093 0.72476228165 
-0.94524099238 0.22297430798 -0.23833154285 -0.82927481139 0.32251076488 -0.45638809552 0.2120169763 0.59770458559 -0.77317399731 
-0.7574762194 0.28872180392 -0.58555059302 -0.24541870286 0.56986676482 -0.78423308438 -0.032431674318 0.6365040619 -0.77059117935 
0.31049066709 0.72436203786 -0.61554462369 -0.025610332453 0.5695812029 -0.82153597863 -0.39721906414 0.13537385385 -0.9076843806 
-0.54229671185 -0.56150463977 -0.62500145266 -0.2845030889 -0.95444116022 -0.090000356035 -0.66754641674 0.12437802842 -0.73410618274 
-0.64015961697 -0.27244760121 -0.71830910435 -0.6125488714 0.58403312825 -0.5326248072 -0.64951158279 0.42493264494 -0.63052910408 
-0.65031432554 0.46412383372 -0.60139865727 -0.35856226722 -0.18650820069 -0.91468453119 -0.20486058831 -0.29280834774 -0.93396756413 
-0.29857668235 -0.26686042937 -0.91631734459 -0.34572086229 -0.26099824738 -0.90130849338 -0.98040025551 -0.19688253542 0.0072530155133 
0.87985016882 0.24977380095 0.40432255538 0.97238742904 0.19761697532 0.12413790281 0.46149780614 -0.22388478243 -0.8584261058 
0.8151276016 0.44998090103 0.36480704738 0.93104235946 0.013565988005 -0.36465886642 0.94825234126 0.073132354005 -0.30898083451 
0.9372988293 -0.0020052057658 -0.3485209947 -0.88032948031 -0.45215517384 0.14344233988 -0.90484439573 -0.37118544323 0.20851375556 
0.19872074869 0.81841333657 0.53917499438 0.90393102409 0.071764387645 -0.42161425066 0.79642493634 0.60342364286 -0.039840030351 
0.66587747823 0.74028138668 0.092685773013 0.78847580744 0.61503538117 -0.0061139995562 -0.85054691629 0.45269665423 0.26764843067 
-0.31280421815 0.8909897555 0.32907563979 0.024837945505 0.93173804267 0.36228068718 -0.63882650251 0.74395932922 0.19602350918 
0.97202056456 -0.20595280407 0.11295779992 -0.010442156789 0.93946680925 0.34248076688 -0.3128486979 0.92009745163 0.23568277774 
0.46646671332 0.73930359167 0.485632582 -0.098442425367 0.95701858866 0.27280855897 -0.22093878957 0.95759597447 0.18492160758 
-0.24438604221 0.95581906633 0.1633565879 -0.41568827294 0.90502088013 -0.090224532479 0.038862415108 0.85668620443 0.51437190809 
-0.12514300748 0.94681497811 0.29644666452 -0.11871495547 0.94189388927 0.31423344937 -0.082401724951 -0.34210326804 -0.93604236535 
0.25290334461 -0.94773859473 -0.19450309599 -0.31304926925 0.94941515697 -0.024718712344 -0.30450017088 0.95144755169 0.04502446358 
-0.22484313225 0.57589336637 -0.78599770766 -0.1622664625 0.41798373297 -0.89384517346 -0.35869208315 0.79431965984 -0.49030222055 
0.27469199676 -0.6926871762 0.66687988636 0.43567761686 -0.83422977481 -0.33800251032 0.28287508608 -0.65217595165 0.70331231595 
-0.33210407477 0.76113496421 -0.55711798551 -0.0057273142464 0.11721643804 -0.99308987737 0.46943121179 -0.86687172271 -0.16783251698 
0.45075114886 -0.84240117142 -0.29526880666 0.22626125578 -0.61073668073 -0.75881918198 -0.45800078611 0.31167163008 -0.83252391853 
0.53195122124 -0.65519749747 -0.53641787585 0.76342559658 -0.63219190114 0.13234333612 0.56381404614 -0.75198789532 -0.34150831127 
0.71524699498 -0.68870497292 -0.11877371952 -0.25125114077 -0.65359249809 -0.71392556384 0.91036869626 -0.30294311941 0.28187639714 
0.048943697367 -0.85700056479 -0.51298591251 0.048943697367 -0.85700056479 -0.51298591251 
SiphonLabel 1 89 int
0 0 0 0 0 0 0 0 0 
0 0 0 0 0 0 0 0 0 
0 1 1 1 1 1 1 1 1 
1 1 1 1 1 1 1 1 1 
1 1 1 1 1 1 1 1 1 
1 1 0 0 0 0 0 0 0 
0 0 0 0 0 0 0 0 0 
0 0 0 0 0 0 0 0 0 
0 0 0 0 0 0 0 0 0 
0 0 0 0 0 0 0 0 
