# vtk DataFile Version 5.1
vtk output
ASCII
DATASET POLYDATA
POINTS 125 float
110.78 85.3803 40.5441 110.276 85.2369 39.9451 109.836 85.0694 39.1257 
109.497 84.9291 38.4507 109.17 84.6908 37.821 108.878 84.5038 37.3307 
108.571 84.2504 36.7031 108.301 84.087 36.2188 107.942 83.7716 35.4738 
107.589 83.4121 34.7457 107.419 83.1703 34.2789 107.192 82.7626 33.5211 
107.024 82.5265 33.0615 106.839 82.1519 32.4408 106.745 81.7515 31.7843 
106.731 81.3967 31.2061 106.841 80.846 30.4919 107.045 80.5361 30.0828 
107.409 80.152 29.378 107.885 79.7583 28.616 108.335 79.4568 28.0449 
108.736 79.2488 27.6063 109.285 79.1604 27.2868 110.084 79.111 26.9636 
110.795 79.1824 26.666 111.46 79.2858 26.3378 112.143 79.4998 25.906 
112.736 79.7838 25.4219 113.369 80.245 24.9788 113.829 80.7587 24.6456 
114.101 81.1704 24.3769 114.341 81.6668 24.0775 114.576 82.4068 23.5791 
114.61 83.1154 23.2546 114.548 83.7623 23.0536 114.459 84.3659 22.9378 
114.1 85.2396 22.7143 113.598 85.9246 22.571 112.826 86.473 22.5673 
111.937 86.7194 22.5524 111.241 86.8436 22.5579 110.455 86.8376 22.6712 
109.623 86.6344 23.1215 109.085 86.2971 23.5959 108.746 85.9663 24.1805 
108.504 85.4843 24.9885 108.318 85.2416 25.8113 108.033 85.0489 26.6909 
107.874 84.9204 27.5812 107.825 85.0272 28.2933 107.834 85.28 28.9665 
107.87 85.6063 29.4666 107.98 86.3528 30.1145 108.084 87.2282 30.5718 
108.137 87.9713 30.7564 108.352 88.9127 30.8045 108.67 89.8095 30.6197 
108.951 90.4629 30.2124 109.184 90.9209 29.763 109.405 91.2407 29.256 
109.779 91.5896 28.5235 110.259 91.9259 27.735 110.587 92.0544 27.1055 
110.889 92.1182 26.2676 110.996 92.1307 25.4931 111.133 92.0184 24.8564 
111.163 91.9028 24.0623 111.142 91.8047 23.1766 111.207 91.7482 22.2732 
111.224 91.751 21.5096 111.238 91.7503 20.7583 111.266 91.7947 19.8312 
111.293 91.7855 19.0128 111.256 91.9172 18.0469 111.186 92.1638 17.1438 
111.205 92.47 16.2297 111.395 92.7241 15.3089 111.718 93.0324 14.5751 
112.197 93.3203 13.8407 112.659 93.5776 13.3578 113.037 93.8189 13.0225 
113.39 94.1013 12.7365 113.853 94.4801 12.4434 114.555 94.8881 12.0976 
115.32 95.4433 11.8368 116.092 95.9034 11.7766 116.89 96.2817 11.8078 
117.754 96.5574 11.9956 118.576 96.9134 12.238 119.414 97.2878 12.4216 
120.261 97.5492 12.6685 120.904 97.8038 12.8429 121.626 98.0617 13.057 
122.41 98.2994 13.2988 123.098 98.5153 13.4912 123.995 98.8469 13.7362 
124.612 99.1316 13.9592 125.15 99.4009 14.1393 125.725 99.6097 14.2985 
126.548 99.8242 14.4862 127.48 100.069 14.6654 128.065 100.27 14.6952 
128.864 100.627 14.7976 129.744 101.067 14.8517 130.374 101.503 14.7831 
131.061 102.15 14.5012 131.527 102.685 14.251 131.971 103.331 13.7864 
132.32 103.922 13.2799 132.599 104.362 12.5849 132.79 104.693 11.8299 
132.653 105.084 10.99 132.258 105.261 10.2916 131.822 105.484 9.46998 
131.43 105.666 8.89879 130.846 105.797 8.24813 130.364 105.781 7.73875 
129.775 105.775 7.13983 129.176 105.794 6.63193 128.434 105.737 6.06324 
127.825 105.708 5.4517 127.496 105.712 5.17693 126.8 105.774 4.62932 
126.191 105.865 4.11929 125.422 106.066 3.54233 
LINES 2 125
OFFSETS vtktypeint64
0 125 
CONNECTIVITY vtktypeint64
124 123 122 121 120 119 118 117 116 
115 114 113 112 111 110 109 108 107 
106 105 104 103 102 101 100 99 98 
97 96 95 94 93 92 91 90 89 
88 87 86 85 84 83 82 81 80 
79 78 77 76 75 74 73 72 71 
70 69 68 67 66 65 64 63 62 
61 60 59 58 57 56 55 54 53 
52 51 50 49 48 47 46 45 44 
43 42 41 40 39 38 37 36 35 
34 33 32 31 30 29 28 27 26 
25 24 23 22 21 20 19 18 17 
16 15 14 13 12 11 10 9 8 
7 6 5 4 3 2 1 0 
CELL_DATA 1
FIELD FieldData 2
Length 1 1 double
100.91165425 
Tortuosity 1 1 double
1.2500264906 
POINT_DATA 125
FIELD FieldData 7
MaximumInscribedSphereRadius 1 125 double
1.6332050524 1.6190266998 1.5669874431 1.5962720466 1.6900833051 1.7124943791 1.74105075 1.7197114889 1.7184848508 
1.7505280744 1.7663188449 1.7799818807 1.7808807171 1.7899374877 1.8062176487 1.8010635805 1.8038463851 1.7845967548 
1.8189201315 1.8388065282 1.891671331 1.9501228614 1.8478700547 1.6334305495 1.566104802 1.6098317815 1.6513332279 
1.6764602926 1.7256992606 1.8160930674 1.8902857738 1.9956035709 2.0697735448 1.9696578389 1.9089518637 1.8972340194 
1.9393058417 1.9692502308 1.8883629112 1.8244215086 1.8492126561 1.7563047292 1.5596900522 1.4702874009 1.4030560448 
1.4281617959 1.4773729108 1.590574402 1.7055439354 1.7104612516 1.7123884134 1.7086534199 1.7212788692 1.7820944368 
1.7993854181 1.8607780889 1.9120966792 1.947771167 1.9652712285 1.9919893522 2.0229223634 2.0430255589 2.0428046071 
2.0322824515 2.0278428774 1.9772707512 1.9297422777 1.8492166144 1.803194643 1.7923610486 1.7970802807 1.8326857394 
1.8211497788 1.7759585982 1.7245014156 1.6820673767 1.697673241 1.6948986345 1.7205315063 1.6822142159 1.6419201562 
1.6183946252 1.6032082946 1.6145881949 1.6579043939 1.6955158495 1.7533431771 1.7519399862 1.7822645744 1.7820055255 
1.8694111807 1.9300189976 1.9355149746 1.9045008537 1.9411219857 1.9316853888 1.9103679559 1.909227053 1.9193706242 
1.9208429733 1.9585010018 1.9448882409 1.9311912768 1.8490445457 1.7743288023 1.6708211556 1.6183291618 1.5239298859 
1.4171727475 1.3552687054 1.3775888113 1.4019058601 1.3648770716 1.4044204489 1.4411568732 1.5013712404 1.5604493614 
1.6423265383 1.7767544741 2.0144382306 2.2224918226 2.2427753152 2.2371375178 2.2547290936 2.2195065052 
Curvature 1 125 double
0 0.23656934888 0.031359704896 0.18653573301 0.081998137331 0.12700284999 0.12365353454 0.13376719347 0.060689859415 
0.13845657131 0.078361714025 0.081985066446 0.14357542605 0.16703709805 0.14025370852 0.22575489261 0.35576675321 0.2033416187 
0.090868084589 0.11436981167 0.12686973113 0.57163866838 0.21915584228 0.18426071709 0.10105230503 0.2009131 0.1828640899 
0.22867396897 0.23893608273 0.21087148663 0.19506701326 0.1872267674 0.31889309243 0.25684858849 0.18922669195 0.3072936225 
0.27322209874 0.4073944718 0.38093404268 0.11903465288 0.30742471827 0.47530265381 0.36367226579 0.38284742043 0.2534926677 
0.27058787914 0.12567328014 0.16016317974 0.38538473453 0.31560570907 0.34358701424 0.35877040125 0.23611205099 0.27551983741 
0.28609495066 0.28149258421 0.38166447958 0.27575421031 0.33302782353 0.17599635624 0.092792392192 0.2150385391 0.2134902128 
0.26137917555 0.28194774155 0.2416756349 0.081507530814 0.11878140471 0.0994714285 0.0073713934517 0.059906704117 0.067598067789 
0.18264881905 0.14231433628 0.11650216012 0.19135426985 0.248619955 0.18200344851 0.22347893905 0.17054275362 0.21551246512 
0.18290080031 0.19986726396 0.17709431812 0.23713678143 0.15657586932 0.23978368431 0.12412116605 0.073183589078 0.15002031053 
0.096461708163 0.054810578398 0.059600430247 0.034823383343 0.05700433819 0.11721708574 0.060443272188 0.18681243962 0.13124265836 
0.036241411019 0.19475540332 0.14835619299 0.081258253837 0.23183676366 0.28782358047 0.12107188161 0.27032903304 0.13102483482 
0.34676609103 0.20549539521 0.43440708872 0.4652375805 0.035095120931 0.13287867256 0.20982041903 0.22228761887 0.031907303533 
0.11849995498 0.11444734063 0.15137142946 0.15810934002 0.099468249267 0.063280194726 0.1208645508 0 
Torsion 1 125 double
0 0 4.4509342707 0.40258887861 1.3895211216 -0.45604291734 -0.41712401097 0.16196803308 -0.40105257311 
-0.25470894781 0.075293346231 -0.59720905631 -0.81593267063 -0.38955521819 0.62461509505 -0.38668632939 -0.6424228471 -0.84105661501 
1.2406039538 -0.1378681218 0.15980067246 0.062257356988 -0.3142793894 -0.90695525409 -0.58922794915 -0.0050281587414 0.61753817531 
0.19032740555 -0.60979912017 -0.38141014076 -0.19142829812 0.51098763143 0.35063382798 0.28244538783 -0.83467222208 -0.16722944299 
0.37032564013 -0.19507032265 -0.2342635035 1.1192298372 0.48615000595 -0.0012501378732 0.1188586371 0.21343888508 0.30282351942 
0.738618049 0.40257488805 0.47214200174 0.18293330225 0.11940082628 0.1140133061 0.086940720547 0.19785929857 -0.3979598395 
-0.30255867521 0.30330938562 0.09691723662 -0.12887378163 -0.31295729995 -0.92854202191 0.65352348336 0.55033555416 0.64133841848 
-0.43489124692 -0.12103809397 0.76561441356 1.3103498356 -0.1400771947 -0.74391638691 -6.5705540273 0.21031891597 0.7689954513 
0.162190674 0.53049126771 1.2484155004 -0.27042283311 -0.05211997035 0.08802612133 -0.55497473593 -0.99584401847 0.20059057026 
1.5458372617 0.023493082448 0.023682447436 0.46065761881 0.20889795016 -0.31792078833 -1.3182512506 -1.6506292567 -0.27842399356 
-0.10958963031 0.63360565387 0.4753122686 1.7259052971 1.2613725124 -0.067305355173 -3.3453828549 -0.18859465404 0.2204493231 
3.1326325161 0.52504336033 0.49395934943 -0.74435912754 -0.077244188366 0.029797839862 -0.20156686656 -0.16879369735 -0.84485766622 
-0.060825195457 1.1873205989 -0.048216763713 -0.25397418682 -1.6144993875 -0.82428030962 -0.73446574817 -0.31270094568 2.9391082542 
-0.64297004228 -1.1667252217 -0.67310524076 -0.16007196111 1.1468520788 -0.19726388205 0 0 
FrenetTangent 3 125 double
0.54481840488 0.17954718508 0.81910665608 0.54481840488 0.17954718508 0.81910665608 0.45438467584 0.17969494464 0.87249314796 
0.44052229887 0.25016257546 0.86218257349 0.45956711957 0.31525988798 0.83030672985 0.44578647615 0.32808506943 0.83284728786 
0.43706586372 0.31573637071 0.84218998746 0.43034054067 0.3276075554 0.84111848672 0.40203962391 0.38134979994 0.83242805749 
0.36442117865 0.41863474456 0.83183060487 0.27561301052 0.45045625405 0.84919175197 0.27587372725 0.44933256168 0.84970226293 
0.27311691695 0.47339477047 0.83743927599 0.18366268274 0.50994655662 0.8403704709 0.074946336241 0.52027727695 0.85070241669 
-0.061001616844 0.57273284499 0.81746919881 -0.21708270984 0.59368289775 0.77486496501 -0.39692252645 0.48535460505 0.77902722376 
-0.45151936582 0.41800773043 0.78828915988 -0.52446988859 0.39370994965 0.75493298478 -0.60114369257 0.35998971862 0.71346595109 
-0.75935332881 0.23694575298 0.6060026668 -0.89884428018 0.091913556225 0.42852171261 -0.92482667688 -0.013478918518 0.38014988686 
-0.90423300791 -0.11489702375 0.41129228213 -0.85337955761 -0.20088296059 0.48102948641 -0.77443690559 -0.30219951898 0.55580835726 
-0.71756199251 -0.43634415884 0.54287066779 -0.65925237382 -0.5882362761 0.46836352451 -0.55247648965 -0.69873551529 0.454464969 
-0.43162938475 -0.76471497864 0.47844234309 -0.30747087203 -0.7995584694 0.51591464106 -0.15921895519 -0.85842693757 0.48759872555 
0.019419234567 -0.93219671753 0.36143073079 0.11644130256 -0.9627760712 0.24393372007 0.28305510805 -0.93476976231 0.21467486408 
0.47334079986 -0.85746094038 0.20176526687 0.71610341579 -0.69309306391 0.082570591912 0.90203580224 -0.43154297549 0.010103057834 
0.97372839447 -0.22763808425 0.0058237792517 0.99366915397 -0.07925044034 -0.079630271556 0.93737645007 0.12123369673 -0.32653909664 
0.78777869998 0.3108078916 -0.53179241662 0.57328468671 0.43717487866 -0.6929810917 0.33900880155 0.47424731795 -0.81250385469 
0.23370495176 0.3948413631 -0.88852816135 0.25883682206 0.2393230948 -0.93580337456 0.23926703754 0.1733553519 -0.9553529226 
0.12889341455 0.013436036108 -0.99156742616 0.028183713886 -0.25112760149 -0.96754359387 -0.033980109663 -0.44236496734 -0.89619115585 
-0.092848844201 -0.67986336199 -0.72743721458 -0.10856006992 -0.82148668148 -0.55979848461 -0.089587251136 -0.92581203213 -0.3672141141 
-0.15548326442 -0.9785447077 -0.13518583326 -0.27795905495 -0.95794685888 0.071250118073 -0.33966637889 -0.87862572553 0.33562417298 
-0.34381221899 -0.7437504808 0.5732611799 -0.34591953192 -0.59201282097 0.72791517174 -0.38921528725 -0.43738132147 0.81068430341 
-0.45564737123 -0.36562526014 0.81160559525 -0.47620474438 -0.27387291352 0.83559719283 -0.39172960704 -0.11953283561 0.91228275013 
-0.24513012581 -0.045831305487 0.96840627469 -0.16989102198 0.069467779392 0.98301132663 -0.11463872683 0.15623803119 0.98104415799 
-0.0051451735196 0.12624597828 0.99198562498 -0.024791276456 0.086100523609 0.99597795781 -0.048998745137 0.032161708972 0.99828089607 
-0.020094703924 -0.0013896613087 0.99979711528 -0.02535247596 -0.026015701456 0.99933999982 -0.031694502627 -0.020167243471 0.99929412126 
0.0060826317773 -0.068529847219 0.99763052361 0.056301797858 -0.19806888603 0.97856978491 0.026513300646 -0.29091953028 0.95638008751 
-0.10870590682 -0.29033043458 0.95073196253 -0.28180124731 -0.30881100506 0.90841830682 -0.45146179171 -0.33570081577 0.82673285462 
-0.57634009306 -0.33398155112 0.74584745132 -0.65934550677 -0.39122615544 0.64203239638 -0.66853480601 -0.4793282912 0.56859968556 
-0.68010253848 -0.5515173909 0.48300010837 -0.75453822387 -0.50945569618 0.41367494769 -0.79015517015 -0.51862919546 0.32661684694 
-0.82208471205 -0.54288235902 0.17162596095 -0.88191415391 -0.4711281402 0.016300326316 -0.92361838459 -0.36348732188 -0.12168009897 
-0.91078746405 -0.34124491825 -0.23241794488 -0.89108797801 -0.39200892739 -0.22867272748 -0.90999180458 -0.34333724355 -0.23245311955 
-0.91290120647 -0.31619644866 -0.2581301863 -0.90467849683 -0.33957287117 -0.25738508607 -0.91289509913 -0.30039625534 -0.27637769043 
-0.91978718149 -0.28346809273 -0.271362085 -0.9145386881 -0.31604380547 -0.25245851341 -0.8904722095 -0.36236908601 -0.27522334495 
-0.86012346779 -0.4124566683 -0.30011184072 -0.8846306429 -0.38030368057 -0.26981055612 -0.93114426536 -0.28201597839 -0.23116518991 
-0.94830526424 -0.24785396399 -0.19820579796 -0.95115463234 -0.27954120711 -0.13100220956 -0.92375938891 -0.37267292662 -0.088224039664 
-0.90017764183 -0.42737028166 -0.083874045438 -0.86488950408 -0.50189280678 0.0083520193621 -0.75656884205 -0.62212247571 0.20141303943 
-0.66478220767 -0.6812402159 0.30655567945 -0.55045219903 -0.71427319456 0.43222237345 -0.45000343791 -0.70247302294 0.55138784709 
-0.368521691 -0.60538369492 0.7054802231 -0.27526577068 -0.45131115728 0.84885039601 -0.031207161919 -0.41207916014 0.9106134629 
0.30865109823 -0.32940160721 0.89231669307 0.46769283588 -0.22499968252 0.85477397839 0.49574903396 -0.24211796198 0.83403344526 
0.61182001005 -0.19649889314 0.76620131838 0.67502719424 -0.073016890066 0.73417083898 0.69476833608 0.014855081198 0.71908016642 
0.73145353952 -0.0079524210866 0.68184490797 0.77958004596 0.021628633309 0.62592903285 0.75233744606 0.04795972835 0.65702985603 
0.72678211873 0.019243895442 0.68659844479 0.77900699256 -0.050639310154 0.62496701178 0.77369854244 -0.090197125939 0.62710050542 
0.7743609568 -0.16408798619 0.61109757107 0.7743609568 -0.16408798619 0.61109757107 
FrenetNormal 3 125 double
0.83093899358 0.015748580191 -0.55614060378 0.83093899358 0.015748580191 -0.55614060378 0.88549273421 -0.19792399796 -0.42039113773 
0.025379683234 -0.96347699537 0.26658572931 -0.88736685334 0.12391107863 0.44410146609 0.8765791023 -0.3484845722 -0.33191501977 
-0.69175696977 0.71644964797 0.090400203002 0.65611980262 -0.75347487688 -0.042218651354 0.10424704972 -0.92229190903 0.37216956774 
0.91557068517 -0.32421392864 -0.23794043147 0.92685196808 -0.35879923891 -0.11049224147 -0.91272832015 0.39962522979 0.085009936521 
0.67618100905 -0.71367025839 0.18290436103 0.98237985333 -0.12532029239 -0.13865297721 0.99683353167 -0.061819678233 -0.050012373719 
0.80079883561 -0.46080022237 0.38260211703 0.97566369173 0.15709647381 0.15297404535 0.28899557495 0.87166721263 -0.39582550208 
0.86781099363 0.4111359854 0.27905426147 0.84912996197 0.17675081609 0.49773231429 0.73943683361 0.58916741274 0.32575286472 
0.61991377127 0.54643589814 0.56312940379 0.4147763169 0.49421960472 0.76400758455 -0.043691563169 0.99652187953 -0.070959079275 
-0.39394200091 0.5962058072 -0.6995343704 -0.45238518867 0.74389322855 -0.49190497619 -0.60460666795 0.61220078009 -0.50956940835 
-0.12174921482 0.84601338981 0.51907463139 -0.51535551085 0.80705614642 0.2882170605 -0.83339143018 0.4531704896 -0.31637830434 
-0.86694121203 0.49820831171 0.014192005754 -0.89969308201 0.067721713116 -0.43123790157 -0.78822853695 0.40791686209 0.46075981504 
-0.7274799716 0.23480803968 0.64469998869 -0.4213168208 0.17452962859 0.88996154145 -0.93005677688 -0.32218675633 -0.17660715111 
-0.87018678293 -0.41958392967 0.25831045038 -0.64552631221 -0.61262621453 0.45605361693 -0.43096851631 -0.90166698062 -0.035535813056 
-0.22202777484 -0.94342996471 0.24625914984 -0.016706316211 -0.80514861734 0.59283775436 0.34179795226 -0.50068897243 0.79528907494 
0.5695842991 -0.69623124425 0.43684754864 0.78474847917 -0.0497527953 0.61781427937 0.93625237204 -0.25472944005 0.24195951775 
0.14644736788 0.88911506425 0.43362146044 -0.77115112712 0.63460609125 -0.051000471503 0.85516358404 0.42835505961 0.29190270199 
0.34300106646 0.93758625975 0.057291133203 0.35696444973 0.90663504172 -0.22492061434 0.21347083919 0.87280265324 -0.43891426193 
0.18068283596 0.70695854218 -0.68378602825 -0.030545775644 0.56561729674 -0.82410195317 -0.14573775143 0.3769135767 -0.91471124597 
0.6232295958 0.0090050069394 -0.781987072 0.39900438579 -0.18261026631 -0.89858165503 0.04554067052 -0.37178488784 -0.92720118879 
6.9563964843e-06 -0.61047882678 -0.79203257636 0.022295615937 -0.78077791023 -0.62441073054 0.53390240127 -0.82429153654 -0.18839237965 
0.80619989345 -0.55605002042 0.20211409301 -0.17955551492 -0.89995383215 -0.39729449665 -0.6848140857 -0.62430888976 -0.37585645955 
-0.93417268017 -0.25598741281 -0.24857966148 0.36218269258 -0.92329836751 0.12784295734 -0.97924211447 0.14840364083 -0.13806245195 
-0.86851667121 0.49110990934 -0.067006333812 0.89318807005 0.44937624604 -0.01661508428 -0.60508285757 0.79424053672 -0.055287478643 
-0.57473216236 -0.81824320207 -0.012688727906 0.24702071221 0.9684987385 0.031479537209 0.028180827982 -0.99941697007 -0.019275914496 
-0.43632506647 0.89748789364 0.064311096572 -0.26613917616 0.94168405299 0.2059152332 0.85877141272 0.4963261538 0.12716921699 
0.9512819187 -0.30797073489 0.014722010901 0.80585021684 0.43770102699 0.39877717962 0.88425529449 -0.29238291133 0.36414942995 
0.70244610648 0.26393568624 0.66098972838 0.28224315422 0.6626924328 0.69366961977 -0.13719795937 0.83094467037 0.53917313985 
0.32552628227 0.36313859332 0.87301947378 0.64394105852 -0.69630514722 0.31701585939 -0.096183416726 0.63122066746 0.76961628057 
0.3524356608 -0.24845543121 0.90225218409 0.32989336995 -0.5920954074 0.73525056477 0.13783563091 -0.61115493412 0.77941708048 
-0.41287536809 0.75228933709 0.51341472878 0.14432572549 0.23293574177 -0.96172294616 0.18029712832 -0.83252130606 0.5238331991 
-0.23300753588 0.92291905024 -0.306476614 0.12736438905 -0.79194670135 0.59715888557 0.2202850628 -0.93256718773 0.28599463541 
0.14239915309 0.40327540927 -0.90393109553 -0.27126113233 0.94216834107 -0.19681518024 -0.45101420951 0.6226035626 0.63949275731 
-0.15801144863 0.77486167928 -0.61206352618 0.45213709315 -0.84108356512 -0.29690147438 0.35244366775 -0.85868076817 -0.37208977337 
0.18174932913 0.087840558305 -0.9794137112 -0.026860101656 0.49767356275 -0.86694841823 -0.34529662341 0.71083953395 0.61276210623 
-0.18822124667 0.55541911153 -0.80998911897 -0.35544515143 0.60060458361 -0.71619332479 -0.50146289025 0.35429316041 -0.78931066519 
-0.73346075489 0.5173331873 -0.44091007513 -0.60541239446 -0.014979473776 -0.7957709771 -0.67275718233 -0.13937203759 -0.72661764963 
-0.3033009131 -0.6390650082 -0.70682704491 -0.53873809824 -0.65888081983 -0.52501173965 -0.99784200481 0.065502581478 -0.0045546968285 
-0.85454438442 -0.50801476815 0.10805040673 0.78387052361 0.55243562845 -0.28348170775 -0.81939881583 0.18783001523 0.54157683295 
-0.67864467473 -0.62801071422 0.38084635785 -0.15864761286 -0.98617814898 0.047786958602 -0.5540136501 0.64861915698 0.52188319067 
-0.6405887286 0.33470538016 0.69109940622 -0.30132993956 -0.8631762193 0.40512600751 0.63869360805 0.19128949984 -0.74530450306 
-0.62054221004 0.44694797098 0.64433289284 -0.24657848659 0.89168329926 0.37960498386 0.42064692883 0.81329501205 -0.40200420972 
-0.1929675046 0.85853950295 0.47505101205 -0.1929675046 0.85853950295 0.47505101205 
FrenetBinormal 3 125 double
-0.11275324677 0.98362329708 -0.14061264093 -0.11275324677 0.98362329708 -0.14061264093 0.097145169808 0.96360563401 -0.24905219951 
0.897382848 -0.095555037717 -0.43078214783 0.037123175965 -0.94088110175 0.33669663227 0.18133806852 0.87801975499 -0.44294222508 
-0.57484408803 -0.6221016365 0.53154851925 0.61993049906 0.57004289273 -0.53920059048 0.90966845247 -0.062848743947 -0.4105524838 
0.17008093662 0.84831024933 -0.50144012192 0.2549174331 0.8175281459 -0.51639600401 -0.30136472953 -0.79899932711 0.52036465586 
0.68424147249 0.51630625947 -0.51501597427 0.034609864841 0.85102839771 -0.5239778846 0.02656984806 0.85175693861 -0.52326299382 
0.59581878758 0.6779677303 -0.43053423678 -0.030910479164 0.78921563266 -0.61333777598 -0.87116821892 0.068023362115 -0.4862496854 
-0.20744720202 0.81008440228 -0.54838756328 0.062527143245 0.90208182808 -0.4270113954 -0.30308320637 0.72338728373 -0.6203639317 
-0.1977104909 0.80328358589 -0.56182385355 -0.14156117734 0.86446450505 -0.48235003118 -0.37787122811 -0.082234192276 -0.9221989333 
-0.1648404299 -0.79456737247 -0.58437173381 -0.25901924973 -0.63739226593 -0.72569975031 -0.1862746798 -0.73067479468 -0.65682272196 
-0.6857710373 0.30637414921 -0.66019161241 -0.54753539159 -0.051365942133 -0.8352044869 0.015114645 -0.55353878547 -0.83268623172 
-0.24921679138 -0.4086556981 -0.8780042775 0.30986129322 -0.59675792712 -0.74017967777 -0.59442837907 -0.31097753371 -0.74158470567 
-0.68585405463 -0.27545319808 -0.67359464919 -0.89940733796 -0.20640166054 -0.38531129617 0.23425242279 -0.14967025592 -0.96058555939 
-0.13683365814 -0.29784234368 -0.94475737008 -0.26550268951 -0.37988304256 -0.8861135344 0.024444824155 0.027700475793 -0.99931733409 
-0.050563633245 -0.24108256735 -0.96918652215 -0.11109685612 -0.58775426132 -0.80137532833 -0.067078690232 -0.85709564441 -0.51077148085 
-0.23447483036 -0.64703980484 -0.72550743957 0.23561513621 -0.8979993234 -0.37159483683 -0.092219999598 -0.84273506738 -0.53037069855 
0.96121546178 -0.23146209301 0.14996711484 0.58166093103 0.73484662702 0.34881369822 0.45983315373 -0.88682572407 -0.045755937913 
0.93044976011 -0.34749313442 0.11624011974 0.933692701 -0.33903956833 0.11519596869 0.97635831177 -0.20622503286 0.064774090932 
0.97914902079 -0.19492416132 0.057199356769 0.99362048429 -0.072365086736 -0.086496401147 0.98525866261 -0.028429506829 -0.16869241506 
0.76642666016 -0.20583771491 0.60845789477 0.87380447692 -0.22133979803 0.43298317509 0.93944281272 -0.29965452042 0.16629603126 
0.93903842202 -0.27230648976 0.2098952539 0.93799924464 -0.19976655053 0.28328561973 0.75063951807 0.3595011021 0.55434580497 
0.37739528997 0.74640909958 0.54812977585 0.86080709714 -0.33922960844 0.37938689259 0.61447341927 -0.77197818063 0.16270250653 
0.25929254721 -0.96559304882 0.019935873224 0.91649371948 0.37774905979 0.13170007587 -0.16716113053 -0.97650705937 0.13598205558 
-0.49563325051 -0.86190081211 0.10711989111 -0.44899940327 0.8891837208 -0.088044571261 -0.79465329449 -0.60675167433 -0.019456290867 
0.81809482606 -0.57487053421 0.015643671834 -0.9686784914 0.24765576271 -0.018127423883 0.99910024494 0.027549995213 0.032244353402 
-0.89976854689 -0.43568238524 -0.024442201761 -0.96228896204 -0.27202915421 0.00030461504698 -0.51167245927 0.81794020317 0.26299262054 
0.28852337336 0.90601449503 0.30966433088 -0.52076240746 0.84442499615 0.12551072003 0.11947729823 0.89544245792 0.42884493673 
-0.41761413366 0.90487251977 0.082487322253 -0.69685170918 0.63857719565 -0.32652237382 -0.73091581807 0.2824452939 -0.62127829743 
-0.65688140231 0.75097198988 -0.067438073266 0.12653846 0.50558286718 0.85344828933 -0.60531277654 0.57670115882 -0.54864580193 
-0.447175392 0.80221483592 0.39558251456 -0.33674588281 0.65380524932 0.6775993701 -0.35767362008 0.70311209159 0.61457543733 
-0.00035462546902 0.56357134337 -0.82606731879 0.43027003197 -0.88998311279 -0.1509892663 -0.37337362135 0.43477328822 0.81949028471 
0.33514008333 -0.21963659203 -0.91621006979 -0.40661422722 0.50745510873 0.75970664263 -0.34365248304 0.20020122415 0.91750882326 
0.3656692795 -0.8700659657 -0.33056193573 0.3000606373 -0.11151291452 -0.94737979915 -0.060377370897 0.69358016793 -0.71784477691 
0.48499484767 -0.47902909594 -0.73164959029 -0.11402050097 -0.3846395027 0.91599769559 -0.093561841359 -0.42794196606 0.89895041884 
0.26016207866 -0.96480694901 -0.038252372177 0.3075441437 -0.82108327133 -0.48087301984 -0.16564671221 0.5965082118 -0.78532739669 
0.39275052572 -0.71334721763 -0.58041603325 0.35443601687 -0.6223967743 -0.69785196517 0.41968864284 -0.69816902087 -0.58001850088 
0.14177424804 -0.51795573319 -0.84357686137 0.57487234166 -0.69970666632 -0.42418436074 0.58727734461 -0.69793057476 -0.40987587551 
0.87874929267 -0.47445389368 0.051895890038 0.79623490064 -0.60182580917 -0.061771177933 -0.057770636905 -0.90879050259 -0.41323404496 
0.41771808031 -0.79587409589 -0.43828760977 -0.40842430569 0.80261448983 0.43474080466 -0.28778199378 -0.95189220916 -0.10527462274 
0.40634674942 -0.75298786698 -0.51758244891 0.72053398391 -0.14873194762 -0.67728102423 -0.45865655418 -0.76096814372 0.4588699702 
-0.23371307263 -0.94228926954 0.2397272037 0.54904937798 -0.50443930919 -0.66639760194 -0.16142751404 0.98036125572 0.11328268182 
-0.29447430696 -0.89435294136 0.33677544272 -0.5764955815 -0.44981835678 0.68214096081 -0.47375808878 0.57481797279 0.66718630942 
-0.60260156883 -0.48578292957 0.63315582173 -0.60260156883 -0.48578292957 0.63315582173 
SiphonLabel 1 125 int
0 0 0 0 0 0 0 0 0 
0 0 0 0 0 0 0 0 0 
0 0 0 0 0 0 1 1 1 
1 1 1 1 1 1 1 1 1 
1 1 1 1 1 1 1 1 1 
1 1 1 1 1 1 1 1 1 
1 1 1 1 1 1 1 0 0 
0 0 0 0 0 0 0 0 0 
0 0 0 0 0 0 0 0 0 
0 0 0 0 0 0 0 0 0 
0 0 0 0 0 0 0 0 0 
0 0 0 0 0 0 0 0 0 
0 0 0 0 0 0 0 0 0 
0 0 0 0 0 0 0 0 
