# vtk DataFile Version 5.1
vtk output
ASCII
DATASET POLYDATA
POINTS 105 float
89.2543 89.3134 44.308 89.5214 89.441 43.7992 89.8217 89.5367 43.147 
90.1999 89.5362 42.4316 90.5563 89.5279 41.9039 90.8976 89.4926 41.3501 
91.1774 89.3778 40.7678 91.3412 89.2467 40.3687 91.5993 88.929 39.7581 
91.8059 88.6474 39.2901 92.0007 88.3477 38.7626 92.1718 88.0082 38.2353 
92.2695 87.5192 37.3734 92.2479 87.1615 36.8153 92.231 86.6828 36.0751 
92.1005 86.1915 35.3432 91.9804 85.622 34.5893 91.6676 85.0943 33.8666 
91.3003 84.4864 33.1787 91.0604 83.8102 32.5744 90.7391 83.0979 32.0675 
90.2923 82.4892 31.6372 89.7649 81.9973 31.2362 89.1861 81.4593 30.6962 
88.6148 81.266 30.1597 88.0024 81.329 29.4087 87.5148 81.5026 28.7789 
87.0955 81.8287 28.0338 86.8903 82.2483 27.5451 86.6947 82.757 27.188 
86.5436 83.4627 26.7576 86.5655 84.1689 26.4854 86.6699 85.0212 26.2881 
86.8413 85.742 26.2462 87.1623 86.4429 26.3217 87.4151 87.2439 26.4966 
87.7267 87.8744 26.6981 88.1782 88.6417 27.0458 88.4652 89.2929 27.3636 
88.6485 89.8206 27.567 88.7885 90.6708 27.9562 88.8588 91.4894 28.3983 
88.8004 92.4208 28.6755 88.6155 93.2632 28.8091 88.4446 93.9852 28.7375 
88.3078 94.3626 28.6825 87.9431 95.0278 28.388 87.559 95.6937 27.887 
87.1286 96.0942 27.2482 86.7163 96.3628 26.4747 86.4884 96.4534 25.805 
86.2648 96.4357 25.1057 86.1317 96.4143 24.1608 86.1046 96.3195 23.303 
86.2012 96.3295 22.3933 86.265 96.3522 21.6153 86.346 96.4397 20.8524 
86.4673 96.6377 20.0333 86.6797 96.8445 19.258 86.7912 97.1721 18.3407 
86.7814 97.5488 17.5943 86.7265 97.9709 16.7263 86.5732 98.2527 16.1993 
86.3798 98.6118 15.4417 86.0223 98.9956 14.7737 85.6753 99.3696 14.2257 
85.1315 99.628 13.7285 84.4518 99.9529 13.293 83.6985 100.461 13.0282 
83.4058 100.681 13.0046 82.8223 101.004 12.943 82.0305 101.497 12.8873 
81.5462 101.792 12.8547 80.7168 102.201 12.9507 79.8776 102.62 13.1765 
79.0217 102.993 13.3475 78.3176 103.37 13.5226 77.5014 103.871 13.7384 
76.9171 104.24 13.8952 76.3014 104.61 14.1052 75.8153 104.998 14.2632 
75.2954 105.504 14.4306 74.7852 105.932 14.6056 74.387 106.236 14.7285 
73.6916 106.815 14.8666 73.0148 107.445 14.9533 72.3554 108.112 14.9057 
72.0448 108.554 14.7266 71.6373 109.162 14.4281 71.2437 109.745 14.1092 
70.8451 110.402 13.6745 70.5666 110.97 13.1981 70.3081 111.454 12.6866 
70.0634 111.993 11.9164 69.9979 112.409 11.2133 70.0396 112.721 10.4265 
70.1096 112.909 9.65491 70.2009 113.113 8.92744 70.3226 113.264 7.9987 
70.4826 113.277 7.31978 70.6697 113.276 6.63973 70.8372 113.267 6.07443 
70.9858 113.244 5.57181 71.2337 113.251 4.6263 71.4905 113.195 3.76064 

LINES 2 105
OFFSETS vtktypeint64
0 105 
CONNECTIVITY vtktypeint64
104 103 102 101 100 99 98 97 96 
95 94 93 92 91 90 89 88 87 
86 85 84 83 82 81 80 79 78 
77 76 75 74 73 72 71 70 69 
68 67 66 65 64 63 62 61 60 
59 58 57 56 55 54 53 52 51 
50 49 48 47 46 45 44 43 42 
41 40 39 38 37 36 35 34 33 
32 31 30 29 28 27 26 25 24 
23 22 21 20 19 18 17 16 15 
14 13 12 11 10 9 8 7 6 
5 4 3 2 1 0 
CELL_DATA 1
FIELD FieldData 2
Length 1 1 double
83.093298101 
Tortuosity 1 1 double
0.6519878428 
POINT_DATA 105
FIELD FieldData 7
MaximumInscribedSphereRadius 1 105 double
1.5124136162 1.5406394792 1.5843400287 1.5725203818 1.5656568667 1.5508848944 1.5415754635 1.5068058871 1.4672172207 
1.4186231646 1.3759198361 1.3412363976 1.2950787407 1.2951086725 1.2553297249 1.1450753984 1.0614594996 1.0748271604 
1.2337566007 1.3249497802 1.4163009946 1.559741621 1.6872707877 1.8430528996 1.851952976 1.7966119073 1.8529056554 
1.9897569767 2.048354318 2.060265426 2.1039182228 2.1306172341 2.1971775815 2.2114598847 2.1590569956 2.1042160235 
2.0916673248 2.1133772733 2.1867746738 2.2606567225 2.3197721225 2.3283477892 2.2659262031 2.191697254 2.1219668128 
2.0847441441 2.0250731366 1.9909779312 1.9034270136 1.8693456053 1.8708856288 1.8809622173 1.8835369428 1.8441588879 
1.7984548395 1.8127025448 1.8705231496 1.9579008521 1.9781723361 1.936916959 1.9468886735 1.980700157 1.9244866546 
1.7964186251 1.6951206823 1.6580461687 1.6326664388 1.6529641964 1.6102303665 1.5896963507 1.6007807697 1.6534256724 
1.6728006305 1.684079816 1.7388278315 1.8175568197 1.8360373963 1.8233514846 1.7885007681 1.7614078255 1.7889337779 
1.7876530516 1.837689907 1.8632683305 1.8645992286 1.824739617 1.778363456 1.7058124308 1.6715075501 1.7013298376 
1.7178685938 1.683603943 1.6934608837 1.7008391932 1.7499439918 1.7771786231 1.7217546742 1.728195796 1.7927058408 
1.7748367487 1.7701799702 1.7629244013 1.7595564707 1.7879557344 1.8407903197 
Curvature 1 105 double
0 0.15287451052 0.18826861529 0.15046461951 0.090852661256 0.24601716752 0.23914530846 0.25751798874 0.08833125347 
0.092003131056 0.10758715726 0.21604145691 0.17116616532 0.017932117695 0.14589529255 0.064006223188 0.2234936418 0.10112895898 
0.17281654716 0.15170712618 0.21002406642 0.19385424428 0.10348018246 0.41313542778 0.38428694762 0.17064274745 0.23921237931 
0.41170190902 0.36243802138 0.18696236865 0.35069104077 0.20411635905 0.25123305665 0.33281978136 0.20061244241 0.21021357215 
0.13768104241 0.13609114337 0.15049260007 0.22893974953 0.10484441699 0.26162507819 0.22027385412 0.31336207147 0.2112741583 
0.46058913768 0.24270624972 0.38539876989 0.232343769 0.28784617334 0.21178775181 0.20175534308 0.15388703036 0.20714319955 
0.035462091453 0.11330437385 0.15800042959 0.14085172822 0.1842498478 0.19576769645 0.052559147457 0.25209862286 0.071865150316 
0.26077138008 0.10525103939 0.40544655096 0.20244106783 0.3087346428 0.34418477824 0.27267659027 0.075911097512 0.013826241561 
0.24666008264 0.14079872607 0.0780724292 0.097643061167 0.063735502232 0.014850420964 0.089245751453 0.19286532002 0.14031426672 
0.10778384679 0.080082862352 0.13797977475 0.086965751098 0.16127131187 0.42550954137 0.10312799662 0.049568984183 0.11991760247 
0.18074970619 0.13985336341 0.19917132599 0.21432802272 0.2445379095 0.17628632001 0.06059275782 0.13078468905 0.21179679755 
0.059771895077 0.036348859044 0.055027323346 0.080680730529 0.080611461447 0 
Torsion 1 105 double
0 0 -0.88170505058 -0.42912836202 0.8043347937 -0.22798601045 -0.72777961058 -0.43633139893 0.32163938696 
-0.22724958828 0.79069603893 -0.029393253393 -0.53043964811 -1.7139368448 -0.21409585427 0.4920211526 -0.082324848308 -1.8686428081 
0.16529976621 1.1600663914 0.47693923326 0.53162878976 -0.83425455111 0.080333365513 0.17688512569 0.12832029992 -0.23124083531 
-0.50339689482 -0.1516323415 0.79269798649 -0.19407372659 -0.2596712847 0.28955627203 -0.23217409737 -0.39125595784 0.35749035952 
-1.0074084485 -1.149542319 0.44553361759 0.52186522494 -0.84821012969 -0.083760377309 -0.33969675048 0.089251930063 -0.022017102612 
-0.4542424134 -0.053952344711 0.06179017718 -0.53898473075 0.11367471912 -0.1195834343 -0.32837862711 -0.26471123354 -0.50899317175 
-1.5776414621 0.22529085189 0.50395861715 0.081143484606 -0.11540461764 0.011688196717 -0.54082974066 -0.078197545639 -0.18707851597 
0.24667371264 -1.3788636887 0.11632126948 1.4665884651 0.02707870765 -0.72874834109 -1.0060083734 0.72195227774 6.3826646195 
0.22441943261 0.27787601017 -0.87423928476 -0.072019717485 0.2490693013 -3.534901647 1.1114607622 0.23886622385 -0.16732401808 
-0.50281925382 -2.1677898963 -0.54720382731 0.1819682991 -0.20816597717 -0.023709682646 0.85377374886 -0.24605624555 -0.15185111872 
0.31244376508 0.1518770074 -0.50506857163 0.029424093693 0.4173282952 0.16017111803 -0.55906487932 -0.31176660726 -0.28381440273 
-1.0775336449 1.1069712213 1.1911804832 0.17102476896 0 0 
FrenetTangent 3 105 double
-0.43269154164 -0.17026065987 0.88531877733 -0.43269154164 -0.17026065987 0.88531877733 -0.44355216745 -0.062206733826 0.89408713055 
-0.50871079351 0.0060919968105 0.860915917 -0.54182932681 0.0338180464 0.83980790681 -0.47651741974 0.11515344985 0.87159097728 
-0.40155114225 0.22265349942 0.88835921752 -0.35672460833 0.37938433546 0.85370667083 -0.35242519106 0.45450102464 0.81806191899 
-0.32880375319 0.47624854158 0.81552156227 -0.28438038312 0.49684425892 0.81992291106 -0.1639179052 0.50529334387 0.84723642332 
-0.04603791415 0.51163533129 0.85796841331 0.024910595579 0.54141036112 0.84038936398 0.083332159601 0.54828533059 0.83212916512 
0.13599282154 0.57567368628 0.80629136137 0.22906994119 0.58057103239 0.78132210925 0.35160384266 0.58701738364 0.72923612714 
0.31620237423 0.66870335865 0.67294269939 0.30093178332 0.74458913184 0.59584149447 0.4284993484 0.73692507771 0.5228094665 
0.5769173588 0.65176611369 0.49230812928 0.6213192932 0.57845697842 0.52853558065 0.66219470349 0.42109911028 0.61981748442 
0.67493851841 0.074315973845 0.73412201465 0.61758960071 -0.13284269429 0.77520055706 0.52691196525 -0.29034566874 0.79878856622 
0.39745853906 -0.47463396437 0.78533388415 0.30404688137 -0.70418563413 0.64162145117 0.23292639504 -0.81593955219 0.52913886804 
0.081657026177 -0.89229201402 0.44401249059 -0.077325009397 -0.95463932251 0.287549312 -0.17078428999 -0.97411016171 0.14812872491 
-0.32718589293 -0.94469558996 -0.0223524893 -0.35264096944 -0.92302105706 -0.15387161821 -0.35632297678 -0.90364265947 -0.23762129579 
-0.45299158232 -0.82977503687 -0.32599388726 -0.42634099398 -0.81892601022 -0.38417905544 -0.34277372171 -0.85918335893 -0.3798817335 
-0.21071339912 -0.89802682431 -0.3861964348 -0.11206730802 -0.889450641 -0.44307840807 -0.0062903184569 -0.92488649045 -0.38019128302 
0.13242379192 -0.96564206567 -0.22360532272 0.22162628334 -0.97436782373 -0.038589306924 0.26788731473 -0.95712376063 0.11022927673 
0.41493025039 -0.86266982009 0.28919486307 0.43483611166 -0.77299570074 0.46194718598 0.46265092773 -0.60569104391 0.64737352309 
0.47464734045 -0.37686301876 0.79541446259 0.39534870423 -0.2218559114 0.89133571489 0.31276280935 -0.050510577921 0.94848727277 
0.21198559424 0.023215958685 0.97699699441 0.088338861116 0.064119086688 0.99402464172 -0.039285938893 0.047884988573 0.9980799782 
-0.094546687139 -0.019316086608 0.995333016 -0.093305232191 -0.070975900998 0.99310450363 -0.12489931539 -0.17619825756 0.9763986558 
-0.19881929177 -0.24120395401 0.94989027882 -0.17949252044 -0.29618443513 0.93811364743 -0.056165585895 -0.38920841033 0.91943582717 
0.035858175158 -0.44321314055 0.89569877935 0.13206802096 -0.44656086455 0.88495278523 0.23481100684 -0.43394111378 0.86980394391 
0.32419917688 -0.43716965114 0.83891453071 0.44123054207 -0.47462661804 0.76160697357 0.58918247882 -0.41824507699 0.69132847636 
0.74359942533 -0.3545425598 0.56688576269 0.79629475183 -0.46311508018 0.38915175795 0.80050825894 -0.55718121404 0.22076145972 
0.84737147531 -0.52457383553 0.082364275702 0.8577579572 -0.50882777203 0.073113509433 0.8494270337 -0.52441861881 0.058811790152 
0.88060292833 -0.47194699723 -0.042479576664 0.88269752216 -0.43802321833 -0.1702373184 0.88623819795 -0.41419262627 -0.20742787864 
0.88360328269 -0.42521214917 -0.19606087579 0.8452799527 -0.48810399437 -0.21738512424 0.8286873664 -0.51446462572 -0.22046178274 
0.82418868218 -0.50720714233 -0.25190063703 0.79430887691 -0.54654214923 -0.26526418373 0.72653168351 -0.64570369752 -0.23498605888 
0.71934184111 -0.65219637928 -0.23913845043 0.75443519886 -0.6079455725 -0.24744638127 0.76504774796 -0.61755265225 -0.18256687827 
0.74456180338 -0.65631756416 -0.12196301049 0.71716765008 -0.69658541437 -0.020960013505 0.65091290985 -0.7437541983 0.15212519942 
0.52868221346 -0.77260255268 0.35154005856 0.51252810801 -0.76242229114 0.3950027702 0.47907651282 -0.75014637868 0.45581367401 
0.40555659044 -0.73331942995 0.54567981968 0.34887186798 -0.68298849997 0.64172823581 0.29328608962 -0.59658598026 0.74703978327 
0.17399037105 -0.53559132295 0.82635905366 0.014316542643 -0.43896856763 0.89838835324 -0.068056695887 -0.30500412348 0.94991619146 
-0.10352146854 -0.25138339199 0.9623355422 -0.12481496382 -0.2077806251 0.97017958989 -0.17175821872 -0.099913619503 0.98005937725 
-0.24743382236 -0.0087028822987 0.96886570968 -0.27379228625 0.0070586889671 0.96176294319 -0.2836947016 0.028595439872 0.95848819351 
-0.26411193372 0.010969943534 0.96442964845 -0.26838011513 0.025835267272 0.96296658964 -0.26838011513 0.025835267272 0.96296658964 

FrenetNormal 3 105 double
-0.39305978185 -0.84813173136 -0.35521342058 -0.39305978185 -0.84813173136 -0.35521342058 0.36499741944 -0.92365165471 0.11680969372 
0.85486938597 -0.11494188213 0.50595127894 -0.61127735726 -0.70163215502 -0.3661315495 -0.61037849406 -0.75684616343 -0.23371345464 
-0.4737061463 -0.88065822475 0.0066013739489 -0.086813677259 -0.92333561444 0.37405177256 0.046247920753 -0.86462068958 0.50029210765 
-0.85625931652 0.21393417365 -0.47016183619 -0.61543534222 -0.75036265323 0.24123687153 -0.93810912289 0.1857777988 -0.29229759325 
-0.92371026282 -0.34879558099 0.15843292917 0.95728569931 -0.25515894561 0.13600736144 -0.9877424965 -0.065152733357 0.14184456964 
0.34469689679 -0.79049729017 0.50625890963 -0.97066233409 0.19650479725 0.13856586098 -0.42503528502 -0.59395626322 0.68305268016 
0.6999711589 -0.64324301151 0.3102882609 -0.63325522367 -0.31114282703 0.70864516006 -0.90344546469 0.34098293251 0.25984020489 
-0.76804333311 0.63799732632 0.055397202764 0.37645235128 0.37121341054 -0.84881342535 -0.30186642955 0.90698460679 -0.29369300596 
0.24261520559 0.91724526402 -0.31590977771 0.20972684105 0.97775990545 0.00046845191792 0.6869377213 0.69891387128 -0.1990878389 
0.47455387514 0.83882212743 0.26678841452 0.013339388747 0.67658818362 0.73624078296 0.86977888474 0.41817101871 0.26194978675 
0.75847094058 0.34464727358 0.55311851272 0.53940986947 0.20249879884 0.81733177424 0.55879942425 0.028065657627 0.82882780016 
0.73722119864 -0.26998404327 0.61936541771 -0.73736534522 0.17285242587 0.65300412444 0.79357839575 -0.42692855671 0.43354969412 
0.39731768424 -0.51524315994 0.75938339719 -0.88206334171 0.28224190497 0.37723171697 -0.5791996171 0.51166171193 -0.63461019224 
-0.91973912384 0.048282244646 0.38954944349 -0.74101580589 -0.22227723091 0.63363112932 -0.55055622638 0.32058967235 -0.77078538101 
-0.75541894265 0.047730868439 -0.65350132768 -0.072229701494 0.023061334858 -0.9971213793 -0.89812845619 -0.28949505245 -0.33099530328 
-0.38152578907 -0.45352195935 -0.80545385011 0.14512676194 -0.44612330186 -0.88312639101 -0.23312173462 -0.78764313599 -0.57032670214 
0.22612828537 -0.82115428274 -0.52399584207 0.55675703598 -0.713930454 -0.42464680588 0.09914106481 -0.99139446416 -0.085487225408 
0.97716155666 0.010047799937 -0.21226006196 0.77714963134 -0.62866958702 -0.028513170008 0.74937971475 0.66213660761 -0.0022706779591 
-0.79828751574 0.59884422392 -0.064207769737 0.26636517348 0.95931801695 0.093587054149 0.29324330513 0.9335840939 0.20598326051 
0.96125110295 0.14086526154 0.23696686511 -0.85982852475 0.51057215251 -0.0033143793172 -0.71037708803 0.66267410432 0.23712322591 
-0.94964504573 -0.29427430296 -0.10759610466 -0.97312418064 0.11149627224 0.20148923128 0.44921179721 -0.74509506809 -0.49299300275 
-0.8908017175 0.15738389999 0.426265889 -0.50748541757 0.56797769282 0.6479659647 -0.76724459904 -0.55790020626 0.31635910783 
-0.50641656591 0.25495589388 0.82373524505 -0.048911415528 0.59192266081 0.80450931446 -0.050439045794 0.30441149797 0.95120425912 
-0.50280353236 -0.84253694986 -0.19318409865 0.39848505633 0.74801020647 0.53074512801 -0.52448061148 -0.82667240391 0.20379603724 
-0.1941181406 -0.4410722965 0.87622678386 0.16690336573 -0.046431413081 0.9848793786 -0.42391454118 -0.54463614038 -0.72364904226 
0.46802040676 0.78932884614 0.39738755833 0.51634572828 0.85082820018 0.097357396578 0.54602270119 0.8296469829 0.11638339033 
0.02866829824 -0.40686825641 0.91303688349 0.4880110566 0.83407972212 -0.25720852589 0.60750000481 0.7634059038 -0.21944286317 
-0.54879545401 -0.74461512658 0.37996297572 -0.65562860883 -0.68000923945 -0.32823552756 0.13796776078 0.43410017813 -0.89023700908 
0.38963137714 0.57561606062 -0.71892526782 0.17734665894 0.21150750193 -0.96115177739 0.47070017685 0.23818227368 -0.84953548956 
0.44803606082 -0.097759141414 -0.88865451019 0.15174673222 -0.37235348769 -0.91560133763 0.58793060464 -0.11136266803 -0.80120906154 
0.65903171639 -0.17909514304 -0.73048075028 0.068701394729 -0.66427008433 -0.74432880733 0.54764238016 -0.53565451825 -0.64277683571 
0.90256979168 -0.2488630075 -0.35133313913 0.64014250708 -0.6861902211 -0.34548596368 0.2670525357 -0.92294968062 -0.27721260835 
0.68466384412 0.68380681283 0.25227695749 0.073708123842 -0.97706598364 -0.19977281119 0.58601731421 -0.81004870816 0.020119588754 
0.85572441796 -0.47096440716 0.21430876719 0.79914071864 -0.55475215739 0.23156890053 -0.024049146641 -0.99945303649 0.022699480157 
-0.49138159561 0.85890119894 -0.1443359205 0.39935116342 -0.9067107123 0.13562570728 0.39935116342 -0.9067107123 0.13562570728 

FrenetBinormal 3 105 double
0.8113458188 -0.50168104805 0.30005680853 0.8113458188 -0.50168104805 0.30005680853 0.81855870807 0.37815068823 0.43239299074 
0.10203754943 0.99335353792 0.053264314491 0.57685437773 -0.71173636887 0.40083708425 0.63274737666 -0.64336892052 0.43093757024 
0.78381067045 -0.41817043221 0.45910164726 0.93016715662 0.059320056664 0.36231228467 0.93469653606 0.21414920443 0.28369438435 
-0.39838182031 -0.85288891187 0.33744989147 0.73509668564 -0.43600650342 0.51916393532 -0.30509374608 -0.84271302714 0.44356798801 
0.38031547539 -0.78522030696 0.48866062735 0.28806865869 0.80110469562 -0.52464055746 0.13198678637 -0.83374955328 0.53613540326 
0.92881106897 0.20907855262 -0.30593489013 -0.073086217703 -0.79014121587 0.60855177575 0.83409816228 -0.55011503223 0.040665796443 
0.64035649074 0.37292659638 -0.67146803236 0.71304129156 -0.59057359061 0.37788219142 0.013213658147 -0.58367119988 0.81188258367 
-0.27798525065 -0.41007358443 0.86865635079 -0.68720154475 0.72635261957 0.012880564221 -0.6858387809 0.0073798620061 0.72771608767 
-0.69684708393 0.39132884083 0.60105397425 -0.75802225379 0.16229105298 0.63171502822 -0.50048011742 0.65361976193 0.56771547353 
-0.78538228228 0.26664590453 0.55863640437 -0.95256367485 -0.21529287603 0.21510793313 -0.43500573118 0.399218795 0.80709006162 
-0.64657092602 0.29160455849 0.70492043458 -0.83848544152 0.21830712398 0.49928365083 -0.81152691253 0.22432501357 0.53953902411 
-0.59114659412 0.18616889829 0.78478458545 -0.57613947473 0.34373560637 -0.74155858742 -0.49322131546 -0.034087409118 0.86923574623 
-0.79808350699 0.21447115032 0.56308511039 -0.20049343644 0.49969960663 -0.8426759075 0.73961745467 0.0024996571547 -0.67302286176 
-0.3311794189 0.43728325794 -0.83612412047 -0.66206985575 0.39933743857 -0.63418697264 0.83477438478 0.20446819257 -0.51121862714 
0.64172124822 0.25545482029 -0.72314360564 0.97245290927 0.22377559945 -0.06526729912 0.34871429968 -0.010330607151 -0.93717213774 
0.8259969489 0.22387186938 -0.51731076397 0.88873830736 0.45105614527 -0.081808158858 0.85534108747 0.11294533921 -0.50560357439 
0.85063264736 0.42857894143 -0.30453930815 0.73056211574 0.66414099514 -0.15873164026 0.94464304071 0.12077126296 -0.30506364531 
-0.014744491168 0.99967997928 -0.020555753488 0.62308482257 0.77502470482 -0.10536607992 -0.66097402228 0.74785168364 -0.061896697383 
-0.59480918467 -0.80063255259 -0.072038528276 -0.95934546854 0.27326061521 -0.070603882134 -0.94784414595 0.31204953717 -0.064935054787 
-0.1909638874 0.96019666249 0.20385083529 -0.4779930367 -0.80721177981 -0.34631170843 -0.70157666706 -0.63982798063 -0.31370421649 
0.31126914141 -0.8467377083 -0.43144730262 -0.18864614198 -0.88777923806 -0.4198340834 0.86201656151 0.50648637621 0.019974944476 
-0.31838215059 -0.88550155513 -0.33840774525 -0.74011766611 -0.67240680686 0.0097430178433 0.25337666014 -0.71681128299 -0.64960130285 
-0.43658006874 -0.89960939605 0.010038830567 -0.6029281397 -0.65966050824 0.44869329417 -0.59719547054 -0.77258186274 0.21558022947 
0.17073426922 0.12228564591 -0.97769935569 -0.32474751229 -0.42611621587 0.84437197007 -0.058256352429 -0.20395550706 -0.97724528576 
-0.43226916397 -0.76336181531 -0.48002302946 -0.43930439433 -0.89776376853 0.03212265613 0.18675737808 0.72925711717 -0.65825962871 
-0.014217512868 -0.44289344187 0.89646152258 0.13743685985 -0.19454013587 0.97121843325 0.12303031555 -0.21682258334 0.96842733791 
-0.56558920149 -0.75973622837 -0.32079544644 0.36182677719 0.074851160753 0.92923553905 0.3210848128 0.016678160909 0.94690357584 
-0.42587658457 -0.14208517203 -0.89355522415 0.031283510184 0.40986536222 -0.91160941573 0.62902054046 0.65588547556 0.41730972026 
0.54204714823 0.48776367816 0.68430364851 0.67395750923 0.68558977319 0.27522343404 0.59561206108 0.6245789758 0.50512114951 
0.72094299732 0.6273184565 0.29447028501 0.84515552874 0.52921180086 -0.075146537299 0.65178470294 0.65182725221 0.38768277533 
0.63340433275 0.65587159063 0.410647547 0.93464888493 0.30376300624 -0.18482288263 0.78362688384 0.59762814963 0.16961574716 
0.39382118015 0.80697530215 0.44010878177 0.76812278136 0.5800427373 0.27117856785 0.96127583415 0.23481135345 0.14426503031 
-0.72146983728 0.68499243278 0.10132443404 0.98943839489 0.04657548116 0.13726757544 0.79188561153 0.57778746875 0.19768363415 
0.4544361606 0.88210928293 0.12397979235 0.53517464048 0.83198570828 0.1462459757 0.95861303706 -0.016611100869 0.28422722688 
-0.82993313825 -0.51202381858 -0.22145562817 0.87663604881 0.42096107084 0.23302578131 0.87663604881 0.42096107084 0.23302578131 

SiphonLabel 1 105 int
0 0 0 0 0 0 0 0 0 
0 0 0 0 0 0 0 0 0 
0 0 1 1 1 1 1 1 1 
1 1 1 1 1 1 1 1 1 
1 1 1 1 1 1 1 1 1 
1 1 1 1 1 1 1 1 0 
0 0 0 0 0 0 0 0 0 
0 0 0 0 0 0 0 0 0 
0 0 0 0 0 0 0 0 0 
0 0 0 0 0 0 0 0 0 
0 0 0 0 0 0 0 0 0 
0 0 0 0 0 0 
