# vtk DataFile Version 5.1
vtk output
ASCII
DATASET POLYDATA
POINTS 102 float
83.5582 80.5313 40.1133 84.2255 80.8742 39.6794 84.7787 81.0964 39.3733 
85.2684 81.3155 39.1005 86.016 81.5549 38.6406 86.6372 81.6751 38.4027 
87.4995 81.6938 38.2564 88.045 81.4889 38.2528 88.8675 81.0143 38.2064 
89.5299 80.2907 38.2161 90.019 79.6978 38.2047 90.5333 79.1358 38.1236 
90.9093 78.6994 37.9767 91.2473 78.2038 37.5775 91.37 77.5652 36.8516 
91.4586 77.0501 36.0962 91.4744 76.6017 35.6323 91.3974 76.0382 35.1036 
91.1649 75.3819 34.6978 90.67 74.866 34.3215 90.2424 74.3985 34.0409 
89.5381 73.8215 33.6408 89.0169 73.5003 33.3339 88.3173 73.2603 33.0118 
87.5473 73.2512 32.5987 87.3586 73.2784 32.4675 86.8855 73.6349 31.9748 
86.5224 74.1452 31.3596 86.6267 74.6796 30.7875 86.8421 75.0632 30.3268 
87.1657 75.729 29.9936 87.7266 76.4595 29.8065 88.1466 76.9228 29.8928 
88.6469 77.4762 30.1161 89.2129 78.1314 30.5116 89.5459 78.5977 30.8202 
89.8484 79.0413 31.123 90.0582 79.4512 31.4257 90.3027 80.1364 32.0326 
90.6148 80.817 32.5303 90.678 81.372 32.9222 90.613 81.9418 33.1425 
90.4541 82.7923 33.2496 90.2603 83.7195 33.3972 90.1332 84.2804 33.3501 
89.9555 85.0823 33.0548 89.5953 85.8048 32.5122 89.194 86.3749 31.8824 
88.6662 86.6703 31.1511 88.1997 86.7163 30.4319 87.741 86.4951 29.6026 
87.4562 86.2969 29.0051 87.1456 86.0383 28.1699 86.8047 85.9158 27.2417 
86.6075 85.7626 26.5599 86.5237 85.6234 25.8945 86.4585 85.5783 25.1911 
86.3232 85.5296 24.3344 86.1827 85.6083 23.6272 85.9839 85.7036 22.8342 
85.8383 85.7764 22.2919 85.5225 85.8924 21.3591 85.2481 86.0282 20.6451 
84.9755 86.1981 20.1042 84.6082 86.5203 19.4166 84.1946 86.8443 18.8704 
83.7464 87.1724 18.2828 83.4422 87.3871 17.8974 82.8414 87.8163 17.3654 
82.0889 88.31 16.9946 81.3203 88.7019 16.7414 80.6258 89.1711 16.6062 
79.8925 89.6484 16.5104 79.1096 90.2052 16.519 78.5243 90.674 16.6104 
77.702 91.2215 16.7371 77.078 91.6074 16.7587 76.3398 91.986 16.7584 
75.8549 92.2693 16.7776 75.3951 92.5409 16.8027 74.7946 92.8931 16.8503 
74.0574 93.2197 16.9591 73.2421 93.7148 16.9511 72.5563 94.1995 16.8588 
71.879 94.497 16.8317 71.1475 94.8346 16.7365 70.5323 95.188 16.5435 
69.9747 95.5312 16.2546 69.3773 95.9112 15.9304 68.7484 96.3375 15.4416 
68.2517 96.6942 14.9642 67.7719 97.0854 14.2962 67.4481 97.5499 13.6969 
67.2333 98.1049 13.0252 67.226 98.3732 12.6455 67.3132 98.786 12.0006 
67.5037 99.2549 11.2272 67.7473 99.7009 10.5195 67.9423 99.9602 9.92068 
68.211 100.233 9.15099 68.5209 100.469 8.36062 68.8614 100.598 7.61366 

LINES 2 102
OFFSETS vtktypeint64
0 102 
CONNECTIVITY vtktypeint64
101 100 99 98 97 96 95 94 93 
92 91 90 89 88 87 86 85 84 
83 82 81 80 79 78 77 76 75 
74 73 72 71 70 69 68 67 66 
65 64 63 62 61 60 59 58 57 
56 55 54 53 52 51 50 49 48 
47 46 45 44 43 42 41 40 39 
38 37 36 35 34 33 32 31 30 
29 28 27 26 25 24 23 22 21 
20 19 18 17 16 15 14 13 12 
11 10 9 8 7 6 5 4 3 
2 1 0 
CELL_DATA 1
FIELD FieldData 2
Length 1 1 double
79.932269613 
Tortuosity 1 1 double
0.95311022058 
POINT_DATA 102
FIELD FieldData 7
MaximumInscribedSphereRadius 1 102 double
1.6437989899 1.5509387721 1.5301412357 1.5763789745 1.6585655701 1.7130601838 1.7825124657 1.7559438097 1.6964982392 
1.4603354253 1.3328305752 1.2129562491 1.1587168536 1.2445598424 1.5309928909 1.6877733818 1.7308999057 1.7945913825 
1.8396512815 1.8280166013 1.8809701437 1.8598693259 1.8679348444 1.8239932916 1.8299438876 1.8350229344 1.763340179 
1.8011008544 1.7216603522 1.669640705 1.6160183891 1.6907982388 1.7051836541 1.6824186338 1.7322489444 1.8168329421 
1.8504932384 1.884750573 2.0518295572 2.2288701286 2.3365153311 2.3510138448 2.2594472727 2.1218297525 2.0595218501 
2.0237282833 2.0364902775 2.0674076727 2.0653642703 2.0846372674 2.1441552318 2.2080264775 2.2775745955 2.2480007522 
2.2343997243 2.166358337 2.110118167 2.0680770299 2.0426745267 2.03919086 2.0401693914 2.0326022743 2.0238333968 
2.0335690329 2.0604707971 2.082327688 2.0736562171 2.077691229 2.0733021983 1.999504309 1.9340416976 1.9523982279 
2.0275688689 2.0826894507 2.1605519342 2.2697528546 2.2870803754 2.2724263434 2.2560111683 2.2548963152 2.2709940717 
2.2694819956 2.225645 2.2140951125 2.2227233037 2.1584197903 2.0771352862 1.9926023465 1.8825475098 1.8217619889 
1.8497093682 1.9234130681 1.9322702793 1.8946644237 1.8381811303 1.7860514 1.7786668421 1.711325996 1.69567612 
1.7318915907 1.7885293089 1.7936345819 
Curvature 1 102 double
0 0.12446286039 0.054701210691 0.15131650451 0.25589234796 0.3286109154 0.5848056507 0.22207709582 0.32919382067 
0.065446749541 0.1367296034 0.21663122596 0.5500391075 0.48291597897 0.13331604353 0.23721445855 0.1876301397 0.35331267079 
0.47559563906 0.094686830644 0.15633273726 0.15696794484 0.28123970514 0.36083247876 0.31268880603 0.82971767946 0.29660739158 
0.71995760975 0.31069003083 0.55306527069 0.34163707636 0.45253915762 0.21907285093 0.16151059312 0.13197881555 0.042940603608 
0.21785225775 0.20704922506 0.14027700801 0.33634063965 0.49742680952 0.34491004128 0.041425747004 0.31158277771 0.36841043329 
0.36409340565 0.19556098755 0.36809662021 0.30026978481 0.32389823579 0.10212651132 0.1059206331 0.1664151987 0.13173528929 
0.21808309933 0.20859756387 0.081819814232 0.21389350455 0.064205529017 0.030202839122 0.083215104384 0.080284083247 0.19703848422 
0.16435196766 0.19111955025 0.03079528485 0.024062613178 0.24802212523 0.25361099089 0.15805363125 0.19956915637 0.062108909198 
0.13629387074 0.14726507514 0.10009244167 0.11993191602 0.10927149984 0.093042052968 0.024885219393 0.034975286688 0.17337497749 
0.21852811402 0.13675356349 0.2722648438 0.10743355345 0.22350619346 0.21155294389 0.02589918113 0.17259780074 0.11195224644 
0.19874608043 0.22039204519 0.19217605287 0.35280507133 0.22254977233 0.11479069034 0.08676874541 0.19089911145 0.092215532879 
0.071838228914 0.14851403931 0 
Torsion 1 102 double
0 0 -2.0649755956 -1.2095539522 -0.22100658823 0.62973408565 0.36347262396 0.6168666364 -0.088054013092 
2.8354272993 -0.36261429644 -0.42806398612 -0.29981446212 -0.14849147478 0.90692439336 0.144666609 0.12585035878 0.55720143925 
0.262499344 -2.1243720389 0.61416552072 -0.30705348907 0.30663809381 0.55437750727 -0.1305537383 0.028314335203 0.77048241112 
0.1279819627 -0.6980184137 -0.073163656561 0.3592702981 -0.2870216413 -0.41725522501 -0.42220464482 -0.47254021224 -0.40568238198 
0.23214003515 0.14669973609 0.80127190678 -0.48377422974 -0.57664282144 -0.26540314791 0.87570617022 -0.12199035577 0.37570514471 
0.31434275538 0.093892154006 -0.073974762498 -0.25060105325 -0.11656971368 -1.3773007932 -1.4188575572 -0.070316001126 -0.31524755675 
-0.99603489493 -0.99863475071 -0.056976650348 0.051067496125 -1.8216453744 -0.71932786863 0.39423055121 0.30004726486 0.29236324734 
-0.20053436523 -0.5580070679 -3.4286025649 6.5107934089 -0.073632737286 -0.29735061457 0.15606711326 0.29594827686 -0.8428204804 
0.23034578997 -0.29523982766 -1.4325650185 -0.057665561782 0.65403114831 0.055362767957 -2.6705319954 -3.3998979535 -0.35782161674 
-0.091982175292 0.75562530052 -0.023442855969 -1.7397472806 0.12360980776 0.20887216495 -0.44322652385 0.033806497078 -0.050426863854 
-0.61870994319 -0.27833643035 0.78685151127 0.2056360118 -0.0074822878596 -0.30807789055 0.87159642518 0.17374730641 -0.67217210876 
-0.040568056382 0 0 
FrenetTangent 3 102 double
-0.79505828261 -0.36809385898 0.48206766976 -0.79505828261 -0.36809385898 0.48206766976 -0.8200130385 -0.34699780719 0.45516056343 
-0.81978568473 -0.30378889523 0.48545209676 -0.86747734606 -0.22787048935 0.44221950902 -0.96410034817 -0.090288652583 0.24971679533 
-0.9858836196 0.13039038718 0.10503254513 -0.8951262547 0.4446152338 0.032653974133 -0.77811357162 0.62782961384 0.019215765558 
-0.65837209625 0.75269195895 0.00099890156587 -0.65467088271 0.7535029352 0.060327124664 -0.65609088024 0.73573885923 0.16802704511 
-0.55137916366 0.7197973715 0.42174964358 -0.27709872665 0.68214459084 0.6766794314 -0.11184110918 0.61061797392 0.78398804597 
-0.066972649769 0.61862391194 0.78282764371 0.043108179935 0.71321558726 0.69961790351 0.19743151014 0.77819946718 0.59617647394 
0.45871347326 0.73915169557 0.49319034905 0.61503601952 0.65566676916 0.43798605287 0.67217266833 0.62029107634 0.40425596417 
0.73129449415 0.53596273645 0.42184393791 0.82289386584 0.3782741477 0.42397447417 0.88421810737 0.1498814809 0.44237301035 
0.8694943986 -0.016371870401 0.4936714015 0.67043527267 -0.38867593832 0.63201863907 0.51098909119 -0.52968910163 0.67699306075 
0.16145473494 -0.65191282884 0.7409062236 -0.22538765601 -0.64724449455 0.72819981378 -0.37904029728 -0.73798765483 0.55830338917 
-0.5104466811 -0.80578723882 0.30025174689 -0.63350961719 -0.77099151699 0.065097201605 -0.65461362275 -0.72316728031 -0.22025006151 
-0.61761838914 -0.70005795331 -0.35842207997 -0.56167865372 -0.70071359246 -0.43990629831 -0.5015046907 -0.7180807769 -0.48254848777 
-0.4396825183 -0.73253571075 -0.51968328391 -0.30401523729 -0.7328744566 -0.60866227611 -0.3020654475 -0.74122334679 -0.59945343072 
-0.23934516136 -0.78794686627 -0.56732145179 0.0014417438954 -0.87832587088 -0.47806023252 0.15179548631 -0.9631459822 -0.22205392885 
0.19269802307 -0.97133994178 -0.13916245686 0.21038793961 -0.9753958948 -0.06587687969 0.21201286241 -0.94781783866 0.23810058986 
0.29541598138 -0.83721655893 0.46021498389 0.39992878529 -0.67887320285 0.61578254371 0.49911812753 -0.46496727111 0.73122262791 
0.55505968568 -0.19059067979 0.80968138061 0.51050400927 0.096675362813 0.85442350784 0.44713987773 0.25227875558 0.85814996314 
0.36813695127 0.28245799475 0.88582880192 0.33963464328 0.19866413154 0.91933719164 0.31289197545 0.16031898419 0.93616047503 
0.19975718229 0.20785874404 0.95754467815 0.10729541504 0.13263508054 0.98534036217 0.12723780721 0.059512896278 0.99008522643 
0.17363541238 -0.01886370278 0.98462932329 0.21920198769 -0.11240546232 0.9691829036 0.2478801952 -0.12103490832 0.96120027039 
0.29632215924 -0.12123740051 0.94736195335 0.33391419465 -0.14247955301 0.93177298071 0.38999208991 -0.21795019457 0.89465293969 
0.43537249763 -0.33473383748 0.83570571755 0.4890578844 -0.40469340455 0.77268728087 0.55017412558 -0.41630928362 0.72387499744 
0.55961546846 -0.40377957924 0.72373515795 0.62823837259 -0.44698042507 0.63680848518 0.723564127 -0.49343318236 0.48267861839 
0.81453280371 -0.47423341571 0.33412419712 0.8401100462 -0.49444832311 0.22301561838 0.82601544266 -0.54756660712 0.13367609829 
0.82522297011 -0.56280831101 0.047474779153 0.79877529888 -0.59878862062 -0.058397000862 0.80444719612 -0.58080215531 -0.12463372352 
0.83712573603 -0.54022969903 -0.085862531742 0.87194875767 -0.48940559209 -0.013694175035 0.87938905652 -0.47590969962 -0.013595774344 
0.86158124495 -0.50601112509 -0.040379445652 0.8604019855 -0.50619201408 -0.058975149225 0.88693595799 -0.45011000781 -0.10366092464 
0.88238892171 -0.46702387311 -0.057258124202 0.83609631312 -0.54573156283 0.055857108066 0.8648649293 -0.49626365342 0.075703634989 
0.90881907673 -0.40966772913 0.078868482111 0.87399314187 -0.44849361412 0.18705471408 0.81066725271 -0.48149600591 0.33313691129 
0.77291160479 -0.4839824216 0.41032751159 0.7309202051 -0.48058625353 0.48455392547 0.67107291529 -0.46676965674 0.5760097481 
0.58101155022 -0.44503002699 0.68144981737 0.46519091438 -0.49536708369 0.73362719795 0.31385395353 -0.59406180295 0.74066609895 
0.16409082506 -0.60820173858 0.7766368819 -0.064851422007 -0.55244995717 0.83101945699 -0.16402169563 -0.52077575598 0.83778845501 
-0.24195650537 -0.50989037965 0.82551126597 -0.28334208811 -0.45557185431 0.84390256942 -0.30113389324 -0.3453493534 0.88884880742 
-0.33254669072 -0.29240781405 0.89661048888 -0.38062252881 -0.21403599425 0.89961941049 -0.38062252881 -0.21403599425 0.89961941049 

FrenetNormal 3 102 double
0.58651870209 -0.66907269784 0.45644006956 0.58651870209 -0.66907269784 0.45644006956 -0.33815620849 0.93534228609 0.1038517526 
0.060841181985 -0.88910320159 -0.45364506775 0.49729388442 -0.42130024611 0.75842263623 0.25008952646 -0.624830265 0.73962312612 
-0.079838615961 -0.9175087721 0.3896196203 -0.43794856018 -0.86327720273 -0.25090542018 -0.61383852667 -0.76654871428 0.18869375137 
-0.67959589833 -0.59386416463 -0.43066781739 0.33587995631 0.36146188951 -0.86978730583 -0.25962696749 -0.010987815174 -0.96564647033 
-0.47530832259 0.14442261579 -0.86788484635 -0.87965683347 0.10322154506 -0.46427273016 -0.23493599089 0.75032474792 -0.61791411445 
-0.39021870271 -0.738336262 0.55008083794 -0.92946074584 -0.22818302227 0.28988830659 -0.69036617056 -0.32139776007 0.6481496975 
-0.87428023933 0.47461679712 0.10184772461 -0.064761194896 -0.51158687901 0.85678751909 -0.68587309165 0.72731058277 0.024442142629 
-0.41207567801 0.84002708215 -0.35291378105 -0.5042053787 0.83015759959 0.23793968969 -0.041865362027 0.96873529034 -0.24453880821 
0.33999548836 0.74483683271 -0.57412643253 0.57319767596 0.81219410009 -0.10855951388 0.83641198058 0.48803625062 -0.24947067327 
0.98183095546 0.1819544548 -0.053856766279 0.94317041764 -0.33229177473 -0.0034263289878 0.1479737328 0.54722297354 0.82380264119 
0.67117271563 -0.15505903551 0.72490267023 0.2203442375 -0.099121244836 0.9703728128 -0.1545497587 -0.157172767 0.97540304152 
-0.34813367472 -0.16530370065 0.92275545573 -0.78111664159 0.27385624815 0.5611234691 -0.7694643326 0.11523661945 0.62820789743 
-0.86664889889 0.19412253669 0.45960431546 -0.80146774061 -0.14862641119 0.57927510792 0.69125937929 0.2627053934 -0.67316145673 
-0.96909137789 0.22985429174 0.089604162119 -0.63100287886 0.37007087749 -0.68182322673 -0.2990171508 0.16938257506 -0.93909439717 
-0.528980287 -0.22227896336 0.81900666567 -0.082767996843 0.049371586004 -0.99534511864 0.06921195801 -0.22846478798 -0.97108884533 
-0.50692308012 -0.545674239 -0.66728450883 -0.30746319516 -0.73229074344 -0.60763200269 -0.38153872095 -0.87556892845 -0.29632289138 
0.043644793521 -0.96538252196 -0.25716088016 0.25339030147 -0.96644995278 -0.042045735698 0.69291595965 -0.7043869831 -0.15396899331 
0.90758177722 0.097736379967 -0.40834166783 -0.045376211616 0.97976139401 -0.19495797041 0.62041225876 -0.78081053142 -0.073644709252 
0.97540004007 0.050799051061 -0.2145092498 0.20911113425 0.9658824277 -0.15278635212 -0.98581491351 0.11773667647 0.11961200322 
-0.22612788778 0.97233911006 0.058504986248 -0.96085418842 0.14763669292 0.23444111308 -0.74491638761 0.61053111673 0.26898202724 
-0.94493806155 -0.18144029082 0.27234441559 -0.49033785069 0.81797860787 0.30079858586 -0.58530902681 0.6913746913 0.42357334592 
-0.012844800621 0.92589940458 0.3775517232 -0.72675681013 0.30080003402 0.61753046764 -0.35381818354 -0.90142175768 -0.24950252057 
-0.82802853882 -0.30890540192 0.46791686395 -0.50562162179 0.38752616522 0.7708243943 -0.47615176279 0.14945877874 0.86656885027 
-0.55817665733 -0.48377646666 0.67409135102 0.2106975632 0.67634153346 0.70581064527 -0.28179302767 -0.19578458081 0.93928754249 
0.14852743498 0.29733754281 0.94314897375 0.31269438535 0.33027531032 0.89058432547 -0.57681196612 -0.81389207872 0.069768473762 
-0.24320032567 -0.22697170841 -0.94304689447 -0.46259036076 -0.81436738603 -0.35045102184 0.40888145026 0.74028833893 0.53365638279 
0.21167191872 0.28583071696 0.93460997216 -0.021113868834 -0.15103308845 0.98830319778 -0.34434537222 -0.79393157095 0.50109772029 
0.27495359381 0.61055231038 -0.74271555628 0.34796036674 0.44885391153 -0.82307578587 -0.49023288075 -0.8024594537 0.34019192788 
0.16193969034 0.17218930023 -0.97166166003 0.37504697163 0.37780230628 -0.84652536078 0.37642923191 -0.0071962974806 -0.92641742571 
0.62067175249 0.44234718632 -0.64737588959 0.49522740858 -0.11503509744 -0.86111366274 0.59386599331 -0.12667701614 -0.7945288639 
0.68530154519 -0.18418855803 -0.70458240629 0.70563631146 0.70791474156 0.030563289011 0.93399908359 0.33342466116 -0.12834994036 
0.93650974504 -0.15127095037 -0.31633304763 0.94053535281 -0.3121111075 -0.13408917439 0.95560743019 -0.29461639107 0.0039524026084 
0.94731955815 0.059878115783 0.31464307715 0.047260016998 -0.88552830404 -0.46217541425 0.36930457881 -0.90161140325 -0.22519104245 
0.62647895751 -0.77913510919 -0.021739306244 0.45867508527 -0.88843538167 -0.017312965018 0.45867508527 -0.88843538167 -0.017312965018 

FrenetBinormal 3 102 double
0.15452552975 0.64563816181 0.7478457225 0.15452552975 0.64563816181 0.7478457225 -0.46176725236 -0.068755579179 -0.88433233288 
0.56942934741 -0.34235625313 0.74735695237 0.013485050726 0.87782751308 0.47878702018 0.089251035927 0.7755224685 0.62497932241 
0.14717093465 0.3757339485 0.9149670573 -0.083366940608 -0.23889279001 0.96746069072 0.13319734544 0.1350297916 0.98184796305 
-0.32356699129 -0.28421852313 0.90250996297 -0.67719324442 -0.54916175128 -0.48972510722 -0.70861738239 -0.6771761949 0.19822665422 
-0.6856114179 -0.67899473638 0.26249406015 -0.38654902797 -0.72389506824 0.57145059205 -0.96555509759 -0.25329520837 0.059538986705 
0.9182831961 -0.26863361627 0.29084695627 0.36639378648 -0.66276393568 0.6530693369 0.69599953258 -0.53954524287 0.47378854096 
-0.1587955055 -0.4779054999 0.86393884078 0.78583502234 -0.55531968545 -0.27218259428 -0.27885839793 -0.29369762819 0.91431925338 
-0.54350896811 0.084252278262 0.83516438813 -0.26195919844 -0.40956932139 0.87385945628 -0.46519418533 0.19770553594 0.86284812742 
-0.35830511955 0.66704576642 0.65319781599 -0.47112733887 0.43505374237 0.7673117175 -0.19825525825 0.69372189939 0.69241951076 
-0.099701271115 0.73614009535 0.66944560389 0.24419248106 0.68604427023 0.68535632446 -0.91347261997 0.39486863454 -0.098216770528 
-0.53756057477 0.57154494247 0.61997177935 -0.74169669133 0.62908430242 0.2326777998 -0.73999687634 0.67255171251 -0.0088778942735 
-0.70523079196 0.69468953393 -0.14161914249 -0.27271575346 0.65878920505 -0.70115825684 -0.39549675859 0.68635305738 -0.61032925095 
-0.23579433655 0.65246292862 -0.72020355291 -0.51499921966 0.66393163862 -0.54219054122 0.65644263723 -0.6177166231 0.4330233684 
0.059797951745 0.57123265006 -0.81860702689 0.77577914914 0.30264039746 -0.55369260568 0.9420970618 0.20894822384 -0.26228565705 
-0.8264667736 -0.084206768983 -0.55665239799 0.97410798866 0.21486110609 -0.070344378086 0.97481293131 0.22236273378 0.01716285479 
0.80978910142 -0.036167089114 -0.58560528761 0.86343694056 0.053679060326 -0.50159267156 0.77801625895 -0.13108961949 -0.61441534199 
0.83066472017 0.17807801399 -0.52752662834 0.82169277205 0.23796714688 -0.51787317498 0.56562655755 0.66347148207 -0.48976748552 
-0.20191706904 0.95428773503 -0.22037335591 -0.93946224432 0.024498441781 0.34177553722 0.71915731302 0.60384827344 -0.34377321273 
-0.093229984247 0.97683888075 -0.19259795196 -0.97198777124 0.22243891582 0.075899283823 -0.10945088724 -0.99125995087 0.073649257239 
-0.95849722062 -0.23281068654 0.16456689308 -0.16943942042 -0.98263341025 -0.075643002728 -0.61939888949 -0.78268915061 0.061177685708 
0.13887129934 -0.97590005307 -0.16832661298 -0.80502801367 -0.55732447824 0.2032715503 -0.71085829315 -0.68883869587 0.14206244449 
-0.90015876344 -0.17511011003 0.39881154692 -0.48233486773 -0.86356388753 -0.1470050595 0.75638688813 -0.11885030562 -0.64323672183 
0.034630425407 -0.86112688034 -0.50720925621 -0.59132336567 -0.80624560208 0.017455839943 -0.49973438235 -0.85684640864 -0.12680606884 
-0.15803522038 -0.73556984559 -0.65875782453 -0.49982161531 -0.54596976646 0.67238037373 -0.48815077388 -0.81353500765 -0.31602153926 
-0.54492811513 -0.7712568902 0.32896224502 -0.51398467221 -0.72963717505 0.45105359939 -0.14196008025 0.015765170013 -0.98974683381 
0.48997357445 0.81033062133 -0.3213878972 0.16036060032 0.31191012649 -0.93648093993 -0.24390745563 -0.47485064289 0.84559211209 
-0.46138135764 -0.8137896181 0.35337473071 -0.50917838513 -0.84909284008 -0.14063684097 -0.30784877954 -0.40874642691 -0.85915975664 
0.38182497574 0.63962065182 0.66715448711 0.42410675351 0.70760668979 0.5651780553 -0.10807579142 -0.33133247872 -0.93730379913 
0.38447811701 0.89583659034 0.22283038606 0.30899151612 0.81001166378 0.49840279645 0.44846364261 0.87641874101 0.17541536897 
0.13181133051 0.75504303343 0.64228949144 0.46958009707 0.86936975981 0.15391800792 0.44382916123 0.87525940219 0.19218911133 
0.43907558652 0.87636912894 0.19796408552 -0.53448555559 0.50345622559 0.67886450768 -0.17070854609 0.73206459388 0.65949982765 
0.30987690875 0.77923535903 0.54476468007 0.33344796172 0.77290730453 0.53983956452 0.24476789563 0.80124515231 0.5459806619 
-0.20986353723 0.85815290711 0.46854122951 0.95785372156 -0.091070897172 0.27243777232 0.87916580143 0.26044327911 0.39904484955 
0.70493745417 0.55447827001 0.4422861447 0.80295931199 0.40604330529 0.43633149956 0.80295931199 0.40604330529 0.43633149956 

SiphonLabel 1 102 int
0 0 0 0 0 0 0 0 0 
0 0 0 0 0 0 0 0 0 
0 0 0 0 1 1 1 1 1 
1 1 1 1 1 1 1 1 1 
1 1 1 1 1 1 1 1 1 
1 1 1 1 1 1 0 0 0 
0 0 0 0 0 0 0 0 0 
0 0 0 0 0 0 0 0 0 
0 0 0 0 0 0 0 0 0 
0 0 0 0 0 0 0 0 0 
0 0 0 0 0 0 0 0 0 
0 0 0 
