# vtk DataFile Version 5.1
vtk output
ASCII
DATASET POLYDATA
POINTS 116 float
110.522 88.7641 36.5548 109.992 88.6521 35.7501 109.616 88.5189 34.992 
109.399 88.3048 34.4202 109.021 87.8858 33.6187 108.92 87.6141 33.199 
108.826 87.2221 32.7153 108.71 86.7152 32.2082 108.696 86.0584 31.6596 
108.761 85.3813 31.1638 108.8 84.6627 30.7132 108.985 84.0525 30.3977 
109.32 83.361 30.0339 109.543 82.9595 29.8968 109.965 82.3148 29.6602 
110.487 81.6912 29.4415 111.107 81.0586 29.1421 111.719 80.6374 28.8392 
112.248 80.3425 28.5855 112.973 80.1572 28.2862 113.847 80.1094 27.8497 
114.611 80.2404 27.3146 115.181 80.5111 26.8277 115.643 81.006 26.3039 
116.026 81.7634 25.8453 116.103 82.416 25.5364 116.036 83.0705 25.3638 
115.707 83.9387 25.2529 115.342 84.6462 25.1927 115.003 85.1151 25.2108 
114.3 85.765 25.2829 113.834 86.1887 25.4347 113.417 86.5851 25.6266 
112.759 87.1916 26.0265 112.272 87.6918 26.449 111.983 88.0295 26.7489 
111.562 88.6926 27.3317 111.435 89.2195 27.7486 111.364 89.5735 27.9819 
111.256 90.3604 28.4183 111.308 91.0681 28.649 111.476 91.6018 28.8254 
111.722 92.3171 28.9556 112.016 93.0565 28.9608 112.266 93.6285 28.7919 
112.668 94.1978 28.5174 113.278 94.8731 28.1316 113.79 95.3292 27.6414 
113.945 95.4173 27.3974 114.408 95.6331 26.6928 114.726 95.7259 26.1132 
115.088 95.8471 25.3348 115.218 95.7744 24.5214 115.258 95.7013 23.9514 
115.242 95.5685 23.2135 115.169 95.4024 22.3744 115.041 95.3109 21.456 
114.839 95.278 20.6017 114.638 95.3476 19.7387 114.423 95.4546 18.824 
114.325 95.598 17.8429 114.341 95.6771 17.0499 114.362 95.7583 16.5219 
114.514 95.9284 15.5898 114.755 96.0881 14.7542 115.238 96.2431 13.9308 
115.771 96.4337 13.2047 116.473 96.6502 12.6808 117.307 96.8832 12.1916 
117.743 96.9841 11.9544 118.338 97.1512 11.6738 118.696 97.2474 11.5697 
119.366 97.4724 11.4575 119.965 97.6863 11.3895 120.548 97.8993 11.3851 
120.923 97.9827 11.4267 121.692 98.233 11.4542 122.248 98.5022 11.4967 
122.848 98.7571 11.5754 123.676 99.1475 11.8191 124.36 99.5183 12.0725 
125.202 99.9643 12.3172 125.698 100.25 12.4906 126.251 100.644 12.6873 
126.616 100.904 12.8167 127.231 101.28 13.0746 127.694 101.504 13.2422 
128.385 101.998 13.4585 129.005 102.476 13.6985 129.74 103.076 13.9077 
130.209 103.415 13.9677 130.758 103.819 13.9078 131.389 104.323 13.7095 
132.022 104.731 13.4221 132.725 105.157 12.9904 133.293 105.826 12.5773 
133.487 106.337 12.172 133.614 106.838 11.6944 133.717 107.495 11.0038 
133.773 108.078 10.2962 133.645 108.594 9.53217 133.363 108.982 8.7182 
132.971 109.175 8.10541 132.739 109.283 7.72603 132.416 109.388 7.26975 
131.971 109.457 6.64905 131.392 109.48 5.89126 130.889 109.533 5.22149 
130.463 109.585 4.66207 129.89 109.684 4.04243 129.362 109.747 3.5656 
128.555 109.689 3.02431 127.672 109.632 2.56839 127.153 109.681 2.37255 
126.5 109.786 2.14364 125.847 109.972 1.86733 
LINES 2 116
OFFSETS vtktypeint64
0 116 
CONNECTIVITY vtktypeint64
115 114 113 112 111 110 109 108 107 
106 105 104 103 102 101 100 99 98 
97 96 95 94 93 92 91 90 89 
88 87 86 85 84 83 82 81 80 
79 78 77 76 75 74 73 72 71 
70 69 68 67 66 65 64 63 62 
61 60 59 58 57 56 55 54 53 
52 51 50 49 48 47 46 45 44 
43 42 41 40 39 38 37 36 35 
34 33 32 31 30 29 28 27 26 
25 24 23 22 21 20 19 18 17 
16 15 14 13 12 11 10 9 8 
7 6 5 4 3 2 1 0 
CELL_DATA 1
FIELD FieldData 2
Length 1 1 double
89.017889889 
Tortuosity 1 1 double
1.0487612749 
POINT_DATA 116
FIELD FieldData 7
MaximumInscribedSphereRadius 1 116 double
1.3592030016 1.3398790266 1.4027697064 1.3453857353 1.2749932243 1.2426336819 1.1920468792 1.1865375744 1.2507859751 
1.2816573692 1.3485775894 1.4181681313 1.5041452001 1.5149601051 1.5797797364 1.6774844257 1.7377348959 1.7473813349 
1.7472767288 1.6880868059 1.6903943232 1.7464310002 1.7902617242 1.7934200854 1.8108898143 1.7761800396 1.7558906972 
1.7793549122 1.7398589151 1.7567198412 1.8004029703 1.8192774861 1.8703875096 1.9671882697 2.0277384181 2.0592094618 
2.0822678155 2.1047615901 2.101994024 2.114442097 2.0998129364 2.0871796899 2.0539951189 2.1068662177 2.1324840283 
2.1013513414 2.0643264489 2.0081603219 1.9640719927 1.9135076804 1.9096457193 1.8946931941 1.8115788156 1.7508381524 
1.7037043748 1.702565047 1.7333602003 1.749279828 1.7093487159 1.6793831031 1.7000090242 1.705561827 1.6744092861 
1.6178493543 1.6034772652 1.6078018964 1.6568968561 1.6734147356 1.6373008067 1.6342961554 1.6044707487 1.5829589463 
1.606024773 1.6479877513 1.6468433897 1.6228153881 1.5849121111 1.5803547479 1.6251750679 1.6522674932 1.6363765816 
1.6323630346 1.6308716186 1.615665778 1.6100916282 1.6185698264 1.6411570481 1.5778201477 1.496962735 1.474817066 
1.5077805083 1.4357818158 1.3614112528 1.3855139084 1.4866205866 1.4870269005 1.466621112 1.4919664609 1.5640925145 
1.6896843378 1.7970455755 1.8357464536 1.8621415296 1.8920414223 1.9333088673 1.9561815682 1.9471225159 1.9079388203 
1.86195193 1.8063730887 1.7999574462 1.84125225 1.8434712021 1.8475313546 1.8563287386 1.9013401209 
Curvature 1 116 double
0 0.13930446144 0.27265418877 0.15625125535 0.28982758066 0.20419286681 0.15268257473 0.2147547299 0.13293939505 
0.092433468865 0.30036773536 0.1833671865 0.24225069862 0.10961450193 0.14480814183 0.10990375277 0.22127741114 0.12100313155 
0.33068179779 0.22190044678 0.25235814353 0.26364464908 0.36654021774 0.32040821376 0.38438504929 0.39630341717 0.36698141185 
0.13995165469 0.26761354104 0.26769866842 0.201761858 0.14101194697 0.12551304524 0.14841170858 0.10898602777 0.1639775143 
0.32090144069 0.15760232521 0.13336270283 0.33041137792 0.33404464488 0.20331232382 0.21972169762 0.38413297024 0.3209294644 
0.13172924075 0.26422309701 0.62248001139 0.080807315833 0.17727896322 0.084798782086 0.43464216977 0.13803956855 0.15696971375 
0.083546408648 0.12103606924 0.12505869339 0.1313691367 0.038270912588 0.13744211236 0.14280578605 0.085225405608 0.16360892248 
0.12754649902 0.27002541358 0.11897689514 0.32493440376 0.11325128161 0.063878785574 0.12486258038 0.28925899165 0.23816647889 
0.080146933036 0.15857426339 0.34777429813 0.2021100725 0.19826812443 0.11190275751 0.181802336 0.08799679288 0.072161523442 
0.070667177648 0.1423562423 0.0018674767826 0.15028890831 0.1475843271 0.24947330539 0.070082217964 0.09469696482 0.1642613025 
0.30387493056 0.2101216774 0.19286379483 0.14112737629 0.31241731722 0.43723531762 0.20298930912 0.10624672122 0.090075260926 
0.2409670629 0.23708161918 0.32969159119 0.049754986943 0.16472974256 0.14527675466 0.084195021874 0.045451299216 0.014617369717 
0.13596850651 0.12051069536 0.2461338238 0.11611276952 0.23960014017 0.10884547097 0.17270588188 0 
Torsion 1 116 double
0 0 0.57937422327 -0.19537936081 -0.048654029842 1.1578419309 -0.39964464363 -0.38241867591 0.4456064145 
-1.0547356583 -0.35998528404 0.32796822338 0.16643331144 -1.2913018772 -0.2242879226 -0.26527237376 0.14910377606 0.39907375692 
-0.22827435594 -0.64428506022 0.0036261402829 0.16563700932 0.22583371559 -0.10986797997 -0.014892543694 0.094379434507 -0.23372533757 
0.043416218679 -0.1897882334 0.22067250692 0.92049012743 0.061542052523 0.088134677928 0.39954278833 0.76156594555 0.33945563075 
0.32839917658 1.4091717063 -0.65417220129 -0.49914524534 -0.08585048771 1.0772943955 0.10953930001 -0.39118910324 -0.73081692051 
0.61671603432 0.31219525532 -0.069609006536 -3.580293851 0.49727634677 -0.90048169782 -0.025046697521 0.48061087597 0.028746573355 
1.1597430941 0.082551180636 0.22515218332 0.44854130637 1.7577390005 0.43465294113 -0.040690137789 -0.059069396329 0.3755608473 
0.20370949042 -0.10615017033 -0.23027026847 0.080762175593 0.3885463746 -0.47192676209 0.76388600208 -0.15551264526 -0.53976566953 
0.65511326674 1.4856200694 0.32913627448 0.56310451988 0.91166625882 0.10891652432 -0.47796222624 -0.83506424904 -0.12916766689 
-0.75775265726 -0.32629115969 -2.8437652519 0.68023146088 1.4655842686 0.45855367927 1.3876069848 -1.013492813 0.29730529023 
0.32477140361 -0.26911037511 -0.32338139872 1.5439945485 -0.33590275689 -0.46313722539 -0.57823659026 -0.098144150725 0.46680382027 
-0.028231348528 0.07249781308 0.030591467326 -2.5848535506 -0.34307318963 -0.47306422144 0.43371251096 0.11646420942 -4.6504548657 
-0.42094657748 -1.0818112241 0.070391683091 1.5729803372 0.33482992395 1.5273087374 0 0 
FrenetTangent 3 116 double
0.49695020836 0.13450349278 0.85729184112 0.49695020836 0.13450349278 0.85729184112 0.39662536782 0.23195631086 0.88819175151 
0.36605711147 0.38959388181 0.84511466583 0.32291668589 0.46594514467 0.8237839135 0.17201233545 0.58321266759 0.7938984449 
0.15480533695 0.66379189847 0.73172100091 0.081899548678 0.73817025267 0.66962462768 -0.029858626645 0.78704692939 0.61617010099 
-0.061272056267 0.82610248562 0.56017891639 -0.14450350813 0.85722636974 0.49424860865 -0.33396399752 0.83562993378 0.43610854398 
-0.42093157761 0.82461332358 0.37792786818 -0.50174600017 0.81460952253 0.29096782831 -0.57394776176 0.7707314411 0.27668937903 
-0.64344045382 0.70767145882 0.291865532 -0.71213801342 0.60951829906 0.34834880932 -0.78285561718 0.49126253457 0.38183531106 
-0.86355301179 0.33061972004 0.38074505453 -0.90057336 0.13130559727 0.41439891818 -0.85925369375 -0.043651454777 0.50968386307 
-0.77202900752 -0.23249895466 0.59153651419 -0.6312075734 -0.46835474068 0.61824011207 -0.46895502824 -0.69492536887 0.54512375951 
-0.27544266192 -0.84435122843 0.45956756091 -0.0073390627583 -0.93833203512 0.34565753286 0.24768217423 -0.95247249614 0.17734058947 
0.40132717876 -0.91058527541 0.098848124855 0.51284074762 -0.85793395693 0.030719588665 0.68024027116 -0.73062142725 -0.058868527469 
0.72952760648 -0.66955515794 -0.13958997761 0.70482356669 -0.65424556924 -0.27420152254 0.67826862609 -0.63281609707 -0.37349090771 
0.63875347231 -0.61756556471 -0.45891913764 0.57402196368 -0.62019465811 -0.53465631135 0.46953575966 -0.66214769384 -0.5840347609 
0.33244798225 -0.72213124326 -0.60663399724 0.17802432313 -0.7917494972 -0.584328738 0.13418930803 -0.85458965416 -0.50166697381 
0.034003454833 -0.9126380064 -0.40735197844 -0.16620482422 -0.93700913843 -0.30722928068 -0.30606497769 -0.92455999118 -0.22696486983 
-0.34620892683 -0.93411790325 -0.086966210711 -0.38056750319 -0.91763170087 0.11454447638 -0.47003326961 -0.82274108738 0.31963389775 
-0.58339792378 -0.71746931806 0.38063715029 -0.61705993084 -0.62220408998 0.48176665738 -0.58955791666 -0.48096916082 0.64891457777 
-0.52725376369 -0.25923385977 0.80919792055 -0.50881870689 -0.20112063899 0.83705078227 -0.44353373061 -0.13955149967 0.88532661134 
-0.29566732976 -0.029130575266 0.95484671005 -0.12154313721 0.10402428853 0.98712016148 -0.018160382885 0.15548675537 0.98767103299 
0.055853286978 0.18593084181 0.98097407326 0.11240476323 0.14412716452 0.98315437732 0.18234658959 0.068823733054 0.98082262159 
0.22867090811 -0.020802415409 0.97328149849 0.22662307574 -0.096239931725 0.96921610443 0.16163916528 -0.12921998841 0.97835319535 
0.046110863973 -0.1243348033 0.9911683232 -0.028186104935 -0.12041278257 0.99232368977 -0.11618202493 -0.1684475696 0.97883969749 
-0.21332484203 -0.17919867037 0.96040634541 -0.39380720023 -0.17133283666 0.90308413126 -0.53896276985 -0.18338117061 0.82212558589 
-0.68490450328 -0.22563749025 0.69281566407 -0.81099214867 -0.23727220174 0.53478372926 -0.8462562991 -0.22249483658 0.48409330085 
-0.87038982931 -0.22629156307 0.43727985721 -0.89823033798 -0.24827680979 0.3626856568 -0.93579454274 -0.29243232212 0.19690584237 
-0.93671470072 -0.32383381996 0.13303092311 -0.93905369836 -0.33893629606 0.057448575383 -0.95464935664 -0.29541068641 -0.037109732168 
-0.95838670162 -0.27954543414 -0.057872967808 -0.92983466485 -0.36467895541 -0.049160507728 -0.90659951991 -0.41114897136 -0.095046482557 
-0.89267296837 -0.40318568994 -0.20143552561 -0.85690512368 -0.4315628389 -0.28189913993 -0.84725801656 -0.45351543709 -0.27654584012 
-0.8462093909 -0.46264387592 -0.26436775677 -0.80456636592 -0.52155136541 -0.28400200011 -0.78221184753 -0.55759158577 -0.27791410375 
-0.79621759477 -0.51669004273 -0.31475219065 -0.82616313941 -0.45960930601 -0.32590451502 -0.81694356085 -0.50869353968 -0.27172431078 
-0.77345435428 -0.57380224435 -0.26929416298 -0.7576124059 -0.60243934593 -0.25117777947 -0.77663520944 -0.60555956462 -0.17359540653 
-0.80794857624 -0.589252998 -4.9934642989e-05 -0.78101926159 -0.60068500423 0.17084038959 -0.77388007243 -0.55912057119 0.29747910915 
-0.77148862988 -0.48188841354 0.41543814324 -0.67669410757 -0.58284625687 0.4498614516 -0.46884790312 -0.72583391648 0.50333564291 
-0.23252337857 -0.73290944589 0.63935641277 -0.1383896237 -0.69704813451 0.70354261436 -0.084855584424 -0.66110066488 0.74548336044 
0.038852082751 -0.59786963024 0.80065124799 0.21977095238 -0.48480908915 0.84655825291 0.40098691323 -0.34578067387 0.84831905613 
0.51555634373 -0.24907187786 0.81985660703 0.54080928119 -0.20792114443 0.81504240324 0.57568153996 -0.1302503073 0.80723331324 
0.5954964395 -0.052999467057 0.80160778878 0.60358281941 -0.042409764833 0.7961715845 0.60152712381 -0.067998976101 0.79595305048 
0.64336017645 -0.097391413037 0.75934352965 0.70492658092 -0.10414753239 0.70159233677 0.79516726008 -0.0030399150656 0.60638254214 
0.85967695625 0.058483564986 0.50747926412 0.90674779896 0.005626639727 0.42163582629 0.9332005267 -0.12207524439 0.33798581578 
0.91306742998 -0.2037893574 0.35323896462 0.91306742998 -0.2037893574 0.35323896462 
FrenetNormal 3 116 double
0.8411790285 -0.3173913647 -0.43781338904 0.8411790285 -0.3173913647 -0.43781338904 0.50448068669 -0.86342295118 0.00021004985886 
-0.38489337206 -0.76344575145 0.51865949981 0.86046844313 -0.50699145412 -0.050534382685 0.42310939176 -0.77152734352 0.47510419995 
-0.085906509283 -0.72879977858 0.67931653476 0.84587664328 -0.40679460928 0.34497949245 0.82421419853 -0.32936278032 0.46064206699 
-0.39116874227 -0.53621231626 0.74797283839 0.92642391667 -0.058282174176 0.37194342957 0.94153496177 0.31758022863 0.11249317377 
0.44842352273 -0.17299832191 0.8769195658 0.8301521706 0.54799846262 -0.10268913586 0.81488677202 0.50417402506 0.28595122179 
0.43405020623 0.65134192165 -0.62237779489 0.52952537938 0.7921386628 -0.30351146845 0.49390862734 0.86388017168 -0.09881961759 
0.38217633725 0.92169760642 0.066443732283 -0.038672674666 0.92530963759 -0.37723533611 -0.34379835498 0.78706217631 -0.51218729165 
-0.41618530389 0.88833918294 -0.19401878487 -0.59614062703 0.80287992971 -0.00041384780281 -0.50198731721 0.71753088107 0.48286454423 
-0.91394011739 0.37823407678 0.14714769786 -0.74341277746 0.23630543346 0.62569735849 -0.8714875069 -0.13905972025 0.47028918713 
-0.86868830591 -0.344189096 0.35625060473 -0.70620665818 -0.4012571456 0.58332226003 -0.70645102744 -0.67490917974 0.21313034727 
0.067924858941 -0.13215829876 0.98889857802 0.36121926806 -0.0016682148459 0.93247941395 0.173133252 -0.35634224738 0.9181748634 
0.55751654775 -0.039559448315 0.82922273789 0.7861786544 0.23485472064 0.5716348341 0.88234443869 0.37564982588 0.28347045671 
0.92646797027 0.37039706746 0.066806530281 0.22401425729 0.6108308135 -0.75940985628 0.5267017598 0.49032474636 -0.69438238696 
0.70456255663 0.31096611175 -0.63788061669 0.98592675298 -0.16359642038 -0.034418730349 0.24200652999 0.15501417825 -0.95781179988 
0.28826494031 -0.017706092811 -0.95738697425 0.070574407318 -0.15232379874 -0.98580764522 0.6726969548 -0.56836466648 -0.47375142523 
0.70327080703 -0.68068299339 -0.20513613646 -0.035914481963 -0.58931555203 -0.80710428702 -0.22025967895 -0.67720695776 -0.70205157231 
0.38230026368 -0.92286486513 -0.04655050043 -0.40657054378 -0.80091748446 -0.439581137 -0.8947491716 0.011656476969 -0.4464168976 
-0.72929806374 -0.63870672469 -0.24531215635 -0.911984622 -0.40426148144 -0.06969005572 -0.87365595574 -0.48283694756 0.059947919606 
-0.96472299131 -0.24311914742 0.10100806997 -0.4663144544 0.88135777665 -0.075890046524 -0.83374898766 0.53957420032 0.1171422551 
0.03731883229 0.99922411117 0.01258890033 -0.024331786235 0.99423626839 0.1044136332 0.96426202538 0.2315788985 -0.12872435733 
0.93296468269 -0.34924314171 -0.08721312302 0.35395102105 0.92719834558 0.12256387171 0.96693658422 0.20606842084 0.15023131507 
0.97461912183 0.029284641483 0.22194588784 0.91914413605 -0.083536643709 0.38496192842 0.71455285267 0.41726954858 0.56151611247 
0.68783484969 0.11348585646 0.71694084828 0.56034069203 -0.052129645939 0.82662011158 0.47286365857 -0.73228592544 0.49005844938 
0.20733898946 0.63707941172 0.74238828561 0.36738721124 0.028845779458 0.92962065275 0.030830807196 0.48850286475 0.87201743816 
0.0070580930089 0.36244122788 0.93197990303 0.028271332813 0.090406264973 0.99550361074 0.19857508355 -0.7246156013 0.65992436426 
-0.18693311637 0.76775599213 -0.61286764196 -0.36508934548 0.89756109641 0.24717169747 0.22520278873 -0.6618678535 0.71499276112 
-0.28537646389 0.15969784695 0.9450168631 -0.49534187813 0.53805178168 0.68200931372 0.31513636599 -0.010058575892 -0.9489930958 
-0.48148633557 0.45136325821 0.75129362955 -0.50566206093 0.85243150938 -0.13291501776 -0.40973965775 0.79645464078 -0.44471723381 
0.22579481387 -0.73642967018 0.63772097575 0.54882494718 -0.78730923585 -0.28095434591 -0.40237170518 0.84028196298 -0.36335001522 
-0.52281705551 0.33731823305 0.78286572037 -0.0051343558196 0.39031478367 -0.92066715378 0.39701085553 -0.25654820414 -0.88122948177 
-0.020238624334 0.027834687027 -0.9994076387 -0.28790300914 0.10356574131 -0.95204306339 0.16969904194 -0.63559025353 -0.75314491619 
-0.23135894622 -0.39577619383 -0.8887261909 -0.59284674838 0.79366228047 0.13650244504 -0.84326394973 0.19824642491 -0.49960410937 
-0.75144483399 -0.28196536717 -0.59651168739 -0.82842804201 -0.30781482007 -0.46792843017 -0.54734749422 -0.59425763459 -0.58929498921 
-0.90105308499 -0.36733798685 -0.2305778425 -0.73454831156 -0.65329164588 -0.18343610172 -0.81676151916 -0.55430954445 0.16012979034 
0.49171530047 -0.69759074142 -0.52113647039 -0.72613297195 -0.60448685258 0.32760731388 -0.12699961468 -0.98949374852 -0.069088490462 
-0.36379380383 -0.90743915127 0.21025759212 0.18054634487 0.9799147784 -0.084676114894 -0.38637966795 0.84730967974 0.36438586528 
-0.66638399274 0.41701720755 0.61808496409 -0.69388334604 -0.30624549675 0.65172049055 -0.42258672426 -0.71994784048 0.55054115874 
-0.50931612933 0.02150010778 0.86031088902 -0.26833824774 0.7790188266 0.56667826199 -0.010621033861 0.93075139011 0.36549834945 
0.3466332008 0.84413729795 -0.40899590012 0.3466332008 0.84413729795 -0.40899590012 
FrenetBinormal 3 116 double
0.21320959739 0.93870737296 -0.2708692222 0.21320959739 0.93870737296 -0.2708692222 0.7669338657 0.44799227362 -0.45947292458 
0.84726576898 -0.51513803185 -0.12951264363 0.39410515393 0.7251584569 -0.56464709335 0.88960114605 0.25418210512 -0.37947497727 
0.98420291572 -0.16802142202 -0.055798050406 0.52705328789 0.53816616759 -0.6577172704 0.56549042198 0.52161028544 -0.63886093383 
0.91827705525 -0.17329464833 0.3560003015 0.34764559937 0.51163086223 -0.7857330323 -0.044496787757 0.44818011129 -0.89283516044 
0.78850044466 0.53859488226 -0.29695555489 -0.24310147052 0.19002371106 -0.95120590004 0.080891999343 0.38959157865 -0.91742840935 
-0.63054325852 -0.27377875643 -0.7262646843 -0.460936354 -0.031682518779 -0.88686746223 -0.37840632988 0.11123026164 -0.91893224908 
-0.32896419725 0.2028894355 -0.92228977761 -0.43298042392 -0.3557540087 -0.82823127072 -0.3787951701 -0.61532729593 -0.69129338055 
-0.48037589902 -0.39597693385 -0.78258626585 -0.49617875014 -0.36881927193 -0.78598918095 -0.72669795297 -0.047203457604 -0.68533343618 
-0.29806845157 -0.37948647698 -0.87586826177 -0.66879262889 -0.25237419437 -0.69930228482 -0.42327658321 -0.27103235657 -0.8645104949 
-0.29037410829 -0.22884126025 -0.92914721914 -0.48812552025 -0.32084580199 -0.8116596872 -0.1954485081 -0.10339211351 -0.97524866139 
-0.68057011756 -0.73091044222 -0.050933687714 -0.61052795203 -0.75628033968 0.23515030851 -0.71412642292 -0.68743289856 -0.13213425775 
-0.5302539963 -0.78552391646 0.31903428667 -0.22895831186 -0.7484663294 0.6223955697 0.031693247057 -0.64841933951 0.76062336162 
0.17645237083 -0.58423666431 0.79216922492 0.95818837026 0.0042954573899 0.2861059177 0.83939173562 -0.17105018592 0.51591021318 
0.70882675518 -0.26531480663 0.6535844892 -0.018010945685 -0.30862612615 0.95101289165 0.92073724204 -0.34807962773 0.17630514423 
0.89277248119 -0.35652522645 0.27540344901 0.92205619598 -0.36708244564 0.12273080119 0.57144337644 -0.0076621817159 0.82060572658 
0.40627211879 0.14801499976 0.90168427143 0.78609617206 -0.51533411546 0.34129687621 0.77711462265 -0.55682977893 0.29331461022 
0.75884779572 0.28481265184 0.58568914647 0.75881744606 -0.56398729742 0.32575207121 0.051978358281 -0.9901462041 -0.13003362944 
0.617013099 -0.76889864704 0.16759983965 0.39180520037 -0.90870875533 0.14400376016 0.48620517427 -0.86179600311 0.1446104337 
0.25727409581 -0.95200987507 0.16579275437 -0.87744857332 -0.44992869434 0.16627739229 -0.52116441441 -0.83912035854 0.15577123302 
-0.97278821978 0.033443013742 0.22926980676 -0.97367856386 -0.047245297774 0.22297519171 -0.20993219536 0.96419573135 0.1620341476 
0.35700236565 0.92874651259 0.099896077307 -0.93483914027 0.35468858136 0.016486117474 -0.22701405062 0.96393009198 0.13893667116 
-0.067897563498 0.98337696043 0.16840330923 0.0094839981085 0.98166526283 0.19037690391 -0.44601945413 0.89008846195 -0.093857213089 
-0.24039351267 0.96757877373 0.07747435504 -0.16825588741 0.97004350536 0.17523000329 0.24545923621 0.64362517904 0.72491129959 
-0.44657819974 0.7368323769 -0.50758837641 -0.24126520045 0.96825954513 0.065303570533 -0.35119515245 0.82209992587 -0.44812239041 
-0.35002250324 0.87393822058 -0.33721837708 -0.34260601767 0.93645549519 -0.075314156649 -0.22183900031 0.62262730161 0.75041501933 
0.21575666886 -0.57654582368 -0.78806343212 -0.046013757224 0.24777679007 -0.9677238224 -0.35687674966 0.62680736104 0.69264097316 
-0.34884845621 0.90107596634 -0.25761765756 -0.14265354109 0.72405372474 -0.67483047568 0.42760136132 -0.89119165917 0.15144141582 
-0.22825550467 0.7630411871 -0.6047045323 0.31141426261 0.036670083865 -0.94956646002 0.46931656529 -0.23399065933 -0.85146364156 
-0.56129693016 0.43669524914 0.70302419273 -0.12745840274 -0.41097865269 0.90269092308 0.41315884263 -0.187502281 -0.89114682593 
-0.35837227615 0.74630248159 -0.56089385597 0.65268451859 -0.69621922131 -0.29880046027 0.48910135152 -0.753313104 0.43965808908 
0.58890533724 -0.80746896816 -0.034414665818 0.55418477997 -0.79274943262 -0.25382585907 0.61017363813 -0.53236192247 0.58675285669 
0.59268738131 -0.7817574824 0.19384763796 -0.43659800472 -0.17432849858 -0.88260509678 0.26284511566 -0.65868314135 -0.70501699588 
0.61746541595 -0.61914398636 -0.48517747708 0.54272948259 -0.64759086986 -0.53485584414 0.83259248758 -0.45804342002 -0.31142571346 
0.43196510704 -0.71247084758 -0.55298412061 0.64198092377 -0.58152400854 -0.49969022506 0.41486156274 -0.75708431136 -0.50469122169 
0.70172481766 0.67181125113 -0.2371748788 0.42456592943 -0.76900223846 -0.47789049877 0.80775111416 -0.062745351154 -0.58617502377 
0.71626675117 -0.41682759414 -0.55965766137 -0.77658920767 0.19485491764 0.59911665275 -0.69919659004 -0.52672805684 0.48340633282 
-0.37685548634 -0.9036656247 0.20339218556 0.14698441279 -0.94623833531 -0.2881468292 0.43489020336 -0.69402151689 -0.57376357946 
0.039403188912 -0.99805682102 0.048269770163 -0.32527375223 -0.62697528559 0.70788344901 -0.35919906821 -0.34467301101 0.86728112218 
-0.21483317347 0.49588518835 0.84139443043 -0.21483317347 0.49588518835 0.84139443043 
SiphonLabel 1 116 int
0 0 0 0 0 0 0 0 0 
0 0 0 0 0 0 0 0 0 
0 0 0 0 0 1 1 1 1 
1 1 1 1 1 1 1 1 1 
1 1 1 1 1 1 1 1 1 
1 1 1 1 1 1 1 1 1 
1 1 0 0 0 0 0 0 0 
0 0 0 0 0 0 0 0 0 
0 0 0 0 0 0 0 0 0 
0 0 0 0 0 0 0 0 0 
0 0 0 0 0 0 0 0 0 
0 0 0 0 0 0 0 0 0 
0 0 0 0 0 0 0 0 
