# vtk DataFile Version 5.1
vtk output
ASCII
DATASET POLYDATA
POINTS 105 float
78.434 73.9008 32.8691 78.6985 74.1592 32.5231 79.0163 74.391 32.0623 
79.4458 74.6162 31.5107 79.9352 74.7554 30.9888 80.5066 74.6308 30.27 
80.8425 74.4307 29.9414 81.2325 74.029 29.5334 81.6629 73.4801 29.1518 
82.0594 72.9181 28.7919 82.3643 72.3557 28.3965 82.7617 71.6514 27.9571 
83.0731 71.076 27.6341 83.2604 70.6014 27.317 83.4962 70.0586 26.9034 
83.7602 69.4068 26.3051 84.0188 68.8849 25.8937 84.131 68.1709 25.4607 
84.2006 67.6258 25.2071 84.2316 67.1317 24.9132 84.1892 66.4949 24.4887 
84.0362 65.75 23.8775 83.9291 64.9524 23.3702 83.6263 64.368 22.9958 
83.0892 63.7871 22.7041 82.5988 63.4438 22.4864 81.8545 63.0014 22.09 
81.2475 62.6923 21.6406 80.5259 62.4618 21.0496 80.0348 62.4642 20.5572 
79.566 62.5819 20.0877 79.1844 62.8323 19.6482 78.9469 63.1923 19.3579 
78.9164 63.7249 18.9643 78.9528 64.5163 18.3885 79.208 65.1272 17.9917 
79.658 65.6692 17.5899 79.9672 66.039 17.3693 80.4041 66.5199 17.1066 
81.1412 67.0923 16.9897 81.7015 67.3384 16.9723 82.2008 67.4968 17.0004 
83.1299 67.6363 17.0818 83.9347 67.6457 17.3826 84.437 67.5834 17.7612 
85.2184 67.5244 18.3374 85.894 67.5301 18.9641 86.4815 67.5001 19.6521 
87.032 67.4805 20.2967 87.4467 67.56 20.8855 87.7167 67.7785 21.4532 
88.0867 68.2612 22.0065 88.113 68.9144 22.612 88.1021 69.6197 22.8713 
88.1265 70.2214 22.9302 88.0003 70.8887 22.9122 87.7066 71.7338 22.6185 
87.3669 72.371 22.2072 87.1 72.7888 21.8874 86.58 73.2693 21.2024 
86.0147 73.5393 20.5428 85.4079 73.7605 19.7881 84.818 73.8868 19.0316 
84.3381 73.9084 18.1891 83.9621 73.9057 17.4039 83.5977 73.987 16.4986 
83.2981 74.0146 15.6895 83.0695 74.018 15.0627 82.721 74.1113 14.1399 
82.4747 74.2172 13.2654 82.1983 74.2761 12.5616 81.9047 74.3422 11.8869 
81.6326 74.4888 11.2916 81.1891 74.7048 10.481 80.8127 74.8519 9.86888 
80.6056 74.9852 9.56973 80.2073 75.1445 9.03042 79.7197 75.3937 8.38779 
79.1484 75.7318 7.81575 78.7056 75.9755 7.50715 77.9649 76.3613 7.14146 
77.159 76.8226 6.82888 76.6584 77.2046 6.62679 75.9984 77.6706 6.53561 
75.1466 78.1706 6.45585 74.3693 78.5712 6.41063 73.6888 78.9567 6.44349 
72.8553 79.401 6.52195 72.2542 79.7112 6.57392 71.4998 80.1177 6.56109 
70.6033 80.5058 6.63219 69.8277 80.8173 6.7973 69.0008 81.2161 6.93525 
68.185 81.5989 7.01029 67.5676 81.8659 7.14956 67.236 82.0789 7.27544 
66.6861 82.4662 7.39711 66.0422 82.8191 7.38703 65.337 83.3306 7.34624 
64.6236 83.8798 7.19257 64.173 84.2863 6.99662 63.7012 84.7341 6.68821 
63.3903 85.109 6.40487 62.966 85.7325 5.77853 62.8632 85.9218 5.59067 

LINES 2 105
OFFSETS vtktypeint64
0 105 
CONNECTIVITY vtktypeint64
104 103 102 101 100 99 98 97 96 
95 94 93 92 91 90 89 88 87 
86 85 84 83 82 81 80 79 78 
77 76 75 74 73 72 71 70 69 
68 67 66 65 64 63 62 61 60 
59 58 57 56 55 54 53 52 51 
50 49 48 47 46 45 44 43 42 
41 40 39 38 37 36 35 34 33 
32 31 30 29 28 27 26 25 24 
23 22 21 20 19 18 17 16 15 
14 13 12 11 10 9 8 7 6 
5 4 3 2 1 0 
CELL_DATA 1
FIELD FieldData 2
Length 1 1 double
80.96653574 
Tortuosity 1 1 double
1.4074711691 
POINT_DATA 105
FIELD FieldData 7
MaximumInscribedSphereRadius 1 105 double
1.6553162706 1.6622584903 1.6608263495 1.6947776927 1.7823535119 1.7573970984 1.6940415839 1.6175056442 1.5575055061 
1.5532021936 1.6028675778 1.656036214 1.6625389745 1.6671635817 1.7186186796 1.807740562 1.8569418466 1.7312930152 
1.5971121531 1.5198223677 1.4278603594 1.4432224225 1.4900158157 1.6336298873 1.6851802086 1.6459018883 1.5616823467 
1.5533521764 1.5870325345 1.6284377414 1.6981959625 1.785577908 1.7864316099 1.7003451155 1.6769994809 1.6387762782 
1.5740884826 1.5916708207 1.651843068 1.7764362139 1.8546244805 1.8836285979 1.9413196078 2.0195453347 2.0689140789 
2.0770346591 2.1010384036 2.0494123856 1.9530066551 1.8734458986 1.8857367176 1.8258173695 2.0256666666 2.1011617178 
2.1009795669 2.1121917541 2.1374021292 2.1885864124 2.254622704 2.306546639 2.3290191923 2.3275915648 2.2981242358 
2.2148344725 2.1700710426 2.1591482994 2.1033949689 2.0482111109 2.0316968256 2.0013767281 1.9596099827 1.9479202211 
1.976884157 2.0229409992 2.0302619926 2.0287629131 2.0368682176 2.0984487425 2.1527040346 2.1794806259 2.1689025049 
2.177423881 2.1908920997 2.2503259625 2.2829409686 2.3082240065 2.3453605458 2.3754122797 2.4235362698 2.4774368136 
2.5227007456 2.5503875258 2.5946879183 2.5638480309 2.5276246425 2.4566503881 2.362151504 2.2531065056 2.1642011487 
2.1310148686 2.1270471204 2.1493775783 2.1750429806 2.1965682689 2.2043394368 
Curvature 1 105 double
0 0.26999861485 0.14547507487 0.20444030151 0.41660482104 0.41423885769 0.36586711359 0.21189558373 0.06140328739 
0.16375387723 0.069207253038 0.051252777871 0.21670142889 0.091931670976 0.1181920365 0.13211007238 0.34604623451 0.15281370143 
0.20026669581 0.1804394693 0.16358515766 0.13285952705 0.35589494598 0.37240222824 0.27354498471 0.13375064807 0.18648359824 
0.17350578146 0.32471579475 0.2527260433 0.37206360116 0.63958777246 0.755964497 0.1018417734 0.35403985835 0.32955476899 
0.13350684443 0.095241693611 0.38324514412 0.34447219505 0.23725235856 0.22075962482 0.34187080234 0.42084587383 0.049226898614 
0.13841637081 0.13470049056 0.011354580546 0.20759176219 0.40768789581 0.43870096446 0.54663150101 0.50024822297 0.38957112999 
0.40870452355 0.40927792305 0.28040504487 0.1226351149 0.36031686635 0.22936041988 0.086820868011 0.096889303986 0.18751700076 
0.08217860852 0.11612825345 0.063091672967 0.035884154843 0.10866831274 0.093465197348 0.12751018743 0.050588631859 0.1879784331 
0.087516350005 0.06734149757 0.28338809588 0.22606464338 0.088000391609 0.18689410214 0.22592219236 0.18279070621 0.10110074115 
0.15427634645 0.27558703917 0.099346010091 0.066383478764 0.12280508771 0.05572657915 0.017999936622 0.12181510621 0.13385418335 
0.13713102917 0.090770903077 0.073079335269 0.15735785987 0.34610441968 0.24986490347 0.31744154567 0.16285861667 0.1410872845 
0.20994497063 0.19587853123 0.21104797166 0.23891597743 0.12610685319 0 
Torsion 1 105 double
0 0 -1.1408012366 0.99883083921 -0.13359307497 -0.084984491061 0.25217640116 -0.47360998356 2.711987106 
0.028116542548 -0.67605601797 2.8261920498 0.47629399885 1.1003227301 -0.041798254629 1.6762304476 -0.0031336199373 -0.66217308533 
0.0051953333099 -0.23897354493 0.00044232011351 0.98302155286 0.032238983689 0.11462292018 0.82372165033 1.3505511337 -0.14927897841 
-0.25105266246 -0.14886374782 -0.057154468931 -0.1517392755 0.65269973844 0.56186736155 -0.15528368856 0.18645698602 -0.0064993307125 
-1.4354251605 0.41894279702 0.32255022779 0.30993824311 0.011232507865 -0.50803890271 -0.36944423771 -0.1265018989 -2.5141199409 
0.57262501604 0.38330516286 -0.35539656163 0.026540979684 -0.65928662881 0.25166351481 -0.034677246023 -0.77571258684 0.45009735982 
0.26695252011 -0.31509451862 0.14011332443 -0.032724664036 0.11340279078 0.19051432594 -0.67459680888 -0.58838171359 -0.2586159067 
-1.1078969721 -0.098565096383 1.0019351422 0.24595044932 0.50365779358 0.69110861537 0.2039065017 3.2873142177 -0.14623265298 
-1.5492785942 1.9845459138 -0.18906112626 -0.49930907949 -0.21387831505 -0.46598358672 -0.23371069112 0.18501279725 1.2090469422 
-0.72204604373 -0.59546841383 -1.2626680569 1.0781084579 0.10126078524 -1.2224831342 -5.9118491894 0.2990624735 0.57202119957 
0.53499217812 0.98857261509 1.0651482919 1.3991542603 1.0281504657 2.0626975025 0.062804115827 -0.67856565141 0.3693414485 
0.084837439218 -0.25355869658 -0.027037827444 0.043818732845 0 0 
FrenetTangent 3 105 double
-0.52499216503 -0.44193684453 0.72737545471 -0.52499216503 -0.44193684453 0.72737545471 -0.55822206051 -0.34135512383 0.75621743605 
-0.6296630228 -0.24972054967 0.73563858299 -0.64981164387 -0.0089215033129 0.76004291607 -0.63747267551 0.22810720796 0.73593185123 
-0.6066921499 0.50296032833 0.61559365118 -0.55308159335 0.64090351067 0.53230014194 -0.52638355353 0.70718720497 0.47202395246 
-0.45983311675 0.73711044547 0.49519864288 -0.4201087159 0.75769901078 0.49940051651 -0.42970846803 0.77575626641 0.46211778544 
-0.37579645022 0.79126420038 0.48236707309 -0.31993887187 0.76951516271 0.55270745664 -0.30414214354 0.72689475561 0.61572848788 
-0.3198498348 0.71826845219 0.61788875518 -0.24046477409 0.8014700865 0.54756040111 -0.1257381879 0.87096850475 0.47497765404 
-0.08533993514 0.88148574849 0.46443510922 0.0085077552592 0.84407296371 0.53616084344 0.11242256923 0.79508851404 0.59598273529 
0.13524151643 0.80211005875 0.58166071372 0.24259069807 0.81787669463 0.52175421952 0.5304298607 0.73598269485 0.42068234544 
0.69760523499 0.6274691815 0.34587477848 0.77797081435 0.49501683561 0.38693635715 0.76675035785 0.42636370903 0.47990402828 
0.749924325 0.30457830214 0.5872355274 0.73848782451 0.13891047929 0.65980270671 0.70361707826 -0.087991283032 0.70511030434 
0.65513066945 -0.28355454691 0.70028610215 0.54542576782 -0.53772998834 0.64292860524 0.23188481236 -0.77215292777 0.59161582968 
-0.0035940053359 -0.80687976976 0.59070476575 -0.16841386436 -0.80998881175 0.56174273037 -0.44921497392 -0.73441146772 0.50876881123 
-0.5666571082 -0.68050443881 0.46455724135 -0.60637155329 -0.69142814039 0.39273485463 -0.72362984355 -0.64930299381 0.23402023792 
-0.8425432272 -0.53152031369 0.087218498214 -0.9342071062 -0.35660590222 -0.009450567614 -0.97620350024 -0.20354606356 -0.074804586224 
-0.97313696531 -0.083579347572 -0.21452025407 -0.88673806977 0.035861206454 -0.46087912678 -0.80007565586 0.075611890379 -0.5951149359 
-0.77082027916 0.028219103028 -0.636427356 -0.69276228301 0.013331605632 -0.72104277788 -0.64914258407 0.028262191374 -0.76014153556 
-0.61586353697 -0.038197578009 -0.78692633001 -0.49740669342 -0.2164803929 -0.84007310446 -0.4356602983 -0.47731819793 -0.76313002982 
-0.23723750486 -0.68000533222 -0.69376589311 -0.009536095281 -0.84352992251 -0.53699751649 -0.010038783614 -0.97157276169 -0.2365282046 
0.079871471167 -0.9962880411 -0.032104318369 0.26241676708 -0.94509128119 0.19478169979 0.36003970833 -0.84249933531 0.40070722284 
0.42727648243 -0.74311476976 0.51499053053 0.50416341362 -0.57559316327 0.64382587923 0.57608081124 -0.39838313446 0.71373789103 
0.61643538335 -0.25832097675 0.74382638507 0.61096594357 -0.17740912534 0.7715222732 0.55444467128 -0.076612562405 0.82868668493 
0.46539711259 -0.010296433008 0.88504209564 0.40079417903 -0.042550590315 0.91517947602 0.36052921468 -0.059119583522 0.93087247258 
0.34516655253 -0.020301568666 0.93832185167 0.34842365028 -0.058360800205 0.93551856044 0.31246610344 -0.10460825209 0.94415149621 
0.31285185116 -0.098641508748 0.94466585202 0.38078575943 -0.083541371187 0.92088166706 0.40217676507 -0.1512475393 0.90298285227 
0.44211814407 -0.22401903232 0.86853153071 0.48753948609 -0.21589634492 0.84598700803 0.52198679727 -0.25081711314 0.81524263826 
0.56331573419 -0.27226323795 0.78009493837 0.57805131272 -0.2665485935 0.77123830764 0.61738422857 -0.34241986612 0.70822690544 
0.69283324979 -0.39747814038 0.60165872045 0.78870812891 -0.41953252406 0.44936838856 0.8185993442 -0.44835702643 0.35898619823 
0.797650398 -0.51480278247 0.3142163868 0.79113189676 -0.57805083507 0.19991886857 0.83887167306 -0.53600141176 0.094851477161 
0.87320407883 -0.48272878408 0.066989235978 0.8801642242 -0.47461063955 0.0074618538463 0.87510694306 -0.47963334094 -0.064340473103 
0.88217861767 -0.46403414463 -0.080207226323 0.88373192404 -0.4672971502 -0.02551979318 0.9006120099 -0.43345982429 -0.031789752222 
0.91477427932 -0.38273890386 -0.12922441476 0.90085686417 -0.39929051143 -0.17036430895 0.89687011737 -0.42673289292 -0.11628856639 
0.90243146159 -0.40915632101 -0.1349391052 0.86586754103 -0.43790002017 -0.24190281879 0.80514435027 -0.54828673107 -0.22610669109 
0.84722090319 -0.52530370925 -0.079200721213 0.8415712287 -0.53921344307 0.031729006254 0.79609871765 -0.59524584553 0.10912935051 
0.75283319906 -0.61814809179 0.22613073874 0.68092585657 -0.63066273911 0.37229623602 0.61126991321 -0.64248493836 0.46212790134 
0.47805822136 -0.64925027136 0.5915525523 0.41652784497 -0.64228776975 0.64340576248 0.41652784497 -0.64228776975 0.64340576248 

FrenetNormal 3 105 double
0.012685517015 -0.85859087208 -0.51250443123 0.012685517015 -0.85859087208 -0.51250443123 0.6152411983 -0.78181000326 0.10124913193 
0.58307110078 -0.77766438496 0.23508763427 -0.17674126168 -0.97074990422 -0.16250276881 0.16810164461 -0.890980292 0.42177714062 
-0.4454831917 -0.85648285943 0.26073326872 -0.1412267059 -0.70179512604 0.698239657 -0.63271865062 -0.69665354171 0.33814338968 
-0.84492083242 -0.19158368531 -0.49940412339 0.45504960779 -0.30023699369 0.83832428216 -0.11586923955 -0.55491781254 0.82379641943 
-0.80065779448 -0.015140271221 -0.59893060393 0.24442858589 0.6306621944 -0.73655947686 -0.42011985822 0.47775104788 -0.77152656531 
0.71350270574 -0.24648031838 0.65586686267 -0.87032169086 -0.42780442649 0.24397443944 -0.16398827509 -0.4904385999 0.85590760328 
-0.51797350871 0.35894328792 -0.77644263171 -0.90541322167 0.23409026105 -0.35415907119 -0.71418840962 0.48167043878 -0.50786662026 
0.3460918377 -0.58831900156 0.73082227134 -0.97007888429 0.20995987625 0.12191722032 -0.80854212471 0.29008865828 0.51196504072 
-0.6731538927 0.73931904582 0.016467702495 -0.10215233102 0.70730645041 -0.69948730259 0.22558860907 0.52093757961 -0.82324590349 
-0.041979288495 0.90782326589 -0.41724651856 0.15401947767 0.91792417878 -0.36564081077 0.059611434626 0.99611482455 0.064820777282 
0.3876738688 0.92173626693 0.010546358587 0.39690991592 0.84131828933 0.36694148673 0.96855733054 0.23963739062 -0.066862683682 
0.99602618016 0.04967809473 0.073918437053 0.97155577306 -0.040152144139 0.23338205832 0.8727202018 -0.48258857778 0.073943992148 
0.32400340987 0.33436105909 0.88499970201 0.68064497522 -0.19594689625 0.70592296432 0.50537464691 -0.26754833707 0.82037452032 
0.52378351788 -0.77075444148 0.36275117827 0.27738771654 -0.74282550831 0.60931627167 0.18503111666 -0.96170971919 0.2021828427 
-0.15448330394 -0.45381819993 0.87760124784 -0.44189024114 -0.35853410419 0.82230548516 0.21369233569 0.96287406981 -0.16495184559 
-0.53598862349 0.51122177668 0.67183963156 -0.68620989793 -0.31969430662 0.65338466946 0.026509579885 0.99954303415 0.014524636284 
-0.47014899919 0.81930389686 0.32817837093 -0.5968442855 0.7881560911 0.15028930411 0.13176679051 0.80486433669 -0.57864575731 
-0.94676002181 0.32183312356 0.0083007037804 -0.11156195333 0.53456674299 -0.83773046254 0.21192730164 0.22909944775 -0.95005276794 
-0.87566904593 -0.054740545939 -0.47979911904 -0.38336642048 -0.28735109998 -0.87775824291 -0.39836215261 -0.52722018043 -0.75056410567 
-0.50419853994 -0.66865317744 -0.54652242464 -0.25298983801 -0.81123746538 -0.52715265022 -0.43827447854 -0.88760419709 -0.14168369976 
0.12910223868 -0.89871325169 -0.41910273587 0.012162577663 -0.97234796491 -0.233219868 0.63741019894 -0.60111861339 -0.48204216716 
0.83270310281 -0.33384842601 -0.4417587249 0.5598179236 0.8021176162 -0.20787309157 0.42900904312 -0.87565391819 -0.22176892586 
0.1649072402 -0.98290050142 -0.081928056425 -0.099552739117 0.99011068143 0.09884376893 0.928595407 0.24309565898 -0.28038379178 
-0.89730496431 -0.35677616084 0.25991262394 -0.86815942837 0.31050189115 0.38715343538 -0.064016097831 0.9792015651 0.19252593103 
-0.87043981071 0.12655046392 0.47573050775 -0.80817489254 -0.4782517858 0.34369837422 -0.14866601377 0.91440463931 0.37651370753 
-0.34857547472 -0.93432468157 -0.074380964146 0.0092109938152 0.94721570346 0.32046461383 -0.4649243935 0.56740980556 0.67962594189 
-0.5924744792 0.16182901591 0.78916751143 -0.46107662829 0.079805225842 0.88376437401 -0.1051139909 0.49751381479 0.86106390762 
0.51064050777 0.85367925518 0.10236210777 -0.26425611917 -0.028253460119 0.96403861202 -0.5316163346 -0.76930512064 0.35433558125 
-0.45518923253 -0.75872212544 0.46598658667 0.17807071631 0.34472208138 0.92166019042 -0.20663142376 -0.49056652336 0.8465506133 
-0.45186702999 -0.78617552349 -0.42159724083 0.066590788789 0.179534506 -0.98149530208 -0.28257485483 -0.63954691923 0.71493439526 
0.035462195373 -0.24257077682 0.96948535365 0.24469810192 0.79120501824 -0.56046182566 -0.17097274486 -0.092012494248 -0.9809699391 
0.019056689881 -0.27499015463 0.96125816378 0.49480211274 0.67830614419 0.54320497419 -0.0086306735476 0.37036999564 -0.92884421611 
-0.32204073341 -0.38928004829 -0.86298946114 0.52862202266 0.81012469736 -0.25348911593 0.2204585541 0.11732160939 -0.96831485886 
0.44986877911 0.23243559381 -0.86231767714 0.3889929701 -0.11926026208 -0.91348862013 0.76399172462 0.32663588191 -0.55644015434 
0.66192585388 -0.17638652519 -0.72852038935 0.90696173885 0.34234437931 -0.2453991243 0.90696173885 0.34234437931 -0.2453991243 

FrenetBinormal 3 105 double
0.85101251713 -0.25983367723 0.45635967817 0.85101251713 -0.25983367723 0.45635967817 0.55665644618 0.52177562059 0.64643932638 
0.51337371295 0.57695558879 0.63527134314 0.73926135697 -0.23992713525 0.6292277933 0.75191118163 0.39258275681 0.52963039376 
0.65838390105 -0.11605179717 0.7436817997 0.82106989266 0.31100850644 0.47866265813 0.56796783688 -0.1206652392 0.81415750093 
-0.2732440149 -0.64804620414 0.71089649431 0.78513598903 0.57943934686 -0.21865845979 0.89550262525 0.30044706098 0.32833917177 
-0.46660917709 -0.61128695176 0.6392215097 -0.91536538315 -0.10055650605 -0.38986485405 -0.85498354443 -0.4933335084 0.16007869389 
0.62338589339 0.65064420634 -0.43364979497 0.42978697845 -0.41788643568 0.80040869562 0.97841594107 0.029729504855 0.20449548358 
-0.8511289795 -0.30682664692 0.42595406911 -0.42444612865 -0.48243401789 0.76622640404 -0.69086618205 -0.3685482916 0.6219936296 
0.92840194534 0.10247051311 -0.35716889819 -0.0098341981927 -0.53571873474 0.84433922436 0.25476223319 -0.61170094263 0.74894469844 
-0.24537883539 -0.24431490899 0.93813615877 -0.61994057238 0.50465425558 0.60083089887 -0.60100221979 0.73948497333 0.30324627951 
-0.66019031052 0.28825158417 0.69358473031 -0.65644019799 0.37164375515 0.65648091039 -0.70807449046 -0.0035763691097 0.70612868908 
-0.64846956551 0.26457337953 0.71378438583 -0.73822303571 0.055045396508 0.6723070384 -0.09014505671 0.58851828956 0.80344264985 
-0.08898837878 0.58862307469 0.80349483158 -0.16648168102 0.58506916698 0.79371148393 0.19122070123 0.47722956811 0.85772173969 
-0.75757607679 0.65200950217 0.031017687773 -0.41113982667 0.69536460977 0.58943371333 -0.47005990659 0.7119153809 0.52174723253 
-0.12558557519 0.35131716023 0.92779551423 -0.22430590149 0.56660611954 0.79287096545 -0.11309381936 0.18353042261 0.97648674952 
-0.17070253527 0.88716601269 0.42871565213 -0.13575201809 0.93282756713 0.33377255666 0.56054841947 -0.2591454567 -0.78652978437 
0.34431423545 0.85898543484 -0.37893499442 -0.22180260418 0.94742694632 0.23062043746 0.76020467489 -0.010722472831 -0.6495951669 
0.6321961898 0.57208571877 -0.52253794885 0.62957404664 0.57614773761 -0.5212392006 0.89041429537 -0.35264817801 -0.28775275002 
0.21763232156 0.65879905034 -0.72015275038 0.99371172553 0.05191981436 -0.099203525239 0.97723387254 -0.059664158321 0.20360291395 
0.47626071652 0.066435019339 -0.87679080635 0.88553239806 0.15566571736 -0.43772200817 0.84361069445 0.11060628983 -0.52544004877 
0.75047894034 -0.026141294404 -0.66037715954 0.82572113587 0.10288967474 -0.55461547094 0.68996114411 -0.23119184131 -0.68593290643 
0.77674965731 0.35437940715 -0.52064883142 0.79156344502 0.15187309628 -0.5919137396 0.53506947659 0.79547905561 -0.28445338336 
0.3000184497 0.94257053419 -0.14679822179 -0.72523645694 0.59564819906 0.34530465459 0.82823301449 0.4793068854 -0.2903359835 
0.92394028657 0.18301489177 -0.33591650189 -0.93203552081 -0.12757294196 0.33916800029 -0.20018867177 0.96434517377 0.17309789575 
0.3113960826 -0.92896750417 -0.20012959786 -0.31827882799 -0.94689461657 0.045707469368 -0.91332129552 -0.13523489475 0.38412984053 
-0.21648575613 -0.96633351036 -0.13904482785 0.3303915746 -0.85127198804 -0.40764863523 -0.83989773176 -0.31773405761 0.44001916869 
0.74911315703 -0.23002199604 -0.62122408139 -0.81594842819 -0.17814111942 0.54999445826 -0.63457231474 -0.74886230233 0.19111051651 
-0.41104267354 -0.90322892864 -0.12337513121 -0.40662984424 -0.90422540729 -0.1304936113 -0.56466464613 -0.74260082207 0.36013588612 
-0.32093630894 0.078802439299 0.9438167519 -0.55161492494 -0.81551148003 -0.17510568385 -0.11695464471 -0.34766667649 -0.93029537951 
-0.17411892288 -0.43739416708 -0.88225219938 -0.44000199821 -0.80988358882 0.38792629987 -0.43759718113 -0.72752755578 -0.52840549074 
0.13257855688 0.40816707227 -0.9032289673 0.46323164106 0.86567934859 0.18977806025 -0.33022637544 -0.63489551804 -0.69846848328 
-0.40240582824 -0.89144284713 -0.20832474576 0.35858018517 0.46320805972 0.81046810191 0.40791213893 0.89968479981 -0.15548295054 
-0.43041177924 -0.87004110238 -0.24036260205 -0.073785300874 -0.59003758109 0.80399712828 0.59301609312 0.74980512592 0.29346922571 
0.4225003044 0.75664856906 -0.49897538589 0.11098028739 0.23010179822 0.96681773787 0.56358216587 0.79493271624 0.22462662123 
0.48047919411 0.75091053485 0.45307075903 0.62050338199 0.76683863974 0.16411597591 0.20655686365 0.69319701718 0.69051586328 
0.57733395964 0.73983908985 0.34543251174 -0.062649490162 0.68575997753 0.72512639905 -0.062649490162 0.68575997753 0.72512639905 

SiphonLabel 1 105 int
0 0 0 0 0 0 0 0 0 
0 0 0 0 0 0 0 0 0 
0 0 0 0 1 1 1 1 1 
1 1 1 1 1 1 1 1 1 
1 1 1 1 1 1 1 1 1 
1 1 1 1 1 1 1 1 1 
1 1 1 0 0 0 0 0 0 
0 0 0 0 0 0 0 0 0 
0 0 0 0 0 0 0 0 0 
0 0 0 0 0 0 0 0 0 
0 0 0 0 0 0 0 0 0 
0 0 0 0 0 0 
