# vtk DataFile Version 5.1
vtk output
ASCII
DATASET POLYDATA
POINTS 94 float
103.91 74.4547 27.8063 103.603 74.1521 27.5211 103.234 73.7799 27.0329 
102.915 73.4073 26.5786 102.485 72.6002 26.2074 102.337 72.0539 26.041 
102.076 71.1972 25.6987 102.017 70.6437 25.3996 102.013 70.17 25.1564 
102 69.4676 24.7611 102.001 68.6685 24.22 102.063 68.0265 23.7213 
102.12 67.5478 23.4026 102.258 66.9318 23.0944 102.453 66.2246 22.6077 
102.768 65.3931 22.1593 103.221 64.6952 21.8111 103.657 64.1963 21.5164 
104.287 63.5939 21.1462 105.004 63.1558 20.7741 105.364 63.0104 20.6042 
105.906 62.7785 20.2032 106.576 62.4878 19.6644 107.099 62.2684 19.1474 
107.681 62.2411 18.5082 108.105 62.4963 17.7486 108.304 62.784 17.1734 
108.444 63.269 16.3551 108.473 63.633 15.8841 108.262 64.2982 15.2529 
108.187 64.4956 15.0839 107.908 65.1645 14.7049 107.428 65.9878 14.4881 
106.788 66.7496 14.486 106.192 67.4236 14.5627 105.766 67.9954 14.7538 
105.397 68.5948 15.0512 105.212 68.9173 15.2406 104.929 69.7285 15.7143 
104.746 70.4623 16.1905 104.804 71.2493 16.7251 105.005 71.9546 17.1724 
105.105 72.3886 17.3697 105.234 73.0694 17.5753 105.288 73.6378 17.6743 
105.331 74.2092 17.6922 105.347 75.1556 17.4209 105.212 75.9939 16.9254 
105.07 76.4165 16.51 104.769 76.8352 15.8335 104.382 76.9691 15.0111 
103.968 76.8717 14.1246 103.662 76.6321 13.4958 103.359 76.2227 12.6498 
103.137 76.1578 12.1653 102.814 76.1368 11.2444 102.454 75.9937 10.426 
102.199 75.9503 9.74102 102.064 75.8994 9.28623 101.881 75.8551 8.41345 
101.822 75.8177 7.63373 101.899 75.8165 6.81423 102.037 75.821 6.1085 
102.354 75.8467 5.3141 102.476 76.0061 4.95723 102.814 76.0954 4.43374 
103.305 76.3497 3.88314 103.956 76.6192 3.32646 104.609 76.8234 2.94216 
104.961 76.9433 2.69119 105.465 77.242 2.37979 106.245 77.6285 1.97708 
106.961 77.963 1.61857 107.675 78.2702 1.43179 108.545 78.6332 1.41589 
109.112 78.9233 1.41793 109.708 79.3361 1.41378 110.446 79.8203 1.4513 
110.95 80.2341 1.52794 111.477 80.622 1.59621 111.946 80.8555 1.69604 
112.732 81.3139 1.80765 113.406 81.7008 1.8507 114.166 82.0787 1.94361 
114.939 82.3959 2.03017 115.383 82.59 2.13421 115.918 82.8176 2.24762 
116.813 83.2144 2.35643 117.644 83.7231 2.39005 118.45 84.2338 2.38307 
119.197 84.7302 2.32532 120.027 85.1074 2.288 120.776 85.4657 2.21513 
121.078 85.6845 2.14831 
LINES 2 94
OFFSETS vtktypeint64
0 94 
CONNECTIVITY vtktypeint64
93 92 91 90 89 88 87 86 85 
84 83 82 81 80 79 78 77 76 
75 74 73 72 71 70 69 68 67 
66 65 64 63 62 61 60 59 58 
57 56 55 54 53 52 51 50 49 
48 47 46 45 44 43 42 41 40 
39 38 37 36 35 34 33 32 31 
30 29 28 27 26 25 24 23 22 
21 20 19 18 17 16 15 14 13 
12 11 10 9 8 7 6 5 4 
3 2 1 0 
CELL_DATA 1
FIELD FieldData 2
Length 1 1 double
71.974170886 
Tortuosity 1 1 double
1.1909451368 
POINT_DATA 94
FIELD FieldData 7
MaximumInscribedSphereRadius 1 94 double
1.7702209274 1.7677759048 1.757191584 1.7879854066 1.6614705285 1.5689505077 1.5192954494 1.53015338 1.5456717102 
1.5389966024 1.551581623 1.5534074015 1.5973734034 1.6770734282 1.7811888301 1.915389095 2.0081571187 2.049069483 
2.121474266 2.1200520318 2.0833682377 2.0796792903 2.1536280273 2.2840287349 2.3421693261 2.3409224304 2.3893319009 
2.4870350529 2.5156915937 2.4922346912 2.4950995507 2.477567698 2.4575671649 2.4693298454 2.4954705489 2.5215936749 
2.5183083378 2.5521011444 2.6465376459 2.7933402613 2.7969772975 2.6506828565 2.5393075957 2.410047664 2.3390290849 
2.2864299248 2.200323877 2.1412424715 2.1446988488 2.1329516526 2.0875853674 2.1433570037 2.2591304044 2.4904609201 
2.412767922 2.3659926212 2.3740155856 2.3476037257 2.3451026605 2.291466766 2.1878095249 2.1033270333 2.0654468485 
2.0543324752 2.0195672114 1.9811668842 1.9357285796 1.9466650724 1.8891798601 1.8351158004 1.8183520907 1.8857813577 
2.0029250061 2.0648557688 2.0555882786 2.0442305345 2.0993861383 2.0856998816 2.0934508134 2.1220507994 2.1243786521 
2.1451302758 2.1810274008 2.2297076255 2.284184269 2.2767019246 2.2669254373 2.1996877336 2.1591756679 2.1633455521 
2.2223946919 2.2629954658 2.2930414266 2.2828324066 
Curvature 1 94 double
0 0.27013070219 0.07577942938 0.50500822981 0.30061134256 0.10937350768 0.27126425699 0.15392247466 0.059264939364 
0.095353489189 0.11194780035 0.10945423341 0.24744086491 0.17502661372 0.15335345668 0.2204312107 0.16248618271 0.10181527915 
0.21242764523 0.22575694894 0.32835243894 0.047720503151 0.1241313219 0.32770393641 0.45460706273 0.28786240151 0.21009879803 
0.2007890033 0.41727782442 0.12244243798 0.35946792031 0.32406523469 0.28808535558 0.095804385801 0.24034428912 0.21525056934 
0.12898757181 0.24044821601 0.10430902473 0.29486696291 0.19803563231 0.20696260136 0.22104305084 0.22792035043 0.24696944651 
0.41273164866 0.30695332244 0.32808660848 0.3635004356 0.42896958309 0.26126845029 0.27166608263 0.16417608388 0.42400021621 
0.18044742345 0.16837066193 0.14095341015 0.13625268051 0.14714817877 0.15517537579 0.22087442892 0.13042430213 0.23880147242 
0.60294477262 0.68666177844 0.34662075075 0.15820687701 0.20642637925 0.13696234052 0.37270167966 0.10624289613 0.024297428089 
0.23254931043 0.25432834374 0.10173573306 0.19605436816 0.067500737398 0.16857125034 0.081302205977 0.32252222911 0.12816679573 
0.079014483029 0.09858670996 0.084654585878 0.1655877758 0.038179987491 0.10586386429 0.15624026387 0.046173651432 0.066021689375 
0.17963083371 0.05784482648 0.33561279753 0 
Torsion 1 94 double
0 0 6.2224635594 -0.17798636399 -0.85822087757 0.31982585678 0.50129671071 0.76715968288 -1.2017494352 
0.55249797006 0.79489869958 0.055662686262 -0.55587215743 -0.23553175706 0.0017453712134 -0.45609297351 -0.33474874562 -0.10900353675 
-0.069648836865 -1.0427653678 -0.60032291675 0.30585469136 1.3383426628 -0.13480870833 -0.22020254653 -0.20115701242 0.15102082165 
-0.18009988638 -0.082887427327 1.6136659731 -0.13450950918 -0.3310616352 -0.074859828538 1.412931393 0.20496424001 -0.020013301941 
1.0055103083 0.16529599682 -0.017119090987 0.16822396684 0.78100072453 0.66189387613 0.29278971515 -0.11400313426 -0.32245156194 
0.18469585767 0.16954636084 0.049018642705 -0.044937773066 -0.11736021751 -0.010069456541 -0.2235685029 -1.4798520701 0.10621280994 
1.4200054641 0.12669689485 0.57927011407 0.012973097347 -0.20152267214 0.1126169487 -0.03694962902 0.14471787087 -1.5707884466 
0.21649079098 0.019027651553 -1.0558275186 1.1187178411 0.061149758681 2.33009235 0.57354072105 2.0849981172 -3.6672482708 
-0.11805806579 -0.2787357678 -1.9076108195 0.097436417776 0.0079506343811 -0.14600479185 -1.3964754637 -0.026282422067 0.25965507546 
-1.3169396005 -0.015026351982 -0.61078573225 -0.32401646049 2.5208624574 0.85312828734 0.17118333115 -1.0987158761 -1.2627670467 
-0.025102030276 3.6236936419 0 0 
FrenetTangent 3 94 double
0.54966221213 0.54925236864 0.62943886764 0.54966221213 0.54925236864 0.62943886764 0.49720026021 0.53795537359 0.68073189823 
0.4616990467 0.72675319982 0.50858998892 0.36864637103 0.86391676804 0.34314380518 0.26404107718 0.90675798417 0.32874346794 
0.20234929705 0.89142299661 0.4054871183 0.054297112549 0.88303146886 0.46616225562 0.012803818166 0.8787717605 0.47707049289 
0.007083607891 0.84847222504 0.52919250357 -0.035259144991 0.81045834892 0.58473417667 -0.085402356911 0.80499283969 0.58710558291 
-0.15317496258 0.85752878191 0.49110265631 -0.21109327576 0.83788981718 0.50336893348 -0.27219221093 0.82231347598 0.49971186451 
-0.40686504222 0.81018161957 0.42197936056 -0.54755936532 0.7371137853 0.39603283825 -0.63813792388 0.65910689148 0.39794232712 
-0.72552273388 0.56026391058 0.39965123937 -0.80397112907 0.43568943882 0.40472847258 -0.79670313482 0.3332595043 0.50418470599 
-0.74805631616 0.32254360637 0.57998049091 -0.71326503804 0.30490811436 0.63109747845 -0.6828905035 0.15243466215 0.71443980433 
-0.57852989042 -0.13119646519 0.80504077748 -0.3969471062 -0.34575547862 0.85022711312 -0.20815963883 -0.4742975068 0.8554013326 
-0.10845704351 -0.54673895752 0.83024910843 0.1197433429 -0.67757704821 0.72563825393 0.23633425382 -0.71237347474 0.66081022462 
0.32669315508 -0.79872473824 0.50528247045 0.42690187134 -0.83983103462 0.33531869249 0.57330306724 -0.81163925252 0.11209512412 
0.65207707095 -0.75713243489 -0.039318819578 0.62546353829 -0.76282205045 -0.16400573652 0.53049598408 -0.78235543783 -0.32633415356 
0.46944103014 -0.78080563808 -0.41227136059 0.33598658592 -0.81299025836 -0.47556267084 0.24899818502 -0.82503693803 -0.50726122929 
0.068294412984 -0.83089104403 -0.5522281649 -0.14374277647 -0.82669213737 -0.54398356982 -0.22391711793 -0.8482697089 -0.47989543159 
-0.18925062518 -0.92346973955 -0.33374817005 -0.14084788893 -0.9618447528 -0.2345560566 -0.084431999161 -0.99123671245 -0.10159240823 
-0.038333665037 -0.98561664545 0.16459148928 0.060863516918 -0.91707723327 0.39403677559 0.17488906322 -0.79814141484 0.57652762074 
0.30615956922 -0.58106298898 0.75407699939 0.39587321005 -0.31760461897 0.86163316299 0.4244505347 -0.019341885982 0.90524451672 
0.42082452189 0.19691149119 0.88551261222 0.35339558013 0.37681944361 0.85622349352 0.34812928329 0.31477254761 0.88301995752 
0.36075740528 0.056897064296 0.93092256317 0.36409763871 0.087492926553 0.92724209206 0.37638089307 0.11406301679 0.91941669091 
0.32291499388 0.078056468263 0.94320363363 0.23214444219 0.069538511936 0.97019243108 0.14477854594 0.04886635237 0.98825667326 
-0.01084000972 0.024136070916 0.99964991085 -0.13988534862 -0.0021495677265 0.99016537437 -0.29007180312 -0.019269993967 0.95681085715 
-0.35189826627 -0.14864377766 0.92416050422 -0.449714935 -0.24275757001 0.85954943979 -0.5922723572 -0.24543913013 0.76744582108 
-0.68195765232 -0.3127785974 0.6611378899 -0.77792678833 -0.28257221232 0.56123333545 -0.81541150445 -0.26306373687 0.5156564251 
-0.77390239103 -0.3781222323 0.50803411952 -0.79211383296 -0.42260406488 0.44041058115 -0.81878885539 -0.39480087304 0.41679381106 
-0.86159530312 -0.38679440694 0.32869989414 -0.91462068634 -0.38700319817 0.1170364248 -0.91036711015 -0.41370833851 0.0087826761215 
-0.85584943546 -0.51722271541 0.0015512871007 -0.82964029971 -0.55791206596 -0.020762941823 -0.80817832759 -0.58423534453 -0.074275520983 
-0.78463593994 -0.61007307867 -0.11026005822 -0.83973931426 -0.52415008452 -0.14179059555 -0.86642624953 -0.47750665724 -0.14592102803 
-0.861821696 -0.49892902016 -0.091286346995 -0.87924958848 -0.46900766275 -0.083378495084 -0.90559776975 -0.41067203126 -0.10602434707 
-0.91246869473 -0.38337905589 -0.14290339618 -0.89987401552 -0.38764505074 -0.19989514958 -0.90733467876 -0.39606988943 -0.1409695833 
-0.88324188564 -0.46322130959 -0.072868304513 -0.848784092 -0.52855911473 -0.013814028841 -0.83848102871 -0.54380877723 0.034951084481 
-0.87350522614 -0.48395774557 0.052664223165 -0.90473892545 -0.42126529322 0.063111246997 -0.87055269471 -0.47826597949 0.11575689434 
-0.87055269471 -0.47826597949 0.11575689434 
FrenetNormal 3 94 double
0.48316644356 0.40563851599 -0.77589147576 0.48316644356 0.40563851599 -0.77589147576 0.70325676886 -0.70938423567 0.046945960852 
0.12395369527 -0.62059231455 0.77427427992 0.77945463588 -0.48842227287 0.3922934539 -0.25092566408 0.39368217761 -0.88433627888 
0.83001205095 0.063638981895 -0.55410294644 0.96975689409 -0.15788793368 0.18612621189 -0.2360819325 0.46627771816 -0.85255522443 
0.20574059081 0.5166470638 -0.83111167767 0.75583904426 0.40440520646 -0.51494054818 0.29831559274 -0.54156664738 0.7859474369 
0.6249294417 -0.30091700304 0.72035557205 0.17318055013 0.53888589617 -0.82438491493 0.65973756831 -0.21855838984 0.71901221908 
0.90473104805 0.29358276074 0.30865983425 0.74935831614 0.64256742683 -0.1599037711 0.76024670538 0.62110809548 0.1903934891 
0.58379447013 0.8085514089 -0.073679276742 0.48239671311 0.87581677592 0.015439760019 -0.5007406822 0.10313414419 -0.85943127561 
-0.5708573039 0.13293217391 -0.81021662271 -0.54255817255 0.3298344151 -0.77255413274 -0.038939606014 0.96900106198 -0.24396854095 
-0.53358953118 0.8073651252 -0.25188046138 -0.75198645168 0.65364006461 -0.085270407626 -0.89402170424 0.44699848187 0.030291080276 
-0.61473143029 0.69323383015 0.37620755621 -0.86824160289 0.28298913664 0.40752137067 -0.72537042327 0.32315205753 0.60779149119 
-0.31173232693 0.41363804213 0.85541015101 -0.51814035561 0.07673557883 0.85184636104 -0.54807588543 -0.27819229299 0.78881041571 
-0.18565928473 -0.20975049842 0.95996633191 0.42269069216 0.1545861371 0.89299255595 0.58350169056 0.057770208013 0.81005455383 
0.5033686518 -0.146951583 0.85148413529 0.94179134345 0.29637990787 0.15870732692 0.85694356914 -0.056363796323 0.51231908199 
0.99461121117 0.013426797906 0.10280204143 0.97448724204 -0.022495762059 -0.22331268613 -0.21388679754 0.52316504227 -0.82495501476 
-0.19434585391 0.3683935327 -0.90912919551 -0.57878927614 0.27221142694 -0.76870274676 -0.12401833251 0.11161756254 -0.98598223764 
-0.19050234338 -0.154483441 -0.96945537475 -0.51670689318 -0.3667051388 -0.77365452736 -0.38077694638 -0.59481841261 -0.70795478184 
-0.45698597894 -0.78458593135 -0.41903309103 -0.18117916222 -0.9468563199 -0.26577663674 0.0045696832115 -0.99971332282 -0.023502982006 
0.021990612961 -0.97808403968 0.20704594723 0.76887507592 -0.63836186631 -0.036403918438 -0.35641058588 0.91565076601 -0.18589020681 
0.61929334533 0.73171940462 -0.28471470868 -0.43012962855 -0.86725022464 0.25073003511 0.43008362765 0.85747023083 -0.28244092561 
0.78603485107 -0.57719837794 -0.22133966071 0.78931428798 0.56941315791 -0.22967718736 0.9892670592 0.012782012914 -0.14555859892 
0.96445923318 0.26420020032 0.004079420852 0.98732499095 0.075417863528 0.1396478002 0.94836589488 0.12824716278 0.29009445819 
-0.17028901976 0.98100103942 0.092944125158 0.67411242171 -0.72358017949 0.14833801516 0.37108948176 0.76235400855 0.53019709748 
0.72760954757 -0.19832073208 0.65669873878 0.62280756579 -0.22832415957 0.74831732183 -0.55186323747 0.084292264451 -0.82966365552 
-0.13528156564 0.88238256656 0.45066606731 0.61037131508 -0.54655223273 0.57334763854 0.534341216 -0.78954369934 0.30182811619 
0.3582483737 -0.0046174329586 0.93361490029 0.12734727966 -0.001010275909 0.99185767613 -0.3986103042 0.88244675185 0.24979502706 
-0.51615102185 0.85387523638 -0.066971660714 0.24046816562 -0.39065562234 0.88857371447 -0.51359146404 0.63743466701 0.5743699621 
0.61662934773 -0.74958065442 -0.24061814153 0.42094088083 -0.79335320475 0.43977206295 -0.24541006636 0.66177161467 -0.70840117825 
0.12580669947 -0.035919472243 -0.99140428982 0.30125234158 -0.68304303781 0.66535647227 0.41941622665 -0.90428079522 -0.079788922847 
-0.20628837341 0.12945714035 0.96988966167 0.34027836986 -0.3372925085 -0.87774961961 0.058523738733 0.21305583281 -0.97528569358 
-0.37005530303 0.7840007569 -0.49839932372 -0.16997673301 0.29750949407 -0.9394658116 -0.22385620159 0.28525984439 -0.93194164098 
0.48619140122 -0.86179391523 0.14466917106 -0.21558692366 0.32506261037 -0.92079127803 -0.47555604937 0.75727636579 -0.44763707366 
-0.47555604937 0.75727636579 -0.44763707366 
FrenetBinormal 3 94 double
-0.68148487905 0.73060196406 -0.04241614955 -0.68148487905 0.73060196406 -0.04241614955 0.50815530923 0.45538777126 -0.73102678439 
0.87833334885 -0.29444008842 -0.37661062469 0.50650797006 0.12284747156 -0.85343902828 -0.93129942589 0.15101093066 0.33147711558 
-0.51974489633 0.4486815364 -0.72701452643 0.23795669758 0.44195794528 -0.86489871354 -0.97164879632 -0.10171176183 0.21343227057 
-0.97858092756 0.11476364758 -0.17090545165 -0.65380741191 0.42380855779 -0.62683504567 0.95063886127 0.24226451349 -0.19389084801 
0.76550677576 0.41724494661 -0.48980203224 -0.96200214448 -0.086848403367 -0.25886140857 0.70046965763 0.52538821595 -0.48302120169 
0.12618465876 0.50736072563 -0.85244502813 -0.37234507581 0.20921369339 -0.90420615737 -0.12167554015 0.42403164897 -0.89743647329 
-0.36441841238 0.17985819323 -0.91370140147 -0.34774104561 0.20765280617 -0.91430655542 -0.33841229906 -0.93717738507 0.084709295553 
-0.33842825891 -0.93717376144 0.084685621211 -0.44371569153 -0.89344294749 -0.069828967306 -0.72948219123 -0.19442380427 -0.65578587741 
-0.61691602192 -0.57528170676 -0.53708991777 -0.52625979455 -0.67320711147 -0.51946396766 -0.39673008092 -0.75844197685 -0.51707930789 
-0.78124409651 -0.46957786263 -0.41128371303 -0.48147487042 -0.67882729194 -0.55441451719 -0.64651672022 -0.62297414088 -0.44036274851 
-0.89224130076 -0.43696952139 -0.11385560418 -0.7411378847 -0.53739695219 -0.40239178873 -0.60904549658 -0.5136640652 -0.60432839683 
-0.7350687883 -0.61867213001 -0.27734215695 -0.65584139929 -0.627857982 0.41912577278 -0.61489819319 -0.62014721798 0.48715258394 
-0.72542754263 -0.60724606857 0.32404797885 0.011919709854 -0.50120433959 0.86524686101 -0.4512733353 -0.56226076989 0.69297561536 
-0.07800263956 -0.556273129 0.82733052293 0.17237351685 -0.56220463419 0.80883454426 0.95084886398 -0.082078252306 -0.29857929995 
0.96250396879 -0.10719069552 -0.24919122147 0.8032215423 0.027488371117 -0.59504583306 0.98868128875 -0.070649130396 -0.13235561815 
0.98093801399 -0.068517842011 -0.18184036415 0.85399626395 -0.1565141827 -0.49617909243 0.90797727542 -0.095714878333 -0.40794108569 
0.83512282523 -0.21631162512 -0.5057461296 0.90025469326 -0.050896124272 -0.4323783896 0.90543959577 0.01411253395 -0.42424046812 
0.90687547917 -0.067657046625 -0.41593195276 0.53286272301 0.67119388746 -0.51532134039 -0.86705103448 -0.25000383593 0.43095311303 
-0.69737353475 0.67922708793 0.22873722051 0.82608801718 -0.49012451038 -0.27813045896 -0.82058850623 0.50173143357 0.27367877522 
0.5271386152 0.81286482287 -0.24774111508 -0.56841174579 0.81910503048 0.077298358881 -0.019744827345 0.99872353519 -0.046491311459 
-0.26400924551 0.96416580744 -0.026142189187 -0.074976339479 0.99714970051 -0.0084275321954 -0.12829839621 0.99155500734 -0.01892588068 
-0.92041798111 -0.12466750986 -0.37052496817 0.58594276182 0.64614277528 0.4890507068 -0.71519651245 0.59881215673 -0.36044132606 
-0.074283960098 0.92889097113 0.36282703459 -0.083310551508 0.93167645832 0.35360759187 0.17478857382 -0.96108911371 -0.21390808766 
-0.61868730968 0.28004389596 -0.73403094565 -0.0015916561942 0.72297058117 0.69087698282 0.20991492366 0.4698436096 0.85742796044 
-0.35959927194 0.92215441553 0.14254682579 -0.38373385371 0.92207781881 0.050207823753 -0.11109252963 0.22390431172 -0.968258906 
0.03331465857 -0.058118356436 -0.99775367209 -0.50385715676 0.73220373626 0.45826373868 -0.28822144071 0.50234062895 -0.81521916907 
0.064145843792 -0.25678722943 0.96433688591 -0.34299658735 0.30960843239 0.88684607439 0.43483267295 -0.57796688686 -0.69056123858 
0.4913614135 -0.8658981605 0.093724793784 -0.36900838452 0.55989643756 0.74185496653 -0.063108701863 -0.11672500216 0.99115718512 
-0.35333551779 0.91447326277 -0.19721222971 0.27283215939 -0.85788407046 0.43542798997 0.41631568879 -0.89316059855 -0.17013345489 
0.28799799332 -0.41324185598 -0.86387980895 0.50067302244 -0.79505557238 -0.34236407731 0.49682790331 -0.78923940283 -0.36091993504 
-0.024628058805 0.15197416944 0.98807758326 0.36738230104 -0.84668167104 -0.38491608542 0.12642962323 -0.44474055209 -0.88669126064 
0.12642962323 -0.44474055209 -0.88669126064 
SiphonLabel 1 94 int
0 0 0 0 0 0 0 0 0 
0 0 0 0 0 0 0 0 0 
0 0 1 1 1 1 1 1 1 
1 1 1 1 1 1 1 1 1 
1 1 1 1 1 1 1 1 1 
1 1 1 1 1 0 0 0 0 
0 0 0 0 0 0 0 0 0 
0 0 0 0 0 0 0 0 0 
0 0 0 0 0 0 0 0 0 
0 0 0 0 0 0 0 0 0 
0 0 0 0 
