# vtk DataFile Version 5.1
vtk output
ASCII
DATASET POLYDATA
POINTS 99 float
76.7841 74.6713 33.5649 77.3485 74.3924 33.1844 77.9851 74.0122 32.5812 
78.5385 73.5978 32.0797 79.1893 73.0099 31.6445 79.6604 72.3709 31.3526 
79.8893 72.0753 31.1996 80.3795 71.5114 30.8603 80.6456 71.1244 30.5538 
80.9302 70.6759 30.1851 81.075 70.3335 29.7644 81.208 69.9622 29.4022 
81.2742 69.4668 29.0144 81.3114 68.8373 28.5969 81.1946 68.1751 28.1057 
80.9848 67.7972 27.7688 80.7572 67.4821 27.4616 80.5067 67.1721 27.0475 
80.1193 66.7582 26.3923 79.7083 66.4576 25.642 79.3073 66.2468 25.1128 
78.9356 66.164 24.6852 78.3886 65.9597 24.1234 78.0657 65.8079 23.6507 
77.578 65.7263 22.9066 77.2512 65.7159 22.2977 76.9528 65.7756 21.5945 
76.6868 65.8803 20.9768 76.4543 65.9534 20.4699 76.1516 66.1874 19.6613 
75.9405 66.6158 18.809 75.9553 67.0705 17.9342 76.036 67.2161 17.6667 
76.3538 67.6584 17.0971 76.9432 68.3342 16.6591 77.5438 68.9525 16.4529 
78.3004 69.5007 16.3338 79.0539 69.7785 16.5824 79.4967 70.0003 16.809 
80.0133 70.2313 17.2475 80.487 70.5109 17.7009 80.9671 70.76 18.3665 
81.2786 71.1761 19.1032 81.3035 71.464 19.5703 81.2686 71.7094 19.961 
81.1603 72.2078 20.597 81.1062 72.5525 20.891 81.025 73.195 21.1844 
80.9696 73.5438 21.2878 80.8091 74.4775 21.2419 80.7301 75.1695 21.042 
80.6112 76.0188 20.5435 80.5658 76.468 20.1175 80.5314 76.8088 19.6742 
80.5677 77.1103 19.1651 80.5839 77.3941 18.3107 80.5852 77.4704 17.5426 
80.5552 77.4903 16.8032 80.4338 77.3708 15.9922 80.3198 77.2669 15.4019 
80.2215 77.0126 14.5801 80.1675 76.9182 13.9576 80.1402 76.8674 13.2876 
80.1104 76.8648 12.6456 79.992 76.8602 11.7643 79.7791 76.9174 11.016 
79.5919 76.9841 10.4016 79.301 77.1514 9.70058 79.0742 77.2282 9.28598 
78.698 77.3966 8.67853 78.3462 77.5814 8.1721 78.0003 77.8417 7.71286 
77.6131 78.0196 7.37687 77.234 78.2169 7.03498 76.7397 78.4591 6.66132 
76.1952 78.7296 6.33114 75.5898 79.163 5.97318 74.9815 79.5748 5.72456 
74.3731 79.9609 5.49272 73.8062 80.3077 5.28772 73.0464 80.7461 5.14982 
72.5465 81.0319 5.06083 71.8596 81.4497 4.9143 71.0854 81.8428 4.84378 
70.4712 82.1796 4.77595 69.8536 82.5255 4.75813 69.2275 82.8698 4.80157 
68.4062 83.3177 4.83695 67.8019 83.7207 4.78888 67.1777 84.0514 4.78017 
66.3939 84.4973 4.74469 65.7883 84.8385 4.71239 65.0372 85.2177 4.50175 
64.524 85.4662 4.36748 64.0413 85.7212 4.30678 63.3147 86.1337 4.26461 
62.6066 86.5312 4.12373 61.8429 86.9427 3.80658 61.3955 87.1726 3.65989 

LINES 2 99
OFFSETS vtktypeint64
0 99 
CONNECTIVITY vtktypeint64
98 97 96 95 94 93 92 91 90 
89 88 87 86 85 84 83 82 81 
80 79 78 77 76 75 74 73 72 
71 70 69 68 67 66 65 64 63 
62 61 60 59 58 57 56 55 54 
53 52 51 50 49 48 47 46 45 
44 43 42 41 40 39 38 37 36 
35 34 33 32 31 30 29 28 27 
26 25 24 23 22 21 20 19 18 
17 16 15 14 13 12 11 10 9 
8 7 6 5 4 3 2 1 0 

CELL_DATA 1
FIELD FieldData 2
Length 1 1 double
71.051185196 
Tortuosity 1 1 double
0.98022775748 
POINT_DATA 99
FIELD FieldData 7
MaximumInscribedSphereRadius 1 99 double
1.7543585706 1.7842436648 1.8378106102 1.9493740776 1.9373346816 1.8937694959 1.912154064 1.8440218765 1.8184696882 
1.8135678489 1.8369687183 1.8326171401 1.7962109666 1.7809713278 1.7402132149 1.6908819908 1.6118435235 1.560272199 
1.5683635245 1.6589964637 1.7362672779 1.7530108136 1.7798129868 1.7865208358 1.8255571451 1.9131482607 2.0195661869 
2.0484233707 2.0657109389 2.1024300668 2.1253141251 2.1156754285 2.1094227393 2.0812092372 2.0323375451 2.039107979 
2.0794676017 1.9446824864 1.864416527 1.7874274125 1.778431065 1.8118666368 1.8624530465 1.8492167412 1.8148169563 
1.8067154201 1.8615481011 1.9022880765 1.9219651825 1.9717425591 2.0308716344 2.1274126811 2.148951997 2.152349908 
2.1389134129 2.1199854585 2.0656455691 2.0273818152 1.9264580607 1.8710896399 1.8492336147 1.8870143352 1.9129396167 
1.9317529661 1.8868071679 1.811915213 1.7703666699 1.7498512793 1.7508903284 1.7438239857 1.7626470498 1.7957307194 
1.7748680571 1.7749939262 1.7724795925 1.7763752717 1.7962820466 1.8172720785 1.8776967008 1.8934913329 1.8853397806 
1.8926336974 1.9058977083 1.9062281153 1.8407818256 1.8196752776 1.8596842047 1.8649579247 1.8278687732 1.8120239694 
1.7947043985 1.8013779151 1.7719834991 1.8158077192 1.8468657368 1.9034238635 2.0062754368 2.0478454334 2.0608685117 

Curvature 1 99 double
0 0.18267535679 0.11023439129 0.20259413786 0.23656598244 0.067712433701 0.10517855093 0.2643038486 0.069386161951 
0.45321593648 0.20343270434 0.31222194608 0.13857205679 0.24983831355 0.39160252488 0.17950813479 0.26531610403 0.10030777485 
0.18492703223 0.17910721443 0.27770362694 0.17842025888 0.2397286693 0.2283150356 0.14703417924 0.17934061988 0.10625936206 
0.054215484951 0.2091353881 0.23506868966 0.24025794261 0.37899665931 0.39809852257 0.41547279131 0.24164609226 0.22223042005 
0.59834613774 0.24028484476 0.37412360106 0.13042013536 0.26015329349 0.32127469584 0.43461168481 0.2402573784 0.18558626017 
0.31515191906 0.47964224039 0.26729270108 0.51435113325 0.28729762429 0.29274367681 0.29039697472 0.2666182647 0.30022307467 
0.29484624056 0.26867257664 0.11048112304 0.26072171446 0.068247832628 0.19714971814 0.20329116807 0.13361906693 0.10949024865 
0.11391664663 0.19726829987 0.049475574747 0.21020157468 0.19011141982 0.14530736641 0.11408796167 0.21822194055 0.3708894565 
0.071868189076 0.13344203712 0.1459934022 0.19985733539 0.15557508679 0.041673526928 0.027197885042 0.18450552618 0.0064655497778 
0.054424934236 0.14863191936 0.044796517847 0.1019732805 0.1213122298 0.028077656625 0.16483939148 0.15962674773 0.05017611976 
0.010275867247 0.2631101548 0.029506691668 0.22168154103 0.097386064907 0.14672911554 0.20672440694 0.095726159582 0 

Torsion 1 99 double
0 0 -1.3758867424 0.25183220569 0.36165331511 1.6809426384 -1.8307391882 -0.32819936551 1.4581993216 
-0.24981147847 -0.55326513464 0.2880734366 0.68284569782 0.37832897553 0.054894657383 1.5395415738 0.46186289459 -0.6397317505 
-0.52384240294 0.13705505704 0.034616753515 -1.7119872081 -1.1607347422 -0.40680261448 0.60242038219 -0.3481867471 -1.1296742869 
-0.29514757992 0.056099126392 0.41743265709 0.36572222574 -0.51247582446 -0.57841589969 -0.0085003947986 0.39744928256 -0.13620393921 
-0.32661909899 -0.72658206791 0.11060674316 -0.56948868038 -0.43757277513 -0.18547403679 0.20033591139 -0.55244867297 -1.5479279282 
-0.14809077973 0.19261772566 0.19360920696 -0.18143050924 -0.083598974626 0.059129327261 -0.053759179011 -0.49074444215 0.20189939165 
0.4930043069 0.02431966 0.74552607727 0.080411978611 -0.88004172841 -0.69875012153 -0.28141749762 0.022944015921 -1.3303911882 
-0.072971920363 0.24831789296 0.95148405762 -0.64492931676 -0.24940796682 1.0353427467 0.56407433937 -1.1283929162 -0.40418753913 
1.1697986642 -0.15373643812 1.1355715822 -0.05127461423 -0.9196450267 -1.8192017794 3.2711993612 0.046531349482 -15.217708579 
-0.2621536031 0.053013522298 -0.42612129571 -0.4733031836 -0.16453419575 -3.3086761608 0.13513214359 0.2101925668 -0.34651705654 
-1.7455630975 0.056792383465 10.007669196 0.17966389605 0.75135630852 0.20933490859 0.11853593425 0 0 

FrenetTangent 3 99 double
-0.71208895214 0.3908113609 0.58326306623 -0.71208895214 0.3908113609 0.58326306623 -0.65824402858 0.4395960791 0.61112198952 
-0.6597015768 0.54907561008 0.5131372175 -0.6183041983 0.67612095539 0.40069985281 -0.56017902549 0.74795146467 0.35604503354 
-0.58749505833 0.70219558409 0.40220755602 -0.54964363312 0.69110761706 0.46932093306 -0.45617822389 0.6921207082 0.55934815038 
-0.35870202008 0.66064678633 0.65945332246 -0.25364942032 0.65166417587 0.71483968375 -0.17126751257 0.74501630287 0.64468453339 
-0.074527211474 0.81085188133 0.58048679683 0.050332034455 0.81683410978 0.57467270982 0.23856395171 0.75975209301 0.60486692595 
0.4196441553 0.66488123383 0.61792534163 0.44778777386 0.58560875792 0.67568372204 0.44291894712 0.50266204483 0.74239724876 
0.45176863472 0.40426402827 0.79528340617 0.50766818938 0.31974027958 0.80002447657 0.6111394763 0.23219728019 0.75669872709 
0.66558176535 0.20797253826 0.71676239924 0.62233590751 0.254756208 0.74013329388 0.54747959182 0.15764843945 0.82183518182 
0.5148865206 0.058196678976 0.8552806659 0.4299434462 -0.033878020151 0.90221999137 0.39037448069 -0.11377083069 0.91359945431 
0.40108280799 -0.1431228459 0.90479192753 0.36833419938 -0.21129505078 0.90536419141 0.27613446025 -0.35599840544 0.89275690711 
0.10071133776 -0.45297015627 0.88581897924 -0.073802770966 -0.46394861678 0.88278243752 -0.36301196364 -0.53553490928 0.762512082 
-0.51620103795 -0.63623668543 0.57335797591 -0.63555814172 -0.69114029452 0.34407984799 -0.74614084222 -0.64132476053 0.17881944833 
-0.87486663269 -0.47851672386 -0.075034125541 -0.86641675169 -0.3618174037 -0.34410780109 -0.76619588708 -0.36162768954 -0.53119608128 
-0.69387931213 -0.35772981801 -0.62494869989 -0.61045190808 -0.33839939762 -0.71612451125 -0.45435834118 -0.38181321692 -0.80484605061 
-0.23450978977 -0.49072399401 -0.83916334537 0.0099315471139 -0.52796557608 -0.8492076983 0.11223891107 -0.58294271301 -0.80472369183 
0.12825745112 -0.66610447261 -0.73474815944 0.11694811917 -0.85348381185 -0.50782725443 0.12695103738 -0.92086988251 -0.36862188431 
0.1658720411 -0.98515826275 -0.044154992003 0.14416007023 -0.97843338378 0.14793913497 0.11616678017 -0.9046902247 0.40992789184 
0.10250838343 -0.8103399598 0.57692389522 0.067775834973 -0.67100603879 0.73834770406 -0.0016205105291 -0.55914918835 0.82906547336 
-0.035358528639 -0.39425710068 0.91831972265 -0.010548088004 -0.21665350469 0.97619157789 0.01895608034 -0.063670009859 0.9977909585 
0.09700984285 0.063827667159 0.99323467484 0.1636736683 0.15530911535 0.9742125071 0.14419609923 0.24326872822 0.95918080195 
0.10196593993 0.23346782819 0.96700347481 0.062390904912 0.1114512205 0.99180945773 0.043481802171 0.040631773488 0.99822762528 
0.096798157118 0.004690857238 0.99529297829 0.19913886776 -0.031604685594 0.97946151287 0.28065023457 -0.086930236834 0.9558653565 
0.33692255366 -0.16490204646 0.92697923812 0.4129150567 -0.19465943376 0.88972403631 0.49762881182 -0.20232560561 0.84346304896 
0.52876654614 -0.25655016667 0.80906609845 0.54857290612 -0.34997536799 0.7593319488 0.62818837989 -0.37546290478 0.68147411286 
0.70318599879 -0.34433633328 0.62206265013 0.72086880403 -0.36277985285 0.59054123119 0.7663772577 -0.37821865882 0.51924613143 
0.75967238536 -0.46499105321 0.45462202692 0.75924911676 -0.52873542086 0.37944648297 0.79405111212 -0.52073537141 0.31355622191 
0.80922911966 -0.50465781916 0.3007801813 0.84003496776 -0.49719214288 0.21712030307 0.85658589802 -0.4924005832 0.15427982684 
0.84791266976 -0.50272094663 0.16827285663 0.86707094266 -0.4812432317 0.12881355651 0.88172514291 -0.46351022697 0.087858077914 
0.87303766629 -0.48385956231 0.060705495555 0.87422916854 -0.48517932918 -0.018010536213 0.87619837521 -0.47958275659 -0.047715687765 
0.85867497113 -0.51246352362 0.0076440112941 0.85787641541 -0.51232421296 0.039647909171 0.87529600377 -0.48280679095 0.027468316057 
0.86928924376 -0.49248139909 0.042406158003 0.87235275312 -0.46324638191 0.1562160804 0.87009193267 -0.4319692102 0.23736602567 
0.87912025313 -0.44444270622 0.17209956835 0.87307310642 -0.48190081791 0.07426272648 0.86547294446 -0.48863326828 0.11042695111 
0.84545441053 -0.46473400725 0.26311431398 0.83708484088 -0.4432939298 0.3205923595 0.83708484088 -0.4432939298 0.3205923595 

FrenetNormal 3 99 double
-0.66707395389 -0.11752757094 -0.73566270132 -0.66707395389 -0.11752757094 -0.73566270132 -0.17936014587 -0.87999623678 0.43981423503 
0.087408076741 -0.62209979637 0.77804348945 -0.50038334262 -0.73180383375 0.46268743158 0.23263941728 0.5545626307 -0.79896131957 
0.47170033113 0.70101279683 -0.53486433448 -0.669412625 -0.028268676343 -0.74235275943 -0.81901120596 -0.08071591945 -0.56807181312 
-0.67454589526 0.30487520713 -0.67233841424 -0.085550095082 -0.75122537746 0.65447812301 -0.7954883124 -0.49062402376 0.3556492825 
-0.5793889293 -0.50898423276 0.63658740122 -0.96279133907 0.19265686661 -0.18951561718 -0.91987794402 0.3764513424 -0.1100406966 
-0.81835278928 0.57164588625 -0.059327000695 0.16880488244 0.68672368269 -0.70704702481 -0.15466947329 0.85847392466 -0.48897839903 
-0.036144066419 0.89900023731 -0.43645409814 -0.86150204675 0.19846178022 0.46736189964 -0.42605105805 0.90219605808 0.067251533253 
-0.2032275893 -0.87359220571 0.44219362849 0.76978176318 -0.027784275872 -0.63770218056 0.0050778537745 0.98145033608 -0.19164929742 
0.62544127 0.65681244134 -0.42121328882 0.64173185815 0.71438591257 -0.27898564507 -0.016722512475 0.99129519392 0.13059171525 
-0.67599189756 -0.71281271563 0.18690368344 0.50250102591 0.86457252008 -0.0026601654391 0.56359883321 0.81238462284 0.1496247967 
0.9932352656 0.097500609305 -0.063066142619 0.99442309446 0.032635356048 0.1002877996 0.65845254148 0.43158222189 0.61658497903 
0.51063816789 0.30881965382 0.80242076425 0.39137527529 0.095744378289 0.91523680428 0.62250794492 -0.57674702138 0.52900541759 
0.19892066337 -0.49620262932 0.84511154313 -0.48849691666 0.47149275166 0.73421069697 -0.40522524235 -0.36965580372 0.83615015981 
-0.61345299211 0.7481558043 0.25286027557 -0.52368023883 -0.50587755955 0.68545379291 -0.77477099933 0.61527215101 0.1454994116 
-0.9649448469 0.22215079899 0.1397514399 -0.99755317271 0.053542174028 -0.044954457155 -0.48319871946 0.67562682705 -0.55681899041 
0.068604638934 0.74505140065 -0.66346952749 0.019021324841 0.51316714296 -0.85807789425 -0.25678550218 0.32844836833 -0.90894602437 
-0.04367522017 0.037392420174 -0.99834577279 0.25137739118 -0.10838700504 -0.96180126031 -0.04124214816 -0.41675981054 -0.90808058317 
0.19933482503 -0.55148100017 -0.81002119354 0.074520055473 -0.73457752513 -0.67442021092 0.7136234259 -0.5814314289 -0.39074172992 
-0.19913227499 -0.89768854857 -0.3930669241 -0.073504456141 -0.97343674395 -0.21683634487 -0.50537942176 -0.86170287988 -0.045384875009 
-0.52371725605 -0.84533733808 0.10547521307 -0.81939672294 -0.52852616305 0.22192139464 0.50746604442 -0.85032560957 0.13937206128 
0.18499934185 0.95066259047 -0.24902988293 0.51413590859 0.84815652201 -0.12765101517 -0.079222540389 0.99616645203 -0.037097020628 
-0.99519985644 -0.014011707284 0.096855138224 -0.85636546597 0.48029822127 0.18960961826 -0.47766990459 0.85115083555 0.21765504218 
-0.56618510083 0.75115521469 0.33941166014 -0.8404560031 -0.45782132249 0.28988505227 -0.43665487242 0.78177748427 0.44514771424 
-0.43425193021 0.73724706623 0.51758286723 -0.012009425697 0.904788338 0.42569218588 -0.77411553058 -0.38969882986 0.49887871004 
0.53266670519 0.83464467085 -0.14012299811 -0.620253905 0.042502372695 0.78324877379 -0.44469067939 0.27097056938 0.85371256884 
0.36440716676 0.88340335098 0.29462847164 -0.41685074883 0.052644180719 0.90744919606 -0.60723781084 -0.65639919005 0.4476632042 
-0.57474008804 -0.57394409668 0.58331981373 -0.27167306251 -0.03908538486 0.96159559057 -0.48975559576 -0.6816751991 0.54356083317 
0.46267326018 0.54678838086 -0.69782227026 -0.38449564183 -0.48202740442 0.78728183188 0.45219065862 0.77727166647 -0.4374612723 
0.0074123892675 0.13763776829 0.99045489611 -0.02760876416 -0.086714719198 0.99585054783 -0.115186206 -0.11224643756 -0.98698169953 
0.33770399954 0.55450601093 -0.76057813046 -0.46831641117 -0.74776173774 0.47067199045 0.37500685137 0.64180507453 -0.66892160059 
-0.21498042838 -0.45392476909 -0.8647171326 0.03103760082 -0.26641613912 -0.96335824497 -0.4752336789 -0.60749439361 0.63647742472 
-0.023096235865 0.32094623733 0.94681575643 0.15784878105 0.42344912845 0.89206199221 0.077074649984 -0.087925819887 -0.99314074961 
0.18462017163 -0.20796390656 -0.9605552591 -0.39892293661 -0.09359346157 0.91219556818 -0.39892293661 -0.09359346157 0.91219556818 

FrenetBinormal 3 99 double
-0.21895585007 -0.91293688186 0.34439016458 -0.21895585007 -0.91293688186 0.34439016458 0.73112566424 0.17989416472 0.6580982849 
0.74642726216 0.5581288541 0.36240657353 0.60606635676 0.085578049716 0.79079704641 -0.79503355963 -0.36473126427 -0.48465734693 
-0.65753201751 -0.12450871602 -0.7430674435 -0.49977856503 -0.72219882552 0.47817386206 -0.34802596535 -0.71725439394 0.60367546066 
-0.64522918097 -0.68600067915 0.33627722526 0.9635056579 0.1048533936 0.24629781373 0.58126223339 -0.45192784354 0.67667971764 
0.81163671883 -0.28888453982 0.5077317789 -0.26551746405 -0.54375120124 0.7961376184 -0.3113066158 -0.53015200083 0.78868691315 
-0.39267988898 -0.4807846978 0.78399526731 -0.87806094392 0.43066572452 0.2086528516 -0.88311956173 0.10175160623 0.45798084056 
-0.89140266274 0.16843149578 0.42075185571 -0.009339857383 -0.92648749339 0.37620963791 -0.66707498562 -0.36349236011 0.65029552336 
0.71812217664 -0.43998191038 -0.53918128488 -0.14189452173 0.96660607721 -0.21339783551 -0.83680362806 0.10909723801 0.53652351367 
-0.58627219675 0.7518048706 0.3017852678 -0.63508177056 0.69893136121 0.32888614599 -0.92050427615 -0.066257351295 0.3850738124 
0.61819700385 -0.68659586616 -0.38264680974 -0.78219092076 0.45592626491 0.42462760678 -0.7785281723 0.46184018871 0.42496767527 
-0.057800809732 0.88617812471 0.45972535027 -0.075338305063 0.88526076075 0.45895263946 -0.65928943937 0.7259057423 0.19595481223 
-0.687593739 0.70698889774 0.16547370955 -0.66550074559 0.71635054779 0.20964410389 -0.23613068857 0.50602907511 0.82956426699 
-0.4416321373 0.72443405196 0.52929798759 -0.10340587414 0.80422804695 -0.58525590444 -0.49873476476 0.8559088742 0.13668808831 
0.37710333685 0.55883116395 -0.73858026208 -0.5942284707 0.79345683086 0.13160084411 0.43964576239 0.68968025024 -0.57537184154 
0.1178414229 0.84251942661 -0.52561812644 0.069202832237 0.84757630103 -0.52614197888 0.86828648749 0.45133821455 -0.20584555309 
0.98936516502 0.034687778307 0.14125625044 0.99295585331 0.090691048666 0.076248325021 0.9580942751 0.21004839639 -0.19476917414 
0.98517964916 0.16752613005 -0.036824646972 0.95709314142 0.17584189103 0.2303309532 0.99237309738 0.088582490628 -0.085725013579 
0.97455510817 0.1980349868 0.10499754828 0.99491366335 0.10073110478 0.0002168021154 0.70052764396 0.5910073423 0.39996417513 
0.97933452482 -0.19676536363 -0.046768367137 0.99723910511 -0.07404163987 -0.005657101592 0.86268899789 -0.5034026983 -0.048512021786 
0.84635059291 -0.53040627236 -0.048578391617 0.54936321385 -0.83458922451 0.040753964262 0.84952086421 0.46665477988 -0.24606425521 
-0.97743449428 0.20428757249 0.053743810035 -0.8554365216 0.51788911904 -0.004383821597 -0.99590818953 -0.077469083049 0.046534064913 
0.0144000875 -0.999890828 0.0033120330067 -0.4764261748 -0.87653565957 0.068580882666 -0.83250640123 -0.51767305228 0.19735172372 
-0.75227496598 -0.63919727668 0.15971605133 0.35090577482 -0.86747181022 -0.352644007 -0.74946520136 -0.58982057815 0.3006885391 
-0.72926757832 -0.62501901996 0.27842417979 -0.83601647135 -0.24264234014 0.49213936482 0.078259214757 -0.84092950307 -0.53545594232 
-0.47095183649 0.42988459265 0.77032694663 -0.3092462784 -0.93090511154 -0.19437698581 -0.46359044269 -0.88516981232 0.039475369524 
-0.53861422534 -0.058153589071 0.84054320314 -0.49977618181 -0.84715255118 -0.18043370841 -0.027296014811 -0.54587065892 -0.83742471381 
-0.12174589561 -0.64490980722 -0.7544993555 -0.46961154165 -0.86675965859 -0.16790680212 -0.16248093958 -0.54116595292 -0.82506930356 
0.25880022947 0.66954769537 0.69622433514 -0.31678238873 -0.73215745119 -0.60298788118 0.13447817898 0.42544920495 0.89493496601 
-0.48759644145 -0.8642544583 0.12374951145 -0.48472787935 -0.87010434777 -0.089203738539 0.4679834882 0.87028795053 -0.15359146441 
0.38552989852 0.6556708174 0.64920141447 -0.21148946761 -0.42234616654 -0.88141699592 0.30533058675 0.59580521055 0.74282527143 
0.44510630876 0.74257280825 -0.50046578139 0.48789070648 0.84523678958 -0.21803079615 -0.13074012064 -0.6665982022 -0.73386228795 
-0.47604006599 -0.83633975968 0.27188538383 -0.46133189048 -0.7671130538 0.44576950268 0.49499099056 0.86804756743 -0.038436180108 
0.50112097536 0.86068189017 -0.090024729853 -0.37436540949 -0.89147672754 -0.25518578414 -0.37436540949 -0.89147672754 -0.25518578414 

SiphonLabel 1 99 int
0 0 0 0 0 0 0 0 0 
0 0 0 0 0 0 0 0 0 
0 0 0 0 1 1 1 1 1 
1 1 1 1 1 1 1 1 1 
1 1 1 1 1 1 1 1 1 
1 1 1 1 1 1 1 0 0 
0 0 0 0 0 0 0 0 0 
0 0 0 0 0 0 0 0 0 
0 0 0 0 0 0 0 0 0 
0 0 0 0 0 0 0 0 0 
0 0 0 0 0 0 0 0 0 

