# vtk DataFile Version 5.1
vtk output
ASCII
DATASET POLYDATA
POINTS 86 float
105.529 72.6664 36.8347 105.15 72.7918 36.4178 104.69 72.9772 35.9655 
104.27 73.1115 35.47 103.599 73.1979 34.8224 102.96 73.1065 34.4047 
102.135 72.889 33.9222 101.379 72.6341 33.3854 100.877 72.2759 33.0553 
100.547 71.902 32.8069 100.247 71.5544 32.6018 99.9711 71.0953 32.4462 
99.7534 70.5129 32.2405 99.6553 69.7657 32.0268 99.6552 69.2137 31.8394 
99.7642 68.5744 31.6726 100.033 67.8377 31.6177 100.604 67.0733 31.4409 
101.135 66.4956 31.2575 101.819 65.8975 30.8904 102.408 65.4959 30.6187 
102.994 65.3672 30.2371 103.679 65.5114 29.6079 104.136 65.9396 28.8844 
104.501 66.7687 28.5089 104.791 67.4542 28.3408 104.938 68.4066 28.2177 
104.949 69.3285 28.1478 104.969 69.8935 28.0786 105.04 70.5575 27.938 
105.048 71.0568 27.8528 105.068 71.6876 27.7137 105.076 72.1474 27.5778 
105.137 72.9711 27.2217 105.105 73.8143 26.7383 105.019 74.5285 26.0923 
104.996 74.9094 25.6118 105.062 75.2809 24.7341 105.066 75.5584 24.1845 
104.984 75.9111 23.3309 104.893 76.1789 22.4228 104.716 76.2914 21.7006 
104.417 76.4651 20.8441 104.207 76.5557 20.2345 104.04 76.6496 19.3221 
104.009 76.7256 18.8329 103.992 76.7944 18.1242 104.07 76.789 17.1699 
104.266 76.7909 16.3625 104.472 76.8595 15.8167 104.672 76.9822 15.3047 
104.878 77.0714 14.899 105.234 77.272 14.2716 105.591 77.4412 13.7384 
106.034 77.5383 13.2222 106.296 77.622 12.9377 106.961 77.9629 12.2864 
107.677 78.2035 11.7923 108.01 78.341 11.6221 108.568 78.5327 11.3402 
109.04 78.7224 11.1124 109.609 78.9698 10.8739 110.431 79.437 10.5743 
111.232 79.9203 10.3732 111.883 80.2669 10.3173 112.552 80.5393 10.2577 
113.077 80.8183 10.2171 113.614 81.145 10.2029 114.433 81.6397 10.2281 
115.108 82.0267 10.1881 115.873 82.5824 10.0766 116.54 82.9915 9.97489 
117.308 83.5135 9.90798 118.042 84.1253 9.82098 118.349 84.4046 9.75713 
118.997 84.973 9.56104 119.54 85.4933 9.32426 120.077 86.0806 8.95714 
120.52 86.7058 8.38961 120.894 87.2588 7.7321 121.182 87.8479 7.0797 
121.428 88.3305 6.28405 121.558 88.6307 5.37347 121.566 88.8399 4.75081 
121.49 89.1968 3.86288 121.42 89.3941 3.45811 
LINES 2 86
OFFSETS vtktypeint64
0 86 
CONNECTIVITY vtktypeint64
85 84 83 82 81 80 79 78 77 
76 75 74 73 72 71 70 69 68 
67 66 65 64 63 62 61 60 59 
58 57 56 55 54 53 52 51 50 
49 48 47 46 45 44 43 42 41 
40 39 38 37 36 35 34 33 32 
31 30 29 28 27 26 25 24 23 
22 21 20 19 18 17 16 15 14 
13 12 11 10 9 8 7 6 5 
4 3 2 1 0 
CELL_DATA 1
FIELD FieldData 2
Length 1 1 double
65.233810902 
Tortuosity 1 1 double
0.60773461137 
POINT_DATA 86
FIELD FieldData 7
MaximumInscribedSphereRadius 1 86 double
1.1255282392 1.143439669 1.1754781095 1.2106936454 1.3218863824 1.4208461682 1.4446756725 1.4210140181 1.4517295831 
1.4839472372 1.4657185018 1.4225755167 1.4051535235 1.3909022935 1.4192790598 1.4663682402 1.4605656718 1.3634544287 
1.3074239743 1.2832137174 1.3489192858 1.4013615049 1.4965129437 1.619952374 1.6092291471 1.6726912723 1.7399509862 
1.7673003518 1.7681767741 1.7662786052 1.7706551028 1.7831746789 1.7787520645 1.7874254453 1.871013758 1.9429430348 
1.9609103957 1.9016559963 1.7601146939 1.5561016533 1.4848649061 1.4803047598 1.5161663213 1.5715223721 1.5741710239 
1.5729062494 1.5603297161 1.6124790567 1.6701727485 1.6796291936 1.6593923958 1.6407199766 1.6098867506 1.6241948476 
1.6713884563 1.6770793746 1.677284749 1.618444898 1.6015074434 1.5918361965 1.5864269311 1.5815014176 1.5951481564 
1.6630373418 1.7279523837 1.7314182818 1.7249401075 1.7369907556 1.7759585217 1.7831131935 1.8408645156 1.8567220373 
1.8356157168 1.7952433524 1.7838293909 1.760177055 1.7923280726 1.8274902525 1.8934088345 1.9315630534 1.8905574897 
1.7910364738 1.6642189949 1.6089269787 1.6132934309 1.6552323266 
Curvature 1 86 double
0 0.13053192533 0.17530519602 0.18782956552 0.33709045587 0.13252455358 0.099007011216 0.33212246942 0.32710760262 
0.08218338863 0.4017735925 0.29723213002 0.31081113072 0.197604853 0.287468274 0.35491126111 0.36065650188 0.12326625727 
0.21009887238 0.13054400699 0.55469409743 0.46578197909 0.4353255547 0.62132692147 0.19788383697 0.30580216071 0.15836143159 
0.068789135006 0.17926747644 0.16765254068 0.088740342286 0.12875071302 0.19068417853 0.16254664826 0.23085185373 0.22009848621 
0.37570892857 0.117818134 0.15704020725 0.11187535931 0.22730373981 0.1226186939 0.063017236981 0.19711413223 0.18072714876 
0.1148292888 0.17597859836 0.17546827254 0.2401196119 0.17912120791 0.197747068 0.14726551309 0.10376399629 0.24521903076 
0.14678560249 0.21177960825 0.19286422333 0.23181385547 0.10587213649 0.086956256505 0.09858389479 0.14163936633 0.1010093298 
0.17322817473 0.13992849993 0.1561417417 0.11985433176 0.061738554953 0.093453521021 0.14551254501 0.089794878508 0.085828658257 
0.10609231845 0.10831268958 0.11229973214 0.10961673425 0.17148230875 0.25426987674 0.15059236901 0.1075644398 0.20297777872 
0.26791280716 0.15003768611 0.13424234568 0.14695848322 0 
Torsion 1 86 double
0 0 0.87656347063 0.58753187317 -0.066998396563 -0.83462401565 0.89238081017 -0.038051762734 -0.094997593734 
0.54038466261 -0.69851684416 -0.62663630724 -0.042845785643 0.068291688992 0.69250884492 -0.46608287352 -0.54683537646 -0.66235048834 
0.13761902353 -0.85325363754 -0.2027741328 -0.20392935561 0.4661125319 0.38440088296 -0.13880131891 -0.35929215345 -0.20718503789 
-1.4743419139 0.26952206051 0.09202754231 -0.48120187803 -0.43768996844 0.26842567234 0.22823582799 -0.42582723109 -0.41191688724 
0.05277401746 -0.10176580823 -0.82141218429 0.19993408584 0.49933535111 0.741085794 -2.9841513909 -0.56414424047 -0.047062884903 
1.0268383037 -0.51584361703 -0.90456081842 -0.6905400974 0.16230090383 0.16385934262 -0.5279500454 1.8493931286 -0.24930882612 
-1.6073891703 0.58765965203 0.014777254038 -0.24949568843 1.5373069893 0.16087390515 -0.23679083805 0.051829124613 1.0084116561 
0.66226629389 0.75020268412 0.24703246805 0.88104951622 1.3139821513 0.98862723418 0.12674771746 -0.97100762003 -1.0446239949 
-0.76400922995 -1.0623538115 -0.059855314123 0.36532920573 -0.036250951166 -0.13412080073 0.032185533675 -0.27311072464 -0.17361784344 
0.32430314948 1.2267458819 0.46239524825 0 0 
FrenetTangent 3 86 double
0.67270101443 -0.24913402782 0.69671054345 0.67270101443 -0.24913402782 0.69671054345 0.6604460054 -0.23991020133 0.71151540338 
0.68389845028 -0.13834205602 0.71634096996 0.77585530157 0.0029371171165 0.63090405323 0.83827748858 0.17699295578 0.51571731186 
0.81525740861 0.24349255142 0.52542053167 0.76419539131 0.37244410607 0.52658407852 0.66527532447 0.58576238828 0.46291593958 
0.59475152643 0.68061673579 0.42782178622 0.5462387435 0.76467927638 0.34189009838 0.40864491326 0.86227512811 0.29915036071 
0.22089223592 0.93013408801 0.29335507226 0.072051494184 0.95301042347 0.29424431167 -0.087321932221 0.95485392359 0.28395222266 
-0.26181915911 0.95283429149 0.1534846601 -0.48406830184 0.86478911782 0.13348281105 -0.62123378248 0.75683718403 0.20314050402 
-0.68310122222 0.66142289478 0.30966510049 -0.73150499577 0.57454501277 0.36714911067 -0.81315126568 0.36683531617 0.45190360691 
-0.78282668532 -0.0094856208195 0.62216750458 -0.61358662443 -0.30773664802 0.72719296599 -0.44133064712 -0.6756295861 0.59055221809 
-0.37723846761 -0.87166828366 0.31286665181 -0.25422050817 -0.95221805073 0.16927113482 -0.083554966214 -0.99126445164 0.10204584527 
-0.020471136966 -0.99544478797 0.093116092324 -0.073013293427 -0.98311020378 0.16781950484 -0.066414881432 -0.97950707508 0.19014455922 
-0.024188998891 -0.98058123663 0.19461585417 -0.02534743463 -0.96933255362 0.24444203412 -0.050108353445 -0.93255642676 0.35752994814 
-0.015442004345 -0.8930326107 0.44972691795 0.061607409048 -0.80800897513 0.58594028984 0.069270308717 -0.69537720497 0.71529865591 
-0.028085523079 -0.48439422885 0.87439889893 -0.044624089175 -0.41350197665 0.90940904216 0.050650238188 -0.40914989962 0.91106032348 
0.092144742761 -0.33081646589 0.93918571767 0.15795420554 -0.22434186445 0.96162424928 0.28433240971 -0.1709869439 0.94335494158 
0.32376244918 -0.16785582798 0.93112958148 0.23914524121 -0.11686434049 0.9639254533 0.13874121756 -0.11915497764 0.98313425627 
0.039039081628 -0.1199098123 0.9920169288 -0.036983286895 -0.038082752874 0.99858997613 -0.15333743921 0.0019942297639 0.98817187411 
-0.28448950734 -0.04988809037 0.95738022679 -0.35323639986 -0.16649253245 0.92059995788 -0.39565085968 -0.20654427024 0.89487421556 
-0.46409950336 -0.23925219705 0.85285991651 -0.50501410848 -0.26207280066 0.82236159771 -0.59440489597 -0.19781383284 0.77945654605 
-0.6517977874 -0.167025518 0.73977166793 -0.66998937199 -0.30675327811 0.67603007906 -0.73207226046 -0.30836744481 0.60743701274 
-0.80793526659 -0.29149447615 0.51212457018 -0.84707411842 -0.31291262779 0.42959414018 -0.85071150427 -0.31485901202 0.42089635191 
-0.85204989759 -0.35793868417 0.38195663418 -0.84114046464 -0.43205043486 0.32529239227 -0.83392525629 -0.48828175368 0.2571956375 
-0.85813642745 -0.49044354501 0.15187824413 -0.90260317419 -0.42317249771 0.07894648263 -0.90516990247 -0.41819536939 0.076026841853 
-0.86775897265 -0.49496363328 0.04478132553 -0.8553295653 -0.51803777486 -0.0069425163839 -0.86111906898 -0.50833143294 0.0085500482228 
-0.83348104012 -0.5455447239 0.087694412525 -0.82316050283 -0.55443549847 0.12250740639 -0.83487346942 -0.54163491556 0.098070935064 
-0.79535200798 -0.60063939312 0.081532219579 -0.75496184129 -0.64657083191 0.10944760168 -0.73299390694 -0.65034632558 0.19942314105 
-0.71305643015 -0.65149914539 0.25903550138 -0.65021226926 -0.66704295763 0.36370001041 -0.5391649634 -0.66702351967 0.51417970249 
-0.43350662886 -0.62465842554 0.64951817076 -0.35557947941 -0.61423644996 0.70446917417 -0.28427379361 -0.57037063594 0.77062685388 
-0.19639101184 -0.40887762241 0.8912068561 -0.084815337817 -0.31415458091 0.94557562245 0.041681727893 -0.35062077898 0.93558949487 
0.10316978784 -0.39188440412 0.91421146825 0.10316978784 -0.39188440412 0.91421146825 
FrenetNormal 3 86 double
-0.35145458231 0.72101898839 0.59716940223 -0.35145458231 0.72101898839 0.59716940223 0.45066785423 -0.63127964235 -0.63117707367 
-0.55291793697 -0.7388597143 0.3851857702 -0.41550081026 -0.75013009506 0.51445497097 -0.087904813024 -0.88960309256 0.44819536092 
0.57496514013 -0.448556356 -0.68426039132 0.23909212569 -0.92184278585 0.30502595562 0.60581378742 -0.78591047607 0.12383205793 
-0.10548844905 -0.46150125217 0.88084549233 0.48853169101 -0.62239165754 0.61152711428 0.91086100722 -0.36453635563 -0.1935083227 
0.94011826591 -0.28312108451 0.18978961408 0.92973601586 0.042634435624 -0.36575025046 0.9124696904 -0.03770670299 0.40740307884 
0.70268643306 0.079185770382 0.70707947966 0.7887342232 0.4972797806 -0.36140163939 0.64418122849 0.64083862626 -0.41756005551 
0.20564289002 0.58105421458 -0.78745603147 0.65809772069 0.73578573494 0.15977090561 0.1391525294 0.87640332177 -0.46103556387 
-0.28040637381 0.89797964029 -0.33912362222 -0.63322932683 0.7419419068 -0.22032436672 -0.18996205104 0.71353855657 0.67437166863 
0.051499026864 0.31755985178 0.94683873536 -0.88293716226 0.29993216131 0.36119616015 -0.93260322655 0.11386596279 0.34247009263 
0.43381441265 -0.092755242821 -0.89621510828 0.63344700539 -0.17568246465 -0.75357850485 -0.91611753916 0.13537160707 0.37736346199 
0.35438204612 -0.19044164424 -0.91550278292 -0.22080850862 -0.23305243725 -0.94706397039 0.39539573226 -0.34725440317 -0.85033910552 
-0.67019042577 -0.32454552398 -0.66746909747 -0.25326112359 -0.58049726928 -0.7738744883 0.30122116533 -0.66897447602 -0.67951376733 
0.36782115922 -0.81837912021 -0.44154638536 -0.68687218122 0.67370750149 0.2726257675 -0.77863671103 -0.58744525257 -0.22052879054 
-0.073758488796 -0.94287489467 -0.32487939042 -0.72677667161 -0.68567375305 -0.040585391252 -0.86722051212 0.37365049949 0.32911075277 
0.010515559815 -0.98343758508 -0.18094181181 0.93235050046 -0.24960380139 -0.26157309997 0.90840839264 0.41066274669 -0.07842385264 
0.56302664114 -0.81753636174 -0.12097643821 0.71424923368 -0.69989140239 -0.00023884376833 0.9869433441 0.050198713876 0.15304549868 
0.69342559215 0.67887597726 0.24142981516 0.020301418237 0.98244089008 0.18546630402 0.90535213087 -0.25138498112 0.34226175712 
0.32886332137 0.84747359545 0.41669823719 0.86284208521 -0.17707942618 0.47344103414 0.64800293658 -0.69180342318 0.31859098837 
0.23034652927 0.88576447649 0.40294139603 0.035888887238 0.89618838487 0.44221981706 0.67729165713 -0.4251753352 0.60041814224 
0.30688105449 0.53379075668 0.78796665315 0.32015108602 -0.9456195058 -0.057506802794 -0.13086001994 0.90239486112 0.4105595813 
0.15115056171 0.53035992312 0.8341893428 -0.23987058802 0.83712780915 0.49160871854 0.082839255057 0.35000625562 0.93307731665 
0.30385129072 -0.24668071397 0.92022987263 0.41883038993 -0.9056604872 -0.066031707475 -0.40607523067 0.90366199318 0.13600701861 
-0.36284126795 0.69253480931 0.62349158147 0.022913796243 -0.051213308094 0.99842483694 0.13587822309 -0.24631979745 -0.95961641601 
-0.50462377016 0.68689065707 -0.5230067646 0.5366098143 -0.83014222765 -0.15137301302 -0.27851258386 0.5693481026 0.77348140165 
-0.6040756374 0.77431718109 -0.18848216724 -0.43371179102 0.36712918589 -0.8228670872 0.013001555507 -0.30650873305 -0.95177904795 
-0.47994542984 0.18426073721 -0.85772977394 -0.54359918539 0.074019920856 -0.83607474364 -0.64231847603 -0.069205011862 -0.76330704287 
-0.46834812757 -0.45959996672 -0.75459784124 -0.88250157232 0.46888187825 -0.03661637764 -0.28746171675 -0.71610081701 -0.63605454269 
-0.48246752024 -0.75096835585 -0.45085654085 -0.99531449533 0.070930232811 -0.065711166953 -0.84369511561 0.48924921275 0.22093836181 
-0.72962569438 0.59485719983 0.33732959834 -0.72962569438 0.59485719983 0.33732959834 
FrenetBinormal 3 86 double
-0.65111674971 -0.64657857571 0.39747090923 -0.65111674971 -0.64657857571 0.39747090923 0.60059100819 0.7375154971 -0.30880630244 
0.47598809301 -0.65950572259 -0.58179681779 0.47477113192 -0.66128376195 -0.58077203658 0.53811113721 -0.42104611542 -0.73017571358 
0.069068410534 0.85994684306 -0.50568862136 0.5990328533 -0.10719732283 -0.79351646148 0.43634664845 0.1980584461 -0.87770977795 
0.79695847378 -0.56901445781 -0.20268137032 0.68041165627 -0.16701565462 -0.71354449695 -0.057806231467 0.35156059061 -0.93437871911 
0.25958479581 0.23386540962 -0.93697529528 -0.36110874123 0.29992238606 -0.8829762394 0.39971733044 0.29467302074 -0.86798264188 
0.66157577398 0.29297854313 -0.6902760814 -0.3789145079 -0.069660616575 -0.92280615202 -0.44620525811 -0.12854311326 -0.88565091072 
-0.7007736596 -0.47423175133 -0.53293575977 -0.17834750122 0.35849320852 -0.91633770426 -0.56517394905 -0.31200812234 -0.76369453246 
-0.55547695387 -0.43993475496 -0.70562225383 -0.47173305371 -0.59566799679 -0.65011350059 -0.87700722863 0.18543837432 -0.44325041484 
-0.92468318293 0.37329632171 -0.074905723504 -0.39470736087 -0.057632304051 -0.91699761003 -0.35109797699 -0.066553207539 -0.93397049264 
0.90076966419 0.022048560667 0.4337371013 0.7703336617 0.051283514294 0.63557536989 -0.39537035545 -0.14913221609 -0.90633430044 
0.93478781428 0.046823268808 0.35210697775 0.97498774868 -0.077980523077 -0.2081295941 0.91714304654 0.098756723204 0.38612917761 
0.74202852891 -0.31170973532 -0.5934902722 0.96543427038 -0.10071949401 -0.24040019363 0.9510349278 0.26253322313 0.16312226354 
0.92947232246 0.30922135543 0.20115505245 -0.72540698738 -0.61248209585 -0.31408658826 0.62542739435 -0.69821517806 -0.34833337413 
0.99301008641 -0.039336991376 -0.11128148722 0.66846551037 -0.692475438 -0.27135148647 -0.40875868694 -0.91167360894 -0.042042438144 
0.94607996464 0.068373512963 -0.31663506316 0.27116802522 0.96127034088 0.049266965053 -0.39439202164 0.90396803029 0.16521723119 
0.82551617275 0.56325476842 0.035596550101 0.69891363464 0.71323329198 0.053084861587 -0.04929974928 0.99873725883 -0.0096655340292 
-0.66198690951 0.73255619985 -0.15853941371 -0.93531379666 0.0842029343 -0.34365384855 0.15426573293 0.94559243636 0.28645597907 
-0.82247222861 0.47386378974 -0.31463080259 0.021547302073 0.94866259754 0.31555505034 0.47620900226 0.69446217407 0.53939528636 
-0.72256495957 0.43304014654 -0.53886557757 -0.7415026832 0.32054454479 -0.58942765935 0.073117827165 0.85096148757 0.52011376643 
-0.50305528861 0.7937873761 -0.34181424509 0.42422720331 0.088822506247 0.90118912685 -0.50908308918 0.294189254 -0.80888014634 
-0.50116312685 0.76850390391 -0.39779048501 -0.48471106831 0.33548390852 -0.80777826622 -0.54562471054 0.79942263544 -0.25143015969 
-0.41385536726 0.83583117584 0.36070761078 0.099441512502 -0.026535242661 0.99468953271 -0.12558007283 0.092236842425 -0.98778641933 
-0.33961828522 0.52479190126 -0.78054652694 -0.51757733012 0.85382320236 0.055674468569 0.48990923397 -0.82518222937 0.2811818465 
0.22508710835 -0.48016890722 -0.84780517467 0.18562514317 -0.058865608923 0.98085582341 -0.47478103447 0.6184451118 -0.62618576557 
0.050078016112 -0.19916129769 -0.97868634904 0.49186044822 -0.66870196664 -0.5575939197 0.68011094091 -0.69505543187 0.2331245476 
0.51108014225 -0.73593263569 -0.44407234087 0.53077672382 -0.74133308572 -0.4107326691 0.54472756273 -0.74181553673 -0.39112861294 
0.76988442908 -0.63132378539 -0.093317971775 -0.30782171574 -0.63471518635 -0.70878940704 0.91463335368 -0.40233935618 0.039608973667 
0.85361329792 -0.51852253414 -0.049786737305 -0.046426434926 -0.94671843827 -0.31869857981 -0.53520200435 -0.79856137971 -0.2754242861 
-0.67601948269 -0.70183440043 -0.22455763937 -0.67601948269 -0.70183440043 -0.22455763937 
SiphonLabel 1 86 int
0 0 0 0 0 0 0 0 0 
0 0 0 0 0 0 0 0 0 
1 1 1 1 1 1 1 1 1 
1 1 1 1 1 1 1 1 1 
1 1 1 1 1 1 1 1 0 
0 0 0 0 0 0 0 0 0 
0 0 0 0 0 0 0 0 0 
0 0 0 0 0 0 0 0 0 
0 0 0 0 0 0 0 0 0 
0 0 0 0 0 
