# vtk DataFile Version 5.1
vtk output
ASCII
DATASET POLYDATA
POINTS 81 float
105.3 72.3425 26.9506 104.602 72.3612 26.3331 103.932 72.2546 25.8606 
103.15 72.1138 25.5766 102.438 71.8644 25.3561 101.645 71.5372 25.1465 
100.865 70.9464 24.9773 100.432 70.4978 24.9165 99.9086 69.7226 24.752 
99.5584 68.8533 24.6231 99.3692 68.1737 24.4589 99.2225 67.5 24.1589 
99.15 66.8049 23.8514 99.1833 66.2688 23.5586 99.3108 65.4086 23.1784 
99.4504 64.9918 23.0586 99.7565 64.2639 22.8642 100.201 63.4847 22.663 
100.722 62.8036 22.4635 101.413 62.249 22.264 102.161 61.7241 21.9303 
102.633 61.4461 21.6629 103.176 61.1748 21.2442 103.819 60.9734 20.6029 
104.364 61.0827 19.8514 104.592 61.1972 19.3183 104.771 61.4776 18.5103 
104.784 61.9466 17.8209 104.553 62.6331 17.1529 104.142 63.3191 16.7828 
103.672 64.0486 16.5795 103.194 64.819 16.5996 102.708 65.5084 16.6878 
102.261 66.2143 16.8186 101.977 66.6642 16.9632 101.576 67.4578 17.3962 
101.263 68.1633 17.9681 101.109 69.0145 18.395 101.13 69.7052 18.568 
101.392 70.5446 18.6412 101.693 71.3872 18.487 101.863 71.7595 18.347 
102.273 72.2669 17.8276 102.545 72.5412 17.3868 102.943 72.8914 16.5691 
103.241 73.109 15.777 103.467 73.0245 14.8096 103.564 72.8838 14.1718 
103.618 72.6439 13.3334 103.648 72.4382 12.5334 103.739 72.3253 11.6963 
103.742 72.2584 11.0661 103.758 72.3205 10.0775 103.801 72.4816 9.45065 
103.915 72.6965 8.74709 104.068 72.8595 7.93711 104.218 73.118 7.11657 
104.394 73.375 6.44982 104.572 73.5118 6.07122 104.925 73.8229 5.396 
105.483 74.2048 4.72194 106.038 74.6328 4.10502 106.465 74.9118 3.72302 
107.055 75.2623 3.26759 107.551 75.5495 3.04569 108.207 75.9515 2.79425 
108.9 76.4103 2.57433 109.618 76.8185 2.41642 110.432 77.2686 2.22691 
111.18 77.6998 2.13984 111.955 78.0739 2.09786 112.665 78.4397 2.08012 
113.348 78.766 2.07846 114.035 79.0769 2.02436 114.448 79.2911 2.01557 
115.119 79.6217 1.9662 115.62 79.9563 1.90149 116.256 80.411 1.75932 
116.979 80.9174 1.62227 117.73 81.4798 1.40105 118.126 81.7347 1.25598 

LINES 2 81
OFFSETS vtktypeint64
0 81 
CONNECTIVITY vtktypeint64
80 79 78 77 76 75 74 73 72 
71 70 69 68 67 66 65 64 63 
62 61 60 59 58 57 56 55 54 
53 52 51 50 49 48 47 46 45 
44 43 42 41 40 39 38 37 36 
35 34 33 32 31 30 29 28 27 
26 25 24 23 22 21 20 19 18 
17 16 15 14 13 12 11 10 9 
8 7 6 5 4 3 2 1 0 

CELL_DATA 1
FIELD FieldData 2
Length 1 1 double
64.442284647 
Tortuosity 1 1 double
1.1328171174 
POINT_DATA 81
FIELD FieldData 7
MaximumInscribedSphereRadius 1 81 double
1.1892995563 1.27400866 1.385240535 1.4676878729 1.4672394862 1.4498668385 1.5163975415 1.4874329299 1.5122263242 
1.5265932309 1.4955593962 1.4606680495 1.512809041 1.5651832167 1.6454984035 1.6475801083 1.6577924147 1.6792687046 
1.6833446074 1.6635207516 1.6242918804 1.6177767177 1.6102837434 1.6605853018 1.6923356517 1.738148062 1.7783257097 
1.7952438293 1.8218360213 1.8029678538 1.7275539874 1.6353460844 1.6832832212 1.7933152 1.8604364586 2.0021069522 
2.087784883 2.0729274913 2.0132233127 1.9428349904 1.9709547729 1.9855860421 1.928556968 1.9283488427 1.9661828554 
1.9388447308 1.8400519063 1.8275310899 1.8536242687 1.8279054623 1.7933892373 1.8054198268 1.7931380893 1.7320527956 
1.6702383255 1.6753880615 1.7733469553 1.8110639796 1.7912054821 1.7900134207 1.8275761515 1.894132471 1.9073760825 
1.8545291287 1.8269661123 1.7978398636 1.8312271122 1.8787205012 1.8239308852 1.8072974641 1.8468922609 1.8877427166 
1.9288343115 1.9445628135 1.9447519793 1.9769800391 1.9976430597 2.0158019398 2.0419312302 2.0841243777 2.0977388489 

Curvature 1 81 double
0 0.21200722433 0.32270957296 0.20011964561 0.082585662064 0.28209272572 0.21053360107 0.24199195205 0.22531535794 
0.1718770785 0.2588574181 0.13390372152 0.25040222013 0.14866949841 0.31699375319 0.12083883498 0.13765170596 0.14705763842 
0.26576297442 0.15257659053 0.16106964497 0.24067128645 0.24105741049 0.40985499032 0.30969010236 0.30667974528 0.38675644901 
0.36250186375 0.39368110029 0.23434268723 0.28505478607 0.11502314808 0.083575718066 0.1577801374 0.27251080901 0.19581937322 
0.28549462991 0.35091399079 0.4018897974 0.29072431289 0.26980613481 0.65905072169 0.27390454185 0.19330505119 0.1584164916 
0.39614547602 0.18260227682 0.13939272446 0.04221375438 0.16318030884 0.14336534084 0.20900727999 0.23957875135 0.14297682112 
0.12701686927 0.12339361563 0.11356462698 0.30364494669 0.12899392731 0.22160685954 0.079013378392 0.12579352552 0.092527615318 
0.30418543104 0.082048943081 0.079501710625 0.11240815136 0.018964387331 0.11254608806 0.10340082746 0.044558642486 0.046276315739 
0.095807378912 0.12232444534 0.08407651538 0.20111045927 0.11414564186 0.032573441069 0.089896342289 0.13166346822 0 

Torsion 1 81 double
0 0 -0.068485453987 -0.81540398281 -0.48812333512 -0.012564629378 -0.42695518621 -0.11508807091 -0.013858131102 
-1.1163887897 0.075203904995 0.55773234654 0.22023526988 0.79634627514 -0.17367157836 -1.0033928032 -0.25164991191 -0.087411228796 
-0.28639936882 -0.77092860628 -0.1628979767 0.033166864839 0.31358433941 -0.23183947411 -0.37286083973 0.57323431999 0.049307061612 
-0.10983862499 0.13815809911 0.42170383513 -0.046735941378 -0.46890004704 0.029190274786 0.24415916396 0.042731339428 0.50063282889 
0.33473697672 -0.22549640392 0.16110496539 0.40793425594 -0.26642475484 0.088864767901 0.52700334828 0.18342824467 -0.31403611119 
-0.01594428043 0.37587579962 0.51630988857 4.0722006158 -0.36034399211 0.21779423652 0.54909228159 0.37884002597 1.5281096325 
0.58040172145 0.31706697453 1.7850107972 -0.11417769576 -0.73988809704 0.093594253573 -0.41867404857 0.34993360557 -1.1059084808 
-0.18620881575 -1.2222083744 0.73528797418 0.49915403295 1.3895951955 0.40288968421 0.32045430629 -0.76293916752 1.8759614578 
0.71001054726 0.094935433576 1.4983800851 -0.0085581307634 -0.93150926579 0.098528286979 -0.72976766631 0 0 

FrenetTangent 3 81 double
0.78123105283 0.050176795017 0.62222209164 0.78123105283 0.050176795017 0.62222209164 0.87684923828 0.14945303967 0.45694551345 
0.91963786686 0.24031019179 0.31067218342 0.90224886136 0.34563826063 0.25783945578 0.84558156295 0.4934671369 0.20367131655 
0.75167865603 0.64394285394 0.14253700902 0.60956172762 0.77964428379 0.14348968944 0.46328677931 0.87243803177 0.15561889615 
0.32372287523 0.9296506644 0.17593505116 0.22857160013 0.92084846334 0.31590050836 0.14480238699 0.9043822967 0.40140369971 
0.028611184858 0.89848807838 0.43806457642 -0.10317675117 0.89603285053 0.43183294083 -0.19118323996 0.9139837757 0.35788633183 
-0.35151783256 0.90278892135 0.24780511874 -0.43395214691 0.87142468474 0.22870188679 -0.53773717908 0.81304755351 0.22314211158 
-0.68239862878 0.69562012905 0.2245990817 -0.76693468439 0.5753748444 0.28417420416 -0.77239330572 0.50844704788 0.38064442829 
-0.75586105735 0.40916588936 0.51113338471 -0.71476399754 0.28483309904 0.63873510433 -0.64807582144 0.050290500589 0.75991354457 
-0.5096344633 -0.14771878456 0.84761540483 -0.2794128533 -0.27126217643 0.92105661555 -0.11422235077 -0.44459309587 0.88842007726 
0.12136202803 -0.64341374687 0.75583728969 0.34960865533 -0.74722785674 0.5651763603 0.49954840105 -0.8029026762 0.32526710188 
0.53134557955 -0.84091044233 0.1026718222 0.54980652753 -0.83300351692 -0.061789344361 0.5510934811 -0.8243548173 -0.12936425425 
0.52436650312 -0.82829732191 -0.19739127874 0.4472577321 -0.81115761589 -0.37680743526 0.36780240208 -0.77243418165 -0.51775170501 
0.24469011475 -0.81607766885 -0.52358761076 0.0801677409 -0.92893640072 -0.36145580191 -0.17982268869 -0.97120716067 -0.15627044412 
-0.31701722113 -0.94732194792 0.045620263991 -0.35270196582 -0.90945191371 0.22022384059 -0.46661436308 -0.70768873274 0.53051644057 
-0.48222591222 -0.55304558917 0.67941058711 -0.43042886238 -0.40123818859 0.80854122371 -0.37748046173 -0.30806428603 0.87327252143 
-0.2846496129 -0.072290846721 0.95590199882 -0.19567580538 0.13629408585 0.97115132773 -0.098499574059 0.24844522963 0.96362482419 
-0.049511588248 0.2620766131 0.96377614179 -0.072713205728 0.19051973091 0.97898673221 -0.063240797781 0.12139781421 0.99058728651 
-0.011899751015 0.0029360573791 0.99992488493 -0.036036210515 -0.13677677411 0.98994621349 -0.11288667622 -0.27020315318 0.9561625669 
-0.16865377702 -0.2387309495 0.95632810125 -0.17698187324 -0.24635855353 0.95288240599 -0.20272660355 -0.32073461663 0.92521955768 
-0.30194970576 -0.33607409191 0.89212139305 -0.42061650694 -0.35487307637 0.83495320453 -0.51478954583 -0.39167316782 0.76261645217 
-0.59000284959 -0.429059175 0.68396261727 -0.62574428013 -0.45060532454 0.63670946073 -0.69636917322 -0.43123774281 0.57367585253 
-0.75950711631 -0.44592255688 0.47360533521 -0.80935006177 -0.48413615277 0.33251265101 -0.80877197216 -0.51584559502 0.28247339546 
-0.83061815485 -0.51048140739 0.22244597892 -0.85568842286 -0.47968609144 0.19416121309 -0.86079656789 -0.48559641509 0.15239878726 
-0.88159920948 -0.46605293239 0.074682648928 -0.8945128502 -0.44559314691 0.035965375663 -0.89555561653 -0.44477475984 0.012471997162 
-0.90607977277 -0.42149582893 0.036887824169 -0.90126352239 -0.43019652006 0.051526860392 -0.89243538213 -0.44862689406 0.047885265439 
-0.86658050622 -0.4918583878 0.084341879169 -0.81255193854 -0.56384191472 0.14778918224 -0.80505811493 -0.56964146237 0.16549935326 
-0.79426529598 -0.57606348174 0.19311526249 -0.78819109405 -0.56161190751 0.25168803031 -0.78819109405 -0.56161190751 0.25168803031 

FrenetNormal 3 81 double
-0.3360374634 -0.80621450024 0.48692607529 -0.3360374634 -0.80621450024 0.48692607529 -0.43806052068 -0.14324083367 0.88745988292 
0.12630753714 -0.92991204258 0.34541279524 0.11421832965 -0.7681350519 0.63001802769 0.43977911069 -0.86017433924 0.25825266681 
0.53836328615 -0.72392379962 0.43139228606 0.75629492529 -0.51768295711 -0.40002792639 0.85635957088 -0.48591695915 0.17473692846 
0.75888087315 -0.14406677792 -0.63509415355 0.35012493895 0.2250220639 -0.90927311512 0.9891716539 -0.14211625423 -0.036638905518 
0.87353191737 0.19056693758 -0.44791319655 0.68963238788 -0.24841377524 0.68021891024 0.78892299364 -0.073847703908 0.61003854529 
0.90970436851 0.2668861772 0.31813476757 0.89919748193 0.40316550238 0.17000431224 0.82507389136 0.5619215619 -0.059137399945 
0.71841247696 0.69495440442 0.030362620535 0.055329588916 0.50046771411 -0.86398536083 0.052082661575 0.64798815176 -0.75986758817 
-0.24028276275 0.55284752034 -0.797887093 -0.23420111285 0.76308982041 -0.60236514235 -0.29456093225 0.90360757535 -0.31100997886 
-0.83247337587 0.3335777408 -0.44239571574 -0.81988360603 0.56665144649 -0.081835265944 -0.58613114079 0.75220239375 0.30106784059 
-0.77972206352 0.4094189519 0.4737189309 -0.65359653445 0.2376859807 0.71855197775 -0.29720757919 0.19383733096 0.93493034179 
0.0020674146588 0.12248279266 0.99246848378 -0.4572156138 -0.36203175835 0.81233422213 0.6259895459 0.30591529333 0.7173234429 
0.10889777467 -0.16467966724 0.98031723532 0.54491637548 -0.08694747515 0.83397019149 0.4212500225 -0.35797275946 0.83330901953 
0.61572463615 0.54792815377 -0.5662666428 0.65335867629 0.32283187956 -0.68476420589 0.85428098716 -0.075418997629 -0.51431116046 
0.13055091973 -0.091230676428 -0.98723524098 0.36478948341 -0.35036396132 -0.86265504543 0.2098688944 -0.67127961588 -0.71087180593 
-0.12986582127 -0.72184404781 -0.67976175173 -0.38326267552 -0.72976357909 -0.56617562663 -0.45836671997 -0.75724872319 -0.46526801013 
-0.32318574241 -0.93153979985 -0.16668706369 -0.51945121843 -0.85436418546 0.015240415878 -0.81567682176 -0.57486305906 0.064836608221 
-0.65657487675 0.71861275596 -0.22913999693 0.50929933299 0.85104810269 -0.12779403869 -0.96165940249 0.25799242106 -0.093011312645 
0.069210897948 0.99759982867 -0.0021055760457 0.25329868077 0.95699180206 0.14144422617 0.88812976646 0.40404199445 0.21903329576 
0.27370760274 -0.94341216362 -0.18723684932 -0.086516839645 0.96831210092 0.23427870512 0.7261914104 0.58460628274 0.36177552383 
0.9473846536 -0.21007813382 0.24151500123 0.28095504483 0.82412991525 0.49180702066 0.79706710386 0.10892253344 0.59398645915 
0.13404906885 0.78330522856 0.60701216302 0.76596758168 -0.20067632992 0.61075582226 0.69117556474 -0.18773471052 0.69787679226 
0.43116891961 0.20005382699 0.87981351949 0.055608772964 0.50043612924 0.8639857319 -0.06423939457 0.55490722038 0.82942828319 
0.4967257744 -0.49870958371 0.71031841885 0.22693835402 -0.68503068324 -0.69226580624 0.04730723647 0.22180131203 0.97394363459 
0.41913673459 -0.70024350917 0.57791299136 -0.28746528608 0.63495426699 0.71707516213 0.3760649014 -0.74163177728 0.55547951975 
0.086678983901 -0.2702496277 -0.9588805413 -0.27162451529 0.65365932877 0.70636364898 0.13428540804 -0.36544394923 -0.92109616716 
-0.49269080453 0.81638379436 -0.3012860293 -0.34183636094 0.25558334178 -0.90433680548 0.32465075792 -0.18960204641 0.92663528391 
-0.36223748379 0.19380997685 -0.91171360537 0.26753720091 -0.68097398991 -0.68168781066 0.26753720091 -0.68097398991 -0.68168781066 

FrenetBinormal 3 81 double
0.52607686252 -0.5894917038 -0.61297851991 0.52607686252 -0.5894917038 -0.61297851991 0.19808683337 -0.97833831189 -0.060131139519 
0.37190401974 -0.27841444786 -0.88553531569 0.41581385901 -0.53898305617 -0.73252720074 0.30263204423 -0.12880330317 -0.94436410081 
0.38097791301 -0.24753168123 -0.8908332597 -0.23759731943 0.35236223787 -0.90520073306 0.22806500274 0.052312422316 -0.97223956153 
-0.56506930586 0.33910825067 -0.7521318195 -0.9083873352 0.31843865708 -0.2709783588 0.023910412717 0.4023625625 -0.91516810503 
-0.48592529204 0.39547871663 -0.77940566796 0.71677174023 0.3679887594 -0.59230274806 0.58399441681 0.39897390187 -0.70694437317 
0.22107278283 0.33725944302 -0.91508627615 0.055941243117 0.279421897 -0.95853741752 -0.17346988221 0.1523083517 -0.9729904244 
-0.13496527104 0.18207419322 -0.97397811257 -0.63933545691 -0.64689709813 -0.41566130198 -0.63300551155 -0.56709166339 -0.52698298612 
-0.60904700632 -0.72590832357 -0.31956040096 -0.65898578631 -0.58014138938 -0.47872090175 -0.70230448301 -0.42539888965 -0.57079260492 
-0.21739547439 -0.93107736066 -0.29297466816 -0.49971925115 -0.77802504448 -0.38073310888 -0.80212439209 -0.48634199689 -0.34650818414 
-0.61425138324 -0.64683450137 -0.45199598009 -0.67125655175 -0.62060930117 -0.4052884615 -0.81370698036 -0.56371480527 -0.14179763197 
-0.84715264321 -0.52713147647 0.066819201024 -0.69904696894 -0.41837560486 -0.5799096382 -0.55175453193 -0.476292944 0.68462542166 
-0.84450047074 -0.53554099163 0.0038472338718 -0.70924372736 -0.57832815836 0.40312513745 -0.82901737712 -0.52459597644 0.19372467559 
0.74900595471 -0.18382594133 0.63655172854 0.75279185267 -0.18126428484 0.6328093596 0.48771692159 -0.22598368496 0.84324585888 
0.93939157909 -0.30701480528 0.15259544711 0.8617017791 -0.2239247893 0.45533255169 0.85920083992 -0.22036409611 0.46175056234 
0.86636772681 -0.41603094469 0.2762701848 0.81721522011 -0.55358200355 0.16033168548 0.80461695921 -0.57590864458 0.14464018134 
0.90251070563 -0.35638130531 0.24179907246 0.83179409162 -0.50148355982 0.23797652904 0.57006066024 -0.77962005567 0.25927478174 
-0.75263406371 -0.64413628669 0.13649326106 -0.85751208687 0.48930497549 -0.15891400765 -0.26685538237 -0.95848968767 0.10042770295 
-0.99753107597 0.069180643335 -0.012074396741 -0.96671669575 0.25584918382 0.00015901840181 -0.44551331771 0.87392237798 0.19436450552 
0.94691079395 0.2301760702 0.22445250057 -0.98040412739 -0.040977290228 -0.19268785297 -0.65692310027 0.74522801871 0.1143994775 
0.10624826267 0.91810750048 0.38182446784 -0.86263898409 0.44144646613 -0.24693926514 -0.31571467411 0.91363450642 0.25611761601 
-0.79619563213 0.44982345789 -0.40463733406 -0.1474373077 0.8698757682 0.47072113634 -0.19325194254 0.88249061618 0.42879365557 
-0.48707525398 0.87242852978 0.040325641833 -0.58468807229 0.717757526 -0.37810579471 -0.58460345297 0.65267242846 -0.48193101571 
-0.2516684046 0.70049802556 0.66780650663 0.46507666729 -0.54830120982 0.69503199699 -0.50674578842 0.84557690344 -0.16795358371 
-0.21704200413 0.54078987793 0.81267402836 -0.3423601468 0.63109415008 -0.69606731256 -0.23781364057 0.50215308416 0.83143667974 
0.41413306935 -0.86562486386 0.28140255142 -0.33755619667 0.62262383189 -0.70597123033 0.43072789312 -0.81558851751 0.386379156 
0.079334717299 -0.30264306809 -0.94979638658 0.47213054288 -0.78534034063 -0.40041640809 -0.49647086215 0.79972474536 0.33757519857 
0.4877772493 -0.79409606338 -0.36260832476 0.55423699388 -0.46996435016 0.68698971186 0.55423699388 -0.46996435016 0.68698971186 

SiphonLabel 1 81 int
0 0 0 0 0 0 0 0 0 
0 0 0 0 0 0 0 0 0 
1 1 1 1 1 1 1 1 1 
1 1 1 1 1 1 1 1 1 
1 1 1 1 1 1 0 0 0 
0 0 0 0 0 0 0 0 0 
0 0 0 0 0 0 0 0 0 
0 0 0 0 0 0 0 0 0 
0 0 0 0 0 0 0 0 0 

