ply
format ascii 1.0
element vertex 149
property float x
property float y
property float z
property float curvature
property float torsion
end_header
60.5 90 2 0.0645423 0.00100312
61 90 2.5 0.0671159 0.0010642
61.5 89.5 3 0.0710656 0.00112326
62 89 3.5 0.0750769 0.00113629
62.5 88.5 4 0.0790845 0.00110222
63 88 4.5 0.0829787 0.00111191
63.5 87.5 5 0.0865816 0.00120755
64 87.5 5.5 0.0896849 0.0014059
64.5 87 6 0.0920606 0.00198253
65 86.5 6 0.093467 0.00327082
65.5 86.5 6 0.0936786 0.00540294
66 86 6.5 0.0925148 0.00848371
66.5 85.5 6.5 0.0898849 0.0124845
67 85 6.5 0.0857864 0.0177545
67.5 84.5 6.5 0.0802826 0.0248833
68 84.5 6.5 0.0734928 0.034331
68.5 84 7 0.065575 0.047705
69 83.5 7 0.0566952 0.0686836
69.5 83 6.5 0.0470502 0.104553
70 83 6.5 0.0369824 0.173178
70.5 82.5 6.5 0.0269756 0.328919
71 82 6.5 0.018107 0.734893
71.5 82 6.5 0.013853 1.26728
72 81.5 6.5 0.0183855 0.732981
72.5 81 6.5 0.0279805 0.327287
73 81 6.5 0.0354004 0.211326
73.5 80.5 6.5 0.0471831 0.127629
74 80 6.5 0.0593315 0.089259
74.5 80 6 0.0715458 0.0700976
75 79.5 6.5 0.0835304 0.0603471
75.5 79 6.5 0.0949314 0.0561397
76 79 6.5 0.105339 0.0557143
76.5 78.5 7 0.114402 0.0572845
77 78.5 7.5 0.121905 0.0601493
77.5 78 7.5 0.12766 0.0641651
78 77.5 8 0.131557 0.068473
78.5 77.5 8.5 0.133629 0.0721832
79 77.5 9 0.133963 0.0752614
79.5 77.5 9.5 0.132668 0.0774719
79.5 77 10 0.129927 0.0778864
80 77 10.5 0.125931 0.0762302
80.5 77 11 0.120797 0.0724824
80.5 76.5 11.5 0.114615 0.0686014
81 76.5 12 0.107522 0.0650884
81 76.5 12.5 0.0996722 0.0617968
81 76.5 13 0.0912322 0.0607466
81 76 13.5 0.0824883 0.0645117
80.5 75.5 14 0.0737732 0.074195
80.5 75.5 14.5 0.0654331 0.0916862
80.5 75.5 15 0.0578426 0.119786
80.5 75.5 15.5 0.0534212 0.145091
80.5 75 16 0.0481751 0.190361
80.5 75 16.5 0.045181 0.233145
80.5 74.5 17 0.044973 0.25483
80.5 74.5 17.5 0.0478575 0.243985
81 74 18 0.0538239 0.208292
80.5 74 18.5 0.0624414 0.166589
80.5 74 19 0.0731314 0.131636
81 73.5 19.5 0.0853717 0.106389
81 73.5 20 0.098575 0.0896165
80.5 73.5 20.5 0.111951 0.0799384
80.5 73 21 0.12451 0.0762059
80.5 73 21.5 0.135036 0.076378
80.5 72.5 22 0.142021 0.0796675
80 72 22.5 0.144113 0.0873541
80 71.5 23 0.140565 0.100394
80 71 23.5 0.131979 0.117106
79.5 70.5 23.5 0.119818 0.139112
79.5 70 23.5 0.105655 0.169567
79.5 69.5 24 0.0908987 0.21373
79.5 69 24 0.0767878 0.279743
79 68.5 23.5 0.0647566 0.373648
79 68 23.5 0.0569619 0.46814
79 67.5 24 0.056183 0.476512
79.5 67 24.5 0.0637258 0.378051
79.5 66.5 25 0.0729277 0.299032
79.5 66 25 0.0920178 0.207942
79.5 65.5 25 0.117115 0.150949
79.5 65 25 0.148654 0.116746
79.5 64.5 25.5 0.187395 0.0967074
79.5 64 25.5 0.233141 0.08682
79.5 63.5 25.5 0.283951 0.0849761
79 63 26 0.335036 0.0896805
79.5 62.5 26 0.37939 0.0975188
80 62 26.5 0.408833 0.106234
80 62 27 0.416735 0.113979
80 62 27.5 0.401807 0.119564
80.5 62 28 0.368949 0.123624
81 62 28 0.326428 0.128017
81.5 62.5 28.5 0.282075 0.132903
81.5 62.5 29 0.241437 0.13759
82 63 29.5 0.206982 0.142935
82.5 63.5 30 0.179138 0.149789
82.5 64 30.5 0.157759 0.158071
82.5 64.5 31 0.142557 0.16559
82.5 65 31 0.133021 0.170126
82.5 65.5 31.5 0.128511 0.171397
82 66 32 0.128386 0.169531
82 66.5 32 0.131965 0.165737
82 67 32.5 0.138576 0.161252
81.5 67.5 33 0.144442 0.157952
81 68 33.5 0.15503 0.152917
81 68.5 34 0.167066 0.148312
80.5 69 34 0.179674 0.144241
80 69 34.5 0.19205 0.139408
79.5 69 34.5 0.203121 0.132461
79 69.5 34.5 0.211502 0.123511
78.5 70 35 0.215646 0.113198
78 70 35.5 0.214298 0.101228
77.5 69.5 35.5 0.206856 0.0873966
77 69.5 36 0.193758 0.071021
76.5 69.5 36.5 0.176207 0.0507797
76 69 37 0.155625 0.0246415
75.5 68.5 37.5 0.133446 -0.00679361
75 68 37 0.111056 -0.0486354
74.5 68 37.5 0.089583 -0.113418
74 67.5 38 0.0700924 -0.222309
73.5 67 38 0.0541255 -0.40275
74 66.5 38.5 0.0445346 -0.608139
73.5 66 39 0.0446446 -0.594691
73 65.5 39.5 0.0537353 -0.391554
72.5 65.5 39.5 0.0678729 -0.225797
72 65 39.5 0.0841092 -0.127632
71.5 64.5 40 0.100726 -0.0712427
71 64 40 0.116433 -0.0366988
70.5 63.5 40 0.125761 -0.0203081
70 63.5 40 0.137053 -0.00187468
69.5 63 40 0.144316 0.0104416
69 62.5 40 0.147073 0.0185016
68.5 62.5 40 0.145222 0.0232806
68 62.5 40 0.139071 0.0257666
67.5 62.5 39.5 0.129257 0.026302
67 62 39.5 0.116586 0.0248158
66.5 61.5 39 0.101907 0.0219411
66 61.5 38.5 0.0861296 0.0179209
65.5 61.5 38.5 0.0699548 0.0110181
65 61.5 38 0.0538175 -0.00235428
64.5 61 37.5 0.0379614 -0.0310132
64 61 37.5 0.02255 -0.130485
63.5 60.5 37 0.00825919 -1.11665
63 60.5 36.5 0.0095577 -0.835468
62.5 60 36 0.0235597 -0.125802
62 60 35.5 0.0379099 -0.0410065
61.5 60 35.5 0.0520532 -0.017114
61 59.5 35.5 0.0660599 -0.00811592
60.5 59.5 35.5 0.080013 -0.00461181
60 59.5 35.5 0.0938844 -0.0034797
59.5 59 35.5 0.107541 -0.00279064
59 59 35.5 0.120721 -0.00228002
