ply
format ascii 1.0
element vertex 185
property float x
property float y
property float z
property float curvature
property float torsion
end_header
71.6535 115.41 1.08429 0.0991682 0.00229043
71.0699 115.725 1.44766 0.10565 0.00267614
70.5015 115.986 1.82806 0.111841 0.00363128
69.9492 116.194 2.22477 0.117506 0.0052577
69.414 116.349 2.63693 0.122467 0.00774412
68.897 116.451 3.06344 0.12663 0.0115068
68.3999 116.501 3.503 0.13 0.0166913
67.9246 116.5 3.95403 0.132715 0.0233317
67.4734 116.449 4.41471 0.135039 0.0306884
67.0491 116.35 4.88299 0.137325 0.0384467
66.6548 116.204 5.35655 0.139994 0.0464637
66.2939 116.014 5.83288 0.14351 0.0533739
65.9703 115.782 6.30923 0.148268 0.0578536
65.6879 115.512 6.78264 0.154546 0.059922
65.4507 115.206 7.24995 0.162472 0.0591428
65.2628 114.869 7.70781 0.171844 0.0539437
65.1276 114.506 8.15276 0.181952 0.0450004
65.0484 114.119 8.58125 0.191606 0.033158
65.0273 113.714 8.98973 0.19948 0.021038
65.0656 113.295 9.37475 0.204517 0.00900174
65.1635 112.867 9.733 0.205849 -0.00342232
65.32 112.432 10.0614 0.203052 -0.0153697
65.533 111.995 10.3571 0.196532 -0.025877
65.7995 111.56 10.6176 0.187179 -0.035212
66.1155 111.128 10.8409 0.176055 -0.043295
66.4765 110.703 11.0251 0.164193 -0.0493188
66.8771 110.288 11.1689 0.152355 -0.0530065
67.3121 109.883 11.2716 0.140949 -0.0541589
67.7757 109.491 11.3331 0.130129 -0.0539418
68.2627 109.112 11.3537 0.119964 -0.0524054
68.7678 108.749 11.3345 0.110415 -0.0490034
69.4612 108.288 11.2499 0.0983512 -0.0428576
69.9909 107.959 11.1452 0.0894771 -0.0380214
70.5248 107.646 11.0081 0.0804982 -0.0326626
71.0601 107.346 10.8418 0.0712326 -0.0265752
71.5945 107.06 10.65 0.0615989 -0.0191529
72.126 106.786 10.4367 0.0515896 -0.00835931
72.6537 106.523 10.206 0.0412723 0.0105009
73.1766 106.269 9.96245 0.0308877 0.0499799
73.6947 106.022 9.71065 0.0213539 0.150133
74.208 105.781 9.45535 0.0161338 0.311011
74.7168 105.544 9.20138 0.0205522 0.200488
75.2217 105.309 8.95365 0.0314032 0.0810111
75.7235 105.076 8.71695 0.0443792 0.0337986
76.2229 104.841 8.49591 0.0579134 0.0139082
76.7207 104.605 8.29488 0.071332 0.00473617
77.2175 104.366 8.11782 0.0841274 0.000315207
77.7139 104.123 7.96834 0.0957763 -0.00144869
78.2104 103.875 7.84959 0.105748 -0.00106239
78.7072 103.622 7.76421 0.113547 0.000994627
79.2041 103.364 7.71436 0.118777 0.00448124
79.7009 103.101 7.70159 0.121279 0.00865828
80.197 102.832 7.72688 0.121201 0.0134891
80.6912 102.557 7.79066 0.118909 0.019223
81.1823 102.278 7.89277 0.114951 0.0254193
81.6684 101.995 8.03252 0.110061 0.0315338
82.1474 101.708 8.20876 0.104989 0.0375556
82.6168 101.418 8.41993 0.10045 0.042652
83.0739 101.126 8.66414 0.0970744 0.0443496
83.5156 100.833 8.93925 0.0953519 0.0417438
83.9388 100.539 9.24296 0.0956055 0.0345578
84.3402 100.248 9.57289 0.0979399 0.024414
84.8363 99.8638 10.0496 0.103985 0.00818939
85.1753 99.5817 10.4317 0.110191 -0.00522885
85.4831 99.3064 10.8327 0.117193 -0.0190413
85.7579 99.0399 11.2508 0.124362 -0.0335313
85.9981 98.7839 11.6844 0.131028 -0.0494527
86.203 98.5404 12.1323 0.136504 -0.065614
86.3723 98.3113 12.5933 0.140141 -0.0807896
86.5064 98.0985 13.0667 0.141362 -0.0958217
86.6066 97.9038 13.5519 0.139753 -0.110323
86.6747 97.7289 14.0483 0.135307 -0.120251
86.7129 97.5751 14.5557 0.128327 -0.124667
86.7242 97.4432 15.0736 0.119208 -0.12327
86.7116 97.3337 15.6018 0.108393 -0.120521
86.6783 97.2465 16.1398 0.0963617 -0.118049
86.6277 97.1808 16.687 0.0835171 -0.116198
86.5631 97.1351 17.2427 0.0700901 -0.116393
86.4878 97.1074 17.8059 0.0559926 -0.123603
86.4048 97.0951 18.3756 0.0409958 -0.153531
86.3172 97.0946 18.9505 0.0248631 -0.296258
86.2278 97.1016 19.5288 0.00858837 -2.15233
86.1392 97.1108 20.1086 0.0137494 -0.925107
86.0539 97.1167 20.6876 0.033399 -0.204929
85.9739 97.1132 21.2631 0.0550352 -0.103174
85.9012 97.0941 21.8321 0.0781672 -0.0691412
85.8371 97.0533 22.3914 0.102554 -0.0531097
85.783 96.9852 22.9373 0.127853 -0.0444858
85.7395 96.8848 23.4659 0.153665 -0.039541
85.7074 96.7481 23.9731 0.17923 -0.0364693
85.6867 96.572 24.4548 0.203329 -0.0347756
85.6774 96.3545 24.9066 0.224492 -0.0349843
85.6791 96.0949 25.3245 0.241146 -0.0367767
85.6974 95.6841 25.8219 0.254053 -0.041433
85.7217 95.3297 26.1454 0.256401 -0.0463776
85.7534 94.939 26.4229 0.253248 -0.0523492
85.7909 94.5157 26.6521 0.245585 -0.0592017
85.8322 94.064 26.8312 0.234474 -0.0651945
85.8751 93.5885 26.9591 0.220934 -0.0698114
85.9174 93.0938 27.0356 0.20567 -0.0732628
85.9568 92.5841 27.0616 0.189069 -0.0761537
85.9911 92.0633 27.0386 0.171469 -0.0791329
86.0184 91.5349 26.9689 0.153244 -0.0827818
86.0369 91.0016 26.8558 0.134706 -0.087074
86.0454 90.4659 26.7031 0.115909 -0.0902755
86.0427 89.9294 26.5156 0.09669 -0.0937678
86.0288 89.3935 26.2983 0.0767629 -0.101016
86.004 88.8587 26.0574 0.0560323 -0.124017
85.9699 88.3253 25.7995 0.0348157 -0.206547
85.9288 87.7933 25.5315 0.014 -0.883262
85.8839 87.263 25.2607 0.0136565 -0.895187
85.8394 86.7347 24.9943 0.0368633 -0.173173
85.7998 86.2096 24.7393 0.0636025 -0.0968433
85.7704 85.6893 24.5025 0.094007 -0.0750907
85.7566 85.1764 24.2901 0.129062 -0.0625791
85.7637 84.6743 24.108 0.169708 -0.0536705
85.7968 84.1871 23.9611 0.216688 -0.0464671
85.86 83.7199 23.8537 0.270583 -0.0405872
85.9563 83.2781 23.7891 0.331394 -0.0343682
86.0877 82.8678 23.7695 0.396585 -0.0261645
86.2549 82.4951 23.7966 0.459126 -0.0138818
86.4576 82.1662 23.8711 0.506314 0.00399334
86.6938 81.8868 23.9932 0.524565 0.0274835
86.9601 81.6619 24.1619 0.508219 0.0542741
87.3528 81.4533 24.4565 0.447228 0.0855873
87.6666 81.3685 24.7263 0.389967 0.106773
87.9879 81.3456 25.0347 0.33422 0.127691
88.3078 81.3835 25.3781 0.285272 0.147957
88.6174 81.4793 25.7531 0.245115 0.16893
88.9077 81.6281 26.1561 0.213773 0.191189
89.1701 81.8239 26.5834 0.190754 0.208708
89.397 82.0589 27.0317 0.175416 0.216057
89.5815 82.3248 27.4977 0.166289 0.211564
89.7184 82.6127 27.9785 0.161295 0.200271
89.804 82.9135 28.4715 0.158733 0.186367
89.8361 83.2187 28.9743 0.157253 0.17035
89.814 83.5202 29.4847 0.155661 0.154075
89.7382 83.8107 30.001 0.153139 0.141669
89.6104 84.0839 30.5214 0.149366 0.13217
89.4334 84.3342 31.0445 0.144337 0.124387
89.2105 84.557 31.5688 0.138241 0.11818
88.9457 84.7487 32.0931 0.131383 0.112909
88.6435 84.9062 32.6161 0.124124 0.107659
88.3087 85.0276 33.1366 0.116822 0.100983
87.946 85.1113 33.6534 0.109773 0.091206
87.5602 85.1569 34.1653 0.103139 0.0769974
87.1558 85.1642 34.6711 0.096933 0.0580147
86.7368 85.134 35.1695 0.0909941 0.0366502
86.3068 85.0677 35.6592 0.0851277 0.0121138
85.8686 84.967 36.1388 0.0792003 -0.0172918
85.4244 84.8346 36.6069 0.0731137 -0.0525375
84.9758 84.6734 37.0623 0.0668259 -0.0971998
84.5239 84.4873 37.5034 0.0604704 -0.157647
84.0692 84.2803 37.929 0.0545038 -0.236747
83.6114 84.0573 38.3379 0.0499216 -0.324788
82.9958 83.7441 38.8552 0.0481939 -0.400722
82.529 83.5046 39.2209 0.0514148 -0.380238
82.057 83.2676 39.5667 0.0583993 -0.308435
81.5788 83.0385 39.8919 0.0680102 -0.228675
81.0936 82.8227 40.196 0.0788379 -0.16276
80.6008 82.6248 40.4786 0.089862 -0.113872
80.1 82.4487 40.7393 0.100447 -0.0751319
79.5912 82.2976 40.9777 0.110083 -0.0414676
79.0745 82.1741 41.1931 0.118302 -0.0111882
78.5503 82.0797 41.3848 0.124665 0.0177777
78.0194 82.0153 41.5518 0.128886 0.0475382
77.4826 81.981 41.693 0.130942 0.0775137
76.9411 81.9759 41.8068 0.131195 0.106317
76.3961 81.9984 41.8918 0.130234 0.133901
75.8493 82.0461 41.9464 0.128765 0.158659
75.3021 82.1161 41.9687 0.127525 0.176619
74.7563 82.2049 41.9569 0.127113 0.185425
74.2137 82.3087 41.9093 0.127853 0.184001
73.6762 82.4236 41.8242 0.129776 0.173952
73.1458 82.5454 41.7001 0.132656 0.157123
72.6242 82.6701 41.5355 0.136012 0.135724
72.1132 82.7938 41.3292 0.139202 0.113535
71.6147 82.913 41.0801 0.14161 0.0931515
71.1302 83.0242 40.7874 0.142703 0.0748076
70.6611 83.1247 40.4503 0.142076 0.058732
70.2089 83.2117 40.0683 0.139569 0.0453661
69.7745 83.2831 39.641 0.135262 0.0343078
69.3588 83.337 39.1681 0.129402 0.0252545
68.9628 83.3718 38.6493 0.122372 0.0187027
68.5869 83.3864 38.0845 0.114632 0.0143711
