ply
format ascii 1.0
element vertex 155
property float x
property float y
property float z
property float curvature
property float torsion
end_header
60.5 95.5 2.5 0.114127 -0.00576141
60.5 95 3 0.12013 -0.00643087
60.5 94.5 3.5 0.128808 -0.00803917
60.5 94.5 4 0.136479 -0.0105686
61 94 4.5 0.142363 -0.0141975
61.5 93.5 5 0.145731 -0.0180487
62 93 5.5 0.146066 -0.0217743
62 92.5 6 0.143106 -0.0253931
62.5 92 6.5 0.136915 -0.028869
63 92 6.5 0.127916 -0.0321848
63.5 91.5 6.5 0.11672 -0.0355641
64 91 7 0.103983 -0.0395903
64.5 91 7 0.0904034 -0.0455223
65 90.5 7 0.0766011 -0.0546509
65.5 90 7 0.0630187 -0.0696799
66 89.5 7 0.0500288 -0.0995762
66.5 89 7 0.0380541 -0.161146
67 88.5 7 0.0276068 -0.290981
67.5 88 7 0.0195542 -0.547859
68 88 7 0.0154741 -0.81494
68.5 87.5 7 0.0167012 -0.636115
69 87 7 0.0214509 -0.339733
69.5 86.5 7.5 0.027373 -0.184325
70 86 7.5 0.0334443 -0.114389
70.5 85.5 7.5 0.0392996 -0.0853078
71 85.5 7.5 0.0448154 -0.0811301
71.5 85 7.5 0.0500242 -0.0932674
72 84.5 8 0.0550915 -0.116711
72 84 8 0.0603435 -0.142068
72.5 83.5 8 0.066209 -0.161948
73 83 8 0.0732125 -0.175138
73 82.5 8.5 0.0819462 -0.178922
73.5 82 8 0.0928012 -0.170414
73.5 81.5 8.5 0.105888 -0.155033
74 81 8.5 0.121153 -0.137336
74.5 80.5 9 0.138228 -0.120323
74.5 80 9.5 0.156193 -0.106092
75 79.5 10 0.173697 -0.0954612
75.5 79.5 10.5 0.189115 -0.0891444
75.5 79 11 0.197487 -0.0873397
75.5 79 11.5 0.206042 -0.087952
75.5 78.5 12 0.208561 -0.0926949
75.5 78.5 12.5 0.2045 -0.100717
75.5 78.5 13 0.194578 -0.111976
76 79 13.5 0.180156 -0.127499
76 79 14 0.162889 -0.147707
76 79 14.5 0.144542 -0.173049
76 79 15 0.12663 -0.205488
76 79 15.5 0.110327 -0.246661
76 79 16 0.0965028 -0.296653
76 79 16.5 0.0859568 -0.351376
76 79 17 0.0795549 -0.39715
76 79.5 17.5 0.0780164 -0.409159
76.5 79.5 18 0.081405 -0.383515
76.5 80 18.5 0.0891143 -0.340224
77 80 19 0.10044 -0.292247
77.5 80.5 19.5 0.114867 -0.244729
77.5 81 20 0.131716 -0.204535
78 81 20.5 0.150305 -0.173778
78.5 81 21 0.170507 -0.151407
79 81 21.5 0.192532 -0.133987
79.5 81 22 0.216603 -0.119525
80 80.5 22 0.243061 -0.108842
80.5 80.5 22.5 0.272056 -0.100998
81 80 23 0.302789 -0.0950555
81.5 79.5 23 0.333283 -0.0914213
81.5 79 23.5 0.360677 -0.0899821
81.5 78.5 23.5 0.380376 -0.08998
81.5 78 23.5 0.386734 -0.0913053
81.5 77.5 23.5 0.37606 -0.094146
82 77 23 0.349018 -0.0989557
82 76.5 23 0.310108 -0.106851
82 76 23 0.265405 -0.117401
82 75.5 22.5 0.220261 -0.133632
81.5 75 22.5 0.178109 -0.162018
81 74.5 22.5 0.140809 -0.209941
80.5 74 22 0.109901 -0.286365
80 73.5 21.5 0.0870455 -0.396803
79.5 73 21.5 0.0775668 -0.469924
79 72.5 21.5 0.0744555 -0.485669
78.5 72 21.5 0.0849566 -0.370921
78.5 71.5 21.5 0.105501 -0.246452
78 71 21.5 0.132592 -0.16638
78 70.5 21.5 0.165042 -0.120567
77.5 70 22 0.20279 -0.0925652
77.5 69.5 22 0.245816 -0.0736835
77.5 69 22 0.293389 -0.0596841
77 68.5 22.5 0.343043 -0.0474506
77 68 23 0.389887 -0.0349209
77 68 23.5 0.427293 -0.020985
77.5 67.5 24 0.448686 -0.00497389
77.5 67.5 24.5 0.449746 0.0131163
78 67.5 25 0.430936 0.0317441
78.5 67.5 25.5 0.39789 0.0495661
79 67.5 26 0.357542 0.0672005
79.5 68 26 0.315383 0.0855523
80 68 26.5 0.275312 0.104365
80 68.5 27 0.2396 0.125724
80.5 69 27 0.20903 0.152323
81 69.5 27 0.183978 0.183223
81.5 70 27 0.165105 0.2162
82 70.5 27 0.152916 0.246938
82 71 27.5 0.147735 0.269836
82 71.5 27.5 0.149974 0.278811
82.5 72 27.5 0.15983 0.272084
82 72.5 28 0.17704 0.255038
82.5 73 28 0.200928 0.235581
82.5 73.5 28.5 0.230288 0.218136
82 74 28.5 0.263011 0.204512
82 74.5 29 0.296062 0.19288
81.5 75 29.5 0.325319 0.180157
81 75.5 30 0.345282 0.164421
80.5 75.5 30.5 0.350869 0.145717
80 75.5 30.5 0.34038 0.124045
79.5 75.5 31 0.315679 0.099436
79.5 75.5 31.5 0.280964 0.0735242
79 75 32 0.241386 0.0493325
78.5 74.5 32.5 0.214553 0.0331111
78 74 33 0.175786 0.00542317
78 74 33.5 0.140098 -0.03226
77.5 73.5 34 0.108275 -0.094883
77 73 34.5 0.0809306 -0.220651
77 72.5 35 0.0600258 -0.473688
76.5 72.5 35.5 0.0513551 -0.714747
76 72.5 36 0.0598332 -0.560681
75.5 72 36 0.0799958 -0.320539
75 72.5 36.5 0.10467 -0.18573
74.5 72 36.5 0.129886 -0.114186
74 71.5 36.5 0.152367 -0.0717636
73.5 71.5 36.5 0.168638 -0.0435136
73 71.5 36.5 0.176033 -0.0222583
72.5 71.5 36.5 0.173327 -0.00409938
72 71.5 36.5 0.161233 0.0131365
71.5 71.5 36.5 0.14261 0.0305412
71 71.5 36.5 0.120984 0.0504586
70.5 71.5 36.5 0.0991965 0.0759432
70 71.5 36.5 0.0789692 0.112617
69.5 71.5 36.5 0.0611075 0.170412
69 71.5 36.5 0.0462508 0.26387
68.5 71.5 36.5 0.0353332 0.39603
68 71.5 36.5 0.0297358 0.485801
67.5 71.5 36.5 0.0301739 0.404062
67 71.5 36.5 0.0349412 0.251806
66.5 71.5 36.5 0.041627 0.143392
66 71 36 0.0487768 0.0776362
65.5 70.5 36 0.0556108 0.0356477
65 70.5 36 0.0618127 0.00984165
64.5 70.5 36 0.0675184 -0.00563262
64 70.5 36 0.0729922 -0.013632
63.5 70 36 0.0784986 -0.0172498
63 70.5 36 0.0840616 -0.0189957
62.5 70 35.5 0.0896352 -0.0187627
62 70 35.5 0.0951675 -0.0169636
61.5 69.5 35.5 0.100624 -0.0155249
61 69.5 35 0.105992 -0.0145778
