ply
format ascii 1.0
element vertex 143
property float x
property float y
property float z
property float curvature
property float torsion
end_header
67.0008 102.564 4.04718 0.0885073 0.00181287
67.2532 102.26 4.34072 0.0926409 0.00216039
67.6424 101.811 4.74206 0.0987205 0.00309892
68.0443 101.371 5.09691 0.104339 0.0046453
68.4589 100.94 5.40572 0.109076 0.00687288
68.886 100.519 5.6691 0.112432 0.0089617
69.3256 100.107 5.88798 0.11383 0.0106155
69.7774 99.704 6.06362 0.11274 0.011844
70.2411 99.3104 6.19776 0.108786 0.0126908
70.7164 98.9257 6.29272 0.101871 0.0131965
71.2028 98.5494 6.3514 0.0921165 0.0134142
71.6995 98.1808 6.37741 0.0798024 0.0133337
72.2059 97.8187 6.37503 0.0654864 0.0124808
72.7209 97.4617 6.34922 0.0498385 0.0096967
73.2433 97.1083 6.3055 0.0335027 0.000920108
73.7719 96.7564 6.2499 0.0176651 -0.0252297
74.3051 96.404 6.18874 0.00965264 -0.0923111
74.8411 96.0488 6.12849 0.0207712 -0.0210873
75.1989 95.8096 6.09199 0.0304144 -0.0144876
75.735 95.4459 6.04729 0.044668 -0.0168983
76.2682 95.0752 6.01983 0.0581134 -0.0235407
76.7959 94.6969 6.015 0.0705634 -0.0323533
77.3157 94.3111 6.03771 0.0819893 -0.0420571
77.8249 93.9187 6.09227 0.0924776 -0.052986
78.3208 93.5215 6.18239 0.102193 -0.0656824
78.8007 93.1223 6.31107 0.111418 -0.0773896
79.2622 92.7248 6.48061 0.120448 -0.0859364
79.7028 92.3334 6.6926 0.129357 -0.0923003
80.1206 91.9531 6.94786 0.137937 -0.0968418
80.514 91.5892 7.24653 0.145753 -0.0987288
80.8819 91.2468 7.58802 0.152085 -0.0985516
81.2241 90.9309 7.97112 0.155927 -0.0970741
81.5408 90.6456 8.39404 0.156224 -0.0947595
81.8331 90.3943 8.85444 0.152211 -0.09217
82.1027 90.1792 9.34946 0.143515 -0.0902281
82.352 90.0011 9.87573 0.130312 -0.0914612
82.5085 89.9028 10.242 0.119487 -0.0954602
82.7309 89.7846 10.8116 0.1011 -0.108759
82.942 89.6987 11.4011 0.0810758 -0.138672
83.1456 89.6409 12.0058 0.0603203 -0.210603
83.3457 89.6057 12.6204 0.0398792 -0.424002
83.5461 89.5867 13.2394 0.0229081 -1.21307
83.7502 89.5766 13.8573 0.0233073 -1.21199
83.9612 89.5672 14.4681 0.0425631 -0.420317
84.181 89.5501 15.0658 0.0678681 -0.216545
84.4109 89.5168 15.6446 0.0967655 -0.154817
84.6507 89.4585 16.1985 0.128935 -0.133426
84.8989 89.3672 16.7217 0.163842 -0.13098
85.1523 89.2355 17.2092 0.200249 -0.141061
85.4062 89.0575 17.6563 0.236154 -0.154801
85.6541 88.8289 18.0594 0.268521 -0.169604
85.8885 88.5473 18.4159 0.293005 -0.18548
86.101 88.2123 18.7246 0.3056 -0.197422
86.2832 87.8256 18.9858 0.305295 -0.197903
86.3836 87.5406 19.1343 0.298329 -0.191228
86.4975 87.0756 19.3205 0.279116 -0.172551
86.5619 86.5701 19.4662 0.251673 -0.153536
86.5729 86.03 19.5756 0.219165 -0.138915
86.5288 85.4612 19.6541 0.184507 -0.131304
86.4304 84.8702 19.7074 0.149713 -0.136302
86.2814 84.2636 19.7421 0.116016 -0.165874
86.0879 83.648 19.7651 0.0840646 -0.256375
85.859 83.0303 19.7837 0.0556685 -0.539448
85.6066 82.4174 19.8052 0.0424816 -0.947166
85.3442 81.8163 19.8371 0.0620102 -0.496259
85.087 81.2344 19.886 0.103367 -0.21564
84.8496 80.6792 19.9576 0.159707 -0.117791
84.6462 80.1583 20.0562 0.234219 -0.0743601
84.489 79.6797 20.1846 0.333029 -0.0472782
84.3879 79.2509 20.3443 0.460589 -0.0233861
84.3495 78.8793 20.5349 0.610174 0.00550135
84.377 78.5717 20.7549 0.745137 0.0472198
84.4317 78.4049 20.9167 0.794277 0.0828682
84.5655 78.2156 21.1794 0.773342 0.133287
84.7548 78.1019 21.463 0.662011 0.17381
84.9897 78.0645 21.764 0.521761 0.210488
85.2577 78.1019 22.0789 0.395263 0.253052
85.5451 78.2093 22.4057 0.297285 0.308859
85.8377 78.3796 22.7428 0.227668 0.385257
86.1216 78.603 23.0898 0.182518 0.478578
86.3847 78.8675 23.4472 0.159676 0.546084
86.6166 79.1599 23.816 0.15707 0.530007
86.8095 79.4662 24.1977 0.168975 0.454155
86.9584 79.7726 24.5939 0.188236 0.377575
87.061 80.0662 25.0062 0.209501 0.313903
87.1174 80.3355 25.4357 0.227728 0.260383
87.1296 80.5709 25.8831 0.238139 0.217071
87.1013 80.7652 26.3487 0.238194 0.180625
87.0369 80.9135 26.832 0.22765 0.144046
86.9412 81.0136 27.3322 0.20815 0.106206
86.8625 81.0533 27.6745 0.191665 0.0846296
86.7254 81.0736 28.1997 0.164346 0.0552126
86.5688 81.0496 28.7377 0.136599 0.0248164
86.3961 80.9857 29.2861 0.110522 -0.0117851
86.2099 80.8871 29.8428 0.0872848 -0.0624147
86.0119 80.7596 30.4054 0.0676897 -0.14048
85.8028 80.6091 30.9713 0.0526692 -0.254329
85.5827 80.441 31.5379 0.0432305 -0.368299
85.3506 80.2604 32.1025 0.0402209 -0.381829
85.105 80.0715 32.6623 0.0430457 -0.272345
84.8442 79.8779 33.2146 0.0494764 -0.159647
84.566 79.6822 33.7566 0.0575303 -0.0899936
84.2686 79.4865 34.2851 0.0661171 -0.0545221
83.95 79.2926 34.7975 0.0746988 -0.041848
83.6089 79.1022 35.2906 0.0831454 -0.044833
83.2444 78.9168 35.7617 0.0915235 -0.0591133
82.856 78.7386 36.2078 0.100069 -0.0780076
82.4439 78.5704 36.6262 0.108982 -0.087925
82.1563 78.4653 36.8886 0.115109 -0.090252
81.7065 78.3208 37.2554 0.12437 -0.0889255
81.2362 78.195 37.5883 0.133349 -0.0837788
80.7473 78.0914 37.8858 0.141852 -0.075424
80.2425 78.0129 38.1465 0.149619 -0.0634024
79.7244 77.9618 38.3694 0.156236 -0.0485684
79.1959 77.9401 38.5539 0.161269 -0.0345959
78.66 77.949 38.6993 0.164388 -0.0212089
78.1195 77.989 38.8054 0.165386 -0.00777564
77.5774 78.0602 38.8722 0.164174 0.00812497
77.0365 78.1618 38.8995 0.160784 0.0277162
76.4993 78.2924 38.8877 0.15544 0.0518931
75.9684 78.4501 38.837 0.148595 0.0784777
75.4459 78.6318 38.7476 0.141018 0.104546
74.9339 78.8341 38.6201 0.133552 0.129521
74.4342 79.0528 38.4547 0.126959 0.151846
73.9483 79.2834 38.252 0.121682 0.16989
73.4779 79.5209 38.0125 0.117932 0.182837
73.1734 79.6806 37.8327 0.116341 0.188446
72.7313 79.918 37.5336 0.115382 0.191166
72.3078 80.1481 37.2004 0.116133 0.186491
71.9037 80.3653 36.8348 0.118274 0.176265
71.5196 80.5643 36.4387 0.121193 0.163507
71.1558 80.7404 36.0146 0.124379 0.150415
70.8123 80.8891 35.5648 0.127413 0.136946
70.4887 81.0066 35.0921 0.129795 0.123101
70.1843 81.0896 34.599 0.131107 0.109306
69.8982 81.1357 34.0879 0.131188 0.0947848
69.6294 81.1426 33.5611 0.129996 0.0787327
69.3769 81.109 33.0206 0.127564 0.0627911
69.1396 81.0334 32.4681 0.123955 0.0487866
68.9167 80.9152 31.9048 0.119354 0.0364891
68.7075 80.7536 31.3318 0.114025 0.0260525
68.5113 80.5483 30.75 0.10818 0.0183691
68.3279 80.2989 30.1598 0.101995 0.0132664
