ply
format ascii 1.0
element vertex 158
property float x
property float y
property float z
property float curvature
property float torsion
end_header
122 90 2 0.111129 4.82051e-05
122 90 2.5 0.115477 4.21605e-05
122 89.5 3 0.121339 4.40291e-05
122 89 3.5 0.126015 6.28986e-05
122 88.5 4 0.129083 4.70688e-05
121.5 88.5 4.5 0.130214 -0.000806665
121.5 88 5 0.129222 -0.00296925
121 87.5 5.5 0.126079 -0.00676827
120.5 87 6 0.120952 -0.012261
120 86.5 6.5 0.11427 -0.0195219
119.5 86 6.5 0.106513 -0.029135
119 85.5 7 0.0981064 -0.0414281
118.5 85 7 0.0894201 -0.0555148
118 84.5 7 0.0807487 -0.0718556
117.5 84 7 0.0723009 -0.0911088
117 84 7.5 0.0641795 -0.113509
116.5 83.5 7.5 0.0563984 -0.140301
116 83 7.5 0.0489604 -0.173981
115.5 82.5 7.5 0.041885 -0.22031
115 82 7.5 0.03527 -0.289258
114.5 82 8 0.0293901 -0.392713
114 81.5 8 0.0248229 -0.531152
113.5 81.5 8 0.0225839 -0.638103
113 81 8 0.0236128 -0.594114
112.5 81 8 0.027784 -0.442816
112 80.5 8 0.0341865 -0.298876
111.5 80 8.5 0.041999 -0.197352
111 80 8.5 0.0507756 -0.129521
110.5 79.5 8.5 0.0603679 -0.0818707
110 79.5 9 0.0707408 -0.0459915
109.5 79.5 9 0.0819435 -0.0173646
109 79 9.5 0.0941092 0.00639994
108.5 78.5 9.5 0.107291 0.0259006
108 78.5 9.5 0.121402 0.0432943
107.5 78 10 0.13625 0.0601199
107 77.5 10.5 0.151439 0.0748443
106.5 77.5 11 0.166128 0.0886824
106 77 11.5 0.179016 0.103766
106 76.5 12 0.188616 0.119024
106 76.5 12.5 0.193886 0.132458
105.5 76.5 13 0.194011 0.145109
105.5 76.5 13.5 0.188528 0.159107
105.5 76 14 0.177982 0.177352
105.5 76 14.5 0.163769 0.201507
105.5 76 15 0.147553 0.233945
105.5 76 15.5 0.130929 0.275528
105.5 76 16 0.115235 0.330068
105.5 76 16.5 0.101742 0.401737
105.5 76.5 17 0.092134 0.47829
106 76.5 17.5 0.0888312 0.514201
106 77 18 0.0931384 0.480613
106 77 18.5 0.104265 0.407069
106 77.5 19 0.120408 0.334845
106 78 19.5 0.133049 0.296172
105.5 78 20 0.153539 0.254094
105.5 78.5 20.5 0.174422 0.224961
105 78.5 21 0.194125 0.202207
104.5 78.5 21.5 0.210794 0.184216
104 79 22 0.222691 0.170633
103.5 79.5 22.5 0.229571 0.160309
103 79 23 0.232388 0.150207
102.5 78.5 23 0.232427 0.13862
102 78.5 23.5 0.231116 0.126177
101.5 78 24 0.229694 0.112389
101 77.5 24.5 0.228708 0.0969223
100.5 77 25 0.228189 0.0822851
100.5 76.5 25 0.22843 0.0700501
100 76 25 0.22927 0.0594449
100 75.5 25 0.229776 0.0505153
100 75 25 0.228646 0.0441947
100 74.5 25 0.22484 0.040388
100 74 25 0.217713 0.0390264
100 73.5 25 0.206905 0.040498
100 73 25 0.192295 0.0455377
100.5 72.5 25 0.174209 0.0555225
100.5 72 25 0.153384 0.0720046
101 71.5 25 0.131056 0.0982865
101 71 24.5 0.108478 0.143249
101.5 70.5 25 0.0868515 0.224196
102 70 25 0.0679662 0.364915
102 69.5 24.5 0.0551191 0.556822
102.5 69 24 0.0532718 0.607256
103 68.5 24 0.0642614 0.431094
103.5 68.5 24 0.0844612 0.261918
104 68 23.5 0.110586 0.162583
104.5 67.5 23 0.141478 0.107889
105 67 23.5 0.177258 0.0763581
105 66.5 23.5 0.218217 0.0560781
105.5 66 23.5 0.264128 0.0414664
106 65.5 24 0.313836 0.0299523
106.5 65 24 0.364274 0.0195009
106.5 64.5 24 0.409683 0.0089312
107 64 24.5 0.442625 -0.00206351
107 63.5 25 0.456542 -0.0134222
107 63.5 25.5 0.448428 -0.0248459
106.5 63 26 0.420773 -0.0357528
106.5 63 26.5 0.380909 -0.0457765
106 63 27 0.336557 -0.0553474
106 63 27.5 0.293116 -0.0651453
105.5 63 28 0.253611 -0.0755864
105 63.5 28.5 0.219273 -0.0876604
104.5 63.5 28.5 0.190119 -0.102541
104 64 29 0.165779 -0.119495
103.5 64.5 29 0.145969 -0.137953
103 64.5 29 0.130309 -0.157203
102.5 65 29.5 0.118323 -0.176862
102 65.5 29.5 0.112177 -0.189682
102 66 30 0.105554 -0.206243
102 66.5 30.5 0.101885 -0.216755
101.5 67 30.5 0.100969 -0.21962
101.5 67.5 31 0.102606 -0.214071
101 68 31 0.106546 -0.20087
100.5 68.5 31 0.112483 -0.183739
100.5 69 31 0.120146 -0.165904
100.5 69.5 31.5 0.129344 -0.148007
100.5 70 31.5 0.139932 -0.13034
100.5 70.5 32 0.151638 -0.113566
100.5 71 32 0.164058 -0.0979502
101 71.5 32.5 0.176775 -0.0833502
100.5 72 33 0.189343 -0.069098
100.5 72.5 33.5 0.201112 -0.0548298
100.5 73 33.5 0.211195 -0.0403096
101 73.5 34 0.218683 -0.0256937
101.5 74 34.5 0.223078 -0.0109112
102 74.5 35 0.224107 0.00452952
102.5 74.5 35 0.221699 0.0207311
103 74.5 35 0.216175 0.0370322
103.5 74.5 35.5 0.208208 0.0538073
103.5 74.5 36 0.19862 0.0713474
104 74.5 36.5 0.188271 0.087269
104.5 74 37 0.177848 0.101031
105 74 37.5 0.167685 0.113139
105.5 73.5 37.5 0.15788 0.123296
106 73 38 0.148645 0.13031
106.5 72.5 38.5 0.140023 0.133753
107 72.5 38.5 0.131799 0.134346
107.5 72 38.5 0.12367 0.134857
108 71.5 38.5 0.115376 0.135882
108.5 71 38.5 0.106658 0.13826
109 70.5 38.5 0.0974086 0.143774
109.5 70 38 0.0877702 0.152901
110 69.5 38 0.0778834 0.166133
110.5 69 37.5 0.0678872 0.187344
111 68.5 37.5 0.0581339 0.221062
111.5 68 37 0.0490953 0.268156
112 68 37 0.0412612 0.328602
112.5 67.5 36.5 0.0350924 0.406809
113 67.5 36.5 0.0311861 0.473842
113.5 67 36 0.0300236 0.475548
114 67 36 0.0313895 0.410525
114.5 66.5 36 0.0344788 0.323631
115 66 36 0.0384781 0.245233
115.5 66 36 0.0427916 0.185168
116 65.5 35.5 0.0470581 0.142079
116.5 65 35.5 0.0511026 0.109925
117 64.5 35 0.0548571 0.0854337
117.5 64.5 35 0.0582965 0.069018
118 64 35 0.0614376 0.0586227
