ply
format ascii 1.0
element vertex 145
property float x
property float y
property float z
property float curvature
property float torsion
end_header
58 85.5 2 0.116448 0.00684591
58 85 2 0.121176 0.00779649
58.5 84.5 2.5 0.127559 0.0100727
59 84 3 0.132587 0.0136173
59.5 83.5 3 0.135686 0.0187347
59.5 83 3.5 0.136372 0.0254109
60 82.5 3.5 0.13434 0.0339973
60.5 82.5 3 0.129513 0.045263
61 82 3.5 0.122098 0.0596975
61.5 81.5 3.5 0.11267 0.0779319
62 81.5 3.5 0.101917 0.101886
62.5 81 3.5 0.0905099 0.134832
63 81 3.5 0.0789912 0.183137
63.5 80.5 3.5 0.0678878 0.25661
64 80 3.5 0.0579617 0.366355
64.5 80 3.5 0.0505732 0.493776
65 80 3 0.0475497 0.565224
65.5 79.5 3.5 0.0499178 0.514635
66 79.5 3 0.0569595 0.39587
66.5 79.5 3 0.067166 0.284359
67 79.5 3 0.0792314 0.201682
67.5 79.5 3 0.0922266 0.143517
68 79 3.5 0.10535 0.102399
68.5 79 3.5 0.117821 0.0721912
69 79 3 0.128899 0.0488159
69.5 78.5 3.5 0.138043 0.0317028
70 78.5 4 0.145005 0.0190747
70.5 78.5 4 0.149628 0.00941401
71 78.5 4 0.151804 0.00143028
71.5 78 4.5 0.15132 -0.00583212
72 78 5 0.147981 -0.0128964
72.5 77.5 5.5 0.141719 -0.0201345
73 78 6 0.133018 -0.0272209
73.5 78 6.5 0.122662 -0.0344892
73.5 78 7 0.111335 -0.0422847
73.5 77.5 7.5 0.0995335 -0.0506461
74 77.5 8 0.0875865 -0.0599825
74 77.5 8.5 0.0796699 -0.0670937
74.5 77.5 9 0.0680144 -0.0798392
74.5 77.5 9.5 0.0567863 -0.0962803
74.5 77.5 10 0.0461515 -0.118453
75 77.5 10.5 0.0362476 -0.150235
75 77.5 11 0.0271643 -0.203447
75 77.5 11.5 0.0189871 -0.312108
75 77.5 12 0.0120595 -0.592654
75 77.5 12.5 0.00789544 -1.19211
75 77.5 13 0.00954409 -0.855159
75 77.5 13.5 0.0150274 -0.425852
75.5 77.5 14 0.0218017 -0.266294
75.5 77.5 14.5 0.0294003 -0.182812
75.5 77.5 15 0.0378272 -0.127551
76 77.5 15.5 0.0471935 -0.086347
76 77.5 16 0.0576386 -0.0554879
76.5 77.5 16.5 0.0693051 -0.0316033
76.5 77.5 17 0.0824476 -0.0120248
76.5 77.5 17.5 0.097435 0.00112124
77 77.5 18 0.11466 0.00712528
77 77.5 18.5 0.134654 0.00865387
77.5 77.5 19 0.158122 0.00628703
77.5 77.5 19.5 0.185473 -0.00167931
77.5 77.5 20 0.216382 -0.0147442
77.5 77 20.5 0.24958 -0.0329164
78 77 21 0.282889 -0.052425
77.5 76.5 21.5 0.313132 -0.0727419
78 76.5 22 0.335675 -0.0943569
78.5 76 22.5 0.345514 -0.116948
79 75.5 23 0.339481 -0.14051
79.5 75 23 0.318132 -0.166698
79.5 74.5 23 0.285714 -0.195813
79.5 74 23.5 0.24864 -0.22165
79.5 73.5 24 0.212434 -0.246837
79.5 73 23.5 0.180358 -0.274723
80 72.5 23 0.154176 -0.303455
80 72 23 0.140523 -0.320311
80.5 71.5 22.5 0.125934 -0.337243
80.5 71 22 0.118185 -0.339188
80.5 70.5 21.5 0.117154 -0.319848
80 70 21 0.122414 -0.283927
80 69.5 21 0.133107 -0.244321
79.5 69 20.5 0.149014 -0.210172
79 68.5 20 0.171107 -0.180978
78.5 68 20 0.200791 -0.155672
78.5 67.5 20 0.239868 -0.134066
78 67 20 0.290315 -0.11522
77.5 66.5 20 0.353162 -0.0971506
77 66 20 0.42665 -0.07843
76.5 65.5 20 0.504489 -0.0589712
76.5 65 20.5 0.572564 -0.0359782
76.5 64.5 20.5 0.609499 -0.0085943
76 64 21 0.598897 0.0196183
76 64 21.5 0.543951 0.0458802
76.5 63.5 22 0.464258 0.0700269
76.5 63.5 22.5 0.380668 0.0918818
76.5 63.5 23 0.306042 0.113134
77 63.5 23.5 0.244412 0.139429
77.5 63.5 24 0.195203 0.176445
78 64 24.5 0.157547 0.222802
78.5 64.5 25 0.131116 0.27226
79 65 25 0.115498 0.306774
79.5 65.5 25 0.109643 0.31443
80 66 25 0.111951 0.293991
80.5 66.5 25 0.120519 0.258395
80.5 67 25 0.133531 0.22374
80.5 67.5 25.5 0.149801 0.196231
81 68 25.5 0.168449 0.175238
81 68.5 26 0.1886 0.159135
81 69 26.5 0.209389 0.145712
81 69.5 26.5 0.229607 0.13255
81 70 27 0.247413 0.118124
80.5 70.5 27.5 0.256867 0.108422
80.5 71 28 0.265963 0.0935409
80.5 71.5 28 0.267618 0.0775863
80 72 28.5 0.261169 0.0604135
80 72 29 0.247138 0.0424082
80 72.5 29.5 0.227093 0.0232589
79.5 72.5 30 0.20308 0.00209073
79 72.5 30.5 0.177373 -0.0210793
78.5 72.5 31 0.152184 -0.0488268
78 72 31.5 0.129002 -0.0857706
77.5 72 32 0.108808 -0.134649
77 71.5 32.5 0.0925762 -0.194247
77 71 33 0.0814598 -0.254281
76.5 70.5 33.5 0.0765467 -0.286713
76.5 70 34 0.0780157 -0.269936
76 69.5 34 0.0846841 -0.216698
75.5 69 34.5 0.0945292 -0.153784
75 68.5 35 0.10551 -0.10209
74.5 68 35.5 0.116054 -0.0620888
74 67.5 35.5 0.124871 -0.0290968
73.5 67 35.5 0.130923 -0.00161374
73 67 36 0.133719 0.0205865
72.5 66.5 36 0.133213 0.0386468
72 66.5 36 0.129751 0.0530951
71.5 66 35.5 0.124047 0.0647248
71 66 35.5 0.117002 0.0724769
70.5 65.5 35.5 0.109496 0.074918
70 65 35 0.102186 0.0739424
69.5 65 35 0.0954427 0.0698051
69 64.5 34.5 0.0894899 0.0619084
68.5 64 34.5 0.0843983 0.0519951
68 63.5 34.5 0.0800158 0.0425767
67.5 63.5 34 0.0761587 0.0342824
67 63 33.5 0.0726696 0.0275248
66.5 63 33 0.0694301 0.0224732
66 62.5 32.5 0.066359 0.0191898
