ply
format ascii 1.0
element vertex 161
property float x
property float y
property float z
property float curvature
property float torsion
end_header
88 83.5 4.5 0.130168 -0.0537229
88.5 83 5 0.131471 -0.0579214
88 83 5.5 0.132545 -0.0666717
88.5 82.5 6 0.132487 -0.078867
89 82.5 6.5 0.131328 -0.0948475
89.5 82 7 0.129232 -0.112503
89 82 7.5 0.126465 -0.131156
89 81.5 8 0.123381 -0.150733
88.5 81 8 0.120413 -0.168491
89 80.5 8.5 0.117993 -0.18126
89 80.5 9 0.116438 -0.188446
89 80 9.5 0.115927 -0.190466
89 80 10 0.116575 -0.188841
88.5 80 10.5 0.118412 -0.184192
88.5 80 11 0.121353 -0.177319
88.5 79.5 11.5 0.125138 -0.167842
88 79.5 12 0.129237 -0.157472
88 80 12.5 0.132946 -0.148293
87.5 79.5 13 0.135574 -0.142136
87.5 80 13.5 0.136833 -0.139077
87.5 80 14 0.136628 -0.138434
87.5 80 14.5 0.134941 -0.140631
87.5 80 15 0.131585 -0.149221
87.5 80 15.5 0.126457 -0.166371
87.5 80.5 16 0.119834 -0.193958
87 80.5 16.5 0.112461 -0.22685
87.5 80.5 17 0.105451 -0.262395
87 81 17.5 0.100084 -0.296669
87.5 81.5 18 0.0978096 -0.315326
87 81.5 18.5 0.0999784 -0.303539
87.5 82 19 0.107094 -0.265483
87.5 82.5 19.5 0.118816 -0.216601
87.5 83 20 0.134328 -0.170292
88 83.5 20.5 0.152583 -0.131741
88 84 21 0.172396 -0.101068
88.5 84 21.5 0.192545 -0.0774245
88.5 84.5 22 0.211728 -0.0584985
89 84.5 22.5 0.228399 -0.0423141
89.5 84.5 23 0.241142 -0.0284733
90 84 23.5 0.249391 -0.0167155
90.5 84 23.5 0.253218 -0.00617538
91 84 24 0.253246 0.00323213
91.5 84 24 0.250602 0.0104267
92 83.5 24.5 0.246393 0.015537
92.5 83 25 0.24139 0.0187357
92.5 82.5 25 0.236462 0.019764
93 82 25 0.232843 0.0183251
93.5 81.5 25 0.2313 0.0142492
93.5 81 25 0.231862 0.00791345
93.5 80.5 25 0.233615 -0.000171136
93.5 80 25 0.235004 -0.00996234
93.5 79.5 24.5 0.2342 -0.0208656
93.5 79 24 0.229815 -0.0307261
94 78.5 23.5 0.220972 -0.0400086
94 78 23 0.207229 -0.0496869
94 77.5 22.5 0.188919 -0.0609753
94 77 22 0.167299 -0.0757343
93.5 76.5 21.5 0.143877 -0.0973789
93 76.5 21 0.120059 -0.132348
93 76 20.5 0.0972826 -0.192456
92.5 76 20 0.0771471 -0.298237
92 75.5 20 0.0622195 -0.458246
91.5 75.5 19.5 0.0569164 -0.556584
91 75.5 19 0.0643075 -0.449953
90.5 75 18.5 0.082042 -0.287499
90 75 18 0.106359 -0.179437
89.5 75 17.5 0.135191 -0.115211
89 75 17.5 0.167299 -0.0736025
88.5 75 17 0.20119 -0.0436449
88 75 16.5 0.234443 -0.0196119
87.5 74.5 16.5 0.263583 0.00284089
87.5 74 16.5 0.28491 0.0252324
87 73.5 16 0.296727 0.0448195
86.5 73 16 0.299844 0.0613716
86.5 72.5 16 0.296705 0.0743245
86 72 16 0.290387 0.0833275
86 71.5 16 0.283579 0.0878646
86 71 16.5 0.277994 0.0876846
85.5 70.5 16.5 0.274346 0.0833103
86 70 16.5 0.272754 0.0751213
86 69.5 17 0.272151 0.0635804
86 69 17.5 0.271263 0.0546424
86 68.5 18 0.267585 0.0423702
86 68.5 18.5 0.259779 0.031646
86.5 68 19 0.247002 0.0221995
86.5 68 19.5 0.229288 0.0146825
87 68 20 0.20778 0.00963798
87 68.5 20.5 0.184085 0.0067617
87 68.5 21 0.15969 0.00589913
87.5 68.5 21.5 0.135775 0.00700843
87.5 68.5 22 0.113083 0.0108055
87.5 69 22.5 0.0919084 0.0190654
88 69.5 23 0.0723696 0.0347758
88.5 70 23.5 0.0546743 0.066263
89 70.5 24 0.0391142 0.135827
89.5 71 24 0.0262336 0.307171
89.5 71.5 24.5 0.0174021 0.687005
90 72 25 0.0159454 0.758037
90.5 72.5 25.5 0.0213279 0.351996
90.5 73 26 0.0290574 0.129955
91 73.5 26.5 0.0373691 0.0261098
91 74 27 0.04602 -0.0307907
91 74.5 27.5 0.0551185 -0.0613803
91 75 28 0.0647425 -0.0764997
91.5 75.5 28.5 0.0749283 -0.0823459
92 76 29 0.0856176 -0.0808789
92.5 76.5 29.5 0.0965705 -0.073377
92.5 77 30 0.107371 -0.0617482
92.5 77.5 30.5 0.117467 -0.0476404
92.5 77.5 31 0.126218 -0.0332189
92.5 78 31.5 0.133035 -0.0182644
93 78.5 32 0.137525 -0.00241708
92.5 78.5 32.5 0.139712 0.0120641
92.5 79 33 0.140077 0.0251774
92.5 79.5 33.5 0.139318 0.0375916
92 80 34 0.138331 0.0477611
91.5 80.5 34.5 0.13818 0.0535298
91 80.5 34.5 0.139715 0.0543901
90.5 80.5 35 0.143423 0.0506723
90 81 35.5 0.149395 0.044351
89.5 81.5 36 0.157291 0.0359847
89 81.5 36.5 0.166313 0.0261032
88.5 81.5 37 0.175306 0.0165539
88 81.5 37 0.182983 0.00762022
87.5 81.5 37.5 0.187959 -0.00104866
87 81.5 37.5 0.188971 -0.00929152
86.5 81.5 38 0.185263 -0.0169454
86 81 37.5 0.176685 -0.0244515
85.5 81 38 0.163683 -0.0320572
85 80.5 38 0.147443 -0.0390873
84.5 80 38 0.129453 -0.0457074
84 79.5 37.5 0.110997 -0.0521831
83.5 79.5 38 0.0930117 -0.0602795
83 79 37.5 0.0761095 -0.0712928
82.5 78.5 37.5 0.0606538 -0.0864701
82 78 37.5 0.0468253 -0.110787
81.5 77.5 37 0.0346621 -0.156471
81 77 37 0.0242419 -0.249471
80.5 76.5 36.5 0.0158397 -0.460153
80 76.5 36.5 0.0102669 -0.894703
79.5 76 36 0.00920471 -0.9353
79 75.5 36 0.0117486 -0.486278
78.5 75 36 0.0149841 -0.250724
78 74.5 35.5 0.017638 -0.146443
77.5 74 35 0.0192881 -0.0911962
77 73.5 35 0.0197772 -0.0571816
76.5 73 35 0.0191782 -0.0326936
76 73 34.5 0.0176526 -0.00846885
75.5 72.5 34.5 0.0153945 0.0239462
75 72 34.5 0.0125784 0.0780085
74.5 71.5 34 0.00939404 0.196161
74 71 34 0.00617483 0.538146
73.5 71 33.5 0.00392385 1.41246
73 70.5 33.5 0.0047906 0.928255
72.5 70 33.5 0.007662 0.334126
72 69.5 33.5 0.0107853 0.149685
71.5 69 33 0.0137392 0.0810553
71 69 33 0.0164173 0.0500398
70.5 68.5 32.5 0.0187814 0.0342675
70 68 32 0.0208594 0.0252313
69.5 67.5 32 0.0227151 0.0195964
