ply
format ascii 1.0
element vertex 157
property float x
property float y
property float z
property float curvature
property float torsion
end_header
119.5 87 1 0.106336 -0.00733102
119.5 87 1.5 0.109499 -0.00837876
119 86.5 2 0.111592 -0.0100703
118.5 86.5 2.5 0.112365 -0.0125589
118 86 3 0.111636 -0.0158664
117.5 85.5 3 0.10936 -0.0196158
117 85 3.5 0.105607 -0.0239016
116.5 84.5 4 0.100521 -0.0288941
116 84 4 0.0943045 -0.0342103
115.5 83.5 4 0.0871895 -0.0399459
115 83 4.5 0.0793921 -0.0465824
114.5 82.5 4.5 0.0711027 -0.0547378
114 82 4.5 0.0625076 -0.0653916
113.5 81.5 4.5 0.0537574 -0.0805769
113 81 4.5 0.0449677 -0.104331
112.5 80.5 4.5 0.036263 -0.145236
112 80 4.5 0.0278175 -0.225126
111.5 79.5 4.5 0.0199873 -0.404871
111 79 4.5 0.013844 -0.803793
110.5 78.5 4.5 0.0121998 -1.02023
110 78 4.5 0.0163668 -0.583456
109.5 77.5 4.5 0.0233382 -0.30742
109 77 4.5 0.031206 -0.189288
108.5 76.5 4.5 0.0393317 -0.133985
108 76.5 4.5 0.0474737 -0.104632
107.5 76 4.5 0.0555772 -0.0859507
107 75.5 4.5 0.0636752 -0.0725249
106.5 75 5 0.0718417 -0.0618348
106 74.5 5 0.0801947 -0.051929
105.5 74 5.5 0.0888814 -0.042026
105 73.5 6 0.0980791 -0.0317716
104.5 73 6.5 0.108007 -0.0206679
104 73 6.5 0.118856 -0.00829714
103.5 72.5 7 0.130677 0.00551872
103.5 72.5 7.5 0.143324 0.0203426
103 72 8 0.15642 0.0343902
102.5 72 8.5 0.169301 0.0481236
103 71.5 9 0.180973 0.0619118
102.5 71.5 9.5 0.190065 0.073778
102.5 71.5 10 0.194915 0.0839144
102.5 71 10.5 0.194046 0.0935967
102.5 71 11 0.186753 0.102531
102.5 71 11.5 0.173783 0.109698
102.5 71 12 0.15663 0.115957
102.5 71 12.5 0.13691 0.123423
102.5 71 13 0.115938 0.137344
102.5 71.5 13.5 0.0946305 0.16526
102.5 71.5 14 0.073577 0.225555
102.5 71.5 14.5 0.0535161 0.365456
103 71.5 15 0.0364825 0.714641
103 71.5 15.5 0.0292421 1.1039
103 72 16 0.0399376 0.648853
103 72.5 16.5 0.0624673 0.317476
103 72.5 17 0.0915294 0.192879
103 73 17.5 0.126578 0.1425
103 73.5 18 0.168733 0.119832
102.5 73.5 18.5 0.219459 0.110609
102.5 73.5 19 0.279548 0.109464
102 73.5 19.5 0.347664 0.111505
102 73 20 0.417469 0.113765
101.5 72.5 20.5 0.47502 0.113979
101.5 72 21 0.50254 0.111389
101.5 71.5 21.5 0.491103 0.105116
101.5 71 21.5 0.446475 0.0951863
101.5 70.5 21.5 0.383734 0.0842506
101.5 70 21.5 0.317397 0.0762977
101.5 69.5 21.5 0.256252 0.0725611
101.5 69 21.5 0.203509 0.0741595
101.5 68.5 21.5 0.159069 0.0818066
101.5 68 21 0.121468 0.100519
101.5 67.5 21 0.0889787 0.146219
102 67 21 0.0605334 0.271113
102 66.5 20.5 0.0384284 0.631409
102 66 20 0.034648 0.804351
102 65.5 19.5 0.0554976 0.362859
102 65 19.5 0.0891733 0.182349
102.5 64.5 19 0.132678 0.11922
103 64 18.5 0.188063 0.0952429
103 63.5 18.5 0.2589 0.0863589
103.5 63 18.5 0.348181 0.0840916
103.5 62.5 18.5 0.453199 0.0842889
104 62 18.5 0.557351 0.0834241
103.5 61.5 19 0.627059 0.0771531
103.5 61 19 0.629842 0.0627602
103.5 60.5 19.5 0.566838 0.0428508
103.5 60 20 0.471645 0.0230119
103 60 20.5 0.376659 0.00457231
103 60 21 0.296786 -0.0133519
102.5 60 21.5 0.234609 -0.0309749
102 60 22 0.188076 -0.050418
101.5 60 22.5 0.154375 -0.0741075
101 60.5 23 0.131409 -0.0997658
100.5 60.5 23 0.118073 -0.120229
100 61 23.5 0.11352 -0.129142
99.5 61.5 24 0.116584 -0.124975
99 62 24.5 0.125827 -0.112394
98.5 62.5 25 0.139706 -0.0966695
98 63 25.5 0.156485 -0.0811788
98 63.5 26 0.174335 -0.0700578
98 64 26 0.19154 -0.0629754
98 64.5 26.5 0.206185 -0.0587154
98 65 27 0.216267 -0.0576072
98 65.5 27.5 0.22005 -0.0606896
98.5 66 27.5 0.216579 -0.0687226
98.5 66.5 28 0.206041 -0.0828872
99 67 28 0.190121 -0.10354
99.5 67.5 28 0.171292 -0.132856
100 68 28 0.151928 -0.173662
100 68.5 28 0.134006 -0.22591
100.5 69 28 0.119122 -0.286832
101 69.5 28 0.108573 -0.345699
101.5 69.5 28.5 0.103165 -0.381838
102 70 28 0.102838 -0.378737
102.5 70.5 28.5 0.106301 -0.341924
103 70.5 28.5 0.111305 -0.291304
103.5 70.5 28.5 0.115675 -0.241885
104 71 29 0.117739 -0.195881
104.5 70.5 29 0.116233 -0.152205
105 70.5 29.5 0.110525 -0.109947
105.5 71 30 0.100713 -0.0639579
106 71 30.5 0.0873568 -0.00408814
106.5 71 31 0.0714291 0.0807939
106.5 71.5 31.5 0.0546014 0.220199
107 72 32 0.0392876 0.492401
107.5 72 32.5 0.0300573 0.848866
108 72 32.5 0.032648 0.673054
108.5 72.5 33 0.0446448 0.32052
109 72.5 33 0.0602184 0.150491
109.5 72.5 33.5 0.0767064 0.0757336
110 72.5 34 0.0930306 0.0392845
110.5 72.5 34.5 0.108435 0.0195059
111 72.5 34.5 0.122227 0.00705288
111.5 72.5 34.5 0.133947 -0.00243099
112 72 34.5 0.143141 -0.0106671
112.5 72 35 0.149376 -0.0186653
113 72 35 0.152477 -0.0271319
113.5 72 35 0.152549 -0.0365533
114 72 35 0.149902 -0.0474247
114.5 72 35 0.144988 -0.0605351
115 71.5 35 0.138349 -0.0768222
115.5 71.5 35 0.130599 -0.0975023
116 71 35 0.122434 -0.122593
116.5 71 34.5 0.114726 -0.151032
117 70.5 34.5 0.108355 -0.181502
117.5 70 34.5 0.104145 -0.20942
118 70 34 0.102845 -0.225357
118.5 69.5 33.5 0.104856 -0.22438
119 69 33 0.110022 -0.207635
119.5 68.5 33 0.117705 -0.182183
120 68 32.5 0.127002 -0.153312
120 67.5 32.5 0.136793 -0.123919
120 67 32.5 0.145865 -0.0985674
120.5 66.5 32.5 0.153305 -0.0794607
120.5 66 32.5 0.158468 -0.0649388
120.5 65.5 32.5 0.160968 -0.0537185
120.5 65 33 0.160616 -0.044787
121 64.5 32.5 0.15748 -0.0377355
