ply
format ascii 1.0
element vertex 156
property float x
property float y
property float z
property float curvature
property float torsion
end_header
127 115 1.5 0.0822534 -0.0900886
127 115 2 0.075238 -0.0972415
127 115 2.5 0.0688554 -0.111911
127 115 3 0.063001 -0.135632
127 114.5 3.5 0.0577351 -0.1679
127.5 115 4 0.0533504 -0.201427
127.5 114.5 4.5 0.050275 -0.230311
128 114.5 5 0.0489733 -0.245674
128 114.5 5.5 0.049818 -0.238802
128.5 114.5 6 0.0529678 -0.211672
129 114.5 6.5 0.0584068 -0.174344
129 114 7 0.0660134 -0.135151
129.5 114 7.5 0.0755185 -0.0997481
129 113.5 8 0.0866265 -0.0708016
129.5 113.5 8.5 0.0990884 -0.0480043
129.5 113.5 9 0.112653 -0.0303894
130 113 9.5 0.126989 -0.0162827
130 113 10 0.141653 -0.00436493
130.5 112.5 10.5 0.156153 0.00552481
130.5 112.5 11 0.169979 0.0140665
130.5 112 11.5 0.18249 0.0219238
130.5 112 12 0.192915 0.0292305
130.5 111.5 12.5 0.200274 0.0361653
130 111 13 0.203589 0.0433409
129.5 110.5 13.5 0.202194 0.0507626
129 110 14 0.196417 0.0564074
128.5 109.5 14.5 0.187151 0.0600819
128 109 14.5 0.175236 0.0619182
127.5 108.5 14.5 0.161432 0.0638643
127 108.5 14.5 0.146537 0.0665064
126.5 108 14.5 0.131251 0.0698724
126 107.5 14.5 0.116071 0.0744809
125.5 107.5 14.5 0.101224 0.0814215
125 107 14 0.0867865 0.0921973
124.5 106.5 13.5 0.0727549 0.110477
124.5 106 13.5 0.0591967 0.145219
124 105.5 13.5 0.0463346 0.212782
123.5 105 14 0.034622 0.351064
123 104.5 13.5 0.0250749 0.633417
122.5 104.5 13.5 0.0201479 0.951507
122 104 13 0.0225582 0.750262
121.5 103.5 13 0.0303885 0.414222
121 103 13 0.0404764 0.236271
120.5 102.5 13 0.0514036 0.149247
120 102 12.5 0.0626334 0.102895
119.5 101.5 12.5 0.0739275 0.0760408
119.5 101 12.5 0.0851255 0.0591935
119 100.5 12.5 0.0960629 0.0479521
118.5 100 12.5 0.106531 0.0406647
118 99.5 12.5 0.116244 0.0361669
117.5 99 13 0.124849 0.0336963
117 98.5 13 0.131969 0.0328246
117 98 13.5 0.138572 0.0337578
116.5 97.5 13.5 0.140979 0.0359897
116.5 97 14 0.140976 0.0391331
116 96.5 14.5 0.138473 0.0429528
115.5 96 15 0.133487 0.0479819
115.5 95.5 15.5 0.126144 0.0546727
115.5 95 16 0.116874 0.0625571
115.5 95 16.5 0.106253 0.0723498
115 95 17 0.0947854 0.0853126
115 94.5 17.5 0.0828939 0.102736
115 94 18 0.0709607 0.127546
115 94 18.5 0.0593965 0.165263
115 93.5 19 0.0488551 0.224168
115 93.5 19.5 0.040741 0.304137
114.5 93 20 0.037665 0.353946
115 93 20.5 0.0422417 0.304809
114.5 92.5 21 0.0543978 0.221874
114.5 92.5 21.5 0.0724951 0.169618
115 92.5 22 0.0956325 0.147073
114.5 92 22.5 0.123793 0.139025
114 92 22.5 0.157229 0.138582
113.5 92 23 0.195727 0.143357
113 91.5 23.5 0.237744 0.148528
113 91 24 0.279121 0.150207
112.5 90.5 23.5 0.312705 0.148125
112.5 90 24 0.330109 0.142069
112.5 89.5 24 0.326478 0.131346
112.5 89 24 0.303263 0.116757
112.5 88.5 24 0.266707 0.100733
113 88 24 0.224443 0.088546
113 87.5 24 0.182528 0.0815426
113 87 23.5 0.144175 0.0804026
113 86.5 23.5 0.110478 0.0877765
113 86 23 0.0815005 0.110568
113 85.5 23 0.0570968 0.168678
113 85 23 0.0381486 0.315654
113 84.5 23 0.0294281 0.495789
113 84 23 0.0362947 0.335479
113.5 83.5 23 0.0527729 0.177045
113.5 83 23 0.0734279 0.108048
113.5 82.5 23 0.0970599 0.0758734
113.5 82 23 0.123714 0.0587145
113.5 81.5 23 0.153619 0.0480695
113.5 81 23.5 0.186785 0.0400564
113.5 80.5 23.5 0.222443 0.0328004
113.5 80 23.5 0.2585 0.0249339
113.5 79.5 24 0.291109 0.0151607
113.5 79 24.5 0.314972 0.00267958
113 78.5 24.5 0.325003 -0.0128555
112.5 78.5 25 0.319169 -0.028901
112 78 25.5 0.29979 -0.044882
111.5 78 26 0.271612 -0.0614317
111 78 26.5 0.229 -0.0838466
110.5 78 27 0.198239 -0.101119
110 78.5 27.5 0.170881 -0.12009
109.5 78.5 27.5 0.147774 -0.141543
109 79 28 0.129246 -0.164938
109 79 28.5 0.115421 -0.187764
109 79.5 29 0.106297 -0.205859
108.5 80 29.5 0.101703 -0.215902
108.5 80 30 0.10132 -0.215789
108 80 30.5 0.104679 -0.207094
108 80.5 31 0.111272 -0.193596
107.5 81 31.5 0.120665 -0.17849
107.5 81 32 0.132429 -0.164017
107.5 81.5 32.5 0.146108 -0.150992
107.5 82 33 0.161197 -0.139256
108 82 33.5 0.176995 -0.128554
108 82.5 34 0.192547 -0.118464
108 83 34.5 0.206764 -0.108213
108.5 83 35 0.218429 -0.0970049
108.5 83.5 35.5 0.226283 -0.0843348
109 83.5 36 0.229308 -0.0704139
109.5 83 36.5 0.226993 -0.05515
110 83 37 0.219424 -0.0383176
110.5 83 37.5 0.207323 -0.0208727
111 82.5 38 0.192049 -0.00338437
111.5 82.5 38.5 0.175031 0.0152132
112 82 38.5 0.157456 0.0358618
112.5 81.5 39 0.140305 0.0586064
113 81 39 0.124337 0.0850429
113.5 80.5 39 0.11008 0.116762
114 80 39 0.0979729 0.152563
114 79.5 39.5 0.0884738 0.189096
114.5 79 39.5 0.0819717 0.219428
115 78.5 39.5 0.0786374 0.236375
115.5 78.5 39.5 0.0783146 0.236436
116 78 39.5 0.0805591 0.22069
116.5 77.5 39.5 0.0846937 0.195728
117 77.5 39.5 0.0899908 0.169771
117.5 77 39.5 0.095793 0.145463
118 77 39 0.101497 0.123584
118.5 77 39 0.106601 0.105299
119 76.5 39 0.110765 0.0899555
119.5 76.5 38.5 0.11375 0.0765371
120 76.5 38.5 0.115419 0.0647913
120.5 76.5 38.5 0.115743 0.054664
121 76 38 0.114801 0.0457432
121.5 76 38 0.112761 0.037854
122 76 38 0.109791 0.0312089
122.5 76 37.5 0.106063 0.0257698
123 76 37.5 0.101776 0.0214549
123.5 76 37 0.0971121 0.0181646
124 76 37 0.0922149 0.0158181
