ply
format ascii 1.0
element vertex 143
property float x
property float y
property float z
property float curvature
property float torsion
end_header
104 76 3 0.117282 -0.0332947
104 76 3.5 0.111461 -0.0358844
104 76 4 0.102283 -0.0411099
104 76 4.5 0.0927284 -0.0486625
104 76 5 0.0829354 -0.0597693
104 76 5.5 0.0730275 -0.0760723
103.5 76.5 6 0.0631311 -0.100956
103.5 76.5 6.5 0.053376 -0.141191
103.5 76.5 7 0.0439817 -0.209346
104 76.5 7.5 0.0354767 -0.325898
104 76.5 8 0.0290063 -0.498216
104 76.5 8.5 0.0266937 -0.605289
104 76.5 9 0.030304 -0.481758
104 76.5 9.5 0.0391668 -0.296447
104 76.5 10 0.0518689 -0.174701
104 76.5 10.5 0.0677628 -0.106071
104 77 11 0.0866766 -0.0673552
104.5 76.5 11.5 0.108778 -0.0443656
104.5 76.5 12 0.125452 -0.0339731
104.5 77 12.5 0.153678 -0.022681
104.5 77 13 0.186083 -0.0143687
104.5 77 13.5 0.22281 -0.00749102
105 77 14 0.26336 -0.000677305
105 77 14.5 0.305902 0.00694536
105 77 15 0.347023 0.0161157
105 77.5 15.5 0.382387 0.0268966
105 77 16 0.408649 0.0388492
104.5 77 16.5 0.423458 0.0517448
105 76.5 17 0.425854 0.0651441
105 76 17 0.41666 0.0784688
104.5 75.5 17.5 0.397919 0.0916861
104.5 75 18 0.372068 0.105318
104.5 74.5 18 0.341816 0.118835
104.5 74 18 0.309942 0.13287
104 73.5 18 0.278457 0.149061
103.5 73 17.5 0.248602 0.166945
103.5 72.5 17.5 0.22996 0.179655
103.5 72 17 0.204048 0.202628
103.5 71.5 16.5 0.180552 0.234683
103.5 71 16 0.160077 0.27497
103 71 15.5 0.144268 0.316136
103.5 70.5 15 0.134599 0.344703
103 71 14.5 0.131874 0.350069
103.5 70.5 14 0.136088 0.331624
103.5 70.5 13.5 0.146541 0.297088
103.5 70.5 13 0.16202 0.257887
104 70 12.5 0.18101 0.220947
104 70 12 0.201642 0.189396
104 70 11.5 0.221675 0.163605
104.5 70 11 0.238984 0.143165
105 70 10.5 0.252 0.125703
105.5 70 10.5 0.259543 0.109404
106 69.5 10 0.26124 0.0949756
106.5 69 10 0.258048 0.0828485
107 68.5 10 0.253988 0.0754556
107.5 68 10 0.24626 0.064853
107.5 67.5 10 0.237834 0.0547088
108 67 10 0.229715 0.0449173
108 66.5 10 0.222529 0.0353793
108.5 66 10.5 0.216721 0.026508
108.5 65.5 10.5 0.212925 0.0185239
109 65 11 0.211458 0.0112228
108.5 64.5 11 0.212158 0.00441982
109 64 11.5 0.214515 -0.00229348
109 64 12 0.217778 -0.00903782
108.5 63.5 12.5 0.220947 -0.0159639
108.5 63 13 0.222951 -0.0231525
108 63 13.5 0.222884 -0.0308217
108 62.5 14 0.219969 -0.0393337
108 62 14.5 0.213736 -0.0489548
107.5 62 15 0.204329 -0.0599613
107 62 15.5 0.192301 -0.0730325
106.5 62 16 0.183191 -0.0833287
106 62 16 0.168555 -0.101392
105.5 62.5 16.5 0.153617 -0.123536
105 62.5 16.5 0.139252 -0.151003
104.5 63 17 0.126237 -0.183471
104 63 17.5 0.115368 -0.21808
103.5 63.5 17.5 0.107341 -0.249715
103 64 18 0.102619 -0.270634
102.5 64.5 18 0.101359 -0.273358
102 65 18.5 0.103292 -0.256267
101.5 65.5 18.5 0.10766 -0.224939
101 66 18 0.11345 -0.191406
101 66.5 18 0.119777 -0.160154
101 67 18.5 0.125905 -0.13166
101 67.5 19 0.131225 -0.106437
101 68 19 0.135186 -0.0847745
100.5 68.5 19.5 0.137403 -0.0658128
100.5 69 20 0.137719 -0.04941
100.5 69.5 20.5 0.13696 -0.0407052
100 70 21 0.134668 -0.0305232
100.5 70.5 21.5 0.131406 -0.0233049
100.5 71 22 0.127617 -0.0181705
100.5 71.5 22.5 0.123621 -0.0144178
101 72 23 0.119643 -0.0120018
101 72.5 23.5 0.115816 -0.0104944
101.5 73 24 0.112169 -0.00847977
101.5 73 24.5 0.108656 -0.00580187
102 73.5 25 0.10519 -0.00236832
102.5 73.5 25.5 0.10169 0.00218327
103 74 26 0.0981316 0.00814261
103.5 74 26.5 0.0945136 0.0158098
103.5 74 27 0.0908574 0.0251908
104 74 27.5 0.0872421 0.0362618
104.5 74 28 0.0837812 0.0493203
105 74 28.5 0.0806106 0.0642083
105.5 74 29 0.0778863 0.0796258
106 74 29 0.0763992 0.0898175
106.5 74 29.5 0.0747806 0.104176
107 73.5 30 0.0740114 0.115206
107.5 73.5 30.5 0.0741303 0.120742
108 73.5 31 0.0750801 0.120284
108.5 73.5 31.5 0.0767085 0.114194
109 73 32 0.0787755 0.103658
109.5 73 32 0.0809908 0.0896682
110 72.5 32 0.0830427 0.0731622
110.5 72.5 32.5 0.0846707 0.0571651
111 72.5 32.5 0.0857346 0.0422572
111.5 72.5 32.5 0.086165 0.0280835
112 72 32.5 0.0859539 0.0141269
112.5 72 32.5 0.0851439 -9.91417e-05
113 71.5 33 0.0838285 -0.0148657
113.5 71.5 33 0.0821535 -0.0297131
114 71.5 33 0.0803429 -0.0424009
114.5 71 33 0.0786619 -0.0522403
115 71 32.5 0.0777424 -0.0568467
115.5 71 32.5 0.0768287 -0.0610344
116 70.5 32.5 0.0765816 -0.0622108
116.5 70.5 32.5 0.0770765 -0.0602342
117 70.5 32.5 0.0783431 -0.0555964
117.5 70 32.5 0.0803459 -0.049792
118 69.5 32 0.0829979 -0.0433614
118.5 69.5 32 0.0861796 -0.0367523
119 69 32 0.0897299 -0.0307948
119.5 69 31.5 0.0934435 -0.025784
120 68.5 31 0.0970892 -0.0217419
120.5 68 31 0.100428 -0.0184849
121 68 30.5 0.103257 -0.0158035
121.5 67.5 30 0.105395 -0.0136304
122 67.5 29.5 0.106691 -0.0118917
122 67 29 0.107086 -0.0104801
122 66.5 28.5 0.1066 -0.00932456
