ply
format ascii 1.0
element vertex 145
property float x
property float y
property float z
property float curvature
property float torsion
end_header
65 84.5 1 0.104146 -0.00135517
64.5 84.5 1 0.110542 -0.00154279
64 84.5 1 0.120556 -0.00177384
63.5 84.5 1.5 0.130928 -0.00192768
63 84.5 2 0.14151 -0.0019597
62.5 85 2.5 0.152169 -0.00151352
62 84.5 3 0.162723 -0.0004133
61.5 84.5 3.5 0.173018 0.0014055
61 84.5 4 0.182918 0.00350181
60.5 84.5 4.5 0.192104 0.00537438
60.5 84 5 0.200108 0.00700516
60 84 5.5 0.206399 0.0083417
60 84 6 0.210632 0.00917269
60 83.5 6.5 0.21264 0.00948288
60 83 7 0.212346 0.00926349
60 83 7.5 0.209836 0.00819304
60 82.5 8 0.205303 0.00614793
60.5 82 8.5 0.198916 0.00306841
61 81.5 9 0.190943 -0.000724721
61.5 81.5 9 0.182063 -0.00495635
62 81 9.5 0.172772 -0.00981414
62 80.5 10 0.163202 -0.0153424
62.5 80 10 0.153285 -0.021183
63 80 10 0.142982 -0.0275619
63.5 80 10.5 0.132283 -0.0348262
64 79.5 10.5 0.121192 -0.0430711
64.5 79 10.5 0.10973 -0.0528224
65 79 10.5 0.0979318 -0.0651094
65.5 78.5 10.5 0.0858471 -0.0816951
66 78.5 10.5 0.0736308 -0.105406
66.5 78 10.5 0.0615098 -0.141218
67 78 10.5 0.0497662 -0.19906
67.5 77.5 10.5 0.03874 -0.301166
68 77.5 10.5 0.0290169 -0.490387
68.5 77.5 10 0.021818 -0.793458
69 77 10 0.0191696 -0.95352
69.5 77 10 0.0217198 -0.702019
70 76.5 10 0.0251585 -0.509782
70.5 76 10 0.0310992 -0.327371
71 75.5 10 0.0370216 -0.230474
71.5 75.5 10 0.0425868 -0.172831
72 75 10 0.0477202 -0.133307
72.5 74.5 10 0.0524277 -0.10529
73 74.5 10 0.0567486 -0.0842284
73.5 74 10 0.0607748 -0.0670342
74 74 10 0.0646109 -0.0531987
74.5 73.5 10 0.0682952 -0.0428207
75 73 10 0.0719087 -0.0350375
75.5 72.5 10.5 0.0756094 -0.0295348
76 72.5 10.5 0.0796094 -0.0267986
76.5 72 10.5 0.0841549 -0.026312
77 71.5 11 0.0895317 -0.0275737
77.5 71 11.5 0.0960195 -0.0301104
78 70.5 12 0.103799 -0.0336796
78.5 70.5 12 0.112959 -0.0381799
79 70 12.5 0.123445 -0.043227
79.5 69.5 13 0.134859 -0.0488588
79.5 69.5 13.5 0.146465 -0.0557583
80 69 14 0.15724 -0.0639308
80 69 14.5 0.166165 -0.0715359
80.5 69 15 0.172276 -0.0789566
80.5 69 15.5 0.17467 -0.0866946
80.5 69 16 0.172751 -0.0940032
80.5 68.5 16.5 0.166407 -0.101318
80.5 68.5 17 0.155971 -0.110013
80.5 68.5 17.5 0.142153 -0.120714
80.5 68.5 18 0.125952 -0.134458
80.5 69 18.5 0.108285 -0.155519
80.5 69 19 0.0898548 -0.193934
80.5 69 19.5 0.0714428 -0.274965
80.5 69 20 0.0545422 -0.451116
80.5 69 20.5 0.0433655 -0.741193
80.5 69.5 21 0.0466681 -0.716122
80.5 69.5 21.5 0.0585712 -0.511102
81 70 22 0.0868615 -0.29702
80.5 70 22.5 0.124856 -0.198573
80.5 70.5 23 0.172002 -0.149525
81 71 23.5 0.227669 -0.123125
81 71 24 0.288524 -0.108199
81 71 24.5 0.346305 -0.101224
81 71 25 0.387668 -0.0989448
81.5 71 25.5 0.398662 -0.0998434
82 71 26 0.374537 -0.104194
82.5 70.5 26.5 0.32434 -0.114077
82.5 70 27 0.262219 -0.136523
83 69.5 27 0.198941 -0.190386
83 69 27 0.141745 -0.326116
83 68.5 27.5 0.0983788 -0.648634
83 68 27.5 0.0870343 -0.880322
83.5 67.5 27 0.122347 -0.522365
83.5 67 27 0.192093 -0.270513
83.5 66.5 26.5 0.292194 -0.156543
83.5 66 27 0.428749 -0.0947904
83.5 65.5 27.5 0.603615 -0.0475125
83.5 65 28 0.787255 0.00689148
83.5 64.5 28.5 0.893258 0.073952
83.5 65 29 0.845127 0.131513
83.5 65 29.5 0.682853 0.172111
83.5 65.5 30 0.502013 0.205638
83 66 30.5 0.354217 0.246387
82.5 66.5 31 0.247977 0.307572
82 66.5 31 0.177455 0.393811
81.5 67 31 0.137079 0.468272
81 67.5 31.5 0.122838 0.437867
80.5 67.5 31.5 0.126633 0.314803
80 67 32 0.137418 0.200149
79.5 67 32 0.147774 0.127001
79 67 32 0.154423 0.0780369
78.5 67 32 0.155916 0.0398505
78 66.5 32.5 0.153827 0.0177019
77.5 66 33 0.146292 -0.0145549
77 66 33 0.134236 -0.0513724
76.5 65.5 33.5 0.1189 -0.0981023
76 65.5 33.5 0.102174 -0.153216
75.5 65 34 0.0861548 -0.219341
75 65 34 0.072678 -0.289939
74.5 64.5 34 0.0630037 -0.352445
74 64 34 0.0575917 -0.377446
73.5 64 34 0.0559659 -0.346249
73 63.5 34 0.0566746 -0.285791
72.5 63.5 34 0.0582052 -0.227008
72 63 34 0.0594258 -0.177335
71.5 63 34 0.0595511 -0.137084
71 63 34 0.0581379 -0.10622
70.5 62.5 34 0.0550214 -0.0805713
70 62.5 33.5 0.050218 -0.0558354
69.5 62.5 33.5 0.0439594 -0.0286696
69 62 34 0.036725 0.0081494
68.5 62 33.5 0.0291322 0.0693279
68 61.5 33.5 0.0218623 0.186097
67.5 61.5 33.5 0.0155519 0.427445
67 61 33.5 0.0113249 0.816362
66.5 61 33.5 0.0107129 0.837706
66 60.5 33 0.0132397 0.468468
65.5 60.5 33 0.0169598 0.225562
65 60.5 33 0.0208364 0.106541
64.5 60.5 33 0.0245033 0.0474371
64 60 33 0.0278123 0.0171939
63.5 59.5 33 0.0306835 0.00204661
63 59.5 32.5 0.0330724 -0.00528086
62.5 59.5 32.5 0.0350045 -0.00844248
62 59 32.5 0.0365227 -0.00862293
61.5 58.5 32.5 0.0376703 -0.00703404
61 58.5 32 0.0385111 -0.00578879
60.5 58 32 0.0391234 -0.00489185
