ply
format ascii 1.0
element vertex 157
property float x
property float y
property float z
property float curvature
property float torsion
end_header
65.3322 91.5749 1.34604 0.081359 -0.0102699
64.9124 91.5885 1.84696 0.084065 -0.0108676
64.5207 91.5843 2.36013 0.0869684 -0.0122657
64.1579 91.5618 2.88427 0.0901753 -0.0144355
63.8248 91.521 3.41794 0.0938509 -0.0171797
63.5225 91.4614 3.9595 0.0981736 -0.0200026
63.2521 91.3828 4.50707 0.103315 -0.0227789
63.015 91.2847 5.05848 0.109452 -0.0254012
62.8125 91.1665 5.61135 0.116689 -0.0276858
62.646 91.0278 6.16299 0.12501 -0.0296908
62.5173 90.8681 6.71046 0.134357 -0.0315395
62.4276 90.6867 7.2505 0.144603 -0.0328664
62.3785 90.4833 7.77955 0.155405 -0.0334608
62.3712 90.2574 8.29383 0.166223 -0.0336352
62.4066 90.009 8.78938 0.176361 -0.0334156
62.4854 89.7382 9.26212 0.185049 -0.0322776
62.6076 89.4452 9.708 0.191494 -0.0303777
62.773 89.1308 10.123 0.194994 -0.0278324
62.9806 88.7961 10.5035 0.195139 -0.0239976
63.229 88.4426 10.846 0.191837 -0.0186967
63.5162 88.0723 11.1475 0.185171 -0.0119066
63.8397 87.6875 11.4059 0.175492 -0.00427924
64.1967 87.2908 11.6198 0.163673 0.0037788
64.5842 86.8851 11.7887 0.150609 0.0128288
64.9988 86.4736 11.9129 0.137 0.0233575
65.4374 86.0593 11.9934 0.123307 0.0355504
65.8968 85.6453 12.0325 0.109845 0.0507019
66.374 85.2347 12.0326 0.0968353 0.070828
66.8661 84.8305 11.9975 0.0844266 0.0976383
67.3705 84.4352 11.9311 0.0727352 0.135563
67.8847 84.0515 11.8385 0.0619321 0.192823
68.4065 83.6813 11.7249 0.0524443 0.279104
68.9339 83.3264 11.5963 0.0453662 0.390158
69.4649 82.9879 11.459 0.0424102 0.473584
69.9978 82.6665 11.3195 0.0450157 0.45559
70.5308 82.3627 11.1844 0.0531555 0.364608
71.0622 82.0762 11.0602 0.0657418 0.27323
71.5901 81.8067 10.9532 0.0817401 0.207205
72.1127 81.5533 10.8696 0.10046 0.161688
72.6279 81.3152 10.8149 0.121287 0.12963
73.1333 81.0913 10.7944 0.143448 0.105945
73.6267 80.8805 10.8126 0.165891 0.0876589
74.1055 80.6818 10.8731 0.18739 0.0723931
74.5671 80.4943 10.9789 0.206424 0.0580962
75.0089 80.3176 11.132 0.221307 0.0440116
75.4282 80.1511 11.3337 0.230524 0.0310065
75.8225 79.9948 11.5844 0.233117 0.0186982
76.1895 79.8489 11.8838 0.228986 0.00695384
76.5272 79.7138 12.2307 0.21902 -0.00222701
76.8337 79.5901 12.6232 0.204799 -0.00854481
77.1078 79.4786 13.0587 0.187955 -0.0123551
77.3487 79.3799 13.5343 0.169893 -0.0137392
77.556 79.2946 14.0466 0.151781 -0.0125629
77.7299 79.2231 14.5918 0.134411 -0.00859112
77.8709 79.1654 15.1661 0.118213 -0.00172474
77.9799 79.1214 15.7657 0.103345 0.00730491
78.0583 79.0904 16.3867 0.0898502 0.0195498
78.1075 79.0713 17.0253 0.0777292 0.0367864
78.1292 79.0629 17.6777 0.0669551 0.0612225
78.1252 79.0633 18.3402 0.0575144 0.0966773
78.0975 79.0705 19.0092 0.0495445 0.148004
78.0479 79.0817 19.6812 0.0434406 0.215093
77.9787 79.0943 20.3529 0.0399153 0.281844
77.8917 79.105 21.0207 0.0398208 0.313502
77.7891 79.1102 21.6815 0.0436437 0.290192
77.673 79.1061 22.3321 0.0511727 0.235106
77.5455 79.089 22.9692 0.0618481 0.180299
77.4086 79.0546 23.5897 0.0752195 0.137675
77.2643 78.9992 24.1906 0.0910267 0.108014
77.1146 78.9189 24.7689 0.109101 0.0882441
76.9616 78.81 25.3218 0.129233 0.0754062
76.8073 78.6694 25.8463 0.150955 0.0676333
76.6538 78.4941 26.3398 0.173168 0.0640782
76.5031 78.2818 26.8 0.194115 0.0643475
76.3577 78.031 27.2247 0.211524 0.0681499
76.2197 77.7408 27.6124 0.22329 0.0745459
76.0917 77.4113 27.9618 0.227938 0.0834013
75.9761 77.0434 28.2726 0.224918 0.0949083
75.8755 76.6387 28.5449 0.214879 0.108523
75.7925 76.1996 28.7797 0.199483 0.124885
75.7295 75.729 28.9786 0.180797 0.145668
75.6891 75.2307 29.1442 0.16087 0.172558
75.6735 74.7089 29.2795 0.141617 0.206768
75.6848 74.1681 29.3884 0.124639 0.248702
75.7249 73.6136 29.4756 0.111307 0.293805
75.7956 73.0508 29.546 0.102816 0.328321
75.8983 72.4855 29.605 0.100084 0.336927
76.0338 71.9237 29.6583 0.103513 0.314051
76.2027 71.3719 29.7117 0.112935 0.268936
76.405 70.8367 29.7711 0.127752 0.217838
76.6401 70.3246 29.842 0.147109 0.171778
76.9069 69.8424 29.9295 0.169975 0.135146
77.2037 69.3967 30.0384 0.19483 0.108371
77.5282 68.9937 30.1725 0.21971 0.0893012
77.8774 68.6393 30.3349 0.2423 0.0761201
78.2473 68.3387 30.5275 0.260694 0.0674884
78.6332 68.0963 30.7512 0.273453 0.061835
79.0295 67.9157 31.0058 0.279592 0.0583305
79.4303 67.7993 31.2902 0.278947 0.0569606
79.8291 67.7489 31.6027 0.272285 0.0576602
80.2192 67.7646 31.9406 0.261049 0.0604673
80.5935 67.8457 32.3006 0.247076 0.0649531
80.9453 67.9901 32.6791 0.232384 0.0705208
81.2675 68.1942 33.0719 0.218507 0.077184
81.5536 68.4538 33.4749 0.206349 0.0847492
81.7977 68.7631 33.8839 0.196315 0.0923853
81.9944 69.1156 34.2947 0.188336 0.100396
82.139 69.5041 34.7038 0.181952 0.109458
82.2284 69.9206 35.108 0.176769 0.118362
82.2601 70.3567 35.5048 0.172767 0.126158
82.2331 70.8039 35.8922 0.169856 0.132444
82.1475 71.2535 36.2691 0.167809 0.137399
82.0044 71.6972 36.6346 0.166428 0.141119
81.8059 72.1272 36.9886 0.165574 0.143256
81.5549 72.536 37.3312 0.165123 0.142737
81.2553 72.9169 37.6629 0.164995 0.136415
80.9115 73.2638 37.9843 0.164933 0.123516
80.5285 73.5719 38.296 0.164389 0.104222
80.1115 73.8372 38.5984 0.162828 0.0837232
79.6658 74.0571 38.8917 0.160122 0.0624847
79.1967 74.2304 39.1756 0.156345 0.0390216
78.7091 74.3567 39.4494 0.151639 0.0124487
78.2077 74.4365 39.7122 0.145998 -0.0181438
77.6968 74.4714 39.9625 0.139488 -0.0549869
77.1801 74.464 40.1984 0.132362 -0.0985773
76.6608 74.4175 40.4176 0.125215 -0.141901
76.1415 74.3362 40.6176 0.118742 -0.182428
75.6243 74.2246 40.7958 0.113437 -0.21629
75.1104 74.0878 40.9499 0.10949 -0.238967
74.6009 73.931 41.0778 0.106763 -0.246586
74.0962 73.7592 41.1783 0.104668 -0.238293
73.5965 73.5771 41.2505 0.102244 -0.2233
73.1016 73.389 41.2947 0.09867 -0.211146
72.6112 73.1987 41.3118 0.0933251 -0.203996
72.1249 73.0093 41.3037 0.0857696 -0.205861
71.6422 72.8234 41.2731 0.0758887 -0.22615
71.1624 72.6428 41.2231 0.0638943 -0.280684
70.6849 72.4688 41.158 0.0503268 -0.413457
70.2091 72.302 41.082 0.0366294 -0.74757
69.7341 72.1426 41.0001 0.026968 -1.38117
69.2592 71.99 40.9174 0.0289302 -1.24785
68.7838 71.8433 40.8391 0.041532 -0.643575
68.3072 71.701 40.7702 0.0577352 -0.352608
67.8288 71.5616 40.7154 0.0738954 -0.222683
67.3481 71.423 40.6789 0.0881273 -0.157474
66.8648 71.2834 40.6644 0.0996747 -0.121898
66.3785 71.1407 40.6749 0.108422 -0.0987828
65.8892 70.9932 40.7129 0.114413 -0.0811456
65.3968 70.8389 40.7804 0.117748 -0.0671396
64.9012 70.6761 40.8791 0.11855 -0.0555399
64.4025 70.5032 41.0103 0.117079 -0.0454476
63.9006 70.3189 41.175 0.113724 -0.0368743
63.3956 70.1218 41.374 0.109015 -0.029754
62.8876 69.9109 41.6078 0.103472 -0.023604
62.3767 69.6853 41.8769 0.0975318 -0.0184009
61.8629 69.4441 42.1814 0.0914872 -0.0147289
61.3463 69.1866 42.5219 0.0855298 -0.012304
