ply
format ascii 1.0
element vertex 172
property float x
property float y
property float z
property float curvature
property float torsion
end_header
119.5 87 2 0.115952 -0.00708289
120 87.5 2.5 0.123768 -0.00801615
120.5 87.5 3 0.131488 -0.00912801
121 87 3 0.138929 -0.0104282
121.5 87 3.5 0.145937 -0.011829
121.5 87 4 0.152371 -0.0130248
122 86.5 4.5 0.158136 -0.0139495
122.5 86.5 5 0.163228 -0.0145403
123 86 5.5 0.167657 -0.0144839
123 86 6 0.171321 -0.0137344
123.5 85.5 6.5 0.174096 -0.0123669
123 85.5 7 0.175883 -0.0104453
123.5 85 7.5 0.176658 -0.00801113
123.5 84.5 8 0.176396 -0.00510482
123.5 84 8.5 0.175083 -0.00170966
123.5 83.5 9 0.172725 0.00230523
123 83 9.5 0.169277 0.00704466
122.5 82.5 10 0.164639 0.0126133
122 82 10.5 0.15891 0.0178842
121.5 81.5 11 0.152438 0.022605
121 81.5 11 0.145438 0.0269335
120.5 81 11 0.137993 0.030876
120 80.5 11.5 0.130225 0.0343017
119.5 80.5 11.5 0.12221 0.0371569
119 80 11.5 0.113925 0.0396591
118.5 79.5 11.5 0.105323 0.0427954
118 79.5 11.5 0.0963887 0.0468203
117.5 79.5 11.5 0.0870989 0.0520924
117 79 11.5 0.0773902 0.059984
116.5 78.5 11.5 0.0671745 0.0727324
116 78.5 11.5 0.0564003 0.0949439
115.5 78 11.5 0.0450842 0.137652
115 78 11 0.0334471 0.233914
114.5 78 11.5 0.0222756 0.504484
114 77.5 11.5 0.0148064 1.13714
113.5 77.5 11.5 0.0215286 0.57824
113 77 11 0.0335947 0.264482
112.5 77 11 0.046702 0.157334
112 76.5 11 0.0596596 0.111051
111.5 76 11 0.0719153 0.0868776
111 76 11 0.083084 0.0724256
110.5 75.5 11 0.0928766 0.0624968
110 75.5 11.5 0.101103 0.054925
109.5 75 11 0.107695 0.0486682
109 74.5 11.5 0.112773 0.0432441
108.5 74 11.5 0.116705 0.0381936
108 74 12 0.11995 0.0330394
107.5 73.5 12.5 0.123003 0.0278102
107 73 13 0.126364 0.0233483
106.5 72.5 13.5 0.13033 0.0195107
106 72.5 14 0.13488 0.0162817
106 72.5 14.5 0.139729 0.0145354
106 72 15 0.144421 0.0144318
105.5 72 15.5 0.148304 0.0159057
105.5 71.5 16 0.150537 0.0187987
105 71.5 16.5 0.150097 0.0231874
104.5 71.5 17 0.146121 0.0296438
104.5 71.5 17.5 0.138129 0.0384503
104.5 71.5 18 0.126348 0.0485026
105 71 18.5 0.111541 0.0615242
105 71 19 0.0946135 0.0811075
105 71 19.5 0.0765272 0.113029
105 71 20 0.0582264 0.174135
105 71 20.5 0.0405541 0.320609
105 71 21 0.0251118 0.761738
105 71 21.5 0.0182858 1.36626
105 71 22 0.0273277 0.628756
105.5 71 22.5 0.0435879 0.281786
105.5 71 23 0.0624776 0.171425
105.5 71 23.5 0.0909595 0.123023
105.5 71 24 0.115294 0.113018
105.5 71 24.5 0.142914 0.113513
105.5 71 25 0.174638 0.122268
105 71.5 25.5 0.21148 0.138851
105 71 26 0.254675 0.157284
105 71 26.5 0.304754 0.176148
105 71 27 0.359878 0.196172
104.5 71 27.5 0.414615 0.217992
104 70.5 28 0.461079 0.23772
103.5 70 28.5 0.489335 0.249132
103.5 69.5 28.5 0.490937 0.247328
103.5 69 28.5 0.463277 0.232192
103 68.5 28.5 0.411732 0.21156
103.5 68 28.5 0.346767 0.195315
103 67.5 28 0.2795 0.191524
103.5 67 28.5 0.218231 0.203727
103 66.5 28 0.166289 0.239064
103.5 66 28 0.124271 0.313023
103.5 65.5 28 0.0925665 0.448091
104 65 27.5 0.0734523 0.619491
104.5 64.5 27 0.0709108 0.635522
105 64 26.5 0.0847554 0.455745
105.5 63.5 26.5 0.109173 0.296253
106 63 26.5 0.139323 0.203634
106.5 62.5 26 0.172799 0.153268
106.5 62 26.5 0.20829 0.123319
106.5 61.5 27 0.24385 0.102771
106.5 61 27 0.276702 0.0880695
106.5 60.5 27.5 0.304379 0.0768244
106.5 60 27.5 0.324722 0.0658977
106.5 59.5 27.5 0.336257 0.0534662
106.5 59 28 0.338166 0.0388617
106.5 58.5 28 0.330835 0.022058
106 58 28.5 0.316178 0.00302871
105.5 58 29 0.290916 -0.024069
105 57.5 29.5 0.271505 -0.0462518
104.5 58 30 0.253015 -0.071056
104 57.5 30.5 0.235877 -0.0951453
103.5 58 31 0.220991 -0.116932
103 58 31 0.208937 -0.135369
102.5 58 31 0.199716 -0.149948
102 58.5 31.5 0.192835 -0.160722
101.5 58.5 31.5 0.187632 -0.167458
101 59 31.5 0.183326 -0.17065
101 59.5 32 0.179334 -0.170882
100.5 60 32 0.175307 -0.167558
100.5 60.5 32 0.17093 -0.160396
100.5 61 32 0.165905 -0.151372
100 61.5 32.5 0.160056 -0.141037
100 62 33 0.153348 -0.129206
100.5 62.5 33.5 0.145937 -0.11805
100 63 33.5 0.138413 -0.108815
100.5 63.5 34 0.131509 -0.09975
100.5 64 34.5 0.125919 -0.0900239
100.5 64.5 34.5 0.122134 -0.0816392
101 65 35 0.120514 -0.074355
101 65.5 35.5 0.121359 -0.0677049
101 66 36 0.124694 -0.0602045
101.5 66.5 36.5 0.130105 -0.0522609
102 67 36.5 0.136962 -0.0446924
102 67.5 37 0.144455 -0.0369396
102.5 68 37 0.151652 -0.0282382
103 68 37.5 0.157588 -0.0186393
103.5 68.5 37.5 0.16136 -0.0079607
104 68 38 0.162404 0.00417348
104.5 68 38 0.160537 0.0183343
105 68 38.5 0.155911 0.0350885
105.5 68 39 0.14904 0.053115
106 68 39.5 0.137753 0.0791953
106.5 68 39.5 0.128754 0.10071
107 68 40 0.120105 0.121924
107.5 68 40 0.11234 0.1416
108 67.5 40 0.10582 0.158653
108.5 67 40.5 0.100746 0.170243
109 67 41 0.0971434 0.173461
109.5 66.5 41 0.0947654 0.168174
110 66 41 0.0931103 0.156814
110.5 66 41 0.0916629 0.144033
111 65.5 41 0.089986 0.130752
111.5 65.5 41 0.0876637 0.117597
112 65 41 0.0843551 0.108308
112.5 65 41 0.0798623 0.104423
113 64.5 41 0.0740882 0.107183
113.5 64.5 41 0.0670568 0.119462
114 64.5 40.5 0.0590331 0.146393
114.5 64 40.5 0.0504643 0.197916
115 63.5 40 0.0420936 0.290408
115.5 63.5 40 0.0353539 0.427337
116 63 39.5 0.0324686 0.528518
116.5 63 40 0.0350325 0.471111
117 62.5 39.5 0.0421778 0.338965
117.5 62.5 39.5 0.0520187 0.232675
118 62.5 39.5 0.0631729 0.162932
118.5 62 39 0.0747599 0.11807
119 62 39.5 0.0861218 0.0883794
119.5 61.5 39 0.0966799 0.0674338
120 61.5 39 0.105893 0.0520033
120.5 61.5 39.5 0.113409 0.0409314
121 61 39 0.119057 0.0326417
121.5 61 39.5 0.122781 0.026209
122 61 39.5 0.124638 0.0214905
122.5 60.5 39.5 0.124775 0.018193
