ply
format ascii 1.0
element vertex 131
property float x
property float y
property float z
property float curvature
property float torsion
end_header
134.5 100.5 4.5 0.0639123 -0.00802086
134 100.5 4.5 0.0641253 -0.00867029
133.5 100.5 4.5 0.0642364 -0.00993649
133 100 5 0.0640302 -0.0116191
133 99.5 5 0.063437 -0.0137859
132.5 99 5 0.0623724 -0.0161722
132 98.5 5 0.0607231 -0.0188744
131.5 98 5 0.0583805 -0.0222362
131 98 5.5 0.0552623 -0.0273474
130.5 97.5 5.5 0.0513634 -0.0357795
130 97 5.5 0.0467014 -0.0495615
129.5 97 5.5 0.0431815 -0.0635172
129 96.5 5.5 0.0373429 -0.095598
128.5 96 5.5 0.0309673 -0.153578
128 96 5.5 0.0242917 -0.27222
127.5 95.5 5.5 0.0178814 -0.536443
127 95 5 0.0133638 -0.997951
126.5 95 5 0.013637 -0.97395
126 94.5 5 0.0186381 -0.521418
125.5 94.5 5 0.0256648 -0.273754
125 94 5 0.033339 -0.160511
124.5 94 5 0.0411403 -0.103321
124 93.5 5 0.0462744 -0.0799705
123.5 93 5.5 0.0537118 -0.0567279
123 93 5 0.0606766 -0.0416733
122.5 92.5 5 0.0670407 -0.0313063
122 92.5 5 0.072782 -0.0237848
121.5 92 5.5 0.0779664 -0.017956
121 91.5 5.5 0.0827201 -0.0131446
120.5 91.5 6 0.0872293 -0.00888469
120 91 6 0.0916986 -0.00492711
119.5 90.5 6 0.0963165 -0.00114251
119 90.5 6 0.101221 0.00341925
118.5 90 6.5 0.104652 0.00733237
118 90 7 0.109955 0.0144316
117.5 89.5 7.5 0.115263 0.0228871
117 89 8 0.120326 0.0310484
116.5 89 8.5 0.124854 0.0387113
116.5 88.5 9 0.128433 0.0462776
116 88.5 9.5 0.130561 0.0539855
116 88.5 10 0.130773 0.0621355
116 88 10.5 0.128733 0.0713565
115.5 88 11 0.124286 0.0815973
115 88 11.5 0.117492 0.0909736
115.5 87.5 12 0.111765 0.0972279
115.5 87.5 12.5 0.101618 0.107937
115 87.5 13 0.0899936 0.122889
115 87.5 13.5 0.0775712 0.145443
115 87.5 14 0.0650014 0.18082
115 87.5 14.5 0.052845 0.240128
115 87.5 15 0.0416714 0.348535
115 87.5 15.5 0.0325088 0.538894
115 87.5 16 0.0276084 0.741563
115 87.5 16.5 0.0297492 0.668966
115 87.5 17 0.0385179 0.442706
115 87.5 17.5 0.0467945 0.33239
115 87.5 18 0.0616459 0.232585
115 87.5 18.5 0.0786892 0.17638
114.5 87.5 19 0.0972773 0.144405
114.5 87.5 19.5 0.116665 0.126621
114.5 87.5 20 0.135883 0.116103
114.5 88 20.5 0.153663 0.109838
114.5 88 21 0.168341 0.106737
114 88 21.5 0.178083 0.105273
114 88 22 0.181205 0.104965
114 88 22.5 0.176702 0.107554
113.5 88 23 0.169432 0.112247
113 87.5 23.5 0.153303 0.12439
112.5 87.5 24 0.133226 0.145129
112 87 24.5 0.11153 0.181021
111.5 86.5 25 0.0904862 0.251468
111 86 25.5 0.0740594 0.374251
111 85.5 26 0.0695917 0.462178
111 85 26 0.0841593 0.377687
110.5 84.5 26 0.117519 0.25519
110 84 26 0.168127 0.181215
110 83.5 26 0.238242 0.14401
110 83 25.5 0.298114 0.129777
110 82.5 26 0.410047 0.115997
109.5 82 26.5 0.542949 0.104848
110 82 27 0.667499 0.089947
109.5 81.5 27.5 0.728963 0.0673809
109.5 81 28 0.689938 0.0371049
109.5 80.5 28.5 0.575361 0.00477218
110 81 29 0.441559 -0.0215555
109.5 81.5 29.5 0.324627 -0.0441354
109.5 82 30 0.233641 -0.0691976
109.5 82.5 30.5 0.165787 -0.104132
109.5 83 31 0.13096 -0.138033
110 83.5 31 0.0917285 -0.214127
109.5 84 31.5 0.0674964 -0.304573
110 84.5 32 0.0595558 -0.299925
110 85 32.5 0.0656105 -0.181146
110.5 85 33 0.0786873 -0.0786196
110.5 85.5 33.5 0.093499 -0.0198067
110.5 85.5 34 0.107774 0.0135669
110.5 86 34.5 0.120442 0.0360383
111 86 35 0.130779 0.053764
111 86 35.5 0.13844 0.0681971
111.5 86 36 0.142038 0.0766264
111.5 86 36.5 0.14528 0.087846
111.5 86 37 0.146244 0.0973728
112 86 37.5 0.145404 0.104992
112.5 86 38 0.143318 0.110305
113 86 38.5 0.140586 0.112679
113.5 85.5 39 0.137921 0.110593
114 85.5 39 0.135883 0.102587
114.5 85.5 39.5 0.134642 0.0882297
115 85 40 0.134032 0.0729114
115.5 85 40 0.133809 0.0583748
116 85 40 0.133764 0.0490894
116.5 85 40 0.133675 0.0354952
117 84.5 40.5 0.13322 0.0216586
117.5 84.5 40.5 0.13193 0.00737529
118 84 41 0.129354 -0.00759062
118.5 84 40.5 0.125259 -0.0211772
119 84 40.5 0.1198 -0.0328558
119.5 83.5 40.5 0.113292 -0.042599
120 83.5 40.5 0.106106 -0.0514274
120.5 83 40 0.0985591 -0.0605634
121 83 40 0.090936 -0.069964
121.5 82.5 39.5 0.085937 -0.0762589
122 82.5 39.5 0.0787715 -0.0849011
122.5 82 39 0.0722665 -0.0911192
123 81.5 38.5 0.0666511 -0.0926662
123.5 81.5 38 0.0620396 -0.0894799
124 81 38 0.0583495 -0.0830848
124.5 80.5 37.5 0.055455 -0.073446
125 80.5 37 0.0532284 -0.0618605
125.5 80 37 0.0514846 -0.0525409
125.5 79.5 37 0.0500372 -0.0468407
