ply
format ascii 1.0
element vertex 190
property float x
property float y
property float z
property float curvature
property float torsion
end_header
67 99 4 0.104682 0.00234079
67 99 4.5 0.114736 0.00276398
67.5 98.5 5 0.125292 0.00344551
67.5 98.5 5.5 0.136009 0.00446549
68 98.5 6 0.1464 0.00594183
68.5 98 6.5 0.155807 0.00807888
68.5 98 7 0.163448 0.0110554
69 98 7.5 0.168525 0.0150461
69.5 98 8 0.170369 0.0197802
70 97.5 8.5 0.168569 0.0252932
70.5 97 8.5 0.16303 0.0319107
71 96.5 8.5 0.154025 0.0391354
71.5 96 9 0.14225 0.0462136
72 95.5 8.5 0.12851 0.0533788
72.5 95.5 9 0.11354 0.0614979
73 95 9 0.0980357 0.0729401
73.5 95 9 0.082606 0.0898233
74 94.5 8.5 0.0677012 0.116044
74.5 94.5 8.5 0.0491572 0.184695
75 94 8.5 0.0365765 0.297031
75.5 94 8.5 0.0256916 0.542712
76 93.5 8 0.0179249 1.01194
76.5 93 8 0.0160677 1.14775
77 93 8.5 0.0200679 0.672656
77.5 92.5 8.5 0.0261374 0.366971
78 92.5 8 0.0321671 0.228641
78.5 92 8 0.0374474 0.161766
79 92 8 0.0417117 0.126758
79.5 91.5 8 0.0449323 0.107606
80 91.5 8.5 0.0472092 0.0964233
80.5 91 8.5 0.0486861 0.0893012
81 91 8.5 0.0495486 0.0841542
81.5 90.5 8.5 0.0500193 0.0794024
82 90.5 8.5 0.050341 0.0737431
82.5 90 8.5 0.050762 0.0661574
83 90 9 0.0518571 0.0522452
83.5 89.5 9 0.0533741 0.0389602
84 89 9 0.0557336 0.0245468
84.5 89 9.5 0.0590417 0.0106366
85 88.5 9.5 0.0633347 -0.00207383
85.5 88.5 9.5 0.0685999 -0.0131933
86 88 10 0.0747328 -0.0225798
86.5 88 10 0.081555 -0.0307356
87 87.5 10 0.0888438 -0.0382643
87.5 87.5 10.5 0.0963391 -0.0453634
87.5 87 11 0.103733 -0.0525471
88 86.5 11.5 0.110642 -0.0604519
88.5 86.5 12 0.116631 -0.068841
89 86.5 12.5 0.12129 -0.0773825
89 86 13 0.124205 -0.0866047
89 85.5 13.5 0.124992 -0.0966659
89.5 85.5 14 0.12351 -0.106401
89.5 85.5 14.5 0.118188 -0.118563
90 86 15 0.112034 -0.126914
90 85.5 15.5 0.104457 -0.134432
90 85.5 16 0.095914 -0.141164
90.5 85.5 16.5 0.0868694 -0.147272
90.5 85 17 0.0777378 -0.152519
90.5 85 17.5 0.0688328 -0.15728
90.5 85 18 0.0603399 -0.162816
90.5 85 18.5 0.0523394 -0.172725
91 85 19 0.0448894 -0.192153
91 85 19.5 0.0380976 -0.227472
91 85 20 0.0322623 -0.286454
91.5 85 20.5 0.028168 -0.362423
91.5 85 21 0.0271967 -0.400321
91.5 85 21.5 0.030625 -0.345226
92 85 22 0.0385402 -0.24612
92.5 85 22.5 0.0502244 -0.168734
93 85 23 0.0653341 -0.120843
93 85 23.5 0.0915411 -0.0854006
93 85 24 0.117161 -0.0702737
93 85 24.5 0.149737 -0.0608075
93 85 25 0.191474 -0.056207
93 85 25.5 0.244598 -0.0567353
93.5 85 26 0.310854 -0.0624801
94 84.5 26.5 0.389813 -0.0734196
94.5 84 27 0.476083 -0.0869867
94.5 83.5 27 0.554808 -0.10161
94.5 83 27 0.601572 -0.114743
94.5 82.5 27.5 0.59607 -0.124072
94.5 82 27.5 0.540366 -0.129109
94.5 81.5 27.5 0.456597 -0.132525
94.5 81 27 0.368408 -0.136863
94.5 80.5 26.5 0.289484 -0.145199
94.5 80 26 0.224021 -0.163325
94 79.5 26 0.171477 -0.199125
93.5 79 25.5 0.119586 -0.28759
93 79 25 0.0940493 -0.386324
93 79 24.5 0.0814331 -0.460742
92.5 78.5 24 0.0831109 -0.426013
92 78.5 23.5 0.0974308 -0.320238
91.5 78 23.5 0.121051 -0.229155
91 77.5 23.5 0.152119 -0.171794
90.5 77 23.5 0.190575 -0.137485
90 76.5 23.5 0.23692 -0.116672
89.5 76 23.5 0.291339 -0.104351
89.5 75.5 24 0.352903 -0.0969872
89 75 24 0.41758 -0.0913154
89 74.5 24.5 0.476612 -0.0848726
88.5 74.5 25 0.517822 -0.0758271
88.5 74 25.5 0.530209 -0.0626186
89 74 26 0.510201 -0.0454385
89 74 26.5 0.464578 -0.0275083
89.5 74 27 0.3859 -0.00447819
89.5 74 27.5 0.327161 0.0124529
90 73.5 28 0.274683 0.0304919
90 74 28.5 0.229923 0.0515696
90.5 74.5 29 0.192565 0.0785787
91 74.5 29 0.161772 0.112185
91.5 74.5 29.5 0.13715 0.151392
92 74.5 29.5 0.118591 0.194959
92.5 75 30 0.106135 0.236168
93 75 30 0.0997119 0.264817
93.5 75 30.5 0.099051 0.270999
93.5 75 31 0.103527 0.254861
94 75.5 31.5 0.112142 0.22613
94 76 32 0.123692 0.194754
94 76.5 32 0.136889 0.166122
94.5 77 32.5 0.150431 0.142848
94.5 77.5 32.5 0.163234 0.124556
95 78 33 0.177339 0.104658
95 78.5 33.5 0.184397 0.0919605
95 79 34 0.187553 0.0808433
94.5 79.5 34.5 0.186382 0.0706838
94 80 35 0.180919 0.0614308
94 80.5 35.5 0.171835 0.0537769
94 81 35.5 0.160157 0.0472666
93.5 81.5 36 0.146901 0.0415064
93 82 36 0.132966 0.0366848
92.5 82.5 36.5 0.119127 0.032577
92 83 36.5 0.105957 0.0287577
91.5 83 37 0.0938279 0.0244591
91 83.5 37 0.082948 0.0186725
90.5 83.5 37.5 0.0734558 0.0104005
90 84 37.5 0.0654468 -0.000680746
89.5 84 38 0.0589621 -0.0122171
89 84.5 38 0.0540563 -0.022728
88.5 84.5 38.5 0.0508217 -0.0298564
88 85 39 0.0491333 -0.0280346
87.5 85 39.5 0.0497244 -0.0169599
87 85.5 39.5 0.051841 0.000430447
86.5 86 39.5 0.0553655 0.0196484
86 86 39.5 0.0600685 0.038112
85.5 86 39.5 0.0657635 0.0550014
85 86.5 40 0.0722904 0.0665746
84.5 86.5 40 0.0794093 0.0712218
84 86.5 40 0.0868228 0.0715977
83.5 86.5 40 0.0942097 0.0696102
83 86.5 40 0.101344 0.0661775
82.5 86.5 40 0.108054 0.0617565
82 86 40 0.114156 0.0566199
81.5 86 40 0.119481 0.0506286
81 86 40.5 0.123899 0.0437773
80.5 86 40.5 0.127306 0.0360821
80 85.5 40.5 0.12967 0.0282949
79.5 85.5 40.5 0.131365 0.018587
79 85 40.5 0.131674 0.0114668
78.5 85 40.5 0.131265 0.0047745
78 84.5 40.5 0.13027 -0.00116944
78 84 40.5 0.128793 -0.00654963
77.5 83.5 40.5 0.126889 -0.0113308
77 83 40.5 0.124618 -0.0149935
76.5 82.5 40.5 0.122001 -0.0175308
76.5 82 40.5 0.118981 -0.0189411
76 81.5 40.5 0.115471 -0.019043
75.5 81 40.5 0.111397 -0.0176166
75.5 80.5 40.5 0.10665 -0.0143571
75.5 80 40.5 0.101102 -0.00999048
75.5 79.5 40 0.0947284 -0.00533406
75.5 79 39.5 0.0875886 -8.42229e-06
75 78.5 40 0.0797934 0.0061986
75 78 40 0.0715059 0.012695
75 77.5 39.5 0.0600264 0.0221929
75 77 39.5 0.0513521 0.0301446
75 76.5 39 0.042848 0.0380774
75 76 39 0.0347341 0.0445766
75 75.5 39 0.0272522 0.0459655
74.5 75 39 0.0205994 0.043335
74.5 74.5 39 0.0149418 0.0341097
74.5 74 39 0.0107295 0.00830518
74.5 73.5 39 0.00892657 -0.0259738
74.5 73 39 0.0100142 -0.0237112
74.5 72.5 39 0.0128214 -0.00800444
74.5 72 38.5 0.0162087 -4.21149e-05
74.5 71.5 38.5 0.0196933 0.00338898
74 71 38.5 0.0230878 0.00420427
74.5 70.5 38 0.0263104 0.00337995
74 70 38 0.0293544 0.00259016
74 69.5 38 0.0322898 0.00210019
