ply
format ascii 1.0
element vertex 169
property float x
property float y
property float z
property float curvature
property float torsion
end_header
122.428 108.875 1.54095 0.0381793 -0.0386418
122.819 108.941 2.03109 0.0387071 -0.0383132
123.212 108.991 2.52364 0.0393618 -0.0397127
123.606 109.026 3.01846 0.040202 -0.042443
124.001 109.045 3.51542 0.0413017 -0.0458437
124.396 109.047 4.01432 0.042727 -0.0489027
124.79 109.032 4.51497 0.0445426 -0.0513551
125.182 108.999 5.0171 0.0468259 -0.0530304
125.57 108.948 5.52039 0.0496567 -0.0539502
125.954 108.876 6.02443 0.0531192 -0.0541654
126.331 108.785 6.52872 0.0573293 -0.0537103
126.7 108.671 7.0326 0.0624143 -0.0520038
127.058 108.535 7.53525 0.0684256 -0.0490251
127.404 108.375 8.03569 0.0753835 -0.0454939
127.733 108.19 8.53275 0.0832891 -0.0419691
128.045 107.979 9.02506 0.0920233 -0.0390704
128.334 107.742 9.51107 0.101376 -0.0371062
128.599 107.477 9.98908 0.111115 -0.0361703
128.835 107.184 10.4572 0.120979 -0.0359093
129.041 106.865 10.9133 0.130627 -0.0363365
129.212 106.519 11.3554 0.139636 -0.037618
129.346 106.148 11.7813 0.147576 -0.039734
129.441 105.754 12.1889 0.154202 -0.0425411
129.494 105.338 12.5762 0.159336 -0.0460936
129.505 104.906 12.9414 0.16287 -0.0502324
129.471 104.459 13.2829 0.164883 -0.0541133
129.393 104.002 13.5994 0.165576 -0.0576324
129.271 103.539 13.8898 0.165168 -0.0607218
129.104 103.074 14.1532 0.163885 -0.0626558
128.894 102.612 14.3891 0.161901 -0.0631606
128.642 102.158 14.5974 0.159237 -0.0622569
128.351 101.716 14.7782 0.155821 -0.0602101
128.022 101.29 14.9321 0.151668 -0.057021
127.658 100.883 15.0597 0.146704 -0.0524134
127.262 100.497 15.1623 0.140731 -0.0466071
126.838 100.136 15.241 0.133571 -0.0409299
126.387 99.8001 15.2975 0.12515 -0.0352186
125.913 99.4896 15.3334 0.115457 -0.0292165
125.42 99.2042 15.3506 0.104548 -0.0241228
124.908 98.943 15.3509 0.092587 -0.0204154
124.382 98.7039 15.3364 0.079821 -0.0183365
123.842 98.4847 15.3091 0.0665293 -0.0198768
123.291 98.2824 15.2712 0.052998 -0.029893
122.543 98.0333 15.2083 0.0351133 -0.0799353
121.974 97.8575 15.1548 0.0223696 -0.221875
121.399 97.6871 15.0987 0.0117291 -0.844685
120.82 97.5186 15.0428 0.0106858 -0.956373
120.24 97.3487 14.9898 0.0198465 -0.218564
119.658 97.1745 14.9427 0.0307806 -0.0507608
119.078 96.9934 14.9046 0.0419872 0.00315229
118.502 96.8033 14.8786 0.0533571 0.027068
117.931 96.6026 14.8681 0.0649868 0.0392969
117.369 96.3899 14.8762 0.076988 0.0462974
116.818 96.1646 14.9064 0.089465 0.0508266
116.28 95.9265 14.9619 0.102468 0.0523469
115.759 95.6759 15.0459 0.115844 0.0506389
115.258 95.4133 15.1614 0.129231 0.0469306
114.779 95.1398 15.3111 0.142063 0.0418245
114.327 94.8568 15.4971 0.153635 0.0354663
113.904 94.5657 15.7214 0.163112 0.027869
113.512 94.2682 15.9849 0.169601 0.0189507
113.155 93.966 16.2881 0.17231 0.00853129
112.834 93.6604 16.6308 0.17073 -0.00375546
112.551 93.3529 17.0119 0.164772 -0.0186332
112.307 93.0445 17.4293 0.154892 -0.0357417
112.102 92.7358 17.8802 0.142258 -0.055098
111.937 92.4271 18.3607 0.128183 -0.078817
111.811 92.1183 18.8661 0.113873 -0.10951
111.722 91.8088 19.3912 0.100471 -0.149453
111.669 91.4979 19.93 0.0891626 -0.199411
111.651 91.1841 20.476 0.081298 -0.25251
111.665 90.8662 21.0223 0.0783767 -0.286386
111.708 90.5423 21.5614 0.0815633 -0.280192
111.78 90.2107 22.086 0.09113 -0.239326
111.876 89.8696 22.5883 0.106496 -0.187414
111.996 89.5171 23.0608 0.126523 -0.141541
112.137 89.1517 23.4962 0.149859 -0.105623
112.298 88.7721 23.888 0.174756 -0.0787648
112.477 88.3774 24.2301 0.198916 -0.0608561
112.671 87.9669 24.5179 0.219353 -0.0492602
112.88 87.5404 24.7476 0.232622 -0.042511
113.103 87.098 24.9168 0.235908 -0.0410935
113.336 86.6401 25.0243 0.228265 -0.0452554
113.58 86.1673 25.0707 0.21095 -0.0556802
113.829 85.6806 25.0577 0.186867 -0.0725133
114.169 85.0117 24.954 0.150331 -0.108453
114.423 84.4967 24.8181 0.123257 -0.155066
114.672 83.9718 24.6393 0.0987009 -0.230957
114.912 83.4386 24.4252 0.0787111 -0.347586
115.137 82.8987 24.1845 0.0664295 -0.47721
115.343 82.3544 23.9263 0.0660405 -0.485672
115.523 81.8081 23.6605 0.0787611 -0.349873
115.672 81.2627 23.3968 0.10149 -0.219301
115.784 80.7215 23.1448 0.131271 -0.136854
115.856 80.1884 22.9135 0.166851 -0.0897308
115.882 79.6676 22.7105 0.20795 -0.0610767
115.86 79.1636 22.5426 0.25373 -0.0413132
115.788 78.6813 22.4152 0.301794 -0.0265911
115.665 78.2258 22.3323 0.347892 -0.0152245
115.492 77.8023 22.2966 0.38563 -0.0059729
115.269 77.4159 22.3096 0.407973 0.00128749
114.999 77.0717 22.3717 0.409963 0.00592014
114.685 76.7745 22.4821 0.391601 0.00783699
114.333 76.5285 22.6391 0.358103 0.00724786
113.946 76.3373 22.8397 0.31756 0.00440386
113.532 76.2036 23.0801 0.277471 -0.000709831
113.098 76.1289 23.3559 0.242114 -0.00833545
112.651 76.114 23.662 0.213085 -0.0177258
112.2 76.1588 23.9935 0.190478 -0.0280417
111.753 76.2619 24.3455 0.173748 -0.0393812
111.317 76.4215 24.7132 0.162066 -0.0510209
110.9 76.6346 25.0923 0.154558 -0.0605266
110.509 76.8977 25.479 0.150322 -0.0675282
110.15 77.2068 25.8699 0.148346 -0.0722605
109.829 77.5572 26.2622 0.147587 -0.0757045
109.551 77.9442 26.6539 0.147182 -0.0783691
109.318 78.3629 27.0432 0.146429 -0.0805291
109.135 78.8081 27.4291 0.144759 -0.0831762
109.002 79.2747 27.8108 0.141788 -0.0873347
108.921 79.7577 28.1882 0.137342 -0.0933667
108.891 80.2519 28.5613 0.131461 -0.101812
108.911 80.7526 28.9306 0.124498 -0.113079
108.979 81.2547 29.297 0.117023 -0.127062
109.093 81.7536 29.6613 0.109662 -0.143215
109.25 82.2446 30.0249 0.103055 -0.160003
109.446 82.7233 30.3889 0.0978176 -0.174574
109.677 83.1854 30.7549 0.0944701 -0.182986
110.034 83.7686 31.2481 0.0934595 -0.178129
110.333 84.1764 31.6236 0.0952081 -0.161745
110.655 84.5547 32.0051 0.0987237 -0.137196
110.995 84.9002 32.3934 0.103471 -0.109054
111.351 85.2101 32.7888 0.108819 -0.0808085
111.72 85.4818 33.1915 0.11414 -0.0530963
112.098 85.7133 33.6009 0.118842 -0.0258564
112.485 85.903 34.0162 0.122391 0.000826157
112.877 86.05 34.436 0.12435 0.028394
113.275 86.154 34.8584 0.124433 0.0583698
113.676 86.2152 35.281 0.122694 0.0873994
114.081 86.2347 35.701 0.119596 0.114463
114.49 86.2142 36.1151 0.11572 0.139123
114.903 86.1558 36.5201 0.111641 0.161161
115.321 86.0623 36.9126 0.107822 0.18019
115.744 85.9365 37.2891 0.104597 0.194774
116.172 85.7819 37.6464 0.102153 0.203639
116.607 85.6022 37.9815 0.100625 0.205001
117.048 85.4012 38.2917 0.0999983 0.197971
117.497 85.1828 38.5748 0.100005 0.183532
117.953 84.9508 38.829 0.100259 0.167018
118.417 84.7089 39.0531 0.10044 0.150031
118.888 84.4603 39.2465 0.100238 0.132568
119.367 84.2083 39.4088 0.0993674 0.116655
119.852 83.9553 39.5404 0.0976575 0.104071
120.344 83.7037 39.6418 0.0950566 0.0942704
120.843 83.4554 39.7142 0.0915974 0.0864095
121.347 83.212 39.7587 0.0873566 0.0788558
121.857 82.9747 39.7768 0.0824346 0.0708983
122.371 82.7444 39.7703 0.0769516 0.0620629
122.89 82.5217 39.7409 0.0710698 0.0553703
123.414 82.3068 39.6905 0.0650251 0.0519795
123.941 82.0998 39.621 0.0590827 0.0521691
124.472 81.9005 39.5341 0.0534811 0.0546549
125.007 81.7088 39.4316 0.0483176 0.0579064
125.545 81.5246 39.315 0.0436446 0.0618143
126.086 81.3475 39.186 0.0395033 0.0659264
126.63 81.1774 39.0458 0.0358947 0.0692859
127.178 81.0142 38.8955 0.0327941 0.0713368
127.728 80.8575 38.7364 0.0301727 0.0716496
128.281 80.7074 38.5692 0.027966 0.0719979
128.838 80.5637 38.3949 0.0260632 0.0740059
