ply
format ascii 1.0
element vertex 173
property float x
property float y
property float z
property float curvature
property float torsion
end_header
62 90.5 1.5 0.0304713 0.0992286
62 90.5 2 0.0272623 0.118681
62 90 2.5 0.0245584 0.146302
62 90 3 0.0224735 0.181336
62 90 3.5 0.0212837 0.215281
62 89.5 4 0.0213586 0.230667
62 89.5 4.5 0.0230023 0.218223
62 89.5 5 0.0263317 0.186087
62 89.5 5.5 0.0312321 0.148921
62 89 6 0.0374406 0.118266
62 89 6.5 0.0447545 0.0964876
62 89 7 0.0530509 0.0806239
62 89 7.5 0.0621894 0.0686257
62 88.5 8 0.0720358 0.0600225
62 88.5 8.5 0.0824674 0.0537711
62 88.5 9 0.0933064 0.0484153
62 88 9.5 0.104312 0.043993
62 88 10 0.115215 0.0404546
62 88 10.5 0.125778 0.0372125
62 87.5 11 0.135772 0.0340193
62 87 11.5 0.144906 0.0307959
62 87 12 0.152881 0.0277723
62.5 86.5 12.5 0.159454 0.0250747
62.5 86 13 0.164246 0.0225513
63 85.5 13.5 0.166758 0.0203428
63.5 85 14 0.166844 0.0190208
64 84.5 14.5 0.164639 0.0184777
64.5 84 15 0.160257 0.0187021
65 83.5 14.5 0.153755 0.0202224
65.5 83 15 0.145199 0.0235433
66 83 15 0.134681 0.0293893
66.5 82.5 15 0.122319 0.0388464
67 82 14.5 0.10839 0.0539081
67.5 82 15 0.0932777 0.0788668
68 81.5 14.5 0.077413 0.12287
68.5 81.5 14.5 0.0612687 0.207867
69 81 14 0.0455917 0.392556
69.5 81 14.5 0.0321475 0.812921
70 80.5 14 0.0255977 1.29554
70.5 80.5 14 0.0308672 0.884327
71 80.5 13.5 0.043678 0.430434
71.5 80 13.5 0.0588733 0.226808
72 80 13 0.0742939 0.134793
72.5 79.5 13.5 0.0889673 0.0886002
73 79.5 13 0.102395 0.0633247
73.5 79 13.5 0.114486 0.0484513
74 79 13 0.125362 0.0392187
74.5 79 13 0.135219 0.0332676
75 78.5 13 0.144285 0.0286572
75.5 78.5 13 0.152784 0.0246833
76 78 13.5 0.160948 0.0210932
76.5 78 13.5 0.168966 0.0163403
77 77.5 13.5 0.176711 0.00930151
77.5 78 13.5 0.183833 0.000236933
78 77.5 14 0.189911 -0.0102514
78.5 77.5 14.5 0.194842 -0.0204429
79 77 15 0.198463 -0.030611
79.5 77 15.5 0.200244 -0.0410618
79.5 77 16 0.199628 -0.0500893
79.5 77 16.5 0.196406 -0.0573035
79.5 76.5 17 0.190505 -0.0629269
79.5 76.5 17.5 0.181916 -0.0671427
79.5 76.5 18 0.170589 -0.0705271
79.5 76.5 18.5 0.156606 -0.0741511
79.5 76.5 19 0.140201 -0.0795057
79.5 76 19.5 0.121783 -0.0886984
79.5 76 20 0.101843 -0.106355
79.5 76 20.5 0.0807839 -0.144395
79.5 76 21 0.0591778 -0.23948
79.5 76.5 21.5 0.0383546 -0.53381
79 76.5 22 0.0233323 -1.43174
79 77 22.5 0.0291712 -0.959156
78.5 77 23 0.0507381 -0.347342
78.5 77 23.5 0.0771463 -0.172598
78 77 24 0.106218 -0.109963
78 77 24.5 0.137709 -0.0825308
78 77.5 25 0.171455 -0.0690054
77.5 77.5 25.5 0.20657 -0.0622651
77.5 78 26 0.241182 -0.0603268
77.5 78 26.5 0.272418 -0.061803
77.5 78 27 0.296731 -0.0658103
77.5 78 27.5 0.310974 -0.0718894
77.5 78 28 0.313419 -0.0801965
77.5 78 28.5 0.304612 -0.091639
78 78 29 0.28746 -0.106714
78 78 29.5 0.26713 -0.122271
78 77.5 30 0.248373 -0.137138
78.5 77 30.5 0.23012 -0.154074
79 77 31 0.22255 -0.163083
79.5 76.5 31 0.220019 -0.167961
80 76 31 0.221318 -0.169466
80.5 75.5 31 0.22461 -0.169568
81 75 31 0.227947 -0.169687
81.5 74.5 31 0.229332 -0.171206
81.5 74 31 0.227013 -0.174912
81.5 73.5 30.5 0.219959 -0.181713
82 73 30.5 0.208027 -0.194083
82 72.5 30.5 0.191997 -0.214859
82 72 30 0.173936 -0.243354
82 71.5 29.5 0.15644 -0.279493
82 71 29 0.141923 -0.320546
81.5 70.5 29.5 0.132903 -0.353862
81.5 70 29 0.131875 -0.3581
81 69.5 28.5 0.140169 -0.325381
80.5 69 28.5 0.157765 -0.274149
80 68.5 28 0.184273 -0.223593
79.5 68 28 0.219249 -0.180213
79 68 27.5 0.261936 -0.144853
78.5 67.5 28 0.310835 -0.116766
78.5 67 28 0.362394 -0.0918078
78 66.5 28 0.409604 -0.0667478
77.5 66 28.5 0.442532 -0.0406877
77.5 65.5 28.5 0.451833 -0.0132909
77.5 65 29 0.433903 0.0150636
77.5 64.5 29.5 0.393683 0.0414254
77 64.5 30 0.342012 0.0642376
77.5 64 30.5 0.288881 0.0859843
77.5 64 31 0.240317 0.109573
78 64 31.5 0.199022 0.137121
78.5 63.5 31.5 0.165804 0.171704
79 63.5 32 0.140735 0.214725
79.5 63.5 32.5 0.124165 0.257332
80 64 33 0.116866 0.280937
80.5 64 33.5 0.119027 0.271771
81 64 33.5 0.129742 0.238744
81.5 64.5 34 0.147559 0.19944
82 65 34.5 0.170829 0.1636
82.5 65.5 34.5 0.197598 0.134524
82.5 66 35 0.22556 0.11327
83 66.5 35.5 0.251718 0.0967491
83.5 66.5 36 0.27223 0.0827126
83.5 67 36.5 0.283462 0.0720836
83 67.5 37 0.283457 0.0644056
83 68 37.5 0.272374 0.0591592
82.5 68.5 38 0.252439 0.0568282
82 68.5 38.5 0.22735 0.0579354
81.5 69 39 0.200671 0.0626846
81 69.5 39 0.174945 0.0710906
80.5 69.5 39.5 0.151572 0.0821479
80 69.5 40 0.131206 0.0958621
79.5 70 39.5 0.114087 0.111628
79 70 40 0.100168 0.126334
78.5 69.5 40.5 0.0892923 0.135671
78 70 40.5 0.0812898 0.134007
77.5 70 40.5 0.0758565 0.119325
77 70 40.5 0.0724232 0.0939439
76.5 70 41 0.0704527 0.0591058
76 70 41 0.0695483 0.0170238
75.5 70 41 0.0693718 -0.0286204
75 70 41 0.0696786 -0.0770612
74.5 70 41.5 0.0704147 -0.127595
74 70 41.5 0.0717223 -0.171426
73.5 69.5 42 0.073821 -0.20391
73 69.5 42.5 0.0768594 -0.223416
72.5 69.5 43 0.0808479 -0.229743
72 69 43 0.0857009 -0.223799
71.5 69 43 0.0911103 -0.20858
71 68.5 43 0.0965522 -0.188702
70.5 68.5 42.5 0.101598 -0.168524
70 68 43 0.105948 -0.147896
69.5 68 43 0.109318 -0.126615
69 67.5 42.5 0.111494 -0.105275
68.5 67 43 0.112379 -0.0837543
68 67 42.5 0.11197 -0.0618262
67.5 66.5 42.5 0.110354 -0.042399
67 66.5 42 0.10771 -0.0279478
66.5 66.5 42 0.104284 -0.0178031
66 66 42 0.100336 -0.0110755
65.5 66 42 0.0960386 -0.0063526
65 65.5 41.5 0.0915047 -0.00332674
64.5 65.5 41 0.0868376 -0.00172421
64 65 40.5 0.0821354 -0.000836643
63.5 64.5 40 0.0774908 -0.000409292
