# vtk DataFile Version 2.0
Siphon segment
ASCII
DATASET POLYDATA
POINTS 82 float
83.53628540039062 65.55135345458984 28.279993057250977
83.3047103881836 65.36847686767578 28.225866317749023
83.07435607910156 65.18563079833984 28.166696548461914
82.84651947021484 65.0015640258789 28.101848602294922
82.62248992919922 64.8152084350586 28.030614852905273
82.40349578857422 64.62574768066406 27.952259063720703
82.1907730102539 64.43264770507812 27.865955352783203
81.9853515625 64.23576354980469 27.770965576171875
81.7883071899414 64.03522491455078 27.666351318359375
81.60028839111328 63.831661224365234 27.551498413085938
81.42198944091797 63.6259651184082 27.425491333007812
81.25358581542969 63.419410705566406 27.287817001342773
81.09516906738281 63.21352767944336 27.137836456298828
80.94657897949219 63.01009750366211 26.975006103515625
80.80730438232422 62.811031341552734 26.79907989501953
80.6768798828125 62.61857986450195 26.609540939331055
80.55443572998047 62.43494415283203 26.40642738342285
80.43914794921875 62.2625846862793 26.189708709716797
80.33014678955078 62.10429382324219 25.95943832397461
80.22640228271484 61.96272277832031 25.71623420715332
80.12698364257812 61.840858459472656 25.46086883544922
80.03096771240234 61.74184799194336 25.194564819335938
79.9375 61.6689338684082 24.919099807739258
79.8458480834961 61.62515640258789 24.6369571685791
79.75542449951172 61.6132698059082 24.351314544677734
79.66584777832031 61.63559341430664 24.06604766845703
79.57699584960938 61.69337463378906 23.785600662231445
79.48896789550781 61.78676223754883 23.51466178894043
79.40211486816406 61.914634704589844 23.257795333862305
79.31694793701172 62.074676513671875 23.01901626586914
79.23410034179688 62.26362609863281 22.801467895507812
79.15421295166016 62.477622985839844 22.607229232788086
79.07788848876953 62.71260452270508 22.43730926513672
79.00563049316406 62.964637756347656 22.29175567626953
78.93785095214844 63.23012924194336 22.169870376586914
78.87484741210938 63.50597381591797 22.070423126220703
78.81687927246094 63.78963088989258 21.99207878112793
78.7640609741211 64.07891845703125 21.933008193969727
78.71647644042969 64.37213134765625 21.89139747619629
78.67420196533203 64.66796875 21.865509033203125
78.63719940185547 64.96540832519531 21.853424072265625
78.6054458618164 65.26370239257812 21.853328704833984
78.57893371582031 65.56233978271484 21.863489151000977
78.55752563476562 65.8609848022461 21.882007598876953
78.54122161865234 66.15946960449219 21.9072322845459
78.52984619140625 66.45773315429688 21.93731689453125
78.52330780029297 66.75581359863281 21.970510482788086
78.52149963378906 67.05381774902344 22.005035400390625
78.52423095703125 67.35186004638672 22.039094924926758
78.53138732910156 67.65008544921875 22.070852279663086
78.5427474975586 67.94857788085938 22.098535537719727
78.55815124511719 68.24738311767578 22.120315551757812
78.577392578125 68.54641723632812 22.13446044921875
78.6002426147461 68.84548950195312 22.13941192626953
78.62654113769531 69.14425659179688 22.133623123168945
78.6561050415039 69.44225311279297 22.115922927856445
78.68879699707031 69.73887634277344 22.085451126098633
78.72454833984375 70.0334701538086 22.041637420654297
78.76335906982422 70.3253173828125 21.98419761657715
78.80531311035156 70.6137466430664 21.91325569152832
78.8505630493164 70.89814758300781 21.829294204711914
78.89933776855469 71.17801666259766 21.732961654663086
78.95195770263672 71.45291137695312 21.625022888183594
79.0088119506836 71.72249603271484 21.50637435913086
79.07027435302734 71.98658752441406 21.378067016601562
79.13678741455078 72.24503326416016 21.241056442260742
79.2088623046875 72.4976577758789 21.096227645874023
79.28684997558594 72.74447631835938 20.944599151611328
79.37118530273438 72.98538970947266 20.786996841430664
79.46224212646484 73.2203140258789 20.624181747436523
79.56019592285156 73.44926452636719 20.456920623779297
79.66525268554688 73.6721420288086 20.285797119140625
79.77739715576172 73.88888549804688 20.111345291137695
79.89645385742188 74.09952545166016 19.934003829956055
80.022216796875 74.303955078125 19.754039764404297
80.15415954589844 74.50225830078125 19.571672439575195
80.29168701171875 74.69453430175781 19.386987686157227
80.43417358398438 74.88080596923828 19.199914932250977
80.58071899414062 75.06134033203125 19.0103702545166
80.73043823242188 75.23633575439453 18.818126678466797
80.88239288330078 75.4059829711914 18.62286949157715
81.03556060791016 75.57062530517578 18.424301147460938
LINES 1 83
82 0 1 2 3 4 5 6 7 8 9 10 11 12 13 14 15 16 17 18 19 20 21 22 23 24 25 26 27 28 29 30 31 32 33 34 35 36 37 38 39 40 41 42 43 44 45 46 47 48 49 50 51 52 53 54 55 56 57 58 59 60 61 62 63 64 65 66 67 68 69 70 71 72 73 74 75 76 77 78 79 80 81

POINT_DATA 82
SCALARS curvature float
LOOKUP_TABLE default
0.0519535169005394
0.057656534016132355
0.0707019492983818
0.08689796179533005
0.10371189564466476
0.11977959424257278
0.13428527116775513
0.1467694789171219
0.15699507296085358
0.1650596559047699
0.1713363230228424
0.1765003800392151
0.1813206821680069
0.186636283993721
0.1932855248451233
0.20204617083072662
0.2134276032447815
0.2277463674545288
0.24506144225597382
0.265158087015152
0.2875750660896301
0.31161534786224365
0.3362082839012146
0.36013779044151306
0.38187411427497864
0.3995554447174072
0.411279559135437
0.4157547950744629
0.4124251902103424
0.401694655418396
0.3846741318702698
0.36302489042282104
0.3384246528148651
0.31237491965293884
0.28598231077194214
0.26006147265434265
0.23513437807559967
0.21138980984687805
0.188820019364357
0.16738934814929962
0.14706692099571228
0.12782663106918335
0.10971648246049881
0.09291093051433563
0.07792075723409653
0.06571805477142334
0.05797099322080612
0.05652599781751633
0.061687570065259933
0.0719752088189125
0.08518802374601364
0.09962586313486099
0.11401046067476273
0.12739646434783936
0.1389855146408081
0.14817868173122406
0.15457145869731903
0.15800967812538147
0.15856505930423737
0.1565796285867691
0.15257668495178223
0.14719350636005402
0.14109553396701813
0.1348930299282074
0.12908881902694702
0.1240672767162323
0.12006702274084091
0.11710096895694733
0.11501088738441467
0.11348079144954681
0.11209966987371445
0.11044465005397797
0.1081419289112091
0.10492709279060364
0.10069477558135986
0.09551703184843063
0.08961057662963867
0.08333604037761688
0.07725056260824203
0.07204637676477432
0.0684845820069313
0.06715727597475052
SCALARS torsion float
LOOKUP_TABLE default
1.462710976600647
1.1254714727401733
0.6744770407676697
0.3696720004081726
0.1813517063856125
0.05812220647931099
-0.031061360612511635
-0.10252819955348969
-0.16321653127670288
-0.2184039056301117
-0.266452431678772
-0.3085954487323761
-0.34339746832847595
-0.3697415888309479
-0.38348740339279175
-0.38351869583129883
-0.37085819244384766
-0.34809350967407227
-0.3192850947380066
-0.2878435552120209
-0.25639545917510986
-0.2262902706861496
-0.19846124947071075
-0.1733306646347046
-0.14990447461605072
-0.12751196324825287
-0.1058652251958847
-0.08499331027269363
-0.06482064723968506
-0.04560694843530655
-0.027546079829335213
-0.010912401601672173
0.004508917219936848
0.018893131986260414
0.032775845378637314
0.04658921808004379
0.06126260384917259
0.07816016674041748
0.09872321784496307
0.12494933605194092
0.15983179211616516
0.20894606411457062
0.28099191188812256
0.38958504796028137
0.5543630719184875
0.7825895547866821
1.0126878023147583
1.0735564231872559
0.9078636765480042
0.667256772518158
0.46856406331062317
0.3280429542064667
0.23017892241477966
0.15858501195907593
0.10331645607948303
0.05762719735503197
0.017440443858504295
-0.019467802718281746
-0.055137328803539276
-0.0899941623210907
-0.12498229742050171
-0.15898928046226501
-0.19170430302619934
-0.22160941362380981
-0.24652908742427826
-0.2621978521347046
-0.2653700113296509
-0.25476357340812683
-0.230240136384964
-0.19478200376033783
-0.15081509947776794
-0.10129004716873169
-0.0476316437125206
0.009813752956688404
0.07028038799762726
0.137276291847229
0.21389473974704742
0.30344709753990173
0.4027126133441925
0.5024171471595764
0.5809291005134583
0.611129641532898
