# vtk DataFile Version 2.0
Siphon segment
ASCII
DATASET POLYDATA
POINTS 76 float
81.85601806640625 67.26773071289062 27.858285903930664
81.81898498535156 66.97713470458984 27.793746948242188
81.77359008789062 66.6904067993164 27.71820831298828
81.72069549560547 66.40843200683594 27.630626678466797
81.66095733642578 66.13225555419922 27.529945373535156
81.59485626220703 65.86318969726562 27.415019989013672
81.5228271484375 65.60264587402344 27.285036087036133
81.44514465332031 65.35234832763672 27.139163970947266
81.36203002929688 65.1142807006836 26.97676658630371
81.27369689941406 64.89067077636719 26.79747200012207
81.18038940429688 64.68392944335938 26.60127067565918
81.08245849609375 64.49652862548828 26.38860321044922
80.98043060302734 64.33086395263672 26.160404205322266
80.8749771118164 64.1890640258789 25.91811752319336
80.76699829101562 64.07282257080078 25.663639068603516
80.65753173828125 63.983272552490234 25.39919662475586
80.54773712158203 63.92090606689453 25.127182006835938
80.43883514404297 63.88560104370117 24.849994659423828
80.33202362060547 63.87664031982422 24.569896697998047
80.22847747802734 63.893009185791016 24.28890037536621
80.12931823730469 63.93353271484375 24.008760452270508
80.03564453125 63.99691390991211 23.73097801208496
79.94847869873047 64.08182525634766 23.456846237182617
79.8688735961914 64.18704223632812 23.187498092651367
79.7978515625 64.31143951416016 22.92398452758789
79.7364730834961 64.45397186279297 22.66732406616211
79.68580627441406 64.61367797851562 22.41855239868164
79.64689636230469 64.78958892822266 22.178760528564453
79.62077331542969 64.98074340820312 21.94911766052246
79.60823059082031 65.18599700927734 21.730777740478516
79.60987854003906 65.40409088134766 21.5248966217041
79.6259765625 65.63363647460938 21.33252716064453
79.6563720703125 65.87310791015625 21.154516220092773
79.70043182373047 66.12091064453125 20.991382598876953
79.75704193115234 66.37550354003906 20.84324073791504
79.82469177246094 66.63545989990234 20.70975685119629
79.90153503417969 66.89959716796875 20.590164184570312
79.98554992675781 67.1670150756836 20.483325958251953
80.07461547851562 67.43707275390625 20.387813568115234
80.16661834716797 67.70940399169922 20.3019962310791
80.25948333740234 67.98381805419922 20.224117279052734
80.3512191772461 68.26028442382812 20.15236473083496
80.43988800048828 68.53881072998047 20.08485221862793
80.52366638183594 68.81939697265625 20.0196533203125
80.60079193115234 69.10197448730469 19.954870223999023
80.66954803466797 69.3863525390625 19.888593673706055
80.72825622558594 69.67215728759766 19.818904876708984
80.77545928955078 69.95875549316406 19.743959426879883
80.80976867675781 70.24524688720703 19.661962509155273
80.8299560546875 70.53043365478516 19.571218490600586
80.83502197265625 70.81280517578125 19.470172882080078
80.82427978515625 71.0905532836914 19.357471466064453
80.79736328125 71.36164855957031 19.23200798034668
80.7542953491211 71.6238784790039 19.09295654296875
80.69551086425781 71.87494659423828 18.939796447753906
80.62184143066406 72.11257934570312 18.772310256958008
80.53448486328125 72.33457946777344 18.590574264526367
80.43498229980469 72.5389404296875 18.39493179321289
80.32514953613281 72.7238998413086 18.185962677001953
80.20704650878906 72.88800048828125 17.96445655822754
80.08289337158203 73.03014373779297 17.731382369995117
79.95500946044922 73.14966583251953 17.487855911254883
79.82572174072266 73.2463607788086 17.2351016998291
79.69729614257812 73.32051086425781 16.974409103393555
79.57181549072266 73.37291717529297 16.707075119018555
79.45113372802734 73.40483856201172 16.434349060058594
79.3367691040039 73.4179458618164 16.157367706298828
79.22987365722656 73.41427612304688 15.877126693725586
79.13124084472656 73.39607238769531 15.594427108764648
79.0412826538086 73.3656997680664 15.30987548828125
78.96007537841797 73.32559967041016 15.023897171020508
78.88738250732422 73.27814483642578 14.736748695373535
78.82270812988281 73.22564697265625 14.448555946350098
78.7653579711914 73.17025756835938 14.15935230255127
78.71443939208984 73.1139907836914 13.869114875793457
78.66893005371094 73.05864715576172 13.577801704406738
LINES 1 77
76 0 1 2 3 4 5 6 7 8 9 10 11 12 13 14 15 16 17 18 19 20 21 22 23 24 25 26 27 28 29 30 31 32 33 34 35 36 37 38 39 40 41 42 43 44 45 46 47 48 49 50 51 52 53 54 55 56 57 58 59 60 61 62 63 64 65 66 67 68 69 70 71 72 73 74 75

POINT_DATA 76
SCALARS curvature float
LOOKUP_TABLE default
0.15621016919612885
0.15960310399532318
0.1668689250946045
0.1773519665002823
0.19037669897079468
0.2053493708372116
0.2216920703649521
0.23885925114154816
0.25623729825019836
0.27308934926986694
0.2885337173938751
0.3015773296356201
0.3112500011920929
0.3167613446712494
0.3177511692047119
0.3143334984779358
0.30715498328208923
0.2972121834754944
0.2857668101787567
0.2740330994129181
0.2630961239337921
0.25381746888160706
0.24683146178722382
0.24249565601348877
0.2408718317747116
0.24172011017799377
0.2444876730442047
0.24833622574806213
0.2521836459636688
0.2547817528247833
0.2548695206642151
0.25131332874298096
0.24333326518535614
0.23061560094356537
0.21341952681541443
0.19245663285255432
0.16876551508903503
0.14354024827480316
0.1181432455778122
0.0942593589425087
0.07449352741241455
0.06319611519575119
0.06470862776041031
0.07769151031970978
0.09712839126586914
0.11933449655771255
0.1423708200454712
0.1651730090379715
0.1870259791612625
0.2073754519224167
0.22575196623802185
0.2418171614408493
0.25533679127693176
0.2662385404109955
0.27457326650619507
0.280520498752594
0.28429675102233887
0.28613510727882385
0.286154568195343
0.28433510661125183
0.28053978085517883
0.2745867073535919
0.2662603557109833
0.2554137110710144
0.24201089143753052
0.2262033075094223
0.2082948088645935
0.18876945972442627
0.1681794673204422
0.1471579372882843
0.12635537981987
0.10651479661464691
0.08847025036811829
0.0732908844947815
0.062303923070430756
0.056790515780448914
SCALARS torsion float
LOOKUP_TABLE default
0.37647542357444763
0.3291303217411041
0.2683338522911072
0.20569798350334167
0.1483435332775116
0.09995308518409729
0.06156815215945244
0.032472070306539536
0.012193544767796993
-0.0005856995703652501
-0.006626657210290432
-0.007081522140651941
-0.0029376510065048933
0.004846455529332161
0.015291064977645874
0.027774926275014877
0.041687529534101486
0.05656570941209793
0.07184520363807678
0.08713313937187195
0.10176795721054077
0.11470268666744232
0.12455584108829498
0.1301746368408203
0.13055376708507538
0.1254967302083969
0.1152244508266449
0.10051223635673523
0.08221428096294403
0.06088845431804657
0.03706490248441696
0.01042992901057005
-0.019083676859736443
-0.053002603352069855
-0.09267929941415787
-0.1425546258687973
-0.20900876820087433
-0.3062007427215576
-0.4592418074607849
-0.7156034708023071
-1.1222507953643799
-1.5266664028167725
-1.4373769760131836
-0.9981128573417664
-0.6487816572189331
-0.44488558173179626
-0.3294019103050232
-0.26170793175697327
-0.22070913016796112
-0.19551362097263336
-0.18030597269535065
-0.17170500755310059
-0.16786552965641022
-0.16754424571990967
-0.16984161734580994
-0.17411364614963531
-0.17962408065795898
-0.18590489029884338
-0.1923188716173172
-0.1987968385219574
-0.20491254329681396
-0.2108449637889862
-0.2168441116809845
-0.22356563806533813
-0.23196738958358765
-0.24312439560890198
-0.25914353132247925
-0.2819472551345825
-0.3150981068611145
-0.36284106969833374
-0.43362629413604736
-0.537569522857666
-0.6905401945114136
-0.8973420858383179
-1.1221559047698975
-1.2376785278320312
