# vtk DataFile Version 2.0
Siphon segment
ASCII
DATASET POLYDATA
POINTS 68 float
78.91699981689453 64.22782897949219 24.50393295288086
78.90318298339844 64.35247802734375 24.23151969909668
78.9083480834961 64.49429321289062 23.967321395874023
78.93270874023438 64.6523208618164 23.71360969543457
78.97620391845703 64.8255386352539 23.47271156311035
79.03876495361328 65.01302337646484 23.24718475341797
79.1200942993164 65.2137680053711 23.039798736572266
79.21958923339844 65.4266586303711 22.853525161743164
79.33623504638672 65.6503677368164 22.69148063659668
79.46849822998047 65.8833236694336 22.556791305541992
79.6142349243164 66.12364959716797 22.452375411987305
79.7706527709961 66.3691635131836 22.380640029907227
79.93440246582031 66.61750030517578 22.343143463134766
80.10176849365234 66.86625671386719 22.34029769897461
80.26898193359375 67.11319732666016 22.37140655517578
80.43256378173828 67.3565673828125 22.434104919433594
80.58968353271484 67.5951919555664 22.525209426879883
80.73824310302734 67.8285903930664 22.640968322753906
80.87692260742188 68.0568618774414 22.777408599853516
81.00509643554688 68.28060913085938 22.930633544921875
81.1225357055664 68.50077056884766 23.09712028503418
81.22953796386719 68.71856689453125 23.273466110229492
81.32661437988281 68.93534088134766 23.45670509338379
81.41419219970703 69.1524887084961 23.64423179626465
81.49307250976562 69.3714599609375 23.833505630493164
81.56379699707031 69.59368896484375 24.022197723388672
81.62704467773438 69.82054901123047 24.2080135345459
81.68334197998047 70.05332946777344 24.388654708862305
81.73314666748047 70.2932357788086 24.561717987060547
81.77688598632812 70.5411376953125 24.724838256835938
81.81475067138672 70.79786682128906 24.875280380249023
81.84690856933594 71.06365966796875 25.010501861572266
81.87337493896484 71.33839416503906 25.12787437438965
81.89401245117188 71.6214599609375 25.224828720092773
81.90857696533203 71.91167449951172 25.299030303955078
81.91674041748047 72.20735168457031 25.348533630371094
81.91812133789062 72.50634002685547 25.37188720703125
81.91230773925781 72.80615234375 25.368255615234375
81.89895629882812 73.1041488647461 25.33737564086914
81.87775421142578 73.39764404296875 25.27951431274414
81.84851837158203 73.68400573730469 25.19540786743164
81.81117248535156 73.9607925415039 25.08616828918457
81.76582336425781 74.22573852539062 24.95319366455078
81.71272277832031 74.47686767578125 24.798095703125
81.65231323242188 74.71245574951172 24.622631072998047
81.58517456054688 74.93109893798828 24.428640365600586
81.5120620727539 75.13168334960938 24.218015670776367
81.43386840820312 75.31346130371094 23.992647171020508
81.3515625 75.4759750366211 23.754390716552734
81.26620483398438 75.61911010742188 23.505023956298828
81.17884826660156 75.74298095703125 23.246200561523438
81.09058380126953 75.84798431396484 22.979461669921875
81.0024185180664 75.9349136352539 22.70625877380371
80.91529083251953 76.00465393066406 22.427839279174805
80.83003234863281 76.05827331542969 22.145288467407227
80.74738311767578 76.09678649902344 21.859514236450195
80.66790008544922 76.12163543701172 21.571334838867188
80.59198760986328 76.13416290283203 21.281391143798828
80.51994323730469 76.13568115234375 20.990192413330078
80.45191192626953 76.12751770019531 20.698137283325195
80.3878173828125 76.1111068725586 20.405534744262695
80.3274917602539 76.08773040771484 20.11260223388672
80.2706298828125 76.05859375 19.819490432739258
80.21676635742188 76.02488708496094 19.52630043029785
80.16531372070312 75.98768615722656 19.233097076416016
80.11560821533203 75.94796752929688 18.939922332763672
80.0668716430664 75.9065933227539 18.646814346313477
80.01826477050781 75.86434936523438 18.35380744934082
LINES 1 69
68 0 1 2 3 4 5 6 7 8 9 10 11 12 13 14 15 16 17 18 19 20 21 22 23 24 25 26 27 28 29 30 31 32 33 34 35 36 37 38 39 40 41 42 43 44 45 46 47 48 49 50 51 52 53 54 55 56 57 58 59 60 61 62 63 64 65 66 67

POINT_DATA 68
SCALARS curvature float
LOOKUP_TABLE default
0.296439528465271
0.29806622862815857
0.3019159734249115
0.3081605136394501
0.3167785704135895
0.32759132981300354
0.34017977118492126
0.35384222865104675
0.3675426244735718
0.3798040747642517
0.38875675201416016
0.3923999071121216
0.3890208601951599
0.37765902280807495
0.3583971858024597
0.33245402574539185
0.3016679286956787
0.2681300938129425
0.23376350104808807
0.20018769800662994
0.16879041492938995
0.14087024331092834
0.1180494949221611
0.10280530154705048
0.09756423532962799
0.10322282463312149
0.1176772266626358
0.13783885538578033
0.16118022799491882
0.18593750894069672
0.21083305776119232
0.23475058376789093
0.2567196786403656
0.2758665978908539
0.2915150225162506
0.30327051877975464
0.3111191987991333
0.31538909673690796
0.3166356384754181
0.31548628211021423
0.31252744793891907
0.3082031309604645
0.30281856656074524
0.29654207825660706
0.28940349817276
0.28133565187454224
0.27229931950569153
0.2623060941696167
0.25139889121055603
0.23966459929943085
0.2272106111049652
0.2141757309436798
0.2006918340921402
0.18688975274562836
0.17287220060825348
0.15873394906520844
0.14454548060894012
0.13036581873893738
0.11623844504356384
0.10219880193471909
0.08827931433916092
0.07450546324253082
0.06091652438044548
0.047543395310640335
0.03447561711072922
0.021959008648991585
0.011276266537606716
0.01021048054099083
SCALARS torsion float
LOOKUP_TABLE default
0.023197023198008537
0.008124393410980701
-0.008185159415006638
-0.025426827371120453
-0.043594058603048325
-0.06201716512441635
-0.08078399300575256
-0.09897690266370773
-0.116667240858078
-0.13315735757350922
-0.14853569865226746
-0.16203901171684265
-0.17388150095939636
-0.1845206320285797
-0.19499289989471436
-0.20722569525241852
-0.22368532419204712
-0.24833042919635773
-0.2861408591270447
-0.3456324636936188
-0.4382809102535248
-0.5791487693786621
-0.7737327218055725
-0.975090742111206
-1.047507882118225
-0.9129071235656738
-0.685238778591156
-0.4838566482067108
-0.33734002709388733
-0.23448783159255981
-0.16153877973556519
-0.10699360072612762
-0.06535150110721588
-0.03185771033167839
-0.00511351739987731
0.016570767387747765
0.0328335203230381
0.04410271346569061
0.05010770633816719
0.050965264439582825
0.047135308384895325
0.03889915347099304
0.027626095339655876
0.013543413020670414
-0.002264207461848855
-0.01964530162513256
-0.037035226821899414
-0.0544298030436039
-0.07090242952108383
-0.08649741113185883
-0.10077114403247833
-0.11361227929592133
-0.1250649392604828
-0.1348453015089035
-0.14325182139873505
-0.14984937012195587
-0.15484493970870972
-0.15768863260746002
-0.1580330729484558
-0.15496602654457092
-0.1466778814792633
-0.1304921805858612
-0.09977415949106216
-0.04291205853223801
0.08386168628931046
0.45722711086273193
2.175071954727173
2.6308505535125732
