# vtk DataFile Version 2.0
Siphon segment
ASCII
DATASET POLYDATA
POINTS 123 float
89.75807189941406 79.13805389404297 37.332462310791016
89.77286529541016 78.85986328125 37.22114944458008
89.7867202758789 78.58203125 37.10882568359375
89.79984283447266 78.30472564697266 36.9951286315918
89.81234741210938 78.02809143066406 36.879722595214844
89.82421875 77.75228118896484 36.762306213378906
89.8353500366211 77.47740936279297 36.64263153076172
89.84552764892578 77.20360565185547 36.52045822143555
89.85440826416016 76.9310073852539 36.39552307128906
89.86161804199219 76.65972137451172 36.26765441894531
89.86666107177734 76.38988494873047 36.13664245605469
89.86897277832031 76.12168884277344 36.00225067138672
89.86793518066406 75.85529327392578 35.86429214477539
89.8629379272461 75.59092712402344 35.72258758544922
89.85330200195312 75.32884979248047 35.57691955566406
89.83829498291016 75.06939697265625 35.42707824707031
89.81729125976562 74.8128890991211 35.27294921875
89.78964233398438 74.55972290039062 35.114402770996094
89.75457763671875 74.3104248046875 34.951271057128906
89.71160888671875 74.0654296875 34.7835807800293
89.66018676757812 73.82525634765625 34.61134719848633
89.59972381591797 73.59053802490234 34.434600830078125
89.52983856201172 73.3618392944336 34.25349807739258
89.45023345947266 73.13971710205078 34.06826400756836
89.360595703125 72.92481994628906 33.8791389465332
89.2606430053711 72.71784973144531 33.68638229370117
89.15037536621094 72.51934814453125 33.4903678894043
89.02975463867188 72.32996368408203 33.29145431518555
88.89877319335938 72.1504135131836 33.089996337890625
88.75746154785156 71.9814682006836 32.886348724365234
88.60610961914062 71.82378387451172 32.680908203125
88.4449691772461 71.67813873291016 32.47403335571289
88.27436065673828 71.54537200927734 32.266082763671875
88.0946044921875 71.42655944824219 32.057403564453125
87.90630340576172 71.32251739501953 31.84837532043457
87.71009063720703 71.23423767089844 31.639385223388672
87.50667572021484 71.16278076171875 31.430850982666016
87.29685974121094 71.10944366455078 31.223249435424805
87.08173370361328 71.07501983642578 31.0170955657959
86.86244201660156 71.06048583984375 30.81297492980957
86.64025115966797 71.0671157836914 30.611614227294922
86.4166488647461 71.09526824951172 30.41371726989746
86.19317626953125 71.14566040039062 30.220134735107422
85.97148895263672 71.21868133544922 30.031782150268555
85.75325012207031 71.31407165527344 29.849510192871094
85.54022979736328 71.43196105957031 29.674367904663086
85.33392333984375 71.57125854492188 29.507091522216797
85.13599395751953 71.73149871826172 29.348670959472656
84.94766998291016 71.91120147705078 29.199689865112305
84.770263671875 72.10920715332031 29.060869216918945
84.60469818115234 72.32389831542969 28.932621002197266
84.45170593261719 72.55362701416016 28.81525230407715
84.31197357177734 72.79683685302734 28.709022521972656
84.18562316894531 73.05165100097656 28.613801956176758
84.07299041748047 73.31659698486328 28.529640197753906
83.97390747070312 73.59001922607422 28.456207275390625
83.88805389404297 73.87041473388672 28.39312171936035
83.8152084350586 74.15652465820312 28.340089797973633
83.75469207763672 74.44706726074219 28.29652214050293
83.70576477050781 74.74098205566406 28.261837005615234
83.66769409179688 75.03736114501953 28.235490798950195
83.63964080810547 75.33544921875 28.21693229675293
83.62055969238281 75.63460540771484 28.20547103881836
83.60943603515625 75.93434143066406 28.20050621032715
83.60520935058594 76.23429870605469 28.201440811157227
83.60685729980469 76.53422546386719 28.207746505737305
83.61320495605469 76.83394622802734 28.218769073486328
83.6231460571289 77.13339233398438 28.23393440246582
83.63561248779297 77.43254852294922 28.252666473388672
83.64954376220703 77.73143005371094 28.274389266967773
83.66393280029297 78.03011322021484 28.29849624633789
83.67781829833984 78.32867431640625 28.3243408203125
83.69036865234375 78.62720489501953 28.35125732421875
83.70082092285156 78.92577362060547 28.3785457611084
83.70851135253906 79.2244644165039 28.40544891357422
83.71295166015625 79.52333068847656 28.431171417236328
83.71379089355469 79.8223876953125 28.454879760742188
83.71080780029297 80.12164306640625 28.475692749023438
83.70394134521484 80.42108154296875 28.49264907836914
83.69331359863281 80.72064208984375 28.504779815673828
83.67922973632812 81.02023315429688 28.511106491088867
83.66212463378906 81.31974029541016 28.510601043701172
83.64254760742188 81.61896514892578 28.502166748046875
83.62120819091797 81.91767883300781 28.484663009643555
83.59894561767578 82.21556091308594 28.457073211669922
83.57671356201172 82.51219177246094 28.41830062866211
83.55558013916016 82.8070068359375 28.367084503173828
83.53667449951172 83.09932708740234 28.302478790283203
83.52114868164062 83.3883056640625 28.223548889160156
83.51029968261719 83.67280578613281 28.129127502441406
83.50518035888672 83.95169067382812 28.018827438354492
83.5069808959961 84.22344207763672 27.891889572143555
83.5164566040039 84.4866714477539 27.748424530029297
83.53437042236328 84.73970031738281 27.588376998901367
83.56086730957031 84.98128509521484 27.41260528564453
83.59610748291016 85.20992279052734 27.22170066833496
83.63951110839844 85.4249496459961 27.017147064208984
83.69056701660156 85.62545013427734 26.799989700317383
83.74813842773438 85.8115463256836 26.571901321411133
83.81118774414062 85.9830551147461 26.334033966064453
83.87834930419922 86.14068603515625 26.08782196044922
83.9483413696289 86.2850112915039 25.834341049194336
84.01983642578125 86.41680145263672 25.574527740478516
84.09154510498047 86.53713989257812 25.309267044067383
84.16226196289062 86.64701080322266 25.03923225402832
84.23079681396484 86.747314453125 24.76494598388672
84.29613494873047 86.8392333984375 24.48696517944336
84.3573226928711 86.9238052368164 24.205724716186523
84.41355895996094 87.00203704833984 23.9216251373291
84.46405029296875 87.07485961914062 23.63502311706543
84.5082778930664 87.143310546875 23.3463134765625
84.54585266113281 87.20832061767578 23.055871963500977
84.57650756835938 87.27079010009766 22.764060974121094
84.60010528564453 87.33155059814453 22.471235275268555
84.61676025390625 87.39143371582031 22.177753448486328
84.62672424316406 87.45120239257812 21.883941650390625
84.63033294677734 87.51155853271484 21.590105056762695
84.62796020507812 87.57317352294922 21.2965145111084
84.62023162841797 87.63662719726562 21.003408432006836
84.60771942138672 87.70242309570312 20.71098518371582
84.59099578857422 87.77105712890625 20.419424057006836
84.5706558227539 87.84292602539062 20.128875732421875
84.54727172851562 87.91834259033203 19.839454650878906
LINES 1 124
123 0 1 2 3 4 5 6 7 8 9 10 11 12 13 14 15 16 17 18 19 20 21 22 23 24 25 26 27 28 29 30 31 32 33 34 35 36 37 38 39 40 41 42 43 44 45 46 47 48 49 50 51 52 53 54 55 56 57 58 59 60 61 62 63 64 65 66 67 68 69 70 71 72 73 74 75 76 77 78 79 80 81 82 83 84 85 86 87 88 89 90 91 92 93 94 95 96 97 98 99 100 101 102 103 104 105 106 107 108 109 110 111 112 113 114 115 116 117 118 119 120 121 122

POINT_DATA 123
SCALARS curvature float
LOOKUP_TABLE default
0.01587093062698841
0.01593184657394886
0.01828247867524624
0.021541759371757507
0.025008531287312508
0.02850966341793537
0.03212575241923332
0.03603825718164444
0.040460240095853806
0.045538756996393204
0.05132804811000824
0.05781427025794983
0.06490977108478546
0.07249852269887924
0.08044058084487915
0.08858048915863037
0.09675892442464828
0.10481876134872437
0.11260942369699478
0.12002209573984146
0.1269650012254715
0.13335661590099335
0.1391521394252777
0.14436742663383484
0.14907868206501007
0.15338578820228577
0.1574183851480484
0.16131819784641266
0.16522720456123352
0.1692969799041748
0.17369069159030914
0.17856009304523468
0.18402649462223053
0.19016341865062714
0.19698558747768402
0.20443731546401978
0.21237671375274658
0.22063568234443665
0.22903400659561157
0.23732943832874298
0.2452140599489212
0.2523528039455414
0.2583993673324585
0.2630106210708618
0.26599547266960144
0.2673153281211853
0.26702478528022766
0.26510268449783325
0.2616083323955536
0.25662997364997864
0.25028136372566223
0.24273696541786194
0.23421375453472137
0.22487786412239075
0.21477441489696503
0.20394180715084076
0.19245943427085876
0.1803814321756363
0.16781526803970337
0.15489672124385834
0.14172419905662537
0.12834565341472626
0.11481158435344696
0.1012144386768341
0.08766929805278778
0.07429128885269165
0.061228442937135696
0.04869874566793442
0.03705315291881561
0.02703503519296646
0.020326707512140274
0.019366173073649406
0.023870695382356644
0.03089786320924759
0.038584016263484955
0.04620013013482094
0.05355396866798401
0.06071089208126068
0.06787189096212387
0.07535815984010696
0.08350696414709091
0.09258319437503815
0.10277077555656433
0.11420638859272003
0.12690028548240662
0.14072002470493317
0.1554662138223648
0.1708403378725052
0.18637865781784058
0.2013765126466751
0.21500058472156525
0.22634316980838776
0.23456016182899475
0.23900702595710754
0.23951353132724762
0.2359386533498764
0.2284913808107376
0.2175763100385666
0.20415540039539337
0.18912595510482788
0.1734561324119568
0.15796445310115814
0.1433010697364807
0.12993890047073364
0.11826936900615692
0.10860872268676758
0.10099514573812485
0.09529624134302139
0.0912221297621727
0.08832987397909164
0.08603260666131973
0.08380742371082306
0.08133558183908463
0.0784200057387352
0.07504777610301971
0.07132846862077713
0.06743607670068741
0.06358350813388824
0.060029637068510056
0.0570719949901104
0.05493393912911415
0.05365448445081711
0.05314694344997406
SCALARS torsion float
LOOKUP_TABLE default
1.370258092880249
1.13389253616333
0.6419119238853455
0.2708800733089447
0.039204541593790054
-0.10374584794044495
-0.19268043339252472
-0.24254167079925537
-0.26158514618873596
-0.2543104887008667
-0.22932381927967072
-0.19701455533504486
-0.16448910534381866
-0.1344056874513626
-0.10881072282791138
-0.08753496408462524
-0.07099088281393051
-0.058497559279203415
-0.04913261532783508
-0.04208198934793472
-0.03658999130129814
-0.03166814520955086
-0.027042513713240623
-0.02173576131463051
-0.01550877932459116
-0.008123028092086315
0.000591947406064719
0.010653703473508358
0.022279690951108932
0.03527029976248741
0.04789638891816139
0.05966609716415405
0.07015905529260635
0.0789286345243454
0.08595321327447891
0.09036322683095932
0.09253004193305969
0.09226720035076141
0.08971481025218964
0.08544781804084778
0.0800006091594696
0.07362590730190277
0.06665023416280746
0.05920432507991791
0.052367135882377625
0.04624737426638603
0.040836233645677567
0.03617008402943611
0.03226199001073837
0.029213741421699524
0.026921648532152176
0.02509330026805401
0.023592999204993248
0.02185427024960518
0.019634589552879333
0.016522129997611046
0.012010445818305016
0.005905958358198404
-0.001680751796811819
-0.011372550390660763
-0.023974288254976273
-0.04094122722744942
-0.06309497356414795
-0.09212131798267365
-0.13177646696567535
-0.18796610832214355
-0.27348649501800537
-0.41462233662605286
-0.6714833974838257
-1.166932225227356
-1.9084633588790894
-1.9908101558685303
-1.3065299987792969
-0.8235039114952087
-0.5946937799453735
-0.49188297986984253
-0.4470951557159424
-0.4272390305995941
-0.4184134304523468
-0.40662071108818054
-0.38897794485092163
-0.3668054938316345
-0.3423406779766083
-0.3150230348110199
-0.2830335795879364
-0.24993731081485748
-0.21780778467655182
-0.1872837394475937
-0.1583414375782013
-0.13087745010852814
-0.1044430211186409
-0.07812444120645523
-0.051709529012441635
-0.026812251657247543
-0.0020590757485479116
0.024374941363930702
0.054120611399412155
0.08578117191791534
0.1196746975183487
0.1567353904247284
0.19726616144180298
0.24213814735412598
0.29153361916542053
0.34430646896362305
0.3953455090522766
0.43700355291366577
0.46581506729125977
0.4798593819141388
0.476952463388443
0.45935919880867004
0.433089017868042
0.40881747007369995
0.39034998416900635
0.3810361623764038
0.38288530707359314
0.39434245228767395
0.41266363859176636
0.43445852398872375
0.45508092641830444
0.46494603157043457
0.45560964941978455
0.4243490397930145
0.370680570602417
