# vtk DataFile Version 2.0
Siphon segment
ASCII
DATASET POLYDATA
POINTS 63 float
81.31258392333984 65.87285614013672 28.37615203857422
81.07915496826172 65.72899627685547 28.25450325012207
80.83782958984375 65.59606170654297 28.1358642578125
80.58915710449219 65.4754638671875 28.019264221191406
80.33369445800781 65.36872100830078 27.903839111328125
80.0719985961914 65.27777862548828 27.78887176513672
79.80490112304688 65.20436096191406 27.67382049560547
79.53333282470703 65.15061950683594 27.558380126953125
79.25851440429688 65.118896484375 27.44251823425293
78.98204803466797 65.11115264892578 27.3265438079834
78.70586395263672 65.12938690185547 27.21111488342285
78.43225860595703 65.17520141601562 27.097248077392578
78.16380310058594 65.24961853027344 26.986276626586914
77.90321350097656 65.35287475585938 26.879741668701172
77.65314483642578 65.4843521118164 26.779254913330078
77.41597747802734 65.64257049560547 26.686321258544922
77.19361877441406 65.82533264160156 26.602174758911133
76.98741149902344 66.0299301147461 26.52766990661621
76.79808807373047 66.25341033935547 26.463220596313477
76.62584686279297 66.49282836914062 26.408798217773438
76.47044372558594 66.74540710449219 26.36398696899414
76.33130645751953 67.00867462158203 26.328062057495117
76.20777130126953 67.28057861328125 26.30011749267578
76.09896087646484 67.5593032836914 26.279003143310547
76.00381469726562 67.8433609008789 26.26341438293457
75.92166900634766 68.13164520263672 26.252077102661133
75.85132598876953 68.42313385009766 26.243497848510742
75.79219818115234 68.7171401977539 26.236236572265625
75.74322509765625 69.01300811767578 26.228755950927734
75.70382690429688 69.31024932861328 26.21946144104004
75.67314147949219 69.60839080810547 26.20677375793457
75.65059661865234 69.90699768066406 26.188966751098633
75.63544464111328 70.20559692382812 26.164417266845703
75.6271743774414 70.50362396240234 26.131282806396484
75.62508392333984 70.80045318603516 26.087997436523438
75.62869262695312 71.09526824951172 26.032730102539062
75.63738250732422 71.38712310791016 25.96400260925293
75.6506118774414 71.67491149902344 25.880464553833008
75.6678695678711 71.95735168457031 25.78095054626465
75.6886978149414 72.23300170898438 25.664522171020508
75.71261596679688 72.5004653930664 25.530893325805664
75.73925018310547 72.75834655761719 25.380064010620117
75.7682876586914 73.00538635253906 25.21245765686035
75.79949188232422 73.24052429199219 25.02887535095215
75.83271026611328 73.46295928955078 24.830421447753906
75.86788177490234 73.6722183227539 24.61841583251953
75.90501403808594 73.86801147460938 24.39422607421875
75.94416046142578 74.05048370361328 24.159395217895508
75.98544311523438 74.2199935913086 23.91538429260254
76.02897644042969 74.37704467773438 23.66354751586914
76.07492065429688 74.52220916748047 23.405086517333984
76.12340545654297 74.65625762939453 23.141141891479492
76.17452239990234 74.7800521850586 22.872718811035156
76.22834014892578 74.89434814453125 22.600631713867188
76.28485870361328 74.99999237060547 22.325607299804688
76.34398651123047 75.09783935546875 22.048255920410156
76.4056167602539 75.18853759765625 21.769023895263672
76.469482421875 75.27291107177734 21.488311767578125
76.53527069091797 75.35157012939453 21.206388473510742
76.6025619506836 75.42509460449219 20.923433303833008
76.67084503173828 75.49404907226562 20.63956642150879
76.73953247070312 75.55884552001953 20.354814529418945
76.80792999267578 75.61988830566406 20.069168090820312
LINES 1 64
63 0 1 2 3 4 5 6 7 8 9 10 11 12 13 14 15 16 17 18 19 20 21 22 23 24 25 26 27 28 29 30 31 32 33 34 35 36 37 38 39 40 41 42 43 44 45 46 47 48 49 50 51 52 53 54 55 56 57 58 59 60 61 62

POINT_DATA 63
SCALARS curvature float
LOOKUP_TABLE default
0.14906170964241028
0.15306462347507477
0.16139625012874603
0.1737319529056549
0.18948014080524445
0.2079753577709198
0.22842496633529663
0.25000983476638794
0.27178773283958435
0.2926424443721771
0.31135180592536926
0.3265969455242157
0.33723223209381104
0.34233546257019043
0.3413853645324707
0.3344320058822632
0.3222099542617798
0.30578550696372986
0.28638410568237305
0.2651466727256775
0.24307657778263092
0.22094687819480896
0.19936427474021912
0.17880426347255707
0.1596737504005432
0.14245621860027313
0.1276601254940033
0.11606631428003311
0.10840968787670135
0.10547483712434769
0.10746335983276367
0.11408200860023499
0.12439556419849396
0.1373654156923294
0.1518825739622116
0.1669849306344986
0.1817432940006256
0.19532212615013123
0.20694272220134735
0.21590971946716309
0.22172783315181732
0.22414542734622955
0.2231903076171875
0.2190762311220169
0.21215642988681793
0.2029336839914322
0.19198478758335114
0.1798899620771408
0.16717076301574707
0.15425312519073486
0.14148655533790588
0.1291183978319168
0.11731382459402084
0.10616909712553024
0.0957116037607193
0.08592668920755386
0.07677829265594482
0.0682419165968895
0.06035779044032097
0.053297944366931915
0.04739656671881676
0.04324439913034439
0.04153274744749069
SCALARS torsion float
LOOKUP_TABLE default
0.3904091715812683
0.3739403188228607
0.33226409554481506
0.2770077884197235
0.2181728035211563
0.16347254812717438
0.11466562747955322
0.07322818785905838
0.037965673953294754
0.008812537416815758
-0.014965311624109745
-0.033484894782304764
-0.04676777124404907
-0.05483456328511238
-0.057630423456430435
-0.05499310791492462
-0.046612679958343506
-0.03323141485452652
-0.014754385687410831
0.008364283479750156
0.036850664764642715
0.0712776631116867
0.11328203231096268
0.1652199923992157
0.22940318286418915
0.3089841306209564
0.4025895595550537
0.5029857158660889
0.5902418494224548
0.6350629925727844
0.6195393800735474
0.5528365969657898
0.4639318585395813
0.37577930092811584
0.2989862561225891
0.23583674430847168
0.18430636823177338
0.1422310322523117
0.1068139597773552
0.07658255100250244
0.04981224611401558
0.026429416611790657
0.0053446791134774685
-0.014219737611711025
-0.03294419124722481
-0.050342246890068054
-0.06665156036615372
-0.08162520080804825
-0.09512992203235626
-0.10660068690776825
-0.11507749557495117
-0.11956925690174103
-0.11820690333843231
-0.10903642326593399
-0.08924923837184906
-0.05598073825240135
-0.006641710642725229
0.06474442780017853
0.16446639597415924
0.30051183700561523
0.4685305655002594
0.6414774656295776
0.7512257099151611
