# vtk DataFile Version 2.0
Siphon segment
ASCII
DATASET POLYDATA
POINTS 60 float
111.20542907714844 77.1435546875 26.134307861328125
111.36407470703125 77.24115753173828 25.899211883544922
111.5156021118164 77.35765075683594 25.66806983947754
111.65792083740234 77.49285125732422 25.441303253173828
111.78873443603516 77.64669799804688 25.219554901123047
111.90552520751953 77.81914520263672 25.00376319885254
112.00558471679688 78.01006317138672 24.795265197753906
112.08604431152344 78.21908569335938 24.59586524963379
112.14405822753906 78.44538879394531 24.407888412475586
112.17688751220703 78.6876220703125 24.234256744384766
112.18312072753906 78.94330596923828 24.077795028686523
112.16187286376953 79.20957946777344 23.941640853881836
112.11458587646484 79.48285675048828 23.82771110534668
112.04342651367188 79.75981903076172 23.737503051757812
111.9522933959961 80.03760528564453 23.67075538635254
111.84505462646484 80.3142318725586 23.626888275146484
111.72603607177734 80.58857727050781 23.604055404663086
111.59906768798828 80.86029815673828 23.600332260131836
111.46755981445312 81.12957000732422 23.613618850708008
111.33451843261719 81.39694213867188 23.641782760620117
111.20252227783203 81.66320037841797 23.682710647583008
111.07380676269531 81.92919921875 23.73434066772461
110.9502944946289 82.19583892822266 23.794654846191406
110.83367156982422 82.4639892578125 23.861652374267578
110.72538757324219 82.73440551757812 23.933338165283203
110.6266860961914 83.00775146484375 24.007705688476562
110.53861236572266 83.28451538085938 24.08274269104004
110.46200561523438 83.56503295898438 24.156435012817383
110.3974838256836 83.84940338134766 24.226806640625
110.34546661376953 84.13756561279297 24.29193878173828
110.30613708496094 84.42921447753906 24.350040435791016
110.27947235107422 84.72386932373047 24.399486541748047
110.26530456542969 85.0208969116211 24.43883514404297
110.26332092285156 85.31954193115234 24.466848373413086
110.27315521240234 85.61892700195312 24.48249053955078
110.29437255859375 85.9181137084961 24.484926223754883
110.32656860351562 86.21611785888672 24.473495483398438
110.36933898925781 86.51187896728516 24.44767951965332
110.4223403930664 86.80430603027344 24.407089233398438
110.48528289794922 87.09223937988281 24.351436614990234
110.55792999267578 87.3744888305664 24.2805233001709
110.6400375366211 87.64976501464844 24.19424819946289
110.73139953613281 87.91676330566406 24.092601776123047
110.83173370361328 88.17411041259766 23.97570037841797
110.9406967163086 88.42046356201172 23.843791961669922
111.05780792236328 88.65452575683594 23.697288513183594
111.18243408203125 88.8751220703125 23.53676986694336
111.31378173828125 89.08130645751953 23.362991333007812
111.45087432861328 89.27242279052734 23.17685890197754
111.59260559082031 89.44815063476562 22.979368209838867
111.73774719238281 89.60860443115234 22.771615982055664
111.8850326538086 89.75433349609375 22.554710388183594
112.03319549560547 89.8862075805664 22.32969093322754
112.18104553222656 90.00543975830078 22.097509384155273
112.32745361328125 90.11344909667969 21.8590030670166
112.4714126586914 90.21183776855469 21.61490249633789
112.61201477050781 90.30229949951172 21.36582374572754
112.74847412109375 90.38655853271484 21.112302780151367
112.88011169433594 90.46633911132812 20.854812622070312
113.0063705444336 90.54328918457031 20.593788146972656
LINES 1 61
60 0 1 2 3 4 5 6 7 8 9 10 11 12 13 14 15 16 17 18 19 20 21 22 23 24 25 26 27 28 29 30 31 32 33 34 35 36 37 38 39 40 41 42 43 44 45 46 47 48 49 50 51 52 53 54 55 56 57 58 59

POINT_DATA 60
SCALARS curvature float
LOOKUP_TABLE default
0.22498314082622528
0.22922073304653168
0.2385488599538803
0.25294193625450134
0.27204418182373047
0.2950998544692993
0.3208049237728119
0.3471042215824127
0.3710470497608185
0.3888489902019501
0.3969188928604126
0.39264774322509766
0.3758850395679474
0.34842202067375183
0.3140365481376648
0.27652987837791443
0.23914122581481934
0.2041042149066925
0.17300646007061005
0.14700470864772797
0.1271141916513443
0.11418691277503967
0.10857675224542618
0.10958516597747803
0.11561154574155807
0.12473288923501968
0.135341614484787
0.14622820913791656
0.1566060185432434
0.16595304012298584
0.17400585114955902
0.18068070709705353
0.18607006967067719
0.19038954377174377
0.19393150508403778
0.1970375031232834
0.2000373750925064
0.20322947204113007
0.20680952072143555
0.2108701467514038
0.21535079181194305
0.22004570066928864
0.22460146248340607
0.22853043675422668
0.23124583065509796
0.23211151361465454
0.23056231439113617
0.22615136206150055
0.21866685152053833
0.20812419056892395
0.19485068321228027
0.17937234044075012
0.1624087244272232
0.1447538137435913
0.12729287147521973
0.11094582080841064
0.09669984132051468
0.08552861213684082
0.07819582521915436
0.0748729556798935
SCALARS torsion float
LOOKUP_TABLE default
-0.24215517938137054
-0.23141348361968994
-0.21106497943401337
-0.18350012600421906
-0.15189023315906525
-0.11833968758583069
-0.08439954370260239
-0.04994194209575653
-0.0153195234015584
0.020487109199166298
0.05639126896858215
0.09332447499036789
0.13148945569992065
0.1723344326019287
0.21649707853794098
0.26754772663116455
0.32964426279067993
0.4085652530193329
0.5089302659034729
0.6325572729110718
0.7655272483825684
0.8707019090652466
0.8977700471878052
0.8358632326126099
0.7229293584823608
0.6049037575721741
0.5036048293113708
0.423412024974823
0.3605535924434662
0.3105359375476837
0.2691558003425598
0.23351509869098663
0.20155024528503418
0.17182080447673798
0.1436702013015747
0.11682332307100296
0.09173592925071716
0.06868103891611099
0.04856317117810249
0.03181937709450722
0.01927371695637703
0.011091114953160286
0.007628581486642361
0.008693864569067955
0.014210402965545654
0.023895882070064545
0.03756438568234444
0.05515645071864128
0.0767807587981224
0.10301260650157928
0.1348043531179428
0.17404840886592865
0.22337134182453156
0.286787211894989
0.3686882555484772
0.47263914346694946
0.5949510931968689
0.7164214253425598
0.7960508465766907
0.7967849969863892
