# vtk DataFile Version 2.0
Siphon segment
ASCII
DATASET POLYDATA
POINTS 65 float
79.8408432006836 71.61360168457031 29.981182098388672
79.62277221679688 71.42501068115234 29.898344039916992
79.39739990234375 71.24759674072266 29.810508728027344
79.16557312011719 71.08170318603516 29.7171573638916
78.92802429199219 70.92787170410156 29.617713928222656
78.68553161621094 70.78677368164062 29.51157569885254
78.43888092041016 70.65926361083984 29.398080825805664
78.18901062011719 70.54617309570312 29.276626586914062
77.93699645996094 70.4483642578125 29.14666175842285
77.68402862548828 70.36687469482422 29.00761604309082
77.43152618408203 70.30279541015625 28.858976364135742
77.18110656738281 70.25724792480469 28.700319290161133
76.93467712402344 70.23131561279297 28.531347274780273
76.69440460205078 70.22599029541016 28.35194969177246
76.46269989013672 70.2420654296875 28.16223907470703
76.24214935302734 70.2800521850586 27.962608337402344
76.03558349609375 70.34020233154297 27.75369644165039
75.84580993652344 70.42223358154297 27.536483764648438
75.67536163330078 70.52519226074219 27.312280654907227
75.52665710449219 70.64781188964844 27.082555770874023
75.40213012695312 70.78857421875 26.848892211914062
75.30333709716797 70.94520568847656 26.61304473876953
75.23160552978516 71.11531066894531 26.376745223999023
75.18833923339844 71.29647064208984 26.141738891601562
75.17417907714844 71.48594665527344 25.909759521484375
75.18940734863281 71.68096923828125 25.682485580444336
75.23451232910156 71.87879943847656 25.461700439453125
75.3092041015625 72.0766372680664 25.249103546142578
75.41275024414062 72.27179718017578 25.04634666442871
75.54447174072266 72.4616470336914 24.855241775512695
75.70259857177734 72.64393615722656 24.67723274230957
75.88497161865234 72.8167724609375 24.51355743408203
76.08931732177734 72.97864532470703 24.36532974243164
76.31281280517578 73.12870025634766 24.233165740966797
76.55244445800781 73.26679229736328 24.117176055908203
76.80535888671875 73.39325714111328 24.017213821411133
77.06891632080078 73.50892639160156 23.932836532592773
77.34075164794922 73.614990234375 23.86338233947754
77.61881256103516 73.71295166015625 23.808059692382812
77.90135955810547 73.80450439453125 23.766008377075195
78.18692016601562 73.89144897460938 23.73636817932129
78.47425842285156 73.97570037841797 23.718318939208984
78.7623062133789 74.05917358398438 23.711105346679688
79.05007934570312 74.14383697509766 23.714040756225586
79.33663940429688 74.23170471191406 23.726499557495117
79.62100219726562 74.3248062133789 23.747907638549805
79.902099609375 74.42521667480469 23.77774429321289
80.1787338256836 74.53494262695312 23.815418243408203
80.44952392578125 74.65589141845703 23.860368728637695
80.71290588378906 74.78984832763672 23.911975860595703
80.9670639038086 74.93836212158203 23.96956443786621
81.2100830078125 75.10256958007812 24.032337188720703
81.44003295898438 75.28308868408203 24.099384307861328
81.6550521850586 75.47998809814453 24.16973114013672
81.85352325439453 75.69279479980469 24.242366790771484
82.03414154052734 75.92052459716797 24.3162841796875
82.19603729248047 76.16183471679688 24.39052963256836
82.33870697021484 76.41514587402344 24.46424102783203
82.46202850341797 76.67879486083984 24.53666114807129
82.56613159179688 76.95110321044922 24.60715103149414
82.65135192871094 77.23052978515625 24.6751651763916
82.71808624267578 77.51561737060547 24.740238189697266
82.76675415039062 77.80508422851562 24.801958084106445
82.79771423339844 78.09774780273438 24.85993194580078
82.81124114990234 78.39251708984375 24.913780212402344
LINES 1 66
65 0 1 2 3 4 5 6 7 8 9 10 11 12 13 14 15 16 17 18 19 20 21 22 23 24 25 26 27 28 29 30 31 32 33 34 35 36 37 38 39 40 41 42 43 44 45 46 47 48 49 50 51 52 53 54 55 56 57 58 59 60 61 62 63 64

POINT_DATA 65
SCALARS curvature float
LOOKUP_TABLE default
0.15536731481552124
0.15652815997600555
0.15939734876155853
0.16392652690410614
0.17009778320789337
0.17789334058761597
0.18729886412620544
0.19823788106441498
0.21053151786327362
0.22397299110889435
0.23835715651512146
0.25343057513237
0.26879245042800903
0.2837962508201599
0.29769477248191833
0.30996349453926086
0.32026806473731995
0.32829907536506653
0.33377933502197266
0.3367200791835785
0.337835431098938
0.3380844295024872
0.338112473487854
0.3382048010826111
0.338613897562027
0.3396763503551483
0.3412943482398987
0.3425759971141815
0.342202365398407
0.33913731575012207
0.3328440189361572
0.3228527307510376
0.30867472290992737
0.29036572575569153
0.26894402503967285
0.24565687775611877
0.2215452641248703
0.19743561744689941
0.17419061064720154
0.15292316675186157
0.13485993444919586
0.1213265061378479
0.11368269473314285
0.11290737986564636
0.11901593953371048
0.13094677031040192
0.14707815647125244
0.16571944952011108
0.18536785244941711
0.20477192103862762
0.2227528989315033
0.23813803493976593
0.24986813962459564
0.2572242021560669
0.2601050138473511
0.2588794529438019
0.2542308270931244
0.24704484641551971
0.23832550644874573
0.22908587753772736
0.22019918262958527
0.21233950555324554
0.206025168299675
0.2016656994819641
0.19956132769584656
SCALARS torsion float
LOOKUP_TABLE default
0.19174747169017792
0.18667387962341309
0.17898568511009216
0.1695163995027542
0.15910190343856812
0.14854347705841064
0.13843153417110443
0.12902869284152985
0.12079650163650513
0.11404691636562347
0.10863488912582397
0.10459615290164948
0.101787269115448
0.10035120695829391
0.10048239678144455
0.10173572599887848
0.1039353460073471
0.10686255246400833
0.11069657653570175
0.11519786715507507
0.11930086463689804
0.12220757454633713
0.12285236269235611
0.12117491662502289
0.11707263439893723
0.11008825153112411
0.09923656284809113
0.08410768210887909
0.06599967181682587
0.047299452126026154
0.027632255107164383
0.00534975016489625
-0.020797276869416237
-0.0496201254427433
-0.0805225521326065
-0.11606547981500626
-0.16052402555942535
-0.2192598581314087
-0.2957603633403778
-0.39323803782463074
-0.511366069316864
-0.6363028883934021
-0.7296115159988403
-0.7452574372291565
-0.6754355430603027
-0.5601705312728882
-0.4442060589790344
-0.3470321595668793
-0.27232250571250916
-0.21654947102069855
-0.17419011890888214
-0.14154885709285736
-0.11575138568878174
-0.09574633836746216
-0.08052192628383636
-0.06881293654441833
-0.0599016509950161
-0.0532381497323513
-0.04871223866939545
-0.046095360070466995
-0.04501580074429512
-0.045060791075229645
-0.04603443294763565
-0.04754495248198509
-0.04929015040397644
