# vtk DataFile Version 2.0
Siphon segment
ASCII
DATASET POLYDATA
POINTS 60 float
101.1989974975586 62.27735137939453 27.24139976501465
101.1987533569336 62.007568359375 27.1102352142334
101.20843505859375 61.74078369140625 26.973417282104492
101.22746276855469 61.477996826171875 26.829998016357422
101.25529479980469 61.22019958496094 26.67915916442871
101.29138946533203 60.96834182739258 26.520254135131836
101.33525848388672 60.723331451416016 26.352832794189453
101.3864517211914 60.485992431640625 26.176668167114258
101.44454193115234 60.25703048706055 25.991771697998047
101.5091781616211 60.037010192871094 25.798385620117188
101.58003997802734 59.826324462890625 25.59695816040039
101.65691375732422 59.625179290771484 25.388111114501953
101.73963928222656 59.433616638183594 25.172595977783203
101.8281478881836 59.251522064208984 24.951248168945312
101.92245483398438 59.07865905761719 24.724943161010742
102.02262878417969 58.91473388671875 24.494548797607422
102.12881469726562 58.75941467285156 24.260906219482422
102.24119567871094 58.612396240234375 24.024795532226562
102.35995483398438 58.47344970703125 23.786930084228516
102.48530578613281 58.34245681762695 23.54793357849121
102.61743927001953 58.21946334838867 23.30834197998047
102.75642395019531 58.10457992553711 23.068603515625
102.90228271484375 57.99814224243164 22.829051971435547
103.05494689941406 57.90066146850586 22.589927673339844
103.21427154541016 57.812950134277344 22.351367950439453
103.37982177734375 57.73579788208008 22.1134090423584
103.55106353759766 57.67026901245117 21.875991821289062
103.72724151611328 57.61759948730469 21.638992309570312
103.9073715209961 57.57921600341797 21.402219772338867
104.09017181396484 57.55669403076172 21.16546630859375
104.27404022216797 57.551605224609375 20.928531646728516
104.45703887939453 57.56565475463867 20.691301345825195
104.63685607910156 57.60053634643555 20.453794479370117
104.81078338623047 57.6578254699707 20.216272354125977
104.97571563720703 57.739013671875 19.979320526123047
105.12838745117188 57.844905853271484 19.74393653869629
105.2655029296875 57.97575378417969 19.511564254760742
105.38387298583984 58.1312141418457 19.284114837646484
105.48085021972656 58.310054779052734 19.063846588134766
105.55486297607422 58.51007080078125 18.853078842163086
105.60489654541016 58.72890090942383 18.654277801513672
105.6314697265625 58.9635009765625 18.469417572021484
105.63581848144531 59.21100997924805 18.300168991088867
105.61972045898438 59.468875885009766 18.147911071777344
105.58570861816406 59.73475646972656 18.013395309448242
105.5364990234375 60.00676727294922 17.897037506103516
105.47489929199219 60.28343200683594 17.7989501953125
105.40372467041016 60.5636100769043 17.718963623046875
105.32572937011719 60.846458435058594 17.656641006469727
105.24357604980469 61.13136291503906 17.611312866210938
105.15974426269531 61.41788864135742 17.582088470458984
105.07655334472656 61.70573806762695 17.567859649658203
104.99608612060547 61.99471664428711 17.56730842590332
104.92018127441406 62.284698486328125 17.57892608642578
104.85042572021484 62.57561492919922 17.60108184814453
104.78804779052734 62.8674201965332 17.631874084472656
104.73393249511719 63.160091400146484 17.669355392456055
104.68867492675781 63.45363235473633 17.711517333984375
104.65251922607422 63.748043060302734 17.756324768066406
104.62551879882812 64.04334259033203 17.801742553710938
LINES 1 61
60 0 1 2 3 4 5 6 7 8 9 10 11 12 13 14 15 16 17 18 19 20 21 22 23 24 25 26 27 28 29 30 31 32 33 34 35 36 37 38 39 40 41 42 43 44 45 46 47 48 49 50 51 52 53 54 55 56 57 58 59

POINT_DATA 60
SCALARS curvature float
LOOKUP_TABLE default
0.12986516952514648
0.13148701190948486
0.13501803576946259
0.13970953226089478
0.1447559893131256
0.14938180148601532
0.15295521914958954
0.1549953669309616
0.1552412062883377
0.15362557768821716
0.15030647814273834
0.14560922980308533
0.14001058042049408
0.13406170904636383
0.1283368021249771
0.12336014956235886
0.11953461170196533
0.11711662262678146
0.11617738008499146
0.11667364835739136
0.11845599859952927
0.1213846430182457
0.12537544965744019
0.13046427071094513
0.13681568205356598
0.14467008411884308
0.1543528139591217
0.16618502140045166
0.18045663833618164
0.19732464849948883
0.21677272021770477
0.23855526745319366
0.262124240398407
0.28655189275741577
0.3104769289493561
0.33215469121932983
0.3496878445148468
0.36131149530410767
0.36578425765037537
0.362765908241272
0.3528023362159729
0.3373115658760071
0.3180483281612396
0.29669517278671265
0.2747384309768677
0.25323486328125
0.2329031080007553
0.2141270637512207
0.19711261987686157
0.18187057971954346
0.16832946240901947
0.1563052237033844
0.14560863375663757
0.13601352274417877
0.12736161053180695
0.11954573541879654
0.11263792216777802
0.10686162114143372
0.10265815258026123
0.10059357434511185
SCALARS torsion float
LOOKUP_TABLE default
-0.4387264549732208
-0.4080631732940674
-0.3597434163093567
-0.30329591035842896
-0.24560730159282684
-0.19068323075771332
-0.13977105915546417
-0.09257131814956665
-0.048129018396139145
-0.005369686521589756
0.03650722652673721
0.07776004821062088
0.11769420653581619
0.15449516475200653
0.1847093105316162
0.20404291152954102
0.207676500082016
0.19273975491523743
0.15876510739326477
0.1088903620839119
0.048436589539051056
-0.017285965383052826
-0.08239232003688812
-0.14394018054008484
-0.196852445602417
-0.24031010270118713
-0.2706063985824585
-0.2888912260532379
-0.29410699009895325
-0.2894178628921509
-0.2759033441543579
-0.2566078007221222
-0.23261326551437378
-0.20536865293979645
-0.1753215193748474
-0.14254750311374664
-0.10788146406412125
-0.07070225477218628
-0.03165508061647415
0.009579408913850784
0.05164479464292526
0.09467591345310211
0.1377585083246231
0.181083545088768
0.22424504160881042
0.26741379499435425
0.3101513385772705
0.35243651270866394
0.3933022916316986
0.4322015345096588
0.4678254723548889
0.5001482963562012
0.5288912057876587
0.5556844472885132
0.5823854804039001
0.6117839813232422
0.6455236077308655
0.6820719242095947
0.7152976393699646
0.7322249412536621
