# vtk DataFile Version 2.0
Siphon segment
ASCII
DATASET POLYDATA
POINTS 66 float
101.71174621582031 65.48947143554688 25.128589630126953
101.90519714355469 65.27188110351562 25.05631446838379
102.10165405273438 65.05992889404297 24.97586441040039
102.29996490478516 64.85346221923828 24.886234283447266
102.4990005493164 64.6524429321289 24.78643035888672
102.6976547241211 64.45694732666016 24.675500869750977
102.89482879638672 64.2672348022461 24.552560806274414
103.0894546508789 64.08374786376953 24.416793823242188
103.28048706054688 63.907142639160156 24.26747703552246
103.46685028076172 63.73831558227539 24.10394859313965
103.64749908447266 63.578392028808594 23.925731658935547
103.82138061523438 63.4287223815918 23.732526779174805
103.98738861083984 63.2908821105957 23.524200439453125
104.14439392089844 63.16667556762695 23.300874710083008
104.29119110107422 63.05804443359375 23.06296730041504
104.42639923095703 62.96723175048828 22.81114387512207
104.54877471923828 62.89619827270508 22.546733856201172
104.6569595336914 62.84690856933594 22.27142906188965
104.74945068359375 62.821388244628906 21.987321853637695
104.8250732421875 62.820858001708984 21.69715690612793
104.88262176513672 62.84632110595703 21.40398597717285
104.92111206054688 62.89820098876953 21.111183166503906
104.93999481201172 62.97605514526367 20.82223892211914
104.93869018554688 63.07927703857422 20.540725708007812
104.91742706298828 63.20615768432617 20.269882202148438
104.876220703125 63.35515594482422 20.012954711914062
104.81586456298828 63.52392578125 19.772573471069336
104.73716735839844 63.71019744873047 19.551156997680664
104.64116668701172 63.91163635253906 19.35084342956543
104.52935028076172 64.12568664550781 19.17307472229004
104.40326690673828 64.35002136230469 19.01911735534668
104.26457214355469 64.58245086669922 18.890005111694336
104.11528778076172 64.82084655761719 18.785991668701172
103.95745086669922 65.0633544921875 18.70717430114746
103.79315185546875 65.30840301513672 18.65329933166504
103.62454986572266 65.5546875 18.623836517333984
103.45381927490234 65.80120849609375 18.617891311645508
103.28311157226562 66.04727172851562 18.634246826171875
103.11448669433594 66.2925033569336 18.671560287475586
102.94996643066406 66.53679656982422 18.72832489013672
102.79147338867188 66.78028869628906 18.80289649963379
102.64086151123047 67.0233383178711 18.893524169921875
102.49989318847656 67.2664794921875 18.998348236083984
102.37027740478516 67.5103530883789 19.11540412902832
102.25365447998047 67.75569915771484 19.24260902404785
102.15162658691406 68.00328826904297 19.377748489379883
102.0655517578125 68.25386810302734 19.51837921142578
101.9967269897461 68.50808715820312 19.661924362182617
101.94620513916016 68.76647186279297 19.805639266967773
101.91497802734375 69.02938842773438 19.946578979492188
101.90341186523438 69.29689025878906 20.081729888916016
101.9115219116211 69.56877899169922 20.20810317993164
101.93920135498047 69.84459686279297 20.322607040405273
101.9853515625 70.12351989746094 20.422704696655273
102.04882049560547 70.40457153320312 20.505950927734375
102.1279296875 70.68657684326172 20.570465087890625
102.22065734863281 70.96829986572266 20.61499786376953
102.32503509521484 71.24849700927734 20.638473510742188
102.43881225585938 71.52598571777344 20.64065933227539
102.55988311767578 71.79972839355469 20.621580123901367
102.68628692626953 72.06875610351562 20.581514358520508
102.81619262695312 72.33221435546875 20.5208740234375
102.94794464111328 72.58934783935547 20.44034194946289
103.08007049560547 72.83946990966797 20.340608596801758
103.21127319335938 73.08187103271484 20.222326278686523
103.34040069580078 73.31583404541016 20.086109161376953
LINES 1 67
66 0 1 2 3 4 5 6 7 8 9 10 11 12 13 14 15 16 17 18 19 20 21 22 23 24 25 26 27 28 29 30 31 32 33 34 35 36 37 38 39 40 41 42 43 44 45 46 47 48 49 50 51 52 53 54 55 56 57 58 59 60 61 62 63 64 65

POINT_DATA 66
SCALARS curvature float
LOOKUP_TABLE default
0.11312738060951233
0.11584640294313431
0.12122631818056107
0.1288883090019226
0.13835184276103973
0.14917157590389252
0.1610068678855896
0.17365401983261108
0.18700489401817322
0.20105601847171783
0.2158338576555252
0.23137179017066956
0.24763533473014832
0.26449957489967346
0.2817036509513855
0.2988269329071045
0.3153080940246582
0.3304869532585144
0.3436523377895355
0.35423463582992554
0.3618524968624115
0.366367369890213
0.3679090142250061
0.3668281137943268
0.363637238740921
0.35884472727775574
0.3528836965560913
0.34607112407684326
0.33853843808174133
0.3302896022796631
0.32124051451683044
0.3113389015197754
0.30051591992378235
0.2886972725391388
0.2759406864643097
0.2624620795249939
0.24858790636062622
0.2347446084022522
0.2214527279138565
0.2093086838722229
0.1989593505859375
0.19105055928230286
0.18615776300430298
0.18467804789543152
0.18675673007965088
0.19221210479736328
0.200558140873909
0.2110702246427536
0.22289030253887177
0.23505547642707825
0.2466251254081726
0.25671371817588806
0.26456543803215027
0.2696855366230011
0.2718246877193451
0.2710563838481903
0.26775923371315
0.26242566108703613
0.2556701898574829
0.248188316822052
0.24067284166812897
0.23375806212425232
0.22798100113868713
0.22377990186214447
0.2214883416891098
0.22131003439426422
SCALARS torsion float
LOOKUP_TABLE default
-0.4963505268096924
-0.4677141010761261
-0.4101482331752777
-0.3374130129814148
-0.26151710748672485
-0.1905379444360733
-0.1282063126564026
-0.07518433034420013
-0.031039966270327568
0.004296458791941404
0.03116469271481037
0.050201766192913055
0.06209954991936684
0.06768213957548141
0.06775881350040436
0.06348082423210144
0.05566411837935448
0.04548502340912819
0.03344948962330818
0.021104833111166954
0.008844896219670773
-0.002046565990895033
-0.01117507740855217
-0.017410485073924065
-0.02046695351600647
-0.019770625978708267
-0.015409919433295727
-0.007342701777815819
0.004149627406150103
0.019014593213796616
0.03648526966571808
0.05670470744371414
0.07989409565925598
0.10674849897623062
0.1370498090982437
0.17169778048992157
0.2109522819519043
0.25562798976898193
0.3051338493824005
0.35864949226379395
0.4128595292568207
0.4631125032901764
0.502830982208252
0.5261499285697937
0.5300230979919434
0.5159794092178345
0.4890800714492798
0.455331027507782
0.4196357727050781
0.38525399565696716
0.3534865379333496
0.32496947050094604
0.2994646728038788
0.27688679099082947
0.2566942572593689
0.23903204500675201
0.2231639325618744
0.20864085853099823
0.19492822885513306
0.18164119124412537
0.16795547306537628
0.15324603021144867
0.13681407272815704
0.11832774430513382
0.09773199260234833
0.0756065845489502
