# vtk DataFile Version 2.0
Siphon segment
ASCII
DATASET POLYDATA
POINTS 92 float
88.61601257324219 78.7052230834961 25.773956298828125
88.38249206542969 78.67143249511719 25.58871078491211
88.14710998535156 78.64859008789062 25.40415382385254
87.91104888916016 78.63744354248047 25.21939468383789
87.67557525634766 78.63886260986328 25.03356170654297
87.44208526611328 78.65389251708984 24.845842361450195
87.21215057373047 78.6836929321289 24.655529022216797
86.98761749267578 78.72969055175781 24.462038040161133
86.77057647705078 78.79330444335938 24.265029907226562
86.56339263916016 78.8758316040039 24.064495086669922
86.36874389648438 78.9786376953125 23.860807418823242
86.18968200683594 79.10293579101562 23.654850006103516
86.02891540527344 79.24898529052734 23.448095321655273
85.88951110839844 79.4169921875 23.242534637451172
85.77351379394531 79.6058349609375 23.04056739807129
85.68256378173828 79.81397247314453 22.844820022583008
85.61738586425781 80.0392074584961 22.657920837402344
85.57749938964844 80.27882385253906 22.482105255126953
85.56219482421875 80.53030395507812 22.319482803344727
85.56966400146484 80.7909927368164 22.17144012451172
85.59821319580078 81.05864715576172 22.03921127319336
85.64598083496094 81.331298828125 21.92379379272461
85.71083068847656 81.6072006225586 21.825714111328125
85.7908935546875 81.8849105834961 21.745580673217773
85.88446044921875 82.16313934326172 21.68402862548828
85.98978424072266 82.44074249267578 21.641584396362305
86.10513305664062 82.7166519165039 21.61863899230957
86.22886657714844 82.98985290527344 21.615659713745117
86.35932922363281 83.25936126708984 21.633045196533203
86.49481964111328 83.52422332763672 21.67108726501465
86.63362121582031 83.78350830078125 21.729963302612305
86.77391815185547 84.03632354736328 21.809707641601562
86.91386413574219 84.28199005126953 21.909812927246094
87.05165100097656 84.51994323730469 22.02962303161621
87.18550109863281 84.74983978271484 22.16815948486328
87.31375122070312 84.97161102294922 22.32416343688965
87.43487548828125 85.18543243408203 22.496150970458984
87.5474853515625 85.39171600341797 22.682533264160156
87.65048217773438 85.59122467041016 22.881446838378906
87.7429428100586 85.78488159179688 23.091032028198242
87.8241195678711 85.97378540039062 23.309446334838867
87.8934555053711 86.1591567993164 23.534860610961914
87.95048522949219 86.3423080444336 23.765485763549805
87.9948959350586 86.52458953857422 23.999549865722656
88.02644348144531 86.70738220214844 24.23529624938965
88.04496002197266 86.8920669555664 24.470947265625
88.05036926269531 87.07999420166016 24.704687118530273
88.04264068603516 87.27249145507812 24.934608459472656
88.02180480957031 87.47080993652344 25.158689498901367
87.98796081542969 87.67610168457031 25.374753952026367
87.94131469726562 87.88936614990234 25.58045196533203
87.88207244873047 88.11150360107422 25.773080825805664
87.81083679199219 88.34298706054688 25.94998550415039
87.72834777832031 88.58395385742188 26.10834312438965
87.6353988647461 88.8342514038086 26.24489402770996
87.53331756591797 89.09303283691406 26.35688018798828
87.42355346679688 89.35896301269531 26.441465377807617
87.30790710449219 89.63008880615234 26.49652671813965
87.18830871582031 89.90402221679688 26.520280838012695
87.06681823730469 90.17804718017578 26.51242446899414
86.94542694091797 90.4493179321289 26.472476959228516
86.82597351074219 90.7152099609375 26.402130126953125
86.71006774902344 90.9732437133789 26.30259132385254
86.5988998413086 91.22162628173828 26.176586151123047
86.4935531616211 91.45867919921875 26.02608871459961
86.39460754394531 91.68358612060547 25.854129791259766
86.3025131225586 91.89573669433594 25.663166046142578
86.2176284790039 92.09469604492188 25.455394744873047
86.13997650146484 92.28065490722656 25.233234405517578
86.06958770751953 92.45384216308594 24.998674392700195
86.00641632080078 92.61467742919922 24.753490447998047
85.95035552978516 92.76366424560547 24.499256134033203
85.90131378173828 92.90143585205078 24.237350463867188
85.85916900634766 93.02867126464844 23.9689884185791
85.82379150390625 93.14610290527344 23.69523048400879
85.79507446289062 93.25452423095703 23.417007446289062
85.77291107177734 93.35472106933594 23.13512420654297
85.75718688964844 93.4475326538086 22.850290298461914
85.74781799316406 93.53377532958984 22.563119888305664
85.74468994140625 93.61430358886719 22.27415657043457
85.7476806640625 93.68994140625 21.98387336730957
85.75664520263672 93.76152801513672 21.692686080932617
85.77139282226562 93.82986450195312 21.400949478149414
85.79169464111328 93.8957290649414 21.108978271484375
85.81725311279297 93.9598617553711 20.817035675048828
85.84766387939453 94.0229721069336 20.525333404541016
85.88246154785156 94.08567810058594 20.234031677246094
85.92108154296875 94.14852905273438 19.94324493408203
85.96288299560547 94.21200561523438 19.653034210205078
86.00714874267578 94.2765121459961 19.36341667175293
86.05307006835938 94.3424072265625 19.07436752319336
86.09977722167969 94.40990447998047 18.785816192626953
LINES 1 93
92 0 1 2 3 4 5 6 7 8 9 10 11 12 13 14 15 16 17 18 19 20 21 22 23 24 25 26 27 28 29 30 31 32 33 34 35 36 37 38 39 40 41 42 43 44 45 46 47 48 49 50 51 52 53 54 55 56 57 58 59 60 61 62 63 64 65 66 67 68 69 70 71 72 73 74 75 76 77 78 79 80 81 82 83 84 85 86 87 88 89 90 91

POINT_DATA 92
SCALARS curvature float
LOOKUP_TABLE default
0.12104365974664688
0.12364830821752548
0.13052621483802795
0.14169171452522278
0.15681883692741394
0.17544832825660706
0.19710077345371246
0.2212372124195099
0.24702805280685425
0.2732994854450226
0.298679381608963
0.3216110169887543
0.34037789702415466
0.35322365164756775
0.3590434193611145
0.3576402962207794
0.3497828245162964
0.33726510405540466
0.3221188485622406
0.3061174154281616
0.2905363142490387
0.27640214562416077
0.2645469009876251
0.2554076313972473
0.24898160994052887
0.244965597987175
0.24290546774864197
0.2422548234462738
0.2423575073480606
0.2425534576177597
0.24219436943531036
0.2405891716480255
0.2371072918176651
0.231431782245636
0.2237311750650406
0.2143666297197342
0.2036616951227188
0.19200114905834198
0.18004818260669708
0.1686597466468811
0.15867477655410767
0.15086719393730164
0.14592911303043365
0.1443898230791092
0.14649955928325653
0.15226174890995026
0.1615973860025406
0.17426177859306335
0.18978315591812134
0.20754294097423553
0.2269735187292099
0.24765442311763763
0.26900506019592285
0.2902279198169708
0.3102671205997467
0.32795169949531555
0.34201622009277344
0.35143646597862244
0.35570475459098816
0.35475894808769226
0.3485563397407532
0.3376704156398773
0.32322439551353455
0.306587815284729
0.28870806097984314
0.27027052640914917
0.25181761384010315
0.2338431030511856
0.216635063290596
0.20036612451076508
0.18513168394565582
0.17094777524471283
0.15776099264621735
0.1454889327287674
0.13409842550754547
0.1235966682434082
0.11395332962274551
0.10509272664785385
0.09692367166280746
0.08936340361833572
0.08233819156885147
0.07573488354682922
0.06942220777273178
0.06326165795326233
0.057086970657110214
0.05073666572570801
0.04415344446897507
0.03743099421262741
0.03081871010363102
0.024851415306329727
0.020785491913557053
0.020586008206009865
SCALARS torsion float
LOOKUP_TABLE default
0.44551944732666016
0.44638484716415405
0.414980947971344
0.3598187267780304
0.2957077622413635
0.23505154252052307
0.1827095001935959
0.1384117752313614
0.10011674463748932
0.06640688329935074
0.03827013820409775
0.014335599727928638
-0.007074098568409681
-0.027101248502731323
-0.04602793604135513
-0.06377489864826202
-0.08064030110836029
-0.09614801406860352
-0.11046987026929855
-0.12427912652492523
-0.13776682317256927
-0.15005622804164886
-0.1600724309682846
-0.16755656898021698
-0.17292028665542603
-0.1763104796409607
-0.1781793236732483
-0.1790294051170349
-0.18014070391654968
-0.18253064155578613
-0.18681064248085022
-0.1938394457101822
-0.20485101640224457
-0.22003385424613953
-0.23942697048187256
-0.26333412528038025
-0.2929992079734802
-0.33013030886650085
-0.3733024299144745
-0.4207054376602173
-0.46955186128616333
-0.5146178007125854
-0.5474677085876465
-0.5585252046585083
-0.5448668003082275
-0.5109876394271851
-0.4636545479297638
-0.41015148162841797
-0.35702577233314514
-0.30897256731987
-0.267691045999527
-0.2321932017803192
-0.20134975016117096
-0.17455615103244781
-0.15079568326473236
-0.1294943243265152
-0.10985852032899857
-0.09290124475955963
-0.07836799323558807
-0.06552398949861526
-0.05407790467143059
-0.044661201536655426
-0.0381263792514801
-0.0339798629283905
-0.03167732059955597
-0.031176628544926643
-0.032621823251247406
-0.036195047199726105
-0.04174225032329559
-0.04923984780907631
-0.05899695307016373
-0.07118283212184906
-0.08634251356124878
-0.10429027676582336
-0.12488595396280289
-0.1481015831232071
-0.1735190898180008
-0.2007990926504135
-0.2289089560508728
-0.25635936856269836
-0.28197181224823
-0.30659374594688416
-0.3298811912536621
-0.35169583559036255
-0.37349212169647217
-0.40367069840431213
-0.46204012632369995
-0.5717372298240662
-0.7719854116439819
-1.1298613548278809
-1.6121224164962769
-1.7013366222381592
