# vtk DataFile Version 2.0
Siphon segment
ASCII
DATASET POLYDATA
POINTS 118 float
98.34090423583984 62.610477447509766 24.643268585205078
98.47260284423828 62.3530158996582 24.563480377197266
98.60831451416016 62.09811782836914 24.482192993164062
98.74774932861328 61.84608840942383 24.398311614990234
98.89067840576172 61.5972785949707 24.31078338623047
99.03699493408203 61.352169036865234 24.21854591369629
99.18655395507812 61.11125564575195 24.120622634887695
99.3392105102539 60.875091552734375 24.01616096496582
99.49488067626953 60.64432907104492 23.904325485229492
99.65345764160156 60.41974639892578 23.7842960357666
99.81475067138672 60.20205307006836 23.655536651611328
99.97857666015625 59.9920654296875 23.517501831054688
100.14470672607422 59.7907829284668 23.369617462158203
100.31281280517578 59.599098205566406 23.211570739746094
100.48248291015625 59.41796112060547 23.043113708496094
100.65326690673828 59.24849319458008 22.863971710205078
100.82457733154297 59.09186935424805 22.673980712890625
100.99571990966797 58.94911193847656 22.473234176635742
101.16590118408203 58.82154846191406 22.26172637939453
101.33416748046875 58.710487365722656 22.039657592773438
101.49949645996094 58.61701202392578 21.807512283325195
101.66059875488281 58.542850494384766 21.565637588500977
101.81624603271484 58.48885726928711 21.315013885498047
101.96484375 58.45672607421875 21.05649185180664
102.10499572753906 58.4471549987793 20.791522979736328
102.23493194580078 58.46148681640625 20.521617889404297
102.35324096679688 58.50001907348633 20.248760223388672
102.45843505859375 58.563053131103516 19.975093841552734
102.54912567138672 58.650611877441406 19.70299530029297
102.6244888305664 58.761749267578125 19.43486213684082
102.68376159667969 58.89551544189453 19.173091888427734
102.72655487060547 59.05048751831055 18.919944763183594
102.75306701660156 59.224647521972656 18.677248001098633
102.7633285522461 59.41630554199219 18.446805953979492
102.7581558227539 59.62309646606445 18.229650497436523
102.73798370361328 59.84315872192383 18.02688217163086
102.70381927490234 60.07429504394531 17.838829040527344
102.6561279296875 60.314842224121094 17.666133880615234
102.59589385986328 60.5628776550293 17.508615493774414
102.52371215820312 60.81684112548828 17.36628532409668
102.44001007080078 61.07530975341797 17.239171981811523
102.34542083740234 61.336849212646484 17.126846313476562
102.24029541015625 61.6002082824707 17.029056549072266
102.12484741210938 61.864192962646484 16.945636749267578
101.99928283691406 62.12764358520508 16.8763484954834
101.86381530761719 62.38945388793945 16.82086753845215
101.71858978271484 62.64855194091797 16.779014587402344
101.56361389160156 62.9038200378418 16.75080108642578
101.39912414550781 63.15421676635742 16.736068725585938
101.22539520263672 63.39873504638672 16.734708786010742
101.04269409179688 63.636314392089844 16.746864318847656
100.85153198242188 63.86603546142578 16.772546768188477
100.65265655517578 64.08714294433594 16.811695098876953
100.44677734375 64.29875183105469 16.864646911621094
100.23505401611328 64.50054931640625 16.931177139282227
100.01864624023438 64.69210052490234 17.011484146118164
99.79895782470703 64.87342071533203 17.105457305908203
99.57747650146484 65.04473876953125 17.213024139404297
99.35577392578125 65.20651245117188 17.33408546447754
99.13543701171875 65.35958099365234 17.46825408935547
98.91808319091797 65.50476837158203 17.61542320251465
98.70516967773438 65.64335632324219 17.774925231933594
98.4981918334961 65.77655029296875 17.946399688720703
98.29846954345703 65.90576171875 18.129152297973633
98.10717010498047 66.032470703125 18.32236671447754
97.92552947998047 66.15814971923828 18.525333404541016
97.7544174194336 66.28431701660156 18.736961364746094
97.59468078613281 66.41246795654297 18.956151962280273
97.44721984863281 66.54411315917969 19.18177604675293
97.31267547607422 66.68069458007812 19.4124755859375
97.19160461425781 66.82357788085938 19.646791458129883
97.084716796875 66.97416687011719 19.88316535949707
96.99263000488281 67.13378143310547 20.119840621948242
96.91576385498047 67.30351257324219 20.35489845275879
96.85489654541016 67.48455047607422 20.586164474487305
96.81049346923828 67.67768859863281 20.81129264831543
96.783203125 67.88360595703125 21.027626037597656
96.77355194091797 68.10260772705078 21.232288360595703
96.78209686279297 68.33463287353516 21.42208480834961
96.80894470214844 68.57891082763672 21.59393882751465
96.85432434082031 68.83428192138672 21.744422912597656
96.91781616210938 69.09874725341797 21.870641708374023
96.99862670898438 69.36978912353516 21.970184326171875
97.09561920166016 69.64447784423828 22.041213989257812
97.20738983154297 69.91963958740234 22.08246421813965
97.33212280273438 70.19207763671875 22.093814849853516
97.46785736083984 70.45884704589844 22.075925827026367
97.61271667480469 70.71733093261719 22.02983856201172
97.76488494873047 70.96524810791016 21.956979751586914
97.92256164550781 71.20101928710938 21.859577178955078
98.08427429199219 71.42303466796875 21.739177703857422
98.24857330322266 71.6306381225586 21.598270416259766
98.41429138183594 71.82278442382812 21.438373565673828
98.5803451538086 71.99935913085938 21.261728286743164
98.74581146240234 72.16004180908203 21.069988250732422
98.90985870361328 72.30469512939453 20.8647403717041
99.07180786132812 72.43363189697266 20.64768409729004
99.23104858398438 72.5470962524414 20.42021942138672
99.38700103759766 72.6452407836914 20.18353271484375
99.53925323486328 72.72872924804688 19.938945770263672
99.68741607666016 72.7981185913086 19.687530517578125
99.83116912841797 72.85398864746094 19.430246353149414
99.97016906738281 72.8968505859375 19.16790008544922
100.10425567626953 72.92759704589844 18.901330947875977
100.2332534790039 72.94698333740234 18.631202697753906
100.35700988769531 72.95576477050781 18.358083724975586
100.47541809082031 72.95471954345703 18.08245849609375
100.58848571777344 72.94481658935547 17.804777145385742
100.69622802734375 72.92694091796875 17.525375366210938
100.79861450195312 72.90190124511719 17.24451446533203
100.89585876464844 72.87073516845703 16.96243667602539
100.98809814453125 72.8343734741211 16.67930030822754
101.07551574707031 72.79373168945312 16.395217895507812
101.15848541259766 72.74983215332031 16.11028480529785
101.23731994628906 72.70362091064453 15.824545860290527
101.31246948242188 72.65605163574219 15.538034439086914
101.38445281982422 72.60809326171875 15.250775337219238
101.45376586914062 72.56068420410156 14.962769508361816
LINES 1 119
118 0 1 2 3 4 5 6 7 8 9 10 11 12 13 14 15 16 17 18 19 20 21 22 23 24 25 26 27 28 29 30 31 32 33 34 35 36 37 38 39 40 41 42 43 44 45 46 47 48 49 50 51 52 53 54 55 56 57 58 59 60 61 62 63 64 65 66 67 68 69 70 71 72 73 74 75 76 77 78 79 80 81 82 83 84 85 86 87 88 89 90 91 92 93 94 95 96 97 98 99 100 101 102 103 104 105 106 107 108 109 110 111 112 113 114 115 116 117

POINT_DATA 118
SCALARS curvature float
LOOKUP_TABLE default
0.05524182319641113
0.05575183779001236
0.060093771666288376
0.06730671226978302
0.07631613314151764
0.08631107956171036
0.09673334658145905
0.10723547637462616
0.11761181801557541
0.12775157392024994
0.13763758540153503
0.1473303586244583
0.15692763030529022
0.16654130816459656
0.17629431188106537
0.18631449341773987
0.1967143565416336
0.20758603513240814
0.21897318959236145
0.23085813224315643
0.24321287870407104
0.255938857793808
0.2687395215034485
0.2811385989189148
0.2926035523414612
0.3025209307670593
0.3103006184101105
0.3155142068862915
0.31780192255973816
0.3169962167739868
0.3130582869052887
0.3062553107738495
0.2970685660839081
0.2860933840274811
0.2740398347377777
0.26153668761253357
0.2491685301065445
0.23739415407180786
0.22650942206382751
0.21674104034900665
0.20832647383213043
0.2014184147119522
0.19610513746738434
0.19242599606513977
0.19034172594547272
0.18970037996768951
0.19028690457344055
0.19181595742702484
0.19392502307891846
0.19620825350284576
0.19824445247650146
0.1996408998966217
0.20008587837219238
0.19932381808757782
0.19721820950508118
0.19372671842575073
0.18900172412395477
0.18332499265670776
0.1771220862865448
0.170902281999588
0.16512781381607056
0.16013184189796448
0.1561966985464096
0.15353494882583618
0.15225866436958313
0.15252038836479187
0.1544157862663269
0.15806099772453308
0.16363337635993958
0.17122888565063477
0.18089023232460022
0.19264841079711914
0.20650814473628998
0.22234390676021576
0.24001316726207733
0.25926148891448975
0.2796134948730469
0.30024728178977966
0.32008224725723267
0.3379526138305664
0.3525451421737671
0.3628663718700409
0.3682732582092285
0.36861154437065125
0.3641861379146576
0.35571756958961487
0.3441031575202942
0.3303627371788025
0.3154996931552887
0.30030253529548645
0.28540968894958496
0.2711888253688812
0.25774505734443665
0.24500498175621033
0.2329423725605011
0.22150620818138123
0.21061475574970245
0.20021598041057587
0.19025562703609467
0.18065978586673737
0.1713644117116928
0.1622982919216156
0.15339134633541107
0.14457257091999054
0.13579407334327698
0.12701275944709778
0.11817406862974167
0.10925833880901337
0.10023072361946106
0.09105997532606125
0.08174317330121994
0.07231566309928894
0.06286780536174774
0.05356237292289734
0.04470805451273918
0.03688782453536987
0.03112482652068138
0.028971172869205475
SCALARS torsion float
LOOKUP_TABLE default
-0.77817302942276
-0.758808970451355
-0.6262654662132263
-0.4651670455932617
-0.3291442394256592
-0.22856535017490387
-0.15753468871116638
-0.10774662345647812
-0.07465308159589767
-0.05351835489273071
-0.040376029908657074
-0.03282267600297928
-0.029218079522252083
-0.028063606470823288
-0.028760528191924095
-0.030350135639309883
-0.032580070197582245
-0.03464987501502037
-0.036153022199869156
-0.03702296316623688
-0.03695102408528328
-0.035992581397295
-0.03412533923983574
-0.03142523765563965
-0.027798347175121307
-0.023188764229416847
-0.018253911286592484
-0.013286539353430271
-0.00855464581400156
-0.004355252254754305
-0.0010288760531693697
0.000721452699508518
0.0007585174171254039
-0.0015396729577332735
-0.00620290357619524
-0.012911203317344189
-0.021719422191381454
-0.03261370584368706
-0.04565825313329697
-0.05990833044052124
-0.07384184002876282
-0.08674629777669907
-0.09674052149057388
-0.10300235450267792
-0.10447650402784348
-0.10069244354963303
-0.09127302467823029
-0.07582973688840866
-0.05481206998229027
-0.029639383777976036
-0.0003380614798516035
0.03142670914530754
0.06550717353820801
0.10241573303937912
0.14277146756649017
0.18643438816070557
0.23072737455368042
0.2757246494293213
0.3192780613899231
0.35991519689559937
0.3963797390460968
0.4277951717376709
0.4521288573741913
0.46753713488578796
0.4743867814540863
0.47275835275650024
0.4635428488254547
0.4473695755004883
0.4250364601612091
0.3975718021392822
0.3666626811027527
0.3338105082511902
0.29887184500694275
0.26373186707496643
0.23065415024757385
0.19984325766563416
0.1712690144777298
0.14480647444725037
0.12068066745996475
0.09881161153316498
0.07913773506879807
0.06219785660505295
0.047476839274168015
0.03503115102648735
0.02451338805258274
0.01577756553888321
0.008664366789162159
0.0034468674566596746
5.5182787036756054e-05
-0.0019363758619874716
-0.002623157575726509
-0.0022137423511594534
-0.0007628967287018895
0.0016615204513072968
0.004950290080159903
0.009158999659121037
0.013946693390607834
0.019386233761906624
0.025489384308457375
0.03233610838651657
0.04006025195121765
0.048799991607666016
0.058744270354509354
0.06987003982067108
0.08234309405088425
0.09654238075017929
0.11300621926784515
0.13227479159832
0.15527662634849548
0.18372026085853577
0.22022855281829834
0.2693237066268921
0.34037670493125916
0.4483955502510071
0.6195660829544067
0.8856505751609802
1.2244817018508911
1.4132388830184937
