# vtk DataFile Version 2.0
Siphon segment
ASCII
DATASET POLYDATA
POINTS 110 float
81.0303726196289 66.16695404052734 35.50129699707031
81.07269287109375 65.92632293701172 35.327232360839844
81.11116027832031 65.68985748291016 35.14667892456055
81.1458740234375 65.45795440673828 34.95957946777344
81.17694091796875 65.23108673095703 34.76578140258789
81.20447540283203 65.00982666015625 34.565086364746094
81.22855377197266 64.7948989868164 34.357200622558594
81.24929809570312 64.5870361328125 34.14190673828125
81.26683807373047 64.38706970214844 33.918983459472656
81.28129577636719 64.1959228515625 33.68824768066406
81.2928466796875 64.01455688476562 33.449588775634766
81.30168151855469 63.84398651123047 33.20298767089844
81.30802917480469 63.6853141784668 32.94850158691406
81.31219482421875 63.539493560791016 32.686397552490234
81.31450653076172 63.407562255859375 32.41701889038086
81.31536102294922 63.290531158447266 32.14083480834961
81.31517791748047 63.18940734863281 31.85843849182129
81.314453125 63.10517120361328 31.570556640625
81.31368255615234 63.03887939453125 31.27802276611328
81.31343841552734 62.991363525390625 30.98186492919922
81.31426239013672 62.963478088378906 30.683225631713867
81.31672668457031 62.95601272583008 30.383394241333008
81.32139587402344 62.96965026855469 30.083810806274414
81.32878112792969 63.00492858886719 29.78605842590332
81.33936309814453 63.06219482421875 29.491844177246094
81.35354614257812 63.14158248901367 29.20296859741211
81.37165069580078 63.24296188354492 28.92128562927246
81.39386749267578 63.36593246459961 28.648639678955078
81.42029571533203 63.50980758666992 28.386816024780273
81.45089721679688 63.673641204833984 28.13747215270996
81.4854965209961 63.85624694824219 27.90207862854004
81.52379608154297 64.05624389648438 27.68187713623047
81.56539916992188 64.27210235595703 27.477840423583984
81.60980224609375 64.502197265625 27.2906436920166
81.65643310546875 64.74488067626953 27.12066078186035
81.70465087890625 64.99850463867188 26.967960357666016
81.75379943847656 65.2614974975586 26.832347869873047
81.80322265625 65.5323257446289 26.7132625579834
81.85226440429688 65.80962371826172 26.609933853149414
81.90031433105469 66.0921630859375 26.52137565612793
81.94681549072266 66.37887573242188 26.446422576904297
81.99129486083984 66.6688461303711 26.3837833404541
82.03330993652344 66.96134185791016 26.33207130432129
82.07249450683594 67.25575256347656 26.289899826049805
82.10856628417969 67.55160522460938 26.255781173706055
82.14129638671875 67.8485336303711 26.228273391723633
82.17048645019531 68.14627838134766 26.206008911132812
82.19597625732422 68.44462585449219 26.18770408630371
82.21760559082031 68.74343872070312 26.172182083129883
82.23517608642578 69.0426025390625 26.158397674560547
82.24852752685547 69.34202575683594 26.145435333251953
82.25740051269531 69.64161682128906 26.132553100585938
82.2614974975586 69.9412841796875 26.11916732788086
82.26045227050781 70.24093627929688 26.104862213134766
82.25382232666016 70.54045867919922 26.089365005493164
82.24110412597656 70.83970642089844 26.072528839111328
82.22174835205078 71.13851928710938 26.054309844970703
82.1951675415039 71.43669128417969 26.03472137451172
82.16075897216797 71.73396301269531 26.013803482055664
82.11796569824219 72.0300521850586 25.991596221923828
82.06626892089844 72.32461547851562 25.968088150024414
82.00523376464844 72.61727142333984 25.943201065063477
81.93445587158203 72.90758514404297 25.916759490966797
81.8536605834961 73.19509887695312 25.888490676879883
81.76261901855469 73.47930145263672 25.85800552368164
81.66107940673828 73.75961303710938 25.824783325195312
81.54902648925781 74.03546905517578 25.788240432739258
81.4264144897461 74.30622100830078 25.747678756713867
81.29322052001953 74.5711441040039 25.702316284179688
81.14940643310547 74.82939147949219 25.651254653930664
80.99500274658203 75.08001708984375 25.59354591369629
80.83018493652344 75.32197570800781 25.52822494506836
80.65511322021484 75.55403900146484 25.454265594482422
80.47010040283203 75.77481079101562 25.370624542236328
80.27559661865234 75.98274230957031 25.27629280090332
80.07229614257812 76.1761474609375 25.170331954956055
79.86117553710938 76.353271484375 25.05194664001465
79.64353942871094 76.51240539550781 24.92055320739746
79.4210205078125 76.65202331542969 24.77583122253418
79.195556640625 76.77088165283203 24.61777114868164
78.96928405761719 76.86820983886719 24.446674346923828
78.74446868896484 76.94377136230469 24.263118743896484
78.52333068847656 76.9979019165039 24.067890167236328
78.30793762207031 77.03145599365234 23.861894607543945
78.10016632080078 77.0457534790039 23.646072387695312
77.90157318115234 77.04244995117188 23.421323776245117
77.71348571777344 77.0234146118164 23.18846321105957
77.53693389892578 76.99066162109375 22.948198318481445
77.37276458740234 76.94625091552734 22.701114654541016
77.22167205810547 76.8922348022461 22.447681427001953
77.08405303955078 76.83073425292969 22.188343048095703
76.96022033691406 76.76380157470703 21.9234561920166
76.85035705566406 76.6934585571289 21.65334701538086
76.75446319580078 76.62166595458984 21.378334045410156
76.67243194580078 76.55035400390625 21.0987491607666
76.60396575927734 76.48138427734375 20.814956665039062
76.54861450195312 76.41650390625 20.527360916137695
76.50565338134766 76.35731506347656 20.23644256591797
76.47423553466797 76.30519104003906 19.942707061767578
76.45332336425781 76.26128387451172 19.646703720092773
76.44171905517578 76.2264404296875 19.348983764648438
76.43811798095703 76.20117950439453 19.050092697143555
76.44111633300781 76.1856918334961 18.75052833557129
76.44929504394531 76.17982482910156 18.450714111328125
76.4612045288086 76.18315124511719 18.150981903076172
76.47547149658203 76.19499969482422 17.851566314697266
76.49076843261719 76.21453857421875 17.552600860595703
76.50584411621094 76.2408218383789 17.254140853881836
76.5195083618164 76.2728500366211 16.956172943115234
76.53067779541016 76.3095932006836 16.658645629882812
LINES 1 111
110 0 1 2 3 4 5 6 7 8 9 10 11 12 13 14 15 16 17 18 19 20 21 22 23 24 25 26 27 28 29 30 31 32 33 34 35 36 37 38 39 40 41 42 43 44 45 46 47 48 49 50 51 52 53 54 55 56 57 58 59 60 61 62 63 64 65 66 67 68 69 70 71 72 73 74 75 76 77 78 79 80 81 82 83 84 85 86 87 88 89 90 91 92 93 94 95 96 97 98 99 100 101 102 103 104 105 106 107 108 109

POINT_DATA 110
SCALARS curvature float
LOOKUP_TABLE default
0.09524674713611603
0.09595644474029541
0.09806418418884277
0.10158391296863556
0.1064600944519043
0.11252523213624954
0.11956408619880676
0.12730355560779572
0.13546548783779144
0.1437997817993164
0.15209238231182098
0.16020166873931885
0.16805334389209747
0.1756514012813568
0.18305879831314087
0.19037511944770813
0.1977129727602005
0.20516979694366455
0.21279777586460114
0.22058747708797455
0.22844664752483368
0.23621220886707306
0.24365082383155823
0.2504802346229553
0.2564021944999695
0.26111915707588196
0.2643924653530121
0.2660219967365265
0.26589465141296387
0.26394402980804443
0.26018068194389343
0.2546469271183014
0.24744363129138947
0.23866742849349976
0.22840698063373566
0.2167583554983139
0.2038687914609909
0.18990561366081238
0.1750781089067459
0.15960878133773804
0.14377546310424805
0.12786686420440674
0.11222370713949203
0.0972195491194725
0.08329666405916214
0.07097143679857254
0.06084208935499191
0.05354113504290581
0.04949438199400902
0.048668116331100464
0.0504034049808979
0.05387572571635246
0.05840897560119629
0.06363120675086975
0.06936643272638321
0.07553757727146149
0.08204683661460876
0.0887393057346344
0.09540748596191406
0.10182619094848633
0.10782115161418915
0.11330243945121765
0.11830148100852966
0.12297437340021133
0.12759259343147278
0.13251525163650513
0.1381218433380127
0.14477354288101196
0.15277594327926636
0.1623314917087555
0.17351596057415009
0.18623031675815582
0.20023787021636963
0.21512077748775482
0.23028632998466492
0.24496954679489136
0.25824880599975586
0.26915502548217773
0.2767575979232788
0.2804085910320282
0.27979135513305664
0.2750782370567322
0.2668083906173706
0.2558584213256836
0.2432045042514801
0.22984251379966736
0.2166263610124588
0.2042510062456131
0.1932048201560974
0.18380224704742432
0.17614881694316864
0.1702161580324173
0.16581787168979645
0.16267380118370056
0.16039058566093445
0.15853780508041382
0.15662872791290283
0.1541896015405655
0.1507701724767685
0.14600339531898499
0.1396298110485077
0.13156472146511078
0.12189539521932602
0.11092399805784225
0.09913911670446396
0.08721668273210526
0.07602781802415848
0.06663606315851212
0.06025754287838936
0.05782812461256981
SCALARS torsion float
LOOKUP_TABLE default
0.07032549381256104
0.09008774161338806
0.10574522614479065
0.11527661234140396
0.11885396391153336
0.11754140257835388
0.11327260732650757
0.10788567364215851
0.10269060730934143
0.09861807525157928
0.09598436951637268
0.09476599097251892
0.09481857717037201
0.09549865871667862
0.09656952321529388
0.09718755632638931
0.09720633924007416
0.09592927247285843
0.09338310360908508
0.08932105451822281
0.08392811566591263
0.07735989987850189
0.0698041170835495
0.06154835596680641
0.05266858637332916
0.043402403593063354
0.03369321674108505
0.023637570440769196
0.013090391643345356
0.0021752240136265755
-0.009247072041034698
-0.020907554775476456
-0.03289128467440605
-0.04511091485619545
-0.05779718980193138
-0.07083375751972198
-0.08445915579795837
-0.09912948310375214
-0.1154709979891777
-0.1347413957118988
-0.158338725566864
-0.18889816105365753
-0.229618102312088
-0.2856230139732361
-0.36264273524284363
-0.4642276465892792
-0.5839434862136841
-0.6879982948303223
-0.7194904088973999
-0.640318751335144
-0.4863159656524658
-0.31557130813598633
-0.16987557709217072
-0.05962717905640602
0.012100285850465298
0.05148831382393837
0.06355264037847519
0.0559028796851635
0.03518984839320183
0.0062403809279203415
-0.0259843859821558
-0.05998209863901138
-0.09242266416549683
-0.12293945252895355
-0.1483420580625534
-0.16819486021995544
-0.18110668659210205
-0.18714922666549683
-0.1861274689435959
-0.17920897901058197
-0.1683664172887802
-0.15552377700805664
-0.1426970213651657
-0.13125348091125488
-0.12225029617547989
-0.1163577064871788
-0.11388205736875534
-0.11509955674409866
-0.11994978785514832
-0.1284419745206833
-0.14040151238441467
-0.15575292706489563
-0.17431843280792236
-0.19593936204910278
-0.22037357091903687
-0.24713420867919922
-0.2755945920944214
-0.3045654892921448
-0.33271703124046326
-0.3581954538822174
-0.3794219195842743
-0.39496156573295593
-0.40405526757240295
-0.40659406781196594
-0.40316858887672424
-0.3946758806705475
-0.38248828053474426
-0.36835306882858276
-0.3537827432155609
-0.3412013053894043
-0.33230602741241455
-0.3306182026863098
-0.3388655483722687
-0.3632759749889374
-0.40912488102912903
-0.48536431789398193
-0.5963110327720642
-0.7336681485176086
-0.8499454259872437
-0.8683130741119385
