# vtk DataFile Version 2.0
Siphon segment
ASCII
DATASET POLYDATA
POINTS 47 float
78.86151123046875 67.56920623779297 22.25690269470215
78.7260513305664 67.31739044189453 22.1661319732666
78.59085845947266 67.06654357910156 22.07234001159668
78.45508575439453 66.81768035888672 21.97420883178711
78.31790161132812 66.57195281982422 21.870309829711914
78.17853546142578 66.33063507080078 21.759260177612305
78.03630828857422 66.09512329101562 21.639705657958984
77.89060974121094 65.86715698242188 21.510147094726562
77.74102020263672 65.64866638183594 21.369218826293945
77.58733367919922 65.44182586669922 21.2157039642334
77.42953491210938 65.2493896484375 21.04828643798828
77.26802062988281 65.07413482666016 20.86623191833496
77.10352325439453 64.91928100585938 20.669002532958984
76.93722534179688 64.78839874267578 20.4565372467041
76.77082061767578 64.6845703125 20.22974395751953
76.60635375976562 64.61075592041016 19.99015998840332
76.44615936279297 64.56927490234375 19.740140914916992
76.29263305664062 64.5615234375 19.482725143432617
76.14803314208984 64.58788299560547 19.22139549255371
76.01432800292969 64.64789581298828 18.959823608398438
75.89293670654297 64.73995971679688 18.701583862304688
75.78483581542969 64.86202239990234 18.4499568939209
75.69055938720703 65.01170349121094 18.20784568786621
75.61035919189453 65.1866683959961 17.9778995513916
75.54412841796875 65.38434600830078 17.762361526489258
75.49144744873047 65.60215759277344 17.563091278076172
75.45205688476562 65.83802795410156 17.382139205932617
75.42530059814453 66.08952331542969 17.22100257873535
75.41059875488281 66.35447692871094 17.081310272216797
75.40740966796875 66.63078308105469 16.96478843688965
75.41488647460938 66.9160385131836 16.87259864807129
75.43238830566406 67.2079849243164 16.806310653686523
75.45899200439453 67.50405883789062 16.76685905456543
75.49369812011719 67.80168151855469 16.754714965820312
75.5354995727539 68.09823608398438 16.770116806030273
75.58325958251953 68.39125061035156 16.81250762939453
75.63581085205078 68.67859649658203 16.880399703979492
75.69205474853516 68.95861053466797 16.97193717956543
75.75104522705078 69.23011016845703 17.084936141967773
75.81192779541016 69.49272918701172 17.2164306640625
75.87409210205078 69.7464599609375 17.363847732543945
75.9371109008789 69.99192810058594 17.524330139160156
76.00077056884766 70.23003387451172 17.69533348083496
76.06502532958984 70.4620132446289 17.874359130859375
76.12998962402344 70.68914031982422 18.059261322021484
76.19590759277344 70.91289520263672 18.24790382385254
76.26313781738281 71.13467407226562 18.438413619995117
LINES 1 48
47 0 1 2 3 4 5 6 7 8 9 10 11 12 13 14 15 16 17 18 19 20 21 22 23 24 25 26 27 28 29 30 31 32 33 34 35 36 37 38 39 40 41 42 43 44 45 46

POINT_DATA 47
SCALARS curvature float
LOOKUP_TABLE default
0.030561815947294235
0.037986356765031815
0.05404781177639961
0.07422853261232376
0.09674270451068878
0.12094441801309586
0.14657260477542877
0.17347660660743713
0.20153473317623138
0.23060913383960724
0.2603345215320587
0.28993329405784607
0.3182893991470337
0.3440774381160736
0.3658362030982971
0.3821718096733093
0.39205238223075867
0.3953165113925934
0.3926166892051697
0.38513460755348206
0.37437957525253296
0.3619246184825897
0.34917545318603516
0.33732831478118896
0.32731369137763977
0.31967073678970337
0.3147139251232147
0.3123580813407898
0.31234776973724365
0.31412139534950256
0.3167107403278351
0.31883740425109863
0.319151371717453
0.31633976101875305
0.3092394471168518
0.29708603024482727
0.27985596656799316
0.25817352533340454
0.2329394370317459
0.20516948401927948
0.17580612003803253
0.145829439163208
0.11599859595298767
0.08691328763961792
0.059241898357868195
0.034443069249391556
0.02077413722872734
SCALARS torsion float
LOOKUP_TABLE default
-1.5472064018249512
-1.0311206579208374
-0.5153518915176392
-0.2698974609375
-0.15289609134197235
-0.09015068411827087
-0.05298477038741112
-0.028827203437685966
-0.012724020518362522
-0.001422052620910108
0.0068132271990180016
0.013013281859457493
0.017347754910588264
0.019222242757678032
0.018790852278470993
0.01572144217789173
0.010182407684624195
0.002680720528587699
-0.006712092086672783
-0.0174321960657835
-0.02944178879261017
-0.041976142674684525
-0.05499005317687988
-0.06723660230636597
-0.07839479297399521
-0.08765605837106705
-0.09454061090946198
-0.0989777073264122
-0.10084699094295502
-0.10021701455116272
-0.09741171449422836
-0.09286461025476456
-0.08700144290924072
-0.07997062802314758
-0.07214568555355072
-0.06354435533285141
-0.054903533309698105
-0.04569018632173538
-0.0346929207444191
-0.020268753170967102
-0.0003167504328303039
0.03056192770600319
0.08456671237945557
0.19439473748207092
0.4787326157093048
1.4835357666015625
3.9991843700408936
