# vtk DataFile Version 2.0
Siphon segment
ASCII
DATASET POLYDATA
POINTS 112 float
81.8392105102539 64.254150390625 27.311813354492188
81.66094970703125 64.07878875732422 27.14609146118164
81.47753143310547 63.911067962646484 26.978105545043945
81.28978729248047 63.75168228149414 26.80682373046875
81.09869384765625 63.60110092163086 26.63132667541504
80.90522766113281 63.45988082885742 26.450725555419922
80.71039581298828 63.32878494262695 26.26407241821289
80.51531219482422 63.20848846435547 26.070539474487305
80.3211669921875 63.09962463378906 25.86944580078125
80.12925720214844 63.00297546386719 25.660144805908203
79.94102478027344 62.91947555541992 25.442031860351562
79.75801849365234 62.84990310668945 25.214784622192383
79.58189392089844 62.79502868652344 24.978282928466797
79.41442108154297 62.755672454833984 24.732589721679688
79.25749206542969 62.73258972167969 24.478042602539062
79.113037109375 62.726436614990234 24.215282440185547
78.98297119140625 62.73771667480469 23.945280075073242
78.869140625 62.7667236328125 23.669340133666992
78.77320098876953 62.81351089477539 23.389081954956055
78.69657897949219 62.87787628173828 23.106380462646484
78.64037322998047 62.9593391418457 22.823293685913086
78.60533142089844 63.05718231201172 22.541990280151367
78.591796875 63.17045593261719 22.264646530151367
78.59974670410156 63.29804229736328 21.99336051940918
78.6287612915039 63.438697814941406 21.730087280273438
78.67811584472656 63.591129302978516 21.4765682220459
78.746826171875 63.754024505615234 21.234310150146484
78.83373260498047 63.926124572753906 21.00457763671875
78.93753051757812 64.10623931884766 20.788389205932617
79.0568618774414 64.29325866699219 20.5865478515625
79.19029998779297 64.48619079589844 20.39965057373047
79.33642578125 64.68415832519531 20.228124618530273
79.4939956665039 64.88642883300781 20.07247543334961
79.66146850585938 65.09228515625 19.932674407958984
79.83751678466797 65.30115509033203 19.808778762817383
80.02088165283203 65.5125503540039 19.700780868530273
80.21041107177734 65.72610473632812 19.60886001586914
80.40482330322266 65.94146728515625 19.53273582458496
80.60297393798828 66.15837097167969 19.47218894958496
80.80375671386719 66.37661743164062 19.427091598510742
81.00609588623047 66.5960693359375 19.397415161132812
81.2088851928711 66.81660461425781 19.38265037536621
81.4111099243164 67.03816223144531 19.382511138916016
81.61172485351562 67.2607192993164 19.396799087524414
81.8097152709961 67.48428344726562 19.425100326538086
82.0041275024414 67.70887756347656 19.466833114624023
82.19401550292969 67.93457794189453 19.52147102355957
82.37843322753906 68.16148376464844 19.588483810424805
82.5564956665039 68.38970947265625 19.667171478271484
82.72744750976562 68.61940002441406 19.756633758544922
82.89055633544922 68.85071563720703 19.855993270874023
83.04515838623047 69.0838623046875 19.96428680419922
83.19054412841797 69.319091796875 20.080556869506836
83.32630157470703 69.5566177368164 20.203582763671875
83.4520263671875 69.79671478271484 20.332170486450195
83.56733703613281 70.03965759277344 20.465105056762695
83.67189025878906 70.28573608398438 20.601133346557617
83.76530456542969 70.53526306152344 20.738956451416016
83.84745025634766 70.7884750366211 20.877233505249023
83.91808319091797 71.04560852050781 21.014638900756836
83.97693634033203 71.30684661865234 21.149826049804688
84.02361297607422 71.57235717773438 21.281394958496094
84.05789947509766 71.8421401977539 21.407987594604492
84.07955169677734 72.11607360839844 21.528274536132812
84.08824157714844 72.39393615722656 21.640928268432617
84.0836410522461 72.67535400390625 21.744661331176758
84.0653076171875 72.95978546142578 21.8381404876709
84.03306579589844 73.24645233154297 21.92031478881836
83.98672485351562 73.534423828125 21.990238189697266
83.9261245727539 73.82261657714844 22.047101974487305
83.85118865966797 74.10981750488281 22.090280532836914
83.76187896728516 74.39468383789062 22.119300842285156
83.65819549560547 74.6757583618164 22.13384437561035
83.54045867919922 74.95161437988281 22.134031295776367
83.4089126586914 75.22079467773438 22.12003517150879
83.26388549804688 75.48184967041016 22.092185974121094
83.10569763183594 75.73332214355469 22.050912857055664
82.93463134765625 75.97364044189453 21.996639251708984
82.75129699707031 76.20149993896484 21.93014144897461
82.55615997314453 76.41547393798828 21.85207748413086
82.34976196289062 76.61407470703125 21.76312828063965
82.13272094726562 76.7957992553711 21.663999557495117
81.90570068359375 76.95893859863281 21.55535888671875
81.66963958740234 77.10197448730469 21.438020706176758
81.4256362915039 77.2232894897461 21.312774658203125
81.17498016357422 77.32123565673828 21.180423736572266
80.91924285888672 77.3941879272461 21.04181671142578
80.66031646728516 77.44066619873047 20.897844314575195
80.40040588378906 77.45941925048828 20.74944305419922
80.14202117919922 77.4495849609375 20.597570419311523
79.88790130615234 77.41070556640625 20.443174362182617
79.64094543457031 77.3428726196289 20.28717041015625
79.40394592285156 77.24707794189453 20.13039779663086
79.17955780029297 77.1247329711914 19.973546981811523
78.9700927734375 76.9778060913086 19.817140579223633
78.77745819091797 76.80868530273438 19.661510467529297
78.60308074951172 76.62002563476562 19.506790161132812
78.4478759765625 76.41462707519531 19.352935791015625
78.31232452392578 76.19528198242188 19.199752807617188
78.19648742675781 75.96466827392578 19.04692268371582
78.10009765625 75.72529602050781 18.894041061401367
78.02259826660156 75.47947692871094 18.740642547607422
77.96324157714844 75.22927856445312 18.586225509643555
77.92111206054688 74.97653198242188 18.430274963378906
77.89541625976562 74.7228775024414 18.272232055664062
77.88497924804688 74.46977996826172 18.111576080322266
77.88860321044922 74.21849060058594 17.94780158996582
77.90535736083984 73.97017669677734 17.780345916748047
77.93413543701172 73.72586059570312 17.608680725097656
77.97367095947266 73.48641204833984 17.4323673248291
78.02314758300781 73.25282287597656 17.250776290893555
78.08130645751953 73.02580261230469 17.063526153564453
LINES 1 113
112 0 1 2 3 4 5 6 7 8 9 10 11 12 13 14 15 16 17 18 19 20 21 22 23 24 25 26 27 28 29 30 31 32 33 34 35 36 37 38 39 40 41 42 43 44 45 46 47 48 49 50 51 52 53 54 55 56 57 58 59 60 61 62 63 64 65 66 67 68 69 70 71 72 73 74 75 76 77 78 79 80 81 82 83 84 85 86 87 88 89 90 91 92 93 94 95 96 97 98 99 100 101 102 103 104 105 106 107 108 109 110 111

POINT_DATA 112
SCALARS curvature float
LOOKUP_TABLE default
0.10566932708024979
0.10640871524810791
0.10949674993753433
0.11490695923566818
0.12238434702157974
0.13165433704853058
0.1424640566110611
0.15453794598579407
0.16758638620376587
0.18133948743343353
0.1955871284008026
0.21013088524341583
0.22471770644187927
0.23902730643749237
0.2526719272136688
0.2652254104614258
0.27623236179351807
0.28524285554885864
0.2920190393924713
0.2964545488357544
0.29847222566604614
0.2980262041091919
0.2951990067958832
0.2903098165988922
0.28373971581459045
0.2758983373641968
0.26722773909568787
0.2581009864807129
0.2487737387418747
0.23940883576869965
0.23016797006130219
0.22125586867332458
0.21282967925071716
0.2049720287322998
0.1977337896823883
0.19113922119140625
0.185198575258255
0.1798740029335022
0.17512138187885284
0.170916348695755
0.16723480820655823
0.16399215161800385
0.16108736395835876
0.15841349959373474
0.15584848821163177
0.15328076481819153
0.15063059329986572
0.14787040650844574
0.14501450955867767
0.14207786321640015
0.1390914022922516
0.1361454427242279
0.13343466818332672
0.13119915127754211
0.12970978021621704
0.1292431354522705
0.13004355132579803
0.13228839635849
0.13603371381759644
0.1412608027458191
0.14784739911556244
0.15559808909893036
0.16422483325004578
0.1734071522951126
0.18281441926956177
0.19206872582435608
0.20078109204769135
0.20864799618721008
0.21549205482006073
0.221200630068779
0.2257215976715088
0.22907602787017822
0.23138432204723358
0.2328943908214569
0.2338927984237671
0.2347545176744461
0.23592731356620789
0.23781216144561768
0.24066394567489624
0.24464678764343262
0.2498854547739029
0.2564704716205597
0.2643679082393646
0.27342402935028076
0.28340891003608704
0.29394543170928955
0.30444806814193726
0.3141402006149292
0.3222546875476837
0.32814741134643555
0.33121684193611145
0.33106786012649536
0.32756507396698
0.32081112265586853
0.31110522150993347
0.2989499568939209
0.28512659668922424
0.27038729190826416
0.2553004026412964
0.24026939272880554
0.22559496760368347
0.21152417361736298
0.1982153207063675
0.18582531809806824
0.17455780506134033
0.16456963121891022
0.15594646334648132
0.14878159761428833
0.1431848555803299
0.13930228352546692
0.13733145594596863
0.13732285797595978
SCALARS torsion float
LOOKUP_TABLE default
0.47935405373573303
0.4788464307785034
0.45598289370536804
0.4162866175174713
0.36898937821388245
0.32141631841659546
0.2775396704673767
0.2387799620628357
0.20549198985099792
0.17751310765743256
0.15429985523223877
0.13478903472423553
0.11811266839504242
0.10360636562108994
0.0907164141535759
0.0788283422589302
0.06750834733247757
0.05680295079946518
0.046934112906455994
0.03753088042140007
0.02813478372991085
0.018519654870033264
0.008849387988448143
-0.000625568674877286
-0.010037820786237717
-0.019156241789460182
-0.028036518022418022
-0.03690190613269806
-0.046027399599552155
-0.05555594712495804
-0.06506459414958954
-0.07440425455570221
-0.08366678655147552
-0.09310159087181091
-0.1026865616440773
-0.11242064833641052
-0.12226586043834686
-0.13214333355426788
-0.14204947650432587
-0.15179945528507233
-0.16128334403038025
-0.17080548405647278
-0.18040959537029266
-0.1901504099369049
-0.20018120110034943
-0.2107400894165039
-0.22233770787715912
-0.23515304923057556
-0.24927979707717896
-0.26514869928359985
-0.28302639722824097
-0.3024769127368927
-0.3223109543323517
-0.3409876525402069
-0.3559962809085846
-0.3648791015148163
-0.36519521474838257
-0.3550952672958374
-0.3353939354419708
-0.30717983841896057
-0.2728363275527954
-0.235475093126297
-0.1981549859046936
-0.16240331530570984
-0.12875881791114807
-0.09728030860424042
-0.06784690171480179
-0.04182455316185951
-0.019125474616885185
0.0010846782242879272
0.0193756315857172
0.03634334355592728
0.051444683223962784
0.06407707184553146
0.07452648878097534
0.08227266371250153
0.08708222210407257
0.08884953707456589
0.08762693405151367
0.08352892845869064
0.07649703323841095
0.06647985428571701
0.053789325058460236
0.039859674870967865
0.02485433593392372
0.008679449558258057
-0.00883896928280592
-0.027816535905003548
-0.04666385427117348
-0.06530594825744629
-0.08369400352239609
-0.10165374726057053
-0.11925796419382095
-0.13592368364334106
-0.15184681117534637
-0.16671660542488098
-0.18005773425102234
-0.19202885031700134
-0.2035774141550064
-0.21499483287334442
-0.22651001811027527
-0.2381802201271057
-0.25047147274017334
-0.26470109820365906
-0.28043732047080994
-0.2970380485057831
-0.3139607608318329
-0.33016207814216614
-0.3438331186771393
-0.35242339968681335
-0.35340288281440735
-0.3462507724761963
