# vtk DataFile Version 2.0
Siphon segment
ASCII
DATASET POLYDATA
POINTS 73 float
99.64031219482422 66.51874542236328 23.157062530517578
99.8121566772461 66.33753967285156 22.990859985351562
99.99006652832031 66.16541290283203 22.82142448425293
100.17384338378906 66.00298309326172 22.64870834350586
100.3633041381836 65.85106658935547 22.472612380981445
100.55827331542969 65.71067810058594 22.292991638183594
100.75852966308594 65.5831069946289 22.109683990478516
100.96378326416016 65.4698486328125 21.922544479370117
101.17362976074219 65.37275695800781 21.731468200683594
101.3874740600586 65.29390716552734 21.536483764648438
101.60446166992188 65.23554992675781 21.337818145751953
101.82344055175781 65.20023345947266 21.13595962524414
102.0428695678711 65.19094848632812 20.931747436523438
102.26070404052734 65.21016693115234 20.726564407348633
102.47437286376953 65.26070404052734 20.522357940673828
102.68079376220703 65.34461975097656 20.321760177612305
102.87652587890625 65.46300506591797 20.127992630004883
103.0580062866211 65.61578369140625 19.944725036621094
103.221923828125 65.80131530761719 19.775707244873047
103.36566162109375 66.01646423339844 19.624338150024414
103.48760223388672 66.25690460205078 19.493228912353516
103.58726501464844 66.51769256591797 19.383935928344727
103.66519927978516 66.7938461303711 19.29693031311035
103.72265625 67.08087158203125 19.231815338134766
103.76168823242188 67.37483978271484 19.187124252319336
103.78424072265625 67.67278289794922 19.161256790161133
103.79258728027344 67.97246551513672 19.151987075805664
103.78861999511719 68.27235412597656 19.157257080078125
103.77430725097656 68.57147216796875 19.174665451049805
103.75131225585938 68.86932373046875 19.201904296875
103.72107696533203 69.16575622558594 19.236679077148438
103.684814453125 69.46084594726562 19.27669906616211
103.64354705810547 69.75486755371094 19.319669723510742
103.59807586669922 70.04817199707031 19.3632869720459
103.54906463623047 70.34115600585938 19.40522003173828
103.49699401855469 70.63414764404297 19.443147659301758
103.44221496582031 70.92739868164062 19.474761962890625
103.38494110107422 71.22096252441406 19.497793197631836
103.32528686523438 71.51470184326172 19.50998878479004
103.26335144042969 71.8082046508789 19.509483337402344
103.19918060302734 72.10084533691406 19.49447250366211
103.13282775878906 72.39173889160156 19.463603973388672
103.06439971923828 72.67987060546875 19.415931701660156
102.99407196044922 72.96410369873047 19.350860595703125
102.92208862304688 73.24333953857422 19.26830291748047
102.84878540039062 73.51648712158203 19.168354034423828
102.77458953857422 73.78260040283203 19.051523208618164
102.69998168945312 74.040771484375 18.91827964782715
102.62550354003906 74.29033660888672 18.769474029541016
102.55174255371094 74.53052520751953 18.60563850402832
102.47925567626953 74.76091003417969 18.427751541137695
102.40860748291016 74.98094177246094 18.236520767211914
102.34032440185547 75.19021606445312 18.032758712768555
102.27482604980469 75.38845825195312 17.8173770904541
102.21251678466797 75.57527923583984 17.59111976623535
102.15362548828125 75.75055694580078 17.354923248291016
102.09828186035156 75.91419219970703 17.109683990478516
102.0465316772461 76.06600189208984 16.856197357177734
101.99819946289062 76.20618438720703 16.595434188842773
101.95301818847656 76.33485412597656 16.328248977661133
101.91060638427734 76.45216369628906 16.055437088012695
101.87043762207031 76.55858612060547 15.777861595153809
101.83191680908203 76.65451049804688 15.49625015258789
101.7944107055664 76.74044799804688 15.211297035217285
101.75726318359375 76.8171157836914 14.923661231994629
101.71984100341797 76.88516235351562 14.633895874023438
101.68162536621094 76.94542694091797 14.342514991760254
101.64219665527344 76.99880981445312 14.049955368041992
101.60127258300781 77.04618835449219 13.75656509399414
101.55879211425781 77.08860778808594 13.46263599395752
101.5148696899414 77.12705993652344 13.168373107910156
101.4698257446289 77.16255187988281 12.873905181884766
101.42423248291016 77.19609832763672 12.57929515838623
LINES 1 74
73 0 1 2 3 4 5 6 7 8 9 10 11 12 13 14 15 16 17 18 19 20 21 22 23 24 25 26 27 28 29 30 31 32 33 34 35 36 37 38 39 40 41 42 43 44 45 46 47 48 49 50 51 52 53 54 55 56 57 58 59 60 61 62 63 64 65 66 67 68 69 70 71 72

POINT_DATA 73
SCALARS curvature float
LOOKUP_TABLE default
0.12660211324691772
0.12781913578510284
0.1315171867609024
0.13793088495731354
0.14723928272724152
0.15954193472862244
0.17488178610801697
0.19323496520519257
0.21455751359462738
0.2387196570634842
0.2655300498008728
0.2946312725543976
0.3253229856491089
0.3563913404941559
0.38617634773254395
0.41242456436157227
0.43258771300315857
0.4441997706890106
0.44552990794181824
0.4362083077430725
0.41720500588417053
0.3904905617237091
0.35844793915748596
0.3234308362007141
0.2872956693172455
0.2512759864330292
0.21609526872634888
0.1821184605360031
0.14960908889770508
0.11882801353931427
0.09030954539775848
0.06552624702453613
0.048646584153175354
0.04729603976011276
0.061246056109666824
0.08206338435411453
0.10463038831949234
0.12674538791179657
0.1472366452217102
0.16527999937534332
0.1801915019750595
0.19156235456466675
0.19929933547973633
0.2036510407924652
0.20515994727611542
0.2044817954301834
0.20232143998146057
0.19927868247032166
0.19583196938037872
0.19227243959903717
0.18873855471611023
0.18522585928440094
0.18166173994541168
0.17793604731559753
0.17386887967586517
0.16925454139709473
0.16395720839500427
0.15788312256336212
0.1510172039270401
0.14339414238929749
0.1351163536310196
0.1263369768857956
0.11721409112215042
0.10788632184267044
0.09843442589044571
0.08886364102363586
0.07909983396530151
0.06901063770055771
0.05841740593314171
0.04717456176877022
0.0351971834897995
0.02270571142435074
0.011380435898900032
SCALARS torsion float
LOOKUP_TABLE default
-0.053887221962213516
-0.06265973299741745
-0.07172847539186478
-0.07946841418743134
-0.08321881294250488
-0.08332610130310059
-0.07932595163583755
-0.07274843007326126
-0.0640195682644844
-0.054251253604888916
-0.0439276248216629
-0.03319578990340233
-0.02191231958568096
-0.010189052671194077
0.0019036749145016074
0.013952655717730522
0.02578187920153141
0.03650891035795212
0.04575767368078232
0.052676569670438766
0.05684882029891014
0.05801450461149216
0.056043192744255066
0.050730686634778976
0.04188835993409157
0.02801474556326866
0.006180614233016968
-0.028726045042276382
-0.0874210000038147
-0.19340954720973969
-0.4043784439563751
-0.8536113500595093
-1.6221942901611328
-1.7147436141967773
-0.9730808734893799
-0.4877870976924896
-0.25150829553604126
-0.13256080448627472
-0.0681850016117096
-0.031749479472637177
-0.011817160993814468
-0.0034239748492836952
-0.0034396990668028593
-0.009601484052836895
-0.019957462325692177
-0.032614629715681076
-0.045496001839637756
-0.05716316029429436
-0.0657963827252388
-0.07051943987607956
-0.07047681510448456
-0.06561670452356339
-0.05683121085166931
-0.04409174248576164
-0.02726300060749054
-0.006698383949697018
0.01687438413500786
0.04332868009805679
0.07252733409404755
0.10378525406122208
0.1367034763097763
0.16948868334293365
0.20067493617534637
0.22695723176002502
0.2456788271665573
0.2547048330307007
0.25138142704963684
0.23436911404132843
0.19647321105003357
0.1205325648188591
-0.0476972758769989
-0.5660416483879089
-3.21614933013916
