# vtk DataFile Version 2.0
Siphon segment
ASCII
DATASET POLYDATA
POINTS 85 float
82.05509948730469 68.16937255859375 33.38087463378906
81.96394348144531 67.9070816040039 33.26732635498047
81.869384765625 67.64631652832031 33.153053283691406
81.77130126953125 67.38740539550781 33.03753662109375
81.66951751708984 67.13069152832031 32.92033767700195
81.56376647949219 66.87654876708984 32.80105972290039
81.45378875732422 66.6253890991211 32.6793212890625
81.33940124511719 66.37760925292969 32.554752349853516
81.22048950195312 66.1336669921875 32.426902770996094
81.09699249267578 65.89408111572266 32.295204162597656
80.96903991699219 65.6594009399414 32.15902328491211
80.83690643310547 65.43020629882812 32.01758575439453
80.70100402832031 65.20719146728516 31.869985580444336
80.5618896484375 64.99116516113281 31.715164184570312
80.42033386230469 64.78300476074219 31.552005767822266
80.27728271484375 64.58370971679688 31.3793888092041
80.13382720947266 64.3944091796875 31.196176528930664
79.99127197265625 64.21643829345703 31.001293182373047
79.85111999511719 64.05133819580078 30.793764114379883
79.71501159667969 63.90060806274414 30.57304573059082
79.5847396850586 63.76593017578125 30.338850021362305
79.46231079101562 63.649288177490234 30.09115219116211
79.34957122802734 63.55219650268555 29.830760955810547
79.24849700927734 63.47639846801758 29.55878257751465
79.1608657836914 63.42332077026367 29.276945114135742
79.08819580078125 63.39398956298828 28.98749351501465
79.03187561035156 63.38932800292969 28.692996978759766
78.9926986694336 63.409454345703125 28.39638328552246
78.97146606445312 63.45456314086914 28.100690841674805
78.96818542480469 63.52385330200195 27.808956146240234
78.9830551147461 63.61681365966797 27.524246215820312
79.01544952392578 63.73197937011719 27.24927520751953
79.06485748291016 63.86806106567383 26.98666000366211
79.13037109375 64.0234146118164 26.738664627075195
79.21080780029297 64.19615936279297 26.507104873657227
79.30498504638672 64.38459014892578 26.29364776611328
79.41141510009766 64.58680725097656 26.099435806274414
79.52848815917969 64.80101013183594 25.925209045410156
79.65452575683594 65.02556610107422 25.771459579467773
79.78780364990234 65.25904846191406 25.63849639892578
79.92642974853516 65.50012969970703 25.526155471801758
80.06848907470703 65.74771881103516 25.434083938598633
80.21202087402344 66.00096893310547 25.361766815185547
80.35503387451172 66.25919342041016 25.308509826660156
80.4954605102539 66.52191925048828 25.273496627807617
80.6312484741211 66.78878021240234 25.255647659301758
80.76038360595703 67.05950927734375 25.253646850585938
80.88089752197266 67.33390808105469 25.26601791381836
80.99093627929688 67.61183166503906 25.291061401367188
81.0887222290039 67.89313507080078 25.326902389526367
81.1728515625 68.17760467529297 25.37133026123047
81.24217987060547 68.46501922607422 25.421977996826172
81.29585266113281 68.75508880615234 25.476346969604492
81.33328247070312 69.0474853515625 25.531835556030273
81.35431671142578 69.34180450439453 25.58576202392578
81.35914611816406 69.6375732421875 25.63548469543457
81.34815979003906 69.93424224853516 25.678409576416016
81.32184600830078 70.23114776611328 25.711950302124023
81.2809829711914 70.52750396728516 25.73368263244629
81.22647094726562 70.82234954833984 25.741348266601562
81.15918731689453 71.11450958251953 25.732751846313477
81.08004760742188 71.40254974365234 25.705793380737305
80.99018859863281 71.68482208251953 25.65892219543457
80.890625 71.95933532714844 25.590557098388672
80.78256225585938 72.2239761352539 25.499847412109375
80.66722106933594 72.47644805908203 25.38631820678711
80.54591369628906 72.71456909179688 25.250246047973633
80.41999053955078 72.93634033203125 25.092466354370117
80.29078674316406 73.14031219482422 24.914588928222656
80.1595687866211 73.32545471191406 24.718503952026367
80.02751159667969 73.49160766601562 24.506595611572266
79.89561462402344 73.63906860351562 24.28117561340332
79.76469421386719 73.76876068115234 24.044519424438477
79.63540649414062 73.8821029663086 23.798736572265625
79.50827026367188 73.98063659667969 23.545541763305664
79.3836441040039 74.0661392211914 23.28642463684082
79.26177978515625 74.14048767089844 23.0225887298584
79.14283752441406 74.20549011230469 22.75497055053711
79.02688598632812 74.26287841796875 22.484310150146484
78.91392517089844 74.31425476074219 22.2111873626709
78.80384826660156 74.36112976074219 21.936079025268555
78.69644927978516 74.40486145019531 21.659399032592773
78.5914077758789 74.44664001464844 21.381513595581055
78.48829650878906 74.48745727539062 21.102764129638672
78.38654327392578 74.52814483642578 20.823495864868164
LINES 1 86
85 0 1 2 3 4 5 6 7 8 9 10 11 12 13 14 15 16 17 18 19 20 21 22 23 24 25 26 27 28 29 30 31 32 33 34 35 36 37 38 39 40 41 42 43 44 45 46 47 48 49 50 51 52 53 54 55 56 57 58 59 60 61 62 63 64 65 66 67 68 69 70 71 72 73 74 75 76 77 78 79 80 81 82 83 84

POINT_DATA 85
SCALARS curvature float
LOOKUP_TABLE default
0.04000435024499893
0.042116448283195496
0.04625212401151657
0.05154196172952652
0.05742044001817703
0.06355646997690201
0.06976810842752457
0.07601390033960342
0.08240504562854767
0.08923180401325226
0.09691411256790161
0.10597395151853561
0.11686074733734131
0.12990425527095795
0.1451708972454071
0.16251352429389954
0.1815764307975769
0.2018812894821167
0.22285541892051697
0.24381990730762482
0.2640482783317566
0.2828018367290497
0.29945942759513855
0.3135157823562622
0.3246629238128662
0.33279475569725037
0.3379375636577606
0.3403856158256531
0.340445876121521
0.3385215401649475
0.33487850427627563
0.3297227621078491
0.32317981123924255
0.3154039680957794
0.3065255284309387
0.29666969180107117
0.2860140800476074
0.27477651834487915
0.2632046341896057
0.2515738904476166
0.2401837557554245
0.22933952510356903
0.21931780874729156
0.2103685885667801
0.20267322659492493
0.19633173942565918
0.1913205236196518
0.18753114342689514
0.18483620882034302
0.18308211863040924
0.18213142454624176
0.1819254755973816
0.18255192041397095
0.18424761295318604
0.1873762160539627
0.19229131937026978
0.1992686688899994
0.2084355354309082
0.21969783306121826
0.23274318873882294
0.24705109000205994
0.2618878483772278
0.27630415558815
0.2891787886619568
0.2992764115333557
0.30538615584373474
0.30650627613067627
0.3020499646663666
0.2920265197753906
0.2769847512245178
0.2578807771205902
0.2357863038778305
0.21190746128559113
0.18734660744667053
0.16301219165325165
0.13960398733615875
0.11762087047100067
0.09742416441440582
0.07923228293657303
0.06317248195409775
0.04923209547996521
0.03728615492582321
0.027154497802257538
0.01890428178012371
0.013825904577970505
SCALARS torsion float
LOOKUP_TABLE default
0.6642259955406189
0.5072746872901917
0.3394150733947754
0.21546855568885803
0.1493503749370575
0.12917093932628632
0.14356353878974915
0.1788138449192047
0.22137288749217987
0.2635408937931061
0.2969837784767151
0.315181165933609
0.3143919110298157
0.2973956763744354
0.2694621682167053
0.23659799993038177
0.20319421589374542
0.17189151048660278
0.143583282828331
0.1185363233089447
0.096281997859478
0.07681801915168762
0.05948518589138985
0.0446200892329216
0.031791508197784424
0.021192017942667007
0.012610594742000103
0.006088979542255402
0.001150422845967114
-0.0026308309752494097
-0.006086298730224371
-0.00977447908371687
-0.014808409847319126
-0.021797586232423782
-0.031791675835847855
-0.045440707355737686
-0.06346984952688217
-0.0864463523030281
-0.11456067860126495
-0.1481785625219345
-0.18669600784778595
-0.22956940531730652
-0.2750658690929413
-0.3213784992694855
-0.3658245801925659
-0.4059262275695801
-0.43962493538856506
-0.466418594121933
-0.4863269329071045
-0.5003557801246643
-0.5098296999931335
-0.5150846838951111
-0.5158756971359253
-0.510176956653595
-0.4958752989768982
-0.47105225920677185
-0.43577730655670166
-0.39171352982521057
-0.3419613242149353
-0.29033052921295166
-0.23960523307323456
-0.19247105717658997
-0.14996403455734253
-0.1130305677652359
-0.08205622434616089
-0.05713505670428276
-0.03861246258020401
-0.02630792371928692
-0.019884267821907997
-0.019168497994542122
-0.02364356443285942
-0.033526450395584106
-0.0485646091401577
-0.06934407353401184
-0.0962652787566185
-0.13064779341220856
-0.17374461889266968
-0.22757916152477264
-0.2934701144695282
-0.37419095635414124
-0.4714636206626892
-0.5983405113220215
-0.7915714979171753
-1.1833113431930542
-1.8504902124404907
