# vtk DataFile Version 2.0
Siphon segment
ASCII
DATASET POLYDATA
POINTS 65 float
98.85392761230469 58.776222229003906 22.780179977416992
98.97950744628906 58.63525390625 22.547067642211914
99.1091537475586 58.50677490234375 22.309019088745117
99.24179077148438 58.3914680480957 22.06592559814453
99.37614440917969 58.290096282958984 21.817626953125
99.51078796386719 58.203514099121094 21.56395149230957
99.64414978027344 58.132877349853516 21.304723739624023
99.7745132446289 58.07921600341797 21.03997039794922
99.90001678466797 58.04386901855469 20.769851684570312
100.01875305175781 58.02793884277344 20.49488639831543
100.12879943847656 58.03245544433594 20.215919494628906
100.22824096679688 58.05835723876953 19.934158325195312
100.3155288696289 58.10588455200195 19.651199340820312
100.38935089111328 58.1750602722168 19.368871688842773
100.44876098632812 58.265560150146484 19.08918571472168
100.49345397949219 58.376399993896484 18.814123153686523
100.52344512939453 58.5065803527832 18.545604705810547
100.5390853881836 58.65501022338867 18.285465240478516
100.54127502441406 58.82036590576172 18.035255432128906
100.53089141845703 59.00168991088867 17.796573638916016
100.50926971435547 59.19786834716797 17.57073974609375
100.47781372070312 59.40801239013672 17.35905647277832
100.43814086914062 59.63130569458008 17.162778854370117
100.3921127319336 59.866790771484375 16.982807159423828
100.34165954589844 60.113685607910156 16.820138931274414
100.28894805908203 60.37086486816406 16.675071716308594
100.23611450195312 60.63722229003906 16.54767608642578
100.18531036376953 60.91155242919922 16.43753433227539
100.13848876953125 61.19249725341797 16.343441009521484
100.09744262695312 61.47880554199219 16.26394271850586
100.06359100341797 61.769222259521484 16.19690704345703
100.03800964355469 62.06262969970703 16.139930725097656
100.02147674560547 62.35802459716797 16.090370178222656
100.01426696777344 62.6545295715332 16.04536247253418
100.01651000976562 62.95136642456055 16.0020694732666
100.02780151367188 63.247833251953125 15.957664489746094
100.04773712158203 63.543235778808594 15.909374237060547
100.07540893554688 63.83689498901367 15.854703903198242
100.10994720458984 64.12803649902344 15.7911958694458
100.15015411376953 64.41585540771484 15.716843605041504
100.19480895996094 64.69942474365234 15.629816055297852
100.2425537109375 64.977783203125 15.528749465942383
100.29205322265625 65.2499771118164 15.412822723388672
100.3420181274414 65.51496124267578 15.281440734863281
100.39131927490234 65.77198028564453 15.134868621826172
100.43901824951172 66.02032470703125 14.973543167114258
100.48442077636719 66.2594985961914 14.798296928405762
100.52710723876953 66.48932647705078 14.610323905944824
100.56686401367188 66.70967102050781 14.410696983337402
100.603759765625 66.92080688476562 14.20083236694336
100.6379623413086 67.12290954589844 13.98180866241455
100.66985321044922 67.31652069091797 13.754899978637695
100.6998291015625 67.50199127197266 13.521034240722656
100.72843170166016 67.67997741699219 13.28125
100.75613403320312 67.8509521484375 13.036314010620117
100.78343200683594 68.01557922363281 12.787015914916992
100.81075286865234 68.17442321777344 12.533997535705566
100.83843231201172 68.32814025878906 12.277870178222656
100.86672973632812 68.47738647460938 12.019177436828613
100.89579010009766 68.62284088134766 11.758414268493652
100.9256591796875 68.76519775390625 11.496037483215332
100.95628356933594 68.90515899658203 11.23245906829834
100.98754119873047 69.04341125488281 10.968055725097656
101.01927947998047 69.18061065673828 10.703163146972656
101.05136108398438 69.31736755371094 10.438078880310059
LINES 1 66
65 0 1 2 3 4 5 6 7 8 9 10 11 12 13 14 15 16 17 18 19 20 21 22 23 24 25 26 27 28 29 30 31 32 33 34 35 36 37 38 39 40 41 42 43 44 45 46 47 48 49 50 51 52 53 54 55 56 57 58 59 60 61 62 63 64

POINT_DATA 65
SCALARS curvature float
LOOKUP_TABLE default
0.15527766942977905
0.15647253394126892
0.15993812680244446
0.1662549376487732
0.1756920963525772
0.18810102343559265
0.2029598504304886
0.2193601280450821
0.2362671047449112
0.2524837851524353
0.26666420698165894
0.27753129601478577
0.2843021750450134
0.2867133617401123
0.285117506980896
0.2803914546966553
0.2736283242702484
0.26604145765304565
0.2586601972579956
0.25212976336479187
0.24673287570476532
0.24235676229000092
0.2385212779045105
0.2344323843717575
0.22919754683971405
0.22197803854942322
0.21212248504161835
0.19935117661952972
0.184180349111557
0.16730278730392456
0.14949671924114227
0.1321183741092682
0.11709041148424149
0.10654285550117493
0.10243784636259079
0.10538402944803238
0.11437773704528809
0.127317413687706
0.14212709665298462
0.1569855958223343
0.17042654752731323
0.1812347173690796
0.18861664831638336
0.19204872846603394
0.19149230420589447
0.18717226386070251
0.17965519428253174
0.16970349848270416
0.1581260710954666
0.14563758671283722
0.13278815150260925
0.12009476125240326
0.10797304660081863
0.09661083668470383
0.0860736221075058
0.07626967132091522
0.06702569872140884
0.05812346562743187
0.0493721142411232
0.04063642397522926
0.03190586715936661
0.023314857855439186
0.015200146473944187
0.008226620964705944
0.004724522121250629
SCALARS torsion float
LOOKUP_TABLE default
-0.16767151653766632
-0.22041107714176178
-0.2574211657047272
-0.2742670476436615
-0.2703340947628021
-0.25046345591545105
-0.22087790071964264
-0.18789048492908478
-0.15602627396583557
-0.1260979324579239
-0.09798894077539444
-0.07180553674697876
-0.04672541096806526
-0.021867789328098297
0.004145607817918062
0.03271663933992386
0.06396368891000748
0.0968828946352005
0.13129796087741852
0.16684024035930634
0.20122115314006805
0.23338449001312256
0.2609102427959442
0.28481513261795044
0.30648818612098694
0.32827290892601013
0.35281652212142944
0.3862271308898926
0.4325058162212372
0.4963650405406952
0.5870177149772644
0.7101824283599854
0.8589715361595154
0.9958925843238831
1.0461833477020264
0.9683273434638977
0.8119401335716248
0.6480309367179871
0.5123484134674072
0.4083193242549896
0.3287525177001953
0.2663918137550354
0.2155529260635376
0.1724589318037033
0.1341300755739212
0.09923949837684631
0.06568551063537598
0.03423143923282623
0.0030198462773114443
-0.03050035610795021
-0.0665862038731575
-0.10209965705871582
-0.13578496873378754
-0.16515900194644928
-0.1873091161251068
-0.19838036596775055
-0.20096731185913086
-0.19496318697929382
-0.18273721635341644
-0.1651851236820221
-0.15304365754127502
-0.16469192504882812
-0.28096604347229004
-0.8826863169670105
0.0
