# vtk DataFile Version 2.0
Siphon segment
ASCII
DATASET POLYDATA
POINTS 62 float
90.51336669921875 79.21737670898438 34.443817138671875
90.34549713134766 79.1764907836914 34.19862747192383
90.17005157470703 79.1519775390625 33.956581115722656
89.98735809326172 79.14404296875 33.71881866455078
89.79769897460938 79.15325164794922 33.486629486083984
89.60160064697266 79.17990112304688 33.26124572753906
89.39961242675781 79.22459411621094 33.044071197509766
89.19239044189453 79.28839874267578 32.836849212646484
88.98092651367188 79.37201690673828 32.641300201416016
88.76647186279297 79.47660827636719 32.45961380004883
88.55072784423828 79.60292053222656 32.29399490356445
88.3359146118164 79.7520980834961 32.14728546142578
88.12482452392578 79.92420959472656 32.02189636230469
87.9207763671875 80.11896514892578 31.920272827148438
87.7274169921875 80.33513641357422 31.84429931640625
87.54837036132812 80.57047271728516 31.79488182067871
87.38670349121094 80.8218994140625 31.771677017211914
87.24458312988281 81.0859146118164 31.773054122924805
87.12300872802734 81.35904693603516 31.79631996154785
87.02201843261719 81.6383056640625 31.838211059570312
86.94071197509766 81.92133331298828 31.895092010498047
86.87748718261719 82.20649719238281 31.963302612304688
86.83097076416016 82.49280548095703 32.039703369140625
86.79907989501953 82.77974700927734 32.121124267578125
86.78023529052734 83.06718444824219 32.20486831665039
86.77279663085938 83.35520935058594 32.28837585449219
86.77511596679688 83.64408111572266 32.369258880615234
86.78575134277344 83.93409729003906 32.445213317871094
86.8033676147461 84.22559356689453 32.51384353637695
86.8265609741211 84.51880645751953 32.57279586791992
86.85397338867188 84.81381225585938 32.619686126708984
86.88427734375 85.11050415039062 32.65188980102539
86.91609191894531 85.40838623046875 32.66674041748047
86.94802856445312 85.70657348632812 32.661766052246094
86.97866821289062 86.00365447998047 32.63431167602539
87.00666046142578 86.29768371582031 32.58232498168945
87.03076934814453 86.58626556396484 32.50438690185547
87.04997253417969 86.86659240722656 32.39961624145508
87.06355285644531 87.13580322265625 32.26821517944336
87.07122039794922 87.39132690429688 32.11146926879883
87.072998046875 87.63099670410156 31.931236267089844
87.0692138671875 87.85311126708984 31.729774475097656
87.06040954589844 88.05650329589844 31.509557723999023
87.04735565185547 88.24079895019531 31.2733211517334
87.03079223632812 88.40570831298828 31.023351669311523
87.01154327392578 88.55140686035156 30.761898040771484
86.99040985107422 88.6783447265625 30.490966796875
86.9681167602539 88.78699493408203 30.212282180786133
86.94534301757812 88.87808990478516 29.927406311035156
86.92269134521484 88.95252227783203 29.637714385986328
86.90068817138672 89.0109634399414 29.34432029724121
86.8797378540039 89.05463409423828 29.048288345336914
86.86017608642578 89.08448791503906 28.750446319580078
86.84223175048828 89.10163116455078 28.451496124267578
86.82600402832031 89.10740661621094 28.152009963989258
86.81150817871094 89.10301208496094 27.852405548095703
86.79864501953125 89.08976745605469 27.5529842376709
86.78719329833984 89.06912994384766 27.253921508789062
86.77684783935547 89.0424575805664 26.955293655395508
86.76719665527344 89.01116943359375 26.657087326049805
86.75775909423828 88.97673797607422 26.359220504760742
86.74797821044922 88.9405517578125 26.06157112121582
LINES 1 63
62 0 1 2 3 4 5 6 7 8 9 10 11 12 13 14 15 16 17 18 19 20 21 22 23 24 25 26 27 28 29 30 31 32 33 34 35 36 37 38 39 40 41 42 43 44 45 46 47 48 49 50 51 52 53 54 55 56 57 58 59 60 61

POINT_DATA 62
SCALARS curvature float
LOOKUP_TABLE default
0.20327028632164001
0.20404386520385742
0.20727187395095825
0.21319164335727692
0.22201299667358398
0.2337944507598877
0.24857838451862335
0.26638615131378174
0.2869725525379181
0.30978333950042725
0.3337468206882477
0.3572235405445099
0.3778122663497925
0.3926314115524292
0.39879173040390015
0.3943604528903961
0.3790628910064697
0.3543088734149933
0.3226352334022522
0.28710800409317017
0.2505277693271637
0.21501515805721283
0.18222396075725555
0.1534181535243988
0.13016670942306519
0.11452638357877731
0.10862932354211807
0.11334756761789322
0.12735572457313538
0.14794427156448364
0.17268908023834229
0.19985270500183105
0.22794209420681
0.25551581382751465
0.2809106409549713
0.30230748653411865
0.31796765327453613
0.3267216384410858
0.3283112645149231
0.3234623968601227
0.3135547637939453
0.3001735210418701
0.2848130464553833
0.268688440322876
0.25262442231178284
0.23709577322006226
0.22230632603168488
0.20823617279529572
0.19475309550762177
0.181667298078537
0.16875170171260834
0.15576231479644775
0.14248700439929962
0.12876859307289124
0.11450407654047012
0.09968280047178268
0.08435960859060287
0.0686669796705246
0.05286350101232529
0.03751683235168457
0.02430674061179161
0.01922922395169735
SCALARS torsion float
LOOKUP_TABLE default
-0.0717681348323822
-0.06259434670209885
-0.05084318667650223
-0.03715824708342552
-0.022728104144334793
-0.00799648743122816
0.005992724560201168
0.0191021841019392
0.0315837599337101
0.04384729266166687
0.055889666080474854
0.06731797754764557
0.07853866368532181
0.08964818716049194
0.10106974095106125
0.11327746510505676
0.12711337208747864
0.14408262073993683
0.16638745367527008
0.19641679525375366
0.23870298266410828
0.2991737425327301
0.3875616490840912
0.5137834548950195
0.6803573966026306
0.8500339984893799
0.9258933663368225
0.8437163829803467
0.6682256460189819
0.4962581694126129
0.3649572730064392
0.27095505595207214
0.20381952822208405
0.15415477752685547
0.11530070751905441
0.08314413577318192
0.05498306825757027
0.030431659892201424
0.008190766908228397
-0.011353832669556141
-0.028719911351799965
-0.04409145563840866
-0.057672832161188126
-0.06925603002309799
-0.07873183488845825
-0.08587907254695892
-0.09041476249694824
-0.09268844872713089
-0.09315156936645508
-0.0916861817240715
-0.08846255391836166
-0.08312148600816727
-0.07562076300382614
-0.06484833359718323
-0.05015471205115318
-0.02921791933476925
0.0030078336130827665
0.05556698143482208
0.1578068882226944
0.40036284923553467
1.0633293390274048
1.7454798221588135
