# vtk DataFile Version 2.0
Siphon segment
ASCII
DATASET POLYDATA
POINTS 52 float
91.37013244628906 77.54517364501953 29.80967140197754
91.16290283203125 77.46517944335938 29.608118057250977
90.94435119628906 77.39967346191406 29.413408279418945
90.71568298339844 77.34993743896484 29.225784301757812
90.47836303710938 77.31697845458984 29.045351028442383
90.23387145996094 77.30191040039062 28.872268676757812
89.98383331298828 77.3056411743164 28.7066593170166
89.72998046875 77.32890319824219 28.54861068725586
89.47412872314453 77.37220001220703 28.3981990814209
89.2181167602539 77.43572235107422 28.255434036254883
88.96375274658203 77.51930236816406 28.12024688720703
88.71278381347656 77.62259674072266 27.99254608154297
88.46675872802734 77.74473571777344 27.872066497802734
88.22711181640625 77.88494873046875 27.758590698242188
87.99491882324219 78.0418701171875 27.651674270629883
87.7712173461914 78.2144546508789 27.55096435546875
87.55657196044922 78.40116882324219 27.455888748168945
87.35157775878906 78.60083770751953 27.36595916748047
87.15644073486328 78.81202697753906 27.280527114868164
86.97135162353516 79.0335464477539 27.198949813842773
86.79633331298828 79.26419830322266 27.120515823364258
86.6312484741211 79.5028305053711 27.04443359375
86.47607421875 79.74849700927734 26.969886779785156
86.33052825927734 80.00017547607422 26.895954132080078
86.1944351196289 80.2569808959961 26.82167625427246
86.06766510009766 80.51811981201172 26.74599838256836
85.94994354248047 80.7827377319336 26.66783905029297
85.84119415283203 81.05007934570312 26.586023330688477
85.74130249023438 81.31934356689453 26.499364852905273
85.65020751953125 81.58971405029297 26.406688690185547
85.56798553466797 81.86035919189453 26.30678367614746
85.49462890625 82.13038635253906 26.19865608215332
85.43034362792969 82.39885711669922 26.0812931060791
85.37516784667969 82.66484832763672 25.954063415527344
85.32928466796875 82.92741394042969 25.816452026367188
85.29275512695312 83.18567657470703 25.66831398010254
85.26557922363281 83.43890380859375 25.50981903076172
85.24777221679688 83.6864242553711 25.341310501098633
85.23905944824219 83.92790222167969 25.16356086730957
85.23931121826172 84.16304016113281 24.977294921875
85.24808502197266 84.3918685913086 24.783523559570312
85.26504516601562 84.61443328857422 24.583106994628906
85.2896728515625 84.83098602294922 24.37697982788086
85.32151794433594 85.0417251586914 24.165876388549805
85.35997772216797 85.24699401855469 23.950515747070312
85.40457153320312 85.44693756103516 23.731367111206055
85.45464324951172 85.64183807373047 23.50887680053711
85.50965881347656 85.83177185058594 23.283281326293945
85.56898498535156 86.01681518554688 23.054731369018555
85.63198852539062 86.19696807861328 22.823278427124023
85.69806671142578 86.37211608886719 22.588857650756836
85.76651000976562 86.5422134399414 22.351411819458008
LINES 1 53
52 0 1 2 3 4 5 6 7 8 9 10 11 12 13 14 15 16 17 18 19 20 21 22 23 24 25 26 27 28 29 30 31 32 33 34 35 36 37 38 39 40 41 42 43 44 45 46 47 48 49 50 51

POINT_DATA 52
SCALARS curvature float
LOOKUP_TABLE default
0.21805869042873383
0.2192728966474533
0.2218387871980667
0.22541148960590363
0.22952152788639069
0.23362937569618225
0.23718447983264923
0.23965346813201904
0.24059484899044037
0.23969578742980957
0.2368859350681305
0.23220284283161163
0.22578240931034088
0.21782927215099335
0.20864899456501007
0.1985572725534439
0.18789546191692352
0.1769452840089798
0.1659669280052185
0.15519413352012634
0.14487534761428833
0.1352906972169876
0.12679138779640198
0.11976435035467148
0.11466784030199051
0.11198766529560089
0.11204031109809875
0.1149304136633873
0.12037986516952515
0.12779325246810913
0.13634546101093292
0.1450957953929901
0.15313689410686493
0.15966007113456726
0.16398747265338898
0.16564838588237762
0.16441954672336578
0.16040830314159393
0.15404029190540314
0.14587660133838654
0.13657408952713013
0.12676170468330383
0.11697740852832794
0.1076381504535675
0.09902983903884888
0.0913705974817276
0.08480923622846603
0.07949890196323395
0.0755002498626709
0.07280503213405609
0.07129750400781631
0.07074248790740967
SCALARS torsion float
LOOKUP_TABLE default
0.1758665293455124
0.18592512607574463
0.1905098259449005
0.19016273319721222
0.18593129515647888
0.17892946302890778
0.17036496102809906
0.16100084781646729
0.15138335525989532
0.14249201118946075
0.13460984826087952
0.1278955638408661
0.12238973379135132
0.1187257170677185
0.11727021634578705
0.11920613050460815
0.12517935037612915
0.13640590012073517
0.1539151668548584
0.1790555864572525
0.2123885601758957
0.25426292419433594
0.303573876619339
0.3571414649486542
0.40723705291748047
0.4431777894496918
0.45307084918022156
0.43305400013923645
0.3879487216472626
0.3286213278770447
0.26502132415771484
0.20523957908153534
0.1522228866815567
0.10644306987524033
0.06656476855278015
0.032021258026361465
0.0018162234919145703
-0.022742759436368942
-0.041981086134910583
-0.05489542335271835
-0.06042972579598427
-0.05634871870279312
-0.042353205382823944
-0.01637209579348564
0.020986394956707954
0.07092448323965073
0.13137097656726837
0.19802197813987732
0.2607099711894989
0.31243211030960083
0.34837231040000916
0.3704147934913635
