# vtk DataFile Version 2.0
Siphon segment
ASCII
DATASET POLYDATA
POINTS 83 float
83.02345275878906 66.15780639648438 32.379119873046875
83.07489013671875 65.88761138916016 32.2593994140625
83.11698913574219 65.62017822265625 32.130210876464844
83.15054321289062 65.35678100585938 31.99065399169922
83.17615509033203 65.09870147705078 31.83991813659668
83.19420623779297 64.84732818603516 31.6772403717041
83.20497131347656 64.60393524169922 31.50225257873535
83.20848846435547 64.36986541748047 31.314714431762695
83.2045669555664 64.14645385742188 31.11461639404297
83.1928482055664 63.93501281738281 30.902191162109375
83.17272186279297 63.736915588378906 30.677871704101562
83.14346313476562 63.553462982177734 30.4423885345459
83.10420227050781 63.38596725463867 30.19670295715332
83.05390930175781 63.2358283996582 29.941984176635742
82.99148559570312 63.10455322265625 29.67965316772461
82.915771484375 62.99378204345703 29.411439895629883
82.8256607055664 62.905303955078125 29.13943862915039
82.72012329101562 62.84114074707031 28.866178512573242
82.59848022460938 62.803340911865234 28.594728469848633
82.46063232421875 62.793678283691406 28.32863998413086
82.30699157714844 62.8139533996582 28.07198715209961
82.13897705078125 62.8651008605957 27.829015731811523
81.95887756347656 62.947265625 27.603879928588867
81.7697982788086 63.059364318847656 27.400012969970703
81.57527923583984 63.19948959350586 27.219980239868164
81.37895202636719 63.36461639404297 27.064781188964844
81.18412017822266 63.55155944824219 26.934377670288086
80.99352264404297 63.75700378417969 26.82762336730957
80.80924224853516 63.97776412963867 26.742504119873047
80.63275146484375 64.2111587524414 26.67672348022461
80.46499633789062 64.45494079589844 26.627775192260742
80.3065185546875 64.70723724365234 26.593103408813477
80.15753936767578 64.96658325195312 26.570213317871094
80.01805114746094 65.23180389404297 26.556716918945312
79.88787841796875 65.50199890136719 26.55035400390625
79.76676177978516 65.77643585205078 26.548988342285156
79.65435028076172 66.0545654296875 26.550609588623047
79.55028533935547 66.3359146118164 26.553298950195312
79.45409393310547 66.62005615234375 26.555246353149414
79.36532592773438 66.90660858154297 26.554773330688477
79.2835464477539 67.19520568847656 26.550338745117188
79.20832061767578 67.48544311523438 26.540559768676758
79.13925170898438 67.77691650390625 26.524240493774414
79.07598876953125 68.06918334960938 26.500394821166992
79.01822662353516 68.3617935180664 26.46826934814453
78.96575164794922 68.65430450439453 26.427339553833008
78.91842651367188 68.94627380371094 26.377290725708008
78.87623596191406 69.23729705810547 26.317991256713867
78.83922576904297 69.52698516845703 26.249435424804688
78.80756378173828 69.81498718261719 26.171695709228516
78.78150177001953 70.10094451904297 26.084869384765625
78.76138305664062 70.38449096679688 25.989015579223633
78.7475814819336 70.66521453857422 25.884172439575195
78.74052429199219 70.9426498413086 25.77029037475586
78.74067687988281 71.21621704101562 25.647228240966797
78.74849700927734 71.48524475097656 25.51475715637207
78.76444244384766 71.74888610839844 25.3725643157959
78.78892517089844 72.00616455078125 25.220285415649414
78.822265625 72.25592041015625 25.057533264160156
78.86470031738281 72.49681854248047 24.883930206298828
78.91629028320312 72.72740936279297 24.69916534423828
78.9769058227539 72.94610595703125 24.50303840637207
79.04618835449219 73.15129089355469 24.295520782470703
79.1235122680664 73.34138488769531 24.0767765045166
79.20802307128906 73.5148696899414 23.84716033935547
79.29855346679688 73.67057037353516 23.607322692871094
79.39373779296875 73.80764770507812 23.358108520507812
79.4920883178711 73.92566680908203 23.100500106811523
79.59204864501953 74.02458190917969 22.835573196411133
79.69210052490234 74.10482025146484 22.564424514770508
79.7907943725586 74.16716766357422 22.288118362426758
79.8868408203125 74.21273803710938 22.00762939453125
79.97917938232422 74.24298858642578 21.723833084106445
80.06692504882812 74.2594985961914 21.43745994567871
80.14945983886719 74.26396942138672 21.149091720581055
80.2263412475586 74.2581558227539 20.859188079833984
80.29737091064453 74.24382019042969 20.568084716796875
80.36251068115234 74.22271728515625 20.276012420654297
80.42189025878906 74.196533203125 19.983121871948242
80.47579956054688 74.16690063476562 19.689502716064453
80.524658203125 74.1353759765625 19.39519500732422
80.56897735595703 74.1033935546875 19.100217819213867
80.60933685302734 74.0722885131836 18.804580688476562
LINES 1 84
83 0 1 2 3 4 5 6 7 8 9 10 11 12 13 14 15 16 17 18 19 20 21 22 23 24 25 26 27 28 29 30 31 32 33 34 35 36 37 38 39 40 41 42 43 44 45 46 47 48 49 50 51 52 53 54 55 56 57 58 59 60 61 62 63 64 65 66 67 68 69 70 71 72 73 74 75 76 77 78 79 80 81 82

POINT_DATA 83
SCALARS curvature float
LOOKUP_TABLE default
0.14996157586574554
0.15132936835289001
0.1562705934047699
0.16375188529491425
0.17273157835006714
0.18234090507030487
0.19196952879428864
0.20131468772888184
0.21036109328269958
0.21935926377773285
0.22877095639705658
0.2391953319311142
0.25125443935394287
0.265514612197876
0.2823583781719208
0.30189549922943115
0.32383018732070923
0.3473782539367676
0.3711297810077667
0.39304834604263306
0.4105461835861206
0.4210093915462494
0.42234694957733154
0.4138142168521881
0.39604583382606506
0.37105411291122437
0.3412874937057495
0.3092215955257416
0.27679601311683655
0.24538396298885345
0.21583181619644165
0.1886691153049469
0.1642133891582489
0.1427491456270218
0.12459015101194382
0.11014211922883987
0.09982198476791382
0.0938861146569252
0.09206556528806686
0.09357067197561264
0.09725753217935562
0.1019764244556427
0.10677744448184967
0.11101425439119339
0.11432705074548721
0.11663934588432312
0.11809968948364258
0.11901937425136566
0.11982769519090652
0.12097257375717163
0.1229073628783226
0.12598539888858795
0.1304832398891449
0.13652010262012482
0.14412277936935425
0.1531781107187271
0.16348797082901
0.17474129796028137
0.18653681874275208
0.19839653372764587
0.20975084602832794
0.21998527646064758
0.22844471037387848
0.23456498980522156
0.23784519731998444
0.23799261450767517
0.23489174246788025
0.22868402302265167
0.21966299414634705
0.20827682316303253
0.19500605762004852
0.18035903573036194
0.16478955745697021
0.14871226251125336
0.13246729969978333
0.11637665331363678
0.10073617845773697
0.08589628338813782
0.07229509949684143
0.06056128442287445
0.051552772521972656
0.04623597487807274
0.04506359249353409
SCALARS torsion float
LOOKUP_TABLE default
0.4505395293235779
0.41166505217552185
0.3468930125236511
0.2713621258735657
0.19548694789409637
0.1263791024684906
0.06462430953979492
0.011682145297527313
-0.0340457484126091
-0.07124112546443939
-0.10063384473323822
-0.12093512713909149
-0.13235773146152496
-0.13475316762924194
-0.12887366116046906
-0.11628451943397522
-0.09823212772607803
-0.07694146782159805
-0.05316741019487381
-0.02865932136774063
-0.0036005498841404915
0.02059337869286537
0.04385118931531906
0.06538266688585281
0.08541100472211838
0.10421567410230637
0.12268111109733582
0.14183306694030762
0.16351959109306335
0.18945376574993134
0.22238653898239136
0.26483678817749023
0.3206367492675781
0.39213332533836365
0.479911208152771
0.5755094289779663
0.6591110825538635
0.6993234753608704
0.6781599521636963
0.6032745242118835
0.5023979544639587
0.3982093036174774
0.3028053045272827
0.21886202692985535
0.14629322290420532
0.08376683294773102
0.03063920885324478
-0.012760528363287449
-0.04550201818346977
-0.06605774164199829
-0.07406128197908401
-0.06980650871992111
-0.05575307458639145
-0.03503669798374176
-0.011180116795003414
0.012822755612432957
0.03527820482850075
0.05513179674744606
0.0725003182888031
0.08751895278692245
0.10095562040805817
0.11329706758260727
0.12502984702587128
0.13625778257846832
0.14725159108638763
0.15808793902397156
0.16883370280265808
0.1794390082359314
0.190160870552063
0.20118890702724457
0.21318215131759644
0.22664116322994232
0.24310441315174103
0.263855516910553
0.2919987738132477
0.33080822229385376
0.3870989680290222
0.4691145122051239
0.5899733304977417
0.7573381662368774
0.9527899026870728
1.0876915454864502
1.0532572269439697
