# vtk DataFile Version 2.0
Siphon segment
ASCII
DATASET POLYDATA
POINTS 84 float
109.88186645507812 72.30345153808594 24.313684463500977
109.97763061523438 72.1033935546875 24.111726760864258
110.08540344238281 71.9129409790039 23.906564712524414
110.20490264892578 71.73260498046875 23.698772430419922
110.33588409423828 71.56298065185547 23.4888973236084
110.47808837890625 71.40467834472656 23.277484893798828
110.63124084472656 71.25837707519531 23.065078735351562
110.7950439453125 71.12480163574219 22.85223960876465
110.96923065185547 71.00481414794922 22.639545440673828
111.15331268310547 70.89912414550781 22.427610397338867
111.34683227539062 70.80859375 22.217079162597656
111.54926300048828 70.7341079711914 22.008647918701172
111.75997924804688 70.67659759521484 21.80307388305664
111.978271484375 70.63709259033203 21.6011962890625
112.20325469970703 70.61651611328125 21.403919219970703
112.43392181396484 70.61576080322266 21.212215423583984
112.66910552978516 70.63574981689453 21.027158737182617
112.90744018554688 70.67729949951172 20.849905014038086
113.14739227294922 70.74109649658203 20.681676864624023
113.38720703125 70.82764434814453 20.523757934570312
113.62496948242188 70.93717956542969 20.377439498901367
113.8586196899414 71.06961059570312 20.24399185180664
114.08600616455078 71.22445678710938 20.12459945678711
114.30496215820312 71.40087890625 20.020334243774414
114.5134048461914 71.59757995605469 19.93206214904785
114.70951843261719 71.81281280517578 19.86031723022461
114.89173889160156 72.0445785522461 19.805397033691406
115.05884552001953 72.2906723022461 19.76732635498047
115.20999908447266 72.5488052368164 19.745859146118164
115.34473419189453 72.81669616699219 19.74052619934082
115.46293640136719 73.09215545654297 19.750673294067383
115.56477355957031 73.3731689453125 19.775514602661133
115.65064239501953 73.65794372558594 19.814170837402344
115.72111511230469 73.94489288330078 19.865703582763672
115.77688598632812 74.23270416259766 19.929140090942383
115.81871032714844 74.52027893066406 20.003488540649414
115.84735107421875 74.8067398071289 20.08773422241211
115.86358642578125 75.09142303466797 20.18085289001465
115.86808013916016 75.37385559082031 20.281829833984375
115.86155700683594 75.65373992919922 20.389568328857422
115.84463500976562 75.93096160888672 20.50294303894043
115.81786346435547 76.20551300048828 20.620811462402344
115.78168487548828 76.4775390625 20.741992950439453
115.73643493652344 76.74726104736328 20.865262985229492
115.68238830566406 77.01498413085938 20.989336013793945
115.61979675292969 77.28109741210938 21.112876892089844
115.54882049560547 77.54596710205078 21.23451805114746
115.4695816040039 77.80999755859375 21.35284996032715
115.38216400146484 78.07353210449219 21.466434478759766
115.28666687011719 78.33685302734375 21.573808670043945
115.1832046508789 78.60018157958984 21.673521041870117
115.07192993164062 78.86361694335938 21.76412010192871
114.95307922363281 79.12713623046875 21.844240188598633
114.82697296142578 79.39058685302734 21.912588119506836
114.69401550292969 79.65371704101562 21.967971801757812
114.55467987060547 79.9161148071289 22.009319305419922
114.40956115722656 80.17730712890625 22.035696029663086
114.25931549072266 80.43670654296875 22.046316146850586
114.10466766357422 80.69366455078125 22.040544509887695
113.9464111328125 80.94746398925781 22.017900466918945
113.7853775024414 81.19737243652344 21.97806167602539
113.6224365234375 81.442626953125 21.92086410522461
113.4584732055664 81.6824722290039 21.846298217773438
113.29436492919922 81.91617584228516 21.754528045654297
113.13098907470703 82.14305877685547 21.645877838134766
112.96917724609375 82.36250305175781 21.520843505859375
112.80973052978516 82.57401275634766 21.38007926940918
112.65335083007812 82.77718353271484 21.224384307861328
112.50068664550781 82.97179412841797 21.0546875
112.35225677490234 83.15774536132812 20.87201690673828
112.20850372314453 83.33512115478516 20.677461624145508
112.06971740722656 83.50414276123047 20.47214698791504
111.93611907958984 83.66517639160156 20.2571964263916
111.80778503417969 83.81871032714844 20.033710479736328
111.68473815917969 83.96533966064453 19.802738189697266
111.56689453125 84.1057357788086 19.565263748168945
111.45413970947266 84.24063873291016 19.322200775146484
111.3462905883789 84.3708267211914 19.074378967285156
111.24320220947266 84.49707794189453 18.822528839111328
111.14466094970703 84.62023162841797 18.56734275817871
111.05050659179688 84.74108123779297 18.30941390991211
110.96060180664062 84.86042022705078 18.049272537231445
110.87487030029297 84.97900390625 17.78738021850586
110.79328918457031 85.09754180908203 17.524150848388672
LINES 1 85
84 0 1 2 3 4 5 6 7 8 9 10 11 12 13 14 15 16 17 18 19 20 21 22 23 24 25 26 27 28 29 30 31 32 33 34 35 36 37 38 39 40 41 42 43 44 45 46 47 48 49 50 51 52 53 54 55 56 57 58 59 60 61 62 63 64 65 66 67 68 69 70 71 72 73 74 75 76 77 78 79 80 81 82 83

POINT_DATA 84
SCALARS curvature float
LOOKUP_TABLE default
0.17434784770011902
0.17447267472743988
0.17514006793498993
0.1764546036720276
0.17846865952014923
0.1812082678079605
0.1846703290939331
0.18885190784931183
0.1937512904405594
0.19936691224575043
0.20570792257785797
0.21278725564479828
0.2206088751554489
0.22915984690189362
0.2383785992860794
0.2481531947851181
0.2583106458187103
0.2685930132865906
0.2786698043346405
0.2881127595901489
0.29643601179122925
0.303099662065506
0.3076232671737671
0.3095799684524536
0.30871763825416565
0.30495983362197876
0.29847452044487
0.2895752191543579
0.2787224352359772
0.2664026618003845
0.25312191247940063
0.23930665850639343
0.22530652582645416
0.2113657295703888
0.1976461112499237
0.18424120545387268
0.17120420932769775
0.1585809886455536
0.14643387496471405
0.13488329946994781
0.12412336468696594
0.11447682231664658
0.10638362169265747
0.1004135012626648
0.09714968502521515
0.09699489921331406
0.10001184046268463
0.10586435347795486
0.11392039805650711
0.12342957407236099
0.13367651402950287
0.14404192566871643
0.15404777228832245
0.16334901750087738
0.17173141241073608
0.17908769845962524
0.18539734184741974
0.1906941831111908
0.19503231346607208
0.19845537841320038
0.2009781301021576
0.20256927609443665
0.20315571129322052
0.20262561738491058
0.20086020231246948
0.19774769246578217
0.1932166963815689
0.187246173620224
0.17988722026348114
0.17125928401947021
0.16152746975421906
0.150891974568367
0.13957688212394714
0.12782542407512665
0.11588466912508011
0.10401139408349991
0.09246841818094254
0.08154266327619553
0.07155530154705048
0.0628696009516716
0.055895864963531494
0.051041875034570694
0.04859796166419983
0.0485626645386219
SCALARS torsion float
LOOKUP_TABLE default
0.008627855218946934
0.005353566724807024
0.0005998631822876632
-0.004871947690844536
-0.010755174793303013
-0.016431789845228195
-0.021708156913518906
-0.026272105053067207
-0.030066976323723793
-0.033072154968976974
-0.035343050956726074
-0.03698527067899704
-0.03810780122876167
-0.03879522904753685
-0.03913908451795578
-0.03915363922715187
-0.03883292153477669
-0.0381542406976223
-0.03703776374459267
-0.035433329641819
-0.033220019191503525
-0.03038700856268406
-0.026860592886805534
-0.022695889696478844
-0.01790681667625904
-0.012707098387181759
-0.007237766403704882
-0.0018287311540916562
0.0032947524450719357
0.007607370615005493
0.010702669620513916
0.011867393739521503
0.010424375534057617
0.005498184822499752
-0.003958640154451132
-0.018924327567219734
-0.040831223130226135
-0.07096032798290253
-0.11115609854459763
-0.1630224585533142
-0.22761401534080505
-0.3045087158679962
-0.3886069357395172
-0.4686598777770996
-0.5256639122962952
-0.5429555773735046
-0.5165138244628906
-0.4588376581668854
-0.38885295391082764
-0.3209242820739746
-0.2625335454940796
-0.21522776782512665
-0.17834322154521942
-0.149954691529274
-0.1282767951488495
-0.11170516163110733
-0.09886249154806137
-0.08879734575748444
-0.08060705661773682
-0.07383102923631668
-0.06808361411094666
-0.0632183626294136
-0.059271082282066345
-0.05625375732779503
-0.05432434380054474
-0.05353078991174698
-0.0538911409676075
-0.05547996237874031
-0.05826376751065254
-0.06239738315343857
-0.06807693094015121
-0.07571318745613098
-0.08613570779561996
-0.10029629617929459
-0.12005600333213806
-0.14746463298797607
-0.18579931557178497
-0.23847512900829315
-0.308962881565094
-0.39696943759918213
-0.49300506711006165
-0.5717286467552185
-0.5987423658370972
-0.5560857057571411
