# vtk DataFile Version 2.0
Siphon segment
ASCII
DATASET POLYDATA
POINTS 62 float
81.48502349853516 63.475521087646484 22.864225387573242
81.33306884765625 63.35368728637695 22.636077880859375
81.1754379272461 63.2445068359375 22.405393600463867
81.01243591308594 63.14821243286133 22.172714233398438
80.84420013427734 63.0654296875 21.938568115234375
80.67093658447266 62.996681213378906 21.70355224609375
80.49282836914062 62.942665100097656 21.468311309814453
80.31008911132812 62.90420913696289 21.233566284179688
80.12306213378906 62.881988525390625 21.00011444091797
79.93209075927734 62.876953125 20.76886558532715
79.73770141601562 62.88978576660156 20.540794372558594
79.54051971435547 62.92109298706055 20.316944122314453
79.34130859375 62.971431732177734 20.09843635559082
79.14094543457031 63.041053771972656 19.886371612548828
78.94042205810547 63.12985610961914 19.6817569732666
78.74079132080078 63.237525939941406 19.485502243041992
78.54312133789062 63.36351776123047 19.298370361328125
78.34849548339844 63.50702667236328 19.120912551879883
78.15789031982422 63.666927337646484 18.953365325927734
77.97222900390625 63.84202194213867 18.79575538635254
77.79229736328125 64.03105926513672 18.647886276245117
77.61878967285156 64.23273468017578 18.50933265686035
77.4521713256836 64.4456558227539 18.37940216064453
77.29281616210938 64.6685562133789 18.257307052612305
77.14102935791016 64.90027618408203 18.142192840576172
76.99686431884766 65.13960266113281 18.03299331665039
76.86033630371094 65.38551330566406 17.928682327270508
76.73143005371094 65.63706970214844 17.828208923339844
76.60993194580078 65.89334869384766 17.73048210144043
76.49573516845703 66.15362548828125 17.634502410888672
76.38863372802734 66.41716766357422 17.539287567138672
76.28844451904297 66.6833724975586 17.443927764892578
76.19509887695312 66.95169830322266 17.347562789916992
76.10842895507812 67.22160339355469 17.24941062927246
76.02848052978516 67.49263763427734 17.148700714111328
75.95523834228516 67.76433563232422 17.044727325439453
75.88880157470703 68.0362319946289 16.936771392822266
75.82935333251953 68.30782318115234 16.82408905029297
75.77703094482422 68.57856750488281 16.705963134765625
75.732177734375 68.84780883789062 16.58151626586914
75.69496154785156 69.1148452758789 16.449996948242188
75.66574096679688 69.37879180908203 16.310487747192383
75.64480590820312 69.63866424560547 16.16211700439453
75.63239288330078 69.89331817626953 16.004072189331055
75.62882232666016 70.14142608642578 15.835515975952148
75.63426208496094 70.38153839111328 15.655820846557617
75.6488037109375 70.61216735839844 15.46458625793457
75.6724624633789 70.83175659179688 15.261631965637207
75.70513153076172 71.03877258300781 15.04705810546875
75.74652862548828 71.23191833496094 14.821337699890137
75.7961654663086 71.41020965576172 14.585301399230957
75.8534164428711 71.57305145263672 14.339999198913574
75.91751098632812 71.72026824951172 14.086645126342773
75.98760223388672 71.85205841064453 13.82646369934082
76.06270599365234 71.9691162109375 13.560689926147461
76.14180755615234 72.07242584228516 13.290407180786133
76.22391510009766 72.16303253173828 13.01648235321045
76.30797576904297 72.24221801757812 12.73962116241455
76.39295959472656 72.3113021850586 12.460339546203613
76.47779846191406 72.37142181396484 12.178949356079102
76.56146240234375 72.42385864257812 11.895670890808105
76.64285278320312 72.46956634521484 11.610570907592773
LINES 1 63
62 0 1 2 3 4 5 6 7 8 9 10 11 12 13 14 15 16 17 18 19 20 21 22 23 24 25 26 27 28 29 30 31 32 33 34 35 36 37 38 39 40 41 42 43 44 45 46 47 48 49 50 51 52 53 54 55 56 57 58 59 60 61

POINT_DATA 62
SCALARS curvature float
LOOKUP_TABLE default
0.1545904129743576
0.1553778201341629
0.15754517912864685
0.16117165982723236
0.16627056896686554
0.17268140614032745
0.180185467004776
0.18850913643836975
0.1972665637731552
0.20597019791603088
0.2140863686800003
0.2210523635149002
0.2263176143169403
0.22943350672721863
0.23021835088729858
0.22858744859695435
0.2245393693447113
0.21819722652435303
0.20979580283164978
0.19970247149467468
0.18830665946006775
0.17599260807037354
0.1631404012441635
0.1501326709985733
0.1372877061367035
0.12488193064928055
0.11329701542854309
0.10294955968856812
0.0942089781165123
0.08737500756978989
0.08259865641593933
0.07991901785135269
0.07927416265010834
0.08046428859233856
0.08332661539316177
0.08769118040800095
0.09348610043525696
0.10066860169172287
0.1092197448015213
0.11913349479436874
0.13032591342926025
0.14268097281455994
0.15591752529144287
0.1695912629365921
0.18306958675384521
0.19564145803451538
0.20662075281143188
0.21515992283821106
0.2203366607427597
0.22147981822490692
0.2182493507862091
0.21073785424232483
0.19943736493587494
0.1851627230644226
0.16886235773563385
0.15146687626838684
0.133861243724823
0.11695089936256409
0.10176645964384079
0.08943162858486176
0.0809183269739151
0.07682406902313232
SCALARS torsion float
LOOKUP_TABLE default
0.005174766760319471
-0.007972916588187218
-0.017140941694378853
-0.021555043756961823
-0.0222665686160326
-0.020519763231277466
-0.01762085035443306
-0.014214307069778442
-0.01041997130960226
-0.006300176959484816
-0.001807112363167107
0.003426952287554741
0.009956827387213707
0.01763969473540783
0.026564018800854683
0.03702763468027115
0.04940890520811081
0.06391771882772446
0.08050215989351273
0.09886143356561661
0.11899726837873459
0.1412481963634491
0.16643540561199188
0.19519156217575073
0.22852149605751038
0.26700109243392944
0.30954185128211975
0.354458212852478
0.3964267671108246
0.4303823411464691
0.44815561175346375
0.44414839148521423
0.4185156226158142
0.3801368474960327
0.3380318880081177
0.30025020241737366
0.2679567337036133
0.2417852133512497
0.21896454691886902
0.19940318167209625
0.18227577209472656
0.16657747328281403
0.15075626969337463
0.13460125029087067
0.1182771772146225
0.10305843502283096
0.08901270478963852
0.07622983306646347
0.06519225239753723
0.056632544845342636
0.05189637839794159
0.05205582082271576
0.058490119874477386
0.07259336858987808
0.09623714536428452
0.13320668041706085
0.18955831229686737
0.2700464129447937
0.3768344819545746
0.49844229221343994
0.6013292670249939
0.6408718824386597
