# vtk DataFile Version 2.0
Siphon segment
ASCII
DATASET POLYDATA
POINTS 115 float
110.04351043701172 79.43905639648438 28.7379207611084
110.256591796875 79.27562713623047 28.60421371459961
110.47298431396484 79.12115478515625 28.465282440185547
110.69186401367188 78.97579193115234 28.320541381835938
110.91243743896484 78.83959197998047 28.169586181640625
111.13396453857422 78.71275329589844 28.01203155517578
111.35576629638672 78.59574127197266 27.847414016723633
111.5771713256836 78.48865509033203 27.6756591796875
111.79755401611328 78.39183807373047 27.49665069580078
112.01627349853516 78.30599975585938 27.310161590576172
112.23279571533203 78.2313461303711 27.116445541381836
112.4465560913086 78.16844940185547 26.915618896484375
112.6569595336914 78.11810302734375 26.70783233642578
112.86354064941406 78.08064270019531 26.49358558654785
113.06568908691406 78.05690002441406 26.27324867248535
113.2628402709961 78.04759979248047 26.0473690032959
113.4544677734375 78.05323791503906 25.816675186157227
113.63987731933594 78.07472229003906 25.581867218017578
113.81838989257812 78.11275482177734 25.343843460083008
113.9893569946289 78.16781616210938 25.103626251220703
114.1519546508789 78.24057006835938 24.8623104095459
114.30517578125 78.33182525634766 24.62114906311035
114.44820404052734 78.44171142578125 24.381515502929688
114.57998657226562 78.57052612304688 24.14488983154297
114.69940948486328 78.7183609008789 23.912872314453125
114.80530548095703 78.88507843017578 23.687171936035156
114.89640808105469 79.07029724121094 23.469593048095703
114.97152709960938 79.27324676513672 23.261951446533203
115.029541015625 79.49275207519531 23.06601905822754
115.06937408447266 79.72737121582031 22.88353729248047
115.090087890625 79.97532653808594 22.716144561767578
115.09089660644531 80.23451232910156 22.565317153930664
115.07125854492188 80.50257110595703 22.43231964111328
115.03087615966797 80.77692413330078 22.31817626953125
114.9697265625 81.05486297607422 22.223634719848633
114.88806915283203 81.3336410522461 22.149169921875
114.78644561767578 81.61053466796875 22.09499168395996
114.66565704345703 81.8829116821289 22.061065673828125
114.52674102783203 82.14832305908203 22.04713249206543
114.3709487915039 82.40451049804688 22.05274772644043
114.19973754882812 82.64950561523438 22.07730484008789
114.01471710205078 82.88162231445312 22.12006950378418
113.81761932373047 83.0995101928711 22.180213928222656
113.6102523803711 83.30216979980469 22.256847381591797
113.39446258544922 83.48894500732422 22.349040985107422
113.17211151123047 83.6595458984375 22.45586395263672
112.94497680664062 83.81388854980469 22.57648277282715
112.7148208618164 83.9522933959961 22.710037231445312
112.48332214355469 84.0755386352539 22.855594635009766
112.25201416015625 84.1845474243164 23.012393951416016
112.02233123779297 84.28032684326172 23.179866790771484
111.79557037353516 84.36424255371094 23.357397079467773
111.57286834716797 84.43793487548828 23.544361114501953
111.35531616210938 84.50294494628906 23.74039649963379
111.14395141601562 84.56104278564453 23.94518280029297
110.9395980834961 84.61420440673828 24.158252716064453
110.74314880371094 84.66438293457031 24.379337310791016
110.55559539794922 84.71369171142578 24.608203887939453
110.37765502929688 84.76435089111328 24.844331741333008
110.21024322509766 84.81863403320312 25.087249755859375
110.05430603027344 84.8788833618164 25.336318969726562
109.91098022460938 84.94757843017578 25.590709686279297
109.78113555908203 85.02696990966797 25.849180221557617
109.66577911376953 85.1192398071289 26.110219955444336
109.56584167480469 85.22628784179688 26.371957778930664
109.48210144042969 85.349609375 26.6322021484375
109.41510009765625 85.49015808105469 26.888525009155273
109.36509704589844 85.64827728271484 27.138399124145508
109.33203125 85.82372283935547 27.379364013671875
109.31556701660156 86.01571655273438 27.609161376953125
109.31510925292969 86.2230453491211 27.825847625732422
109.32991027832031 86.4442367553711 28.027828216552734
109.359130859375 86.67766571044922 28.213848114013672
109.40192413330078 86.92163848876953 28.382930755615234
109.4574966430664 87.17453002929688 28.5342960357666
109.52510833740234 87.43473052978516 28.667261123657227
109.60423278808594 87.70075225830078 28.780963897705078
109.6941146850586 87.97099304199219 28.87499237060547
109.79420471191406 88.24394226074219 28.948671340942383
109.90396118164062 88.51805877685547 29.00126075744629
110.0228042602539 88.79170989990234 29.031959533691406
110.15013885498047 89.06314086914062 29.039779663085938
110.28514099121094 89.33048248291016 29.024003982543945
110.42684173583984 89.59173583984375 28.98396110534668
110.5740966796875 89.84479522705078 28.919076919555664
110.72554016113281 90.08746337890625 28.829063415527344
110.87957000732422 90.31761169433594 28.714017868041992
111.03439331054688 90.5332260131836 28.574506759643555
111.18812561035156 90.73262023925781 28.411598205566406
111.33885192871094 90.91448211669922 28.226835250854492
111.48477172851562 91.0780029296875 28.022136688232422
111.62425231933594 91.22289276123047 27.799667358398438
111.75592041015625 91.34932708740234 27.561710357666016
111.87867736816406 91.45790100097656 27.310529708862305
111.99168395996094 91.549560546875 27.048263549804688
112.09437561035156 91.62545013427734 26.776866912841797
112.1863784790039 91.68688201904297 26.498065948486328
112.26748657226562 91.73517608642578 26.213346481323242
112.33747100830078 91.7715835571289 25.9239444732666
112.39653778076172 91.79765319824219 25.631010055541992
112.44479370117188 91.81471252441406 25.335437774658203
112.48226165771484 91.82393646240234 25.037954330444336
112.50923156738281 91.8266372680664 24.73920249938965
112.52606201171875 91.82405853271484 24.43970489501953
112.53290557861328 91.81726837158203 24.139875411987305
112.53021240234375 91.80744171142578 23.840063095092773
112.5184555053711 91.79563903808594 23.540538787841797
112.4979019165039 91.78288269042969 23.241525650024414
112.46917724609375 91.77017211914062 22.94318389892578
112.43286895751953 91.75843048095703 22.6456298828125
112.38944244384766 91.74859619140625 22.348960876464844
112.33965301513672 91.74149322509766 22.053213119506836
112.28424072265625 91.73787689208984 21.758403778076172
112.22393035888672 91.73847961425781 21.464536666870117
112.15953063964844 91.7439956665039 21.171588897705078
LINES 1 116
115 0 1 2 3 4 5 6 7 8 9 10 11 12 13 14 15 16 17 18 19 20 21 22 23 24 25 26 27 28 29 30 31 32 33 34 35 36 37 38 39 40 41 42 43 44 45 46 47 48 49 50 51 52 53 54 55 56 57 58 59 60 61 62 63 64 65 66 67 68 69 70 71 72 73 74 75 76 77 78 79 80 81 82 83 84 85 86 87 88 89 90 91 92 93 94 95 96 97 98 99 100 101 102 103 104 105 106 107 108 109 110 111 112 113 114

POINT_DATA 115
SCALARS curvature float
LOOKUP_TABLE default
0.12163565307855606
0.12229322642087936
0.12390317022800446
0.12635843455791473
0.12950651347637177
0.13320234417915344
0.13733507692813873
0.1417854130268097
0.1464758813381195
0.15137852728366852
0.15648826956748962
0.16183353960514069
0.167471244931221
0.1734628975391388
0.17988471686840057
0.18678799271583557
0.19418683648109436
0.20210453867912292
0.2105560153722763
0.21951907873153687
0.2289430797100067
0.23875851929187775
0.24884462356567383
0.25903138518333435
0.2690785527229309
0.2787157893180847
0.28774598240852356
0.29598528146743774
0.30324533581733704
0.30936965346336365
0.3142133057117462
0.3176739513874054
0.31966155767440796
0.3201662302017212
0.3193422555923462
0.3173219561576843
0.31423109769821167
0.310163676738739
0.30516576766967773
0.2992413341999054
0.2923254072666168
0.2844099700450897
0.2755233645439148
0.2656756341457367
0.25488629937171936
0.24320250749588013
0.23069341480731964
0.2174612581729889
0.20367129147052765
0.18964479863643646
0.17580071091651917
0.16263270378112793
0.1507168412208557
0.14077769219875336
0.133728489279747
0.13044220209121704
0.13164836168289185
0.1377549022436142
0.1484730839729309
0.16312414407730103
0.1807546615600586
0.20024630427360535
0.22034452855587006
0.2397378832101822
0.2570783197879791
0.271285742521286
0.28157323598861694
0.2875577211380005
0.28934669494628906
0.28749144077301025
0.2829159200191498
0.276685506105423
0.269903302192688
0.26359060406684875
0.2585393488407135
0.25528684258461
0.25419753789901733
0.255410373210907
0.25889986753463745
0.2644503712654114
0.2717399299144745
0.28035059571266174
0.28967177867889404
0.2989351153373718
0.30722352862358093
0.31359145045280457
0.3171773850917816
0.3172750771045685
0.3136349022388458
0.30638405680656433
0.29593202471733093
0.282888799905777
0.2679620087146759
0.2519223392009735
0.23543983697891235
0.21905653178691864
0.2032138705253601
0.1882171630859375
0.1742284744977951
0.16128084063529968
0.1493683159351349
0.1384826898574829
0.1285673826932907
0.11954854428768158
0.1113949790596962
0.10407081246376038
0.09753279387950897
0.09175281971693039
0.08668185770511627
0.0823078453540802
0.07864893972873688
0.07570886611938477
0.07352530211210251
0.07215512543916702
0.07161936163902283
SCALARS torsion float
LOOKUP_TABLE default
-0.3101311922073364
-0.28391027450561523
-0.25085824728012085
-0.21345841884613037
-0.1755809336900711
-0.13889849185943604
-0.10423377901315689
-0.07207277417182922
-0.0423143245279789
-0.016187071800231934
0.005607916042208672
0.023715514689683914
0.038045383989810944
0.04898333176970482
0.056862495839595795
0.06154318153858185
0.06342799961566925
0.0627182200551033
0.05940531939268112
0.053788501769304276
0.04657413810491562
0.03824632614850998
0.028870539739727974
0.018702669069170952
0.007724468596279621
-0.003639047499746084
-0.014379986561834812
-0.024644486606121063
-0.03406430408358574
-0.04254584014415741
-0.04996028169989586
-0.0556723028421402
-0.05972672626376152
-0.06166593357920647
-0.06118100881576538
-0.058320146054029465
-0.05327700823545456
-0.04600132256746292
-0.03634227439761162
-0.024145374074578285
-0.009636089205741882
0.006335698068141937
0.02407066710293293
0.043405331671237946
0.06460268050432205
0.08840856701135635
0.11523929983377457
0.14665965735912323
0.18365998566150665
0.22683390974998474
0.2783788740634918
0.34013062715530396
0.4125508666038513
0.4926373362541199
0.5682774186134338
0.6223816275596619
0.6385347843170166
0.610477089881897
0.5504368543624878
0.47733378410339355
0.40573522448539734
0.3426936864852905
0.28929832577705383
0.24447031319141388
0.2073172926902771
0.17646722495555878
0.1498560756444931
0.12688584625720978
0.10643666237592697
0.08808521926403046
0.07169224321842194
0.05669516697525978
0.04411010816693306
0.03383195400238037
0.02563672885298729
0.019545627757906914
0.015539458021521568
0.013844823464751244
0.014569303020834923
0.017475221306085587
0.021655408665537834
0.02705133706331253
0.03335411474108696
0.04030046612024307
0.04803691804409027
0.05598706379532814
0.06421425938606262
0.07262726128101349
0.08086717128753662
0.08902526646852493
0.09734860807657242
0.10604096949100494
0.11516930907964706
0.12465823441743851
0.13464678823947906
0.14563922584056854
0.15767143666744232
0.17077673971652985
0.18532949686050415
0.20134195685386658
0.21884094178676605
0.23767590522766113
0.2576601505279541
0.2798953950405121
0.3044656813144684
0.3308374583721161
0.35873478651046753
0.3874985873699188
0.41652125120162964
0.44480007886886597
0.47038909792900085
0.4932348430156708
0.5117672681808472
0.5230258107185364
0.5253080725669861
