# vtk DataFile Version 2.0
Siphon segment
ASCII
DATASET POLYDATA
POINTS 69 float
97.58736419677734 67.24532318115234 28.544963836669922
97.55258178710938 67.10089111328125 28.28436279296875
97.52840423583984 66.96514129638672 28.01796531677246
97.51510620117188 66.83836364746094 27.746431350708008
97.51301574707031 66.72112274169922 27.470335006713867
97.52239990234375 66.61421203613281 27.190231323242188
97.54350280761719 66.5186538696289 26.90668487548828
97.57669067382812 66.43585968017578 26.62030029296875
97.62210083007812 66.36731719970703 26.331846237182617
97.67997741699219 66.31485748291016 26.04226303100586
97.75066375732422 66.28080749511719 25.752784729003906
97.83418273925781 66.26739501953125 25.465055465698242
97.93064880371094 66.27731323242188 25.18128204345703
98.03968048095703 66.31281280517578 24.904207229614258
98.1606216430664 66.37592315673828 24.637187957763672
98.29230499267578 66.46784210205078 24.383983612060547
98.43304443359375 66.58851623535156 24.148338317871094
98.58074951171875 66.73640441894531 23.933364868164062
98.73321533203125 66.90876007080078 23.741130828857422
98.88842010498047 67.10200500488281 23.57234764099121
99.04473114013672 67.31226348876953 23.42641830444336
99.20098876953125 67.53588104248047 23.301801681518555
99.35649871826172 67.76969909667969 23.19638442993164
99.51094055175781 68.01099395751953 23.10749626159668
99.66424560546875 68.25772857666016 23.032638549804688
99.8165512084961 68.50825500488281 22.96916389465332
99.96807861328125 68.76133728027344 22.9145450592041
100.11907958984375 69.01605987548828 22.866451263427734
100.26982116699219 69.27171325683594 22.822650909423828
100.4205093383789 69.52776336669922 22.781028747558594
100.57127380371094 69.78380584716797 22.739660263061523
100.72218322753906 70.03950500488281 22.69675636291504
100.87319946289062 70.29460906982422 22.65073013305664
101.0241928100586 70.54886627197266 22.6002254486084
101.17496490478516 70.80205535888672 22.544034957885742
101.32527923583984 71.05399322509766 22.481351852416992
101.47484588623047 71.30448913574219 22.411510467529297
101.62340545654297 71.55338287353516 22.334197998046875
101.77071380615234 71.800537109375 22.249292373657227
101.91656494140625 72.04585266113281 22.1568660736084
102.0608139038086 72.28924560546875 22.057130813598633
102.20332336425781 72.53063201904297 21.95028305053711
102.34400939941406 72.76997375488281 21.83661460876465
102.48273468017578 73.00714111328125 21.716190338134766
102.61937713623047 73.2420425415039 21.589130401611328
102.75375366210938 73.47450256347656 21.4553279876709
102.88560485839844 73.70423126220703 21.314496994018555
103.01465606689453 73.93091583251953 21.16632843017578
103.14051818847656 74.15406036376953 21.01026725769043
103.26276397705078 74.37305450439453 20.84568214416504
103.38092041015625 74.58717346191406 20.671960830688477
103.49439239501953 74.7954330444336 20.48828125
103.60269165039062 74.99685668945312 20.294158935546875
103.7052001953125 75.190185546875 20.088991165161133
103.80150604248047 75.37433624267578 19.872671127319336
103.89112854003906 75.54800415039062 19.645112991333008
103.97390747070312 75.71035766601562 19.406862258911133
104.04972839355469 75.86058807373047 19.15855598449707
104.11875915527344 75.9984130859375 18.90123176574707
104.18130493164062 76.1238784790039 18.636043548583984
104.23777770996094 76.23739624023438 18.36418342590332
104.28873443603516 76.33980560302734 18.08687400817871
104.33470916748047 76.4321060180664 17.805171966552734
104.37625122070312 76.51558685302734 17.520042419433594
104.41382598876953 76.59160614013672 17.232288360595703
104.44778442382812 76.66151428222656 16.942537307739258
104.47842407226562 76.72677612304688 16.65133285522461
104.50584411621094 76.78868103027344 16.35907745361328
104.530029296875 76.8484878540039 16.066097259521484
LINES 1 70
69 0 1 2 3 4 5 6 7 8 9 10 11 12 13 14 15 16 17 18 19 20 21 22 23 24 25 26 27 28 29 30 31 32 33 34 35 36 37 38 39 40 41 42 43 44 45 46 47 48 49 50 51 52 53 54 55 56 57 58 59 60 61 62 63 64 65 66 67 68

POINT_DATA 69
SCALARS curvature float
LOOKUP_TABLE default
0.16406431794166565
0.1650124192237854
0.16730841994285583
0.17128604650497437
0.17736779153347015
0.18601155281066895
0.1976330578327179
0.212564155459404
0.23096953332424164
0.2528124749660492
0.2776874601840973
0.3046109676361084
0.33197706937789917
0.35731616616249084
0.37745150923728943
0.3889531195163727
0.3891158103942871
0.37704625725746155
0.3538942039012909
0.3224433660507202
0.28600364923477173
0.24763944745063782
0.2094496637582779
0.17258410155773163
0.1377551406621933
0.10535798966884613
0.07556364685297012
0.048629652708768845
0.025541888549923897
0.01405771728605032
0.025498412549495697
0.04124239832162857
0.05531471222639084
0.06691484153270721
0.07588781416416168
0.08227289468050003
0.08613751083612442
0.08780469745397568
0.08776863664388657
0.08658028393983841
0.08482296764850616
0.08308423310518265
0.08195821940898895
0.0820310041308403
0.08381970971822739
0.08770163357257843
0.09390966594219208
0.10242354869842529
0.11305557191371918
0.12541230022907257
0.13886931538581848
0.1526149958372116
0.1657022386789322
0.1770572066307068
0.18566979467868805
0.19055688381195068
0.19114430248737335
0.1871946007013321
0.1790405809879303
0.16726602613925934
0.1526103913784027
0.13597244024276733
0.11822395771741867
0.1002269834280014
0.08278019726276398
0.06672611832618713
0.053090691566467285
0.04334770143032074
0.039186347275972366
SCALARS torsion float
LOOKUP_TABLE default
0.10430874675512314
0.06235926225781441
0.019829533994197845
-0.02106768637895584
-0.05609118565917015
-0.0837777853012085
-0.10175124555826187
-0.11071689426898956
-0.11154855042695999
-0.10636313259601593
-0.09719719737768173
-0.08546240627765656
-0.07180722802877426
-0.057359252125024796
-0.04256347939372063
-0.028262998908758163
-0.014570415951311588
-0.0022187887225300074
0.008733673021197319
0.018251243978738785
0.026648424565792084
0.03436977043747902
0.04201612249016762
0.05019580200314522
0.059356968849897385
0.07057464122772217
0.08712539076805115
0.1197960376739502
0.22998909652233124
0.47532951831817627
0.16957449913024902
0.10536782443523407
0.09011788666248322
0.08352750539779663
0.07758867740631104
0.07116193324327469
0.06314339488744736
0.05443693324923515
0.04496004059910774
0.03708938509225845
0.031030939891934395
0.027581028640270233
0.025598347187042236
0.024135183542966843
0.0208399910479784
0.01515441108494997
0.006958881393074989
-0.0025757472030818462
-0.012657803483307362
-0.022384408861398697
-0.030924107879400253
-0.03828410431742668
-0.04415838047862053
-0.04869850352406502
-0.05189093202352524
-0.05325637757778168
-0.05259700119495392
-0.04969068244099617
-0.04391448199748993
-0.03427660092711449
-0.018971208482980728
0.0049416860565543175
0.04217490553855896
0.10094903409481049
0.19584140181541443
0.35263967514038086
0.5988270044326782
0.9035452604293823
1.0412760972976685
