# vtk DataFile Version 2.0
Siphon segment
ASCII
DATASET POLYDATA
POINTS 74 float
109.60774230957031 75.81095123291016 27.88914680480957
109.82421875 75.68495178222656 27.724098205566406
110.0488052368164 75.57276153564453 27.55992889404297
110.28041076660156 75.4749526977539 27.396312713623047
110.51820373535156 75.392822265625 27.232961654663086
110.76104736328125 75.32714080810547 27.069610595703125
111.00790405273438 75.27934265136719 26.906057357788086
111.2574462890625 75.25050354003906 26.742172241210938
111.50826263427734 75.24187469482422 26.57791519165039
111.75868225097656 75.25494384765625 26.413360595703125
112.00682830810547 75.29055786132812 26.248722076416016
112.25061798095703 75.34966278076172 26.084348678588867
112.48780822753906 75.4328384399414 25.92072868347168
112.71597290039062 75.54036712646484 25.758493423461914
112.93285369873047 75.6717300415039 25.59835433959961
113.13629913330078 75.8260498046875 25.441085815429688
113.32441711425781 76.00196838378906 25.28746795654297
113.49571990966797 76.19773864746094 25.13824462890625
113.64913940429688 76.41133880615234 24.994094848632812
113.78407287597656 76.6406021118164 24.85559844970703
113.90013885498047 76.88346862792969 24.723302841186523
113.99761962890625 77.1377182006836 24.597570419311523
114.07698059082031 77.40141296386719 24.478713989257812
114.13886260986328 77.67281341552734 24.366992950439453
114.18392181396484 77.95040893554688 24.2626895904541
114.21333312988281 78.23277282714844 24.165851593017578
114.2280502319336 78.5187759399414 24.076608657836914
114.2291030883789 78.80743408203125 23.995040893554688
114.21776580810547 79.09790802001953 23.9210205078125
114.1949691772461 79.38954162597656 23.854585647583008
114.16204071044922 79.68177795410156 23.795406341552734
114.11998748779297 79.97418975830078 23.74327278137207
114.0699462890625 80.26644134521484 23.69771385192871
114.01294708251953 80.55830383300781 23.65819549560547
113.949951171875 80.849609375 23.62404441833496
113.8819351196289 81.1402816772461 23.594392776489258
113.80965423583984 81.4302749633789 23.56833267211914
113.73394775390625 81.71959686279297 23.54471778869629
113.65543365478516 82.0082778930664 23.52237319946289
113.57476043701172 82.29635620117188 23.499980926513672
113.49243927001953 82.5838623046875 23.47618865966797
113.408935546875 82.87076568603516 23.449535369873047
113.32470703125 83.15703582763672 23.41864013671875
113.24014282226562 83.44253540039062 23.382122039794922
113.15562438964844 83.72706604003906 23.338571548461914
113.071533203125 84.01034545898438 23.286863327026367
112.98823547363281 84.29203033447266 23.225984573364258
112.9061050415039 84.57171630859375 23.155120849609375
112.8255386352539 84.84893798828125 23.073596954345703
112.74688720703125 85.12328338623047 22.981203079223633
112.67050170898438 85.39434051513672 22.877872467041016
112.59671783447266 85.66177368164062 22.763748168945312
112.52587890625 85.92525482177734 22.639053344726562
112.45824432373047 86.18463897705078 22.504384994506836
112.39408111572266 86.4398193359375 22.360315322875977
112.33366394042969 86.69071197509766 22.207366943359375
112.2771987915039 86.9373779296875 22.046245574951172
112.22488403320312 87.1799087524414 21.877620697021484
112.17700958251953 87.41835021972656 21.70199203491211
112.13370513916016 87.65290069580078 21.520048141479492
112.09519958496094 87.88368225097656 21.332292556762695
112.06171417236328 88.1108169555664 21.13920021057129
112.03339385986328 88.33448028564453 20.941295623779297
112.01050567626953 88.55474853515625 20.73892593383789
111.99314880371094 88.77178192138672 20.532556533813477
111.98152160644531 88.98568725585938 20.322540283203125
111.97582244873047 89.196533203125 20.109220504760742
111.97611236572266 89.40447998046875 19.892990112304688
111.98260498046875 89.60958099365234 19.674165725708008
111.9953842163086 89.81200408935547 19.453128814697266
112.01453399658203 90.01189422607422 19.230255126953125
112.04024505615234 90.20938873291016 19.00590705871582
112.0725326538086 90.40470886230469 18.7805118560791
112.11148834228516 90.59806823730469 18.554481506347656
LINES 1 75
74 0 1 2 3 4 5 6 7 8 9 10 11 12 13 14 15 16 17 18 19 20 21 22 23 24 25 26 27 28 29 30 31 32 33 34 35 36 37 38 39 40 41 42 43 44 45 46 47 48 49 50 51 52 53 54 55 56 57 58 59 60 61 62 63 64 65 66 67 68 69 70 71 72 73

POINT_DATA 74
SCALARS curvature float
LOOKUP_TABLE default
0.17479608952999115
0.17621740698814392
0.1798143982887268
0.18560555577278137
0.1935705542564392
0.203481987118721
0.21506823599338531
0.22789166867733002
0.2414274960756302
0.25503459572792053
0.2679612636566162
0.2794194221496582
0.2886177599430084
0.2949690818786621
0.2980879247188568
0.2977510392665863
0.2939786911010742
0.2871802747249603
0.27793124318122864
0.26686611771583557
0.25456473231315613
0.2415643185377121
0.2282741218805313
0.21497677266597748
0.201847106218338
0.18897105753421783
0.17639067769050598
0.16407866775989532
0.15193690359592438
0.1398405134677887
0.12766216695308685
0.11527101695537567
0.10256092995405197
0.0894596055150032
0.0759696438908577
0.06222343072295189
0.04862290993332863
0.0362313948571682
0.027919718995690346
0.02838817425072193
0.03754730522632599
0.050801049917936325
0.06522916257381439
0.07951733469963074
0.09284938126802444
0.1046682819724083
0.11452231556177139
0.12212343513965607
0.1272830069065094
0.13005183637142181
0.1305919736623764
0.12919479608535767
0.12622135877609253
0.12211494147777557
0.11730755120515823
0.11217258870601654
0.10702239722013474
0.10211430490016937
0.09766203165054321
0.09379788488149643
0.09057597070932388
0.08799628168344498
0.08598726242780685
0.08446290343999863
0.08329711854457855
0.08237264305353165
0.08158876746892929
0.08087138831615448
0.08018013834953308
0.0795070007443428
0.07887619733810425
0.0783451646566391
0.07798478752374649
0.07786210626363754
SCALARS torsion float
LOOKUP_TABLE default
-0.1966124176979065
-0.19934174418449402
-0.19660376012325287
-0.18919093906879425
-0.1781540960073471
-0.16503921151161194
-0.15129885077476501
-0.13796837627887726
-0.12566101551055908
-0.1146850511431694
-0.10490598529577255
-0.09611594676971436
-0.08816171437501907
-0.08069495856761932
-0.07310350239276886
-0.06481201946735382
-0.055716827511787415
-0.04560829699039459
-0.034341759979724884
-0.0219266414642334
-0.008314937353134155
0.006026451010257006
0.021130016073584557
0.036159105598926544
0.051060110330581665
0.06465619057416916
0.07658830285072327
0.08589231967926025
0.09184712171554565
0.09314189106225967
0.08801750093698502
0.07492239028215408
0.050854623317718506
0.010092908516526222
-0.05747805908322334
-0.1775953471660614
-0.408380925655365
-0.8813086748123169
-1.6184773445129395
-1.6010160446166992
-0.8907095193862915
-0.4577389359474182
-0.25351500511169434
-0.15384165942668915
-0.10287667065858841
-0.0763513445854187
-0.06329712271690369
-0.05804411321878433
-0.05806773528456688
-0.0614677257835865
-0.06769511848688126
-0.07602140307426453
-0.08634349703788757
-0.09802011400461197
-0.11077576130628586
-0.1242588609457016
-0.13792531192302704
-0.15058086812496185
-0.1608732044696808
-0.1681070625782013
-0.171580970287323
-0.17140382528305054
-0.16842646896839142
-0.16356100142002106
-0.15903615951538086
-0.15583643317222595
-0.15577097237110138
-0.1593804806470871
-0.1668473482131958
-0.17818227410316467
-0.1919833868741989
-0.20731531083583832
-0.2212778925895691
-0.23174434900283813
