# vtk DataFile Version 2.0
Siphon segment
ASCII
DATASET POLYDATA
POINTS 95 float
80.14879608154297 73.37335968017578 39.15120315551758
80.33071899414062 73.24915313720703 38.94755554199219
80.50987243652344 73.11911010742188 38.74509811401367
80.68599700927734 72.98316955566406 38.543861389160156
80.8587646484375 72.84122467041016 38.34386444091797
81.02774047851562 72.6930923461914 38.145118713378906
81.19233703613281 72.53852081298828 37.94761276245117
81.35193634033203 72.37734985351562 37.75128173828125
81.50575256347656 72.20941162109375 37.55601501464844
81.65282440185547 72.03449249267578 37.36167907714844
81.79222106933594 71.85265350341797 37.16804885864258
81.9228744506836 71.66397094726562 36.97487258911133
82.0435791015625 71.46864318847656 36.78183364868164
82.15332794189453 71.26717376708984 36.58857345581055
82.2509994506836 71.06016540527344 36.394683837890625
82.33557891845703 70.84845733642578 36.19972229003906
82.40631103515625 70.63312530517578 36.00323486328125
82.46239471435547 70.41534423828125 35.804718017578125
82.50337219238281 70.1965103149414 35.60369110107422
82.52898406982422 69.97810363769531 35.399681091308594
82.53892517089844 69.76171875 35.19218063354492
82.53337097167969 69.5489730834961 34.98079299926758
82.51252746582031 69.34152221679688 34.7651481628418
82.47657775878906 69.14111328125 34.54487609863281
82.42616271972656 68.94934844970703 34.31980514526367
82.36184692382812 68.76790618896484 34.089778900146484
82.28427124023438 68.5984878540039 33.85472869873047
82.1944351196289 68.4425277709961 33.614784240722656
82.09326171875 68.30156707763672 33.3701171875
81.98185729980469 68.177001953125 33.12104034423828
81.86153411865234 68.0699234008789 32.86801528930664
81.73355865478516 67.98155212402344 32.611549377441406
81.59939575195312 67.91262817382812 32.352294921875
81.46051788330078 67.8637466430664 32.090980529785156
81.3183364868164 67.83555603027344 31.82839012145996
81.17431640625 67.82801818847656 31.565401077270508
81.02977752685547 67.8411865234375 31.302915573120117
80.88593292236328 67.87490844726562 31.041887283325195
80.74382781982422 67.9286117553711 30.783262252807617
80.60433959960938 68.0018310546875 30.52802276611328
80.46815490722656 68.09388732910156 30.277130126953125
80.33576202392578 68.20390319824219 30.031490325927734
80.20751953125 68.33113098144531 29.792036056518555
80.08362579345703 68.4747543334961 29.55967140197754
79.964111328125 68.6338119506836 29.33519744873047
79.84896850585938 68.80750274658203 29.119447708129883
79.7381362915039 68.99506378173828 28.91326141357422
79.6314697265625 69.1955337524414 28.7172794342041
79.52885437011719 69.4081039428711 28.532184600830078
79.43017578125 69.6319351196289 28.358579635620117
79.33528137207031 69.86599731445312 28.196754455566406
79.24408721923828 70.10936737060547 28.04697608947754
79.15647888183594 70.36100006103516 27.9091739654541
79.07232666015625 70.6197738647461 27.782936096191406
78.99153137207031 70.88470458984375 27.6677303314209
78.91390991210938 71.1546859741211 27.562496185302734
78.83928680419922 71.42874908447266 27.465991973876953
78.76749420166016 71.7060317993164 27.376798629760742
78.69829559326172 71.98568725585938 27.293134689331055
78.63145446777344 72.26699829101562 27.21314239501953
78.56678771972656 72.54928588867188 27.134843826293945
78.50411224365234 72.83191680908203 27.056167602539062
78.4432601928711 73.11425018310547 26.975021362304688
78.38414764404297 73.39559936523438 26.889328002929688
78.32675170898438 73.6751937866211 26.796979904174805
78.27108001708984 73.95215606689453 26.696067810058594
78.21722412109375 74.2254867553711 26.584810256958008
78.1653823852539 74.49396514892578 26.461467742919922
78.11573791503906 74.75634002685547 26.324813842773438
78.06855773925781 75.01117706298828 26.173791885375977
78.02411651611328 75.25697326660156 26.007726669311523
77.98265838623047 75.49235534667969 25.826488494873047
77.94444274902344 75.71585083007812 25.63013458251953
77.90960693359375 75.92642974853516 25.419401168823242
77.87828063964844 76.12300109863281 25.195022583007812
77.85042572021484 76.30513000488281 24.958332061767578
77.82600402832031 76.4722900390625 24.710477828979492
77.8048324584961 76.6246337890625 24.452959060668945
77.78668975830078 76.76234436035156 24.187095642089844
77.77131652832031 76.8858642578125 23.914175033569336
77.75840759277344 76.99594116210938 23.63543128967285
77.7476577758789 77.09330749511719 23.351900100708008
77.73876953125 77.1788101196289 23.064502716064453
77.73143005371094 77.25345611572266 22.7740478515625
77.7253646850586 77.31817626953125 22.481189727783203
77.72030639648438 77.3738784790039 22.186458587646484
77.71601104736328 77.4215316772461 21.890308380126953
77.71224975585938 77.46206665039062 21.593090057373047
77.70878601074219 77.4963607788086 21.295082092285156
77.70540618896484 77.52522277832031 20.996496200561523
77.70187377929688 77.54949188232422 20.69750213623047
77.69792175292969 77.56993865966797 20.39822769165039
77.69327545166016 77.5872802734375 20.098766326904297
77.68757629394531 77.60221862792969 19.7991943359375
77.68045806884766 77.61540985107422 19.499568939208984
LINES 1 96
95 0 1 2 3 4 5 6 7 8 9 10 11 12 13 14 15 16 17 18 19 20 21 22 23 24 25 26 27 28 29 30 31 32 33 34 35 36 37 38 39 40 41 42 43 44 45 46 47 48 49 50 51 52 53 54 55 56 57 58 59 60 61 62 63 64 65 66 67 68 69 70 71 72 73 74 75 76 77 78 79 80 81 82 83 84 85 86 87 88 89 90 91 92 93 94

POINT_DATA 95
SCALARS curvature float
LOOKUP_TABLE default
0.07187684625387192
0.0727415382862091
0.07470263540744781
0.07776988297700882
0.0819208174943924
0.08708658069372177
0.09319024533033371
0.10009287297725677
0.10764976590871811
0.11568818241357803
0.12398981302976608
0.13229766488075256
0.14035102725028992
0.14790377020835876
0.15477676689624786
0.1608579456806183
0.16616523265838623
0.17078673839569092
0.17493194341659546
0.17882785201072693
0.1826987862586975
0.18672344088554382
0.1910276710987091
0.19565291702747345
0.2005568891763687
0.20561574399471283
0.210637629032135
0.21544437110424042
0.2198645919561386
0.22374607622623444
0.22695791721343994
0.22941428422927856
0.23105135560035706
0.2318158745765686
0.2316463589668274
0.2305428832769394
0.2285066694021225
0.22557540237903595
0.22187551856040955
0.21761468052864075
0.21301043033599854
0.2082744985818863
0.20366042852401733
0.19940736889839172
0.1956481784582138
0.19239726662635803
0.18950915336608887
0.1866903305053711
0.18350498378276825
0.17943336069583893
0.17394578456878662
0.16654255986213684
0.15684086084365845
0.14467713236808777
0.13006286323070526
0.11318736523389816
0.09431982040405273
0.07391668111085892
0.05277843028306961
0.03292739763855934
0.022826271131634712
0.0344650037586689
0.05580957606434822
0.0791526660323143
0.1026020422577858
0.12534207105636597
0.1467684656381607
0.16629184782505035
0.18340077996253967
0.19763554632663727
0.20859099924564362
0.21599720418453217
0.2196921557188034
0.21976321935653687
0.2164543718099594
0.21022962033748627
0.20156745612621307
0.19103333353996277
0.17916522920131683
0.1664540022611618
0.15333324670791626
0.14014747738838196
0.12717565894126892
0.11460881680250168
0.10258135944604874
0.09116024523973465
0.0803733542561531
0.07021810859441757
0.0606888085603714
0.051776766777038574
0.043522775173187256
0.03607847914099693
0.029860887676477432
0.02570965513586998
0.024747435003519058
SCALARS torsion float
LOOKUP_TABLE default
0.0563487708568573
0.06332113593816757
0.0769512802362442
0.09682086110115051
0.12039819359779358
0.14575302600860596
0.16873109340667725
0.18852993845939636
0.2046089619398117
0.21811509132385254
0.22880667448043823
0.23824095726013184
0.2462749183177948
0.2542182505130768
0.2620026767253876
0.2699875235557556
0.27745261788368225
0.28379368782043457
0.2878573536872864
0.28890717029571533
0.2863650619983673
0.28028786182403564
0.27089443802833557
0.2593979239463806
0.24656358361244202
0.2334071695804596
0.22064225375652313
0.20884957909584045
0.19805863499641418
0.18807947635650635
0.17840024828910828
0.16823995113372803
0.15667879581451416
0.14291615784168243
0.12666618824005127
0.10763802379369736
0.08624215424060822
0.06257906556129456
0.03872225061058998
0.014719934202730656
-0.009244857355952263
-0.03261474519968033
-0.05308999866247177
-0.06991024315357208
-0.08200822025537491
-0.08888744562864304
-0.09018083661794662
-0.08646103739738464
-0.0782838985323906
-0.06678126752376556
-0.05245990306138992
-0.035985346883535385
-0.01689830608665943
0.005105377174913883
0.033051006495952606
0.07349486649036407
0.14086253941059113
0.2741532027721405
0.6024580001831055
1.6512103080749512
3.527559757232666
1.5538328886032104
0.5699225664138794
0.26317963004112244
0.14110690355300903
0.0815904513001442
0.049178630113601685
0.03026624210178852
0.019064998254179955
0.01259911060333252
0.009264791384339333
0.00820772722363472
0.008959359489381313
0.011084483936429024
0.014232617802917957
0.0179593563079834
0.022004418075084686
0.02602095901966095
0.029869049787521362
0.03348343446850777
0.03680722042918205
0.04006897285580635
0.04333517700433731
0.04737357422709465
0.05270542949438095
0.06093873456120491
0.07394015043973923
0.0954003632068634
0.1310843527317047
0.1917882114648819
0.2940106689929962
0.46405208110809326
0.7258225679397583
1.0275979042053223
1.130348801612854
