# vtk DataFile Version 2.0
Siphon segment
ASCII
DATASET POLYDATA
POINTS 83 float
79.67576599121094 63.415122985839844 29.296491622924805
79.51266479492188 63.22057342529297 29.136693954467773
79.3399887084961 63.032588958740234 28.97911262512207
79.15816497802734 62.8532829284668 28.82171058654785
78.96785736083984 62.68492889404297 28.662277221679688
78.77017211914062 62.52973556518555 28.498533248901367
78.56653594970703 62.39030456542969 28.328065872192383
78.3589859008789 62.26911926269531 28.148635864257812
78.15011596679688 62.1688346862793 27.958215713500977
77.94316864013672 62.092124938964844 27.75518798828125
77.74205017089844 62.041473388671875 27.538618087768555
77.55116271972656 62.018836975097656 27.308504104614258
77.37506103515625 62.02530288696289 27.065929412841797
77.21802520751953 62.060890197753906 26.81302261352539
77.08357238769531 62.12448501586914 26.55270004272461
76.97429656982422 62.21415328979492 26.288291931152344
76.8916244506836 62.32727813720703 26.023216247558594
76.83610534667969 62.46106719970703 25.76069450378418
76.80760955810547 62.612823486328125 25.503658294677734
76.8057861328125 62.78016662597656 25.254844665527344
76.82982635498047 62.96091842651367 25.01679229736328
76.87870025634766 63.15316390991211 24.79190444946289
76.95169830322266 63.35543441772461 24.582908630371094
77.04739379882812 63.56618881225586 24.392271041870117
77.16461181640625 63.78413772583008 24.222938537597656
77.30174255371094 64.00794219970703 24.077966690063477
77.45663452148438 64.23612213134766 23.960308074951172
77.62665557861328 64.46709442138672 23.87289047241211
77.80850982666016 64.69910430908203 23.81812286376953
77.9982681274414 64.93032836914062 23.797574996948242
78.19161987304688 65.1590805053711 23.811420440673828
78.3842544555664 65.38398742675781 23.85848617553711
78.57227325439453 65.60421752929688 23.93638038635254
78.7524642944336 65.81950378417969 24.04181480407715
78.92230224609375 66.03013610839844 24.171175003051758
79.0800552368164 66.23690032958984 24.320573806762695
79.22461700439453 66.44091796875 24.486236572265625
79.355224609375 66.64352416992188 24.664737701416016
79.47148895263672 66.84622192382812 24.85280990600586
79.57321166992188 67.05055236816406 25.047441482543945
79.65998840332031 67.25813293457031 25.24583625793457
79.73171997070312 67.47049713134766 25.445161819458008
79.78802490234375 67.68920135498047 25.642580032348633
79.828369140625 67.91570281982422 25.83502960205078
79.85230255126953 68.15120697021484 26.019207000732422
79.85913848876953 68.39669036865234 26.191377639770508
79.8482666015625 68.652587890625 26.34736442565918
79.81936645507812 68.9185562133789 26.482791900634766
79.7724609375 69.19337463378906 26.593149185180664
79.7082290649414 69.47474670410156 26.67433738708496
79.62815856933594 69.7594985961914 26.723220825195312
79.53451538085938 70.04391479492188 26.73810577392578
79.43009185791016 70.3243179321289 26.71894645690918
79.31793212890625 70.59752655029297 26.66716766357422
79.20093536376953 70.8611831665039 26.585201263427734
79.0816650390625 71.11371612548828 26.47597312927246
78.9622573852539 71.354248046875 26.34246063232422
78.84443664550781 71.582275390625 26.18730926513672
78.7295913696289 71.797607421875 26.012956619262695
78.61880493164062 72.00022888183594 25.82155418395996
78.51295471191406 72.19000244140625 25.614803314208984
78.41268920898438 72.3669204711914 25.394319534301758
78.3185043334961 72.53080749511719 25.161422729492188
78.23074340820312 72.681396484375 24.91730499267578
78.14955139160156 72.81843566894531 24.66314125061035
78.07499694824219 72.94145202636719 24.39992904663086
78.00687408447266 73.05016326904297 24.128793716430664
77.94491577148438 73.14408111572266 23.850738525390625
77.88858032226562 73.2229232788086 23.566862106323242
77.8371810913086 73.2864990234375 23.278257369995117
77.7899169921875 73.3346176147461 22.98597526550293
77.7458267211914 73.36759185791016 22.691104888916016
77.70391845703125 73.38581848144531 22.394638061523438
77.66320037841797 73.3898696899414 22.09746742248535
77.62271881103516 73.38079833984375 21.800373077392578
77.58164978027344 73.35978698730469 21.50396156311035
77.53929901123047 73.32821655273438 21.208662033081055
77.49515533447266 73.28764343261719 20.914724349975586
77.44890594482422 73.23979949951172 20.62220573425293
77.40039825439453 73.18640899658203 20.331012725830078
77.34961700439453 73.12918090820312 20.04093360900879
77.2967300415039 73.06986236572266 19.751651763916016
77.24195098876953 73.01006317138672 19.46282196044922
LINES 1 84
83 0 1 2 3 4 5 6 7 8 9 10 11 12 13 14 15 16 17 18 19 20 21 22 23 24 25 26 27 28 29 30 31 32 33 34 35 36 37 38 39 40 41 42 43 44 45 46 47 48 49 50 51 52 53 54 55 56 57 58 59 60 61 62 63 64 65 66 67 68 69 70 71 72 73 74 75 76 77 78 79 80 81 82

POINT_DATA 83
SCALARS curvature float
LOOKUP_TABLE default
0.127493217587471
0.13150933384895325
0.14099660515785217
0.15622729063034058
0.1770801693201065
0.20304186642169952
0.2332848608493805
0.2664394676685333
0.3010147213935852
0.33508870005607605
0.3656940758228302
0.3896811902523041
0.40483489632606506
0.4102846384048462
0.4068168103694916
0.3968111574649811
0.38322561979293823
0.3688247501850128
0.3557506799697876
0.34549039602279663
0.33913180232048035
0.33724445104599
0.3398822844028473
0.346478670835495
0.3563316762447357
0.36807969212532043
0.37947210669517517
0.3879338204860687
0.3908977508544922
0.3863562047481537
0.373492956161499
0.35308292508125305
0.32708463072776794
0.2980329394340515
0.2681969404220581
0.23952175676822662
0.213982954621315
0.19344180822372437
0.17955495417118073
0.1736963540315628
0.17683057487010956
0.18866634368896484
0.2081429362297058
0.2338501214981079
0.26417315006256104
0.29730796813964844
0.33092406392097473
0.3621039390563965
0.38744473457336426
0.4037474989891052
0.40859878063201904
0.40138450264930725
0.38409140706062317
0.3601519763469696
0.3332279324531555
0.30639734864234924
0.2817961871623993
0.2604949176311493
0.2428964376449585
0.2290138155221939
0.21856866776943207
0.2110331654548645
0.20577186346054077
0.20210687816143036
0.1994016319513321
0.19711831212043762
0.1947096586227417
0.19166682660579681
0.18764623999595642
0.18240664899349213
0.1757221668958664
0.16749775409698486
0.1577415019273758
0.1464177370071411
0.1334942728281021
0.11903023719787598
0.10316695272922516
0.08621323853731155
0.06862747669219971
0.05108174681663513
0.03471674770116806
0.02251412160694599
0.021390458568930626
SCALARS torsion float
LOOKUP_TABLE default
0.7745629549026489
0.783970832824707
0.7450023889541626
0.6714416742324829
0.5816120505332947
0.4921703338623047
0.41153284907341003
0.3441917300224304
0.2901008427143097
0.24573904275894165
0.20911771059036255
0.17823435366153717
0.15076608955860138
0.12540031969547272
0.10118991136550903
0.07749341428279877
0.05361965671181679
0.028731059283018112
0.001777371042408049
-0.027259498834609985
-0.05644947290420532
-0.08478165417909622
-0.11088467389345169
-0.13342198729515076
-0.15157052874565125
-0.16705195605754852
-0.18128307163715363
-0.193841353058815
-0.20580829679965973
-0.21848367154598236
-0.23357737064361572
-0.2526099383831024
-0.2780860662460327
-0.31194111704826355
-0.35724008083343506
-0.4169200658798218
-0.4898929297924042
-0.5685856938362122
-0.6345815062522888
-0.6634072065353394
-0.6367322206497192
-0.5646721720695496
-0.4740919768810272
-0.38667088747024536
-0.3124735951423645
-0.25414207577705383
-0.21005399525165558
-0.17772909998893738
-0.15493996441364288
-0.13937431573867798
-0.1291544884443283
-0.12348414957523346
-0.12135929614305496
-0.12094632536172867
-0.12115877866744995
-0.12113451212644577
-0.11929404735565186
-0.11400334537029266
-0.10387789458036423
-0.08767347782850266
-0.06602480262517929
-0.039440520107746124
-0.01013739500194788
0.020818037912249565
0.051435165107250214
0.08194813132286072
0.1132582277059555
0.14361442625522614
0.1708998829126358
0.19389820098876953
0.21200671792030334
0.22641722857952118
0.23716430366039276
0.2450859099626541
0.2518913447856903
0.25992074608802795
0.2766846716403961
0.31299346685409546
0.39645567536354065
0.5935168266296387
1.126220941543579
2.4344451427459717
2.499708890914917
