# vtk DataFile Version 2.0
Siphon segment
ASCII
DATASET POLYDATA
POINTS 67 float
100.08274841308594 65.37598419189453 26.39947509765625
100.27497100830078 65.37045288085938 26.169313430786133
100.47860717773438 65.3827133178711 25.94947052001953
100.69246673583984 65.41307830810547 25.741405487060547
100.9151611328125 65.46231079101562 25.546648025512695
101.14484405517578 65.53120422363281 25.36654281616211
101.37933349609375 65.62094116210938 25.20253562927246
101.61589050292969 65.73296356201172 25.05619239807129
101.85114288330078 65.8685531616211 24.92896270751953
102.08106231689453 66.02867126464844 24.822189331054688
102.30108642578125 66.21367645263672 24.73697853088379
102.50640106201172 66.42285919189453 24.673900604248047
102.69273376464844 66.65406799316406 24.632545471191406
102.85690307617188 66.90408325195312 24.611597061157227
102.99728393554688 67.16902160644531 24.608896255493164
103.1138916015625 67.44499969482422 24.62175750732422
103.20781707763672 67.7286605834961 24.647441864013672
103.28128814697266 68.01725769042969 24.683177947998047
103.33663177490234 68.308837890625 24.72661590576172
103.37652587890625 68.6020736694336 24.775625228881836
103.40341186523438 68.8961410522461 24.828449249267578
103.41954040527344 69.1905746459961 24.883563995361328
103.42710876464844 69.48519134521484 24.93960952758789
103.42803192138672 69.77995300292969 24.99537467956543
103.42407989501953 70.07495880126953 25.049734115600586
103.41681671142578 70.37034606933594 25.101612091064453
103.40766143798828 70.6662826538086 25.14996337890625
103.39784240722656 70.96290588378906 25.193758010864258
103.38837432861328 71.26029968261719 25.23198699951172
103.38007354736328 71.55850219726562 25.263654708862305
103.37348175048828 71.8574447631836 25.28778076171875
103.3688735961914 72.15699005126953 25.303512573242188
103.3662338256836 72.45689392089844 25.310041427612305
103.36528015136719 72.75685119628906 25.30663299560547
103.36551666259766 73.05651092529297 25.29259490966797
103.3662109375 73.35542297363281 25.267295837402344
103.36650085449219 73.6530990600586 25.23023223876953
103.36544036865234 73.94898223876953 25.180866241455078
103.3620376586914 74.24241638183594 25.11865234375
103.35530090332031 74.5326156616211 25.04303550720215
103.3442611694336 74.81865692138672 24.953367233276367
103.32804107666016 75.09942626953125 24.849071502685547
103.30587005615234 75.37364196777344 24.72954750061035
103.27711486816406 75.63975524902344 24.594179153442383
103.24128723144531 75.89595031738281 24.442394256591797
103.19801330566406 76.1400146484375 24.27351951599121
103.14733123779297 76.36965942382812 24.087404251098633
103.08943176269531 76.58220672607422 23.883907318115234
103.02482604980469 76.77468872070312 23.663198471069336
102.95448303222656 76.94432830810547 23.426137924194336
102.87963104248047 77.08821868896484 23.173927307128906
102.80188751220703 77.20407104492188 22.908506393432617
102.72306060791016 77.29036712646484 22.63236427307129
102.64507293701172 77.3460693359375 22.348228454589844
102.56974029541016 77.371826171875 22.059120178222656
102.49867248535156 77.36885833740234 21.767791748046875
102.43315887451172 77.33928680419922 21.47663116455078
102.37410736083984 77.28587341308594 21.187475204467773
102.32211303710938 77.21161651611328 20.901565551757812
102.27751922607422 77.11946105957031 20.619626998901367
102.24036407470703 77.01251983642578 20.341848373413086
102.21057891845703 76.89359283447266 20.068071365356445
102.18799591064453 76.76530456542969 19.797849655151367
102.17237091064453 76.63006591796875 19.530529022216797
102.16336059570312 76.49018096923828 19.26529884338379
102.16059875488281 76.3477783203125 19.001272201538086
102.16368865966797 76.20484161376953 18.737537384033203
LINES 1 68
67 0 1 2 3 4 5 6 7 8 9 10 11 12 13 14 15 16 17 18 19 20 21 22 23 24 25 26 27 28 29 30 31 32 33 34 35 36 37 38 39 40 41 42 43 44 45 46 47 48 49 50 51 52 53 54 55 56 57 58 59 60 61 62 63 64 65 66

POINT_DATA 67
SCALARS curvature float
LOOKUP_TABLE default
0.26003608107566833
0.2621490955352783
0.26691049337387085
0.27482348680496216
0.2863582968711853
0.3017275333404541
0.3207525610923767
0.3425767421722412
0.3652677834033966
0.3858751058578491
0.40049150586128235
0.40504324436187744
0.3969241678714752
0.3762297034263611
0.3454999029636383
0.30847954750061035
0.26887473464012146
0.229471817612648
0.19201724231243134
0.15739835798740387
0.12606261670589447
0.09833523631095886
0.07474236935377121
0.056549254804849625
0.046254511922597885
0.04596969857811928
0.053507693111896515
0.06448133289813995
0.07606792449951172
0.08696556091308594
0.09665224701166153
0.10504376888275146
0.11233214288949966
0.11889781802892685
0.12524212896823883
0.1318863332271576
0.1393062174320221
0.1478486955165863
0.15775080025196075
0.16911976039409637
0.18199943006038666
0.19634762406349182
0.21209046244621277
0.22912026941776276
0.24725820124149323
0.2662326991558075
0.2855580747127533
0.30448830127716064
0.3219800889492035
0.33673250675201416
0.3472449779510498
0.35206565260887146
0.3502122461795807
0.3412235379219055
0.3256053328514099
0.3044016659259796
0.2791368067264557
0.2513696849346161
0.2224738597869873
0.19354459643363953
0.1654261350631714
0.13879579305648804
0.11433245986700058
0.09295662492513657
0.07613591104745865
0.06596479564905167
0.06405990570783615
SCALARS torsion float
LOOKUP_TABLE default
0.04142899066209793
-0.0008639015140943229
-0.04789814352989197
-0.09369530528783798
-0.13552552461624146
-0.1694219559431076
-0.19440165162086487
-0.20826371014118195
-0.212164968252182
-0.20681901276111603
-0.19481484591960907
-0.17846839129924774
-0.161197230219841
-0.14452767372131348
-0.1311967372894287
-0.1224411129951477
-0.12008130550384521
-0.12607286870479584
-0.14380235970020294
-0.17983655631542206
-0.2469291388988495
-0.371565580368042
-0.6028496026992798
-0.9963948726654053
-1.399794578552246
-1.3051494359970093
-0.8480131030082703
-0.4748920202255249
-0.23676927387714386
-0.08248201012611389
0.027208607643842697
0.10916239023208618
0.1721743941307068
0.21697381138801575
0.2439923882484436
0.2519458532333374
0.24254578351974487
0.21857129037380219
0.18489348888397217
0.1462118774652481
0.1065361276268959
0.06840059161186218
0.03372874855995178
0.003025537123903632
-0.023386238142848015
-0.04601272940635681
-0.06491875648498535
-0.08076649904251099
-0.09307979792356491
-0.10236828774213791
-0.10875051468610764
-0.11292250454425812
-0.11560310423374176
-0.11787144839763641
-0.12082315236330032
-0.12598977982997894
-0.1346488893032074
-0.1487705111503601
-0.1706962138414383
-0.20429329574108124
-0.2555626332759857
-0.3346465528011322
-0.4586145579814911
-0.6515871286392212
-0.9179988503456116
-1.1587011814117432
-1.1619569063186646
