# vtk DataFile Version 2.0
Siphon segment
ASCII
DATASET POLYDATA
POINTS 65 float
88.79795837402344 78.2989730834961 33.396759033203125
88.58704376220703 78.29480743408203 33.183502197265625
88.37251281738281 78.30382537841797 32.974029541015625
88.15604400634766 78.32685089111328 32.76765441894531
87.93938446044922 78.36467742919922 32.56367874145508
87.72438049316406 78.41802978515625 32.36143112182617
87.51297760009766 78.48753356933594 32.160301208496094
87.30719757080078 78.57369995117188 31.95979881286621
87.1091079711914 78.67688751220703 31.759593963623047
86.92086791992188 78.79737091064453 31.559553146362305
86.74453735351562 78.93506622314453 31.35978126525879
86.58209991455078 79.0896987915039 31.16064453125
86.43534851074219 79.26078033447266 30.962779998779297
86.30587005615234 79.44756317138672 30.76708221435547
86.19498443603516 79.649169921875 30.5747013092041
86.1032943725586 79.8642807006836 30.38689613342285
86.03105926513672 80.091552734375 30.20501708984375
85.97805786132812 80.32959747314453 30.030420303344727
85.9435806274414 80.57698059082031 29.864381790161133
85.92626953125 80.83226776123047 29.707883834838867
85.92452239990234 81.09418487548828 29.561708450317383
85.93645477294922 81.3615951538086 29.426347732543945
85.95997619628906 81.633544921875 29.30198097229004
85.99290466308594 81.90925598144531 29.188488006591797
86.03299713134766 82.18812561035156 29.085458755493164
86.07804107666016 82.46967315673828 28.99222755432129
86.12586975097656 82.7535629272461 28.907894134521484
86.17438507080078 83.03953552246094 28.831356048583984
86.22156524658203 83.32740783691406 28.76133918762207
86.2655029296875 83.61697387695312 28.696407318115234
86.30433654785156 83.90803527832031 28.634990692138672
86.3363265991211 84.20030212402344 28.57539176940918
86.35983276367188 84.49337005615234 28.515804290771484
86.37335205078125 84.78667449951172 28.45433807373047
86.37554931640625 85.07945251464844 28.389053344726562
86.36531066894531 85.3707046508789 28.31800079345703
86.34182739257812 85.65919494628906 28.23927879333496
86.3045654296875 85.94345092773438 28.15106201171875
86.25349426269531 86.22183990478516 28.051759719848633
86.18904876708984 86.49264526367188 27.94007682800293
86.112060546875 86.7541732788086 27.815011978149414
86.02371215820312 87.00474548339844 27.67583656311035
85.92560577392578 87.24295043945312 27.522233963012695
85.8196029663086 87.46771240234375 27.35428810119629
85.70763397216797 87.67820739746094 27.172304153442383
85.59168243408203 87.87386322021484 26.97675895690918
85.47367858886719 88.05448913574219 26.768390655517578
85.35545349121094 88.22022247314453 26.54810905456543
85.23860931396484 88.37136840820312 26.316865921020508
85.12454223632812 88.50843048095703 26.075666427612305
85.014404296875 88.63207244873047 25.825546264648438
84.9090805053711 88.7430648803711 25.56753921508789
84.80917358398438 88.84224700927734 25.30265235900879
84.71503448486328 88.93050384521484 25.031850814819336
84.62674713134766 89.00873565673828 24.75603485107422
84.54417419433594 89.07780456542969 24.47603416442871
84.4669418334961 89.1385726928711 24.19260025024414
84.39450073242188 89.19181823730469 23.90639877319336
84.3261489868164 89.23827362060547 23.618013381958008
84.26107025146484 89.27861022949219 23.32795524597168
84.19835662841797 89.3134536743164 23.036664962768555
84.13705444335938 89.3433837890625 22.744525909423828
84.07621765136719 89.36895751953125 22.45187759399414
84.01490020751953 89.39073181152344 22.159021377563477
83.95223236083984 89.40929412841797 21.866228103637695
LINES 1 66
65 0 1 2 3 4 5 6 7 8 9 10 11 12 13 14 15 16 17 18 19 20 21 22 23 24 25 26 27 28 29 30 31 32 33 34 35 36 37 38 39 40 41 42 43 44 45 46 47 48 49 50 51 52 53 54 55 56 57 58 59 60 61 62 63 64

POINT_DATA 65
SCALARS curvature float
LOOKUP_TABLE default
0.1563808023929596
0.15764875710010529
0.16115719079971313
0.16700321435928345
0.17506204545497894
0.1850222647190094
0.1964249312877655
0.2087203860282898
0.2212943434715271
0.23350238800048828
0.24468179047107697
0.25418272614479065
0.261382132768631
0.26574480533599854
0.26682937145233154
0.26442888379096985
0.25849348306655884
0.249191552400589
0.23684239387512207
0.2219271957874298
0.20494697988033295
0.18644724786281586
0.16694174706935883
0.1469501405954361
0.12701871991157532
0.10788865387439728
0.09065268188714981
0.07713733613491058
0.069964200258255
0.07140006870031357
0.08112869411706924
0.09664803743362427
0.1153917908668518
0.13555584847927094
0.1558609902858734
0.1753273606300354
0.1930924654006958
0.20842358469963074
0.22073256969451904
0.22968631982803345
0.23517130315303802
0.23732292652130127
0.23648899793624878
0.23316605389118195
0.22786462306976318
0.22105242311954498
0.2131301611661911
0.20438939332962036
0.19501912593841553
0.18511463701725006
0.17472849786281586
0.16388075053691864
0.15258200466632843
0.14085112512111664
0.1287384331226349
0.11634474992752075
0.10381193459033966
0.09135588258504868
0.07925012707710266
0.06786902993917465
0.05765766650438309
0.04915450140833855
0.04288394749164581
0.0391928106546402
0.03802560642361641
SCALARS torsion float
LOOKUP_TABLE default
0.4092874228954315
0.4259933829307556
0.42516130208969116
0.4070798456668854
0.3756762742996216
0.33567675948143005
0.2916127145290375
0.24672432243824005
0.2026728391647339
0.1605270951986313
0.12005319446325302
0.08153232932090759
0.04433979466557503
0.008893505670130253
-0.025338931009173393
-0.05799996107816696
-0.08945800364017487
-0.11963149160146713
-0.1492503136396408
-0.17918479442596436
-0.21130524575710297
-0.2481505572795868
-0.2943037152290344
-0.3566204309463501
-0.4470541477203369
-0.5833175182342529
-0.7876224517822266
-1.0551490783691406
-1.2696247100830078
-1.2335036993026733
-0.9871994853019714
-0.7317449450492859
-0.5482078790664673
-0.42909491062164307
-0.3533925712108612
-0.30513593554496765
-0.27469348907470703
-0.25609537959098816
-0.24551288783550262
-0.24035318195819855
-0.23868563771247864
-0.2390998899936676
-0.2402290403842926
-0.2410394847393036
-0.24060861766338348
-0.23815561830997467
-0.23309677839279175
-0.22482477128505707
-0.21315716207027435
-0.19763606786727905
-0.17854221165180206
-0.1550680696964264
-0.12717166543006897
-0.09344258159399033
-0.0534626729786396
-0.004435368813574314
0.055553145706653595
0.13163763284683228
0.22828398644924164
0.35297927260398865
0.5093879103660583
0.690977156162262
0.8657681941986084
0.9762787818908691
0.9919432997703552
