# vtk DataFile Version 2.0
Siphon segment
ASCII
DATASET POLYDATA
POINTS 64 float
87.74502563476562 77.7534408569336 25.02228355407715
87.51593780517578 77.71595001220703 24.832311630249023
87.28591918945312 77.69540405273438 24.640878677368164
87.05638885498047 77.69208526611328 24.44779396057129
86.82880401611328 77.70635223388672 24.252920150756836
86.60466766357422 77.73865509033203 24.05621910095215
86.38555908203125 77.78947448730469 23.8577880859375
86.17312622070312 77.85935974121094 23.657907485961914
85.96910095214844 77.94880676269531 23.45707893371582
85.7752456665039 78.05821228027344 23.25606918334961
85.59333801269531 78.18781280517578 23.055917739868164
85.42503356933594 78.3375473022461 22.85793113708496
85.27186584472656 78.50708770751953 22.663658142089844
85.13518524169922 78.69578552246094 22.474836349487305
85.0157241821289 78.90235137939453 22.293169021606445
84.91392517089844 79.12528991699219 22.120315551757812
84.82991790771484 79.36294555664062 21.957809448242188
84.76329040527344 79.6133804321289 21.80682945251465
84.71329498291016 79.87458801269531 21.668180465698242
84.67903137207031 80.14469146728516 21.542360305786133
84.65947723388672 80.42191314697266 21.429521560668945
84.65355682373047 80.70464324951172 21.329538345336914
84.66017150878906 80.99144744873047 21.241941452026367
84.67826080322266 81.28108978271484 21.166048049926758
84.70690155029297 81.57252502441406 21.101011276245117
84.74523162841797 81.86487579345703 21.045841217041016
84.79251861572266 82.1574478149414 20.99943733215332
84.84811401367188 82.44966888427734 20.960613250732422
84.91145324707031 82.7410888671875 20.928129196166992
84.9820556640625 83.03135681152344 20.900707244873047
85.05949401855469 83.3202133178711 20.877044677734375
85.14336395263672 83.60746765136719 20.8558406829834
85.23329162597656 83.89295959472656 20.835798263549805
85.32889556884766 84.17659759521484 20.81565284729004
85.42977905273438 84.45830535888672 20.794179916381836
85.53550720214844 84.73802947998047 20.77021598815918
85.64559936523438 85.01573181152344 20.742673873901367
85.75951385498047 85.29138946533203 20.710552215576172
85.87666320800781 85.56498718261719 20.67295265197754
85.99641418457031 85.8365249633789 20.62908935546875
86.11808776855469 86.10598754882812 20.578283309936523
86.24095916748047 86.37337493896484 20.51997184753418
86.36429595947266 86.63868713378906 20.453693389892578
86.48736572265625 86.90189361572266 20.379091262817383
86.60944366455078 87.1629867553711 20.295883178710938
86.72979736328125 87.42191314697266 20.203866958618164
86.84774780273438 87.6786117553711 20.102949142456055
86.962646484375 87.9330062866211 19.99307632446289
87.0738754272461 88.18499755859375 19.87425994873047
87.18087768554688 88.4344711303711 19.746570587158203
87.28311920166016 88.68130493164062 19.610139846801758
87.380126953125 88.92535400390625 19.465167999267578
87.47147369384766 89.16651916503906 19.31191635131836
87.5567855834961 89.40469360351562 19.150714874267578
87.6357421875 89.63980865478516 18.98196029663086
87.70806121826172 89.87183380126953 18.80609893798828
87.77349853515625 90.10079193115234 18.623653411865234
87.83189392089844 90.32676696777344 18.43519401550293
87.8830795288086 90.54989624023438 18.241323471069336
87.92692565917969 90.7703628540039 18.04266357421875
87.96331787109375 90.98839569091797 17.839855194091797
87.99214935302734 91.20426177978516 17.633544921875
88.01329040527344 91.41825103759766 17.424365997314453
88.02661895751953 91.63066101074219 17.212949752807617
LINES 1 65
64 0 1 2 3 4 5 6 7 8 9 10 11 12 13 14 15 16 17 18 19 20 21 22 23 24 25 26 27 28 29 30 31 32 33 34 35 36 37 38 39 40 41 42 43 44 45 46 47 48 49 50 51 52 53 54 55 56 57 58 59 60 61 62 63

POINT_DATA 64
SCALARS curvature float
LOOKUP_TABLE default
0.18842121958732605
0.1892777681350708
0.19228066504001617
0.1975862830877304
0.20515446364879608
0.21473757922649384
0.22591432929039001
0.23810319602489471
0.2505803406238556
0.26251959800720215
0.27302733063697815
0.2812768220901489
0.28653350472450256
0.2882749140262604
0.28631657361984253
0.2808130383491516
0.2721473276615143
0.26091405749320984
0.24774381518363953
0.23322342336177826
0.2178518921136856
0.20203475654125214
0.18608219921588898
0.1702342927455902
0.15468312799930573
0.1396070271730423
0.12518210709095
0.11161522567272186
0.0991501435637474
0.08809391409158707
0.07880894094705582
0.07168243080377579
0.06702696532011032
0.06493673473596573
0.06519237905740738
0.06729940325021744
0.07066231220960617
0.07473356276750565
0.0791003406047821
0.08348607271909714
0.08773244172334671
0.09176351875066757
0.09555364400148392
0.0991041287779808
0.10241672396659851
0.1054874137043953
0.1082884818315506
0.11077501624822617
0.11287934333086014
0.11452320218086243
0.11562184989452362
0.11609520018100739
0.11588643491268158
0.11496300995349884
0.11334027349948883
0.11107245087623596
0.10828202962875366
0.10513367503881454
0.10184157639741898
0.09864191710948944
0.0957808718085289
0.09348345547914505
0.0919203907251358
0.09119180589914322
SCALARS torsion float
LOOKUP_TABLE default
0.20904117822647095
0.2068098485469818
0.1965019553899765
0.17866043746471405
0.1550769954919815
0.12775270640850067
0.09891055524349213
0.07001989334821701
0.042295489460229874
0.016240067780017853
-0.007460703607648611
-0.028592552989721298
-0.04668967425823212
-0.061600349843502045
-0.07256568223237991
-0.07920031249523163
-0.08123337477445602
-0.0783347561955452
-0.07082192599773407
-0.05829748138785362
-0.04151028022170067
-0.019738711416721344
0.006485383957624435
0.03846331313252449
0.0764329805970192
0.12250722199678421
0.17802417278289795
0.24568800628185272
0.32727959752082825
0.42272254824638367
0.526808500289917
0.6242856979370117
0.6926911473274231
0.7108633518218994
0.6787344813346863
0.6141595244407654
0.540398120880127
0.4718893766403198
0.4140551686286926
0.3669409155845642
0.32817161083221436
0.2953815758228302
0.2664519250392914
0.24005307257175446
0.21558569371700287
0.1927894949913025
0.1721075177192688
0.15377956628799438
0.1385294646024704
0.12659327685832977
0.11849381774663925
0.11431914567947388
0.11431248486042023
0.11848673224449158
0.12693728506565094
0.13957858085632324
0.15620627999305725
0.17617709934711456
0.19840171933174133
0.2209952473640442
0.24135398864746094
0.25656068325042725
0.2637650966644287
0.2615712583065033
