# vtk DataFile Version 2.0
Siphon segment
ASCII
DATASET POLYDATA
POINTS 78 float
87.89328002929688 73.9744873046875 25.8194637298584
87.72383117675781 73.80733489990234 25.636903762817383
87.54612731933594 73.65118408203125 25.452449798583984
87.36141967773438 73.50708770751953 25.265098571777344
87.17094421386719 73.37615966796875 25.073909759521484
86.97593688964844 73.25959777832031 24.8780460357666
86.77766418457031 73.15884399414062 24.67677116394043
86.57749938964844 73.07539367675781 24.469560623168945
86.37687683105469 73.01079559326172 24.25615692138672
86.17735290527344 72.96683502197266 24.036579132080078
85.980712890625 72.94584655761719 23.81110954284668
85.788818359375 72.94951629638672 23.58067512512207
85.60388946533203 72.98025512695312 23.346620559692383
85.42816162109375 73.03963470458984 23.111021041870117
85.26422119140625 73.12960052490234 22.87664031982422
85.11446380615234 73.25079345703125 22.64691925048828
84.9811782836914 73.40315246582031 22.425792694091797
84.8663330078125 73.5855712890625 22.21745491027832
84.77131652832031 73.79574584960938 22.02595329284668
84.69678497314453 74.03028869628906 21.8547420501709
84.64264678955078 74.28515625 21.706398010253906
84.60816192626953 74.55597686767578 21.582433700561523
84.59190368652344 74.83840942382812 21.483049392700195
84.59224700927734 75.12864685058594 21.407625198364258
84.60774993896484 75.42354583740234 21.355318069458008
84.63642120361328 75.7204360961914 21.323970794677734
84.67692565917969 76.01737976074219 21.31199073791504
84.7277603149414 76.31294250488281 21.317140579223633
84.78767395019531 76.60616302490234 21.33734703063965
84.85565185546875 76.89642333984375 21.370649337768555
84.93079376220703 77.18340301513672 21.415151596069336
85.01238250732422 77.46700286865234 21.46906280517578
85.09973907470703 77.747314453125 21.53059959411621
85.19232177734375 78.0245590209961 21.598108291625977
85.2896728515625 78.29906463623047 21.670011520385742
85.39137268066406 78.57120513916016 21.74478530883789
85.4970703125 78.84143829345703 21.820953369140625
85.60643005371094 79.11022186279297 21.897079467773438
85.71910858154297 79.37803649902344 21.971759796142578
85.83478546142578 79.64533996582031 22.04363441467285
85.9531021118164 79.91255950927734 22.111391067504883
86.07369995117188 80.18006896972656 22.173782348632812
86.1961898803711 80.44817352294922 22.229555130004883
86.32010650634766 80.71710205078125 22.277706146240234
86.4449691772461 80.98697662353516 22.317304611206055
86.57030487060547 81.25784301757812 22.34749412536621
86.69560241699219 81.5296630859375 22.367677688598633
86.82035827636719 81.80229187011719 22.377548217773438
86.94409942626953 82.07556915283203 22.37677001953125
87.0663833618164 82.34925842285156 22.365392684936523
87.18683624267578 82.62313842773438 22.34361457824707
87.3050765991211 82.89695739746094 22.311511993408203
87.4208755493164 83.17050170898438 22.26964569091797
87.53402709960938 83.4435806274414 22.21845245361328
87.64431762695312 83.71599578857422 22.158306121826172
87.7516860961914 83.98762512207031 22.08986473083496
87.8560791015625 84.25833892822266 22.013643264770508
87.9574203491211 84.52803802490234 21.93006706237793
88.05574798583984 84.79666137695312 21.83967399597168
88.15109252929688 85.06414031982422 21.742935180664062
88.24349975585938 85.33043670654297 21.6402530670166
88.33301544189453 85.59548950195312 21.531938552856445
88.41973876953125 85.8592529296875 21.418346405029297
88.50375366210938 86.12169647216797 21.299766540527344
88.58515930175781 86.38276672363281 21.17642593383789
88.66404724121094 86.64239501953125 21.048486709594727
88.74049377441406 86.90050506591797 20.916080474853516
88.81463623046875 87.15703582763672 20.779354095458984
88.88655090332031 87.41189575195312 20.63838005065918
88.95632934570312 87.66497802734375 20.493200302124023
89.02401733398438 87.91617584228516 20.343822479248047
89.08971405029297 88.16542053222656 20.190322875976562
89.15342712402344 88.41260528564453 20.03272819519043
89.21514892578125 88.65765380859375 19.87104606628418
89.27482604980469 88.90050506591797 19.70533561706543
89.33238220214844 89.14114379882812 19.535703659057617
89.38765716552734 89.37959289550781 19.362253189086914
89.44039916992188 89.61585998535156 19.185070037841797
LINES 1 79
78 0 1 2 3 4 5 6 7 8 9 10 11 12 13 14 15 16 17 18 19 20 21 22 23 24 25 26 27 28 29 30 31 32 33 34 35 36 37 38 39 40 41 42 43 44 45 46 47 48 49 50 51 52 53 54 55 56 57 58 59 60 61 62 63 64 65 66 67 68 69 70 71 72 73 74 75 76 77

POINT_DATA 78
SCALARS curvature float
LOOKUP_TABLE default
0.15454581379890442
0.1547887921333313
0.15841661393642426
0.16555072367191315
0.17602382600307465
0.1895536482334137
0.20584578812122345
0.22454987466335297
0.24536451697349548
0.2680870592594147
0.29241809248924255
0.3176772892475128
0.342901349067688
0.3670610785484314
0.3888051509857178
0.40660181641578674
0.4188881814479828
0.4241645336151123
0.4213067591190338
0.4103630483150482
0.3926082253456116
0.3697146773338318
0.3434237241744995
0.315259724855423
0.2864464521408081
0.25784462690353394
0.2301793098449707
0.203885018825531
0.17910224199295044
0.1558225154876709
0.13402509689331055
0.11375097185373306
0.0950784757733345
0.07823698222637177
0.0637943223118782
0.052819810807704926
0.046864669770002365
0.0469990149140358
0.05242268368601799
0.061014752835035324
0.07095146924257278
0.08113769441843033
0.09086721390485764
0.09960131347179413
0.10692148655653
0.11258198320865631
0.11648032814264297
0.11865741014480591
0.11923474073410034
0.11839351803064346
0.11627818644046783
0.11305022984743118
0.10899075120687485
0.10436582565307617
0.09940129518508911
0.09429679065942764
0.08921223133802414
0.08427709341049194
0.0795978233218193
0.07526399195194244
0.07134811580181122
0.06788858771324158
0.06489447504281998
0.06237058714032173
0.06031787395477295
0.058728404343128204
0.057557933032512665
0.05675061047077179
0.0562463104724884
0.055978696793317795
0.055876802653074265
0.055860020220279694
0.05585206672549248
0.05579012632369995
0.055635854601860046
0.05540198087692261
0.05515934154391289
0.05504602938890457
SCALARS torsion float
LOOKUP_TABLE default
0.4354715943336487
0.4282512366771698
0.4005904793739319
0.3561553955078125
0.3020666837692261
0.24552881717681885
0.19158513844013214
0.14210309088230133
0.09996797144412994
0.06428450345993042
0.03317927569150925
0.00492501026019454
-0.02057705819606781
-0.04121866077184677
-0.057577066123485565
-0.06984968483448029
-0.07794339954853058
-0.08131829649209976
-0.08014677464962006
-0.0751962661743164
-0.06659714132547379
-0.05586922541260719
-0.043291039764881134
-0.029389722272753716
-0.013740774244070053
0.0027677309699356556
0.02006077766418457
0.03954407945275307
0.06306120753288269
0.09340178221464157
0.1338461935520172
0.19072318077087402
0.2750612795352936
0.4047139286994934
0.6015253663063049
0.8639190793037415
1.07644522190094
1.0472099781036377
0.8198422789573669
0.5856679677963257
0.41959574818611145
0.31054630875587463
0.23850379884243011
0.18928702175617218
0.15498514473438263
0.1306414157152176
0.11275538802146912
0.09988929331302643
0.09045098721981049
0.08290531486272812
0.0765208825469017
0.07120433449745178
0.06677664816379547
0.06285097450017929
0.059303510934114456
0.05575426295399666
0.05131227895617485
0.045348141342401505
0.037887267768383026
0.028972119092941284
0.01845696195960045
0.006741889286786318
-0.006062611471861601
-0.01986067183315754
-0.03433321416378021
-0.04766853526234627
-0.05772634968161583
-0.06370290368795395
-0.06433404982089996
-0.05927674472332001
-0.046347010880708694
-0.02485276199877262
0.004720343742519617
0.0420154370367527
0.08697590976953506
0.13796177506446838
0.19460463523864746
0.25353989005088806
