# vtk DataFile Version 2.0
Siphon segment
ASCII
DATASET POLYDATA
POINTS 75 float
92.69525909423828 78.3919906616211 28.57905387878418
92.53348541259766 78.38265228271484 28.326608657836914
92.36402130126953 78.38278198242188 28.079090118408203
92.18814086914062 78.39373016357422 27.836336135864258
92.00702667236328 78.41724395751953 27.59837532043457
91.82196044921875 78.45536804199219 27.365407943725586
91.63446044921875 78.51007080078125 27.137765884399414
91.44623565673828 78.5835952758789 26.91612434387207
91.25930786132812 78.67820739746094 26.70151710510254
91.0760498046875 78.79596710205078 26.495389938354492
90.89917755126953 78.93843841552734 26.299575805664062
90.73155975341797 79.10635375976562 26.116201400756836
90.57603454589844 79.29935455322266 25.947458267211914
90.43514251708984 79.51605224609375 25.795461654663086
90.31048583984375 79.75362396240234 25.661556243896484
90.20281219482422 80.00872039794922 25.54642677307129
90.11196899414062 80.27778625488281 25.450063705444336
90.03707885742188 80.55745697021484 25.371841430664062
89.97672271728516 80.8448257446289 25.31072425842285
89.92920684814453 81.13749694824219 25.265438079833984
89.89274597167969 81.43362426757812 25.234643936157227
89.86554718017578 81.7318344116211 25.217012405395508
89.84595489501953 82.03112030029297 25.211362838745117
89.83238983154297 82.33074951171875 25.216533660888672
89.82330322265625 82.63023376464844 25.2313232421875
89.81739044189453 82.92924499511719 25.25478744506836
89.8133544921875 83.22760009765625 25.28582000732422
89.81005859375 83.52521514892578 25.323383331298828
89.80646514892578 83.82207489013672 25.366479873657227
89.80166625976562 84.11825561523438 25.4139461517334
89.79483032226562 84.41384887695312 25.464689254760742
89.78528594970703 84.70901489257812 25.517498016357422
89.7724838256836 85.00389862060547 25.57113265991211
89.75595092773438 85.2986831665039 25.62432098388672
89.73538208007812 85.59352111816406 25.675750732421875
89.71058654785156 85.8885498046875 25.72413444519043
89.68146514892578 86.18385314941406 25.768207550048828
89.64795684814453 86.4794692993164 25.80669593811035
89.61011505126953 86.7753677368164 25.838472366333008
89.56802368164062 87.0714111328125 25.86249351501465
89.52178955078125 87.36741638183594 25.877811431884766
89.47148895263672 87.66309356689453 25.883569717407227
89.41718292236328 87.95808410644531 25.87897491455078
89.35896301269531 88.251953125 25.863483428955078
89.29685974121094 88.54419708251953 25.836578369140625
89.23088836669922 88.8342514038086 25.797834396362305
89.16101837158203 89.1214828491211 25.74683380126953
89.08722686767578 89.40521240234375 25.683317184448242
89.00953674316406 89.68475341796875 25.60713005065918
88.92794036865234 89.9593505859375 25.518129348754883
88.84247589111328 90.22823333740234 25.41625213623047
88.75322723388672 90.4905776977539 25.301408767700195
88.66036987304688 90.74567413330078 25.173799514770508
88.56417083740234 90.99281311035156 25.033634185791016
88.4649658203125 91.23136901855469 24.881227493286133
88.36320495605469 91.4608383178711 24.716995239257812
88.25943756103516 91.6808090209961 24.541418075561523
88.15431213378906 91.89110565185547 24.355121612548828
88.04854583740234 92.09176635742188 24.158832550048828
87.94290924072266 92.28301239013672 23.953275680541992
87.83821105957031 92.46521759033203 23.739206314086914
87.73524475097656 92.63892364501953 23.51736068725586
87.63481903076172 92.80477905273438 23.28845977783203
87.53762817382812 92.96363067626953 23.053274154663086
87.44432067871094 93.11632537841797 22.812503814697266
87.35540771484375 93.26372528076172 22.566814422607422
87.27133178710938 93.40666198730469 22.316823959350586
87.19229888916016 93.54600524902344 22.06318473815918
87.11833190917969 93.68253326416016 21.806503295898438
87.0492935180664 93.81694793701172 21.547344207763672
86.98487854003906 93.94985961914062 21.286224365234375
86.92448425292969 94.08180236816406 21.02365493774414
86.86737823486328 94.21321868896484 20.760087966918945
86.8126449584961 94.34444427490234 20.495922088623047
86.75921630859375 94.4757308959961 20.23151969909668
LINES 1 76
75 0 1 2 3 4 5 6 7 8 9 10 11 12 13 14 15 16 17 18 19 20 21 22 23 24 25 26 27 28 29 30 31 32 33 34 35 36 37 38 39 40 41 42 43 44 45 46 47 48 49 50 51 52 53 54 55 56 57 58 59 60 61 62 63 64 65 66 67 68 69 70 71 72 73 74

POINT_DATA 75
SCALARS curvature float
LOOKUP_TABLE default
0.14337974786758423
0.14471791684627533
0.1511756330728531
0.16296270489692688
0.17991650104522705
0.2015024572610855
0.2268275022506714
0.2547551095485687
0.28367117047309875
0.3114568293094635
0.3353983759880066
0.35261353850364685
0.36059489846229553
0.35799866914749146
0.3452923893928528
0.3245343267917633
0.29844963550567627
0.2697586715221405
0.24058127403259277
0.21236783266067505
0.18594327569007874
0.1617044061422348
0.1397920399904251
0.12016963958740234
0.10270644724369049
0.08727964758872986
0.07375641912221909
0.06209389865398407
0.052440859377384186
0.0451807901263237
0.04109785705804825
0.0408841148018837
0.04448183253407478
0.0510677695274353
0.05958962067961693
0.06916353851556778
0.07915055006742477
0.08907529711723328
0.098596952855587
0.10749097913503647
0.11562962085008621
0.12297692894935608
0.12956631183624268
0.13549861311912537
0.14089448750019073
0.1458769142627716
0.15053923428058624
0.15492784976959229
0.15902355313301086
0.1627315729856491
0.16589778661727905
0.1683100312948227
0.16972611844539642
0.16988171637058258
0.16855131089687347
0.16560110449790955
0.16098260879516602
0.15480169653892517
0.14726950228214264
0.13872377574443817
0.12955336272716522
0.12018932402133942
0.11102871596813202
0.102377749979496
0.09439551830291748
0.08705368638038635
0.0801435336470604
0.07330954074859619
0.06613235175609589
0.05823485553264618
0.049309488385915756
0.039168838411569595
0.027723131701350212
0.015026283450424671
0.0033401597756892443
SCALARS torsion float
LOOKUP_TABLE default
0.4101908504962921
0.43681788444519043
0.4286797344684601
0.3915475606918335
0.33845067024230957
0.2818649709224701
0.2295060157775879
0.18401598930358887
0.14550262689590454
0.1130288615822792
0.08496038615703583
0.0601489432156086
0.03743767365813255
0.016060154885053635
-0.004331338219344616
-0.024189693853259087
-0.04405151307582855
-0.06476836651563644
-0.08705377578735352
-0.11192398518323898
-0.14040635526180267
-0.17363403737545013
-0.2132330983877182
-0.2609741687774658
-0.319586843252182
-0.3938080370426178
-0.489309698343277
-0.6166661381721497
-0.7827862501144409
-0.9803948402404785
-1.136743187904358
-1.1380459070205688
-0.9782727956771851
-0.7676752209663391
-0.5840538144111633
-0.4441531300544739
-0.33956336975097656
-0.2604019045829773
-0.19839796423912048
-0.1484849900007248
-0.10786405205726624
-0.07415985316038132
-0.046875543892383575
-0.024656565859913826
-0.007698201574385166
0.0047942521050572395
0.012667548842728138
0.016462417319417
0.016334662213921547
0.012661139480769634
0.005939109716564417
-0.003758283331990242
-0.016278795897960663
-0.03195841610431671
-0.05046497657895088
-0.07245825976133347
-0.09771794080734253
-0.12702858448028564
-0.16010814905166626
-0.19706428050994873
-0.23696976900100708
-0.27789920568466187
-0.31693992018699646
-0.3493490517139435
-0.3709583878517151
-0.378447026014328
-0.37082773447036743
-0.3515501618385315
-0.3244772255420685
-0.29860565066337585
-0.2787114977836609
-0.27780959010124207
-0.3324967622756958
-0.729702353477478
-3.502748489379883
