# vtk DataFile Version 2.0
Siphon segment
ASCII
DATASET POLYDATA
POINTS 86 float
81.11425018310547 64.47880554199219 28.054920196533203
80.93621063232422 64.244873046875 27.99523162841797
80.7498550415039 64.01946258544922 27.928585052490234
80.55660247802734 63.80278015136719 27.853181838989258
80.35797119140625 63.59512710571289 27.767131805419922
80.1556625366211 63.39677429199219 27.668624877929688
79.9515380859375 63.208045959472656 27.555988311767578
79.74761199951172 63.0294075012207 27.427654266357422
79.54610443115234 62.86140823364258 27.28229331970215
79.34935760498047 62.7047119140625 27.118911743164062
79.15985870361328 62.560054779052734 26.936935424804688
78.98011016845703 62.42823791503906 26.736284255981445
78.81256103515625 62.31008529663086 26.517398834228516
78.65951538085938 62.2064323425293 26.281238555908203
78.52304077148438 62.11808395385742 26.02923011779785
78.40495300292969 62.04582214355469 25.763208389282227
78.30675506591797 61.990379333496094 25.485332489013672
78.22965240478516 61.952449798583984 25.19802474975586
78.17459106445312 61.93266677856445 24.90390968322754
78.1422348022461 61.931602478027344 24.60578727722168
78.13300323486328 61.949729919433594 24.306608200073242
78.1470718383789 61.98736572265625 24.00944709777832
78.18429565429688 62.044647216796875 23.717472076416016
78.24424743652344 62.12144088745117 23.433883666992188
78.32613372802734 62.217308044433594 23.161823272705078
78.42879486083984 62.33147048950195 22.90425682067871
78.55069732666016 62.46281814575195 22.663835525512695
78.68999481201172 62.60995864868164 22.442779541015625
78.84457397460938 62.77128219604492 22.24277687072754
79.01217651367188 62.94509506225586 22.064931869506836
79.1904525756836 63.12970733642578 21.909778594970703
79.37706756591797 63.32354736328125 21.777332305908203
79.56978607177734 63.525230407714844 21.667173385620117
79.7664794921875 63.733619689941406 21.578598022460938
79.96511840820312 63.94784927368164 21.510692596435547
80.16380310058594 64.16724395751953 21.462139129638672
80.36075592041016 64.39141082763672 21.431659698486328
80.55424499511719 64.6202163696289 21.41803741455078
80.74258422851562 64.85366821289062 21.419849395751953
80.92414855957031 65.0919189453125 21.43558692932129
81.09727478027344 65.33524322509766 21.463848114013672
81.26017761230469 65.58403015136719 21.503173828125
81.41124725341797 65.83855438232422 21.551860809326172
81.54875183105469 66.09911346435547 21.60821533203125
81.67100524902344 66.3658676147461 21.6704044342041
81.77632141113281 66.63885498046875 21.736434936523438
81.86332702636719 66.91780853271484 21.804128646850586
81.9308853149414 67.20223236083984 21.871191024780273
81.97819519042969 67.49140930175781 21.935239791870117
82.0048599243164 67.78433990478516 21.99385643005371
82.01091003417969 68.07987213134766 22.044649124145508
81.99681854248047 68.37669372558594 22.085329055786133
81.96340942382812 68.67339324951172 22.113750457763672
81.91181945800781 68.96849822998047 22.127962112426758
81.84339904785156 69.26050567626953 22.126230239868164
81.7596664428711 69.54785919189453 22.10706901550293
81.66223907470703 69.82898712158203 22.06926727294922
81.55280303955078 70.1022720336914 22.011930465698242
81.43306732177734 70.36613464355469 21.934520721435547
81.30474090576172 70.61901092529297 21.836864471435547
81.16952514648438 70.85950469970703 21.71926498413086
81.02901458740234 71.0864028930664 21.582408905029297
80.88472747802734 71.29875183105469 21.427349090576172
80.73799896240234 71.49591827392578 21.255430221557617
80.59003448486328 71.67759704589844 21.06818389892578
80.44184875488281 71.84381866455078 20.86724090576172
80.29429626464844 71.99495697021484 20.654264450073242
80.14810943603516 72.13159942626953 20.430814743041992
80.00386810302734 72.25454711914062 20.19831657409668
79.86209869384766 72.36473846435547 19.95802116394043
79.7232666015625 72.46319580078125 19.71100425720215
79.58784484863281 72.55091857910156 19.458118438720703
79.45621490478516 72.62915802001953 19.200159072875977
79.32880401611328 72.69904327392578 18.937721252441406
79.20602416992188 72.76173400878906 18.67128562927246
79.08831024169922 72.8183364868164 18.40122413635254
78.97603607177734 72.87004852294922 18.12788200378418
78.86951446533203 72.9179916381836 17.85157012939453
78.76898956298828 72.96328735351562 17.572572708129883
78.67462158203125 73.00700378417969 17.291183471679688
78.5864028930664 73.0501708984375 17.007722854614258
78.50418853759766 73.09376525878906 16.722524642944336
78.42759704589844 73.13871002197266 16.43597412109375
78.35607147216797 73.1858139038086 16.148466110229492
78.28885650634766 73.23583984375 15.860406875610352
78.22503662109375 73.28943634033203 15.57221794128418
LINES 1 87
86 0 1 2 3 4 5 6 7 8 9 10 11 12 13 14 15 16 17 18 19 20 21 22 23 24 25 26 27 28 29 30 31 32 33 34 35 36 37 38 39 40 41 42 43 44 45 46 47 48 49 50 51 52 53 54 55 56 57 58 59 60 61 62 63 64 65 66 67 68 69 70 71 72 73 74 75 76 77 78 79 80 81 82 83 84 85

POINT_DATA 86
SCALARS curvature float
LOOKUP_TABLE default
0.15338534116744995
0.15372078120708466
0.15795107185840607
0.1660918891429901
0.17776304483413696
0.19223281741142273
0.2086075097322464
0.22595499455928802
0.24333830177783966
0.259886234998703
0.274860680103302
0.28777551651000977
0.29838988184928894
0.306769460439682
0.3132212162017822
0.318256676197052
0.3224448263645172
0.3263225555419922
0.33026477694511414
0.3344266414642334
0.3386998474597931
0.3427703082561493
0.346094012260437
0.3479986786842346
0.34779202938079834
0.3449484705924988
0.33914220333099365
0.33035457134246826
0.3188219964504242
0.3050382435321808
0.28960341215133667
0.27317601442337036
0.25639232993125916
0.23986788094043732
0.2241850346326828
0.20989735424518585
0.19755488634109497
0.18772105872631073
0.18091021478176117
0.1774800568819046
0.17760737240314484
0.18115942180156708
0.18762363493442535
0.19626614451408386
0.20617814362049103
0.21643856167793274
0.22619317471981049
0.2347961813211441
0.24185462296009064
0.24731270968914032
0.2514113485813141
0.254594624042511
0.25737038254737854
0.2601641118526459
0.2632068693637848
0.26644885540008545
0.26956090331077576
0.27201101183891296
0.27314722537994385
0.2723401188850403
0.26909056305885315
0.26313793659210205
0.25447985529899597
0.24338233470916748
0.2303004264831543
0.21579423546791077
0.20045073330402374
0.18480001389980316
0.16930605471134186
0.15434034168720245
0.1402113288640976
0.1271844357252121
0.11546101421117783
0.10522237420082092
0.09658115357160568
0.08958180248737335
0.08409561961889267
0.07984143495559692
0.07640161365270615
0.07329147309064865
0.07009073346853256
0.06650718301534653
0.06253822147846222
0.05846959352493286
0.054977092891931534
0.05301813781261444
SCALARS torsion float
LOOKUP_TABLE default
0.5028182864189148
0.5246760249137878
0.5164493322372437
0.48203733563423157
0.43050503730773926
0.3729269206523895
0.31685104966163635
0.265781044960022
0.22076795995235443
0.18112142384052277
0.14631156623363495
0.1149711161851883
0.08672059327363968
0.06067947670817375
0.03719120845198631
0.016038663685321808
-0.0021207185927778482
-0.017120791599154472
-0.02855522558093071
-0.036342449486255646
-0.04091895371675491
-0.0426020622253418
-0.04246283695101738
-0.04108437895774841
-0.039822787046432495
-0.039303191006183624
-0.04084033519029617
-0.045058052986860275
-0.052859723567962646
-0.06487744301557541
-0.0815948098897934
-0.10381535440683365
-0.1317509114742279
-0.16628843545913696
-0.2072124034166336
-0.2543235123157501
-0.30549156665802
-0.3569347560405731
-0.40270018577575684
-0.435773104429245
-0.45140329003334045
-0.4485880434513092
-0.431537389755249
-0.40672972798347473
-0.38015684485435486
-0.35643479228019714
-0.33759841322898865
-0.32408982515335083
-0.31535929441452026
-0.3094225227832794
-0.30445465445518494
-0.29769742488861084
-0.2874228358268738
-0.2723400890827179
-0.25205159187316895
-0.22744722664356232
-0.19955125451087952
-0.17064975202083588
-0.14177052676677704
-0.11523750424385071
-0.09134167432785034
-0.07165025174617767
-0.05608002468943596
-0.04570111632347107
-0.04060916602611542
-0.04150008410215378
-0.04904751107096672
-0.06360351294279099
-0.08654545247554779
-0.11774341017007828
-0.15870502591133118
-0.20838485658168793
-0.2662718594074249
-0.3283189833164215
-0.3891776204109192
-0.44143664836883545
-0.4784921407699585
-0.49894654750823975
-0.5065115690231323
-0.5107380151748657
-0.5227085947990417
-0.5538224577903748
-0.6134209036827087
-0.7057918906211853
-0.8199061751365662
-0.9167243242263794
