# vtk DataFile Version 2.0
Siphon segment
ASCII
DATASET POLYDATA
POINTS 67 float
102.49278259277344 63.99711608886719 25.65184783935547
102.6738510131836 63.80937194824219 25.503646850585938
102.85665130615234 63.62446594238281 25.35399627685547
103.04081726074219 63.443321228027344 25.201465606689453
103.22599029541016 63.26697540283203 25.04459571838379
103.41178131103516 63.09661102294922 24.8819637298584
103.59774780273438 62.93357467651367 24.712175369262695
103.78334045410156 62.77924346923828 24.53407096862793
103.96794128417969 62.63511657714844 24.346637725830078
104.15081024169922 62.50277328491211 24.149106979370117
104.33111572265625 62.383819580078125 23.94099235534668
104.50788879394531 62.279850006103516 23.72211456298828
104.68008422851562 62.19242477416992 23.49262237548828
104.84657287597656 62.12301254272461 23.252994537353516
105.00614166259766 62.07297897338867 23.0040225982666
105.15754699707031 62.043548583984375 22.74680519104004
105.29948425292969 62.035789489746094 22.482723236083984
105.4306411743164 62.05060958862305 22.213430404663086
105.54971313476562 62.088714599609375 21.940837860107422
105.65541076660156 62.150596618652344 21.667104721069336
105.74654388427734 62.236473083496094 21.394620895385742
105.82202911376953 62.34626388549805 21.125972747802734
105.8810043334961 62.47951889038086 20.863889694213867
105.92286682128906 62.63539123535156 20.61115264892578
105.94722747802734 62.812744140625 20.370574951171875
105.95428466796875 63.009788513183594 20.144643783569336
105.94450378417969 63.22452163696289 19.935558319091797
105.91868591308594 63.454715728759766 19.74510955810547
105.8779067993164 63.69801712036133 19.574594497680664
105.82340240478516 63.95205307006836 19.424816131591797
105.75650024414062 64.21454620361328 19.29609489440918
105.67852783203125 64.48335266113281 19.18833351135254
105.59074401855469 64.75656127929688 19.101099014282227
105.49430847167969 65.03245544433594 19.033693313598633
105.39022827148438 65.30955505371094 18.9852294921875
105.2793960571289 65.58660125732422 18.954708099365234
105.16255950927734 65.8625259399414 18.94104766845703
105.04036712646484 66.13646697998047 18.943140029907227
104.91339874267578 66.40772247314453 18.959871292114258
104.78216552734375 66.6757583618164 18.990161895751953
104.64717102050781 66.94020080566406 19.032991409301758
104.50897979736328 67.20086669921875 19.08724594116211
104.3681640625 67.45771789550781 19.15194320678711
104.2253646850586 67.71087646484375 19.22616195678711
104.08130645751953 67.96060943603516 19.30906867980957
103.93682861328125 68.20734405517578 19.399869918823242
103.79287719726562 68.45165252685547 19.497779846191406
103.65052795410156 68.6942367553711 19.602109909057617
103.51094818115234 68.93588256835938 19.71221160888672
103.37549591064453 69.17747497558594 19.82745933532715
103.24565124511719 69.41996002197266 19.947195053100586
103.1230239868164 69.66429901123047 20.070695877075195
103.00935363769531 69.91143798828125 20.197158813476562
102.90652465820312 70.16224670410156 20.325641632080078
102.81645965576172 70.4174575805664 20.45500946044922
102.74109649658203 70.67761993408203 20.583900451660156
102.6822280883789 70.9429931640625 20.710710525512695
102.64137268066406 71.21353912353516 20.833600997924805
102.61961364746094 71.4888687133789 20.950559616088867
102.61750793457031 71.76832580566406 21.059471130371094
102.6349105834961 72.05098724365234 21.158245086669922
102.67095947265625 72.33583068847656 21.244976043701172
102.72428894042969 72.62181854248047 21.31793975830078
102.7930679321289 72.90799713134766 21.375652313232422
102.87516784667969 73.19351959228516 21.41685676574707
102.9682846069336 73.47765350341797 21.44048309326172
103.07003021240234 73.75975799560547 21.44559097290039
LINES 1 68
67 0 1 2 3 4 5 6 7 8 9 10 11 12 13 14 15 16 17 18 19 20 21 22 23 24 25 26 27 28 29 30 31 32 33 34 35 36 37 38 39 40 41 42 43 44 45 46 47 48 49 50 51 52 53 54 55 56 57 58 59 60 61 62 63 64 65 66

POINT_DATA 67
SCALARS curvature float
LOOKUP_TABLE default
0.03425910696387291
0.041020385921001434
0.05499444901943207
0.07287406176328659
0.09267931431531906
0.11331555247306824
0.13408252596855164
0.15443836152553558
0.17396456003189087
0.19231490790843964
0.20927858352661133
0.224754199385643
0.23878571391105652
0.2515254020690918
0.26321324706077576
0.2741146683692932
0.2844744324684143
0.2944386899471283
0.30402788519859314
0.3130769729614258
0.3212454915046692
0.32801753282546997
0.3328346312046051
0.3351295292377472
0.3344656229019165
0.3306182324886322
0.32368648052215576
0.3139875531196594
0.3020353317260742
0.28840208053588867
0.27371594309806824
0.2585272490978241
0.24329128861427307
0.22833901643753052
0.21388472616672516
0.2000463455915451
0.18684090673923492
0.17422989010810852
0.16209980845451355
0.15032075345516205
0.13874222338199615
0.1272551417350769
0.11581535637378693
0.10451551526784897
0.09366045147180557
0.08390500396490097
0.07636936753988266
0.07264100760221481
0.07429096102714539
0.0819551944732666
0.0949801504611969
0.11202774196863174
0.13178516924381256
0.15304355323314667
0.17465414106845856
0.1954110860824585
0.21407637000083923
0.22946374118328094
0.24063284695148468
0.24709227681159973
0.24897080659866333
0.2470477819442749
0.24256063997745514
0.23701661825180054
0.23192644119262695
0.228616863489151
0.2280813753604889
SCALARS torsion float
LOOKUP_TABLE default
-1.564460039138794
-1.164170503616333
-0.6552892923355103
-0.36196988821029663
-0.2091248482465744
-0.1259210705757141
-0.07765953987836838
-0.0477483831346035
-0.028400523588061333
-0.015379822812974453
-0.0066624353639781475
-0.0007798700244165957
0.0030507324263453484
0.0054600173607468605
0.00707230344414711
0.00823238119482994
0.009592861868441105
0.011357216164469719
0.013987556099891663
0.017548153176903725
0.022094307467341423
0.02750612236559391
0.03328757360577583
0.039144426584243774
0.04421937093138695
0.048143498599529266
0.05006278306245804
0.049731798470020294
0.04670169949531555
0.04106201231479645
0.03284341096878052
0.02250266820192337
0.010621625930070877
-0.0019874372519552708
-0.014117679558694363
-0.02457028441131115
-0.03141606226563454
-0.033147577196359634
-0.027409752830863
-0.01229770015925169
0.014687640592455864
0.056950636208057404
0.11839576810598373
0.2063727080821991
0.32759302854537964
0.4889756143093109
0.6745200753211975
0.8270871043205261
0.8584981560707092
0.757102906703949
0.6018974184989929
0.4633203148841858
0.36145657300949097
0.29356566071510315
0.25080597400665283
0.22662803530693054
0.21561190485954285
0.21513845026493073
0.2224816083908081
0.2368680238723755
0.25621938705444336
0.27982258796691895
0.3049931824207306
0.3295629322528839
0.34913718700408936
0.3599928915500641
0.358092337846756
