# vtk DataFile Version 5.1
vtk output
ASCII
DATASET POLYDATA
POINTS 83 float
74.8596 70.4216 32.6632 75.6751 70.798 32.2694 76.1574 70.9541 31.988 
76.9439 71.1063 31.6828 77.8831 71.1231 31.4637 78.8205 70.9855 31.2658 
79.2324 70.8876 31.2035 79.7925 70.5431 31.0986 80.4076 70.1497 30.9581 
81.0441 69.6431 30.7968 81.4953 69.2383 30.6475 81.8425 68.7294 30.4147 
82.1738 68.0828 30.1601 82.4624 67.2705 29.7993 82.563 66.594 29.4256 
82.5095 65.725 29.0719 82.4243 64.8979 28.6852 82.2663 64.5222 28.4045 
81.977 64.0904 28.021 81.704 63.7911 27.6997 81.1292 63.4505 27.0606 
80.5966 63.2968 26.4052 80.2031 63.317 25.895 79.6904 63.7953 25.2027 
79.3407 64.5207 24.7464 79.2333 65.0966 24.5207 79.2229 65.6967 24.4115 
79.2488 66.6317 24.3656 79.3463 67.4873 24.2349 79.4323 68.148 24.0664 
79.5857 69.0065 23.7819 79.6517 69.8741 23.4333 79.7412 70.5555 23.059 
79.822 71.0286 22.7601 79.9065 71.7196 22.0774 79.9052 71.9656 21.7822 
79.9105 72.3512 21.2374 79.9876 72.6351 20.6547 80.0246 72.9689 19.8072 
79.9044 73.2696 18.9135 79.8004 73.5263 18.3312 79.7171 73.7701 17.4958 
79.6572 73.8892 16.9903 79.6036 73.9722 16.4521 79.5235 74.042 15.7863 
79.346 74.2375 14.8807 79.1642 74.3462 14.394 78.8822 74.4365 13.7809 
78.4241 74.5444 12.9861 77.9224 74.6264 12.2533 77.523 74.7036 11.7154 
76.9925 74.8545 11.1506 76.5179 75.0679 10.6398 76.0872 75.2119 10.3104 
75.5201 75.4264 10.001 74.7371 75.7002 9.67886 73.9357 76.0426 9.54891 
73.2946 76.3877 9.46045 72.658 76.7318 9.29841 71.9426 77.1739 9.1466 
71.5344 77.4339 9.08237 70.6594 77.8835 9.03717 70.0323 78.1929 8.97025 
69.2921 78.6845 8.96558 68.4592 79.1026 8.91616 67.7649 79.5774 8.88746 
67.2693 79.9328 8.87707 66.8061 80.3055 8.86038 66.3642 80.7096 8.83 
65.6873 81.3874 8.70945 65.2226 81.9437 8.63617 64.8179 82.4008 8.48955 
64.3431 82.9713 8.27683 63.866 83.4636 7.99437 63.294 84.1492 7.55972 
63.0111 84.5099 7.28403 62.7175 84.9938 6.84156 62.4842 85.3058 6.48591 
62.2515 85.7768 5.89696 62.1153 86.3364 5.11456 62.08 86.6671 4.48517 
62.1055 86.893 3.87509 62.1049 87.1108 3.24963 
LINES 2 83
OFFSETS vtktypeint64
0 83 
CONNECTIVITY vtktypeint64
82 81 80 79 78 77 76 75 74 
73 72 71 70 69 68 67 66 65 
64 63 62 61 60 59 58 57 56 
55 54 53 52 51 50 49 48 47 
46 45 44 43 42 41 40 39 38 
37 36 35 34 33 32 31 30 29 
28 27 26 25 24 23 22 21 20 
19 18 17 16 15 14 13 12 11 
10 9 8 7 6 5 4 3 2 
1 0 
CELL_DATA 1
FIELD FieldData 2
Length 1 1 double
61.921160709 
Tortuosity 1 1 double
0.71319318538 
POINT_DATA 83
FIELD FieldData 7
MaximumInscribedSphereRadius 1 83 double
1.006531821 1.0107597459 1.0376970772 1.1298921532 1.1745030302 1.2334862701 1.2539182355 1.1776440813 1.1602413294 
1.2296376633 1.2495740255 1.2359472554 1.2996227123 1.3991518435 1.4713026048 1.5235025901 1.617280305 1.5726397675 
1.520051635 1.514328276 1.5317302109 1.684728764 1.8081765264 1.871789837 1.812764903 1.7899646021 1.7774006196 
1.7813038464 1.8482466692 1.8972023196 1.9547831828 1.9560437672 1.9591228501 1.9743316189 1.9615708213 1.9433561189 
1.927010903 1.9151621061 1.9157741471 1.8571786704 1.8144154267 1.7652218038 1.7096168829 1.6557015168 1.5966267266 
1.5494475465 1.549698944 1.5526027134 1.5267690525 1.4489159714 1.4238478363 1.4850196734 1.5322375409 1.5271099639 
1.5179080587 1.5280398933 1.55688598 1.5687360335 1.58341783 1.6500241421 1.6620205241 1.6771093661 1.6243651712 
1.5615540777 1.6314042914 1.6513732484 1.665847068 1.6945167182 1.7296141331 1.7446125048 1.6781965464 1.6615879202 
1.682198785 1.7253039425 1.7704328473 1.7828718642 1.7572801604 1.7430513151 1.7392702055 1.7229335472 1.6972453511 
1.6757189556 1.7143910073 
Curvature 1 83 double
0 0.18278694892 0.25274875646 0.23663544007 0.16786050955 0.15077541238 0.58611628844 0.051326591838 0.12954920389 
0.10106788085 0.40975237412 0.16876036395 0.16114038395 0.23871980563 0.25911932923 0.066967027494 0.44021337066 0.28147656259 
0.21304183118 0.33844670677 0.22959204217 0.28575211889 0.61028355035 0.42583887477 0.36751523678 0.40394279286 0.17977482518 
0.14741537044 0.12642617294 0.10173946932 0.1246348317 0.14878968014 0.099651443738 0.29036395186 0.19528152368 0.15096163862 
0.2999945084 0.14088755345 0.18900671811 0.1211104029 0.19335874806 0.079798256403 0.14939834811 0.086259463759 0.158675719 
0.21858549894 0.17036772914 0.11539659243 0.089437460285 0.056746377659 0.18928936142 0.13813801897 0.26001947492 0.25769427958 
0.13279389112 0.26456382653 0.11578945933 0.1350190274 0.08843375393 0.072301634463 0.17140372919 0.061748494153 0.1973328861 
0.14315162901 0.15348580041 0.038689499445 0.094000696205 0.11227325448 0.11153175894 0.10817066717 0.20403776497 0.074958841124 
0.17590153561 0.10635037733 0.12111597973 0.25139632562 0.17083692462 0.25091434737 0.19084289362 0.19595974428 0.23116388083 
0.067826553317 0 
Torsion 1 83 double
0 0 -0.3256779349 0.37844293918 0.19945573668 1.3525322405 0.2242344091 5.3225713059 0.080259368488 
0.10790512934 -0.22093385856 -0.54458215573 0.52464029847 -0.46726443035 -0.29595672823 1.1636090895 -0.13883969227 -0.19863044527 
0.53463534478 0.26801118699 0.19853985263 -0.16784301882 -0.055213817707 0.10474979055 0.079681362964 -0.29439157556 -0.045938964091 
0.82232877429 0.17486950115 0.44370879536 -0.18876823827 -0.51579930591 1.2326037632 0.34584112865 0.052859999305 -1.7823995579 
0.18142208563 1.7211221936 0.53498509414 1.0628601783 0.24389686083 0.56816954512 0.050325533848 2.0908107222 -0.41124112739 
-0.76556368491 -0.38807709655 0.47594426304 0.16973745875 0.91558880912 0.44445502338 -0.4205482027 0.070936980543 0.32583790757 
0.10239123278 0.35324011883 1.8678761497 0.19338722475 -1.0965467466 -2.1205125393 -0.47824896502 -2.6095413831 -0.22778366988 
-0.3178963079 -0.19360529674 -0.071014560932 0.40541664696 0.62980322955 -0.18816577784 0.39975318206 0.15280732185 0.13956378954 
-0.13556304614 -0.58679530616 -0.15478917431 0.40918702492 -0.0028553955576 -0.47761051382 0.41942777383 0.35690357501 0.20959023381 
0 0 
FrenetTangent 3 83 double
-0.83362141021 -0.34206273693 0.43366856982 -0.83362141021 -0.34206273693 0.43366856982 -0.88639099896 -0.2153914032 0.40977742787 
-0.95264568677 -0.093253523714 0.28943043342 -0.97426683245 0.06273326351 0.21649174772 -0.96780562681 0.16890358745 0.1866114864 
-0.89918834434 0.40929113242 0.15472908685 -0.83397030782 0.52360087618 0.17417131837 -0.79675196958 0.57295309483 0.19212248722 
-0.74875017556 0.62742051453 0.21381457514 -0.6276498606 0.71822316662 0.30035168623 -0.47584445529 0.81038981663 0.34181924972 
-0.36455749758 0.8579641971 0.3619326836 -0.22827031125 0.87312566307 0.43074846661 -0.027574598176 0.90444324832 0.42570183473 
0.074772696332 0.9139017576 0.39898950029 0.174113162 0.86107855976 0.47773247821 0.39327162831 0.71011085763 0.58402054436 
0.48434681726 0.62986708576 0.60718663925 0.59206365327 0.44681958352 0.67068091538 0.62430981575 0.27863377753 0.72979481498 
0.61958854463 0.089371634287 0.77982225305 0.57134424546 -0.31430764079 0.75814013224 0.4601998918 -0.64231103538 0.61290504437 
0.29710850429 -0.8457427612 0.44322197437 0.095904620643 -0.95731964999 0.27265617816 -0.010022803967 -0.99488320147 0.10053337176 
-0.06843676704 -0.99284075046 0.097896134432 -0.11795228333 -0.97423625193 0.1922263881 -0.14929999411 -0.94756053185 0.28255716278 
-0.11848601781 -0.93221416791 0.34196170652 -0.090631895492 -0.90244317576 0.42116763176 -0.1263730413 -0.85694683441 0.49967186975 
-0.10792337356 -0.76005631085 0.64083301239 -0.061356065979 -0.69054812821 0.72067934325 -0.0037385738235 -0.60096666793 0.79926534212 
-0.062670201725 -0.50955466991 0.85815294918 -0.073049705807 -0.39542176448 0.91559017506 0.044832034585 -0.34204526964 0.93861340401 
0.14065621223 -0.34976849781 0.9262169443 0.12360009703 -0.33034724435 0.93573164645 0.10260051527 -0.25988015078 0.96017469322 
0.10624257865 -0.18907311481 0.97619868456 0.10949145966 -0.12513131148 0.98608000444 0.1595649788 -0.16434800533 0.97341088482 
0.2444463652 -0.20693586541 0.94732440175 0.38323939598 -0.16437965834 0.90890422669 0.46170532073 -0.12370846686 0.87836462363 
0.52908042552 -0.10470664966 0.84208694376 0.57548893957 -0.10160559404 0.8114732181 0.63680566158 -0.15621437257 0.75503352189 
0.66277866135 -0.24024254985 0.70923054313 0.70403917817 -0.27798296962 0.65349392056 0.8060632621 -0.28964730127 0.5161070222 
0.86079392296 -0.31130028292 0.40264867571 0.90070532869 -0.3502663427 0.25698910489 0.89441139278 -0.42624921218 0.13542477467 
0.86730055914 -0.4678469206 0.17002646561 0.84753752008 -0.4929177699 0.19675422273 0.83699731689 -0.52300539209 0.16093741443 
0.87271509078 -0.48252476622 0.074419219965 0.89054337147 -0.45001446529 0.066479204036 0.8619529799 -0.50497546085 0.045131412269 
0.8652922258 -0.50038417609 0.029749626565 0.86243110815 -0.50424842464 0.044114736099 0.81983682601 -0.5719634109 0.026933906151 
0.79619769338 -0.60461856353 0.022486121989 0.75826089224 -0.65075783076 0.039429240436 0.71550623083 -0.69190647878 0.096520765948 
0.67459384396 -0.72924860478 0.11454090149 0.64244451079 -0.7489031034 0.1625090529 0.62838848201 -0.73430467717 0.25675777838 
0.63032106632 -0.70369762606 0.32787955783 0.60550705 -0.6797649809 0.41386082581 0.56005740719 -0.68541452488 0.46534141202 
0.4613494901 -0.67591162162 0.57471743296 0.42346150262 -0.63971438448 0.64144045872 0.35503697693 -0.59658722289 0.71974469814 
0.21020860048 -0.58735791887 0.78155167419 0.10220415132 -0.53063220406 0.84141771759 0.0072238862256 -0.40960249095 0.91223550406 
-0.018980010152 -0.33794470241 0.94097456784 -0.018980010152 -0.33794470241 0.94097456784 
FrenetNormal 3 83 double
0.017170721562 -0.80082298713 -0.59865491696 0.017170721562 -0.80082298713 -0.59865491696 0.45978555287 -0.51271865044 0.72506332887 
0.25782345297 -0.75235729025 0.60620588491 -0.032351754896 -0.98946265216 0.14112768661 -0.037421425117 -0.82972536885 0.55691601632 
-0.41877391541 -0.9074848124 -0.033162072088 -0.38307034369 -0.32216555443 -0.86571731375 -0.59157319569 -0.80441650672 -0.054362099442 
-0.60423497257 -0.51342937222 -0.60933601376 -0.75897422458 -0.47867820835 -0.44139018938 -0.80910191622 -0.55571311439 0.19114660254 
-0.89108467485 -0.20860167981 -0.40305513448 -0.88548547155 -0.002265192279 -0.46466154195 -0.84584388542 -0.24806242306 0.47224268735 
-0.57969728531 0.36539411428 -0.72831188282 -0.75189814823 0.42952660578 -0.50015604527 -0.8016107889 0.57591124968 -0.16045677178 
-0.652670503 0.72231168916 -0.22866359179 -0.36936116932 0.89011852257 -0.26694820166 0.0041811629158 0.93301958822 -0.35980128665 
0.037365173405 0.98901227122 -0.14303346177 0.22052099069 0.9485822514 0.22707312696 0.36099470157 0.76608456607 0.53178685869 
0.73052141091 0.50024577894 0.46485764364 0.62517638704 0.27108260315 0.73189391811 0.32293089862 0.091930837353 0.94194710884 
0.63621334303 -0.11901651653 -0.7622779355 0.13479031553 -0.20749384995 -0.96890550265 0.51431255264 -0.31848079948 -0.79627418554 
-0.83945682005 -0.0899005519 -0.53593855808 0.34513746829 -0.42516163071 -0.83673037219 0.42425068238 -0.50200886991 -0.75365672095 
-0.2568083463 -0.60140674471 -0.75654438118 -0.67984581052 -0.49973755351 -0.53672344046 0.14209957226 -0.79147937493 -0.59444773582 
0.56223908891 -0.728445549 -0.39147706067 -0.70612685914 -0.62781010138 -0.32747417517 -0.95628946549 -0.28646613186 -0.05871638173 
-0.36253681639 0.85234542269 0.37692749592 0.45292930921 -0.82022935353 -0.34939783696 -0.35022885466 -0.91289779144 -0.20966013389 
0.21051907181 -0.9552226121 -0.20792181639 -0.39548469758 -0.91562430316 -0.072277170968 -0.54108209601 0.8101771719 0.22548418018 
-0.96884051542 -0.011897214174 0.24739949875 -0.69406277975 -0.70052458741 0.16595830861 -0.88185669048 -0.17083960846 0.43947992632 
-0.82220550909 -0.30870545075 0.47820397896 -0.67175164306 0.50719862406 0.53990673806 -0.57482846554 0.55645012009 0.5999462468 
0.20093566074 0.96945956058 0.14061657318 -0.70849438543 -0.21193101042 0.67314259458 -0.40581877147 0.36424580379 0.83823392865 
-0.44411237805 -0.073007759923 0.89299163639 -0.12861849388 0.3500311094 0.92786610321 0.37617973855 0.88075171318 0.28768945765 
0.15791903805 -0.065324623552 -0.98528892766 0.30494983276 0.7556933267 0.57959744261 0.012937002399 0.31293781728 0.94968550399 
-0.39743183515 -0.61357786705 0.68232700186 -0.083337012673 -0.30506273359 -0.94867890821 0.39002690014 0.71734209145 0.57732083021 
-0.45612007474 -0.81058529955 -0.36729545269 0.49454485584 0.857984812 0.13887925667 0.44081608218 0.66047647322 0.60782564114 
0.59666690669 0.77848088528 -0.19482328842 0.62308239605 0.70556034328 -0.33756914806 0.42027496372 0.31594934019 -0.85061446573 
0.68682498792 0.67692058753 0.26466951872 -0.051014023432 -0.25338471598 -0.96601954179 0.56475799852 0.20366233459 -0.79973124021 
-0.21651785298 -0.56493185508 -0.79622359828 0.73725376079 0.28328663057 -0.61335599544 0.50315791489 -0.16481546161 -0.84833246802 
0.77266070599 -0.012289583216 -0.63470024387 -0.31941624145 -0.76802035838 -0.55508377189 0.90377747239 0.022186060666 -0.42742725593 
0.92895697692 -0.12916176734 -0.34692387189 0.55115925743 -0.67394118775 -0.49196214123 0.56719152997 -0.74963625995 -0.34108539415 
-0.90004490593 -0.40405744149 -0.16326895383 -0.90004490593 -0.40405744149 -0.16326895383 
FrenetBinormal 3 83 double
0.55206929888 -0.49160515384 0.67345665187 0.55206929888 -0.49160515384 0.67345665187 0.053928121986 0.83109934961 0.55350305215 
0.16122426174 0.6521213753 0.74077287296 0.22306389922 0.13049213624 0.96603017512 0.24890139746 0.53200318649 0.80933349363 
0.12684135432 -0.094615454226 0.98740021605 -0.39717834465 -0.78870240142 0.46925247419 0.12339956691 -0.15696762353 0.97986412938 
-0.27253123219 -0.58543469123 0.76353974997 -0.17324485249 -0.50499767899 0.8455551817 0.3448567 -0.18561055898 0.92012095773 
-0.27030710906 -0.46944943889 0.84056605399 -0.40473218882 -0.48748994389 0.77365716564 0.53271733877 -0.34705539158 0.77185801295 
-0.81139392485 -0.17683528693 0.55710787107 -0.63587245695 -0.27212241518 0.72222961006 -0.45028609737 -0.40505407339 0.79572207972 
-0.58260567721 -0.28554032635 0.7609450354 -0.71626318981 -0.089673159635 0.69204462816 -0.78116564942 0.22767886599 0.581328274 
-0.78403691187 0.11776008812 0.60944128714 -0.79052909234 0.037448888652 0.61127844302 -0.81110966276 -0.023472781248 0.58442291494 
-0.61486990891 0.18566998285 0.76646047034 -0.77456877605 0.1002661958 0.62449171423 -0.94636947231 0.041906283303 0.32035712151 
0.76847185444 0.010114989465 0.63980363856 0.98382865871 -0.088374360865 0.15579198518 0.84450702185 0.026438964447 0.5348914574 
0.53035206312 -0.35056331227 -0.77190158261 0.93416593146 0.069526270503 0.35000015744 0.89668345191 0.11674423978 0.42700066691 
0.96041762724 -0.24622008803 -0.13028295951 0.73078389903 -0.52288207106 -0.43880432162 0.98984530843 0.11135287649 0.088356110529 
0.82459666063 0.45795318593 0.33214338287 0.70430717679 -0.67044470673 -0.23335658538 0.28896461178 -0.89495373557 -0.33993714761 
-0.92129413692 -0.38880493613 -0.0069162789965 0.88293717606 0.46700589479 0.048243521498 0.93102786405 -0.31476964531 -0.18468131135 
0.97179948286 0.2275985909 -0.061681816858 0.91192295412 -0.38206581939 -0.14974056033 -0.82569315301 -0.56267458026 0.040350140062 
-0.039925308076 -0.97828216988 -0.20339608127 0.60942958833 -0.69443835606 -0.38255842235 0.095692080483 -0.97750194036 -0.18797069539 
0.20988569305 -0.94537688897 -0.24942039543 -0.46643564453 -0.85581882371 0.22363347357 -0.51385872045 -0.81606392743 0.26455411878 
-0.72135241478 0.049312043669 0.69081040528 -0.048626550531 -0.9369155327 -0.34615710763 -0.43078201241 -0.88511549263 0.17606084885 
-0.24859207121 -0.94750303474 -0.20109694501 -0.41495444798 -0.86878749509 0.27022415599 -0.24190300697 -0.20636867218 0.94810068366 
0.47207130556 0.88139205377 0.017225853125 -0.43437973197 -0.43123041184 0.79079363955 -0.54705404256 -0.79280217101 0.26869423543 
-0.28357769081 -0.62505363854 -0.72724936729 0.44719955932 0.83929953509 -0.30917445648 -0.32390751396 -0.48002094514 0.81526916698 
0.20790344244 0.3042484979 -0.92962842585 -0.10787941995 -0.097957075421 0.98932625667 -0.36544323828 -0.48644494541 0.7936136054 
0.10028876064 0.16853457771 0.98058057324 0.1918560581 0.280533149 0.94047456387 0.55804998747 0.64918521167 0.5168546918 
-0.27054497159 -0.099874874729 0.95751262537 0.76463234301 0.6123237113 -0.20099018036 0.5349545016 0.64754790908 0.54268350506 
0.74553026276 0.4308847296 -0.50845154844 0.29969668765 0.67651182967 0.6726913406 0.65815485514 0.70925509706 0.25256562308 
0.43606430879 0.73688021137 0.51658055779 0.84773440446 0.030170107684 -0.52956221929 0.23902934006 0.80224152485 0.54705896427 
0.3047150789 0.79895426214 0.51847932234 0.8281170113 0.51403573754 0.22358326443 0.82355423853 0.51987621332 0.22690777647 
0.4353836544 -0.8500182128 -0.29649639355 0.4353836544 -0.8500182128 -0.29649639355 
SiphonLabel 1 83 int
0 0 0 0 0 0 0 0 0 
0 0 0 0 0 0 0 0 0 
1 1 1 1 1 1 1 1 1 
1 1 1 1 1 1 1 1 1 
1 1 1 1 1 1 0 0 0 
0 0 0 0 0 0 0 0 0 
0 0 0 0 0 0 0 0 0 
0 0 0 0 0 0 0 0 0 
0 0 0 0 0 0 0 0 0 
0 0 
