# vtk DataFile Version 5.1
vtk output
ASCII
DATASET POLYDATA
POINTS 91 float
106.99 73.8591 35.5949 106.602 73.248 34.9999 106.356 72.5378 34.454 
106.199 72.1032 34.1576 105.861 71.6249 33.6498 105.629 71.2791 33.231 
105.422 70.9927 32.9465 105.125 70.578 32.4107 104.871 70.1842 31.884 
104.71 69.9108 31.6089 104.403 69.4322 31.0945 104.19 69.046 30.6662 
103.718 68.5406 29.9521 103.361 68.1999 29.2566 103.011 67.7556 28.4609 
102.767 67.3575 27.8548 102.499 66.8753 27.1015 102.436 66.3131 26.3943 
102.59 65.6529 25.7114 102.713 65.1422 25.3095 102.893 64.3704 24.9832 
103.183 63.5117 24.6526 103.411 62.9005 24.5431 103.7 62.3846 24.5076 
104.13 61.6674 24.479 104.688 60.9425 24.4441 105.332 60.3259 24.2458 
105.882 60.0501 23.9376 106.549 59.8412 23.4295 107.192 59.8359 22.7439 
107.551 59.9386 22.367 107.891 60.2635 21.8507 108.102 60.9029 21.2203 
107.991 61.6412 20.7077 107.844 62.0832 20.4674 107.579 62.6093 20.2655 
107.294 63.2186 20.1424 106.972 64.1373 20.1273 106.695 65.03 20.2124 
106.526 65.7237 20.3415 106.264 66.6368 20.4292 105.861 67.473 20.4822 
105.562 68.0568 20.3961 105.231 68.6811 20.15 104.996 69.4642 19.7798 
104.849 70.0965 19.4847 104.759 70.753 19.0467 104.749 71.23 18.7593 
104.637 71.8883 18.2245 104.611 72.4927 17.4812 104.617 72.8831 16.9034 
104.598 73.2199 16.2286 104.656 73.4742 15.4254 104.735 73.6646 14.698 
104.746 73.9029 14.1892 104.749 74.2352 13.3166 104.753 74.5329 12.5395 
104.76 74.7749 11.8987 104.781 74.9431 11.4513 104.814 75.2096 10.7479 
104.863 75.4972 9.88624 105.044 75.7269 9.01235 105.257 75.9439 8.14657 
105.566 76.0978 7.299 105.944 76.2738 6.72023 106.262 76.3643 6.21074 
106.777 76.5094 5.55039 107.309 76.6952 4.93076 107.852 76.8564 4.42714 
108.6 77.0272 3.86887 109.068 77.1807 3.55637 109.622 77.3006 3.21476 
110.393 77.5046 2.87424 111.167 77.8196 2.65145 111.768 78.0756 2.61765 
112.412 78.2938 2.48813 112.984 78.5301 2.42499 113.901 78.8163 2.46867 
114.404 78.9183 2.49009 115.357 79.1659 2.57614 116.032 79.4019 2.69696 
116.883 79.78 2.8794 117.743 80.1372 3.13898 118.322 80.3161 3.2768 
119.014 80.5376 3.44023 119.761 80.8212 3.5558 120.525 81.134 3.54094 
121.403 81.5979 3.47129 122.064 81.9826 3.47012 122.894 82.5118 3.41296 
123.488 82.9312 3.206 
LINES 2 91
OFFSETS vtktypeint64
0 91 
CONNECTIVITY vtktypeint64
90 89 88 87 86 85 84 83 82 
81 80 79 78 77 76 75 74 73 
72 71 70 69 68 67 66 65 64 
63 62 61 60 59 58 57 56 55 
54 53 52 51 50 49 48 47 46 
45 44 43 42 41 40 39 38 37 
36 35 34 33 32 31 30 29 28 
27 26 25 24 23 22 21 20 19 
18 17 16 15 14 13 12 11 10 
9 8 7 6 5 4 3 2 1 
0 
CELL_DATA 1
FIELD FieldData 2
Length 1 1 double
70.587336259 
Tortuosity 1 1 double
0.88416777228 
POINT_DATA 91
FIELD FieldData 7
MaximumInscribedSphereRadius 1 91 double
1.414086646 1.4768704744 1.5853023047 1.6053479839 1.6225230213 1.5754605441 1.5734219003 1.5867822453 1.6212060337 
1.6274750754 1.6163305698 1.6152878851 1.6049352034 1.6657538431 1.7329461109 1.7206538798 1.6830442072 1.755905501 
1.7916371718 1.7915115724 1.6531340332 1.5377123783 1.4825468265 1.5171304991 1.5352613256 1.4807696338 1.4749374793 
1.5018359433 1.6043590957 1.7212587462 1.7645037051 1.8258719384 1.8445947563 1.7663573173 1.7465732762 1.7354716293 
1.7606417909 1.8515675517 1.9252671897 1.9069022462 1.9689406974 2.0220299652 2.0634387967 2.0909946309 1.9987848506 
1.9279134688 1.829507669 1.8279637574 1.8670943461 1.920170153 2.0220890416 2.1951549929 2.4118702462 2.4809957364 
2.4155283864 2.3031717526 2.221311759 2.1812817006 2.148882384 2.1027751904 2.0720463582 2.0522195116 1.9673327184 
1.9193600649 1.9158059592 1.9293854218 1.9465300416 1.9825248919 2.0120968058 2.0716453869 2.1061542451 2.1632210608 
2.2527757232 2.3880584768 2.3160650948 2.2748602489 2.2424060039 2.1368781004 2.1040015358 1.9679809603 1.9110092105 
1.9283531355 1.8808585717 1.8643320557 1.8981438422 1.9715709279 2.0323113771 2.1040959529 2.1044331438 2.0936080822 
2.0932199457 
Curvature 1 91 double
0 0.20943449222 0.079911494525 0.39406325227 0.11073403008 0.21571371925 0.22156136768 0.065180785956 0.23620227854 
0.059283443504 0.087411632336 0.22109233347 0.16985928922 0.090710455821 0.091025368608 0.041544399125 0.26803747002 0.27187822297 
0.16768177016 0.35108348165 0.10817240244 0.23041588348 0.29830422222 0.055180498131 0.13253189567 0.25938043102 0.47897965402 
0.27849109929 0.32731864455 0.27452044617 0.55836348391 0.44200504354 0.44389400589 0.27370290101 0.34709732574 0.23383803386 
0.23529806385 0.11748841245 0.1294790045 0.11412640693 0.18484733555 0.23902225893 0.29368975706 0.24895656116 0.070857578268 
0.23702342939 0.15605708327 0.25645117278 0.25680395977 0.11522747405 0.18784003751 0.22973459662 0.076904727486 0.30555000775 
0.10222824554 0.0029290558201 0.010175608027 0.056066215865 0.0044570765023 0.049667674346 0.17233743792 0.042237220221 0.13883423978 
0.29507435008 0.1548797907 0.14700444155 0.082185473255 0.14001031087 0.12873983694 0.13013131981 0.14690600119 0.19040987955 
0.21749457253 0.27810937661 0.23259592942 0.16480826965 0.21885142555 0.13842011539 0.0936781487 0.13401162623 0.10136559495 
0.085562473034 0.12997796518 0.014551981725 0.12091495515 0.20162008393 0.12164144686 0.090756375975 0.079358365555 0.26030971876 
0 
Torsion 1 91 double
0 0 4.6257522232 0.34738020667 2.4493485746 0.18993288311 0.32349584662 3.7132089522 0.35835078439 
3.3862681123 -0.91553363528 0.26634164085 0.95523879634 1.2132904464 -0.028183407461 1.2998131291 0.047140660312 0.26746298461 
0.86784186981 -0.17843566604 -0.66245005569 -0.33813667821 -0.43233563955 -0.78704344729 -0.99370429153 -0.10928982455 -0.057373001552 
-0.24793201022 0.2968551441 -0.22330447281 -0.2146504976 -0.10200303986 -0.04789520145 0.18116559345 0.50262903553 1.1642443046 
0.1500016542 -0.066800325084 0.24804031588 0.89435843878 -0.38007647633 -0.50258792881 -0.58092984073 -0.71933670834 1.0272412339 
-0.25811731353 -0.60030427448 -0.45674672031 -0.47996865837 0.71233350858 -0.34686521941 -0.38301360882 -0.58350555734 -0.19559265378 
-1.2355428648 -6.0736693991 -1.9235213668 -0.15570266473 -4.4341701577 -1.5896711594 -0.14222184198 0.086062445653 -0.89982049 
0.043013561978 0.56867967198 -0.89678722775 0.15359314782 0.408556921 -0.45319813289 -0.032954140841 -0.46004853693 -0.82920725383 
0.19791847588 0.52068908973 0.43516930793 1.0796879183 0.79353812373 0.64290975576 -0.52838850392 -0.15890495079 0.1616472728 
1.3986358758 0.45692787777 0.46134220293 -0.50255823468 0.14011440745 1.1324532335 0.30336555251 -1.3388593797 0 
0 
FrenetTangent 3 91 double
0.34159977396 0.71136874469 0.61421828653 0.34159977396 0.71136874469 0.61421828653 0.27279585959 0.77490302428 0.57018218312 
0.37687788221 0.69502034205 0.61229877187 0.41770367837 0.60383423973 0.67890194285 0.42082357847 0.60645929994 0.67462184468 
0.42269356652 0.58881079261 0.68893541013 0.38144390227 0.55978913186 0.73561992719 0.36987584712 0.59428046886 0.71415865328 
0.39486228454 0.63364403271 0.66526612424 0.37674219401 0.62619303353 0.68260354819 0.42708620338 0.5562874322 0.71284056258 
0.45026747818 0.45953703284 0.76556182868 0.38680920755 0.42958854496 0.81598548945 0.34120250054 0.48417524569 0.80570167251 
0.30180918717 0.51820457788 0.80023448439 0.18151153777 0.57197507624 0.7999362936 -0.049550608106 0.65952077565 0.75005138739 
-0.17096623344 0.7227647792 0.66961303823 -0.20086401968 0.85189087111 0.48366888397 -0.25835289841 0.89606544366 0.36099930826 
-0.31982535935 0.90766611301 0.27176086327 -0.41411696543 0.90278573965 0.1161251361 -0.50331801282 0.86293422687 0.044894298841 
-0.56502067441 0.82427848594 0.036285191268 -0.66176846667 0.73863368734 0.12838525012 -0.75843739449 0.56681354118 0.32170658708 
-0.78857711917 0.31395670086 0.52875071357 -0.73373418601 0.11995667661 0.66876344099 -0.68459889314 -0.066577699744 0.72587310558 
-0.57644896521 -0.35280741713 0.73704376867 -0.34503568992 -0.60408009732 0.71835757719 -0.056274464081 -0.76839217008 0.63750031972 
0.18133760411 -0.82911775858 0.52884819725 0.36147100707 -0.84807867569 0.3874290527 0.4223547048 -0.87143119551 0.24944773965 
0.36759553403 -0.92620783477 0.083741090132 0.31357822173 -0.9488537837 -0.036676913891 0.26853926064 -0.95460528815 -0.12890077321 
0.25692885484 -0.95775346481 -0.12921247692 0.35451925635 -0.93204144641 -0.07493222973 0.44304352505 -0.89625712515 0.02087104535 
0.44914175409 -0.86150151977 0.23682655289 0.3458061429 -0.85949725899 0.37640745653 0.23750278493 -0.87909675072 0.41325697819 
0.15757366286 -0.85836513794 0.48824157008 0.073535793102 -0.84002459271 0.53754178515 0.086906446057 -0.80684124546 0.58434105987 
0.076555863228 -0.70073108834 0.70930609869 0.011813550967 -0.60152701021 0.7987651069 0.0090386504553 -0.50208228441 0.86477261895 
-0.024373236569 -0.37118038864 0.92824084398 -0.085304037519 -0.27795944109 0.95679766424 -0.068764816657 -0.32687283756 0.94256328597 
-0.0096270941034 -0.38175562768 0.92421315712 -0.0035817436118 -0.35676153831 0.93418861901 -0.0071557005452 -0.35574844348 0.93455435418 
-0.023872450752 -0.35262364274 0.93546067404 -0.043642691034 -0.35302005249 0.93459732402 -0.049655762709 -0.33332101959 0.94150486092 
-0.12608808547 -0.28339101716 0.95067940237 -0.2143227694 -0.24292209667 0.94607325587 -0.2856597313 -0.20274496208 0.93663920389 
-0.42487055887 -0.20404278622 0.88195892739 -0.52725355201 -0.20207991642 0.82532866137 -0.57240212238 -0.16183442491 0.80384415729 
-0.62103035235 -0.19621364065 0.75882903785 -0.67477222174 -0.21784675255 0.70514200072 -0.75748430515 -0.19479037647 0.62311655144 
-0.7945128197 -0.21196647747 0.56905148428 -0.82155687928 -0.21983406469 0.52603923628 -0.8687517708 -0.21243315284 0.44737290521 
-0.89594945061 -0.30096210813 0.32664413576 -0.91022659993 -0.37772039233 0.16974935049 -0.92758430577 -0.35325232836 0.12165585971 
-0.92644680912 -0.34657767977 0.14690208218 -0.94354455011 -0.33101611324 0.012329425828 -0.96368506301 -0.26336294177 -0.044170807467 
-0.96986925598 -0.23287269862 -0.071581649474 -0.95158286041 -0.28262224076 -0.12089139262 -0.91225203653 -0.36728363398 -0.18138068819 
-0.89387529811 -0.38423529646 -0.23097659704 -0.90720429491 -0.3379681686 -0.25051523768 -0.93035781481 -0.29296848938 -0.22046269674 
-0.92814129566 -0.325826105 -0.1799752333 -0.92834761278 -0.36652517899 -0.061887018152 -0.90301951135 -0.42707882162 0.046469799214 
-0.87500226139 -0.48244172156 0.040261990367 -0.85217661912 -0.52219168585 0.033329462421 -0.82246684547 -0.5479704198 0.15256705777 
-0.82246684547 -0.5479704198 0.15256705777 
FrenetNormal 3 91 double
0.77588384014 -0.58226224659 0.24284757113 0.77588384014 -0.58226224659 0.24284757113 -0.37403480163 -0.4606118613 0.80494389892 
-0.57316136445 0.69427363528 -0.43528171298 0.55954007068 0.41774863602 -0.71582189573 -0.55341875502 -0.41761791612 0.72064065783 
0.41464457651 0.55030444131 -0.72473091354 0.87449453952 0.039393944616 -0.48343295034 -0.18546857745 -0.70597109907 0.68352484524 
-0.47438827003 0.76072796091 -0.44299970514 0.89872556398 -0.068574712441 -0.43311646177 -0.71623920026 0.68931982721 -0.10880985168 
0.35189847001 0.69667035129 -0.62515429171 0.74059681881 -0.67194430529 0.0026837582766 0.48663200566 -0.82432077383 0.28928282511 
0.90401579537 0.11100746526 -0.41283505711 0.89645457124 -0.43063682886 0.10450417854 0.92189866542 -0.25871466413 0.28839135435 
0.17751334084 -0.64590252687 0.74249507716 0.09450971847 -0.47457658929 0.87512569041 0.91579612636 0.10821465078 0.38679069832 
0.24449074958 -0.19805065817 0.94921030871 0.77291316341 0.28139080049 0.56870419308 0.66910398876 0.35633467106 0.6521698049 
0.82370242601 0.566071046 -0.032831147814 0.40706231288 0.49781267036 -0.76582166244 0.27528076486 0.72601510708 -0.63017661397 
-0.13875752775 0.746823962 -0.65038474635 -0.30882618747 0.81785608705 -0.48552837899 -0.015098323107 0.99690154337 0.077196848749 
-0.58595075787 0.80714952681 -0.071912104133 -0.7468280991 0.64027533685 0.17970888519 -0.90081450537 0.31441835765 0.29945671354 
-0.82423495825 0.16519649231 0.5416150409 -0.73040836922 0.00070347096684 0.68301033616 0.060353149183 0.30162304855 0.95151512545 
0.45522456545 0.25772589219 0.85226049979 0.30969499427 0.06568259976 0.94856460329 0.58005466011 0.053418720912 0.81282410861 
-0.43545388527 0.0046319750461 -0.90019912165 -0.92064430549 -0.33392324061 -0.20226055512 -0.10148483717 -0.073270378738 -0.99213521227 
0.046426887938 -0.24220458455 -0.9691137618 0.89447314231 0.18078616408 -0.40894273507 0.96793219265 0.25002143596 -0.024424413747 
0.53262822045 -0.34246003172 -0.77396918895 0.89732078786 0.2909461331 0.33191226447 -0.62889949195 -0.49933982524 -0.59594057418 
0.45507789631 -0.60841730288 -0.65017881682 0.37335431766 -0.73839530867 -0.56158607676 -0.25224185539 -0.83798618904 -0.48389378314 
0.51682917976 -0.79948485094 -0.30612345886 0.57055613289 -0.80088430883 -0.18179665314 -0.41464318877 0.86869291373 0.2710048849 
-0.23660735055 -0.89713993849 -0.37303738743 0.61228233876 0.73782563293 0.28411911766 0.78522556439 -0.58067522688 -0.21502812354 
0.99863884461 -0.051817279979 0.0059521033519 0.35883536006 0.86752374485 0.34444119454 0.24878493765 -0.91708253471 -0.31155365401 
0.90472201969 -0.4259452623 -0.0069785816074 0.93413039292 -0.33400755758 0.12585452116 0.83174738486 -0.53792585051 0.13722997902 
0.81634998016 0.33469112977 0.47069582273 -0.066651623227 -0.95847985913 -0.27726146641 0.77827995451 0.20139432664 0.59474417829 
0.41313666612 0.74079318447 0.52966362246 0.73271305114 -0.083303806933 0.67541991416 0.65093222656 -0.29851182743 0.69798132161 
0.1503390157 0.83926619095 0.52252314885 0.3779656978 -0.90078103473 0.2138585017 0.35127051924 0.37246983443 0.85899665002 
0.032103409621 0.6896220856 0.72345749712 0.12765097377 0.13402782812 0.98272161378 0.070855729981 -0.48603854908 -0.87106027021 
-0.098845933772 0.60054631354 0.7934567453 0.18209268015 -0.4872339635 0.85407571131 0.26495748127 -0.96361777875 -0.035189623488 
-0.22329374981 0.73218289521 0.6434657017 -0.28415446072 0.65875926956 0.69662936144 -0.40714550657 0.86167576863 0.30289834306 
-0.086930543683 -0.35687914751 0.93009695981 0.41824440035 -0.78869977617 -0.45058216191 -0.23830929879 0.94012974508 -0.24364880571 
-0.045808650511 0.57981626751 -0.81345845836 0.00027507686084 0.16581385036 -0.9861570318 -0.3969718564 0.78818980693 -0.47028733077 
-0.21728619239 0.46568340833 0.85786110403 -0.32712161982 0.48195687426 -0.81284009325 -0.23978264008 0.09078248299 -0.96657272168 
-0.23978264008 0.09078248299 -0.96657272168 
FrenetBinormal 3 91 double
0.53039029123 0.39360536743 -0.75084016521 0.53039029123 0.39360536743 -0.75084016521 0.88638613829 -0.43285334259 0.16418769033 
-0.72763253927 -0.18689794938 0.66001518491 -0.71584813081 0.67887427999 -0.16337431127 0.7187733978 -0.67661096181 0.15988248485 
-0.8058535996 0.59200242599 -0.01153705478 -0.29959948225 0.82769816055 -0.47450595913 0.91038083487 -0.38527332066 -0.15090130514 
-0.78679066181 -0.14067057017 0.60097607705 -0.22440516904 0.7766465049 -0.58861067484 -0.55190468642 -0.46409316801 0.69283385347 
-0.8206257764 0.55088668261 0.15197762343 0.54944971465 0.60327815527 -0.57806615404 0.80422020908 0.29337619757 -0.51687548018 
-0.30276501823 0.84802202691 -0.43496205078 0.40425581425 0.69813783295 -0.59091522476 0.38424938248 0.70576134001 -0.59519185395 
0.96915404392 0.24580683418 -0.017872868406 0.97504951603 0.22149267396 0.014813394977 0.30752436462 0.43053026612 -0.84857083094 
0.91538844918 0.37002454525 -0.15857434542 0.48074149058 0.32526470096 -0.81430368631 0.54678225117 0.35828776465 -0.75674239177 
-0.047602004987 0.011337922796 -0.99880203275 -0.62957348257 -0.45453583045 -0.63010666469 -0.5907564804 -0.38938987382 -0.70666987132 
-0.59907635207 -0.58624667144 -0.54536443285 -0.60519462176 -0.56278043375 -0.56304320721 -0.72876360786 0.041889410525 -0.68348290479 
-0.5695334054 -0.47332501284 -0.67200828295 -0.56850520056 -0.47448364466 -0.67206183338 -0.43054199749 -0.55741776912 -0.7098725372 
-0.53642651587 -0.53411034565 -0.65343150501 -0.57951904646 -0.52986985663 -0.61918947813 -0.90441915101 -0.38682193328 0.17998553058 
-0.81095259933 -0.27516615219 0.51637144608 -0.89764007786 -0.30880785813 0.31445189993 -0.76904047799 -0.29304467935 0.56806826977 
0.86276733675 0.28755320455 -0.41586737934 0.16349360737 0.14069119219 -0.97646086905 0.8907374825 0.43744098713 -0.12341847528 
0.89225345547 0.44626457472 -0.068787357435 0.28343589968 0.47810127031 0.83131418014 -0.081851680341 0.40580559931 0.91028683281 
0.83155139321 0.38200839866 0.40322681434 -0.43521016855 0.45793998655 0.775166484 0.77261419781 -0.31570071832 -0.55081789894 
0.88715461341 0.37256452781 0.27230931774 0.9276136014 0.3048567272 0.21585963584 0.96762200739 -0.21375810313 -0.13422043123 
0.85574151722 0.47228073453 0.21132288921 0.81681633211 0.53039878675 0.22691012894 -0.90738218298 -0.37219184529 -0.19527110463 
0.97155765692 -0.22226689249 -0.081689337013 -0.79063108258 0.57300483433 0.21579608681 0.61916848189 0.73229729336 0.28349791035 
0.046374175291 0.934329458 0.35338067263 -0.93238001903 0.35039890791 0.088815006882 0.9672850459 0.21876179381 0.12846368181 
0.40691505475 0.859220673 0.31009671605 0.28542277333 0.91072927175 0.29850633835 0.47601975348 0.81824828732 0.32229634592 
-0.39122591695 0.91997195014 0.024369917126 0.84708987305 -0.20119658797 0.49189295581 -0.25813973484 0.96604862409 0.010673948852 
-0.6660626071 0.64243728493 -0.37899200302 -0.088397021822 0.97242134291 0.21583025363 0.05004761607 0.93431654064 0.35291335765 
-0.58834306292 0.50070198038 -0.63494091627 0.42683278387 0.37452171027 0.82313259148 -0.34911227858 0.90340377352 -0.24896232433 
-0.44299430363 0.65866773757 -0.60820461889 -0.39394513028 0.91616802308 -0.07377931839 0.36683350613 -0.79936182128 0.47587168172 
-0.36321590169 0.72057479638 -0.5906320103 -0.27670550736 0.80810358098 0.52000256212 -0.033296132615 -0.045615100421 0.99840404154 
-0.097434735068 0.64006133628 -0.76212069792 -0.11724462561 0.69725238888 -0.70717240046 0.045041739744 0.3501679625 -0.93560335598 
-0.43980681214 0.85146961838 0.28560367115 -0.045298883822 -0.51354666786 0.85686511835 0.27864496143 -0.1741422598 -0.94447417054 
0.36939856908 -0.74675996494 -0.55307707594 0.37171310735 -0.91551354998 -0.15383206955 0.16422273698 -0.44312583809 -0.88128904695 
-0.43261732878 0.7418820314 -0.51230196011 0.40839497509 -0.70358611028 -0.5815325698 0.51580284374 -0.83155694922 -0.20605937635 
0.51580284374 -0.83155694922 -0.20605937635 
SiphonLabel 1 91 int
0 0 0 0 0 0 0 0 0 
0 0 0 0 0 0 0 0 0 
1 1 1 1 1 1 1 1 1 
1 1 1 1 1 1 1 1 1 
1 1 1 1 1 1 1 1 1 
1 1 1 1 0 0 0 0 0 
0 0 0 0 0 0 0 0 0 
0 0 0 0 0 0 0 0 0 
0 0 0 0 0 0 0 0 0 
0 0 0 0 0 0 0 0 0 
0 
