# vtk DataFile Version 5.1
vtk output
ASCII
DATASET POLYDATA
POINTS 97 float
113.321 82.6472 38.609 112.785 83.1251 38.2399 112.267 83.5149 37.9742 
111.54 83.904 37.681 110.804 84.1397 37.4315 110.294 84.2812 37.2828 
109.504 84.4938 37.0524 108.674 84.5042 36.763 108.086 84.4393 36.4857 
107.376 84.2672 35.8802 106.922 83.9764 35.475 106.351 83.575 34.887 
105.792 83.102 34.2094 105.446 82.6757 33.665 105.277 82.1474 32.9644 
105.262 81.6967 32.4145 105.254 81.1602 31.8937 105.271 80.5003 31.407 
105.378 79.8542 30.8822 105.639 79.3656 30.3389 105.885 79.0516 29.8849 
106.193 78.859 29.269 106.641 78.7584 28.54 107.261 78.7365 28.0048 
107.715 78.8679 27.5863 108.237 79.2895 27.0091 108.672 79.71 26.4848 
109.065 80.3177 25.9817 109.339 81.0502 25.5454 109.398 81.6713 25.3091 
109.365 82.1098 25.2386 109.267 83.0043 25.2493 109.244 83.6562 25.2812 
109.181 84.3201 25.3426 109.04 85.2656 25.5176 108.901 86.2174 25.7596 
108.93 86.873 25.8116 108.982 87.854 25.7568 109.024 88.6818 25.756 
109.039 89.5282 25.7644 109.249 90.3881 25.6929 109.491 90.9426 25.6112 
109.847 91.6933 25.3631 110.28 92.4505 24.9105 110.685 93.0716 24.2527 
110.979 93.5104 23.4684 111.116 93.7317 23.0587 111.365 94.1339 22.187 
111.462 94.4553 21.4159 111.605 94.8815 20.5683 111.77 95.3703 19.773 
111.979 95.7434 19.1259 112.207 96.0391 18.5579 112.486 96.4445 17.8547 
112.82 96.9188 17.1008 113.154 97.3774 16.4267 113.45 97.6974 15.9489 
113.814 97.9949 15.4576 114.403 98.4489 14.7981 114.966 98.7956 14.2321 
115.355 98.998 13.9142 115.977 99.2403 13.6062 116.342 99.4067 13.429 
116.843 99.6108 13.2351 117.544 99.8909 13.0916 118.03 100.056 12.9959 
118.661 100.275 12.9769 119.482 100.609 12.9933 120.228 100.987 12.991 
120.965 101.372 12.9922 121.81 101.782 13.0099 122.416 102.112 13.0255 
122.988 102.477 13.0434 123.581 102.809 13.082 124.166 103.266 13.0782 
124.677 103.684 13.0798 125.218 104.132 13.0657 125.884 104.709 13.0145 
126.379 105.068 12.9981 127.085 105.58 12.7972 127.529 105.94 12.5974 
128.065 106.554 12.187 128.546 107.214 11.709 128.808 107.629 11.4308 
129.122 108.336 10.9235 129.262 108.784 10.6235 129.398 109.274 10.2021 
129.517 109.78 9.75346 129.531 110.068 9.45403 129.552 110.474 8.98134 
129.453 110.868 8.4712 129.233 111.392 7.72391 129.049 111.769 7.09001 
128.768 112.156 6.32873 128.473 112.539 5.57658 128.17 112.793 4.90435 
127.952 112.912 4.48572 
LINES 2 97
OFFSETS vtktypeint64
0 97 
CONNECTIVITY vtktypeint64
96 95 94 93 92 91 90 89 88 
87 86 85 84 83 82 81 80 79 
78 77 76 75 74 73 72 71 70 
69 68 67 66 65 64 63 62 61 
60 59 58 57 56 55 54 53 52 
51 50 49 48 47 46 45 44 43 
42 41 40 39 38 37 36 35 34 
33 32 31 30 29 28 27 26 25 
24 23 22 21 20 19 18 17 16 
15 14 13 12 11 10 9 8 7 
6 5 4 3 2 1 0 
CELL_DATA 1
FIELD FieldData 2
Length 1 1 double
74.374921479 
Tortuosity 1 1 double
0.55271689564 
POINT_DATA 97
FIELD FieldData 7
MaximumInscribedSphereRadius 1 97 double
1.905709152 2.0420621087 2.0897708705 2.0774419352 2.0849599553 2.0814507646 2.080050454 2.0436507614 1.9876642195 
1.9201893702 1.8416842449 1.8086996561 1.7879144895 1.8062998295 1.7863479189 1.7923371269 1.7922158967 1.8033535603 
1.807318789 1.7822757076 1.7934549747 1.7731191556 1.7769048794 1.7991371997 1.7977694117 1.7388836433 1.8020703671 
1.9603682894 2.1277923098 2.2215497149 2.2409214884 2.2905709541 2.2873282529 2.2760090382 2.3279949256 2.3876693123 
2.3421399146 2.3120458621 2.297226759 2.3092102816 2.2368795465 2.148645195 2.0268060734 1.9438553808 1.9196568708 
1.9200711381 1.9391179401 1.9786235536 1.9645505767 2.0171054967 2.0337148953 2.0752740067 2.0955405542 2.1276610349 
2.2203841311 2.2953323184 2.3190326767 2.3509160241 2.4239919777 2.3782042928 2.3454445084 2.3114184669 2.3071475186 
2.2741236392 2.2402098305 2.1871037261 2.1015059181 2.0428948481 2.052711025 2.0433070807 2.0465842403 2.032534885 
2.0177509741 1.9849623952 1.9796982326 1.9823834625 1.9959298879 2.0253852886 2.0352121419 1.9858869541 1.9666256004 
1.9715111193 1.9869163671 1.9844339166 1.9917916554 2.0015143373 2.0632553307 2.1306417452 2.1524669131 2.1785083601 
2.163280718 2.088888107 2.040154672 1.9956960501 1.997043193 2.0148948264 2.0359983588 
Curvature 1 97 double
0 0.15185167596 0.19241989546 0.20780852996 0.078515552208 0.011025806328 0.28856539956 0.20015544677 0.34997504418 
0.3297690355 0.082511097055 0.085786117432 0.15680554804 0.33499361951 0.21865998377 0.15673107823 0.17799142333 0.14172779634 
0.32941018757 0.20517383269 0.42378452524 0.22669304815 0.38953752874 0.33297214252 0.40140569803 0.080080206606 0.25069703773 
0.23661191299 0.36217760689 0.47894270197 0.25919461696 0.10624598209 0.11012137772 0.12702291294 0.066886938427 0.30674978928 
0.16510986792 0.06034565701 0.042306254623 0.28002531982 0.23897515434 0.21632549716 0.21957385269 0.25842994324 0.26417398375 
0.04669240902 0.092856316684 0.15751297452 0.087248273266 0.092276375965 0.11726835577 0.10972131204 0.054291992496 0.050179869703 
0.049584585726 0.11267751829 0.1483545355 0.10098281288 0.087281615185 0.13909114528 0.34221731826 0.091771291286 0.16107694114 
0.23355498747 0.080502900495 0.26384138567 0.091424149556 0.098194984056 0.016424904932 0.039314268312 0.057773161146 0.10231483183 
0.096941367326 0.23368572877 0.034022678108 0.033993776799 0.055984994579 0.12384947114 0.26691611962 0.16108024404 0.2730634628 
0.10786757266 0.078235403912 0.18837309538 0.13104824518 0.20655227835 0.055339056745 0.29582913123 0.10596157417 0.30319294394 
0.12190441443 0.0857438827 0.115466036 0.021567888344 0.14252377087 0.16230252033 0 
Torsion 1 97 double
0 0 -0.41320576139 0.013576918356 0.99263878423 -8.4835560577 -0.2168517796 -1.0081373773 0.38014228499 
0.45739398859 -2.1435042171 0.43295555205 -0.38014272128 0.0036443244083 0.70073014525 0.78451621806 -0.58899874643 -1.0017417517 
-0.18025578205 -0.93773105599 0.094003576542 1.4369784457 -0.25511049198 -0.88947177984 -0.10687046744 0.10899881089 -0.0051765132275 
-0.14418688219 0.18843488628 0.39715259809 0.92397153062 0.90079398553 -0.30816408109 0.38855097068 2.345990758 0.33396734288 
0.75591162581 -0.42307772098 -1.0878091736 -0.039376989236 0.48254508381 0.55875858976 0.04846639867 0.1795370826 0.14760544022 
1.513868387 0.62350067501 0.46426694364 0.66354158344 0.59174160813 0.59499198985 -0.056424741134 -0.46865742681 0.53085961267 
1.0408098737 0.50113351482 -0.25458090161 -0.27489771425 0.028174805605 -0.47387615776 -0.24803320753 -1.6308519514 -0.050903702301 
0.037459362573 -0.29910128934 -0.47086989953 -1.9071602139 -0.39591634844 2.9752418598 -0.29595970379 -0.25961229711 0.34244297039 
0.22676102843 0.038840072723 2.4194401265 -0.36216420088 -0.76343642764 1.1474982382 0.45681119596 0.89432585686 0.14474231351 
0.23512769068 -0.40432709737 0.040610945665 -0.57251586044 -0.36680074743 1.4631921948 -0.30823707851 0.28346826968 0.20107739423 
-0.68287697207 -0.1363520703 0.37885277922 -1.1206651438 0.057765315954 0 0 
FrenetTangent 3 97 double
0.70024274018 -0.57616743155 0.42153433509 0.70024274018 -0.57616743155 0.42153433509 0.79241221873 -0.49558349005 0.35564009898 
0.87039641699 -0.37171407405 0.32286022432 0.91518702028 -0.27716189207 0.29259870727 0.92876834974 -0.25299614955 0.27089167731 
0.94410393115 -0.12997085715 0.30294445608 0.92800640079 0.035630149943 0.37085659291 0.81760292285 0.14931043008 0.55608619477 
0.72312441995 0.28765500311 0.62796948369 0.64627914786 0.4363194634 0.62605797567 0.59191107181 0.45813935347 0.66313619707 
0.51237016844 0.508976102 0.69167921617 0.31213540163 0.57806428523 0.75393180937 0.1147842875 0.61238488725 0.78218240661 
0.015964845811 0.67775170227 0.73511751018 -0.0053898706733 0.7649177639 0.64410539802 -0.075204561609 0.78837445325 0.61058168608 
-0.22984495272 0.708661206 0.66706116123 -0.36795545757 0.5829942174 0.72438009616 -0.42392133389 0.38756870928 0.81858487542 
-0.48131062427 0.18670481573 0.85643528345 -0.64379663606 0.073767837876 0.76163258694 -0.74567887816 -0.07600765949 0.66195607586 
-0.65048131261 -0.36873802612 0.66400777859 -0.56802312095 -0.49986252018 0.65382504922 -0.49504705805 -0.61463364448 0.61412856422 
-0.37725106798 -0.75834886124 0.53159066617 -0.21536288965 -0.87452327221 0.43454329143 -0.023445190449 -0.96030559783 0.27796309435 
0.098165098429 -0.99416913966 0.044624378879 0.07779417644 -0.99659252249 -0.027411863037 0.064797914982 -0.99539570763 -0.070630131344 
0.12437955303 -0.98170356162 -0.14417990112 0.14266848586 -0.96669842956 -0.2124614069 0.067232755289 -0.98145009435 -0.17954238751 
-0.049114493245 -0.99879173863 0.0016820829242 -0.052021598875 -0.99817390143 0.030702047944 -0.034202329874 -0.99940483077 -0.0044927561146 
-0.13082460966 -0.99072852738 0.036632042446 -0.30273331363 -0.94753467408 0.10261862517 -0.40563266238 -0.88618889243 0.2239004023 
-0.42875586415 -0.81929664886 0.38068544776 -0.42793891407 -0.70381250132 0.56702402843 -0.3637771639 -0.55163789856 0.75057431604 
-0.30123874997 -0.46134665236 0.83451451867 -0.26156758981 -0.4222595872 0.86791660716 -0.18913983653 -0.39585020004 0.89862602976 
-0.13324867509 -0.41560270243 0.89973284053 -0.16208074853 -0.48012108113 0.86209835773 -0.21760536252 -0.50063148918 0.83786396166 
-0.30003015011 -0.45996542032 0.83571150592 -0.3294322138 -0.4559552231 0.82678851651 -0.33876162631 -0.48629664577 0.80545399177 
-0.36468689053 -0.50928227741 0.77950948281 -0.412812797 -0.51003106533 0.75462169796 -0.49789195074 -0.46600784023 0.73139612949 
-0.56975634626 -0.44934808476 0.68808720713 -0.61852787141 -0.42979363443 0.65779989669 -0.67513150007 -0.38930403635 0.62660978678 
-0.79641303061 -0.35030276272 0.49296476456 -0.84130034455 -0.34825140975 0.41344248192 -0.85550253339 -0.36582373924 0.36645382678 
-0.89764933672 -0.3615617502 0.25198962096 -0.92000444127 -0.34519102525 0.18556665685 -0.94128493595 -0.32348914356 0.096630447291 
-0.93445767552 -0.35607036375 0.0016579277807 -0.91032372219 -0.41381575144 -0.0082002858881 -0.88919201392 -0.45753372583 0.00067238630881 
-0.89341427069 -0.44910658638 -0.010687142004 -0.89069907114 -0.45413350388 -0.02044322224 -0.86091609715 -0.50815706069 -0.024492352705 
-0.85743447596 -0.51291291724 -0.041550677147 -0.8307545466 -0.55609786528 -0.024536656843 -0.78136716282 -0.62406974638 0.0015193809595 
-0.77205621882 -0.63548788786 0.0091836463225 -0.76158520034 -0.6467519691 0.041229517043 -0.77770163974 -0.62699828709 0.045313436462 
-0.80088365253 -0.5810221666 0.14490899567 -0.76785799403 -0.5821117786 0.26746958374 -0.64919103526 -0.64447873716 0.40397791659 
-0.54768158378 -0.68626964802 0.47862182669 -0.49190220176 -0.71214032489 0.50088759375 -0.38763995663 -0.75514564025 0.52866844622 
-0.30670907993 -0.7800350429 0.54541257057 -0.22758750185 -0.77177043148 0.59377969828 -0.18946251156 -0.73960831879 0.64582001478 
-0.12040143599 -0.72254052848 0.68076330608 -0.033018868983 -0.66820614175 0.74324310049 0.0610596444 -0.63037895177 0.77388248267 
0.20030286589 -0.57743988261 0.79148085504 0.23827288772 -0.53035020057 0.8136059831 0.28059493549 -0.46134494716 0.84168124721 
0.32111746159 -0.42960320549 0.84399328297 0.35781935664 -0.38121495667 0.8524320881 0.41179293861 -0.29472194486 0.86230247067 
0.41179293861 -0.29472194486 0.86230247067 
FrenetNormal 3 97 double
-0.66403920581 -0.30886190464 0.68092309184 -0.66403920581 -0.30886190464 0.68092309184 -0.5983694143 -0.74477724382 0.29539956183 
-0.43703568944 -0.88528673967 0.15895658126 -0.4029173218 -0.61207346755 0.68045844995 -0.25602097004 -0.96635477945 -0.024732633086 
-0.057435825963 -0.96979293377 -0.23707127937 0.27803252558 -0.72882644307 -0.62570754399 0.57360564764 -0.29511881617 -0.76412135511 
0.26724087518 -0.95486653485 0.12966192675 0.73418484166 -0.13181763296 -0.66603057731 0.80174021042 -0.41917608739 -0.42603291276 
0.80675935178 -0.56131334239 -0.18457161204 0.94823793881 -0.14074010464 -0.28467004471 0.96675537338 -0.24997126475 0.053836928195 
0.078284322293 -0.73380159276 0.67483834164 0.2335681551 -0.62533530911 0.74458153892 0.91495556069 0.29801930584 -0.27210441986 
0.79582753686 0.53138988868 -0.29031589311 0.50920875193 0.77817348488 -0.36763089422 0.081247499994 0.91644489677 -0.39182597532 
0.49835632953 0.8620620332 0.092141303075 0.74600509267 0.28202915785 0.60327104674 -0.14901459803 0.98733232598 -0.054493372545 
-0.45024307895 0.89127918707 0.053875602561 -0.68551527846 0.72697119577 -0.039770384971 -0.46962487655 0.78395553418 0.40603718519 
-0.67571346084 0.61792150417 0.40197553846 -0.77345913324 0.42440509705 0.47078793825 -0.63157024323 0.22975722886 0.74049351358 
-0.18475636986 0.025855092224 0.98244419587 0.89081395226 0.057138631499 0.45076122199 -0.80270682043 -0.094041690265 0.58891249004 
-0.49650747134 -0.18738574813 0.84756528498 0.082762692773 -0.20225390548 0.97582974663 0.73404374687 0.17053579677 -0.65734109844 
0.067054879714 -0.0049776569028 -0.99773687215 -0.026620260421 0.032118802212 0.99912949325 -0.95033343324 0.031130861396 0.3096727872 
0.91612083567 -0.13493123959 -0.3775131455 0.89806341065 -0.31965227361 -0.30216640189 0.088301491468 -0.28180490452 -0.95539983378 
0.14747152188 -0.47920197865 -0.86522691469 -0.12867129352 -0.57353951907 -0.80900934376 -0.3862658787 -0.64390070161 -0.66044724045 
-0.8613580829 -0.24376652062 -0.44569062862 -0.45353174316 -0.73999486463 -0.4967057059 -0.94954845146 -0.15941643752 -0.27008172425 
0.43927508398 0.78901945346 0.42951798874 0.29038281487 0.8117591984 0.50668019958 0.93969065616 -0.33953817326 0.041174016489 
0.81807476523 -0.57466797801 -0.02259189123 -0.22204864143 0.88852232387 0.40152519327 0.56110527857 0.58276001213 0.58783640124 
0.63364620863 0.47768181008 0.60853313025 0.90810075014 -0.29439939486 0.29779527178 0.79395777708 -0.58423205522 0.16823778966 
0.67331416104 0.22482653411 0.70434442577 0.67450738514 -0.71984340995 0.16390623096 0.73161587762 -0.24450511663 0.63636110469 
0.57987563015 -0.21094959449 0.78692091225 -0.25200648528 0.92930461162 0.26997346203 0.4815295095 -0.30186742803 0.82280337103 
0.24812618855 0.0579217314 0.96699455406 0.36196776996 -0.92994348375 0.064687329009 0.07876525326 0.067903237958 0.99457789295 
-0.26625708943 0.70183148702 0.66071153021 -0.39859989353 0.88184379292 -0.25193183557 -0.43563064852 0.84707199822 0.30445848305 
0.38363466219 -0.77511619932 0.50201526224 -0.45427063826 0.88747187366 0.0776650544 -0.50869459985 0.85913861919 0.055773085789 
0.440049555 -0.7726907308 0.45749909691 -0.50844156643 0.7760269511 -0.3731880822 -0.59236584304 0.74243400851 0.31288088949 
-0.15328873162 0.17216883655 -0.9730675498 -0.36181869513 0.37155560226 -0.85500506799 0.60283173486 -0.72340199205 0.33657607957 
-0.11971468807 -0.081753718706 -0.98943656843 -0.44457190876 0.18359064917 -0.87672703362 -0.7275145352 0.37111860375 -0.57705596177 
-0.79523160414 0.24913320013 -0.55275613463 -0.73465480827 0.64824091032 0.20016501908 -0.9019456888 0.1922893799 -0.38667656875 
-0.90329621431 0.41914807899 0.091492278829 -0.35994544192 -0.49991633892 -0.78773278015 -0.90363337279 -0.12597200854 -0.40936265173 
-0.86368280005 -0.26185555224 -0.43067817529 0.012769133822 -0.74386993413 -0.66820241717 -0.96032866104 -0.24846660263 -0.12662231303 
-0.86218021473 -0.48757745181 -0.13752638224 -0.11709699611 -0.84731081384 -0.51802768098 -0.72268784558 -0.67863681705 -0.13105093818 
-0.94679533298 -0.1658606501 0.27580580523 -0.48732955286 -0.85493145522 -0.17776983375 -0.59475942074 -0.8038501367 0.0092838119372 
-0.59475942074 -0.8038501367 0.0092838119372 
FrenetBinormal 3 97 double
-0.2621298113 -0.75672677677 -0.5988760701 -0.2621298113 -0.75672677677 -0.5988760701 0.1184775069 -0.44688237992 -0.88671259091 
0.22673747694 -0.27945667951 -0.93300272284 -0.0095052461038 -0.74063982873 -0.67183502022 0.26803472802 -0.046383063184 -0.96229205339 
0.32460575022 0.20642006176 -0.92305030471 0.24799603789 0.683770801 -0.68626194481 0.050020211321 0.94372203525 -0.32693531263 
0.63692494683 0.074057408839 -0.76736048393 -0.20807662365 0.89008394969 -0.40553012365 0.082788393288 0.7838365522 -0.61542370882 
0.29430623306 0.65258766403 -0.69822144191 -0.058449144181 0.80376234366 -0.59207245542 0.22849204665 0.74999941112 -0.62071915384 
0.99680323464 0.046774486019 -0.064772361978 0.97232549397 0.1544557077 -0.17528995447 -0.39648530348 0.53819161532 -0.74374000116 
-0.56020516714 0.46413799815 -0.68610938588 -0.77802006928 0.23358889079 -0.58319893852 -0.90204741916 -0.099595415452 -0.41998953178 
-0.72109711675 0.47115853244 -0.50796514204 -0.17030059631 0.95656565913 -0.23660060582 -0.64942871837 -0.13927567546 -0.74755911203 
-0.61168229646 -0.26391983401 -0.74578219972 -0.45543225299 -0.47079755887 -0.75559984217 -0.73101360154 -0.08740253717 -0.67674213025 
-0.63331899588 -0.2075572676 -0.74553808093 -0.59613739605 -0.23471122676 -0.7678091202 -0.77496409653 -0.15819220765 -0.61188714199 
-0.97786946841 -0.10468636944 -0.18114101359 -0.44765898692 -0.059485468086 0.89222357653 -0.59284314168 0.018534986697 -0.80510462899 
-0.85907511761 -0.033833393189 -0.51073010859 -0.9863042329 -0.15680403055 0.051151306676 0.67576588719 -0.087597113637 0.73189289612 
0.99653971805 -0.048890548999 0.067218334989 -0.99829109732 0.05115901721 -0.028242520646 -0.30934861612 0.014861147164 -0.95083257202 
0.37895584961 -0.015828632563 0.92527937318 0.31911541998 0.00068219640983 0.94771561311 0.90976095202 -0.36777063875 0.19256107461 
0.89130273151 -0.31483085115 0.32628358213 0.89460157839 -0.41916629524 0.15487941402 0.84762305654 -0.53017687175 0.021157473451 
0.40904458013 -0.8530751138 -0.32395274607 0.85199257855 -0.5235498461 0.0020505465644 0.2501676649 -0.90437216818 -0.34572694552 
-0.88841555096 0.45246292201 0.077428115215 -0.94308411703 0.33246165382 0.0078483725117 0.26387378979 0.79629262268 0.54432405984 
0.49064813005 0.67689624549 0.54870382295 -0.91769756312 -0.051311933526 -0.393952114 -0.7552492482 0.65108090171 0.075446885435 
-0.68227263918 0.71585728342 0.14850049022 0.070275331509 0.80820622907 0.58469143065 0.34890493491 0.66446188642 0.66087498658 
-0.47119608068 0.86460356712 0.17445608409 0.40306706599 0.54507146041 0.73514219261 -0.094528647633 0.88806509628 0.44989412038 
-0.17166985242 0.91257232207 0.37113504113 -0.47823264384 0.1229385799 -0.86958590372 -0.19038053167 0.88036869986 0.43440327515 
-0.36422391855 0.93054724427 0.03771953523 0.15023701792 0.12668177894 0.9805001608 -0.32829667106 0.94379230992 -0.038436590672 
-0.23642338082 0.61696552569 -0.75063807865 0.11148473306 -0.22607089321 -0.96771023842 -0.13986958373 0.27042913962 -0.95252536974 
-0.23374213763 0.44440764128 0.86479272746 -0.017127518538 0.078462947429 -0.99676989019 -0.0072991612565 0.060475074902 -0.99814301959 
-0.26676301952 0.37399114142 0.88823877283 0.22657020286 -0.29755223979 -0.92743118762 -0.19638753745 0.24357482354 -0.94979115624 
0.61679150427 -0.75267060265 -0.23033715324 0.53765715328 -0.66607681606 -0.51697820132 -0.17825279517 0.2890721465 0.94056538057 
0.58673142797 -0.80977130809 -0.0040816705882 0.46124821837 -0.79211132472 -0.39976209212 0.22197657716 -0.66851936344 -0.70979451949 
0.26009917062 -0.68334955828 -0.68218897869 -0.46724141146 -0.26951786555 -0.8420484449 0.19033979738 -0.62672151422 -0.75563940153 
-0.29997581485 -0.46460759758 -0.83315922294 0.90478904052 -0.39300643146 -0.16402053831 0.38412326705 -0.66114339431 -0.64446778653 
0.48944408783 -0.63981782912 -0.59251804228 0.99937315529 -0.012572717455 0.03309415754 0.27210399226 -0.73545001498 -0.62054225711 
0.46532143647 -0.65485220505 -0.59552040292 0.96411323219 0.028161134825 -0.26399360978 0.63165557073 -0.57150057767 -0.52383043983 
0.021498216569 -0.88765496145 -0.46000706093 0.79653952502 -0.35180586079 -0.49168833766 0.69042581582 -0.51668552616 -0.5063084632 
0.69042581582 -0.51668552616 -0.5063084632 
SiphonLabel 1 97 int
0 0 0 0 0 0 0 0 0 
0 0 0 0 0 0 0 0 0 
0 0 1 1 1 1 1 1 1 
1 1 1 1 1 1 1 1 1 
1 1 1 1 1 1 1 1 1 
1 1 1 1 1 0 0 0 0 
0 0 0 0 0 0 0 0 0 
0 0 0 0 0 0 0 0 0 
0 0 0 0 0 0 0 0 0 
0 0 0 0 0 0 0 0 0 
0 0 0 0 0 0 0 
