# vtk DataFile Version 5.1
vtk output
ASCII
DATASET POLYDATA
POINTS 87 float
112.899 80.391 33.172 112.392 80.5572 32.6235 111.891 80.6888 32.2091 
111.319 80.7862 31.8626 110.559 80.7473 31.4066 110.057 80.4989 31.1086 
109.5 79.9811 30.7156 109.281 79.7331 30.4985 108.825 79.1533 30.0213 
108.497 78.7579 29.6786 108.201 78.1758 29.1992 108.001 77.7277 28.7872 
107.748 76.9601 28.2205 107.651 76.4925 27.8266 107.605 76.0302 27.3777 
107.64 75.5207 26.8236 107.828 74.9674 26.3529 107.946 74.6116 26.0939 
108.23 74.0601 25.8086 108.683 73.3022 25.4693 109.275 72.8037 25.1088 
109.959 72.4675 24.7082 110.674 72.4014 24.1498 111.384 72.6124 23.5615 
111.994 73.1087 22.9847 112.299 73.4352 22.7817 112.74 74.0111 22.6093 
113.065 74.5795 22.5837 113.356 75.365 22.7077 113.58 76.3035 22.8853 
113.712 77.0993 23.0748 113.725 77.9063 23.32 113.762 78.5584 23.5413 
113.755 79.3233 23.6796 113.709 80.2766 23.8227 113.637 81.0944 23.9542 
113.532 81.7067 24.0223 113.465 82.3655 24.0279 113.385 82.8082 23.9981 
113.244 83.3876 23.842 113.052 84.1998 23.4247 112.832 84.9459 22.9179 
112.556 85.5012 22.2421 112.184 85.876 21.5212 111.905 86.2112 20.7234 
111.568 86.4869 19.8455 111.427 86.5752 18.8713 111.385 86.7223 18.046 
111.352 86.7753 17.6268 111.351 86.9581 16.9446 111.366 87.2059 16.1466 
111.402 87.451 15.5104 111.539 87.7464 14.835 111.723 88.0996 14.0521 
112.015 88.5245 13.2431 112.329 88.9175 12.5599 112.565 89.131 12.1766 
113.119 89.5413 11.5426 113.502 89.7376 11.2064 114.179 90.0722 10.7456 
114.872 90.4023 10.3355 115.456 90.7575 10.0424 116.2 91.1245 9.78898 
116.723 91.3776 9.66386 117.47 91.7733 9.46966 118.173 92.2046 9.38521 
118.806 92.5746 9.31353 119.568 93.0195 9.26725 120.337 93.3914 9.24004 
120.953 93.667 9.21875 121.813 94.1073 9.17199 122.489 94.5648 9.13249 
123.187 95.0108 9.1447 123.907 95.4661 9.09199 124.524 95.8169 9.11812 
125.361 96.344 9.02451 126.065 96.8591 8.92393 126.6 97.292 8.82514 
127.014 97.7086 8.66619 127.361 98.1062 8.44064 127.712 98.4785 8.0433 
128.215 99.0045 7.37806 128.579 99.4601 6.95412 128.915 99.9497 6.46488 
129.045 100.542 5.94894 129.074 101.17 5.38405 129.126 101.37 5.21034 

LINES 2 87
OFFSETS vtktypeint64
0 87 
CONNECTIVITY vtktypeint64
86 85 84 83 82 81 80 79 78 
77 76 75 74 73 72 71 70 69 
68 67 66 65 64 63 62 61 60 
59 58 57 56 55 54 53 52 51 
50 49 48 47 46 45 44 43 42 
41 40 39 38 37 36 35 34 33 
32 31 30 29 28 27 26 25 24 
23 22 21 20 19 18 17 16 15 
14 13 12 11 10 9 8 7 6 
5 4 3 2 1 0 
CELL_DATA 1
FIELD FieldData 2
Length 1 1 double
66.44313041 
Tortuosity 1 1 double
0.72403015876 
POINT_DATA 87
FIELD FieldData 7
MaximumInscribedSphereRadius 1 87 double
1.3491019889 1.3016954627 1.2814841902 1.3182379631 1.3447639377 1.3164107968 1.2554419438 1.2599359272 1.3075168539 
1.367560266 1.4736101152 1.5624199926 1.6362899616 1.6232166436 1.6157335094 1.5818390831 1.5366282383 1.4754579452 
1.3964155718 1.320242063 1.2308756297 1.1864712664 1.3343382058 1.6614261723 1.9361740943 1.9346593647 1.9267911978 
1.9534554197 1.9948561278 2.1256059545 2.245358748 2.2774026368 2.3057620142 2.298364643 2.3047587365 2.2531601333 
2.2066439812 2.165241956 2.122889851 2.0960655568 2.0074715741 1.9823629454 1.9363243265 1.9160383827 1.9375370918 
2.0392500148 2.1131082827 2.1677908126 2.1866366048 2.1971895639 2.2355618878 2.2845482138 2.3512324785 2.3844941477 
2.3694418374 2.3559078342 2.3384854605 2.2698533321 2.2289473679 2.1854298433 2.1929930186 2.2267675781 2.2693119085 
2.2573493897 2.2002981794 2.1886787614 2.2205651279 2.2694091844 2.293026934 2.3135850948 2.3409058087 2.3540248822 
2.3740112295 2.4394258543 2.3904683988 2.3182805458 2.2317261945 2.1634232884 2.1167002479 2.0469008248 1.9661285857 
1.827748293 1.7745019744 1.7610991527 1.8019052836 1.7859276326 1.7871331573 
Curvature 1 87 double
0 0.18635645344 0.2306866605 0.24311713221 0.48365841908 0.34767555196 0.21781166893 0.073189801013 0.03484781636 
0.26544608392 0.10533588834 0.14539681774 0.15108064108 0.17444634558 0.18720949002 0.32145247744 0.12259988965 0.38673990745 
0.10816958685 0.35428287065 0.26295516017 0.40913385089 0.32856622089 0.33459720868 0.32684449229 0.34913498888 0.33965856358 
0.33506781098 0.13561251833 0.093587231791 0.18829580197 0.06549583579 0.22044158639 0.055774916439 0.046314440704 0.13056011864 
0.19138011771 0.19715745521 0.37495081094 0.27035487715 0.13293857197 0.31246368128 0.25680358506 0.15606764734 0.10302379015 
0.30397274873 0.13864452953 0.090869926356 0.27756397176 0.056126109414 0.099360640357 0.19409777227 0.035403868909 0.12564384867 
0.08598565791 0.17230061636 0.20970345166 0.2015218386 0.16182070584 0.067354502439 0.15604643891 0.17024644428 0.11656241426 
0.053498642346 0.16384172584 0.027524557163 0.05561186311 0.093308139609 0.038309295904 0.06734862944 0.13617711629 0.082903173849 
0.091297826916 0.13953576077 0.16309676294 0.077792767416 0.070040846621 0.25009593083 0.25942592279 0.42872351826 0.098512256517 
0.15429529376 0.11383633458 0.38140866918 0.1612904362 0.28741684397 0 
Torsion 1 87 double
0 0 -0.83491537993 -0.58218398009 -0.1288516967 -0.5965233954 -0.84118092397 1.804385029 3.2491207785 
-0.14244103387 -0.37598182053 -0.20351750655 -0.71279439384 0.092274711736 1.1563177129 0.52301191668 -0.11249753552 -0.22687526106 
-2.0578498664 -0.20531589758 -0.47835985366 -0.043444374207 0.12921085931 0.31747324189 0.4991328485 -0.12146139604 -0.22633352745 
-0.22993134683 -0.55624147409 0.087518771535 0.13652556901 2.6538248581 0.17834935736 1.4616188598 -0.57227929684 -1.1750013896 
0.26287322249 0.0017741234496 -0.47200529404 -0.16070901613 0.46543081562 0.18158541358 -0.078348979182 -0.53449920805 -0.60424899652 
-0.40071951763 -1.0491119721 0.35227927756 -0.020232398175 -0.21249947212 0.90643144091 0.23883760192 -0.49814139006 0.0040019894125 
0.66681684305 -0.20563862181 0.12736659905 0.0047430082208 -0.60966704628 -0.97378770596 0.43656720116 0.34662119566 -0.79433934698 
0.74052906534 0.28957998307 2.4054818893 0.70003219768 0.39001702463 0.73255870603 0.47175785768 0.40122680965 1.2182418007 
-0.20324306524 -0.12114528517 0.28603161087 0.79124727778 -0.91644538016 -0.3290773404 -0.97895330852 -0.24661471116 0.67322009428 
-0.23002908945 0.38215697659 0.019654810343 -0.48688803415 0 0 
FrenetTangent 3 87 double
0.7071769867 -0.20889802886 0.67547192616 0.7071769867 -0.20889802886 0.67547192616 0.80359399621 -0.17150554899 0.569932045 
0.8560206608 -0.037600618928 0.51557232445 0.84254990679 0.19175596848 0.50332822603 0.71620273855 0.51825375734 0.46740419371 
0.62099697716 0.61306914825 0.48837380543 0.5295631486 0.64990615697 0.5451466397 0.52446848075 0.65171463209 0.54790587788 
0.43920735794 0.68756489219 0.57823128224 0.34194535662 0.71061440385 0.6148988064 0.27887876471 0.74803315969 0.60222340256 
0.21799719786 0.77039952754 0.59913420006 0.11255889972 0.73626918993 0.66726169833 0.0079207150879 0.6958157015 0.71817669958 
-0.14884410716 0.71184468138 0.68638369834 -0.25378009917 0.75433252555 0.60545693668 -0.35507581837 0.80162710577 0.48095233288 
-0.45296489098 0.80466661612 0.38384169189 -0.58803183767 0.70662335709 0.39357590005 -0.74879755964 0.48977384874 0.44656891043 
-0.80248949667 0.23082543924 0.55020925505 -0.77649157739 -0.07899351582 0.62515666413 -0.69569424531 -0.37278554214 0.61403620139 
-0.62798681657 -0.56484979801 0.53532911737 -0.60687515318 -0.73381979222 0.30530486566 -0.55110217017 -0.82222643458 0.14223251494 
-0.41331731109 -0.90818953132 -0.06603465423 -0.2822312809 -0.94500306731 -0.16527161538 -0.19671409488 -0.95921487355 -0.20300342666 
-0.086615507622 -0.9614939211 -0.26082023221 -0.032634406681 -0.95199283235 -0.3043758247 -0.020641158116 -0.96907002393 -0.24592118924 
0.030166009188 -0.98639827751 -0.16158109423 0.065794756127 -0.98605483899 -0.15286237135 0.12226434084 -0.98297068983 -0.13718620153 
0.13334739051 -0.98940984454 -0.057329163371 0.13202127779 -0.99100723757 0.021795350539 0.20868107083 -0.96219973062 0.17499682591 
0.21583055784 -0.90279184123 0.37200008295 0.22166337578 -0.83875003639 0.49735673746 0.27173479974 -0.71225740666 0.647185897 
0.36028492096 -0.51704302517 0.77644142461 0.36162711515 -0.39484867878 0.84458294469 0.3265407469 -0.32375501843 0.88800553414 
0.24576518066 -0.18692540444 0.95113530538 0.10034009532 -0.12901705949 0.98655281847 0.0593549387 -0.15845708159 0.98558020706 
0.029499065654 -0.20926936431 0.97741298246 -0.0092496117197 -0.27929967202 0.96015943358 -0.03335569492 -0.32484344011 0.94517942055 
-0.12114937686 -0.37818208142 0.91776965617 -0.19696919806 -0.39838578534 0.89581912296 -0.25954894708 -0.42410292963 0.86762379471 
-0.33568726961 -0.4527791315 0.82601762396 -0.40897030259 -0.45108053424 0.79326517838 -0.55204917827 -0.43586673926 0.71081776172 
-0.63361169257 -0.41015245262 0.65598108863 -0.74195613733 -0.3717071156 0.55797393352 -0.78097927946 -0.37894222495 0.49646163517 
-0.79277605271 -0.42538648371 0.43652316058 -0.8260278767 -0.44942199113 0.34014382371 -0.86754765676 -0.42450747836 0.25914178371 
-0.86897705602 -0.44400531407 0.21849063409 -0.85672559119 -0.48877354043 0.16468663444 -0.85338875836 -0.5116512948 0.099702455522 
-0.86117796665 -0.5030609996 0.072815798018 -0.88157205665 -0.47015039115 0.042300338477 -0.90549887692 -0.42316289348 0.031700938212 
-0.89889075622 -0.4362065721 0.041463656873 -0.86229509425 -0.50408494688 0.048430741856 -0.83538408786 -0.54941605272 0.016595986367 
-0.84370782808 -0.53626166871 0.024094055257 -0.85628129937 -0.51622934122 0.017017744335 -0.85540311386 -0.51643940206 0.039697062746 
-0.82392987145 -0.55710428637 0.10379971598 -0.78784979706 -0.60268336525 0.12674958985 -0.73029424826 -0.653706379 0.19833880361 
-0.64502343792 -0.6909934088 0.32630181356 -0.5759634372 -0.63550525014 0.51419762355 -0.52330643311 -0.5501541618 0.65075400523 
-0.50923382374 -0.57617275228 0.6393010811 -0.46985715099 -0.634841129 0.61336041492 -0.30093895152 -0.69873283764 0.64900552313 
-0.097552276588 -0.74503315516 0.65985540162 -0.072508856123 -0.74411784855 0.66410171906 -0.072508856123 -0.74411784855 0.66410171906 

FrenetNormal 3 87 double
-0.70538198203 -0.14312998403 0.69422623625 -0.70538198203 -0.14312998403 0.69422623625 -0.5903422343 -0.35149878239 0.72659799916 
-0.046058693877 -0.99893217355 0.0036206861522 0.15972481149 -0.98139808286 0.10651660692 0.56240775349 -0.82515048139 0.053143220483 
0.71268010993 -0.18228213752 -0.6773922669 0.70993734893 -0.69130141256 0.13450396866 -0.48254873166 0.7577034375 -0.43935432442 
0.89220687133 -0.40918608638 -0.19113776566 0.696562347 0.2475477511 -0.67343968376 0.47250922948 -0.65282524763 0.5920761979 
0.83454576923 0.17112127674 -0.52368966736 0.76540447494 0.36397630777 -0.53073273605 0.90116513359 0.30631292737 -0.30671451306 
0.85338918593 -0.25819855412 0.45283595703 0.1433315594 -0.58971138555 0.7947933982 0.70473423359 -0.10849711342 0.7011262628 
0.72898966535 0.08644732611 0.67904412789 0.69173673305 0.6915285568 -0.20805899954 0.45451448828 0.86983019803 -0.19186455259 
-0.028946055991 0.90599244756 -0.4223029846 -0.12032152693 0.99244373005 -0.024045225155 -0.40069084784 0.91084840019 0.099005233812 
0.0063882608737 0.68412089142 0.72934065844 -0.15019323548 0.48309139935 0.86259184548 -0.40264608838 0.41133072779 0.81773049344 
-0.62418821221 0.2297739512 0.74672150571 -0.93232980324 0.22958612644 0.27937671438 -0.82356950435 0.049307995484 0.56506813137 
-0.91755147425 -0.024989608506 0.39683096095 0.77145887091 -0.21761233118 0.59790976227 -0.39182091733 0.2341379957 -0.8897503963 
-0.78612789158 0.076426176295 -0.61332045267 -0.96600654082 -0.10132680519 0.23783238139 -0.85502592942 -0.034131944762 -0.51746079114 
0.55943467913 0.12289409944 -0.8197132914 -0.72430335402 -0.11145559506 -0.6804133315 -0.24840385332 -0.22521685205 -0.94211087203 
0.11702833751 -0.35431610394 -0.92777393082 -0.25695087382 -0.54225977833 -0.7999566121 -0.22732180529 -0.70096492638 -0.67599775801 
-0.50058748724 -0.80950567225 -0.30677798846 0.78340036205 -0.36245972 -0.50488298061 -0.39160871576 -0.90141584973 -0.18464040617 
0.68969825921 -0.65575457818 -0.30708670508 0.73212455279 0.6810143593 0.014597315446 -0.47816349494 -0.87119381843 -0.11126995475 
0.49430045688 0.85296075741 0.16770511217 0.41751214879 0.87142010525 0.25750845767 0.46699264141 0.83105524481 0.30210106411 
0.94088824385 0.25087379056 0.22757779724 0.90159513501 0.28533387321 0.32513196294 0.8349707745 0.35286737401 0.42226581922 
0.83444542709 0.26392445389 0.48378167788 0.90726194487 -0.29441396769 0.30032678704 0.77205452193 0.054769212439 0.63319203133 
0.75288142333 -0.52204297202 0.40080007206 0.5407692305 0.16017182924 0.82578061522 0.53198109152 0.012844715486 0.84665880469 
-0.086754065019 0.78764321156 0.60999336348 0.52690591474 -0.40146415403 0.74913062281 0.27284403254 0.029416968528 0.96160843168 
-0.49451915282 0.79536347558 -0.35049643252 -0.092225108541 0.45932677005 0.88346672131 0.52064561156 -0.82722611601 0.21124653882 
0.066946114477 0.029753080018 0.99731287567 0.46461171715 -0.84834639427 0.25385891283 0.42362055812 -0.90579364133 0.0091379457951 
-0.42722005084 0.85146344551 -0.30412666625 -0.5046736949 0.86331017301 8.2827373454e-05 0.22047946322 -0.30727474517 0.92572730179 
0.017997793769 -0.073118275721 -0.99716086825 0.23194697833 -0.35487944697 0.90568271341 -0.19749446687 0.25434709204 -0.94673306287 
-0.56163557335 0.77834974041 -0.28060143327 -0.57565915687 0.64750413279 -0.49935451649 -0.55036110412 0.39101655459 -0.73770502852 
-0.49682601936 0.05477318476 -0.86611997132 -0.24526947375 -0.4656868975 -0.85028148206 -0.39974571403 -0.51593730104 -0.75763583964 
-0.033406913194 0.75550440275 0.65429127732 -0.82005768759 0.056747281106 -0.56946038941 -0.93005343814 0.36547690989 -0.037778704982 
-0.98761379669 -0.0094012249359 -0.15662249378 0.99171019984 0.017030779573 0.12736103043 0.99171019984 0.017030779573 0.12736103043 

FrenetBinormal 3 87 double
-0.048342206325 -0.96740654392 -0.24857113645 -0.048342206325 -0.96740654392 -0.24857113645 0.075714831124 -0.92034474663 -0.38370928019 
0.51488564265 -0.026845970016 -0.85683841469 0.5143905512 -0.0093515512154 -0.85750504916 0.41322046914 0.22481042251 -0.88244496589 
-0.32626647893 0.76871284743 -0.55011884436 0.46427559945 0.31579161502 -0.8274804068 -0.70148380899 -0.033963791402 0.71187563984 
0.10518457817 0.59985103629 -0.7931676612 -0.63077275609 0.65859492858 -0.41033943293 0.836039271 0.11943863723 -0.53551167054 
-0.50597488157 0.6141677919 -0.6056297075 -0.63362961092 0.57046378268 -0.52257496001 -0.43340358128 0.64962519969 -0.62461863217 
0.49957214603 0.65315438928 -0.5690492199 0.95658336037 0.2884838343 0.041537356709 0.61422375664 0.58789655525 -0.52640936267 
0.51322205268 0.58739977588 -0.62575125085 -0.41918832288 0.14990559146 -0.89543814058 -0.48240936415 0.059304331045 -0.87393603982 
-0.59596370157 -0.35482009745 -0.72036793714 -0.61853339474 -0.093890719205 -0.78012881785 -0.59620161146 -0.17716131472 -0.7830437453 
-0.77819775657 0.46143614034 -0.42601049289 -0.78047712361 0.47763083277 -0.40339093583 -0.73086423195 0.39338368377 -0.55775151438 
-0.66299161088 0.34985097764 -0.66185075157 -0.22606778204 0.2329365006 -0.94585091035 -0.53201206413 0.27834429748 -0.79967969568 
-0.38806835215 0.2736877037 -0.88005567716 -0.63544174083 -0.21530099971 0.74152496487 0.91980993218 0.077991587344 -0.38453478512 
0.61732726327 0.14552483534 -0.77312972542 -0.25000482625 0.13201792704 -0.95920219651 0.50396635897 0.180564762 -0.84463854739 
0.81807781612 0.077234706263 0.56989778638 0.67672374982 0.074042591951 -0.73250437611 0.94591106153 0.15313081974 -0.28601261461 
0.9693923553 0.2437765163 0.029179985927 0.94066019172 0.049524834828 -0.33571668778 0.93513902467 0.036572648933 -0.3523882034 
0.78715115661 -0.27814937841 -0.55047795591 0.50547967548 0.84422596042 0.17824933501 0.86024052122 -0.28745809067 -0.42113429183 
0.68111363752 0.73146758395 -0.032239516336 -0.67373993831 0.72081484501 0.16278960271 0.87626289626 -0.46466405501 -0.12747804762 
-0.86879046004 0.47818853968 0.12860348777 -0.90862426244 0.40326008154 0.1085507086 -0.88363186366 0.45146862514 0.12397907093 
-0.31631019755 0.89108958837 0.32543387104 -0.38513549244 0.87170714511 0.30298070173 -0.48524030109 0.83403916061 0.26252719623 
-0.43705249825 0.85166597955 0.28922339645 0.098076781057 0.8425240455 0.52965477225 -0.31491827502 0.89834320779 0.30627758828 
0.17806118453 0.74782758773 0.63956869341 -0.3963202362 0.91442813022 0.082167299139 -0.32721167968 0.92533118581 0.19155864181 
-0.6033074361 0.44571797223 -0.66132868287 -0.20012022369 0.79802657031 0.56842368807 -0.41583313619 0.90494643089 0.09030371012 
-0.018157191517 -0.41262116134 -0.91072174324 -0.5074601371 0.74170030638 -0.43859419144 -0.025608090071 0.2321850674 0.97233446931 
-0.50387570642 0.86373860913 0.0080552823173 -0.083466527541 0.24344815678 0.96631585609 0.024847668674 0.021703568793 0.99945562606 
0.097357262423 -0.29109075461 -0.95172881434 -0.041852504163 -0.024370299801 -0.99882653969 -0.50350991256 0.77699693178 0.37782738911 
0.53650086696 -0.84087879057 0.071341988522 -0.4615007428 0.77946638502 0.42361446979 0.47883342443 -0.81767836022 -0.31956321891 
0.075531779243 -0.28949351584 -0.95419518685 0.21888177719 -0.4663809165 -0.85707619751 0.40468872734 -0.64789970218 -0.64533170531 
0.58061060189 -0.72078291269 -0.37863349264 0.77981344196 -0.61584802553 0.11234858788 0.7525647754 -0.65661183332 0.050071540483 
-0.8599795875 0.31183017327 -0.40397654899 0.32671034065 -0.77055595969 -0.54726946406 -0.21079931136 -0.61497890202 -0.75984511606 
0.12289239976 -0.6669611793 -0.73488791213 -0.10608178594 0.66783125116 0.73671437794 -0.10608178594 0.66783125116 0.73671437794 

SiphonLabel 1 87 int
0 0 0 0 0 0 0 0 0 
0 0 0 0 0 0 0 0 0 
1 1 1 1 1 1 1 1 1 
1 1 1 1 1 1 1 1 1 
1 1 1 1 1 1 1 1 1 
0 0 0 0 0 0 0 0 0 
0 0 0 0 0 0 0 0 0 
0 0 0 0 0 0 0 0 0 
0 0 0 0 0 0 0 0 0 
0 0 0 0 0 0 
