# vtk DataFile Version 5.1
vtk output
ASCII
DATASET POLYDATA
POINTS 90 float
88.8792 80.8804 33.3406 89.1684 80.851 32.9716 89.5501 80.8162 32.4094 
89.9843 80.6682 31.9467 90.5865 80.2515 31.4469 90.9193 79.9043 31.0241 
91.1234 79.3957 30.472 91.2599 78.8894 30.0018 91.3244 78.4486 29.5336 
91.3447 77.9995 29.0517 91.3611 77.3653 28.3333 91.3832 76.8557 27.8548 
91.4136 76.2587 27.1324 91.3587 75.7225 26.3061 91.0974 75.2667 25.6375 
90.7253 74.7012 24.9078 90.4949 74.4081 24.4303 90.1627 74.1191 23.94 
89.901 73.9565 23.6255 89.2094 73.7984 22.9939 88.8327 73.7939 22.6802 
88.106 74.1262 22.1063 87.7059 74.626 21.7473 87.4644 75.1758 21.4906 
87.1925 76.0418 21.3717 87.0838 76.6154 21.3424 87.0095 77.2647 21.4137 
86.9441 78.1197 21.5174 86.9235 78.9115 21.689 86.9191 79.4352 21.8374 
86.8858 80.3452 22.0857 86.8404 81.2578 22.1744 86.7557 82.1846 22.2144 
86.7422 83.0576 22.3687 86.6249 83.8121 22.6332 86.6084 84.4641 22.7078 
86.7561 85.4325 22.778 86.9215 86.1613 22.6663 86.9265 86.5272 22.5712 
87.1429 87.3584 22.1805 87.3629 87.9505 21.4466 87.6071 88.1478 20.5593 
87.8346 88.1398 19.7152 87.9016 88.0513 19.0488 87.9945 87.7829 18.206 
88.1282 87.4529 17.314 88.239 87.3617 16.6852 88.3741 87.2819 15.7856 
88.5348 87.2893 14.9882 88.6225 87.343 14.2957 88.6818 87.512 13.386 
88.5955 87.7326 12.4513 88.4612 88.0632 11.7049 88.2982 88.4128 10.9069 
88.0414 88.7921 10.1412 87.5834 89.046 9.4187 87.0764 89.3814 8.72882 
86.6393 89.7003 8.28133 85.9147 90.092 7.8756 85.364 90.3641 7.65139 
84.8429 90.6301 7.48203 84.1557 90.9344 7.32918 83.4992 91.1755 7.25023 
83.0552 91.3281 7.26019 82.4946 91.5222 7.27662 81.6992 91.8469 7.38087 
80.8539 92.2332 7.52666 80.1767 92.4189 7.59713 79.6559 92.5659 7.73589 
78.8366 92.8368 7.95107 78.0593 93.1298 8.09509 77.4708 93.3282 8.23767 
77.0654 93.4817 8.33949 76.3876 93.7217 8.51655 75.8951 93.9252 8.62927 
75.2899 94.1707 8.75643 74.5055 94.5373 8.9227 74.0198 94.7389 9.00525 
73.358 95.0141 9.09003 72.7683 95.2539 9.05929 72.0533 95.5354 8.88607 
71.5018 95.7938 8.80669 70.663 96.2701 8.65795 70.0089 96.7568 8.36025 
69.3922 97.0513 8.03212 68.9767 97.3201 7.69472 68.4873 97.7067 7.31045 
68.0335 98.1669 6.93924 67.6669 98.598 6.70816 67.1949 99.2096 6.37558 

LINES 2 90
OFFSETS vtktypeint64
0 90 
CONNECTIVITY vtktypeint64
89 88 87 86 85 84 83 82 81 
80 79 78 77 76 75 74 73 72 
71 70 69 68 67 66 65 64 63 
62 61 60 59 58 57 56 55 54 
53 52 51 50 49 48 47 46 45 
44 43 42 41 40 39 38 37 36 
35 34 33 32 31 30 29 28 27 
26 25 24 23 22 21 20 19 18 
17 16 15 14 13 12 11 10 9 
8 7 6 5 4 3 2 1 0 

CELL_DATA 1
FIELD FieldData 2
Length 1 1 double
67.889169968 
Tortuosity 1 1 double
0.73376130577 
POINT_DATA 90
FIELD FieldData 7
MaximumInscribedSphereRadius 1 90 double
1.399006862 1.4051849417 1.4615850827 1.489003901 1.5113823158 1.5444920437 1.5309407461 1.5678822238 1.6049649449 
1.6391394225 1.6805864096 1.7076971612 1.7941475156 1.91517359 1.9671233953 2.0313194693 2.0228227781 2.0166516846 
2.0251367053 2.040666247 2.0906466148 2.1697211351 2.1372490564 2.0657036731 1.9481155968 1.9446921924 1.9686569395 
2.095759967 2.2384775727 2.355044269 2.5760543523 2.7036336362 2.7887274377 2.8016522223 2.5601299768 2.3127873199 
2.0561894989 1.8952003849 1.8484187534 1.8338184212 1.8099910595 1.7235969735 1.676901096 1.6685641984 1.7169100344 
1.8046267139 1.801177223 1.7359133514 1.6716188366 1.6777667821 1.68475927 1.6390027214 1.6267838936 1.7203575831 
1.7496587958 1.7220801006 1.7396123904 1.7491134289 1.7596637704 1.7300179305 1.7082137063 1.725658709 1.7843339483 
1.8014073805 1.8298762408 1.8874609294 1.9625227677 1.9751777751 1.981366199 2.040086547 2.1162306562 2.0877433216 
2.0737194897 2.0711768857 2.0667706249 2.0886033204 2.1080428946 2.0894757492 2.0589788798 2.016687184 1.930905803 
1.8866519795 1.850430938 1.7717371906 1.5549981002 1.4055090491 1.2814676935 1.2200119867 1.2686772788 1.3996626758 

Curvature 1 90 double
0 0.12005117311 0.35918922363 0.37622387882 0.2643847762 0.40979646208 0.14000812571 0.17241647208 0.10646181648 
0.037330210656 0.11452438593 0.15467429085 0.15115497066 0.28428490451 0.09889993914 0.12634671971 0.22097496983 0.21459382649 
0.36119200124 0.22951070498 0.49136289486 0.49120318037 0.37590260982 0.38058709736 0.18906754189 0.28341687198 0.051522315313 
0.12604154491 0.096217623381 0.038886864268 0.18376300658 0.073402017025 0.16785777504 0.24733094754 0.34981408648 0.22213537953 
0.26905461552 0.41031596322 0.43595060619 0.47990123568 0.48838818222 0.24542921506 0.26460700635 0.22573516732 0.0621587823 
0.2642232624 0.076956353916 0.1261501951 0.13174072144 0.15071856941 0.17114114832 0.22267901735 0.02592103877 0.13111775813 
0.30838414772 0.1184514415 0.19918430345 0.32425705802 0.14388826614 0.10981787749 0.14139856347 0.14868684753 0.23136988715 
0.012912042784 0.14779776501 0.059367554391 0.20645926131 0.24025769805 0.060167560141 0.096040533681 0.086786208852 0.067100090378 
0.040023795169 0.093560766207 0.028602291644 0.065938951033 0.077762097061 0.060533837182 0.24597478639 0.24546237039 0.15888936452 
0.1018814401 0.25258791576 0.25272646763 0.27819461124 0.13772820847 0.15031293028 0.22082028678 0.06568724687 0 

Torsion 1 90 double
0 0 0.090365032608 0.66736074386 0.69669269509 -0.25375632372 -0.35833656426 0.36311858256 -0.39704260276 
0.92839759901 -0.19027971407 -0.43642483426 -1.1361837448 -0.35428476396 -0.26374478461 -0.67104536733 -0.24264449728 0.65971172265 
0.23503840688 0.57391891479 0.19442282856 0.12640650967 -0.44028483821 -0.22079549989 0.25462658452 -0.16406854859 1.51041537 
-0.27719999447 -0.46528396014 -4.2206754843 0.0142379612 0.90545227511 -0.71895640557 -0.53005671476 -0.41495118113 -0.082362402543 
1.2713947015 -0.27814940176 -0.07866472564 0.26180437495 -0.10075617164 0.4480198018 0.0061804582863 -0.72796215396 -2.8216910278 
-0.20602749439 -0.31171257876 -0.30248149485 -0.37747900249 -0.30136216876 0.21208684299 0.26625346041 -3.2485103744 -0.87530457393 
0.043805529485 1.2006516549 -0.70298750203 -0.21271567583 0.37076891968 -0.2307198603 -0.43588426187 0.43888758672 0.27095595943 
9.9391699464 0.10036634501 -0.26318395805 0.58894658276 0.82548863715 3.5858770669 0.31889840085 0.52451728573 0.76965078577 
-1.0208257338 0.19626525426 0.82968084214 0.23586590081 -0.040954458429 -0.61557398565 0.023261885158 -0.22115322087 -0.11788268423 
1.9844318062 0.69684146334 -0.059615391076 -1.0238099127 -1.2362482332 -0.51152266294 -0.13361742905 0 0 

FrenetTangent 3 90 double
-0.5835746457 0.055804196903 0.81013981787 -0.5835746457 0.055804196903 0.81013981787 -0.6168875712 0.13820067434 0.77482275271 
-0.6805326252 0.37078289783 0.63197736408 -0.61528994384 0.50272619046 0.60719408959 -0.38240744794 0.60957615414 0.69439286867 
-0.23013715617 0.68565409797 0.69059057863 -0.14912436257 0.70244336434 0.69594198348 -0.064965760858 0.68214048901 0.72832946059 
-0.022678036238 0.66981587414 0.74218084145 -0.023270266085 0.69070443521 0.72276267052 -0.032106348018 0.67729639218 0.73500937379 
0.012800731939 0.59047152683 0.80695694883 0.17354401806 0.54455832898 0.8205721785 0.34351975026 0.55390847697 0.75840594692 
0.37675007638 0.53684858295 0.75488607017 0.44588943884 0.46134458524 0.76703571103 0.54117338355 0.41154231602 0.73332413779 
0.69034874319 0.23222875772 0.68519224811 0.74409383681 0.11322843628 0.65840996593 0.75914699831 -0.22553431669 0.61059815506 
0.66950214322 -0.494442592 0.55434051217 0.46641124063 -0.76295621399 0.44761408618 0.33078905367 -0.91214727638 0.24200402511 
0.25431936189 -0.96203717962 0.099025891504 0.14792985923 -0.98841491587 -0.033951595417 0.091848042815 -0.98909842469 -0.11510101351 
0.051434739816 -0.98500880889 -0.16465756573 0.018446328346 -0.9715141385 -0.2362625905 0.025327756007 -0.96346476227 -0.26663487512 
0.042449333059 -0.98244173839 -0.18167631872 0.070384415297 -0.99508944007 -0.069591956038 0.054144941294 -0.99276807758 -0.10714415274 
0.077603217265 -0.96553682137 -0.24842783108 0.09207678104 -0.96800606088 -0.23342264775 -0.080396911656 -0.99280533031 -0.088735070338 
-0.18132055428 -0.98312969736 0.024059400836 -0.15123197707 -0.97132645176 0.18344975669 -0.16892595366 -0.91330486483 0.3705917512 
-0.23389202282 -0.76285405639 0.60278371769 -0.24932052299 -0.4239641263 0.87068576216 -0.26141170413 -0.10490038317 0.95951020347 
-0.19100241013 0.062603706749 0.97959116739 -0.10253388131 0.22894437616 0.96802441902 -0.12251122457 0.32361432191 0.93822426451 
-0.15311884428 0.26371051579 0.95237145242 -0.15792015815 0.1098078782 0.98132739365 -0.17155992614 0.042025964522 0.98427689704 
-0.16428852904 -0.04044250509 0.98558291534 -0.090491752758 -0.13709974936 0.986415177 0.014313274485 -0.20660566267 0.97831959519 
0.12374687455 -0.3091789001 0.94291840515 0.17350006644 -0.39699711099 0.90127189061 0.2363969293 -0.41052782867 0.88067212611 
0.40421994585 -0.35806492562 0.84166248842 0.53341000886 -0.32571273815 0.78063113866 0.58403888998 -0.40477536321 0.70360179102 
0.72288188671 -0.44218581224 0.53095525737 0.81246064313 -0.42292085667 0.40130493688 0.84915323979 -0.42628114002 0.31180629406 
0.87914850697 -0.41489441398 0.23443661818 0.91496310503 -0.37138507197 0.15784690287 0.93992607824 -0.33625480435 0.058920913082 
0.94497714573 -0.3261927277 -0.024829386818 0.93075788753 -0.35613167986 -0.08282500474 0.90872066057 -0.39376176902 -0.13848620981 
0.92794455716 -0.34863313147 -0.13180985726 0.95017676553 -0.26386941153 -0.16594290556 0.92568959547 -0.28866173208 -0.24448553591 
0.92237803024 -0.32581431375 -0.2075181975 0.92312931237 -0.33212337789 -0.19371715079 0.91831164779 -0.32513007561 -0.22581884658 
0.91353489351 -0.33185697727 -0.23521255275 0.9110259728 -0.34517881957 -0.22557317971 0.9072056362 -0.37105592576 -0.19823075848 
0.89851112248 -0.39582754905 -0.18973221705 0.89854532519 -0.40202952448 -0.17603567827 0.9152059615 -0.3802440189 -0.13346360598 
0.92403419614 -0.3802219022 -0.039901246207 0.91897166327 -0.36722110029 0.14366539464 0.9047944985 -0.38572597212 0.18045051929 
0.87500093953 -0.46234410068 0.14356632054 0.81500645916 -0.52570111636 0.24372691231 0.78557957222 -0.48291081513 0.38686157775 
0.76392667875 -0.41691159451 0.49254517747 0.68031123999 -0.49276219671 0.5425514116 0.63919548256 -0.57385359265 0.51197772342 
0.60642605577 -0.65881744112 0.44520446782 0.57755601812 -0.71813137998 0.3882220589 0.57755601812 -0.71813137998 0.3882220589 

FrenetNormal 3 90 double
-0.79475338174 0.16561631025 -0.58389922075 -0.79475338174 0.16561631025 -0.58389922075 0.44901302131 -0.74673951407 0.49068055272 
0.029813742263 -0.84778463612 0.52950198444 -0.78796527785 -0.3697505374 -0.49233653226 -0.90895370938 -0.38321650344 -0.16415926931 
-0.66077192351 -0.63107176128 0.40636055076 -0.81067029254 0.3161498489 -0.49281127202 -0.99525879806 0.0086498957641 -0.09687674742 
-0.45029303075 0.65596262691 -0.60576333544 0.15295238174 -0.7119874398 0.68533163832 0.0056963057057 0.73550055081 -0.6775001785 
-0.60851028985 0.64497921667 -0.46229540037 -0.98116858612 0.023861040115 0.19167382811 -0.73068014611 -0.3496930537 0.58636276509 
-0.068050054796 0.82877299705 -0.55543182246 -0.88917914342 0.3266054834 0.32045172666 -0.77440411853 0.58380903441 0.2438550236 
-0.50793187349 0.8299997015 0.23044675612 -0.26589234621 0.95430690131 0.13638034439 0.13036585673 0.97172933739 0.19684216584 
0.45803056776 0.86230747004 0.21594866546 0.67937516119 0.63303522037 0.37110079509 0.25775422637 0.33401701741 0.90663961466 
0.78239085239 0.26484910235 0.56366613086 0.41849037027 0.031454563931 0.90767638528 0.95317817215 0.053884376949 0.29756990113 
0.47770803862 -0.12052301359 0.87021217702 0.26707003631 -0.22292886646 0.9375373679 -0.94254452431 0.065863067448 -0.32752385568 
-0.083574756726 0.17771121593 -0.98052740083 -0.61079652124 0.012164724164 -0.79169415125 0.49877916288 -0.066066197571 0.86420750067 
-0.62723913269 -0.24096878674 0.74061131118 0.47520082749 0.24871937095 -0.84399220853 0.97009711504 -0.057481548369 -0.23581233848 
0.29955349994 -0.078516522653 -0.95084323437 -0.88771448003 0.051813837025 -0.45746948339 0.75120989264 -0.36271543315 -0.55147185944 
-0.0052641629384 -0.61897767007 -0.78539094249 0.073392535174 -0.9047640819 -0.41954200253 0.0047246114829 -0.99420400001 -0.1074061656 
-0.79111324565 -0.60059471402 -0.11586984962 0.028748681792 -0.97206487209 0.23294505306 0.60493304376 -0.72509000858 0.32909040099 
0.15896531106 0.95775815256 -0.23964421773 -0.39991585285 0.90153450203 -0.16523574759 0.45704637565 0.88846347729 0.041728407926 
-0.72629879199 0.68104210345 -0.093122060068 -0.50221254924 0.8615995733 0.073679920392 -0.95431758888 0.28921771737 0.075040332535 
-0.36979801124 0.86740617868 0.33295037477 -0.96886179463 -0.23295468497 0.083898376953 -0.89392186506 0.26333657558 0.36270862566 
-0.83478043754 -0.52050909193 0.17947675708 -0.35627357971 0.75051649573 0.5565915253 -0.44885049231 0.5611814567 0.69541973528 
-0.63258107313 -0.11435692819 0.76600501232 -0.47774657272 -0.088421023673 0.87403657522 -0.1951841265 0.29529275844 0.93525683295 
-0.4113788073 -0.41241125795 0.81282496961 -0.33943533941 -0.49676074985 0.79875678887 -0.10668763269 -0.1253857221 0.98635499174 
0.13334617316 0.31476959595 0.93975470181 0.2462466056 0.44309930429 0.86198933623 0.38455694273 0.66077698665 0.64458492979 
-0.37271634493 -0.86910881718 -0.3251651736 0.17236751901 0.0012147908574 0.98503196023 0.25817565044 0.95447405356 -0.14941423828 
-0.0099587521001 0.51697515299 -0.85594247146 -0.029438664152 -0.56340390137 0.82565695599 0.36020344214 0.92290475807 0.13601576302 
-0.20454244407 -0.87461382905 0.43956005119 0.18029655536 0.82543218659 -0.53493444222 -0.30732781217 -0.26278400051 -0.91460056032 
0.39381415033 0.91783714952 -0.049853605285 -0.42027339821 -0.67264659632 -0.60902941408 -0.1178353302 0.064203235114 -0.99095548818 
-0.054521454042 -0.027755334008 -0.99812677175 0.1095520102 -0.11222763351 -0.98762508845 0.081565840548 0.57287176544 0.81557645504 
0.48393993943 0.82721337114 -0.28551737885 0.45508395626 0.32033371675 -0.83083385985 -0.29993143287 -0.84404730617 -0.44455065013 
0.63174805933 0.3275610239 -0.70256541699 0.28305769366 0.8594684227 0.42566697363 0.53514149314 0.81001377826 0.23979420624 
0.056633733233 0.59427256954 0.8022672456 0.81208865292 0.45688107079 -0.36300372857 0.81208865292 0.45688107079 -0.36300372857 

FrenetBinormal 3 90 double
-0.16675639451 -0.98461014081 -0.052298905373 -0.16675639451 -0.98461014081 -0.052298905373 0.64640314912 0.65060023957 0.39860042282 
0.73211097984 0.37918498577 0.56589067828 -0.023000128355 -0.7813775768 0.62363456974 0.16603523109 -0.69394670097 0.70062135155 
0.71443498966 -0.36280420346 0.59829403766 -0.56619396083 -0.63766965815 0.52230432297 -0.072383525775 -0.73116997515 0.67834437614 
-0.89259279245 -0.34793638334 0.28673747579 0.98795954555 0.12649612147 -0.089076751269 -0.99946822587 -0.017565218423 -0.027472323955 
-0.79344273165 -0.48512388734 0.367564206 0.084797873879 -0.83838349047 0.53844446648 0.59000059768 -0.75557935873 0.2846034564 
-0.92381197762 0.1578889431 0.34877286543 -0.10267940026 -0.82491819708 0.55584791884 -0.32776459561 -0.69985708074 0.63464197498 
-0.5151929975 -0.50711961074 0.69094563876 -0.61288304125 -0.27654594433 0.74020045827 -0.63773080399 -0.069830987734 0.76708738406 
-0.58478618248 0.10932680517 0.80378652045 -0.56648913932 0.13101230971 0.81358824336 -0.90782231784 -0.23752889988 0.34559898865 
-0.56849469326 -0.065874259059 0.8200453437 -0.89609294537 -0.14848085564 0.41829519334 -0.28812377404 -0.13704298669 0.94773620308 
-0.877011686 -0.12341737968 0.46434755627 -0.96350055977 -0.080392780748 0.25535009717 0.33311908452 0.25961068584 -0.90644027234 
0.99559696372 0.056806288351 -0.07456360669 0.78865305663 0.098229454584 -0.60694096132 -0.86503622584 -0.1002337352 0.49159488028 
-0.77495084431 0.09834983681 -0.62432243152 0.87504630731 -0.033210549584 0.48289856021 0.22901511736 -0.10504021948 0.9677389257 
0.93669128173 -0.16520034456 0.30873660114 0.43484697429 -0.23203501979 -0.87009646508 0.6380812796 0.18523427987 0.74735569991 
0.97224832746 -0.18686982795 0.14075815128 0.96563596277 -0.040698596061 0.25669205613 0.96521583026 -0.023543915859 0.26039217545 
0.58108339495 -0.79709896838 0.16424165952 0.9943139929 0.051714186411 0.0930877352 0.78679540696 0.60788012808 -0.10693333188 
-0.97533822308 0.11469997853 -0.18857164559 -0.90284469002 -0.41854243695 -0.098456559883 -0.87274039797 0.45701911101 -0.17163254331 
-0.6674573724 -0.73112656709 -0.14126074798 -0.85999639422 -0.48872265551 -0.14682087019 -0.29845111781 -0.93470167011 -0.19302776527 
-0.92083448128 -0.38989091925 -0.0069949387979 0.17664809608 -0.88776427536 -0.42505298674 -0.38081516643 -0.87299527482 -0.30472784443 
0.37382864588 -0.77515146537 -0.50930575223 -0.76716549639 -0.57500974065 0.28429016746 -0.67633705395 -0.72196418055 0.14606817399 
-0.27799813631 -0.88960339502 -0.36238492764 -0.33416450383 -0.90184237623 -0.27388759157 -0.49075648963 -0.85503600888 0.16754549055 
-0.24055223882 -0.81103611484 -0.53324951086 -0.21823420168 -0.78441180876 -0.5805789761 -0.32427876353 -0.93338691187 -0.1537275391 
-0.2987256135 -0.89135761951 0.34094662629 -0.27028200835 -0.82269874993 0.50011438973 -0.16230440183 -0.63900347664 0.75188552186 
-0.0011937564153 0.35086294124 -0.93642606297 -0.25971821776 -0.96455764884 0.046636781855 0.27648527332 0.075190993534 0.95807213096 
0.38616006085 0.79156915311 0.47360181931 -0.38336097572 -0.75648536389 -0.52987192464 0.16418647266 -0.20624558531 0.96462716152 
-0.35159122132 -0.35344249415 -0.8668690884 0.37084340228 0.44666910333 0.81422471292 0.28727608587 0.8906526085 -0.35243493222 
0.19387670766 -0.029925213005 0.98056937738 0.12643800592 0.62122364564 -0.77336576906 0.38537369265 0.92265509845 0.013953004 
0.37840218738 0.92447874314 -0.046377128715 0.37879999891 0.923338303 -0.062904205309 -0.41796402852 -0.72321049134 0.54979328486 
0.013247295758 0.31930545121 0.94755925302 0.35869633994 0.78805116976 0.50031219208 0.54120778938 0.23319796222 -0.80790645444 
0.1315690656 0.84787292561 0.51361569582 -0.67605839896 -0.13601267539 0.72418615931 -0.55231577688 0.12070514999 0.82485001629 
-0.79312045689 -0.46130217035 0.39769366161 0.083313058559 0.52492571689 0.84706075699 0.083313058559 0.52492571689 0.84706075699 

SiphonLabel 1 90 int
0 0 0 0 0 0 0 0 0 
0 0 0 0 0 0 0 0 0 
0 1 1 1 1 1 1 1 1 
1 1 1 1 1 1 1 1 1 
1 1 1 1 1 1 1 1 1 
1 0 0 0 0 0 0 0 0 
0 0 0 0 0 0 0 0 0 
0 0 0 0 0 0 0 0 0 
0 0 0 0 0 0 0 0 0 
0 0 0 0 0 0 0 0 0 

