# vtk DataFile Version 5.1
vtk output
ASCII
DATASET POLYDATA
POINTS 93 float
82.0742 84.0586 35.6563 82.4437 84.326 35.0428 82.8625 84.4122 34.7057 
83.3548 84.4726 34.4206 84.0814 84.615 33.818 84.5007 84.6739 33.3435 
84.8195 84.6634 33.0965 85.4076 84.6351 32.6128 85.9306 84.3896 32.2078 
86.5428 83.7284 31.8752 86.9603 82.9254 31.5957 87.2111 82.3147 31.326 
87.3307 81.5188 30.9159 87.3286 80.9939 30.5934 87.2377 80.169 30.1266 
87.164 79.4759 29.6658 86.912 78.8737 29.2163 86.5366 78.3055 28.7842 
85.9869 77.6566 28.4437 85.5224 77.2226 28.0573 84.8657 76.8113 27.5386 
84.2999 76.632 27.1357 83.6826 76.6471 26.6668 83.2813 76.9591 26.189 
82.9286 77.6592 25.6835 82.852 78.313 25.4053 82.9304 79.2308 25.2525 
83.1579 80.1017 25.2503 83.3755 80.6455 25.3177 83.5695 81.2067 25.4403 
83.9568 81.9379 25.7113 84.3042 82.6396 26.0319 84.5906 83.1868 26.328 
84.8602 83.8091 26.6233 85.0946 84.5622 26.8951 85.4353 85.4348 27.205 
85.6113 86.2737 27.3969 85.6913 86.722 27.492 85.6541 87.3596 27.4606 
85.5978 88.294 27.2494 85.5413 88.9147 26.9637 85.412 89.4117 26.5585 
85.2102 89.862 26.0344 84.9932 90.2592 25.5315 84.7982 90.5768 24.7872 
84.6213 90.6971 23.838 84.461 90.6816 23.1228 84.2998 90.6541 22.4268 
84.2466 90.6302 22.0915 84.237 90.5628 21.1296 84.217 90.3853 20.207 
84.2054 90.3415 19.2614 84.2146 90.3782 18.4228 84.0851 90.4918 17.5754 
83.8793 90.6181 16.8842 83.6143 90.8734 16.361 83.3475 91.3552 15.6959 
83.1766 91.7127 15.2127 82.9995 92.0156 14.708 82.7321 92.4593 13.8614 
82.4445 92.9508 13.2676 81.9575 93.4892 12.7235 81.4598 93.9377 12.388 
80.7953 94.486 12.0676 80.1795 94.8768 11.9189 79.3704 95.3579 11.9071 
78.5802 95.8501 11.8561 77.7953 96.2975 11.875 77.0058 96.6904 11.9302 
76.4127 97.0139 11.9978 75.8578 97.3039 12.0246 74.9945 97.7415 12.067 
74.394 98.0185 12.1078 73.5531 98.493 12.2142 72.7423 99.0088 12.3441 
71.9438 99.5313 12.3775 71.3192 99.9167 12.3218 70.7409 100.262 12.2269 
69.9131 100.758 12.04 69.257 101.067 11.9402 68.6987 101.33 11.8625 
67.9171 101.736 11.6498 67.2535 102.394 11.4926 66.8742 102.848 11.3704 
66.5553 103.335 11.1078 66.3031 103.74 10.7867 65.9752 104.38 10.1651 
65.9462 104.889 9.43158 65.9922 105.18 9.05752 66.1136 105.703 8.49763 
66.2857 106.325 7.86892 66.3609 106.798 7.36238 66.3472 106.993 7.13724 

LINES 2 93
OFFSETS vtktypeint64
0 93 
CONNECTIVITY vtktypeint64
92 91 90 89 88 87 86 85 84 
83 82 81 80 79 78 77 76 75 
74 73 72 71 70 69 68 67 66 
65 64 63 62 61 60 59 58 57 
56 55 54 53 52 51 50 49 48 
47 46 45 44 43 42 41 40 39 
38 37 36 35 34 33 32 31 30 
29 28 27 26 25 24 23 22 21 
20 19 18 17 16 15 14 13 12 
11 10 9 8 7 6 5 4 3 
2 1 0 
CELL_DATA 1
FIELD FieldData 2
Length 1 1 double
71.640604989 
Tortuosity 1 1 double
0.79852610473 
POINT_DATA 93
FIELD FieldData 7
MaximumInscribedSphereRadius 1 93 double
1.196195526 1.3410626477 1.41463612 1.4772943652 1.4014080394 1.3616944715 1.3611430683 1.3575326062 1.3991487957 
1.4026653444 1.4064562642 1.390693849 1.4122292806 1.4130373441 1.4509373501 1.5688050694 1.5680370529 1.4890380735 
1.372148659 1.2920103402 1.3398833142 1.485958196 1.6484740926 1.6765817142 1.6737480291 1.7157103734 1.7943161826 
1.8175049124 1.8210085391 1.8602732623 1.9173903643 1.9947681707 2.0492473419 2.1094993973 2.1480997427 2.0984601818 
2.0719535072 2.0561994848 1.9754642642 1.9078583298 1.8987553734 1.8704096967 1.8186459507 1.7912448943 1.7764957667 
1.7360820292 1.7169041757 1.6935396827 1.7017163285 1.7729375014 1.7900767175 1.8733459364 1.9460522885 2.0446530132 
2.008336241 1.9452866508 1.869276016 1.8622892709 1.8932618232 1.9409200635 1.9200726109 1.9232242433 1.9359209013 
1.9161569978 1.9337720526 1.9476088408 1.8884347741 1.8714557858 1.9240014938 1.9659727059 1.9794830435 1.9914438647 
1.9978878088 2.0211404744 2.1044634223 2.1670652335 2.1723353122 2.1803638828 2.1494976391 2.1459878157 2.1536938799 
2.1370217608 2.0691322167 2.0481458248 1.9793138306 1.8939749396 1.6866343931 1.3983570109 1.304253667 1.2290083355 
1.2618940966 1.3191615527 1.3426486323 
Curvature 1 93 double
0 0.61810708022 0.28916708771 0.22633072043 0.20707046833 0.43224966908 0.053727085434 0.44497606106 0.53000815943 
0.27542964788 0.14737108566 0.29281835131 0.20546769088 0.12639524499 0.080429766779 0.29990767713 0.2022400408 0.24926792929 
0.23727140562 0.20092069378 0.25618984794 0.37266465553 0.7042812657 0.49546774414 0.44011746107 0.3766522742 0.25865059416 
0.23098604257 0.16892690824 0.25483728237 0.089289228352 0.081001298281 0.10690182761 0.16193165418 0.074498925542 0.20273671863 
0.048906397097 0.64114593284 0.21742052507 0.25720482262 0.4186923235 0.28089451233 0.08295305206 0.36330657945 0.31114611328 
0.17599465076 0.025871304522 0.14604380215 0.22586554948 0.12712767789 0.15335525198 0.10434997611 0.217732955 0.17910755685 
0.43392986883 0.26401794337 0.05157011627 0.15143701717 0.073385122714 0.23970205155 0.26164352654 0.24182847408 0.13857541129 
0.23729494503 0.22786967798 0.050214773126 0.093005513262 0.078261808804 0.067677502827 0.091380524994 0.015521763239 0.050318744614 
0.11575769346 0.059720842775 0.10430120052 0.13506042698 0.093014441902 0.061738108612 0.13278291194 0.016920604471 0.15480606296 
0.33426465268 0.12889193298 0.4007849849 0.28140617177 0.18082274395 0.41482400959 0.20622300362 0.17143282847 0.053518127498 
0.11136508609 0.31903475862 0 
Torsion 1 93 double
0 0 -0.37967863855 -0.26774499416 -1.4206642447 -0.27342906761 -1.195200063 -0.2336313219 0.075051300358 
0.77048989919 0.53383237177 -0.0029984946571 -0.071086431275 -0.42707042445 -1.2494348826 -0.2413774472 -0.67588951442 0.15721201191 
0.22462455605 -0.51695291688 0.23130424433 0.52401545665 -0.040096450302 -0.16896393054 -0.009613163665 -0.11730546418 0.12585276123 
-0.46832528294 0.13513787302 0.21607755531 -1.2439654543 -0.13084762225 -0.50450639934 -0.27962235574 0.08225525634 0.14938862077 
-2.8941479743 -0.23620090568 -1.0944393457 0.39397608717 0.18994954464 0.15209576846 -1.8359147486 -0.021219119027 0.28615352212 
0.49188870211 -3.2199124003 -0.76073259696 0.22731714547 0.94709365053 0.080751345275 -0.9689166633 -0.36228131673 0.79468223551 
0.58197540655 1.0059229733 3.9183257792 0.070663243518 -0.41200160619 -0.43936073645 -0.28971023312 0.15788777565 -0.26385146322 
0.15580258512 0.32879521033 0.73528533892 -0.19688985611 0.18398492259 1.1342686158 0.39188640678 4.3389800991 1.243851594 
0.25092084207 0.94452654438 0.52218857574 0.1566582333 -0.13416778444 0.8776766916 0.3024897563 7.8300199086 -1.3311124427 
-0.12562623638 2.3265777986 0.38697422968 0.23230575861 -0.58031821449 -0.26506765428 -1.4456751084 -0.43041710128 0.15011703355 
0.064412556549 0 0 
FrenetTangent 3 93 double
-0.61367462577 -0.27530217138 0.74000822165 -0.61367462577 -0.27530217138 0.74000822165 -0.81862645142 -0.13178246984 0.55900278503 
-0.80114261096 -0.1332605168 0.58344849949 -0.72270641397 -0.12696577422 0.67939320822 -0.71432683191 -0.046813989046 0.69824467605 
-0.77830444657 0.033312692634 0.62700275355 -0.76683435434 0.18897583686 0.61339482071 -0.69672808348 0.55646190561 0.45268104146 
-0.54428889656 0.7739845057 0.32357005736 -0.40321724775 0.852988245 0.33140142578 -0.23069467908 0.87608762244 0.4233797856 
-0.077527126888 0.87187045173 0.48356122672 0.059348265176 0.86171635384 0.50390744086 0.09209718092 0.84965382253 0.51923645011 
0.20148615693 0.8013990819 0.56317212297 0.39362684617 0.73427742913 0.5530773572 0.54010593269 0.71052340484 0.4510455328 
0.61386069232 0.65542631728 0.43999021924 0.6711315287 0.50599069885 0.54180797693 0.7450326861 0.35993020051 0.56158396291 
0.8000557228 0.11104260809 0.58955947927 0.71301071381 -0.2289348224 0.66272510824 0.47128979082 -0.63259718505 0.61457850152 
0.26465772471 -0.83461739173 0.48308394526 -0.0010954896566 -0.96438669783 0.26449403955 -0.16799121509 -0.98210474388 0.08514237317 
-0.29983748026 -0.95297848993 -0.043925882489 -0.34457162114 -0.9251750902 -0.15912715162 -0.39522511997 -0.87873224464 -0.26763173723 
-0.42827651166 -0.83526883295 -0.34482634217 -0.41419251218 -0.81612546843 -0.40296871174 -0.39054532845 -0.82151721671 -0.41543207516 
-0.32087977579 -0.8756061827 -0.36104013946 -0.31601327862 -0.89328952186 -0.31963954367 -0.27822379699 -0.92171390881 -0.27024986418 
-0.19054487679 -0.95814791629 -0.21364742086 -0.039304184694 -0.99751189283 -0.058525248625 0.058640011627 -0.9865953324 0.15228591245 
0.068894565091 -0.95030024649 0.30361650222 0.14004761055 -0.84221743377 0.52063082988 0.24210165805 -0.69258444875 0.67949508351 
0.30002816764 -0.60719478762 0.73572929024 0.27549301104 -0.47803619114 0.83401738641 0.20793751572 -0.24485346409 0.94699987892 
0.19817869762 -0.061566510957 0.97823042712 0.22202966017 0.029685448288 0.97458791505 0.20327872237 0.048691117051 0.97790947237 
0.048246421846 0.070081253353 0.99637387597 0.015607955662 0.12885395083 0.99154074605 0.016783216624 0.11764065733 0.9929143968 
0.0013212592571 0.0039766055311 0.9999912204 0.07089689243 -0.088548056086 0.99354560661 0.21050322509 -0.15061397989 0.96592122934 
0.34687918 -0.2811637566 0.89477470709 0.35549873435 -0.49268407827 0.79428146704 0.29413811749 -0.56400140689 0.7716120663 
0.28102399747 -0.53337132234 0.79783491109 0.27667603432 -0.46472493545 0.84111896091 0.3075268009 -0.51812876307 0.79810391028 
0.45056688281 -0.59909015117 0.66187648009 0.59734737569 -0.59871736417 0.53358563567 0.69770978963 -0.59841778278 0.39382382699 
0.77331400489 -0.56720046448 0.28331798908 0.84907647829 -0.51955086628 0.095582589251 0.85374311238 -0.51961216831 0.033554323249 
0.85866942023 -0.51223109941 0.017496501523 0.88145621467 -0.47044030655 -0.04148324478 0.88515239606 -0.45861823901 -0.078578283167 
0.87966606079 -0.47005315508 -0.072371630433 0.88890019814 -0.4560415803 -0.043387956719 0.897457369 -0.43814050721 -0.051021238466 
0.88310349291 -0.46042507499 -0.090205161358 0.85127696021 -0.51039027044 -0.12177564966 0.83726147207 -0.54016369823 -0.084949434947 
0.84296849496 -0.5378004872 0.01321939781 0.84980400798 -0.51624832108 0.10639933741 0.84559227375 -0.50622209625 0.16944880008 
0.86664681128 -0.46998954074 0.16743098906 0.89711718547 -0.42186776843 0.1311805683 0.87833633463 -0.43850301106 0.19036909561 
0.78869745736 -0.58069363757 0.20186931424 0.6726576892 -0.71766293599 0.18025410803 0.56594559402 -0.76317777267 0.31187380767 
0.47232587515 -0.73750755137 0.48269128783 0.38106785536 -0.6865044965 0.61927285254 0.19695577567 -0.63394942924 0.74787468442 
-0.01245040815 -0.5856102513 0.81049714429 -0.13387777535 -0.65142869579 0.7468047908 -0.17509099132 -0.68298504871 0.70913649461 
-0.15490943505 -0.68564919717 0.71125821285 -0.062015966095 -0.67284402283 0.73718039915 -0.062015966095 -0.67284402283 0.73718039915 

FrenetNormal 3 93 double
0.75418717593 -0.48177487189 0.44620026499 0.75418717593 -0.48177487189 0.44620026499 0.56797688927 -0.33009133931 0.7539509009 
-0.59678639118 0.2510353812 -0.76212022719 -0.61072616405 -0.34290398121 -0.71374394023 0.60852341949 -0.5342859963 0.58671775334 
-0.59722426537 -0.34752449724 -0.72287613094 -0.091392443641 -0.9780848326 0.1870761382 -0.26874487638 -0.78758428571 0.55451526968 
-0.76118809163 -0.61778298372 0.19732428688 -0.7257860244 -0.077520073928 -0.68353879548 -0.94305382291 -0.094149463003 -0.31903818847 
-0.8733513075 0.17455182603 -0.45474075441 -0.93040212096 -0.13515928306 0.34071081803 0.10116105473 0.51077100734 -0.85374435229 
-0.95562685056 0.28698020185 -0.066480720861 -0.91803709393 0.34514578939 0.195146812 -0.63043419114 -0.013464553216 0.77612591533 
-0.13061961457 0.63401197063 -0.76221213411 -0.47155486907 0.85531124803 -0.21465943827 -0.41439242731 0.90949422986 -0.03315361286 
-0.022544494937 0.98759158028 -0.15541755469 0.4430856346 0.87966156135 -0.17283129893 0.52052313336 0.76202155996 0.38519970118 
0.76421321799 0.48705199422 0.42279842995 0.63033549065 0.20466687398 0.74885822418 0.72189057503 -0.0637433358 0.68906515282 
0.68576476589 -0.24731507008 0.68451584494 -0.48751334293 0.031493809688 0.87254735139 0.66268807234 -0.47451459191 0.57937934106 
-0.44683189527 -0.1359304622 0.88423083344 0.12351216442 -0.48903251604 0.86347666066 -0.7076247508 0.55654820131 -0.4353404549 
-0.65798003606 0.48027793436 -0.57999601543 0.9463142117 -0.27262384415 -0.17368261953 -0.77153084988 0.38204479729 -0.50870612396 
-0.86421311012 0.26695658728 -0.42646205083 -0.67023688253 0.069758731417 -0.73886144891 -0.0014181597342 -0.15263059403 -0.98828229297 
-0.11502538956 -0.30987661216 -0.94379322152 -0.41945823005 -0.52676415596 -0.73930664628 -0.43088410879 -0.70422786679 -0.56427120822 
-0.69867504648 -0.66499011351 -0.26389643493 0.32525793877 -0.77006685841 -0.5488208331 0.1925013115 -0.93898357688 -0.28504927193 
-0.24901857043 -0.96844176849 -0.010502029478 -0.36283099841 -0.92523926213 0.11084211478 0.89611912602 -0.41168921338 -0.16577847738 
0.99880879883 0.0039038468779 -0.048638907847 -0.094144935519 -0.9870666182 0.12975446948 0.063543408964 0.99092131818 -0.11847859031 
0.24859394888 0.96859876846 -0.004180228977 -0.87339492395 0.47562237734 0.10471227715 -0.92422577819 0.29133315879 0.24684347574 
-0.4606801138 0.77992316979 0.42366694699 0.54091229061 0.80147601861 0.25504918242 0.92582574717 0.36861373756 -0.08349010937 
-0.15639589372 -0.84567627595 -0.5102665585 0.31883328972 -0.78131335733 -0.53655826433 -0.37589631844 0.70437869568 0.60212341829 
-0.83500168043 -0.020499633378 0.54986540054 -0.64837274246 0.031048580668 0.76068966896 -0.50507556847 -0.021051758504 0.86281834334 
-0.54223266221 -0.36006721878 0.75916752959 -0.15901557466 -0.078820383755 0.98412468423 0.25339972048 0.35832105867 -0.89855139006 
-0.24781371727 -0.38505207722 0.88900127073 -0.35736774285 -0.72185243281 0.59263594357 0.37491393438 0.60294400147 0.70420030737 
-0.20103092608 -0.22959240029 -0.95229926834 -0.45223757854 -0.88868320171 0.075652756467 -0.37476223552 -0.81837264295 0.4356827792 
0.43864931556 0.74201721406 0.50694894416 0.50992693111 0.74998308498 0.42130736662 -0.0017587866003 0.15269548894 -0.9882717209 
-0.11400355743 -0.20260046869 -0.97260281666 -0.026161660143 -0.24291997242 -0.96969348484 0.1647801703 -0.054405371352 -0.98482869122 
-0.48903866868 -0.73375208137 0.47164506106 -0.089298863336 0.11764425075 0.98903263003 0.30707341501 0.21233389343 -0.92769619784 
0.53888951544 0.81104393244 0.22760894051 0.72343033799 0.58663344471 -0.36401888362 0.52294855243 0.039861212071 -0.85143167388 
0.35713008878 -0.34053485466 -0.86976670001 0.68861003631 -0.23620467706 -0.68558264887 0.84474387862 -0.27743781847 -0.45764182109 
0.91786544328 0.31487785412 0.24160911615 0.55865268645 0.57282449115 0.59981603701 0.76849573197 0.35542172641 0.5320617505 
-0.93483759896 -0.13110229886 -0.32998613729 -0.97117521972 -0.12964228167 -0.20002892643 -0.97117521972 -0.12964228167 -0.20002892643 

FrenetBinormal 3 93 double
0.23367746436 0.83192649149 0.50328238138 0.23367746436 0.83192649149 0.50328238138 0.085164466134 0.93470481349 0.34507089902 
-0.044905681146 -0.95876111313 -0.28064320364 0.32358768787 -0.93075053148 0.17027758634 0.34559575393 0.84400647188 0.41014223177 
0.19381786633 -0.9370789659 0.29037500988 0.63530504031 0.08739675807 0.76730001462 0.66509109835 0.26469065058 0.698278376 
0.35262201612 -0.1388962561 0.92540020736 -0.55736029452 -0.51614115514 0.65034437805 -0.23964442854 -0.47287033786 0.8479175617 
-0.48088152209 -0.45757357378 0.74791669743 0.36170385226 -0.48905714772 0.7937212543 -0.99059807706 0.13115395502 -0.038911306971 
-0.21489683819 -0.52478745724 0.82366101866 -0.047600421627 -0.58456055387 0.80995256572 0.55752875452 -0.70354473702 0.44066596294 
-0.77853295801 0.41042071549 0.47480656018 -0.57203013613 -0.11142747267 0.81262872315 -0.52269036037 -0.20801561628 0.82675527852 
-0.59950194842 0.11105138336 0.79263169511 -0.54340670073 0.41687454297 0.72864584883 -0.7119983151 0.13836164072 0.68841445052 
-0.58816192175 0.25728226588 0.76672771534 -0.77632207822 0.16754034663 0.60766295191 -0.67130689654 0.17722036902 0.71968047873 
-0.66319240896 0.17512068363 0.72767339849 -0.80224755429 0.37823166502 -0.46188707408 -0.63611447344 0.051628909538 0.76986546382 
-0.78544286038 0.53277470486 -0.31500893151 -0.90177009714 0.3078740295 0.3033550294 0.58884765303 0.12394983771 -0.79868321583 
0.68124770945 0.051448212593 -0.73024286356 0.068007503016 -0.35736545683 0.93148532452 0.57212906453 0.06697195803 -0.81742466953 
0.46564831173 0.10337674312 -0.87891120073 0.74110572955 0.010185433336 -0.6713110714 0.99827818661 0.057736919402 -0.010349409583 
0.99097058415 0.03009861709 -0.13065747047 0.89690660608 -0.11484475714 -0.42704709545 0.86932483685 -0.15617263838 -0.46891836715 
0.64948924398 -0.43485933223 -0.62374761172 0.90460536928 0.42246707984 -0.056662971339 0.95901263528 0.24157115614 -0.14811529932 
0.94800577814 -0.24151626399 -0.20725573294 0.90501740127 -0.37822094333 -0.1946597581 0.39452284219 0.91002261879 -0.12732069856 
-0.0072983666686 0.99753364751 -0.069809425839 0.99543614704 -0.095373741607 -0.0032751451198 -0.99783794216 0.065081617429 0.0091555587409 
-0.96860688768 0.24859728949 0.00029121001714 -0.481824592 -0.87518146458 -0.043617274188 -0.31858296117 -0.9446906476 -0.077874753271 
-0.81697531617 -0.55916615706 0.14101255821 -0.76225621922 0.33896694618 0.55142258356 -0.23733826856 0.73893594141 0.63059037479 
0.94687160548 0.01861904409 -0.32107241228 0.90652948402 0.41662953811 -0.068000901284 -0.87414485327 -0.48517341019 0.021852632387 
-0.31585072075 -0.80041911259 -0.50947773886 -0.47200519021 -0.80035835941 -0.36964523119 -0.50803515586 -0.80090759811 -0.31693421981 
-0.32858665504 -0.74069915016 -0.58599964085 -0.50376897586 -0.85079624144 -0.14954121342 0.4548750155 0.77563471651 0.43758371407 
-0.44863703402 -0.7676940788 -0.45757033675 -0.30874461613 -0.50755786194 -0.80440150348 -0.2755808004 -0.65278468267 0.70563969596 
0.43101529932 0.85225428197 -0.29645986342 -0.073058950906 -0.047626085728 -0.99618981407 -0.23264465963 -0.37188588735 -0.89865307496 
-0.16647822311 -0.48725681561 0.85724313755 -0.12370150338 -0.42074593768 0.89870506507 0.54679990312 0.82759124378 0.12689601717 
0.52574452484 0.81836647418 -0.2320969809 0.52644915762 0.82126582662 -0.21994027931 0.50776096941 0.86068533439 0.037410601565 
-0.098815408931 -0.49062991621 -0.86574696088 -0.43267362821 -0.89899244503 0.067868366917 0.36637576484 0.87328656636 0.32115319078 
-0.29589594607 -0.070729335718 0.9525980003 0.15549977245 0.37526139138 0.91378263767 0.63736206047 0.6449579607 0.42166198881 
0.80583271673 0.58319690023 0.10254271405 0.61693071532 0.68769101115 0.38272387654 0.49761049222 0.72189776149 0.48088191897 
-0.3966963768 0.74693545273 0.5335910551 -0.81852545299 0.49750653929 0.2872339224 -0.61543273776 0.63812758883 0.46263995252 
0.3195023169 -0.71602888604 -0.62066166616 0.23015801649 -0.72833632324 -0.64540955036 0.23015801649 -0.72833632324 -0.64540955036 

SiphonLabel 1 93 int
0 0 0 0 0 0 0 0 0 
0 0 0 0 0 0 0 0 0 
0 1 1 1 1 1 1 1 1 
1 1 1 1 1 1 1 1 1 
1 1 1 1 1 1 1 1 1 
1 1 0 0 0 0 0 0 0 
0 0 0 0 0 0 0 0 0 
0 0 0 0 0 0 0 0 0 
0 0 0 0 0 0 0 0 0 
0 0 0 0 0 0 0 0 0 
0 0 0 
