# vtk DataFile Version 5.1
vtk output
ASCII
DATASET POLYDATA
POINTS 114 float
113.389 87.7724 39.8904 112.946 87.3986 39.5098 112.437 86.9027 39.0752 
111.933 86.4656 38.5801 111.616 86.1179 38.2378 111.166 85.3682 37.8149 
110.82 84.5974 37.5185 110.644 83.9992 37.2445 110.494 83.2104 36.816 
110.386 82.3583 36.3563 110.356 81.8924 36.1025 110.396 81.1827 35.6051 
110.428 80.7891 35.212 110.627 80.1772 34.6511 110.933 79.5079 34.0768 
111.297 78.8175 33.4806 111.623 78.2692 32.9154 112.042 77.7734 32.4887 
112.587 77.3795 32.0987 113.321 76.9959 31.6057 113.99 76.6691 31.1283 
114.724 76.3021 30.5877 115.403 76.1845 29.8848 115.662 76.2161 29.5282 
116.064 76.463 29.1335 116.416 76.8815 28.54 116.585 77.2674 28.1334 
116.52 77.8318 27.6198 116.347 78.3723 27.1336 115.901 79.0381 26.7362 
115.452 79.656 26.5873 115.032 80.1355 26.6275 114.538 80.5003 26.8051 
113.82 80.8902 27.1658 113.114 81.2334 27.5532 112.786 81.4684 27.7644 
112.077 81.8223 28.1997 111.452 82.2116 28.7582 111.098 82.3954 29.2591 
110.814 82.6363 29.6502 110.434 83.1378 30.3168 110.142 83.8034 30.9429 
110.068 84.4014 31.2778 110.059 84.8715 31.4692 110.113 85.5418 31.6379 
110.164 86.2863 31.7076 110.352 87.0156 31.6123 110.532 87.9325 31.3137 
110.607 88.559 31.1119 110.678 89.3419 30.7378 110.75 90.1019 30.1552 
110.839 90.6731 29.4903 110.935 91.0626 28.8277 111.061 91.3364 28.1377 
111.075 91.6601 27.222 111.104 91.8601 26.3142 111.11 92.051 25.7232 
111.177 92.2078 25.0713 111.247 92.3459 24.2876 111.257 92.4124 23.5278 
111.248 92.5402 22.886 111.282 92.6654 22.1371 111.477 92.8212 21.2611 
111.742 93.0165 20.4237 111.921 93.1204 19.7732 112.26 93.3276 18.9522 
112.647 93.5025 18.3869 113.097 93.691 17.9323 113.658 93.8341 17.4759 
114.058 93.9884 17.1951 114.701 94.2109 16.9034 115.499 94.4706 16.647 
115.933 94.6624 16.5486 116.493 94.9184 16.4882 117.048 95.1649 16.4646 
117.909 95.6253 16.5166 118.548 95.9748 16.5457 119.346 96.4568 16.6004 
119.76 96.621 16.6853 120.608 96.9688 16.9328 121.352 97.306 17.2009 
121.982 97.6118 17.4754 122.404 97.8141 17.7465 122.922 98.1249 17.9639 
123.468 98.5214 18.1469 124.219 99.0544 18.3993 124.882 99.5065 18.4634 
125.702 99.842 18.4968 126.214 100.052 18.5292 126.751 100.326 18.5082 
127.378 100.687 18.3577 127.814 100.948 18.1931 128.32 101.367 17.8828 
128.721 101.777 17.5628 129.055 102.109 17.2285 129.441 102.722 16.7707 
129.736 103.336 16.3621 130.034 104.005 15.8153 130.174 104.65 15.2376 
130.163 105.164 14.6433 130.079 105.694 13.8272 129.938 106.137 13.0278 
129.841 106.494 12.4363 129.738 106.978 11.5846 129.667 107.362 10.7381 
129.526 107.508 9.96308 129.395 107.575 9.21333 129.279 107.658 8.73862 
129.049 107.837 7.86565 128.864 108 6.99898 128.79 108.068 6.65975 
128.612 108.169 5.86654 128.406 108.301 5.00978 128.147 108.46 4.21799 

LINES 2 114
OFFSETS vtktypeint64
0 114 
CONNECTIVITY vtktypeint64
113 112 111 110 109 108 107 106 105 
104 103 102 101 100 99 98 97 96 
95 94 93 92 91 90 89 88 87 
86 85 84 83 82 81 80 79 78 
77 76 75 74 73 72 71 70 69 
68 67 66 65 64 63 62 61 60 
59 58 57 56 55 54 53 52 51 
50 49 48 47 46 45 44 43 42 
41 40 39 38 37 36 35 34 33 
32 31 30 29 28 27 26 25 24 
23 22 21 20 19 18 17 16 15 
14 13 12 11 10 9 8 7 6 
5 4 3 2 1 0 
CELL_DATA 1
FIELD FieldData 2
Length 1 1 double
87.266434834 
Tortuosity 1 1 double
0.99246562093 
POINT_DATA 114
FIELD FieldData 7
MaximumInscribedSphereRadius 1 114 double
1.7410644168 1.7075376269 1.6794656277 1.694041265 1.6915707135 1.6949901817 1.6350401302 1.593561337 1.5200288403 
1.4214518058 1.4222293541 1.4942926964 1.520826933 1.5599184435 1.6656429272 1.9171077006 2.1352474956 2.2280619444 
2.2384985481 2.2442429224 2.2729277368 2.3337415295 2.3847272241 2.4069158335 2.3645017144 2.2899911568 2.2511769565 
2.1539617365 2.1882156173 2.2263944786 2.2698114425 2.2778899159 2.2146115567 2.1745760222 2.18278885 2.2228684957 
2.3255522115 2.3674061942 2.308639976 2.2836520699 2.2792778268 2.3423034041 2.3197369065 2.326388028 2.3303559083 
2.3428799254 2.3101119779 2.2312678349 2.2712822295 2.331390643 2.414426335 2.4905019789 2.5012629385 2.4932703194 
2.4426406099 2.4431760411 2.4424617736 2.3886550596 2.3229194962 2.3071739919 2.3084020741 2.3291234291 2.349722439 
2.344802762 2.2811561239 2.2332738497 2.2088658731 2.216978295 2.2063690372 2.2207510281 2.2312600516 2.2161674586 
2.1795118291 2.131454743 2.0899706122 2.0482139213 2.0766607176 2.1527586277 2.1595053347 2.1879933806 2.2360410097 
2.2281684717 2.1997147647 2.1451790709 2.1161854388 2.0952513902 2.0962177204 2.0415368668 2.0377725036 2.0131292937 
1.9670327738 1.946590713 1.9114808073 1.9448488864 1.968813646 1.9871591702 2.0066199125 1.9439921187 1.826102534 
1.7517577845 1.7915443467 1.8563267266 1.8821599898 1.9316554835 2.0529154434 2.0748077172 2.1061402233 2.1198225683 
2.1204521002 2.1409651697 2.1650333662 2.2060405342 2.1688006082 2.0713378851 
Curvature 1 114 double
0 0.089944172674 0.12225260349 0.13454977075 0.3213183689 0.16949183402 0.18680955917 0.14801862563 0.057912126306 
0.073416579318 0.21806300112 0.24503109519 0.26225077604 0.1162124893 0.04798767008 0.090439774339 0.23940962979 0.27851317246 
0.14422581271 0.043894581103 0.015109653304 0.32028934147 0.33589592202 0.7350766287 0.3783800036 0.30139695011 0.58494809565 
0.19928993144 0.42353267189 0.32809920234 0.38857604059 0.48472124002 0.2459066434 0.066842808795 0.23059612318 0.20899228582 
0.18418697225 0.3301039609 0.29247964776 0.20885138776 0.2132315838 0.38570457634 0.25767497953 0.28330375493 0.21335346352 
0.38486626052 0.22208828417 0.08649808869 0.17987337361 0.22896351702 0.22795188025 0.21698783277 0.20829594875 0.18473415657 
0.1311312381 0.12714319896 0.18534398064 0.085105770055 0.14708620219 0.15962900362 0.094143970937 0.20714566502 0.10794238292 
0.09601952631 0.18012726598 0.25377580731 0.25975171792 0.19842536286 0.20900480061 0.28525654089 0.13653730694 0.198731368 
0.19508175909 0.09790200183 0.14873739858 0.019082170662 0.056432878993 0.30429339811 0.10817328641 0.070971559088 0.076251789703 
0.23604587462 0.3384713671 0.17406125995 0.013145442434 0.21599651079 0.2553745207 0.028553537142 0.21675359306 0.26660941941 
0.17136269386 0.30697906663 0.16552934124 0.17561501199 0.27379784882 0.12130697618 0.1219638458 0.19866832817 0.2616355788 
0.17792467349 0.099786468228 0.046292302048 0.050372332896 0.10107318377 0.30117339768 0.12359596439 0.165946222 0.046338470032 
0.053260800126 0.017578844865 0.11806360243 0.033965916116 0.10100253532 0 
Torsion 1 114 double
0 0 0.30907656766 1.5016809715 0.13257297617 -0.66084371091 -0.66870083272 -0.012342835799 0.73146044543 
-1.4173823061 -0.66720342944 0.34780682113 0.67452737817 -8.0054393834e-05 -1.4175751705 1.096759258 -0.22239309316 -0.49731319647 
-0.61978187016 -1.5883105466 9.078987411 -0.031834436814 1.22659305 -0.1065010635 -1.0151187458 -0.14055880547 -0.22474338016 
0.3575846589 0.38630103232 0.23759595005 -0.47787744043 -0.23704058214 0.055426398231 1.719630679 -0.014676044605 0.36600661383 
-0.056495348614 0.19776875434 0.30853548685 -0.36402841429 0.21006616258 0.036347901178 0.14720160971 0.41229677204 -0.29744658544 
0.063734719297 1.0354514964 0.22787318434 -0.48773567197 -0.19002272731 -0.10479065405 -0.11158929469 0.46128725837 0.24242844492 
-0.68766087264 0.62487921139 0.63389887425 1.8500049846 0.74121061156 0.84165203459 0.094280871127 -0.28884489182 -0.23280596463 
-0.17209532634 0.20452367816 0.084136661296 0.32455449481 -0.018197950975 0.15710718429 0.48847386764 -0.75403271459 0.038042368534 
0.72377679279 -0.45493917792 -0.39306632791 -2.666729592 3.0312048014 -0.10622280729 -1.9191482341 -0.24491560128 0.91985853001 
-0.35019550121 -0.073309584743 0.53800642638 5.6345433116 -0.60688495403 -0.5467191372 -9.5346762262 -0.53465934987 -0.33760743005 
0.67779923581 0.2981011201 -0.60572509275 0.52330988215 0.38994928882 -0.77798249889 0.10489721138 -0.024873454069 -0.35455365382 
-0.27536909418 0.35706373425 1.1780738092 1.2410598189 1.1781809641 0.031191887095 -0.1537269033 0.36215579069 0.83837328826 
0.18484243166 -4.6338746044 0.070007374302 0.18550762495 0 0 
FrenetTangent 3 114 double
0.62393484309 0.57015304805 0.53444439691 0.62393484309 0.57015304805 0.53444439691 0.60968494558 0.5614747147 0.55949120805 
0.58213694435 0.556002456 0.59327720919 0.49731792302 0.71165359151 0.49620968264 0.42747252379 0.81720819029 0.38657213445 
0.33216242144 0.87066478344 0.36278224965 0.20549291882 0.87306035859 0.44219709472 0.13683883461 0.87115013462 0.4715639684 
0.091400362235 0.87571695295 0.47409470794 -0.0074697369421 0.8426366357 0.53843077848 -0.050362061103 0.77717511666 0.62726589326 
-0.16393852362 0.7156203534 0.67897840191 -0.28292038191 0.71788524804 0.63607926247 -0.34989280936 0.70996808508 0.61116310435 
-0.37673924323 0.6757514599 0.63358307037 -0.45955760064 0.6439104147 0.61170760134 -0.62363740984 0.57588181459 0.52861755237 
-0.73600128771 0.44737376215 0.50809331962 -0.75922252723 0.38444610286 0.52514983399 -0.75140805494 0.37161780077 0.54523953004 
-0.72714134925 0.24926781883 0.63963349873 -0.66162286358 0.060642169785 0.74738056814 -0.63616686844 -0.26813851298 0.72345936538 
-0.53471810252 -0.47196703577 0.70094483948 -0.37596924344 -0.58077096159 0.72204724095 -0.078930315777 -0.71617375165 0.69344441933 
0.15736189769 -0.73226221797 0.66259284428 0.38259087053 -0.74533046139 0.54599151011 0.53994157357 -0.77447443689 0.32962470135 
0.61913894405 -0.78145749247 0.07740255434 0.72348210892 -0.66845412278 -0.17246078917 0.7941737982 -0.4947331044 -0.35288402296 
0.80560391697 -0.41468638986 -0.42312826309 0.7790150258 -0.43558651377 -0.45099886762 0.76462197275 -0.4339582219 -0.47648032534 
0.7321556421 -0.40791869625 -0.54548185396 0.63055928681 -0.36928474059 -0.68265933392 0.54300394669 -0.36102340435 -0.75816147053 
0.45708923052 -0.51101888067 -0.72796231973 0.35960886181 -0.62528622284 -0.69260277652 0.22467611208 -0.77560207661 -0.58988309301 
0.069556888618 -0.89484342759 -0.44092752166 -0.037935254529 -0.95288820659 -0.30094016381 -0.073049626848 -0.98345990296 -0.1657418815 
-0.15981658781 -0.98699695689 0.017194922058 -0.21220707601 -0.95039083966 0.22743220698 -0.15532398994 -0.93971989389 0.30463253137 
-0.095477879008 -0.9214812539 0.37650534302 -0.078404803847 -0.84726123076 0.52535806226 -0.088086151959 -0.72682530815 0.68115035144 
-0.11238642784 -0.58256453682 0.80497692593 -0.14557902116 -0.43565484059 0.88826325403 -0.081120573323 -0.34761204311 0.93412275428 
-0.022687511978 -0.27592485328 0.96091141743 -0.022513487617 -0.25228204529 0.9673918092 -0.056708175529 -0.26896990404 0.9614777031 
-0.093544032513 -0.20034562141 0.97524927376 -0.051277157958 -0.13123683384 0.9900240131 -0.0004475279752 -0.13728325032 0.99053173039 
-0.017188265736 -0.1789846221 0.98370171728 -0.13764298684 -0.16879550464 0.97599307671 -0.25462731042 -0.1941152537 0.94735642768 
-0.28080974317 -0.18921198065 0.94092758197 -0.32560262976 -0.19559083833 0.92505521535 -0.45069237073 -0.23721523559 0.86058428929 
-0.61153861977 -0.26557098513 0.74531373822 -0.72171743597 -0.23671787208 0.65045260523 -0.77048076637 -0.23846728436 0.5911791124 
-0.83561526122 -0.30204007415 0.4588234179 -0.8920939064 -0.2984460301 0.33926159418 -0.9064411218 -0.33207197952 0.26094576664 
-0.90218640559 -0.40655707861 0.14412158548 -0.90959558723 -0.40980644201 0.068516770002 -0.8946127562 -0.44648239647 -0.017930032995 
-0.8789580431 -0.47452809708 -0.04749572147 -0.864435695 -0.50021155507 -0.050391759077 -0.87782196409 -0.46818092726 -0.10116925775 
-0.90024753254 -0.36517360442 -0.23707091511 -0.88046213457 -0.37881269916 -0.28510939751 -0.85277374278 -0.39916091343 -0.33681969779 
-0.81581767538 -0.39415178685 -0.4231854079 -0.79864590502 -0.43583714595 -0.41498277145 -0.79473193069 -0.52816703192 -0.29906645537 
-0.78403190683 -0.56211083913 -0.2632971204 -0.80697078552 -0.56228507134 -0.18064786152 -0.88172071677 -0.46819188636 -0.05800806125 
-0.9245341091 -0.37835852076 -0.045623578134 -0.90795323746 -0.41895631973 -0.0098244976417 -0.87029477181 -0.47553289009 0.12827891721 
-0.83607517423 -0.489442203 0.24783993415 -0.75050847847 -0.54175592376 0.37846736031 -0.65663689776 -0.60019658353 0.45671878177 
-0.59655835879 -0.6019620344 0.53081054407 -0.50421212163 -0.66184386467 0.55473672602 -0.4128942496 -0.74393142767 0.5254373127 
-0.34764116681 -0.75206736112 0.559946697 -0.24580851676 -0.73642062697 0.63028789712 -0.07847381983 -0.70106447284 0.70876686189 
0.054425196239 -0.59404476517 0.80258875832 0.11861638249 -0.51231190843 0.8505684348 0.14641559175 -0.49316014948 0.85752874089 
0.11916612904 -0.49994630726 0.85781881744 0.090703001208 -0.45320025874 0.88678209897 0.12316496021 -0.30802780663 0.94337122222 
0.1742895667 -0.13624332247 0.9752235149 0.19630543909 -0.11900221289 0.97329473846 0.24417418919 -0.18519991468 0.95188232305 
0.22765658715 -0.18819566512 0.95538205445 0.2062827486 -0.18416973407 0.96100412938 0.2157306208 -0.14364689584 0.9658291094 
0.22502068193 -0.13617677074 0.96479095135 0.26726677702 -0.16740625421 0.94896976556 0.26726677702 -0.16740625421 0.94896976556 

FrenetNormal 3 114 double
0.41270407065 -0.82114610966 0.39420098511 0.41270407065 -0.82114610966 0.39420098511 0.036972768323 0.68494144979 -0.72765941536 
0.64832518406 -0.75775895512 0.073998794887 0.34889832852 -0.6877217448 0.63663864011 0.48787257432 -0.56853379569 0.66238181918 
0.86318509594 -0.12554343784 -0.48902999434 0.80721136476 0.10426724522 -0.58098033889 0.98924999129 -0.14495914885 -0.019269143784 
0.99315978645 -0.045424661377 -0.10756504415 0.67266717545 0.4026453766 -0.62080236129 0.059416678089 0.62928193666 -0.77490251165 
0.95989169811 -0.042974164847 0.27705802472 0.91384334704 0.00035418622128 0.40606675759 0.93486138726 0.30646738618 0.17919801287 
0.14878499902 0.71924195112 -0.67864131897 0.81030819607 0.022011105228 0.58559041883 0.7564606537 0.61507944484 0.22236131845 
0.48068541169 0.87383986255 -0.07311244491 -0.13459029105 0.69670601989 -0.70461775127 -0.6489745395 -0.26689777015 -0.71245886012 
-0.18567118868 0.82561050684 -0.53281657321 -0.41104934391 0.80428515202 -0.42914313592 0.16139459631 0.87067638803 0.4646228703 
-0.83272914766 0.43532348931 -0.34213393036 -0.70359696228 0.68598608618 0.18540335552 -0.97923190615 0.1860121769 0.080649513437 
-0.98687254915 -0.091922330697 0.13278876782 -0.78370304017 0.05117741942 0.6190237609 -0.29623896924 0.19170492032 0.93567713268 
-0.30780512185 -0.1508216076 0.93941942158 -0.37808797389 -0.59269417418 0.71117023271 -0.15687528607 -0.72792149573 0.667473176 
-0.043847917581 -0.75396973516 0.65544412316 0.54765418644 0.82293836962 0.15115333896 -0.4371997686 -0.89245995576 0.11122764812 
0.65037883743 0.18073238351 0.73779615977 0.46800852617 -0.52075291659 0.71399189022 0.15116705684 0.93013914085 -0.33464862109 
0.75194147333 0.65916251469 0.0094233709892 0.55707271407 0.73933076205 -0.37823275312 0.62581849266 0.57886386044 -0.52275027051 
0.59231082655 0.39270005735 -0.70353006312 0.56122203054 0.22885822447 -0.79539533914 -0.064152001709 0.17047521463 -0.98327143855 
0.62913866642 -0.11526329641 -0.76869949324 -0.33482012901 -0.147935459 -0.93059689511 -0.98685623661 0.16152631348 -0.0049008488617 
-0.23324575177 -0.34699342718 -0.90840078202 -0.032533857813 -0.52452505351 -0.85077318736 0.1291944805 -0.68636872647 -0.71568621444 
0.12519125841 -0.81195543913 -0.5701363992 0.27441755299 -0.88038058238 -0.38681395629 -0.96805116416 -0.19562777159 -0.15686528793 
0.14198749598 -0.95230505305 -0.27010116054 -0.23233821746 0.94246440811 0.24037427514 0.76855243832 -0.62645673917 -0.129919604 
-0.21223079042 -0.95301813298 -0.21613544321 -0.64799790811 -0.74994435104 -0.13297436379 -0.24574840234 0.96017092478 0.13296434843 
0.88548474175 -0.4596422616 -0.068159837754 0.9887264904 0.035224190007 0.14553069651 0.82249096119 0.47175828084 0.31773061423 
-0.42793243755 -0.85284603001 -0.2992114269 0.76376693972 0.5223169115 0.37926917321 0.86931357019 0.10249682654 0.48351661527 
0.72126819103 0.20012164217 0.66311652441 0.6194290095 -0.64025869264 0.45428681325 0.15853902149 0.82657131492 0.54004188727 
0.48343827866 -0.0077473203616 0.87534416646 0.36859120774 -0.046359022723 0.92843489949 -0.086151527855 0.75026384674 0.6555013917 
0.083467529004 0.16326084228 0.98304581225 0.13706137561 -0.14027162653 0.9805804659 -0.29064837054 0.55095409875 0.78228709933 
-0.23939677621 0.52516656315 -0.81663288232 -0.47661977393 0.78350054796 0.39869848562 0.31225270179 -0.71950877368 0.62032682904 
-0.27209890822 0.046828690686 0.96112915775 -0.43536492378 0.4078663593 0.80255991433 -0.44952974968 0.23263938562 0.86243951696 
-0.36925753445 -0.20814288898 0.90571817417 0.12975165637 0.54864417547 -0.82592619307 -0.22841165866 0.71675642276 -0.65885381126 
0.51731196943 -0.82614766858 0.22331223875 0.20387531477 0.021854034044 -0.97875290918 0.46988026592 -0.86052242547 -0.19675795018 
-0.050647257306 0.0033310875013 0.99871104889 -0.27323130047 0.60959108869 -0.74413934248 -0.24391248571 0.18984636501 -0.95103367817 
-0.28146352101 -0.0050919859443 -0.95955841824 -0.640569014 0.4555306407 -0.61819347594 -0.74320260406 0.41185956417 -0.52727752534 
-0.29961518716 -0.44653215284 -0.84311314549 -0.66747557185 0.706262783 0.23594330322 -0.78888424958 0.58043452576 0.20188462563 
-0.43812777213 -0.39769311272 -0.80615398243 -0.9390035162 0.019561130352 -0.3433507809 -0.80825168312 -0.37144676843 -0.45689880166 
-0.46918480683 -0.7247347836 -0.50460391446 -0.68595862212 -0.66162297548 -0.30284617721 0.33636350197 0.84003830416 0.4256703444 
0.80837574642 -0.45278402804 -0.37618516259 0.30551935351 -0.83485116356 -0.45790988124 -0.39499499017 -0.88728052423 -0.23814329524 
0.051055029949 -0.98779943111 -0.14712466761 -0.59936510822 0.77101802644 0.21515731443 -0.48355816584 0.82759454085 0.28505925034 
0.92229121446 -0.27303253569 -0.27355465667 -0.41300660387 0.87396593327 0.2561427193 -0.12275531578 -0.9852623975 -0.11911817877 
-0.44619198052 0.86585819085 0.22627927404 -0.83809909948 0.44562656349 0.31465356405 -0.83809909948 0.44562656349 0.31465356405 

FrenetBinormal 3 114 double
0.66361183055 -0.025388351646 -0.7476461529 0.66361183055 -0.025388351646 -0.7476461529 -0.79178108182 0.46432892987 0.396839216 
0.49070462983 0.3415591235 -0.80158987732 0.79432036346 -0.14348507734 -0.5903110983 0.76108317064 -0.094552085563 -0.64172604006 
-0.38023626331 0.47558561805 -0.79324567693 -0.55333757592 0.47633386594 -0.68331806301 0.051571194284 0.46913141881 -0.88162130408 
-0.072660941136 0.48068328289 -0.87387869249 -0.73990747672 0.3575474806 -0.5698216607 -0.996962046 -0.0017556319844 -0.07786909907 
0.22744689133 0.69716621472 -0.67987291509 0.29128404449 0.69616136434 -0.65613486436 -0.060076689071 0.63405288373 -0.77095248366 
-0.91429238577 -0.16140316043 -0.37150834866 0.36360340905 0.7647842108 -0.53188125727 -0.19708795108 0.53855121591 -0.81921848574 
-0.47670078612 0.19042219291 -0.85819330512 -0.63676259916 -0.60564173885 -0.47721219228 -0.11923917998 -0.88919389923 0.44171962547 
-0.66090216213 -0.50619447398 -0.55405368568 -0.62713126478 -0.59114120266 -0.50720652131 -0.75448227267 0.41234010863 -0.51061936414 
-0.14366181638 -0.76664240478 -0.6257960576 -0.60299124592 -0.43832428605 -0.66653835419 -0.18674817061 -0.67267720899 -0.71598218783 
-0.036329119094 -0.67479058178 -0.73711455409 -0.48931970184 -0.66472804594 -0.56453773508 -0.78784869755 -0.60285866514 -0.12592005255 
-0.72244236789 -0.60545605137 -0.33391614956 -0.57760117907 -0.44931358941 -0.68153809601 -0.58709294228 -0.47473092533 -0.65570757634 
-0.59082966165 -0.50947505976 -0.62558410657 0.30530391686 -0.36474214018 0.87963213307 -0.47350776248 0.12326998425 -0.87212092617 
-0.20237461197 -0.89495147511 0.39762592173 -0.61916314914 -0.76970460582 -0.15553718051 0.82601164326 0.067106483896 0.55964406994 
0.47502995277 -0.55169238062 0.68555237665 0.74856626811 -0.24981425863 0.61419978707 0.74690819978 -0.25171024975 0.61544300408 
0.80270151613 -0.21223078256 0.55734044437 0.82679546981 -0.19906777445 0.52610005919 0.99526291637 -0.061194938211 -0.075544072191 
0.76068600399 -0.11203293973 0.63937893596 0.91807605246 -0.27362812694 -0.28681703235 -0.044600744588 -0.30138973286 -0.95245734944 
0.96771917099 -0.17455045173 -0.18180139135 0.99639060354 -0.083796629372 0.013560607522 0.9876991526 0.024958821153 0.15436139804 
0.9857466407 0.036700481062 0.16418475884 0.95052709336 0.18744303145 0.24771627874 0.23726861604 -0.91700362184 -0.32063680601 
0.98960842144 0.13030948271 0.060783311295 -0.97237446263 -0.21935042526 -0.079832921481 0.63726865009 0.73157852939 0.24224269431 
0.97273203174 -0.22719610515 0.046629649628 0.7599140505 -0.64835203693 -0.046586178847 -0.96933354552 -0.24336208495 -0.034166842784 
0.46435044487 0.86988131168 0.16638860521 -0.058943492937 0.98502148913 0.16204422418 -0.50859959846 0.86009499053 0.039535499374 
0.85908073953 -0.48667491766 0.15851753056 -0.55735355859 0.83001763109 -0.020681943925 -0.20290466642 0.96603485059 0.16001988561 
-0.32525791787 0.9430924558 0.069165791198 0.3089201269 0.73077592704 0.60871577904 -0.61743401859 0.50981684518 -0.59905093026 
-0.26083436494 0.95326374768 0.15249151266 -0.26135987401 0.95329995706 0.15136118436 -0.41345181939 0.57169254036 -0.70867851128 
-0.423193645 0.8989200405 -0.11335739772 -0.39223723306 0.90132266746 0.18375908718 -0.33939879367 0.70505535294 -0.62265994583 
0.41245841247 -0.70641571757 -0.57519987131 -0.15995161865 0.36866691133 -0.91569655901 -0.3632173586 0.51294614137 0.77779136435 
-0.33987727829 0.92976088989 -0.14152075232 -0.18773335542 0.83075024641 -0.52403264722 -0.26589461781 0.88687624923 -0.37782346509 
-0.44507347011 0.89516529573 0.024263130819 0.58764719523 -0.71346727391 -0.38162183246 0.56234266468 -0.45530189635 -0.69026872351 
-0.34304853208 0.038877168461 0.93851279715 0.55428603387 -0.82665464358 0.097000478888 0.042203238288 -0.20074240411 0.97873457785 
-0.37771885899 0.92565313894 -0.02224252537 0.3177508065 -0.67295936486 -0.66795218258 0.42789450741 -0.85896846748 -0.28121070818 
0.47091038359 -0.87202087223 -0.13350284275 0.16250649849 -0.70639390885 -0.68891166595 0.12836617087 -0.68566446643 -0.71650985035 
0.74454607928 -0.66200509486 0.086025520648 -0.5479475316 -0.25130773993 -0.79787086829 -0.45517027518 -0.33115221913 -0.82653386401 
0.82896904311 -0.52558050995 -0.19124709968 0.24052145363 -0.67624109779 -0.69630985057 0.58358467795 -0.6087166033 -0.53748769337 
0.88142130395 -0.34909928447 -0.31816061121 0.71790732169 -0.54753223357 -0.42990409473 -0.93028063993 0.22611659495 0.28887578031 
0.57647904237 0.73826845647 0.35018794939 0.9478559438 0.31246289409 0.062737943962 0.91038966949 -0.34329599717 -0.23095131091 
0.98336998676 0.075432360329 -0.16520722793 -0.77603198493 -0.62559545733 0.08002925802 -0.84056556293 -0.52989458156 0.11252229493 
0.31233218543 0.94341699481 0.11141355328 -0.8870586073 -0.44973887595 0.10422077849 0.96870606052 -0.092863218656 -0.23018468873 
-0.86618612851 -0.48139950192 0.13407501753 -0.47556111001 -0.87942714989 -0.021201855526 -0.47556111001 -0.87942714989 -0.021201855526 

SiphonLabel 1 114 int
0 0 0 0 0 0 0 0 0 
0 0 0 0 0 0 0 0 0 
0 0 0 1 1 1 1 1 1 
1 1 1 1 1 1 1 1 1 
1 1 1 1 1 1 1 1 1 
1 1 1 1 1 1 1 1 1 
1 1 1 1 0 0 0 0 0 
0 0 0 0 0 0 0 0 0 
0 0 0 0 0 0 0 0 0 
0 0 0 0 0 0 0 0 0 
0 0 0 0 0 0 0 0 0 
0 0 0 0 0 0 0 0 0 
0 0 0 0 0 0 
