# vtk DataFile Version 5.1
vtk output
ASCII
DATASET POLYDATA
POINTS 78 float
104.484 72.3473 30.8245 103.904 71.9499 30.8153 103.304 71.4897 30.6758 
102.831 70.9431 30.4161 102.424 70.4691 30.0344 102.043 70.0228 29.5011 
101.74 69.4951 28.973 101.443 68.8157 28.4463 101.319 68.2602 27.9125 
101.35 67.819 27.397 101.457 67.3783 26.9091 101.558 67.1076 26.6053 
101.819 66.3667 26.0137 102.129 65.8438 25.6329 102.648 65.2149 25.2198 
103.3 64.6319 24.7705 103.81 64.5534 24.5743 104.436 64.67 24.324 
105.119 65.164 23.8445 105.77 65.7112 23.4718 105.951 66.5696 23.2349 
105.83 67.0399 23.2529 105.548 67.7857 23.1567 105.277 68.4174 23.0791 
104.947 69.2594 23.0365 104.63 70.2012 23.0723 104.269 71.0766 23.0843 
103.943 71.8895 23.02 103.878 72.6606 22.927 103.701 73.4952 22.7145 
103.632 74.4163 22.3902 103.741 75.3242 22.1008 103.816 75.8727 21.8628 
103.828 76.5179 21.4405 103.828 77.0476 20.8265 103.853 77.5522 20.0955 
103.906 77.864 19.6237 103.964 78.1021 19.2483 104.048 78.3881 18.6632 
104.092 78.6634 18.0769 104.173 78.9377 17.4363 104.342 79.2428 16.5671 
104.513 79.4767 15.6522 104.662 79.6764 14.787 104.718 79.8926 13.9948 
104.769 80.1047 13.0404 104.827 80.3052 12.2798 104.918 80.4756 11.5843 
105.117 80.7112 10.7724 105.49 80.9153 9.91238 105.833 81.1735 9.14396 
105.944 81.2583 8.91702 106.258 81.5393 8.2229 106.642 81.9229 7.43141 
106.967 82.0869 6.92408 107.314 82.1983 6.49913 107.778 82.34 6.02636 
108.464 82.5698 5.36377 108.889 82.7241 5.02712 109.518 82.9377 4.58712 
110.337 83.1859 4.09986 110.771 83.3247 3.90716 111.655 83.5515 3.68012 
112.373 83.737 3.58269 113.201 84.0345 3.57666 113.995 84.3907 3.59974 
114.717 84.8022 3.65038 115.15 85.0019 3.7276 115.817 85.3097 3.95321 
116.648 85.7803 4.19803 117.38 86.3706 4.38284 117.977 86.9031 4.59602 
118.426 87.3453 4.73016 118.937 88.0107 4.85914 119.39 88.7953 4.81467 
119.783 89.5352 4.55654 120.056 90.2134 4.15619 120.1 90.4281 3.94649 

LINES 2 78
OFFSETS vtktypeint64
0 78 
CONNECTIVITY vtktypeint64
77 76 75 74 73 72 71 70 69 
68 67 66 65 64 63 62 61 60 
59 58 57 56 55 54 53 52 51 
50 49 48 47 46 45 44 43 42 
41 40 39 38 37 36 35 34 33 
32 31 30 29 28 27 26 25 24 
23 22 21 20 19 18 17 16 15 
14 13 12 11 10 9 8 7 6 
5 4 3 2 1 0 
CELL_DATA 1
FIELD FieldData 2
Length 1 1 double
60.313350368 
Tortuosity 1 1 double
0.67719346939 
POINT_DATA 78
FIELD FieldData 7
MaximumInscribedSphereRadius 1 78 double
1.8642939491 1.9596135512 2.0244080678 2.0000306919 1.9434382068 1.8557367621 1.8284659374 1.7723475097 1.7319648069 
1.6440109476 1.5734116901 1.5187656717 1.4772423184 1.4947133675 1.5665400349 1.6043953363 1.4596421499 1.3163341537 
1.3188467705 1.7164139261 1.950155799 1.9430161938 1.9473371745 2.019842901 2.111178926 2.1387627016 2.1927711192 
2.2925885111 2.2341794564 2.1104936074 2.020834651 2.0293222418 2.0935861724 2.1627609752 2.182121478 2.191926305 
2.144692537 2.0793027538 1.997331879 1.9537906308 1.9117902206 1.9073619301 1.9304470252 1.8826362839 1.8163687326 
1.8099610699 1.8533387707 1.8607828699 1.8779189692 1.9203788227 1.858845653 1.8454115483 1.8612696341 1.9364508243 
1.9835260968 1.9441063636 1.9084803655 1.8647531869 1.8350058718 1.8462234717 1.8896198739 1.8950298814 1.8937526295 
1.9095808472 1.9222247213 1.9406868822 1.9817919008 2.0071110662 2.0384172311 2.0630660175 2.0849215064 2.047660019 
1.9766439545 1.9321945393 1.903710727 1.8680631281 1.764194637 1.6789760225 
Curvature 1 78 double
0 0.24228863278 0.3365872548 0.27403844271 0.24977966324 0.17642037235 0.15151969633 0.24017181962 0.31375862085 
0.17800920282 0.15129873505 0.23695325533 0.21556286927 0.20149729605 0.14175889562 0.73719800704 0.51840340099 0.52982824107 
0.12966336255 0.76325998514 0.82370224308 0.29931067234 0.058312644041 0.090611978449 0.10238093362 0.07406432056 0.09499908464 
0.36712568047 0.21182719387 0.17221232137 0.1945971138 0.12925078634 0.29493509711 0.35973371077 0.13132592788 0.095173240354 
0.077336807306 0.1988951356 0.093177893864 0.086434970713 0.11375426363 0.090844496182 0.027512057893 0.12397405429 0.056078061206 
0.051018660869 0.073743517722 0.14124727534 0.19183105097 0.091580387778 0.076240222765 0.079985915955 0.071494306005 0.23155559574 
0.22189385482 0.14440800802 0.044274183439 0.13354788886 0.085932123309 0.081916724751 0.15993472189 0.23212466135 0.13464847504 
0.19057628589 0.095183753819 0.12092561687 0.2005090313 0.2203108461 0.10613913939 0.17499887729 0.091747540297 0.095302527064 
0.19877407944 0.27672170735 0.28668309017 0.26478345519 0.53292850391 0 
Torsion 1 78 double
0 0 -0.16691137428 -0.63844221903 0.45532420647 1.1750474233 -0.53434145243 -0.31548574386 0.28336160765 
0.60791083164 1.1047412978 -0.14962853626 -0.60244576098 -0.27488678856 -0.2563066157 -0.18574002409 -0.79607683586 -0.12253239786 
-0.20489515768 0.041690697102 -0.15574993518 -1.8141450327 4.0712062741 0.4653377254 -0.19457954998 -1.101928218 -2.3828850268 
0.13406245945 0.34134413698 -1.0649297554 0.034603158265 1.8333913065 -0.23208654277 -0.33152208085 -0.8565673552 -0.69385134905 
2.4601217561 0.71980364361 1.0172587033 -0.46623521012 0.42357842115 0.53739395487 3.0951345201 -0.13410556672 -1.3159437103 
0.68393612144 -0.35709938008 0.30149489453 -0.010915610631 -0.76489616361 -0.14095917282 -0.092640425089 2.2026897678 -0.078737297297 
-0.70568483615 -0.9175319158 -0.592689672 0.27183918695 0.61274419015 -0.46865633585 0.26782109261 0.079150270108 -0.83627643263 
-0.41120280466 -0.61405701249 0.87452965255 -0.11997096441 -0.81395995861 -0.82559264265 0.32993288309 0.44923333516 -0.060541697783 
-0.37240180885 -0.4762030921 -0.082415467928 0.16065982699 0 0 
FrenetTangent 3 78 double
0.80492491475 0.58466088263 0.1013288406 0.80492491475 0.58466088263 0.1013288406 0.70402183822 0.66016898822 0.26178265469 
0.58929779268 0.68402928564 0.4299209787 0.51873601128 0.60625339347 0.60280160377 0.42892646 0.61075361707 0.66558403763 
0.35059993501 0.70523354543 0.61621857483 0.25049512891 0.73447382527 0.63071419073 0.064488825987 0.68726527842 0.72353827017 
-0.10246200054 0.65665212457 0.74720112804 -0.19178618026 0.65596881256 0.73001573819 -0.25910207699 0.72327344971 0.64011063937 
-0.33716736276 0.74612220295 0.57412527183 -0.50997661382 0.70822396459 0.48820351221 -0.61870507679 0.64011115862 0.45547967306 
-0.78250089401 0.44563376059 0.43485963516 -0.9302345243 -0.031128382957 0.3656429318 -0.80886062959 -0.37730422185 0.45098337672 
-0.70412086163 -0.54950923439 0.44972593158 -0.477347419 -0.80615933141 0.34963777536 -0.044307962849 -0.98573330942 0.16237809929 
0.31413176404 -0.94742377787 0.060905007628 0.36996291375 -0.92173436498 0.11633229504 0.37672527569 -0.9232579781 0.075317810237 
0.34088004362 -0.94010001981 0.0035705192236 0.34942622211 -0.93664017956 -0.024627004242 0.37691837178 -0.92580258694 0.028672478447 
0.23854364995 -0.9663789638 0.095961582846 0.14678363917 -0.97174093578 0.18486242722 0.13293469191 -0.94781249154 0.28979276832 
-0.02084460486 -0.9478443539 0.31805122736 -0.11801129826 -0.93368222779 0.33809884795 -0.064111849501 -0.8732483751 0.48303928012 
-0.0080404424776 -0.74994780013 0.66144814488 -0.014482116095 -0.60952578408 0.79263395515 -0.053749970019 -0.56079816628 0.82620600181 
-0.10922048704 -0.54119930183 0.83377107224 -0.12791269834 -0.47503218731 0.87062205498 -0.098262538522 -0.43003231346 0.89745010051 
-0.093260434593 -0.40701215538 0.90864932549 -0.15291598855 -0.35407657753 0.92263019552 -0.17899734837 -0.28454150532 0.94180469367 
-0.1720152037 -0.23312748739 0.95711145867 -0.11958993717 -0.24164445809 0.96296739447 -0.05904103731 -0.23772688812 0.96953601407 
-0.06149271461 -0.2334555973 0.97042110969 -0.099114120615 -0.24568095168 0.96427032573 -0.18277398268 -0.25569907689 0.94932168064 
-0.31378883487 -0.24145113047 0.91827986949 -0.38925403556 -0.25158428936 0.88610757877 -0.396333771 -0.2991298698 0.86800971363 
-0.39424619 -0.33915332011 0.85413404518 -0.39418353482 -0.37532221285 0.83889962297 -0.44932213957 -0.34708456144 0.82319008868 
-0.56858151021 -0.23303409976 0.78892976532 -0.65632222431 -0.20472577902 0.72617387263 -0.69347914821 -0.22406438231 0.68474946045 
-0.71995411328 -0.24901475586 0.647809946 -0.77505520892 -0.27051003705 0.57106369432 -0.8134672029 -0.25929757018 0.52061106396 
-0.84827880499 -0.26192805383 0.46023555231 -0.92116147405 -0.25560969339 0.2934709924 -0.95033700495 -0.24456646589 0.19247550697 
-0.95255037328 -0.29762938417 0.063753713873 -0.92745579576 -0.37380573251 -0.0097478844604 -0.89130245448 -0.45133376925 -0.043333167125 
-0.87960632937 -0.46562505147 -0.097396184585 -0.8810114697 -0.40624855516 -0.2424477298 -0.8547893377 -0.4441595975 -0.26843516928 
-0.80671551852 -0.54773483351 -0.22180312066 -0.74469943481 -0.62905050466 -0.22297581569 -0.71099625435 -0.66239809867 -0.23603619463 
-0.64437227273 -0.74400478881 -0.17675194019 -0.55284515122 -0.83187210091 -0.048487591172 -0.47807824602 -0.86151088167 0.17099763579 
-0.39180051068 -0.83448292191 0.38746691843 -0.28132519764 -0.7923467255 0.54133427728 -0.28132519764 -0.7923467255 0.54133427728 

FrenetNormal 3 78 double
0.25227609104 -0.1826255249 -0.95026559 0.25227609104 -0.1826255249 -0.95026559 0.64823112486 -0.44679238756 -0.61658168249 
0.29518448817 0.3130528581 -0.90269819208 0.39862904918 0.45223311436 -0.79785969407 0.74429850616 -0.6564715507 0.12273889703 
0.38346354326 -0.70840012705 0.59255798956 0.83252386345 0.16909006773 -0.52755337718 0.90184427148 0.27026441332 -0.33709650977 
0.96999310588 -0.10054136567 0.22137029684 0.97847182453 0.18557187486 0.090310397263 0.14313891087 -0.62667006847 0.76602602925 
0.91718732681 0.12278764455 0.37906543218 0.83142299956 0.26029561021 0.49089916592 0.70465614431 0.70850248393 -0.038522052768 
0.55356461348 0.81764178288 0.15820282422 -0.043854790009 0.99868506519 -0.026549914451 -0.53267306493 0.79498628282 -0.29026921303 
-0.021453731407 0.64951922832 0.76004243924 -0.79404648062 0.56614788608 0.22128433677 -0.83124252119 0.12653404711 0.54131784183 
-0.52707754226 -0.22739826542 -0.81882799985 -0.92146987707 -0.34809850117 0.1723969232 0.36658303783 0.22326173386 0.90320046201 
0.4851317256 0.17915933938 0.8558908458 -0.88864993023 -0.32296260267 -0.3255709735 0.12658059084 0.020819739937 -0.99173781437 
0.96245871569 0.22207942947 -0.15605751378 -0.67420175261 -0.2350351484 -0.70015032371 0.82438121249 -0.056575101415 -0.56320056321 
0.98686904496 0.031458484399 0.15842932765 0.10268995751 -0.35012726806 -0.9310562114 -0.53670714005 -0.37790057695 -0.75441142605 
-0.060711546417 -0.65988316091 -0.74891142472 0.25356050294 -0.76904389903 -0.58675254811 0.95575721892 -0.26852733089 -0.12008834683 
0.8735929177 -0.45244538097 -0.17924450167 -0.011319428345 -0.87707666053 -0.48021703645 -0.96185778841 -0.19030511115 -0.19650333216 
0.80538577806 -0.56740057074 -0.17149443379 0.69413722056 -0.70301241155 -0.15474840306 -0.036949155189 -0.95464543855 -0.29544347443 
-0.42507699404 -0.8589171582 -0.28560613522 -0.92296233703 0.38446229192 -0.01814581242 -0.32844882603 -0.91252797765 -0.24374999218 
0.49877822468 0.83497015553 0.23247606751 0.9457811057 -0.32447903578 0.014541507606 0.91385133949 0.31192302324 0.25996106802 
0.91446499784 -0.33711640495 0.2238443594 0.015509025223 0.9600520006 0.27939152865 0.66446662284 0.55896663161 0.49602460814 
-0.75053636253 0.65517284867 -0.086276919793 0.22552216308 0.84539516654 0.48419703257 0.66414645991 -0.74606344827 0.04794591692 
0.77053139492 -0.4867308919 0.41155122198 0.72086732003 0.11392805757 0.68364515987 0.38839405116 0.68422670875 0.61723891004 
0.53891576573 0.38755957088 0.74790866853 0.61274960333 -0.10097737306 0.78379939637 0.574712911 -0.22091375413 0.78797346603 
0.40180814516 0.24773215674 0.88157755927 0.35521773991 -0.2441284692 0.90234231186 0.18339884214 0.059584048788 0.9812311684 
-0.12935541047 0.58543236301 0.80033500868 -0.34606714993 0.84817491852 0.40104467997 -0.4386253762 0.83408769269 0.33452279482 
0.23943610609 -0.61027102252 0.75514212581 -0.22047063061 -0.10086671564 0.97016421636 -0.27713658664 0.82797669705 -0.48749348866 
-0.46711543033 0.82095519607 -0.32838352698 -0.51640414294 0.33146017896 0.78959540964 -0.34766692681 0.62289623923 -0.7008052391 
-0.6514256304 0.65511225102 -0.38271737172 -0.42825396856 0.3335609823 -0.83984260995 -0.20352182182 -0.080729417121 -0.97573645481 
-0.53803637714 -0.13380739387 -0.83223340369 -0.59331700415 -0.2997477542 -0.74707845401 -0.59331700415 -0.2997477542 -0.74707845401 

FrenetBinormal 3 78 double
-0.53707788589 0.79045529284 -0.29449579712 -0.53707788589 0.79045529284 -0.29449579712 -0.29008560817 0.60378263424 -0.74249368382 
-0.75205999062 0.6588640561 -0.017433476307 -0.75631199366 0.65417278542 -0.0070806118849 0.51190021063 0.44274724432 -0.73616102315 
0.85442108855 0.0285465655 -0.51879639266 -0.4941216522 0.65723416602 -0.5691107483 -0.42722137274 0.67425780231 -0.6023772196 
0.22048789758 0.74746198638 -0.62664636433 -0.076229585157 0.73162011742 -0.67743712191 0.95518446695 0.29010367496 0.05884294247 
0.21233364552 0.65438891541 -0.72573381509 0.22058932238 0.65625072288 -0.72157836689 -0.34736687558 0.29712276062 -0.88941234468 
-0.2850588879 0.36451675725 -0.88649250652 -0.36433567928 -0.040732841031 -0.93037645524 -0.24900579872 -0.47501403591 -0.8440129015 
-0.70975597893 0.52551343785 -0.46912906221 -0.37633712039 -0.17199913799 -0.91037721212 -0.55414138574 -0.11099088981 -0.82498990721 
0.78962681013 0.2251182223 -0.57079881457 -0.11840907098 -0.17097717364 -0.97813398776 -0.85070261727 -0.31264821137 0.42255905255 
-0.80526269296 -0.2900239367 0.51714418827 0.29698925369 0.1356478209 -0.94519683235 0.91755648057 0.37743358149 0.12503598094 
0.12949960489 0.12958559072 0.98307549406 0.72381389877 -0.021863959946 -0.6896487564 0.55020358431 0.31376860708 0.77383801731 
-0.16017175328 0.31717730773 0.93474251263 0.98768826363 -0.075155795927 0.13719876176 0.8413293746 -0.30761734238 -0.44445073304 
0.99812296808 -0.046179118982 -0.040224738081 0.96721111432 0.1924832458 0.16568904739 0.28920421712 0.7831976055 0.55042023176 
0.47424286958 0.70879933193 0.52220418201 0.99172083378 -0.071280800889 0.1068121495 0.25529212367 -0.88252828513 -0.39493006665 
0.58536846501 0.71581959857 0.38071782526 0.70341326365 0.61676845449 0.35327956926 0.98315548577 -0.087682486301 0.1603654339 
0.88866209486 -0.45597465934 0.048649678355 -0.36583981652 -0.89095269345 -0.2690065551 0.9426746653 -0.33283421799 -0.024204518944 
-0.86454550409 0.49832050276 0.065097986882 0.3093129341 0.9134299236 0.26452085641 -0.36258709377 0.9150530092 0.17665953068 
0.25551973471 0.9099746596 0.32658197143 -0.92099987293 0.12249694482 -0.36980228849 -0.63356424229 0.77335478646 -0.022775538593 
-0.53034433173 -0.67507300629 -0.51284629859 -0.89093158819 0.38005295543 -0.24859737778 0.59751074859 0.5682619452 0.5657378076 
0.2880910198 0.84189556788 0.45630627553 -0.22269136669 0.9721665254 0.072806607507 -0.60682512475 0.69399493054 -0.387471682 
-0.43730523918 0.88757491536 -0.14482712937 -0.15436109205 0.95740685708 0.24401795687 -0.089309460529 0.94019247143 0.32872775502 
-0.34492504038 0.93274995209 -0.1049011124 -0.15900281754 0.93544907674 0.31567883813 -0.25144470907 0.96780007486 -0.011771719797 
-0.27552670313 0.75411252345 -0.59615378707 -0.14164488926 0.37532463539 -0.91600662848 -0.1148377725 0.31716801483 -0.94139085208 
-0.41105116036 0.64090763026 0.64828570326 -0.41858271738 0.90817840599 -0.00070114175397 0.43878297654 -0.34231102975 -0.83083852728 
0.36195752089 -0.16130442709 -0.91813268915 -0.42278778714 0.70315689028 -0.57168249466 0.61123811588 -0.41620792163 -0.67317080424 
0.40053591873 -0.13147171857 -0.90679995866 0.71481520492 -0.44353791135 -0.54066010026 0.85441211293 -0.50128012326 -0.13674128602 
0.74633050098 -0.53454076962 -0.39655636284 0.75420890061 -0.53135482537 -0.38578618922 0.75420890061 -0.53135482537 -0.38578618922 

SiphonLabel 1 78 int
0 0 0 0 0 0 0 0 0 
0 0 0 0 0 0 0 0 1 
1 1 1 1 1 1 1 1 1 
1 1 1 1 1 1 1 1 1 
1 1 1 0 0 0 0 0 0 
0 0 0 0 0 0 0 0 0 
0 0 0 0 0 0 0 0 0 
0 0 0 0 0 0 0 0 0 
0 0 0 0 0 0 
