# vtk DataFile Version 5.1
vtk output
ASCII
DATASET POLYDATA
POINTS 109 float
108.965 72.6286 32.0089 108.39 72.7275 31.9845 107.472 72.8714 31.9436 
106.906 72.9547 31.9857 105.984 73.0483 32.0445 105.004 72.9774 32.0419 
104.291 72.8654 32.0043 103.439 72.6686 31.8467 102.64 72.2736 31.7844 
102.08 71.9128 31.6933 101.526 71.4198 31.6777 101.023 70.9567 31.5852 
100.478 70.2035 31.3743 100.07 69.4276 31.0525 99.732 68.7172 30.6536 
99.6415 68.0533 30.3406 99.6154 67.5048 30.0596 99.6992 66.8873 29.6694 
99.9624 66.1134 29.2638 100.278 65.4048 28.89 100.671 64.8257 28.5392 
101.194 64.148 28.1543 101.61 63.6257 27.9001 101.939 63.3392 27.7612 
102.683 62.9109 27.4973 103.524 62.5881 27.2929 104.224 62.3702 27.069 
104.955 62.1871 26.7391 105.701 62.07 26.3224 106.01 62.0497 26.1026 
106.642 62.155 25.4777 107.041 62.3815 24.8839 107.232 62.6925 24.3567 
107.308 62.9944 23.8948 107.269 63.4782 23.3459 107.043 63.9474 22.8404 
106.695 64.3686 22.5519 106.3 64.8161 22.36 105.727 65.4667 22.2635 
105.343 65.9875 22.2621 104.926 66.4273 22.3433 104.407 67.0257 22.5961 
103.879 67.641 23.0335 103.294 68.1882 23.5746 102.866 68.7576 24.1258 
102.566 69.3192 24.675 102.424 69.9888 25.393 102.293 70.5118 25.7514 
102.256 71.261 26.0826 102.333 72.1443 26.2862 102.341 72.3655 26.3124 
102.344 73.3193 26.2917 102.41 74.0991 26.139 102.352 74.7894 25.833 
102.262 75.1403 25.6298 102.081 75.7424 25.229 101.731 76.348 24.622 
101.482 76.7188 24.0339 101.273 76.9194 23.3487 101.109 76.972 22.8262 
101.027 76.9979 22.314 101.015 76.9411 21.6216 101.017 76.8422 21.2218 
101.189 76.6495 20.2642 101.336 76.5261 19.674 101.544 76.3607 18.8295 
101.718 76.192 17.9324 101.791 76.1207 17.3997 101.864 76.0536 16.832 
102.072 76.086 15.8955 102.294 76.1056 15.0698 102.533 76.2065 14.3704 
102.758 76.3341 13.781 102.983 76.472 13.1985 103.442 76.7671 12.4125 
103.789 76.9521 11.9882 104.406 77.1858 11.4334 104.817 77.3542 11.0918 
105.191 77.5164 10.7625 105.751 77.787 10.3149 106.16 77.9637 10.0914 
106.646 78.1675 9.82867 107.457 78.5237 9.49731 107.934 78.7087 9.36741 
108.767 79.1609 9.19203 109.562 79.5765 8.97299 110.288 80.0809 8.76429 
111.136 80.4259 8.76556 111.811 80.6179 8.82879 112.441 80.8739 8.98451 
112.885 81.0922 9.10237 113.529 81.3886 9.25294 113.983 81.6013 9.3143 
114.657 81.8474 9.34076 115.35 82.2461 9.41206 116.068 82.6546 9.50389 
116.535 83.0219 9.58061 117.071 83.3549 9.59712 117.863 83.9202 9.57807 
118.324 84.3253 9.5043 118.999 84.9496 9.27005 119.633 85.5712 8.86799 
120.014 86.0384 8.53918 120.505 86.5618 8.05163 120.933 87.1534 7.52831 
121.295 87.6974 6.81249 121.48 88.0636 6.20884 121.559 88.5034 5.35167 
121.545 88.6433 4.99975 
LINES 2 109
OFFSETS vtktypeint64
0 109 
CONNECTIVITY vtktypeint64
108 107 106 105 104 103 102 101 100 
99 98 97 96 95 94 93 92 91 
90 89 88 87 86 85 84 83 82 
81 80 79 78 77 76 75 74 73 
72 71 70 69 68 67 66 65 64 
63 62 61 60 59 58 57 56 55 
54 53 52 51 50 49 48 47 46 
45 44 43 42 41 40 39 38 37 
36 35 34 33 32 31 30 29 28 
27 26 25 24 23 22 21 20 19 
18 17 16 15 14 13 12 11 10 
9 8 7 6 5 4 3 2 1 
0 
CELL_DATA 1
FIELD FieldData 2
Length 1 1 double
81.419509766 
Tortuosity 1 1 double
1.4069918259 
POINT_DATA 109
FIELD FieldData 7
MaximumInscribedSphereRadius 1 109 double
1.6130323761 1.6068982645 1.6441451492 1.7055666658 1.7306668735 1.7777404945 1.8535733322 1.909168925 1.9064531548 
1.8694853282 1.8338721275 1.7948058647 1.7820934528 1.7289375667 1.6490397021 1.5637505109 1.5272494796 1.5736690684 
1.6697121667 1.7243771536 1.8034274374 1.897754632 1.9623943364 1.965556575 1.9376932168 1.8691473724 1.8683339403 
1.9361988567 2.1006483941 2.1709772536 2.3046937195 2.3963466714 2.4230738478 2.4495665528 2.5150700576 2.5424779144 
2.4276022082 2.3527009766 2.2867945527 2.3077050197 2.3365845672 2.3987742119 2.4888245668 2.4296773673 2.4365658031 
2.5092220842 2.6151316226 2.6201743194 2.5461808497 2.4585915335 2.4599976272 2.4280362284 2.472635934 2.4796956526 
2.483689999 2.5531894854 2.6518111821 2.6520929743 2.5994815508 2.5672103121 2.5636029896 2.5328096022 2.5299330881 
2.4558063628 2.4478344187 2.443739507 2.338204972 2.2619024952 2.1768231049 2.0840490365 2.0983385882 2.1049708847 
2.0794900719 2.0885868339 2.04874165 2.0294811837 2.0561190713 2.0864909706 2.0660628319 2.0447459415 2.0335902509 
2.0378378694 2.0478888912 2.0682476194 2.0983097682 2.1921539667 2.2858154854 2.3117661936 2.3271744544 2.2959945356 
2.2791483229 2.2455770609 2.2313376145 2.2201427326 2.2448965141 2.2882840626 2.3002290598 2.2880778907 2.2262781122 
2.1854771864 2.1990182699 2.2357922085 2.2496426046 2.2204428199 2.2028054911 2.1423079843 2.1009985295 2.0639898878 
2.0163410011 
Curvature 1 109 double
0 0.019713362961 0.15694359345 0.060865357429 0.19553956586 0.11400411973 0.18047874088 0.28932055113 0.16724138977 
0.27422919789 0.16101835055 0.26497828723 0.20037666952 0.13541657805 0.35033043528 0.12820633426 0.26871871509 0.23880999897 
0.09382048867 0.19438328791 0.081728833883 0.072327602866 0.31164305284 0.27501697194 0.18508966125 0.11425398738 0.16161967817 
0.14502021669 0.21886391212 0.37303618017 0.33464836224 0.43853375691 0.2880796265 0.37328734948 0.36857608012 0.5252823263 
0.28649568506 0.26907049336 0.1845824081 0.29343994107 0.25168714287 0.21412276497 0.14534242596 0.16649296086 0.15033193541 
0.24915327417 0.27644232564 0.33384970165 0.2689139786 0.20955748916 0.24437044698 0.21716178646 0.35797911677 0.30793783101 
0.11246268199 0.28693078165 0.2563214304 0.37082678538 0.27629194103 0.28457967435 0.31914372615 0.29504435826 0.24840357324 
0.082724064527 0.01687549655 0.052635285823 0.10355795621 0.030073854566 0.23029523844 0.050612486308 0.16336095686 0.10550974103 
0.028414317606 0.22827844484 0.19626278371 0.21590892383 0.067637013682 0.052490452792 0.099862563453 0.25787271847 0.018471976899 
0.13838800237 0.15866490019 0.18910489617 0.062026677745 0.13430872363 0.35884761758 0.17355420597 0.24735851764 0.11719308564 
0.05828560524 0.14285478332 0.19989406783 0.23719612793 0.027266520948 0.21111221594 0.24711470631 0.098254767316 0.18035768188 
0.16869151672 0.18633797483 0.15089039113 0.14717739602 0.1227104492 0.2280187794 0.18904607446 0.22501293646 0.22731509953 
0 
Torsion 1 109 double
0 0 -0.17275605278 -1.9874812694 -0.074904232245 -0.63486680382 0.77551828804 0.078527103976 0.045129132803 
0.029055415185 -0.09469334397 0.14287829624 -0.44084968045 0.92527408071 0.099607956297 -1.3597681512 0.47949795336 0.44409744492 
-0.96712133704 0.078254473821 1.2058996724 -1.8314000525 -0.41185546347 -0.087334365922 -0.04622427869 -1.1823571349 0.014953025674 
0.029407290734 0.11366885259 0.055802817789 0.0096354780493 -0.095852373007 0.1209490123 -0.16805581084 0.070033796752 0.3882697316 
0.62320598699 0.40660895536 -0.42900463143 0.06933240288 0.54499307282 -0.41097193408 0.041421097844 0.40132751814 -0.21773895869 
0.48000143343 -0.11194020349 -0.395093936 0.47409622084 0.75943013974 -0.59821988248 0.39489300832 0.52293028456 0.15227783843 
-0.55375698142 -0.30584281931 -0.412633684 0.22544099937 -0.38491052211 -0.42657141538 0.7928369678 -0.15116831304 -0.75612865731 
0.54450679848 -4.8636116015 0.45510189255 0.26957631385 6.8496712225 0.21039857003 0.67131531596 -0.19710153276 -0.084205385445 
3.4851014932 0.28188027252 0.57397242934 0.036000312356 -2.4084264442 0.57221221015 1.718098641 0.26048515191 4.511099051 
0.27552680153 -0.51423102449 -0.71970853821 -0.074188056399 1.3238138457 0.20050282863 -0.70518541371 -0.73555979534 -1.4338512856 
0.54974885177 -0.61928215234 -0.012257459346 0.33084692062 0.57374345945 -0.57143218292 -0.089750593116 1.3424728477 -0.39707917857 
-0.41716563172 0.27310662257 -0.08508337431 -0.14500949151 -0.33599819407 -0.15464689875 0.37624622589 -0.048737639267 0 
0 
FrenetTangent 3 109 double
0.98610537835 -0.16041507739 0.043164635201 0.98610537835 -0.16041507739 0.043164635201 0.98848877614 -0.15129204486 -0.00081031165735 
0.9907719246 -0.11772040345 -0.0671781217 0.99949184469 -0.011935380272 -0.029556709932 0.99393650592 0.10738674291 0.023628577003 
0.97381475031 0.1921936583 0.12143487882 0.93401126033 0.3348730803 0.12443064603 0.8697593103 0.48360429936 0.098212136683 
0.79147135874 0.60649627988 0.075732098784 0.73941295267 0.6689941966 0.075599274772 0.64126891385 0.74450294442 0.18571361255 
0.50716373898 0.81386602539 0.28356134185 0.41174503206 0.81998382709 0.39760854101 0.26710078991 0.85569252508 0.44322395078 
0.086045051659 0.89466472709 0.43837344262 -0.042819333174 0.86585359994 0.49846168175 -0.21157133398 0.8483973277 0.48524173871 
-0.326851266 0.83652450575 0.43976698512 -0.43238502087 0.78581216979 0.44220179504 -0.53244404994 0.7305129527 0.42761449885 
-0.56820632823 0.72630718212 0.38680672922 -0.63771960579 0.69277768579 0.3367087502 -0.79458762774 0.52896283393 0.29804164501 
-0.87305164913 0.41378658031 0.25799512379 -0.91272963539 0.32025973854 0.25368940175 -0.90230912353 0.2527993261 0.3491858335 
-0.87801778816 0.17856389213 0.44407172856 -0.8510623915 0.11078680274 0.51324369467 -0.74266921946 -0.0670453983 0.6662937378 
-0.63222945078 -0.20348722701 0.74758201558 -0.42870972669 -0.39061155858 0.81463524386 -0.22380362549 -0.51340064755 0.82845139406 
-0.029015621439 -0.61343527071 0.78921179817 0.18330695254 -0.65915464054 0.72932415359 0.43372512177 -0.67251941743 0.5996667007 
0.59924359911 -0.70060857065 0.38736899676 0.64900078312 -0.73582494694 0.19328639624 0.63142424452 -0.77274010395 0.064623178302 
0.6388311381 -0.76669966541 -0.063768331118 0.65145336435 -0.72223362935 -0.23235123997 0.5999885399 -0.69542715413 -0.39546785619 
0.59064830697 -0.61731953156 -0.51966448159 0.54406745028 -0.59979221279 -0.58671961875 0.41906063722 -0.65079950144 -0.63312573101 
0.24267435179 -0.67601123504 -0.69578586438 0.16748757719 -0.73185165735 -0.66056117289 0.11551953066 -0.87324888964 -0.47338315852 
-0.023296848042 -0.95004697277 -0.31123625497 -0.075580663214 -0.97623674627 -0.20309943029 -0.0096744551077 -0.99994258984 -0.0046067287912 
-0.039346194672 -0.9942615367 0.099478005584 -0.0051968469592 -0.95461471331 0.29779815633 0.12702017373 -0.89106071915 0.43574840248 
0.23392617797 -0.82117088915 0.52053521886 0.3197040682 -0.72748588336 0.60708615392 0.36206475309 -0.58978431761 0.72184733377 
0.31183505031 -0.38903418339 0.86683983846 0.28882587158 -0.19640419727 0.93701921389 0.23008632232 -0.073585263676 0.97038419878 
0.078228723285 0.025539692924 0.99660824346 0.0093352054513 0.14116905132 0.98994148963 -0.12427988191 0.20841811987 0.97011153908 
-0.1979881993 0.19609461731 0.96038928253 -0.23568844246 0.19177486567 0.95271892969 -0.21069403108 0.18419430874 0.96004191674 
-0.16810104144 0.16316757364 0.97217199239 -0.12975879162 0.12374285101 0.98379386196 -0.18343656127 0.022639842974 0.98277081026 
-0.23718101084 -0.028698507108 0.97104148407 -0.28861261337 -0.075363116933 0.95447533232 -0.33408375554 -0.16450369827 0.92807681662 
-0.35105933962 -0.20694856519 0.91319747669 -0.43008878815 -0.2723257466 0.86073359528 -0.52615934155 -0.31354101945 0.79047351406 
-0.67125586044 -0.29147886814 0.6815098233 -0.72299863679 -0.28275458178 0.63033548026 -0.72399244271 -0.30492632992 0.61875267775 
-0.72436659904 -0.33550955641 0.60226768779 -0.76856125018 -0.35480018718 0.53238184783 -0.82288878766 -0.3501893416 0.44746113593 
-0.84634399376 -0.36534263014 0.38759077238 -0.8755185099 -0.36773622992 0.31342846716 -0.8801139905 -0.42815552661 0.20513948608 
-0.86296986655 -0.45997452882 0.2090608578 -0.83184379869 -0.5032796878 0.2339774571 -0.87421828423 -0.47166960498 0.11519624674 
-0.9423633508 -0.33220376513 -0.0398995426 -0.93411240996 -0.32073147889 -0.15673328942 -0.89082097663 -0.39357661075 -0.22701418253 
-0.88218772574 -0.41752561539 -0.21775485537 -0.89370315295 -0.41420023743 -0.17243212497 -0.92389500655 -0.37582275686 -0.071939365393 
-0.90253104191 -0.42575916509 -0.064551155941 -0.86377050053 -0.49390190055 -0.099806988955 -0.83075014845 -0.54395437629 -0.11818556329 
-0.81748665264 -0.57091028264 -0.076006722906 -0.8284663212 -0.56003665045 0.0015826492007 -0.78914767364 -0.61141266388 0.058485071877 
-0.72643303538 -0.65839703256 0.19699845844 -0.68342205639 -0.6501389671 0.33204459987 -0.61180749823 -0.65674799846 0.44087827303 
-0.56184987585 -0.63839715843 0.52609294342 -0.521243846 -0.63225356571 0.57320178092 -0.42516511305 -0.61151663004 0.66729456601 
-0.32333902468 -0.53734305155 0.77891868643 -0.15648307678 -0.47714082498 0.86478302471 -0.047916307853 -0.43181510549 0.90068848228 
-0.047916307853 -0.43181510549 0.90068848228 
FrenetNormal 3 109 double
-0.15305613554 -0.97835067989 -0.13929740317 -0.15305613554 -0.97835067989 -0.13929740317 -0.011595557135 -0.081099214121 0.99663858069 
-0.12968694411 -0.96743132361 -0.2173888926 -0.021698290626 -0.93401072476 -0.35658540381 0.10439240633 -0.85411568321 -0.50949840548 
0.19867732393 -0.45980706072 -0.86550839849 0.25502215454 -0.86891754857 0.42420041783 0.46241201244 -0.72920715499 -0.50441258496 
0.45142596969 -0.6635947365 0.59653719044 0.15623102018 -0.061274232747 -0.9858181053 0.74113011834 -0.5382797608 -0.40122443445 
0.71940185603 -0.21858853604 -0.65930267818 0.43291313913 0.20793439092 -0.87712570538 0.93445476395 -0.342372152 0.097855013474 
0.92260989752 0.094510824472 -0.37397684562 0.8663631382 0.28065757508 -0.41309349828 0.89354143156 -0.033260161359 0.44774710691 
0.94464259412 0.30326394329 0.12522519742 0.84977961204 0.5191209625 -0.091586228476 0.79550092961 0.25919840694 0.54771749728 
0.4043873916 -0.16292643389 0.89995878498 0.77024851992 0.57039274883 0.28525309753 0.56865341327 0.82038360233 0.060033662271 
0.48732932655 0.75889978839 0.43195050489 0.035342354956 0.68049160756 -0.73190306051 -0.19636149013 0.48007787021 -0.8549663173 
-0.19507908398 0.71373076134 -0.67270539711 -0.35097026814 0.60699679155 -0.71300404342 -0.49594881338 0.72363773277 -0.47998250616 
-0.63811694727 0.68400565554 -0.35347280632 -0.77754206222 0.61867903604 -0.11253706876 -0.94093764511 0.33539309599 -0.046344570057 
-0.79948520725 0.48815609308 0.35003861527 -0.97860474774 -0.051835101685 0.19911270663 -0.7411897615 0.11215050327 0.66186101416 
-0.37545889855 0.18140432833 0.908913134 -0.12641099807 0.14623082231 0.98114056392 0.45420113475 0.43610628951 0.7768607555 
-0.48689344841 -0.46707892551 0.73808674777 0.32627107231 -0.0097945180655 0.94522550473 0.2816312885 -0.27908013736 0.91804035547 
-0.23490267066 -0.7476507256 0.62115950273 0.8376069088 0.42913775652 0.3380169408 0.90737402902 0.27516724171 0.31773473298 
0.95131200604 0.025328838606 0.30718710438 -0.26979259639 0.61042435877 -0.74471072045 0.65254608116 0.42602503165 -0.62664685779 
0.56717237291 0.24381037597 -0.78668418058 -0.39939555545 0.21626806567 -0.89090477272 -0.23786482962 0.0067760004336 -0.97127463091 
0.419394512 -0.10679389135 -0.90150058684 -0.57922729167 -0.23988296347 -0.77907118315 -0.79967390038 -0.35190384899 -0.48650316969 
-0.35815743943 -0.57052160377 -0.73907262716 -0.57020185638 -0.65942590756 -0.48992582646 0.18783166181 -0.71234204477 -0.67623078759 
0.21081119675 -0.861263209 -0.46236816948 -0.097399788818 -0.97968097173 -0.17532391386 0.92261072743 -0.30072684548 -0.24156326301 
0.7267294682 -0.68578887931 -0.039470154236 0.14843590395 -0.97921227866 0.13823926989 0.96004004996 0.27233287978 0.064481819604 
0.9743713842 -0.067357323756 0.21462384908 -0.27650936672 0.92658464986 -0.25491852965 -0.96562860213 0.11370573711 -0.23373576554 
-0.71753170088 0.65598244677 -0.23416935702 -0.42337682898 0.89027408754 -0.1678216605 0.51061174348 0.85648342985 0.075576330952 
0.94516067474 -0.2378474126 0.22383008568 0.46193795638 0.86223493908 0.20776004013 0.40814560212 0.86229776768 0.29976612106 
0.12992801685 0.95506932485 0.26638561366 0.69533155605 0.50816226195 0.50821761353 0.81438298252 0.081825588936 0.57453018266 
0.73983995706 -0.31966618004 0.59198848913 0.3678342753 0.61476883801 0.69767988486 -0.68980105997 0.31603887651 -0.65137848152 
0.26316541418 0.67287667244 0.69136166256 0.56400838821 0.017067503166 0.82559265886 0.48589327125 -0.84192719492 0.23466215592 
0.29743337042 0.27948570007 0.9129190181 0.40799503434 -0.215124776 0.88727751166 -0.29883084409 0.83534620706 0.46140745656 
-0.054753970734 -0.32619789417 -0.9437144359 -0.504455612 0.86139339405 0.059379762673 0.39855418161 -0.56161490133 0.72508155881 
0.23368253973 -0.73880724564 0.63210467837 -0.31770401926 0.54671781721 0.77470238446 -0.42780869005 0.89485494986 0.12733555446 
0.44445277633 -0.58548678127 -0.67798743245 0.12366882699 0.14201783695 -0.98210842335 0.31664522099 -0.64534917438 -0.69516922195 
-0.42520024789 0.85737454164 0.29002352412 0.027365559001 -0.24376359042 0.9694485227 -0.55572973642 0.82264776371 0.12006297062 
0.46332482643 -0.57349031284 -0.67560266895 -0.45680558136 0.67411556906 -0.58042816988 -0.46874376245 0.53798871489 -0.7006050441 
-0.26413289451 0.0028453556913 -0.96448209832 -0.34534221526 -0.11280997457 -0.93167197231 -0.76565951237 0.35172173975 -0.53856970663 
0.10422199682 -0.68552194457 -0.72055356421 -0.83590355681 0.51358503773 -0.1936379424 -0.48960841362 -0.46468896422 -0.73779927341 
-0.74109100422 -0.36804864097 -0.5615374621 -0.91801523673 -0.25274149272 -0.30556466254 -0.77784329865 -0.54956491169 -0.30485768906 
-0.77784329865 -0.54956491169 -0.30485768906 
FrenetBinormal 3 109 double
0.064575553906 0.1307553062 -0.98930937918 0.064575553906 0.1307553062 -0.98930937918 -0.1508492045 -0.98515665487 -0.081919978462 
-0.039399111051 0.22409493682 -0.97377059379 -0.023350301671 0.35704553313 -0.9337950796 -0.034531836092 0.50887570893 -0.86014711832 
-0.11050861069 0.86697120172 -0.48595141974 0.25017327249 -0.36447539544 -0.8969788291 -0.17231910196 0.48413201377 -0.85785914948 
0.41205300895 -0.43795466452 -0.79900439901 -0.65487430379 0.74073762785 -0.14982460718 -0.19874689388 0.39493070894 -0.89695563285 
-0.47460079162 0.538368967 -0.69635690846 -0.80190538254 0.53328211332 -0.26936582017 0.23548134142 0.38803558091 -0.89105382878 
-0.37601492802 0.43662653397 -0.81729434339 -0.49757553947 0.41416043874 -0.76216121228 0.39600666752 0.52831405056 -0.75104126602 
-0.028611523661 0.45635263994 -0.88933888295 -0.30152579438 0.33617355652 -0.89222728899 0.2892777293 0.63179665382 -0.71913238249 
0.71666757013 0.66778204105 -0.2011336361 0.0055607511949 0.44126090939 -0.89736162604 -0.21275290225 0.21718440402 -0.95266318142 
-0.017057122565 0.50284369056 -0.8642090473 -0.40703259161 -0.65906363267 -0.63242359021 -0.3837713001 -0.84001055901 -0.38353858992 
-0.43706854688 -0.67727641088 -0.5918342239 -0.39052871425 -0.78694420348 -0.47770926718 -0.44997467147 -0.68691582183 -0.5706745559 
-0.43942312545 -0.70052067181 -0.56229716804 -0.46003946757 -0.68165890346 -0.56895063724 -0.25406354565 -0.78989318661 -0.55814018715 
-0.59998458072 -0.62080657007 -0.50459657694 -0.093441472901 -0.7502188228 -0.65455359525 -0.51236730594 -0.73153256783 -0.44982201592 
-0.70706274433 -0.69010151456 -0.15434433965 -0.75021213205 -0.6611945206 0.0018875522494 -0.62849403547 -0.46117679472 0.62634751647 
-0.59567570614 -0.44046441446 -0.67168560555 -0.68494941525 -0.69157982334 0.22926326896 -0.74879741541 -0.66218981435 0.028409161347 
-0.77198141998 -0.24481623408 -0.58660864189 0.049043612013 -0.67534442132 0.73586998628 -0.032566144757 -0.70763196509 0.70583032536 
-0.19003848596 -0.73645587786 0.64924426361 0.94824040539 0.30294430818 -0.095209661898 0.74889174785 -0.23651437408 0.61904935252 
0.82326955262 -0.19485186708 0.53316038264 0.91365789748 0.01378183619 -0.40625030136 0.97125008507 -0.0083007740549 -0.23791672788 
0.90695100213 0.0062499120204 0.42118976523 0.81514951841 -0.17654153326 -0.55169225993 0.58684540427 -0.28666090746 -0.75725688879 
0.90388151427 -0.013545126208 -0.42756840121 0.75674246066 -0.18953037211 -0.6256349465 0.91303251935 0.38042511741 -0.14713377807 
0.92645428421 0.32692214513 -0.18655929433 0.95241424656 -0.040627391322 -0.30208693787 0.30959607541 0.95086727432 -0.0013025802525 
0.68245479477 0.72735227855 -0.072208835928 0.98887796838 0.14565236789 -0.030095703545 -0.25075408954 0.93935972338 -0.23393524036 
0.10677583339 0.97826882399 -0.17773302846 -0.93166170266 -0.32351705912 -0.16535774627 -0.15221507156 -0.9762906647 0.15390617276 
-0.67593660805 -0.73692833603 0.0068065741781 -0.89661291351 -0.43829186152 -0.063131033942 -0.84001587807 0.51567777914 -0.16867054485 
0.22453611521 0.97087847026 0.083537590087 -0.83863942422 0.50087055257 -0.21403879488 -0.84959120273 0.47893746263 -0.22093821564 
-0.92729501805 0.21216709475 -0.30839758981 -0.57579307175 0.81707392767 -0.029198206286 -0.24481974 0.94604260058 0.21228917256 
0.045303507112 0.90158394105 0.43022551003 -0.58478279482 0.73628060025 -0.34047020514 0.0030725486463 -0.89840935094 -0.43914826379 
-0.6372103224 0.65929532172 -0.39911487542 -0.30200685877 0.93478635394 0.18699286014 0.29455351313 0.41051921209 0.86296709347 
-0.44185431353 0.88792595753 -0.12787595375 -0.25885785824 0.9047051431 0.33838027908 -0.36891664416 0.34478915206 -0.86314596117 
0.50227981456 -0.8258440329 0.25631352131 -0.23143126432 -0.068636553968 -0.97042701599 -0.27730300367 0.67979150211 0.67895990884 
-0.23946562528 0.58634845632 0.77385509114 -0.16278255959 0.77345390735 -0.61259357775 0.15302846897 0.21055182303 -0.96553105465 
0.15558453058 -0.69489394115 0.70207967097 0.43127797954 -0.89903787312 -0.075698131151 0.21483440342 -0.66504262912 0.71523735959 
-0.06813565575 0.28920240091 -0.95484004091 -0.50314177782 0.83464976165 0.22407170011 0.031916311047 0.1654215626 -0.98570637399 
0.34211939138 -0.58751196605 0.73333758378 0.32399415962 -0.48158815361 -0.81430991326 0.39689448768 -0.58029535333 -0.71114841528 
0.63445162081 -0.7526654313 -0.17597127432 0.64317419662 -0.75139419289 -0.14742360633 0.19863810366 -0.66706362838 -0.71803134992 
0.82064760548 -0.35001247352 0.45169544606 -0.17195957875 -0.58007399326 -0.7962060447 0.76126094603 -0.64039954537 -0.10183415113 
0.58841821741 -0.75881660685 -0.27921561307 0.36436392772 -0.84169969169 -0.39847278099 0.62662894139 -0.715202155 -0.30955136457 
0.62662894139 -0.715202155 -0.30955136457 
SiphonLabel 1 109 int
0 0 0 0 0 0 0 0 0 
0 0 0 0 0 0 0 0 0 
0 0 0 0 0 1 1 1 1 
1 1 1 1 1 1 1 1 1 
1 1 1 1 1 1 1 1 1 
1 1 1 1 1 1 1 1 1 
1 1 1 1 0 0 0 0 0 
0 0 0 0 0 0 0 0 0 
0 0 0 0 0 0 0 0 0 
0 0 0 0 0 0 0 0 0 
0 0 0 0 0 0 0 0 0 
0 0 0 0 0 0 0 0 0 
0 
