# vtk DataFile Version 5.1
vtk output
ASCII
DATASET POLYDATA
POINTS 104 float
110.445 67.3745 35.7648 109.904 67.8413 35.3718 109.373 68.0999 34.9781 
108.795 68.3846 34.6672 108.31 68.6157 34.4946 107.712 68.8886 34.3028 
106.901 69.2904 34.0363 106.157 69.6013 33.7356 105.399 69.8732 33.3452 
104.744 69.968 32.9967 103.88 69.9508 32.5066 103.215 69.893 32.027 
102.631 69.8952 31.5737 102.039 69.7327 31.1594 101.369 69.3946 30.5578 
100.852 68.9829 29.823 100.656 68.3856 29.2545 100.539 67.7243 28.773 
100.528 66.9219 28.4887 100.589 66.2136 28.2149 100.768 65.4778 28.0594 
101.008 64.5212 27.9267 101.416 63.6562 27.7524 101.705 62.8598 27.5237 
102.154 62.0878 27.2157 102.635 61.545 26.8391 103.365 61.1359 26.3691 
104.179 60.8588 25.9483 104.886 60.8301 25.5566 105.472 60.9282 25.1742 
105.917 61.1056 24.8226 106.547 61.5942 24.2492 106.79 62.0739 23.9648 
106.972 62.9308 23.7722 106.98 63.896 23.8574 106.956 64.4517 23.9877 
106.853 65.348 24.2041 106.743 65.9448 24.4205 106.542 66.7896 24.8369 
106.342 67.305 25.1748 106.028 68.1498 25.5644 105.736 69.0416 25.8547 
105.496 69.7583 26.0739 105.241 70.6543 26.3443 105.025 71.4319 26.4709 
104.859 71.983 26.5395 104.685 72.7335 26.6279 104.596 73.5708 26.6994 
104.442 74.4174 26.6236 104.284 75.0007 26.516 104.071 75.7263 26.2747 
103.688 76.5057 25.9395 103.291 76.9992 25.5353 102.983 77.2203 25.1725 
102.36 77.2722 24.4036 101.895 76.992 23.5826 101.675 76.6031 23.0053 
101.638 76.2188 22.5173 101.652 75.5323 21.8979 101.63 74.9794 21.2859 
101.604 74.5499 20.5865 101.607 74.1898 19.7322 101.565 74.0557 19.0959 
101.572 73.8952 18.4966 101.627 73.7492 17.7716 101.706 73.5942 16.9101 
101.831 73.4289 16.1063 102.036 73.322 15.3013 102.247 73.2837 14.6124 
102.375 73.2516 14.1822 102.594 73.2482 13.5675 102.935 73.2604 12.8469 
103.172 73.3123 12.3581 103.409 73.3517 11.8415 103.856 73.541 11.0038 
104.31 73.6643 10.44 104.909 73.8557 9.81134 105.642 74.034 9.16074 
106.216 74.1848 8.73469 106.591 74.3372 8.48891 107.199 74.571 8.17289 
108.031 74.9389 7.78536 108.817 75.2344 7.52276 109.546 75.5706 7.40319 
110.375 75.8448 7.45665 111.244 76.201 7.63095 112.02 76.6465 7.74878 
112.637 76.9976 7.76748 113.467 77.5004 7.96314 114.266 78.051 8.147 
114.691 78.3683 8.23771 115.365 78.8476 8.34603 116.093 79.3441 8.40153 
116.781 80.0027 8.42425 117.431 80.5405 8.31911 117.96 81.0449 8.04876 
118.515 81.6251 7.6787 118.957 82.169 7.23412 119.13 82.5407 6.88505 
119.275 82.9209 6.45247 119.413 83.3645 5.85713 119.527 83.688 5.28898 
119.604 83.9922 4.67323 119.554 84.3557 4.18536 
LINES 2 104
OFFSETS vtktypeint64
0 104 
CONNECTIVITY vtktypeint64
103 102 101 100 99 98 97 96 95 
94 93 92 91 90 89 88 87 86 
85 84 83 82 81 80 79 78 77 
76 75 74 73 72 71 70 69 68 
67 66 65 64 63 62 61 60 59 
58 57 56 55 54 53 52 51 50 
49 48 47 46 45 44 43 42 41 
40 39 38 37 36 35 34 33 32 
31 30 29 28 27 26 25 24 23 
22 21 20 19 18 17 16 15 14 
13 12 11 10 9 8 7 6 5 
4 3 2 1 0 
CELL_DATA 1
FIELD FieldData 2
Length 1 1 double
82.446031496 
Tortuosity 1 1 double
1.2286028937 
POINT_DATA 104
FIELD FieldData 7
MaximumInscribedSphereRadius 1 104 double
1.2493092678 1.3226007059 1.3053813482 1.3750188961 1.392776861 1.3918840085 1.5070579426 1.6154822478 1.6387773553 
1.6927083591 1.7980663254 1.8286709061 1.8095654648 1.7702104614 1.6771328061 1.6204878023 1.4606927789 1.4887262279 
1.5197558837 1.590462383 1.6313984855 1.6929844727 1.6688914584 1.6074632648 1.53755488 1.4820055688 1.3912842179 
1.4029196055 1.4863882867 1.5857979771 1.6292385771 1.6669113445 1.6717169665 1.7118012989 1.8333252401 1.9092992874 
1.9498799819 1.9294538601 1.9504303677 1.9641750137 1.9327776711 1.8624676628 1.8385693194 1.8343000781 1.8481446842 
1.8551360623 1.8811172894 1.7964265782 1.6932676568 1.6715282835 1.6367700349 1.6891202568 1.8215814356 1.8854084515 
2.0200612118 2.1729436757 2.2224625836 2.18887145 2.1858533932 2.2052629345 2.2118262465 2.1670167362 2.0922946746 
2.0148360018 1.9234686252 1.8268290517 1.7671524959 1.7711804056 1.7981609136 1.8074107539 1.8024073175 1.7946715114 
1.7762883676 1.7653797774 1.6999705397 1.6887485862 1.7480257235 1.7828691887 1.7325985855 1.6941282446 1.6483555798 
1.6189105078 1.6203527752 1.6768408935 1.7267663429 1.730890879 1.7811266402 1.8080172039 1.8770351541 1.926857053 
1.8925669602 1.894603809 1.9483114312 1.9669540034 1.9606272983 1.9135730973 1.9428145462 1.9429122927 1.90564188 
1.8558319232 1.814489128 1.8174855543 1.8532629866 1.8875889532 
Curvature 1 104 double
0 0.31359960031 0.1949083746 0.21859262129 0.049768614473 0.037605965842 0.10341532596 0.12071845737 0.22331962964 
0.16953963958 0.13312165441 0.1042606617 0.31343167184 0.21325007434 0.22860686069 0.47358256507 0.18929829513 0.38450815476 
0.12130676817 0.29000809343 0.07835298876 0.20343387255 0.13435355759 0.20426399914 0.26868394363 0.33860076549 0.17947462951 
0.29839543448 0.25139817304 0.28833542925 0.29037205565 0.51763740343 0.49437381596 0.40127716496 0.19649469742 0.094847459466 
0.15917132101 0.14356620309 0.19544830831 0.17400906592 0.11673661129 0.021544742142 0.049094026636 0.14264046687 0.061281043146 
0.096782780467 0.15327724016 0.22123206775 0.16618600058 0.19132318639 0.20113585773 0.33783893111 0.45909692872 0.51886419088 
0.39428830561 0.36347578416 0.38542667497 0.24086724354 0.12593861834 0.22516674662 0.17882262808 0.25777527675 0.14373331267 
0.13177376068 0.031445172206 0.079126943326 0.14046611864 0.11478959048 0.033413170088 0.15324751079 0.14019113226 0.12014797883 
0.059652374498 0.18361061539 0.22113726292 0.11676358597 0.0959570337 0.10478373257 0.22029972771 0.16120556435 0.077504677691 
0.1208780119 0.20291698604 0.2845041443 0.15410388386 0.15246245226 0.13023506037 0.20693208033 0.059179919511 0.055152106318 
0.066660039222 0.081965292886 0.18661269139 0.18393467938 0.29875120173 0.10624076733 0.17698021058 0.36074658531 0.21380645412 
0.15087137701 0.17120096002 0.12638200486 0.41200109985 0 
Torsion 1 104 double
0 0 0.96186979723 -0.15943764875 -1.0280783034 2.0251565941 -0.010442466818 0.66880727956 0.19743541098 
-0.45255164399 -0.9914382884 -0.37862972259 -0.31051558499 -0.96342852644 0.4930202451 0.26436559265 0.67553044895 -0.12810437862 
-0.58759167107 0.34634018825 -0.26753801103 -0.47550060139 0.070022659069 0.07534334286 0.14923616264 0.29066702762 -0.20183021742 
-0.34120066967 -0.28790323845 0.11774890608 0.25468466022 0.23169745916 0.27511075136 0.13126477086 0.021351403526 -0.32523206981 
0.38497531113 -0.23800746097 -0.57497588949 -0.60559840615 -0.13543174303 0.77838799752 1.4098332461 0.32578357803 -0.10238915071 
-0.22599531336 0.9380617386 0.55840132023 -0.14555829418 0.27848384846 0.0051806804336 -0.24435901784 0.06510395817 -0.10950206033 
-0.23971720013 -0.32539138899 -0.014462129181 0.77579579711 0.32085663243 0.23431207581 -0.25846566683 -0.025493822505 0.091467432927 
-0.81919992146 1.0673580816 -0.64659874259 -0.43783430535 -0.20894952352 -0.54510398255 0.47692971782 -0.07817647495 -1.0199445633 
-0.30471046265 0.79231174561 0.26371965251 -0.3436863334 0.12505072555 -1.2675875596 0.24966201578 0.69699381211 -0.11201833626 
-0.38322015616 0.36950447315 0.064446787637 -1.373017087 -0.97220499917 -0.56798254215 -0.12704970152 -1.8540031557 -0.94374869479 
-0.38147708952 1.4270416342 -0.2828336831 0.056002013101 0.30131333352 0.27527599633 0.42064623387 -0.12656487525 -0.89928055338 
-0.53691617421 -0.014898598833 3.0063021036 0 0 
FrenetTangent 3 104 double
0.70795047031 -0.47875482897 0.51923014678 0.70795047031 -0.47875482897 0.51923014678 0.78002217944 -0.38209066638 0.49555234058 
0.83264612908 -0.4040715891 0.37871701126 0.86712987435 -0.40363009258 0.29183647711 0.86540664424 -0.41446378466 0.28158677404 
0.86288459972 -0.3954598478 0.31470887554 0.85679423384 -0.3324565284 0.3941780024 0.86365843805 -0.22408654406 0.45152998036 
0.87451681585 -0.0446590946 0.48293467887 0.84364993695 0.041400060549 0.53529507645 0.80078773429 0.035619794138 0.59788814578 
0.80001745606 0.1090048494 0.58999153621 0.74426064808 0.29522348039 0.59909864325 0.61214252399 0.38693501973 0.68961062988 
0.39680448229 0.56193113099 0.72579584379 0.18802633565 0.75414890834 0.62921023605 0.077595073257 0.88338758543 0.46217461908 
-0.031221763632 0.93759041414 0.34633714325 -0.15746758938 0.94657090164 0.28143824626 -0.23703218766 0.95771348421 0.16309697782 
-0.33115426194 0.930455559 0.15680978136 -0.37737372693 0.89996081439 0.21831079401 -0.40644243128 0.86446549494 0.29581067951 
-0.53180525621 0.75113771228 0.39112057815 -0.68918832519 0.5414285527 0.48153356555 -0.80820630335 0.35936973875 0.46653613161 
-0.86844942016 0.17465194243 0.46399601683 -0.85722197808 -0.045993467083 0.51288895609 -0.79603024416 -0.21269525739 0.56665384307 
-0.68608675232 -0.42507898125 0.59041750312 -0.55913315438 -0.62057560592 0.54977816709 -0.28654815358 -0.90233154412 0.32200611822 
-0.10355599832 -0.99290118118 0.058509825016 0.01011675112 -0.99005844081 -0.1402923203 0.084889221761 -0.96915025099 -0.23139060273 
0.13581512693 -0.95156649346 -0.27581780186 0.19362058668 -0.89832649371 -0.39436097565 0.24965988741 -0.84683622991 -0.46961509806 
0.31615470968 -0.83657761494 -0.4474193712 0.30887189041 -0.88565374768 -0.34672120578 0.30032118287 -0.90930927808 -0.28803441448 
0.28216941074 -0.91798645939 -0.27871362368 0.26455633386 -0.93833060188 -0.22258847184 0.27365402068 -0.95161697997 -0.13978054372 
0.25051907399 -0.96114475268 -0.11593514551 0.16221083758 -0.98178952698 -0.098878556223 0.14279371387 -0.98974913074 0.0025716679721 
0.2117695914 -0.96937746409 0.12434215806 0.26449056997 -0.93185480127 0.24837747029 0.34696991157 -0.87581155004 0.33550858301 
0.46828015659 -0.7640343578 0.44380761039 0.55801510525 -0.56573360758 0.60709523765 0.62428307468 -0.18316576607 0.75942145401 
0.56069047753 0.11772443105 0.81961402302 0.40433946079 0.39480085955 0.8250102313 0.19161026843 0.57652032968 0.7942983158 
0.015079743688 0.69502018666 0.71883206764 0.0045719972564 0.70937135655 0.7048201014 0.028959424027 0.59934185664 0.79996918106 
0.013526097975 0.4529973382 0.89140925296 0.024861702906 0.3146154039 0.94889358906 0.027250989728 0.23185855306 0.97236772619 
-0.045359500995 0.22524440463 0.97324584451 -0.082457203806 0.18578768219 0.97912396901 -0.11964773264 0.18747550881 0.97495505213 
-0.19829675738 0.16346145986 0.96641541128 -0.26666914239 0.093269531394 0.95926449064 -0.28973536583 0.060096155448 0.95521823155 
-0.31535810901 0.032179116237 0.94842699643 -0.38668825358 -0.0060329479541 0.92219076014 -0.4304291698 -0.047731953012 0.90136140945 
-0.4248819377 -0.081867778969 0.90153924251 -0.4458177228 -0.14904677632 0.88262767717 -0.53154060517 -0.18442169087 0.8267122988 
-0.64929311701 -0.19408315336 0.73535717702 -0.7072069431 -0.19627016983 0.67921746154 -0.75782183552 -0.19072775841 0.62396232882 
-0.78968733117 -0.25235930949 0.5592036283 -0.82159323425 -0.32294398644 0.46977839355 -0.84125457128 -0.35140861465 0.41085609628 
-0.86727379395 -0.3555538364 0.3484503347 -0.89895044442 -0.3748037216 0.22673832661 -0.93036776318 -0.36449665249 0.039471705706 
-0.93014643769 -0.34533654244 -0.12478091569 -0.88763777629 -0.43270617136 -0.15768496243 -0.86496917885 -0.49461256207 -0.084774601633 
-0.8543536414 -0.50405374185 -0.12652936717 -0.82411709829 -0.53289035942 -0.19198664835 -0.80237073347 -0.56902955132 -0.18001826519 
-0.80092850594 -0.58090280069 -0.14513946576 -0.81712334185 -0.5685068733 -0.095443067973 -0.77418268357 -0.63151596846 -0.042763933868 
-0.74467225047 -0.66585192531 0.045874316676 -0.72889655878 -0.64409563886 0.23205735196 -0.65224758611 -0.65271591729 0.38540241012 
-0.58342278398 -0.65764664849 0.47656976495 -0.452261348 -0.67393595471 0.58418319221 -0.2811094904 -0.66529673612 0.69163408484 
-0.21015888805 -0.61138829826 0.76291388146 -0.17813657613 -0.54163366539 0.82152317847 -0.14113010775 -0.46378084811 0.87463684899 
-0.020732730701 -0.51753768554 0.85540919911 -0.020732730701 -0.51753768554 0.85540919911 
FrenetNormal 3 104 double
-0.36359244454 -0.87733051469 -0.31319594868 -0.36359244454 -0.87733051469 -0.31319594868 -0.43210129722 0.24391266054 0.86821373116 
-0.37721777799 0.086874873764 0.92204094501 -0.44224034657 -0.35435308348 0.82392801148 0.45011316272 0.88994625967 -0.073442464818 
-0.056072377976 -0.69375583255 -0.71802418708 0.16784428797 -0.54298789394 -0.82279550438 -0.16582493165 -0.97220143044 -0.165307201 
0.052479207041 -0.98119149491 -0.18576647475 0.49637598085 -0.44011160006 -0.74827312201 0.23241235367 0.90153428708 -0.36499373566 
-0.040510356194 -0.97129936192 0.23438528232 0.57995556648 -0.73055270726 -0.36047785344 0.79073894146 -0.29548961986 -0.53611361764 
0.69361995724 -0.70145384131 0.16387148447 0.56600955885 -0.60675963294 0.55810028412 0.41156333701 -0.45061216697 0.79218955725 
0.95611085935 0.12901502476 -0.26307251477 0.68685119099 -0.099786410692 0.71991535174 0.13784410141 -0.13302819118 0.98147975224 
0.903388656 0.36062521489 -0.23203101213 -0.73761728464 -0.14957545332 -0.65844356263 0.79443470618 0.49428385709 -0.35292629009 
0.49149851694 0.64985972758 -0.57975127625 0.57409727764 0.81348792825 -0.093003797777 0.52413778466 0.80013628203 0.29165306937 
0.10319008563 0.97907547787 -0.17539388489 -0.23216446097 0.92355082112 -0.30521065491 -0.42741979927 0.86041854242 -0.27747476833 
-0.49356305794 0.86818261803 0.051521350857 -0.5863673087 0.76479829714 0.26693996324 -0.55298550944 0.43023393717 0.71351649291 
-0.53850075866 0.1054278171 0.83600353367 -0.32861504132 -0.13579880191 0.93465011636 -0.99233291197 -0.10316862608 0.068056053503 
-0.46853639909 -0.30698788682 0.82839126026 -0.33729099628 -0.43841684927 0.8330818988 -0.63875783486 -0.50851751842 0.5774065828 
-0.078595019275 0.44689220213 -0.89112860049 0.20475741267 0.41791744999 -0.88510982762 -0.42961761839 0.14065651007 -0.89198904037 
0.95604652445 0.29320692082 0.0021782262755 -0.0078106374128 0.22871984746 -0.97346095213 -0.51521745526 -0.022311167768 -0.85676903865 
0.96365547347 0.25904827667 -0.065284904863 0.95400165671 0.1816407887 -0.23851092822 -0.38739172361 -0.058280647883 -0.92007120299 
-0.65761276745 -0.23545387703 -0.71561646144 -0.072399615297 -0.27600873214 -0.95842447563 -0.83069020106 -0.45304970431 -0.32357341561 
-0.42522069776 -0.63516231276 -0.64479159009 -0.21901311322 -0.8060529035 -0.54982903979 -0.071158874001 -0.98141565354 -0.17821259677 
0.41362986019 -0.8973132148 -0.15407573882 0.55369056007 -0.82362241215 0.122771682 0.94128128702 -0.33716157596 0.017652489715 
0.4030450715 -0.66214628968 0.63175704302 -0.37613166391 0.65428811452 -0.65607319303 -0.02659247225 0.80048352149 -0.59876453823 
0.21610177623 0.86909737046 -0.44493795407 -0.32536149643 0.90005509136 -0.28989779087 0.80801740993 -0.57780010877 0.11512992464 
0.71302332072 0.68965631361 -0.12638003484 0.58153356232 0.80683173478 -0.1041214082 0.92509550297 -0.33541731477 0.17802678265 
0.78916361176 0.61138920713 0.058515222595 0.54728753691 0.83392257351 0.07105978708 -0.38362711897 -0.92164109092 -0.058377505316 
0.59840126992 0.78242274979 0.17242552238 0.90275876512 0.20182330966 0.3798604529 0.083057830106 0.9922695849 0.092208826769 
-0.53485772552 -0.78077923713 -0.32297212932 0.31586274331 0.89641540669 0.31091823047 0.84664198798 -0.14532276697 0.51193616553 
0.57979081475 0.49943004393 0.64374858629 0.68967132373 -0.402946341 0.60165414608 0.55848345433 0.30483305219 0.77147458904 
0.052731113351 0.88019130866 0.47168070752 0.49493384154 0.004843602286 0.86891716062 0.021171971823 0.73794870504 0.67452461507 
0.46302147906 -0.31896796032 0.82696466081 0.03194581556 0.46013706885 0.88727298096 0.20457300302 -0.42677155896 0.88091765954 
-0.27262256472 0.42184880671 0.86470834475 -0.35386282778 0.85993849746 -0.36781364808 0.094910234474 0.0046431686159 -0.99547500641 
-0.18804905681 0.072870960071 0.97945258967 -0.49946880533 0.84354499735 -0.19738984257 -0.46314932611 0.78389472571 -0.41352359151 
0.40161544412 -0.34141203429 -0.84978989044 0.2376338131 -0.18134709592 -0.95427637594 -0.60763224182 0.76042463574 -0.22921045365 
0.26466567807 -0.35769490932 -0.89554811747 -0.3555612877 0.066486654324 -0.93228520072 -0.57787641652 0.099142209702 -0.81008003894 
-0.62924024099 -0.0049791209353 -0.77719490958 -0.8621890088 0.16275097201 -0.47973141883 -0.62423888806 -0.42062917147 -0.65832887734 
-0.61677718517 -0.52254932716 -0.58866637796 -0.080038871459 -0.82413433679 -0.56071059734 -0.72535240518 -0.55282540109 -0.41018040446 
-0.72881567565 0.59351391133 0.34142195007 -0.72881567565 0.59351391133 0.34142195007 
FrenetBinormal 3 104 double
0.60548052476 0.032939060823 -0.79517818909 0.60548052476 0.032939060823 -0.79517818909 -0.45260785292 -0.891354776 0.025155412466 
-0.40547154241 -0.91059261319 -0.080086959632 -0.22914898401 -0.84351445784 -0.48577165679 -0.22015785441 0.19030351047 0.95672101108 
0.5022808537 0.60192553824 -0.62080559793 0.48757762033 0.77112696993 -0.40942796729 0.47602121217 0.06789403088 -0.87680910473 
0.48214756208 0.18779993499 -0.855724788 0.20461102004 0.89698819082 -0.39185011931 -0.55201766499 0.43123909781 0.71365911895 
0.59860753506 -0.21141308458 -0.77264061933 0.33125160925 0.61574007385 -0.71493813217 -0.0036683503462 0.87347992253 -0.48684634962 
0.60119677124 0.43840154258 -0.6681066754 0.80267009188 0.25120145679 -0.54094228132 0.9080719268 0.12874412178 -0.39853522664 
-0.29133696318 0.32292311578 -0.90046845318 0.70953463603 0.30666952963 -0.63444022561 0.96167288915 0.25512424917 -0.10048319146 
-0.27244410619 0.064822119059 -0.95998557379 -0.55991946888 -0.40950911629 0.72027249847 -0.45130704368 0.091558050857 -0.88765932409 
-0.68964655971 -0.1160795919 -0.71478189053 -0.44207665425 0.21234997745 -0.87147904097 -0.26848119843 0.48024506354 -0.83503444542 
-0.48492000459 -0.10444092893 -0.86829987994 -0.45964132033 -0.38070786936 -0.80236611023 -0.42854190644 -0.46307737944 -0.77582934662 
-0.53449085692 -0.25606015201 -0.80545187467 -0.58612583543 -0.17311696054 -0.79150933224 -0.78236639884 0.026392116264 -0.62225900891 
-0.83623745918 0.055065595366 -0.54559572219 -0.94440976592 0.036646544021 -0.32672193812 -0.089828791907 0.2238392852 -0.97047759508 
-0.87294209088 0.016722615526 -0.48753713716 -0.92127403754 -0.028287399628 -0.38788396561 -0.72777631798 0.1558150608 -0.6678797031 
0.94544646728 0.31689943808 0.075536240653 0.92880167812 0.20239180866 0.31042712271 0.85160782587 0.39162786287 -0.34841315695 
0.079721181163 -0.26707782006 0.96037178806 0.96433860244 0.2592738185 0.05318032422 0.81219729793 0.30647566825 -0.49639521957 
0.092781043387 -0.095366423626 0.99110893611 0.25212791034 -0.05564124901 0.96609293975 0.91078955185 0.13038414121 -0.39174273185 
0.72297931384 0.06977681497 -0.6873369682 0.96166679994 0.23551180253 -0.140467636 0.43539139901 -0.16643345288 -0.88472268844 
0.77453279668 0.11322692501 -0.62231713002 0.80040764524 0.17385109149 -0.57369277443 0.7779505494 0.057215532297 -0.6257150514 
0.71731201521 0.42540563333 -0.55180931486 0.72796728233 0.40715894133 -0.55162055106 0.27798389113 0.74427574269 -0.607271418 
0.91505588445 0.28019498782 -0.29010945716 -0.92655494616 -0.26210559266 0.26980843213 -0.99922679717 -0.0039332820928 0.039119523416 
-0.97627714661 0.19865339727 -0.086138033231 -0.94526281656 -0.30152608534 0.12474064089 0.5885280357 0.78255264723 -0.20309137234 
-0.69967153706 0.68821444861 -0.19188697961 -0.80933276558 0.56080788947 -0.17457086145 0.36039246726 0.92322703521 -0.13330082891 
-0.58129096835 0.77426325532 -0.25023433332 -0.79332459967 0.54394295281 -0.2734266696 0.87686010936 -0.38336164602 0.29008653362 
-0.7365223576 0.62191570578 -0.26599938284 -0.18841126969 0.97940336696 -0.072596406499 -0.89879481899 0.11455449156 -0.4231372612 
0.73034413291 -0.61942025284 0.28795138114 -0.83754240814 0.41740205692 -0.35255955164 0.02572798549 0.97204420339 0.23338409848 
-0.49220022282 0.84433486296 -0.21174886033 0.15560142944 0.89393079526 0.42032835789 -0.33734596018 0.93311292589 -0.12449084579 
-0.61123919105 0.40196770899 -0.6817687381 -0.28288699144 0.94640568528 0.15585643694 -0.54022448474 0.57614554957 -0.6133627082 
-0.18288596519 0.87854476819 0.44126161631 -0.43688392434 0.80485778132 -0.40166701197 -0.30424613665 0.82765223783 0.4716206755 
-0.24597670961 0.83832347977 -0.48652769869 0.2947546051 -0.27068644196 -0.91643252502 0.49276806616 -0.86910117618 0.042927596495 
-0.48447642633 0.86059261472 -0.15704440083 0.26713652093 -0.066781002396 -0.96134196668 0.37642251235 -0.24842388922 -0.89251983926 
0.44409296709 -0.73891119831 0.50674616682 0.52520435554 -0.80244200153 0.28327940113 0.17726881045 -0.1514660191 -0.97243704881 
0.61271144777 -0.65474847491 0.44259362441 0.58505211501 -0.7620500855 -0.2774773683 0.49054248913 -0.75108771363 -0.44185440225 
0.513492526 -0.75331009159 -0.41091280298 0.22823186938 -0.7206403056 -0.65466614678 0.72890552546 -0.61680738729 -0.29706124274 
0.7585638705 -0.59426134776 -0.2672719681 0.98074519591 -0.16563685409 0.10345672171 0.67375528271 -0.69230874675 -0.25838424523 
-0.68439598538 -0.61635702406 -0.38949474205 -0.68439598538 -0.61635702406 -0.38949474205 
SiphonLabel 1 104 int
0 0 0 0 0 0 0 0 0 
0 0 0 0 0 0 0 0 0 
0 0 0 0 0 1 1 1 1 
1 1 1 1 1 1 1 1 1 
1 1 1 1 1 1 1 1 1 
1 1 1 1 1 1 1 1 1 
0 0 0 0 0 0 0 0 0 
0 0 0 0 0 0 0 0 0 
0 0 0 0 0 0 0 0 0 
0 0 0 0 0 0 0 0 0 
0 0 0 0 0 0 0 0 0 
0 0 0 0 0 
