# vtk DataFile Version 5.1
vtk output
ASCII
DATASET POLYDATA
POINTS 99 float
104.559 70.7543 32.527 104.171 70.3359 31.9923 103.704 69.9507 31.6662 
103.161 69.4429 31.2292 102.554 68.763 30.8396 102.205 68.3351 30.6085 
101.604 67.7015 30.2659 101.144 67.2557 30.1993 100.571 66.5191 30.0386 
100.168 65.8194 29.7553 99.8549 65.0585 29.412 99.7491 64.2445 29.0344 
99.7447 63.5854 28.6609 99.9171 62.7713 28.2732 100.085 62.2506 27.9709 
100.251 61.7545 27.6989 100.488 61.2693 27.2935 100.727 60.8057 26.7474 
101.253 60.2891 26.1244 101.618 60.0075 25.8024 102.354 59.5711 25.3068 
102.9 59.3237 24.8952 103.339 59.2111 24.5369 103.71 59.2124 24.1328 
104.164 59.3619 23.5407 104.623 59.7398 22.7722 104.816 60.1332 22.3138 
104.919 60.5572 21.9308 104.96 61.1754 21.4759 104.878 61.8039 21.0881 
104.707 62.7171 20.8177 104.452 63.4615 20.6881 104.061 64.2678 20.695 
103.589 65.1297 20.7867 103.181 65.9111 20.9145 102.93 66.4782 21.0218 
102.643 67.1712 21.2064 102.484 67.953 21.4999 102.437 68.4264 21.6732 
102.389 69.3578 21.9476 102.449 70.1887 22.1772 102.543 70.7919 22.2588 
102.789 71.634 22.2398 103.134 72.5204 22.0083 103.507 73.0981 21.7012 
103.907 73.5045 21.3042 104.375 73.92 20.5423 104.654 74.093 20.0317 
105.168 74.1572 19.2385 105.405 74.2033 18.697 105.621 74.2084 18.0651 
105.835 74.2434 17.4903 106.003 74.2793 16.9225 106.188 74.3173 16.0418 
106.284 74.3874 15.2992 106.307 74.4108 14.9621 106.324 74.4571 14.143 
106.356 74.4941 13.1852 106.397 74.5352 12.4519 106.434 74.6014 11.8279 
106.366 74.7598 10.9488 106.274 74.9061 10.2034 106.301 75.2048 9.27846 
106.376 75.3623 8.78961 106.522 75.606 7.9817 106.6 75.8916 7.26703 
106.761 76.2784 6.51278 106.961 76.6487 5.86867 107.308 77.1169 5.15269 
107.733 77.6395 4.45516 108.194 78.1528 3.83032 108.751 78.7429 3.27746 
109.209 79.1665 2.93095 109.645 79.5528 2.64162 110.429 80.1175 2.38329 
111.162 80.5886 2.13564 111.541 80.8574 2.00708 112 81.1775 1.85716 
112.806 81.7016 1.63824 113.613 82.2317 1.60134 114.461 82.7063 1.692 
115.24 83.1584 1.73485 115.909 83.564 1.72571 116.672 83.9831 1.78726 
117.44 84.365 1.8773 118.257 84.6797 2.06567 119.073 85.0297 2.28856 
119.877 85.4432 2.48586 120.401 85.768 2.58974 120.94 86.0618 2.67462 
121.823 86.4799 2.79538 122.493 86.8304 2.90999 122.969 87.1344 2.986 
123.585 87.5263 3.02026 124.38 88.0195 2.9823 124.899 88.4429 2.89844 
125.617 89.0131 2.74223 126.113 89.3716 2.59004 126.79 89.9194 2.29759 

LINES 2 99
OFFSETS vtktypeint64
0 99 
CONNECTIVITY vtktypeint64
98 97 96 95 94 93 92 91 90 
89 88 87 86 85 84 83 82 81 
80 79 78 77 76 75 74 73 72 
71 70 69 68 67 66 65 64 63 
62 61 60 59 58 57 56 55 54 
53 52 51 50 49 48 47 46 45 
44 43 42 41 40 39 38 37 36 
35 34 33 32 31 30 29 28 27 
26 25 24 23 22 21 20 19 18 
17 16 15 14 13 12 11 10 9 
8 7 6 5 4 3 2 1 0 

CELL_DATA 1
FIELD FieldData 2
Length 1 1 double
77.470055469 
Tortuosity 1 1 double
0.83861249697 
POINT_DATA 99
FIELD FieldData 7
MaximumInscribedSphereRadius 1 99 double
1.590383596 1.6081362219 1.6226176429 1.6885514214 1.8162495916 1.9146846914 1.9781083872 1.9414746451 1.8555564546 
1.830265486 1.844474456 1.7932351755 1.7716205658 1.7483917093 1.7604587751 1.7616505208 1.7051579979 1.609997973 
1.5243550602 1.4530868982 1.4030040927 1.4907935196 1.587089068 1.6377860146 1.7017468073 1.8539993756 1.9383093221 
1.9989008791 2.0627540175 2.1660008944 2.2980246204 2.3644102619 2.3243668636 2.2545960845 2.2903627151 2.3706815393 
2.4997516229 2.5336165126 2.5040390824 2.3749493738 2.2593355689 2.2218481736 2.2256633884 2.2980544751 2.3556655432 
2.3499721289 2.2583680692 2.2385841958 2.1769393309 2.1442662295 2.1575541036 2.1320610414 2.1402442853 2.1127357048 
2.0084804401 1.9630652922 1.9101616031 1.8949763841 1.9250450609 1.9724885462 2.0535108296 2.1048849401 2.1233147614 
2.0963234321 2.0775116381 2.1370201844 2.1869754002 2.2267997533 2.2674411801 2.3462652299 2.4798243252 2.5292228294 
2.5463250765 2.541584823 2.4824833261 2.5003224412 2.5216086679 2.5350323408 2.5221556189 2.469603061 2.4846780983 
2.4834107965 2.5453702467 2.5367248342 2.50456488 2.4267010289 2.3005311615 2.2115473098 2.2237092131 2.2454593085 
2.1992711575 2.1329283127 2.0711961506 2.053312341 2.05227572 2.0268075249 1.9990341387 1.9296894726 1.8039854392 

Curvature 1 99 double
0 0.38820284293 0.084347576443 0.16349303651 0.052796416476 0.096470593373 0.34998815134 0.19424781776 0.23935515014 
0.15694680112 0.27245979199 0.1666603666 0.24952997681 0.14887983207 0.046207388402 0.31553278872 0.23207888828 0.30002912328 
0.17420501418 0.17066084535 0.14086831147 0.23943700022 0.43901253958 0.3304298066 0.26780714007 0.37466733886 0.29707434886 
0.23814254738 0.24277088221 0.32135301489 0.21093270557 0.25000841434 0.10511367821 0.058643420596 0.091363154947 0.10499474792 
0.26848820392 0.13840053505 0.10581581165 0.13199471453 0.21411127653 0.27283298831 0.25417145662 0.30884712466 0.36164562053 
0.33785400076 0.19358012741 0.30299731687 0.21110468634 0.17303549911 0.086748180386 0.11021057211 0.11294028966 0.11233469738 
0.12127179473 0.081743058861 0.023955081774 0.033565972832 0.073031674424 0.20201753352 0.055792724724 0.21917790891 0.15955887819 
0.045102970136 0.13725231485 0.1560652229 0.10985724165 0.15765963152 0.094487235411 0.080656476743 0.14593882315 0.12739637094 
0.073453021892 0.2695999098 0.056197332072 0.063730907056 0.019806920674 0.063295703808 0.19163898085 0.15421960508 0.051353753986 
0.073691467917 0.11185927381 0.061355128333 0.16175700302 0.054775648015 0.081297619059 0.11949934137 0.10259873723 0.071927682219 
0.055344520085 0.1299857469 0.13371987412 0.10607829286 0.19189483953 0.057480509749 0.11166661586 0.12407973373 0 

Torsion 1 99 double
0 0 -0.36967229323 0.14780401314 -0.92090427487 -1.8740072023 -0.45296463426 -1.2656026898 -0.058030902628 
0.55535666291 -0.1238478927 0.19839196642 0.0097785607765 -0.76510386865 -1.9850541744 -0.39459513741 0.38886157649 0.51213097719 
0.1200752438 -0.62457394438 -0.55080039671 -0.45645816862 -0.055041560047 0.16244753304 0.06419421552 0.01707112082 -0.12449503655 
-0.21077362369 0.50634963012 0.080599860199 -0.39877804837 0.13353455736 0.34004517736 1.3350735738 -0.27475336353 0.66474079017 
0.31759483947 1.1482943495 0.064822237467 0.35342680603 0.16362958136 0.10374605812 -0.067704253453 -0.091030262875 0.47539266168 
0.23819756926 -1.0400231504 0.1743409144 0.48981091759 -0.5060564953 -0.310073267 -0.8182774883 0.30873757187 -0.094699550741 
-0.62233335278 -0.095599914721 -2.6161338472 -1.3800539591 -2.0835262867 -0.24590456239 1.6539154435 0.39300130122 0.68731489199 
0.93509547755 0.64029158102 0.65481878556 0.36384991565 -0.036502222537 -0.14608969459 -0.18779361644 0.10606821627 0.24518336008 
-0.0089346394882 0.13834955279 2.5366913448 0.2721009578 2.4444467691 -1.2613136248 0.09282549833 0.34294019778 0.22488135859 
-0.16945536241 0.061685182399 0.1427361564 -0.2323856154 -2.3728526116 -0.41372493995 -0.51794974203 -0.93793426186 -0.38163626738 
-1.2110195008 -0.98461904457 -0.80978132391 0.8800192087 0.13121623931 -2.2641002414 0.56043427301 0 0 

FrenetTangent 3 99 double
0.58726683866 0.55237933629 0.59160352353 0.58726683866 0.55237933629 0.59160352353 0.65212261082 0.57631822004 0.49253772415 
0.62222814426 0.64254313621 0.44718056152 0.60119188185 0.69713753361 0.39059900209 0.6188057434 0.69105711676 0.37352310947 
0.67689487073 0.68827374886 0.26094555104 0.65096288644 0.7454583524 0.14331491661 0.54452288419 0.80133555542 0.2477017485 
0.41082604551 0.83786666282 0.35944598435 0.23500319289 0.88380295339 0.40455634824 0.066509519002 0.88890529231 0.45323709599 
-0.10076661396 0.88390855131 0.456674679 -0.22061227668 0.86645833179 0.44786178968 -0.27513556595 0.83708686279 0.4728488178 
-0.32059219686 0.77949879345 0.53814707498 -0.33368538539 0.66566073019 0.66749521036 -0.44805800499 0.57440794819 0.68505440165 
-0.58465341607 0.52344449366 0.61982759307 -0.7112467244 0.46383341478 0.52819187835 -0.74836642534 0.39926982551 0.52965205546 
-0.75707828066 0.27671847134 0.59182714078 -0.72438290166 0.099628075622 0.68216102082 -0.63356461236 -0.11579594018 0.76497528209 
-0.53064787174 -0.30635213132 0.79029184979 -0.4103794276 -0.48535984 0.77201978674 -0.24427776605 -0.67568525555 0.69554137796 
-0.10695591542 -0.77487734257 0.62299722 0.026875865037 -0.82821046815 0.55977237189 0.14896845261 -0.90943665124 0.38824396649 
0.24228641984 -0.94312766103 0.22761262215 0.38340821997 -0.92070155664 0.072847652389 0.45919548227 -0.88678888016 -0.052392662546 
0.46909487174 -0.87537687532 -0.11689879156 0.43363641977 -0.8876935581 -0.15478889609 0.3842231853 -0.89942337871 -0.20835097722 
0.27630619869 -0.9142291163 -0.29637814945 0.15191489313 -0.92640494634 -0.34452248206 0.064714892668 -0.95079721346 -0.30297960581 
-0.0068177662342 -0.96142990653 -0.27496554855 -0.10454789021 -0.97189724903 -0.21091580304 -0.22888715741 -0.97254067447 -0.042134376351 
-0.32056945302 -0.93743269974 0.13584976723 -0.41812306859 -0.85253641557 0.31361562404 -0.53858976128 -0.68525040056 0.49025805202 
-0.5211168233 -0.49371929136 0.69618856484 -0.46993374149 -0.37050103387 0.80118116709 -0.51343168898 -0.15361943327 0.84426830479 
-0.48922889131 -0.071843134505 0.8691913805 -0.36023323825 -0.040653413773 0.93197602652 -0.33515020947 -0.03128656051 0.94164509674 
-0.31646497526 -0.058710925612 0.94678558642 -0.23652180671 -0.049474492489 0.9703657607 -0.17003685281 -0.06548872754 0.98325922078 
-0.10918500928 -0.085756731955 0.99031531174 -0.034840985289 -0.060183474116 0.99757909721 -0.027675707007 -0.046849333922 0.99851850016 
-0.042730295265 -0.04606226771 0.99802424287 -0.05702834845 -0.07866152713 0.99526887403 0.020522831396 -0.14777040889 0.98880873765 
0.096149747938 -0.1834825911 0.97830944222 0.037448786106 -0.25725035873 0.96561889032 -0.06871233688 -0.30635936704 0.94943275327 
-0.16105163941 -0.29171575839 0.94284902596 -0.13731160608 -0.32525537255 0.93560379727 -0.14599599746 -0.4117592641 0.89952180471 
-0.2217748782 -0.46425635522 0.85748582498 -0.32430909841 -0.49640097201 0.80523889851 -0.40786824688 -0.52406247299 0.74766437496 
-0.46630780863 -0.54551572994 0.69639759907 -0.53362651442 -0.57822966118 0.61716545759 -0.59942381239 -0.59876591205 0.53119720981 
-0.65569492728 -0.59387808077 0.4662327611 -0.74352258133 -0.57948139503 0.33372965687 -0.79617427044 -0.54366557585 0.26558289239 
-0.80145660021 -0.53310981788 0.2710373407 -0.78954096823 -0.55479470046 0.26235071912 -0.8083027223 -0.53951213948 0.23574002732 
-0.82982197327 -0.54229199715 0.13158602703 -0.85448988485 -0.51872596713 -0.027756219302 -0.8666330463 -0.49384756077 -0.071145975133 
-0.86022149324 -0.50952703452 -0.020029569915 -0.86620643832 -0.4986799006 -0.031697996038 -0.8826897324 -0.46176192315 -0.087377128816 
-0.90385474137 -0.39728936854 -0.15876953159 -0.90196820544 -0.36719236877 -0.22720721972 -0.88073090084 -0.414925025 -0.22836441039 
-0.85725255935 -0.47675664565 -0.19447660607 -0.85427496004 -0.49719112947 -0.15170785551 -0.88692449103 -0.44376901473 -0.12819519799 
-0.88803691448 -0.43961964248 -0.1346291516 -0.85938018156 -0.49094113638 -0.14297728541 -0.84019441599 -0.53560280146 -0.084870385945 
-0.84710615691 -0.531419059 0.0022232070451 -0.81787621825 -0.57037835074 0.075809159173 -0.77092131464 -0.61911409079 0.14959301194 
-0.77869507869 -0.59543069801 0.19772773782 -0.75798060107 -0.58560630171 0.28728151315 -0.75798060107 -0.58560630171 0.28728151315 

FrenetNormal 3 99 double
-0.6613110061 -0.093969559085 0.74420257671 -0.6613110061 -0.093969559085 0.74420257671 0.75478093029 -0.43271391081 -0.49301563735 
0.1213971404 -0.64352012449 0.75574108244 0.70106173036 -0.69471570317 0.16088052085 -0.78553524425 0.54661957609 0.29007140341 
-0.28515209236 -0.081631692751 0.9549997649 0.71955532128 -0.54580035673 -0.42935080088 0.62457441648 -0.19028024218 -0.75743001506 
0.88018195303 -0.26170311058 -0.39596870011 0.9711476462 -0.196123209 -0.13567584966 0.8069499291 0.21925056955 -0.548416812 
0.93503976233 -0.072689129489 0.34701143111 0.70333709892 0.45945081656 -0.54242222709 0.52075354839 -0.28367361188 0.80519874799 
0.34294660971 0.62511049967 -0.70115938708 -0.21153920818 0.63714618243 -0.74114499635 0.89323629107 0.3193944245 0.31641133025 
0.80145949923 0.25411931017 0.54137422112 0.70279896865 0.45403573311 0.54765423647 0.065597054781 0.83916500574 -0.53990658409 
0.060737452594 0.93175853595 -0.35796227809 -0.33908550567 0.81004636803 -0.47837840826 -0.38379668425 0.90554644572 -0.18079197938 
-0.54776757915 0.83547612634 -0.043935424767 -0.56121363889 0.80170265678 0.20569905598 -0.705585008 0.615878096 0.35049103748 
-0.77824832901 0.45520566493 0.43257061967 -0.89453638677 0.23001761559 0.38327085626 -0.2468094829 0.34600253216 0.90518911112 
-0.77431893125 -0.046617316166 0.63107607984 -0.55638312298 -0.16729680089 0.81391006928 -0.42870665023 -0.27287585194 0.86124873148 
0.37924711719 0.080129268964 0.9218193556 0.85222809602 0.3482298485 0.39043980967 0.36379738308 -0.059919531486 0.92954887651 
0.86420437811 0.10142570481 0.49281195121 0.98459407762 0.17237392511 -0.029355276624 0.56908721036 0.28456858298 -0.77146644035 
0.99024688027 0.031773947164 -0.13565224805 0.52212336891 0.12686087326 -0.84338218292 0.6340153267 -0.11609163447 -0.76455692915 
0.3040518913 -0.23766576894 -0.92253315912 0.55357843336 -0.51286841614 -0.65613787106 0.31342285041 -0.70304654817 -0.63835074054 
-0.37705996907 -0.59860246823 -0.70675375114 -0.087232713117 -0.88371056908 -0.45983266941 0.34390673227 -0.93821713142 0.038428814871 
-0.87193942211 0.062469092024 -0.48561224934 -0.70358127841 -0.64416035465 -0.30005136588 0.42332324294 0.88788310054 0.18016945289 
-0.94809501354 0.052273809855 -0.31366111346 -0.94572973187 -0.21731599174 -0.24159684186 -0.82725299577 0.55167898442 -0.10631452924 
-0.92094955991 -0.36619247221 -0.13324781952 -0.96336832398 -0.26356512589 -0.0495469148 0.53706270062 -0.84318134332 -0.02467545104 
0.79193395947 0.6074567429 0.061942790943 0.067354673258 0.99431688075 0.082445670921 -0.88089232016 0.46510399504 0.087789487272 
-0.93896614255 0.30943075269 0.15031697319 0.77949862171 0.6121535417 0.13285307727 0.99761275333 -0.02766830132 0.06327131658 
0.7962170064 -0.60289729809 -0.050530452939 -0.62815417361 0.75892086082 0.17164341289 0.6769792798 0.62144320558 0.39434426199 
0.83314035566 0.36669952541 0.41401522415 0.86294849608 0.1934381621 0.46679928295 0.69147334605 0.35745471566 0.62776646769 
0.75756053904 0.16024650423 0.63278992372 0.51536320254 0.35627536117 0.77940274345 0.69627987158 -0.062707195476 0.71502597719 
0.57900409982 0.00080961892218 0.81532422809 0.49727291657 -0.14545775584 0.85531379488 0.47518222082 -0.8335421871 -0.28179652118 
-0.51020448096 0.84593202855 0.15521079437 0.54513808493 -0.43767745266 0.71502651405 0.50570963129 -0.43115362271 0.74723779511 
0.096815778728 0.09231820326 0.99101163179 0.22520131016 -0.41806164447 0.88006183381 -0.10502136272 0.31994846054 -0.94159624891 
-0.13419622918 0.26410565263 -0.95511233702 0.20292709071 -0.40903489167 0.88966906951 0.30757674929 -0.70820439492 0.63548648948 
0.15139322078 -0.64408202402 0.74982560575 -0.41903279137 0.61730740719 0.66584013455 -0.30129652954 0.8628763109 -0.4057891982 
-0.32943468832 0.79812621521 -0.50444755003 0.50590047238 -0.72811404754 -0.46250907647 0.46191443246 -0.8520439418 -0.2462847505 
-0.43342809974 0.70276599334 0.56414540764 -0.46278325664 0.86567853049 -0.19087257327 0.078382140505 0.034916035242 -0.99631175369 
0.070499602179 -0.11652412247 -0.99068256015 -0.5128457951 0.66287467528 -0.54551476179 0.069922668761 -0.31571093148 -0.94627555614 
0.17297767062 -0.50668764757 -0.84459833842 -0.52514427872 0.28663175439 -0.80129003731 -0.52514427872 0.28663175439 -0.80129003731 

FrenetBinormal 3 99 double
0.46667484765 -0.8282794159 0.31010932874 0.46667484765 -0.8282794159 0.31010932874 -0.071005969726 0.69326472624 -0.71717652751 
0.77336593589 -0.41595692985 -0.47841923218 0.38351110991 0.17711394919 -0.90639388655 -0.0037191360663 -0.47291341746 0.88110105414 
0.6786026954 -0.72084361228 0.14100662549 -0.24184180802 0.3826144475 -0.89169429989 -0.55982285312 0.56714615141 -0.60410563321 
-0.23770084116 0.47905212373 -0.84498956968 -0.040567827391 0.42476820322 -0.9043927382 -0.58686309801 0.40221458085 -0.70271981269 
0.33992165624 0.46197615023 -0.81916500428 -0.67575672298 0.19533280943 -0.71077278008 0.80815602589 0.46777651295 -0.35786725436 
-0.88295428319 -0.040230513366 -0.46773201686 -0.91864314452 -0.388510662 -0.071793025652 -0.037053373372 0.7536860823 -0.65618925385 
0.12586919468 0.8132830001 -0.56809128455 0.014202347918 0.76072998915 -0.64891307347 -0.66003387778 -0.36930434546 -0.65419384024 
-0.65049476462 -0.23505939313 -0.72222132543 -0.60024197756 -0.57784005416 -0.55300130215 -0.67178567053 -0.40813837713 -0.61816428074 
-0.64681026233 -0.45621049303 -0.61115339368 -0.71876837502 -0.34885337297 -0.60139283937 -0.66519032578 -0.40514640107 -0.62719871189 
-0.61878103602 -0.43858055883 -0.65173393564 -0.44618644155 -0.51103749077 -0.73468247727 -0.95754554945 -0.23066691381 -0.17291412781 
-0.58457461754 -0.32914592635 -0.74157634515 -0.73718108856 -0.35259101521 -0.57640577605 -0.77804249055 -0.37302044375 -0.50547564871 
-0.7975723324 -0.47675426208 0.36957238557 -0.29268879003 -0.3012243674 0.90752253563 -0.84854228412 -0.4329517705 0.3041853982 
-0.42048267196 -0.39229829124 0.81810535585 0.086581565989 -0.33475529173 0.93831899005 0.81972661886 -0.12249645078 0.55950235913 
0.13915686897 -0.27320862195 0.9518363382 0.84643778642 -0.19829789751 0.49418722925 0.73867126293 -0.20171110258 0.64317757767 
0.89709958934 -0.25443057155 0.36121657087 0.72022497709 -0.10073553423 0.68638788925 0.78210433184 -0.19015109686 0.59342680634 
0.76567815445 -0.63080610838 0.12578003594 0.87838074453 -0.2859800937 0.38296560373 0.78620357431 0.31008012518 0.53454116372 
-0.019409690188 -0.99545777237 -0.093204545815 0.6125401201 -0.76380935936 0.20344498967 -0.8417076506 0.45900408593 -0.28432987888 
-0.031076755419 -0.99690544989 -0.072206365756 0.22282887878 -0.97484667221 0.0046104724768 -0.53548104511 -0.83148152397 -0.14798150432 
0.37407290982 -0.92657911493 -0.038994896077 0.26590896581 -0.96276236624 -0.048795983917 0.84308819873 0.53558413176 0.04849666961 
-0.60910978133 0.79301612405 0.010521468064 -0.99609794471 0.071737750264 -0.051406028087 -0.47287158264 -0.87283571195 -0.12062456747 
-0.33029957479 -0.93305238227 -0.14253225191 -0.62528352543 0.74772340763 0.22345070711 0.006885431001 0.95151374311 0.30752916531 
0.58318165965 0.74257441665 0.32936664612 -0.76587718142 -0.5641347974 -0.30851916204 -0.72137661693 0.66653030739 0.1880242694 
-0.50664884404 0.8062242211 0.30546596233 -0.38748355037 0.84626695105 0.3656347163 -0.59624500408 0.77303599571 0.21658080352 
-0.45679213795 0.8226382232 0.3385369942 -0.67055463057 0.73397433603 0.10788031083 -0.3948232941 0.79846552224 0.45449683853 
-0.48458065865 0.8045546406 0.34332698053 -0.4470948641 0.80189984043 0.3963115295 0.37457761293 -0.098158871044 0.92198505841 
-0.31202356575 -0.013889750163 -0.94997282554 -0.28186792623 0.70756009481 0.64800400029 -0.30150369474 0.72321034629 0.6213391321 
-0.54956546259 0.8351028315 -0.024105251595 -0.46811473656 0.74575319808 0.47404721385 0.48776805598 -0.80854657832 -0.32914245283 
0.49194547935 -0.818920268 -0.29556596558 -0.45662566953 0.76420469387 0.45550431809 -0.35532433016 0.5340622261 0.76715197911 
-0.40015834268 0.6536967982 0.64230350833 -0.10423471652 0.69577390677 -0.71065729753 0.36542233319 -0.28858568176 -0.88497730066 
0.39571559941 -0.36837161321 -0.84125591764 0.11949478941 -0.47185899859 0.87353882613 6.5599255253e-05 -0.27765118911 0.96068195199 
-0.15339661295 0.55933400447 -0.81462565057 0.21747956435 -0.097864612908 -0.97114631062 0.53659070378 -0.84374789455 0.0126454362 
0.52672665113 -0.83905656103 0.13617313382 0.26089783836 -0.48504195888 -0.83466557139 0.63308067972 -0.71904405312 0.28667839584 
0.60308598052 -0.62348208609 0.49755139275 0.38689649123 -0.75822654713 -0.52478910841 0.38689649123 -0.75822654713 -0.52478910841 

SiphonLabel 1 99 int
0 0 0 0 0 0 0 0 0 
0 0 0 0 0 0 0 0 0 
0 0 0 1 1 1 1 1 1 
1 1 1 1 1 1 1 1 1 
1 1 1 1 1 1 1 1 1 
1 1 1 1 1 0 0 0 0 
0 0 0 0 0 0 0 0 0 
0 0 0 0 0 0 0 0 0 
0 0 0 0 0 0 0 0 0 
0 0 0 0 0 0 0 0 0 
0 0 0 0 0 0 0 0 0 

