# vtk DataFile Version 5.1
vtk output
ASCII
DATASET POLYDATA
POINTS 101 float
110.021 82.5086 40.322 109.411 82.3252 39.5731 108.984 82.045 39.1301 
108.556 81.6022 38.6193 108.173 81.0513 38.0364 107.93 80.5858 37.4203 
107.68 79.9944 36.6652 107.614 79.4693 36.0062 107.664 78.9615 35.269 
107.779 78.5758 34.5044 107.895 78.3794 33.9934 108.043 78.1106 33.2746 
108.263 77.7984 32.447 108.581 77.5869 31.6289 108.937 77.476 30.7655 
109.428 77.4065 29.984 109.986 77.448 29.2133 110.379 77.5236 28.7711 
111.001 77.7345 28.0389 111.247 78.2184 27.3496 111.309 78.8987 26.7603 
111.318 79.4905 26.3963 111.124 80.2828 26.2815 110.924 81.0541 26.3178 
110.602 81.8721 26.5505 110.295 82.4122 26.8262 109.948 82.9897 27.2532 
109.584 83.6283 27.8606 109.342 83.88 28.2894 108.98 84.3223 29.0664 
108.654 84.8418 29.689 108.518 85.5904 30.2585 108.599 86.2102 30.5964 
108.815 86.933 30.7714 108.991 87.6494 30.746 109.302 88.4659 30.4908 
109.738 89.1154 30.0114 110.195 89.599 29.3526 110.685 89.8323 28.6003 
111.007 89.8229 27.8719 111.319 89.652 27.1888 111.624 89.5971 26.2904 
111.852 89.6359 25.3592 112.001 89.6894 24.4838 112.012 89.9449 23.6466 
112.047 90.1243 23.1268 112.012 90.4531 22.217 112.002 90.759 21.5175 
111.988 91.0175 21.0175 112.044 91.3801 20.2164 112.21 91.7059 19.3838 
112.423 91.9847 18.6815 112.638 92.174 18.1427 113.044 92.4777 17.3921 
113.483 92.8892 16.8287 113.947 93.2487 16.3658 114.648 93.7679 15.9856 
115.337 94.3795 15.7489 115.788 94.7227 15.661 116.307 95.1452 15.5894 
117.094 95.7025 15.5093 117.8 96.1045 15.5531 118.599 96.543 15.6793 
119.51 96.8587 15.8222 120.411 97.1847 16.0694 121.097 97.475 16.302 
121.813 97.7939 16.6019 122.545 98.0696 16.8384 123.244 98.3458 17.1031 
124.039 98.6914 17.3389 124.835 99.119 17.6494 125.364 99.3774 17.8452 
126.026 99.7146 18.0442 126.368 99.9135 18.1493 126.953 100.345 18.1877 
127.376 100.703 18.1849 127.932 101.191 18.0529 128.419 101.727 17.7646 
128.933 102.3 17.3264 129.323 102.745 16.8633 129.844 103.338 16.2922 
129.909 103.663 15.8791 129.843 104.085 15.1788 129.685 104.59 14.3592 
129.58 104.915 13.7677 129.331 105.2 12.948 129.092 105.358 12.2854 
128.853 105.389 11.7958 128.501 105.384 11.0633 128.076 105.35 10.2283 
127.663 105.284 9.48287 127.13 105.241 8.72267 126.746 105.242 8.25834 
126.31 105.249 7.69328 125.9 105.284 7.17337 125.472 105.322 6.61542 
125.202 105.369 6.28192 124.746 105.479 5.71966 124.293 105.571 5.13696 
123.75 105.701 4.38182 123.643 105.699 4.20506 
LINES 2 101
OFFSETS vtktypeint64
0 101 
CONNECTIVITY vtktypeint64
100 99 98 97 96 95 94 93 92 
91 90 89 88 87 86 85 84 83 
82 81 80 79 78 77 76 75 74 
73 72 71 70 69 68 67 66 65 
64 63 62 61 60 59 58 57 56 
55 54 53 52 51 50 49 48 47 
46 45 44 43 42 41 40 39 38 
37 36 35 34 33 32 31 30 29 
28 27 26 25 24 23 22 21 20 
19 18 17 16 15 14 13 12 11 
10 9 8 7 6 5 4 3 2 
1 0 
CELL_DATA 1
FIELD FieldData 2
Length 1 1 double
80.328087623 
Tortuosity 1 1 double
0.78384763482 
POINT_DATA 101
FIELD FieldData 7
MaximumInscribedSphereRadius 1 101 double
1.5611112417 1.6183098635 1.571441325 1.4984180822 1.4974643113 1.5134517168 1.4348525949 1.4205392407 1.3787735021 
1.3418713452 1.3831945643 1.5073538046 1.6976275748 1.8042033479 1.9525236388 1.9740085596 2.0162384015 2.0735125557 
2.2525429672 2.2427650494 2.2539295969 2.3493279942 2.3177149795 2.3550120837 2.4091516698 2.4120298588 2.4222092327 
2.4596669163 2.4364194801 2.3549455001 2.2699232426 2.1191582454 1.9811778045 1.8456004246 1.7427473718 1.6617769201 
1.6500903406 1.7482593698 1.9247071762 2.0577116444 2.0712551871 1.9626729439 1.8376600154 1.8532343095 1.8004993912 
1.7775826747 1.7816291404 1.8732510801 1.9425142806 1.9976055305 2.0440234515 2.0975525883 2.161164492 2.2358744094 
2.2534174757 2.2256856561 2.2102075629 2.2330514322 2.2180139385 2.1995839422 2.2066517854 2.2057763351 2.1801016033 
2.1887474456 2.1842557313 2.1946918558 2.2576379657 2.2685071148 2.2657101407 2.2644375584 2.2186158637 2.1598844403 
2.0568034776 2.0121691063 1.971428031 1.9578243624 2.0052875814 2.0688775778 2.0096574792 1.9336026517 1.8892086517 
1.8260710483 1.7718976335 1.8142197205 1.881733202 1.9138070947 1.9126741597 1.9263961611 1.9605655749 2.0559240783 
2.1711783844 2.2979979536 2.3051740373 2.3139205862 2.3297532617 2.3814634713 2.4350527052 2.5432772696 2.6220015177 
2.6331291191 2.6114131104 
Curvature 1 101 double
0 0.30813945639 0.2329175539 0.14813781456 0.20567319063 0.059279006156 0.19283002707 0.17509547276 0.17781986866 
0.17491330795 0.030001028336 0.063655486839 0.17146227888 0.13036386483 0.18900448909 0.1447192024 0.16771713118 0.11562697282 
0.559799755 0.37074521263 0.21596899246 0.65585709128 0.23083478328 0.29009304356 0.26449707127 0.20248380666 0.14551357518 
0.35255517074 0.092267809589 0.18047708236 0.36152591873 0.36548626865 0.4213304824 0.35805634947 0.34163638358 0.37785936685 
0.28948173471 0.31662638031 0.36659199773 0.27342727734 0.22679676046 0.13814991511 0.079757445502 0.32408388928 0.088535514083 
0.13451820649 0.0806976016 0.099525203173 0.14176727388 0.14636485607 0.10758032039 0.13469312207 0.14948230676 0.2750165747 
0.14039762568 0.307841998 0.1905533516 0.16065923144 0.091484469378 0.085629335691 0.19043139633 0.098285127506 0.177187903 
0.10816445369 0.081776459977 0.080287303138 0.11028211326 0.058888504173 0.094243997715 0.11108243724 0.047899132392 0.088484991268 
0.090553477082 0.41366723447 0.13900789088 0.26598487115 0.30319956375 0.16752330039 0.17981804373 0.043532427616 0.63638786137 
0.35448060312 0.091749666449 0.05978074251 0.26061642913 0.13987538509 0.30946759736 0.091392485311 0.044023159766 0.060605629883 
0.12312943866 0.12139762617 0.052047438916 0.065464256914 0.02048188761 0.10807273089 0.073979142587 0.047155914177 0.046616099632 
0.29418098541 0 
Torsion 1 101 double
0 0 -0.74478912773 -1.0533161885 -0.20871533703 1.0580843288 -0.2934533791 -0.6302295369 -0.21903019231 
-0.013984180067 -3.626803982 -0.98254463263 -0.36918586253 0.33615389908 0.043260694915 -0.28278260694 -0.20124388509 -2.0094284789 
0.062034420723 0.38124262878 0.013199681106 0.045203048806 0.33513334489 -0.28208129636 0.1644353104 0.63163333868 -0.75161069227 
-0.021533882527 3.7164953015 -0.44958285704 -0.29120536816 0.18639141587 0.60542078259 0.11374516581 -0.47986216738 0.02630799571 
0.020096668806 0.14563676565 -0.017129668455 -0.20968450246 0.26483777156 -0.32682760895 0.93261950389 0.25559772626 1.7688225546 
0.090398102601 0.57389193897 0.49463710833 0.27311782128 -0.25510677459 -0.0271416576 -0.31361410795 -1.1902231851 0.047812827248 
0.27503116715 -0.35046132975 -0.049842889997 0.3440603814 -0.59204650344 -0.12743389471 -0.26829593888 0.5265478781 -0.037753032527 
-1.0632491647 -0.17616766021 0.64559250589 0.065790342747 -1.0477391896 0.41277116403 0.5336764664 1.7641257411 1.0948323556 
-2.4730446212 -0.053294072448 -0.15565494529 0.043275718006 0.051219746383 -0.4749867043 0.012297955862 -5.2615839572 -0.14245948897 
-0.23487972682 0.92951414756 0.98042604772 0.088842919153 0.094480998489 -0.10230776674 -1.2568113552 0.84200838038 1.0599106333 
0.38764004441 0.353946131 0.25676083698 -0.35371094456 -1.2004706648 0.13822975045 0.94444961778 0.013981135798 3.1335250575 
0 0 
FrenetTangent 3 101 double
0.62996751202 0.28154581784 0.72379063703 0.62996751202 0.28154581784 0.72379063703 0.58139108838 0.49150984553 0.648384511 
0.48087381884 0.58960177724 0.64894538648 0.36996278829 0.60072562886 0.70870039799 0.27372101264 0.58715719411 0.76178949628 
0.17274871963 0.610401332 0.77302528662 0.0093610237906 0.59473030923 0.80387077974 -0.094003487409 0.50903053594 0.85559994029 
-0.16224418663 0.40968026251 0.89768530478 -0.19667360358 0.34690975193 0.91704586454 -0.21765143595 0.34328198686 0.91366587433 
-0.29761201642 0.28948079407 0.90974059904 -0.36610408773 0.17522324652 0.91392812126 -0.45568338951 0.097029966931 0.88483774447 
-0.56003205553 0.014926045188 0.82833647146 -0.61500601859 -0.075766727101 0.78487387532 -0.64304094703 -0.18150201196 0.74401301071 
-0.48105285007 -0.38496994532 0.78764604782 -0.17501427542 -0.66288139195 0.72798232369 -0.044523697534 -0.79943675005 0.59909809132 
0.12498732331 -0.93764268088 0.32435223447 0.24370384639 -0.96862885721 0.048647427846 0.30786258674 -0.93809241737 -0.15875529647 
0.39824090596 -0.85905638974 -0.32159959587 0.44428003231 -0.75841423861 -0.47688897614 0.40665841655 -0.69588760125 -0.59192007794 
0.40557074978 -0.59568618633 -0.69330392639 0.39827106955 -0.45754619091 -0.79500417505 0.37548678173 -0.52492203524 -0.76384981093 
0.25656366315 -0.70424198325 -0.66198060075 0.033526668781 -0.83296054198 -0.55231575931 -0.20224684252 -0.91483905146 -0.34952213753 
-0.26186621212 -0.95992677286 -0.099833249429 -0.29822371118 -0.93889067254 0.17189218452 -0.41470813745 -0.81351383729 0.40769154673 
-0.48604354677 -0.61658045825 0.61934659856 -0.51309183449 -0.3888042299 0.76522417643 -0.47685707897 -0.13142989262 0.86909925185 
-0.40713207706 0.11572462407 0.90600843441 -0.36012486014 0.13185568769 0.92353893406 -0.27956079677 0.0084678995368 0.96009064967 
-0.20403645115 -0.049934573937 0.97768894078 -0.091599997924 -0.17682209007 0.97997111633 -0.032411467625 -0.30502738799 0.95179188342 
0.00011062685982 -0.33494796057 0.9422366218 0.025994269835 -0.36679431363 0.92993883101 0.017447362059 -0.42569952191 0.90469636155 
-0.029325033386 -0.43059770343 0.90206743662 -0.12420906203 -0.38529321367 0.91439665814 -0.22370047497 -0.35718424184 0.90685032661 
-0.30693254848 -0.33588896568 0.89048919893 -0.41041497809 -0.32567897393 0.85175862291 -0.49185117008 -0.41622787044 0.76474622351 
-0.5750311387 -0.49143542527 0.65408746534 -0.69118867094 -0.52146012754 0.50033744268 -0.73357170387 -0.59659001813 0.32550407914 
-0.74887818821 -0.62743590751 0.21332051281 -0.77854209358 -0.61441359516 0.12793804208 -0.79660747032 -0.59738001093 0.092486003101 
-0.84110457707 -0.54048624138 0.02043803606 -0.86884688591 -0.48525186452 -0.098161687153 -0.90561544045 -0.39944269073 -0.14249986261 
-0.92383597713 -0.32710497393 -0.19882007794 -0.89719972956 -0.34847390023 -0.27129059353 -0.86596581133 -0.37651814955 -0.32914631499 
-0.87511746476 -0.35931605955 -0.32413175134 -0.88697233045 -0.34188710396 -0.31047269312 -0.88206825761 -0.36700981716 -0.29539699225 
-0.85937254268 -0.4176126125 -0.29509072972 -0.84092243748 -0.43540756122 -0.32135604829 -0.85745927465 -0.42891094391 -0.2842516394 
-0.85227492716 -0.45499729971 -0.25807926261 -0.82033911784 -0.55760572211 -0.12696294897 -0.78676175425 -0.61662905144 -0.027830827483 
-0.75253951077 -0.65034394591 0.10361967355 -0.6859468892 -0.67309187651 0.27644925568 -0.60243024258 -0.66771112303 0.43730956885 
-0.55345358917 -0.62371108677 0.55197246749 -0.52814353596 -0.60156140298 0.59932318816 -0.39911924523 -0.62518422063 0.670707476 
0.0011720076719 -0.55737498833 0.83026004889 0.12460125933 -0.51685629517 0.8469557818 0.15874165609 -0.500407117 0.85111327324 
0.2241819013 -0.38661608225 0.89457838118 0.30079346093 -0.27295092405 0.9137948823 0.37916555208 -0.14938895388 0.91319024555 
0.4350026081 -0.019344189776 0.90022138015 0.44403398319 0.022056082799 0.89573843893 0.46790027219 0.056045164686 0.88200242335 
0.53114146517 0.061152972614 0.84507340386 0.59914396092 0.027071334014 0.80018351456 0.62311929771 -0.0059821122007 0.78210392861 
0.61464137901 -0.030396181172 0.78822081131 0.61251171404 -0.053494643478 0.7886493031 0.61487702604 -0.074461728126 0.78509979869 
0.62434103591 -0.1348424599 0.76942561816 0.6156034278 -0.1369156798 0.77607120569 0.59175521908 -0.13189118255 0.79525497588 
0.56881351961 -0.11200163005 0.81480477095 0.56881351961 -0.11200163005 0.81480477095 
FrenetNormal 3 101 double
-0.061170659383 -0.91108967741 0.40764414647 -0.061170659383 -0.91108967741 0.40764414647 0.57463229129 -0.81222387096 0.10044955577 
0.83625428423 -0.53085957677 -0.13735676855 0.75007451986 0.25697657571 -0.60938596488 0.91307213677 -0.4075594707 -0.013948150625 
0.98387019855 -0.14394547227 -0.10620326462 0.88862319595 0.36369353599 -0.27942052089 0.49350151585 0.77021496692 -0.40401133473 
0.59983202802 0.76330225721 -0.2399399973 -0.87759782211 0.35477624536 -0.32242189498 0.97466391625 0.02699598784 0.22203933659 
0.71376749106 0.70030153286 0.010664510807 0.21712052951 0.97109035011 -0.099207900838 0.87252475173 0.24547659719 0.42242371839 
0.40618369302 0.87636968346 0.25882616837 0.56987485185 0.64524299504 0.50882622828 -0.28854783612 0.95733433882 -0.015846450283 
-0.71333526539 0.69416282505 -0.096388648023 -0.6582069257 0.62865369784 0.41419581258 -0.32397840895 0.57883651647 0.74832230873 
-0.5242992303 0.21512174354 0.8239131948 -0.084837136914 0.028676443021 0.9959820891 -0.42049853781 -0.2838352017 0.86175318855 
-0.48186951174 -0.49425334519 0.72354364376 0.12327413717 -0.47549325422 0.87103940915 0.42130205828 -0.43205916785 0.79738914663 
-0.23002803989 -0.8005890432 0.55330306775 0.90346409758 0.045878616264 0.42620156845 0.009983407989 0.82639799116 -0.56299795005 
0.71864557642 0.59699219871 -0.35657937429 0.86302628152 0.30283373412 -0.40432334448 0.54003281106 0.19355189662 -0.8190862142 
-0.14917104989 0.14245800904 -0.97849563798 0.36472015594 -0.27851195929 -0.8884876456 0.40181343914 -0.56570449113 -0.72008637596 
0.042823539113 -0.72463937701 -0.68779642175 0.14107347161 -0.9175985929 -0.37163301511 -0.39378636198 -0.85203745206 -0.34491228074 
0.00047861323691 -0.99191381263 0.12691240778 -0.43786495598 0.850254165 -0.29213376255 -0.63558188966 0.74786352672 -0.19166587317 
-0.94590588679 0.26739335663 -0.18374669021 -0.55393789443 0.82683937468 0.097413847012 0.8211196797 0.53480827453 0.19935541401 
-0.98975587136 0.13448654838 0.047923724938 0.34842225356 0.87524491545 0.33548214736 -0.18074787312 0.88858353032 0.42160350569 
0.85975698363 -0.47119037464 -0.19697096219 0.91160539977 -0.40823261035 -0.048184343552 0.97335119327 -0.033705953522 0.22682892949 
0.87127749492 -0.47566909186 0.12089020598 0.84458587943 0.21644706921 0.48971967339 0.36117618721 0.70166108308 0.61418522148 
0.79845879496 -0.16283444392 0.57961064226 0.44291956851 0.24139334023 0.86345324779 -0.069539399331 0.54233300873 0.8372808248 
0.51759782595 -0.35275176469 0.779524652 -0.25806108389 0.4992320509 0.82714680459 0.59001151293 -0.73507198467 0.33399938917 
0.32944594813 -0.48198294996 0.81188533871 0.0054936794933 -0.20771160467 0.97817468214 0.39544334265 -0.91674407873 0.056611455275 
-0.227301675 0.050864118785 0.97249513622 -0.43545149322 0.59570280398 0.674922341 -0.39784827906 0.11987802371 0.90958562339 
0.46971721888 -0.46970237894 -0.7474927488 -0.38984865901 0.19388205898 0.90023761878 0.093286481579 0.47853260867 -0.87310032344 
-0.50596361689 0.61090476505 0.60893036253 0.51882001907 -0.81751601364 -0.24998671014 0.12929010152 0.35511031239 -0.9258405563 
-0.46139230101 0.88634122668 -0.038940653044 -0.16468795857 0.4429496416 -0.88129080973 -0.45502904292 0.60986057024 -0.64885950325 
-0.14074000973 0.0051134203352 -0.99003338459 -0.50536870673 0.16734076347 -0.84652202519 -0.325749038 -0.2945066301 -0.89841716873 
-0.4132577616 -0.36974706878 -0.83216892973 0.42635427396 0.42251756889 0.79981306382 -0.87948098938 0.054194495601 -0.47283839308 
-0.85584311994 -0.42999853057 -0.28746098475 -0.98658798675 0.026176547338 0.16111776057 0.14128326921 -0.84165917074 -0.521199461 
-0.58498709501 -0.78755636348 -0.19376551038 -0.5079452763 -0.85680734823 -0.088728599143 -0.54626403361 -0.83269956461 0.090592718696 
0.070243188627 -0.99599339221 -0.055344892431 -0.52453850256 -0.80408867935 0.27982272081 -0.55622917996 -0.75686342594 0.34317175559 
-0.81993154051 0.2884742248 0.49446424593 -0.69339288983 0.51722160514 0.50168527137 0.76553425222 0.20954724121 -0.60831510123 
-0.15923692415 0.97390348339 0.16172695207 0.79043253425 0.049993085349 -0.61050561031 -0.3247978107 0.88326776375 0.33814854677 
0.098328370896 0.99072000386 0.093837121804 0.40989142241 -0.78546818493 -0.46371192813 0.7687052369 0.38937803535 -0.50742191946 
0.32359428159 -0.88030839559 -0.34690613944 0.32359428159 -0.88030839559 -0.34690613944 
FrenetBinormal 3 101 double
0.77420868261 -0.30107731926 -0.55673455398 0.77420868261 -0.30107731926 -0.55673455398 0.57600532303 0.31418220063 -0.75465714907 
0.26351307836 0.60873463351 -0.74833348415 -0.54819316845 0.75702824146 -0.35551721716 0.3022847669 0.69938666505 -0.64767446488 
0.046446875773 0.77890302022 -0.62542207574 -0.45854245915 0.71695388357 -0.52508660427 -0.86464998595 0.38426139308 -0.32361023405 
-0.78350390048 0.49953152718 -0.36958069658 -0.43719738825 -0.86820932945 0.23467212012 0.051556791793 0.93884433967 -0.34046028121 
-0.63400556495 0.65251715146 -0.41504013139 -0.90489030971 0.16211213959 -0.3935647108 -0.17621919915 0.96453430512 -0.19652065566 
-0.72206572021 0.48140771814 -0.49685783139 -0.54498646802 0.76021107622 -0.35365077302 -0.70939304107 -0.22487326068 -0.66797719266 
-0.50964787313 -0.6082237364 -0.60854164351 -0.73221147653 -0.40667282722 -0.54633649452 -0.94501620668 -0.1607767703 -0.28477218832 
-0.84231139499 -0.27303633173 -0.46471784497 -0.96613202796 -0.24685177455 -0.075187139513 -0.85346447342 -0.19854519572 -0.48184872924 
-0.7805164665 -0.13317563595 -0.61078498305 -0.88736618146 -0.4457734939 -0.11775929747 -0.81063771682 -0.57364215492 0.11747838168 
-0.88464652138 -0.064924196806 -0.46172002434 -0.15853321273 -0.8880014841 0.43164868204 0.92677397908 0.20377246408 0.31554203297 
0.64631542009 -0.38424411994 0.65926689137 0.50404523596 -0.46310740113 0.7290198455 0.81698272789 -0.35441102303 0.45489784467 
0.95350620597 -0.24134271566 -0.18049822374 0.88206679222 -0.20227553867 0.42549122261 0.81643316987 -0.13480973728 0.56148304861 
0.87288476625 -0.307776399 0.3786104503 0.84666111579 -0.082729034352 0.52566230784 0.78583689615 -0.50671329528 0.35454479129 
0.91336917112 0.052103739811 0.40378454346 -0.82376232339 -0.50958996509 -0.24846267737 -0.7196397866 -0.66379849358 -0.20369127981 
-0.25225221493 -0.96229274712 -0.10179139899 -0.82750362506 -0.5339200286 -0.17368694127 -0.5698350361 0.787996448 0.23313007005 
-0.14277010496 -0.93258953029 -0.33150183275 -0.9369771775 0.31529076971 0.15055065385 -0.98337469762 -0.17087781218 -0.061440844598 
0.50986073737 0.7697825983 0.38402705613 0.39185163522 0.82758399897 0.4019415637 -0.050453464249 0.93342558679 0.35520574583 
0.38297250232 0.8129683375 0.43865082318 -0.34385205835 0.92037159461 0.18623074344 -0.79223367026 0.57829584502 -0.19478122945 
-0.17833323378 0.855556057 0.48602581317 -0.57103456725 0.81841834699 0.064116552681 -0.67604498905 0.59157016313 -0.43932666079 
-0.41385257011 0.69418324272 0.58892756408 -0.57208101307 0.61095277513 -0.54722940441 -0.1315406889 0.32063421511 0.93802491825 
-0.42896207024 0.68961370261 0.58345906752 -0.49505040989 0.8493447576 0.1831353991 -0.15324893729 -0.0050824139957 0.98817454546 
-0.30799518812 0.94361813116 -0.12134161135 -0.073584253265 0.72367403587 -0.68620787483 -0.30301808602 0.91862034731 -0.25360736789 
0.11634069435 -0.80639422404 0.57982169524 -0.24758454736 0.91952322176 -0.3052522507 0.46179348336 -0.79769062709 -0.38786136979 
-0.07402466662 0.67260320688 -0.73629156916 -0.15386761176 -0.37694538473 0.91336571809 0.49804383538 -0.83062149516 -0.24903869141 
0.24646418219 0.085887642581 -0.96533865547 0.54765099109 -0.70204805653 -0.4551998663 0.41707854433 -0.49783400625 -0.76039909921 
0.64333236697 -0.75962267274 -0.095377464114 0.52352586894 -0.72037795264 -0.45494644729 0.72867370412 -0.68368684426 -0.040086555382 
0.72312318944 -0.68867378734 -0.053115605297 -0.73436124523 0.67794010239 0.033328352367 0.25926244891 -0.77859337713 -0.57146770308 
0.51723416403 -0.71023544413 -0.47752951057 -0.10544510693 -0.8556718755 -0.50666258092 0.97715921142 0.2029841313 -0.0629072172 
0.77944375923 -0.47987808794 -0.40272130179 0.80716472305 -0.43746881155 -0.39636618016 0.7468795684 -0.53319262519 -0.39733680266 
0.89768514826 0.087309592764 -0.43190092569 0.7264249315 -0.59410009675 -0.34547343448 0.68678849338 -0.65116564251 -0.32296264701 
-0.21354393659 -0.95553280193 0.20336187347 -0.40029091226 -0.85542326017 0.3286612717 -0.16024871139 0.97778022481 0.13515244157 
-0.77256687555 -0.22491793439 0.59376118566 -0.0067682319551 0.99731590509 0.072905257011 -0.71863246866 -0.46291846859 0.51891604949 
-0.77493857973 0.017070001726 0.63180599292 0.67306867519 0.60356758286 -0.42741634433 -0.2427303431 0.91158623374 0.33180192734 
0.75613353373 0.46099106665 -0.46448822983 0.75613353373 0.46099106665 -0.46448822983 
SiphonLabel 1 101 int
0 0 0 0 0 0 0 0 0 
0 0 0 0 0 0 0 0 0 
0 1 1 1 1 1 1 1 1 
1 1 1 1 1 1 1 1 1 
1 1 1 1 1 1 1 1 1 
1 1 1 0 0 0 0 0 0 
0 0 0 0 0 0 0 0 0 
0 0 0 0 0 0 0 0 0 
0 0 0 0 0 0 0 0 0 
0 0 0 0 0 0 0 0 0 
0 0 0 0 0 0 0 0 0 
0 0 
