# vtk DataFile Version 5.1
vtk output
ASCII
DATASET POLYDATA
POINTS 102 float
106.27 66.9969 34.1983 105.873 67.1545 34.2049 104.931 67.2222 34.2277 
104.193 67.1489 34.3032 103.797 67.126 34.2926 103.118 67.0127 34.2786 
102.151 66.849 34.2096 101.332 66.5055 34.1519 100.543 66.0655 33.9019 
99.7248 65.6069 33.5883 99.147 65.2226 33.1431 98.7167 64.8656 32.7431 
98.3283 64.4398 32.2153 98.0189 64.0734 31.7257 97.7256 63.7215 31.1367 
97.5221 63.3314 30.7128 97.4365 63.0059 30.3296 97.4501 62.4848 29.7494 
97.5915 61.7397 29.1279 97.7979 61.1724 28.6595 98.173 60.4943 28.2706 
98.5696 60.0633 27.9518 99.0538 59.6715 27.7253 99.5201 59.2992 27.5604 
100.28 58.7926 27.3079 101.027 58.4242 26.9255 101.579 58.3577 26.5151 
101.901 58.3164 26.2743 102.457 58.4054 25.8398 103.196 58.7146 25.3051 
103.535 58.9847 24.9411 103.988 59.4379 24.3549 104.121 59.7389 24.0308 
104.245 60.1021 23.5862 104.253 60.5826 23.0692 104.104 61.2217 22.5967 
103.793 61.9076 22.3198 103.268 62.6944 22.1628 102.67 63.0856 22.1024 
102.025 63.4495 22.1018 101.205 63.957 22.3066 100.502 64.4192 22.7337 
100.149 64.6296 23.0628 99.5893 65.1198 23.6098 99.3098 65.4098 24.1198 
99.1485 65.6705 24.5982 99.0739 66.0225 25.143 99.0304 66.6796 25.7012 
99.0853 67.2806 25.954 99.3352 68.2066 26.0728 99.577 68.8007 25.8944 
100.056 69.5126 25.4443 100.478 70.0064 24.848 100.715 70.3375 24.2081 
100.908 70.5337 23.5545 101.115 70.5996 22.6658 101.224 70.5659 21.922 
101.3 70.394 21.0461 101.271 70.2604 20.4285 101.167 70.2537 19.8068 
101.037 70.337 19.0721 100.988 70.501 18.4284 100.815 70.6113 17.7344 
100.638 70.7142 16.9669 100.455 70.7681 16.0449 100.404 70.7954 15.4538 
100.387 70.9133 14.6954 100.436 71.0095 14.0248 100.498 71.0593 13.4641 
100.725 71.2807 12.56 101.095 71.6144 11.8286 101.342 72.0014 11.1682 
101.654 72.4094 10.4429 102.107 72.936 9.8098 102.634 73.3329 9.21917 
103.253 73.6593 8.59868 103.898 73.924 8.03285 104.3 74.0583 7.80037 
105.137 74.3617 7.4066 105.821 74.6202 7.05829 106.237 74.7773 6.95237 
107.011 75.1332 6.78177 107.78 75.476 6.70219 108.605 75.7619 6.7052 
109.215 75.8932 6.70378 110.106 76.0961 6.77725 110.712 76.3094 6.84269 
111.327 76.5682 6.87003 112.238 76.7965 6.85028 113.139 77.1494 6.98796 
114.012 77.5324 7.20096 114.674 77.8281 7.23618 115.223 78.1126 7.2195 
116.027 78.5569 7.13439 116.875 78.9605 7.04116 117.617 79.2953 6.9292 
117.956 79.4901 6.79382 118.604 79.9382 6.50625 119.262 80.3595 6.17469 
119.937 80.7264 5.80569 120.598 81.2372 5.33129 121.035 81.7687 4.73388 

LINES 2 102
OFFSETS vtktypeint64
0 102 
CONNECTIVITY vtktypeint64
101 100 99 98 97 96 95 94 93 
92 91 90 89 88 87 86 85 84 
83 82 81 80 79 78 77 76 75 
74 73 72 71 70 69 68 67 66 
65 64 63 62 61 60 59 58 57 
56 55 54 53 52 51 50 49 48 
47 46 45 44 43 42 41 40 39 
38 37 36 35 34 33 32 31 30 
29 28 27 26 25 24 23 22 21 
20 19 18 17 16 15 14 13 12 
11 10 9 8 7 6 5 4 3 
2 1 0 
CELL_DATA 1
FIELD FieldData 2
Length 1 1 double
78.179551151 
Tortuosity 1 1 double
1.1646774816 
POINT_DATA 102
FIELD FieldData 7
MaximumInscribedSphereRadius 1 102 double
1.2384702479 1.2539212401 1.3742500267 1.3359305336 1.3334730981 1.3040302289 1.3401388003 1.3762334701 1.3769026884 
1.3793781405 1.3392179086 1.3705441271 1.4493269232 1.5320638706 1.5773172403 1.5526875289 1.5147796887 1.5244291235 
1.4678651889 1.4078511017 1.3912172641 1.3752629083 1.3511816476 1.4069720359 1.5054534084 1.5720479976 1.5451298382 
1.5557996164 1.6329237167 1.7851578493 1.8172553198 1.8094150415 1.8029105089 1.8007990363 1.8763827776 1.9573164923 
1.9112966758 1.8525403927 1.7657506448 1.7080519787 1.5592243506 1.3963019095 1.3660772284 1.5563073086 1.7220328748 
1.7988652305 1.8606653336 1.9062893273 1.908182075 1.9090819689 1.8603373734 1.7601691716 1.6988579964 1.7036212637 
1.771375519 1.821468432 1.7941730031 1.7247911594 1.6443377933 1.6085658888 1.5792103228 1.5434603373 1.4903443817 
1.5134394004 1.5433664463 1.5304842746 1.5170519209 1.5232197976 1.5015747944 1.479903786 1.5367975919 1.566737626 
1.6940844908 1.735452312 1.7153308544 1.7266421155 1.7871360892 1.7852901015 1.7644971153 1.7306138402 1.7294812121 
1.7573236984 1.8293557714 1.8407776175 1.8330899424 1.8357004856 1.8992450634 1.9157003396 1.8700992548 1.854530643 
1.817646364 1.8110529541 1.8343656379 1.8966205293 1.904893523 1.8196732312 1.792278383 1.7893838088 1.8217220048 
1.8313623706 1.8357851529 1.8040553412 
Curvature 1 102 double
0 0.45302926191 0.22296521644 0.23636630907 0.1990971461 0.059724345598 0.24694494175 0.25765867482 0.05481258415 
0.28734855688 0.13354208962 0.22129062646 0.083081535506 0.1599194527 0.30018442947 0.31451918652 0.29376746225 0.21922091504 
0.14832034656 0.29157681416 0.28154528078 0.30423245417 0.12398802045 0.10594231393 0.21800111144 0.45358504374 0.013647527247 
0.41428503982 0.24636017849 0.32704287251 0.13119826504 0.41073075441 0.19113428031 0.32906273706 0.36199061379 0.40803276249 
0.2817881483 0.50371404998 0.14552364193 0.25022694247 0.275473497 0.28570504554 0.20744479428 0.35484393192 0.26039623569 
0.31025264699 0.40156017184 0.45010031993 0.40279296605 0.52308202286 0.35423441555 0.30282648054 0.33002347053 0.25073790505 
0.26848713038 0.17268403266 0.19433592728 0.17267936504 0.37616157102 0.17750191385 0.23920458189 0.27437473433 0.03718445248 
0.090807178535 0.14602977513 0.18333825035 0.13187564884 0.10562664706 0.26176988838 0.28659126914 0.1812733503 0.059399671231 
0.2412301371 0.17498173095 0.13238168155 0.09299864794 0.27542440042 0.1204453557 0.034328882326 0.33565411056 0.11733052406 
0.12169164076 0.15138325471 0.16364431014 0.10824403689 0.14909896151 0.12982845706 0.2065035563 0.21705444161 0.090204460827 
0.20256723621 0.14226526861 0.091573123109 0.064893192042 0.048524150607 0.3565191456 0.12848609878 0.072500829621 0.094101281201 
0.17527458757 0.29162450509 0 
Torsion 1 102 double
0 0 -0.0038824591643 0.079029283415 0.74146304472 0.43884934371 -0.36855359051 -0.52496441559 -0.50559896008 
0.1976991368 0.51548190037 -0.23757099606 -1.1318872164 0.86243746151 -0.45603637287 -0.54193413304 0.6674964067 0.20518961466 
0.080473869127 -0.36222881089 -0.07535933058 0.72911230536 0.43139771024 -1.8053933616 0.0084432331121 0.047392671029 -8.0224563547 
0.15568297754 -0.38342705944 -0.43652530446 0.13403022815 -0.25378236035 -0.3160497553 0.73532002185 0.30094246493 -0.054150524637 
-0.80293237333 -0.11416854737 2.2927178875 0.19463736975 -0.19271792397 0.28124334582 -0.28211534074 -0.12352773976 1.0589463049 
1.1985294714 0.29439729637 -0.22731225763 0.04096631057 -0.053183457183 -0.100358875 0.59116437647 0.038180548104 -0.52955013254 
0.10079884518 0.15329110293 0.33211444151 1.9191835398 0.50664513284 1.2779582782 -0.0090559131183 -0.36297509445 -4.44901788 
-0.76644046289 -1.1058586947 -0.04944760836 1.292621537 -1.1695608142 -0.1554520673 -0.27309939164 -0.8543849415 -1.5923171334 
0.27100374637 0.79899885529 -0.055665489641 -1.3199421418 -0.32385014282 -0.93911891615 0.94498557584 -0.21650385835 -1.1723066591 
0.93784395784 0.76164488399 0.049095633699 -1.8035535466 -0.90006328692 -1.8290163609 -0.68855884159 -0.20418769067 -0.30682258876 
0.11310573394 0.48058685393 -0.71839222969 -0.39743637562 3.9251656435 0.31939522647 1.275324375 -1.2411668616 0.80874407701 
-0.14633797086 0 0 
FrenetTangent 3 102 double
0.98589963255 -0.16592892946 -0.021668062058 0.98589963255 -0.16592892946 -0.021668062058 0.99828782475 0.00330950691 -0.058399196247 
0.99480499142 0.084390132583 -0.05693271971 0.99180476358 0.12572956441 0.022702149201 0.98491738699 0.16574685166 0.049656036657 
0.95976053448 0.27244743783 0.068059606795 0.88597867146 0.43163516103 0.16950776229 0.83457695521 0.4666882122 0.2927173012 
0.77609703948 0.46865812435 0.42193950727 0.66762451092 0.49092043684 0.55970942204 0.5592063034 0.53461160585 0.63362350109 
0.47589686922 0.54036069671 0.69392541913 0.42167726862 0.50258344498 0.75471727286 0.36792730068 0.54949818057 0.75012082424 
0.25890536939 0.64080052457 0.72273279807 0.056067006485 0.65904865546 0.75000757364 -0.08844743693 0.72249414421 0.68569618818 
-0.1997866404 0.75379109866 0.6260066117 -0.35898930105 0.76881807294 0.529193209 -0.50595251646 0.72714386633 0.4639761295 
-0.66578744864 0.62195969046 0.41218104842 -0.74211805257 0.59657112722 0.30555471886 -0.78347436908 0.56132176307 0.26661918779 
-0.81245485498 0.47188714006 0.342402739 -0.82070530759 0.27480577856 0.50092372889 -0.79807434986 0.098414336109 0.59446778764 
-0.79191479816 -0.042958437633 0.60911864616 -0.77743630241 -0.2390218203 0.5817743249 -0.70975065875 -0.38168217831 0.5920918148 
-0.55249256964 -0.50485655441 0.66322833169 -0.44413788344 -0.57160311432 0.68993580875 -0.24532548461 -0.63383030744 0.73353564874 
-0.10309460335 -0.65599859031 0.74768800463 0.093675324703 -0.74601184267 0.65931120432 0.2891236574 -0.83324438205 0.47128686647 
0.47805836168 -0.84251517484 0.24825064551 0.68405604948 -0.7173233895 0.13234226857 0.85400720004 -0.51857210905 0.041888781239 
0.85332598217 -0.50763669737 -0.11891068763 0.79607898329 -0.50702492809 -0.3304299845 0.72194461831 -0.45986007885 -0.51703450173 
0.63128876008 -0.48436640983 -0.60569272938 0.53844217805 -0.50042384413 -0.6779793486 0.36302677934 -0.45356670614 -0.81393415002 
0.19400094845 -0.503976973 -0.84164769511 0.078735117441 -0.67290645569 -0.73552544699 -0.0076249918075 -0.84047695458 -0.54179363997 
-0.19039948834 -0.95386573878 -0.2321382933 -0.30756081938 -0.95079870509 0.037258083342 -0.44512249357 -0.80690619282 0.38828901828 
-0.49130322691 -0.65780147218 0.57089260148 -0.40546665035 -0.50741638565 0.76034558395 -0.29454390458 -0.36071436797 0.8849457797 
-0.24764032702 -0.16231227906 0.95515914512 -0.18978146496 -0.019396070339 0.98163475286 -0.11269843765 0.12512865138 0.98571896743 
-0.031313895035 0.20030388161 0.97923326894 0.10598277478 0.11188861549 0.98805292833 0.17016886244 -0.055538689544 0.98384857179 
0.12708108469 -0.17521474779 0.97629411044 0.16006009422 -0.1983308979 0.96697757015 0.23007864382 -0.1404782211 0.96297958808 
0.20789643824 -0.090346921543 0.9739694578 0.15256796744 -0.052944234487 0.98687381328 0.049891777632 -0.10684037584 0.99302363749 
-0.021690445998 -0.14814854391 0.98872722906 -0.088886726199 -0.11731846604 0.98910845079 -0.19076912139 -0.17869837189 0.96523263217 
-0.32676305685 -0.30372670178 0.89497262266 -0.36595290797 -0.42791002463 0.82642088548 -0.33044568096 -0.46973039931 0.81863239851 
-0.42120811968 -0.51407693327 0.74720052636 -0.53842296036 -0.50760081964 0.67263818183 -0.63030782015 -0.39809798881 0.66650584631 
-0.69010115815 -0.32272347058 0.64777307219 -0.76117665763 -0.28993483459 0.58012747528 -0.8511983196 -0.30068127317 0.43017693182 
-0.85287381644 -0.31518384527 0.4162516029 -0.87271057987 -0.32956642592 0.36022522773 -0.89816382265 -0.3870118546 0.20862303824 
-0.90118871085 -0.40805594557 0.14611383481 -0.92928258019 -0.36666037312 0.044654864649 -0.96020010695 -0.27931097473 -0.0010649027782 
-0.97505169152 -0.21699191672 -0.046783618254 -0.95965370521 -0.26672203139 -0.089017549074 -0.93033959177 -0.3598169006 -0.070710975299 
-0.95262101384 -0.30412296163 -0.0047358423389 -0.95041219299 -0.30478224042 -0.061842132457 -0.90868696908 -0.37688032516 -0.17958065802 
-0.90474049713 -0.40004455243 -0.14631810865 -0.90169610096 -0.43214972859 -0.013811357353 -0.87844580351 -0.47324860661 0.06609634363 
-0.8855865038 -0.45452783138 0.09560854973 -0.90080974408 -0.41836461298 0.11624480878 -0.87966286429 -0.43092039711 0.20124824608 
-0.78858058695 -0.51372841605 0.33797007622 -0.77438556153 -0.51538717017 0.36701916423 -0.78438926189 -0.46361513667 0.41206127079 
-0.73910132572 -0.48569769005 0.46671938486 -0.59189087845 -0.56192572918 0.57784484327 -0.59189087845 -0.56192572918 0.57784484327 

FrenetNormal 3 102 double
-0.1653330755 -0.98587106571 0.02689267449 -0.1653330755 -0.98587106571 0.02689267449 0.027212473824 -0.91005073052 0.41360264645 
-0.079847266639 0.29993456936 -0.95061225961 0.12420527396 -0.99048422996 0.059279339735 0.056202004103 -0.035037266251 -0.99780445214 
0.27150522754 -0.96216426987 0.022909150987 0.34113055868 -0.35904238176 -0.86874536548 0.27367499625 0.109912393 -0.95552146093 
0.48458083106 -0.015034770284 -0.87461727279 0.73881940721 -0.52955070464 -0.41679963381 0.80210431867 -0.15570047993 -0.57652929026 
0.74847856913 0.1654912579 -0.64217791547 0.51182446441 0.5551303803 -0.65564165403 0.29393793875 -0.83407249778 0.46682283214 
0.94205459559 -0.0022798695753 -0.33545184622 0.98761341945 -0.14686674207 0.055225843518 0.66190162868 -0.47179437376 0.5824914616 
0.97911210225 0.12897004268 0.15718212153 0.68999032103 -0.16320709227 0.70517856031 0.76635085478 0.62582058622 -0.14510327784 
0.67857308559 0.27501112296 0.68110751703 0.28725019435 -0.1288114464 0.94915485413 0.58276061077 0.81264231945 0.0015909670755 
0.064219642225 0.65614613361 -0.75189632856 -0.023662900813 0.85963383683 -0.51036235529 -0.3850013847 -0.84220839231 -0.377437356 
-0.087724038339 0.99517857903 -0.043864438172 -0.084253942604 0.95621621258 0.28027099022 -0.66248629179 0.64741036386 -0.37679136663 
-0.82126871335 0.46563512997 -0.32969929664 -0.85206443761 0.50754163127 -0.12801440029 -0.76482244983 -0.33841061023 -0.54820149499 
-0.94889131145 0.29028642326 0.12385100536 -0.72813727687 0.40030064605 0.55639509236 -0.63409484639 0.20212849983 0.74636974439 
-0.65012313838 -0.14937377851 0.7450015968 -0.72764437914 -0.65837149692 0.1925633131 -0.34810711506 -0.50972523529 0.78676656065 
0.19692858708 0.10263782134 0.97503056835 0.32987242277 -0.094220764069 0.93931178653 0.33563798839 -0.42069423595 0.84283064763 
0.44381316672 0.86609085604 -0.2300358714 0.62949684524 -0.2959952492 0.71841529374 0.92644232132 0.08234570811 0.36731976482 
0.90462565303 0.42379793811 -0.045251911876 0.21602950481 0.73180070926 -0.64637371155 0.40438307214 0.49293878313 -0.77038022239 
0.54249646762 0.094847363705 -0.83468650416 0.26743916792 -0.12395522249 -0.95556862353 0.44902860643 -0.57628819796 -0.68283616153 
-0.05335797899 -0.6314914677 -0.77354473193 -0.6190632312 -0.45957968936 -0.63682589842 -0.22016800085 -0.87550071324 -0.43014480412 
-0.21959787503 -0.95080574562 -0.21850676734 -0.56445213534 -0.81590849909 -0.12524818567 -0.37643260072 -0.92346876505 0.074188523912 
-0.9888133041 -0.1491543379 -0.0011104638781 -0.5157732629 0.85571558958 -0.041578492236 -0.060514622 0.99593710203 0.066687849922 
0.58906764283 0.80523128899 0.067837182972 -0.86645255706 -0.49754222464 0.041372709147 0.52920624036 -0.8123679421 -0.24494710002 
0.35687338776 -0.92008229354 -0.16152386273 0.98264141593 -0.098511126989 -0.15719861817 0.50040192865 0.86314035087 0.067724770289 
0.99240499801 -0.12296798322 0.0033458968851 0.57116714031 -0.81955062135 -0.045878937222 0.64364395895 0.71964739196 0.26044209596 
0.69548489568 0.56391853483 0.44530511557 -0.72692183908 0.6859140786 0.033264344923 0.89063852009 -0.44224365521 0.10575242766 
0.59761118698 0.46240105322 0.65501613353 0.71041203316 -0.70274079733 0.038342077437 0.55822334595 -0.82904509848 0.032724925262 
0.66424307354 -0.63777306978 0.38990595111 0.62373048699 -0.0822013835 0.77730509592 0.30453088788 0.38459881119 0.87140386317 
-0.49693666344 0.24542370776 -0.83235879054 0.33847925804 0.12332638698 0.93285711347 -0.2615343569 0.85172369353 0.45405564641 
0.17868577775 -0.042647118259 0.98298149328 0.27242745579 -0.59872279902 0.75320268936 0.27904998436 -0.95912352704 -0.047044299314 
-0.075933263964 0.12800616543 0.98886225585 -0.27901105095 0.94254470659 0.18374522996 -0.20660677548 0.67364807477 -0.70958573245 
0.28348369556 -0.8821135598 -0.37618168744 -0.23460678774 0.57211777493 0.78590133398 -0.32062355781 0.35451470531 0.87836203122 
0.11833383358 0.093932326922 -0.98852102749 -0.25433070795 0.55596129237 -0.79134248741 -0.23072197312 0.29894271873 -0.92595929826 
0.44466491341 -0.88913469353 -0.10822481942 0.10744821553 -0.47416010164 -0.87385758507 -0.35247743053 0.3066097088 -0.88416635733 
-0.59162550611 0.78370650703 -0.18916493163 0.046015566129 -0.62441058014 -0.779739697 0.20810530093 -0.82252430068 -0.52928816208 
-0.66428128626 0.64038191889 -0.38554036195 -0.77315196285 0.19318512674 -0.60408240261 -0.77315196285 0.19318512674 -0.60408240261 

FrenetBinormal 3 102 double
-0.025824188121 -0.022931030558 -0.99940346164 -0.025824188121 -0.022931030558 -0.99940346164 -0.05177741039 -0.41448367283 -0.90858262405 
-0.063146203855 0.95021974281 0.30511472812 0.029939286334 -0.05597380487 -0.99798325252 -0.16364313474 0.9855457225 -0.043824117961 
0.071726061369 -0.0035087599664 -0.99741819751 -0.31412057502 0.82751414239 -0.46534783602 -0.47810386137 0.87756559781 -0.035990544431 
-0.40355272702 0.88325167317 -0.23877118409 0.091779060531 0.69178983508 -0.71624257632 -0.20956376646 0.83063095984 -0.51588296768 
-0.46184629632 0.82499876425 -0.32569162957 -0.74848112786 0.66275194583 -0.023148640059 0.88217344643 0.048732104363 -0.46839640522 
-0.21330998251 0.76770403796 -0.6042593495 0.14654768678 0.73762119669 -0.65911967479 0.74435427375 0.50538330055 -0.43649104764 
0.037746384649 0.64433353759 -0.7638124788 0.62852210671 0.61828975064 -0.47188742898 -0.39587677182 0.28215313487 -0.87388282396 
0.31026704747 0.73316780187 -0.60514406017 0.60559732653 0.79215560431 -0.07577187248 -0.21577299073 0.15662164265 -0.963800642 
-0.57947644144 -0.58889284118 -0.56339353513 -0.57086151142 -0.43071040229 -0.69900335059 0.46352051289 -0.5300939939 0.71003457082 
-0.60429748101 -0.08817124517 -0.79186513117 -0.62329292379 0.16887606173 -0.76353572734 -0.23951182767 -0.65968063146 -0.71235914318 
-0.14237155953 -0.72684509024 -0.67188284234 -0.27699771596 -0.64472581166 -0.71246115201 0.59570296862 -0.69551232933 -0.40174690156 
-0.2982897615 -0.696706281 -0.65239832633 -0.67900002914 -0.53218955587 -0.50570073864 -0.71716890375 -0.51463372347 -0.46991583731 
-0.59059301365 -0.51754773158 -0.61914799343 -0.050999790985 -0.22802220708 -0.97231933766 -0.38664342581 -0.68648609033 -0.61582766181 
-0.48275656364 -0.85543583109 0.18755169727 -0.50738785663 -0.85676611156 0.09224637137 -0.60509760274 -0.78201347029 -0.14937142779 
0.63600658365 -0.12359534826 0.76172161283 -0.56019080921 -0.81361095659 0.15563890449 -0.09958003189 -0.88740995455 0.45009708931 
0.37949447937 -0.75259718199 0.53812770026 0.97320708707 -0.108002888 0.2029860632 0.91455792078 -0.22496631948 0.33611599877 
0.81819656407 -0.28485808743 0.49940990435 0.91317174389 -0.28393119802 0.29240458435 0.77475110605 -0.12959285815 0.61884280297 
0.86935267027 -0.4105066984 0.27515483872 0.67257528294 -0.72891365792 -0.12777859005 0.92993007246 -0.32153327332 0.17845563727 
0.94363713456 -0.2638620059 0.19981441421 0.80335346048 -0.57785561654 0.14389615691 0.91956378749 -0.36269582376 0.1511759907 
0.14583445965 -0.96831365709 0.20273374628 -0.85014445403 -0.50520467879 0.1484002689 -0.98355505122 -0.070885419987 0.16611658091 
-0.79802863989 0.56648244755 0.2055430041 0.47290668487 -0.84446230801 -0.25148096898 0.81670347913 0.56597190393 -0.11256656316 
0.91072523632 0.38116401573 -0.15903941975 0.10554081204 0.99372655489 0.036995555126 -0.8643545108 0.49353203421 0.096526736579 
0.12108610356 0.98129041779 0.14969058583 0.81600689196 0.56086821677 0.13985562444 -0.7411677249 0.6709504625 -0.022268373131 
-0.63994270412 0.7679492019 0.026969589245 -0.58108786686 -0.58857020618 -0.56206939375 0.31235985411 0.76405098088 0.56449749348 
-0.68223499552 0.72243350743 0.11245104812 0.45322782228 0.49849451318 0.73897751078 0.53953567806 0.39268589993 0.74478120015 
0.28730041903 0.69935332486 0.6544947641 -0.17768054334 0.95350968754 0.24341096992 -0.42746035961 0.87273966702 -0.23580312672 
0.1601880325 -0.91674770103 -0.36594186272 -0.35186366061 0.93604304024 0.0039231566249 -0.3534141025 0.35325426294 -0.86620430493 
-0.39488010873 0.91196028893 0.11134689553 -0.24943369356 0.71210334974 0.65627102008 0.012118615788 -0.045469102336 0.99889223637 
-0.20858652469 0.96774424808 -0.14128953261 0.03489411868 0.20116867067 -0.97893491429 0.30295525133 -0.64554633405 -0.70106208447 
0.11022793815 -0.35970111456 0.92653381473 -0.2041477861 0.76143879434 -0.61525169151 -0.26737338387 0.8557339214 -0.44297960379 
0.40919645243 -0.91166938855 -0.037645574663 0.34965702124 -0.71003778313 -0.61121707603 0.41844992701 -0.8286549386 -0.37179382905 
0.13420007104 -0.05332867197 0.98951826344 0.42070974073 -0.77468913031 0.47208057092 0.31930065168 -0.84870377507 -0.42160288899 
-0.16768994721 -0.34912351021 -0.92195057146 0.63103848517 -0.58693056849 0.50725037014 0.58431641219 -0.32941581602 0.74165999663 
-0.11162259204 -0.59498634593 -0.79594701149 0.22781841529 -0.80431273874 -0.54879849486 0.22781841529 -0.80431273874 -0.54879849486 

SiphonLabel 1 102 int
0 0 0 0 0 0 0 0 0 
0 0 0 0 0 0 0 0 0 
0 0 0 0 1 1 1 1 1 
1 1 1 1 1 1 1 1 1 
1 1 1 1 1 1 1 1 1 
1 1 1 1 1 1 1 1 0 
0 0 0 0 0 0 0 0 0 
0 0 0 0 0 0 0 0 0 
0 0 0 0 0 0 0 0 0 
0 0 0 0 0 0 0 0 0 
0 0 0 0 0 0 0 0 0 
0 0 0 
