# vtk DataFile Version 5.1
vtk output
ASCII
DATASET POLYDATA
POINTS 80 float
74.4458 73.3298 33.0239 74.7955 73.2816 32.6939 75.3087 73.2208 32.2491 
75.8499 73.076 31.7684 76.6404 72.9462 31.2972 77.1548 72.7373 30.9422 
77.4918 72.5843 30.7337 78.066 72.2642 30.4598 78.5388 71.9689 30.2719 
78.9054 71.6704 30.0639 79.4526 70.951 29.6636 79.7996 70.3965 29.2585 
80.1521 69.6624 28.8841 80.4605 68.8728 28.8004 80.7259 67.9686 28.5564 
80.8097 67.0923 28.2525 80.7913 66.6199 28.07 80.6955 65.8506 27.8157 
80.5106 65.1642 27.5434 80.3477 64.372 27.0875 80.2764 63.6658 26.5679 
80.2461 63.0529 25.9554 80.1807 62.5467 25.4185 80.1106 62.1947 24.9755 
80.1067 61.7417 24.1313 80.126 61.546 23.3427 80.2416 61.5658 22.4114 
80.4351 61.7844 21.597 80.6961 62.0703 20.9819 80.92 62.5656 20.4104 
81.1775 63.1767 19.8928 81.5305 63.9886 19.4828 81.8488 64.6227 19.3898 
82.0735 64.9936 19.4046 82.4901 65.8596 19.435 82.6848 66.6905 19.4755 
82.5536 67.5437 19.5303 82.1361 68.3803 19.6473 81.7676 68.93 19.6822 
81.2242 69.5784 19.6091 80.7316 70.1097 19.3022 80.0813 70.6238 18.8521 
79.5375 71.0092 18.2711 79.0084 71.3704 17.5672 78.5523 71.6895 16.8301 
78.1861 71.8434 15.9855 77.8961 71.909 15.2623 77.6807 71.9326 14.7862 
77.3936 72.0497 14.0182 77.1371 72.2414 13.0764 76.9499 72.4617 12.2496 
76.7411 72.6269 11.4657 76.5993 72.738 10.85 76.3896 72.8781 10.2554 
76.0456 73.0398 9.50658 75.6233 73.1537 8.62723 75.2247 73.2124 7.985 
74.5945 73.2848 7.28133 74.1828 73.3767 6.91344 73.7135 73.5168 6.48597 
73.2091 73.6506 6.15799 72.5391 73.8629 5.88659 72.0249 74.0623 5.70993 
71.1239 74.3812 5.4935 70.389 74.8289 5.36059 69.55 75.2852 5.1655 
68.7876 75.7411 5.00975 67.9665 76.2574 4.8263 67.4305 76.6524 4.76488 
66.9269 77.0572 4.717 66.407 77.522 4.68715 65.8089 78.0374 4.62511 
65.1122 78.68 4.46823 64.4457 79.4022 4.42054 64.1643 79.8005 4.36162 
63.8538 80.1671 4.19825 63.4038 80.7754 3.88601 63.0224 81.2923 3.60421 
62.6361 81.782 3.29493 62.3032 82.3392 2.85874 
LINES 2 80
OFFSETS vtktypeint64
0 80 
CONNECTIVITY vtktypeint64
79 78 77 76 75 74 73 72 71 
70 69 68 67 66 65 64 63 62 
61 60 59 58 57 56 55 54 53 
52 51 50 49 48 47 46 45 44 
43 42 41 40 39 38 37 36 35 
34 33 32 31 30 29 28 27 26 
25 24 23 22 21 20 19 18 17 
16 15 14 13 12 11 10 9 8 
7 6 5 4 3 2 1 0 
CELL_DATA 1
FIELD FieldData 2
Length 1 1 double
62.096283529 
Tortuosity 1 1 double
0.84030289334 
POINT_DATA 80
FIELD FieldData 7
MaximumInscribedSphereRadius 1 80 double
1.4584618831 1.4331453223 1.4173076127 1.476349656 1.5647169659 1.5742666193 1.5722593309 1.5276187409 1.5170065112 
1.5235441212 1.6296024182 1.7289629791 1.8432971891 1.7404334803 1.646006297 1.574884487 1.5502080187 1.5444998018 
1.5304766414 1.532394372 1.5566588242 1.6792802446 1.8010031332 1.8539750707 1.9395581456 1.9843446424 1.9738365779 
1.9311574085 1.9061858191 1.8588196587 1.9364408454 2.0875688091 2.1190762475 2.0983497502 2.1231211856 2.2202818915 
2.2325511135 2.1578488852 2.1676493555 2.1736536711 2.0829469501 2.0251795594 1.9875062861 2.0597381589 2.2244977738 
2.2066788409 2.1135582909 2.0427951978 1.9823249269 1.9087597015 1.8173938042 1.7121282985 1.6530171524 1.6569847533 
1.6683868685 1.6673840254 1.6949288349 1.7293924104 1.7095583128 1.6950162999 1.6777252967 1.6752408307 1.7005454618 
1.685610744 1.694870522 1.7208685202 1.7604629413 1.8259762305 1.8328870428 1.8434447829 1.8637447004 1.9133218026 
1.961704852 1.9627889537 1.930261182 1.9163336872 1.884366108 1.9147490527 1.9739921047 1.9566343294 
Curvature 1 80 double
0 0.074736288363 0.15349474027 0.23537713988 0.24570487596 0.12103559515 0.24646788442 0.12890835411 0.26708673417 
0.29046333534 0.18229928387 0.19068712449 0.39870610543 0.19509359567 0.21003347946 0.18298011333 0.14393053773 0.17814077096 
0.18719429491 0.162524648 0.181089637 0.076211219166 0.13877061865 0.28330899489 0.28685791172 0.32729985191 0.29035216503 
0.27601191494 0.36968486965 0.18366531817 0.25494788327 0.37111531704 0.31966247861 0.13804452465 0.2431021922 0.45883177114 
0.35571630674 0.18286326078 0.2332300798 0.39727364446 0.19681222081 0.24724473141 0.12697301932 0.098067333207 0.25447897458 
0.10061765496 0.089153888937 0.17428594953 0.1148624875 0.078759239258 0.07595560919 0.058320756924 0.18576312427 0.1252890108 
0.087267388934 0.13139223101 0.20575741827 0.18844683013 0.087783129029 0.25150861031 0.29027776933 0.12532693808 0.11804236211 
0.23432895755 0.07400087838 0.052083011928 0.027312997829 0.1450172455 0.069295557486 0.090571018338 0.053758365871 0.10512627588 
0.14512468254 0.20166221518 0.45392409002 0.13365034171 0.029063355316 0.079057038042 0.23487726113 0 
Torsion 1 80 double
0 0 -0.66544237405 0.13497863077 0.19559972083 -1.6155275958 0.041244471017 1.6592913612 -0.089932862551 
0.041505478654 0.23747889074 -1.0389882334 0.071610747667 0.35935296862 -0.32234350226 -0.46147848539 0.070873226129 1.0874275024 
0.68201142816 -0.10535057128 -0.44760016327 -0.73822705781 1.5251313755 -0.036331251895 -0.094844530983 0.16781993831 0.2287314242 
-0.44082041403 -0.23389683968 0.73426174735 0.17741230288 0.20498312723 -0.059280839655 -1.3342576242 0.016707462233 0.076237694509 
-0.061355052076 -1.0514776309 -0.73636246153 0.036616898575 0.26481483639 -0.35121020015 -0.19180145557 0.50117402799 0.1617556392 
0.90236672799 1.1422922719 0.29446636664 0.18544366063 -0.33536611373 -0.44440619592 -0.26924912812 -0.24002987542 -1.0003781076 
0.0079086251223 0.6339430554 0.47536067019 0.73587378978 -0.76666896865 0.05932799945 0.41327927127 0.33329423782 0.64679469846 
0.35034299522 0.65648787132 0.12314544782 -1.8528557135 0.029296818014 0.65313128878 0.16157660203 -0.37999207594 -0.87277662621 
0.39969791697 1.9836301519 0.17246935613 -2.1986415657 3.0245042959 -1.8405801827 0 0 
FrenetTangent 3 80 double
-0.74079205474 0.093584764616 0.66518345099 -0.74079205474 0.093584764616 0.66518345099 -0.74359799783 0.1449489889 0.65272644212 
-0.80233505042 0.16539550375 0.57350047446 -0.82529600591 0.21425067824 0.52247789379 -0.78598296265 0.33411812041 0.52018829671 
-0.80326907414 0.41703248364 0.42525604301 -0.80581140752 0.47364124212 0.35543205999 -0.76183146442 0.53896989767 0.35933865534 
-0.61039784594 0.67994342073 0.40631442785 -0.51027881794 0.72688435705 0.45962447654 -0.42125835372 0.77600247236 0.46942684448 
-0.38357532181 0.88441079741 0.2658712356 -0.31557756917 0.931621677 0.18025495496 -0.18423286705 0.93940728566 0.28908857182 
-0.045558207317 0.93971643706 0.33890628155 0.086449915382 0.9398043002 0.33059686848 0.1783959892 0.92528402205 0.33470038777 
0.20641729539 0.87778982038 0.43229264557 0.12988253652 0.83092794876 0.54100764383 0.058383972505 0.7575501171 0.65016085075 
0.059546854297 0.6963582802 0.71521976884 0.10342043311 0.65531455599 0.74824263894 0.048644149723 0.52962190153 0.84683787594 
-0.0087368761983 0.36920466871 0.92930704269 -0.077786244135 0.10145515389 0.99179441013 -0.17279438407 -0.13328274493 0.97589846333 
-0.2871560058 -0.31879065215 0.90327955165 -0.32304021812 -0.52038563324 0.79047062577 -0.29619357705 -0.68071998973 0.66999228391 
-0.33823925448 -0.78835351781 0.51389973505 -0.40159535183 -0.86495757672 0.30094777596 -0.47419856593 -0.87776408708 0.068307594793 
-0.45998022193 -0.88733691797 -0.032425135873 -0.3386633888 -0.9400863531 -0.039303407051 -0.037632159066 -0.99769515923 -0.056464058027 
0.30738734895 -0.94670482117 -0.096244476655 0.49099608171 -0.86597727741 -0.094901015551 0.60549321231 -0.79544560972 0.0253821162 
0.6413463972 -0.73029738476 0.23524567713 0.66291814221 -0.60639562469 0.43911716327 0.65753523463 -0.4952844802 0.56775056045 
0.58536305823 -0.40734735311 0.70101228517 0.52585156228 -0.36313200272 0.76916531581 0.44585937899 -0.25645797395 0.85757723953 
0.38293342692 -0.12809116898 0.91485225199 0.38740971172 -0.068376740889 0.9193684444 0.3724387355 -0.1042742502 0.92218017168 
0.29861796758 -0.16960729445 0.93918085325 0.23737947159 -0.22039318545 0.94608553011 0.23254377649 -0.22640604725 0.94586663636 
0.23860508155 -0.18811085567 0.95272342316 0.27352392385 -0.19542427073 0.94180359815 0.37309152925 -0.2033362201 0.9052386936 
0.42091782395 -0.15140518861 0.89437388957 0.47246927512 -0.099329245369 0.87573197103 0.60548628618 -0.077136100723 0.79210881778 
0.69294429432 -0.10929528653 0.71265892635 0.72847074046 -0.19190370145 0.65764986859 0.7712724319 -0.21695172069 0.59839016258 
0.86151609039 -0.25389013282 0.43969287742 0.88944588704 -0.30924342527 0.33653308598 0.90861197715 -0.33275784666 0.25238163654 
0.88904464139 -0.41660181452 0.1898487655 0.8533276598 -0.49011058744 0.17783002304 0.85358746038 -0.48622466918 0.18701341813 
0.83834057293 -0.51471964746 0.1795794206 0.82102398693 -0.55133723058 0.14814476388 0.78984072709 -0.60766342836 0.083046876307 
0.76079594411 -0.64641454542 0.057773409876 0.75051291501 -0.65797143799 0.061676180156 0.73955252461 -0.6613831226 0.12503770824 
0.70275227704 -0.70357429233 0.10546303758 0.64418085054 -0.76143426062 0.072449282587 0.59643293281 -0.77077581322 0.22399196952 
0.57403301196 -0.73593591965 0.35900476786 0.5470070337 -0.74028419089 0.39084859191 0.54950857417 -0.72045132493 0.42307235235 
0.4883103713 -0.71087666764 0.50616928461 0.4883103713 -0.71087666764 0.50616928461 
FrenetNormal 3 80 double
0.66484737342 0.24358379504 0.70614793411 0.66484737342 0.24358379504 0.70614793411 -0.18162762987 -0.98330077496 0.011445087421 
0.59527706753 0.29197150875 0.74859725551 -0.34847271814 -0.92128015985 -0.17265466046 0.20065659133 -0.65798228454 0.7258073061 
0.078345470023 -0.63379340417 0.76952446885 -0.027117603451 -0.62910236377 0.77684931066 -0.63666249239 -0.52068286241 -0.56881475682 
-0.74312201473 -0.66914729218 0.0034018525208 -0.63865039336 0.037648804619 -0.76857546316 -0.36865654091 -0.61941660124 0.69312006821 
-0.090568100728 -0.32252889563 0.9422168172 -0.50798917932 -0.0054185434661 -0.86134640713 -0.92166661516 -0.062939197863 -0.38284371207 
-0.96331642876 0.048490861164 -0.26395093194 -0.8523238871 -0.10204323943 0.51296312612 -0.89782966888 0.29224909572 -0.329381772 
0.43087436341 0.31511949976 -0.84560450793 0.64462469326 0.34381741848 -0.68282397995 0.29395631771 0.60935135658 -0.73639704475 
-0.87194855225 0.38509187957 -0.30234081187 -0.38105440562 0.72098466812 -0.57877339978 0.55586523324 0.69005875341 -0.46350054943 
0.11115925236 0.92394116406 -0.36602779398 0.35327248957 0.93306473253 -0.067740335321 0.39090685351 0.90014965833 0.19215208686 
0.62664993928 0.65068485625 0.42885786859 -0.27530089727 0.85080320347 0.44759727985 0.1481351873 0.66024055175 0.73630046863 
0.24104284958 0.45529049327 0.85709329212 0.28018925875 0.19681148196 0.93955267008 0.41054847139 -0.15182374141 0.899110396 
-0.88706561423 0.46083651831 -0.027281851951 -0.93926704346 0.33531217551 0.073096963137 -0.99851387124 0.035313871087 0.041508787662 
-0.92715978118 -0.32072995832 0.19366732817 -0.78061632232 -0.38898579117 -0.48921182691 -0.47283379322 -0.38520893444 -0.79249118658 
0.040158716131 -0.27423613174 -0.96082351219 -0.3698143269 -0.77518002295 -0.51218482566 0.33065979854 -0.4874061006 -0.80814564945 
0.51114324505 -0.48574218453 -0.70907482906 0.6755891506 -0.37109730727 -0.63707620276 0.43561036611 -0.77479989022 -0.45817981083 
0.24731675592 -0.93997281429 -0.2351287533 -0.7031784456 -0.66683713915 0.24671502487 0.55867145186 0.81864564183 -0.13306209825 
0.85193172256 0.49092588227 -0.18221997206 0.5988864843 0.80001976661 0.036101965957 -0.5940387295 -0.80310930056 -0.046189167725 
0.72694377351 -0.61590499028 -0.30366724074 -0.87057674193 0.36604834688 0.32879285906 -0.91156049769 -0.26205754338 0.31683324166 
-0.25568619832 -0.96579581007 -0.043162729844 -0.84386077104 -0.33768782303 0.41697234113 -0.7947652355 -0.0065196176546 0.60688196136 
-0.5104025574 0.62377003491 0.59194608957 0.25876611577 0.96592821928 -0.0047720580449 -0.61125696079 0.0096982048186 0.79137277734 
-0.35151504149 0.32663550971 0.87735193589 0.011329556738 0.75102317832 0.66017863247 -0.33217484925 -0.20950237447 0.91965679719 
0.34606195175 0.88300643195 0.31708164043 -0.24289849897 -0.67551250553 -0.69619190894 0.31318462989 0.76582456617 0.56162987942 
0.52696504711 0.68078291955 -0.50876561948 0.24264901914 0.57189894314 0.78361537271 0.53401497787 0.74797945378 0.39415065665 
0.53348994265 0.67360599901 0.5115109375 -0.25903725064 -0.37875578363 -0.8885064767 0.32994628468 0.19429625453 -0.92378807889 
0.34105894274 0.463269615 0.81796091679 0.68995116624 0.53758332532 -0.48473864766 -0.17272860276 -0.39577318506 -0.9019581009 
0.70782010003 0.22554705477 -0.66941708379 0.2713778002 -0.28486543104 -0.91935073598 -0.20217993273 -0.60599381023 -0.76934698074 
0.75276907581 0.049702827172 -0.65640562725 0.75276907581 0.049702827172 -0.65640562725 
FrenetBinormal 3 80 double
-0.095943221191 0.96535424929 -0.24266452497 -0.095943221191 0.96535424929 -0.24266452497 0.64348537023 -0.11004261254 0.75750722883 
-0.043631178614 0.94201749741 -0.33271512565 0.4443571394 -0.32456049349 0.83498935246 0.58478005676 0.67485138723 0.45011986223 
0.59044117562 0.65145209219 0.47643403501 0.59155102155 0.6163555708 0.51978187661 -0.11947255164 -0.66211842309 0.73981450594 
0.27419726641 -0.29986471278 0.91372699047 -0.5759697935 -0.68572713158 0.44501359304 0.82863366711 0.11892534217 0.5470128049 
0.91905788263 0.33733166603 0.20381353112 -0.80147226498 -0.36338917201 0.47496370191 -0.34145116957 -0.33697568018 0.8774158021 
-0.26447288677 -0.3384991201 0.90303512548 0.51582012718 -0.32612122685 0.79219602485 -0.40258757645 -0.24174355128 0.88288351366 
-0.87848687134 0.36081121396 -0.3131710152 -0.7533853805 0.43743379697 -0.49098079568 -0.95403406387 0.23411267442 -0.18711029005 
-0.48596285288 -0.60563139771 0.63011960431 -0.9187501042 -0.22526415836 0.32427504527 -0.82984793136 0.49327432355 -0.2608310805 
-0.99376420121 0.10010313656 -0.049112874509 -0.93228099216 0.34510441414 -0.10842091587 -0.90406522592 0.41468819915 -0.10343966733 
-0.72446620483 0.6891891888 0.01292207846 -0.90545813456 -0.073025349627 -0.41810628418 -0.94357052264 0.31733690205 -0.094720427562 
-0.9096661758 0.41377445269 0.03602986139 -0.8719031785 0.46164231937 0.16331324592 -0.77883610132 0.45440043902 0.43235930464 
0.039150881148 0.016214110755 -0.99910175213 -0.055538546575 0.061671660186 -0.99655008714 -0.039419152049 0.057942210466 -0.99754139297 
-0.21421428027 0.02970312133 -0.97633496645 0.38673117933 0.31428237189 -0.86698649681 0.64016105305 0.467846512 -0.60935496008 
0.76619976267 0.62566786226 -0.14655254971 0.65098149002 0.17714479493 -0.73813469047 0.6769870847 0.71911652516 -0.15671601828 
0.62935099356 0.77338390472 -0.076122682719 0.51677793494 0.85464725889 0.050185942487 0.78195461703 0.5778533012 -0.23373604597 
0.89005416284 0.31629695038 -0.32826791862 0.59619945396 -0.74205987033 -0.30642023422 -0.74106382801 0.564753215 0.36315039442 
-0.43016235254 0.85453211981 0.29109312372 -0.76484375227 0.55802797137 0.32189876945 0.77009179964 -0.55114041144 -0.32125203035 
0.64391021518 0.76503290709 -0.010212045171 -0.40899975489 -0.90984502096 -0.070008844754 0.17280095446 -0.94338763271 -0.2831247156 
0.87031761643 -0.21051109738 -0.44523288783 0.25430647487 -0.93600247606 -0.24336717455 -0.041648261466 -0.99699925604 -0.065252630338 
-0.50923220083 -0.77392860388 0.3764532929 -0.63432679087 0.17365380669 0.75330862056 -0.17749299611 -0.97613415866 -0.12513329141 
-0.36637030666 -0.91041146975 0.19215554674 -0.45690004943 -0.58338039867 0.67149806796 -0.25314846338 -0.91944601287 -0.30089015423 
-0.29973446778 -0.21620029898 0.92920217366 0.46133742989 0.55088516676 -0.69548063153 -0.41629777213 -0.42083049431 0.80597633959 
0.13961705805 0.52115093876 0.84196720609 -0.51676016333 -0.60741983588 0.60332418863 -0.30162829648 -0.26696796542 0.91528600787 
-0.36956462562 -0.3583339135 0.85733237074 0.60797209408 0.6508591577 -0.45470021955 0.58668348585 0.72444553323 0.36191318962 
-0.624354094 -0.5388547847 0.5655240811 0.33014908753 0.36224582136 0.87165333988 0.78385750392 0.49926769547 -0.36918719075 
0.41167560916 0.63837829556 0.65038169145 0.79192006834 0.60895895011 0.045073300807 0.8106562784 0.33722602269 -0.47865959502 
0.44146540045 0.70155826014 0.55939637811 0.44146540045 0.70155826014 0.55939637811 
SiphonLabel 1 80 int
0 0 0 0 0 0 0 0 0 
0 0 0 0 0 0 0 0 1 
1 1 1 1 1 1 1 1 1 
1 1 1 1 1 1 1 1 1 
1 1 1 1 1 1 0 0 0 
0 0 0 0 0 0 0 0 0 
0 0 0 0 0 0 0 0 0 
0 0 0 0 0 0 0 0 0 
0 0 0 0 0 0 0 0 
