# vtk DataFile Version 5.1
vtk output
ASCII
DATASET POLYDATA
POINTS 99 float
74.2481 68.8354 28.8966 74.4285 69.2822 28.7131 74.6808 69.8623 28.4834 
75.0986 70.634 28.2201 75.6653 71.2745 27.9614 76.2253 71.8093 27.7277 
76.943 72.3706 27.5326 77.4145 72.6967 27.4431 78.1426 72.9702 27.2749 
78.5619 72.9714 27.1436 79.2727 72.8056 26.8718 79.8454 72.5081 26.5165 
80.305 72.1346 26.1692 80.6424 71.8082 25.8946 81.0047 71.3812 25.4948 
81.3118 70.8014 25.0472 81.5669 70.0452 24.5492 81.734 69.3647 24.0141 
81.743 68.8299 23.5034 81.6983 68.4061 23.064 81.4984 67.7629 22.3453 
81.0652 67.4407 21.6806 80.63 67.3217 20.9476 80.1315 67.2279 20.1828 
79.8639 67.4201 19.3222 79.8258 67.6358 18.5887 79.992 67.9533 17.7499 
80.2035 68.4586 17.2366 80.6197 69.146 16.7909 81.1065 69.8565 16.5748 
81.5424 70.5051 16.3247 81.9842 71.1467 16.2528 82.5732 71.8363 16.2423 
83.0513 72.4465 16.3542 83.5883 73.196 16.6463 83.897 73.6062 16.872 
84.2405 74.1592 17.365 84.4061 74.442 17.6571 84.5992 74.9251 18.1098 
84.6835 75.6048 18.7478 84.5908 76.2342 19.3318 84.4307 76.6771 19.7718 
84.1105 77.1892 20.1951 83.9329 77.4086 20.3361 83.4632 77.9397 20.5216 
82.7181 78.3907 20.5194 82.432 78.4959 20.4722 81.6559 78.9256 20.0107 
80.8901 79.2131 19.452 80.3652 79.2204 18.9915 79.9658 79.0465 18.4302 
79.6917 78.893 17.9407 79.3144 78.6948 17.2072 78.9973 78.4223 16.4044 
78.8064 77.9689 15.5593 78.6791 77.7401 14.9124 78.5575 77.5413 13.9772 
78.4698 77.4525 13.2865 78.4583 77.3703 12.6576 78.4234 77.3006 12.1091 
78.3887 77.2542 11.4004 78.2607 77.3004 10.5519 78.1999 77.2763 9.80571 
78.139 77.3135 9.23506 77.9596 77.4321 8.52554 77.7757 77.7199 7.64197 
77.4168 78.0529 6.81526 77.0103 78.4002 6.01428 76.7561 78.6391 5.53997 
76.3992 79.1136 4.94503 76.0991 79.5156 4.53244 75.7696 79.8842 4.22327 
75.4413 80.2036 3.96183 74.9216 80.7573 3.67695 74.3922 81.1624 3.45061 
73.9678 81.4854 3.33836 73.4189 81.9275 3.32449 72.8862 82.3766 3.37834 
72.5135 82.6302 3.41376 71.953 83.1177 3.47656 71.351 83.4733 3.58815 
70.9533 83.6903 3.68885 70.4964 83.9403 3.81808 69.7532 84.2741 4.00584 
69.2384 84.4761 4.13278 68.398 84.7627 4.26092 67.5617 85.0811 4.42155 
67.0809 85.2752 4.54614 66.5367 85.4866 4.66826 65.6259 85.8328 4.75721 
64.845 86.1977 4.75163 63.9898 86.638 4.74994 63.1657 87.1642 4.7537 
62.3153 87.6048 4.694 61.7019 87.9246 4.45228 61.0301 88.3365 4.10287 
60.6041 88.6528 3.83216 60.1923 88.9632 3.50683 59.7704 89.3202 3.05894 

LINES 2 99
OFFSETS vtktypeint64
0 99 
CONNECTIVITY vtktypeint64
98 97 96 95 94 93 92 91 90 
89 88 87 86 85 84 83 82 81 
80 79 78 77 76 75 74 73 72 
71 70 69 68 67 66 65 64 63 
62 61 60 59 58 57 56 55 54 
53 52 51 50 49 48 47 46 45 
44 43 42 41 40 39 38 37 36 
35 34 33 32 31 30 29 28 27 
26 25 24 23 22 21 20 19 18 
17 16 15 14 13 12 11 10 9 
8 7 6 5 4 3 2 1 0 

CELL_DATA 1
FIELD FieldData 2
Length 1 1 double
73.830334964 
Tortuosity 1 1 double
1.0501990683 
POINT_DATA 99
FIELD FieldData 7
MaximumInscribedSphereRadius 1 99 double
1.2446456721 1.2899153476 1.3353115365 1.472704222 1.5145413055 1.4843331736 1.4785195529 1.5158386977 1.5469361504 
1.4973144107 1.3998447761 1.3769835353 1.4021148765 1.4364636965 1.4888482909 1.5337644486 1.6197310143 1.7219561021 
1.7828095136 1.8333714296 1.9231942038 1.8387006595 1.7601777393 1.8650960934 1.9022122392 1.9872005445 2.073818781 
2.0374215907 2.0007388459 1.9712991179 1.8892274811 1.8234560272 1.8428567859 1.9785366534 2.1454861074 2.2497398859 
2.309974961 2.3181968809 2.2705712881 2.2264975776 2.1648331036 2.1317196266 2.1202347086 2.1193116173 2.1005958731 
1.9891754528 1.9398674105 1.7767758011 1.8251066257 1.9232113943 1.9476484807 1.9549527356 1.9981169992 2.0974421114 
2.1436889011 2.1261297218 2.1006825209 2.0847085514 2.0723525896 2.0215416924 1.9168600262 1.8657352978 1.8216900594 
1.7714183915 1.7464821596 1.7652182187 1.8297318437 1.8420625085 1.8325499073 1.8122780146 1.8322134702 1.85425746 
1.8554495276 1.865801255 1.8390357511 1.8157386526 1.8503977821 1.8471918438 1.8525944413 1.8771480034 1.8687772861 
1.8411786398 1.7772190018 1.751613107 1.7758460893 1.814441711 1.8318818901 1.8399464119 1.8295300004 1.8020028533 
1.7938567714 1.7968280715 1.7933933511 1.8246823577 1.8307297846 1.7734027348 1.7497796411 1.751538766 1.69124048 

Curvature 1 99 double
0 0.049546958418 0.12530489853 0.24376456281 0.094678122797 0.14515769696 0.10655777294 0.36558666849 0.58972822451 
0.37402238764 0.36189211879 0.25294108975 0.12102483612 0.19989209321 0.24251066181 0.16373213612 0.12892611719 0.25176625736 
0.14015825642 0.17151587514 0.46830715156 0.29533472744 0.062147397667 0.46925816323 0.30420899612 0.29570647201 0.51936477821 
0.33295948037 0.29847779947 0.075422413429 0.27452780522 0.15606445385 0.19096555195 0.19376552685 0.14390468457 0.36175744215 
0.13137909397 0.20018042638 0.24012321878 0.2217279055 0.19606167746 0.3152838169 0.34541574925 0.40656361848 0.50889162827 
0.41645000551 0.55243409727 0.17517910892 0.35856864662 0.50249069654 0.16492399705 0.065008175097 0.13515758685 0.24296064093 
0.18024178196 0.17013270591 0.097483233767 0.16107036295 0.076200546775 0.099229720832 0.19949286082 0.13691597806 0.15156479845 
0.25971246898 0.18303297571 0.20957925979 0.060556811349 0.068460074246 0.26338525208 0.13196338138 0.24088192743 0.12977992333 
0.24777953275 0.20900592316 0.19244109863 0.30581639048 0.14185267315 0.17875139974 0.19786719487 0.27119533947 0.11787840575 
0.048986846279 0.11384247333 0.067126660867 0.12794668987 0.053951457429 0.085280271167 0.057330730498 0.14690258448 0.13322887805 
0.042504849072 0.095922641788 0.11574123171 0.32868045189 0.13018990089 0.13310404188 0.151724025 0.19248540124 0 

Torsion 1 99 double
0 0 0.7378252358 0.18360148081 -0.52259103544 -0.25418120661 1.8701135666 0.28739819515 0.079804425898 
0.40621320596 0.13849142966 -0.33906540452 0.88309761484 -0.35790574835 -0.45457611476 0.38200388448 0.39189218203 -0.09750879999 
-0.21137936175 0.46281524024 0.32040807251 0.50961594309 1.7658935139 0.25415466138 0.3900637066 -0.85686652982 -0.072997238751 
0.38667699999 -0.11493359205 0.29961818146 0.28719823804 0.11745745581 -0.43454268238 0.199034506 -0.39444344448 -0.1136280417 
-0.96396905504 -0.14476205116 0.19038624646 0.10485151944 -0.43025474248 -0.38722321153 -0.54891213738 0.42900008998 0.36171782481 
-1.0180640952 -0.33324678407 1.6556678317 -0.27683221876 -0.35142790329 -1.5581901199 0.028695353599 0.57037525046 -0.22007925283 
-0.44840439975 0.050304876022 0.56878033825 0.43360186352 0.98199370494 -0.67115732912 -0.27049342646 -0.30818218707 -1.1186878793 
0.21671014591 0.12139552148 -0.44909869229 0.60117101103 0.91224288871 -0.15000186492 -1.3358438919 -0.4534623784 0.78214302794 
-0.25839652596 -0.18897251431 1.0454079322 0.11499046998 -0.74690497369 -0.61305682261 -0.43814125611 -0.023363061938 1.4254220217 
-1.0004903199 -0.21387219022 -0.91947486682 -0.39548437784 -0.77906852404 -0.23999297583 -0.89296767844 -0.46080828836 -0.54186394285 
-1.404319986 0.35079106888 -0.93255887225 -0.31791352885 -1.1052075067 0.44591097264 0.28864524367 0 0 

FrenetTangent 3 99 double
-0.36411558577 -0.86400014708 0.34774068793 -0.36411558577 -0.86400014708 0.34774068793 -0.42220111873 -0.85163118194 0.3105970787 
-0.54727193561 -0.78504384938 0.2901716441 -0.66238879151 -0.69098217829 0.28945590023 -0.73549569941 -0.63096758043 0.24683190349 
-0.78710319885 -0.58734175866 0.18840969425 -0.87843388167 -0.43904933703 0.1886520479 -0.94263526205 -0.22566158665 0.24599920944 
-0.93311710937 0.13590686531 0.33289906001 -0.8546559273 0.30853571763 0.4175750913 -0.7281826691 0.47340081323 0.49562250801 
-0.6481833423 0.56921287478 0.5058211719 -0.56902731137 0.61268266529 0.54847777582 -0.45341081296 0.68191696553 0.57394066488 
-0.3248882785 0.77195736715 0.54637846755 -0.23203701662 0.7897411251 0.5678624642 -0.10914299601 0.75345278448 0.64838006445 
0.026406409851 0.71000072024 0.70370567625 0.15349335382 0.66956807604 0.72671753927 0.35136836877 0.53576689519 0.76778519356 
0.50971262379 0.25899662135 0.82043512314 0.52519568705 0.11973366506 0.84251607685 0.42569894084 -0.054706254496 0.90320963097 
0.18264324905 -0.24372338917 0.95249165516 -0.076890658943 -0.32020363971 0.94422320226 -0.23208639021 -0.50566785211 0.83092474438 
-0.37949066699 -0.72099905874 0.57978202021 -0.50419515995 -0.78053358817 0.36953289221 -0.54034426965 -0.79593375717 0.27297898169 
-0.55086102527 -0.80976187641 0.20208373104 -0.61149878568 -0.78973472923 0.048870160275 -0.63338171144 -0.77149216269 -0.060228319922 
-0.58196826386 -0.77953863352 -0.2315868276 -0.55425810505 -0.76004611434 -0.33930496174 -0.4769691361 -0.70443951348 -0.52560956523 
-0.4057468205 -0.66617055612 -0.62576857369 -0.3183591399 -0.67959176326 -0.66091035198 -0.17147023802 -0.71852578499 -0.67403164152 
0.0047330587433 -0.73098279431 -0.68237947843 0.16808659288 -0.71296045051 -0.68076008497 0.34952015177 -0.69507567689 -0.62825589285 
0.47434834543 -0.69697153168 -0.53779580811 0.62037655602 -0.7191858241 -0.31289723419 0.77235921322 -0.62440449855 -0.11653440673 
0.87935745019 -0.47429843116 0.042088870234 0.82115448689 -0.41350871624 0.39333935762 0.77751794027 -0.36165933445 0.51445930681 
0.77250297791 -0.17644933895 0.61000391795 0.66600109472 0.11999167915 0.73623674098 0.52201015665 0.25368784206 0.81433891909 
0.45565260532 0.24604931144 0.85547673235 0.39668956206 0.26891695943 0.87767936075 0.27153800987 0.38796911124 0.88076505262 
0.19040942999 0.4082073933 0.89281071511 0.15013155421 0.2579733077 0.95441620321 0.12578174155 0.17281696204 0.9768895798 
0.074313036012 0.12811665753 0.98897102826 0.039020143123 0.12788151909 0.99102156662 0.055101311441 0.091811383584 0.99425073061 
0.10394278441 0.0001169429414 0.99458327147 0.11756962907 -0.013733637627 0.992969672 0.092010391643 -0.009922745854 0.99570860544 
0.18315606753 -0.11873854549 0.97588678275 0.21577294994 -0.24135577386 0.94614450508 0.28584941366 -0.32699961039 0.90075599777 
0.39799415114 -0.35374877389 0.84644105561 0.42592496844 -0.37783055755 0.82209001396 0.42937238766 -0.50127036568 0.75124388397 
0.44145705072 -0.58895455627 0.67694032456 0.51217477259 -0.62685614344 0.58713574048 0.59268301848 -0.61994909106 0.51418864642 
0.63561581056 -0.65443671365 0.40951816711 0.69462701537 -0.63477611837 0.33845618485 0.76496981765 -0.58401658483 0.27156179174 
0.78210805705 -0.61484585375 0.10134872084 0.77148058058 -0.63561350142 -0.028516496926 0.78760977127 -0.61126248543 -0.077646777784 
0.78044333779 -0.61980642836 -0.08214735458 0.80361989525 -0.5828033526 -0.12056249897 0.85337320028 -0.48878716998 -0.18122164192 
0.85404647196 -0.46669401941 -0.22978536936 0.8749081857 -0.42560214864 -0.23108110623 0.89658522259 -0.38188090493 -0.22428087988 
0.92631797663 -0.33396407974 -0.17436455951 0.92853792567 -0.33502826327 -0.1599168015 0.91351288375 -0.35547284729 -0.19782129832 
0.90742066631 -0.35899793805 -0.21842210244 0.92533101444 -0.35460517736 -0.13422995905 0.9209232937 -0.38709245695 -0.045384103891 
0.89721728393 -0.44157134833 0.003986195906 0.86669418567 -0.49883869492 -0.001070034142 0.86567863842 -0.49976416727 0.028918369425 
0.87294451148 -0.45349043196 0.17976180907 0.80693634781 -0.45945864912 0.37114886546 0.75398775898 -0.50012423719 0.42588520365 
0.69576055159 -0.52045175427 0.49502245032 0.63233455932 -0.5061627726 0.58647442632 0.63233455932 -0.5061627726 0.58647442632 

FrenetNormal 3 99 double
0.85200839083 -0.15820461763 0.49905210241 0.85200839083 -0.15820461763 0.49905210241 0.81276315625 -0.20389210436 0.54575091536 
0.81848397782 -0.57443487501 -0.010418849521 0.72352979823 -0.69024703052 0.0079792188068 0.61566930707 -0.47032886534 0.63225158186 
0.53423296621 -0.49645077468 0.68420155374 0.39612105762 -0.8898399602 -0.22643531736 0.15998316199 -0.95215344541 -0.26040200514 
-0.21460079178 -0.95334471371 -0.21232135317 -0.49893270536 -0.71055888073 -0.49615746747 -0.60274144779 -0.78655803326 -0.13427288421 
-0.65492237136 -0.75561517203 0.011063421223 -0.77006558685 -0.16305437051 -0.61677570008 -0.78660454952 -0.60895625181 0.10210566124 
-0.81959735528 -0.51808674977 0.24463502394 -0.69766857208 0.27167943326 -0.66290938225 -0.87648544764 0.23474045145 -0.42032152041 
-0.90132213096 0.32136533928 -0.290418207 -0.95091001482 0.30008191113 -0.07563722845 -0.73883339893 0.66236550175 -0.12408525586 
0.0012690234363 0.95338471508 -0.30175482538 -0.68048198604 0.6535913355 0.33130444131 0.61219700738 0.75245139793 -0.24296443753 
0.95034433241 0.29204208405 -0.10750381857 0.94843370533 0.26859333708 0.16831852503 0.24552858627 0.79613182114 0.5530730844 
0.62238009207 0.26473283365 0.73658641569 0.36046648335 0.19863155805 0.91137775841 -0.26133509693 -0.14963096471 -0.95357985587 
0.15505624447 0.1386210915 0.97813176722 0.64253764038 -0.45958107661 0.6131318086 -0.23941129648 0.12134990132 0.96330495305 
-0.3330369401 -0.031337573426 0.94239288676 -0.035080588084 -0.3859562233 0.92184985005 -0.53998963876 -0.23697633387 0.80762206954 
-0.52167326548 -0.39338629551 0.75703647639 -0.86630975138 0.4916500662 -0.088247532942 -0.98517921103 0.12196038916 0.12061337249 
-0.99955399246 0.016662658678 -0.024782492878 -0.9601326971 -0.27488606341 0.050821807276 -0.86015706989 0.027782433898 -0.50927198184 
-0.73033761762 0.029532129899 -0.68244766656 -0.34321402305 0.1097833503 -0.9328192485 -0.53336507295 -0.53790992666 -0.65282050348 
-0.34793639333 -0.70038405948 -0.62321941194 0.5068358324 0.21156979625 -0.83567676784 0.017159731974 -0.80557535293 -0.59224479258 
0.052235090825 -0.93970660164 -0.33796893072 0.55259354185 -0.74234992665 -0.37888911822 0.85257351701 -0.1831506954 -0.48946319664 
0.57421682478 0.65310506096 -0.49368898862 0.80004658697 -0.57007108187 -0.18693426729 0.68784115262 -0.71832082712 0.10435390791 
0.083491604776 0.89942062247 -0.42903577451 0.40112390356 0.86643955234 -0.29729129845 0.013621081455 0.98431654329 -0.17588464612 
0.9970383076 -0.029239280631 -0.071131411078 -0.99630127865 0.080965813241 0.028780188298 0.22721015337 0.96848675692 -0.10202425146 
-0.64221031864 0.76359236606 0.067026898473 0.61703112989 -0.78245560027 -0.083879785141 -0.24728050833 0.96839869556 0.032501025281 
-0.79980261924 0.55921944742 0.21814990233 0.313121871 0.93490076809 0.16707856751 -0.90542655683 0.21567998273 0.36562945072 
-0.836175701 0.23966164801 0.49332797563 -0.18410606964 0.85342498683 0.48761741865 0.045376053557 0.84274808746 0.53639227702 
-0.38451589279 0.55747777082 0.73577582404 -0.6996352233 0.092014482338 0.70855055526 -0.79817892175 -0.36657780191 0.47804929036 
-0.10036240898 0.45591101221 0.8843486506 -0.71082928039 -0.67794998349 0.18736476196 -0.22754060107 0.14938997286 0.96224108771 
0.0089295475704 0.17368280925 0.98476116137 0.16505819723 0.15665316498 0.97376361476 -0.61224605935 -0.79055672 0.013222528962 
0.62432063537 0.77962688926 0.049047505551 -0.50634717103 -0.77599574755 0.37608927421 -0.10167559569 -0.49702016152 0.86176158668 
0.22043281868 -0.075428660805 0.97248130552 -0.47203603959 -0.85608619379 -0.2104718654 -0.39529608809 -0.91840600705 -0.016474494212 
-0.30519844276 -0.3938509544 -0.86702672177 0.34701648643 0.63025128617 0.69452348731 0.29040873525 0.22930522945 0.92902200094 
-0.33404152661 -0.3008671411 -0.89324980935 -0.14703345599 -0.0092761540843 -0.98908802226 0.20022507079 0.56979666964 -0.79702049929 
0.43786981211 0.89079289 0.12148273441 0.49798220988 0.86507639841 0.06046936051 -0.38835460572 -0.70690458833 -0.59115700386 
0.16397164435 -0.074284041491 -0.98366416069 0.56036309486 0.39693770453 -0.72693442664 0.65658322598 0.55402186493 -0.51181856212 
0.43649720198 -0.24095815032 -0.86683871767 0.6526875439 -0.059722713929 -0.7552695992 0.6526875439 -0.059722713929 -0.7552695992 

FrenetBinormal 3 99 double
-0.37616690731 0.47799063255 0.79374014201 -0.37616690731 0.47799063255 0.79374014201 -0.4014502051 0.48285850902 0.77825792196 
0.17486396585 0.23179889757 0.95691789853 0.19428257761 0.21471531419 0.95715809242 -0.28283808174 0.6169851464 0.73439223079 
-0.30832400519 0.63919190143 0.70453532273 0.26728640676 -0.12417940604 0.95558225804 0.29299172448 -0.20610838098 0.9336354667 
0.28851162951 -0.26956108919 0.9187479844 0.14362938921 -0.63238579044 0.76122191942 0.32627097256 -0.39650741525 0.85809621962 
0.38850359362 -0.32410247604 0.86256741346 -0.28845608133 -0.77332607865 0.56458822626 0.41913233873 -0.40516852728 0.81250633668 
0.47191925339 -0.3683312952 0.80101452874 -0.67780335382 -0.54999930988 0.48793787789 -0.46889344897 -0.61417084106 0.63477012493 
-0.43234374954 -0.62659659748 0.64842546701 -0.26871906157 -0.67943317417 0.68275956807 -0.57503519724 -0.52366571026 0.62857676209 
-0.86034378636 0.15484939518 0.48562355182 -0.51099291284 -0.74731667692 0.4247399527 -0.6663296751 0.65637193684 0.35380876842 
-0.25196645301 0.92482989285 0.28496065667 -0.30750826519 0.90847523268 0.28303960579 -0.94119690862 0.33237651347 -0.06061544765 
-0.6845654495 0.64037245731 0.34827182095 -0.78476184608 0.59271647681 0.18120712748 0.79983250582 -0.58660039941 -0.12715319123 
-0.82006688257 0.57014901255 0.04919767888 -0.46175168197 0.40633027389 0.78846755971 -0.73587352088 0.62455907996 -0.26156474707 
-0.7418890324 0.62556972061 -0.24137768799 -0.83160525811 0.52284576863 0.1872565003 -0.69347792556 0.66903452006 -0.26735964117 
-0.75048419153 0.63361187857 -0.18790813075 0.38490891482 0.54445867402 -0.74525826367 -0.0044586568444 0.6847235645 -0.72878924292 
0.029485832232 0.68219242904 -0.73057790513 -0.2233653985 0.64507755204 -0.73074130211 0.37143704532 0.71839956832 -0.58816373707 
0.49152885112 0.71649043073 -0.49501601104 0.70522128664 0.68608991132 -0.17872764324 0.34493904494 0.56636731278 -0.74849523865 
0.32507036314 0.53338838328 -0.7809136262 0.26234089971 0.88557820824 0.38331252188 0.62862659517 0.46930893508 -0.6201433119 
0.63285910313 0.29294561548 -0.71670930088 0.50108174916 0.65918023585 -0.56071249079 0.0249758772 0.94978855624 -0.31189405893 
-0.68018801915 0.71617980681 0.15630336822 0.45006982794 0.77633924965 -0.44128734338 0.673157974 0.5774903965 -0.46191252849 
-0.97814794428 0.15623465664 0.1371762777 -0.90363716746 0.42747195774 0.026600656426 -0.99196442458 0.035429369641 0.12145509514 
0.019803682799 0.9913279914 -0.12991007511 -0.076558412882 -0.98847906106 0.13056781861 -0.97228565334 0.23152553104 0.032504411874 
-0.75944835519 -0.64569860215 0.079445018647 0.77810665533 0.62255491389 -0.083518932744 -0.96456541408 -0.24920976216 0.086649041606 
-0.57163766949 -0.82047228317 0.0074570351845 -0.92487660149 0.26020750229 0.27730006812 -0.31383572597 -0.92008336571 -0.23442213472 
-0.37737362483 -0.90411509192 -0.20041219483 -0.88582892049 -0.35904019501 0.29393411164 -0.90198689928 -0.19622354999 0.38459842947 
-0.81071770707 -0.58510773854 0.019640105535 -0.49818425972 -0.77368256441 -0.39144314133 -0.10787607927 -0.69374623577 -0.71209473518 
-0.7654540667 -0.60320621414 0.22410340246 0.11052168862 -0.37073319171 -0.92213982503 -0.60253336252 -0.79787672272 -0.018608664456 
-0.62307884756 -0.76928464036 0.14132901979 -0.61447010124 -0.75594660044 0.22576809335 -0.06946661788 0.037124740709 -0.99689324535 
0.033644327277 -0.089565087548 0.99541255484 -0.3127420764 -0.24118634286 -0.91870645021 -0.51128881689 -0.71697842471 -0.47384141252 
-0.47118361196 -0.88119646469 0.038455096513 -0.10824806655 0.29322216811 -0.9498963713 -0.19968961259 0.10342814251 -0.97438528209 
0.22088213307 0.85635823063 -0.46675653625 -0.13189722793 -0.70038516481 0.70147255269 -0.28488063767 -0.9061226002 0.31270570141 
0.25495880621 0.88351538973 -0.39293328092 0.34949059578 0.93497011779 -0.06072233781 0.33438033457 0.72490770794 0.60224464034 
-0.057194169803 -0.10725097416 0.99258554064 -0.029238795598 -0.052941301132 0.99816948033 0.31588161579 0.50052140824 -0.80603791765 
0.45943571882 0.88816006964 0.0095137255175 0.18667333097 0.79456793824 0.57776713218 0.02002315319 0.66553401157 0.74609888941 
0.57042742528 0.81918809883 0.05952655893 0.41731519878 0.86036762205 0.29260140087 0.41731519878 0.86036762205 0.29260140087 

SiphonLabel 1 99 int
0 0 0 0 0 0 0 0 0 
0 0 0 0 0 0 0 0 0 
0 0 0 0 0 1 1 1 1 
1 1 1 1 1 1 1 1 1 
1 1 1 1 1 1 1 1 1 
1 1 1 0 0 0 0 0 0 
0 0 0 0 0 0 0 0 0 
0 0 0 0 0 0 0 0 0 
0 0 0 0 0 0 0 0 0 
0 0 0 0 0 0 0 0 0 
0 0 0 0 0 0 0 0 0 

