# vtk DataFile Version 5.1
vtk output
ASCII
DATASET POLYDATA
POINTS 111 float
81.9699 80.363 38.9553 82.3395 80.8461 38.5211 82.7345 81.2552 38.0916 
83.0744 81.6465 37.6645 83.5838 82.1481 37.1073 84.1186 82.4786 36.7026 
84.641 82.7394 36.3858 85.136 82.9608 36.0687 85.7876 83.1594 35.8126 
86.6851 83.2489 35.5242 87.508 83.2572 35.2326 87.998 83.1485 35.0285 
88.5775 82.7852 34.7462 89.1047 82.2936 34.5565 89.5204 81.764 34.3876 
89.8976 81.2869 34.2246 90.3875 80.5055 33.9669 90.6398 79.7059 33.7923 
90.6401 79.0373 33.4101 90.3729 78.3567 33.0782 90.0853 77.6157 32.8482 
89.8884 77.0147 32.7132 89.5631 76.1307 32.4772 89.0631 75.4142 32.1508 
88.7039 75.0413 32.0425 88.3596 74.6791 31.9478 87.9092 74.2622 31.7562 
87.1877 73.7615 31.3748 86.4913 73.4259 30.9011 86.0693 73.25 30.5036 
85.65 72.9887 29.7225 85.3238 72.911 28.9223 85.1828 73.172 28.0074 
85.204 73.7122 27.2043 85.3961 74.351 26.805 85.928 75.0449 26.5347 
86.5088 75.7005 26.3746 87.1901 76.2574 26.3499 87.8374 76.8817 26.3656 
88.4882 77.4643 26.4776 89.0679 77.7769 26.5692 89.8964 78.0538 26.9891 
90.6468 78.1749 27.5513 91.3528 78.4059 28.2079 91.9047 78.7596 28.7876 
92.3799 79.3261 29.3559 92.6057 80.088 29.8503 92.6446 80.4539 30.0379 
92.5422 81.1487 30.2297 92.2789 82.0386 30.4408 92.1279 82.8396 30.2589 
91.9854 83.437 29.9842 91.6392 84.1935 29.4437 91.4694 84.5637 29.1252 
91.2632 84.9625 28.6572 91.1221 85.2457 28.1971 90.9712 85.5287 27.6776 
90.8408 85.8422 26.8347 90.7274 86.0144 26.0962 90.4775 86.1178 25.5418 
90.0707 86.2812 24.7137 89.783 86.4086 24.136 89.4235 86.5301 23.2187 
89.224 86.5675 22.5971 88.9459 86.5269 21.8428 88.7315 86.3992 21.0951 
88.4244 86.2965 20.2636 88.1445 86.3145 19.6388 87.957 86.3447 19.3044 
87.5946 86.4591 18.7024 87.0625 86.6063 17.975 86.5462 86.6318 17.4221 
85.767 86.7445 16.8573 85.0463 86.9914 16.5573 84.2035 87.3341 16.222 
83.6129 87.5702 15.9855 83.0247 87.8097 15.8392 82.2508 88.2255 15.711 
81.804 88.4815 15.7602 80.9993 88.9978 15.91 80.4843 89.2976 15.9293 
79.7355 89.7501 15.8786 79.0888 90.2119 15.8002 78.5072 90.7193 15.7598 
77.8804 91.2314 15.835 77.2397 91.7634 15.9143 76.8388 92.1321 15.9438 
76.3271 92.6402 15.9883 75.8048 93.2234 16.1111 75.349 93.6936 16.1996 
74.7473 94.2708 16.2143 74.0929 94.8898 16.1734 73.6776 95.2839 16.1074 
73.0368 95.9496 15.9909 72.6778 96.2866 15.8693 72.1403 96.7691 15.6659 
71.5824 97.3561 15.3274 71.21 97.8637 15.0265 70.8543 98.3463 14.6986 
70.5215 98.8523 14.2965 70.266 99.4919 13.8118 70.1448 99.9189 13.3731 
70.0286 100.351 12.8169 69.9126 100.695 12.3413 69.8591 100.964 11.9298 
69.8709 101.213 11.444 69.9987 101.537 10.6304 70.1897 102.014 9.88645 
70.4769 102.368 9.05696 70.7743 102.589 8.14522 71.0879 102.739 7.25705 

LINES 2 111
OFFSETS vtktypeint64
0 111 
CONNECTIVITY vtktypeint64
110 109 108 107 106 105 104 103 102 
101 100 99 98 97 96 95 94 93 
92 91 90 89 88 87 86 85 84 
83 82 81 80 79 78 77 76 75 
74 73 72 71 70 69 68 67 66 
65 64 63 62 61 60 59 58 57 
56 55 54 53 52 51 50 49 48 
47 46 45 44 43 42 41 40 39 
38 37 36 35 34 33 32 31 30 
29 28 27 26 25 24 23 22 21 
20 19 18 17 16 15 14 13 12 
11 10 9 8 7 6 5 4 3 
2 1 0 
CELL_DATA 1
FIELD FieldData 2
Length 1 1 double
85.424563596 
Tortuosity 1 1 double
1.1198580554 
POINT_DATA 111
FIELD FieldData 7
MaximumInscribedSphereRadius 1 111 double
1.0350357642 1.1081623322 1.2121887117 1.2820069854 1.3148022782 1.2456451258 1.2092018819 1.2105728647 1.2396545625 
1.2845239806 1.3597651267 1.413353724 1.4540701098 1.5016016579 1.5284864095 1.570318461 1.5327010153 1.3916628313 
1.3917611449 1.3227998972 1.3504013328 1.4170648823 1.5458214714 1.5765713 1.5910994806 1.6057470651 1.5861364495 
1.586368164 1.6032840561 1.649523577 1.7481324393 1.8792235804 1.7925307464 1.7065228736 1.6205424388 1.4685239903 
1.4075285856 1.42979653 1.5003672112 1.5275072944 1.4890188219 1.4799321447 1.6156773425 1.7362517844 1.654835847 
1.6174188225 1.6543488151 1.7040025069 1.8079070777 1.9671294566 1.9016295285 1.8842439641 1.9021966598 1.9533011261 
1.9977674676 2.0164170928 2.0321688354 2.0335083657 1.9829436484 1.8971887799 1.8132700362 1.7905330954 1.7632009568 
1.79240976 1.8857898647 1.8725092733 1.8275619538 1.7750375404 1.7079949181 1.5614924747 1.541337843 1.6607310698 
1.8103494023 1.8065406792 1.823077132 1.8325158029 1.8022116899 1.763482001 1.736028002 1.627612453 1.6030160956 
1.6580187297 1.7548786921 1.7700565146 1.7026857821 1.6377777814 1.6153281505 1.6098848031 1.5921771045 1.5981327823 
1.6160822577 1.69040571 1.7447958158 1.877217416 1.8643133484 1.7907926486 1.7474825344 1.7585045439 1.7846986113 
1.8168228381 1.8159933939 1.7441238834 1.6854320401 1.6313931951 1.5750259265 1.5293871329 1.5025503036 1.4912895291 
1.5622899906 1.6476075273 1.7549196437 
Curvature 1 111 double
0 0.13203551814 0.085419650349 0.084346344885 0.24826434435 0.15318324697 0.075499586035 0.30256736687 0.23116858733 
0.099280091333 0.31133910151 0.50283587478 0.30600541889 0.20983101314 0.024689565311 0.13320963743 0.28626456338 0.54009759387 
0.45056169389 0.17803664861 0.12023134342 0.061677596977 0.28716053871 0.29488951254 0.038420705391 0.22810185578 0.21287302269 
0.21381833177 0.2280923135 0.41173627362 0.25078419544 0.49113203626 0.37879835353 0.56816475462 0.4975825337 0.15300840457 
0.25197235048 0.10571523542 0.13081283921 0.30583883476 0.43933490543 0.24763510434 0.15480180527 0.20499893137 0.27224905703 
0.38449469164 0.26789862487 0.55580387099 0.17152669862 0.53103890358 0.27565495875 0.28051767495 0.11593325569 0.25284838926 
0.27076489602 0.088458372259 0.23210389488 0.15070877748 0.39918075377 0.043000662075 0.025343839754 0.13757640258 0.11035818642 
0.15918240913 0.16905632982 0.1045373461 0.19967883986 0.19482416883 0.1613610888 0.10906981236 0.21069690182 0.24440943155 
0.33721618501 0.06360861959 0.0074539797199 0.19547005155 0.17274863766 0.34762609472 0.10531263719 0.16722732952 0.12494217314 
0.10328141897 0.13672139806 0.18814545643 0.0098763303762 0.093955256117 0.061193609715 0.14645549482 0.061388233724 0.16390309321 
0.073104735724 0.093820149316 0.0612018918 0.17689822394 0.061855966389 0.17590650301 0.16081603606 0.079226466988 0.13764008809 
0.21635028557 0.25268837411 0.17086572868 0.071824118296 0.17878136247 0.32453259809 0.21840802061 0.22583102558 0.20339040983 
0.16498285303 0.074913890903 0 
Torsion 1 111 double
0 0 0.7045468949 -0.14545083598 -0.070950836258 0.10308898656 -1.4829350113 0.21037534253 0.70708399926 
0.63149996733 -0.11794936139 -0.29903875883 -0.30764702319 0.65397753149 2.0450334946 -0.53436506375 0.83765071227 -0.11412134566 
-0.85492726858 -1.6541119652 -0.52022946866 -0.7033428572 -0.53461193293 -0.6815977405 -5.5823806732 -0.26200302583 -0.13644891747 
0.4014448686 0.96026630142 -0.14319745708 -0.67024225865 -0.037218232239 -0.078791411691 0.3444525494 0.36764344544 -0.30321585364 
-0.12715558833 -0.5798037304 1.6446773138 -0.53765372273 -0.35622304009 -0.25943742988 -1.1328473743 -0.26400440326 0.12130065344 
0.065972108804 -0.24437061308 0.070101319878 -0.8548270091 -0.060899202019 0.86905187726 0.11995662422 -0.90110682704 -0.19396920984 
-0.14183699462 -0.2061169104 0.15340182454 2.1147511228 0.30933485776 2.8737321697 2.9141669501 0.11835761735 0.87602486433 
-0.16054112122 -0.32379781147 0.98078296083 -0.17655641323 -0.041342637101 0.12927306121 -1.7066110605 0.42671853305 0.72049653055 
0.19397885484 1.7237823136 14.081957678 0.53326532837 -0.34836967219 -0.13399195055 1.5570006412 -0.095354247965 -0.88686972579 
-1.1954560822 -1.2331424449 -0.41482282727 16.132326409 -0.29830708378 -2.3122354713 -0.34159156689 -2.0765653294 -0.23045853523 
-0.33980617913 -0.49827366403 0.90157594543 0.28194227145 -1.6295787284 -0.50178674366 -0.079954348483 0.76058199049 -1.0302526036 
0.33938310608 0.69032672574 0.70105708721 -0.2790759979 -0.0023010661487 0.09501998136 -0.71712287027 -0.12998064441 0.67200320105 
0.20146780968 0 0 
FrenetTangent 3 111 double
-0.52429823251 -0.6118085679 0.59228509996 -0.52429823251 -0.6118085679 0.59228509996 -0.53113804508 -0.57849747731 0.61905819259 
-0.53851063884 -0.56614852484 0.62408504203 -0.63454456346 -0.50566805635 0.58451091843 -0.74981695774 -0.41937869072 0.51175779784 
-0.78739747905 -0.37319156709 0.49064576247 -0.8499899818 -0.31135889288 0.42493843161 -0.92922776945 -0.17281008733 0.32660744969 
-0.94623746418 -0.053800114097 0.31896741071 -0.93314372761 0.071409883191 0.35233991003 -0.84465715896 0.37275061469 0.38420211227 
-0.74982030128 0.57922919109 0.31978595963 -0.65687611824 0.71141472506 0.24980563297 -0.59896427754 0.76050585265 0.25074417702 
-0.54702414564 0.79393176486 0.26539957955 -0.41253603201 0.87869305518 0.24023433781 -0.15879346177 0.92317228434 0.35005366721 
0.17224733991 0.87062001469 0.46081628001 0.34118788389 0.87416669081 0.34557694449 0.32897549987 0.91124617903 0.24780137548 
0.32285367593 0.91822497096 0.22940881989 0.4374519204 0.84838130862 0.29813582899 0.59094666347 0.74928420483 0.29892343723 
0.67804925393 0.7084963631 0.1956581527 0.6915782624 0.67797416249 0.24913960339 0.73477798205 0.57533649396 0.35928990496 
0.7643341394 0.45086439972 0.46099307632 0.74208198478 0.33937574327 0.57804708524 0.55619678122 0.28898586354 0.77918695525 
0.41863490116 0.19038012315 0.8879753534 0.26147097974 -0.10255454847 0.95974761856 0.063087447312 -0.42181873077 0.90448268771 
-0.12566059125 -0.6945740067 0.70836174729 -0.4367245538 -0.80382848682 0.40389531798 -0.61773855578 -0.7492052752 0.23893625157 
-0.71715751779 -0.68895659378 0.10499479298 -0.74733437647 -0.66442882645 0.0050659972978 -0.73046972213 -0.67915378196 -0.071861850045 
-0.80151500513 -0.58308444987 -0.13261304943 -0.87464686843 -0.36615196487 -0.31768788799 -0.83032456377 -0.20931645051 -0.51647627471 
-0.75403246736 -0.18228188708 -0.63103752013 -0.67695540729 -0.31465310076 -0.6653756854 -0.57241981549 -0.51282304725 -0.63980315492 
-0.38100905416 -0.72198325625 -0.57755716456 -0.1968968443 -0.83895547271 -0.50733159522 0.056314305504 -0.94009321839 -0.33623420369 
0.21824246331 -0.94580840627 -0.24045100506 0.23789544407 -0.97114569048 -0.016787065239 0.19570792647 -0.93223580525 0.30435967363 
0.29542036323 -0.81844336315 0.49282580118 0.34218620223 -0.74721456732 0.56971834566 0.32347756378 -0.66155782152 0.67653788846 
0.28870668058 -0.56696106307 0.77149439762 0.24990107944 -0.48451102033 0.83833079489 0.18587589468 -0.39407584873 0.90008576104 
0.14581411609 -0.29043284751 0.94572036281 0.26494949985 -0.20097851746 0.94308504285 0.42264844657 -0.17175832579 0.88986929834 
0.43547954132 -0.18234360317 0.88153750883 0.39272306933 -0.15105588139 0.90716630863 0.33983496677 -0.096633886975 0.93550739562 
0.32794986165 0.0022262477231 0.94469250662 0.30984587815 0.10589280445 0.94487154987 0.31061659235 0.13720914047 0.94058013179 
0.37326933741 0.053859318392 0.92615828861 0.43758164795 -0.045070274041 0.89804842396 0.5019913695 -0.13197947471 0.85474328497 
0.55096048546 -0.16114382954 0.81882550624 0.63010384356 -0.10381051046 0.76954046303 0.75469037168 -0.080512217588 0.65112228168 
0.84823946759 -0.20335087003 0.48901761654 0.87461231824 -0.32979557557 0.35537047025 0.86968221491 -0.35115283667 0.34690709184 
0.88796183975 -0.35830533184 0.28834191564 0.88662162044 -0.42658177244 0.17868993702 0.87469274891 -0.481362021 0.056596817403 
0.84332751061 -0.52040155199 -0.13409300704 0.84551035264 -0.52284905149 -0.10835641622 0.85909220639 -0.5113736699 0.021390433872 
0.83395044536 -0.54641685697 0.077170416053 0.78280102349 -0.61765150755 0.075691299694 0.76413928843 -0.644675884 -0.022003464676 
0.76843321576 -0.63303931952 -0.093656889014 0.7540438072 -0.65208076242 -0.078794772087 0.7198779408 -0.69164082516 -0.058384238642 
0.68358315033 -0.72144706661 -0.110581222 0.67320728083 -0.72501265204 -0.14542562161 0.7087968358 -0.70201648862 -0.069136786645 
0.72408343848 -0.68954673032 0.015115582066 0.72415952315 -0.68583029457 0.072317301423 0.70068495281 -0.703129803 0.12103337157 
0.69630125191 -0.69832575418 0.1658484478 0.71298370889 -0.65178586469 0.25851386315 0.67451041288 -0.65854761517 0.33369258528 
0.59164016531 -0.69613487642 0.40664253175 0.52735525651 -0.71725045273 0.45546484111 0.48880749036 -0.70182909601 0.51817290295 
0.37626159742 -0.73264470811 0.56714984086 0.25795459394 -0.73041852257 0.63241458661 0.17773123009 -0.64324770068 0.74474425505 
0.17702436169 -0.59137840703 0.78672355695 0.15528897257 -0.56160678388 0.81270114759 0.040216703453 -0.50014928095 0.86500480549 
-0.097871740042 -0.40136824161 0.91067263993 -0.17908124371 -0.44973690574 0.87502378469 -0.25949607467 -0.45116286568 0.85388164043 
-0.30376554669 -0.29880664311 0.90467733622 -0.31554054305 -0.19129650347 0.92942983245 -0.31554054305 -0.19129650347 0.92942983245 

FrenetNormal 3 111 double
0.62110758628 -0.75058034916 -0.22550943597 0.62110758628 -0.75058034916 -0.22550943597 -0.81368418145 0.14454326202 -0.56304999624 
0.83733657347 -0.44235362394 0.32123314605 0.7605919196 -0.54290756213 0.35602150331 0.66148046834 -0.45788237381 0.59395902363 
0.034112357877 -0.8210858675 -0.56978447261 0.52243192068 -0.39456530579 0.755898874 0.26167052596 -0.93182984165 0.25143922141 
-0.056705520699 -0.94321329423 -0.3273120308 -0.15157393889 -0.96685311518 -0.20547601979 -0.40596387238 -0.91387028531 -0.0058682147052 
-0.33857278272 -0.75115153545 0.56669201653 -0.71981703783 -0.69030378544 0.073103459894 0.0048019398503 0.31653208906 -0.94856964846 
-0.83424243543 -0.54327334064 -0.094306077672 -0.84694304761 -0.46707830175 0.25401837361 -0.6987761322 0.1453898633 -0.70040966921 
-0.96806933883 0.063116119241 0.24260690573 -0.10204443143 -0.33101926292 0.93809017775 0.48585241206 -0.38833677352 0.78303383326 
-0.61016340442 0.38722615265 -0.69119933927 -0.75058042823 0.52707210302 -0.39852731271 -0.68789009483 0.27446739012 0.67191879658 
0.10591557381 -0.35759864283 0.92784971944 -0.17524888916 0.4921154373 -0.85270758365 -0.30093229009 0.75120288193 -0.58748105243 
-0.075803255558 0.77278590675 -0.63012364563 0.40443033138 0.46102492503 -0.78986842295 0.80746093514 0.033886231403 -0.58894699383 
0.34815594035 0.86942968801 -0.35054166487 0.53815564208 0.84093243238 -0.056755167757 0.47589873391 0.80932893249 0.34424856441 
0.48365146763 0.58053168806 0.65502993597 0.81961477895 -0.17047048415 0.54696565537 0.51759155363 -0.158620802 0.84079630398 
0.55250507082 -0.47024213044 0.68819363952 -0.57901298536 0.65496277792 0.48555918519 0.16758054871 -0.28025355296 0.94518501139 
0.58243542735 -0.81147525114 0.047716766021 -0.077583034032 -0.54117055223 0.83732628421 -0.26019033615 -0.67395318325 0.69143914827 
-0.54842588237 0.70342782215 0.45212647631 -0.42583356972 0.90478554052 0.0053755522719 -0.50126569387 0.8363582588 -0.2218953967 
-0.77072177335 0.59306780252 -0.2329346039 -0.81212058273 0.42946120264 -0.39499776523 -0.75548941451 0.1800470573 -0.62993555363 
-0.94537548153 -0.14376298758 -0.2925703374 0.20892284722 0.068041921925 -0.97556216653 -0.15331728564 -0.33563108375 -0.92943293763 
-0.58764068578 -0.5623918036 -0.58171632576 0.22877749223 -0.52182164566 -0.82180473907 0.074651280342 -0.69490728403 -0.71521399102 
0.40010616373 -0.66062333517 -0.63521009656 0.10741783364 -0.84658472937 -0.52130193268 0.59532872791 -0.68359570461 -0.42223289587 
-0.035233495049 -0.95685550968 -0.28842006593 -0.95251698322 -0.20673744948 0.22354199529 -0.86869070541 0.20312030288 0.45179486594 
-0.16032412346 0.9479039065 0.27527142872 0.6690038533 -0.62991736568 -0.39450976754 0.62554387356 -0.7195515332 -0.30156334876 
-0.34686126404 -0.9298685316 0.12260414944 0.54781119278 -0.83213036881 -0.086382558216 -0.82176255284 0.53608725321 0.19317547385 
-0.41578822441 0.90214708959 0.11511203755 -0.76670276476 0.5030911791 0.39883096172 -0.23603951787 0.92986331625 0.28220481765 
-0.82924973392 0.0044996056931 0.55886011876 -0.57431977263 -0.7292911918 0.37187518919 -0.57566499012 0.39481811329 0.71605061034 
-0.26852959082 0.63072574 0.72806380198 0.19664714639 0.91130176106 0.36174438504 -0.18957817933 -0.88650847388 -0.42209340158 
-0.24927452164 0.15192617313 0.95644166094 0.24167933602 0.75674467616 0.60739492396 0.0049040953666 0.12555587953 0.99207442814 
0.42283377068 0.48855103037 0.76323619745 -0.26088964145 -0.22745769012 -0.93818952999 0.10940894147 0.14265586762 -0.98370675862 
0.51475476052 0.71986464897 -0.46564194795 0.5340122246 0.72922964498 0.42784935299 -0.12301472249 -0.17912579219 0.97610518318 
0.63113453333 0.72552915494 0.27436589833 0.47251414214 0.62186278432 -0.62451346099 0.68835840583 0.70059492791 0.1879613048 
0.44687978192 0.29391735411 0.84493257096 -0.69086109079 -0.54656794939 -0.47325936857 -0.25475008165 -0.16334518592 -0.95311108803 
-0.066234583948 -0.091333096404 -0.99361524012 0.069220798693 -0.032048308284 -0.99708644909 0.70869998713 0.66632677017 -0.23184685376 
-0.16829967375 -0.38347713125 -0.90808617962 -0.21667293257 -0.55543944193 -0.80283240259 0.56988300918 0.17710596628 -0.80241313085 
0.80380619064 0.47048996954 -0.36405328794 0.240388835 -0.38820740837 -0.88966747501 0.64748094895 -0.10621176276 -0.75464394399 
0.91937529796 0.37107693378 -0.13057936559 0.59033378958 -0.39901276865 -0.70163724768 0.27654229494 -0.69364958238 -0.6651124837 
-0.66164113495 -0.66327759435 -0.34970536366 0.87869656187 -0.29740702101 -0.37341855338 0.77461020808 -0.5312339639 -0.34317561267 
0.78821422818 -0.58990977211 -0.17528488603 0.33376774628 0.80888398174 0.48405143903 0.49347442583 -0.8219712508 -0.28433475679 
-0.0076319665218 -0.94875281354 -0.31592697241 0.36668618257 -0.92796459331 -0.066505316174 0.36668618257 -0.92796459331 -0.066505316174 

FrenetBinormal 3 111 double
0.5825261622 0.24963857013 0.7735268933 0.5825261622 0.24963857013 0.7735268933 0.23624231189 -0.80277513299 -0.54748667192 
0.094200608223 0.69555669734 0.71226899848 0.13730669616 0.67048579088 0.72910607968 -0.014768882383 0.78387833592 0.62073878128 
0.61550106175 -0.4319097735 0.65925138645 -0.067689874326 0.86450787116 0.49804038152 0.26089133431 0.31910785001 0.91110147171 
0.31846372681 -0.32780211913 0.88945299224 0.32598792104 -0.24514420704 0.91303679723 0.34892351332 -0.16092880683 0.92323036182 
0.56845227292 0.31664635634 0.75933990968 0.22444865188 -0.13179443379 0.96553251105 -0.80076134747 -0.56695527573 -0.1932433174 
0.069311925504 -0.27299529317 0.95951520409 0.33541242731 -0.098673070295 0.93688960332 -0.69749304912 -0.35582962366 0.6220037985 
0.18213349255 -0.48789050567 0.85369212564 0.93443981181 -0.35532920546 -0.023735918904 0.80976697524 -0.13720405072 -0.57048443824 
-0.72350958794 0.083179380937 0.6852846611 -0.49524220145 -0.049438379913 0.86734710958 0.42141340554 -0.60269464255 0.67762077114 
0.72734524159 -0.60840456452 -0.31751029181 -0.70071915474 0.5460525903 0.45915055788 -0.60789890103 0.32354620829 0.7251046664 
-0.64034927172 0.44668023842 0.62484364029 -0.53455629726 0.81992690125 0.20486444708 -0.19660106506 0.95673344982 -0.21449738278 
-0.83876829979 0.45590286939 0.2976916407 -0.80126239875 0.53133342523 0.27506973587 -0.87723450061 0.40872440275 0.2518014963 
-0.86619320805 0.42491164773 0.26298178256 -0.3708143447 0.56991190356 0.73327835366 -0.59202876646 0.64306368019 0.48576850752 
-0.42476257061 0.55155339781 0.71788969067 -0.32593755925 0.35994179268 -0.87418911761 -0.66206551393 0.67838638437 0.31852969839 
-0.13543511186 -0.038992834156 0.99001863082 -0.47851199398 0.75701200256 0.44492594844 -0.49281041768 0.70850104469 0.50513776526 
0.36147488118 0.68699535127 -0.6303755211 0.60033086497 0.2869783125 -0.74648931722 0.64889772613 0.19369405036 -0.7358086408 
0.51070544223 0.35638568897 -0.78241241808 0.54926477387 0.33424061727 -0.76589256293 0.65273612092 0.2894957649 -0.70009125016 
0.24214752969 0.29116775582 -0.92551926605 0.948555218 0.22857459336 0.21908138595 0.96860323014 0.13523379399 -0.20861352669 
0.75326305724 -0.11775364352 -0.64709261009 0.91135583723 0.41154897704 -0.0076142922986 0.94328651643 0.28186009897 -0.1754007769 
0.86980659364 0.49206906222 0.036118245714 0.96229458042 0.22032559356 -0.15951731353 0.78168654683 0.61432982841 0.10754071053 
0.9886844008 0.008734683254 -0.14975600466 0.1500438576 -0.95753185978 -0.24621043498 -0.25835005118 -0.96397158676 -0.063356380711 
-0.88580683251 -0.26120680392 0.38355868007 0.63103283202 0.76183084285 -0.14632611457 0.7022870194 0.6876826906 -0.1840800354 
0.87871278115 -0.36788525082 -0.30417805719 0.77710901993 0.54437649037 -0.31584142837 -0.47772757854 -0.83293703767 0.27927092934 
-0.82933114869 -0.42805350433 0.35913791674 -0.46977566124 -0.86305731902 0.1855879635 -0.8320396691 -0.34341757578 0.43563098799 
-0.093741251624 -0.98692067551 -0.13114937283 0.5226145282 -0.67628228979 -0.51914961179 -0.31472569332 -0.91522480312 0.25161736372 
-0.45648840564 -0.74888815223 0.48040073997 -0.44315143304 -0.24650350632 0.86188910468 0.45575537187 0.30132110952 -0.83755156854 
-0.38650483051 -0.92115998995 0.045588254007 -0.39432626175 -0.49534380639 0.77404219056 -0.4846530149 -0.86748275248 0.11218346266 
-0.33167802493 -0.70035713419 0.63205187474 0.46588500574 0.82151802692 -0.32872373336 0.49999026436 0.84743511443 0.17850339599 
0.19888235521 0.4280461489 0.88160212295 -0.31945813748 -0.29450083209 0.90067516802 -0.63321285988 -0.74317357001 -0.21618168035 
-0.10573359804 -0.26994196649 0.95705367716 0.45623275015 0.43367886363 0.7770291635 -0.089098010487 -0.17549847849 0.98043960986 
-0.57707238462 -0.62699818104 0.52331705865 0.26363404612 0.41907055621 -0.86883655462 0.65780653802 0.69317472541 -0.29461730872 
0.68652469293 0.7184591653 -0.11180462329 0.68614974027 0.72705550887 0.024265633114 0.082370657053 0.24822795066 0.96519322385 
0.69773905323 0.60438930406 -0.38454360317 0.6668636076 0.51639346717 -0.53724362808 0.46932830595 0.73140174683 0.49475491506 
0.062108958239 0.54225033185 0.83791828654 0.8149292248 0.57865948204 -0.032304216682 0.58466713446 0.7043826953 0.40250386389 
-0.11478794275 0.57055555462 0.81319744668 0.76483033697 0.55432625081 0.3282635577 0.94442361732 0.32416454531 0.054602001835 
0.72862430917 -0.45862229833 -0.50869657318 0.45141742008 0.77210548771 0.44729791939 0.63115896753 0.68384294422 0.3660562598 
0.60756847598 0.70064969521 0.37409965464 -0.92548851948 0.37873925028 0.005251723983 0.8301474437 0.34758499895 0.43593564917 
0.95271624618 -0.10287219663 0.28591793478 0.87520021093 0.31982395364 0.3629562363 0.87520021093 0.31982395364 0.3629562363 

SiphonLabel 1 111 int
0 0 0 0 0 0 0 0 0 
0 0 0 0 0 0 0 0 0 
0 0 0 0 0 0 0 1 1 
1 1 1 1 1 1 1 1 1 
1 1 1 1 1 1 1 1 1 
1 1 1 1 1 1 1 1 1 
1 1 1 0 0 0 0 0 0 
0 0 0 0 0 0 0 0 0 
0 0 0 0 0 0 0 0 0 
0 0 0 0 0 0 0 0 0 
0 0 0 0 0 0 0 0 0 
0 0 0 0 0 0 0 0 0 
0 0 0 
