# vtk DataFile Version 5.1
vtk output
ASCII
DATASET POLYDATA
POINTS 87 float
102.839 68.9187 38.9659 102.108 68.8314 38.3799 101.53 68.7623 37.7596 
101.029 68.6934 37.2383 100.544 68.5784 36.7075 100.221 68.3544 36.1479 
99.9235 68.0787 35.5016 99.7548 67.7814 34.9755 99.6189 67.418 34.4942 
99.5241 66.8795 34.1225 99.5725 66.151 33.6965 99.7645 65.3879 33.1737 
99.9889 64.7742 32.7347 100.347 64.0679 32.1421 100.621 63.6489 31.8212 
100.994 63.1605 31.4755 101.507 62.7609 31.1668 102.016 62.458 30.8053 
102.499 62.26 30.4446 103.118 62.2901 29.7491 103.49 62.6365 29.1704 
103.682 63.3046 28.5541 103.524 64.1535 28.126 103.354 64.7502 27.8753 
103.169 65.6362 27.6142 103.079 66.3863 27.2763 103.013 67.1389 26.931 
102.944 67.9274 26.5392 102.904 68.4922 26.2358 102.918 69.127 26.0344 
102.934 69.4888 25.9263 102.896 70.2327 25.6247 102.907 71.0398 25.2326 
102.924 71.7117 24.6594 102.971 72.1675 24.0432 102.949 72.6237 23.267 
102.932 72.9678 22.7214 102.84 73.268 21.955 102.841 73.35 21.4639 
102.867 73.4303 20.6947 102.912 73.4708 20.2643 102.986 73.5986 19.4115 
103.115 73.6355 18.7458 103.252 73.7002 17.81 103.334 73.7198 17.2491 
103.476 73.7521 16.6265 103.643 73.8415 15.9315 103.862 73.9831 15.1612 
104.218 74.1834 14.2854 104.473 74.2956 13.6351 104.89 74.4942 12.8556 
105.313 74.7912 12.1227 105.611 74.9978 11.7434 106.084 75.2136 11.2581 
106.569 75.4556 10.8834 106.932 75.6557 10.615 107.314 75.8757 10.3615 
107.867 76.2307 10.0785 108.545 76.6759 9.84657 109.07 76.941 9.74532 
109.872 77.3425 9.65844 110.553 77.7788 9.55657 111.339 78.2209 9.43361 
111.912 78.5731 9.45313 112.539 78.9125 9.49137 113.37 79.3752 9.6526 
113.833 79.6201 9.70629 114.547 80.0347 9.77518 115.115 80.336 9.81826 
115.868 80.7566 9.88737 116.628 81.1922 9.92053 117.355 81.682 9.88706 
117.975 82.0383 9.84787 118.847 82.4749 9.78895 119.654 82.9417 9.70008 
120.192 83.2755 9.5357 120.61 83.5628 9.40688 121.311 84.0442 9.09345 
121.594 84.288 8.93039 122.128 84.7404 8.49622 122.446 85.1619 8.13975 
122.639 85.5224 7.72767 122.94 86.0306 7.02485 123.082 86.2746 6.63786 
123.255 86.7065 5.82904 123.297 87.1464 5.03644 123.268 87.4202 4.36622 

LINES 2 87
OFFSETS vtktypeint64
0 87 
CONNECTIVITY vtktypeint64
86 85 84 83 82 81 80 79 78 
77 76 75 74 73 72 71 70 69 
68 67 66 65 64 63 62 61 60 
59 58 57 56 55 54 53 52 51 
50 49 48 47 46 45 44 43 42 
41 40 39 38 37 36 35 34 33 
32 31 30 29 28 27 26 25 24 
23 22 21 20 19 18 17 16 15 
14 13 12 11 10 9 8 7 6 
5 4 3 2 1 0 
CELL_DATA 1
FIELD FieldData 2
Length 1 1 double
64.863492352 
Tortuosity 1 1 double
0.46632242894 
POINT_DATA 87
FIELD FieldData 7
MaximumInscribedSphereRadius 1 87 double
1.4635743237 1.5635036695 1.6405691122 1.6268979891 1.5422249752 1.4225181932 1.3349251945 1.3440956553 1.392111192 
1.366546067 1.3250879327 1.3093039248 1.3622624319 1.4020752417 1.4314912577 1.4608819339 1.4917246441 1.5685797462 
1.629481276 1.7420077097 1.7974935186 1.8178146351 1.7616036919 1.8078786684 1.87965335 1.9550202996 2.0589134124 
2.0919971662 2.1408557879 2.1231357264 2.0377232148 1.9614451854 1.9445604606 1.9019592531 1.8129364604 1.7698744247 
1.8321733559 1.8085600172 1.7429101646 1.6729361786 1.6448039349 1.6493824998 1.6705978156 1.7407857139 1.697282831 
1.6496716545 1.6354181524 1.6293914031 1.6112966994 1.6270559873 1.5833947582 1.5661532017 1.5909558783 1.6091539811 
1.6649137869 1.7140479045 1.7325722198 1.7323742023 1.7742763038 1.7966572627 1.8219133132 1.8529903509 1.9357139009 
1.951723614 1.9660935047 1.8957466798 1.8504851937 1.826420565 1.8562665975 1.9253844819 1.9548008377 1.9336813867 
1.8764897716 1.8461065416 1.8781191647 1.882312475 1.8954337483 1.903393104 1.907518588 1.8942353586 1.8755298888 
1.8123495498 1.780099521 1.7782841667 1.8067897812 1.810309554 1.8180853817 
Curvature 1 87 double
0 0.16256450571 0.026879664163 0.094854341422 0.39260216833 0.12912064276 0.24016720957 0.2223332633 0.51742118437 
0.28761032663 0.18385343958 0.1001711529 0.12338355672 0.14634378299 0.13226793162 0.33611155851 0.21628138344 0.20586663214 
0.53052397323 0.56359052812 0.48444869781 0.51281319602 0.14211684121 0.15451064214 0.18255679432 0.038395780913 0.036150592644 
0.046840106928 0.31370628363 0.0525028134 0.22276247899 0.10574524007 0.28939834006 0.28291616453 0.1631538958 0.040564325106 
0.28363199273 0.36057238839 0.10836326566 0.11820835591 0.088905832924 0.18324890661 0.060087106112 0.044637912429 0.13536589694 
0.1098997461 0.084505121691 0.12744006956 0.061214327242 0.16399660148 0.13413024113 0.20988036712 0.22553070282 0.21778946176 
0.078992008171 0.11106226374 0.20102763538 0.16596113669 0.21506250689 0.099133244776 0.12749831851 0.066737900759 0.21464944563 
0.086186633733 0.13745534082 0.093045115052 0.063801620886 0.054801748589 0.032040015427 0.050086606838 0.12041036086 0.093121542885 
0.067058122479 0.072323372507 0.20452384395 0.076622208298 0.14686602839 0.17758596938 0.23508890726 0.26128832805 0.37946686197 
0.11696574429 0.098569559506 0.19103998374 0.153588532 0.18088347016 0 
Torsion 1 87 double
0 0 0.071134389936 -1.4006017468 -0.13803923838 0.078954617127 0.52953538342 0.77294985807 -0.29678903465 
-1.250770454 -0.55395506381 -0.095988451997 0.37851412446 0.48103252036 -0.95109807936 -0.55626160957 -0.81192345354 -0.48480066129 
0.029441355096 0.036321391695 -0.11855595431 -0.02498108344 0.61098527701 1.2126710004 0.34218287276 -1.4105702031 0.24925322271 
-3.64740889 -0.030828406832 3.2107193046 -0.3724436688 -0.21641050115 0.048983064084 0.16956764217 0.87061509841 -0.33509886674 
-0.72478098192 -0.46080025159 -0.59651939018 -1.1808558269 -0.11268352107 0.25203814847 0.3574606795 -2.8065631904 -0.90159560024 
-0.56915611924 0.9620820586 0.43476815275 -0.10242718877 -0.54796099212 0.12548627935 1.0301400228 -0.050023521333 -0.89540552987 
-0.87176345948 0.19346782278 0.14306074532 0.85604612187 0.19794145955 -1.7719226649 -0.5617387091 -2.1731405835 0.068709720777 
0.65636581211 -0.26993094859 0.66601796428 0.58089779887 -0.66298838224 -1.1604455915 0.30519487957 -0.26581067552 -0.74990844134 
0.27409363722 -0.82857554608 0.066989715901 0.63035290825 0.35794606635 -0.3635048338 0.32497218099 -0.18591591487 -0.66104182935 
-1.4674027589 1.0130372747 0.52423740119 -0.14422182941 0 0 
FrenetTangent 3 87 double
0.73256101443 0.087499477585 0.67505422119 0.73256101443 0.087499477585 0.67505422119 0.68450317073 0.087514598123 0.72373793902 
0.67833043188 0.12649347257 0.72378672728 0.57728488876 0.24240749917 0.7797312111 0.42952961298 0.34568626009 0.8342693337 
0.33665754462 0.41345290178 0.84600141587 0.2451199478 0.53173382393 0.81066352556 0.18268863586 0.71428930341 0.6755854153 
0.031017112095 0.84583511888 0.53254191424 -0.13475402995 0.83608993377 0.53178470649 -0.24068450755 0.79569142106 0.55582922762 
-0.32840902905 0.74422087762 0.58162083436 -0.39969114798 0.71166080778 0.57774205394 -0.49850585662 0.69861660789 0.51325115304 
-0.62610815324 0.62770723903 0.46257129451 -0.72468036192 0.49856328143 0.47568164507 -0.74853302213 0.37787853877 0.54489092919 
-0.71762181496 0.10932828418 0.68779812226 -0.59784211254 -0.22711721641 0.76876692078 -0.33878523717 -0.60892273039 0.71724310487 
-0.018910580517 -0.82351312295 0.56698194528 0.20128198713 -0.88663889388 0.41636166191 0.22082713694 -0.92192922108 0.31824815302 
0.15594900153 -0.92756265453 0.33956947867 0.094038441276 -0.9063157814 0.41200543194 0.078694290689 -0.89930099005 0.43019174552 
0.071746693416 -0.88719508166 0.45578207409 0.019709587926 -0.92155656685 0.38774350574 -0.029149831139 -0.95460764381 0.2964363907 
0.018740708154 -0.93751411411 0.3474421847 0.016114129565 -0.91273141734 0.40824220095 -0.015920922196 -0.83731697567 0.54648587035 
-0.038851801405 -0.6875415338 0.72510494194 -0.014781271371 -0.54786954212 0.8364331885 0.025025683184 -0.51772067187 0.85518361835 
0.074207945729 -0.43957940946 0.89513302004 0.068900831009 -0.29017337705 0.95449048541 -0.021237238701 -0.12766953927 0.99158936483 
-0.058628224734 -0.099947825853 0.99326389412 -0.091483933984 -0.12948874588 0.98735168735 -0.1319415829 -0.10690699578 0.98547567852 
-0.16373113089 -0.062480302353 0.98452441747 -0.14429533972 -0.055632241575 0.98796958892 -0.1858645308 -0.043063162033 0.98163126492 
-0.22756175115 -0.089609808743 0.96963175051 -0.25154037178 -0.1507111756 0.95604057598 -0.32366944962 -0.19239918864 0.92640198596 
-0.36511178008 -0.18674835831 0.91204080979 -0.4173172489 -0.19303842812 0.88802166586 -0.4669524358 -0.27538633616 0.84030815096 
-0.50845647666 -0.35514628335 0.78443809747 -0.62530206573 -0.34251659401 0.70119876599 -0.70117143884 -0.33506976652 0.62935432383 
-0.73569084232 -0.38370684924 0.55814696843 -0.74355635923 -0.4193098634 0.52086771747 -0.76514917401 -0.47077982999 0.43921873045 
-0.79107877281 -0.5144084194 0.33102621236 -0.83763808502 -0.49451812697 0.231979009 -0.8865836271 -0.44517712093 0.1256455457 
-0.86548593689 -0.48868620724 0.11009034428 -0.85054692647 -0.50947498927 0.13040383885 -0.86146727106 -0.50356049396 0.065581779522 
-0.8656915729 -0.49884167948 -0.041654284468 -0.86982397718 -0.47877979574 -0.11906366327 -0.86813092434 -0.47490904297 -0.14425705914 
-0.86898504671 -0.4865044178 -0.09043472811 -0.87056027762 -0.48615313592 -0.076025860573 -0.87506594048 -0.47826262845 -0.07432669804 
-0.86892015913 -0.49145801514 -0.058709253203 -0.84889010798 -0.52856934573 0.00017701913927 -0.84592228219 -0.53135048857 0.045630590455 
-0.88158498632 -0.46845288077 0.057963871406 -0.87790243885 -0.47255768013 0.077308128993 -0.84825379776 -0.5049264945 0.15973330814 
-0.81232176433 -0.52740636892 0.24894953949 -0.7837722299 -0.53832852763 0.30968288292 -0.74997245984 -0.55281331234 0.3632337418 
-0.66498817717 -0.5668259774 0.48631166505 -0.58566049533 -0.60105700887 0.54381270332 -0.42247759553 -0.64644048229 0.63531675889 
-0.33007145229 -0.58021343758 0.74458391282 -0.31745032354 -0.53870291712 0.78040019168 -0.22358163999 -0.47955441156 0.84855101002 
-0.11721885539 -0.47480534592 0.87224974831 -0.008202533031 -0.43849804151 0.89869471237 -0.008202533031 -0.43849804151 0.89869471237 

FrenetNormal 3 87 double
0.67040620259 0.07908383413 -0.73776776204 0.67040620259 0.07908383413 -0.73776776204 -0.51600859171 -0.64312044076 0.56580140682 
0.36060486442 -0.91558729696 -0.1779439052 0.70768952855 -0.62489023674 -0.32967821162 0.88197865732 -0.35900219663 -0.30533763418 
0.72885740687 -0.68325816368 0.043876670608 0.35640138302 -0.82704429751 0.4347134506 0.23798984675 -0.69884220002 0.67452235865 
0.936849218 -0.21029474454 0.27944527756 0.89320376533 0.33484223398 -0.30011283202 0.94530203254 0.32206972626 -0.05172193643 
0.7025046298 0.60406980792 -0.37628036392 0.85938037923 0.071634162433 0.50629429246 0.80137358907 0.14559342788 0.58017490854 
0.7724904409 0.58003599498 0.25848938709 0.14136789751 0.78319119202 -0.60549704731 0.20772935004 0.91400331572 -0.34849168712 
-0.27078958489 0.86608636827 -0.42019924251 -0.3851053067 0.92247893534 -0.026953972084 -0.70431998955 0.66958303976 0.23577935701 
-0.80580599356 0.34825735842 0.47895042859 -0.79435481689 0.10095844998 0.59900568968 0.47984343201 0.38677826601 0.78749784362 
0.53695764943 -0.20893581774 -0.81732631598 0.97110969317 -0.0076639436895 -0.23851043542 -0.0052900296779 -0.43190064006 -0.90190567838 
0.46719441426 -0.37383873519 -0.80123278724 0.41063356796 0.36106090136 0.83726644408 0.78763877937 0.16066015614 0.594822215 
-0.6905779185 -0.26343172031 -0.67357692004 0.66717794786 -0.2942914372 -0.68429974126 0.028636441331 -0.54671278619 -0.83683037926 
0.1789439197 -0.71870962409 -0.67188953694 -0.62736595555 -0.64629439291 -0.43441399093 -0.05036008634 0.85371250747 0.51830378764 
-0.41094925831 -0.83133065081 -0.37417917649 0.47956343227 -0.82933551799 -0.28674293893 0.44626107172 -0.88873701605 -0.10486930997 
0.98823579515 -0.14659740348 0.04357997788 -0.31987210125 0.94278561375 0.094005985664 0.74933186108 -0.66157868138 0.028555390243 
-0.94852467951 0.28422345458 -0.13970669354 -0.0057220826875 -0.99835476726 -0.057052751508 0.96162899738 0.1972111391 0.19072870265 
0.12144943528 0.9853698518 0.11956709345 0.57424485607 0.77190580325 0.27277147247 0.88240768677 0.2919649744 0.36893512717 
-0.1750622395 -0.94842467126 -0.26427988051 0.76213857243 0.45788636058 0.45769517936 0.091484701034 0.93012742637 0.35565927541 
0.65814047459 0.42716261571 0.61998646392 0.6948640984 -0.65334193789 0.30051322259 0.47979332178 0.43119539231 0.76411314739 
-0.025308153309 0.83905263888 0.5434612834 0.3002601013 0.48663566818 0.82038381141 0.16320972507 0.51807170747 0.83962151686 
0.23921054546 0.23791133044 0.94136948845 0.50337577865 -0.5339656578 0.67933313017 0.13582586666 0.0091085172565 0.99069085433 
-0.49953295396 0.82554515293 -0.26256814046 0.48551726082 -0.8560022788 -0.17757558428 -0.058299139103 0.22636355579 0.97229663734 
0.44003763208 -0.79802349438 0.41173460477 -0.15380228812 0.033842153303 0.98752193132 0.2701293734 -0.2082532892 -0.94003228092 
-0.40396507127 0.80300521851 -0.43817215823 0.47324169515 -0.78488790518 -0.39999159275 -0.44007957876 0.722291864 0.53350204082 
-0.080704207286 0.25770967696 -0.96284606938 -0.36579491917 0.5872301798 -0.72204902398 0.50988594742 -0.83088486419 -0.22281531159 
0.46179789878 -0.88137991832 -0.099559732164 -0.44409902514 0.74315379799 -0.50049824016 -0.23037776457 0.080232190523 -0.96978805994 
-0.51487845428 0.84901699258 0.118618395 -0.25804647489 -0.17128133894 -0.95082843864 -0.65965177411 0.58437975849 -0.47260960081 
-0.3399495474 -0.35005818811 -0.87286515004 -0.78003032548 0.60032136724 -0.1765416307 -0.72842819358 -0.17494974464 -0.66240844926 
-0.055159465844 -0.7755878132 -0.62882507691 -0.45157460702 -0.63778479003 -0.62394786313 -0.83384081786 -0.35668894794 -0.42128670153 
-0.98652220109 0.15663881832 -0.047309907501 -0.58908836571 -0.7240994716 -0.35868489321 -0.58908836571 -0.7240994716 -0.35868489321 

FrenetBinormal 3 87 double
-0.11794016982 0.99302043715 -0.0007264587412 -0.11794016982 0.99302043715 -0.0007264587412 0.51496654507 -0.76074785165 -0.39505969633 
0.64018119072 0.38170578072 -0.6666848881 0.40732995028 0.74212586289 -0.5322889396 0.19395349855 0.86695930262 -0.45908997811 
0.59617831066 0.60184298599 -0.53137222558 0.90160649142 0.18236466336 -0.39223572528 0.95393170362 0.037554899893 -0.29766413006 
0.34835539537 0.49024389041 -0.79894270535 -0.42898529697 0.43455068862 -0.79192001743 -0.22017046828 0.51297782982 -0.82968591106 
-0.63137528835 0.28501745996 -0.72120059122 0.31892373701 0.69886153238 -0.64021887549 0.33059383185 0.70052650838 -0.63243207493 
-0.10605234157 0.51917421603 -0.84806310747 -0.67442826942 -0.37154570534 -0.63804411936 -0.62971964549 -0.14766769718 -0.7626581274 
-0.64163224001 -0.48779271107 -0.59191751082 -0.70304957949 -0.31217044042 -0.63896080076 -0.62382522824 -0.42529009074 -0.65572130004 
-0.59187759773 -0.44782021911 -0.67017755906 -0.57313697015 -0.45130794723 -0.68398475876 -0.84910874236 -0.021191608179 0.52779281863 
0.82906959397 0.30979565198 0.46547853051 0.21932335808 0.42253161817 0.87941133507 0.99688475974 0.068699100528 -0.038745443445 
0.88123878221 0.27042464228 0.38767089339 -0.91158740942 0.14271832262 0.3855384227 -0.61544734996 0.25082376406 0.74720278292 
0.7230151619 -0.22731259223 -0.65236344247 0.74472405676 0.28339708855 0.60421202361 0.9994630951 0.002326299205 0.032681950182 
0.98309186302 0.10364900165 0.1509545406 0.77858427408 -0.53117089764 -0.334161646 -0.99841753635 -0.056038027239 -0.0047077189937 
0.90863297755 -0.34008718266 -0.2423361721 0.87479802807 0.47749556003 0.082014634277 0.89465078973 0.44028059808 0.075848265572 
0.14125418381 0.98413395094 0.10736676467 -0.94303368374 -0.30722622152 -0.12766957408 0.64891692894 0.74221596763 0.16739855654 
-0.2710960146 -0.95672004248 -0.10580033641 0.98951812146 -0.013885689841 0.14373960801 -0.20180200096 0.97941478991 0.0047562294933 
-0.96616027867 0.14497012569 -0.21334942834 -0.77908297802 0.61761442055 -0.10762035539 -0.34145975124 0.93687726301 0.075274380414 
0.91435583902 -0.25615560429 0.31358843417 -0.49496576668 0.86779965779 -0.043961844276 -0.87953736258 0.24295130493 -0.40913163071 
-0.55526851797 0.83150659478 0.016542544925 0.35519179516 0.67514938719 0.64653854767 -0.52740589846 0.8377343166 -0.14157765734 
-0.67684450348 0.38569382031 -0.62699425442 -0.59746783362 0.7663973936 -0.23593902364 -0.6228236726 0.71412047835 -0.31956629242 
-0.56300327722 0.8238823805 -0.065154684727 -0.21207372298 0.68580791654 0.69619841829 -0.44217734688 0.89539620611 0.052391106002 
0.037428878595 -0.28224278793 -0.95861258479 0.20209630212 -0.08772305279 0.97542900853 -0.50445549979 0.83377836955 -0.22436193796 
-0.23863147939 0.33810572492 0.91035132549 -0.46877617782 0.87728251769 -0.10307414447 0.41638782383 -0.85503916194 0.30907800265 
0.28579224934 -0.344232582 -0.89433031912 0.13478538871 -0.38419539916 0.91336016678 -0.20146851906 0.49955912706 -0.84252662534 
0.48832836082 -0.83189827609 -0.26359186304 0.38154902921 -0.61300502664 -0.69184187184 0.15630679163 -0.16521804005 0.97379216783 
0.097727235586 -0.061002771098 0.99334185925 0.1790624576 -0.4737210904 -0.86227893677 0.4768559323 -0.85942540732 -0.18438109739 
-0.27392248632 -0.031822450175 -0.96122515737 0.56490097223 -0.82514550188 -0.0046682219239 0.048998432559 -0.59405196706 -0.80293300719 
0.66500002214 -0.74576643547 0.040092321938 -0.22035080109 -0.52758385886 -0.82042720356 0.53935614214 -0.74263536794 -0.39697312532 
0.9423429682 -0.24862805728 0.22399513259 0.83384990639 -0.5504813609 -0.040799570158 0.50469866329 -0.80174843983 -0.3201229428 
-0.11416517286 -0.86603935481 -0.48676703794 0.80802698955 -0.53235272406 -0.25237464481 0.80802698955 -0.53235272406 -0.25237464481 

SiphonLabel 1 87 int
0 0 0 0 0 0 0 0 0 
0 0 0 0 0 0 0 0 0 
1 1 1 1 1 1 1 1 1 
1 1 1 1 1 1 1 1 1 
1 1 1 1 1 1 1 1 1 
0 0 0 0 0 0 0 0 0 
0 0 0 0 0 0 0 0 0 
0 0 0 0 0 0 0 0 0 
0 0 0 0 0 0 0 0 0 
0 0 0 0 0 0 
