# vtk DataFile Version 5.1
vtk output
ASCII
DATASET POLYDATA
POINTS 123 float
83.0057 88.0908 46.8787 83.5555 88.0724 46.2588 83.9658 87.9121 45.8316 
84.7094 87.6908 45.2189 85.0247 87.547 44.9804 85.5586 87.3066 44.5681 
86.1721 86.8654 44.1761 86.6756 86.4061 43.8122 87.1969 85.871 43.4667 
87.55 85.432 43.1117 87.8731 85.0135 42.7559 88.2628 84.4179 42.3518 
88.5165 83.9637 42.0616 88.8414 83.3169 41.5617 89.1871 82.6138 40.9469 
89.4198 82.2008 40.5207 89.5979 81.8208 40.1247 89.8169 81.3364 39.5857 
89.9455 80.7627 38.8898 89.9274 80.2129 38.2386 89.8231 79.7375 37.6612 
89.6183 79.2414 36.9394 89.3551 78.7263 36.2131 89.1351 78.2698 35.7008 
88.7337 77.6697 35.0653 88.32 77.2281 34.5652 87.6804 76.6936 34.0321 
87.0373 76.192 33.5426 86.3809 75.8175 32.9777 85.6948 75.5702 32.3309 
85.1773 75.4855 31.7829 84.5759 75.4886 31.1682 84.1043 75.5974 30.599 
83.7025 75.9542 30.0181 83.5453 76.2444 29.8101 83.279 76.8115 29.4276 
83.1242 77.5917 29.0945 83.2578 78.1517 28.9068 83.6749 78.747 28.901 
84.3417 79.4338 29.1901 85.0831 79.939 29.512 85.8758 80.2525 30.0089 
86.5644 80.3837 30.5565 87.097 80.5628 31.0702 87.3795 80.7407 31.3118 
87.91 81.1221 31.7162 88.4199 81.4655 32.173 88.9695 81.7618 32.7685 
89.3009 82.0077 33.1943 89.5562 82.3858 33.7863 89.7454 82.95 34.5848 
89.751 83.6632 35.1891 89.6929 84.1702 35.4911 89.4651 84.8659 35.8013 
89.2377 85.3393 35.9541 88.8765 85.9049 35.9611 88.4899 86.4396 35.8247 
87.8826 87.1495 35.5729 87.3385 87.6132 35.2401 87.0696 87.81 35.0099 
86.3382 88.0356 34.483 85.6071 88.0086 33.8498 85.2186 87.8381 33.3882 
84.9402 87.6063 32.9632 84.6969 87.3003 32.4099 84.5482 86.8133 31.632 
84.5024 86.4088 30.9663 84.4786 85.9958 30.282 84.511 85.7366 29.8737 
84.5997 85.3909 29.2806 84.6788 85.1422 28.7365 84.8185 84.7343 27.8509 
85.0725 84.4597 27.0453 85.2519 84.2559 26.1507 85.4665 84.2771 25.2693 
85.6938 84.3356 24.3839 85.7445 84.4168 23.632 85.7524 84.472 22.8099 
85.7351 84.4821 21.8455 85.7052 84.5111 20.9727 85.5013 84.565 20.074 
85.1491 84.7735 19.2372 84.6578 85.1056 18.4986 84.4152 85.2716 18.1124 
83.7311 85.4148 17.5956 82.9411 85.5548 17.2477 82.0513 85.7803 16.959 
81.3247 86.0802 16.724 80.4519 86.4776 16.4612 79.6297 86.875 16.2698 
78.8091 87.1969 16.2397 78.0377 87.4934 16.2266 77.1783 87.9744 16.1238 
76.4637 88.2906 16.1042 75.6245 88.6702 16.1526 74.8774 89.0146 16.1865 
74.3665 89.3493 16.2109 74.0156 89.6792 16.2519 73.4828 90.1942 16.2649 
72.8259 90.757 16.2572 72.3087 91.1887 16.2882 71.6635 91.7772 16.3305 
71.0088 92.3665 16.2656 70.4781 92.9193 16.1482 69.8373 93.4612 15.978 
69.2014 94.0507 15.7805 68.5427 94.6027 15.5289 68.2301 94.8632 15.3778 
67.7755 95.3358 15.0721 67.3752 95.8204 14.7055 67.0352 96.3839 14.1775 
66.8479 96.8387 13.5446 66.7841 97.2986 12.9481 66.7544 97.9184 12.3742 
66.7948 98.6144 11.6912 66.9472 99.216 10.999 67.2042 99.6682 10.3341 
67.5495 99.9905 9.74879 67.7794 100.174 9.34197 68.0788 100.449 8.70835 
68.4879 100.759 7.85684 68.8186 100.927 7.42397 69.1595 100.995 7.0312 

LINES 2 123
OFFSETS vtktypeint64
0 123 
CONNECTIVITY vtktypeint64
122 121 120 119 118 117 116 115 114 
113 112 111 110 109 108 107 106 105 
104 103 102 101 100 99 98 97 96 
95 94 93 92 91 90 89 88 87 
86 85 84 83 82 81 80 79 78 
77 76 75 74 73 72 71 70 69 
68 67 66 65 64 63 62 61 60 
59 58 57 56 55 54 53 52 51 
50 49 48 47 46 45 44 43 42 
41 40 39 38 37 36 35 34 33 
32 31 30 29 28 27 26 25 24 
23 22 21 20 19 18 17 16 15 
14 13 12 11 10 9 8 7 6 
5 4 3 2 1 0 
CELL_DATA 1
FIELD FieldData 2
Length 1 1 double
96.435192715 
Tortuosity 1 1 double
1.1860287178 
POINT_DATA 123
FIELD FieldData 7
MaximumInscribedSphereRadius 1 123 double
1.4214619188 1.3491759285 1.2952250567 1.2435196382 1.236684316 1.2764275439 1.26771504 1.2263588968 1.2383144991 
1.2152629804 1.1813224126 1.158641627 1.1717004651 1.225475375 1.3064704366 1.3263478858 1.3255803986 1.3141105658 
1.3526148251 1.4217289673 1.4869930228 1.4962809437 1.4764414697 1.4746352403 1.5013014452 1.5789316985 1.7028231229 
1.812507219 1.854404963 1.9687245582 2.0589886858 2.132554558 2.1865038593 2.090897764 1.987133297 1.9094522052 
1.9093724032 1.8444236441 1.6361359817 1.5739278324 1.5924098595 1.7024994385 1.8718088586 1.9603074504 1.9855559678 
2.0030510461 1.995173996 2.0290333693 2.1041215417 2.1648781493 2.2737399151 2.2954745123 2.2934445674 2.225577072 
2.1684543487 2.0647983943 1.9571258532 1.8663841985 1.8253298448 1.8222664345 1.8362953897 1.9159809068 1.9540023452 
1.9621872631 1.9774589509 1.9956598304 2.0177828612 2.0192250811 1.9947766138 1.9322056927 1.8675517562 1.8733828814 
1.8933947179 1.8893530312 1.8504519925 1.8247990663 1.801895149 1.7936446008 1.8059252063 1.8530246859 1.8702833693 
1.8949538503 1.8372276286 1.7838236487 1.6373438569 1.6283950705 1.6571022001 1.6953978106 1.7545228403 1.7946013877 
1.7929906 1.8242689244 1.9226897077 1.9342947412 1.8835231248 1.8473021336 1.8212120746 1.8138788079 1.7933376323 
1.7886979968 1.8088981762 1.8713469586 1.9627313748 1.9394866503 1.9072065412 1.8238140673 1.7716606998 1.7425525775 
1.697097961 1.681930891 1.7206047982 1.7391486421 1.6517326545 1.5177234785 1.5074225796 1.5805791987 1.4748907093 
1.3943670433 1.3466971724 1.2783646812 1.2888761363 1.2914775141 1.2365603741 
Curvature 1 123 double
0 0.34417841933 0.14940865179 0.18434615152 0.020121463653 0.28066052501 0.12762255958 0.097674687909 0.20744521788 
0.052736099943 0.13901677289 0.086727488194 0.13941350294 0.065468573976 0.097327446807 0.098792538807 0.055879170436 0.18985996129 
0.1860700974 0.14736950654 0.15113580524 0.065092055152 0.13205900345 0.14699364462 0.14699554007 0.17710777532 0.041772617259 
0.16618742121 0.16514542792 0.18012035264 0.14486508847 0.2058736785 0.4416462732 0.64535714305 0.090287487744 0.33537359378 
0.57888555673 0.75780329135 0.40273972606 0.20485519764 0.28426483146 0.22180413386 0.15738821038 0.37169839554 0.15000400154 
0.11546870439 0.17737131189 0.15090486719 0.37385160046 0.18899007569 0.32988095613 0.2578768907 0.32652058314 0.25582415256 
0.49749323445 0.33317827891 0.12108309063 0.26126613864 0.3041560431 0.41441905856 0.3079400326 0.3724953203 0.32211903596 
0.25144075969 0.26775685149 0.12029735221 0.036976225188 0.15507470202 0.12289412314 0.15184196189 0.014176384534 0.19205506451 
0.15461119315 0.27096415774 0.046542799438 0.22656954469 0.088932734932 0.070475857969 0.030297856718 0.21354277015 0.26289047234 
0.2407953051 0.03666893035 0.600749523 0.26548681745 0.13634676589 0.15512143989 0.045669188287 0.067276680024 0.20904185398 
0.022943745026 0.18604676144 0.13853552083 0.09165488375 0.015421871024 0.20710611469 0.33088073992 0.11227882359 0.081871531615 
0.073242466523 0.056763050885 0.13950718311 0.12897527123 0.13884843294 0.05790324137 0.087185924879 0.10685826181 0.2244076757 
0.15712027989 0.24537448069 0.31664403956 0.20004607523 0.21849872661 0.090010019793 0.15429214373 0.2097689811 0.23800001296 
0.1115638748 0.10827239395 0.065021626586 0.25164830335 0.3316546026 0 
Torsion 1 123 double
0 0 -0.62800019592 0.620337549 -1.9089639747 0.19745911451 0.64225904108 0.62683743102 0.32188932842 
-1.6231145797 0.049815429442 1.890727828 0.49914624792 0.79685290635 -0.36064125181 -0.42935272222 -0.60504739341 -0.31036330072 
-0.1119437382 0.51700621268 0.13236781545 -2.0499408537 0.35104697337 0.74871155079 -0.11442470563 -0.22734661801 2.3638385354 
0.10704024731 0.038216472726 -0.17239928942 0.16100154858 -0.091841194099 -0.40701734559 -0.12532126038 2.6769624231 0.49695280792 
-0.11092185347 -0.37386207975 -0.1758968031 0.31983558886 -0.22971148651 -0.42334213259 -2.0682759782 -0.42653937758 -0.42949041982 
0.48075143954 -0.4295610558 -0.33014535524 0.033974264734 -0.76193188899 -0.22471100936 0.31829048324 0.23463762962 -0.56281515541 
-0.23585335429 0.0089106778971 0.67850018228 -0.32236869187 0.73121109713 0.18638477324 -0.55187113401 -0.14540694666 -0.41936164042 
-0.40501786732 0.026969649345 -0.46281933764 0.92269412476 -0.37384355389 -1.6250677369 -0.44970709554 0.20669541829 -0.45749986543 
0.11764734736 0.27487613361 -2.2205110282 -0.29938082515 -1.4194568536 -0.1296114461 -1.635737565 0.35244246878 0.22046566762 
-0.033885670436 8.8384265197 0.20227546994 0.81748988979 1.1679067922 0.3195616322 -1.3022321679 -1.3121300036 -0.1214784371 
3.1459972001 -0.019959442279 0.1961889616 0.79129334904 -4.3697458919 -0.33820060981 0.16083527283 2.962232843 1.3821470687 
1.2094117078 2.3902011549 -0.14541137029 0.15380865949 0.33868810572 -0.24716467426 -0.045488345906 -1.6158921477 -0.14349580292 
0.30055862704 0.28335396842 -0.16080444877 -1.452674567 -0.24479440268 1.5066190806 0.12129429155 -0.10784568395 0.13827662243 
2.2293163921 0.31756529901 -3.1096279464 0.58590081233 0 0 
FrenetTangent 3 123 double
-0.67053529116 0.12481655075 0.73130243536 -0.67053529116 0.12481655075 0.73130243536 -0.72142058089 0.23852591589 0.65012132169 
-0.75268464896 0.25952642184 0.60507177723 -0.74696667971 0.33801720432 0.57252523873 -0.73636934213 0.43741775535 0.51616460482 
-0.68878160094 0.5552755321 0.46609976363 -0.64274474744 0.62365189796 0.44490167431 -0.58897586988 0.65611107207 0.47183226449 
-0.51895977415 0.65809577443 0.54551874807 -0.49022420071 0.69752260388 0.52263031879 -0.45515797773 0.74269605558 0.49115556023 
-0.39269515534 0.74717860694 0.53620392045 -0.35772654515 0.72003546715 0.59462647514 -0.35435798932 0.68381972037 0.63782521543 
-0.33835960433 0.65330755984 0.67727543173 -0.29775351827 0.64805547615 0.70097570727 -0.20901998712 0.63626287821 0.7426171253 
-0.062881430166 0.63920627624 0.76646021564 0.076274309565 0.63881873592 0.76556701361 0.18718024612 0.58829859273 0.78668184246 
0.25611783513 0.55341595737 0.79254932506 0.29342726257 0.59002823945 0.75217492529 0.37006010471 0.62921802765 0.68347654868 
0.46759126562 0.59750884931 0.65141506224 0.59536091719 0.55175605932 0.58404676977 0.66108963681 0.53403610975 0.5270350326 
0.68797357168 0.46379215132 0.55820176016 0.70200672498 0.3250998944 0.6336376068 0.69648212197 0.19211579615 0.69137845978 
0.69250538363 0.05052681267 0.71964111531 0.66993157886 -0.069865810625 0.73912816761 0.57562495396 -0.30684744761 0.75795814942 
0.480417899 -0.55614185379 0.67816287187 0.37681937167 -0.76283674461 0.52544006529 0.26614269265 -0.85131818918 0.45213428085 
0.014723150753 -0.93198870678 0.36218818212 -0.42545991353 -0.89254455739 0.14949272574 -0.63661588787 -0.7530054217 -0.16644232096 
-0.72458472263 -0.61332002121 -0.31434937778 -0.79816760912 -0.42598420494 -0.4259881746 -0.79371247906 -0.23830792539 -0.55966939642 
-0.7412963815 -0.18833543392 -0.64421226246 -0.69837484612 -0.30579881697 -0.64711641754 -0.68928706486 -0.47419332824 -0.54774449305 
-0.67873780545 -0.47289860064 -0.56185576883 -0.65219947289 -0.39378896578 -0.64773922066 -0.60602521154 -0.37300157392 -0.70256904915 
-0.44104778444 -0.46908395806 -0.76513860975 -0.25585730019 -0.54230103193 -0.80027909676 -0.10211948125 -0.6697548319 -0.73552707407 
0.034564026406 -0.80232686897 -0.59588331358 0.20723239659 -0.87186818762 -0.44373482759 0.34039681534 -0.87420739557 -0.34625342979 
0.48857724658 -0.8623735753 -0.13268040831 0.5594649493 -0.82318441713 0.096780090394 0.60624784328 -0.75920709064 0.23678713232 
0.65982203075 -0.67258465579 0.33505935076 0.68366908707 -0.55538449958 0.47343915872 0.75568908747 -0.31906219349 0.57195569738 
0.77903280704 -0.10579984697 0.6179921342 0.70937688184 0.1250903221 0.69364028922 0.56512686253 0.34092774184 0.751265535 
0.42334296458 0.43646215119 0.79390271754 0.2452323106 0.49618323973 0.83286451866 0.11390247501 0.52203662976 0.8452833746 
0.044102868809 0.51744564967 0.85457880655 -0.0067380408808 0.52397337144 0.8517079927 -0.10300307036 0.5142953228 0.85140512592 
-0.12965547932 0.45927436352 0.87878126726 -0.13772969566 0.41336679651 0.90008800818 -0.21100497102 0.36583409048 0.90644487998 
-0.23830120803 0.26306516886 0.93488461918 -0.21549675842 0.099874122151 0.97138370731 -0.24240160332 -0.043705864111 0.96919103388 
-0.16682991229 -0.083833827723 0.98241522265 -0.037096713842 -0.0863209211 0.99557648245 0.0052877847849 -0.036553572786 0.99931770506 
0.025669917711 -0.0212373434 0.9994448612 0.13067496562 -0.046334829024 0.99034192933 0.30205080008 -0.14252276284 0.94257762346 
0.45180724459 -0.28957067672 0.84381220477 0.51229964097 -0.34774698299 0.78525226118 0.69662278487 -0.23238729112 0.67875830936 
0.85096276149 -0.16345679692 0.49914352055 0.91633386093 -0.19936568777 0.34725434174 0.90885625761 -0.29543222681 0.29444881113 
0.88148376839 -0.38433301173 0.27436199111 0.87988420271 -0.41257307481 0.23576948015 0.90913222777 -0.39804723964 0.1226253948 
0.93184845875 -0.36196275891 0.025326094905 0.9007950359 -0.42950206005 0.064002216545 0.88994316264 -0.45079519558 0.06917267452 
0.91253724308 -0.40864243642 -0.016945180692 0.90872738895 -0.41472222175 -0.047116996572 0.87926125996 -0.47459770345 -0.04070204679 
0.7904835932 -0.6095392982 -0.05997943674 0.72208893294 -0.69038828867 -0.044176733614 0.74108001219 -0.67140846328 -0.0033303095427 
0.76296128837 -0.64626795847 -0.015092988466 0.75072598207 -0.65891539541 -0.047339217796 0.74099008403 -0.67139233597 0.012885129543 
0.71577022804 -0.68960778275 0.11006401146 0.71918128724 -0.67202208891 0.17653494869 0.73161028682 -0.64833643387 0.21072792111 
0.72590235599 -0.64005163152 0.25179292795 0.73093869579 -0.61146103725 0.30305778807 0.66408060688 -0.63455520048 0.39539429069 
0.59007781388 -0.6606786193 0.46401717163 0.4732718611 -0.67003481171 0.57189780257 0.32316873171 -0.6240167527 0.71145278354 
0.16169213085 -0.58906344662 0.791744852 0.058595780555 -0.6769340803 0.73370756125 -0.0058866691716 -0.72310854607 0.69070932941 
-0.10143211476 -0.68273483951 0.72359150425 -0.23181725695 -0.59660320267 0.7683263486 -0.37900860891 -0.48734753161 0.78666692939 
-0.45880899812 -0.40385951684 0.79144917329 -0.42202468632 -0.36567727047 0.82956331765 -0.40574014695 -0.33481895898 0.85045352481 
-0.47497341068 -0.3071161614 0.82466958387 -0.61598019722 -0.21675269454 0.75735504623 -0.61598019722 -0.21675269454 0.75735504623 

FrenetNormal 3 123 double
0.033819443843 -0.97957783082 0.19820070281 0.033819443843 -0.97957783082 0.19820070281 0.69058898899 0.31744932273 0.64985596542 
-0.002516803218 -0.92015701673 0.39154147962 -0.33307459948 0.55502174048 -0.76224154884 -0.12138302131 -0.83593533072 0.5352366626 
-0.66567593482 -0.73906480762 -0.1032412705 -0.23613890983 -0.71375961532 0.65938276198 -0.66701715254 -0.065024654442 -0.74219937519 
-0.67574585622 0.074988617737 -0.73331046972 -0.30982000503 -0.69991728824 0.64352727535 -0.81568766959 -0.56898054746 0.1044737397 
-0.55566026561 0.27182304258 -0.78571871732 -0.36250855452 0.4797504278 -0.79901631706 0.22723799262 0.72461092688 -0.65061655324 
-0.9382179524 -0.17873993595 -0.29630914447 -0.51973640428 0.50587405873 -0.68845152827 -0.94340030138 0.06876418592 -0.32444931512 
-0.99546206778 -0.095130592418 -0.0023328109205 -0.99171180641 0.12822114099 -0.0081873092423 -0.71718546756 0.62909513343 -0.29980713503 
-0.93895684889 -0.052401209672 0.34002080692 -0.2029426249 -0.73042998061 0.65213981202 -0.9066241506 0.08407788922 0.41347739732 
-0.86040917818 0.47657861946 0.18046846146 -0.75877797432 0.14708362685 0.63452532842 -0.73494073746 0.31946773056 0.59816593146 
-0.12514320729 0.83344481792 -0.5382461455 -0.050983159208 0.91038606862 -0.41060677484 0.13214315722 0.91267737956 -0.38672753565 
-0.14299886929 0.98736456495 0.068282788988 0.41002047144 0.86478094258 -0.28989159069 0.37673235198 0.92220547274 0.087234173515 
0.25295489721 0.82824505306 0.50002395149 0.7917785898 0.55965590253 0.24468742406 0.6993329931 0.49334010871 0.51725129473 
0.98130410341 0.082987052502 0.173653119 0.73144571074 -0.24188208988 0.63755801841 0.25819178519 -0.41148810284 0.87407925457 
0.56190991435 -0.78983313798 0.24580655465 0.092448952982 -0.785344506 0.61211698064 -0.13779941225 -0.82570587322 0.5470110903 
-0.57237735277 0.67865403611 0.46023131717 -0.04258048554 0.92028207855 -0.38893161114 0.045356906088 0.72631548505 -0.6858633736 
-0.27827829364 -0.5424016035 0.79269268434 -0.20287540311 -0.73264043873 0.64967650284 -0.70786695267 0.6557850188 0.26243167955 
-0.88623289135 0.36219834732 0.28879684812 -0.92974895702 0.36477449961 0.050064372038 -0.59180124152 0.63522008808 -0.49625268789 
-0.53304902242 0.48954920415 -0.69007268922 -0.83883037018 0.075042510014 -0.53919591223 -0.76403095375 -0.042511109036 -0.64377752937 
-0.40539479899 -0.089709885507 -0.90972918684 -0.16084535165 -0.22236981581 -0.96160305629 -0.53740106746 -0.61056428336 -0.58173133712 
-0.28303481299 -0.63551645906 -0.71833844732 0.12421530002 -0.55070981656 -0.82540248193 -0.4114573208 -0.91073409269 0.035584906455 
0.11239366802 -0.94612850012 -0.30365856591 0.44470277794 -0.84295126684 -0.30277483552 0.63755768169 -0.75840664729 -0.13542363112 
0.90544495672 -0.23364801691 -0.35436991201 0.94035324648 -0.33069076708 -0.079871073591 0.98511884166 0.0508828795 -0.16417003498 
0.99346099228 0.067455277527 -0.092114289647 0.97339983119 -0.19162503037 0.12558907746 0.8469440036 0.49421019739 -0.196066661 
0.029893679597 0.88766978318 -0.45950922075 0.95703750464 -0.17857247992 0.22845368047 0.80868821299 0.58624662175 -0.048355689014 
-0.67128173961 0.65103769805 -0.35430317779 0.1819719489 0.98143839451 -0.06053831513 0.27372193556 0.95531937132 0.11154013078 
-0.96225965467 0.23110769617 -0.14368573262 -0.81698910763 -0.57108279997 -0.07995769874 -0.43758429506 -0.89865805835 -0.030556159481 
-0.58101061871 0.81325861484 0.03220382484 -0.98176486364 0.13305877479 0.13576860819 -0.65426934427 0.68812610544 0.31371019773 
-0.62870777836 0.56770275268 0.53145095167 0.71726602402 -0.32960867452 -0.61391169761 -0.69254055001 -0.46488855344 0.55160331713 
-0.50875125218 -0.020367575147 0.86067260052 -0.16848394038 0.5947530771 0.78605466674 0.27931253417 0.95534858851 0.096403229698 
0.19122070181 0.82176452764 0.53678459769 -0.054327931545 0.40556584946 0.91244989868 -0.26400359566 -0.32299775632 0.9088314205 
-0.1489847513 -0.31803943654 0.93629827549 0.39672852468 0.75405643165 -0.52345522787 -0.38510906084 -0.66152805004 0.6434839938 
0.058198292027 0.088729402619 0.9943540878 0.18314018501 0.49761579957 -0.84784325713 0.47471366646 0.88010932151 -0.0073835668946 
0.60303397056 0.75741198355 0.25035398444 0.1092431696 0.17684981541 -0.97815646636 -0.61494865572 -0.67675365554 -0.40477480226 
-0.13586280071 -0.18313365873 0.97365464227 0.66060997784 0.74855021991 0.057157899225 -0.026753763839 -0.048689122356 -0.99845561017 
0.52892319112 0.43244230065 -0.73022867274 -0.56263917186 -0.71233360467 -0.41954498918 0.65915853958 0.59388006816 -0.4613203706 
-0.26420179991 -0.59748181437 -0.75710824221 0.20904178338 -0.22212239026 -0.95234614324 0.71987286066 0.39983265845 -0.56737721996 
0.68886848539 0.1122880924 -0.71613657506 0.77331443854 0.0050794576526 -0.63400234878 0.65983932887 -0.39032144336 -0.64207572056 
0.96365472981 0.26714365647 0.0019566611008 0.28405873615 0.71589425882 0.63781348732 0.93488713286 -0.24911836471 -0.25283609154 
0.83817641546 -0.45044031687 -0.30751230463 0.76322605779 -0.60125596459 -0.23659511779 0.8228181217 -0.56648162551 0.045485234554 
-0.015128198128 -0.88705532045 -0.46141521007 -0.88682606598 -0.023480589732 -0.46150643614 0.23972019572 -0.9368951483 -0.25448321922 
0.87610465917 -0.076951187905 0.47594027027 0.39108463539 -0.91870075773 0.055151842357 0.39108463539 -0.91870075773 0.055151842357 

FrenetBinormal 3 123 double
0.74110638138 0.15763280761 0.65262027967 0.74110638138 0.15763280761 0.65262027967 -0.051373083913 0.91778609433 -0.39373784591 
0.65837640065 0.29318441454 0.69324123806 -0.57541471183 -0.76006265346 -0.3019978017 0.66560224918 0.3314782499 0.66865223826 
0.28715058073 -0.38138208346 0.8786878003 0.72877815891 0.31875621046 0.60603372298 -0.45628449779 -0.75185773616 0.47593529145 
-0.52349621834 -0.74919066925 0.40578941644 0.81467281624 0.15355131619 0.55922284983 0.35705019393 -0.35307747824 0.86478405014 
-0.73282479775 -0.60649514661 0.30843387126 -0.86059239295 -0.5013865306 0.089399553326 -0.90707955005 -0.085613052033 -0.41216149166 
-0.072524836839 -0.73569101364 0.67342325508 -0.80076020907 -0.56931145828 0.18619224216 -0.25750051714 -0.76840161149 0.58587750181 
0.071422666997 -0.76312876161 0.64228754919 -0.10339208253 -0.75859736464 0.64330406157 -0.67127383428 -0.50807881168 0.5396733832 
0.22970348375 -0.83125500982 0.50621281908 0.93419202126 -0.34400395358 -0.094586190028 0.20270216687 -0.77266783434 0.60157813234 
-0.20261898831 -0.64486897465 0.73694609783 0.2641994776 -0.82093340638 0.506228188 0.15107152123 -0.7827808139 0.6036816983 
-0.71486470212 0.30044396458 0.63142844552 -0.71034306892 0.25594387027 0.65567176217 -0.70530194936 0.36070974717 0.61027669014 
-0.70709802505 -0.15019406477 0.69098055391 -0.6189304425 0.49726521079 0.60799047484 -0.72576073699 0.23533318921 0.64644384343 
-0.83976929111 -0.068675836683 0.53858255371 -0.48072219198 0.32382923253 0.81488698744 -0.66340141085 0.17852976755 0.72665376225 
-0.19189967549 0.35286002827 0.91578617318 -0.53288932643 0.38060119241 0.75575902119 -0.72667545257 0.51347870074 0.45637967803 
-0.39904163679 0.0014716422757 0.91693162579 -0.59529963787 0.44918978621 0.66621834042 -0.59247938578 0.51129164243 0.62253436356 
0.35051938721 0.70990031948 -0.61088271836 0.71446446837 -0.24406552282 -0.6557229171 0.723067143 -0.49760074722 -0.4791319266 
-0.67961473111 0.69438275759 0.23655105838 -0.73039538496 0.55512902821 0.39793761279 0.36284682759 0.65636562598 -0.66145774222 
0.14166197133 0.80546421242 -0.57546441105 0.26477144645 0.7568679906 -0.59753403748 0.79958920834 0.38460876855 -0.4612300869 
0.84537806204 0.34148670843 -0.41075876155 0.50340673801 0.48395711081 -0.71579827537 0.54807545997 0.48368815899 -0.68239215634 
0.77262366717 0.4982609287 -0.39343197106 0.81309762228 0.52241657746 -0.25681350478 0.58622832174 0.22542371083 -0.7781519809 
0.6960791495 0.3791420724 -0.60969263286 0.71914333664 0.62311054843 -0.30751602529 0.50954575481 -0.26222648435 -0.81951229074 
0.61682700082 0.30601838776 -0.72517390839 0.54683075883 0.52324523223 -0.65359815494 0.52359510288 0.5555066446 -0.64595706982 
0.030824741459 0.86885522083 -0.49410569774 0.23578991849 0.80277382193 -0.54768358124 -0.12871322386 0.85140395216 -0.50847243411 
-0.10530998901 0.85305321357 -0.51108709731 0.2290139023 0.82989864065 -0.50874441402 -0.52160926205 0.70089699795 -0.48648450746 
-0.99110838186 -0.03330788263 -0.12882065189 0.25516611381 0.8928828372 -0.37101279412 -0.54909040821 0.7228279994 -0.41954666832 
-0.70184995571 -0.71200184877 0.021447774265 -0.95939947724 0.16371877567 -0.22967108126 -0.93076192697 0.29232635226 -0.21960769357 
-0.21499799384 -0.96930961106 -0.1192255868 0.57545862739 -0.81634130984 -0.049337957089 0.8991618453 -0.43712415912 -0.020747179788 
-0.81349106711 -0.5815147467 0.0085371596924 -0.13806449899 -0.99002446741 -0.028102456278 -0.69332311322 -0.71145605984 0.11460076612 
-0.63292712311 -0.77062468672 0.074436879599 0.47231189764 0.8777415095 0.080568690236 0.18736136794 -0.85432709181 -0.48478958116 
-0.13051644331 -0.98634022397 -0.1004908981 -0.36324291755 -0.77879528749 0.51140246679 -0.30978187692 -0.005373434946 0.9507924668 
-0.4317649931 -0.42070321749 0.79786452078 -0.4720723098 -0.81565911979 0.33443674233 -0.32215011084 -0.85862147913 -0.39873357228 
-0.33085041 -0.8762613069 -0.35029149038 0.17656381569 0.49691737573 0.84964600905 -0.24431982835 -0.59930320427 -0.76232767943 
-0.40483174134 -0.9083713185 0.1047511763 0.37506560122 0.76182937382 0.52814941066 0.039326474676 -0.012829733533 0.99914404684 
-0.10717144782 -0.23407035508 0.9662946495 0.68312041605 0.70148995264 0.20312149941 0.26951542881 0.30201848477 -0.91441033923 
-0.63200583212 -0.74081022461 -0.22752766706 -0.002226437877 -0.074182679648 0.99724218373 0.67098281013 0.73950098077 -0.054040428866 
0.45597504158 0.58089135178 0.67427887323 0.40769527637 0.20240342804 -0.89040295032 0.17394369179 0.47640983738 0.86184526391 
0.6350300611 0.48306251199 -0.60281624979 0.64963848084 0.75945838837 -0.034536944547 0.20194061518 0.66141782769 0.72232018188 
0.42103252059 0.74222311087 0.5213793919 0.42189871372 0.74231229965 0.5205515586 0.67836128348 0.67694332348 0.28561110949 
-0.21266221228 0.76265229473 0.61084880356 -0.95701471719 0.17104286341 0.23423742219 0.35489631718 0.64424690218 0.67749135277 
0.53588415041 0.57530570992 0.6179413544 0.60311420486 0.53155985892 0.59472461887 0.42346524411 0.66452310072 0.61569979343 
0.88840612383 -0.22367465015 0.40087929606 0.18824104979 -0.93044548242 -0.31438274668 0.88199158778 0.10061682665 0.46039884153 
-0.082709644753 0.94855583815 0.30561566808 0.6838283444 0.33016236484 0.65067012244 0.6838283444 0.33016236484 0.65067012244 

SiphonLabel 1 123 int
0 0 0 0 0 0 0 0 0 
0 0 0 0 0 0 0 0 0 
0 0 0 0 0 1 1 1 1 
1 1 1 1 1 1 1 1 1 
1 1 1 1 1 1 1 1 1 
1 1 1 1 1 1 1 1 1 
1 1 1 1 1 1 1 1 0 
0 0 0 0 0 0 0 0 0 
0 0 0 0 0 0 0 0 0 
0 0 0 0 0 0 0 0 0 
0 0 0 0 0 0 0 0 0 
0 0 0 0 0 0 0 0 0 
0 0 0 0 0 0 0 0 0 
0 0 0 0 0 0 
