# vtk DataFile Version 5.1
vtk output
ASCII
DATASET POLYDATA
POINTS 103 float
112.709 76.5906 43.7935 111.894 76.313 43.3041 111.304 76.0931 43.0002 
110.842 75.9334 42.6128 110.472 75.7964 42.2722 110.019 75.5489 41.8734 
109.463 75.2202 41.3601 109.002 74.8156 40.9767 108.519 74.2098 40.54 
108.235 73.7524 40.1651 107.999 73.4754 39.6 107.889 72.9934 38.7499 
107.816 72.4008 38.1998 107.826 71.8131 37.8707 107.811 71.147 37.624 
107.945 70.3185 37.3316 108.175 69.8221 37.1107 108.573 69.1108 36.6895 
108.989 68.345 36.2962 109.303 67.693 35.9145 109.784 67.3224 35.502 
110.413 66.9352 35.1309 111.185 66.585 34.6556 111.92 66.3222 34.046 
112.485 66.2415 33.4631 112.877 66.3458 32.949 113.352 66.6848 32.3855 
113.614 66.9902 32.0093 113.99 67.5946 31.5116 114.203 68.2666 30.9197 
114.057 68.9497 30.3731 113.807 69.5896 29.9725 113.492 70.3392 29.5815 
113.183 70.7862 29.5644 112.801 71.4032 29.7573 112.268 72.0162 30.1228 
111.543 72.5105 30.5539 111.06 72.8837 30.8906 110.514 73.4463 31.3975 
110.225 73.8596 31.7752 109.907 74.4962 32.2487 109.772 75.3367 32.6268 
110.082 76.1026 33.0717 110.227 76.7513 33.2093 110.473 77.614 33.1533 
110.689 78.353 32.8514 110.949 79.0489 32.2058 111.156 79.53 31.3868 
111.223 79.797 30.6357 111.212 79.8993 29.7281 111.135 79.9102 28.8617 
111.067 79.9565 28.385 111.059 79.9691 27.8467 111.112 79.9444 27.1155 
111.122 79.9652 26.1562 111.131 79.9537 25.2571 111.173 80.0789 24.2819 
111.163 80.2362 23.5616 111.125 80.419 22.7535 111.042 80.6972 22.1383 
111.072 81.0459 21.44 111.076 81.4422 20.6731 111.143 81.8818 19.9928 
111.463 82.3117 19.2545 111.834 82.739 18.5367 112.312 83.1368 17.9486 
112.81 83.487 17.47 113.461 83.9517 17.074 113.971 84.3054 16.8523 
114.529 84.7102 16.6363 114.848 85.0196 16.5092 115.386 85.3545 16.3296 
115.87 85.685 16.1985 116.46 86.1263 16.0408 117.322 86.5852 15.9277 
117.868 86.8273 15.9264 118.791 87.2076 15.8937 119.679 87.5325 15.8301 
120.611 87.8805 15.8112 121.334 88.1137 15.8188 122.092 88.329 15.8477 
122.917 88.5603 15.7687 123.672 88.7083 15.6546 124.138 88.8165 15.5963 
124.795 88.9944 15.475 125.46 89.2732 15.2136 125.999 89.576 14.9771 
126.439 89.8628 14.8256 127.203 90.3361 14.5037 127.728 90.6859 14.2568 
128.254 91.1251 13.9753 128.742 91.6705 13.4919 128.996 92.0636 12.9746 
129.286 92.4033 12.3779 129.575 92.8128 11.6907 129.775 93.1839 11.1093 
129.901 93.5175 10.6462 130.001 93.9087 9.97036 129.941 94.2213 9.15596 
129.873 94.4613 8.4155 129.798 94.6766 7.8031 129.619 94.9922 6.91522 
129.6 95.0196 6.84098 
LINES 2 103
OFFSETS vtktypeint64
0 103 
CONNECTIVITY vtktypeint64
102 101 100 99 98 97 96 95 94 
93 92 91 90 89 88 87 86 85 
84 83 82 81 80 79 78 77 76 
75 74 73 72 71 70 69 68 67 
66 65 64 63 62 61 60 59 58 
57 56 55 54 53 52 51 50 49 
48 47 46 45 44 43 42 41 40 
39 38 37 36 35 34 33 32 31 
30 29 28 27 26 25 24 23 22 
21 20 19 18 17 16 15 14 13 
12 11 10 9 8 7 6 5 4 
3 2 1 0 
CELL_DATA 1
FIELD FieldData 2
Length 1 1 double
79.773363882 
Tortuosity 1 1 double
0.78807132636 
POINT_DATA 103
FIELD FieldData 7
MaximumInscribedSphereRadius 1 103 double
1.5490972129 1.5994027189 1.6191238713 1.6124983083 1.6119533632 1.6118067966 1.6675577724 1.7373755185 1.8097537959 
1.7707502835 1.5712689753 1.3881296329 1.331542008 1.3490727728 1.4045518547 1.3169138898 1.264403532 1.3212644179 
1.544831775 1.6839091853 1.6714203589 1.6762914783 1.7749467627 1.9409363507 2.0160734587 2.0264882002 1.9776758592 
1.9075881185 1.7742706087 1.7527351565 1.6883363987 1.7017452999 1.8243553198 1.8084488517 1.7129278305 1.6958592147 
1.6416407897 1.6618532967 1.7568202574 1.8457491049 1.9761123012 2.076995896 2.0717371162 2.0525755936 2.0039040502 
2.0340522094 1.9693755028 1.8605283708 1.8208046361 1.8549967812 1.9341337376 1.9944064011 2.0463309455 2.0973088648 
2.1506505769 2.1655528602 2.0288212373 1.9164023007 1.9204322594 1.9613545985 1.9586948371 1.993896087 2.0523967774 
2.0763929638 2.1378371411 2.199246147 2.2332503333 2.2267411706 2.1969967338 2.1931154198 2.2045448561 2.1735344321 
2.1447772408 2.1169755483 2.1253615664 2.1262562081 2.1264545214 2.1687990498 2.192056367 2.2256404085 2.1981296102 
2.1382048515 2.1132662939 2.0954895573 2.073684948 2.0249776447 2.003158525 2.0076126392 2.0240447615 2.1052546591 
2.1912572223 2.2800297274 2.2072525686 2.1120831515 2.0608223072 2.0505117 2.0236063654 1.983447409 1.9304707432 
1.9180563074 1.9375383936 2.0239030189 2.030143535 
Curvature 1 103 double
0 0.084930841761 0.3390735964 0.075773473655 0.2144141115 0.039077564659 0.24659959265 0.19729293011 0.17995745175 
0.62847338897 0.30934934471 0.34762478586 0.35393959505 0.23213372349 0.21716741957 0.35724223361 0.1548296223 0.057840579157 
0.085306204395 0.55144552394 0.20531780486 0.13412661273 0.17098814744 0.22375849822 0.3933010577 0.38129783794 0.25876587449 
0.26183566517 0.24384710987 0.46006274203 0.22906846869 0.097193114287 0.66599231528 0.46500906063 0.27465058944 0.2543659851 
0.084685272073 0.17430631493 0.18872917407 0.17940737637 0.36028600959 0.5545168529 0.41447511571 0.3508276219 0.36838790622 
0.39319243173 0.29992179032 0.25974257915 0.29447512037 0.14011557402 0.14768439576 0.28921325912 0.16265339341 0.098304828013 
0.037161179142 0.1536254125 0.12052794105 0.042717959845 0.2878964408 0.22777484764 0.044484017131 0.14861921986 0.32847452475 
0.066717121655 0.20629930075 0.13538895849 0.25037434076 0.15115033342 0.064467895339 0.23359029447 0.36846166804 0.11084374373 
0.062290470569 0.20600281734 0.17062129568 0.050238107939 0.054433389097 0.049942018097 0.061394226357 0.056866371146 0.15667589404 
0.11800328719 0.068219892911 0.11202024328 0.29547042696 0.15345172331 0.17444771929 0.089154978001 0.052446610637 0.14303449212 
0.29014478398 0.35804742167 0.17425096057 0.069583400841 0.090312293535 0.1317815935 0.19313878575 0.30731699427 0.067828904286 
0.051239989277 0.091337978523 0.090121186682 0 
Torsion 1 103 double
0 0 0.025975121861 4.1866367193 0.17540544677 0.6066314093 -0.13128286319 -0.83992832751 -2.4983831675 
0.18658375059 1.8226246708 0.30255917208 0.062997924322 -0.022363430068 -1.0378357973 -0.36834540722 -0.97339127855 1.1792994081 
3.6080929374 0.32711747741 1.0268143485 -1.3496569629 -0.075563422605 0.26213887186 0.4186073919 0.11625804274 -0.17665043148 
-0.22661921942 -0.33634133906 0.21594250181 0.65571604014 -0.21526080953 0.26238597069 0.23726780388 -1.1149372173 -0.18821611643 
1.4996431715 0.017842454021 0.41932243391 0.53835844943 -0.63869606504 0.070113468391 0.33648617196 -0.33708079396 0.017359772448 
-0.028402781682 0.23738438582 0.09303025985 -0.045840877632 0.83154616885 1.3195936357 0.26816086099 0.024546132639 -0.30470224311 
-1.567350262 -0.32715456798 -0.66755369013 2.2414193781 0.60682257582 0.7744248981 0.13690466223 1.2900593381 0.19588376531 
-1.0081927253 -0.0088235089383 -0.59557020626 -0.13554364664 -0.013866423122 -3.0244210822 0.058090506758 -0.11729238535 -2.4280717378 
0.86318680532 -0.072114063562 -0.13307235246 1.9185193275 -0.38699033102 0.19909216409 0.37785722225 1.3831188345 -0.18686320477 
-0.66043488585 -1.3509029313 -0.41675969375 0.25193905166 1.5802731105 0.51382703661 -0.015330129379 1.8354752118 -0.9419841334 
-0.40945039391 -0.40981464664 -1.0448145263 1.4256034773 0.29655722117 -0.97822361154 -0.33320599763 -0.015301898023 -0.97935205828 
0.067199503466 -0.095485793455 0 0 
FrenetTangent 3 103 double
0.83213566919 0.29463695697 0.46982900256 0.83213566919 0.29463695697 0.46982900256 0.79991880722 0.28880667995 0.52604239703 
0.72697886976 0.25910033338 0.63589994509 0.70271047294 0.32827673829 0.63121499848 0.6829217752 0.3901760741 0.61756010246 
0.65975022689 0.47572620421 0.5817338023 0.58728934492 0.62843761056 0.51005626648 0.49758138676 0.68950422234 0.526304751 
0.39934730395 0.56444322339 0.72244416974 0.21092653747 0.46197360771 0.86144667947 0.10330500062 0.60556043085 0.78906567625 
0.042778849433 0.8012074534 0.59685558275 0.0036385728433 0.90873633249 0.41735481164 -0.074688197109 0.93806038869 0.33832584941 
-0.24800763283 0.90333079233 0.34997956181 -0.41775421544 0.80221843597 0.42652901012 -0.43495018865 0.78852362486 0.4347974545 
-0.41151717392 0.79971802508 0.43715523093 -0.52296965328 0.6731816694 0.52280893426 -0.71337397824 0.48717277826 0.50374621715 
-0.78051143787 0.41063583894 0.47135984463 -0.77081311805 0.31338099994 0.55465258129 -0.72325523621 0.19114772497 0.663599586 
-0.65720859326 -0.016214562202 0.75353430773 -0.59674709724 -0.30524575502 0.74210371982 -0.54292861104 -0.47488892099 0.69261030604 
-0.45141255489 -0.64355065266 0.61811751532 -0.33130309688 -0.71763464387 0.61256736439 -0.038072405487 -0.76509251516 0.64279385123 
0.23669242046 -0.78998606571 0.56559589291 0.33314831455 -0.81924806423 0.46673848112 0.44264482903 -0.84870788801 0.28941402206 
0.53941904026 -0.83077311201 -0.13727030037 0.56048816387 -0.75410930665 -0.34230420942 0.67801106609 -0.59667934024 -0.42927236015 
0.72191124893 -0.5181662623 -0.45863697331 0.63245338943 -0.57534182161 -0.51863715496 0.53544671505 -0.6257478212 -0.56721819401 
0.4101175406 -0.70843258029 -0.57439262014 0.2567493074 -0.83728636131 -0.48273319992 -0.09663539678 -0.88583568922 -0.45382456059 
-0.28518835642 -0.88626641032 -0.3649650001 -0.25035017233 -0.96674695493 -0.052202647044 -0.27068722076 -0.93949784773 0.209933853 
-0.26663901453 -0.80428305754 0.5310672267 -0.24134028096 -0.60789206237 0.75645363988 -0.15590183378 -0.42484452084 0.89174085436 
-0.032832674973 -0.21722873146 0.97556839518 0.049512576667 -0.06357329108 0.99674818355 0.10694429748 -0.042325182048 0.99336372805 
0.074523341039 -0.057843701801 0.99554024419 -0.035424039395 0.0095557217155 0.99932668613 -0.036730398163 0.0023046701205 0.99932255371 
-0.010159718032 -0.0050039176891 0.99993586841 -0.027147509759 -0.060517339228 0.99779790758 -0.018475178479 -0.16431947114 0.98623414014 
0.030628813751 -0.21712414926 0.97566335361 0.080684034489 -0.30711167519 0.94824706988 0.03626591817 -0.43042401161 0.90189797284 
-0.020864436018 -0.45317963409 0.89117500781 -0.042691345161 -0.49968942419 0.86515196839 -0.22648436007 -0.50899692501 0.83043781523 
-0.37846578211 -0.4695902984 0.79765193125 -0.48170869702 -0.46806653082 0.74085791751 -0.59946477343 -0.45953919292 0.65533633776 
-0.69312209287 -0.49140275978 0.52735670286 -0.74970566143 -0.52819813522 0.39868302092 -0.77312038673 -0.54935480592 0.31700814634 
-0.74190718548 -0.60440002894 0.29030041878 -0.76869750892 -0.57750450295 0.27494124616 -0.81199000699 -0.52883075457 0.24700255379 
-0.79338559975 -0.57011997935 0.21331314834 -0.83942793392 -0.52043349822 0.15655579734 -0.89280806318 -0.44454846018 0.072597719398 
-0.92055963911 -0.39002243255 0.021270941394 -0.93067280996 -0.362494983 0.049452078837 -0.93712094619 -0.34640654487 0.04250691577 
-0.94352862479 -0.33122790234 0.006466135817 -0.95679315934 -0.2898079534 -0.023626264589 -0.96197361675 -0.27144099851 0.030439201856 
-0.96558701113 -0.23177388734 0.11799402139 -0.96946256037 -0.2034651325 0.13690976551 -0.95759716836 -0.24399270468 0.15321626288 
-0.91172944832 -0.31484564599 0.26385911443 -0.84394757683 -0.40750868154 0.3488397369 -0.81104511161 -0.48869086256 0.32153859454 
-0.80230326146 -0.50667422279 0.31557995596 -0.78987206757 -0.5045326655 0.34863864719 -0.74190279533 -0.55712745205 0.3730807479 
-0.63107474512 -0.6125761308 0.475915066 -0.47599623563 -0.60160974957 0.64147742976 -0.37779222037 -0.50885088226 0.77352686951 
-0.36299461353 -0.46961370016 0.8047967962 -0.31224737222 -0.49785470794 0.80909966526 -0.25023634935 -0.54147333187 0.80261348129 
-0.16489806505 -0.52952545558 0.83211262461 -0.024472856018 -0.42693748876 0.90394992119 0.077395197958 -0.33388721702 0.93943031122 
0.099642578073 -0.31738203321 0.94304824989 0.15777485655 -0.32938720426 0.93091952623 0.19058939151 -0.32959381959 0.92468567521 
0.19058939151 -0.32959381959 0.92468567521 
FrenetNormal 3 103 double
-0.29567156142 -0.48103223438 0.82534012217 -0.29567156142 -0.48103223438 0.82534012217 0.46242878288 0.26204028043 -0.84705047795 
0.68039407996 -0.14699078263 -0.71795376298 0.13948183049 -0.93353915548 0.33022638318 0.6830448054 -0.64078831178 -0.3504855679 
0.19240036048 -0.8552415236 0.48119023017 0.59539763967 -0.76232352415 0.25370158691 0.79814895285 -0.12634848371 -0.58906222908 
0.20396215289 0.7135603587 -0.6702470102 0.95170748937 -0.29817033048 -0.073125294502 0.073133321739 -0.7957871924 0.60114412719 
0.40224456829 -0.56065653585 0.72378419165 -0.22104315627 -0.40630280083 0.88659909604 0.99324077433 0.039749740609 0.10905375888 
0.92722797735 0.32598719436 -0.18433834961 0.38027017043 0.58074149067 -0.71981519746 0.0054228125721 -0.48056187335 0.87694405693 
-0.67940026786 0.050547284412 -0.73202475919 0.66823201612 0.70458440944 -0.23880281116 0.66181640347 0.23198757826 0.71286801838 
0.27621319533 0.90294194265 -0.32924477055 -0.31506395416 0.56918950599 -0.75944585789 -0.2421289219 0.82973855029 -0.50289911846 
-0.31981203542 0.91130301111 -0.25932042715 -0.058852570146 0.93897961482 0.33890066087 -0.61430812735 0.78693087484 0.058011403181 
-0.24357424725 0.75527389628 0.60846768828 -0.93364275747 0.15563066456 -0.32263028016 -0.99253017021 0.10356553002 0.064482883067 
-0.78867127226 0.18376105787 0.58671074467 -0.41026384415 0.31974620752 0.85407607446 -0.5069826692 0.029343863881 0.86145662153 
0.21949111508 -0.018658181361 0.97543606796 -0.39971147858 -0.60832948564 0.685686496 -0.60832259565 -0.78330577242 0.12796752131 
0.68253950321 0.42405690525 0.59524412443 0.77459429301 0.47194476852 0.42103659782 0.84385063482 0.36868456958 0.38985611995 
0.66205938899 0.6644122527 -0.34674734882 0.72649619984 0.49660919755 -0.47495534161 0.97417629104 -0.17766085971 0.13934551627 
-0.34933755128 0.45069901829 -0.82148260492 0.21627260851 -0.003286284652 -0.9763274856 -0.041968293848 -0.20635102746 -0.97757757533 
0.008242104113 -0.55289863058 -0.83320776042 -0.18024591453 -0.73785245362 -0.6504499727 -0.56217395953 -0.70414378683 -0.43375334776 
-0.39327079826 -0.89454704906 -0.21242329499 -0.59993375665 -0.79976851788 -0.021208617192 -0.53924724318 0.83691701977 0.093713994361 
0.86487005495 -0.49323043454 -0.093399820627 0.83226921973 -0.55327878233 0.034792742138 -0.7444234697 0.66708207178 -0.028899952729 
0.014594918544 -0.99988169993 -0.0048553568499 0.22145466249 0.97299939684 0.065038497962 -0.53801467125 0.83304970787 0.12871828827 
-0.97374502082 0.21380678925 0.078149160591 -0.35482359943 0.88017795768 0.31525700007 0.97192979534 0.22512207379 0.068355868993 
-0.92582126411 0.34522058035 0.153875722 0.62881330083 0.6594775072 0.41192626791 0.96130537719 -0.2540935296 0.10643519157 
0.91581742308 -0.064920233261 0.39631276903 0.8420050576 -0.01291562356 0.53931500038 0.77128544693 -0.1128303307 0.62640887272 
0.41459046111 0.32670448722 0.84934028963 0.38456577638 0.14255489894 0.91202371922 -0.041378827841 0.54242987647 0.83908141543 
-0.58093725674 0.79561492893 0.17178122302 0.60420240205 -0.79667257307 0.01588296801 -0.16160963002 0.61034565882 0.77547437368 
-0.52772262935 0.81886087519 0.22577797404 0.51587713723 -0.672407209 0.53079122503 0.29474146316 -0.4546896082 0.84046703093 
0.23848937988 -0.6043586701 -0.76017985606 0.24551963772 -0.71904378062 -0.65015086638 -0.0066580218686 0.13951700774 0.9901972911 
0.28186820536 -0.79236183732 0.54102960507 0.21693180537 -0.76557140484 0.60567401786 -0.021622683131 -0.035412990493 -0.99913881902 
0.12553218901 -0.81267038879 -0.56904174601 -0.083678747935 0.79921136955 0.59519665147 -0.25912243417 0.49688937556 -0.82822491665 
-0.39501472493 0.4956473869 -0.77349662892 -0.48051650631 0.86336925088 -0.15393967583 -0.08730969465 0.64462150425 0.75949992329 
-0.072819626331 -0.44165624588 -0.89422427975 -0.59417697723 0.488833666 -0.63874515006 -0.64130317271 0.75202593977 -0.15227352554 
-0.66881350806 0.11886401051 -0.73386636279 -0.68690550135 -0.20115082187 -0.69835462272 0.19364278388 -0.86038907235 -0.4714160757 
-0.87882044357 0.45961035161 -0.12819107868 -0.86504540749 0.50104325187 -0.025536302142 -0.74871596041 0.63381736858 0.1941647597 
-0.66266137042 -0.56540348268 -0.49111995472 -0.77992624991 -0.55750868828 -0.28442768358 -0.33251001854 -0.89695331661 -0.29139635447 
-0.74180628791 0.6079785018 0.28299394441 -0.98644142926 -0.0094492313392 0.16384144365 -0.95075386424 0.17255928046 0.2574691911 
-0.95075386424 0.17255928046 0.2574691911 
FrenetBinormal 3 103 double
0.46917859694 -0.82571002966 -0.31316831114 0.46917859694 -0.82571002966 -0.31316831114 -0.38247813352 0.92082875338 0.076058427069 
-0.092550628739 0.95459977324 -0.28314952597 0.69766955658 -0.14401051448 -0.70179638182 0.25897421256 0.66117544622 -0.70411603202 
0.72643770511 -0.20553957027 -0.65577568242 0.54826350965 0.15469005838 -0.82187475312 -0.33966308692 0.71317598672 -0.61319572679 
-0.89382390381 0.4150126047 0.16983335042 0.22307588499 0.83526932172 -0.50255577773 0.99195745579 -0.0043942004583 -0.12649544223 
0.91453227243 0.20911926126 -0.34626558773 0.97525723984 -0.095479380244 0.19939158481 0.088850646687 0.34418405728 -0.9346886633 
-0.28060736285 0.27879352349 -0.91844089585 -0.82515211504 -0.13850957371 -0.54766694718 0.90043818583 0.3837848081 0.20474446164 
-0.60751040452 -0.59824414114 0.52252756482 -0.52912069926 0.22447104483 -0.81831780846 0.23042702807 0.84192900393 -0.48791283758 
-0.56081027637 -0.12678350044 -0.81817955116 -0.55369833108 -0.76014186515 -0.34000368087 -0.64674218084 -0.52440107304 -0.55383035861 
-0.68249331641 -0.41141695384 -0.60410178211 -0.8002682531 0.1585632744 -0.57829785672 -0.57258540672 -0.39398008953 -0.71897541061 
-0.85842780207 0.12411244523 -0.49769248495 0.1361964002 -0.67880749419 -0.72157530889 -0.11590665708 -0.63553727211 -0.76332039316 
-0.5674278125 -0.58493921871 -0.57954446594 -0.84893802995 -0.47601992819 -0.22958495003 -0.73961755554 -0.52804721236 -0.41729128082 
-0.8129272719 -0.55629839891 0.17228273845 -0.72531631173 -0.24749624346 -0.6423876224 -0.41260709384 0.17437268082 -0.89406350686 
-0.11394724757 -0.7427512812 0.65980039334 0.0025281288851 -0.66801940374 0.74413956003 -0.034827021926 -0.68739461186 0.72544863783 
0.62728061372 -0.23807485722 0.74151156027 0.63740337681 -0.22875938027 0.7357894272 -0.20406409304 -0.42863941797 0.88012845386 
0.89254180666 -0.10678129449 -0.43814024983 0.94369007096 -0.25571375691 0.20990360764 0.96175209427 -0.27342832257 0.01642746438 
0.96376122751 -0.21778858477 0.15405333069 0.95355454961 -0.29332745728 0.068503457749 0.81219151525 -0.5689364293 -0.12905921885 
0.91883627197 -0.39063698653 -0.056059344117 0.79851611905 -0.59693278891 -0.077738363397 -0.8353294727 -0.54569082912 0.066679764988 
0.49643333862 0.86797341238 0.01327010567 0.55323872182 0.83294134079 0.011646436326 -0.66669676436 -0.74498066955 -0.022786539576 
0.99984187174 0.014544653492 0.010231547907 -0.97479271908 0.22273263212 -0.013012663687 -0.8427329834 -0.52823034333 -0.10379702828 
-0.22557151903 -0.95244094866 -0.20487491091 -0.93144527475 -0.36189664516 -0.037954161324 -0.23245914934 0.87410252381 0.42650618022 
-0.37738529678 -0.82185824212 -0.42676617442 -0.77638346308 0.56160475144 0.28605737433 0.15683369037 0.82241024346 0.54684969144 
-0.13432088203 0.88049435828 0.45462906384 -0.24286665928 0.88359883963 0.40033595444 -0.2139176121 0.88096143312 0.42207370043 
-0.58965796351 0.80733357772 -0.022715201159 -0.53856344552 0.83706919113 0.096252711149 -0.63290809778 0.63559352288 -0.44209525381 
-0.33479192322 -0.041200605223 -0.94139092744 0.20986566448 0.1783293593 0.96132983023 -0.56085163461 0.58975945077 -0.58105871836 
-0.30339432524 0.066558817831 -0.95053764112 -0.17097228732 0.52632453792 0.83291713739 -0.34061889585 0.7717733001 0.53697741205 
0.30934247449 -0.69471800033 0.64936440732 0.27123463698 -0.59293627723 0.75819413269 -0.34894126005 0.92765161037 -0.13305069265 
-0.17408058193 0.51229951734 0.8409786891 -0.19361674011 0.57437946884 0.79536204569 0.27228518185 -0.96180336058 0.028197079845 
0.22777926477 -0.53464727094 0.81379905518 -0.23052160675 0.5655644319 -0.79183120814 0.12594930431 -0.83280760594 -0.53904384259 
0.11275096523 -0.80944789027 -0.57626498487 -0.23844574799 -0.29754026803 -0.92445303513 -0.57843136512 0.58791526355 -0.56548456985 
0.59245825057 -0.74041947059 0.31744641894 0.15184148512 -0.71168000986 -0.68589775256 -0.19573063875 -0.35223002156 -0.91521774948 
0.39297984364 -0.78142295269 -0.48471126613 0.54917066189 -0.77304854704 -0.31750201264 0.90541455173 -0.028309429539 0.42358359944 
-0.30969265169 -0.75380454848 -0.57954220224 -0.39268055913 -0.70788159288 -0.58711636746 -0.61384540406 -0.55234244284 -0.56401387017 
0.73053989371 -0.63239362241 -0.2576621238 0.62539277579 -0.71197502989 -0.3193359247 0.93991865122 -0.28981731166 -0.18044072422 
-0.66317025556 -0.72775736777 -0.17485544257 -0.045170801105 -0.94414764825 -0.32641203567 -0.24442334889 -0.92821937537 -0.28047462934 
-0.24442334889 -0.92821937537 -0.28047462934 
SiphonLabel 1 103 int
0 0 0 0 0 0 0 0 0 
0 0 0 0 0 0 0 0 0 
0 0 1 1 1 1 1 1 1 
1 1 1 1 1 1 1 1 1 
1 1 1 1 1 1 1 1 1 
1 1 1 1 1 1 1 1 0 
0 0 0 0 0 0 0 0 0 
0 0 0 0 0 0 0 0 0 
0 0 0 0 0 0 0 0 0 
0 0 0 0 0 0 0 0 0 
0 0 0 0 0 0 0 0 0 
0 0 0 0 
