# vtk DataFile Version 5.1
vtk output
ASCII
DATASET POLYDATA
POINTS 85 float
103.392 75.5739 33.6226 103.066 75.4854 33.2546 102.577 75.2898 32.7365 
101.874 75.021 32.2167 101.261 74.6688 31.8456 100.638 74.2635 31.6192 
100.099 73.8127 31.2485 99.5686 73.2399 30.8115 99.3356 72.7743 30.6195 
99.1968 72.2099 30.4767 99.0945 71.7404 30.4632 99.0122 71.2279 30.4092 
98.9297 70.5225 30.1473 98.8779 69.7318 29.6082 98.8794 69.2468 29.2197 
98.9821 68.5207 28.6188 99.1869 67.7606 28.1753 99.3454 67.3072 27.9642 
99.5758 66.6755 27.6962 99.8953 65.8741 27.3076 100.156 65.3114 26.8034 
100.407 64.7162 26.2647 100.712 64.2122 25.7378 100.96 63.7953 25.1227 
101.087 63.6319 24.4869 101.102 63.6011 23.7548 101.104 63.7979 22.9727 
100.937 64.2213 22.2541 100.657 64.6615 21.8348 100.376 65.0023 21.6218 
99.9422 65.5801 21.4455 99.524 66.2106 21.3702 99.1214 67.0334 21.3914 
98.8174 67.7718 21.5537 98.5243 68.4688 21.7705 98.3493 69.0951 22.0018 
98.311 70.0053 22.3785 98.2487 70.8712 22.8585 98.3024 71.7283 23.2352 
98.6193 72.6464 23.3961 99.0484 73.3026 23.4139 99.5074 73.8978 23.2966 
99.7818 74.1414 23.1843 100.248 74.5583 22.7909 100.775 74.8009 22.182 
101.104 74.9983 21.6177 101.446 75.0127 20.9729 101.747 74.7305 20.2127 
102.066 74.268 19.433 102.254 73.9774 18.8461 102.598 73.6912 17.953 
102.876 73.514 17.2866 103.149 73.4649 16.4826 103.364 73.572 15.7668 
103.565 73.6568 14.8259 103.853 73.7509 13.8794 104.225 73.7955 13.0511 
104.66 73.7639 12.369 105.033 73.7991 11.8405 105.501 73.8679 11.2623 
106.12 73.9315 10.7334 106.64 74.009 10.4035 107.467 74.1768 9.93252 
108.326 74.409 9.54293 108.867 74.6337 9.34308 109.435 74.842 9.17081 
109.976 75.0861 9.05532 110.667 75.4247 8.93697 111.404 75.8261 8.81062 
112.035 76.1906 8.7366 112.905 76.6301 8.62237 113.519 77.0165 8.54609 
114.242 77.5532 8.43009 114.797 78.0021 8.25238 115.544 78.5878 8.10088 
116.086 79.0359 7.924 116.694 79.5891 7.72964 117.253 80.1237 7.59836 
117.82 80.7646 7.42392 118.141 81.1761 7.25462 118.59 81.7814 6.97184 
119.091 82.3662 6.6032 119.468 82.7638 6.21328 119.869 83.1902 5.65679 
120.194 83.4762 5.09015 
LINES 2 85
OFFSETS vtktypeint64
0 85 
CONNECTIVITY vtktypeint64
84 83 82 81 80 79 78 77 76 
75 74 73 72 71 70 69 68 67 
66 65 64 63 62 61 60 59 58 
57 56 55 54 53 52 51 50 49 
48 47 46 45 44 43 42 41 40 
39 38 37 36 35 34 33 32 31 
30 29 28 27 26 25 24 23 22 
21 20 19 18 17 16 15 14 13 
12 11 10 9 8 7 6 5 4 
3 2 1 0 
CELL_DATA 1
FIELD FieldData 2
Length 1 1 double
65.381603491 
Tortuosity 1 1 double
0.92061609079 
POINT_DATA 85
FIELD FieldData 7
MaximumInscribedSphereRadius 1 85 double
1.5486945117 1.5449762336 1.5474460478 1.6296326428 1.796590699 1.875965808 1.9190854365 2.0048815282 1.8925035103 
1.7848177249 1.7026571359 1.6150717501 1.5178356037 1.4900302172 1.4911330699 1.5388616236 1.5293032701 1.5082825535 
1.5024022455 1.532595572 1.5447584905 1.6979883907 1.9032291257 1.9988263082 2.0160445502 2.0653117527 2.132857337 
2.131978245 2.0612697497 1.991159468 1.8985862081 1.8773681395 1.9919262618 2.0856251129 2.1363848978 2.2136481359 
2.2359346529 2.2598799743 2.258789204 2.121124717 2.004550802 1.9546896128 1.9434781681 1.9265095816 1.9025191347 
1.9366549829 1.988391502 2.0148720287 2.1235325563 2.1255894764 2.021616426 1.9702614772 1.9342734838 1.8658545384 
1.7861294072 1.7383867004 1.7894799146 1.8071645814 1.7913307891 1.781191336 1.7749461298 1.7455235578 1.7260981058 
1.7830079039 1.8220093902 1.8174548959 1.8284197053 1.8487445392 1.8555823813 1.8374064729 1.7797282114 1.7635851933 
1.786634581 1.7884584968 1.7232540797 1.7244661815 1.7522632024 1.7563939606 1.7755095587 1.7779988372 1.8064461907 
1.8043970437 1.8085999394 1.8330947305 1.8881790522 
Curvature 1 85 double
0 0.15407607907 0.21038686341 0.21164720288 0.24899866695 0.28278517528 0.13537751029 0.42212511813 0.42255446864 
0.40147081834 0.18763552727 0.40058186542 0.29307098098 0.12120748496 0.1368490833 0.21854335539 0.16632441228 0.059384197447 
0.061770019755 0.30642573708 0.035100020611 0.14019565159 0.22106459463 0.50593830162 0.38994378045 0.3819611921 0.43066676244 
0.47477084484 0.43653925914 0.35027900193 0.20220011592 0.21484238797 0.2194778962 0.098797310116 0.18331908832 0.26612046783 
0.1176992938 0.15751696338 0.38322963996 0.32562824478 0.25265992563 0.40848443932 0.47683389638 0.43749980509 0.23339430016 
0.39803507519 0.47494307738 0.18724920534 0.11383598377 0.19020937539 0.065115727595 0.24624318462 0.25513000908 0.11388415775 
0.087778593797 0.14123931211 0.19957043766 0.14272406058 0.11041896179 0.23611516182 0.20703490275 0.086161559088 0.1159909024 
0.18577958123 0.10505332296 0.17985881345 0.072763336494 0.052372529732 0.068914073959 0.068411480295 0.11099546731 0.096701359754 
0.15065405848 0.10317454131 0.10924495006 0.061107832019 0.084182161783 0.10671427322 0.18045237068 0.074171119219 0.13118691044 
0.23385784884 0.19220951363 0.22541946343 0 
Torsion 1 85 double
0 0 -0.10968347055 -0.12892930422 -0.22845800799 -0.17444463733 1.967859999 0.034794252814 0.53220591788 
0.47894576822 -2.3847788049 -0.16909956109 0.097040846587 1.091100051 1.2808588941 0.25595019697 -0.040542964788 -0.16564291624 
-1.5703957798 -0.11096890516 -3.3022660614 -0.82307943126 -0.2088030643 -0.094878250149 0.18686781896 0.010380990292 -0.40272179357 
-0.20019362262 0.24962224611 0.66352275853 0.52222018702 -0.037700204762 -0.37054473532 0.47247953356 0.52166159904 -0.1879508685 
-0.6875420303 0.3075046454 -0.12023418107 0.073507990187 0.006143003404 0.57343328237 0.12308622387 -0.11244918207 0.029057372536 
-0.29672502858 -0.015923800055 -0.24241022723 1.6532346566 0.36655492171 -1.3242388468 -0.018896611688 -0.15977832486 -1.4017765713 
0.00961582464 0.27235804499 -0.33943816081 -0.64990168846 1.3582807303 -0.062424413888 -0.45787861704 -0.57780582576 -0.31497693321 
0.17926519764 0.069129850547 -0.45834938593 -0.35318490822 0.045337879646 0.86112205189 0.56091318027 -0.16268081269 -1.0562776136 
-0.24573415513 0.078743326681 0.27495144641 1.820224706 -0.42900264214 -1.1411236125 -0.28662685251 -1.2318242528 0.12004516779 
0.29823918421 -0.052579625076 0 0 
FrenetTangent 3 85 double
0.65874295358 0.22965848694 0.71645983871 0.65874295358 0.22965848694 0.71645983871 0.72370476734 0.28187190723 0.6299203423 
0.77131521673 0.36395000421 0.52212376969 0.78832639042 0.4830541507 0.38105142652 0.74385780844 0.54820808945 0.38228713226 
0.63409524984 0.60704008485 0.47898387186 0.53241551086 0.72399296057 0.43859767081 0.32468329786 0.89948839833 0.29240618556 
0.22473478599 0.96347716133 0.14562292254 0.18436170157 0.98054523177 0.067392962913 0.12983845707 0.95976808711 0.24897227564 
0.078914425844 0.87885967056 0.4705084408 0.031863969882 0.80838567681 0.58779017086 -0.066493506828 0.77272659209 0.63124656627 
-0.16690887146 0.80671102749 0.56688512659 -0.2547731564 0.85105246423 0.45912998366 -0.31153860516 0.86925327907 0.38385209955 
-0.32937614004 0.85839869343 0.39327222314 -0.33515919667 0.78833728721 0.51593859564 -0.31215667297 0.70590387195 0.6358128145 
-0.34133504879 0.67489438492 0.65422316809 -0.35271346337 0.58740321993 0.72838909243 -0.26255563533 0.40605583368 0.87531891234 
-0.10176007426 0.13979100678 0.98493825274 -0.011223818448 -0.10900526399 0.99397780575 0.10089004406 -0.38000062371 0.91946763129 
0.29886147658 -0.57686752995 0.76020107255 0.48765061832 -0.67850327835 0.54939073137 0.58218879385 -0.74861815516 0.3172176951 
0.56794094922 -0.80578460172 0.16779229372 0.49150558782 -0.87027139899 0.032402920365 0.4099778951 -0.90585684816 -0.10649646081 
0.3731693605 -0.89700157104 -0.23692363734 0.31774030083 -0.89808688923 -0.30410695589 0.12805132893 -0.92219301477 -0.36491492251 
0.050941874773 -0.89953907437 -0.43385986111 0.004468592886 -0.89541561159 -0.44520884336 -0.19595941182 -0.9385142116 -0.28423754773 
-0.4260107178 -0.89894451939 -0.10204714292 -0.57755120831 -0.81378720128 0.064691520419 -0.64464820671 -0.73736165667 0.20180801981 
-0.66490357696 -0.59306598721 0.45406603942 -0.63755987804 -0.42346422116 0.64358018561 -0.5642589902 -0.28988152078 0.7730333084 
-0.47958532549 -0.15138053803 0.86433896608 -0.40967678211 0.17079070191 0.89610014526 -0.3410990195 0.409244192 0.84626866314 
-0.30941672281 0.45892210713 0.83285760561 -0.31729558451 0.34434763057 0.88359958204 -0.35669584923 0.26615496758 0.89550522298 
-0.34747660783 0.14264155918 0.92677580493 -0.30581864847 -0.03630202469 0.95139745493 -0.24173177615 -0.11163748522 0.96389979785 
-0.24972894842 -0.09138439799 0.9639939544 -0.34782680683 -0.073039330166 0.93470945684 -0.47137874257 -0.0076310486894 0.88189786719 
-0.55492987628 -0.0024587591235 0.83189349493 -0.60305204135 -0.074616342717 0.79420440494 -0.69826114692 -0.085004938153 0.71077811671 
-0.79461017264 -0.098439507085 0.5990862517 -0.84916058659 -0.15468147261 0.50497518771 -0.87148871477 -0.20670518592 0.44472506805 
-0.88257896921 -0.28805428303 0.37158995296 -0.88905140195 -0.34719355067 0.29840282013 -0.90026055419 -0.36733861867 0.23365203574 
-0.89095555426 -0.42141996867 0.16912542786 -0.87786345239 -0.45469675984 0.15035496516 -0.8654748902 -0.48464527772 0.1267760593 
-0.87617345572 -0.46930340497 0.10988352732 -0.86838436094 -0.48320351098 0.11145837185 -0.81724137824 -0.56418478723 0.11752470186 
-0.77904916149 -0.60084895088 0.17906128061 -0.76795505538 -0.61035126401 0.19420702213 -0.76519731389 -0.61358602743 0.19489807018 
-0.73274411847 -0.6380633436 0.23656125296 -0.71675080952 -0.66803595026 0.19999061532 -0.67986932376 -0.70972286275 0.18458374984 
-0.62555039364 -0.74162941584 0.2422240999 -0.56896067048 -0.75144036148 0.33409749863 -0.57353494369 -0.71858048219 0.3933189024 
-0.57742356491 -0.64621895349 0.49898205462 -0.52712969081 -0.5579956907 0.64091738799 -0.47916012096 -0.47010710885 0.74121851345 
-0.47916012096 -0.47010710885 0.74121851345 
FrenetNormal 3 85 double
-0.10220763595 -0.91612893941 0.38763560921 -0.10220763595 -0.91612893941 0.38763560921 -0.60953927081 -0.16692336248 0.77498288265 
-0.00021292420655 -0.8202169815 0.57205249577 -0.17668402325 -0.41550966707 0.8922636788 0.56446713027 -0.20906495655 -0.79854160993 
0.74984400561 -0.63399098557 -0.18918085916 0.5591114477 -0.68980727715 0.45995685607 0.78420748736 -0.42885226117 0.448446602 
0.085775768322 -0.16842628947 0.98197510283 0.58974096397 -0.055508210133 -0.80568258888 0.19598630279 0.22130223121 -0.95530868916 
0.22282469953 0.4444879724 -0.86762871994 0.59229762199 0.45843219699 -0.66258844522 0.98680481587 0.14453382449 -0.072981017784 
0.59164661354 -0.37798613534 0.71209603719 0.63994693834 -0.20756436738 0.73985468134 0.44116060028 -0.22547137445 0.86864261009 
0.37204734863 0.5008083099 -0.78151891028 -0.040575407332 0.53502610591 -0.84386059412 -0.93732594132 -0.11975634493 -0.32722850973 
0.75768172725 0.60945990558 -0.23340313555 -0.39402937113 0.61280171538 -0.68499263669 -0.35537652224 0.80268671186 -0.47895883962 
-0.63210851299 0.75542982526 -0.17252422126 -0.059027838904 0.99237915629 0.10816341526 -0.57579393068 0.73137609049 0.36544543185 
-0.64135895368 0.46845801375 0.60762305904 -0.62848922458 0.16395213669 0.76034268028 -0.033594973438 0.36767342449 0.92934795996 
0.21794694562 0.34381592037 0.91339462545 0.62377173006 0.37776614569 0.68425256152 0.34953750293 0.048192844364 0.93568209548 
0.0055160093778 -0.25322117142 0.96739268758 0.88181423568 0.16201160748 0.4428949004 0.97702366832 0.054089376572 0.20615307633 
-0.20640043131 -0.43452786109 0.87668945465 0.79440254088 0.27359287533 -0.54228363576 0.74130542136 0.047966785571 -0.6694516112 
0.80469504489 -0.32494181325 -0.49686889894 0.29150853529 -0.27960668078 -0.91479116629 0.50809565936 -0.61049366552 -0.60756586911 
-0.34704681586 -0.29301096146 -0.89090015381 -0.020509700866 -0.82575788501 -0.56365172537 -0.80880761362 0.0062166619352 -0.58804047248 
-0.057024737746 -0.97754825807 -0.20284866881 -0.33331545454 -0.94242191292 0.027235010828 -0.093056078977 -0.9105379627 0.40281656451 
-0.60275912945 0.58275871641 -0.54504468652 0.42192126459 0.88570783171 -0.19365971017 0.52840297243 0.84797604453 -0.041556306653 
-0.27060215864 0.9310575645 -0.24475760117 -0.1792037555 0.98360719247 -0.020072491914 -0.79175180049 -0.55159061945 -0.26244404158 
0.96321432933 0.078611956895 0.25697921319 0.88970751102 -0.34014648186 0.30450109314 0.75671465364 -0.51709603773 0.39999327586 
0.363147483 0.8989701296 0.24490122842 0.67021459182 0.49253333783 0.55517863075 0.71583680324 -0.078745514257 0.69381324224 
0.5447350691 0.32009088406 0.7751164625 0.25985004748 0.71004408136 0.65445806233 0.25487832104 0.58383616747 0.77082577215 
-0.056542651915 0.84963341809 0.52433384726 0.44330871863 -0.49014971863 0.75048693081 -0.074493410122 0.65876090418 0.74865532989 
-0.14231208658 0.61282134924 0.77730126973 -0.44834842605 0.89064581955 0.075721284838 -0.13269449435 0.46581877397 0.87487430011 
0.43068472223 -0.86463905448 -0.25866962619 -0.47049663009 0.87383749419 0.12264157052 -0.57147417534 0.76704986706 -0.29163636325 
-0.34004875701 0.16499329894 -0.92582074624 0.26159443723 -0.022114570817 0.96492450283 -0.32154720167 0.10197873429 -0.94138607109 
-0.57330681076 0.76609682053 0.29054253099 -0.10648453102 0.38828399267 0.91536691315 -0.71771861618 0.59230479254 -0.36613524922 
-0.49710469886 0.13959287075 -0.85638819983 -0.53248859352 0.027037179887 -0.84600525334 0.26192041913 -0.61579176588 -0.7431003937 
-0.13926869552 -0.52424682959 -0.8401008821 -0.45620800668 -0.45049039945 -0.76741947763 -0.23893687426 -0.74272041852 -0.62552022352 
-0.23893687426 -0.74272041852 -0.62552022352 
FrenetBinormal 3 85 double
0.74539339966 -0.32857989249 -0.58002063239 0.74539339966 -0.32857989249 -0.58002063239 0.32359432483 -0.9448199929 0.051008763588 
0.63645329059 -0.44134396754 -0.63256834509 0.58934222493 -0.77072070431 -0.24220928523 -0.35784412763 0.80978993239 -0.46496004744 
0.1888310922 0.47912186925 -0.85719604118 0.63555339103 0.00033681418232 -0.77205684617 0.52877156963 0.083703998417 -0.84462670322 
0.97063731307 -0.20819304652 -0.12049423989 -0.7862673581 0.18828140392 -0.58850127827 -0.9719729133 0.17283096202 -0.15936785869 
-0.97165923382 0.17330932423 -0.16075512889 -0.80508894813 0.36925941869 -0.46419744431 -0.14763085358 0.6180643878 -0.77214088327 
0.78873044402 0.45425081135 -0.41419860824 0.72495417433 0.48231393979 -0.49174658982 0.84161809763 0.43995612978 -0.31323726089 
-0.86780880887 -0.11109779412 -0.48431926597 -0.94128738927 -0.30376205751 -0.14733181331 -0.15484925331 -0.69811040775 0.69904475346 
-0.55624525586 0.41602426935 -0.71938516988 -0.84872496573 -0.52861282129 0.015310705957 -0.89709089049 -0.43682113335 -0.066447209592 
-0.76816906674 -0.64014393189 0.011490490311 -0.99819323787 -0.057458355257 -0.017572628644 -0.81134613354 -0.56629368727 -0.1450134868 
-0.70664029771 -0.66915688911 -0.22997510171 -0.60596878553 -0.71606773293 -0.34648063846 -0.81235927155 -0.55171288792 0.18890554049 
-0.79368898637 -0.48218439267 0.37088543295 -0.60772616031 -0.31610193177 0.72852486766 -0.84246166653 -0.42083348297 0.33638894161 
-0.92774684156 -0.36230818358 -0.089546513525 -0.34848924658 -0.40889140176 0.8434234207 -0.1703749063 -0.3829286916 0.90793061874 
-0.977140618 0.04488865805 -0.20780091682 0.60737520095 -0.35125179159 0.71254301216 0.6419238126 -0.34189217906 0.68632613 
0.4134981899 -0.29378830654 0.86180489549 0.76253352426 -0.50948061308 0.39871309142 0.57119829352 -0.28912846909 0.76820390381 
0.66140890601 -0.74994487216 -0.01099762609 0.77012775179 -0.37256136238 0.51778497196 0.1656563797 -0.9570423486 -0.23796618844 
0.87564039129 -0.14657194772 0.46018536405 0.84915589968 -0.28752647564 0.44301555711 0.9354100839 0.058649891639 0.34866626615 
-0.73548808522 -0.67065846601 0.096304197562 -0.84929733223 0.31136208211 -0.42631877191 -0.77042739429 0.45836465956 -0.44310661132 
-0.89779422963 -0.33583507439 -0.28492161038 -0.93507270747 -0.17663253925 -0.30731088138 0.56097667939 -0.82661046475 0.044947800221 
-0.099265341883 0.99270793894 0.068391080292 0.29569757743 0.93753166727 0.18329570529 0.45297352464 0.85589336652 0.24952260642 
-0.74844955608 0.4380030372 -0.49797249061 -0.43259754547 0.86708898766 -0.24701427313 -0.0030069634232 0.99326396515 0.11583459629 
-0.26806413044 0.9422587168 -0.20072402095 -0.45978718012 0.68695781861 -0.56274746063 -0.41898026385 0.78511674015 -0.45612196048 
-0.46675185231 0.44175534507 -0.76615593939 -0.11430216391 0.79950602981 0.58968222258 -0.42893084107 0.65657932526 -0.62042076304 
-0.43121394963 0.66847229107 -0.60596973994 -0.16834324404 -0.00093846345286 -0.98572799061 -0.48305836666 0.74035925374 -0.46746421232 
0.2164041255 -0.17931430383 0.95969559492 -0.15665734183 0.054059233489 -0.98617243752 0.074389492614 -0.30549963552 -0.94928192656 
0.52673451268 -0.78214944194 -0.33285583009 -0.58464808503 0.79182212667 0.17664749188 0.55774588113 -0.78301502201 -0.27533072366 
-0.36661336254 0.077271153264 -0.927159 -0.68915116027 0.63479406913 -0.34943836094 0.15052471757 -0.3814033178 -0.91207116969 
0.6013099229 -0.65612471375 -0.45598984268 0.62668943921 -0.65924682331 -0.4155165132 0.77617998068 -0.32317579069 0.54138899684 
0.80447887302 -0.55458662607 0.21271440256 0.71694389161 -0.69692123598 -0.017095236815 0.84457962833 -0.47682878071 0.24355608243 
0.84457962833 -0.47682878071 0.24355608243 
SiphonLabel 1 85 int
0 0 0 0 0 0 0 0 0 
0 0 0 0 0 0 0 0 0 
1 1 1 1 1 1 1 1 1 
1 1 1 1 1 1 1 1 1 
1 1 1 1 1 1 1 1 1 
0 0 0 0 0 0 0 0 0 
0 0 0 0 0 0 0 0 0 
0 0 0 0 0 0 0 0 0 
0 0 0 0 0 0 0 0 0 
0 0 0 0 
