# vtk DataFile Version 5.1
vtk output
ASCII
DATASET POLYDATA
POINTS 92 float
105.916 70.9756 32.2956 105.351 71.4826 31.9197 104.602 71.9316 31.522 
103.929 72.344 31.1317 103.433 72.554 30.8874 102.953 72.6409 30.6597 
102.143 72.5661 30.3247 101.271 72.269 30.0059 100.62 71.772 29.8109 
100.169 71.2143 29.5258 99.8422 70.4425 29.3353 99.6623 69.6348 29.1608 
99.6117 68.7373 28.8238 99.7271 68.1116 28.5536 99.9535 67.4488 28.158 
100.377 66.7982 27.6384 100.734 66.3766 27.1457 101.3 65.9031 26.5014 
101.875 65.5806 26.0698 102.702 65.2816 25.6939 103.597 65.1545 25.3749 
104.36 65.2218 25.0651 104.995 65.424 24.6952 105.342 65.7037 24.3146 
105.582 66.3102 23.5922 105.608 67.1358 23.1708 105.363 67.945 22.8652 
104.872 68.7113 22.6187 104.505 69.1531 22.5219 104.021 69.5415 22.4507 
103.138 69.9841 22.4545 102.344 70.228 22.5815 101.507 70.396 23.0212 
100.905 70.6759 23.395 100.418 71.2069 23.7172 100.007 71.8456 24.004 
99.9164 72.3878 24.2773 99.9474 73.2678 24.6055 100.136 73.9781 24.7403 
100.443 74.7293 24.7843 100.792 75.3076 24.809 101.184 75.9635 24.7026 
101.453 76.6029 24.3067 101.771 76.9901 23.837 101.988 77.2138 23.4085 
102.152 77.3695 22.9541 102.371 77.5753 22.1707 102.484 77.6584 21.6962 
102.634 77.6126 20.7578 102.728 77.467 19.9271 102.674 77.3147 19.2019 
102.655 77.2091 18.4744 102.688 77.1569 17.8134 102.641 77.1482 17.2598 
102.591 77.0852 16.5809 102.492 77.0932 15.803 102.395 77.0096 15.0886 
102.368 76.9343 14.3506 102.548 76.9293 13.4438 102.876 77.0644 12.5505 
103.296 77.2707 11.7928 103.648 77.4991 11.182 103.986 77.7965 10.6854 
104.468 78.1828 10.1602 105.017 78.607 9.68524 105.647 79.1172 9.31051 
106.319 79.6831 9.03055 107.082 80.2649 8.90339 107.868 80.8257 8.83038 
108.582 81.3617 8.75324 109.127 81.7286 8.72598 109.728 82.0796 8.71215 
110.577 82.5783 8.72709 111.137 82.8716 8.68442 111.797 83.1334 8.66078 
112.713 83.4884 8.70904 113.462 83.815 8.80067 114.163 84.1545 8.82835 
114.942 84.5254 8.82868 115.708 84.885 8.81212 116.358 85.2149 8.77852 
116.843 85.4935 8.70159 117.604 85.9961 8.48076 118.308 86.5033 8.21977 
119.053 87.0254 7.93056 119.753 87.5334 7.58368 120.192 87.9369 7.27336 
120.566 88.4442 6.82471 120.772 88.8244 6.44033 121.094 89.4182 5.72339 
121.334 89.9025 5.05706 121.431 90.2026 4.63634 
LINES 2 92
OFFSETS vtktypeint64
0 92 
CONNECTIVITY vtktypeint64
91 90 89 88 87 86 85 84 83 
82 81 80 79 78 77 76 75 74 
73 72 71 70 69 68 67 66 65 
64 63 62 61 60 59 58 57 56 
55 54 53 52 51 50 49 48 47 
46 45 44 43 42 41 40 39 38 
37 36 35 34 33 32 31 30 29 
28 27 26 25 24 23 22 21 20 
19 18 17 16 15 14 13 12 11 
10 9 8 7 6 5 4 3 2 
1 0 
CELL_DATA 1
FIELD FieldData 2
Length 1 1 double
72.812262642 
Tortuosity 1 1 double
0.96330963745 
POINT_DATA 92
FIELD FieldData 7
MaximumInscribedSphereRadius 1 92 double
1.2845857939 1.3212665859 1.266244816 1.307209485 1.3558271613 1.3941419939 1.4490261155 1.5875621375 1.6832386691 
1.7958248005 1.7974635069 1.7183025841 1.6452525025 1.5995630513 1.6284349697 1.6876685173 1.7256623708 1.7228187831 
1.7213679848 1.7802617574 1.8700136394 1.9299881118 2.0163634005 2.0303596466 2.0068401812 1.9317528071 1.9058616828 
1.9423060999 1.9833378401 2.029386817 2.08577169 2.1515891416 2.025563247 2.0051218626 1.9031713836 1.8588827693 
1.7744961942 1.76038839 1.7858567669 1.8341092612 1.8862976828 1.9858215745 1.9918600329 1.9714581488 1.9937015903 
2.0175191285 2.0150722681 2.0300630025 2.1159567814 2.1982032864 2.1753326536 2.1684731687 2.1774295197 2.1840980528 
2.1687292113 2.1592286431 2.0685271254 1.982615128 1.8786750578 1.8126174018 1.8122462756 1.8274390757 1.8401378162 
1.8838990905 1.9579548409 2.0191865585 2.0601146979 2.1146506018 2.1496906535 2.2090585242 2.2229480441 2.2282431558 
2.2457086892 2.2167264657 2.1605132473 2.138594586 2.1896840646 2.2254753184 2.1971714537 2.1808690533 2.1540136001 
2.1674710755 2.1890789502 2.1750799638 2.1258997618 2.0449999583 2.0011529919 1.998754267 1.9946521719 1.9800931784 
1.9516543053 1.9615230761 
Curvature 1 92 double
0 0.19571075725 0.036296993467 0.18976826361 0.3589674337 0.36091158349 0.24883085884 0.36698182733 0.33783181232 
0.38661553506 0.20956381073 0.24274512038 0.2762550594 0.23300977592 0.26002223097 0.20460047846 0.15059320357 0.22970807767 
0.26374945843 0.21343717953 0.24757398719 0.29735896327 0.55168314959 0.51306030792 0.49769480055 0.36225626217 0.30425637491 
0.20381261436 0.34463444627 0.30335367065 0.24574647578 0.384079256 0.24788207049 0.48093782324 0.21200696556 0.55462537061 
0.27588515308 0.33436050757 0.23317569295 0.21130140032 0.24307425473 0.5303564889 0.45291418269 0.32490481728 0.32704075685 
0.14248157182 0.13123169609 0.32041971249 0.14771736929 0.23603484942 0.10518619843 0.1449924636 0.24451848557 0.12443144665 
0.1560474733 0.16744908336 0.13430314577 0.30666713314 0.22811696368 0.19242727162 0.099694783589 0.23070913057 0.18142408563 
0.12738441681 0.19561734673 0.13921377593 0.19436900743 0.06694842513 0.028363631031 0.087818961076 0.099542325912 0.04182339919 
0.11884567434 0.16386035138 0.097820343481 0.083120961333 0.10727913712 0.043494282505 0.024163112285 0.051305071311 0.16093931596 
0.15821154367 0.072317706614 0.021401492229 0.079920574868 0.17995775065 0.29996487669 0.22692938546 0.11333691226 0.085135836044 
0.14330208506 0 
Torsion 1 92 double
0 0 -0.049793837438 -0.35378385791 -0.050570485782 0.083915976198 -0.048328009097 -0.4309426813 0.051885724324 
0.29533116487 -1.0278362196 -0.068652473236 -0.028759486785 -0.24572124105 -0.15884169443 -0.13406842466 1.0935227913 0.22014926212 
-0.25729670076 -0.72573411522 -0.55865455694 -0.42233162576 -0.10338747212 0.4670567364 0.19905976525 -0.55821285469 -0.0081376056401 
-0.17286584806 -0.049070430549 0.27028289685 0.60395649556 0.56725771054 1.175336601 0.090279478818 -1.0690169753 0.032003843087 
0.82929895807 0.074235796802 -0.30906686479 0.3043694115 1.0023865383 -0.39780976319 -0.38753908643 0.81896313033 0.25444550879 
-0.047888325051 -0.47945714668 -0.023173109093 0.76718332812 0.53164794434 1.2519540779 -0.97057026372 -0.79998505062 -0.99731447376 
-0.18915167259 -0.83523580369 -1.1863804505 -0.22322748705 -0.17009483762 -0.090293535518 -0.56246392248 0.46735008354 0.56972700989 
-0.31085875531 -0.1055019977 0.2723832264 0.19577068421 0.25833750667 -0.26686994658 0.3401241426 -0.051351770125 -0.61338737273 
-0.73162952743 -0.93474846799 -1.2179777786 -1.0291302594 -0.57763264803 -0.94115751606 1.0316707424 -0.40103810562 -0.062213276548 
0.035525593092 -0.089558336676 -0.20791649017 0.76075630528 0.13049231701 -0.10164968972 -0.44546642309 -0.7969046266 0.86286454833 
0 0 
FrenetTangent 3 92 double
0.73033140967 -0.53100179279 0.42971284378 0.73033140967 -0.53100179279 0.42971284378 0.77294368006 -0.46815253342 0.42824207278 
0.79596556419 -0.42387312131 0.43216940851 0.86813018928 -0.26427877852 0.4201270066 0.9165408701 -0.0086037013909 0.3998484835 
0.91288131999 0.20187335974 0.35481663185 0.84943669029 0.44304907663 0.28664407352 0.6893370269 0.65934075936 0.30014034448 
0.48267531353 0.82462435327 0.29499019932 0.29810229043 0.93002434132 0.21491800527 0.12839781852 0.94989565501 0.28497762158 
-0.039507641306 0.92819711812 0.36998548106 -0.22941940373 0.86470434843 0.44682561139 -0.37599683683 0.76022992102 0.52978943542 
-0.46777133245 0.64270711881 0.60672690724 -0.53804179252 0.52142478296 0.66228938178 -0.64879372191 0.45257222938 0.61175573851 
-0.8087892399 0.35869281244 0.46604659824 -0.90386106173 0.22364101009 0.36471890505 -0.93452805089 0.033653912531 0.35429470256 
-0.88606073285 -0.17087851159 0.43092564553 -0.74014335202 -0.36330701772 0.56585848879 -0.38323581961 -0.57852197532 0.720029604 
-0.1438480795 -0.77322050153 0.61760649772 0.12123805577 -0.90698916279 0.40332616133 0.40352539133 -0.86349658494 0.30255727778 
0.56426145457 -0.79415095211 0.22568401836 0.70879190101 -0.69140123627 0.13992273422 0.85372311711 -0.51902382083 0.04208459006 
0.92307856048 -0.37781312426 -0.071994543734 0.91881668915 -0.23205103103 -0.31926197824 0.84021161924 -0.26152580197 -0.47502493598 
0.7138217223 -0.53143150272 -0.45611304157 0.56255758992 -0.73332699759 -0.38178589894 0.35827685307 -0.84354039081 -0.40009662037 
0.038819358571 -0.9203095854 -0.38925997023 -0.13121906479 -0.95183595348 -0.27710986033 -0.318832465 -0.94079569296 -0.11510570522 
-0.44244974679 -0.8955994468 -0.046258539363 -0.51419072842 -0.85580313207 0.056647100011 -0.42966161152 -0.84190645253 0.32647270142 
-0.40037297425 -0.70053165433 0.59072572551 -0.44181402284 -0.50452168729 0.74179393114 -0.36892544067 -0.36699215537 0.85393839188 
-0.2845838938 -0.26875886712 0.92020686736 -0.24914401767 -0.21676296698 0.94389674997 -0.18302380506 -0.025976442511 0.98276523708 
-0.13571251727 0.10655996144 0.98500105953 -0.025203183332 0.1880056375 0.98184452935 0.049837564645 0.17461223426 0.98337520042 
-0.0098488273111 0.11293394776 0.99355368453 0.0108092171 0.050068695112 0.99868728168 0.078731923901 0.0578661159 0.99521495004 
0.1017570201 0.037504224537 0.99410207826 0.12960479556 0.050203568607 0.99029399608 0.084871795045 0.10839468527 0.99047835444 
-0.092622997862 0.048539654523 0.99451741172 -0.27120993363 -0.069408618118 0.96001438303 -0.40513036452 -0.18512206934 0.89532072867 
-0.47321240983 -0.26668372106 0.83961289182 -0.4906403747 -0.37373808614 0.78714157919 -0.55500602264 -0.4626185867 0.69134098539 
-0.62507243821 -0.49145017121 0.6064331589 -0.68227603098 -0.54088322824 0.49187879703 -0.71891081531 -0.59383452178 0.36128631358 
-0.76251144181 -0.60975380756 0.21627897557 -0.80032516597 -0.59057292054 0.10345653315 -0.80459337016 -0.58833744026 0.080551629897 
-0.81080231143 -0.58144602352 0.067231938148 -0.84705304376 -0.53064021925 0.03036607911 -0.86273712308 -0.50565227188 -0.00066061242308 
-0.87165230718 -0.48982459005 0.017150112928 -0.90921030075 -0.41339725389 0.049389669784 -0.93109413419 -0.36448877782 -0.014547993643 
-0.92259490787 -0.37789334479 -0.077558081082 -0.90619245316 -0.41623975296 -0.074563435397 -0.90143567032 -0.43257707176 -0.017053130559 
-0.9039671367 -0.42749640025 0.009499659583 -0.89859885224 -0.43761453217 0.031837462029 -0.87821227829 -0.47056949193 0.085484194657 
-0.83037616774 -0.52066810738 0.19844430454 -0.79471793942 -0.54781945751 0.26137566592 -0.77892500989 -0.55305606626 0.29564305597 
-0.76653911342 -0.54641034541 0.33742187543 -0.71187423546 -0.56967009246 0.41074451748 -0.56549966008 -0.63359845068 0.5279802437 
-0.43009796169 -0.65825754611 0.61782905916 -0.33816416764 -0.62346988724 0.70493283044 -0.30514139614 -0.58540947656 0.75112214261 
-0.24327223478 -0.56755792738 0.78657270411 -0.24327223478 -0.56755792738 0.78657270411 
FrenetNormal 3 92 double
-0.64282537594 -0.74704775734 0.16939652978 -0.64282537594 -0.74704775734 0.16939652978 0.49515683623 0.023072196699 -0.86849719704 
-0.54634555513 -0.81045277907 0.21135947408 -0.26706689188 -0.96219673401 -0.053410863391 -0.088636827919 -0.97927614415 0.18210366893 
0.12112881619 -0.96397515931 0.23681153293 0.36344311376 -0.88502923078 0.29091642051 0.69876168699 -0.49582184581 -0.51564794386 
0.67022360825 -0.56461015976 0.48168006233 0.94282019061 -0.32204874113 0.085876053226 0.7392504304 0.099876382219 -0.66598311497 
0.97639016494 0.11455803717 -0.18313574726 0.65987580623 0.47564142316 -0.58166068882 0.76588428546 0.5767957236 -0.28412665226 
0.17765699324 0.74082026993 -0.64778339004 0.73583500555 0.673808642 0.067296051698 0.76064595752 0.36244665517 0.53856304131 
0.58627818422 0.4294650367 0.68690441327 0.341208415 0.89110411756 0.29918266862 -0.039172790211 0.97974287968 -0.19639089141 
-0.38452029061 0.79012870795 -0.4773266921 -0.65117861529 0.59720341515 -0.46831025177 -0.91403502363 0.34972884403 -0.20549868913 
-0.48475617781 0.59914880273 0.63720652874 -0.93436736542 0.032873367526 0.35479144317 -0.9025908539 -0.32146587695 0.28633798284 
-0.71648453916 -0.33521979337 0.61178231037 -0.70058903135 -0.66678453595 0.25411295081 -0.47038646515 -0.73399998879 0.48987813777 
-0.23833454242 -0.70881472068 0.66391139292 0.22909216266 -0.34512974033 0.91016605262 0.37410579914 0.91371281995 0.15866232603 
0.48295928799 0.8451897566 -0.22892051348 0.66005612335 0.67644665853 -0.32671980687 0.92797345122 0.27471225709 0.25179048759 
0.85656423845 0.2312546635 -0.46132308203 0.79284956674 0.067042622839 -0.60571845872 0.69756150044 -0.15069565977 -0.70049894449 
0.89312928574 -0.43539739803 -0.11291228784 -0.054799219687 -0.033130967816 -0.99794758605 -0.4294505181 -0.12752220457 -0.89404157613 
0.38857821651 -0.71361103969 -0.58289471922 -0.26170502844 -0.71842334518 -0.64449854553 -0.51599586501 -0.6832954502 -0.5165806762 
-0.65511495436 -0.6462713867 -0.39135366525 -0.36247372495 -0.88292062288 -0.29843587656 -0.31809579994 -0.94431212954 -0.084200142922 
-0.35404021999 -0.93377014216 0.052238340639 -0.98358497389 -0.18020786681 0.0092587188607 0.58980006847 0.78943843771 -0.17006714059 
0.76293907054 0.64313947827 -0.065540721251 -0.90576052363 0.42363558285 -0.011435330063 0.1230477412 -0.99124404688 0.04790086554 
-0.44487344919 0.89551632537 0.011752667481 -0.067711229091 -0.99593805012 0.059351409242 0.98511623723 0.13999746513 -0.099733188625 
0.9214636068 0.38261783694 0.067144710869 0.68568882211 0.6860253516 0.24331061671 0.73489743291 0.51661456423 0.43935766197 
0.055127170351 0.94224621498 0.33035294074 0.18226037622 0.8393464362 0.51213154102 0.67136344697 0.241605406 0.70064109918 
0.55345197237 0.26881403094 0.78830827159 0.31081942269 0.39436951508 0.86479128815 0.18858341209 0.3336383467 0.92364590093 
0.32154143743 -0.067076102456 0.94451675501 0.36505715023 -0.34310306351 0.86545569781 -0.565806778 0.71836701065 -0.40473636849 
0.47544632832 -0.58724739121 0.65505060141 0.5111034196 -0.79752546206 0.3205096439 -0.036851044859 0.061571670292 0.99742214228 
0.23744508369 -0.45263166263 -0.85950242013 0.40742292782 -0.85904356949 0.30992047948 0.019365038465 -0.089215137743 0.99582410821 
-0.26816455485 0.48371054638 0.83313377008 -0.1313329459 0.44464314635 -0.88602716083 0.092851085737 -0.15471475349 -0.98358630579 
0.10172680975 -0.23657964994 -0.96627207629 -0.34937230166 0.6697282761 -0.65528850976 -0.29768072599 0.39791118662 -0.8677861908 
-0.42147782614 0.35397610706 -0.83489960936 -0.50350253442 0.35449506837 -0.78792032867 0.1645520124 -0.63516147847 -0.75464728946 
-0.3892927272 -0.022516175088 -0.92083885366 -0.67410396472 0.39016833234 -0.62717821805 -0.79679133167 0.25444204665 -0.54807191012 
-0.82856313574 0.016082227077 -0.55966462464 -0.3321307068 -0.62179554527 -0.70926687043 -0.60812161871 -0.48719695192 -0.62675930539 
-0.96623105455 0.070779597425 -0.24776561063 -0.96623105455 0.070779597425 -0.24776561063 
FrenetBinormal 3 92 double
0.23106615524 -0.39994592673 -0.88693386878 0.23106615524 -0.39994592673 -0.88693386878 0.39670867773 0.88334640951 0.24964243595 
0.26066329817 -0.40434869844 -0.87667369931 0.41836019136 -0.065834430904 -0.90589214479 0.38999531557 -0.20234675639 -0.89830921403 
0.38984035899 -0.17320230619 -0.90444759695 0.38257863538 -0.14293626676 -0.91279943656 -0.19117156727 0.56518179399 -0.80251041838 
0.56375957345 -0.034785679319 -0.82520609538 0.14908089288 0.17702918654 -0.97284919412 -0.66107700107 0.29618060854 -0.6893868622 
-0.21237088333 0.35401492347 -0.9108084551 -0.71549329665 0.16140516216 -0.67971885076 -0.52158186316 0.29892668068 -0.79912151741 
-0.86581058742 -0.19522522143 -0.46071589903 -0.41116647979 0.5235437992 -0.74621981762 0.022009855065 0.81474584954 -0.57940035116 
0.046236956454 0.82879385166 -0.55764047136 -0.25809300383 0.39486472402 -0.88174250839 -0.35372703402 -0.19741150902 -0.91427888607 
-0.25892184884 -0.58864009306 -0.76580827695 -0.16779222106 -0.71509166672 -0.67859389825 -0.13292961351 -0.73688673466 -0.66281796756 
-0.8627393454 -0.20772762983 -0.46100981953 -0.33505068314 -0.41986902754 -0.84347557134 -0.14999002969 -0.38863007829 -0.90910376374 
-0.41019375426 -0.50690428622 -0.75814848716 -0.082395692934 -0.27814153431 -0.95699960119 -0.22336833417 -0.43801631233 -0.8707745388 
-0.30186523 -0.59568358622 -0.7443375901 -0.32139177456 -0.90941617609 -0.26394989279 0.39254208174 -0.31101951315 0.86555044712 
0.50715764306 -0.056875594601 0.85997458789 0.49785025063 -0.068201413269 0.86457717711 -0.10248400066 -0.46148974515 0.88120613067 
0.51457823779 -0.31551790382 0.79728143686 0.59512277855 -0.29918824238 0.74586545306 0.64168045971 -0.30363511364 0.70430952385 
0.080983334847 -0.091272869383 0.99252756274 0.85592344303 -0.51623961307 -0.029861707369 0.79433189039 -0.52433921513 -0.30676576631 
0.8298846011 -0.0038321435466 0.55792191527 0.85808557109 -0.47887969696 0.18537364572 0.7730732737 -0.63120843279 0.062718640415 
0.69988313594 -0.71421422982 0.007850474714 0.89807575247 -0.41649128423 0.1414035112 0.93022435404 -0.32802412478 0.16456860185 
0.92533109495 -0.3416405951 0.16445080873 0.17867679952 -0.96549417658 0.18946133196 -0.80600998529 0.58847049265 -0.063642618551 
-0.64639537069 0.75737542536 -0.092495890793 -0.42365202072 -0.90444790823 0.049929416489 0.98927273163 0.11868762431 -0.08516284572 
-0.88979386549 -0.44344553683 0.10780970645 0.98925112404 -0.074746250897 -0.12567900204 -0.14947500648 0.98420084432 -0.094899528324 
-0.3772609198 0.92263074564 -0.080166736222 -0.67548205834 0.72425938772 -0.13846417648 -0.54387052765 0.83596603488 -0.073250513187 
-0.87922182086 0.2026125941 -0.43118108312 -0.85208754127 0.39473713154 -0.34369960577 -0.49116131454 0.85300109674 0.17649275357 
-0.55043197698 0.82838140128 0.10396582483 -0.66173310634 0.74291185143 -0.10095185475 -0.66903179022 0.73215163345 -0.12786887551 
-0.56141553695 0.78974748537 0.24720741136 -0.47561844559 0.73041352215 0.49018688362 0.18025592544 -0.37122485692 -0.91087864556 
-0.34139478711 0.56308171987 0.75258791917 -0.14585758644 0.28700887629 0.94675840076 -0.50430809725 0.86053745378 -0.071753980245 
0.42876810471 -0.74511505754 0.51084387381 -0.085692396915 0.30190537623 0.94947878171 -0.36426461338 0.92692426338 0.090126030636 
-0.27732004525 0.78944330213 -0.54760648756 0.40195384706 -0.79311849081 -0.45759825653 0.42283851309 -0.88822318256 0.1796306483 
0.41532526042 -0.87251183201 0.25734807374 0.26544132608 -0.59996463015 -0.75470745656 0.37433858957 -0.78754748481 -0.48952995774 
0.36446105707 -0.77692061215 -0.51338338529 0.33898170246 -0.75777773026 -0.55755207553 0.60514334185 -0.53916498759 0.58574964957 
0.51075332612 -0.83721488059 -0.19545404465 0.19702517006 -0.72335652219 -0.66176765119 0.21291713932 -0.73062456035 -0.64873264416 
0.35846739523 -0.75262099689 -0.55232486961 0.88053062941 -0.47397848009 0.003195478686 0.7328552553 -0.6480238227 -0.20733620039 
0.084948037106 -0.82028546717 -0.56561080553 0.084948037106 -0.82028546717 -0.56561080553 
SiphonLabel 1 92 int
0 0 0 0 0 0 0 0 0 
0 0 0 0 0 0 0 0 0 
0 1 1 1 1 1 1 1 1 
1 1 1 1 1 1 1 1 1 
1 1 1 1 1 1 1 1 1 
1 1 0 0 0 0 0 0 0 
0 0 0 0 0 0 0 0 0 
0 0 0 0 0 0 0 0 0 
0 0 0 0 0 0 0 0 0 
0 0 0 0 0 0 0 0 0 
0 0 
