# vtk DataFile Version 5.1
vtk output
ASCII
DATASET POLYDATA
POINTS 84 float
75.7222 71.9399 29.9263 76.3384 72.1929 29.2906 76.8154 72.2136 28.7193 
77.4509 72.1934 28.1796 78.1634 72.1767 27.5948 78.6669 72.1128 27.0762 
79.2055 71.9082 26.5044 79.8344 71.4046 25.9329 80.2279 70.8875 25.5717 
80.5308 70.2469 25.2486 80.7886 69.4569 24.8911 80.8419 68.71 24.4865 
80.75 67.8605 24.0596 80.6396 67.0689 23.594 80.4126 66.284 23.1441 
80.1476 65.4466 22.749 79.7452 64.8382 22.4975 79.0903 64.1294 22.2889 
78.4748 63.5101 21.9985 77.7856 63.1278 21.5074 77.1116 62.9342 20.8742 
76.4724 62.9262 20.1464 75.9621 63.0784 19.4915 75.5286 63.4168 19.0013 
75.2016 63.8319 18.4757 74.9727 64.3199 17.9014 74.9145 64.9396 17.1678 
75.0338 65.6344 16.5829 75.3025 66.135 16.2195 75.6196 66.6272 15.8687 
76.0734 67.2958 15.4314 76.5899 68.0092 15.0537 76.978 68.3896 14.8901 
77.8114 68.8418 14.9354 78.4334 69.0562 15.0845 79.2356 69.411 15.3655 
79.9908 69.8955 15.6222 80.5624 70.3618 15.8053 81.1815 70.9386 16.1483 
81.7189 71.6186 16.6304 82.0326 72.3546 17.0787 82.2537 73.171 17.4457 
82.4063 74.0256 17.6576 82.3835 74.94 17.5516 82.2269 75.6235 17.2866 
81.8732 76.4145 16.8975 81.3297 77.06 16.4164 80.8599 77.5645 15.9067 
80.3329 77.8574 15.3421 79.7999 77.9006 14.693 79.3371 77.7964 14.0394 
78.8016 77.5747 13.2569 78.3841 77.4872 12.5713 77.9795 77.341 11.9548 
77.5738 77.1852 11.4422 77.1616 77.0386 10.8641 76.6698 76.9422 10.026 
76.2451 76.8737 9.13371 75.9526 76.8169 8.50202 75.557 76.8048 7.7523 
75.0466 76.9034 6.96577 74.4862 77.1199 6.18091 73.8861 77.3484 5.44439 
73.2825 77.5995 4.80801 72.9209 77.7642 4.45831 72.2378 78.0866 3.86085 
71.6502 78.3781 3.47152 71.1094 78.6554 3.18991 70.3355 79.1501 2.87697 
69.5669 79.6602 2.56673 68.9149 80.1402 2.37013 68.2771 80.5798 2.18531 
67.8054 80.9036 2.05451 66.9555 81.4067 1.91885 66.4434 81.6611 1.90425 
65.8221 81.9974 1.96512 65.2747 82.2682 2.03646 64.6948 82.5959 2.09954 
64.0274 83.0239 2.20316 63.2693 83.5153 2.24314 62.9464 83.8119 2.33812 
62.2082 84.3667 2.54441 61.4657 84.9602 2.68339 61.3127 85.094 2.67253 

LINES 2 84
OFFSETS vtktypeint64
0 84 
CONNECTIVITY vtktypeint64
83 82 81 80 79 78 77 76 75 
74 73 72 71 70 69 68 67 66 
65 64 63 62 61 60 59 58 57 
56 55 54 53 52 51 50 49 48 
47 46 45 44 43 42 41 40 39 
38 37 36 35 34 33 32 31 30 
29 28 27 26 25 24 23 22 21 
20 19 18 17 16 15 14 13 12 
11 10 9 8 7 6 5 4 3 
2 1 0 
CELL_DATA 1
FIELD FieldData 2
Length 1 1 double
69.288121072 
Tortuosity 1 1 double
1.0672152926 
POINT_DATA 84
FIELD FieldData 7
MaximumInscribedSphereRadius 1 84 double
1.3988425944 1.487259858 1.613324159 1.7298002066 1.6991589552 1.6564592093 1.6271225889 1.6311541914 1.5798624428 
1.4648957239 1.4075639282 1.4109127392 1.4523762393 1.5026335017 1.5964283149 1.7128510201 1.7396010731 1.7692944379 
1.8353055805 1.8406667738 1.9105231341 2.0515875113 2.1556143021 2.1834786259 2.1417761325 2.1268995476 2.1446528039 
2.1912346646 2.1825365683 2.1901435505 2.2388268261 2.291583223 2.2653742064 2.1031718993 1.9983286765 1.9544726222 
2.0107781056 2.0872431186 2.2120894287 2.2273530547 2.2037075731 2.2482040896 2.3091712262 2.2486327635 2.1576393504 
2.1279928732 2.1208315894 2.1559798534 2.1432904576 2.0550545126 2.0279907208 2.0767604024 2.0784330973 2.073985606 
2.0653123988 2.0594732049 2.0348844803 1.9932513833 1.9390158942 1.8990414622 1.8821169216 1.8734916488 1.8552212376 
1.8469862253 1.8752953356 1.9034422664 1.8941334937 1.9060664564 1.9794156257 2.0115470758 2.005265129 2.0011396431 
2.0223494705 2.0403001427 2.0269738451 2.0238040663 2.0461419094 2.1039862214 2.1813169511 2.2974900147 2.2594128818 
2.1986809303 2.2124229478 2.2048730485 
Curvature 1 84 double
0 0.31768558245 0.22804453536 0.020440741346 0.16171935839 0.2187150532 0.32705377722 0.27347181987 0.26843658206 
0.13989619516 0.27310982834 0.18018793195 0.07418026654 0.13673671068 0.088377005748 0.32028998289 0.22445887123 0.1196788174 
0.38476714213 0.27361721645 0.23207853114 0.22051324625 0.38910953385 0.24908687191 0.21351186312 0.27107643763 0.27550298726 
0.36762648495 0.1088897287 0.060554518725 0.10130682848 0.25664913351 0.59743078943 0.29835014266 0.14978347775 0.16325205339 
0.13684229695 0.18615566914 0.19423942771 0.24595630288 0.17477857526 0.21017649025 0.46481688615 0.38275644306 0.22557397684 
0.28170686432 0.13792843919 0.32165036229 0.38850602355 0.23747894029 0.11437956619 0.14870087511 0.11981072622 0.1334626945 
0.082449094373 0.16119097792 0.09278069682 0.019073549946 0.10981405099 0.16740262182 0.12891968093 0.065073958581 0.089479733953 
0.07730716879 0.071891785017 0.1564058837 0.14333844649 0.16830089061 0.017106982422 0.10884764532 0.037461088534 0.013987256887 
0.13936166932 0.16994692525 0.18284862305 0.07169944951 0.091531930304 0.090052576149 0.10094402306 0.35400662835 0.13846664377 
0.084159519738 0.35010801698 0 
Torsion 1 84 double
0 0 -0.90552449133 -2.8927661829 -0.63952327452 -0.69292264579 0.0089772081694 0.30013930866 0.22822006601 
1.0112784971 0.00045722084692 -0.16085913134 0.32106831615 -0.58970268162 0.87736366501 0.040116772574 0.092282075432 0.20576099449 
-0.013850730017 0.09014264262 -0.10835336369 -0.53360254824 0.19096711213 0.94875638502 0.23030784956 -0.29269083398 -0.016939437455 
0.25406946506 0.096214843922 -0.86076720551 0.8129289087 -0.14743267931 -0.040592925049 -0.22935321283 -1.7968898737 -0.44516339057 
0.75264294736 0.20676983774 -0.57101000967 -0.45394835477 -0.67323924094 -0.075901860138 0.084850395814 0.27292127708 0.37533305301 
-0.27067197454 -0.10841821321 0.0042746113432 -0.17981579715 -0.11164698925 -0.13844125139 -0.21557875981 0.53277674794 0.50404942346 
-0.25520521389 0.08665693817 0.557968175 2.4592401106 0.0065822489124 0.12891321587 -0.02208938319 -0.60880500051 0.21793470802 
0.024022792107 -0.268491932 -0.014982210928 0.46677457019 0.3326584754 0.67094367438 -0.24287425395 -1.4440304785 -1.3150889602 
0.010221173639 0.55663334855 0.27608177042 -1.4753279113 -0.43720840024 0.10040581445 -1.0289652034 -0.37931747547 -1.7605411209 
-0.45557766514 0 0 
FrenetTangent 3 84 double
-0.66201691021 -0.16575256764 0.73093070596 -0.66201691021 -0.16575256764 0.73093070596 -0.70755910821 -0.00031056705936 0.70665409639 
-0.76770964617 0.021034629039 0.64045253029 -0.73967916072 0.049030400182 0.67117118462 -0.68023289286 0.17524372226 0.71173931273 
-0.65556741782 0.39765266709 0.64195304895 -0.59455336995 0.59356398572 0.54239108135 -0.45986473255 0.764437903 0.45183970632 
-0.33365184563 0.85126708709 0.40499480534 -0.17839208514 0.88152340564 0.43714156662 0.021442626606 0.8867119376 0.46182480821 
0.10764957763 0.87338597043 0.47498264714 0.18196827942 0.8503265235 0.49379383221 0.25971813432 0.85646609114 0.44610797509 
0.38835376174 0.84120083012 0.37624794903 0.60399081265 0.75241061786 0.26281811271 0.66707016628 0.69739700046 0.26202064234 
0.71643968547 0.55004896699 0.42913903457 0.73351297201 0.30988779151 0.60492005799 0.69045345069 0.10595422402 0.71557510775 
0.63721884504 -0.079925144912 0.76652730854 0.60385229891 -0.31385401776 0.7327059824 0.51531503255 -0.51058983803 0.68829385769 
0.36387833752 -0.59109007938 0.71986462168 0.16518707097 -0.63742075767 0.75260082997 -0.032833700545 -0.70565630583 0.70779313797 
-0.24641097822 -0.75926485051 0.60232758246 -0.43195464046 -0.73214491422 0.52666783949 -0.4815426312 -0.72510197569 0.49228428696 
-0.51751454517 -0.73703596075 0.43469148611 -0.59549359943 -0.72001032621 0.35633201258 -0.82367394991 -0.56142844518 0.079745377225 
-0.90253171002 -0.41339226338 -0.12059580829 -0.89408271353 -0.35736773349 -0.27000815621 -0.84227213434 -0.45390915748 -0.29076473043 
-0.78485172145 -0.56242644678 -0.26016200201 -0.71380372298 -0.62529804373 -0.31541496727 -0.60972911874 -0.66256611468 -0.43501327042 
-0.44885158493 -0.74684126626 -0.49067339211 -0.29172784746 -0.84682186416 -0.44473317101 -0.20676688071 -0.92448231284 -0.32028098646 
-0.073047359399 -0.99554882042 -0.059553584712 0.10871587031 -0.96831790165 0.22481392501 0.30162692249 -0.8715370264 0.38658040721 
0.47116256009 -0.75443307213 0.45698641299 0.55521058209 -0.63010199827 0.54287446183 0.59747670707 -0.47788442242 0.64393172255 
0.64393520371 -0.20414733343 0.737340708 0.60690432109 0.037128559748 0.79390718292 0.56112833014 0.18317604144 0.80720600528 
0.53616580684 0.17398453806 0.82598765614 0.52782355917 0.15000481339 0.83600289853 0.56975949471 0.21230331054 0.79391524895 
0.58572677106 0.21657280416 0.78103800814 0.53251126614 0.14318293693 0.83422442904 0.46639542076 0.083942556687 0.88058444153 
0.42461037435 0.074154021908 0.90233431223 0.44542397031 0.044590795502 0.89420867119 0.50740810341 -0.048401082854 0.86034548396 
0.55552117809 -0.16347426757 0.81527442284 0.59073989995 -0.22652116901 0.77441237761 0.63764392542 -0.25408038455 0.72722306245 
0.66973087469 -0.28854465723 0.6842532691 0.70022655285 -0.32650441684 0.63488395828 0.73793064393 -0.35647566992 0.57304752116 
0.7887118108 -0.39750746777 0.46895787931 0.80337382822 -0.4717953431 0.36331755582 0.79365304264 -0.51700858182 0.32065086033 
0.78738622288 -0.54873513218 0.2809140273 0.79162747396 -0.56438259966 0.23409020413 0.80211018254 -0.55186579293 0.22817405999 
0.8356089773 -0.52285314969 0.1684702375 0.86986242052 -0.48386925526 0.095968292604 0.8862014253 -0.46188562015 -0.036176065386 
0.88297375089 -0.45867254139 -0.099884208006 0.87840163302 -0.46630419811 -0.10474237886 0.8497506128 -0.51480680013 -0.11356872189 
0.83737544559 -0.54007972279 -0.08435790504 0.80400632886 -0.58608656316 -0.100381092 0.76147652104 -0.61107127475 -0.21620685714 
0.77713196242 -0.60268594261 -0.18120587065 0.77153427385 -0.62653987257 -0.11037505309 0.77153427385 -0.62653987257 -0.11037505309 

FrenetNormal 3 84 double
-0.10077312602 -0.94669792786 -0.30595393519 -0.10077312602 -0.94669792786 -0.30595393519 0.67585831364 -0.29229123984 0.67659542638 
0.60631091685 0.34730714875 0.71537739448 -0.58942260689 -0.52847335455 -0.6109802812 -0.18496954407 -0.98061449535 0.064664358688 
-0.10259129597 -0.88913393368 0.44599985872 -0.44979969215 -0.80467258972 0.38753356022 -0.6949963208 -0.62656344705 0.35270151814 
-0.88794227388 -0.42807526799 0.1682560049 -0.94007010852 -0.021485770923 -0.34030361842 -0.98164819122 -0.068879060099 0.17782717386 
-0.33337831099 0.48180917467 -0.81038189822 -0.97957358331 0.11305890367 0.16629275146 -0.38082234471 -0.33368497814 0.86233907318 
-0.90953154485 0.28428142712 0.30321022264 -0.71757547969 0.3698899941 0.59014135866 -0.050089518245 0.39289689811 -0.91821733136 
-0.21191280373 0.75763673891 -0.61731639818 0.11505997125 0.82055217831 -0.55987081161 0.24483719223 0.89660113627 -0.3690002056 
0.27520911858 0.95262889037 -0.12945322817 0.047413188492 0.93173418907 0.36003248532 0.817848349 0.53297379597 -0.21694010889 
0.91182423925 0.38384924019 -0.14572685929 0.98619014868 0.097525443401 -0.13385730662 0.74904715148 0.45148036532 0.48486476939 
0.94145367493 -0.039968133462 0.33476488207 0.8967280167 -0.28622469428 0.33757116056 0.60458860727 0.13181762059 0.78555504636 
0.47452037723 0.17553830733 0.86256403487 0.76113876004 -0.36375894393 0.53697971905 0.40216712963 -0.47920971804 0.780140786 
0.20266619237 -0.65486134924 0.72806801038 -0.43675139909 0.56192989409 0.70248345854 -0.41064721795 0.88972463412 -0.19939643384 
-0.49047470012 0.82039798131 -0.29390767393 -0.48283971136 0.11315695394 0.86836704043 -0.7448680171 0.29138803099 0.60022050323 
-0.86097134762 0.5084700377 0.013658672461 -0.63952170061 0.5184359112 -0.56765852449 -0.36536154538 0.37663236466 -0.85126905444 
-0.48347022675 0.087575366503 -0.87096905515 -0.59231302282 -0.24472398397 -0.76764279106 -0.8567600687 -0.4256608826 -0.2911614633 
-0.70329561708 -0.63401066214 -0.32156765274 0.089184252068 -0.60385377203 -0.79209014083 -0.339826154 -0.87824245641 -0.33646451941 
0.014358540824 -0.96034885441 -0.27843115872 0.31160634749 -0.93004752479 -0.19471282916 0.23115048668 -0.97108582208 0.059680638973 
0.24554344919 0.90406616163 -0.34981822417 -0.22743659219 -0.92337422674 0.30927760011 -0.69286712095 -0.39541182396 0.60297980246 
0.61161530649 0.51421490122 -0.60125681055 0.48117476382 0.75963110445 -0.43752877827 0.8225367098 0.32508543735 -0.46663992484 
0.62060132568 -0.74950029731 -0.2304415303 -0.56412913842 0.78953893427 0.24163316506 -0.49891076498 0.7975530386 0.33911236959 
-0.20562085764 0.92302377705 0.32518789938 -0.73961759243 0.2315714346 0.63193392665 -0.56246641836 0.49147335942 0.66489507834 
-0.39169890269 0.64555733491 0.65561245944 -0.48239494083 0.43918017237 0.7579023006 -0.46065981377 0.35448067968 0.81371738565 
-0.36370006817 0.31329837998 0.87724932916 0.081858741719 0.69183844962 0.71739717453 0.46732726495 0.8555555632 0.22277770469 
0.070008126079 0.53233656921 0.8436330004 -0.60033406754 -0.7897414021 0.12612503779 -0.29364919454 -0.031792268765 0.95538442639 
-0.43118666437 -0.4342807975 0.79087182868 -0.33765651796 -0.44221074291 0.83092582986 0.16867172932 0.24892572779 0.95372209253 
-0.29745827399 -0.71130837412 0.63683512163 0.40061901659 0.83792482439 -0.370656704 0.48909624553 0.68945004814 0.53426912108 
-0.0407860654 0.09216256327 -0.99490831678 0.46934942609 0.52186621367 0.71229682806 -0.61397054962 -0.78691487068 0.061685901986 
0.090277573203 0.3917106845 -0.91564878607 0.053050070024 0.23625081638 -0.97024287775 0.053050070024 0.23625081638 -0.97024287775 

FrenetBinormal 3 84 double
0.74268323508 -0.27620485098 0.61002663272 0.74268323508 -0.27620485098 0.61002663272 0.20633867372 0.95632930242 0.20702322833 
-0.20738604409 0.93751548724 -0.27938457349 0.32473947972 -0.84753285092 0.41980035365 0.70927390988 -0.087663272396 0.69946098635 
0.74813527299 0.22652418048 0.62368293946 0.66647320068 -0.013557957216 0.74540569797 0.55272465282 -0.15183194418 0.81941596207 
0.316599059 -0.30347308179 0.89870413622 -0.2905932811 -0.47165119204 0.83252669508 0.18949153661 -0.45716256933 0.86896222171 
-0.9366271778 -0.071111643593 0.34303449381 0.085575347922 -0.51396739949 0.85353053378 0.88742370516 -0.39385298031 0.23949738502 
0.14810038709 -0.45996220889 0.87550045216 0.34681483414 -0.5450317921 0.76332156816 -0.74330911028 0.59939090017 0.29702207893 
-0.66468574582 0.35132991015 0.65936344571 -0.66986560063 0.48027458744 0.56622998662 -0.68068258515 0.42997686547 0.59311981372 
-0.71986949135 0.29344534149 0.62902920996 -0.79568485637 -0.18266651709 0.57751065174 -0.25607517501 0.67471249441 0.69223446507 
-0.19018178725 0.70941685831 0.67864468534 0.011925696156 0.76431902082 0.64472801412 -0.66170258649 0.54609033847 0.51374607469 
-0.23010129894 0.64955325809 0.72466127062 -0.096405667045 0.61809323646 0.78017094178 -0.63449925949 0.67590771541 0.37491258976 
-0.71204571983 0.65265940216 0.25889495485 -0.2570119861 0.59098609194 0.76464388975 -0.39977846877 0.67465261215 0.62050062758 
-0.37995121644 0.63266377314 0.67481376934 -0.099319266768 0.74600475682 -0.65849266211 0.34920841068 -0.048544332277 -0.93578679928 
0.37873782999 -0.10307106391 -0.91974671074 -0.5072968147 0.77213849812 -0.38269058195 -0.27092810645 0.68999939063 -0.67119207538 
0.23929185795 0.42858644843 -0.87123651378 0.71127129667 0.1188147144 -0.6928031511 0.90761136959 -0.058995890864 -0.41564538571 
0.87230764248 -0.034829604492 -0.48771536322 0.79833961604 -0.049705261377 -0.60015268428 0.41831015326 -0.24338452012 -0.87508890465 
0.53233553044 -0.16988590281 -0.8293115597 0.82691437206 0.488192681 -0.27907082882 0.7263193303 -0.017795127607 -0.6871270362 
0.76494528283 0.18987876157 -0.61547117737 0.73114200347 0.36555857491 -0.57601935651 0.79479837042 0.15309756368 -0.58724499689 
-0.80761045197 0.39037642848 0.44200859941 0.81833665867 -0.35338165396 -0.45326208724 0.4419380849 -0.8936312404 -0.078191657478 
-0.53183725569 0.82986701095 0.16873019173 -0.69634947985 0.63439674631 0.33561610537 -0.32543612665 0.94195175333 0.082572524948 
0.65921166901 0.65783773483 -0.36426568612 -0.69523794622 -0.61207837098 0.37683453386 -0.70258456088 -0.60130398785 0.38053705341 
-0.80567753078 -0.348286191 0.47914553693 -0.32247819705 -0.94607760288 -0.030740555554 -0.52634755874 -0.83300485903 0.17047331826 
-0.63089818919 -0.70710516059 0.31932705295 -0.52628689491 -0.83696812483 0.15002153933 -0.49320472497 -0.86444695874 0.0973681405 
-0.4956369033 -0.8624569196 0.10252863947 -0.58982170064 -0.54659739649 0.59442547692 -0.38951261256 -0.026959313601 0.92062648238 
-0.61247187552 -0.64459873704 0.45757039885 0.11368794932 -0.24037636948 -0.96399909293 -0.51998981299 -0.83332670558 -0.18755584809 
-0.34034643752 -0.73350171969 -0.58833623863 -0.3596212525 -0.75519547315 -0.54804411508 -0.43150536675 -0.85129175724 0.29850538106 
-0.36314725729 -0.53259731194 -0.76450256562 0.26060501655 0.28362366527 0.92284486337 -0.19674541586 -0.50954154852 0.83765067401 
0.54510444869 0.83655242212 0.05514694059 -0.3650820995 -0.61980496571 0.69466313066 -0.20783087378 0.085772276865 -0.9743969645 
0.62282892736 0.69522111175 0.35881991725 0.63397204539 0.74272022985 0.21551358618 0.63397204539 0.74272022985 0.21551358618 

SiphonLabel 1 84 int
0 0 0 0 0 0 0 0 0 
0 0 0 0 0 0 0 0 0 
0 1 1 1 1 1 1 1 1 
1 1 1 1 1 1 1 1 1 
1 1 1 1 1 1 1 1 1 
0 0 0 0 0 0 0 0 0 
0 0 0 0 0 0 0 0 0 
0 0 0 0 0 0 0 0 0 
0 0 0 0 0 0 0 0 0 
0 0 0 
