# vtk DataFile Version 5.1
vtk output
ASCII
DATASET POLYDATA
POINTS 90 float
76.0373 64.9483 36.6166 76.4634 65.7083 36.5154 76.9143 66.2981 36.4013 
77.1607 66.5789 36.2551 77.6923 67.115 35.8898 78.2744 67.4986 35.428 
78.9921 67.7595 34.8138 79.5394 67.8566 34.3726 80.1877 67.835 33.8186 
80.7704 67.6345 33.1034 81.1674 67.3145 32.4798 81.5691 66.9651 31.8512 
82.0173 66.5063 31.1644 82.192 66.11 30.6622 82.195 65.4486 30.0905 
82.0566 64.8907 29.6955 81.908 64.5473 29.3887 81.6147 64.1126 28.8706 
81.2637 63.7578 28.3226 80.8683 63.5189 27.7387 80.3443 63.483 27.0053 
79.7684 63.7673 26.3817 79.4912 64.1719 26.0574 79.1899 64.8745 25.8133 
79.0471 65.7679 25.5974 78.9825 66.73 25.6434 78.9158 67.4739 25.688 
78.8229 68.2908 25.8042 78.772 69.2112 25.8124 78.8106 70.0462 25.8182 
79.0918 70.9796 25.8588 79.3804 71.8947 25.8042 79.417 72.0698 25.7845 
79.5553 72.9702 25.5259 79.6676 73.697 25.227 79.821 74.3946 24.7152 
79.9846 74.8752 24.0616 80.1153 75.1639 23.2862 80.1704 75.1547 22.4243 
80.0747 75.0188 21.5075 79.9055 74.8295 20.7577 79.7607 74.68 20.0927 
79.5999 74.6002 19.1962 79.3186 74.5453 18.4473 79.1048 74.5454 17.6939 
78.9696 74.5607 16.9379 78.8757 74.5732 16.2127 78.8047 74.5514 15.4292 
78.7603 74.5679 14.4488 78.7177 74.5862 13.9415 78.7046 74.7495 13.0428 
78.5539 74.9102 12.3125 78.3455 75.1699 11.5325 78.1648 75.3463 11.1105 
77.9302 75.6378 10.5632 77.657 76.1654 9.89547 77.316 76.6418 9.12919 
77.082 76.9822 8.65169 76.6904 77.4861 7.95319 76.5426 77.6105 7.76254 
76.0791 77.9546 7.30164 75.4907 78.4204 6.82209 74.9781 78.9211 6.37763 
74.6473 79.2313 6.09158 74.0698 79.7189 5.7908 73.7554 79.9752 5.6521 
73.3172 80.3989 5.47049 72.8182 80.8291 5.28403 72.3835 81.2498 5.12368 
71.8459 81.7084 4.99091 71.1354 82.2615 4.91992 70.5083 82.6523 4.90409 
69.7365 83.195 4.90803 69.0994 83.5916 4.89008 68.3291 84.0157 4.90638 
67.5992 84.4553 4.86495 66.8053 85.0092 4.81178 66.3342 85.3501 4.81583 
65.8163 85.687 4.81856 65.2599 86.0212 4.81932 64.7216 86.4048 4.82607 
64.2924 86.7466 4.78799 63.6935 87.1974 4.73869 62.8518 87.6814 4.6432 
62.0501 88.0675 4.43776 61.2848 88.4149 4.21933 60.6455 88.9144 3.98405 
60.0488 89.4297 3.57029 59.5956 89.8309 3.1851 59.2338 90.3346 2.69944 

LINES 2 90
OFFSETS vtktypeint64
0 90 
CONNECTIVITY vtktypeint64
89 88 87 86 85 84 83 82 81 
80 79 78 77 76 75 74 73 72 
71 70 69 68 67 66 65 64 63 
62 61 60 59 58 57 56 55 54 
53 52 51 50 49 48 47 46 45 
44 43 42 41 40 39 38 37 36 
35 34 33 32 31 30 29 28 27 
26 25 24 23 22 21 20 19 18 
17 16 15 14 13 12 11 10 9 
8 7 6 5 4 3 2 1 0 

CELL_DATA 1
FIELD FieldData 2
Length 1 1 double
69.233019089 
Tortuosity 1 1 double
0.51906008226 
POINT_DATA 90
FIELD FieldData 7
MaximumInscribedSphereRadius 1 90 double
1.4219314567 1.5094321219 1.5646088836 1.5775809779 1.5922715057 1.6243262424 1.6800391531 1.6514933384 1.6001929327 
1.5711623996 1.6257408543 1.7366753903 1.8308085469 1.823299243 1.8368277262 1.8413493462 1.8344161942 1.8229330662 
1.8559950916 1.9265966613 2.0254682254 2.1012616618 2.1034736519 2.0614237784 2.0924524593 2.0679739556 2.1316854184 
2.2205264478 2.3024336178 2.3594247007 2.355136287 2.2431473829 2.2144110641 2.1414366636 2.1889854466 2.2483947894 
2.269581074 2.2760976964 2.1849411676 2.1399445602 2.1532893982 2.1785218122 2.1565996382 2.1488152721 2.1429646243 
2.140969677 2.1833249858 2.2370081251 2.2847837068 2.2663867645 2.1897263919 2.1404696186 2.1132236553 2.1019849529 
2.0792043428 2.0669177163 2.0277872779 2.0007419611 1.998052068 2.002799266 2.0079373169 2.0497668101 2.1040769156 
2.0865224966 2.0424276088 2.0222235755 2.0107949102 2.0008956455 1.9953337831 2.009900468 2.0016238875 2.0428272386 
2.0993289538 2.1176836709 2.1300238427 2.1741034777 2.222935078 2.2347025489 2.2352839561 2.2327078991 2.2247877675 
2.2145690211 2.1991752225 2.1805976915 2.1611479698 2.0778211062 1.983540022 1.8684050469 1.8154350945 1.7704790512 

Curvature 1 90 double
0 0.17930563243 0.40237194792 0.15469736356 0.27068030038 0.23315124701 0.16081411526 0.2124195732 0.29318367313 
0.25862267338 0.036260899496 0.082310207558 0.30553120001 0.42939235103 0.28903882403 0.26634183661 0.27310522309 0.18898174235 
0.23607595519 0.35548847753 0.44014852234 0.6111190762 0.47962979879 0.29097882555 0.31829078059 0.029552369194 0.10690942143 
0.16477542267 0.11562716989 0.27823140872 0.10293479754 0.19614769783 0.31122497381 0.1260393374 0.29304395345 0.35747558697 
0.33742930709 0.45572169243 0.24222561067 0.17459189388 0.03517430954 0.16704661585 0.21380141739 0.1357542622 0.13133362804 
0.064522606178 0.077565255376 0.071641843495 0.057477413991 0.22507895978 0.22607563101 0.14122518194 0.21907929077 0.15322298906 
0.22848686666 0.12692428252 0.077261071376 0.060009007026 0.25486425043 0.22673384643 0.13311375737 0.10276190397 0.0271674822 
0.28317348195 0.083524286106 0.1693116966 0.085738155362 0.08862572355 0.14262022148 0.14320251264 0.14497495294 0.07265317525 
0.074035788898 0.08384435057 0.089559981377 0.07395089 0.082820051249 0.083113922057 0.056688270687 0.12046159819 0.15834911095 
0.042098986501 0.14786158577 0.15703012037 0.039399132322 0.2718133028 0.23963167914 0.10482055103 0.27699577312 0 

Torsion 1 90 double
0 0 0.2320222955 -0.9780419803 -0.11709440133 -0.18306842615 -0.019418653487 0.65737471348 0.091776840427 
-0.21695836835 -2.4797055595 1.7848048403 -0.14083653982 -0.081342116858 0.71340027133 0.96458589102 0.0636822362 0.080232259859 
0.13945700668 -0.15637858687 0.19237298049 0.00088215892513 -0.0073234317063 0.15593953726 -0.436049397 -4.478731164 0.25075729229 
-0.31694680508 -0.9512495998 0.17028146299 2.289052814 -0.54807666644 -0.50917674144 -0.71622439219 -0.045650200954 0.10454354331 
0.15005290507 0.20909344194 0.5760544271 0.046542865211 1.8899563052 -0.77770556516 -0.18260650401 0.99970874917 0.39896868944 
0.91993810566 -0.21436494923 -1.0401634418 1.8149434119 -0.4986508069 -0.28040691359 0.20759893383 0.20244510769 1.2531708049 
-0.015029533907 0.086249694595 0.24316720658 -1.714354752 0.41555707906 1.0804147575 1.0659426214 0.73736008375 8.0312227772 
0.052489336252 1.3865976376 0.14942512152 -0.57306192721 -0.74762566598 -0.20869375014 -0.21406923174 -0.13189382566 0.97188504137 
0.62466197694 0.25028297179 -0.58728695467 -1.1456316566 -1.1803035694 -0.81012129559 -0.0049043823525 0.89986936805 0.72424163286 
1.1295593078 -0.51018831198 -0.34234622598 -2.931497572 0.41837865357 0.64939747589 -1.1034067366 0 0 

FrenetTangent 3 90 double
-0.54004298974 -0.83113062438 0.13257244981 -0.54004298974 -0.83113062438 0.13257244981 -0.60875664864 -0.76010156434 0.22729046313 
-0.62805720343 -0.65957524581 0.41292208022 -0.66915203114 -0.55253860689 0.49692720504 -0.71961550356 -0.35680886107 0.59568528914 
-0.7503256846 -0.21237536611 0.62602561521 -0.76768686664 -0.04845805353 0.63899036913 -0.69079637042 0.12464655024 0.71222441136 
-0.5634374048 0.29936615935 0.77001181387 -0.49025141944 0.41092662107 0.768630508 -0.48227614375 0.45859852599 0.74638938439 
-0.39137531626 0.53726019934 0.74711233428 -0.11708616593 0.69689718134 0.70754868976 0.086693394687 0.78067040449 0.61890061793 
0.24366526415 0.76522954103 0.59586155152 0.36309733827 0.63932112611 0.67781178851 0.43688599205 0.53533174146 0.72287658458 
0.50427540592 0.40111820573 0.76472903699 0.56411106823 0.1686121167 0.80829985575 0.62339680017 -0.14078243325 0.76912725607 
0.58861313518 -0.47527780122 0.65394616656 0.42153212994 -0.80671033103 0.41416072392 0.25830010921 -0.92827322799 0.26756282958 
0.11064532717 -0.98971614407 0.09066182072 0.076599151867 -0.99565984706 -0.05285866893 0.10117772474 -0.98962708477 -0.10198676923 
0.082266719425 -0.994063105 -0.071209059552 0.0069886038075 -0.99994403583 -0.0079425829964 -0.17790201646 -0.98370898145 -0.025836260353 
-0.29453875306 -0.95561216691 0.0072325241492 -0.28523575147 -0.95623540726 0.065225853663 -0.15558474798 -0.95633093121 0.24743592344 
-0.14416988527 -0.93614083932 0.32071073124 -0.1599738751 -0.85789924964 0.48827987544 -0.18788730345 -0.69829541068 0.69071114124 
-0.17842937032 -0.46642160852 0.86637973367 -0.11115168281 -0.1672113878 0.97963547057 0.022733089944 0.081268980127 0.99643291771 
0.15415900801 0.18918162613 0.96976559672 0.2109936605 0.22767938365 0.95060179544 0.1901002188 0.1426451673 0.97134662354 
0.25862385184 0.078791572911 0.96275936313 0.31283856178 0.034659146032 0.94917373429 0.22532530279 -0.0099620405086 0.9742326548 
0.15279419099 -0.01853053259 0.98808428515 0.10860087265 0.0061629637972 0.99406632995 0.065312030408 0.0029563695784 0.99786051057 
0.058395136278 -0.023344746828 0.99802055633 0.039229811288 -0.12794995202 0.99100445594 0.098110662886 -0.19414592549 0.97605412629 
0.22330075767 -0.26140144352 0.93904529015 0.29115149303 -0.32626251592 0.89932395654 0.35999139343 -0.40558554148 0.84018245947 
0.32745216275 -0.52815325172 0.78347254184 0.33105372144 -0.54119003102 0.77299209818 0.36042637578 -0.51203960975 0.77968472198 
0.39665684629 -0.53536797717 0.74568389771 0.443943063 -0.5171141428 0.73178379329 0.6059906857 -0.46437757181 0.64585506086 
0.64654846377 -0.49781103802 0.57806509532 0.63566273671 -0.55798604086 0.53346458492 0.61147077323 -0.58788522702 0.52961727062 
0.67588649748 -0.59369866305 0.43669135554 0.71824383565 -0.59905672022 0.3539164287 0.70752875072 -0.6393092707 0.30114236385 
0.70987765004 -0.64680579313 0.27877587403 0.71272131551 -0.64957447019 0.26472879348 0.72382572433 -0.65456646396 0.2182179302 
0.77069890689 -0.62465508427 0.12581423056 0.81588523335 -0.57578375281 0.052956170473 0.83177398252 -0.55506942468 0.0070693553015 
0.832021117 -0.55468224651 0.0082744348249 0.86384503526 -0.50375662256 0.0010100866098 0.86654091004 -0.49889492605 0.014515646493 
0.83656086911 -0.54540707725 0.051932960242 0.81599217358 -0.57719388496 0.031685829988 0.82488463334 -0.56527284781 -0.0056523626037 
0.84813445142 -0.52977385656 -0.0027592074674 0.83623135611 -0.54834680595 -0.0057358056227 0.7998072899 -0.59969778666 0.025901036401 
0.79015935014 -0.60921090047 0.067158619239 0.8358950264 -0.54242113572 0.084016762323 0.87243763351 -0.46187731764 0.15975581081 
0.87967785793 -0.41176364809 0.23794445651 0.82538591835 -0.49765200339 0.26660939463 0.71613193997 -0.5879961128 0.37605267701 
0.65356688755 -0.570539779 0.49732754205 0.54436667301 -0.60440567226 0.58168609117 0.54436667301 -0.60440567226 0.58168609117 

FrenetNormal 3 90 double
0.79221435744 -0.5551676155 -0.25334823971 0.79221435744 -0.5551676155 -0.25334823971 0.081046842803 -0.3445750639 -0.93525367393 
0.19624651811 -0.64773443277 -0.73615719024 0.27853035162 -0.80643344565 -0.52161857804 0.1668204443 -0.92158816564 -0.35049421152 
0.2951217401 -0.95499661401 0.029742658598 -0.073263664056 -0.98396196787 -0.16263849884 -0.55609585439 -0.7211513815 -0.41315624853 
-0.55150539421 -0.83025234732 -0.080764100519 -0.17640093635 -0.9104107151 0.37421255924 -0.14776796077 -0.88240244763 0.4466884263 
-0.87680447602 -0.46417557897 -0.12551869472 -0.8103992965 -0.47886575822 0.33755083445 -0.90162002835 -0.20276345061 0.38205798981 
-0.69711894845 0.56532674771 -0.44094312563 -0.54281156696 0.73640605559 -0.4038090193 -0.54352579822 0.79743715737 -0.2620566479 
-0.33066707776 0.90776895395 -0.25809845006 -0.16570209061 0.98213073886 -0.089230202013 -0.1644811221 0.93803587965 0.30501581756 
0.36988213905 0.87761964143 0.3049114104 0.30661043314 0.55661589346 0.772119673 0.89611681714 0.33369440556 0.29261355698 
0.293949185 0.11972931229 0.94829255423 -0.87619573722 -0.092519114447 0.47299180072 -0.27062282034 -0.12602450894 0.95440091799 
0.39533269094 0.098139191305 -0.91328022129 0.9997788541 0.0071445523715 -0.019778732717 0.97368210023 -0.17976814361 0.14009490441 
0.12079597807 -0.044737150124 -0.99166875472 -0.85304962496 0.22225165937 -0.47213402468 -0.33933031183 -0.18350194303 -0.92259523973 
-0.041533167183 -0.31808655453 -0.94715148728 0.13586209223 -0.50907842403 -0.84992979127 0.078947418655 -0.71169694484 -0.6980363628 
-0.15201684493 -0.8568702171 -0.49260969328 -0.24639883199 -0.95032862068 -0.19016605457 -0.77505835032 -0.62812075843 0.068912019469 
-0.74276552625 -0.62505580274 0.24000961746 0.22491843761 0.93509226191 -0.27388712663 0.24061265577 0.95244516666 -0.1869592319 
-0.96275127213 0.10242138276 0.25023958192 0.72308873159 0.63927570602 -0.2616663103 0.95582248166 0.19599674769 -0.21906313806 
0.98613675241 -0.062615186248 -0.15366731596 0.64827281806 -0.75853175888 -0.066120527383 0.70932365787 0.70321171615 -0.048510108901 
-0.8940260841 0.4436076308 0.062686767775 0.43593479593 0.89459966094 0.098246121227 -0.9761409271 0.17213408643 0.13235840254 
-0.42529393943 0.8407094276 0.33516074268 -0.83811323989 0.36629402092 0.40422133461 0.15499093038 0.9140449269 0.37483287358 
0.27771450028 0.84636036861 0.45447638308 -0.40628195811 -0.82111467729 -0.40088110114 -0.28021694713 0.7378212928 0.6140832211 
-0.9124469052 -0.14099309988 0.38413746365 -0.8656186692 -0.45854124878 0.20110754015 -0.7088822005 0.053122832038 0.70332353191 
-0.30379072876 0.52706421376 0.7936715364 0.59193069762 0.79589611965 0.12715115392 -0.47900691563 -0.80776914621 -0.34360061295 
-0.47772712285 0.098265603571 0.87299522751 -0.45864643305 -0.025120925536 0.88826369314 0.50048025691 0.75415727059 0.42516623063 
-0.70344962267 -0.67082241589 0.234852964 0.5894297262 0.75920948911 0.27599556069 -0.55431514524 -0.36332773803 0.74881751751 
-0.33057725175 -0.22316646237 0.91701440048 -0.52594388495 -0.70095860787 0.48170536632 0.50154161067 0.75689868506 0.41899927605 
-0.4927590379 -0.74582342578 -0.44825879592 -0.39504687621 -0.67618196979 0.62186486421 0.26016200187 0.42667884935 -0.86617601693 
0.5478215887 0.83140340067 -0.093058542414 0.13005642619 0.23671979183 0.96283387257 -0.56478770138 -0.82366822939 -0.050847814686 
-0.52781473026 -0.84452678407 -0.090477187789 0.54529078351 0.830371833 0.11463237052 0.35116572849 0.43247684426 -0.83044952303 
-0.61227757179 -0.77965914381 0.13133085911 -0.50864329382 -0.82300826771 -0.25286239526 -0.10467952892 -0.49589719942 -0.86204881755 
-0.09777234138 -0.64623529751 -0.75684906653 0.5404227176 0.83306782549 -0.11807321643 0.42340367034 -0.062348912503 -0.90379308752 
0.45363579744 -0.2306987827 -0.86080929069 0.83881751006 0.38636094565 -0.38354974188 0.83881751006 0.38636094565 -0.38354974188 

FrenetBinormal 3 90 double
0.2841654115 -0.031793142676 0.95824799242 0.2841654115 -0.031793142676 0.95824799242 0.78920640647 -0.55092071773 0.2713661931 
0.75301490912 -0.38131430569 0.53625362183 0.68895312064 -0.21063282183 0.6935253506 0.67403595335 -0.15284858392 0.72271214462 
0.59153573481 0.20707044958 0.7792350758 0.63662336615 -0.17167021531 0.75182446545 0.4621231171 -0.68147187945 0.56748418671 
0.61512607735 -0.47017118415 0.63289727963 0.85354335297 0.047871097021 0.51881798608 0.86346647355 0.10513473441 0.49332781867 
0.27935510137 -0.70419635763 0.65273901158 0.57405906489 -0.53387442741 0.62083354112 0.42375179032 -0.59113509678 0.68628982037 
-0.67427917865 -0.30794385503 0.67120650427 -0.75730834257 -0.22130209895 0.61441798092 -0.71673589042 -0.27841319406 0.63935573569 
-0.79772526515 -0.12271801527 0.59040214267 -0.80890142779 -0.083601231361 0.58197020048 -0.76440983118 -0.31665279879 0.56161251322 
-0.71883362491 0.062408145688 0.6923752184 -0.85340535838 -0.19848725138 0.48197728715 -0.36090955046 0.16418543751 0.91803455191 
-0.94939532768 -0.078274171606 0.30417374286 -0.4758293812 0.010083769616 -0.87947979941 -0.95735383069 -0.068964166247 -0.28056654584 
0.91484657203 0.046981298589 0.40105923158 0.019834372016 -0.0078026008 0.99977283275 -0.14245715228 -0.00023313825193 0.98980094232 
0.94797429007 -0.29121121863 0.12861093077 0.43697471716 -0.19031039333 -0.87911037461 0.92771133747 -0.22750425692 -0.29596196953 
0.98868095977 -0.14987085367 0.0069776080851 0.97772687965 -0.069627836801 0.1979952352 0.97901259762 -0.076622308277 0.18884743997 
0.97213879599 -0.21960035101 0.081986871952 0.96277355541 -0.2625183127 0.064429934761 0.63148060954 -0.77386023654 0.048709075972 
0.65156302325 -0.75730809833 0.044159607587 -0.95125883526 0.27159631803 0.146089248 -0.95182322765 0.26925928165 0.14673780204 
-0.078890374974 -0.99161572617 0.10234529957 -0.61585283998 0.76819614376 0.17492845451 -0.18876411598 0.98055394173 0.053684968802 
0.06471661875 0.99786570129 0.0087064025017 0.75362338328 0.65160692803 -0.086372492858 -0.70185061593 0.71097436111 0.043831162105 
-0.4441929412 -0.89591701217 0.0050337154632 -0.89912283677 0.42815914847 0.090872812099 -0.19370902989 -0.96575215035 -0.17262559437 
-0.87707573032 -0.47421191853 0.076558602477 -0.46129925778 -0.87142496001 -0.1667978832 -0.91999130874 -0.0047159473818 0.39191038732 
-0.90313328886 0.068762410882 0.42381834954 0.85166801281 -0.18133956286 -0.49170881516 -0.88970292243 -0.43981266233 0.12244807828 
-0.1005186126 -0.8327677196 -0.54442073226 0.23155750118 -0.72272601066 -0.65118986261 -0.36091732386 -0.88404266612 -0.29699705355 
-0.69977587635 -0.68875792917 0.18954217969 -0.49553096208 0.23494881343 0.83621057198 0.62980621485 -0.043588602779 -0.77552831376 
-0.56120783905 -0.7986649915 -0.21720955952 -0.52322962646 -0.80031242965 -0.29279817784 -0.49892141601 -0.15010152438 0.85354961955 
0.035104847662 -0.36282165359 -0.93119713131 -0.38026428216 -0.040668898827 0.92398328794 -0.41086620761 -0.66297488568 -0.62582206769 
-0.54474019087 -0.74833331862 -0.37849090966 -0.24023804004 -0.42086826924 -0.87473172119 -0.23792447283 -0.34496712067 0.90795904692 
0.25481246327 0.36888348155 -0.89386552993 -0.31258554133 -0.53759390711 -0.78312391765 0.42593730057 0.75435337361 0.4995281811 
0.0075775478798 0.10629913191 0.99430532299 -0.56324248655 -0.78154395867 0.26822927136 0.024087217515 0.045135965856 -0.99869041777 
0.045602224097 0.078193170376 -0.99589470591 -0.058095442803 -0.098986864594 0.99339142344 0.48681714241 0.67329513874 0.55649144289 
-0.02764735936 -0.1448920226 -0.98906113325 0.20630439764 0.16863185584 -0.96384739078 0.4773832547 0.73536066733 -0.48098847915 
0.46541103933 0.64251897899 -0.6087379782 -0.16334433594 0.24153774376 0.95654490028 0.5548732977 0.80645718078 0.20430966464 
0.60585880102 0.78820202502 0.10804018225 0.0070788513262 0.69672017555 0.71730808363 0.0070788513262 0.69672017555 0.71730808363 

SiphonLabel 1 90 int
0 0 0 0 0 0 0 0 0 
0 0 0 0 0 0 0 0 0 
0 1 1 1 1 1 1 1 1 
1 1 1 1 1 1 1 1 1 
1 1 1 1 1 1 1 1 1 
0 0 0 0 0 0 0 0 0 
0 0 0 0 0 0 0 0 0 
0 0 0 0 0 0 0 0 0 
0 0 0 0 0 0 0 0 0 
0 0 0 0 0 0 0 0 0 

