# vtk DataFile Version 2.0
00000251.nii_L_ICA_MCA_radius_pt3d_curvature_torsion
ASCII
DATASET POLYDATA
POINTS 69 float
109.802 78.9081 35.5464
109.961 79.3676 35.2427
110.023 79.6444 35.047
110.047 80.0117 34.7588
110.017 80.2226 34.5669
109.905 80.4844 34.273
109.716 80.6772 33.9635
109.554 80.7661 33.744
109.265 80.8389 33.3893
108.939 80.8399 32.9996
108.71 80.8018 32.719
108.366 80.6892 32.2674
108.145 80.5793 31.9471
107.84 80.3656 31.4413
107.584 80.0975 30.9115
107.446 79.8909 30.549
107.299 79.5427 29.9978
107.244 79.2871 29.6292
107.23 78.8725 29.0807
107.301 78.4265 28.5437
107.394 78.1162 28.1947
107.601 77.6397 27.6868
107.88 77.1629 27.1983
108.1 76.8527 26.883
108.475 76.4111 26.4234
108.748 76.1398 26.1244
109.183 75.78 25.6844
109.639 75.4905 25.2523
109.949 75.3435 24.9684
110.413 75.2011 24.5509
110.719 75.162 24.2804
111.166 75.1911 23.8929
111.591 75.3253 23.5368
111.859 75.4708 23.3233
112.233 75.7656 23.0491
112.57 76.1407 22.8421
112.772 76.4274 22.7471
113.036 76.8998 22.6757
113.186 77.235 22.678
113.367 77.7558 22.7585
113.492 78.2841 22.9306
113.543 78.634 23.0941
113.57 79.1478 23.4065
113.553 79.48 23.6549
113.479 79.9604 24.0773
113.347 80.4194 24.5453
113.231 80.7152 24.8739
113.018 81.1474 25.378
112.77 81.5725 25.8793
112.591 81.8559 26.203
112.31 82.2868 26.6605
112.12 82.5807 26.94
111.842 83.0354 27.3108
111.58 83.509 27.6128
111.42 83.8356 27.7711
111.205 84.3402 27.9381
111.083 84.6845 28
110.931 85.2089 28.0159
110.818 85.7368 27.9375
110.763 86.0873 27.8327
110.709 86.6064 27.5979
110.685 87.1125 27.2721
110.683 87.4404 27.0061
110.698 87.9155 26.5367
110.717 88.2201 26.1787
110.758 88.6576 25.5769
110.811 89.0714 24.9003
110.853 89.3338 24.4089
110.924 89.7072 23.6124
LINES 1 70
69 0 1 2 3 4 5 6 7 8 9 10 11 12 13 14 15 16 17 18 19 20 21 22 23 24 25 26 27 28 29 30 31 32 33 34 35 36 37 38 39 40 41 42 43 44 45 46 47 48 49 50 51 52 53 54 55 56 57 58 59 60 61 62 63 64 65 66 67 68

POINT_DATA 69
SCALARS radius float
LOOKUP_TABLE default
0.586642
0.627371
2.37786
2.51905
2.50535
2.37949
2.37539
2.19433
2.1084
1.89482
1.85964
1.74244
1.94137
1.88469
1.95033
1.98267
1.99535
2.05576
2.05011
2.00466
1.98836
2.024
2.03763
2.00328
2.24303
2.31021
2.19856
2.1764
2.16615
1.91675
1.81215
1.83717
1.90359
1.83142
2.26487
2.09639
2.05011
2.25999
2.30916
2.47144
2.21908
2.33655
2.39361
2.31415
2.36271
2.45929
2.4013
2.37453
2.39462
2.44496
2.50944
2.57915
2.46868
2.41292
2.50419
2.65639
2.66873
2.66178
2.66671
2.8382
2.6496
2.71811
2.53857
2.39825
2.29873
2.30282
2.34673
2.35741
2.35741
SCALARS curvature float
LOOKUP_TABLE default
0.249622
0.334243
0.406832
0.52798
0.595893
0.629157
0.565249
0.491395
0.376998
0.28636
0.244277
0.206119
0.193634
0.187177
0.188883
0.191809
0.19553
0.195617
0.189622
0.175191
0.161523
0.139096
0.120182
0.112709
0.113199
0.122306
0.148106
0.185689
0.215517
0.263501
0.29448
0.332834
0.35701
0.365927
0.371375
0.370279
0.367335
0.3607
0.354239
0.339108
0.314846
0.293151
0.25335
0.22328
0.176749
0.132585
0.106116
0.0745987
0.0643918
0.0745807
0.107084
0.134905
0.182113
0.232803
0.265932
0.309298
0.33047
0.344891
0.335455
0.317744
0.281031
0.240393
0.2143
0.179137
0.15899
0.133935
0.114515
0.103962
0.0907636
SCALARS torsion float
LOOKUP_TABLE default
-0.0468867
-0.0840994
-0.114904
-0.175765
-0.228455
-0.302007
-0.33653
-0.340358
-0.336105
-0.328824
-0.312947
-0.256103
-0.198864
-0.12274
-0.0691169
-0.0450183
-0.0246029
-0.0228805
-0.0363926
-0.0722446
-0.108591
-0.178242
-0.268547
-0.326207
-0.351651
-0.313855
-0.217794
-0.12213
-0.072496
-0.0144209
0.0196389
0.07118
0.113284
0.132575
0.14456
0.135764
0.122181
0.0901054
0.0614218
0.0135693
-0.0258103
-0.048495
-0.0821918
-0.107618
-0.157092
-0.243052
-0.347859
-0.651123
-0.865134
-0.65888
-0.337633
-0.223951
-0.13041
-0.0737706
-0.0429054
-0.00507081
0.0173239
0.0489264
0.0757203
0.0856222
0.0875392
0.0746689
0.0621103
0.0451079
0.0345548
0.0193874
0.00760332
0.0029635
0.000125362
